<svg width="210mm" height="297mm" version="1.1" viewBox="0 0 210 297" xmlns="http://www.w3.org/2000/svg"><path d="m87.7 187c0.672-1.7 4.96-9.56 5.21-9.56 0.272 0-3.06 6.3-4.95 9.38-0.412 0.668-0.464 0.705-0.258 0.183zm13.1 0.0937c-0.0225-0.0365 0.451-1.6 1.05-3.47 0.601-1.87 1.18-3.69 1.29-4.05s0.231-0.646 0.272-0.646c0.121 0 0.0968 7.24-0.0243 7.34-0.0538 0.0442-0.609 0.247-1.23 0.451-0.624 0.204-1.18 0.386-1.23 0.404-0.0495 0.0188-0.108 4e-3 -0.131-0.0322zm17-0.742c-0.759-2.04-2.08-6.69-2.24-7.89l-0.0471-0.352 0.114 0.235c0.289 0.595 1.4 4.22 1.88 6.13 0.516 2.06 0.629 2.78 0.294 1.88zm-3.09-0.651c-0.466-2.44-1.02-7.43-0.992-8.95l9e-3 -0.52 0.109 0.548c0.462 2.32 1.12 8.19 1.03 9.28l-0.0264 0.352zm-42.2-1.25c-0.711-1.19-0.559-1.12-1.83-0.872-1.34 0.259-1.34 0.27-0.492-0.829 0.836-1.09 0.818-0.888 0.186-2.08-0.655-1.24-0.718-1.21 1.16-0.519l0.602 0.222 0.898-0.937c1.09-1.14 1.08-1.14 0.93 0.38l-0.117 1.16 0.109 0.103c0.0599 0.0568 0.514 0.288 1.01 0.514 1.31 0.598 1.32 0.519-0.123 0.941-1.34 0.391-1.25 0.289-1.44 1.56-0.238 1.56-0.182 1.54-0.888 0.355zm18.9 0.812c-0.0474-0.328 1.32-4.11 1.86-5.12 0.64-1.21-0.786 2.97-1.55 4.54-0.167 0.345-0.307 0.606-0.31 0.58zm-7.45-0.83c0-0.0271 0.332-1.29 0.738-2.8 1.4-5.22 2.63-10 2.63-10.3 0-0.189-1.54 0.432-5.59 2.26-0.773 0.348-1.46 0.632-1.53 0.632-0.193 0-1.65-1.5-1.65-1.7 0-0.322-0.161-0.268-0.687 0.229-1.67 1.58-3.54 2.74-5.23 3.24l-0.705 0.209-2.19 0.0762-0.682-0.163c-7.38-1.76-9.86-14.4-5.03-25.7 0.235-0.549 0.428-1.05 0.428-1.12 4.56e-4 -0.0916-0.611-0.361-2.29-1.01-2.19-0.845-2.48-0.972-2.4-1.05 0.0198-0.0199 1.5-0.285 3.28-0.588l3.25-0.552 0.157-0.208c0.0861-0.115 0.396-0.529 0.689-0.92 3.52-4.71 8.26-6.94 11.8-5.56 0.293 0.114 0.0976-0.278-1.28-2.56-0.778-1.29-1.39-2.37-1.37-2.41 0.0233-0.0377 1.06 0.263 2.29 0.668 3.35 1.09 6.08 1.91 6.15 1.84 0.0826-0.0826-0.36-1.25-1.92-5.06-1.95-4.75-1.9-4.34-0.364-3.47 6.26 3.52 8.41 4.68 8.5 4.59 0.0832-0.0831-0.221-1.56-0.83-4.02-0.924-3.74-1.65-6.15-2.84-9.43-0.695-1.92-1-2.84-0.966-2.88 0.0336-0.0336 0.11 0.0694 1.52 2.06 2.37 3.35 4.62 5.96 8.52 9.89 2.3 2.32 2.33 2.34 2.51 1.73 0.163-0.543 1.23-4.48 1.69-6.23 0.507-1.92 0.342-2 1.74 0.79 1.36 2.72 2.35 4.5 2.5 4.5 0.274 0 4.5-6.37 9.43-14.2 0.675-1.07 1.27-1.97 1.33-1.99l0.104-0.0335-0.0647 2.14c-0.194 6.43 0.0507 14.4 0.442 14.4 0.237 0 5.26-6.33 9.28-11.7 1.16-1.54 2.13-2.78 2.16-2.74 0.0564 0.0575-0.114 1.32-0.789 5.86-0.799 5.37-1.17 8.89-0.93 8.89 0.32 0 6.47-4.36 12-8.52 1.85-1.39 3.38-2.49 3.39-2.44 0.0161 0.0482-0.0931 0.288-0.243 0.533-0.149 0.245-0.97 1.59-1.82 2.99-2.31 3.79-4.81 8.06-4.81 8.23 0 0.0997 0.0919 0.0914 0.94-0.0847 0.409-0.085 1.05-0.155 1.43-0.156l0.682-1e-3 0.61-0.427c1.97-1.38 2.96-1.82 1.53-0.686-0.377 0.3-0.87 0.658-1.1 0.797-0.525 0.321-0.518 0.349 0.117 0.508 1.23 0.309 2.48 1.08 3.47 2.14 0.699 0.748 0.63 0.876 1.02-1.9 0.181-1.29 0.354-2.38 0.385-2.41 0.0495-0.0532 8.15-0.918 8.59-0.918 0.191 0 1.44 1.92 1.44 2.22 0 0.0831-0.42 1.49-0.934 3.14-1.88 6.02-3.58 11.7-5.52 18.3l-0.171 0.587-0.565 0.108c-0.619 0.118-0.675 0.194-0.361 0.485 1.32 1.22 1.8 3 1.33 4.88-1.05 4.14-5.48 5.57-7.84 2.54-0.159-0.205-0.336-0.372-0.392-0.372-0.452 0-2.3 0.997-2.3 1.24 0 0.12 0.431 0.696 4.92 6.58 1.61 2.11 1.89 2.04-2.42 0.578-3.29-1.12-6.81-2.23-8.21-2.6-0.192-0.0506-0.372-0.0606-0.41-0.0229-0.0725 0.0725 1.25 4.07 2.86 8.67 0.543 1.55 0.96 2.84 0.926 2.88-0.034 0.034-0.819-0.504-1.74-1.19-3.73-2.79-7.35-5.41-8.96-6.49l-0.855-0.573-0.104 0.143c-0.0575 0.0786-0.104 0.171-0.104 0.206 0 0.0347-0.192 1.11-0.427 2.39-0.495 2.7-1.14 6.47-1.37 8.05-0.0902 0.603-0.183 1.16-0.207 1.24l-0.0434 0.146-0.139-0.146c-0.0764-0.0804-0.623-0.904-1.22-1.83-2.42-3.78-5.42-7.98-5.76-8.05-0.077-0.0143-0.285 0.289-0.616 0.9-0.736 1.36-3.43 6.41-4 7.5-1.11 2.13-1.68 3.17-1.74 3.17-0.0852 0-0.102-0.0776-0.578-2.62-0.562-3.01-1.36-6.79-1.45-6.88-0.142-0.145-1.07 0.987-5.65 6.88-1.4 1.81-2.76 3.54-3.01 3.84l-0.456 0.548-0.0241-0.169c-0.0133-0.0932 0.1-1.31 0.253-2.7 0.404-3.7 0.565-5.66 0.717-8.74l0.0512-1.04h-0.117c-0.184 0-6.62 6.58-11.5 11.8-0.977 1.04-1.3 1.33-1.3 1.18zm42.6-0.592c-0.0172-0.0538-0.0882-0.45-0.158-0.881-0.0696-0.431-0.354-2.06-0.632-3.61-0.509-2.85-0.566-3.26-0.434-3.12 0.039 0.0409 0.466 0.832 0.949 1.76 0.483 0.926 1.25 2.38 1.7 3.24 0.901 1.71 0.894 1.64 0.199 1.8-0.388 0.0906-0.579 0.194-0.945 0.513-0.467 0.407-0.623 0.476-0.679 0.301zm-46.9-2.53c1.03-1.71 3.68-5.19 3.68-4.85 0 0.274-1.76 2.79-2.85 4.07-0.894 1.05-1.12 1.26-0.826 0.78zm62.6-0.972c-0.935-1.41-0.729-1.3-2.02-1.06-1.86 0.343-1.81 0.402-0.795-0.968 1.01-1.36 1.18-0.942-2.49-6.18-0.493-0.702-0.876-1.3-0.852-1.32 0.0535-0.0535 0.0756-0.035 2.09 1.75 3.62 3.21 3.37 3.03 3.73 2.56 0.398-0.524 1.29-1.51 1.37-1.51 0.0435 0 0.074 0.545 0.074 1.32 0 1.65-0.113 1.46 1.26 2.21 1.55 0.843 1.55 0.734-0.087 1.17-1.26 0.334-1.17 0.225-1.26 1.61-0.124 1.88-0.0602 1.85-1.01 0.422zm-63.8-1.35c0.164-0.29 1.49-1.73 2.09-2.27 1.57-1.41 1.73-1.43 0.486-0.0532-0.874 0.968-2.78 2.69-2.58 2.32zm69.8-8.51c-1.46-0.881-3.74-2.59-3.46-2.59 0.19 0 2.12 1.25 3.38 2.19 1.6 1.2 1.63 1.34 0.0799 0.398zm0.927-2.47c-2.32-1.02-6.54-3.29-7.43-3.99-0.592-0.467 4.8 2.18 6.93 3.4 2.07 1.18 2.2 1.35 0.5 0.595zm1.77-4.13c-0.797-0.432-1.91-1.03-2.47-1.34-1.62-0.876-1.55-0.801-1-1.12l0.367-0.215 0.21 0.0793c0.116 0.0436 1.21 0.425 2.43 0.847 2.57 0.889 2.4 0.794 2.23 1.23-0.0712 0.186-0.129 0.558-0.129 0.826 0 0.616 0.0963 0.634-1.64-0.31zm0.138-9.2c-1.01-0.129-2.11-0.364-2.49-0.527l-0.272-0.118 0.392-5e-3c0.796-0.01 3.31 0.427 3.95 0.686l0.196 0.0791-0.47-4e-3c-0.258-2e-3 -0.848-0.0524-1.31-0.112zm-86-11.5c-0.755-0.0599-2.37-0.338-2.45-0.422-0.153-0.153 2.37 0.0159 3.61 0.241 1.25 0.228 0.639 0.323-1.15 0.181zm1.84-1.54c-2.07-0.339-7.52-1.72-7.77-1.97-0.353-0.353 6.91 1.32 8.25 1.9l0.267 0.116-0.274-8e-3c-0.151-4e-3 -0.362-0.022-0.47-0.0397zm-3.24-3.48c-0.0203-0.1-0.0922-0.62-0.16-1.16-0.143-1.13-0.0249-1.01-1.36-1.38-1.32-0.366-1.35-0.285 0.554-1.32l0.535-0.291-0.0562-1.4c-0.0679-1.69-0.119-1.68 0.942-0.365 1.03 1.27 0.801 1.17 2.19 0.95 1.49-0.241 1.46-0.312 0.511 1.01l-0.548 0.764 0.0832 0.155c0.0457 0.0855 0.329 0.533 0.629 0.994 0.773 1.19 0.791 1.16-0.534 0.777-0.504-0.146-1-0.278-1.11-0.294l-0.193-0.0276-0.653 0.861c-0.716 0.943-0.778 0.998-0.832 0.73zm10.7-0.821-0.767-0.201-0.14 0.127c-0.207 0.187-0.276 0.161-0.587-0.218-0.155-0.189-0.723-0.725-1.26-1.19-1.33-1.15-1.33-1.14 0.243-0.503 0.641 0.258 1.27 0.469 1.4 0.47 0.173 5.4e-4 0.314 0.0798 0.509 0.285 0.148 0.156 0.596 0.528 0.994 0.826 0.965 0.722 0.936 0.752-0.395 0.403zm5.97-3.34c-0.194-0.142-1.06-0.769-1.92-1.39s-2.16-1.56-2.88-2.09c-1.54-1.12-1.3-1.04-1.77-0.568-1.78 1.78-4.84 0.966-5.38-1.44l-0.088-0.39-0.482-0.166c-3.31-1.14-3.39-6.69-0.112-7.64 0.371-0.107 0.381-0.127 0.433-0.932 0.186-2.84 3.99-4.14 6.19-2.1 0.456 0.424 0.446 0.42 0.764 0.256 1.33-0.687 3.26 0.153 4.01 1.74l0.25 0.533 0.06 1.49-0.174 0.47c-0.219 0.589-0.218 0.821 4.19e-4 1.41 0.352 0.946 0.0789 2.01-0.713 2.77l-0.421 0.407 1.62 3.2c1.65 3.24 1.72 3.39 1.51 3.22-0.515-0.427-4.35-6.9-4.35-7.34 0-0.365 0.337-0.429 0.509-0.0961 0.158 0.306 0.262 0.296 0.602-0.0587 0.57-0.595 0.733-1.28 0.497-2.1l-0.134-0.464-0.43-0.418c-0.49-0.477-0.492-0.517-0.02-0.411 0.416 0.0934 0.495 0.0386 0.611-0.421 0.485-1.92-1.25-3.79-3.08-3.31l-0.392 0.102-0.0245 0.254c-0.0276 0.286-0.0356 0.292-0.248 0.159l-0.153-0.0955-0.492 0.465 0.105-0.94-0.377-0.284c-2.06-1.55-4.9-0.415-5.02 2.01l-0.0282 0.555 0.24 0.0995c0.132 0.0547 0.281 0.149 0.331 0.209l0.0905 0.109h-0.581c-3.24 0-3.75 5.52-0.593 6.43l0.219 0.0628 0.125-0.191c0.166-0.253 0.326-0.242 0.356 0.0246l0.0248 0.215 0.838-0.0356-0.101 0.121c-0.0554 0.0668-0.235 0.19-0.4 0.274-0.616 0.314-0.0517 1.46 0.993 2.02l0.392 0.208 1.41 0.00144 0.384-0.189c0.534-0.263 1.1-0.817 1.03-1-0.135-0.327-0.129-0.404 0.0349-0.492l0.168-0.09 0.329 0.197c0.754 0.453 6.91 5.92 6.67 5.92-0.0431 1e-5 -0.237-0.116-0.431-0.259zm56.7-4.87c0-0.222 2.7-2.75 4.09-3.82 1-0.778 0.844-0.542-0.587 0.861-1.53 1.5-3.5 3.17-3.5 2.96zm-59.5-0.366c-0.693-0.888-1.43-1.86-1.54-2.02l-0.125-0.189-0.438 0.449c-1.44 1.48-4.15 0.84-4.12-0.965l0.0033-0.196 0.133 0.195c1.57 2.3 4.86 0.759 4.06-1.91-0.183-0.608 0.128-0.387 0.423 0.301 0.214 0.498 0.275 1.01 0.167 1.41l-0.0848 0.307 0.848 1.34c0.466 0.735 0.873 1.38 0.903 1.43 0.106 0.189-0.0278 0.0954-0.225-0.157zm8.64-1.69c-4.62-4.06-4.3-3.72-3.89-4.15 0.166-0.171 0.31-0.444 0.414-0.787 0.243-0.8-0.0399-1.1 2.92 3.13 2.38 3.41 2.38 3.41 0.555 1.81zm42.7-1.82c-3e-3 -0.11 0.385-1.15 0.671-1.79 0.0655-0.148 0.139-0.435 0.163-0.639 0.034-0.287 0.0936-0.407 0.264-0.533 0.121-0.0896 0.703-0.736 1.29-1.44 1-1.19 1.29-1.49 1.29-1.34 0 0.0724-1.05 2.36-1.31 2.84-0.1 0.189-0.182 0.444-0.182 0.565 0 0.121-0.0584 0.266-0.13 0.321-0.247 0.192-1.09 1.04-1.57 1.59-0.267 0.301-0.486 0.494-0.488 0.428zm-23.1-0.871c-0.671-2.07-1.94-7.79-1.46-6.59 0.54 1.35 1.96 7.27 1.78 7.44-0.0186 0.0186-0.163-0.366-0.322-0.854zm13-1.05c-0.0168-0.349 1.14-3.48 2.24-6.05 0.969-2.27 0.863-1.59-0.231 1.47-0.633 1.78-1.99 4.88-2.01 4.58zm-0.984-2.07c0.434-2.15 1.74-6.65 3.14-10.9 1.35-4.07 1.5-4.34 0.766-1.46-1.01 3.99-3.38 11.6-3.86 12.4l-0.086 0.142zm-11.5-1.31c-0.623-2.69-1.58-8.53-1.48-9 0.126-0.581 1.45 6.61 1.67 9.08 0.0713 0.796 5e-3 0.768-0.191-0.0783zm-12.5-0.392c0.162-1.5 0.232-2.63 0.165-2.66-0.323-0.116-2.42-1.26-2.44-1.33-0.0194-0.0588 0.476-0.253 1.36-0.535 1.73-0.55 1.56-0.339 1.83-2.24 0.258-1.81 0.286-1.95 0.377-1.95 0.0358 0 0.43 0.757 0.877 1.68l0.812 1.68 0.238 0.0375c0.131 0.0206 0.819 0.0773 1.53 0.126 1.73 0.118 1.7 0.0405 0.403 1.17-0.609 0.53-1.11 0.992-1.11 1.03s0.0734 0.247 0.163 0.475c0.304 0.77 0.855 2.32 0.855 2.41 0 0.144-0.102 0.101-1.35-0.579-0.667-0.365-1.27-0.684-1.33-0.71-0.082-0.0314-0.471 0.262-1.19 0.898-1.24 1.1-1.26 1.1-1.19 0.495zm15.1-2.23c-0.121-0.723-0.753-6.36-0.732-6.54l0.0243-0.204 0.979-0.597c0.538-0.329 1.06-0.647 1.15-0.708 0.36-0.231 0.353-0.178-0.569 4.74-0.735 3.92-0.744 3.96-0.853 3.31zm25.9-1.23c-0.809-1.19-0.62-1.12-2.15-0.703-1.69 0.464-1.64 0.555-0.514-1.02 0.894-1.25 0.883-0.933 0.083-2.31-0.889-1.53-0.942-1.46 0.668-0.894 1.43 0.502 1.28 0.546 2.42-0.731 1.15-1.29 1.13-1.3 0.981 0.415l-0.12 1.36 0.0991 0.0905c0.0545 0.0498 0.655 0.295 1.33 0.546 1.49 0.549 1.49 0.51-0.121 1.05-1.59 0.532-1.45 0.374-1.63 1.82-0.219 1.74-0.14 1.71-1.05 0.381z" fill="#f8c805"/><path d="m87.7 187c0.672-1.7 4.96-9.56 5.21-9.56 0.272 0-3.06 6.3-4.95 9.38-0.412 0.668-0.464 0.705-0.258 0.183zm13.1 0.0937c-0.0225-0.0365 0.451-1.6 1.05-3.47 0.601-1.87 1.18-3.69 1.29-4.05s0.231-0.646 0.272-0.646c0.121 0 0.0968 7.24-0.0243 7.34-0.0538 0.0442-0.609 0.247-1.23 0.451-0.624 0.204-1.18 0.386-1.23 0.404-0.0495 0.0188-0.108 4e-3 -0.131-0.0322zm1.43-0.815c0.409-0.135 0.768-0.267 0.797-0.294 0.0678-0.063 0.137-3.89 0.0815-4.51l-0.0421-0.47-0.304 0.9c-0.594 1.76-1.39 4.33-1.39 4.47 0 0.189-0.0148 0.191 0.861-0.0969zm15.6 0.0739c-0.759-2.04-2.08-6.69-2.24-7.89l-0.0471-0.352 0.114 0.235c0.289 0.595 1.4 4.22 1.88 6.13 0.516 2.06 0.629 2.78 0.294 1.88zm-3.09-0.651c-0.466-2.44-1.02-7.43-0.992-8.95l9e-3 -0.52 0.109 0.548c0.462 2.32 1.12 8.19 1.03 9.28l-0.0264 0.352zm-42.2-1.25c-0.711-1.19-0.559-1.12-1.83-0.872-1.34 0.259-1.34 0.27-0.492-0.829 0.836-1.09 0.818-0.888 0.186-2.08-0.655-1.24-0.718-1.21 1.16-0.519l0.602 0.222 0.898-0.937c1.09-1.14 1.08-1.14 0.93 0.38l-0.117 1.16 0.109 0.103c0.0599 0.0568 0.514 0.288 1.01 0.514 1.31 0.598 1.32 0.519-0.123 0.941-1.34 0.391-1.25 0.289-1.44 1.56-0.238 1.56-0.182 1.54-0.888 0.355zm0.521-0.297c0.0241-0.0969 0.0682-0.423 0.098-0.724 0.0715-0.724 0.134-0.87 0.398-0.934 1.67-0.4 1.67-0.409 0.691-0.865l-0.744-0.345 0.0016-0.376c8.54e-4 -0.207 0.0367-0.62 0.0796-0.917 0.103-0.71 0.112-0.711-0.633 0.0647-0.746 0.777-0.614 0.744-1.56 0.4-0.907-0.33-0.879-0.369-0.406 0.554 0.443 0.863 0.454 0.764-0.179 1.55-0.614 0.764-0.633 0.741 0.429 0.51l0.74-0.161 0.144 0.177c0.0789 0.0975 0.283 0.417 0.454 0.71 0.333 0.571 0.419 0.633 0.487 0.356zm18.4 1.11c-0.0474-0.328 1.32-4.11 1.86-5.12 0.64-1.21-0.786 2.97-1.55 4.54-0.167 0.345-0.307 0.606-0.31 0.58zm-7.45-0.83c0-0.0271 0.332-1.29 0.738-2.8 1.4-5.22 2.63-10 2.63-10.3 0-0.189-1.54 0.432-5.59 2.26-0.773 0.348-1.46 0.632-1.53 0.632-0.193 0-1.65-1.5-1.65-1.7 0-0.322-0.161-0.268-0.687 0.229-1.67 1.58-3.54 2.74-5.23 3.24l-0.705 0.209-2.19 0.0762-0.682-0.163c-7.38-1.76-9.86-14.4-5.03-25.7 0.235-0.549 0.428-1.05 0.428-1.12 4.56e-4 -0.0916-0.611-0.361-2.29-1.01-2.19-0.845-2.48-0.972-2.4-1.05 0.0198-0.0199 1.5-0.285 3.28-0.588l3.25-0.552 0.157-0.208c0.0861-0.115 0.396-0.529 0.689-0.92 3.52-4.71 8.26-6.94 11.8-5.56 0.293 0.114 0.0976-0.278-1.28-2.56-0.778-1.29-1.39-2.37-1.37-2.41 0.0233-0.0377 1.06 0.263 2.29 0.668 3.35 1.09 6.08 1.91 6.15 1.84 0.0826-0.0826-0.36-1.25-1.92-5.06-1.95-4.75-1.9-4.34-0.364-3.47 6.26 3.52 8.41 4.68 8.5 4.59 0.0832-0.0831-0.221-1.56-0.83-4.02-0.924-3.74-1.65-6.15-2.84-9.43-0.695-1.92-1-2.84-0.966-2.88 0.0336-0.0336 0.11 0.0694 1.52 2.06 2.37 3.35 4.62 5.96 8.52 9.89 2.3 2.32 2.33 2.34 2.51 1.73 0.163-0.543 1.23-4.48 1.69-6.23 0.507-1.92 0.342-2 1.74 0.79 1.36 2.72 2.35 4.5 2.5 4.5 0.274 0 4.5-6.37 9.43-14.2 0.675-1.07 1.27-1.97 1.33-1.99l0.104-0.0335-0.0647 2.14c-0.194 6.43 0.0507 14.4 0.442 14.4 0.237 0 5.26-6.33 9.28-11.7 1.16-1.54 2.13-2.78 2.16-2.74 0.0564 0.0575-0.114 1.32-0.789 5.86-0.799 5.37-1.17 8.89-0.93 8.89 0.32 0 6.47-4.36 12-8.52 1.85-1.39 3.38-2.49 3.39-2.44 0.0161 0.0482-0.0931 0.288-0.243 0.533-0.149 0.245-0.97 1.59-1.82 2.99-2.31 3.79-4.81 8.06-4.81 8.23 0 0.0997 0.0919 0.0914 0.94-0.0847 0.409-0.085 1.05-0.155 1.43-0.156l0.682-1e-3 0.61-0.427c1.97-1.38 2.96-1.82 1.53-0.686-0.377 0.3-0.87 0.658-1.1 0.797-0.525 0.321-0.518 0.349 0.117 0.508 1.23 0.309 2.48 1.08 3.47 2.14 0.699 0.748 0.63 0.876 1.02-1.9 0.181-1.29 0.354-2.38 0.385-2.41 0.0495-0.0532 8.15-0.918 8.59-0.918 0.191 0 1.44 1.92 1.44 2.22 0 0.0831-0.42 1.49-0.934 3.14-1.88 6.02-3.58 11.7-5.52 18.3l-0.171 0.587-0.565 0.108c-0.619 0.118-0.675 0.194-0.361 0.485 1.32 1.22 1.8 3 1.33 4.88-1.05 4.14-5.48 5.57-7.84 2.54-0.159-0.205-0.336-0.372-0.392-0.372-0.452 0-2.3 0.997-2.3 1.24 0 0.12 0.431 0.696 4.92 6.58 1.61 2.11 1.89 2.04-2.42 0.578-3.29-1.12-6.81-2.23-8.21-2.6-0.192-0.0506-0.372-0.0606-0.41-0.0229-0.0725 0.0725 1.25 4.07 2.86 8.67 0.543 1.55 0.96 2.84 0.926 2.88-0.034 0.034-0.819-0.504-1.74-1.19-3.73-2.79-7.35-5.41-8.96-6.49l-0.855-0.573-0.104 0.143c-0.0575 0.0786-0.104 0.171-0.104 0.206 0 0.0347-0.192 1.11-0.427 2.39-0.495 2.7-1.14 6.47-1.37 8.05-0.0902 0.603-0.183 1.16-0.207 1.24l-0.0434 0.146-0.139-0.146c-0.0764-0.0804-0.623-0.904-1.22-1.83-2.42-3.78-5.42-7.98-5.76-8.05-0.077-0.0143-0.285 0.289-0.616 0.9-0.736 1.36-3.43 6.41-4 7.5-1.11 2.13-1.68 3.17-1.74 3.17-0.0852 0-0.102-0.0776-0.578-2.62-0.562-3.01-1.36-6.79-1.45-6.88-0.142-0.145-1.07 0.987-5.65 6.88-1.4 1.81-2.76 3.54-3.01 3.84l-0.456 0.548-0.0241-0.169c-0.0133-0.0932 0.1-1.31 0.253-2.7 0.404-3.7 0.565-5.66 0.717-8.74l0.0512-1.04h-0.117c-0.184 0-6.62 6.58-11.5 11.8-0.977 1.04-1.3 1.33-1.3 1.18zm-12.8-10.9c2.55-0.609 5.14-2.65 7.85-6.18 0.681-0.888 0.699-0.482-0.169-3.96-0.835-3.35-0.704-3.17-1.56-2.14-1.81 2.18-3.72 3.59-5.2 3.83l-0.558 0.0926-0.52-0.141c-2.39-0.646-2.71-4.66-0.782-9.67 2.08-5.4 5.29-7.92 7.49-5.89 0.562 0.519 0.39 0.729 1.67-2.03 2.49-5.37 2.25-4.71 1.83-5.23-1.08-1.35-2.62-2.11-4.42-2.18l-1.02-0.0368-0.757 0.196c-8.03 2.08-14.4 16.3-12.1 26.8 1.12 4.97 4.31 7.52 8.23 6.58zm10.2-2.92c1.47-0.646 6.5-2.81 8.53-3.67 0.906-0.383 1.16-0.524 1.19-0.655 0.0195-0.0917 0.127-0.713 0.239-1.38 0.112-0.668 0.376-2.17 0.586-3.34 0.466-2.59 0.514-2.93 0.41-2.93-0.103 0-1.67 0.559-3.35 1.2-2.76 1.05-2.59 1.04-2.42 0.0961 0.0608-0.345 0.342-1.97 0.625-3.6 0.283-1.64 1.02-5.78 1.64-9.2 1.34-7.42 1.37-7.57 1.37-7.86l2.5e-4 -0.224-0.215 0.051c-0.269 0.0636-3.6 1.09-5.41 1.66-0.745 0.237-1.37 0.472-1.39 0.523-0.0175 0.0508-0.158 1.18-0.313 2.52-0.154 1.34-0.668 5.6-1.14 9.47-1.56 12.8-1.49 12-1.28 12.8 0.166 0.618 0.151 0.709-0.183 1.16l-0.301 0.403-0.13 1.24c-0.0713 0.68-0.153 1.51-0.181 1.85l-0.0515 0.616 0.179-0.0569c0.0986-0.0313 0.818-0.338 1.6-0.682zm12.9-3.42c1.85-0.746 2.72-1.13 2.76-1.23 0.0332-0.0789 0.253-1.09 0.489-2.24s0.462-2.16 0.503-2.23c0.0834-0.15 4.13-1.74 4.28-1.69 0.106 0.0409 0.146 0.497 0.277 3.2 0.0502 1.03 0.118 1.91 0.15 1.95 0.052 0.0587 5.44-2.44 5.7-2.64 0.0812-0.063 0.0957-0.209 0.0593-0.594-0.0265-0.281-0.137-1.5-0.246-2.7-0.206-2.29-0.324-3.54-0.787-8.42-0.153-1.62-0.33-3.51-0.393-4.22-0.0625-0.707-0.27-2.96-0.461-5.01-0.191-2.05-0.386-4.22-0.433-4.82-0.176-2.25-0.0827-2.06-0.863-1.76-0.322 0.123-1.06 0.4-1.64 0.615-2.98 1.1-5.2 1.97-5.3 2.06-0.311 0.311-5.19 19.7-4.96 19.7 0.256 0 0.257 0.157 0.0058 1.42-0.205 1.03-0.703 3.69-1.26 6.72-0.0831 0.452-0.173 0.998-0.2 1.21-0.0734 0.587-0.0989 0.641-0.383 0.809l-0.262 0.155-0.0344 0.38c-0.0189 0.209-0.0198 0.407-0.0019 0.442 0.0428 0.0816-0.0959 0.133 2.99-1.11zm5.01-12.6c0-0.362 2.15-9.34 2.27-9.46 0.0819-0.0819 0.14 0.405 0.2 1.67 0.0233 0.495 0.115 2.14 0.203 3.66 0.0883 1.52 0.149 2.89 0.136 3.05l-0.0246 0.294-1.17 0.426c-1.41 0.512-1.61 0.556-1.61 0.363zm11.4 9.24c1.01-0.412 2.11-0.855 2.45-0.984 0.689-0.267 0.653-0.201 0.719-1.32 0.43-7.36 0.77-11.7 0.906-11.5 0.109 0.111 2.01 7.5 2.83 11 0.23 0.981 0.0375 0.979 2.35 0.0222 1.09-0.452 2.13-0.881 2.32-0.954 0.406-0.162 0.371-0.0158 0.569-2.35 0.672-7.92 0.828-9.13 2.78-21.7 0.239-1.53 0.488-3.13 0.554-3.55 0.0659-0.424 0.104-0.786 0.0843-0.806-0.0287-0.0287-3.25 1.04-5.6 1.85-0.547 0.19-0.53 0.159-0.604 1.09-0.0256 0.323-0.08 0.992-0.121 1.49-0.451 5.46-0.716 8.67-0.784 9.51-0.19 2.35-0.169 2.38-0.897-1.02-0.525-2.45-2.07-9.6-2.12-9.81-0.0517-0.222-4.86 1.41-5.22 1.77-0.0382 0.0382-0.191 1.77-0.339 3.86-0.236 3.31-0.698 9.48-1.21 16.2-0.188 2.45-0.192 2.98-0.0333 4.5 0.0673 0.645 0.111 1.3 0.0979 1.46l-0.0244 0.291-0.624 0.323-0.0555 0.313c-0.22 1.24-0.295 1.23 1.97 0.308zm21.4-3.8c2.21-0.703 4.24-2.55 5.81-5.29l0.367-0.639 0.429-2.53c0.236-1.39 0.626-3.68 0.866-5.08 0.581-3.39 0.613-3.59 0.562-3.64-0.0241-0.0241-0.62 0.132-1.33 0.346-0.705 0.214-2.41 0.729-3.79 1.14-2.95 0.886-2.65 0.679-2.9 2.04-0.108 0.602-0.283 1.57-0.387 2.15s-0.213 1.24-0.242 1.47l-0.0518 0.411h0.127c0.07 0 0.702-0.19 1.41-0.422 0.703-0.232 1.39-0.446 1.52-0.476l0.246-0.0541v0.198c0 1.95-2.36 4.25-3.98 3.89l-0.432-0.0967-0.442-0.442c-3.83-3.83 3.29-16.6 7.48-13.4 0.145 0.111 0.284 0.202 0.308 0.202 0.0242 0 0.358-0.628 0.742-1.39s1.12-2.2 1.64-3.18c1.13-2.13 1.14-2.05-0.272-2.88-6.79-3.98-15.6 6.7-15.6 18.9l5e-3 2.08 0.214 1.04c0.994 4.83 3.82 6.95 7.66 5.72zm10.9-1.19c3.63-1.88 2.99-7.71-0.717-6.57-2.95 0.908-4.01 5.36-1.57 6.59l0.486 0.246 1.41-0.0622zm0.565-8.94c1.85-0.29 1.62-0.16 1.87-1.07 0.281-1.03 1.92-6.59 3.49-11.9 1.67-5.58 2.29-7.69 2.36-7.97l0.0538-0.215-0.373 3.1e-4c-0.205 1.8e-4 -1.2 0.0864-2.21 0.192-1.01 0.105-2.4 0.249-3.09 0.32-0.689 0.0705-1.28 0.155-1.32 0.188-0.0696 0.0665-0.281 1.44-1.07 6.97-0.665 4.65-1.22 8.45-1.64 11.2-0.174 1.14-0.316 2.19-0.316 2.34v0.263l0.333-0.0569c0.183-0.0313 1.05-0.168 1.92-0.305zm-16.9 33.9c-0.0172-0.0538-0.0882-0.45-0.158-0.881-0.0696-0.431-0.354-2.06-0.632-3.61-0.509-2.85-0.566-3.26-0.434-3.12 0.039 0.0409 0.466 0.832 0.949 1.76 0.483 0.926 1.25 2.38 1.7 3.24 0.901 1.71 0.894 1.64 0.199 1.8-0.388 0.0906-0.579 0.194-0.945 0.513-0.467 0.407-0.623 0.476-0.679 0.301zm0.721-0.873c0.183-0.146 0.455-0.287 0.604-0.315 0.149-0.028 0.291-0.082 0.314-0.12 0.0379-0.0614-1.86-3.8-2.12-4.19l-0.106-0.154v0.205c0 0.195 0.746 4.42 0.831 4.7 0.0555 0.187 0.0974 0.175 0.48-0.129zm-47.6-1.66c1.03-1.71 3.68-5.19 3.68-4.85 0 0.274-1.76 2.79-2.85 4.07-0.894 1.05-1.12 1.26-0.826 0.78zm62.6-0.972c-0.935-1.41-0.729-1.3-2.02-1.06-1.86 0.343-1.81 0.402-0.795-0.968 1.01-1.36 1.18-0.942-2.49-6.18-0.493-0.702-0.876-1.3-0.852-1.32 0.0535-0.0535 0.0756-0.035 2.09 1.75 3.62 3.21 3.37 3.03 3.73 2.56 0.398-0.524 1.29-1.51 1.37-1.51 0.0435 0 0.074 0.545 0.074 1.32 0 1.65-0.113 1.46 1.26 2.21 1.55 0.843 1.55 0.734-0.087 1.17-1.26 0.334-1.17 0.225-1.26 1.61-0.124 1.88-0.0602 1.85-1.01 0.422zm0.656-1.03c0.0641-1.14-0.0431-1 1.05-1.28 1.06-0.27 1.06-0.261-0.0454-0.839l-0.875-0.459v-2.19l-0.107 0.0253c-0.0589 0.0139-0.36 0.334-0.67 0.71-0.699 0.85-0.411 0.952-2.49-0.877-2.02-1.78-2.05-1.8-1.27-0.65 2.46 3.58 2.36 3.29 1.6 4.31-0.599 0.805-0.694 1-0.45 0.931 0.309-0.0895 1.67-0.362 1.81-0.362 0.102 0 0.32 0.267 0.706 0.866 0.67 1.04 0.677 1.04 0.746-0.178zm-64.4-0.314c0.164-0.29 1.49-1.73 2.09-2.27 1.57-1.41 1.73-1.43 0.486-0.0532-0.874 0.968-2.78 2.69-2.58 2.32zm69.8-8.51c-1.46-0.881-3.74-2.59-3.46-2.59 0.19 0 2.12 1.25 3.38 2.19 1.6 1.2 1.63 1.34 0.0799 0.398zm0.927-2.47c-2.32-1.02-6.54-3.29-7.43-3.99-0.592-0.467 4.8 2.18 6.93 3.4 2.07 1.18 2.2 1.35 0.5 0.595zm1.77-4.13c-0.797-0.432-1.91-1.03-2.47-1.34-1.62-0.876-1.55-0.801-1-1.12l0.367-0.215 0.21 0.0793c0.116 0.0436 1.21 0.425 2.43 0.847 2.57 0.889 2.4 0.794 2.23 1.23-0.0712 0.186-0.129 0.558-0.129 0.826 0 0.616 0.0963 0.634-1.64-0.31zm1.2 0.111c0.0191-0.0323 0.0592-0.24 0.089-0.461l0.0542-0.402-0.535-0.201c-1.53-0.574-3.75-1.31-3.84-1.27-0.196 0.0751-0.0385 0.18 1.49 0.989 0.828 0.439 1.75 0.933 2.05 1.1 0.587 0.32 0.637 0.338 0.691 0.247zm-1.06-9.31c-1.01-0.129-2.11-0.364-2.49-0.527l-0.272-0.118 0.392-5e-3c0.796-0.01 3.31 0.427 3.95 0.686l0.196 0.0791-0.47-4e-3c-0.258-2e-3 -0.848-0.0524-1.31-0.112zm-86-11.5c-0.755-0.0599-2.37-0.338-2.45-0.422-0.153-0.153 2.37 0.0159 3.61 0.241 1.25 0.228 0.639 0.323-1.15 0.181zm1.84-1.54c-2.07-0.339-7.52-1.72-7.77-1.97-0.353-0.353 6.91 1.32 8.25 1.9l0.267 0.116-0.274-8e-3c-0.151-4e-3 -0.362-0.022-0.47-0.0397zm-3.24-3.48c-0.0203-0.1-0.0922-0.62-0.16-1.16-0.143-1.13-0.0249-1.01-1.36-1.38-1.32-0.366-1.35-0.285 0.554-1.32l0.535-0.291-0.0562-1.4c-0.0679-1.69-0.119-1.68 0.942-0.365 1.03 1.27 0.801 1.17 2.19 0.95 1.49-0.241 1.46-0.312 0.511 1.01l-0.548 0.764 0.0832 0.155c0.0457 0.0855 0.329 0.533 0.629 0.994 0.773 1.19 0.791 1.16-0.534 0.777-0.504-0.146-1-0.278-1.11-0.294l-0.193-0.0276-0.653 0.861c-0.716 0.943-0.778 0.998-0.832 0.73zm0.863-1.47c0.517-0.722 0.43-0.698 1.41-0.386 0.933 0.299 0.928 0.306 0.395-0.539-0.539-0.853-0.538-0.83-0.0093-1.55 0.473-0.639 0.523-0.781 0.254-0.713-0.703 0.176-1.58 0.279-1.68 0.198-0.0587-0.0487-0.375-0.419-0.703-0.822-0.328-0.404-0.614-0.734-0.635-0.734-0.0213 0-0.0258 0.465-0.01 1.03l0.0288 1.03-0.763 0.43c-0.922 0.519-0.919 0.501-0.117 0.707 0.355 0.0914 0.734 0.211 0.842 0.266l0.196 0.0996 0.0912 0.741c0.0502 0.408 0.0942 0.768 0.0979 0.8 0.019 0.167 0.199-2e-3 0.604-0.568zm9.87 0.652-0.767-0.201-0.14 0.127c-0.207 0.187-0.276 0.161-0.587-0.218-0.155-0.189-0.723-0.725-1.26-1.19-1.33-1.15-1.33-1.14 0.243-0.503 0.641 0.258 1.27 0.469 1.4 0.47 0.173 5.4e-4 0.314 0.0798 0.509 0.285 0.148 0.156 0.596 0.528 0.994 0.826 0.965 0.722 0.936 0.752-0.395 0.403zm-0.683-0.789c-0.304-0.261-0.838-0.481-1.17-0.483-0.0646-5.3e-4 0.0764 0.173 0.313 0.386l0.431 0.387 0.772 4e-3zm6.66-2.55c-0.194-0.142-1.06-0.769-1.92-1.39s-2.16-1.56-2.88-2.09c-1.54-1.12-1.3-1.04-1.77-0.568-1.78 1.78-4.84 0.966-5.38-1.44l-0.088-0.39-0.482-0.166c-3.31-1.14-3.39-6.69-0.112-7.64 0.371-0.107 0.381-0.127 0.433-0.932 0.186-2.84 3.99-4.14 6.19-2.1 0.456 0.424 0.446 0.42 0.764 0.256 1.33-0.687 3.26 0.153 4.01 1.74l0.25 0.533 0.06 1.49-0.174 0.47c-0.219 0.589-0.218 0.821 4.19e-4 1.41 0.352 0.946 0.0789 2.01-0.713 2.77l-0.421 0.407 1.62 3.2c1.65 3.24 1.72 3.39 1.51 3.22-0.515-0.427-4.35-6.9-4.35-7.34 0-0.365 0.337-0.429 0.509-0.0961 0.158 0.306 0.262 0.296 0.602-0.0587 0.57-0.595 0.733-1.28 0.497-2.1l-0.134-0.464-0.43-0.418c-0.49-0.477-0.492-0.517-0.02-0.411 0.416 0.0934 0.495 0.0386 0.611-0.421 0.485-1.92-1.25-3.79-3.08-3.31l-0.392 0.102-0.0245 0.254c-0.0276 0.286-0.0356 0.292-0.248 0.159l-0.153-0.0955-0.492 0.465 0.105-0.94-0.377-0.284c-2.06-1.55-4.9-0.415-5.02 2.01l-0.0282 0.555 0.24 0.0995c0.132 0.0547 0.281 0.149 0.331 0.209l0.0905 0.109h-0.581c-3.24 0-3.75 5.52-0.593 6.43l0.219 0.0628 0.125-0.191c0.166-0.253 0.326-0.242 0.356 0.0246l0.0248 0.215 0.838-0.0356-0.101 0.121c-0.0554 0.0668-0.235 0.19-0.4 0.274-0.616 0.314-0.0517 1.46 0.993 2.02l0.392 0.208 1.41 0.00144 0.384-0.189c0.534-0.263 1.1-0.817 1.03-1-0.135-0.327-0.129-0.404 0.0349-0.492l0.168-0.09 0.329 0.197c0.754 0.453 6.91 5.92 6.67 5.92-0.0431 1e-5 -0.237-0.116-0.431-0.259zm56.7-4.87c0-0.222 2.7-2.75 4.09-3.82 1-0.778 0.844-0.542-0.587 0.861-1.53 1.5-3.5 3.17-3.5 2.96zm-59.5-0.366c-0.693-0.888-1.43-1.86-1.54-2.02l-0.125-0.189-0.438 0.449c-1.44 1.48-4.15 0.84-4.12-0.965l0.0033-0.196 0.133 0.195c1.57 2.3 4.86 0.759 4.06-1.91-0.183-0.608 0.128-0.387 0.423 0.301 0.214 0.498 0.275 1.01 0.167 1.41l-0.0848 0.307 0.848 1.34c0.466 0.735 0.873 1.38 0.903 1.43 0.106 0.189-0.0278 0.0954-0.225-0.157zm8.64-1.69c-4.62-4.06-4.3-3.72-3.89-4.15 0.166-0.171 0.31-0.444 0.414-0.787 0.243-0.8-0.0399-1.1 2.92 3.13 2.38 3.41 2.38 3.41 0.555 1.81zm-0.275-0.819c-0.168-0.279-1.94-2.82-2.46-3.52-0.33-0.448-0.355-0.452-0.51-0.0824-0.0672 0.161-0.2 0.375-0.294 0.476l-0.172 0.183 0.665 0.608c2.21 2.02 2.96 2.65 2.77 2.34zm43-1c-3e-3 -0.11 0.385-1.15 0.671-1.79 0.0655-0.148 0.139-0.435 0.163-0.639 0.034-0.287 0.0936-0.407 0.264-0.533 0.121-0.0896 0.703-0.736 1.29-1.44 1-1.19 1.29-1.49 1.29-1.34 0 0.0724-1.05 2.36-1.31 2.84-0.1 0.189-0.182 0.444-0.182 0.565 0 0.121-0.0584 0.266-0.13 0.321-0.247 0.192-1.09 1.04-1.57 1.59-0.267 0.301-0.486 0.494-0.488 0.428zm1.88-2.54c0-0.0676 0.0835-0.289 0.186-0.492 0.382-0.759 0.324-0.786-0.292-0.134-0.343 0.363-0.593 0.696-0.595 0.793-2e-3 0.0916-0.0567 0.293-0.121 0.448-0.205 0.49-0.13 0.488 0.352-8e-3 0.258-0.266 0.47-0.538 0.47-0.606zm-24.9 1.67c-0.671-2.07-1.94-7.79-1.46-6.59 0.54 1.35 1.96 7.27 1.78 7.44-0.0186 0.0186-0.163-0.366-0.322-0.854zm13-1.05c-0.0168-0.349 1.14-3.48 2.24-6.05 0.969-2.27 0.863-1.59-0.231 1.47-0.633 1.78-1.99 4.88-2.01 4.58zm-0.984-2.07c0.434-2.15 1.74-6.65 3.14-10.9 1.35-4.07 1.5-4.34 0.766-1.46-1.01 3.99-3.38 11.6-3.86 12.4l-0.086 0.142zm-11.5-1.31c-0.623-2.69-1.58-8.53-1.48-9 0.126-0.581 1.45 6.61 1.67 9.08 0.0713 0.796 5e-3 0.768-0.191-0.0783zm-12.5-0.392c0.162-1.5 0.232-2.63 0.165-2.66-0.323-0.116-2.42-1.26-2.44-1.33-0.0194-0.0588 0.476-0.253 1.36-0.535 1.73-0.55 1.56-0.339 1.83-2.24 0.258-1.81 0.286-1.95 0.377-1.95 0.0358 0 0.43 0.757 0.877 1.68l0.812 1.68 0.238 0.0375c0.131 0.0206 0.819 0.0773 1.53 0.126 1.73 0.118 1.7 0.0405 0.403 1.17-0.609 0.53-1.11 0.992-1.11 1.03s0.0734 0.247 0.163 0.475c0.304 0.77 0.855 2.32 0.855 2.41 0 0.144-0.102 0.101-1.35-0.579-0.667-0.365-1.27-0.684-1.33-0.71-0.082-0.0314-0.471 0.262-1.19 0.898-1.24 1.1-1.26 1.1-1.19 0.495zm1.36-1.27c0.927-0.87 0.73-0.878 2.39 0.0996 0.679 0.4 0.673 0.423 0.213-0.797-0.495-1.31-0.524-1.18 0.435-2 0.959-0.823 0.966-0.8-0.239-0.862-0.517-0.0267-1.06-0.0666-1.2-0.0887l-0.26-0.0402-0.221-0.485c-1.09-2.38-1.02-2.34-1.25-0.759-0.091 0.624-0.183 1.21-0.204 1.31l-0.0385 0.174-1.13 0.359c-1.36 0.431-1.35 0.361-0.184 0.938 1.15 0.572 1.12 0.454 0.797 2.56-0.0662 0.436 0.0531 0.381 0.897-0.411zm13.8-0.959c-0.121-0.723-0.753-6.36-0.732-6.54l0.0243-0.204 0.979-0.597c0.538-0.329 1.06-0.647 1.15-0.708 0.36-0.231 0.353-0.178-0.569 4.74-0.735 3.92-0.744 3.96-0.853 3.31zm0.525-3.25c0.733-4.03 0.766-4.32 0.466-4.11-0.0733 0.0496-0.41 0.26-0.749 0.467l-0.616 0.377 0.0439 0.626c0.0241 0.345 0.134 1.4 0.243 2.35s0.2 1.75 0.2 1.78c7e-3 0.403 0.185-0.242 0.412-1.49zm25.4 2.02c-0.809-1.19-0.62-1.12-2.15-0.703-1.69 0.464-1.64 0.555-0.514-1.02 0.894-1.25 0.883-0.933 0.083-2.31-0.889-1.53-0.942-1.46 0.668-0.894 1.43 0.502 1.28 0.546 2.42-0.731 1.15-1.29 1.13-1.3 0.981 0.415l-0.12 1.36 0.0991 0.0905c0.0545 0.0498 0.655 0.295 1.33 0.546 1.49 0.549 1.49 0.51-0.121 1.05-1.59 0.532-1.45 0.374-1.63 1.82-0.219 1.74-0.14 1.71-1.05 0.381zm0.718-0.885c0.137-1.24 0.0153-1.12 1.75-1.68 0.59-0.189 0.561-0.224-0.494-0.607-1.14-0.414-1.04-0.249-0.921-1.45 0.126-1.32 0.15-1.32-1.02 0.0586-0.462 0.545-0.466 0.545-1.51 0.174-1.12-0.396-1.11-0.402-0.577 0.495 0.237 0.4 0.473 0.807 0.524 0.905l0.0932 0.179-0.342 0.487c-0.188 0.268-0.461 0.654-0.606 0.857-0.352 0.496-0.324 0.502 0.774 0.177 1.12-0.33 0.953-0.386 1.58 0.542 0.615 0.909 0.637 0.905 0.752-0.134z" fill="#605e5d"/><path d="m101 187c0-0.0385 0.206-0.699 0.457-1.47 0.252-0.769 0.786-2.44 1.19-3.71 0.402-1.27 0.761-2.34 0.796-2.39 0.0357-0.0414 0.0558 1.49 0.0446 3.4l-0.0204 3.48-1.17 0.377c-1.26 0.404-1.3 0.414-1.3 0.307zm1.96-0.765 0.281-0.112 0.0514-1.54c0.106-3.18 0.0541-4.25-0.18-3.69-0.076 0.183-1.01 3.09-1.53 4.78-0.365 1.18-0.267 1.22 1.38 0.558zm-14.4-0.532c0.638-1.44 3.77-7.15 3.86-7.05 0.117 0.117-3.85 7.47-4.03 7.47-0.013 0 0.0613-0.192 0.165-0.427zm28.8-1.23c-0.179-0.575-0.411-1.32-0.515-1.66-0.28-0.903-0.832-3.12-0.788-3.16 0.0352-0.0352 0.465 1.28 0.939 2.87 0.299 1 0.767 2.91 0.726 2.95-0.0203 0.0203-0.183-0.433-0.362-1.01zm-44.8-0.164c-0.643-1.03-0.57-1-1.8-0.758-0.489 0.097-0.91 0.155-0.937 0.129-0.0467-0.0467 1-1.5 1.15-1.59 0.167-0.103 0.0499-0.494-0.403-1.34-0.575-1.08-0.609-1.03 0.442-0.639 0.472 0.175 0.941 0.337 1.04 0.36l0.184 0.0414 1.8-1.78-0.0467 0.548c-0.0257 0.301-0.0702 0.856-0.0989 1.23l-0.0523 0.685 1.05 0.505c0.615 0.296 1 0.522 0.932 0.547-0.0641 0.0233-0.557 0.169-1.1 0.323-1.16 0.334-1.46 0.85-1.49 2.56-0.0026 0.187-0.188-0.0382-0.676-0.822zm0.598 0.235c0.0511-1.54 0.202-1.81 1.17-2.07 1.08-0.293 1.08-0.36 0.0814-0.823l-0.785-0.363v-0.224c0-0.123 0.037-0.519 0.0822-0.879 0.125-0.995 0.0956-1-0.732-0.178l-0.722 0.719-0.775-0.277c-1.06-0.378-1.09-0.354-0.6 0.547 0.494 0.917 0.5 0.842-0.111 1.61-0.704 0.886-0.691 0.902 0.534 0.634l0.683-0.149 0.187 0.247c0.103 0.136 0.315 0.467 0.472 0.736 0.22 0.378 0.508 0.641 0.513 0.47zm41.5-0.372c-0.375-2.34-0.789-6.32-0.644-6.17 0.0674 0.0674 0.565 3.81 0.703 5.29 0.151 1.61 0.123 2.02-0.0597 0.88zm-30.4 0.0917c0-0.0357 0.123-0.514 0.274-1.06 1.7-6.22 3.11-11.8 3.01-12-0.0702-0.114-0.787 0.177-4.6 1.86-3.01 1.33-2.57 1.28-3.44 0.387l-0.719-0.733v-0.241c0-0.404-0.114-0.357-0.953 0.388-1.86 1.66-3.35 2.55-5.12 3.09l-0.702 0.213-1.21 7e-3c-8.42 0.0473-11.8-13.5-6.43-25.9 0.513-1.19 0.756-0.956-2.11-2.05-1.1-0.42-2.03-0.791-2.07-0.826-0.093-0.0839-0.118-0.0789 3.12-0.623 3.23-0.542 3.25-0.546 3.43-0.858 0.513-0.868 2.29-2.9 3.32-3.8 2.95-2.58 5.9-3.45 8.89-2.61 0.679 0.19 0.661 0.145-1.08-2.71-0.672-1.1-1.24-2.06-1.27-2.12-0.0548-0.143 0.0922-0.11 1.19 0.261 2.66 0.9 6.89 2.22 7.13 2.22 0.262 0 0.0299-0.662-1.73-4.93-1.96-4.76-1.85-4.35-1.09-3.93 9.02 5.03 8.94 4.99 9.06 4.88 0.119-0.119-0.0108-0.867-0.533-3.06-1.07-4.48-1.74-6.71-3.56-11.8-0.461-1.29-0.451-1.29 0.588 0.196 1.4 2 3.21 4.29 4.72 5.99 2.15 2.4 6.2 6.5 6.42 6.5 0.178 0 0.487-1.03 1.81-6.02 0.519-1.96 0.591-2.19 0.662-2.12 0.0167 0.0179 0.505 0.984 1.09 2.15 1.43 2.86 2.4 4.61 2.58 4.64 0.264 0.0529 4.61-6.46 9.22-13.8 1.62-2.58 1.61-2.58 1.54-1.57-0.326 4.69-7e-3 15.7 0.454 15.7 0.275 0 5.39-6.44 9.76-12.3 0.881-1.18 1.61-2.09 1.63-2.03 0.013 0.0651-0.085 0.854-0.218 1.75-1.47 9.96-1.8 12.9-1.47 12.9 0.323 0 6.8-4.6 12.1-8.56 1.75-1.32 3.21-2.4 3.23-2.4 0.0608 0-0.041 0.178-1 1.76-2.47 4.04-3.36 5.54-4.43 7.38-1.72 2.97-1.67 2.78-0.635 2.53 0.363-0.0891 1.06-0.182 1.56-0.206l0.9-0.0441 0.431-0.277c0.237-0.153 0.554-0.372 0.705-0.489 0.151-0.116 0.45-0.308 0.666-0.427l0.392-0.216-0.352 0.317c-0.194 0.174-0.589 0.451-0.879 0.615-0.706 0.399-0.688 0.493 0.136 0.706 1.31 0.338 2.89 1.35 3.64 2.32 0.567 0.736 0.546 0.781 0.939-2.06 0.389-2.82 0.18-2.47 1.57-2.62 3.75-0.402 7.38-0.749 7.44-0.711 0.104 0.0645 1.25 1.99 1.25 2.1-1.4e-4 0.0515-0.266 0.939-0.592 1.97-1.37 4.37-4.07 13.3-5.16 17-0.331 1.14-0.663 2.27-0.738 2.51l-0.137 0.431-0.557 0.117c-0.741 0.156-0.738 0.139-0.137 0.838 2.85 3.31 0.472 8.81-3.73 8.62l-0.736-0.0323-0.509-0.24c-0.642-0.302-1.25-0.781-1.62-1.28-0.446-0.597-2.71 0.133-2.83 0.911-0.0213 0.146 0.692 1.14 2.73 3.79 2.11 2.74 3.29 4.33 3.25 4.36-0.025 0.025-1.75-0.522-3.82-1.22-6.25-2.09-8.36-2.69-8.36-2.38 4.4e-4 0.179 1.34 4.18 2.73 8.13 0.607 1.73 1.1 3.16 1.1 3.19 0 0.13-0.254-0.0405-1.93-1.29-4.9-3.67-9.3-6.8-9.56-6.8-0.219 0-1.78 8.25-2.18 11.5-0.0735 0.601-0.109 0.583-0.722-0.381-2.47-3.88-6.06-8.98-6.41-9.09-0.171-0.0561-1.13 1.68-5.14 9.29-1.35 2.56-1.23 2.48-1.5 1-1.01-5.48-1.63-8.28-1.85-8.28-0.101 0-1.93 2.26-4.34 5.38-2.95 3.81-4.38 5.61-4.54 5.74l-0.137 0.114 0.051-0.352c0.529-3.65 1.15-12 0.91-12.2-0.172-0.106-4.2 3.95-10.4 10.5-2.22 2.34-2.32 2.43-2.32 2.3zm3.29-4.65c0.747-0.786 3.4-3.5 5.9-6.03 2.5-2.53 4.52-4.62 4.5-4.65-0.0374-0.0374-2.97 1.14-5.13 2.05-1.04 0.44-0.952 0.457-1.75-0.335l-0.682-0.679-0.729 0.299c-1.08 0.443-0.861-0.0226-1.82 3.84-0.278 1.12-0.789 3.12-1.14 4.45s-0.632 2.43-0.632 2.45c0 0.135 0.289-0.136 1.49-1.39zm10.2 0.861c0.146-0.183 0.879-1.13 1.63-2.09 3.2-4.13 6.09-7.68 6.25-7.65 0.135 0.0218 0.554 1.89 1.71 7.65 0.266 1.32 0.219 1.34 1.14-0.394 1.27-2.4 2.99-5.57 4.14-7.65 0.386-0.7 0.749-1.27 0.807-1.27 0.255 0 3.54 4.49 5.8 7.92 0.933 1.42 0.858 1.45 1.16-0.421 0.121-0.744 0.551-3.16 0.956-5.36 0.404-2.21 0.735-4.03 0.735-4.05 0-0.299 2.95 1.71 8.2 5.58 2.03 1.49 2.29 1.67 2.29 1.54-2.8e-4 -0.0369-0.268-0.842-0.596-1.79-1.78-5.14-2.86-8.44-2.8-8.5 0.149-0.149 3.8 0.922 8.71 2.55 2.67 0.887 2.64 0.884 2.14 0.268-0.231-0.283-2.42-3.12-3.49-4.52-0.706-0.926-0.604-0.881-1.19-0.524-3.75 2.27-7.48 1.54-9.8-1.91-0.528-0.79-0.517-0.804-0.647 0.81-0.0556 0.689-0.128 1.33-0.162 1.42-0.0455 0.123-0.635 0.41-2.4 1.17-1.28 0.552-2.65 1.14-3.02 1.31-0.833 0.372-0.688 0.424-1.53-0.548l-0.694-0.805-0.341-1.39c-0.478-1.95-0.474-1.95-0.632 0.492-0.0472 0.732-0.11 1.6-0.139 1.92l-0.0532 0.587-0.352 0.177c-0.194 0.0975-1.32 0.578-2.51 1.07-1.18 0.49-2.49 1.04-2.9 1.22-1.09 0.483-0.955 0.516-1.78-0.423l-0.726-0.823-0.174 0.0676c-0.0958 0.0372-1.03 0.476-2.08 0.976-2.28 1.09-1.95 1.07-2.79 0.158l-0.693-0.75-0.0594-0.327c-0.0327-0.18-0.0847-0.917-0.116-1.64l-0.0563-1.31h-0.145c-0.19 0-1.34 0.454-1.45 0.573-0.0833 0.0888-0.334 1.22-0.785 3.53l-0.212 1.09-0.961 0.436-0.0965 2.18c-0.143 3.22-0.523 8.48-0.688 9.51-0.0638 0.399 0.0481 0.39 0.383-0.0293zm-26.5-6.75c2.56-0.607 5.12-2.58 7.84-6.07 0.856-1.09 0.86-0.652-0.0338-4.23-0.409-1.64-0.744-3-0.744-3.02 0-0.156-0.299 0.118-0.825 0.755-5.9 7.14-10.4 4.06-7.28-5 1.99-5.8 5.43-8.68 7.73-6.45 0.464 0.45 0.474 0.444 0.902-0.488 0.197-0.43 0.938-2.03 1.65-3.55 1.5-3.23 1.46-2.91 0.468-3.89-5.09-5.02-13.8 1.15-17.1 12.2-3.5 11.5 0.226 21.5 7.41 19.8zm11.3-3.4c2.8-1.22 7.01-3.02 8.34-3.56 0.379-0.155 0.402-0.218 0.679-1.89 0.129-0.775 0.412-2.41 0.629-3.63s0.395-2.31 0.395-2.41c0-0.315-0.0387-0.304-3.37 0.961-1.77 0.672-2.43 0.898-2.49 0.857-0.0922-0.057 0.41-2.97 2.61-15.2 1.12-6.19 1.13-6.28 1.09-6.36-0.0692-0.114-0.319-0.0524-2.34 0.573-1.12 0.347-2.65 0.821-3.4 1.05-0.75 0.232-1.39 0.463-1.42 0.512-0.0599 0.0969-0.066 0.142-0.351 2.62-0.179 1.56-0.795 6.67-1.13 9.4-0.0851 0.689-0.262 2.13-0.393 3.21s-0.343 2.8-0.472 3.84-0.317 2.61-0.42 3.51l-0.187 1.63 0.146 0.563c0.197 0.758 0.193 0.796-0.145 1.25l-0.294 0.399-0.201 1.8c-0.111 0.992-0.185 1.85-0.166 1.91 0.0532 0.155 0.17 0.111 2.89-1.07zm11.8-2.94c3.32-1.33 2.86-1.02 3.08-2.09 0.894-4.3 0.626-3.7 1.86-4.18 0.526-0.203 1.35-0.525 1.84-0.716 0.487-0.19 0.984-0.366 1.11-0.39l0.22-0.0439 0.0475 0.693c0.0261 0.381 0.0904 1.51 0.143 2.51 0.109 2.09 0.0995 2.05 0.51 1.88 0.545-0.225 5.47-2.58 5.54-2.65 0.0424-0.041 0.0333-0.472-0.0228-1.07-0.0963-1.03-0.137-1.48-0.401-4.45-0.0843-0.947-0.296-3.22-0.471-5.05-0.302-3.16-0.56-5.92-1.09-11.7-0.129-1.4-0.289-3.21-0.355-4.03-0.148-1.83 0.0219-1.73-1.74-1.07-3.02 1.13-5.82 2.19-6.03 2.3l-0.222 0.106-0.566 2.15c-0.311 1.18-1.09 4.21-1.74 6.73-0.645 2.52-1.53 5.97-1.96 7.67-0.821 3.21-0.843 3.33-0.587 3.33 0.216 2e-3 0.215 7e-3 -0.376 3.09-0.663 3.46-1.06 5.63-1.12 6.22l-0.0528 0.46-0.259 0.153c-0.283 0.167-0.308 0.22-0.385 0.826l-0.0522 0.411h0.129c0.071 0 1.4-0.51 2.95-1.13zm5.15-12.7c0-0.238 1.96-8.46 2.11-8.86l0.0696-0.182 0.0427 0.196c0.0235 0.108 0.0609 0.583 0.0832 1.06 0.0223 0.474 0.118 2.21 0.213 3.86 0.113 1.96 0.146 3.02 0.0957 3.08-0.204 0.204-2.61 0.988-2.61 0.85zm10.5 9.68c0.571-0.235 1.65-0.672 2.41-0.972 1.72-0.684 1.51-0.136 1.8-4.79 0.305-4.89 0.544-8.01 0.621-8.09 0.0331-0.0349 0.173 0.37 0.31 0.9 0.214 0.822 2.51 9.95 2.63 10.5 0.0637 0.267 2.12-0.454 4.64-1.62 0.395-0.184 0.376-0.116 0.528-1.88 0.749-8.7 0.807-9.15 2.9-22.6 0.62-3.99 0.61-3.91 0.554-3.97-0.0574-0.0574-0.886 0.208-4 1.28-2.5 0.861-2.27 0.663-2.38 2.06-0.0507 0.624-0.249 3.04-0.441 5.36s-0.388 4.72-0.437 5.32c-0.151 1.9-3e-3 2.34-1.41-4.19-0.432-2-0.89-4.12-1.02-4.7-0.128-0.581-0.268-1.25-0.312-1.49-0.164-0.892 0.127-0.917-2.97 0.259l-2.54 0.964-0.0566 0.387c-0.0311 0.213-0.146 1.69-0.255 3.28-0.233 3.4-0.555 7.83-0.667 9.16-0.583 6.97-0.756 10.1-0.624 11.4 0.0425 0.409 0.0989 1.04 0.125 1.41l0.0481 0.666-0.702 0.339-0.0507 0.37c-0.0279 0.203-0.0507 0.541-0.0507 0.75v0.381h0.156c0.0859 0 0.623-0.192 1.19-0.427zm-36.9-0.434c1.25-0.567 2.93-2.15 4.44-4.17 1-1.35 0.871-1.33 1.73-0.31 0.866 1.02 0.842 1.02 0.943-0.0587 0.0262-0.28 0.206-1.83 0.401-3.45 0.414-3.44 0.657-5.55 0.657-5.7 0-0.248-0.202 0.0748-0.822 1.31-0.806 1.61-0.687 1.54-1.49 0.807-1.14-1.05-1.72-1.21-2.68-0.727-2.65 1.32-5.46 8.5-4.7 12 0.149 0.695 0.468 0.753 1.52 0.275zm58.6-3.53c2.53-0.639 4.79-2.61 6.48-5.64l0.289-0.521 0.538-3.16c0.296-1.74 0.718-4.21 0.937-5.49 0.421-2.47 0.451-2.72 0.312-2.72-0.0778 0-2.48 0.714-6.1 1.81-1.31 0.399-1.8 0.574-1.8 0.646 0 0.022-0.175 1.02-0.389 2.22-0.214 1.2-0.412 2.38-0.441 2.63l-0.0528 0.45h0.176c0.0966 0 0.762-0.189 1.48-0.42s1.38-0.445 1.48-0.475l0.176-0.0554v0.152c0 1.11-1.27 3-2.39 3.55l-0.525 0.258-0.519 2e-3c-2.23 8e-3 -2.87-3.4-1.45-7.71 1.67-5.06 5.08-7.86 7.53-6.17 0.428 0.294 0.398 0.322 1.05-0.976 0.305-0.608 1.05-2.04 1.65-3.18l1.09-2.07-0.0828-0.182c-0.756-1.66-4.61-2.21-7.23-1.04-11.4 5.14-13.5 30.9-2.2 28.1zm11.5-1.4c0.952-0.487 1.72-1.4 2.16-2.59l0.221-0.586 0.01-1.72-0.204-0.434c-0.281-0.599-0.629-0.969-1.15-1.23l-0.445-0.218h-1.34l-0.583 0.291c-1.04 0.52-1.74 1.31-2.23 2.53l-0.222 0.548-4e-3 0.9-4e-3 0.9 0.228 0.493c0.463 1 1.19 1.44 2.36 1.4l0.705-0.0232zm-52.6-0.625c0.68-0.254 1.33-0.505 1.44-0.557l0.208-0.0953 0.246-0.989c1.05-4.21 4.97-19.5 5.09-19.8 0.0511-0.134 0.345-0.277 1.35-0.652 0.704-0.264 2.3-0.865 3.55-1.33 4.89-1.84 4.12-1.84 5.65-7e-3l0.252 0.302 0.046 0.568c0.0253 0.313 0.116 1.36 0.201 2.33 0.0852 0.969 0.209 2.43 0.275 3.25 0.0663 0.818 0.158 1.94 0.203 2.5 0.168 2.06 0.209 1.81 0.541-3.29 0.129-1.98 0.261-3.81 0.293-4.07l0.0584-0.47 0.281-0.138c0.155-0.0757 0.842-0.345 1.53-0.599 0.685-0.254 2.05-0.764 3.04-1.13 0.986-0.37 1.82-0.674 1.85-0.674 0.0647 0 1.28 1.39 1.54 1.76 0.106 0.151 0.224 0.569 0.333 1.17 0.0932 0.515 0.199 0.99 0.236 1.06l0.0668 0.119 0.0437-0.195c0.024-0.107 0.113-1.11 0.198-2.22 0.0851-1.11 0.167-2.04 0.182-2.05 0.0152-0.0152 1.22-0.434 2.68-0.93 2.8-0.951 2.78-0.942 2.78-1.37 2e-3 -0.298 0.243-2.77 0.435-4.46 0.0661-0.581 0.312-2.41 0.547-4.07 0.449-3.17 0.462-3.29 0.369-3.28-0.0323 2e-3 -0.499 0.591-1.04 1.31-3.66 4.89-9.27 11.8-9.55 11.8-0.097 0-0.127-0.149-0.271-1.33-0.405-3.32-0.546-6.05-0.535-10.3 5e-3 -2.03-0.0137-3.7-0.0421-3.7s-0.561 0.802-1.18 1.78c-2.3 3.62-3.28 5.13-4.86 7.5-2.13 3.2-3.63 5.32-3.75 5.32-0.114 0-1.44-2.4-2.56-4.6-0.881-1.75-0.803-1.72-1.15-0.431-0.304 1.13-1.21 4.43-1.53 5.6-0.116 0.421-0.24 0.724-0.297 0.724-0.426 0-7.26-7.11-9.24-9.61-0.581-0.735-0.704-0.799-0.542-0.281 1.43 4.56 3.23 12.2 2.89 12.2-0.16 0-2.09-1.04-6.42-3.47-0.388-0.217-0.969-0.542-1.29-0.721s-0.746-0.419-0.94-0.533c-0.586-0.344-0.593-0.307-0.149 0.773 1.39 3.37 2.89 7.21 2.89 7.4 0 0.2-2.2-0.419-6.54-1.84-1.72-0.562-1.64-0.582-1.11 0.297 0.418 0.686 1.6 2.69 1.89 3.21 0.116 0.207 0.322 0.472 0.456 0.587 0.135 0.116 0.411 0.362 0.613 0.547 0.409 0.374 0.446 0.358 0.514-0.217 0.0603-0.509-0.0411-0.453 1.9-1.06 2.09-0.65 2.15-0.67 4.75-1.49 1.17-0.368 2.17-0.669 2.23-0.669 0.107 1e-5 1.36 1.44 1.53 1.76 0.0693 0.129-0.0047 0.619-0.361 2.39-0.618 3.07-1.62 8.21-1.84 9.44-0.101 0.56-0.364 1.99-0.585 3.17-0.608 3.26-0.628 3.38-0.68 3.82-0.0262 0.226-0.0264 0.411-3.91e-4 0.411 0.026 0 0.604-0.208 1.28-0.462zm52.1-8.11c0.603-0.102 1.42-0.23 1.82-0.284 0.88-0.119 0.819-0.0472 1.2-1.42 0.34-1.22 1.33-4.59 3.38-11.5 0.237-0.797 0.817-2.73 1.29-4.31 0.473-1.57 0.922-3.08 0.998-3.35l0.138-0.497-0.101-0.0622c-0.0554-0.0342-0.228-0.0478-0.384-0.0303-0.156 0.0176-1.52 0.156-3.02 0.307-3.38 0.339-3.53 0.356-3.63 0.421-0.0962 0.0595-0.408 2.06-1.22 7.8-0.195 1.38-0.462 3.23-0.594 4.11-0.132 0.883-0.292 1.98-0.356 2.43s-0.289 1.98-0.502 3.41c-0.373 2.5-0.421 2.86-0.402 3.07 0.0116 0.131 0.106 0.125 1.38-0.0911zm-77.2-2.32c0.43-0.714 0.426-0.716-1.02-0.446-1.12 0.209-1.13 0.25-0.199 0.619 0.899 0.356 0.897 0.356 1.22-0.172zm69.2-4.35c0.52-0.154 1.21-0.363 1.53-0.464s0.894-0.275 1.27-0.386c0.797-0.237 0.874-0.315 0.565-0.569-1.19-0.981-2.69-0.612-3.98 0.979-0.668 0.827-0.673 0.823 0.612 0.441zm7.29-4.1c0.447-3.16 0.468-3.11-0.536-1.26-2.18 4.01-2.16 3.94-1.14 3.65l0.725-0.207 0.233 0.233c0.332 0.332 0.322 0.363 0.716-2.42zm-12.6-5.02c0.941-0.976 1.91-1.76 2.91-2.34 0.316-0.186 0.619-0.412 0.674-0.502 0.0548-0.0898 0.516-0.903 1.03-1.81 0.509-0.904 1.61-2.78 2.44-4.18 1.59-2.65 1.65-2.75 1.53-2.75-0.0381 0-0.676 0.455-1.42 1.01-1.48 1.11-2.01 1.5-3.42 2.52-0.517 0.371-1.45 1.04-2.08 1.49s-1.69 1.2-2.37 1.66c-1.45 0.99-1.39 0.809-0.582 1.84 0.358 0.457 0.676 0.874 0.706 0.925 0.0302 0.0513-0.0515 0.686-0.182 1.41-0.361 2.01-0.422 1.95 0.76 0.724zm-37.3 49.6c-0.0044-0.133 0.69-2.04 0.864-2.37 0.26-0.495 0.157-0.0842-0.25 1-0.407 1.09-0.609 1.54-0.615 1.37zm34.7-0.27c-0.0228-0.101-0.164-0.888-0.315-1.75-0.15-0.861-0.415-2.36-0.588-3.33-0.173-0.969-0.314-1.83-0.313-1.92 7.8e-4 -0.0861 0.287 0.39 0.635 1.06 0.348 0.668 1.07 2.04 1.6 3.05 1.13 2.15 1.1 2.01 0.488 2.13-0.37 0.0765-0.565 0.172-0.842 0.415-0.198 0.174-0.421 0.363-0.494 0.42l-0.134 0.104zm0.608-0.578c0.178-0.153 0.478-0.316 0.665-0.363 0.56-0.141 0.648 0.118-1.07-3.14-0.849-1.61-1.03-1.89-1.03-1.57 1e-4 0.119 0.782 4.55 0.906 5.13 0.0598 0.281 0.138 0.272 0.528-0.0622zm15.1-2.94c-0.886-1.33-0.685-1.24-2.16-0.97-1.48 0.265-1.44 0.315-0.637-0.757 0.363-0.487 0.722-0.98 0.797-1.1l0.136-0.21-0.0949-0.181c-0.174-0.333-1.41-2.2-2.63-3.95-0.661-0.955-1.2-1.76-1.2-1.79 0-0.0571 0.63 0.479 1.84 1.57 1.01 0.906 2.91 2.55 3.11 2.69l0.153 0.107 0.132-0.12c0.0727-0.0661 0.432-0.473 0.798-0.904s0.692-0.786 0.724-0.788c0.0323-2e-3 0.0587 0.592 0.0587 1.32v1.33l0.12 0.12c0.066 0.066 0.551 0.349 1.08 0.628s1.02 0.557 1.1 0.617l0.148 0.109-0.892 0.243c-0.49 0.134-1.02 0.274-1.17 0.311-0.387 0.0966-0.444 0.27-0.507 1.54-0.0739 1.48-0.0487 1.47-0.906 0.191zm0.726-0.583c0.031-0.47 0.0663-0.94 0.0783-1.04l0.0219-0.189 0.94-0.247c1.18-0.31 1.18-0.343 0.0392-0.947l-0.9-0.477-0.0392-1.12c-0.0489-1.4-0.191-1.39-1.25 0.0593-0.241 0.329-0.233 0.331-0.81-0.196-0.525-0.48-2.66-2.36-3.09-2.72-0.39-0.327-0.397-0.173-0.0176 0.372 2.88 4.13 2.81 3.97 2.04 4.99-0.869 1.15-0.884 1.12 0.5 0.822 0.498-0.108 0.941-0.196 0.983-0.196 0.0429 0 0.346 0.407 0.673 0.905 0.72 1.1 0.762 1.1 0.835-0.0108zm-62.8 0.985c0.376-0.649 2.29-3.22 2.49-3.34 0.312-0.193-2 3.01-2.42 3.35l-0.135 0.109zm-0.978-2.31c0-0.086 1.08-1.18 1.61-1.63 0.361-0.307 0.416-0.337 0.236-0.129-0.673 0.779-1.84 1.89-1.84 1.76zm68.5-8.21c-0.711-0.447-2.15-1.49-2.23-1.62-0.0779-0.126 1.43 0.841 2.21 1.42 0.629 0.465 0.799 0.614 0.701 0.614-0.0131 0-0.321-0.187-0.685-0.416zm0.709-2.47c-1.66-0.757-5.11-2.61-5.44-2.92-0.242-0.228 3.23 1.49 5 2.48 1.61 0.895 1.75 1.04 0.442 0.442zm2.43-3.85c-2.72-1.47-3.6-1.96-3.6-2.02 2e-3 -0.0279 0.132-0.133 0.289-0.233l0.286-0.183 0.866 0.314c1.25 0.453 3.56 1.26 3.6 1.26 0.0194 0 0.125 0.0342 0.235 0.076l0.2 0.076-0.0923 0.218c-0.0507 0.12-0.112 0.472-0.136 0.784l-0.0437 0.566zm1.43 0.0416c0.0308-0.212 0.066-0.454 0.0783-0.539l0.0224-0.154-0.587-0.218c-2.1-0.779-3.52-1.26-3.76-1.27l-0.274-0.01v0.148c0 0.151 0.281 0.315 3.17 1.85 1.31 0.697 1.27 0.692 1.35 0.187zm-1.15-9.17c-1.14-0.136-2.27-0.404-1.75-0.413 0.327-6e-3 2.12 0.288 2.37 0.388l0.166 0.0669-0.274-7e-3c-0.151-4e-3 -0.38-0.0195-0.509-0.0349zm-86.8-11.7-0.548-0.0976 0.626-7e-3c0.345-4e-3 0.855 0.0401 1.14 0.0975l0.509 0.104-0.587 5e-5c-0.323 3e-5 -0.834-0.0439-1.14-0.0975zm1.45-1.65c-2.04-0.432-5.53-1.34-5.45-1.42 0.125-0.125 6.31 1.36 6.31 1.51 0 0.0551-0.337 0.0192-0.861-0.0921zm-1.99-3.32c-0.0221-0.108-0.0796-0.53-0.128-0.94-0.0481-0.409-0.106-0.841-0.129-0.959l-0.0414-0.215-0.522-0.153c-0.287-0.0843-0.785-0.229-1.11-0.322l-0.585-0.169 0.154-0.113c0.0846-0.0622 0.536-0.314 1-0.559 1.03-0.54 0.98-0.45 0.898-1.7-0.0369-0.56-0.0573-1.14-0.0455-1.29l0.0215-0.273 0.844 1.03c1.03 1.26 0.778 1.15 2.08 0.947 1.35-0.209 1.32-0.239 0.645 0.713-0.741 1.04-0.734 0.899-0.0965 1.88 0.841 1.29 0.881 1.23-0.533 0.831-0.536-0.15-1-0.273-1.03-0.273-0.0316 0-0.316 0.343-0.631 0.761-0.316 0.419-0.615 0.815-0.665 0.881l-0.0915 0.119zm0.812-1.22c0.263-0.365 0.49-0.663 0.503-0.663 0.0133 0 0.368 0.106 0.787 0.235s0.83 0.235 0.912 0.235h0.149l-0.154-0.294c-0.0847-0.162-0.297-0.505-0.471-0.763-0.402-0.596-0.404-0.58 0.158-1.36 0.58-0.806 0.553-0.862-0.334-0.685-0.358 0.071-0.774 0.129-0.925 0.129l-0.275-6e-5 -0.625-0.783c-0.624-0.782-0.869-0.939-0.851-0.545 0.0048 0.106 0.0317 0.57 0.0598 1.03l0.0512 0.837-0.629 0.327c-1.24 0.643-1.24 0.678-0.117 0.976l0.826 0.219 0.0342 0.164c0.0188 0.0901 0.0732 0.479 0.121 0.864 0.127 1.03 0.0999 1.03 0.783 0.0799zm9.72 0.411-0.579-0.164-0.448 0.257-0.196-0.211c-0.108-0.116-0.196-0.232-0.196-0.258 0-0.026-0.421-0.412-0.937-0.859-1.12-0.974-1.13-0.955 0.104-0.467 0.545 0.216 1.09 0.393 1.21 0.393 0.153 0 0.349 0.127 0.684 0.442 0.258 0.243 0.655 0.565 0.881 0.716 0.598 0.398 0.474 0.434-0.52 0.152zm0.0695-0.272c-7.7e-5 -0.0323-0.153-0.155-0.339-0.273-0.186-0.118-0.403-0.285-0.482-0.372-0.0785-0.0868-0.206-0.158-0.284-0.158-0.0779 0-0.32-0.0705-0.539-0.157-0.743-0.293-0.737-0.177 0.0259 0.454 0.576 0.476 0.648 0.505 1.4 0.551 0.118 7e-3 0.215-0.0133 0.215-0.0456zm2.81-5.39c-3.29-2.38-2.87-2.18-3.44-1.64-0.256 0.244-0.668 0.539-0.917 0.655l-0.453 0.212h-1.64l-0.464-0.217c-0.948-0.444-1.45-1.04-1.7-2.01l-0.128-0.509-0.46-0.161c-2.65-0.928-3.44-4.48-1.47-6.6 0.388-0.419 0.623-0.571 1.52-0.983l0.196-0.0896 0.048-0.643c0.217-2.91 3.84-4.25 6.03-2.23l0.471 0.436 1.01-0.358 0.643 0.0353c2.16 0.118 3.59 2.56 2.69 4.57l-0.215 0.479 0.435 0.842 0.0042 0.626 0.0042 0.626-0.245 0.516c-0.165 0.348-0.363 0.615-0.607 0.819-0.507 0.424-0.615 0.134 1.8 4.81 0.326 0.632 0.579 1.17 0.548 1.17-0.171 0-3.32-5.28-3.65-6.13l-0.157-0.399 0.229-0.229 0.127 0.245c0.178 0.344 0.425 0.323 0.775-0.0639 0.786-0.87 0.807-2.14 0.0491-3l-0.32-0.363 0.591 0.0356 0.121-0.235c0.0839-0.163 0.121-0.462 0.121-0.979v-0.744l-0.208-0.444c-0.669-1.43-3.26-2.31-3.54-1.2-0.0349 0.139-0.0857 0.174-0.206 0.143-0.0932-0.0244-0.224 0.0162-0.314 0.0977-0.171 0.155-0.195 0.0761-0.0734-0.243l0.0806-0.212-0.345-0.331c-1.81-1.73-4.81-0.751-5.3 1.73-0.099 0.505-0.026 0.862 0.193 0.946 0.244 0.0934 0.106 0.185-0.278 0.185-1.41 0-2.87 2.01-2.61 3.6 0.264 1.65 1.11 2.77 2.28 3.02l0.247 0.0521 0.244-0.348 0.0774 0.204c0.0582 0.153 0.142 0.21 0.336 0.229l0.258 0.025-0.509 0.278 0.0017 0.252c0.0129 1.89 2.93 2.69 4.37 1.21l0.341-0.351-0.0534-0.243c-0.173-0.788 1.48 0.476 5.94 4.55 0.704 0.643 0.371 0.423-2.46-1.63zm61.3-3.83c0.728-0.704 1.73-1.58 2.28-1.99l0.153-0.115-0.129 0.188c-0.281 0.408-2.92 2.75-3.09 2.75-0.0357-2e-3 0.318-0.373 0.786-0.826zm-51.6-0.132c-0.422-0.382-3.55-3.15-4.2-3.72-0.666-0.581-0.653-0.54-0.303-0.911 0.177-0.188 0.316-0.449 0.402-0.755 0.178-0.633 0.0921-0.692 1.09 0.746 0.179 0.258 0.724 1.03 1.21 1.72 2.17 3.07 2.42 3.48 1.8 2.91zm-0.785-1.17c-0.219-0.412-2.83-4.09-2.96-4.17-0.0891-0.0551-0.209 0.0905-0.284 0.346-0.0318 0.108-0.142 0.308-0.244 0.445-0.238 0.317-0.264 0.248 0.303 0.79 2.06 1.97 3.46 3.11 3.18 2.59zm-13.6 1.1c-0.488-0.244-0.791-0.552-0.947-0.961l-0.0849-0.223 0.393 0.354c1.56 1.41 3.93 0.194 3.82-1.96-0.0319-0.646-0.0313-0.648 0.127-0.341 0.22 0.425 0.291 0.937 0.196 1.4l-0.0886 0.427 0.272 0.403c0.32 0.474 0.491 0.792 0.392 0.731-0.0387-0.0239-0.192-0.222-0.341-0.44-0.336-0.493-0.395-0.493-0.844 7e-3 -0.23 0.256-0.534 0.485-0.834 0.626l-0.472 0.223-1.11 1.2e-4zm56.6-2.79c0.356-0.845 0.661-1.75 0.661-1.96 0-0.17 0.0659-0.29 0.23-0.42 0.241-0.191 1.27-1.36 1.83-2.07 0.6-0.769 0.558-0.609-0.33 1.26-0.305 0.641-0.555 1.26-0.555 1.38 0 0.165-0.0672 0.259-0.275 0.388-0.152 0.0936-0.58 0.519-0.952 0.946-0.764 0.875-0.779 0.887-0.608 0.482zm1.11-1.25c0.313-0.334 0.569-0.669 0.569-0.745 4.4e-4 -0.0762 0.161-0.458 0.357-0.849s0.346-0.743 0.332-0.782c-0.0401-0.12-1.55 1.55-1.55 1.71 0 0.084-0.0562 0.307-0.125 0.495-0.348 0.955-0.329 0.962 0.416 0.166zm-24.5 0.576c0-0.0172-0.124-0.482-0.274-1.03-0.311-1.13-0.903-3.74-0.895-3.93 9e-3 -0.235 0.454 1.32 0.814 2.84 0.379 1.61 0.482 2.15 0.405 2.15-0.027 0-0.0492-0.0141-0.0492-0.0313zm13.5-1.89c-6e-3 -0.221 1.4-3.88 1.71-4.47l0.162-0.301-0.0508 0.235c-0.161 0.746-1.82 4.86-1.83 4.54zm-1.02-2.27c6.9e-4 -0.199 1.02-3.89 1.58-5.71 0.577-1.89 1.71-5.32 1.79-5.44l0.0828-0.117-0.0404 0.157c-0.0222 0.0861-0.115 0.456-0.207 0.822-0.736 2.95-3.21 10.9-3.21 10.3zm-24.3-0.365c0.381-2.68 0.417-2.57-1.08-3.32-0.664-0.332-1.14-0.615-1.1-0.653 0.0379-0.0373 0.581-0.227 1.21-0.42 1.51-0.468 1.55-0.487 1.64-0.693 0.0395-0.0978 0.167-0.865 0.283-1.7s0.228-1.56 0.249-1.59c0.0572-0.0978 0.247 0.248 0.916 1.67 0.794 1.69 0.563 1.52 2.26 1.64 1.51 0.102 1.68 0.148 1.41 0.377-0.0903 0.0771-0.556 0.475-1.03 0.884l-0.871 0.744 0.0357 0.196c0.0353 0.194 0.51 1.53 0.826 2.33 0.0903 0.228 0.127 0.411 0.0825 0.411-0.076 0-1.69-0.861-2.22-1.18-0.373-0.227-0.408-0.209-1.49 0.753-1.14 1.01-1.17 1.03-1.1 0.566zm1.29-1.12c0.98-0.907 0.643-0.925 2.44 0.129 0.777 0.456 0.778 0.454 0.224-1.01-0.473-1.25-0.512-1.08 0.464-1.9 0.996-0.837 0.993-0.88-0.0664-0.96-0.452-0.0339-1.01-0.081-1.24-0.105l-0.42-0.043-0.617-1.29c-0.604-1.26-0.72-1.42-0.808-1.15-0.0466 0.147-0.253 1.51-0.333 2.19-0.0526 0.454-0.0967 0.51-0.496 0.631-0.151 0.046-0.635 0.193-1.08 0.327-1.04 0.314-1.03 0.357 0.14 0.943 1.12 0.56 1.07 0.468 0.907 1.67-0.214 1.6-0.229 1.59 0.882 0.563zm11 0.714c0-0.0309-0.142-0.762-0.315-1.63-0.345-1.72-0.862-4.84-0.853-5.16 0.0134-0.466 0.548 2.14 0.883 4.31 0.321 2.07 0.37 2.45 0.326 2.49-0.0228 0.0228-0.0415 0.0163-0.0415-0.0146zm2.8-2.01c-0.0468-0.132-0.0435-0.106-0.367-2.92-0.13-1.13-0.275-2.34-0.322-2.7-0.107-0.799-0.104-0.807 0.453-1.14 0.25-0.148 0.729-0.438 1.06-0.645 0.697-0.432 0.713-0.43 0.613 0.0861-0.0409 0.211-0.13 0.7-0.198 1.09-0.696 3.95-1.18 6.39-1.24 6.23zm0.306-1.81c0.185-0.961 0.429-2.34 0.546-3.08 0.0609-0.388 0.178-1.07 0.26-1.53 0.155-0.854 0.124-1.06-0.131-0.881-0.0742 0.0517-0.425 0.273-0.779 0.492-0.876 0.541-0.843 0.391-0.573 2.54 0.0809 0.646 0.188 1.56 0.237 2.04 0.143 1.36 0.24 1.45 0.44 0.419zm25.6 0.757c-0.338-0.495-0.673-0.953-0.744-1.02l-0.129-0.117-1.28 0.349c-1.58 0.428-1.56 0.553-0.173-1.34 0.51-0.694 0.523-0.58-0.219-1.86-0.345-0.596-0.626-1.11-0.626-1.15 0-0.0355 0.571 0.133 1.27 0.374l1.27 0.439 0.63-0.697c0.347-0.384 0.8-0.874 1.01-1.09l0.377-0.393-0.0614 1.02c-0.0338 0.56-0.0625 1.19-0.0639 1.41l-3e-3 0.39 0.196 0.0882c0.108 0.0485 0.663 0.259 1.23 0.468 0.571 0.209 1.04 0.404 1.04 0.433 0 0.0495-1.84 0.704-2.31 0.822-0.32 0.0802-0.397 0.297-0.544 1.52-0.172 1.43-0.137 1.42-0.865 0.354zm0.619 0.0182c0.0203-0.0969 0.0763-0.546 0.124-0.998 0.105-0.991 0.0398-0.923 1.27-1.33 1.3-0.428 1.3-0.404-0.0979-0.913l-0.9-0.328 4e-3 -0.301c2e-3 -0.166 0.0327-0.68 0.0681-1.14 0.08-1.05 0.0927-1.05-0.855 0.0196-0.421 0.474-0.79 0.861-0.82 0.861s-0.488-0.16-1.02-0.355c-1.22-0.45-1.24-0.428-0.596 0.661 0.603 1.02 0.603 1.01 0.198 1.57-1.12 1.55-1.15 1.5 0.618 0.988l0.652-0.189 0.334 0.454c0.184 0.25 0.437 0.616 0.562 0.814 0.25 0.395 0.4 0.456 0.457 0.185z" fill="#080503"/></svg>
