<svg width="210mm" height="297mm" version="1.1" viewBox="0 0 210 297" xmlns="http://www.w3.org/2000/svg"><path d="m51.4 234c-0.204-0.0502-0.567-0.222-0.808-0.381l-0.438-0.29-0.568-1.11c-0.312-0.613-0.654-1.38-0.759-1.7-0.105-0.324-0.292-0.717-0.414-0.873-0.437-0.555-0.559-1.11-0.84-3.84-0.157-1.52-0.489-4.7-0.738-7.07-0.25-2.37-0.484-4.9-0.521-5.62l-0.0676-1.3 0.179-0.49c0.359-0.985 8.11-12 14.1-20.1 0.769-1.04 1.38-1.94 1.36-2-0.0206-0.0619-0.854 0.165-1.85 0.504-0.998 0.339-3.35 1.14-5.22 1.77-4.45 1.51-4.61 1.54-5.52 0.884-0.352-0.25-1.32-2.14-1.57-3.05-0.0746-0.277-0.264-0.722-0.42-0.989-0.571-0.975-0.583-0.704 0.316-7.57 1.29-9.83 1.34-10.1 2.59-10.9 1.03-0.653 11.4-3.95 19.8-6.26 9.62-2.67 23.1-5.75 25.2-5.75 1.31 0 2.52 1.24 2.52 2.59 0 0.194 0.153 1.05 0.34 1.91l0.34 1.56-5.8e-5 1.14c-3.2e-5 0.636-0.151 2.25-0.34 3.64-0.187 1.37-0.549 4.05-0.803 5.96-0.535 4-0.523 3.96-1.83 5.57-3.48 4.3-13.6 17.7-13.5 17.9 0.0236 0.0236 1.75-0.416 3.84-0.978 9.61-2.58 9.77-2.6 10.7-1.22l0.299 0.432 0.0899 0.881c0.0494 0.485 0.227 1.47 0.395 2.19l0.305 1.3-0.0698 1.13c-0.0384 0.624-0.101 1.27-0.139 1.45-0.135 0.61 0.163 0.291 1.25-1.34 1.02-1.53 5.52-7.94 6.86-9.76 0.891-1.22 1.09-1.22-2.91 0.0156l-3.14 0.971-0.393-0.0728c-0.578-0.107-0.976-0.345-1.31-0.782l-0.296-0.388-0.277-1.4c-0.152-0.769-0.386-1.65-0.519-1.97l-0.242-0.566 0.0627-1.08c0.0644-1.11 0.773-6.73 1.28-10.2l0.285-1.93 0.281-0.48c0.445-0.76 0.934-1.05 2.58-1.54 8.77-2.58 19-5.09 25.8-6.34l3.13-0.576 0.481 0.0722c1.1 0.164 2.09 1.29 2.1 2.38 1e-3 0.253 0.129 1.1 0.283 1.88 0.35 1.77 0.35 2.52 3e-3 6.01-0.152 1.53-0.385 4.05-0.518 5.61l-0.242 2.83-0.213 0.417c-0.117 0.229-0.588 0.922-1.05 1.54-1.29 1.73-6.48 8.79-6.76 9.2-0.345 0.495-0.32 0.599 0.119 0.495 0.203-0.0483 1.54-0.371 2.98-0.718 1.44-0.347 2.92-0.691 3.29-0.766l0.681-0.135 0.506 0.139c1.02 0.278 1.59 1.18 1.59 2.5 7e-4 0.343 0.0584 0.828 0.128 1.08 0.0698 0.25 0.213 0.937 0.317 1.53l0.19 1.07 1.24-1.81c0.681-0.996 1.85-2.68 2.59-3.74 1.26-1.8 1.52-2.21 1.42-2.21-0.0239 0-0.731 0.204-1.57 0.452-0.896 0.265-1.77 0.453-2.11 0.454l-0.579 2e-3 -0.384-0.259c-0.568-0.383-0.839-0.971-1.07-2.33-0.114-0.668-0.299-1.42-0.412-1.67-0.277-0.613-0.27-0.794 0.194-4.92 0.742-6.6 0.736-6.58 1.87-7.31 1.27-0.817 19.1-5.09 22.9-5.49l0.651-0.0685 0.505 0.193c0.945 0.361 1.54 1.29 1.54 2.42 3.5e-4 0.263 0.103 1 0.227 1.65 0.288 1.49 0.285 1.77-0.0547 5.22-0.728 7.4-0.609 6.77-1.52 8-1.85 2.5-4.21 5.81-4.21 5.92 0 0.159 4e-3 0.159 1.25-0.163 1.58-0.409 2.14-0.332 2.9 0.403l0.346 0.335 0.261-0.539c1.86-3.84 6.83-4.72 9.9-1.76l0.757 0.731 0.456-0.617c2.24-3.03 6.41-3.4 9.1-0.81l0.74 0.714 0.569-0.753c2.86-3.79 8.69-2.85 10.3 1.66l0.277 0.754 0.0973 1.36c0.0535 0.749 0.13 1.77 0.17 2.27l0.0724 0.908-0.18 0.851c-0.67 3.17-3.17 5.1-6.43 4.97l-1.1-0.0442-1.93-0.955-0.643-0.695c-0.354-0.382-0.665-0.673-0.692-0.646-0.0266 0.0266-0.25 0.361-0.497 0.743-1.98 3.06-6.52 3.46-9.11 0.802l-0.76-0.779-0.383 0.599c-2.45 3.83-8.42 3.56-10.4-0.47-0.303-0.631-0.5-0.858-0.5-0.577 0 0.455-0.722 4.87-0.842 5.15-0.0832 0.194-0.298 0.487-0.477 0.651l-0.326 0.298-2.1 0.646c-5.54 1.7-10.8 3.48-18.2 6.13l-2.1 0.756-1.02-0.153-0.939-0.943-0.306-1.3c-0.168-0.718-0.403-1.56-0.522-1.87-0.119-0.312-0.249-1.02-0.288-1.57-0.0857-1.19-0.223-1.16-0.391 0.0992-0.245 1.83-0.517 2.09-3.07 2.88-6.72 2.07-14.8 4.98-23.5 8.48l-5.21 2.08h-0.495c-1.22 0-2.19-1.15-2.81-3.32-0.103-0.359-0.315-0.881-0.471-1.16l-0.284-0.508-0.0946-1.05c-0.052-0.579-0.13-1.6-0.173-2.27-0.0959-1.5-0.205-1.54-0.397-0.17-0.266 1.91-0.59 2.24-2.78 2.86-2.46 0.701-6 1.82-10.9 3.43-10.2 3.36-16.2 5.59-26.9 10-2.61 1.07-3.05 1.2-3.66 1.05zm95.4-9.68c-0.266-0.296-1.97-5.21-1.97-5.68 0-0.683 0.957-1.13 1.51-0.709 0.216 0.164 0.67 1.33 1.6 4.12l0.541 1.62-0.14 0.339c-0.253 0.61-1.12 0.779-1.55 0.302zm6.99-3.01c-1.71-1.47-4.04-3.54-4.2-3.72-0.621-0.718 3e-3 -1.8 0.907-1.58 0.256 0.0642 3.44 2.73 4.69 3.92l0.542 0.518v0.346c0 0.19-0.106 0.48-0.235 0.645l-0.235 0.299h-0.973zm-112-48.6c-0.593-0.175-1.87-0.536-2.83-0.804-2.29-0.635-2.8-1.17-2-2.11l0.274-0.318 0.492 0.019c0.271 0.0105 1.73 0.376 3.25 0.813l2.76 0.794 0.546 0.513v0.878l-0.557 0.557-0.431-0.011c-0.237-6e-3 -0.916-0.154-1.51-0.329zm3.46-5.02c-0.366-0.212-5.47-4.95-5.55-5.15-0.314-0.817 0.494-1.73 1.28-1.44 0.383 0.142 5.42 4.92 5.63 5.34l0.19 0.378-0.139 0.335c-0.25 0.603-0.878 0.838-1.41 0.528zm4.87-2.58c-0.429-0.174-0.531-0.451-1.31-3.55-0.959-3.81-0.966-3.95-0.219-4.34 0.603-0.312 1.37 0.0179 1.51 0.651 0.0314 0.141 0.375 1.62 0.764 3.28 0.77 3.29 0.779 3.48 0.193 3.84-0.393 0.24-0.575 0.262-0.937 0.116z" fill="#8526e3"/><path d="m50.8 234-0.484-0.312-0.391-0.794c-0.215-0.437-0.493-0.972-0.617-1.19s-0.226-0.48-0.226-0.583c0-0.103-0.199-0.487-0.442-0.853-0.673-1.01-0.752-1.58-2.01-14.5l-0.305-3.12 0.127-0.457c0.284-1.02 4.27-6.81 12.1-17.6 0.317-0.437 1.28-1.74 2.14-2.89 1.59-2.14 1.73-2.39 1.33-2.39-0.237 0-3.65 1.12-8.28 2.72l-2.67 0.921-1.28-0.0814-0.399-0.304c-0.235-0.18-0.455-0.479-0.535-0.731-0.0749-0.235-0.283-0.688-0.463-1.01s-0.327-0.662-0.327-0.761c0-0.0989-0.23-0.615-0.511-1.15l-0.511-0.968-3.11e-4 -0.54c-7.85e-4 -1.36 1.94-15.3 2.2-15.8 0.588-1.14 0.627-1.16 5.91-2.9 13-4.29 30.1-8.73 39.2-10.2l0.769-0.123 0.527 0.126c1.18 0.283 1.75 1.12 1.92 2.8 0.0613 0.61 0.141 1.3 0.178 1.52 0.039 0.243 0.0162 0.445-0.0552 0.489-0.0668 0.0413-0.121 0.276-0.121 0.522v0.447h0.424l0.0609 0.879c0.0602 0.868-0.107 2.58-0.598 6.16-0.329 2.39-0.536 3.95-0.747 5.61-0.21 1.66-0.457 2.34-1.14 3.12-0.74 0.852-1.56 1.91-4.98 6.36-0.124 0.162-0.515 0.672-0.869 1.13-6.92 9.03-8.33 11-8.06 11.2 0.0515 0.0318 0.958-0.174 2.01-0.458 12-3.22 11.8-3.19 12.7-1.83l0.325 0.468 0.0789 3.08 0.159 0.0907c0.241 0.137 0.2 0.533-0.0557 0.533-0.253 0-0.318 0.142-0.42 0.91l-0.0759 0.572 0.938-0.15-0.0134 0.27c-0.0074 0.148-0.046 0.423-0.0858 0.61l-0.0723 0.34-0.906 0.113-0.153 0.485c-0.178 0.562-0.0964 1.05 0.175 1.05h0.188l-0.251 0.268c-0.247 0.263-0.539 1.06-0.429 1.17 0.0512 0.0512 0.234-0.208 0.799-1.13 0.107-0.175 0.345-0.409 0.53-0.522 0.203-0.124 0.953-1.12 1.9-2.52 1.87-2.77 5-7.21 6.74-9.56 1.13-1.52 1.17-1.52-4.21 0.155l-2.19 0.686-0.444-0.12c-0.244-0.0657-0.618-0.294-0.831-0.507l-0.387-0.387-0.122-0.658c-0.224-1.21-0.477-2.13-0.755-2.74-0.152-0.335-0.276-0.773-0.276-0.974 0-0.475 0.698-6.04 1.32-10.5l0.291-2.1 0.277-0.478c0.528-0.913 0.574-0.934 4.7-2.12 10.6-3.03 23.9-6.09 26.6-6.13l1.03-0.0125 0.473 0.312c0.678 0.448 0.931 1.02 1.06 2.4 0.0572 0.631 0.184 1.66 0.282 2.28 0.115 0.733 0.154 1.44 0.109 1.99-0.133 1.63-0.404 4.49-0.521 5.5-0.0649 0.559-0.145 1.61-0.179 2.33-0.0333 0.721-0.107 1.62-0.164 1.99-0.057 0.374-0.104 0.886-0.104 1.14-1e-3 0.572-0.167 0.876-1.36 2.5-0.53 0.72-1.17 1.59-1.42 1.92s-1.27 1.73-2.26 3.09c-0.993 1.36-1.92 2.6-2.06 2.76-0.423 0.475-1.3 1.82-1.3 1.99 0 0.251 0.285 0.208 2.99-0.451 5.09-1.24 5.42-1.25 6.25-0.147l0.226 0.303 0.0847 1.36c0.0466 0.746 0.139 1.46 0.206 1.58 0.13 0.243 0.171 1.12 0.0468 0.999-0.0859-0.0859-0.379 0.129-0.379 0.278 0 0.0548 0.128 0.0996 0.284 0.0996h0.284v0.447c0 0.946 0.184 0.789 1.73-1.48 0.701-1.03 1.58-2.32 1.96-2.87 0.374-0.549 1.03-1.47 1.45-2.06 0.421-0.582 0.766-1.15 0.766-1.25v-0.195l-0.452 0.0722c-0.248 0.0397-0.925 0.227-1.5 0.417-2.66 0.87-3.3 0.528-3.78-1.99-0.105-0.562-0.318-1.32-0.472-1.69l-0.28-0.667 0.406-3.59c0.711-6.28 0.701-6.21 0.968-6.76 0.475-0.981 0.458-0.974 5.62-2.39 6.68-1.84 16.6-4.02 18.4-4.05 1.56-0.025 2.14 0.713 2.27 2.87 0.043 0.714 0.15 1.55 0.238 1.86l0.16 0.559-0.116 1.53c-0.064 0.843-0.139 1.64-0.168 1.77-0.0284 0.129-0.157 1.49-0.286 3.01-0.358 4.24-0.487 4.77-1.42 5.79-0.142 0.156-0.501 0.641-0.796 1.08-0.296 0.437-0.726 1.02-0.956 1.3-0.23 0.281-0.649 0.868-0.931 1.3-0.282 0.437-0.628 0.896-0.769 1.02-0.258 0.229-0.686 0.968-0.686 1.19 0 0.183 0.522 0.138 1.78-0.156l1.16-0.27 0.402 0.0907c0.503 0.113 0.907 0.374 1.15 0.739 0.278 0.424 0.433 0.347 0.747-0.37 0.604-1.38 2.09-2.71 3.61-3.21l0.737-0.244 2.16-0.023 0.624 0.209c1.09 0.366 1.74 0.757 2.56 1.56 0.956 0.927 0.849 0.908 1.29 0.222 0.738-1.15 1.96-2.02 3.47-2.45l0.667-0.194 2.17 0.108 1.8 0.752 0.816 0.776c0.988 0.938 0.907 0.934 1.53 0.0775 2.81-3.86 8.66-2.86 10.2 1.73l0.241 0.715 0.0971 1.98c0.0967 1.98 0.076 2.25-0.287 3.81-0.961 4.13-6.93 5.58-9.57 2.32-0.622-0.766-0.794-0.806-1.11-0.254-2.03 3.57-7.49 4.02-9.53 0.797-0.386-0.612-0.619-0.556-1.05 0.249-2.2 4.12-9.01 3.37-10.2-1.12l-0.127-0.472-0.249 0.0354c-0.171 0.0243-0.258 0.125-0.278 0.319-0.0483 0.476-0.483 3.53-0.614 4.31-0.221 1.32-0.613 1.97-1.27 2.1-0.195 0.0388-1.12 0.319-2.06 0.622-0.936 0.304-2.62 0.842-3.74 1.2-3.34 1.05-9.26 3.09-14.1 4.87-2.91 1.06-3.32 0.938-3.91-1.2-0.164-0.59-0.442-1.45-0.618-1.92l-0.32-0.851-0.0757-1.42c-0.0501-0.94-0.127-1.47-0.227-1.57l-0.151-0.151-0.063 0.265c-0.0347 0.146-0.146 0.801-0.247 1.46s-0.209 1.36-0.24 1.56c-0.0339 0.22-0.216 0.523-0.452 0.752l-0.395 0.384-1.27 0.37c-3.81 1.11-12.3 4.07-19.7 6.87-0.761 0.289-7.87 3.15-9.01 3.63l-0.731 0.306-0.572-0.0678c-0.935-0.111-1.4-0.636-2.06-2.31-0.165-0.422-0.496-1.18-0.734-1.68l-0.433-0.908-0.126-1.59c-0.0691-0.874-0.162-2.07-0.207-2.66l-0.0809-1.08-0.379-0.0726-0.0692 0.659c-0.038 0.362-0.166 1.17-0.285 1.79l-0.216 1.13-0.408 0.356c-0.264 0.23-0.666 0.421-1.14 0.539-2.21 0.555-15.2 4.74-18.9 6.08-0.655 0.239-2.06 0.741-3.12 1.12-3.39 1.2-9.77 3.63-11.3 4.33-0.312 0.138-0.823 0.343-1.13 0.455-0.312 0.113-1.13 0.442-1.82 0.732-0.686 0.29-2.05 0.856-3.04 1.26l-1.79 0.731h-1.08zm1.12-6.32c8.39-3.67 26.3-9.91 38-13.3 2.38-0.683 2.33-0.652 2.43-1.35 0.0369-0.258 0.297-2.05 0.577-3.99s0.742-5.11 1.02-7.07c0.283-1.95 0.514-3.7 0.514-3.89v-0.336h-0.239c-0.822 0-13.6 3.52-21.4 5.86-1.91 0.58-1.96 0.575-1.43-0.163 4.71-6.64 15.3-20.8 20.2-26.8 0.97-1.21 1.85-2.33 1.95-2.5 0.176-0.28 1.01-5.84 1.69-11.3l0.237-1.89-0.126-0.235c-0.155-0.291-0.329-0.292-1.88-0.0113-7.83 1.41-21.7 4.91-31.6 8-4.64 1.44-10.5 3.43-10.7 3.62-0.278 0.278-2.2 14.6-1.99 14.8 0.0597 0.0597 2.06-0.553 4.86-1.49 9.5-3.17 17.4-5.69 17.8-5.64l0.202 0.0329-0.907 1.19c-8.34 10.9-11.9 15.8-18.7 25.4-0.573 0.811-1.7 2.44-2.5 3.62l-1.45 2.14 0.0711 1.32c0.0781 1.45 0.581 6.57 1.04 10.6 0.16 1.4 0.323 2.83 0.361 3.18 0.0383 0.343 0.119 0.686 0.179 0.763l0.109 0.139 0.357-0.154c0.197-0.0848 0.791-0.344 1.32-0.576zm50.1-9.24c4.55-1.8 6.88-2.67 12.1-4.49 4.03-1.41 11.3-3.74 14.3-4.55 0.827-0.229 0.733-0.0121 1.11-2.55 0.162-1.09 0.541-3.62 0.844-5.62 0.306-2.02 0.507-3.68 0.453-3.73-0.116-0.125-1.45 0.16-5.1 1.09-2.92 0.743-5.19 1.38-9.84 2.75-1.56 0.459-1.79 0.491-1.69 0.232 0.248-0.645 9.25-13.1 13-18 2.33-3.04 2.04-2.22 2.45-6.87 0.191-2.15 0.422-4.61 0.515-5.47 0.222-2.06 0.217-2.44-0.0311-2.57-0.534-0.281-11.5 2.02-18.3 3.84-0.468 0.125-1.64 0.435-2.61 0.688-1.66 0.434-2.9 0.777-7.2 1.99-2.12 0.6-2.06 0.56-2.15 1.32-0.0414 0.324-0.196 1.46-0.343 2.52-0.54 3.9-1.11 8.79-1.04 8.87 0.0422 0.0422 1.77-0.441 3.85-1.07 3.8-1.16 7.74-2.3 10.5-3.04 0.811-0.218 1.56-0.424 1.67-0.457 0.461-0.14 0.453-0.128-4.06 6.08-4.56 6.28-8.94 12.5-11.6 16.4l-1.32 1.98 1e-3 0.46c0.0019 0.86 0.664 10.9 0.746 11.3 0.0726 0.362-0.028 0.391 3.73-1.1zm34.1-6.26c0.707-0.257 2.05-0.747 2.99-1.09 3.82-1.4 9.83-3.35 14.6-4.74 2.87-0.841 2.66-0.699 2.84-1.92 0.0713-0.505 0.333-2.19 0.582-3.74 0.278-1.74 0.412-2.87 0.347-2.93-0.167-0.167-3.18 0.548-8.79 2.08-1.93 0.529-2.46 0.634-2.46 0.488 0-0.0365 0.477-0.739 1.06-1.56 0.583-0.821 1.5-2.12 2.04-2.89 1.81-2.57 6.58-9.07 7.57-10.3l0.649-0.823 0.0696-0.765c0.0383-0.421 0.249-2.62 0.469-4.88 0.22-2.26 0.369-4.17 0.332-4.23-0.229-0.371-9.68 1.56-15.9 3.24-0.562 0.153-1.76 0.478-2.67 0.723-2.39 0.647-3.77 1.05-3.99 1.16-0.237 0.121-0.527 2.03-1.01 6.62-0.0716 0.686-0.168 1.57-0.215 1.96-0.118 0.985-0.0834 0.995 1.58 0.484 1.95-0.6 7.28-2.08 8.79-2.44 0.686-0.163 1.34-0.325 1.45-0.359 0.448-0.138 0.393-0.0532-3.15 4.95-0.553 0.78-1.39 1.98-1.87 2.67-0.476 0.686-1.24 1.78-1.7 2.44-1.03 1.48-4.57 6.64-5.14 7.5l-0.42 0.636v0.864c0 1.04 0.329 7 0.398 7.2 0.0697 0.203 0.128 0.191 1.55-0.325zm30.3-9.06c1.27-0.398 2.33-1.4 2.83-2.69l0.253-0.656 0.0234-1.93-0.37-0.751c-0.479-0.973-1.1-1.59-2.14-2.1l-0.834-0.412-2.15 0.113-0.615 0.301c-1.2 0.587-2.12 1.91-2.36 3.38l-0.116 0.716 0.131 0.681c0.506 2.63 2.88 4.12 5.35 3.35zm10.9-0.998c2.07-0.968 2.97-3.14 2.28-5.48l-0.167-0.562-0.674-0.72c-0.472-0.505-0.886-0.818-1.39-1.05l-0.712-0.329h-2.04l-0.667 0.338c-0.924 0.468-1.69 1.23-2.08 2.04l-0.319 0.681v2.5l0.245 0.53c0.704 1.52 2.32 2.51 3.97 2.44l0.807-0.0379zm14.2-0.508c0.119-0.445 0.085-0.502-0.27-0.449-0.46 0.0675-0.523 0.213-0.206 0.477 0.34 0.284 0.393 0.281 0.476-0.0278zm-4.33-0.208c1.2-0.472 2.02-1.3 2.5-2.5l0.242-0.61-8e-3 -0.908-7e-3 -0.908-0.246-0.647c-0.345-0.907-1.09-1.69-2.07-2.18l-0.803-0.402h-0.71c-0.4 0-1.05 0.104-1.48 0.238l-0.769 0.238-0.661 0.631c-3.26 3.11-0.0951 8.67 4.01 7.05zm-40.3 23.3c-0.114-0.145-0.605-1.44-1.09-2.87l-0.885-2.61 0.117-0.308c0.0645-0.17 0.244-0.366 0.398-0.436l0.281-0.128 0.336 0.139c0.185 0.0765 0.387 0.275 0.45 0.441 0.555 1.46 1.72 5.04 1.72 5.28 0 0.679-0.912 1.02-1.32 0.492zm5.62-4.18c-2.57-2.22-3.05-2.7-3.05-3.05 0-0.755 0.775-1.05 1.43-0.542 1.02 0.784 4.58 3.98 4.63 4.16 0.0918 0.289-0.107 0.769-0.38 0.915-0.52 0.278-0.748 0.15-2.64-1.48zm-110-47.2c-0.281-0.0801-1.12-0.311-1.87-0.514-4.19-1.13-4.55-1.35-3.79-2.32l0.235-0.299h0.391c0.215 0 0.99 0.173 1.72 0.386 0.732 0.212 1.99 0.573 2.81 0.802 2.05 0.58 2.66 1.35 1.52 1.94-0.375 0.194-0.352 0.194-1.01 5e-3zm2.67-5.19c-0.584-0.342-5.51-5-5.58-5.28-0.153-0.609 0.474-1.17 1.12-1.01 0.259 0.065 1.32 1.03 4.54 4.13l1.11 1.07v0.32c0 0.616-0.694 1.07-1.19 0.778zm4.56-2.79c-0.161-0.178-1.78-6.35-1.78-6.78 0-0.322 0.528-0.735 0.939-0.735 0.578 0 0.812 0.343 1.09 1.59 0.13 0.593 0.463 2.05 0.74 3.23 0.526 2.25 0.535 2.54 0.0846 2.78-0.341 0.183-0.864 0.144-1.07-0.0785z" fill="#250857"/></svg>
