<?xml version="1.0" encoding="UTF-8" standalone="no"?>
<!-- Created with Inkscape (http://www.inkscape.org/) -->

<svg
   width="210mm"
   height="297mm"
   viewBox="0 0 210 297"
   version="1.1"
   id="svg1"
   xml:space="preserve"
   sodipodi:docname="THUD.svg"
   inkscape:version="1.4.4 (dcaf3e7, 2026-05-05)"
   xmlns:inkscape="http://www.inkscape.org/namespaces/inkscape"
   xmlns:sodipodi="http://sodipodi.sourceforge.net/DTD/sodipodi-0.dtd"
   xmlns="http://www.w3.org/2000/svg"
   xmlns:svg="http://www.w3.org/2000/svg"><sodipodi:namedview
     id="namedview1"
     pagecolor="#ffffff"
     bordercolor="#000000"
     borderopacity="0.25"
     inkscape:showpageshadow="2"
     inkscape:pageopacity="0.0"
     inkscape:pagecheckerboard="0"
     inkscape:deskcolor="#d1d1d1"
     inkscape:document-units="mm"
     showgrid="false"
     inkscape:zoom="0.47571549"
     inkscape:cx="410.95992"
     inkscape:cy="519.21791"
     inkscape:window-width="1280"
     inkscape:window-height="778"
     inkscape:window-x="-6"
     inkscape:window-y="-6"
     inkscape:window-maximized="1"
     inkscape:current-layer="layer1" /><defs
     id="defs1" /><g
     inkscape:label="Layer 1"
     inkscape:groupmode="layer"
     id="layer1"><g
       id="g69"
       transform="translate(1.390449,8.0646063)"><path
         style="fill:#92d539"
         d="m 66.214305,192.6081 c -5.109576,-0.72932 -8.772326,-5.24509 -8.782611,-10.82799 -0.0068,-3.70028 1.982253,-10.62954 5.425162,-18.89948 l 0.56786,-1.36401 -0.299875,-0.32308 c -1.605776,-1.72999 -4.180663,-6.07062 -5.195597,-8.7585 -0.378312,-1.00189 -0.380777,-1.00373 -0.834696,-0.62252 -2.198254,1.84617 -3.497916,2.46298 -5.189674,2.46298 -2.751386,0 -5.193289,-2.35485 -6.096578,-5.87924 l -0.235852,-0.92023 0.0034,-1.22697 c 0.01287,-4.62539 3.951615,-11.11539 10.509131,-17.31623 7.865302,-7.43749 14.159748,-9.20079 16.469741,-4.61375 0.205698,0.40846 0.528215,0.97768 0.716704,1.26493 0.71418,1.08838 1.031652,2.59593 0.872752,4.14437 -0.05649,0.55047 -0.128746,1.27201 -0.160572,1.60343 -0.03183,0.33142 -0.07956,0.77513 -0.106072,0.98601 -0.07337,0.58354 0.104132,0.45846 0.362748,-0.25562 4.327794,-11.94969 6.860633,-15.68617 11.605558,-17.12066 l 0.920228,-0.2782 1.840458,0.003 1.840457,0.002 0.920228,0.28108 c 1.98107,0.6051 3.561363,1.84184 4.391953,3.43715 0.219593,0.42177 0.543129,0.99692 0.718969,1.2781 0.647166,1.03487 1.169865,2.5666 1.175532,3.44482 0.0028,0.42622 0.08513,0.40945 1.177623,-0.23973 7.561138,-4.49301 13.929588,-5.70732 16.639288,-3.1727 l 0.50814,0.4753 0.16846,-0.21604 c 0.0926,-0.11881 0.46278,-0.63732 0.82251,-1.15223 8.00331,-11.45578 22.15736,-13.18541 27.26324,-3.33157 0.70262,1.35598 0.72024,1.36667 0.8077,0.49007 0.50669,-5.07816 1.14895,-7.30802 2.64425,-9.18045 3.58933,-4.4946 12.61438,-5.38797 16.39847,-1.62326 l 0.83606,0.83178 0.45973,0.95788 c 0.25286,0.52683 0.62428,1.23112 0.82539,1.56509 0.50969,0.84643 0.77509,1.59608 0.93442,2.63936 l 0.1367,0.89511 -0.10199,0.91351 c -0.11426,1.0234 -0.56556,2.76988 -2.27374,8.79913 -1.43078,5.05013 -3.30957,11.84057 -5.07805,18.35345 -1.73847,6.40235 -2.51191,9.27901 -2.87058,10.67662 -0.35752,1.39312 -0.62223,2.06672 -1.11345,2.83328 l -0.13951,0.2177 0.57555,0.67842 c 1.17658,1.38689 2.6083,4.14798 3.10725,5.99238 l 0.17979,0.66461 0.003,1.78934 0.003,1.78933 -0.19122,0.81798 c -2.71738,11.62373 -16.45306,13.18523 -20.26387,2.30363 -0.28387,-0.81056 -0.34484,-0.83561 -0.75949,-0.31207 -2.06879,2.61206 -7.31148,5.47518 -11.25636,6.1473 l -1.27077,0.21651 -1.89158,-0.0527 c -4.23844,-0.118 -7.80964,-1.74188 -10.05172,-4.57067 -0.76123,-0.96043 -0.69046,-0.94956 -1.20402,-0.18485 -3.00097,4.4686 -14.063162,11.5318 -19.418554,12.39874 -6.392732,1.03488 -10.857253,-3.06635 -12.015827,-11.03804 l -0.0743,-0.51124 -0.08668,0.20449 c -0.102144,0.24097 -1.462047,6.08416 -2.332046,10.02027 -1.077737,4.87597 -1.182614,5.26896 -1.773638,6.6461 -1.7771,4.14078 -6.063144,6.43743 -10.761999,5.76673 z m 45.238345,-39.71986 c 3.08087,-6.04 8.81563,-7.19642 11.01137,-2.22046 1.13272,2.56696 4.74099,2.64462 4.74099,0.10203 v -0.44841 l -0.37719,-0.48414 c -0.75437,-0.96826 -2.19658,-1.97547 -5.3938,-3.7669 -5.18034,-2.90259 -7.29,-5.12979 -8.49892,-8.97246 -0.15038,-0.47801 -0.30586,-0.90468 -0.34551,-0.94816 -0.0593,-0.0651 -1.18209,0.35607 -1.32687,0.49768 -0.0235,0.023 0.23994,0.2977 0.58549,0.61041 l 0.62827,0.56855 0.38133,0.78605 c 0.20972,0.43232 0.50954,0.95326 0.66626,1.15764 0.41514,0.54138 0.77073,1.36314 0.96313,2.22577 l 0.16883,0.75692 -0.0581,1.08354 c -0.21218,3.95421 -2.37433,6.99757 -6.5173,9.1735 l -0.55825,0.2932 1.12473,0.0613 1.12472,0.0613 0.51124,0.21455 c 0.66816,0.2804 0.63079,0.30442 1.16962,-0.75194 z m 31.70379,-11.36813 c 4.5e-4,-0.0422 0.11236,-1.57206 0.24869,-3.39974 0.34866,-4.67399 0.49768,-7.07433 0.45328,-7.30087 l -0.0382,-0.19466 -0.52665,0.7059 c -1.13082,1.51571 -2.70973,2.83029 -4.355,3.62593 -1.02468,0.49552 -1.023,0.41201 -0.0262,1.29888 1.39044,1.23714 2.80548,2.98945 3.62979,4.49492 0.40974,0.74833 0.61186,1.00156 0.61429,0.76964 z m -3.73053,43.80946 -0.40669,-0.23033 -0.30905,-0.60433 -0.30905,-0.60432 0.009,-0.82518 c 0.0195,-1.77247 1.99111,-7.31791 2.60181,-7.31791 0.28913,0 1.2609,3.52896 1.42198,5.1639 0.33393,3.38941 -1.10164,5.49793 -3.00808,4.41817 z m -8.33243,-1.20928 c -0.47104,-0.18799 -0.89504,-0.58978 -1.11404,-1.0557 l -0.21824,-0.46427 v -0.70501 -0.70501 l 0.40841,-0.81598 0.40842,-0.81599 0.88452,-0.93962 c 1.44297,-1.53286 3.72948,-3.23995 5.73818,-4.28408 l 0.84457,-0.439 0.0635,0.16555 c 0.18804,0.49002 -1.26882,4.6508 -2.38473,6.81076 -1.32834,2.57115 -3.14112,3.8428 -4.63061,3.24835 z m -84.085092,-9.93207 c -0.339954,-0.31235 -2.726593,-3.13925 -2.724632,-3.22724 8.61e-4,-0.0386 0.03537,-0.12324 0.07669,-0.18802 0.08295,-0.13004 4.998302,-3.0046 8.357178,-4.88738 1.18096,-0.66197 2.501645,-1.40551 2.934855,-1.65232 1.718701,-0.97916 1.586358,-0.75774 -1.912379,3.19949 -6.880967,7.78269 -6.275269,7.17485 -6.731707,6.75547 z m -5.795958,-9.84414 c -0.127216,-0.15329 -0.49534,-3.18946 -0.504405,-4.16018 l -0.0045,-0.48208 0.190631,-0.10203 c 0.17399,-0.0931 13.584579,0.95276 13.700289,1.06847 0.250682,0.25068 0.18434,0.27166 -6.733586,2.12964 -7.028406,1.88765 -6.472354,1.75834 -6.648427,1.54618 z m 128.103,-9.6204 c -1.59415,-1.08125 -5.8385,-4.04258 -7.53778,-5.25919 -1.94248,-1.39074 -1.90848,-1.39068 4.23033,0.007 0.95602,0.21773 2.77347,0.629 4.03878,0.91392 2.68949,0.60562 2.76069,0.63052 2.76069,0.9655 0,0.39502 -1.57983,4.0717 -1.81732,4.22939 l -0.20771,0.13791 z m -7.71368,-9.97272 c -0.11435,-0.18502 0.021,-0.25902 5.50138,-3.00762 4.93202,-2.47358 5.5101,-2.72978 5.64972,-2.50387 0.0858,0.13891 0.74606,3.12995 0.82599,3.7421 l 0.0673,0.51568 -0.15541,0.12898 c -0.0938,0.0778 -0.99997,0.20743 -2.28538,0.32684 -1.17148,0.10883 -3.76143,0.35937 -5.75545,0.55676 -4.21244,0.41699 -3.75713,0.38846 -3.84818,0.24113 z m 0.4697,-5.04235 c 0,-0.1715 0.72917,-1.56814 2.48406,-4.75791 2.45698,-4.46591 2.85544,-5.17379 2.98867,-5.30945 l 0.14333,-0.14594 0.24777,0.11289 c 0.40163,0.18299 3.12941,2.28001 3.24376,2.49368 l 0.10487,0.19594 -0.28734,0.2784 c -0.15803,0.15312 -1.04604,0.89928 -1.97335,1.65813 -0.92731,0.75886 -2.80527,2.31452 -4.17325,3.45704 -2.59896,2.17061 -2.77852,2.30097 -2.77852,2.01722 z M 49.803562,129.22877 c -10.614493,-2.14069 -9.979992,-2.00095 -10.062554,-2.2161 -0.05242,-0.13661 1.106631,-3.5165 1.39255,-4.06078 0.202431,-0.38535 0.900991,0.0176 10.635291,6.13491 0.252432,0.15863 0.360568,0.29089 0.321365,0.39305 -0.0756,0.197 -0.05195,0.1996 -2.286652,-0.25108 z m 5.816134,-4.1791 c -0.562505,-0.39581 -3.617366,-2.65901 -8.04002,-5.95647 -1.645472,-1.22684 -2.479505,-1.911 -2.479505,-2.03396 0,-0.40699 3.261448,-3.92412 3.539799,-3.81731 0.332063,0.12742 7.707439,11.53186 7.707439,11.9179 0,0.30669 -0.1724,0.28059 -0.727713,-0.11016 z m 4.435209,-3.92456 c -0.301258,-0.37166 -4.131525,-10.0928 -4.096291,-10.3963 l 0.03093,-0.26642 1.278095,-0.3213 c 1.94275,-0.48838 3.013813,-0.6925 3.21951,-0.61357 l 0.186039,0.0714 -0.07871,4.47052 c -0.120193,6.82701 -0.172329,7.50876 -0.539576,7.05568 z m 40.947785,-4.09331 c -0.28015,-0.81437 2.52406,-5.65927 4.3118,-7.44961 l 1.08313,-1.08469 0.71095,-0.33635 0.71095,-0.33635 0.66939,-0.0442 0.6694,-0.0442 0.56172,0.28937 c 0.35416,0.18243 0.66893,0.4441 0.85181,0.70811 l 0.29008,0.41875 0.053,0.60373 0.053,0.60373 -0.22847,0.61348 -0.22847,0.61349 -0.93515,0.92023 c -1.74992,1.72201 -8.34061,5.20025 -8.5731,4.52445 z m -3.238803,-2.29433 c -0.06001,-0.21432 -0.21226,-0.89579 -0.338329,-1.51439 l -0.229215,-1.12473 -5.05e-4,-2.04495 -5.04e-4,-2.04495 0.236853,-0.8691 c 0.328329,-1.20477 0.794218,-2.10023 1.416413,-2.72243 2.11983,-2.11983 4.74401,-0.41773 3.96529,2.57198 -0.41023,1.575 -4.18942,7.99962 -4.768484,8.10644 l -0.172405,0.0318 z"
         id="path72" /><path
         style="fill:#070a04"
         d="m 66.674419,192.50344 c -5.292857,-0.56295 -9.100038,-5.05341 -9.100038,-10.73321 0,-3.48154 1.732718,-9.67771 4.917759,-17.58583 1.197887,-2.97422 1.153844,-2.58502 0.394826,-3.48901 -1.654433,-1.97041 -3.798055,-5.67272 -4.856711,-8.38816 -0.454991,-1.16704 -0.410213,-1.15028 -1.211392,-0.45354 -1.550909,1.34875 -2.808232,2.02009 -4.183865,2.23395 l -0.766452,0.11916 -0.699939,-0.11598 c -0.397716,-0.0659 -1.031164,-0.27857 -1.467045,-0.49252 l -0.767105,-0.37653 -0.715734,-0.7294 c -2.498512,-2.54619 -3.160069,-6.30844 -1.779961,-10.12255 2.848818,-7.87309 14.526795,-19.26784 20.868337,-20.36221 l 0.944529,-0.163 0.770672,0.11424 c 1.553884,0.23032 2.742939,1.0763 3.412449,2.42786 0.189922,0.3834 0.514597,0.97316 0.7215,1.31058 0.808241,1.31808 1.013136,2.72554 0.736807,5.06126 -0.352683,2.98109 -0.202556,3.19267 0.651,0.91747 4.577994,-12.20292 6.765532,-15.36264 11.513586,-16.63045 l 1.015177,-0.27107 1.482591,-0.003 1.48259,-0.003 0.906431,0.22531 c 0.498537,0.12392 1.303737,0.42026 1.789333,0.65854 l 0.882903,0.43322 0.82135,0.81843 0.82135,0.81843 0.43599,0.81798 c 0.239794,0.44989 0.617157,1.14007 0.838585,1.53372 0.507618,0.90244 0.788089,1.73469 0.908706,2.69644 0.128045,1.02097 0.09097,1.01747 1.593143,0.15048 4.647639,-2.68241 8.981189,-4.25591 12.116339,-4.39941 l 1.2781,-0.0585 0.66461,0.17077 c 1.00348,0.25785 1.68042,0.60713 2.28516,1.17907 0.66687,0.6307 0.6595,0.63048 1.03607,0.0309 3.97303,-6.32582 11.01811,-10.65913 17.32956,-10.65913 4.9076,0 8.24751,2.14004 10.56043,6.76658 0.67848,1.35715 0.74838,1.39158 0.84307,0.41524 0.52506,-5.41365 1.1473,-7.62173 2.6959,-9.56659 3.50462,-4.40138 12.78752,-5.19371 16.30742,-1.39189 l 0.6733,0.72722 0.60683,1.19241 c 0.33376,0.65583 0.77319,1.5145 0.97653,1.90815 1.13601,2.19932 1.046,2.90987 -1.52183,12.0141 -2.41871,8.57554 -2.66909,9.48338 -6.02071,21.82986 -0.70224,2.58687 -1.46824,5.43958 -1.70222,6.33936 -0.78713,3.02693 -0.99218,3.60324 -1.46593,4.12006 -0.2436,0.26575 -0.2738,0.2014 0.55709,1.18714 1.08481,1.28699 2.56076,4.19401 2.97139,5.85248 l 0.22422,0.90554 -0.004,1.53371 c -0.0346,12.99104 -15.98001,16.71857 -20.22922,4.72895 -0.32775,-0.92478 -0.40591,-0.9517 -0.92476,-0.31852 -2.08572,2.54536 -6.81535,5.2249 -10.66036,6.03957 l -1.29678,0.27475 -1.94271,-2.9e-4 -1.9427,-2.9e-4 -1.06917,-0.23039 c -3.12301,-0.67294 -5.81823,-2.26489 -7.49344,-4.42605 -0.75868,-0.97877 -0.74787,-0.97837 -1.33588,-0.0501 -2.43946,3.85093 -12.653418,10.65801 -18.125603,12.0798 -7.054762,1.83299 -11.942771,-2.32406 -13.081323,-11.12512 -0.03984,-0.308 -0.108218,-0.47693 -0.182949,-0.45202 -0.130573,0.0435 -1.064571,3.93291 -2.583808,10.7596 -1.236675,5.55699 -1.567398,6.55886 -2.731378,8.27427 -1.897249,2.79605 -5.46627,4.32585 -9.17253,3.93165 z m 2.402819,-4.53518 c 0.337417,-0.0925 1.050594,-0.3781 1.584838,-0.63457 l 0.971353,-0.46632 0.870993,-0.88211 c 1.495242,-1.51432 1.853728,-2.42527 3.002808,-7.63045 2.533319,-11.47559 4.107164,-17.55292 6.368211,-24.59055 1.536562,-4.78263 4.245979,-12.05879 6.325794,-16.98796 0.316884,-0.75102 0.820772,-2.00965 1.119751,-2.79695 0.612879,-1.61391 1.176844,-2.86297 3.116184,-6.90172 1.531873,-3.19018 1.845268,-4.02556 1.917908,-5.11238 0.175651,-2.62804 -1.381155,-4.61128 -4.061459,-5.17397 l -0.766857,-0.16099 -1.278095,0.0458 -1.278095,0.0458 -0.93176,0.31355 c -3.292413,1.10792 -4.871651,3.35143 -8.220478,11.67822 -1.62865,4.04961 -4.047932,10.68647 -5.376417,14.74922 -0.532541,1.62861 -0.488427,1.66321 -0.959345,-0.75249 -0.930149,-4.77145 -1.150976,-8.93407 -0.707768,-13.34151 0.291112,-2.89494 0.213654,-3.65053 -0.476731,-4.6504 -3.5125,-5.08707 -22.641711,12.83373 -22.641711,21.21142 0,1.71574 0.875879,3.15656 2.321102,3.8182 l 0.556311,0.25469 0.734055,-0.0372 0.734055,-0.0372 0.562362,-0.27753 c 1.204931,-0.59465 5.044088,-3.95791 5.479851,-4.80058 0.221032,-0.42743 0.316817,-0.35464 0.39444,0.29975 0.527605,4.44791 3.863699,10.69686 7.480891,14.01271 l 0.747668,0.68538 -0.917031,1.83526 c -3.027473,6.05889 -6.23298,16.23506 -6.23298,19.78715 v 1.19723 l 0.20226,0.79083 c 0.285112,1.11477 0.647794,1.73419 1.532883,2.61799 l 0.769923,0.7688 0.823767,0.4275 c 0.715129,0.37112 1.734254,0.71755 2.601529,0.88433 0.548702,0.10552 3.026572,-0.0234 3.62979,-0.18882 z M 92.31732,176.81241 c 2.628253,-0.54047 7.679449,-3.21505 12.34209,-6.53506 4.6067,-3.28019 6.17168,-5.2024 6.75504,-8.29705 l 0.17067,-0.90533 -0.0493,-1.17585 c -0.0868,-2.07244 -0.61671,-3.4546 -1.58353,-4.13048 l -0.43295,-0.30266 -0.84515,-0.0436 -0.84514,-0.0436 -0.89819,0.21412 c -1.7378,0.41429 -4.49414,1.69753 -8.764214,4.08026 -1.209078,0.67467 -2.238299,1.18929 -2.287157,1.1436 -0.09975,-0.0933 0.07883,-1.16982 0.610154,-3.67835 0.324032,-1.52983 0.471569,-2.16447 0.764495,-3.28853 l 0.09759,-0.37447 4.880792,-2.42657 c 2.68444,-1.33461 5.17987,-2.62035 5.5454,-2.85719 2.29987,-1.49016 3.77829,-4.27902 3.6596,-6.90339 l -0.0394,-0.87087 -0.31442,-0.6719 c -1.20805,-2.58156 -4.01219,-2.12015 -10.75324,1.76941 -0.998391,0.57606 -1.079264,0.56207 -0.86896,-0.1504 0.329062,-1.1148 1.55984,-4.70817 1.63885,-4.78479 0.31187,-0.30239 5.34339,-2.6338 7.74849,-3.59034 2.78125,-1.10614 3.36087,-1.5068 4.3492,-3.00638 l 0.68774,-1.04348 0.46322,-1.41662 c 0.56685,-1.73351 0.7317,-2.70941 0.6667,-3.94681 l -0.0497,-0.94624 -0.23462,-0.46011 c -0.55149,-1.0815 -1.18979,-1.54247 -2.43045,-1.75522 l -0.7241,-0.12416 -0.90741,0.12081 c -6.86553,0.91408 -18.636335,8.30795 -20.342651,12.7783 l -0.262462,0.68762 -0.05265,0.94542 -0.05265,0.94543 0.177843,0.74166 c 0.09781,0.40791 0.317035,1.00528 0.487158,1.32749 l 0.309314,0.58583 -0.160745,0.24533 c -0.365263,0.55746 -1.879626,4.37421 -2.744125,6.91619 -3.499834,10.29095 -5.332215,20.05256 -4.635161,24.6928 0.709935,4.72599 4.439643,7.4573 8.923985,6.53516 z m 57.74003,-6.48495 c 6.17336,-1.95964 8.59962,-10.45922 4.23542,-14.83732 l -0.77672,-0.7792 -0.86024,-0.4212 c -5.47891,-2.68264 -12.15729,2.16659 -12.09053,8.77905 l 0.0119,1.17585 0.21387,0.80182 c 0.71595,2.68424 2.69057,4.67948 5.3298,5.38547 l 0.76686,0.20513 1.22697,-0.0412 1.22697,-0.0412 z m -24.23147,-1.07811 c 10.79259,-1.64522 19.1528,-15.19668 15.7304,-25.49818 -1.35514,-4.07903 -4.05156,-6.69372 -10.15912,-9.85118 -3.06986,-1.58705 -4.10428,-2.37013 -4.67689,-3.54049 l -0.2744,-0.56086 -0.0408,-0.93183 c -0.13654,-3.12201 2.38678,-6.26968 5.26448,-6.56705 l 0.52805,-0.0546 0.26437,0.26437 c 0.47727,0.47727 0.39605,0.75427 -0.81853,2.79143 -1.88395,3.15987 -1.92396,4.44966 -0.1741,5.6115 3.85805,2.5616 9.54566,-0.81629 11.18405,-6.64223 1.86311,-6.62506 -1.58146,-12.41713 -7.82195,-13.15266 l -1.01345,-0.11945 -1.15421,0.11702 c -7.35348,0.74551 -14.28846,6.90313 -17.05636,15.14448 -1.49871,4.46236 -1.52747,7.90167 -0.0892,10.66324 l 0.49055,0.94187 1.12474,1.13028 c 1.29953,1.30593 2.05025,1.8274 4.85678,3.37364 1.09661,0.60417 2.59198,1.48833 3.32305,1.9648 l 1.32922,0.86631 0.97444,0.98475 c 1.0878,1.09929 1.43828,1.67093 1.74321,2.84315 l 0.20811,0.80004 -0.066,0.66461 c -0.27908,2.80871 -2.66744,4.62507 -5.38492,4.09524 -1.64501,-0.32073 -2.81077,-1.36093 -3.69535,-3.29733 -1.87563,-4.10585 -7.24478,-0.21524 -8.05474,5.83665 -1.03233,7.71345 5.25155,13.37352 13.45851,12.12245 z m -14.41812,-15.97342 c 1.4581,-3.35482 4.43151,-5.67804 7.07154,-5.52521 l 0.80557,0.0466 0.58347,0.26712 c 1.09442,0.50104 1.85819,1.32963 2.46698,2.67633 0.37671,0.83334 0.90668,1.44697 1.51664,1.75606 l 0.51378,0.26035 0.63783,0.004 c 1.1164,0.006 2.03248,-0.6073 2.31526,-1.55114 l 0.12304,-0.41068 -0.11932,-0.39827 c -0.0737,-0.2459 -0.34392,-0.62766 -0.70636,-0.99783 -1.04264,-1.06487 -1.31455,-1.24394 -6.53773,-4.30537 -3.98237,-2.33416 -5.99381,-4.67137 -7.04637,-8.18755 -0.32073,-1.07144 -0.29183,-1.05654 -1.2895,-0.66511 -0.84978,0.3334 -0.85034,0.35401 -0.0294,1.08813 l 0.66317,0.59305 0.37532,0.78729 c 0.20643,0.43301 0.50697,0.95602 0.66787,1.16225 0.42262,0.54168 0.7659,1.37896 0.96185,2.34602 l 0.17114,0.84461 -0.0662,0.79348 c -0.33509,4.01797 -2.43145,6.91694 -6.53385,9.03538 -1.24405,0.64241 -1.24961,0.63121 0.31113,0.62674 l 1.30366,-0.004 0.66461,0.26229 c 0.82448,0.32538 0.81301,0.3303 1.17585,-0.50452 z m 39.62095,-2.47864 c 2.35186,-0.26595 2.33892,-0.24983 3.41289,-4.25083 2.17227,-8.09265 3.80712,-14.08096 6.72478,-24.63233 2.99339,-10.82526 3.0608,-11.14574 2.70119,-12.84223 -0.52575,-2.48025 -2.16621,-3.72217 -5.41179,-4.09702 l -1.00836,-0.11646 -1.27845,0.12396 c -5.65156,0.54798 -7.9549,2.90262 -8.6613,8.85418 -0.44416,3.74222 -2.03393,24.02753 -2.67327,34.11078 l -0.0688,1.08479 0.16832,0.50677 c 0.17556,0.52854 0.73032,1.16349 1.18688,1.35844 0.30363,0.12964 3.44252,0.0657 4.90789,-0.10005 z m -7.72633,-9.32831 c 0.0951,-0.8625 0.77065,-10.51109 0.77313,-11.04274 0.001,-0.24882 -0.33051,0.003 -0.66282,0.50375 -1.01917,1.53498 -3.09053,3.27508 -4.78151,4.01682 -0.97145,0.42612 -0.97137,0.41906 -0.0139,1.23337 1.46557,1.24645 2.84005,2.93612 3.84476,4.72644 0.70652,1.25895 0.75961,1.29448 0.84036,0.56236 z m -97.467954,31.16255 c -0.741257,-0.87024 -1.347741,-1.64188 -1.347741,-1.71476 0,-0.1946 11.774485,-6.97354 11.988553,-6.90218 0.04797,0.016 -0.386777,0.56013 -0.966098,1.20919 -0.579322,0.64907 -2.065391,2.3277 -3.302376,3.73028 -1.236985,1.40259 -2.481444,2.80323 -2.765463,3.11252 -0.28402,0.3093 -0.830466,0.91895 -1.214325,1.35479 -0.904572,1.02704 -0.821642,1.05441 -2.39255,-0.78984 z m -4.557619,-8.42034 c -0.02875,-0.0465 -0.123674,-0.81721 -0.210944,-1.71265 -0.08727,-0.89544 -0.180815,-1.83512 -0.207876,-2.08818 -0.02706,-0.25307 -0.0062,-0.52809 0.04637,-0.61116 l 0.09557,-0.15103 6.574582,0.5448 c 3.616021,0.29965 6.611302,0.57918 6.656182,0.62118 0.08488,0.0794 -0.659988,0.29341 -6.369828,1.82972 -6.459164,1.73792 -6.476117,1.74196 -6.58405,1.56732 z m 128.355033,-9.44147 c -5.76713,-3.95803 -8.85044,-6.16263 -8.66881,-6.19828 0.16058,-0.0315 2.45296,0.46155 7.4989,1.61297 1.74332,0.3978 3.39139,0.77235 3.66239,0.83233 0.67973,0.15044 0.67911,0.16468 -0.0889,2.04598 -1.16885,2.86338 -0.94762,2.70628 -2.40363,1.707 z m -7.61524,-10.2638 c 0.11043,-0.0835 2.49536,-1.30378 5.29986,-2.71175 l 5.09907,-2.55994 0.13825,0.11473 c 0.24074,0.1998 1.02068,3.95443 0.86132,4.14645 -0.0534,0.0643 -0.72806,0.17287 -1.50255,0.24175 -0.77312,0.0688 -3.24584,0.30547 -5.49492,0.52604 -2.24909,0.22056 -4.20458,0.39956 -4.34553,0.39777 l -0.25627,-0.003 z m 0.25934,-5.00675 c 0,-0.0597 1.26889,-2.40351 3.65257,-6.7468 l 1.62735,-2.96518 0.19922,-0.0296 c 0.23328,-0.0346 3.24556,2.20281 3.29228,2.44539 0.0186,0.0963 -0.60704,0.67918 -1.63557,1.52388 -0.91608,0.75236 -2.87044,2.37075 -4.34303,3.59643 -2.51277,2.09146 -2.79282,2.30964 -2.79282,2.17584 z M 45.969276,128.30186 c -6.493373,-1.31085 -5.975825,-1.19275 -6.047665,-1.37996 -0.07288,-0.18993 1.301785,-3.94236 1.467929,-4.007 0.06801,-0.0265 1.080262,0.54511 2.249448,1.27016 8.667569,5.37505 8.482039,5.25404 8.030593,5.23785 -0.09841,-0.004 -2.663551,-0.508 -5.700305,-1.12105 z m 8.532356,-4.25089 c -0.868735,-0.64529 -2.430729,-1.8001 -3.471099,-2.56625 -4.377976,-3.22402 -5.725867,-4.27105 -5.725867,-4.4478 0,-0.22353 3.033662,-3.66047 3.23096,-3.66047 0.203028,0 5.412905,7.92098 7.412357,11.26958 0.445752,0.74653 0.253062,0.66725 -1.446351,-0.59506 z m 5.541838,-3.21936 c -0.05208,-0.13568 -0.50752,-1.25895 -1.012078,-2.49615 -0.504558,-1.2372 -1.389735,-3.43825 -1.967059,-4.89123 l -1.04968,-2.64178 0.144685,-0.14468 c 0.212352,-0.21235 4.162898,-1.11821 4.296031,-0.98508 0.127679,0.12768 -0.09837,11.16691 -0.231643,11.3123 -0.0491,0.0536 -0.125906,-0.0118 -0.180256,-0.15338 z"
         id="path69" /></g></g></svg>
