<svg width="210mm" height="297mm" version="1.1" viewBox="0 0 210 297" xmlns="http://www.w3.org/2000/svg"><path d="m142 187c-1.42-0.854-3.3-1.96-4.16-2.47s-1.76-1.03-1.99-1.17c-2.47-1.49-7.39-4.07-7.77-4.07-0.86 0-3.22 3.06-4.87 6.32-0.969 1.91-1.16 2.14-1.16 1.39-5e-3 -1.57-0.375-10.8-0.434-10.9-0.117-0.109-2.74-0.378-2.83-0.29-0.0984 0.0984-0.251 2.62-0.256 4.23-4e-3 1.36-0.0715 1.92-0.223 1.87-0.0567-0.0177-0.638-0.822-1.29-1.79-0.654-0.965-1.69-2.45-2.29-3.3l-1.1-1.54-0.256-0.0501c-0.141-0.0276-0.85-0.078-1.57-0.112-1.54-0.0722-1.4 0.025-1.79-1.29-0.413-1.41-0.554-1.57-2.03-2.31-4.65-2.35-9 2.16-12.5 13-0.321 0.99-0.622 1.77-0.676 1.75-0.0535-0.0178-0.272-1.09-0.486-2.39-0.858-5.21-1.64-7.67-3.01-9.48-2.99-3.94-8.92-1.73-17.9 6.68-1.34 1.26-1.55 1.38-1.42 0.836 2-8.02 1.85-12.1-0.553-14.6-2.43-2.56-6.46-2.46-12.5 0.308-0.555 0.253-1.03 0.461-1.06 0.461-0.16 0 0.0616-0.443 0.98-1.96 3.31-5.46 3.83-8.41 1.8-10.2-1.21-1.09-4.05-1.88-6.8-1.88-1.93-2e-3 -1.95-0.0644-0.366-0.931 6.75-3.69 9.84-7.63 9.33-11.9-0.51-4.28-4.1-9.76-9.63-14.7-0.924-0.826-0.909-0.894 0.163-0.683 9.29 1.83 15 2.18 18.1 1.13 4.32-1.46 3.64-6.29-1.98-14.2-1.15-1.61-1.13-1.61 0.96-0.324 7.85 4.83 13.8 6.83 16.4 5.53 2.85-1.39 3.28-6.89 1.17-15.2-0.671-2.66-0.709-2.6 0.692-1.04 6.03 6.7 11.5 9.74 15.4 8.51 3.06-0.973 6.54-4.26 12.8-12.1 1.61-2.02 1.55-1.96 1.66-1.85 0.0478 0.0488 0.174 0.748 0.281 1.55 1.02 7.74 3.3 11.6 7.47 12.7 0.7 0.184 1.99 0.318 2.34 0.243l0.271-0.0579 0.878-1.16c0.483-0.637 1.49-1.89 2.24-2.78 1.29-1.54 3.07-3.69 4.58-5.54 1-1.22 1.02-1.19 0.427 0.745-1.1 3.61-2.51 8.77-2.42 8.86 0.138 0.138 3.24-0.514 3.61-0.759 0.833-0.546 5.25-4.7 8.52-8.01 1.37-1.39 2.14-2.1 2.16-2.01 0.0163 0.0801-0.573 1.55-1.31 3.27-1.91 4.47-2.89 7.05-2.72 7.22 0.0361 0.0361 0.93-0.355 1.99-0.869 1.06-0.514 2.71-1.3 3.68-1.74 4.38-2.01 7.86-3.76 13.3-6.69 3.67-1.98 3.68-1.99 3.75-1.88 0.0288 0.0466-0.766 0.953-1.77 2.01-3.75 3.98-6.04 6.55-9.3 10.5-2.15 2.58-2.35 2.82-2.29 2.87 0.0649 0.0649 3.33-0.534 9.91-1.82 4.98-0.972 6.21-1.2 6.51-1.2l0.275-3.7e-4 -0.136 0.127c-0.0746 0.0701-0.844 0.534-1.71 1.03-3.58 2.06-8.42 5.6-12 8.81-0.598 0.534-1.09 1.01-1.09 1.05 0 0.271 5.26 0.66 11.3 0.836 7.61 0.221 7.29 0.176 5.32 0.761-5.64 1.68-9.49 3.28-13.3 5.52-1.07 0.637-1.18 0.739-0.854 0.824 0.335 0.0876 0.146 0.233-0.889 0.684-0.958 0.417-2.73 1.61-2.73 1.84 0 0.192 6.31 1.22 8.34 1.36l0.787 0.0534 0.481-0.368c1.09-0.831 2.61-1.26 4.22-1.2 1.28 0.0502 1.32 6e-3 0.579-0.587-0.28-0.224-0.509-0.48-0.509-0.57v-0.163l0.347-1e-3c0.921-3e-3 0.922-0.0247 0.0663-1.1-0.824-1.03-0.808-1.21 0.0658-0.747 0.257 0.138 1.41 0.452 1.46 0.399 0.0444-0.0444-0.165-0.698-0.61-1.91-0.404-1.1-0.343-1.09 1.13 0.225 0.967 0.861 0.969 0.862 0.969 0.168 0-0.733 0.12-0.771 0.622-0.197 0.5 0.572 0.445 0.61 0.712-0.494 0.315-1.3 0.327-1.3 0.883 0.124 0.22 0.563 0.429 1.02 0.465 1.02 0.036 0 0.658-0.853 1.38-1.9 1.79-2.58 1.75-2.58 1.23-0.0276-0.211 1.03-0.384 1.96-0.384 2.05l6.4e-4 0.173 0.228-0.15c0.126-0.0823 0.296-0.15 0.379-0.15h0.15l-0.061 0.361c-0.0904 0.535-0.0425 0.526 1.75-0.321 0.91-0.429 1.67-0.781 1.69-0.781 0.16 0-0.733 1.14-1.95 2.48l-0.195 0.216 0.162 0.119c0.232 0.169 0.201 0.296-0.116 0.483-0.527 0.311-0.195 0.399 1.53 0.402 1.93 4e-3 1.94 0.0677 0.16 0.916-1.55 0.74-1.5 0.695-1.24 0.967 0.215 0.228 0.184 0.34-0.0931 0.34-0.327 0-0.158 0.172 1.31 1.34 1.9 1.51 1.9 1.49 0.133 1.06l-1.18-0.287-0.218 0.0994c-0.333 0.152-0.266 0.38 0.314 1.07 1.48 1.76 1.48 1.81-0.0347 1.11-2.4-1.12-2.87-1.28-2.78-0.986 0.248 0.843 0.136 1.06-0.324 0.615-0.371-0.355-0.459-0.23-0.392 0.557 0.0774 0.915 0.02 0.913-0.991-0.0413-0.481-0.454-0.924-0.827-0.983-0.828-0.0594-1e-3 -0.58 0.851-1.16 1.89-0.577 1.04-1.11 1.9-1.17 1.9l-0.123 3e-3 0.0578-1.27c0.0318-0.7 0.0783-1.41 0.103-1.57l0.0455-0.296-0.188-0.101c-0.104-0.0555-0.188-0.162-0.188-0.237 0-0.23-0.198-0.156-1.14 0.425-1.22 0.751-1.29 0.711-0.653-0.394 0.284-0.494 0.502-0.958 0.485-1.03l-0.0309-0.133-0.834 0.267c-1.23 0.393-1.22 0.4-0.269-0.638 0.741-0.806 0.795-0.98 0.331-1.08-0.151-0.0332-0.348-0.141-0.437-0.24-0.3-0.331-1.71 0.256-3.22 1.34-0.784 0.563-0.813 0.574-1.08 0.407-0.436-0.273-0.235 0.0589 0.442 0.728 0.873 0.862 1.33 1.67 1.34 2.37l7e-3 0.443-0.544 0.801c-0.299 0.441-0.724 1.01-0.944 1.27-0.22 0.258-0.493 0.604-0.606 0.769-1.39 2.02-7.31-1.32-7.55-4.26l-0.0386-0.475 0.524-0.741c0.288-0.407 0.768-1.12 1.07-1.59 0.828-1.3 1.41-1.46 3.14-0.867 0.879 0.302 1.14 0.322 0.733 0.0585-0.455-0.298-1.59-0.617-2.26-0.637l-0.664-0.0192-0.262 0.192c-0.222 0.163-1.45 1.83-1.67 2.26-0.0392 0.0774-0.259 0.387-0.488 0.688l-0.417 0.547 0.0175 0.486c0.0897 2.49 3.85 5.41 6.68 5.2 0.855-0.0646 1.03-0.175 1.63-1.01 0.287-0.401 0.562-0.73 0.609-0.73 0.159 0 0.729 0.866 1.28 1.94 5.12 10-4.1 21.4-15.2 18.8l-0.832-0.194-0.696 0.107c-2.42 0.371-5.74 1.42-5.74 1.81 0 0.149 1.59 2.04 4.28 5.09 1.32 1.5 1.25 1.52-1.03 0.303-2.78-1.48-3.26-1.71-5.36-2.62-0.0637-0.0275-0.116-5e-3 -0.116 0.0506 0 0.153 6.49 9.94 10.8 16.3 2.21 3.26 2.16 3.24-1.11-0.344-4.59-5.04-10.4-11.3-11.6-12.4l-0.427-0.413 5.8e-4 0.181c3.1e-4 0.0997 0.127 0.619 0.282 1.15 0.444 1.53 0.396 2.29-0.0974 1.53-0.314-0.479-0.336-0.276-0.0992 0.887 0.209 1.02 0.237 1.38 0.109 1.38-0.109 0-1.7-1.72-3.24-3.52-0.68-0.79-1.35-1.55-1.5-1.68l-0.259-0.248-0.955 0.419c-0.525 0.231-0.997 0.452-1.05 0.491-0.0509 0.0395-0.28 0.0991-0.509 0.132-0.85 0.124-0.875 0.643-0.0823 1.69 0.386 0.51 8.81 10.6 11.5 13.8 1.26 1.5 1.3 1.51-1.93-0.434zm6.85-26.3c-0.0484-0.0434-0.401-0.308-0.783-0.588-5.15-3.78-6.42-11.2-2.87-16.7 0.478-0.738 0.167-0.488-0.457 0.367-4.09 5.6-2.44 13.4 3.56 16.7 0.454 0.251 0.731 0.341 0.551 0.18zm-5.69-3.42c0-0.0424-0.188-0.44-0.419-0.884-0.901-1.74-1.25-3.17-1.32-5.38l-0.0437-1.48 0.201-1.19c0.361-2.13 1.38-4.31 2.89-6.18 0.546-0.676 0.975-1.09 2.3-2.22l0.232-0.197-0.231 0.113c-0.842 0.413-2.46 1.92-2.94 2.75-0.14 0.24-0.412 0.645-0.604 0.9-0.595 0.79-1.16 2.08-1.46 3.33-0.0614 0.255-0.214 0.838-0.338 1.3l-0.227 0.834-0.0124 1.48c-0.0147 1.76 0.133 2.74 0.624 4.13 0.545 1.54 1.35 3.15 1.35 2.69zm1.75-6.8c0.0552-0.267 0.232-0.913 0.393-1.43l0.293-0.948-0.168-0.186c-0.234-0.259-0.314-0.235-0.471 0.141-0.23 0.55-0.37 2.91-0.173 2.91 0.0143 0 0.0712-0.219 0.126-0.486zm2.75-4.13c1.75-1.14 3.29-3.81 2.59-4.51-1.1-1.1-4.55 2.3-4.25 4.18 0.126 0.778 0.772 0.909 1.66 0.335zm11.6-5.84c0.73-1.08 0.704-0.924 0.259-1.52-0.198-0.265-0.472-0.706-0.609-0.98s-0.282-0.461-0.323-0.417c-0.287 0.312-1.12 1.75-1.12 1.94 0 0.383 0.874 1.89 1.1 1.89 0.0414 0 0.354-0.412 0.694-0.915zm-7.41 0.533c0.662-0.34 0.913-0.92 0.483-1.12l-0.229-0.104-0.418 0.16c-0.632 0.241-0.969 0.764-0.68 1.05 0.14 0.14 0.579 0.144 0.844 7e-3zm-3.42-2.11c2.36-1.27 5.21-1.78 8.3-1.47l0.695 0.0701-0.268-0.15c-1.55-0.865-7.65 0.278-9.42 1.77-0.403 0.339-0.256 0.293 0.696-0.221zm25.9-4.38c0.167 0.167 0.255 0.137 0.353-0.119 0.0673-0.177 0.154-0.232 0.37-0.232h0.282l-0.0593-0.236c-0.0425-0.169-0.0121-0.271 0.108-0.358l0.167-0.122-0.202-0.108c-0.235-0.126-0.26-0.309-0.063-0.472 0.229-0.19 0.158-0.269-0.19-0.213l-0.329 0.0535-0.0494-0.189c-0.0652-0.249-0.501-0.342-0.656-0.14l-0.114 0.149-0.23-0.105c-0.159-0.0724-0.248-0.0747-0.29-8e-3 -0.033 0.0535-0.138 0.0769-0.233 0.052-0.506-0.132-0.669 0.8-0.223 1.27 0.178 0.189 0.324 0.382 0.324 0.43 0 0.0473 0.0625 0.086 0.139 0.086 0.0764 0 0.139 0.0764 0.139 0.17 0 0.267 0.0978 0.301 0.383 0.132l0.264-0.156zm-93.4 52.9c-1.01-0.825-1.67-1.44-1.67-1.56 0-0.192 7.41-8.45 8.09-9.01l0.153-0.127v0.159c0 0.0875-1.12 2.15-2.49 4.57s-2.72 4.83-2.99 5.33c-0.589 1.09-0.56 1.07-1.09 0.633zm4.65-1.06c-0.0611-0.0611-0.111-0.149-0.111-0.194 0-0.0458-0.0678-0.226-0.151-0.401l-0.151-0.318 0.859-1.83c1.3-2.76 2.15-4.43 2.19-4.31 0.0945 0.273-2.16 6.76-2.47 7.09-0.0353 0.0382-0.114 0.0195-0.175-0.0417zm-24.8-9.31c-0.12-0.196-0.623-2.11-0.599-2.27 0.0294-0.201 0.44-0.516 3.32-2.54 5.56-3.92 6.24-4.32 4.85-2.87-1.04 1.09-4.17 4.38-5.9 6.21-1.41 1.49-1.57 1.63-1.67 1.48zm109-11.6c-3.45-1.97-4.21-2.46-5.05-3.26-0.439-0.415-0.754-0.77-0.7-0.788 0.211-0.0705 3.04 1.69 5.67 3.53 2.68 1.88 2.7 2 0.0888 0.51zm-3.8-0.297c-1.64-0.995-2.08-1.3-2.63-1.8-1.22-1.13 0.557-0.242 2.33 1.16 1.8 1.42 1.89 1.61 0.3 0.645zm10.8-8.25c-4.13-1.55-5.43-2.12-6.9-3.02-0.407-0.25-0.803-0.493-0.88-0.539-0.274-0.165-5e-3 -0.213 0.433-0.0776 1.45 0.447 2.68 0.979 5.8 2.51 4.28 2.1 4.45 2.22 1.54 1.13zm2.92-1.44c-1.22-0.358-3.32-1.01-5.42-1.69-1.19-0.383-4.31-1.86-4.04-1.91 0.0793-0.0161 0.727 0.161 1.44 0.394 0.712 0.233 1.35 0.423 1.43 0.423 0.132 0 5.74 2.11 7.15 2.69 1.37 0.566 1.17 0.601-0.556 0.0954zm-112-32.3c-2.97-1.7-4.79-2.85-5.64-3.55-1.31-1.09-1.68-1.45-1.62-1.52 0.154-0.158 1.37 0.156 1.76 0.456 0.218 0.166 0.918 0.67 1.55 1.12s2.03 1.48 3.11 2.28c3.21 2.41 3.4 2.69 0.827 1.21zm97-2.02c0-0.364 3.78-1.65 7.64-2.6l0.185-0.0455-0.18 0.144c-0.0988 0.079-0.391 0.224-0.648 0.322-3.4 1.29-4.42 1.66-4.78 1.72-0.229 0.0365-0.769 0.167-1.2 0.289-0.797 0.227-1.02 0.265-1.02 0.17zm-3.31-0.527c0.0538-0.161 2.96-1.68 4.04-2.11 2.47-0.984 12.2-4.42 12.2-4.3 0 0.11-3.03 1.43-7.91 3.46-3.72 1.55-4.21 1.73-6.03 2.32-2.15 0.692-2.38 0.756-2.34 0.622zm-77.4-6.33c-0.584-0.491-2.31-1.98-3.83-3.31-1.52-1.33-2.91-2.53-3.08-2.68-0.171-0.144-0.31-0.317-0.31-0.385 0-0.187 1.39-1.85 1.57-1.88 0.133-0.023 5.94 7.57 6.8 8.89 0.322 0.495-0.0534 0.288-1.15-0.631z" fill="#f6d939"/><path d="m143 188c-8.03-4.84-14.2-8.22-14.6-8.03-1.32 0.611-3.23 3.18-5.01 6.73-0.896 1.79-0.87 1.81-0.942-0.771-0.171-6.16-0.278-9.04-0.338-9.1-0.0867-0.0955-2.85-0.397-2.93-0.319-0.0806 0.0806-0.198 1.87-0.274 4.17-0.0441 1.34-0.0949 1.92-0.169 1.92-0.0581-2e-3 -0.585-0.721-1.17-1.6-1.32-1.97-3.25-4.69-3.5-4.91l-0.184-0.166-1.44-0.0563c-1.76-0.0686-1.57 0.0611-2-1.38l-0.358-1.2-0.498-0.359c-1.31-0.944-2.69-1.41-3.99-1.33l-0.811 0.0462-0.675 0.323c-3.24 1.55-6.52 7.1-8.73 14.8-0.171 0.594-0.212 0.452-0.654-2.29-1.07-6.62-2.42-9.69-4.77-10.8-3.26-1.57-8.99 1.33-16.2 8.21-1.1 1.04-1.36 1.25-1.36 1.05 0-0.042 0.163-0.74 0.363-1.55 0.364-1.48 0.634-2.83 0.859-4.3 0.075-0.489 0.119-1.61 0.116-2.96l-5e-3 -2.18-0.244-0.901c-0.663-2.45-2.15-4.02-4.4-4.63l-0.722-0.197-1.25-4e-3c-2.16-6e-3 -4.2 0.524-7.18 1.86-1.96 0.879-1.91 0.89-1.2-0.27 5.73-9.31 4.56-12.7-4.52-13.1-1.7-0.0752-1.7-0.0747-0.648-0.644 7.34-3.96 10.4-8.05 9.62-12.7-0.73-4.19-4.01-9-9.71-14.3-0.718-0.662-0.642-0.682 1.18-0.311 9.92 2.02 16.7 2.03 18.9 0.0319 2.32-2.14 1.16-6.47-3.49-13.1-1.14-1.62-1.14-1.64-0.0282-0.964 0.363 0.222 1.04 0.633 1.49 0.913 6.21 3.8 12 5.93 14.7 5.45 3.85-0.671 4.62-6.33 2.16-16-0.453-1.78-0.446-1.92 0.0647-1.36 2.01 2.2 2.61 2.82 3.59 3.74 3.55 3.34 6.96 5.32 9.8 5.7 3.78 0.503 7.41-2.33 14.9-11.6 1.14-1.41 2.12-2.56 2.18-2.54 0.0583 0.0194 0.191 0.711 0.308 1.6 1.13 8.64 4.51 13.2 9.58 12.9l0.482-0.028 1.11-1.44c0.609-0.79 1.76-2.21 2.55-3.15 0.795-0.942 2.2-2.63 3.11-3.75 1.84-2.24 1.92-2.29 1.44-0.782-1.03 3.21-2.59 9.03-2.46 9.16 0.0992 0.0976 1.07-0.0634 2.57-0.427l1-0.243 0.484-0.427c2.9-2.55 4.26-3.83 6.93-6.51 1.72-1.72 3.17-3.13 3.22-3.13 0.113 0 0.0814 0.0816-0.97 2.5-2.08 4.78-3.24 7.87-3.02 8 0.0459 0.0284 0.723-0.265 1.51-0.652 0.782-0.387 2.78-1.33 4.43-2.09 4.64-2.14 8.66-4.19 15.1-7.68 2.1-1.14 2.13-1.21-0.756 1.88-4 4.28-5.88 6.41-9.39 10.6l-1.65 1.99 0.195 0.0291c0.107 0.016 0.79-0.0804 1.52-0.214 2.85-0.524 10.8-2.04 13.8-2.64 1.5-0.296 1.47-0.249-0.476 0.883-3.84 2.23-8.52 5.66-12.2 8.97-1.35 1.2-1.41 1.09 0.625 1.3 3.25 0.338 5.79 0.472 11.7 0.621 2.39 0.0601 4.39 0.141 4.43 0.18 0.0438 0.0386-0.415 0.223-1.02 0.409-3.03 0.936-3.91 1.23-5.39 1.78-4.14 1.55-10.1 4.66-8.9 4.66 0.399 0 0.112 0.217-0.873 0.658-0.9 0.403-1.93 1.08-2.54 1.66l-0.219 0.209 0.134 0.0753c0.288 0.161 5.15 0.936 7.76 1.24l1.25 0.143 0.532-0.373c0.628-0.441 1.32-0.768 2.18-1.04l0.627-0.194 1.25-0.0183c0.688-0.0101 1.29-0.0259 1.34-0.0352 0.0509-9e-3 -0.178-0.265-0.509-0.569l-0.602-0.552 0.139-0.0911c0.0764-0.0501 0.334-0.0918 0.573-0.0925 0.624-2e-3 0.613-0.0718-0.155-1.03-0.866-1.08-0.888-1.2-0.153-0.827 0.423 0.216 1.56 0.529 1.64 0.451 0.0307-0.0307-0.0546-0.362-0.19-0.736-0.739-2.05-0.75-2.2-0.113-1.59 0.215 0.204 0.676 0.616 1.02 0.915l0.632 0.543 0.0843-0.133c0.0463-0.0732 0.0849-0.352 0.0857-0.619 2e-3 -0.598 0.0678-0.604 0.541-0.0463 0.455 0.536 0.486 0.511 0.757-0.606 0.255-1.05 0.296-1.04 0.788 0.166 0.216 0.53 0.434 0.978 0.485 0.995 0.106 0.0355 0.645-0.678 1.87-2.48 1.22-1.79 1.22-1.79 0.615 1.1-0.364 1.75-0.363 1.79 0.0439 1.55 0.361-0.213 0.453-0.14 0.393 0.311-0.0696 0.519-0.0847 0.523 2.13-0.553 0.653-0.317 1.21-0.553 1.24-0.526 0.0499 0.0499-0.611 0.885-1.58 2-0.498 0.572-0.566 0.751-0.285 0.751 0.224 0 0.15 0.163-0.19 0.422-0.471 0.359-0.395 0.384 1.39 0.459 0.935 0.039 1.61 0.104 1.6 0.154-0.0159 0.0476-0.632 0.375-1.37 0.728-1.29 0.619-1.47 0.767-1.15 0.95 0.2 0.112 0.158 0.24-0.1 0.305-0.348 0.0874-0.343 0.093 1.27 1.38 1.67 1.33 1.68 1.37 0.279 1.03-0.548-0.131-1.21-0.234-1.46-0.228l-0.467 0.0105 0.167 0.337c0.0917 0.185 0.5 0.732 0.908 1.22s0.741 0.931 0.742 0.996l9.8e-4 0.117-0.301-0.128c-0.166-0.0704-1-0.446-1.86-0.835-1.92-0.874-1.84-0.873-1.65-0.0349 0.105 0.454 0.0187 0.49-0.381 0.161-0.416-0.343-0.445-0.307-0.445 0.572 0 0.89 0.0638 0.897-0.987-0.108-0.48-0.458-0.907-0.834-0.949-0.834-0.0425 0-0.551 0.854-1.13 1.9-0.58 1.04-1.09 1.9-1.14 1.9-0.049 8.9e-4 -0.0572-0.649-0.0199-1.57l0.0637-1.57-0.188-0.101c-0.104-0.0555-0.188-0.162-0.188-0.237 0-0.21-0.0793-0.177-1.12 0.457-1.14 0.698-1.22 0.691-0.78-0.0662 0.9-1.56 0.895-1.58-0.235-1.22-1.07 0.34-1.08 0.309-0.237-0.614 0.757-0.833 0.782-0.903 0.37-1.04-0.15-0.049-0.391-0.188-0.537-0.31-0.313-0.261-0.351-0.253-1.49 0.315-0.89 0.445-1.32 0.707-2.05 1.25-0.526 0.389-0.611 0.412-0.782 0.206-0.0801-0.0965-0.149-0.112-0.212-0.049-0.0634 0.0634 0.161 0.358 0.69 0.907 0.866 0.899 1.21 1.49 1.27 2.2l0.039 0.47-0.542 0.787c-1.6 2.33-1.9 2.59-2.95 2.59-2.65 5e-3 -6.16-2.8-6.16-4.92 0-0.268 2.07-3.37 2.39-3.58 0.413-0.27 1.48-0.204 2.42 0.149 0.809 0.302 1.04 0.306 0.677 0.0135-0.36-0.291-1.63-0.661-2.33-0.678l-0.642-0.0158-0.262 0.191c-0.144 0.105-0.532 0.592-0.864 1.08-0.331 0.49-0.675 0.97-0.764 1.07-0.0891 0.0967-0.162 0.207-0.162 0.245 0 0.0378-0.177 0.279-0.394 0.536l-0.394 0.467 6e-3 1.14 0.321 0.693c1.01 2.19 3.73 3.99 6.06 4.01 1.03 0.0105 1.3-0.128 1.94-0.987 0.67-0.906 0.622-0.899 1.1-0.176 3.49 5.28 2.79 11.9-1.74 16.5-4.12 4.14-9.86 5.08-15.7 2.6-1.85-0.783-3.14-1.21-4.25-1.41l-0.907-0.161-0.629 0.0973c-0.73 0.113-1.49 0.423-1.49 0.607 0 0.0699 0.344 0.521 0.764 1 1.59 1.82 1.81 2.08 2.04 2.42 0.365 0.538 2.38 2.91 4.67 5.51 1.06 1.2 1.01 1.2-1.45-0.11-2.61-1.39-5.22-2.61-5.27-2.46-0.0433 0.128 6.36 9.81 10 15.2 1.03 1.5 1.94 2.88 2.03 3.06l0.164 0.324-0.301-0.278c-0.166-0.153-1.31-1.39-2.55-2.74-4.67-5.12-11-11.9-11.5-12.3-0.27-0.223-0.287-0.0281-0.0615 0.71 0.605 1.98 0.65 3.01 0.0892 2.04l-0.225-0.394-0.0283 0.292c-0.0156 0.16 0.0574 0.736 0.162 1.28 0.225 1.17 0.219 1.07 0.07 1.07-0.185 0-4.55-4.92-6.42-7.24-0.616-0.764-1.21-1.47-1.31-1.58l-0.191-0.191-0.103 0.36c-0.3 1.05-0.361 4.92-0.0856 5.43 0.0538 0.1 0.767 0.98 1.59 1.96 0.818 0.975 3.03 3.63 4.92 5.89 1.89 2.27 3.99 4.79 4.68 5.6 0.686 0.815 1.31 1.55 1.38 1.64 0.386 0.46-0.127 0.237-1.88-0.818zm-7.36-20.8c-0.159-0.602-0.387-1.47-0.506-1.94-0.119-0.463-0.435-1.39-0.703-2.06-0.268-0.672-0.466-1.24-0.44-1.27 0.0255-0.0255 1.23 0.49 2.68 1.15 3.79 1.71 3.79 1.71 3.85 1.65 0.062-0.062-0.325-0.583-1.35-1.82-0.531-0.64-3.65-4.49-5.89-7.27-0.255-0.317-0.781-0.967-1.17-1.44-1.39-1.71-2.38-2.94-2.45-3.05-0.0868-0.14 0.196-0.0982 1.81 0.27 6.17 1.41 6.36 1.44 5.56 0.773-0.228-0.187-0.709-0.612-1.07-0.943s-1.44-1.27-2.4-2.08c-2.44-2.07-2.33-1.96-2.22-2.08 0.0695-0.0707 0.844-0.0699 2.69 3e-3 2.73 0.108 5.56 0.0671 5.71-0.082 0.0567-0.0567-0.0227-0.165-0.219-0.3-0.272-0.186-3.32-3.2-3.32-3.28 0-0.0179 1.07-0.0384 2.38-0.0455 2.75-0.0149 5.49 0.0808 5.49 0.192 0 0.0419-0.213 0.4-0.473 0.797-1.9 2.89-2.5 7.11-1.5 10.5 0.302 1.04 1.31 3.2 1.49 3.2 0.073 0 0.118-0.0312 0.1-0.0695-0.0178-0.0382-0.273-0.561-0.568-1.16-3.02-6.17-0.382-13.9 5.86-17.2 2.4-1.26 4.82-1.7 7.96-1.48l0.972 0.0708-0.268-0.15c-1.57-0.881-7.54 0.254-9.47 1.8-0.194 0.155-0.561 0.373-0.815 0.484s-0.666 0.363-0.915 0.56c-0.249 0.197-0.504 0.358-0.568 0.358-0.0636 0-0.35 0.107-0.636 0.238-0.376 0.172-0.687 0.241-1.12 0.248l-0.598 9e-3 -0.473-0.294c-0.574-0.357-0.553-0.356-0.553-0.0263 0 0.523-0.18 0.609-2.4 1.15-2.39 0.585-2.17 0.614-2.97-0.399-0.721-0.916-0.74-0.911-0.969 0.259l-0.185 0.944-0.37 0.136c-0.606 0.222-2.19 0.593-2.32 0.543-0.0663-0.0255-0.35-0.345-0.63-0.711-1.11-1.44-1.14-1.44-1.2 0.0551-0.0499 1.14-0.0892 1.21-0.717 1.37-0.362 0.0868-0.72 0.277-0.522 0.277 0.0605 0 3.33 0.743 3.52 0.801 0.547 0.163-0.175 0.258-2.24 0.294-1.22 0.0214-2.27 0.0742-2.34 0.117l-0.126 0.0782 0.185 0.178c0.102 0.0981 1.21 1.08 2.45 2.19 2.27 2.01 2.53 2.27 2.3 2.27-0.138-8.2e-4 -2.58-0.47-3.55-0.683-3.12-0.683-3.75-0.794-3.75-0.659 0 0.0255 0.909 1.18 2.02 2.57 3.45 4.32 5.85 7.43 5.85 7.59 0 0.138-0.286 0.0189-3.06-1.27-5.55-2.58-5.7-2.64-5.6-2.25 0.895 3.85 0.978 4.29 0.797 4.22-0.0829-0.0304-1.62-1.77-2.78-3.16-0.721-0.858-0.734-0.856-1 0.128-0.248 0.919-1.18 4.56-1.26 4.92-0.0909 0.408-0.188 0.315-0.823-0.787-0.33-0.573-0.903-1.56-1.27-2.2-0.37-0.637-1-1.74-1.41-2.45-0.901-1.59-1.28-2.2-1.34-2.14-0.0615 0.0615 0.327 1.32 0.531 1.72 0.0911 0.179 0.417 0.992 0.723 1.81 0.307 0.815 0.73 1.92 0.942 2.45 0.211 0.535 0.481 1.24 0.598 1.57 0.118 0.331 0.298 0.79 0.4 1.02 0.363 0.814 0.785 1.91 0.947 2.45 0.0904 0.306 0.237 0.722 0.326 0.926l0.162 0.37 0.351-0.741c0.193-0.407 0.606-1.49 0.917-2.41 1.03-3.04 1.45-4.17 1.54-4.16 0.0485 3e-3 0.433 0.482 0.854 1.07 2.3 3.19 3.27 4.54 3.58 5.03 0.521 0.818 0.565 0.658 0.387-1.39-0.358-4.12-0.417-4.98-0.348-5.05 0.133-0.133 4.44 1.82 4.56 2.07 0.0345 0.072 0.195 0.464 0.358 0.872s0.497 1.24 0.744 1.85c0.77 1.9 1.03 2.65 1.12 3.18 0.0823 0.506 0.366 1.08 0.434 0.879 0.0198-0.0594-0.0942-0.6-0.253-1.2zm14.2-5.48c-0.0484-0.0422-0.463-0.322-0.921-0.622-3.23-2.11-5.27-6.06-5.27-10.2l1e-3 -1.39 0.206-0.966c0.349-1.64 1.07-3.29 2.01-4.6 0.65-0.906 0.678-0.973 0.232-0.548-2.02 1.93-3.21 4.9-3.2 8.01l6e-3 1.53 0.21 0.859c0.834 3.41 3.12 6.32 6.04 7.71 0.582 0.275 0.854 0.357 0.677 0.202zm-4.44-10.5c0.0865-0.433 0.263-1.11 0.393-1.5 0.259-0.785 0.237-1.14-0.0762-1.23-0.449-0.142-0.83 2.02-0.578 3.28 0.0758 0.379 0.0768 0.377 0.261-0.547zm2.43-3.95c1.34-0.679 3.07-3.03 3.08-4.18 9e-3 -1.62-2.65-0.497-3.91 1.65-1.1 1.86-0.632 3.27 0.834 2.53zm11.8-5.83c0.255-0.389 0.536-0.819 0.624-0.956l0.161-0.249-0.393-0.507c-0.216-0.279-0.494-0.723-0.617-0.988-0.123-0.264-0.26-0.481-0.303-0.481-0.105 0-1.28 1.8-1.28 1.96 2.5e-4 0.425 0.967 1.93 1.24 1.93 0.0584-6.6e-4 0.315-0.319 0.569-0.708zm-7.32 0.349c0.873-0.401 1.02-1.22 0.219-1.22-0.776 0-1.56 0.981-1.03 1.29 0.23 0.134 0.389 0.119 0.81-0.0741zm12-2.09c0.0573-0.126 0.0706-0.3 0.03-0.394l-0.0728-0.168-0.0398 0.185c-0.058 0.27-0.292 0.417-0.667 0.418-0.247 1e-3 -0.295 0.0239-0.191 0.0912 0.0764 0.0494 0.296 0.0904 0.488 0.0912l0.349 1e-3zm-1.83-0.446c-0.038-0.0637-0.15-0.227-0.249-0.363-0.175-0.24-0.179-0.459-0.0148-0.851l0.0723-0.173-0.199 0.107c-0.331 0.177-0.243 0.703 0.199 1.19 0.209 0.229 0.3 0.273 0.192 0.0926zm1.89-2.46c0.217-0.167 0.43-0.813 0.295-0.896-0.126-0.0779-0.648 0.596-0.648 0.837 0 0.27 0.0652 0.281 0.353 0.0596zm9.93-0.387c0.263-0.516 0.337-0.524 0.741-0.0772l0.363 0.401 4e-3 -0.579c4e-3 -0.649 7e-3 -0.65 0.606-0.394 0.596 0.256 0.628 0.245 0.556-0.185l-0.0626-0.37h0.332c0.405 0 0.418-0.0814 0.0527-0.324-0.391-0.26-0.313-0.42 0.303-0.625 0.76-0.253 0.711-0.356-0.232-0.484-0.614-0.0834-0.576-0.242 0.252-1.06 0.759-0.754 0.802-0.848 0.264-0.573-0.452 0.23-1.39 0.507-1.5 0.441-0.0442-0.0273-0.0502-0.249-0.0131-0.492 0.037-0.243 0.0964-0.714 0.132-1.04l0.0646-0.602-0.57 0.815c-0.65 0.93-0.708 0.943-0.95 0.22-0.208-0.623-0.296-0.608-0.438 0.0774-0.127 0.611-0.198 0.626-0.531 0.114l-0.256-0.394-0.0267 0.324c-0.049 0.594-0.0904 0.615-0.477 0.237-0.489-0.478-0.611-0.399-0.328 0.212 0.316 0.681 0.304 0.847-0.0594 0.847h-0.289l0.152 0.208c0.256 0.352 0.278 0.462 0.118 0.579-0.21 0.154-0.195 0.201 0.0917 0.273 0.358 0.0898 1.05 0.859 1.05 1.17 0 0.0814-0.151 0.324-0.335 0.539-0.374 0.437-0.352 0.593 0.0513 0.355 0.146-0.0865 0.333-0.157 0.414-0.157h0.148v0.515c0 0.581 0.0899 0.591 0.37 0.0408zm-8.44-0.872c0.0476-0.0294 0.13-0.179 0.183-0.331l0.0969-0.278h-0.12c-0.223 0-0.75 0.421-0.779 0.624l-0.029 0.2 0.281-0.0805c0.154-0.0443 0.32-0.105 0.367-0.134zm-18.7-0.189c0.307-0.307 0.291-0.676-0.0511-1.15-0.347-0.478-0.462-0.485-0.462-0.0264 0 0.213-0.0721 0.45-0.178 0.584l-0.178 0.226 0.231 0.295c0.278 0.355 0.345 0.362 0.639 0.0681zm21.9-0.692c0.189-0.353-0.507-0.397-0.894-0.0564l-0.26 0.229 0.232 4e-3c0.127 2e-3 0.292 0.0425 0.365 0.0891 0.163 0.103 0.427-0.0225 0.557-0.266zm-21.5-1.85c1.23-0.804 5.04-3.05 7.12-4.19 2.05-1.13 2.2-1.24 1.82-1.33-0.258-0.0601-6.35-0.919-7.62-1.07-0.509-0.0623-0.962-0.145-1.01-0.183-0.0435-0.0382 0.641-0.647 1.52-1.35 2.47-1.98 7.24-5.77 7.5-5.96 0.584-0.429 0.173-0.395-6.41 0.525-3.56 0.497-3.44 0.463-3.1 0.883 0.138 0.169 0.35 0.454 0.471 0.632l0.22 0.324-0.177 1.25c-0.429 3.04-1.29 10.2-1.29 10.8 0 0.27 0.196 0.213 0.945-0.276zm23.7-1.16c-0.0746-0.0731-0.314-0.194-0.532-0.268l-0.397-0.135 0.119 0.143c0.132 0.159 0.6 0.384 0.81 0.389l0.136 4e-3zm-44.8-6.11c0.172-2.3 8e-3 -2.17 3.81-3.02 1.77-0.397 1.8-0.391 2.18 0.368 0.089 0.178 0.381 0.597 0.648 0.93l0.486 0.606 0.113 0.668c0.159 0.941 0.206 0.867 0.598-0.93 0.657-3.01 0.318-2.65 3.16-3.35 2.68-0.655 2.65-0.656 3.07 0.154 0.502 0.971 0.681 0.967 0.681-0.014v-0.718l0.514-0.492 2.06-0.512c2.46-0.611 2.46-0.611 2.9-0.177 0.428 0.418 0.22 0.587 2.32-1.88 0.981-1.15 2.68-3.1 3.77-4.33 2.36-2.65 2.65-3 2.58-3.08-0.109-0.109-7.68 3.63-12.6 6.23-2.43 1.28-2.9 1.5-2.9 1.39 0-0.0186 0.162-0.467 0.359-0.996 0.78-2.09 1.79-5.09 1.74-5.15-0.0332-0.0332-0.216 0.0864-0.406 0.266s-1.49 1.36-2.89 2.63c-2.96 2.68-4.88 4.46-7.1 6.58-1.57 1.5-1.86 1.72-1.77 1.31 0.027-0.115 0.159-0.771 0.294-1.46 0.332-1.7 0.812-3.97 1.26-5.96 0.204-0.91 0.349-1.68 0.321-1.71-0.135-0.135-2.5 2.79-5.98 7.4-0.692 0.916-1.68 2.2-2.26 2.96l-0.609 0.787 0.154 0.115c0.0847 0.063 0.293 0.141 0.463 0.173l0.309 0.058 0.972-0.937c1.35-1.3 1.35-1.29 0.784 0.723l-0.372 1.31 0.404 0.527c0.222 0.29 0.477 0.667 0.565 0.839 0.238 0.463 0.29 0.296 0.412-1.32zm-45.6 62.1c-0.535-0.456-0.972-0.89-0.972-0.966 0-0.178 5.06-5.86 7.59-8.52 0.9-0.947 0.42 0.0296-2.5 5.09-0.265 0.458-0.973 1.73-1.57 2.82-1.35 2.46-1.32 2.41-1.46 2.4-0.0625-2e-3 -0.551-0.376-1.09-0.832zm5.12-0.916-0.193-0.457 0.459-0.998c0.965-2.1 2.3-4.79 2.35-4.74 0.174 0.174-2.08 6.53-2.34 6.62-0.044 0.0147-0.167-0.179-0.273-0.431zm-24.6-8.97c-0.127-0.214-0.619-2.17-0.567-2.25 0.226-0.365 8.49-6.12 8.61-5.99 0.0227 0.0227-1.36 1.52-3.07 3.32-1.71 1.8-3.47 3.67-3.9 4.14-0.731 0.794-0.962 0.965-1.07 0.787zm110-11c-0.387-0.203-1.96-1.11-3.66-2.1l-1.44-0.842-1.57-1.54 0.324 0.158c0.577 0.282 2.04 1.14 2.76 1.63 1.34 0.9 4 2.77 4 2.81 0 0.0734-0.131 0.0384-0.417-0.111zm-5.43-1.25c-1.05-0.638-2.17-1.51-2.29-1.78-0.0979-0.226 1.56 0.771 2.44 1.46 1.71 1.35 1.67 1.42-0.151 0.315zm11.4-7.9c-3.64-1.38-5.43-2.15-6.34-2.73-0.382-0.244-0.813-0.516-0.957-0.605-0.499-0.306-0.163-0.254 1.07 0.164 1.11 0.378 7.67 3.48 7.67 3.62 0 0.0875-0.112 0.0526-1.44-0.449zm3.1-1.38c-0.881-0.263-5.08-1.58-5.94-1.86-0.544-0.179-1.51-0.602-2.15-0.941-1.05-0.557-1.37-0.755-1.05-0.649 1.29 0.42 2.23 0.697 2.37 0.697 0.0969 0 0.942 0.292 1.88 0.649 0.936 0.357 1.99 0.76 2.35 0.895 2.8 1.06 4.06 1.66 2.55 1.21zm-111-32c-0.407-0.234-1.78-1.05-3.06-1.81l-2.32-1.38-1.16-0.98c-1.44-1.22-1.46-1.29-0.319-1.06 0.655 0.127 8.2 5.67 7.71 5.66-0.0667-9.2e-4 -0.455-0.193-0.862-0.427zm96.8-2.44c0.426-0.45 5.83-2.24 6.71-2.23l0.139 3e-3 -0.162 0.0945c-0.307 0.179-4.55 1.75-4.72 1.75-0.148 0-1.21 0.245-1.87 0.432-0.137 0.0386-0.159 0.0245-0.0848-0.0541zm-3.25-0.616c0.427-0.323 3.12-1.66 4.02-2 3.18-1.2 11.1-3.99 11.1-3.91 0 0.118-2.67 1.28-7.78 3.4-4.52 1.87-8.14 3.11-7.36 2.52zm-77.4-5.75c-1.1-0.896-7.4-6.39-7.6-6.63l-0.12-0.145 0.755-0.939c0.415-0.516 0.803-0.925 0.861-0.907 0.0581 0.0174 0.62 0.717 1.25 1.56 6.12 8.15 6.01 8 4.86 7.06z" fill="#f77518"/><path d="m143 188c-8.04-4.83-14-8.08-14.4-7.89-1.32 0.611-3.23 3.17-5.01 6.74l-0.748 1.49-0.0721-0.185c-0.0396-0.102-0.142-2.64-0.229-5.65-0.0861-3.01-0.187-5.5-0.225-5.54-0.0887-0.0956-2.85-0.397-2.93-0.319-0.0823 0.0823-0.197 1.81-0.274 4.12-0.0452 1.36-0.0978 1.97-0.17 1.96-0.0572-2e-3 -0.583-0.721-1.17-1.6-1.32-1.97-3.25-4.69-3.5-4.91l-0.184-0.166-1.44-0.0563c-1.76-0.0686-1.57 0.0611-2-1.38l-0.358-1.2-0.498-0.359c-1.31-0.944-2.69-1.41-3.99-1.33l-0.811 0.0462-0.675 0.323c-3.24 1.55-6.54 7.12-8.73 14.8-0.164 0.572-0.202 0.437-0.648-2.29-1.25-7.68-2.92-10.8-6.09-11.2-3.24-0.473-8.63 2.64-14.9 8.62-1.09 1.03-1.36 1.24-1.36 1.04 0-0.042 0.163-0.74 0.363-1.55 0.364-1.48 0.634-2.83 0.859-4.3 0.0743-0.484 0.12-1.63 0.118-2.96l-0.0024-2.18-0.205-0.787c-0.113-0.433-0.399-1.18-0.635-1.66l-0.43-0.874-0.659-0.656c-0.762-0.759-1.63-1.25-2.71-1.55l-0.722-0.197-1.25-4e-3c-2.16-6e-3 -4.2 0.524-7.18 1.86-1.96 0.879-1.91 0.89-1.2-0.27 3.81-6.2 4.45-9.11 2.44-11.1-1.28-1.26-4.2-2.03-7.7-2.05-0.911-3e-3 -0.901-0.074 0.0926-0.611 8.29-4.48 11.1-8.91 9.13-14.6-1.31-3.85-4.3-7.87-9.23-12.4-0.635-0.585-0.592-0.688 0.206-0.502 6.43 1.5 13.9 2.09 17.4 1.38 5.26-1.1 4.84-6.14-1.21-14.5-0.963-1.34-0.929-1.35 0.759-0.295 6.71 4.21 12.9 6.56 15.7 6.01 3.77-0.735 4.54-6.42 2.14-15.8-0.582-2.27-0.586-2.27 0.712-0.775 2.71 3.12 6.28 6.1 8.94 7.44 5.98 3.03 9.39 1.14 18.7-10.4 1.14-1.41 2.12-2.56 2.18-2.54 0.0583 0.0194 0.191 0.711 0.308 1.6 1.13 8.65 4.54 13.2 9.61 12.9l0.452-0.0289 1.11-1.44c0.609-0.79 1.76-2.21 2.55-3.15 0.795-0.942 2.2-2.63 3.11-3.75 1.84-2.24 1.92-2.29 1.44-0.782-1.06 3.32-2.59 9.02-2.46 9.15 0.105 0.103 1.04-0.0497 2.58-0.422l1-0.243 0.484-0.427c2.9-2.56 4.26-3.83 6.95-6.53 2-2.01 3.16-3.1 3.18-3.01 0.0155 0.0802-0.387 1.1-0.894 2.27-2.13 4.9-3.3 8-3.08 8.13 0.0459 0.0284 0.723-0.265 1.51-0.653s2.73-1.31 4.34-2.05c4.55-2.1 8.76-4.23 15.2-7.72 2.1-1.14 2.13-1.21-0.756 1.88-4 4.28-5.88 6.41-9.39 10.6l-1.65 1.99 0.195 0.0291c0.107 0.016 0.79-0.0806 1.52-0.215 2.57-0.473 6.26-1.17 8.59-1.63 3.13-0.612 6.18-1.19 6.24-1.19 0.241 0-0.168 0.291-1.5 1.06-3.84 2.23-8.52 5.66-12.2 8.97-0.573 0.511-1.04 0.959-1.04 0.997 0 0.347 7.06 0.814 14.6 0.968 3.56 0.0726 3.63 0.0916 2.17 0.543-3.04 0.939-3.92 1.23-5.4 1.78-2.88 1.08-6.15 2.64-8.31 3.98-0.787 0.488-0.9 0.626-0.579 0.71 0.293 0.0767 0.182 0.154-0.94 0.653-0.907 0.403-2.69 1.61-2.69 1.82 0 0.209 4.55 0.967 8.29 1.38l0.832 0.0921 0.511-0.357c0.709-0.494 1.12-0.691 2.09-0.991l0.834-0.26 1.22-5e-3c1.48-6e-3 1.46 9e-3 0.756-0.646l-0.574-0.531 0.133-0.0842c0.0732-0.0463 0.352-0.0849 0.619-0.0856 0.465-1e-3 0.662-0.16 0.4-0.321-0.153-0.0945-1.32-1.64-1.28-1.68 0.0932-0.0932 1.1 0.454 1.05 0.573-0.0651 0.17 0.239 0.525 0.63 0.736 0.183 0.0984 0.333 0.222 0.334 0.274 1e-3 0.0521 0.0836 0.199 0.183 0.326 0.0996 0.127 0.182 0.304 0.183 0.394l2e-3 0.162h-0.463c-0.543 0-0.55 0.0159-0.185 0.431 0.153 0.174 0.278 0.394 0.278 0.489 0 0.236 0.193 0.296 1.13 0.353 0.818 0.0499 0.964 0.12 0.625 0.302-0.102 0.0545-0.185 0.156-0.185 0.226 0 0.0698-0.146 0.301-0.324 0.515-0.391 0.468-0.402 0.556-0.0688 0.556 0.401 0 0.866-0.162 1.1-0.384 0.119-0.112 0.217-0.157 0.217-0.0994 0 0.0573-0.185 0.259-0.412 0.449-0.42 0.351-0.648 0.737-0.592 1l0.0314 0.148 0.489-0.33c0.637-0.43 0.708-0.375 0.636 0.502-0.0315 0.388-0.0229 0.759 0.0191 0.825l0.0763 0.12 0.0968-0.12c0.0532-0.0661 0.227-0.381 0.387-0.699 0.396-0.79 0.625-0.779 1.16 0.0567 0.374 0.586 0.494 0.412 0.36-0.52-0.126-0.876-0.139-0.863 0.459-0.485 1.31 0.826 1.75 0.912 1.19 0.23-0.659-0.798-0.539-0.903 0.686-0.601 1.11 0.274 1.17 0.209 0.347-0.364-1.18-0.825-1.18-0.817-0.116-1.31 1.11-0.515 1.04-0.636-0.359-0.64-0.337-7.8e-4 -0.673-0.0389-0.745-0.0847l-0.132-0.0833 0.166-0.263c0.0915-0.144 0.584-0.67 1.09-1.17 1.12-1.09 1.1-1.15-0.133-0.541-0.539 0.263-1.12 0.479-1.32 0.494l-0.366 0.0264-0.0798-0.393c-0.0617-0.304-0.0471-0.44 0.0645-0.599 0.0794-0.113 0.144-0.337 0.144-0.498s0.0625-0.469 0.139-0.686c0.0764-0.217 0.139-0.539 0.139-0.718v-0.324l-0.152 0.126c-0.0834 0.0692-0.23 0.308-0.325 0.53-0.0953 0.222-0.317 0.572-0.492 0.776-0.175 0.205-0.344 0.482-0.374 0.616-0.0653 0.286-0.475 0.785-0.588 0.716-0.0426-0.0264-0.196-0.405-0.341-0.84-0.298-0.896-0.374-0.904-0.48-0.0497-0.0897 0.727-0.272 0.83-0.581 0.33-0.261-0.422-0.336-0.414-0.409 0.044l-0.0596 0.373-0.176-0.0944c-0.197-0.105-0.611-0.507-1.16-1.12l-0.363-0.409-0.0373 0.162c-0.0205 0.0891 0.0637 0.383 0.187 0.652 0.545 1.19 0.439 1.39-0.515 0.951-0.886-0.404-1-0.56-0.356-0.471 0.584 0.0803 0.581 0.139 0.0545-1.27-0.579-1.55-0.549-1.57 0.645-0.506 1.16 1.03 1.2 1.04 1.24 0.264 0.0331-0.687 0.0778-0.697 0.558-0.132 0.455 0.536 0.486 0.511 0.757-0.606 0.257-1.06 0.297-1.05 0.817 0.24 0.23 0.571 0.447 1.04 0.481 1.04 0.0341 0 0.662-0.875 1.4-1.94 1.72-2.51 1.68-2.52 1.1 0.256-0.405 1.92-0.405 1.97-0.0161 1.78 0.14-0.0703 0.29-0.144 0.332-0.164 0.0422-0.0199 0.0478 0.156 0.0126 0.391l-0.064 0.427h0.145c0.183 0 1.61-0.624 2.57-1.13 0.404-0.211 0.759-0.358 0.79-0.328 0.0548 0.0548-0.575 0.856-1.57 2-0.498 0.572-0.566 0.751-0.285 0.751 0.238 0 0.142 0.178-0.249 0.461-0.486 0.352-0.474 0.356 1.43 0.442 0.947 0.0427 1.55 0.106 1.54 0.163-9e-3 0.0509-0.604 0.373-1.32 0.716-1.26 0.602-1.43 0.75-1.11 0.932 0.2 0.112 0.158 0.24-0.1 0.305-0.352 0.0884-0.336 0.106 1.27 1.38 1.67 1.33 1.68 1.38 0.255 1.01-0.91-0.235-2.04-0.361-2.04-0.227 0 0.0351 0.0833 0.139 0.185 0.231 0.102 0.0922 0.186 0.213 0.187 0.269 9.5e-4 0.0558 0.355 0.518 0.786 1.03 1.13 1.33 1.12 1.34-0.603 0.53-1.37-0.646-2.41-1.07-2.47-1.01-0.0299 0.0299-0.0127 0.265 0.0383 0.522 0.114 0.576 0.052 0.624-0.353 0.278-0.444-0.38-0.455-0.368-0.455 0.509 0 0.96 0.0684 0.963-0.987-0.0463-0.48-0.458-0.907-0.834-0.95-0.834-0.0428 0-0.524 0.802-1.07 1.78s-1.06 1.85-1.13 1.92l-0.141 0.139 0.125-3.18-0.191-0.102c-0.105-0.0561-0.191-0.163-0.191-0.238 0-0.207-0.167-0.165-0.685 0.17-1.64 1.06-1.7 1.07-1.21 0.22 0.9-1.56 0.895-1.58-0.235-1.22-1.06 0.34-1.08 0.309-0.238-0.613 0.784-0.863 0.823-0.96 0.414-1.04-0.158-0.0316-0.413-0.163-0.566-0.292-0.329-0.277-0.357-0.271-1.5 0.3-0.89 0.445-1.32 0.707-2.05 1.25-0.526 0.389-0.611 0.412-0.782 0.206-0.0801-0.0965-0.149-0.112-0.212-0.049-0.0634 0.0634 0.161 0.358 0.69 0.907 0.866 0.899 1.21 1.49 1.27 2.2l0.039 0.47-0.542 0.787c-1.6 2.33-1.9 2.59-2.95 2.59-2.65 5e-3 -6.16-2.8-6.16-4.92 0-0.269 2.07-3.37 2.39-3.58 0.408-0.266 1.47-0.2 2.42 0.152 0.81 0.299 1.04 0.303 0.677 0.0106-0.36-0.291-1.63-0.661-2.33-0.678l-0.642-0.0158-0.262 0.191c-0.144 0.105-0.532 0.592-0.864 1.08-0.331 0.49-0.675 0.97-0.764 1.07-0.0891 0.0967-0.162 0.207-0.162 0.245 0 0.0378-0.177 0.279-0.394 0.536l-0.394 0.467 6e-3 1.14 0.321 0.693c0.926 2 3.05 3.55 5.47 3.98 1.23 0.222 1.83-7e-3 2.54-0.971 0.661-0.894 0.615-0.887 1.09-0.165 0.885 1.34 1.64 3.11 1.97 4.65l0.172 0.787v3.52l-0.172 0.787c-1.67 7.66-9.59 12.4-17 10.1-0.433-0.131-1.66-0.583-2.73-1-2.31-0.91-3.17-1.19-4.18-1.35l-0.755-0.12-0.657 0.108c-0.688 0.114-1.45 0.428-1.53 0.629-0.0248 0.0648 0.665 0.943 1.53 1.95 0.868 1.01 1.77 2.06 2.01 2.34 0.237 0.28 1.35 1.56 2.47 2.86 2.75 3.16 2.69 3.06 1.28 2.33-4.26-2.23-6.34-3.22-6.41-3.04-0.0439 0.123 6.4 9.87 10 15.2 1.03 1.5 1.94 2.88 2.03 3.06l0.163 0.324-0.346-0.324c-0.19-0.178-1.14-1.2-2.11-2.27-6.6-7.26-11.9-12.9-12.1-12.8-0.0367 0.0367 0.0266 0.39 0.141 0.785 0.615 2.13 0.656 3.02 0.094 2.04l-0.225-0.394-0.0283 0.292c-0.0156 0.16 0.0574 0.736 0.162 1.28 0.225 1.17 0.219 1.07 0.07 1.07-0.248 0-4.47-4.87-6.96-8.04-0.453-0.574-0.867-1.03-0.921-1.01-0.333 0.109-0.557 1.91-0.481 3.86 0.076 1.96 0.0561 1.91 1.17 3.2 2.24 2.59 3.17 3.7 6.02 7.12 1.65 1.99 3.57 4.28 4.25 5.09 0.686 0.815 1.31 1.55 1.38 1.64 0.389 0.463-0.148 0.22-2.11-0.959zm5.57-8.85c-0.118-0.219-4.53-6.87-5.43-8.19-0.396-0.579-0.991-1.45-1.32-1.93-0.331-0.484-0.83-1.2-1.11-1.6-0.278-0.397-0.481-0.747-0.45-0.778 0.0543-0.0543 4.78 2.18 5.8 2.74 0.852 0.47 0.975 0.347 0.342-0.345-0.22-0.24-0.501-0.566-0.625-0.724-0.124-0.158-0.492-0.596-0.817-0.972-0.589-0.682-1.38-1.61-2.74-3.18-0.394-0.458-1.33-1.54-2.07-2.4-0.746-0.86-1.52-1.76-1.73-1.99-2.02-2.33-3.69-4.2-6.51-7.24-0.753-0.815-0.661-0.882 0.69-0.506 0.448 0.125 1.65 0.458 2.67 0.74 1.02 0.282 2.44 0.68 3.15 0.884 0.713 0.204 1.33 0.371 1.37 0.371 0.266 3e-3 -0.378-0.58-2.15-1.95-1.9-1.47-2.73-2.13-4.19-3.36-0.853-0.717-1.55-1.34-1.55-1.39 0-0.0949 1.99-0.0173 3.15 0.122 0.382 0.0463 1.26 0.11 1.94 0.142 0.688 0.0316 1.87 0.117 2.63 0.189 1.6 0.153 2.37 0.168 2.37 0.0458 0-0.115-1.09-1.05-2.55-2.18-1.54-1.2-2.36-1.9-2.36-2.01 0-0.0873 6.77-0.0914 7.02-4e-3 0.187 0.067 0.141 0.195-0.335 0.939-0.448 0.7-0.905 1.66-1.13 2.37-0.0633 0.204-0.156 0.475-0.207 0.602-0.704 1.78-0.754 5.18-0.11 7.44 0.281 0.984 1.31 3.21 1.49 3.21 0.166 0 0.187 0.0581-0.339-0.975-3.93-7.73 1.02-17.3 9.74-18.8 0.938-0.162 2.6-0.207 3.97-0.108l0.972 0.0708-0.268-0.15c-0.594-0.333-3.41-0.322-5.1 0.0187-1.47 0.297-3.56 1.16-4.43 1.83-0.536 0.409-0.834 0.498-1.13 0.336l-0.225-0.12-0.485 0.521c-0.626 0.671-1.36 1.02-2.16 1.03l-0.565 6e-3 -0.484-0.301c-0.614-0.382-0.657-0.378-0.657 0.0581 0 0.502-0.0117 0.508-2.31 1.07-2.4 0.586-2.14 0.619-2.92-0.369-0.815-1.03-0.877-1.02-1.11 0.238-0.211 1.11-0.153 1.06-1.7 1.43-1.14 0.267-1.04 0.295-1.66-0.482-0.269-0.341-0.636-0.786-0.815-0.989l-0.326-0.368-0.0864 0.137c-0.0476 0.0752-0.0871 0.561-0.0879 1.08-2e-3 1.27-0.0372 1.35-0.747 1.54-0.782 0.217-0.69 0.27 1.26 0.711 2.1 0.475 2.03 0.455 1.9 0.581-0.0663 0.0663-0.877 0.116-2.31 0.141-1.22 0.0214-2.27 0.0742-2.34 0.117l-0.126 0.0782 0.185 0.178c0.102 0.0981 1.21 1.08 2.45 2.19 2.27 2.01 2.53 2.27 2.3 2.27-0.138-8.2e-4 -2.58-0.47-3.55-0.683-3.12-0.683-3.75-0.794-3.75-0.659 0 0.0255 0.909 1.18 2.02 2.57 3.45 4.32 5.85 7.43 5.85 7.59 0 0.138-0.286 0.0189-3.06-1.27-5.55-2.58-5.7-2.64-5.6-2.25 0.895 3.85 0.978 4.29 0.797 4.22-0.0829-0.0304-1.62-1.77-2.78-3.16-0.721-0.858-0.734-0.856-1 0.128-0.248 0.919-1.18 4.56-1.26 4.92-0.0909 0.408-0.188 0.315-0.823-0.787-0.33-0.573-0.903-1.56-1.27-2.2-0.37-0.637-1-1.74-1.41-2.45-1.44-2.54-1.61-2.69-1.01-0.908 0.994 2.97 4.45 12.1 4.58 12.1 0.0416 0 0.727-1.31 1.52-2.92 0.796-1.61 1.49-2.91 1.55-2.89 0.0556 0.0183 0.501 0.676 0.991 1.46 2.74 4.4 3.96 6.38 4.16 6.73 0.396 0.71 0.417 0.546 0.39-2.95-0.0165-2.07 8e-3 -3.33 0.0661-3.42l0.0922-0.139 0.128 0.139c0.251 0.272 2.26 2.75 3.26 4.03 1.73 2.2 4.57 5.54 5.08 5.96l0.154 0.127v-0.293c0-0.161-0.0817-0.635-0.182-1.05-0.444-1.86-0.878-4.13-0.804-4.21 0.0858-0.0857 2.04 1.78 3.75 3.57 3.12 3.28 3.79 3.99 5.11 5.41 1.26 1.35 1.61 1.68 1.4 1.29zm1.51-17.3c-0.0484-0.0422-0.462-0.323-0.919-0.625-5.52-3.65-6.96-11.7-3.05-17.1 0.65-0.906 0.678-0.973 0.232-0.548-2.02 1.93-3.21 4.9-3.2 8.01l6e-3 1.53 0.21 0.859c0.816 3.34 2.85 6 5.78 7.58 0.675 0.362 1.17 0.539 0.934 0.331zm-4.34-10.9c0.0871-0.407 0.251-0.991 0.365-1.3 0.227-0.61 0.178-0.919-0.162-1.03-0.437-0.139-0.845 2.34-0.558 3.39l0.0633 0.232 0.0663-0.278c0.0365-0.153 0.138-0.611 0.225-1.02zm2.33-3.53c1.34-0.679 3.07-3.03 3.08-4.18 9e-3 -1.62-2.65-0.497-3.91 1.65-1.1 1.86-0.632 3.27 0.834 2.53zm-79.7-6.24c0.0799-1.14 0.146-2.35 0.146-2.68 6.96e-4 -0.334 0.0237-0.691 0.0511-0.793l0.0498-0.185 1.11-0.349c0.953-0.301 1.6-0.659 0.852-0.47-0.14 0.0353-0.713 0.172-1.27 0.305l-1.02 0.241-0.0591 0.878c-0.0994 1.48-0.156 5.41-0.0754 5.27 0.0416-0.0743 0.141-1.07 0.221-2.21zm13.3 1.36c0.113-0.369 0.648-2.42 1.19-4.56l0.981-3.89 0.32-0.152c0.176-0.0834 0.664-0.244 1.09-0.358 0.693-0.187 1.06-0.369 0.745-0.372-0.173-2e-3 -2.13 0.465-2.29 0.544-0.0777 0.04-0.303 0.802-0.566 1.91-0.24 1.02-0.71 2.99-1.04 4.4-0.333 1.4-0.634 2.68-0.668 2.85-0.112 0.538 0.0342 0.318 0.245-0.37zm78.2-0.963c0.255-0.389 0.536-0.819 0.624-0.956l0.161-0.249-0.393-0.507c-0.216-0.279-0.494-0.723-0.617-0.988-0.123-0.264-0.26-0.481-0.303-0.481-0.105 0-1.28 1.8-1.28 1.96 2.5e-4 0.425 0.967 1.93 1.24 1.93 0.0584-6.6e-4 0.315-0.319 0.569-0.708zm-7.32 0.349c0.873-0.401 1.02-1.22 0.219-1.22-0.776 0-1.56 0.981-1.03 1.29 0.23 0.134 0.389 0.119 0.81-0.0741zm12-2.09c0.0587-0.129 0.0707-0.298 0.028-0.394l-0.0748-0.168-0.0365 0.209c-0.0511 0.292-0.349 0.422-0.847 0.37l-0.426-0.0445 0.278 0.122c0.153 0.0674 0.435 0.124 0.627 0.127l0.349 4e-3zm-1.76-0.44c-0.442-0.437-0.55-0.726-0.398-1.06 0.142-0.312 0.133-0.335-0.0809-0.22-0.371 0.199-0.171 0.861 0.415 1.38 0.48 0.422 0.522 0.358 0.0636-0.0957zm1.36-0.452 0.315-0.464-0.245-0.484c-0.254-0.503-0.303-0.713-0.164-0.713 0.0446 0 0.104 0.117 0.133 0.26 0.0286 0.143 0.13 0.356 0.224 0.473l0.172 0.213 0.389-0.505c0.428-0.555 0.455-0.642 0.25-0.812-0.0764-0.0634-0.137-0.183-0.134-0.266 4e-3 -0.117 0.0378-0.104 0.15 0.0576 0.195 0.28 0.385 0.262 0.793-0.0731l0.342-0.282-0.0808-0.212c-0.0449-0.118-0.0456-0.269-2e-3 -0.34 0.0602-0.0974 0.102-0.0678 0.175 0.123 0.15 0.394 1 0.0913 1.12-0.397l0.056-0.231 0.227 0.417h0.364c0.277 0 0.448-0.0719 0.714-0.301 0.193-0.166 0.294-0.229 0.224-0.14-0.237 0.303-0.0666 0.441 0.544 0.441h0.563l0.459-0.429c0.653-0.611 0.556-0.775-0.46-0.775-0.187 0-0.386-0.0454-0.441-0.101-0.0647-0.0647-0.329-0.0811-0.736-0.0456-0.349 0.0304-0.799 0.0554-0.999 0.0555-0.545 3.4e-4 -1.01 0.154-1.25 0.413-0.16 0.17-0.249 0.206-0.335 0.134-0.221-0.184-1.08 0.385-1.25 0.827l-0.0843 0.218-0.258-0.214-0.321 0.282c-0.177 0.155-0.372 0.405-0.434 0.556-0.0624 0.151-0.211 0.338-0.331 0.416-0.264 0.173-0.968 1.33-0.968 1.59 0 0.213 0.193 0.414 0.602 0.627 0.364 0.19 0.325 0.208 0.685-0.323zm-89.9-0.388c0.175-0.318 0.495-0.987 0.711-1.49 0.51-1.18 0.565-1.24 1.38-1.46 1.33-0.367 1.37-0.54 0.0632-0.288-1.1 0.212-1.01 0.113-1.79 1.91-0.881 2.02-1.01 2.51-0.36 1.32zm17.9-3.22 0.161-2.73 0.151-0.147c0.0829-0.0808 0.558-0.305 1.06-0.498 0.804-0.312 1.17-0.513 0.922-0.513-0.196 0-2.29 0.655-2.38 0.744-0.0948 0.0946-0.252 5.69-0.165 5.86 0.0765 0.151 0.0929-0.0261 0.252-2.72zm5.47 2.3c0.0798-0.154 0.126-0.3 0.103-0.323-0.0445-0.0445-0.434 0.543-0.434 0.655 0 0.131 0.191-0.0605 0.332-0.332zm5.69-1.65c0.722-3.11 2.31-5.84 4.09-7.05 0.648-0.44 0.766-0.603 0.293-0.406-1.27 0.53-2.56 1.97-3.46 3.88-0.689 1.46-1.3 3.56-1.29 4.44l7e-3 0.48 0.0749-0.232c0.0412-0.127 0.167-0.627 0.279-1.11zm38.7 0.116c0.257-0.69 0.784-1.4 1.13-1.52 0.224-0.078 0.397-0.355 0.222-0.355-0.577 0-1.51 1.15-1.76 2.15-0.122 0.501 0.201 0.282 0.409-0.278zm6.12-0.841c0.539-0.348 1.56-1 2.28-1.45s1.84-1.16 2.5-1.57c4.18-2.64 8.42-4.93 10.7-5.82 1-0.381 1.02-0.468 0.101-0.553-6.61-0.617-9.91-0.958-10-1.04-0.149-0.0918-0.0276-0.216 1.66-1.71 3.63-3.19 8.14-6.77 10.2-8.05 0.264-0.167 0.529-0.364 0.59-0.437l0.111-0.134h-0.205c-0.113 0-0.623 0.0851-1.13 0.189-0.511 0.104-1.39 0.27-1.96 0.369-0.57 0.0989-3.03 0.573-5.48 1.05-2.44 0.48-4.64 0.902-4.88 0.938l-0.44 0.0648 3e-3 -0.126c3e-3 -0.119 0.657-0.924 2.03-2.5 0.331-0.38 1.25-1.44 2.04-2.35 1.78-2.06 3.12-3.56 5.59-6.28 1.06-1.16 1.91-2.14 1.88-2.17-0.026-0.026-1.63 0.748-3.55 1.72-3.23 1.63-4.51 2.24-7.71 3.72-2.2 1.01-4.43 2.12-6.65 3.28-2.41 1.26-2.33 1.23-2.33 1.04 0-0.138 1.88-5.05 2.68-6.99 0.259-0.633 0.451-1.17 0.425-1.2-0.0519-0.0519-0.0369-0.0647-1.62 1.38-1.42 1.29-2.17 1.96-4.21 3.74-0.866 0.757-2.37 2.11-3.33 3.01-0.968 0.898-2.35 2.18-3.08 2.86-1.34 1.24-1.55 1.39-1.47 1.01 0.339-1.57 2-8.05 2.7-10.5 0.136-0.484 0.266-1 0.288-1.16l0.04-0.278-0.538 0.557c-3.81 3.94-8.65 10.7-12.6 17.5-0.513 0.884-0.504 0.911 0.37 1.13l0.723 0.181 1.01-0.98c1.4-1.35 1.4-1.36 0.816 0.717l-0.384 1.37 0.196 0.248c0.108 0.136 0.374 0.529 0.592 0.872 0.579 0.915 0.562 0.943 0.713-1.21 0.0968-1.38 0.196-1.79 0.495-2.04 0.112-0.0933 3.78-1.02 4.55-1.16 0.303-0.0514 0.629 0.229 0.839 0.72 0.0653 0.153 0.33 0.541 0.588 0.862l0.469 0.583 0.11 0.679c0.219 1.36 0.259 1.3 0.825-1.23 0.528-2.36 0.539-2.38 1-2.51 1.09-0.304 4.12-1.02 4.32-1.02 0.241 0 0.406 0.175 0.917 0.972 0.163 0.255 0.359 0.463 0.436 0.463h0.139v-1.52l0.487-0.488 2.02-0.5c2.61-0.645 2.69-0.641 3.09 0.142 0.0641 0.124 0.363 0.536 0.665 0.915l0.548 0.69-0.0489 0.243c-0.202 1-1.16 8.92-1.4 11.5-0.103 1.14-0.204 1.81-0.285 1.91-0.171 0.2-0.161 0.255 0.119 0.659 0.322 0.465 0.366 0.457 1.51-0.281zm23.7 0.419c0.351-0.213 0.711-0.654 0.712-0.874 4.2e-4 -0.0788-0.163-0.116-0.513-0.116h-0.513l-0.459 0.429c-0.522 0.488-0.569 0.653-0.204 0.708 0.517 0.0783 0.633 0.0609 0.977-0.148zm-56.6-1.7c0.748-3.55 2.22-6.2 4.22-7.6 0.778-0.545 0.834-0.743 0.109-0.381-2.03 1.01-3.8 3.99-4.48 7.52-0.353 1.83-0.225 2.23 0.148 0.465zm12.1-2.25c0.0574-0.739 0.186-2.11 0.285-3.06 0.0994-0.942 0.234-2.23 0.299-2.87l0.118-1.16 0.831-0.239c0.457-0.131 0.956-0.307 1.11-0.39l0.278-0.151-0.179-4e-3c-0.237-5e-3 -2.21 0.462-2.3 0.545-0.0386 0.0354-0.11 0.583-0.16 1.22-0.0491 0.634-0.196 2.51-0.327 4.16-0.131 1.66-0.255 3.47-0.277 4.03l-0.0391 1.02 0.128-0.88c0.0704-0.484 0.175-1.48 0.232-2.22zm8.07-5.93c0.354-1.4 0.688-2.68 0.741-2.85l0.0964-0.3 0.502-0.139c1.23-0.341 1.48-0.421 1.61-0.508l0.139-0.092-0.185-2e-3c-0.262-2e-3 -2.2 0.476-2.33 0.574-0.0593 0.0451-0.214 0.549-0.345 1.12-0.13 0.57-0.467 2.04-0.749 3.27-0.884 3.85-0.557 3.17 0.517-1.07zm7.2-1.92c7e-3 -2 0.0392-2.72 0.121-2.77 0.0613-0.0379 0.53-0.212 1.04-0.387 0.807-0.276 1.48-0.604 0.93-0.45-0.102 0.0283-0.623 0.142-1.16 0.254-0.535 0.111-1.05 0.241-1.14 0.289l-0.166 0.0866 0.0537 2.61c0.0295 1.44 0.0816 2.96 0.116 3.4l0.0621 0.787 0.0638-0.556c0.0351-0.306 0.0683-1.77 0.0738-3.26zm-61.6 63.9c-0.535-0.456-0.972-0.89-0.972-0.966 0-0.178 5.06-5.86 7.59-8.52 0.9-0.947 0.42 0.0296-2.5 5.09-0.265 0.458-0.973 1.73-1.57 2.82-1.35 2.46-1.32 2.41-1.46 2.4-0.0625-2e-3 -0.551-0.376-1.09-0.832zm5.12-0.916-0.193-0.457 0.459-0.998c0.965-2.1 2.3-4.79 2.35-4.74 0.174 0.174-2.08 6.53-2.34 6.62-0.044 0.0147-0.167-0.179-0.273-0.431zm-24.6-8.97c-0.127-0.214-0.619-2.17-0.567-2.25 0.224-0.362 8.49-6.12 8.61-5.99 0.0221 0.0221-1.36 1.52-3.07 3.32s-3.47 3.67-3.9 4.14c-0.731 0.794-0.962 0.965-1.07 0.787zm110-11.1c-0.415-0.219-2.66-1.52-4.07-2.35-0.842-0.498-2.44-1.85-2.32-1.96 0.0789-0.0789 1.91 1.01 3.39 2 1.87 1.27 3.52 2.43 3.52 2.48 0 0.0755-0.141 0.0302-0.509-0.164zm-5.34-1.2c-1.05-0.638-2.17-1.51-2.29-1.78-0.159-0.366 2.77 1.6 3.64 2.44 0.262 0.254-0.245 5e-3 -1.35-0.665zm11.4-7.9c-3.7-1.4-5.49-2.18-6.36-2.75-0.339-0.225-0.751-0.483-0.916-0.574-0.488-0.269-0.25-0.28 0.481-0.022 0.375 0.133 0.848 0.286 1.05 0.34 0.382 0.103 6.97 3.26 7.13 3.42 0.156 0.155-0.0542 0.0926-1.38-0.411zm3.1-1.38c-0.881-0.263-5.08-1.58-5.94-1.86-0.544-0.179-1.51-0.602-2.15-0.941-1.05-0.557-1.37-0.755-1.05-0.649 1.26 0.411 2.23 0.697 2.36 0.697 0.222 0 6.9 2.53 7.34 2.79l0.139 0.0793-0.185-7e-3c-0.102-4e-3 -0.331-0.0502-0.509-0.103zm-111-32c-0.407-0.234-1.79-1.05-3.06-1.81l-2.32-1.39-1.15-0.974c-1.39-1.17-1.39-1.18-0.63-1.1l0.591 0.0637 0.463 0.327c0.255 0.18 0.772 0.543 1.15 0.806 1.2 0.836 5.82 4.29 5.88 4.4 0.127 0.206-0.19 0.0942-0.919-0.324zm96.8-2.44c0.322-0.34 2.51-1.16 4.48-1.68 2.2-0.581 2.32-0.605 2.18-0.462-0.127 0.127-4.49 1.76-4.7 1.76-0.148 0-1.21 0.245-1.87 0.432-0.137 0.0386-0.159 0.0245-0.0848-0.0541zm-3.25-0.616c0.427-0.323 3.12-1.66 4.02-2 0.538-0.202 2.44-0.887 4.22-1.52 1.78-0.635 3.47-1.24 3.75-1.34 0.922-0.345 3.15-1.08 3.15-1.04 0 0.118-2.67 1.28-7.78 3.4-4.52 1.87-8.14 3.11-7.36 2.52zm-77.4-5.75c-1.1-0.896-7.4-6.39-7.6-6.63l-0.12-0.145 0.755-0.939c0.415-0.516 0.803-0.925 0.861-0.907 0.0581 0.0174 0.62 0.717 1.25 1.56 6.13 8.17 6.01 8 4.86 7.06z" fill="#0570df"/><path d="m142 187c-1.38-0.828-3.21-1.92-4.07-2.42s-1.76-1.03-1.99-1.17c-2.06-1.25-7.42-4.07-7.74-4.07-0.898 0-3.24 2.98-4.91 6.25-0.993 1.94-0.944 1.86-1.01 1.79-0.0263-0.0263-0.108-1.9-0.182-4.16-0.0736-2.26-0.162-4.77-0.196-5.57l-0.0618-1.46-0.196-0.0429c-0.108-0.0236-0.777-0.108-1.49-0.186l-1.29-0.143-0.069 0.112c-0.099 0.16-0.186 1.49-0.255 3.88-0.0437 1.52-0.09 2.08-0.17 2.08-0.0607 0-0.745-0.938-1.52-2.08-0.775-1.15-1.79-2.6-2.26-3.24l-0.845-1.16-0.32-0.0671c-0.176-0.0369-0.902-0.0994-1.61-0.139l-1.29-0.0718-0.747-2.46-0.447-0.316c-1.03-0.732-2.35-1.29-3.3-1.4-3.67-0.419-7.61 4.65-10.5 13.4-0.312 0.962-0.601 1.78-0.642 1.83-0.0414 0.0414-0.249-0.979-0.46-2.27-1.16-7.03-2.57-10.1-5.17-11.1l-0.539-0.215-2.41 6e-3 -0.926 0.302c-3.24 1.05-7.11 3.7-11.8 8.06-0.78 0.726-1.44 1.29-1.48 1.26-0.0319-0.0319 0.0967-0.693 0.286-1.47 2.15-8.83 1.03-13.6-3.55-15l-0.695-0.217-3.06 8e-3 -1.1 0.258c-1.62 0.379-2.76 0.799-5.54 2.03-0.644 0.285-0.631 0.243 0.492-1.61 5.03-8.3 3.62-11.9-4.78-12.2-1.96-0.0698-1.96-0.0678-0.591-0.817 7.17-3.93 10.1-8.01 9.21-12.8-0.774-4.05-4.55-9.57-9.59-14-0.788-0.693-0.779-0.694 1.45-0.254 10.7 2.13 17.3 1.93 19-0.575 1.65-2.44 0.44-6.37-3.87-12.5-0.499-0.713-0.868-1.31-0.818-1.33 0.0493-0.0164 0.727 0.362 1.51 0.842 5.54 3.41 10.4 5.49 13.7 5.91 5.28 0.658 6.72-5.05 3.99-15.8-0.48-1.9-0.493-2.08-0.114-1.63 3.15 3.71 7 6.98 9.89 8.38 6.06 2.94 9.23 1.06 19.3-11.5 1.47-1.83 1.3-1.83 1.54-0.0064 1.11 8.65 4.27 13 9.43 13h0.736l0.495-0.67c0.717-0.97 2.21-2.82 3.63-4.5 0.677-0.801 1.89-2.26 2.69-3.24 1.46-1.78 1.69-2.01 1.54-1.53-1.11 3.73-2.47 8.56-2.73 9.68-0.0418 0.185-0.0181 0.272 0.0844 0.311 0.333 0.128 3.19-0.466 3.63-0.755 0.86-0.563 5.77-5.16 8.37-7.84 1.27-1.3 2.09-2.09 2.11-2.01 0.0149 0.0772-0.501 1.37-1.15 2.86-1.74 4.05-2.82 6.84-2.82 7.32 0 0.276 0.196 0.217 1.55-0.462 0.7-0.35 2.38-1.15 3.73-1.77 5.11-2.35 8.13-3.87 13.9-6.99 1.77-0.954 3.27-1.72 3.33-1.7 0.0611 0.0204-0.286 0.451-0.77 0.956-5.55 5.79-12.9 14.3-12.3 14.3 0.0965 0 4.69-0.846 6.74-1.24 0.917-0.177 3.41-0.658 5.53-1.07s3.94-0.748 4.02-0.748c0.248 0 0.0945 0.105-1.5 1.02-4.63 2.67-14.2 10.1-13.1 10.1 0.0206 0 0.594 0.0616 1.27 0.137 3.04 0.336 6.97 0.546 12.9 0.691 1.85 0.0448 3.39 0.103 3.41 0.13 0.0265 0.0265-0.508 0.22-1.19 0.431-6.11 1.89-9.53 3.33-13.2 5.54-0.458 0.278-0.91 0.571-1 0.652l-0.171 0.147 0.2 0.0471c0.365 0.0862 0.205 0.229-0.686 0.612-1.26 0.544-2.9 1.75-2.68 1.98 0.201 0.208 6.54 1.24 8.42 1.36l0.741 0.0511 0.37-0.301c0.511-0.415 1.52-0.884 2.41-1.11l0.741-0.193 2.31 0.0586 0.0286-0.147c0.0167-0.0861-0.185-0.33-0.485-0.586-0.64-0.547-0.638-0.571 0.0423-0.648 0.695-0.0786 0.694-0.0891-0.0994-1.09-0.36-0.456-0.631-0.853-0.602-0.883 0.096-0.0959 0.988 0.377 0.941 0.499-0.0637 0.166 0.245 0.523 0.632 0.731 0.183 0.0984 0.333 0.222 0.334 0.274 1e-3 0.0521 0.0836 0.199 0.183 0.326 0.0996 0.127 0.182 0.304 0.183 0.394l2e-3 0.162h-0.463c-0.543 0-0.55 0.0159-0.185 0.431 0.153 0.174 0.278 0.394 0.278 0.489 0 0.236 0.193 0.296 1.13 0.353 0.818 0.0499 0.964 0.12 0.625 0.302-0.102 0.0545-0.185 0.156-0.185 0.226 0 0.0698-0.146 0.301-0.324 0.515-0.391 0.468-0.402 0.556-0.0688 0.556 0.401 0 0.866-0.162 1.1-0.384 0.119-0.112 0.217-0.157 0.217-0.0994 0 0.0573-0.185 0.259-0.412 0.449-0.42 0.351-0.648 0.737-0.592 1l0.0314 0.148 0.489-0.33c0.637-0.43 0.708-0.375 0.636 0.502-0.0315 0.388-0.0229 0.759 0.0191 0.825l0.0763 0.12 0.0968-0.12c0.0532-0.0661 0.227-0.381 0.387-0.699 0.396-0.79 0.625-0.779 1.16 0.0567 0.374 0.586 0.494 0.412 0.36-0.52-0.126-0.876-0.139-0.863 0.459-0.485 1.31 0.826 1.75 0.912 1.19 0.23-0.659-0.798-0.539-0.903 0.686-0.601 1.11 0.274 1.17 0.209 0.347-0.364-1.18-0.825-1.18-0.817-0.116-1.31 1.11-0.515 1.04-0.636-0.359-0.64-0.337-7.8e-4 -0.673-0.0389-0.745-0.0847l-0.132-0.0833 0.166-0.263c0.0915-0.144 0.584-0.67 1.09-1.17 1.12-1.09 1.1-1.15-0.133-0.541-0.539 0.263-1.12 0.479-1.32 0.494l-0.366 0.0264-0.0798-0.393c-0.0617-0.304-0.0471-0.44 0.0645-0.599 0.0794-0.113 0.144-0.337 0.144-0.498s0.0625-0.469 0.139-0.686c0.0764-0.217 0.139-0.539 0.139-0.718v-0.324l-0.152 0.126c-0.0834 0.0692-0.23 0.308-0.325 0.53-0.0953 0.222-0.317 0.572-0.492 0.776-0.175 0.205-0.344 0.482-0.374 0.616-0.0653 0.286-0.475 0.785-0.588 0.716-0.0426-0.0264-0.196-0.405-0.341-0.84-0.298-0.896-0.374-0.904-0.48-0.0497-0.0897 0.727-0.272 0.83-0.581 0.33-0.261-0.422-0.336-0.414-0.409 0.044l-0.0596 0.373-0.176-0.0944c-0.197-0.105-0.611-0.507-1.16-1.12l-0.363-0.409-0.0373 0.162c-0.0205 0.0891 0.0637 0.383 0.187 0.652 0.545 1.19 0.439 1.39-0.515 0.951-1.01-0.46-1.05-0.643-0.0891-0.368l0.208 0.0593v-0.2c0-0.11-0.189-0.704-0.419-1.32-0.554-1.48-0.568-1.48 0.872-0.192 0.414 0.369 0.814 0.671 0.891 0.671h0.138v-0.556c0-0.667 0.0587-0.682 0.543-0.131 0.47 0.534 0.503 0.509 0.758-0.566 0.256-1.08 0.288-1.07 0.775 0.145 0.221 0.552 0.441 0.969 0.511 0.969 0.0968 0 1.59-2.04 2.61-3.57 0.284-0.426 0.265-0.121-0.105 1.68-0.469 2.28-0.472 2.4-0.0413 2.08 0.317-0.24 0.419-0.178 0.356 0.217-0.0976 0.61-0.0883 0.608 2.31-0.539 0.553-0.264 1.02-0.463 1.04-0.441 0.0371 0.0371-0.535 0.746-1.56 1.94-0.489 0.567-0.505 0.607-0.288 0.766l0.152 0.111-0.342 0.261c-0.498 0.38-0.352 0.432 1.4 0.498 1.85 0.0694 1.85 0.0689 0.29 0.808-1.4 0.661-1.46 0.709-1.25 0.946 0.202 0.223 0.196 0.296-0.0245 0.296-0.498 0-0.332 0.184 1.41 1.56 1.41 1.12 1.43 1.17 0.324 0.876-0.829-0.219-2.2-0.353-2.2-0.215 0 0.0371 0.0625 0.119 0.139 0.183 0.0764 0.0634 0.139 0.165 0.139 0.225 0 0.0605 0.354 0.538 0.787 1.06 1.05 1.27 1.05 1.27-0.278 0.657-2.92-1.34-2.87-1.33-2.72-0.617 0.119 0.556 0.0554 0.628-0.275 0.311-0.417-0.399-0.48-0.334-0.48 0.493 0 0.901 0.0694 0.903-0.94-0.0231-0.458-0.42-0.902-0.764-0.986-0.764-0.122 0-1.94 3.02-2.18 3.61-0.121 0.306-0.152-0.199-0.0883-1.47 0.0794-1.59 0.0756-1.63-0.132-1.63-0.109 0-0.13-0.0652-0.088-0.274l0.0547-0.274-0.157 0.0604c-0.0866 0.0332-0.592 0.324-1.12 0.646-1.18 0.713-1.17 0.717-0.529-0.404 0.725-1.27 0.731-1.25-0.342-0.911-1.13 0.36-1.13 0.35-0.251-0.63 0.769-0.855 0.749-0.77 0.226-0.994-0.232-0.0996-0.485-0.244-0.562-0.321-0.331-0.331-1.98 0.455-3.88 1.85-0.0794 0.0582-0.202 0.0446-0.36-0.0398-0.61-0.326-0.454 0.0706 0.332 0.849 0.893 0.884 1.31 1.61 1.32 2.31l7e-3 0.43-0.634 0.913c-1.72 2.48-2.05 2.68-3.79 2.29-2.45-0.545-4.91-2.79-5.04-4.61l-0.0347-0.475 0.63-0.894c0.347-0.492 0.812-1.18 1.03-1.54 0.686-1.09 1.32-1.24 2.94-0.682 0.463 0.159 0.878 0.289 0.923 0.289 0.082 0 0.961-1.14 0.961-1.25 0-0.0312-1.01-0.0512-2.25-0.0444-2.2 0.0122-3.74-0.0899-7.85-0.519-1.96-0.205-2.13-0.235-2.13-0.37 0-0.153 0.853-0.785 1.06-0.785 0.21 0 0.701-0.261 0.701-0.373 0-0.0496-0.0481-0.0902-0.107-0.0902-0.06 0-0.032-0.0829 0.0638-0.189 0.128-0.141 0.237-0.174 0.435-0.131 0.172 0.0378 0.344 5e-3 0.495-0.0932 0.253-0.166 0.224-0.328-0.0585-0.328-0.22 0-0.226-0.0727-0.026-0.294 0.52-0.575-0.308-0.158-5.83 2.93-1.54 0.862-1.54 0.859-1.32 1.38 0.176 0.421 0.182 1.61 0.0114 2.27l-0.128 0.492 0.29 0.177c0.159 0.0971 0.328 0.19 0.376 0.206 0.144 0.0487-3e-3 0.291-0.26 0.429l-0.243 0.13-0.465-0.249-0.485 0.521c-0.626 0.671-1.36 1.02-2.16 1.03l-0.565 6e-3 -0.484-0.301c-0.614-0.382-0.657-0.378-0.657 0.0581 0 0.502-0.0117 0.508-2.31 1.07-2.4 0.586-2.14 0.619-2.92-0.369-0.815-1.03-0.877-1.02-1.11 0.238-0.211 1.11-0.153 1.06-1.7 1.43-1.14 0.267-1.04 0.295-1.66-0.482-0.269-0.341-0.636-0.786-0.815-0.989l-0.326-0.368-0.0864 0.137c-0.0476 0.0752-0.0871 0.561-0.0879 1.08-2e-3 1.49 0.159 1.37-2.96 2.11l-1.43 0.339-0.372-0.4c-0.205-0.22-0.486-0.539-0.626-0.708-0.312-0.378-0.267-0.397-1.04 0.447-2.81 3.08-6.86 3.19-8.69 0.233-0.451-0.731-0.923-1.34-1.03-1.34-0.0548 0-0.285 0.406-0.511 0.903-2.57 5.65-7.79 7.24-10.5 3.21-0.205-0.301-0.46-0.625-0.567-0.722l-0.195-0.175-0.0609 0.175c-1.24 3.57-3.24 4.89-9.53 6.34-0.713 0.164-2.23 0.521-3.36 0.795-2.62 0.632-2.36 0.655-3.1-0.273-0.336-0.424-0.675-0.824-0.753-0.889-0.0784-0.0651-0.17-0.27-0.203-0.456-0.109-0.603-0.0756-0.596-1.35-0.279l-0.344 0.0855-0.104 0.387c-0.0574 0.213-0.185 0.806-0.283 1.32-0.329 1.71-0.151 1.56-2.38 2.08-4.88 1.15-5.98 1.39-6.13 1.35-0.309-0.0982-1.67-1.89-1.86-2.44-0.288-0.841-0.573-1.49-0.654-1.49-0.096 0-0.076-0.263-0.164 2.15-0.0581 1.6-0.109 2.16-0.214 2.32l-0.137 0.209-2.12 0.532c-2.56 0.643-2.34 0.643-2.88 0.0118-0.245-0.285-0.623-0.724-0.839-0.976l-0.394-0.457 0.0023-1.09c0.0013-0.597 0.0823-3.44 0.18-6.32 0.172-5.05 0.16-5.73-0.0848-5.08-1.13 3.02-3.04 5.17-6.27 7.07-0.995 0.585-1.07 0.66-0.713 0.741 1.3 0.297 1.86 0.478 2.62 0.848l0.88 0.429 0.703 0.701c1.79 1.78 1.94 4.03 0.511 7.2-0.494 1.09-0.513 1.07 0.638 0.904 6.16-0.875 10.3 2.07 10.8 7.74l0.113 1.21-0.11 1.27c-0.0605 0.7-0.195 1.77-0.299 2.37-0.104 0.605-0.169 1.12-0.144 1.14 0.0246 0.0246 0.6-0.465 1.28-1.09 9.79-9 15.7-8.49 17.9 1.58 0.49 2.2 0.445 2.14 0.833 1.05 2.07-5.84 5.13-9.54 8.33-10.1l0.799-0.138 0.849 0.146c1.01 0.174 2.05 0.638 2.99 1.33l0.648 0.478 0.0298-0.189c0.0265-0.168-0.214-1.11-1.55-6.07-0.192-0.713-0.379-1.42-0.415-1.57l-0.0656-0.278 0.161 0.158c0.0884 0.0868 1.33 2.48 2.76 5.33l2.6 5.17 0.417 0.0739c0.447 0.0792 7.01 1.45 9.31 1.94l1.39 0.299 0.0821 3.45c0.086 3.62 0.109 3.77 0.471 3.15 0.868-1.48 3.51-4.14 4.12-4.14 0.302 0 4.66 2.72 8.02 4.99 1.05 0.714 1.31 0.853 1.24 0.67-0.0291-0.0762-2.02-2.35-3.13-3.58-0.28-0.309-0.989-1.1-1.57-1.76s-1.52-1.7-2.08-2.3-1.29-1.4-1.63-1.77l-0.611-0.666 0.087-1.96-0.742-1.28c-0.408-0.705-0.913-1.55-1.12-1.88-0.21-0.331-0.569-0.915-0.8-1.3-0.57-0.945-0.738-1.15-0.895-1.09-0.0733 0.0281-0.81 1.39-1.64 3.02-0.828 1.64-1.54 2.97-1.58 2.97-0.0437 0-0.229-0.448-0.412-0.996-1.03-3.07-1-3.03-1.44-2.34-0.376 0.586-0.582 0.587-0.648 4e-3l-0.0463-0.411-0.324-0.0832c-0.454-0.116-0.556-0.227-0.556-0.599v-0.325l-0.331-0.312c-0.184-0.173-0.428-0.312-0.55-0.312-0.335 0-0.43-0.484-1.12-5.65-0.101-0.759 0.112-0.272 0.465 1.07 0.188 0.713 0.4 1.48 0.47 1.71 0.0703 0.229 0.216 0.802 0.325 1.27 0.231 1 0.318 1.09 0.639 0.665 0.131-0.174 0.441-0.535 0.689-0.801l0.451-0.484-0.515-1.6c-0.583-1.81-1.54-4.93-1.6-5.21l-0.0387-0.185 0.09 0.185c0.0495 0.102 0.594 1.56 1.21 3.24 1.5 4.1 2.99 7.92 3.08 7.92 0.0416 0 0.727-1.31 1.52-2.92 0.796-1.61 1.49-2.91 1.55-2.89 0.0556 0.0183 0.501 0.676 0.991 1.46 2.74 4.4 3.96 6.38 4.16 6.73 0.396 0.71 0.417 0.546 0.39-2.95-0.0165-2.07 8e-3 -3.33 0.0661-3.42l0.0922-0.139 0.128 0.139c0.251 0.272 2.26 2.75 3.26 4.03 1.73 2.2 4.57 5.54 5.08 5.96l0.154 0.127v-0.293c0-0.161-0.0817-0.635-0.182-1.05-0.442-1.85-0.878-4.13-0.804-4.2 0.165-0.165 2.46 2.16 9.27 9.41 0.914 0.974 1.18 1.2 0.999 0.872-0.122-0.227-4.51-6.84-5.44-8.2-0.396-0.579-0.991-1.45-1.32-1.93-0.331-0.484-0.83-1.2-1.11-1.6-0.278-0.397-0.481-0.747-0.45-0.778 0.0543-0.0543 4.78 2.18 5.8 2.74 0.852 0.47 0.975 0.347 0.342-0.345-0.22-0.24-0.501-0.566-0.625-0.724-0.124-0.158-0.492-0.596-0.817-0.972-0.589-0.682-1.38-1.61-2.74-3.18-0.394-0.458-1.33-1.54-2.07-2.4-0.746-0.86-1.52-1.76-1.73-1.99-2.02-2.33-3.69-4.2-6.51-7.24-0.753-0.815-0.661-0.882 0.69-0.506 0.448 0.125 1.65 0.458 2.67 0.74 1.02 0.282 2.44 0.68 3.15 0.884 0.713 0.204 1.33 0.371 1.37 0.371 0.266 3e-3 -0.378-0.58-2.15-1.95-1.9-1.47-2.73-2.13-4.19-3.36-0.853-0.717-1.55-1.34-1.55-1.39 0-0.0949 1.99-0.0173 3.15 0.122 0.382 0.0463 1.26 0.11 1.94 0.142 0.688 0.0316 1.87 0.117 2.63 0.189 1.6 0.153 2.37 0.168 2.37 0.0458 0-0.115-1.09-1.05-2.55-2.18-1.54-1.2-2.36-1.9-2.36-2.01 0-0.106 6.88-0.0778 7.06 0.0291 0.088 0.0544 0.0689 0.134-0.079 0.331l-0.195 0.259-0.313-0.0124c-2.84-0.112-4.99-0.141-4.99-0.0664 0 0.0493 0.338 0.337 0.751 0.64 1.17 0.858 2.8 2.13 2.98 2.33l0.165 0.183-0.199 0.73c-0.252 0.927-0.297 0.981-0.771 0.921-2.59-0.327-3.68-0.469-5.01-0.655-2.94-0.41-2.97-0.399-1.67 0.625 0.509 0.399 1.55 1.21 2.31 1.81 0.76 0.597 2.14 1.67 3.06 2.39 2 1.56 2.01 1.58 2.27 2.38 0.246 0.752 0.216 0.803-0.35 0.588-0.239-0.0905-1.31-0.471-2.38-0.845-1.07-0.374-2.84-0.998-3.94-1.39-1.1-0.388-2.05-0.694-2.12-0.68-0.0802 0.015 0.341 0.54 1.07 1.33 0.659 0.716 1.86 2.04 2.66 2.94s1.48 1.64 1.49 1.64c0.0157 0 0.294-0.123 0.618-0.274 0.831-0.387 1.56-0.562 2.6-0.625l0.901-0.054 0.859 0.328 0.0753-0.122c0.0419-0.0678 0.0259-0.227-0.0362-0.359-0.0613-0.13-0.311-0.652-0.555-1.16-4.37-9.09 3.64-19.8 13.8-18.5 1.06 0.142 1.04 0.11 0.569 0.727-0.483 0.635-0.539 0.834-0.41 1.45 0.405 1.92 2.28 3.77 4.69 4.62l0.808 0.285 0.926 4e-3c1.16 5e-3 1.33-0.0806 1.99-1.01 0.596-0.841 0.557-0.835 1.01-0.17 5.16 7.6 0.746 18.1-8.42 20.1l-0.966 0.21-3.61-2e-3 -1.11-0.259c-1.38-0.321-3.17-0.971-3.84-1.4-0.28-0.176-0.704-0.425-0.943-0.553-0.618-0.332-3.03-2.59-3.26-3.05-0.105-0.209-0.269-0.393-0.363-0.411l-0.171-0.0317 0.0631 0.217c0.0347 0.119 0.136 0.321 0.226 0.448 0.0896 0.127 0.185 0.425 0.211 0.663 0.0873 0.776 0.802 1.65 1.13 1.38 0.0889-0.0738 0.175-0.0403 0.336 0.131 0.3 0.319 0.263 0.324-0.83 0.11l-0.968-0.19-0.709 0.103c-0.727 0.106-1.53 0.424-1.61 0.64-0.0256 0.0668 0.397 0.632 0.939 1.26 0.542 0.624 1.49 1.74 2.1 2.48 1.17 1.41 2.84 3.36 4.29 5 1.2 1.36 1.18 1.36-0.887 0.243-3.38-1.82-5.78-2.9-5.64-2.54 0.111 0.29 7.43 11.3 9.98 15 0.978 1.43 1.84 2.71 1.92 2.86l0.14 0.266-0.18-0.127c-0.0991-0.0696-1.09-1.13-2.2-2.35-6.59-7.26-11.8-12.8-12-12.6-0.0325 0.0325 0.0547 0.447 0.194 0.921 0.599 2.04 0.661 2.84 0.149 1.93-0.424-0.754-0.473-0.466-0.183 1.08 0.109 0.582 0.167 1.09 0.129 1.13-0.13 0.125-4.48-4.81-6.61-7.51-0.636-0.803-1.2-1.45-1.26-1.43-0.334 0.109-0.558 1.9-0.482 3.86 0.0736 1.9 0.0982 1.98 0.827 2.8 0.327 0.368 2.61 3.09 5.07 6.04 2.46 2.95 5.03 6.03 5.71 6.83 1.04 1.24 1.34 1.65 1.21 1.64-0.0127-9.2e-4 -1.15-0.679-2.52-1.51zm7.88-25.7c-0.0244-0.0395-0.448-0.321-0.941-0.625-6.18-3.82-7.45-12.3-2.7-18.2 0.648-0.797 0.448-0.744-0.366 0.0974-4.64 4.79-4.52 12 0.276 16.5 1.09 1.03 4.11 2.79 3.73 2.17zm-4.8-10.5c0.056-0.362 0.236-1.08 0.4-1.6l0.298-0.943-0.509-0.502-0.172 0.209c-0.322 0.392-0.53 2.9-0.309 3.72l0.0613 0.229 0.0645-0.229c0.0355-0.126 0.11-0.525 0.166-0.887zm-65.9-5.32c0.467-1.96 0.949-3.98 1.07-4.49 0.122-0.509 0.351-1.47 0.509-2.13 0.791-3.32 1.51-6.13 1.62-6.35 0.167-0.322 0.286-0.365 2.73-0.968 2.35-0.58 2.47-0.587 2.73-0.156 0.103 0.168 0.355 0.522 0.562 0.787 0.206 0.265 0.471 0.619 0.588 0.786l0.213 0.305 0.406 2.43c0.499 2.98 0.584 3.4 0.693 3.4 0.0473 0 0.0866-0.156 0.0872-0.347 6.23e-4 -0.191 0.0433-1.95 0.0948-3.9l0.0936-3.55 0.138-0.267c0.201-0.389 1.27-0.803 4.04-1.56 3.41-0.937 5.65-0.396 6.67 1.61 0.239 0.471 0.829 1.25 0.952 1.25 0.0509 2e-3 0.322-0.486 0.602-1.08 2.47-5.26 7.8-6.71 10.3-2.81 1.06 1.63 1.11 1.65 1.46 0.773 1.3-3.27 3.72-5.37 6.49-5.6l0.278-0.0237 1.02-1.99c0.926-1.81 1.67-3.14 3.07-5.51 0.58-0.98 0.611-0.926-0.604-1.06-4.88-0.554-8.23-4.87-8.91-11.5-0.138-1.33-0.156-1.35-0.7-0.64-9.64 12.6-14.7 13.6-23.4 4.83-0.984-0.992-1.81-1.79-1.83-1.76-0.0222 0.0221 0.0029 0.266 0.0556 0.541 0.253 1.32 0.387 2.7 0.432 4.44l0.0491 1.9-0.152 1.09c-0.51 3.64-1.83 5.51-4.26 6.05l-0.734 0.161-1.3-0.0547c-2.34-0.0983-4.79-0.816-8.57-2.51-1.59-0.714-1.57-0.723-0.976 0.3 4.09 7.09 2.08 11.1-5.79 11.5-2.12 0.101-6.75-0.28-8.95-0.738-1.61-0.334-1.99-0.288-1.39 0.169 0.424 0.323 2.7 2.79 3.55 3.85 1.8 2.25 3.52 5.25 4.12 7.2 0.16 0.522 0.323 0.949 0.363 0.949 0.0399 0 0.103-0.989 0.14-2.2 0.0931-3.01-0.115-2.76 2.83-3.49l2.07-0.516 0.183 0.121c0.101 0.0668 0.416 0.471 0.7 0.898 0.652 0.979 0.676 0.983 0.984 0.165 0.538-1.43 0.78-1.77 1.34-1.88 0.178-0.036 1.1-0.249 2.06-0.473 2.15-0.506 2.14-0.505 2.46-0.0408 0.14 0.202 0.535 0.746 0.879 1.21 0.774 1.04 0.826 0.684-0.499 3.44-2.1 4.37-3.32 7.04-3.32 7.25 0 0.173 1.09 2.62 1.62 3.66 0.226 0.437 0.233 0.414 1.15-3.43zm68.3 1.28c1.72-0.833 3.64-3.95 2.94-4.77l-0.224-0.26-0.448 8e-3c-0.996 0.0175-2.58 1.32-3.31 2.72l-0.361 0.691-0.0858 1.34 0.239 0.239c0.299 0.299 0.689 0.311 1.25 0.0372zm-50.1-2.14c0.0694-0.13 0.068-0.163-0.0051-0.118-0.0639 0.0395-0.102-0.0253-0.102-0.174v-0.237h-0.276c-0.313 0-0.44 0.265-0.304 0.633l0.0782 0.211 0.251-0.197c0.284-0.224 0.331-0.154 0.0886 0.132l-0.162 0.191 0.167-0.13c0.0919-0.0713 0.211-0.211 0.264-0.311zm67.1-1.25c0.206-0.293 0.5-0.695 0.652-0.894 0.361-0.471 0.353-0.66-9e-3 -0.241-0.471 0.543-1.2 1.51-1.2 1.59 0 0.204 0.213 0.0288 0.554-0.455zm-96.7-2.89c0.0799-1.14 0.146-2.35 0.146-2.68 6.96e-4 -0.334 0.0237-0.691 0.0511-0.793l0.0498-0.185 1.11-0.349c0.953-0.301 1.6-0.659 0.852-0.47-0.14 0.0353-0.713 0.172-1.27 0.305l-1.02 0.241-0.0591 0.878c-0.0994 1.48-0.156 5.41-0.0754 5.27 0.0416-0.0743 0.141-1.07 0.221-2.21zm13.3 1.36c0.113-0.369 0.648-2.42 1.19-4.56l0.981-3.89 0.32-0.152c0.176-0.0834 0.664-0.244 1.09-0.358 0.693-0.187 1.06-0.369 0.745-0.372-0.173-2e-3 -2.13 0.465-2.29 0.544-0.0777 0.04-0.303 0.802-0.566 1.91-0.24 1.02-0.71 2.99-1.04 4.4-0.333 1.4-0.634 2.68-0.668 2.85-0.112 0.538 0.0342 0.318 0.245-0.37zm78.3-1.05c0.793-1.15 0.778-1.07 0.339-1.64-0.207-0.269-0.486-0.727-0.619-1.02-0.314-0.686-0.312-0.687-1.02 0.392-0.77 1.18-0.731 1.63 0.244 2.81 0.374 0.453 0.35 0.465 1.05-0.55zm6.51 0.461c0.115-0.0727 0.208-0.197 0.208-0.276v-0.144l-0.238 0.187c-1.2 0.943-4.99-0.976-6.24-3.16-0.154-0.268-0.28-0.422-0.28-0.342-1e-3 0.203 0.601 1.18 0.954 1.55 1.64 1.72 4.54 2.85 5.6 2.18zm-13.7-0.0739c0.655-0.384 0.791-0.913 0.296-1.15l-0.262-0.126-0.394 0.15c-0.455 0.174-0.753 0.46-0.839 0.804-0.134 0.539 0.526 0.716 1.2 0.322zm-43.9-0.226c0.914-0.847 1.64-4.27 1.28-5.99-0.215-1-1.42 0.506-1.92 2.41l-0.244 0.926-0.011 1.35c-0.0142 1.74 0.157 1.99 0.901 1.3zm55.5-1.59c0.272-0.146 0.391-0.427 0.274-0.646-0.137-0.256-0.278-0.232-0.278 0.0486 0 0.293-0.313 0.429-0.757 0.329-0.87-0.196-1.47-1.12-1.03-1.6l0.153-0.169h-0.243c-0.297 0-0.469 0.281-0.391 0.637 0.174 0.794 1.68 1.72 2.28 1.4zm-0.199-1.11 0.315-0.464-0.245-0.484c-0.254-0.503-0.303-0.713-0.164-0.713 0.0446 0 0.104 0.117 0.133 0.26 0.0286 0.143 0.13 0.356 0.224 0.473l0.172 0.213 0.389-0.505c0.428-0.555 0.455-0.642 0.25-0.812-0.0764-0.0634-0.137-0.183-0.134-0.266 4e-3 -0.117 0.0378-0.104 0.15 0.0576 0.195 0.28 0.385 0.262 0.793-0.0731l0.342-0.282-0.0808-0.212c-0.0449-0.118-0.0456-0.269-2e-3 -0.34 0.0602-0.0974 0.102-0.0678 0.175 0.123 0.15 0.394 1 0.0913 1.12-0.397l0.056-0.231 0.227 0.417h0.364c0.277 0 0.448-0.0719 0.714-0.301 0.193-0.166 0.294-0.229 0.224-0.14-0.237 0.303-0.0666 0.441 0.544 0.441h0.563l0.459-0.429c0.653-0.611 0.556-0.775-0.46-0.775-0.187 0-0.386-0.0454-0.441-0.101-0.0647-0.0647-0.329-0.0811-0.736-0.0456-0.349 0.0304-0.799 0.0554-0.999 0.0555-0.545 3.4e-4 -1.01 0.154-1.25 0.413-0.16 0.17-0.249 0.206-0.335 0.134-0.221-0.184-1.08 0.385-1.25 0.827l-0.0843 0.218-0.258-0.214-0.321 0.282c-0.177 0.155-0.372 0.405-0.434 0.556-0.0624 0.151-0.211 0.338-0.331 0.416-0.264 0.173-0.968 1.33-0.968 1.59 0 0.213 0.193 0.414 0.602 0.627 0.364 0.19 0.325 0.208 0.685-0.323zm-43.3-4e-3c0.738-0.648 1.23-2.26 1.31-4.3 0.0848-2.12-0.0538-2.39-0.833-1.59-0.9 0.922-1.37 2.42-1.39 4.46-0.0191 1.8 0.16 2.08 0.91 1.43zm-46.6-0.384c0.175-0.318 0.495-0.987 0.711-1.49 0.51-1.18 0.565-1.24 1.38-1.46 1.33-0.367 1.37-0.54 0.0632-0.288-1.1 0.212-1.01 0.113-1.79 1.91-0.881 2.02-1.01 2.51-0.36 1.32zm17.9-3.22 0.161-2.73 0.151-0.147c0.0829-0.0808 0.558-0.305 1.06-0.498 0.804-0.312 1.17-0.513 0.922-0.513-0.196 0-2.29 0.655-2.38 0.744-0.0948 0.0946-0.252 5.69-0.165 5.86 0.0765 0.151 0.0929-0.0261 0.252-2.72zm5.47 2.3c0.0798-0.154 0.126-0.3 0.103-0.323-0.0445-0.0445-0.434 0.543-0.434 0.655 0 0.131 0.191-0.0605 0.332-0.332zm5.69-1.65c0.722-3.11 2.31-5.84 4.09-7.05 0.648-0.44 0.766-0.603 0.293-0.406-1.27 0.53-2.56 1.97-3.46 3.88-0.689 1.46-1.3 3.56-1.29 4.44l7e-3 0.48 0.0749-0.232c0.0412-0.127 0.167-0.627 0.279-1.11zm38.7 0.116c0.257-0.69 0.784-1.4 1.13-1.52 0.224-0.078 0.397-0.355 0.222-0.355-0.577 0-1.51 1.15-1.76 2.15-0.122 0.501 0.201 0.282 0.409-0.278zm6.12-0.841c0.539-0.348 1.56-1 2.28-1.45s1.84-1.16 2.5-1.57c4.18-2.64 8.42-4.93 10.7-5.82 1-0.381 1.02-0.468 0.101-0.553-6.61-0.617-9.91-0.958-10-1.04-0.149-0.0918-0.0276-0.216 1.66-1.71 3.63-3.19 8.14-6.77 10.2-8.05 0.264-0.167 0.529-0.364 0.59-0.437l0.111-0.134h-0.205c-0.113 0-0.623 0.0851-1.13 0.189-0.511 0.104-1.39 0.27-1.96 0.369-0.57 0.0989-3.03 0.573-5.48 1.05-2.44 0.48-4.64 0.902-4.88 0.938l-0.44 0.0648 3e-3 -0.126c3e-3 -0.119 0.657-0.924 2.03-2.5 0.331-0.38 1.25-1.44 2.04-2.35 1.78-2.06 3.12-3.56 5.59-6.28 1.06-1.16 1.91-2.14 1.88-2.17-0.026-0.026-1.63 0.748-3.55 1.72-3.23 1.63-4.51 2.24-7.71 3.72-2.2 1.01-4.43 2.12-6.65 3.28-2.41 1.26-2.33 1.23-2.33 1.04 0-0.138 1.88-5.05 2.68-6.99 0.259-0.633 0.451-1.17 0.425-1.2-0.0519-0.0519-0.0369-0.0647-1.62 1.38-1.42 1.29-2.17 1.96-4.21 3.74-0.866 0.757-2.37 2.11-3.33 3.01-0.968 0.898-2.35 2.18-3.08 2.86-1.34 1.24-1.55 1.39-1.47 1.01 0.339-1.57 2-8.05 2.7-10.5 0.136-0.484 0.266-1 0.288-1.16l0.04-0.278-0.538 0.557c-3.81 3.94-8.65 10.7-12.6 17.5-0.516 0.889-0.51 0.904 0.438 1.15 1.28 0.33 2.22 1.14 3.07 2.65 0.365 0.65 0.392 0.577 0.535-1.47 0.0968-1.38 0.196-1.79 0.495-2.04 0.112-0.0933 3.78-1.02 4.55-1.16 0.303-0.0514 0.629 0.229 0.839 0.72 0.0653 0.153 0.33 0.541 0.588 0.862l0.469 0.583 0.11 0.679c0.219 1.36 0.259 1.3 0.825-1.23 0.528-2.36 0.539-2.38 1-2.51 1.09-0.304 4.12-1.02 4.32-1.02 0.241 0 0.406 0.175 0.917 0.972 0.163 0.255 0.359 0.463 0.436 0.463h0.139v-1.52l0.487-0.488 2.02-0.5c2.61-0.645 2.69-0.641 3.09 0.142 0.0641 0.124 0.363 0.536 0.665 0.915l0.548 0.69-0.0489 0.243c-0.202 1-1.16 8.92-1.4 11.5-0.103 1.14-0.204 1.81-0.285 1.91-0.171 0.2-0.161 0.255 0.119 0.659 0.322 0.465 0.366 0.457 1.51-0.281zm23.7 0.419c0.351-0.213 0.711-0.654 0.712-0.874 4.2e-4 -0.0788-0.163-0.116-0.513-0.116h-0.513l-0.459 0.429c-0.522 0.488-0.569 0.653-0.204 0.708 0.517 0.0783 0.633 0.0609 0.977-0.148zm-56.6-1.7c0.748-3.55 2.22-6.2 4.22-7.6 0.778-0.545 0.834-0.743 0.109-0.381-2.03 1.01-3.8 3.99-4.48 7.52-0.353 1.83-0.225 2.23 0.148 0.465zm12.1-2.25c0.0574-0.739 0.186-2.11 0.285-3.06 0.0994-0.942 0.234-2.23 0.299-2.87l0.118-1.16 0.831-0.239c0.457-0.131 0.956-0.307 1.11-0.39l0.278-0.151-0.179-4e-3c-0.237-5e-3 -2.21 0.462-2.3 0.545-0.0386 0.0354-0.11 0.583-0.16 1.22-0.0491 0.634-0.196 2.51-0.327 4.16-0.131 1.66-0.255 3.47-0.277 4.03l-0.0391 1.02 0.128-0.88c0.0704-0.484 0.175-1.48 0.232-2.22zm8.07-5.93c0.354-1.4 0.688-2.68 0.741-2.85l0.0964-0.3 0.502-0.139c1.23-0.341 1.48-0.421 1.61-0.508l0.139-0.092-0.185-2e-3c-0.262-2e-3 -2.2 0.476-2.33 0.574-0.0593 0.0451-0.214 0.549-0.345 1.12-0.13 0.57-0.467 2.04-0.749 3.27-0.884 3.85-0.557 3.17 0.517-1.07zm7.2-1.92c7e-3 -2 0.0392-2.72 0.121-2.77 0.0613-0.0379 0.53-0.212 1.04-0.387 0.807-0.276 1.48-0.604 0.93-0.45-0.102 0.0283-0.623 0.142-1.16 0.254-0.535 0.111-1.05 0.241-1.14 0.289l-0.166 0.0866 0.0537 2.61c0.0295 1.44 0.0816 2.96 0.116 3.4l0.0621 0.787 0.0638-0.556c0.0351-0.306 0.0683-1.77 0.0738-3.26zm-61.5 63.9c-0.548-0.458-0.996-0.89-0.996-0.961 0-0.217 7.69-8.76 7.89-8.76 0.122 0 0.0089 0.216-1.57 3.01-0.838 1.48-2.08 3.69-2.75 4.91-0.676 1.22-1.31 2.32-1.4 2.43l-0.17 0.206zm5.21-0.653c0-0.056-0.0678-0.245-0.151-0.42l-0.151-0.318 0.859-1.83c1.24-2.64 1.69-3.51 1.73-3.38 0.049 0.142-1.24 3.98-1.67 4.99-0.172 0.4-0.338 0.799-0.369 0.888-0.0616 0.178-0.247 0.223-0.247 0.0603zm-25-10.2c-0.161-0.557-0.292-1.09-0.292-1.19 0-0.247 8.16-6.05 8.31-5.91 0.0299 0.0299-0.255 0.379-0.633 0.775-2.39 2.51-4.56 4.79-5.67 5.98-0.707 0.751-1.31 1.37-1.35 1.37-0.0359 0-0.197-0.456-0.357-1.01zm110-10.6c-3.02-1.63-5.74-3.46-5.51-3.7 0.136-0.142 5.2 3.13 6.24 4.03 0.168 0.145 9.7e-4 0.071-0.736-0.327zm-4.73-0.853c-0.554-0.334-1.2-0.794-1.42-1.02l-0.417-0.414 0.479 0.198c0.555 0.229 2.66 1.85 2.4 1.85-0.0189 0-0.488-0.274-1.04-0.608zm11.1-7.95c-3.02-1.11-5.07-2.01-6.09-2.68-0.824-0.543-0.797-0.633 0.0943-0.311 0.344 0.124 0.777 0.275 0.962 0.335 0.403 0.13 6.01 2.86 6.01 2.93 0 0.0778-0.11 0.0474-0.972-0.269zm2.87-1.42c-0.385-0.0958-5.12-1.6-5.79-1.83-0.735-0.262-2.08-0.957-2-1.03 0.0431-0.0431 0.762 0.142 2.05 0.528 0.699 0.209 5.6 2.07 5.95 2.26 0.253 0.137 0.164 0.172-0.205 0.0799zm-23.2-18.2-0.136-0.0859 0.228-0.0885c0.126-0.0487 0.449-0.176 0.718-0.283 0.269-0.107 0.557-0.195 0.639-0.195h0.15l-0.168 0.185c-0.0922 0.102-0.225 0.185-0.296 0.185-0.0705 0-0.292 0.0833-0.491 0.185-0.41 0.209-0.456 0.216-0.645 0.0965zm-88.1-14c-2.33-1.32-4.82-2.87-5.46-3.4-1.15-0.961-1.66-1.43-1.62-1.48 0.107-0.107 1.22 0.168 1.45 0.36 0.137 0.112 0.916 0.677 1.73 1.26 1.42 1.01 4.76 3.5 5.04 3.76 0.285 0.265-0.0877 0.103-1.16-0.502zm97.8-2.22c0.121-0.195 2.08-0.945 3.35-1.28 1.77-0.469 2.27-0.586 2.27-0.536 0 0.131-3.48 1.41-4.35 1.6-0.433 0.0946-0.908 0.203-1.06 0.24-0.179 0.0453-0.249 0.0355-0.208-0.0296zm-3.52-0.468c0.121-0.195 2.96-1.61 4.06-2.02 2.6-0.971 9.93-3.56 10.1-3.55 0.453 0.0302-9.89 4.31-12.2 5.05-2.02 0.647-1.99 0.637-1.92 0.524zm-78.5-6.57c-1.3-1.11-6.22-5.38-6.55-5.69l-0.183-0.172 0.141-0.233c0.258-0.426 1.3-1.62 1.42-1.62 0.0625 0 0.611 0.677 1.22 1.5s2.05 2.75 3.19 4.28c2.75 3.65 2.72 3.59 0.763 1.93z" fill="#f91012"/><path d="m142 187c-1.38-0.828-3.21-1.92-4.07-2.42s-1.76-1.03-1.99-1.17c-2.06-1.25-7.42-4.07-7.74-4.07-0.898 0-3.24 2.98-4.91 6.25-0.993 1.94-0.944 1.86-1.01 1.79-0.0263-0.0263-0.108-1.9-0.182-4.16-0.0736-2.26-0.162-4.77-0.196-5.57l-0.0618-1.46-0.196-0.0429c-0.108-0.0236-0.777-0.108-1.49-0.186l-1.29-0.143-0.069 0.112c-0.099 0.16-0.186 1.49-0.255 3.88-0.0437 1.52-0.09 2.08-0.17 2.08-0.0607 0-0.745-0.938-1.52-2.08-0.775-1.15-1.79-2.6-2.26-3.24l-0.845-1.16-0.32-0.0671c-0.176-0.0369-0.902-0.0994-1.61-0.139l-1.29-0.0718-0.747-2.46-0.447-0.316c-1.03-0.732-2.35-1.29-3.3-1.4-3.67-0.419-7.61 4.65-10.5 13.4-0.312 0.962-0.601 1.78-0.642 1.83-0.0414 0.0414-0.249-0.979-0.46-2.27-1.16-7.03-2.57-10.1-5.17-11.1l-0.539-0.215-2.41 6e-3 -0.926 0.302c-3.24 1.05-7.11 3.7-11.8 8.06-0.78 0.726-1.44 1.29-1.48 1.26-0.0319-0.0319 0.0967-0.693 0.286-1.47 2.15-8.83 1.03-13.6-3.55-15l-0.695-0.217-3.06 8e-3 -1.1 0.258c-1.62 0.379-2.76 0.799-5.54 2.03-0.644 0.285-0.631 0.243 0.492-1.61 5.03-8.3 3.62-11.9-4.78-12.2-1.96-0.0698-1.96-0.0678-0.591-0.817 7.17-3.93 10.1-8.01 9.21-12.8-0.774-4.05-4.55-9.57-9.59-14-0.788-0.693-0.779-0.694 1.45-0.254 10.7 2.13 17.3 1.93 19-0.575 1.65-2.44 0.44-6.37-3.87-12.5-0.499-0.713-0.868-1.31-0.818-1.33 0.0493-0.0164 0.727 0.362 1.51 0.842 5.54 3.41 10.4 5.49 13.7 5.91 5.28 0.658 6.72-5.05 3.99-15.8-0.48-1.9-0.493-2.08-0.114-1.63 3.15 3.71 7 6.98 9.89 8.38 6.06 2.94 9.23 1.06 19.3-11.5 1.47-1.83 1.3-1.83 1.54-0.0064 1.11 8.65 4.27 13 9.43 13h0.736l0.495-0.67c0.717-0.97 2.21-2.82 3.63-4.5 0.677-0.801 1.89-2.26 2.69-3.24 1.46-1.78 1.69-2.01 1.54-1.53-1.11 3.73-2.47 8.56-2.73 9.68-0.0418 0.185-0.0181 0.272 0.0844 0.311 0.333 0.128 3.19-0.466 3.63-0.755 0.86-0.563 5.77-5.16 8.37-7.84 1.27-1.3 2.09-2.09 2.11-2.01 0.0149 0.0772-0.501 1.37-1.15 2.86-1.74 4.05-2.82 6.84-2.82 7.32 0 0.276 0.196 0.217 1.55-0.462 0.7-0.35 2.38-1.15 3.73-1.77 5.11-2.35 8.13-3.87 13.9-6.99 1.77-0.954 3.27-1.72 3.33-1.7 0.0611 0.0204-0.286 0.451-0.77 0.956-5.55 5.79-12.9 14.3-12.3 14.3 0.0965 0 4.69-0.846 6.74-1.24 0.917-0.177 3.41-0.658 5.53-1.07s3.94-0.748 4.02-0.748c0.248 0 0.0945 0.105-1.5 1.02-4.63 2.67-14.2 10.1-13.1 10.1 0.0206 0 0.594 0.0616 1.27 0.137 3.04 0.336 6.97 0.546 12.9 0.691 1.85 0.0448 3.39 0.103 3.41 0.13 0.0265 0.0265-0.508 0.22-1.19 0.431-6.11 1.89-9.53 3.33-13.2 5.54-0.458 0.278-0.91 0.571-1 0.652l-0.171 0.147 0.2 0.0471c0.365 0.0862 0.205 0.229-0.686 0.612-1.26 0.544-2.9 1.75-2.68 1.98 0.201 0.208 6.54 1.24 8.42 1.36l0.741 0.0511 0.37-0.301c0.511-0.415 1.52-0.884 2.41-1.11l0.741-0.193 2.31 0.0586 0.0286-0.147c0.0167-0.0861-0.185-0.33-0.485-0.586-0.64-0.547-0.638-0.571 0.0423-0.648 0.695-0.0786 0.694-0.0891-0.0994-1.09-0.36-0.456-0.631-0.853-0.602-0.883 0.101-0.101 0.988 0.377 0.938 0.506-0.0264 0.0687 0.259 0.456 0.645 0.875 0.876 0.952 0.876 0.945 0.0767 0.914-0.512-0.02-0.553 0.0916-0.168 0.464 0.176 0.171 0.321 0.381 0.321 0.466 0 0.297 0.275 0.401 1.17 0.44 0.83 0.0363 1.08 0.123 0.694 0.245-0.0968 0.0307-0.199 0.148-0.228 0.261-0.0283 0.113-0.119 0.288-0.202 0.39l-0.15 0.185 0.0644-0.185c0.0354-0.102 0.0853-0.258 0.111-0.347l0.0466-0.162h-0.524-0.524l-0.459 0.429c-0.507 0.474-0.563 0.633-0.251 0.716 0.418 0.112 0.78 0.0543 1.09-0.173 0.332-0.245 0.482-0.306 0.296-0.12-0.483 0.483 0.731 0.452 1.25-0.0325 0.119-0.112 0.217-0.162 0.217-0.112 0 0.307-0.715 0.731-1.39 0.821l-0.506 0.0684-0.447 0.475c-0.246 0.261-0.532 0.589-0.635 0.73l-0.188 0.255h0.144c0.0793 0 0.363-0.0833 0.631-0.185 0.268-0.102 0.498-0.185 0.51-0.185 0.0925-1.8e-4 -0.0205 0.369-0.255 0.833-0.153 0.303-0.278 0.615-0.278 0.694v0.143l0.39-0.199c0.215-0.11 0.604-0.36 0.865-0.558 0.708-0.534 0.697-0.553 0.628 1.03-0.0781 1.81-0.0936 1.81 0.957-0.137 0.275-0.508 0.535-0.96 0.578-1 0.0432-0.0432 0.407 0.216 0.807 0.577 0.9 0.809 0.956 0.789 0.96-0.34 1e-3 -0.355 0.133-0.382 0.448-0.0926l0.227 0.208-0.0594-0.388c-0.0834-0.545-0.0803-0.545 1.51 0.167 1.74 0.776 1.77 0.771 0.966-0.154-1.5-1.72-1.51-1.7 0.656-1.29 0.356 0.0671 0.668 0.101 0.694 0.0746 0.0564-0.0564-0.585-0.631-1.3-1.16-1.27-0.949-1.28-0.866 0.208-1.62l1.23-0.623-0.509-0.0635c-0.28-0.0349-0.843-0.0682-1.25-0.074-0.407-6e-3 -0.803-0.0498-0.879-0.0977l-0.138-0.0872 0.31-0.32c0.171-0.176 0.282-0.367 0.246-0.424-0.0357-0.0577 0.193-0.399 0.517-0.772 0.843-0.97 0.857-0.989 0.796-1.05-0.0305-0.0306-0.773 0.264-1.65 0.654-1.7 0.755-1.79 0.767-1.65 0.19 0.0496-0.204 0.129-0.579 0.177-0.833 0.0479-0.255 0.172-0.873 0.276-1.37 0.218-1.05 0.21-0.987 0.115-0.987-0.0404 0-0.339 0.365-0.664 0.81-1.55 2.12-1.42 2.05-1.85 1.03l-0.316-0.752-0.123 0.168c-0.0675 0.0923-0.149 0.364-0.18 0.603-0.0317 0.239-0.0952 0.492-0.141 0.563l-0.0834 0.128-0.324-0.347c-0.431-0.461-0.507-0.439-0.507 0.147 0 0.714-0.0468 0.705-0.933-0.177-0.952-0.947-1.01-0.918-0.59 0.292 0.176 0.505 0.301 0.969 0.278 1.03-0.0482 0.127-1.2-0.35-1.44-0.595l-0.139-0.142 0.278 0.0559c0.153 0.0307 0.372 0.0826 0.486 0.115l0.208 0.0593v-0.2c0-0.11-0.189-0.704-0.419-1.32-0.554-1.48-0.568-1.48 0.872-0.192 0.414 0.369 0.814 0.671 0.891 0.671h0.138v-0.556c0-0.667 0.0587-0.682 0.543-0.131 0.47 0.534 0.503 0.509 0.758-0.566 0.256-1.08 0.288-1.07 0.775 0.145 0.221 0.552 0.441 0.969 0.511 0.969 0.0968 0 1.59-2.04 2.61-3.57 0.284-0.426 0.265-0.121-0.105 1.68-0.469 2.28-0.472 2.4-0.0413 2.08 0.317-0.24 0.419-0.178 0.356 0.217-0.0976 0.61-0.0883 0.608 2.31-0.539 0.553-0.264 1.02-0.463 1.04-0.441 0.0371 0.0371-0.535 0.746-1.56 1.94-0.489 0.567-0.505 0.607-0.288 0.766l0.152 0.111-0.342 0.261c-0.498 0.38-0.352 0.432 1.4 0.498 1.85 0.0694 1.85 0.0689 0.29 0.808-1.4 0.661-1.46 0.709-1.25 0.946 0.202 0.223 0.196 0.296-0.0245 0.296-0.498 0-0.332 0.184 1.41 1.56 1.41 1.12 1.43 1.17 0.324 0.876-0.829-0.219-2.2-0.353-2.2-0.215 0 0.0371 0.0625 0.119 0.139 0.183 0.0764 0.0634 0.139 0.165 0.139 0.225 0 0.0605 0.354 0.538 0.787 1.06 1.05 1.27 1.05 1.27-0.278 0.657-2.92-1.34-2.87-1.33-2.72-0.617 0.119 0.556 0.0554 0.628-0.275 0.311-0.417-0.399-0.48-0.334-0.48 0.493 0 0.901 0.0694 0.903-0.94-0.0231-0.458-0.42-0.902-0.764-0.986-0.764-0.122 0-1.94 3.02-2.18 3.61-0.121 0.306-0.152-0.199-0.0883-1.47 0.0794-1.59 0.0756-1.63-0.132-1.63-0.109 0-0.13-0.0652-0.088-0.274l0.0547-0.274-0.157 0.0604c-0.0866 0.0332-0.592 0.324-1.12 0.646-1.18 0.713-1.17 0.717-0.529-0.404 0.725-1.27 0.731-1.25-0.342-0.911-1.13 0.36-1.13 0.35-0.251-0.63 0.769-0.855 0.749-0.77 0.226-0.994-0.232-0.0996-0.485-0.244-0.562-0.321-0.331-0.331-1.98 0.455-3.88 1.85-0.0794 0.0582-0.202 0.0446-0.36-0.0398-0.61-0.326-0.454 0.0706 0.332 0.849 0.893 0.884 1.31 1.61 1.32 2.31l7e-3 0.43-0.634 0.913c-1.72 2.48-2.05 2.68-3.79 2.29-2.45-0.545-4.91-2.79-5.04-4.61l-0.0347-0.475 0.63-0.894c0.347-0.492 0.812-1.18 1.03-1.54 0.686-1.09 1.32-1.24 2.94-0.682 0.463 0.159 0.878 0.289 0.923 0.289 0.082 0 0.961-1.14 0.961-1.25 0-0.0312-1.01-0.0512-2.25-0.0444-2.2 0.0122-3.74-0.0899-7.85-0.519-1.96-0.205-2.13-0.235-2.13-0.37 0-0.153 0.853-0.785 1.06-0.785 0.21 0 0.701-0.261 0.701-0.373 0-0.0496-0.0481-0.0902-0.107-0.0902-0.06 0-0.032-0.0829 0.0638-0.189 0.128-0.141 0.237-0.174 0.435-0.131 0.172 0.0378 0.344 5e-3 0.495-0.0932 0.253-0.166 0.224-0.328-0.0585-0.328-0.22 0-0.226-0.0727-0.026-0.294 0.52-0.575-0.308-0.158-5.83 2.93-1.54 0.862-1.54 0.859-1.32 1.38 0.176 0.421 0.182 1.61 0.0114 2.27l-0.128 0.492 0.29 0.177c0.159 0.0971 0.328 0.19 0.376 0.206 0.144 0.0487-3e-3 0.291-0.26 0.429l-0.243 0.13-0.465-0.249-0.485 0.521c-0.626 0.671-1.36 1.02-2.16 1.03l-0.565 6e-3 -0.484-0.301c-0.614-0.382-0.657-0.378-0.657 0.0581 0 0.502-0.0117 0.508-2.31 1.07-2.4 0.586-2.14 0.619-2.92-0.369-0.815-1.03-0.877-1.02-1.11 0.238-0.211 1.11-0.153 1.06-1.7 1.43-1.14 0.267-1.04 0.295-1.66-0.482-0.269-0.341-0.636-0.786-0.815-0.989l-0.326-0.368-0.0864 0.137c-0.0476 0.0752-0.0871 0.561-0.0879 1.08-2e-3 1.49 0.159 1.37-2.96 2.11l-1.43 0.339-0.372-0.4c-0.205-0.22-0.486-0.539-0.626-0.708-0.312-0.378-0.267-0.397-1.04 0.447-2.81 3.08-6.86 3.19-8.69 0.233-0.451-0.731-0.923-1.34-1.03-1.34-0.0548 0-0.285 0.406-0.511 0.903-2.57 5.65-7.79 7.24-10.5 3.21-0.205-0.301-0.46-0.625-0.567-0.722l-0.195-0.175-0.0609 0.175c-1.24 3.57-3.24 4.89-9.53 6.34-0.713 0.164-2.23 0.521-3.36 0.795-2.62 0.632-2.36 0.655-3.1-0.273-0.336-0.424-0.675-0.824-0.753-0.889-0.0784-0.0651-0.17-0.27-0.203-0.456-0.109-0.603-0.0756-0.596-1.35-0.279l-0.344 0.0855-0.104 0.387c-0.0574 0.213-0.185 0.806-0.283 1.32-0.329 1.71-0.151 1.56-2.38 2.08-4.88 1.15-5.98 1.39-6.13 1.35-0.309-0.0982-1.67-1.89-1.86-2.44-0.288-0.841-0.573-1.49-0.654-1.49-0.096 0-0.076-0.263-0.164 2.15-0.0581 1.6-0.109 2.16-0.214 2.32l-0.137 0.209-2.12 0.532c-2.56 0.643-2.34 0.643-2.88 0.0118-0.245-0.285-0.623-0.724-0.839-0.976l-0.394-0.457 0.0023-1.09c0.0013-0.597 0.0823-3.44 0.18-6.32 0.172-5.05 0.16-5.73-0.0848-5.08-1.13 3.02-3.04 5.17-6.27 7.07-0.995 0.585-1.07 0.66-0.713 0.741 1.3 0.297 1.86 0.478 2.62 0.848l0.88 0.429 0.703 0.701c1.79 1.78 1.94 4.03 0.511 7.2-0.494 1.09-0.513 1.07 0.638 0.904 6.16-0.875 10.3 2.07 10.8 7.74l0.113 1.21-0.11 1.27c-0.0605 0.7-0.195 1.77-0.299 2.37-0.104 0.605-0.169 1.12-0.144 1.14 0.0246 0.0246 0.6-0.465 1.28-1.09 9.79-9 15.7-8.49 17.9 1.58 0.49 2.2 0.445 2.14 0.833 1.05 2.07-5.84 5.13-9.54 8.33-10.1l0.799-0.138 0.849 0.146c1.01 0.174 2.05 0.638 2.99 1.33l0.648 0.478 0.0298-0.189c0.0265-0.168-0.214-1.11-1.55-6.07-0.192-0.713-0.379-1.42-0.415-1.57l-0.0656-0.278 0.161 0.158c0.0884 0.0868 1.33 2.48 2.76 5.33l2.6 5.17 0.417 0.0739c0.447 0.0792 7.01 1.45 9.31 1.94l1.39 0.299 0.0821 3.45c0.086 3.62 0.109 3.77 0.471 3.15 0.868-1.48 3.51-4.14 4.12-4.14 0.302 0 4.66 2.72 8.02 4.99 1.05 0.714 1.31 0.853 1.24 0.67-0.0291-0.0762-2.02-2.35-3.13-3.58-0.28-0.309-0.989-1.1-1.57-1.76s-1.52-1.7-2.08-2.3-1.29-1.4-1.63-1.77l-0.611-0.666 0.087-1.96-0.742-1.28c-0.408-0.705-0.913-1.55-1.12-1.88-0.21-0.331-0.569-0.915-0.8-1.3-0.57-0.945-0.738-1.15-0.895-1.09-0.0733 0.0281-0.81 1.39-1.64 3.02-0.828 1.64-1.54 2.97-1.58 2.97-0.0437 0-0.229-0.448-0.412-0.996-1.03-3.07-1-3.03-1.44-2.34-0.376 0.586-0.582 0.587-0.648 4e-3l-0.0463-0.411-0.324-0.0832c-0.454-0.116-0.556-0.227-0.556-0.599v-0.325l-0.331-0.312c-0.184-0.173-0.428-0.312-0.55-0.312-0.335 0-0.43-0.484-1.12-5.65-0.101-0.759 0.112-0.272 0.465 1.07 0.188 0.713 0.4 1.48 0.47 1.71 0.0703 0.229 0.216 0.802 0.325 1.27 0.231 1 0.318 1.09 0.639 0.665 0.131-0.174 0.441-0.535 0.689-0.801l0.451-0.484-0.515-1.6c-0.583-1.81-1.54-4.93-1.6-5.21l-0.0387-0.185 0.09 0.185c0.0495 0.102 0.594 1.56 1.21 3.24 1.5 4.09 2.99 7.92 3.08 7.92 0.0413 0 0.727-1.31 1.52-2.92 0.797-1.61 1.49-2.9 1.55-2.89 0.0547 0.0181 0.499 0.676 0.988 1.46 0.489 0.785 1.32 2.12 1.84 2.96s1.31 2.12 1.75 2.85c0.438 0.725 0.838 1.3 0.889 1.29 0.0601-0.0188 0.0817-1.12 0.0615-3.14-0.0294-2.93 2e-3 -3.68 0.158-3.68 0.0769 0 0.623 0.66 2.68 3.24 2.85 3.57 4.29 5.29 5.42 6.46 0.699 0.722 0.692 0.782 0.172-1.64-0.159-0.739-0.33-1.7-0.381-2.13-0.0509-0.433-0.117-0.891-0.148-1.02l-0.0553-0.232 0.215 0.241c0.118 0.132 0.444 0.409 0.724 0.615 0.687 0.505 3.06 2.95 7.73 7.96 0.864 0.927 1.59 1.67 1.61 1.65 0.0721-0.0721-3.74-5.87-6.57-9.97-1.82-2.65-1.9-2.77-1.76-2.77 0.0516 0 1.5 0.689 3.22 1.53 1.72 0.842 3.18 1.52 3.26 1.5 0.08-0.0158-0.68-0.972-1.93-2.43-4.74-5.53-8.98-10.4-10.9-12.4-3.11-3.39-3-3.18-1.4-2.74 0.46 0.126 1.59 0.434 2.5 0.685 0.917 0.251 2.33 0.65 3.14 0.887s1.53 0.419 1.61 0.403c0.153-0.0297-0.862-0.926-2.29-2.02-1.42-1.09-2.54-1.97-3.34-2.64-0.433-0.361-1.13-0.942-1.55-1.29-1.05-0.877-1.04-0.884 1.23-0.694 0.56 0.0471 1.98 0.149 3.15 0.227 1.17 0.078 2.54 0.183 3.04 0.234 1.15 0.115 1.91 0.118 1.91 6e-3 0-0.115-1.09-1.05-2.55-2.18-1.54-1.2-2.36-1.9-2.36-2.01 0-0.106 6.88-0.0778 7.06 0.0291 0.088 0.0544 0.0689 0.134-0.079 0.331l-0.195 0.259-0.313-0.0124c-2.84-0.112-4.99-0.141-4.99-0.0664 0 0.0493 0.338 0.337 0.751 0.64 1.17 0.858 2.8 2.13 2.98 2.33l0.165 0.183-0.199 0.73c-0.252 0.927-0.297 0.981-0.771 0.921-2.59-0.327-3.68-0.469-5.01-0.655-2.94-0.41-2.97-0.399-1.67 0.625 0.509 0.399 1.55 1.21 2.31 1.81 0.76 0.597 2.14 1.67 3.06 2.39 2 1.56 2.01 1.58 2.27 2.38 0.246 0.752 0.216 0.803-0.35 0.588-0.239-0.0905-1.31-0.471-2.38-0.845-1.07-0.374-2.84-0.998-3.94-1.39-1.1-0.388-2.05-0.694-2.12-0.68-0.0802 0.015 0.341 0.54 1.07 1.33 0.659 0.716 1.86 2.04 2.66 2.94s1.48 1.64 1.49 1.64c0.0157 0 0.294-0.123 0.618-0.274 0.831-0.387 1.56-0.562 2.6-0.625l0.901-0.054 0.859 0.328 0.0753-0.122c0.0419-0.0678 0.0259-0.227-0.0362-0.359-0.0613-0.13-0.311-0.652-0.555-1.16-4.37-9.09 3.64-19.8 13.8-18.5 1.06 0.142 1.04 0.11 0.569 0.727-0.483 0.635-0.539 0.834-0.41 1.45 0.405 1.92 2.28 3.77 4.69 4.62l0.808 0.285 0.926 4e-3c1.16 5e-3 1.33-0.0806 1.99-1.01 0.596-0.841 0.557-0.835 1.01-0.17 5.16 7.6 0.746 18.1-8.42 20.1l-0.966 0.21-3.61-2e-3 -1.11-0.259c-1.38-0.321-3.17-0.971-3.84-1.4-0.28-0.176-0.704-0.425-0.943-0.553-0.618-0.332-3.03-2.59-3.26-3.05-0.105-0.209-0.269-0.393-0.363-0.411l-0.171-0.0317 0.0631 0.217c0.0347 0.119 0.136 0.321 0.226 0.448 0.0896 0.127 0.185 0.425 0.211 0.663 0.0873 0.776 0.802 1.65 1.13 1.38 0.0889-0.0738 0.175-0.0403 0.336 0.131 0.3 0.319 0.263 0.324-0.83 0.11l-0.968-0.19-0.709 0.103c-0.727 0.106-1.53 0.424-1.61 0.64-0.0256 0.0668 0.397 0.632 0.939 1.26 0.542 0.624 1.49 1.74 2.1 2.48 1.17 1.41 2.84 3.36 4.29 5 1.2 1.36 1.18 1.36-0.887 0.243-3.38-1.82-5.78-2.9-5.64-2.54 0.111 0.29 7.43 11.3 9.98 15 0.978 1.43 1.84 2.71 1.92 2.86l0.14 0.266-0.18-0.127c-0.0991-0.0696-1.09-1.13-2.2-2.35-6.59-7.26-11.8-12.8-12-12.6-0.0325 0.0325 0.0547 0.447 0.194 0.921 0.599 2.04 0.661 2.84 0.149 1.93-0.424-0.754-0.473-0.466-0.183 1.08 0.109 0.582 0.167 1.09 0.129 1.13-0.13 0.125-4.48-4.81-6.61-7.51-0.636-0.803-1.2-1.45-1.26-1.43-0.334 0.109-0.558 1.9-0.482 3.86 0.0736 1.9 0.0982 1.98 0.827 2.8 0.327 0.368 2.61 3.09 5.07 6.04 2.46 2.95 5.03 6.03 5.71 6.83 1.04 1.24 1.34 1.65 1.21 1.64-0.0127-9.2e-4 -1.15-0.679-2.52-1.51zm7.88-25.7c-0.0244-0.0395-0.448-0.321-0.941-0.625-6.18-3.82-7.45-12.3-2.7-18.2 0.648-0.797 0.448-0.744-0.366 0.0974-4.64 4.79-4.52 12 0.276 16.5 1.09 1.03 4.11 2.79 3.73 2.17zm-81-5.3c0.861-0.207 1.63-0.425 1.7-0.486l0.139-0.111 0.104-2.87c0.0574-1.58 0.104-3.25 0.103-3.71l-0.0013-0.842 0.212-0.402c0.253-0.479 0.401-0.552 0.525-0.26 0.255 0.596 2.12 5.17 2.5 6.14 0.531 1.34 0.274 1.27 2.53 0.717 1.03-0.253 2.58-0.619 3.44-0.813l1.56-0.352 0.0729-0.192c0.0401-0.105 0.205-0.816 0.366-1.58 0.356-1.69 0.145-1.51 2.34-2.04 2.16-0.53 1.96-0.624 2.2 1.03 0.228 1.55 0.22 1.52 0.461 1.52 0.305 0 3.18-0.76 3.31-0.874l0.115-0.103-0.132-0.738c-0.124-0.693-0.572-3.12-1.31-7.08-0.442-2.38-1.78-9.76-1.87-10.3l-0.0742-0.463-0.186-0.027c-0.301-0.0435-3.87 0.874-3.95 1.01-0.0358 0.069-0.468 1.83-0.961 3.92s-1.08 4.55-1.31 5.46c-0.42 1.71-0.708 2.92-1.7 7.13-0.697 2.97-0.732 3.1-0.826 3.1-0.042 0-0.421-0.802-0.842-1.78s-1.31-2.97-1.97-4.42c-0.663-1.45-1.2-2.7-1.2-2.78 0.0032-0.0777 0.494-1.18 1.09-2.45 2.44-5.2 3.31-7.15 3.24-7.27-0.0233-0.0377-0.387 0.013-0.808 0.113-0.421 0.0998-1.22 0.279-1.77 0.398-1.27 0.272-0.962-0.174-2.93 4.31-0.927 2.11-1.71 3.88-1.73 3.92-0.162 0.266-0.176-0.456-0.0686-3.55 0.0663-1.91 0.0925-3.5 0.0582-3.54-0.0343-0.0345-0.854 0.136-1.82 0.378l-1.76 0.441-0.0618 1.01c-0.034 0.556-0.108 2.95-0.164 5.32-0.0565 2.37-0.167 6.32-0.246 8.78-0.132 4.12-0.131 4.74 0.0054 4.74 0.0265 0 0.752-0.169 1.61-0.376zm14.5-10.7c-0.029-0.0469 0.215-1.33 0.543-2.86 0.327-1.52 0.621-2.94 0.652-3.15 0.0599-0.396 0.182-0.669 0.264-0.587 0.0263 0.0263 0.217 1.13 0.423 2.45 0.206 1.32 0.412 2.63 0.456 2.91 0.111 0.697 0.114 0.694-0.946 0.964-0.519 0.132-1.03 0.265-1.14 0.296-0.109 0.0306-0.222 0.0173-0.251-0.0296zm61.7 5.48c0.056-0.362 0.236-1.08 0.4-1.6l0.298-0.943-0.509-0.502-0.172 0.209c-0.322 0.392-0.53 2.9-0.309 3.72l0.0613 0.229 0.0645-0.229c0.0355-0.126 0.11-0.525 0.166-0.887zm-51.8-0.454c3.06-0.731 4.06-1.11 5.3-2.02 3.24-2.39 3.71-8.33 0.746-9.46-0.497-0.19-0.518-0.229-0.243-0.476 1.58-1.42 2.31-4.86 1.41-6.69-0.913-1.87-2.64-2.1-6.7-0.928-0.892 0.258-1.76 0.508-1.92 0.556-0.452 0.13-0.458 0.169-0.52 3.55-0.0318 1.73-0.101 4.67-0.155 6.53-0.298 10.4-0.311 9.5 0.128 9.4 0.109-0.0243 0.99-0.233 1.96-0.464zm1.21-4.39c-0.121-0.196 0.057-4 0.193-4.13 0.182-0.182 1.47-0.446 1.9-0.389 1.63 0.219 1.67 2.7 0.0709 3.86-0.653 0.473-2.02 0.892-2.16 0.662zm2.66-1.29c0.0891-0.0765 0.162-0.237 0.162-0.356v-0.217h-0.272c-0.308 0-0.421 0.207-0.324 0.593 0.0612 0.244 0.13 0.241 0.434-0.0199zm-2.39-8.27c0.0365-0.973 0.0886-1.83 0.116-1.9 0.0668-0.174 0.889-0.408 1.43-0.408h0.445l0.605 0.54v1.64l-0.392 0.598c-0.494 0.753-1.37 1.29-2.09 1.29h-0.182zm-15.6 9.09c0.467-1.96 0.949-3.98 1.07-4.49 0.122-0.509 0.351-1.47 0.509-2.13 0.791-3.32 1.51-6.13 1.62-6.35 0.167-0.322 0.286-0.365 2.73-0.968 2.35-0.58 2.47-0.587 2.73-0.156 0.103 0.168 0.355 0.522 0.562 0.787 0.206 0.265 0.471 0.619 0.588 0.786l0.213 0.305 0.406 2.43c0.499 2.98 0.584 3.4 0.693 3.4 0.0473 0 0.0866-0.156 0.0872-0.347 6.23e-4 -0.191 0.0433-1.95 0.0948-3.9l0.0936-3.55 0.138-0.267c0.201-0.389 1.27-0.803 4.04-1.56 3.41-0.937 5.65-0.396 6.67 1.61 0.239 0.471 0.829 1.25 0.952 1.25 0.0509 2e-3 0.322-0.486 0.602-1.08 2.47-5.26 7.8-6.71 10.3-2.81 1.06 1.63 1.11 1.65 1.46 0.773 1.3-3.27 3.72-5.37 6.49-5.6l0.278-0.0237 1.02-1.99c0.926-1.81 1.67-3.14 3.07-5.51 0.58-0.98 0.611-0.926-0.604-1.06-4.88-0.554-8.23-4.87-8.91-11.5-0.138-1.33-0.156-1.35-0.7-0.64-9.64 12.6-14.7 13.6-23.4 4.83-0.984-0.992-1.81-1.79-1.83-1.76-0.0222 0.0221 0.0029 0.266 0.0556 0.541 0.253 1.32 0.387 2.7 0.432 4.44l0.0491 1.9-0.152 1.09c-0.51 3.64-1.83 5.51-4.26 6.05l-0.734 0.161-1.3-0.0547c-2.34-0.0983-4.79-0.816-8.57-2.51-1.59-0.714-1.57-0.723-0.976 0.3 4.09 7.09 2.08 11.1-5.79 11.5-2.12 0.101-6.75-0.28-8.95-0.738-1.61-0.334-1.99-0.288-1.39 0.169 0.424 0.323 2.7 2.79 3.55 3.85 1.8 2.25 3.52 5.25 4.12 7.2 0.16 0.522 0.323 0.949 0.363 0.949 0.0399 0 0.103-0.989 0.14-2.2 0.0931-3.01-0.115-2.76 2.83-3.49l2.07-0.516 0.183 0.121c0.101 0.0668 0.416 0.471 0.7 0.898 0.652 0.979 0.676 0.983 0.984 0.165 0.538-1.43 0.78-1.77 1.34-1.88 0.178-0.036 1.1-0.249 2.06-0.473 2.15-0.506 2.14-0.505 2.46-0.0408 0.14 0.202 0.535 0.746 0.879 1.21 0.774 1.04 0.826 0.684-0.499 3.44-2.1 4.37-3.32 7.04-3.32 7.25 0 0.173 1.09 2.62 1.62 3.66 0.226 0.437 0.233 0.414 1.15-3.43zm28.4 1.53c1.09-0.258 2.24-0.947 3.02-1.82 4.17-4.64 4.33-15.6 0.256-17.6l-0.616-0.303-0.835 3e-3c-3.98 0.0128-7.03 4.75-7.24 11.2-0.188 5.78 2.04 9.27 5.42 8.47zm-0.895-4.92c-1.85-0.91-1.66-7.05 0.28-9.16 1.67-1.82 3.35-0.734 3.55 2.29 0.284 4.25-1.75 7.9-3.83 6.87zm1.59-1.13c0.914-0.847 1.64-4.27 1.28-5.99-0.215-1-1.42 0.506-1.92 2.41l-0.244 0.926-0.011 1.35c-0.0142 1.74 0.157 1.99 0.901 1.3zm39.2 5.81c1.72-0.833 3.64-3.95 2.94-4.77l-0.224-0.26-0.448 8e-3c-0.996 0.0175-2.58 1.32-3.31 2.72l-0.361 0.691-0.0858 1.34 0.239 0.239c0.299 0.299 0.689 0.311 1.25 0.0372zm-27.7-2.61c3.36-0.895 5.82-5.36 6.03-10.9 0.157-4.27-0.995-7.34-3.12-8.33l-0.509-0.237-0.695 1.9e-4c-4.31 1e-3 -7.65 5.87-7.22 12.7 0.32 5.07 2.41 7.65 5.52 6.82zm-0.921-4.73c-1.97-0.701-1.92-6.95 0.059-9.1 2.23-2.42 4.21 0.234 3.55 4.76-0.448 3.05-2 4.92-3.6 4.35zm1.46-1.17c0.738-0.648 1.23-2.26 1.31-4.3 0.0848-2.12-0.0538-2.39-0.833-1.59-0.9 0.922-1.37 2.42-1.39 4.46-0.0191 1.8 0.16 2.08 0.91 1.43zm44.2 5.13c0.206-0.293 0.5-0.695 0.652-0.894 0.361-0.471 0.353-0.66-9e-3 -0.241-0.471 0.543-1.2 1.51-1.2 1.59 0 0.204 0.213 0.0288 0.554-0.455zm-37.1-1.27c0.773-0.179 1.44-0.346 1.48-0.371 0.0772-0.0477 0.1-0.307 0.324-3.61 0.429-6.35 0.475-6.8 0.64-6.34 0.148 0.419 1.9 7.82 2.05 8.63 0.0895 0.503 0.182 0.542 0.923 0.387 0.86-0.18 0.805-0.0834 1.33-2.35 0.957-4.13 2.07-8.53 2.14-8.46 0.0626 0.0696 0.159 2.31 0.342 7.92 0.0327 1 0.0879 1.87 0.123 1.93 0.0681 0.11 3.09-0.591 3.32-0.77 0.0847-0.0663 0.106-0.226 0.0695-0.519-0.0473-0.381-0.146-2.31-0.423-8.3-0.178-3.85-0.499-9.22-0.556-9.31-0.0684-0.111-3.59 0.702-3.77 0.87-0.109 0.102-0.386 1.26-1.77 7.42-0.344 1.53-0.662 2.78-0.707 2.78-0.0446 0-0.176-0.542-0.292-1.2-0.564-3.22-1.46-7.88-1.52-7.96-0.0738-0.0832-3.76 0.732-3.9 0.863-0.0387 0.0361-0.109 0.563-0.156 1.17-0.047 0.608-0.255 3.31-0.463 6.01-0.208 2.7-0.501 6.36-0.653 8.14s-0.253 3.27-0.225 3.31c0.0763 0.123 0.197 0.106 1.71-0.244zm32-1.3c0.793-1.15 0.778-1.07 0.339-1.64-0.207-0.269-0.486-0.727-0.619-1.02-0.314-0.686-0.312-0.687-1.02 0.392-0.77 1.18-0.731 1.63 0.244 2.81 0.374 0.453 0.35 0.465 1.05-0.55zm6.51 0.461c0.115-0.0727 0.208-0.197 0.208-0.276v-0.144l-0.238 0.187c-1.2 0.943-4.99-0.976-6.24-3.16-0.154-0.268-0.28-0.422-0.28-0.342-1e-3 0.203 0.601 1.18 0.954 1.55 1.64 1.72 4.54 2.85 5.6 2.18zm-13.7-0.0739c0.655-0.384 0.791-0.913 0.296-1.15l-0.262-0.126-0.394 0.15c-0.455 0.174-0.753 0.46-0.839 0.804-0.134 0.539 0.526 0.716 1.2 0.322zm11.6-1.82c0.272-0.146 0.391-0.427 0.274-0.646-0.137-0.256-0.278-0.232-0.278 0.0486 0 0.293-0.313 0.429-0.757 0.329-0.87-0.196-1.47-1.12-1.03-1.6l0.153-0.169h-0.243c-0.297 0-0.469 0.281-0.391 0.637 0.174 0.794 1.68 1.72 2.28 1.4zm-20.6-0.789c1.64-0.687 2.3-3.4 1.12-4.63-1.28-1.33-3.31 0.255-3.33 2.6l-5e-3 0.741 0.276 0.507c0.446 0.821 1.16 1.11 1.94 0.785zm20.5-0.35 0.274-0.446-0.243-0.481c-0.248-0.49-0.301-0.71-0.171-0.71 0.0398 0 0.128 0.188 0.196 0.418 0.173 0.587 0.261 0.597 0.714 0.0822 0.427-0.485 0.489-0.687 0.268-0.87-0.0764-0.0634-0.137-0.183-0.134-0.266 4e-3 -0.117 0.0378-0.104 0.15 0.0576 0.195 0.28 0.385 0.262 0.793-0.0731l0.342-0.282-0.0808-0.212c-0.0449-0.118-0.0456-0.269-2e-3 -0.34 0.0602-0.0974 0.102-0.0678 0.175 0.123 0.112 0.296 0.116 0.296 0.63 0.0998l0.397-0.152 0.151-0.576 0.225 0.417h0.364c0.277 0 0.448-0.0719 0.714-0.301 0.193-0.166 0.294-0.229 0.224-0.14-0.237 0.303-0.0666 0.441 0.544 0.441h0.563l0.459-0.429c0.653-0.611 0.556-0.775-0.46-0.775-0.187 0-0.386-0.0454-0.441-0.101-0.0647-0.0647-0.329-0.0811-0.736-0.0456-0.349 0.0304-0.799 0.0554-0.999 0.0555-0.545 3.4e-4 -1.01 0.154-1.25 0.413-0.16 0.17-0.249 0.206-0.335 0.134-0.221-0.184-1.08 0.385-1.25 0.827l-0.0843 0.218-0.254-0.211-0.292 0.245c-0.16 0.135-0.355 0.368-0.432 0.517-0.0773 0.149-0.295 0.428-0.483 0.619-0.849 0.862-1.02 1.64-0.459 2.03 0.418 0.292 0.614 0.231 0.932-0.287zm-16.6-3.28c1.01-0.688 6.67-4.22 8.52-5.32 2.79-1.66 5.44-3.02 7.45-3.83 1.23-0.498 1.25-0.563 0.124-0.642-2.14-0.15-9.87-0.963-9.95-1.05-0.292-0.292 7.55-6.72 12.1-9.92 0.758-0.533 0.212-0.453-8.16 1.2-3.69 0.728-5.23 1.02-5.39 1.02-0.238 2.9e-4 -0.0927-0.232 0.787-1.26 0.497-0.581 1.09-1.28 1.32-1.55 1.83-2.17 5.57-6.38 8.54-9.62 0.458-0.499 0.809-0.931 0.779-0.961-0.0293-0.0293-1.59 0.719-3.46 1.66-3.06 1.54-5.67 2.79-9.1 4.37-1.19 0.546-5.59 2.77-6.88 3.47-0.397 0.217-0.746 0.371-0.774 0.343-0.0836-0.0836 0.791-2.44 2.32-6.26 0.438-1.09 0.785-2.02 0.771-2.06-0.0143-0.0428-0.653 0.497-1.42 1.2-1.55 1.42-2.05 1.87-4.39 3.92-0.891 0.781-2.95 2.65-4.57 4.16-1.62 1.51-3.03 2.8-3.13 2.86l-0.172 0.121v-0.237c0-0.286 1.52-6.36 2.36-9.44 0.332-1.21 0.604-2.27 0.604-2.35v-0.146l-0.241 0.225c-1.63 1.51-5.59 6.51-8.16 10.3-2.3 3.37-5.18 8.1-5.1 8.35 0.0175 0.0526 0.386 0.188 0.82 0.3 1.27 0.33 2.22 1.14 3.06 2.65 0.365 0.65 0.392 0.577 0.535-1.47 0.0968-1.38 0.196-1.79 0.495-2.04 0.112-0.0933 3.78-1.02 4.55-1.16 0.303-0.0514 0.629 0.229 0.839 0.72 0.0653 0.153 0.33 0.541 0.588 0.862l0.469 0.583 0.11 0.679c0.219 1.36 0.259 1.3 0.825-1.23 0.528-2.36 0.539-2.38 1-2.51 1.09-0.304 4.12-1.02 4.32-1.02 0.241 0 0.406 0.175 0.917 0.972 0.163 0.255 0.359 0.463 0.436 0.463h0.139v-1.52l0.487-0.488 2.02-0.5c2.61-0.645 2.69-0.641 3.09 0.142 0.0641 0.124 0.363 0.536 0.665 0.915l0.548 0.69-0.0489 0.243c-0.202 1-1.16 8.92-1.4 11.5-0.103 1.14-0.204 1.81-0.285 1.91-0.171 0.2-0.161 0.255 0.119 0.659 0.29 0.419 0.426 0.434 0.915 0.102zm-4.26-2.63c0.204-0.0537 0.586-0.158 0.849-0.231l0.479-0.134 0.0538-0.254c0.0296-0.14 0.178-1.38 0.33-2.75 0.152-1.38 0.463-4.08 0.691-6.02 0.234-1.99 0.379-3.55 0.334-3.6-0.0696-0.0696-2.26 0.393-3.39 0.713l-0.37 0.106 0.02 1.9c0.0296 2.81 0.212 9.72 0.266 10.1 0.0519 0.334 0.14 0.359 0.733 0.202zm-62.2 54.7c-0.548-0.458-0.996-0.89-0.996-0.961 0-0.217 7.69-8.76 7.89-8.76 0.122 0 0.0089 0.216-1.57 3.01-0.838 1.48-2.08 3.69-2.75 4.91-0.676 1.22-1.31 2.32-1.4 2.43l-0.17 0.206zm5.21-0.653c0-0.056-0.0678-0.245-0.151-0.42l-0.151-0.318 0.859-1.83c1.24-2.64 1.69-3.51 1.73-3.38 0.049 0.142-1.24 3.98-1.67 4.99-0.172 0.4-0.338 0.799-0.369 0.888-0.0616 0.178-0.247 0.223-0.247 0.0603zm-25-10.2c-0.161-0.557-0.292-1.09-0.292-1.19 0-0.247 8.16-6.05 8.31-5.91 0.0299 0.0299-0.255 0.379-0.633 0.775-2.39 2.51-4.56 4.79-5.67 5.98-0.707 0.751-1.31 1.37-1.35 1.37-0.0359 0-0.197-0.456-0.357-1.01zm110-10.6c-3.02-1.63-5.74-3.46-5.51-3.7 0.136-0.142 5.2 3.13 6.24 4.03 0.168 0.145 9.7e-4 0.071-0.736-0.327zm-4.73-0.853c-0.554-0.334-1.2-0.794-1.42-1.02l-0.417-0.414 0.479 0.198c0.555 0.229 2.66 1.85 2.4 1.85-0.0189 0-0.488-0.274-1.04-0.608zm11.1-7.95c-3.02-1.11-5.07-2.01-6.09-2.68-0.824-0.543-0.797-0.633 0.0943-0.311 0.344 0.124 0.777 0.275 0.962 0.335 0.403 0.13 6.01 2.86 6.01 2.93 0 0.0778-0.11 0.0474-0.972-0.269zm2.87-1.42c-0.385-0.0958-5.12-1.6-5.79-1.83-0.735-0.262-2.08-0.957-2-1.03 0.0431-0.0431 0.762 0.142 2.05 0.528 0.699 0.209 5.6 2.07 5.95 2.26 0.253 0.137 0.164 0.172-0.205 0.0799zm-23.2-18.2-0.136-0.0859 0.228-0.0885c0.126-0.0487 0.449-0.176 0.718-0.283 0.269-0.107 0.557-0.195 0.639-0.195h0.15l-0.168 0.185c-0.0922 0.102-0.225 0.185-0.296 0.185-0.0705 0-0.292 0.0833-0.491 0.185-0.41 0.209-0.456 0.216-0.645 0.0965zm-88.1-14c-2.33-1.32-4.82-2.87-5.46-3.4-1.15-0.961-1.66-1.43-1.62-1.48 0.107-0.107 1.22 0.168 1.45 0.36 0.137 0.112 0.916 0.677 1.73 1.26 1.42 1.01 4.76 3.5 5.04 3.76 0.285 0.265-0.0877 0.103-1.16-0.502zm97.8-2.22c0.121-0.195 2.08-0.945 3.35-1.28 1.77-0.469 2.27-0.586 2.27-0.536 0 0.131-3.48 1.41-4.35 1.6-0.433 0.0946-0.908 0.203-1.06 0.24-0.179 0.0453-0.249 0.0355-0.208-0.0296zm-3.52-0.468c0.121-0.195 2.96-1.61 4.06-2.02 2.6-0.971 9.93-3.56 10.1-3.55 0.453 0.0302-9.89 4.31-12.2 5.05-2.02 0.647-1.99 0.637-1.92 0.524zm-78.5-6.57c-1.3-1.11-6.22-5.38-6.55-5.69l-0.183-0.172 0.141-0.233c0.258-0.426 1.3-1.62 1.42-1.62 0.0625 0 0.611 0.677 1.22 1.5s2.05 2.75 3.19 4.28c2.75 3.65 2.72 3.59 0.763 1.93z" fill="#0c0a0b"/></svg>
