<svg width="210mm" height="297mm" version="1.1" viewBox="0 0 210 297" xmlns="http://www.w3.org/2000/svg"><path d="m80.4 196c3.58e-4 -0.213 0.0907-1.29 0.201-2.4 0.486-4.88 0.485-8.36-5.61e-4 -10.7-0.243-1.19-0.577-2.14-0.755-2.14-0.134 0-2.68 1.02-3.71 1.49l-0.609 0.276-0.126-0.135c-0.0692-0.0741-0.181-0.715-0.249-1.42-0.147-1.53-0.151-1.54-0.836-1.25-0.665 0.276-0.671 0.272-0.818-0.602-0.213-1.26-0.295-1.14-0.57 0.876-0.201 1.47-0.116 1.35-1.31 1.88-7.96 3.55-10.1 4.51-11.8 5.25-1.06 0.48-1.97 0.847-2.02 0.816-0.0506-0.0312-0.125-0.723-0.166-1.54-0.0407-0.814-0.112-1.54-0.159-1.62l-0.0853-0.138-0.411 0.185c-0.541 0.244-0.584 0.201-0.731-0.711-0.15-0.928-0.0894-0.916-1.47-0.302-3.58 1.59-4.91 2.22-7.96 3.72-3.28 1.62-3.67 1.79-3.67 1.58 0-0.099 2.3-3.13 4.27-5.63 4.69-5.94 6.97-9.03 6.97-9.41 0-0.636-2.04-10.9-2.2-11-0.568-0.589-8.76-2.16-15.2-2.92-2.61-0.306-2.6-0.301-0.507-1.02 0.818-0.28 2.99-1.02 4.84-1.66 1.84-0.631 3.95-1.35 4.69-1.6 1.76-0.59 4.09-1.47 4.21-1.6 0.123-0.123 0.0206-0.708-0.706-4.02-0.317-1.45-0.858-3.94-1.2-5.54l-0.626-2.91 0.122-0.147c0.0673-0.0811 0.49-0.363 0.938-0.626 0.449-0.263 0.845-0.525 0.88-0.582 0.0353-0.0571 0.778-0.444 1.65-0.86s1.59-0.797 1.59-0.847c0-0.301-3.88-4.37-8.69-9.1-2.14-2.11-3.89-3.88-3.89-3.94 0-0.159 0.344-0.0693 4.43 1.15 7.19 2.15 10.8 3.07 14.7 3.76 4.75 0.833 6.57 0.505 7.19-1.3l0.191-0.554-0.0098-1.39c-0.0054-0.765-0.0856-1.84-0.178-2.4-0.0926-0.552-0.168-1.05-0.168-1.11 0-0.223 0.305-0.0764 1.34 0.645 2.45 1.7 4.29 2.7 5.56 3.02l0.664 0.167 0.135-0.185c0.716-0.979-0.411-5.72-4.14-17.4-0.725-2.27-1.08-3.47-1.08-3.6 0-0.572 3.85 2.38 9.38 7.21 5.66 4.93 7.68 6.23 10.1 6.5 3.52 0.387 6.99-4.02 11.2-14.2 1.01-2.45 1.02-2.48 1.15-2.34 0.055 0.055 0.301 0.791 0.547 1.63 3 10.3 7.08 16 11.7 16.3 2 0.129 4.07-0.674 7.64-2.97 1.69-1.08 1.58-1.14 1.27 0.659-0.315 1.8-0.451 3.17-0.328 3.3 0.254 0.254 7.42-4.58 20.4-13.8 4.53-3.2 7.76-5.44 7.96-5.49 0.322-0.085 0.203 0.176-1.3 2.85-5.43 9.65-7.39 14.2-7.12 16.7 0.0784 0.732 0.0889 0.738 0.827 0.458l0.515-0.196 0.135-0.474c0.0753-0.265 0.224-0.522 0.338-0.583 0.735-0.393 6.84-2.15 9.84-2.82 2.14-0.482 2.16-0.496 2.27-1.11 0.0353-0.209 0.142-0.447 0.237-0.529 0.696-0.601 15.6-3.17 16-2.76 0.0685 0.0685-0.0717 0.602-0.419 1.59-0.599 1.71-0.614 1.62 0.245 1.54l0.658-0.0614v0.166c0 0.0911-0.0901 0.411-0.2 0.711-2.12 5.76-8.77 25.4-8.77 25.9 0 0.335 2.22 0.886 13.9 3.45 2.7 0.592 2.73 0.481-0.494 1.43-7.05 2.07-11.9 4.13-14.5 6.17l-0.509 0.398-0.0358 2.98-0.265 0.876c-0.515 1.7-1.2 2.91-2.29 4.06-0.312 0.328-0.568 0.655-0.568 0.729 0 0.684 3.33 5.23 7.1 9.7 3.4 4.03 3.38 3.83 0.246 2.57-15.4-6.16-21.7-7.3-23.3-4.23l-0.274 0.52-0.00188 2.68 0.245 1.03c0.471 1.98 1.84 5.52 3.61 9.31 1.12 2.39 1.18 2.37-1.34 0.503-13.8-10.2-19.3-11.7-24.2-6.51-2.09 2.21-3.84 5.59-5.68 11-0.484 1.42-0.845 2.32-0.926 2.32-0.0731 0-0.488-0.765-0.922-1.7-2.25-4.85-3.82-7.34-6.03-9.54l-1.25-1.25-0.881-0.436c-4.11-2.03-9.65 1.25-20.8 12.3-3.77 3.74-3.6 3.6-3.6 3.04zm16.4-0.898c0-0.252 2.47-7.59 3.4-10.1 0.294-0.795 0.341-0.837 1.09-0.989l0.629-0.128 0.479 0.4c0.541 0.452 0.569 0.57 0.256 1.08-0.293 0.477-2.21 3.8-3.56 6.19-1.83 3.23-2.3 3.94-2.3 3.56zm61.2-10.9c-1.38-0.805-2.32-1.38-6.88-4.22l-3.9-2.43 0.0606-1.26 0.464-0.228c0.255-0.125 0.517-0.23 0.582-0.232 0.104-4e-3 3.01 2.34 8.24 6.66 2.92 2.41 3.19 2.73 1.43 1.7zm-123-11.4c0.549-0.535 13.8-5.63 14.6-5.62 0.198 1e-3 1.06 0.636 1.2 0.884 0.0801 0.142-0.0873 1.24-0.222 1.46-0.0854 0.137-15 3.42-15.5 3.43l-0.202 1e-3zm142-4.81c-0.595-0.169-2.36-0.679-3.92-1.13-1.56-0.455-4.2-1.22-5.88-1.71-3.42-0.997-3.26-0.913-3.43-1.72l-0.126-0.599 0.303-0.242c0.167-0.133 0.446-0.318 0.619-0.412l0.316-0.17 3.3 1.44c5.75 2.51 10 4.56 10 4.77 0 0.135 0.0124 0.137-1.24-0.217zm-9.46-27.8c-0.181-0.257-0.329-0.535-0.329-0.618 0-0.314 0.877-1.79 1.13-1.91 0.874-0.404 6.61-2.47 8.66-3.12 3.24-1.03 6.02-1.82 6.36-1.82h0.175l-0.151 0.145c-0.083 0.0797-2.61 1.39-5.61 2.9-3.01 1.52-6.39 3.24-7.52 3.82-2.38 1.23-2.28 1.21-2.71 0.598zm-106-14.7c-1.45-1.25-7.32-6.1-11.8-9.71-7.56-6.16-7.54-6.12-1.39-2.67 4.38 2.46 7.48 4.4 12.4 7.79l0.961 0.661 0.827 2.2c0.888 2.36 0.889 2.37 0.228 2.44l-0.399 0.0426zm53.7-8.18c-0.204-0.215-0.371-0.454-0.372-0.531-2e-3 -0.335 9.08-9.63 9.24-9.46 0.143 0.143-7 10-7.33 10.2-0.116 0.0431-0.426 0.11-0.689 0.149l-0.479 0.0703z" fill="#fbc805"/><path d="m80.4 196c3.58e-4 -0.213 0.0907-1.29 0.201-2.4 0.486-4.88 0.485-8.36-5.61e-4 -10.7-0.243-1.19-0.577-2.14-0.755-2.14-0.134 0-2.68 1.02-3.71 1.49l-0.609 0.276-0.126-0.135c-0.0692-0.0741-0.181-0.715-0.249-1.42-0.147-1.53-0.151-1.54-0.836-1.25-0.665 0.276-0.671 0.272-0.818-0.602-0.213-1.26-0.295-1.14-0.57 0.876-0.201 1.47-0.116 1.35-1.31 1.88-7.96 3.55-10.1 4.51-11.8 5.25-1.06 0.48-1.97 0.847-2.02 0.816-0.0506-0.0312-0.125-0.723-0.166-1.54-0.0407-0.814-0.112-1.54-0.159-1.62l-0.0853-0.138-0.411 0.185c-0.541 0.244-0.584 0.201-0.731-0.711-0.15-0.928-0.0894-0.916-1.47-0.302-3.58 1.59-4.91 2.22-7.96 3.72-3.28 1.62-3.67 1.79-3.67 1.58 0-0.099 2.3-3.13 4.27-5.63 4.69-5.94 6.97-9.03 6.97-9.41 0-0.636-2.04-10.9-2.2-11-0.568-0.589-8.76-2.16-15.2-2.92-2.61-0.306-2.6-0.301-0.507-1.02 0.818-0.28 2.99-1.02 4.84-1.66 1.84-0.631 3.95-1.35 4.69-1.6 1.76-0.59 4.09-1.47 4.21-1.6 0.123-0.123 0.0206-0.708-0.706-4.02-0.317-1.45-0.858-3.94-1.2-5.54l-0.626-2.91 0.122-0.147c0.0673-0.0811 0.49-0.363 0.938-0.626 0.449-0.263 0.845-0.525 0.88-0.582 0.0353-0.0571 0.778-0.444 1.65-0.86s1.59-0.797 1.59-0.847c0-0.301-3.88-4.37-8.69-9.1-2.14-2.11-3.89-3.88-3.89-3.94 0-0.159 0.344-0.0693 4.43 1.15 7.19 2.15 10.8 3.07 14.7 3.76 4.75 0.833 6.57 0.505 7.19-1.3l0.191-0.554-0.0098-1.39c-0.0054-0.765-0.0856-1.84-0.178-2.4-0.0926-0.552-0.168-1.05-0.168-1.11 0-0.223 0.305-0.0764 1.34 0.645 2.45 1.7 4.29 2.7 5.56 3.02l0.664 0.167 0.135-0.185c0.716-0.979-0.411-5.72-4.14-17.4-0.725-2.27-1.08-3.47-1.08-3.6 0-0.572 3.85 2.38 9.38 7.21 5.66 4.93 7.68 6.23 10.1 6.5 3.52 0.387 6.99-4.02 11.2-14.2 1.01-2.45 1.02-2.48 1.15-2.34 0.055 0.055 0.301 0.791 0.547 1.63 3 10.3 7.08 16 11.7 16.3 2 0.129 4.07-0.674 7.64-2.97 1.69-1.08 1.58-1.14 1.27 0.659-0.315 1.8-0.451 3.17-0.328 3.3 0.254 0.254 7.42-4.58 20.4-13.8 4.53-3.2 7.76-5.44 7.96-5.49 0.322-0.085 0.203 0.176-1.3 2.85-5.43 9.65-7.39 14.2-7.12 16.7 0.0784 0.732 0.0889 0.738 0.827 0.458l0.515-0.196 0.135-0.474c0.0753-0.265 0.224-0.522 0.338-0.583 0.735-0.393 6.84-2.15 9.84-2.82 2.14-0.482 2.16-0.496 2.27-1.11 0.0353-0.209 0.142-0.447 0.237-0.529 0.696-0.601 15.6-3.17 16-2.76 0.0685 0.0685-0.0717 0.602-0.419 1.59-0.599 1.71-0.614 1.62 0.245 1.54l0.658-0.0614v0.166c0 0.0911-0.0901 0.411-0.2 0.711-2.12 5.76-8.77 25.4-8.77 25.9 0 0.335 2.22 0.886 13.9 3.45 2.7 0.592 2.73 0.481-0.494 1.43-7.05 2.07-11.9 4.13-14.5 6.17l-0.509 0.398-0.0358 2.98-0.265 0.876c-0.515 1.7-1.2 2.91-2.29 4.06-0.312 0.328-0.568 0.655-0.568 0.729 0 0.684 3.33 5.23 7.1 9.7 3.4 4.03 3.38 3.83 0.246 2.57-15.4-6.16-21.7-7.3-23.3-4.23l-0.274 0.52-0.00188 2.68 0.245 1.03c0.471 1.98 1.84 5.52 3.61 9.31 1.12 2.39 1.18 2.37-1.34 0.503-13.8-10.2-19.3-11.7-24.2-6.51-2.09 2.21-3.84 5.59-5.68 11-0.484 1.42-0.845 2.32-0.926 2.32-0.0731 0-0.488-0.765-0.922-1.7-2.25-4.85-3.82-7.34-6.03-9.54l-1.25-1.25-0.881-0.436c-4.11-2.03-9.65 1.25-20.8 12.3-3.77 3.74-3.6 3.6-3.6 3.04zm9.63-43.7 0.053-0.582-0.14 0.515c-0.077 0.283-0.141 0.678-0.141 0.876l-1e-3 0.361 0.0881-0.294c0.0485-0.162 0.112-0.556 0.141-0.876zm-36.2-1c-0.0512-0.507-0.121-1.32-0.156-1.8l-0.0632-0.876 0.278 0.379 0.136-0.164c0.0748-0.0902 0.191-0.164 0.257-0.164 0.0668 0 0.179-0.0575 0.249-0.128 0.193-0.193 1.17-0.199 1.38-9e-3 0.212 0.192 1.27 0.225 1.6 0.0507 0.122-0.0652 0.364-0.0901 0.538-0.0554 0.237 0.0473 0.332 0.0212 0.38-0.104 0.0834-0.217 0.228-0.211 0.983 0.0434l0.625 0.211 0.16-0.133c0.0882-0.0732 0.42-0.144 0.738-0.158 0.853-0.0369 1.67-0.0521 2.02-0.0374 0.17 7e-3 0.574-0.015 0.897-0.0491l0.587-0.062 0.124-0.554c0.0682-0.305 0.158-0.533 0.2-0.507 0.0418 0.0258 0.108-1.1 0.146-2.5 0.0387-1.4 0.111-3.87 0.16-5.49 0.0491-1.61 0.0687-2.96 0.0436-2.98-0.0442-0.0442-1.82 0.647-4.48 1.75-1.32 0.547-7.3 3.19-8.17 3.61-0.594 0.289-0.596-0.0361 0.0179 3.45 1.22 6.94 1.59 8.66 1.35 6.28zm37-2.03c0.498-1.66 1.66-4.67 2-5.2l0.168-0.256 0.146 0.122c0.0805 0.0668 0.228 0.0884 0.328 0.0479 0.1-0.0405 0.866-0.0662 1.7-0.0571 1.17 0.0127 1.53-0.0146 1.57-0.118 0.0931-0.243 4.2-0.299 4.44-0.0611 0.0905 0.0902 0.48-0.104 0.593-0.295 0.0453-0.0768 0.166-0.14 0.267-0.14 0.102 0 0.552-0.351 1-0.78 0.516-0.494 1.06-0.9 1.49-1.11l0.67-0.328h1.48l0.447 0.311c0.337 0.235 0.54 0.501 0.826 1.08 0.209 0.424 0.383 0.713 0.387 0.642 4e-3 -0.0709 0.077-0.129 0.162-0.129 0.0853 0 0.314-0.0854 0.509-0.19l0.354-0.19 0.599 0.097c0.728 0.118 0.66 0.121 3.38-0.165 0.17-0.0179 0.411-0.0869 0.534-0.154 0.284-0.152 1.09-0.158 1.24-8e-3 0.0815 0.0815 0.175 0.0794 0.337-8e-3 0.16-0.0856 0.311-0.0899 0.526-0.0149 0.361 0.126 0.874-0.0241 1.27-0.373l0.265-0.231-8.5e-4 -1.52c-4e-3 -7.18-2.76-11.1-7.92-11.3-8.22-0.339-16.8 9.16-19.3 21.5-0.211 1.02-0.268 1.64-0.0914 0.984 0.0534-0.198 0.33-1.14 0.614-2.09zm-22.2-1.47c0.327-1.1 0.367-1.18 0.458-0.921l0.0699 0.199 1.37 0.169c1.45 0.18 1.89 0.139 2.35-0.222 0.129-0.101 0.391-0.184 0.582-0.184 0.191 0 0.434-0.0452 0.54-0.1 0.109-0.0567 0.429-0.0692 0.734-0.0288 0.298 0.0394 0.785 0.0401 1.08 2e-3 0.313-0.0404 0.64-0.0252 0.776 0.0361l0.234 0.106 0.604-0.447 0.108 0.18c0.112 0.187 0.107-0.105-0.102-6.26-0.0547-1.61-0.0994-3.48-0.0994-4.15v-1.22h-0.137c-0.122 0-4.05 1.63-5.56 2.3-0.363 0.162-0.632 0.357-0.694 0.503-0.336 0.789-3.14 12-3.09 12.4 0.0103 0.0814 0.472-1.3 0.774-2.32zm12.4-1.34c0.0594-0.284 0.201-0.735 0.314-1l0.206-0.487 0.352 0.435 0.508-0.113c0.279-0.0619 0.779-0.165 1.11-0.23l0.602-0.117 0.223 0.201c0.312 0.282 0.635 0.337 0.896 0.154 0.166-0.116 0.365-0.14 0.78-0.0908 0.364 0.0428 0.557 0.0277 0.557-0.0437 0-0.128 1.2-0.0445 1.61 0.113 0.146 0.0556 0.566 0.123 0.933 0.151l0.667 0.0495-0.0707-0.322c-0.0474-0.216-0.0347-0.3 0.0384-0.254 0.065 0.0402 0.158-0.111 0.229-0.374 0.121-0.444 0.268-0.946 0.75-2.55 1.08-3.6 2.44-8.24 2.7-9.17 0.147-0.539 0.363-1.23 0.481-1.53 0.117-0.301 0.182-0.578 0.143-0.617-0.117-0.117-5.21 1.63-9.03 3.09-1.73 0.663-1.54 0.412-2.04 2.66-1.38 6.15-2.3 10.5-2.28 10.9 0.0094 0.245 0.191-0.243 0.32-0.861zm41.2-6.06c0.441-0.209 0.905-0.381 1.03-0.381 1.77-7e-3 2.66-0.103 2.91-0.315 0.0759-0.063 0.222-0.106 0.325-0.0951 0.362 0.0376 0.429-8e-3 0.548-0.366 0.0657-0.199 0.158-0.338 0.204-0.309 0.127 0.0783 0.144-0.087 0.881-8.6 0.145-1.67 0.305-3.22 0.357-3.45 0.0515-0.229 0.0612-0.449 0.0215-0.488-0.144-0.142-6.04 1.8-8.88 2.92l-0.866 0.342 0.065 3.25c0.0401 2 0.124 3.65 0.218 4.28 0.0844 0.567 0.185 1.53 0.224 2.14 0.0498 0.783 0.106 1.1 0.191 1.07 0.0663-0.0254 0.177 0.045 0.247 0.156l0.127 0.203 0.552-0.069c0.335-0.0418 0.627-0.0255 0.742 0.0414 0.105 0.0607 0.213 0.098 0.242 0.0829 0.0283-0.0151 0.412-0.199 0.853-0.408zm8.4-1.9c0.0448 0.2 0.284 0.242 0.391 0.07 0.0419-0.0678 0.223-0.0842 0.47-0.0425 0.306 0.0516 0.416 0.0312 0.46-0.0854 0.039-0.102 0.222-0.159 0.541-0.17 1.46-0.0517 2.28-0.0286 2.65 0.0743 1.52 0.425 2.88-0.01 3-0.959 0.0357-0.281 0.127-0.561 0.202-0.622 0.105-0.0848 0.163-0.95 0.25-3.71 0.062-1.98 0.152-4.41 0.201-5.4 0.0487-0.992 0.0761-1.82 0.0609-1.83-0.0279-0.0296-1.21 0.398-3.77 1.36l-1.39 0.524-0.701 2.06c-1.43 4.22-3.08 9.49-3.05 9.79 5e-3 0.0585 0.152-0.195 0.328-0.564 0.206-0.432 0.333-0.606 0.36-0.49zm11.1-2.37c0.0659-0.022 0.12 0.049 0.12 0.158 0 0.303 0.114 0.352 0.391 0.17l0.253-0.166 0.25 0.114c0.306 0.14 2.4 0.151 2.75 0.0152 0.143-0.0543 0.33-0.236 0.417-0.403 0.113-0.219 0.213-0.29 0.354-0.253 0.108 0.0282 0.329-0.0109 0.492-0.0868 0.319-0.149 0.607-0.154 1.76-0.032l0.747 0.0789v-0.217c0-0.119 0.0852-0.3 0.189-0.401 0.184-0.179 0.932-2.34 2.13-6.16 1.27-4.05 2.2-6.93 2.35-7.29 0.0887-0.211 0.129-0.402 0.0902-0.424-0.193-0.108-7.84 1.97-9.09 2.47l-0.389 0.155-0.152 0.586c-0.0838 0.322-0.572 2.12-1.08 3.99-0.512 1.87-1.24 4.65-1.61 6.19-0.375 1.53-0.75 3.04-0.834 3.36-0.293 1.1-0.132 0.858 0.303-0.465 0.242-0.734 0.493-1.35 0.559-1.37zm12.3-0.44c0.232-0.876 0.487-1.83 0.566-2.11l0.144-0.515 0.802-0.0297c0.487-0.0181 0.893-0.0895 1.03-0.182l0.232-0.152 0.594 0.113c0.66 0.126 0.67 0.126 2.19 0.0158 0.836-0.0607 1.17-0.131 1.47-0.308 0.214-0.126 0.483-0.23 0.598-0.23h0.208l0.547-1.16c0.301-0.638 0.701-1.51 0.89-1.93s0.4-0.843 0.468-0.928c0.333-0.415 4.17-10.8 4.03-10.9-0.0944-0.0944-6.27 0.954-8.62 1.46-0.658 0.143-1.35 0.286-1.53 0.319-0.483 0.0868-0.482 0.0855-0.992 2.51-0.256 1.22-0.634 3-0.838 3.97-0.586 2.76-2.32 11.4-2.32 11.6 0 0.324 0.112-0.0101 0.518-1.54zm-57.3 59.4c0-0.252 2.47-7.59 3.4-10.1 0.294-0.795 0.341-0.837 1.09-0.989l0.629-0.128 0.479 0.4c0.541 0.452 0.569 0.57 0.256 1.08-0.293 0.477-2.21 3.8-3.56 6.19-1.83 3.23-2.3 3.94-2.3 3.56zm61.2-10.9c-1.38-0.805-2.32-1.38-6.88-4.22l-3.9-2.43 0.0606-1.26 0.464-0.228c0.255-0.125 0.517-0.23 0.582-0.232 0.104-4e-3 3.01 2.34 8.24 6.66 2.92 2.41 3.19 2.73 1.43 1.7zm-123-11.4c0.549-0.535 13.8-5.63 14.6-5.62 0.198 1e-3 1.06 0.636 1.2 0.884 0.0801 0.142-0.0873 1.24-0.222 1.46-0.0854 0.137-15 3.42-15.5 3.43l-0.202 1e-3zm142-4.81c-0.595-0.169-2.36-0.679-3.92-1.13-1.56-0.455-4.2-1.22-5.88-1.71-3.42-0.997-3.26-0.913-3.43-1.72l-0.126-0.599 0.303-0.242c0.167-0.133 0.446-0.318 0.619-0.412l0.316-0.17 3.3 1.44c5.75 2.51 10 4.56 10 4.77 0 0.135 0.0124 0.137-1.24-0.217zm-9.46-27.8c-0.181-0.257-0.329-0.535-0.329-0.618 0-0.314 0.877-1.79 1.13-1.91 0.874-0.404 6.61-2.47 8.66-3.12 3.24-1.03 6.02-1.82 6.36-1.82h0.175l-0.151 0.145c-0.083 0.0797-2.61 1.39-5.61 2.9-3.01 1.52-6.39 3.24-7.52 3.82-2.38 1.23-2.28 1.21-2.71 0.598zm-106-14.7c-1.45-1.25-7.32-6.1-11.8-9.71-7.56-6.16-7.54-6.12-1.39-2.67 4.38 2.46 7.48 4.4 12.4 7.79l0.961 0.661 0.827 2.2c0.888 2.36 0.889 2.37 0.228 2.44l-0.399 0.0426zm53.7-8.18c-0.204-0.215-0.371-0.454-0.372-0.531-2e-3 -0.335 9.08-9.63 9.24-9.46 0.143 0.143-7 10-7.33 10.2-0.116 0.0431-0.426 0.11-0.689 0.149l-0.479 0.0703z" fill="#11bef8"/><path d="m80.4 196c1.1e-4 -0.156 0.0902-1.21 0.2-2.35 0.592-6.11 0.49-9.82-0.339-12.3-0.307-0.911-0.254-0.909-2.2-0.097-2.71 1.13-2.58 1.09-2.69 0.949-0.0529-0.0682-0.153-0.726-0.222-1.46-0.149-1.58-0.085-1.48-0.773-1.25-0.699 0.238-0.735 0.21-0.892-0.668-0.219-1.22-0.279-1.12-0.567 0.984-0.203 1.48-0.0864 1.34-1.74 2.07-1.77 0.777-8.67 3.86-11.1 4.96-1.06 0.48-2.01 0.858-2.11 0.839l-0.18-0.0344-0.103-1.51c-0.118-1.73-0.116-1.73-0.67-1.48-0.51 0.23-0.514 0.225-0.687-0.687-0.0771-0.408-0.165-0.766-0.194-0.796-0.151-0.151-4.4 1.77-9.85 4.46-3.43 1.69-3.41 1.69-2.65 0.682 1.42-1.88 2.63-3.44 4.41-5.72 5.09-6.5 6.39-8.27 6.39-8.71 0-0.746-2.08-11.1-2.22-11.1-0.0206 0-0.63-0.163-1.35-0.362-3.33-0.916-8.83-1.87-14.6-2.53-1.03-0.119-1.44-0.225-1.32-0.346 0.0288-0.0288 2.51-0.889 5.51-1.91 5.6-1.91 8.51-2.93 9.36-3.3l0.48-0.206v-0.252c0-0.139-0.584-2.95-1.3-6.25l-1.3-5.99 0.122-0.147c0.0669-0.0806 0.416-0.311 0.776-0.513 0.36-0.201 0.786-0.476 0.946-0.611 0.16-0.135 0.975-0.571 1.81-0.97 0.835-0.399 1.52-0.768 1.52-0.819 0-0.308-4.09-4.6-8.62-9.04-2.18-2.14-3.96-3.92-3.96-3.98 0-0.164 0.172-0.12 4.38 1.13 16 4.75 21 5.32 22 2.47l0.192-0.551-0.0106-1.44c-0.0063-0.865-0.081-1.83-0.186-2.41-0.25-1.38-0.215-1.39 1.22-0.34 1.94 1.41 4.21 2.63 5.57 2.98l0.681 0.179 0.105-0.154c0.643-0.94-0.557-6.13-3.66-15.8-1.3-4.06-1.63-5.19-1.55-5.27 0.26-0.26 4.24 2.85 9.36 7.3 5.59 4.87 7.57 6.14 9.97 6.44 3.62 0.453 7.2-4.2 11.6-15.1 0.814-2.01 0.694-2.06 1.44 0.511 2.32 7.99 5.66 13.6 9.18 15.3 2.69 1.32 5.27 0.744 9.84-2.22 0.792-0.512 1.49-0.932 1.55-0.932 0.139 0 0.141-0.0205-0.144 1.72-0.136 0.837-0.281 1.88-0.321 2.32l-0.0732 0.799h0.152c0.449 0 6.99-4.41 17.1-11.5 9.4-6.63 11.2-7.85 11.3-7.85 0.161 0 0.13 0.22-0.0813 0.567-0.104 0.17-0.862 1.52-1.69 2.99-4.99 8.94-6.71 12.9-6.72 15.5-8e-3 1.2 2e-3 1.22 0.742 0.951l0.587-0.21 0.319-1.02 1.49-0.496c2.3-0.765 5.83-1.76 7.93-2.24 2.6-0.59 2.69-0.612 2.73-0.752 0.0226-0.0679 0.0914-0.32 0.153-0.56 0.144-0.564 0.107-0.549 2.63-1.11 5.11-1.14 13.3-2.41 13.6-2.12 0.0605 0.0605-0.101 0.647-0.43 1.56-0.612 1.7-0.617 1.66 0.247 1.58l0.663-0.0679-1e-3 0.143c-6.6e-4 0.0787-0.345 1.12-0.764 2.31s-1.35 3.83-2.07 5.88c-1.57 4.46-5.99 17.7-6.08 18.2l-0.0697 0.379 0.986 0.316c1.49 0.478 4.76 1.25 11.5 2.69 1.87 0.404 3.44 0.775 3.49 0.825 0.132 0.128-0.112 0.217-2.71 0.978-6.86 2.01-11.5 3.98-14.2 6.01l-0.648 0.498-0.0146 1.44c-0.0263 2.58-0.968 4.89-2.66 6.53-0.571 0.555-0.577 0.64-0.0951 1.47 1.31 2.25 3.55 5.17 8.15 10.6 1.77 2.1 1.9 2.06-1.7 0.63-7.29-2.89-12.2-4.5-16.1-5.32l-1.55-0.324-3.2-0.014-0.693 0.341c-2.76 1.36-2.04 5.78 2.48 15.3 0.941 1.97 1.11 2.02-2.4-0.572-6.75-4.97-11.3-7.54-14.9-8.46l-1.12-0.286-1.29 2e-3c-5.06 9e-3 -8.53 4.2-12 14.4-0.65 1.94-0.737 2.05-1.05 1.33-3.47-7.94-6.95-12.4-10.2-13-3.82-0.752-9.94 3.34-19.8 13.2-3.21 3.22-3.2 3.21-3.2 2.77zm7.63-13.5c2.43-2.31 4.74-4.14 6.99-5.52 1.45-0.889 1.43-0.828 0.422-1.27-1.76-0.764-3.57-2.36-4.84-4.26-0.408-0.612-0.777-1.13-0.82-1.14-0.0977-0.0375-0.317 1.17-0.723 4-0.175 1.22-0.343 2.37-0.372 2.56l-0.0537 0.344-0.535 0.244c-0.294 0.134-0.976 0.423-1.51 0.642l-0.979 0.399 0.0515 0.766c0.079 1.17 0.0612 4.52-0.0271 5.09l-0.0786 0.514 0.646-0.622c0.355-0.342 1.18-1.13 1.83-1.75zm25.4-0.897c0.839-2.78 3-6.08 5.13-7.83l0.335-0.276-0.0894-0.239c-0.0492-0.131-0.0661-0.83-0.0376-1.55l0.0518-1.31-0.143 3e-3c-0.0785 2e-3 -0.454 0.136-0.835 0.298-0.914 0.39-0.88 0.475-0.953-2.36-0.07-2.73-0.144-3.92-0.245-3.91-0.0377 9.1e-4 -0.277 0.382-0.532 0.847-2.14 3.9-5.83 7.82-8.74 9.29-0.679 0.343-0.681 0.333 0.186 0.883 1.88 1.19 4.43 4.28 5.31 6.44 0.257 0.624 0.29 0.607 0.556-0.272zm24-5.7c0-0.0879-0.0653-0.286-0.145-0.44-0.148-0.286-0.407-1.63-0.528-2.75-0.115-1.05 0.111-2.55 0.521-3.46 0.197-0.436 0.358-0.848 0.358-0.914 0-0.0662 0.209-0.343 0.464-0.616 0.54-0.578 0.565-0.657 0.18-0.567-0.616 0.143-1.14 0.431-1.12 0.618 0.028 0.323-0.943 0.634-1.11 0.357-0.0744-0.12-0.774 0.0833-1.34 0.39-0.226 0.122-0.57 0.252-0.764 0.288l-0.353 0.0663-0.138-0.189c-0.0962-0.132-0.138-0.543-0.138-1.35v-1.17h-0.238c-0.404 0-0.558 0.216-0.62 0.865-0.0744 0.782-0.199 0.868-2.49 1.71-1.26 0.465-5.21 2.13-5.33 2.25-0.0426 0.0419 0.421 0.0873 1.03 0.101 3.15 0.0702 8.19 2.11 11 4.47 0.64 0.53 0.739 0.575 0.739 0.336zm12.3-9.68c0-0.15-1.19-0.688-1.4-0.634-0.373 0.0937-0.294 0.244 0.193 0.365 0.241 0.0598 0.577 0.15 0.747 0.2 0.378 0.111 0.464 0.124 0.464 0.0702zm-4.36-1.01c-0.0173-0.0867 0.0924-0.122 0.335-0.106 0.406 0.0253 0.832-0.116 1.29-0.429 0.17-0.116 0.326-0.221 0.347-0.232 0.0569-0.0314-0.381-0.713-0.546-0.85l-0.145-0.12-0.172 1.08-0.361 0.0874c-0.684 0.166-1.54 0.517-1.49 0.608 0.0902 0.146 0.77 0.111 0.74-0.0378zm-55.3-13.1 0.053-0.582-0.14 0.515c-0.077 0.283-0.141 0.678-0.141 0.876l-1e-3 0.361 0.0881-0.294c0.0485-0.162 0.112-0.556 0.141-0.876zm-36.2-1c-0.0512-0.507-0.121-1.32-0.156-1.8l-0.0632-0.876 0.278 0.379 0.136-0.164c0.0748-0.0902 0.191-0.164 0.257-0.164 0.0668 0 0.179-0.0575 0.249-0.128 0.193-0.193 1.17-0.199 1.38-9e-3 0.212 0.192 1.27 0.225 1.6 0.0507 0.122-0.0652 0.364-0.0901 0.538-0.0554 0.237 0.0473 0.332 0.0212 0.38-0.104 0.0834-0.217 0.228-0.211 0.983 0.0434l0.625 0.211 0.16-0.133c0.0882-0.0732 0.42-0.144 0.738-0.158 0.853-0.0369 1.67-0.0521 2.02-0.0374 0.17 7e-3 0.574-0.015 0.897-0.0491l0.587-0.062 0.124-0.554c0.0682-0.305 0.158-0.533 0.2-0.507 0.0418 0.0258 0.108-1.1 0.146-2.5 0.0387-1.4 0.111-3.87 0.16-5.49 0.0491-1.61 0.0687-2.96 0.0436-2.98-0.0442-0.0442-1.82 0.647-4.48 1.75-1.32 0.547-7.3 3.19-8.17 3.61-0.594 0.289-0.596-0.0361 0.0179 3.45 1.22 6.94 1.59 8.66 1.35 6.28zm37-2.03c0.498-1.66 1.66-4.67 2-5.2l0.168-0.256 0.146 0.122c0.0805 0.0668 0.228 0.0884 0.328 0.0479 0.1-0.0405 0.866-0.0662 1.7-0.0571 1.17 0.0127 1.53-0.0146 1.57-0.118 0.0931-0.243 4.2-0.299 4.44-0.0611 0.0905 0.0902 0.48-0.104 0.593-0.295 0.0453-0.0768 0.166-0.14 0.267-0.14 0.102 0 0.552-0.351 1-0.78 0.516-0.494 1.06-0.9 1.49-1.11l0.67-0.328h1.48l0.447 0.311c0.337 0.235 0.54 0.501 0.826 1.08 0.209 0.424 0.383 0.713 0.387 0.642 4e-3 -0.0709 0.077-0.129 0.162-0.129 0.0853 0 0.314-0.0854 0.509-0.19l0.354-0.19 0.599 0.097c0.728 0.118 0.66 0.121 3.38-0.165 0.17-0.0179 0.411-0.0869 0.534-0.154 0.284-0.152 1.09-0.158 1.24-8e-3 0.0815 0.0815 0.175 0.0794 0.337-8e-3 0.16-0.0856 0.311-0.0899 0.526-0.0149 0.361 0.126 0.874-0.0241 1.27-0.373l0.265-0.231-8.5e-4 -1.52c-4e-3 -7.18-2.76-11.1-7.92-11.3-8.22-0.339-16.8 9.16-19.3 21.5-0.211 1.02-0.268 1.64-0.0914 0.984 0.0534-0.198 0.33-1.14 0.614-2.09zm-22.2-1.47c0.327-1.1 0.367-1.18 0.458-0.921l0.0699 0.199 1.37 0.169c1.45 0.18 1.89 0.139 2.35-0.222 0.129-0.101 0.391-0.184 0.582-0.184 0.191 0 0.434-0.0452 0.54-0.1 0.109-0.0567 0.429-0.0692 0.734-0.0288 0.298 0.0394 0.785 0.0401 1.08 2e-3 0.313-0.0404 0.64-0.0252 0.776 0.0361l0.234 0.106 0.604-0.447 0.108 0.18c0.112 0.187 0.107-0.105-0.102-6.26-0.0547-1.61-0.0994-3.48-0.0994-4.15v-1.22h-0.137c-0.122 0-4.05 1.63-5.56 2.3-0.363 0.162-0.632 0.357-0.694 0.503-0.336 0.789-3.14 12-3.09 12.4 0.0103 0.0814 0.472-1.3 0.774-2.32zm12.4-1.34c0.0594-0.284 0.201-0.735 0.314-1l0.206-0.487 0.352 0.435 0.508-0.113c0.279-0.0619 0.779-0.165 1.11-0.23l0.602-0.117 0.223 0.201c0.312 0.282 0.635 0.337 0.896 0.154 0.166-0.116 0.365-0.14 0.78-0.0908 0.364 0.0428 0.557 0.0277 0.557-0.0437 0-0.128 1.2-0.0445 1.61 0.113 0.146 0.0556 0.566 0.123 0.933 0.151l0.667 0.0495-0.0707-0.322c-0.0474-0.216-0.0347-0.3 0.0384-0.254 0.065 0.0402 0.158-0.111 0.229-0.374 0.121-0.444 0.268-0.946 0.75-2.55 1.08-3.6 2.44-8.24 2.7-9.17 0.147-0.539 0.363-1.23 0.481-1.53 0.117-0.301 0.182-0.578 0.143-0.617-0.117-0.117-5.21 1.63-9.03 3.09-1.73 0.663-1.54 0.412-2.04 2.66-1.38 6.15-2.3 10.5-2.28 10.9 0.0094 0.245 0.191-0.243 0.32-0.861zm41.2-6.06c0.441-0.209 0.905-0.381 1.03-0.381 1.77-7e-3 2.66-0.103 2.91-0.315 0.0759-0.063 0.222-0.106 0.325-0.0951 0.362 0.0376 0.429-8e-3 0.548-0.366 0.0657-0.199 0.158-0.338 0.204-0.309 0.127 0.0783 0.144-0.087 0.881-8.6 0.145-1.67 0.305-3.22 0.357-3.45 0.0515-0.229 0.0612-0.449 0.0215-0.488-0.144-0.142-6.04 1.8-8.88 2.92l-0.866 0.342 0.065 3.25c0.0401 2 0.124 3.65 0.218 4.28 0.0844 0.567 0.185 1.53 0.224 2.14 0.0498 0.783 0.106 1.1 0.191 1.07 0.0663-0.0254 0.177 0.045 0.247 0.156l0.127 0.203 0.552-0.069c0.335-0.0418 0.627-0.0255 0.742 0.0414 0.105 0.0607 0.213 0.098 0.242 0.0829 0.0283-0.0151 0.412-0.199 0.853-0.408zm8.4-1.9c0.0448 0.2 0.284 0.242 0.391 0.07 0.0419-0.0678 0.223-0.0842 0.47-0.0425 0.306 0.0516 0.416 0.0312 0.46-0.0854 0.039-0.102 0.222-0.159 0.541-0.17 1.46-0.0517 2.28-0.0286 2.65 0.0743 1.52 0.425 2.88-0.01 3-0.959 0.0357-0.281 0.127-0.561 0.202-0.622 0.105-0.0848 0.163-0.95 0.25-3.71 0.062-1.98 0.152-4.41 0.201-5.4 0.0487-0.992 0.0761-1.82 0.0609-1.83-0.0279-0.0296-1.21 0.398-3.77 1.36l-1.39 0.524-0.701 2.06c-1.43 4.22-3.08 9.49-3.05 9.79 5e-3 0.0585 0.152-0.195 0.328-0.564 0.206-0.432 0.333-0.606 0.36-0.49zm11.1-2.37c0.0659-0.022 0.12 0.049 0.12 0.158 0 0.303 0.114 0.352 0.391 0.17l0.253-0.166 0.25 0.114c0.306 0.14 2.4 0.151 2.75 0.0152 0.143-0.0543 0.33-0.236 0.417-0.403 0.113-0.219 0.213-0.29 0.354-0.253 0.108 0.0282 0.329-0.0109 0.492-0.0868 0.319-0.149 0.607-0.154 1.76-0.032l0.747 0.0789v-0.217c0-0.119 0.0852-0.3 0.189-0.401 0.184-0.179 0.932-2.34 2.13-6.16 1.27-4.05 2.2-6.93 2.35-7.29 0.0887-0.211 0.129-0.402 0.0902-0.424-0.193-0.108-7.84 1.97-9.09 2.47l-0.389 0.155-0.152 0.586c-0.0838 0.322-0.572 2.12-1.08 3.99-0.512 1.87-1.24 4.65-1.61 6.19-0.375 1.53-0.75 3.04-0.834 3.36-0.293 1.1-0.132 0.858 0.303-0.465 0.242-0.734 0.493-1.35 0.559-1.37zm12.3-0.44c0.232-0.876 0.487-1.83 0.566-2.11l0.144-0.515 0.802-0.0297c0.487-0.0181 0.893-0.0895 1.03-0.182l0.232-0.152 0.594 0.113c0.66 0.126 0.67 0.126 2.19 0.0158 0.836-0.0607 1.17-0.131 1.47-0.308 0.214-0.126 0.483-0.23 0.598-0.23h0.208l0.547-1.16c0.301-0.638 0.701-1.51 0.89-1.93s0.4-0.843 0.468-0.928c0.333-0.415 4.17-10.8 4.03-10.9-0.0944-0.0944-6.27 0.954-8.62 1.46-0.658 0.143-1.35 0.286-1.53 0.319-0.483 0.0868-0.482 0.0855-0.992 2.51-0.256 1.22-0.634 3-0.838 3.97-0.586 2.76-2.32 11.4-2.32 11.6 0 0.324 0.112-0.0101 0.518-1.54zm-95.5 0.565c0.932-0.398 1.13-0.53 0.903-0.594-0.0804-0.0223-1.04-0.331-2.14-0.685s-2.02-0.617-2.05-0.583c-0.0771 0.0771 2.14 2.22 2.31 2.23 0.0658 3e-3 0.507-0.16 0.979-0.362zm13.6-1.7c2.23-0.946 2.45-1.06 2.36-1.15-0.0463-0.0463-0.453-0.265-0.904-0.487s-1.07-0.566-1.38-0.765c-0.687-0.441-0.724-0.423-0.724 0.351 0 0.708-0.284 1.61-0.666 2.11-0.542 0.71-0.49 0.708 1.31-0.0593zm8.75-0.141 0.382-0.164 0.106-0.387c0.0584-0.213 0.154-0.581 0.212-0.817l0.106-0.43 0.488-0.179c0.268-0.0986 0.766-0.291 1.11-0.428 5.01-2.01 13.6-4.84 13.9-4.57 0.062 0.062-0.0438 0.652-0.288 1.61-0.452 1.77-0.483 1.69 0.548 1.41 0.447-0.122 0.894-0.223 0.994-0.223h0.181l-0.0586 0.361c-0.079 0.487 0.0017 0.463 0.986-0.285 2.3-1.75 5.56-3.22 7.84-3.54 0.475-0.0656 0.754-0.247 0.507-0.33-2.39-0.796-5.84-5.48-7.23-9.82-0.365-1.14-0.46-1.11-0.946 0.246-1.79 5.01-4.67 8.45-7.93 9.46l-0.77 0.238-1.08-2e-3c-3.06-6e-3 -6.21-1.78-10.9-6.15-1.05-0.973-1.45-1.26-1.45-1.05 0 0.034 0.231 0.788 0.513 1.68 1.29 4.05 1.75 7.61 1.3 9.94l-0.134 0.694 0.379 0.12v1.47c0 1.81-0.0884 1.73 1.26 1.15zm35.8-5.58c-4e-3 -0.34 0.0374-1.11 0.0921-1.7 0.128-1.39 0.142-1.38-1.19-0.747-0.61 0.29-1.38 0.609-1.7 0.708-0.758 0.23-0.757 0.231 0.291 0.82 0.486 0.273 1.22 0.782 1.62 1.13 0.837 0.718 0.901 0.703 0.89-0.21zm16.5-3.31c2.46-0.924 2.23-0.761 2.4-1.7 0.311-1.76 0.994-3.72 2.02-5.78 0.758-1.52 0.682-1.56-0.809-0.362-0.666 0.533-2.42 1.87-3.89 2.98-4.57 3.42-4.37 3.22-2.89 2.82 1.28-0.35 1.26-0.38 1.04 1.21-0.198 1.48-0.204 1.63-0.0656 1.63 0.057 0 1.04-0.353 2.19-0.785zm-36.4 69.3c0.129-0.892 3.38-10.3 3.63-10.5 0.078-0.0632 0.416-0.173 0.751-0.244l0.609-0.129 0.472 0.395c0.608 0.508 0.635 0.383-0.526 2.39-0.549 0.949-1.78 3.09-2.73 4.75-0.955 1.66-1.86 3.19-2 3.4l-0.265 0.377zm59.9-11.2c-1.15-0.697-3.8-2.33-5.88-3.63l-3.79-2.36 2e-3 -0.522c2e-3 -0.652 0.0476-0.721 0.648-0.987 0.592-0.262 0.0812-0.599 4.19 2.77 6.39 5.24 7.27 5.99 6.97 5.99-0.0236 0-0.986-0.57-2.14-1.27zm-122-10.7c0-0.351 13.7-5.68 14.6-5.68 0.191 0 1.13 0.711 1.22 0.92 0.0769 0.186-0.147 1.26-0.297 1.42-0.123 0.134-15 3.43-15.4 3.43-0.0481 0-0.0874-0.0408-0.0874-0.0907zm141-5.11c-0.822-0.241-2.7-0.789-4.18-1.22-8.99-2.62-8.04-2.27-8.19-2.96-0.162-0.756-0.164-0.75 0.455-1.18l0.567-0.39 0.902 0.387c5.16 2.21 12.5 5.6 12.5 5.76 0 0.138-0.659 9e-3 -2.06-0.402zm-8.63-27.5c-0.184-0.251-0.335-0.524-0.335-0.607 0-0.188 0.784-1.65 0.965-1.8 0.472-0.392 8.02-3.03 11.9-4.17 4.52-1.32 4.51-1.3-0.309 1.12-1.67 0.839-4.97 2.52-7.33 3.72-4.83 2.47-4.46 2.34-4.91 1.73zm-106-14.8c-2.66-2.24-10.2-8.41-12.7-10.4-1.79-1.44-4.58-3.79-4.79-4.02l-0.206-0.234 0.258 0.0787c0.637 0.194 5.83 3.11 9.17 5.14 1.44 0.878 8.13 5.29 8.38 5.52 0.0663 0.0627 0.931 2.29 1.57 4.04 0.166 0.457 0.0873 0.599-0.376 0.674l-0.36 0.0584zm53.7-8.15c-0.21-0.215-0.382-0.451-0.382-0.524 0-0.322 8.86-9.39 9.17-9.39 0.187 0 0.253-0.0941-5.44 7.78l-1.64 2.27-0.509 0.119c-0.76 0.178-0.797 0.17-1.21-0.252z" fill="#faa101"/><path d="m80.4 196c1.1e-4 -0.156 0.0902-1.21 0.2-2.35 0.592-6.11 0.49-9.82-0.339-12.3-0.307-0.911-0.254-0.909-2.2-0.097-2.71 1.13-2.58 1.09-2.69 0.949-0.0529-0.0682-0.153-0.726-0.222-1.46-0.149-1.58-0.085-1.48-0.773-1.25-0.699 0.238-0.735 0.21-0.892-0.668-0.219-1.22-0.279-1.12-0.567 0.984-0.203 1.48-0.0864 1.34-1.74 2.07-1.77 0.777-8.67 3.86-11.1 4.96-1.06 0.48-2.01 0.858-2.11 0.839l-0.18-0.0344-0.103-1.51c-0.118-1.73-0.116-1.73-0.67-1.48-0.51 0.23-0.514 0.225-0.687-0.687-0.0771-0.408-0.165-0.766-0.194-0.796-0.151-0.151-4.4 1.77-9.85 4.46-3.43 1.69-3.41 1.69-2.65 0.682 1.42-1.88 2.63-3.44 4.41-5.72 5.09-6.5 6.39-8.27 6.39-8.71 0-0.746-2.08-11.1-2.22-11.1-0.0206 0-0.63-0.163-1.35-0.362-3.33-0.916-8.83-1.87-14.6-2.53-1.03-0.119-1.44-0.225-1.32-0.346 0.0288-0.0288 2.51-0.889 5.51-1.91 5.6-1.91 8.51-2.93 9.36-3.3l0.48-0.206v-0.252c0-0.139-0.584-2.95-1.3-6.25l-1.3-5.99 0.122-0.147c0.0669-0.0806 0.416-0.311 0.776-0.513 0.36-0.201 0.786-0.476 0.946-0.611 0.16-0.135 0.975-0.571 1.81-0.97 0.835-0.399 1.52-0.768 1.52-0.819 0-0.308-4.09-4.6-8.62-9.04-2.18-2.14-3.96-3.92-3.96-3.98 0-0.164 0.172-0.12 4.38 1.13 16 4.75 21 5.32 22 2.47l0.192-0.551-0.0106-1.44c-0.0063-0.865-0.081-1.83-0.186-2.41-0.25-1.38-0.215-1.39 1.22-0.34 1.94 1.41 4.21 2.63 5.57 2.98l0.681 0.179 0.105-0.154c0.643-0.94-0.557-6.13-3.66-15.8-1.3-4.06-1.63-5.19-1.55-5.27 0.26-0.26 4.24 2.85 9.36 7.3 5.59 4.87 7.57 6.14 9.97 6.44 3.62 0.453 7.2-4.2 11.6-15.1 0.814-2.01 0.694-2.06 1.44 0.511 2.32 7.99 5.66 13.6 9.18 15.3 2.69 1.32 5.27 0.744 9.84-2.22 0.792-0.512 1.49-0.932 1.55-0.932 0.139 0 0.141-0.0205-0.144 1.72-0.136 0.837-0.281 1.88-0.321 2.32l-0.0732 0.799h0.152c0.449 0 6.99-4.41 17.1-11.5 9.4-6.63 11.2-7.85 11.3-7.85 0.161 0 0.13 0.22-0.0813 0.567-0.104 0.17-0.862 1.52-1.69 2.99-4.99 8.94-6.71 12.9-6.72 15.5-8e-3 1.2 2e-3 1.22 0.742 0.951l0.587-0.21 0.319-1.02 1.49-0.496c2.3-0.765 5.83-1.76 7.93-2.24 2.6-0.59 2.69-0.612 2.73-0.752 0.0226-0.0679 0.0914-0.32 0.153-0.56 0.144-0.564 0.107-0.549 2.63-1.11 5.11-1.14 13.3-2.41 13.6-2.12 0.0605 0.0605-0.101 0.647-0.43 1.56-0.612 1.7-0.617 1.66 0.247 1.58l0.663-0.0679-1e-3 0.143c-6.6e-4 0.0787-0.345 1.12-0.764 2.31s-1.35 3.83-2.07 5.88c-1.57 4.46-5.99 17.7-6.08 18.2l-0.0697 0.379 0.986 0.316c1.49 0.478 4.76 1.25 11.5 2.69 1.87 0.404 3.44 0.775 3.49 0.825 0.132 0.128-0.112 0.217-2.71 0.978-6.86 2.01-11.5 3.98-14.2 6.01l-0.648 0.498-0.0146 1.44c-0.0263 2.58-0.968 4.89-2.66 6.53-0.571 0.555-0.577 0.64-0.0951 1.47 1.31 2.25 3.55 5.17 8.15 10.6 1.77 2.1 1.9 2.06-1.7 0.63-7.29-2.89-12.2-4.5-16.1-5.32l-1.55-0.324-3.2-0.014-0.693 0.341c-2.76 1.36-2.04 5.78 2.48 15.3 0.941 1.97 1.11 2.02-2.4-0.572-6.75-4.97-11.3-7.54-14.9-8.46l-1.12-0.286-1.29 2e-3c-5.06 9e-3 -8.53 4.2-12 14.4-0.65 1.94-0.737 2.05-1.05 1.33-3.47-7.94-6.95-12.4-10.2-13-3.82-0.752-9.94 3.34-19.8 13.2-3.21 3.22-3.2 3.21-3.2 2.77zm7.63-13.5c2.43-2.31 4.74-4.14 6.99-5.52 1.45-0.889 1.43-0.828 0.422-1.27-1.76-0.764-3.57-2.36-4.84-4.26-0.408-0.612-0.777-1.13-0.82-1.14-0.0977-0.0375-0.317 1.17-0.723 4-0.175 1.22-0.343 2.37-0.372 2.56l-0.0537 0.344-0.535 0.244c-0.294 0.134-0.976 0.423-1.51 0.642l-0.979 0.399 0.0515 0.766c0.079 1.17 0.0612 4.52-0.0271 5.09l-0.0786 0.514 0.646-0.622c0.355-0.342 1.18-1.13 1.83-1.75zm25.4-0.897c0.839-2.78 3-6.08 5.13-7.83l0.335-0.276-0.0894-0.239c-0.0492-0.131-0.0661-0.83-0.0376-1.55l0.0518-1.31-0.143 3e-3c-0.0785 2e-3 -0.454 0.136-0.835 0.298-0.914 0.39-0.88 0.475-0.953-2.36-0.07-2.73-0.144-3.92-0.245-3.91-0.0377 9.1e-4 -0.277 0.382-0.532 0.847-2.14 3.9-5.83 7.82-8.74 9.29-0.679 0.343-0.681 0.333 0.186 0.883 1.88 1.19 4.43 4.28 5.31 6.44 0.257 0.624 0.29 0.607 0.556-0.272zm24-5.7c0-0.0879-0.0653-0.286-0.145-0.44-0.148-0.286-0.407-1.63-0.528-2.75-0.115-1.05 0.111-2.55 0.521-3.46 0.197-0.436 0.358-0.848 0.358-0.914 0-0.0662 0.209-0.343 0.464-0.616 0.54-0.578 0.565-0.657 0.18-0.567-0.616 0.143-1.14 0.431-1.12 0.618 0.028 0.323-0.943 0.634-1.11 0.357-0.0744-0.12-0.774 0.0833-1.34 0.39-0.226 0.122-0.57 0.252-0.764 0.288l-0.353 0.0663-0.138-0.189c-0.0962-0.132-0.138-0.543-0.138-1.35v-1.17h-0.238c-0.404 0-0.558 0.216-0.62 0.865-0.0744 0.782-0.199 0.868-2.49 1.71-1.26 0.465-5.21 2.13-5.33 2.25-0.0426 0.0419 0.421 0.0873 1.03 0.101 3.15 0.0702 8.19 2.11 11 4.47 0.64 0.53 0.739 0.575 0.739 0.336zm-46.6-10.6c-0.712-2.01-1.03-4.15-1.01-6.8 0.0098-1.22 0.132-2.54 0.182-1.97 0.0087 0.0996 0.11 0.124 0.347 0.0857 0.184-0.0301 0.721-0.114 1.19-0.186l0.857-0.131 0.914 0.245 0.438-0.174c0.583-0.232 1.44-0.206 2.12 0.0631l0.549 0.219 0.43-0.125c0.236-0.0686 0.525-0.185 0.642-0.258 0.156-0.0981 0.305-0.106 0.566-0.0316 0.195 0.0559 0.355 0.102 0.355 0.102 3.75e-4 0 0.0032-0.591 0.0062-1.31 0.0219-5.25 3.13-12 6.24-13.6l0.66-0.339 1.25-0.012 0.37 0.254c3.38 2.31 0.0736 15.3-4.53 17.8-1.02 0.555-1.89 0.507-2.72-0.149-0.371-0.293-0.514-0.364-0.463-0.228 0.143 0.378 0.511 0.836 0.871 1.08l0.363 0.248 0.626-8e-3c1.73-0.0232 3.77-2.05 5.48-5.43l0.269-0.531 0.117 0.16c0.0642 0.0878 0.349 0.193 0.632 0.235 0.284 0.0413 0.62 0.142 0.748 0.225 0.154 0.0987 0.294 0.119 0.412 0.0587 0.209-0.106 0.878-0.0919 1.3 0.0277 0.19 0.0546 0.378 0.0372 0.541-0.0502l0.25-0.134 0.503 0.269 0.624-0.525 1.11 0.0179c0.611 0.01 1.17 0.0565 1.25 0.104 0.0817 0.0518 0.204 0.0267 0.309-0.0633 0.0957-0.082 0.248-0.175 0.338-0.207 0.81-0.285 2.44-8.14 2.72-13.1 0.615-10.8-6.69-15.6-15.4-10.2-9.92 6.2-16.1 25.2-11.4 34.9 0.331 0.681 0.321 0.529-0.0295-0.46zm58.9 0.889c0-0.15-1.19-0.688-1.4-0.634-0.373 0.0937-0.294 0.244 0.193 0.365 0.241 0.0598 0.577 0.15 0.747 0.2 0.378 0.111 0.464 0.124 0.464 0.0702zm-4.36-1.01c-0.0173-0.0867 0.0924-0.122 0.335-0.106 0.406 0.0253 0.832-0.116 1.29-0.429 0.17-0.116 0.326-0.221 0.347-0.232 0.0569-0.0314-0.381-0.713-0.546-0.85l-0.145-0.12-0.172 1.08-0.361 0.0874c-0.684 0.166-1.54 0.517-1.49 0.608 0.0902 0.146 0.77 0.111 0.74-0.0378zm-88.9-5.3c0.579-7e-3 1.38-0.0439 1.77-0.0826 0.397-0.0387 1.21-0.0881 1.8-0.11 1.42-0.0517 2.13-0.124 2.35-0.242 0.0988-0.0529 0.301-0.0729 0.45-0.0445s0.301 2e-3 0.338-0.0585c0.0468-0.0758 0.189-0.0619 0.454 0.0444 0.213 0.085 0.477 0.146 0.588 0.136 0.441-0.0413 0.639 0.0239 0.746 0.246 0.0809 0.168 0.113-2.24 0.118-8.76 0.0038-4.95 0.0297-9.52 0.0575-10.2 0.141-3.24 0.157-4.92 0.047-4.92-0.119 0-2.03 0.75-4.2 1.65-2.76 1.14-8.85 3.85-9.03 4.03-0.051 0.0484 0.207 1.8 0.594 4.04 0.956 5.52 2.49 14.1 2.66 14.8l0.137 0.596 0.0605-1.14zm9.94-0.88c0.215-0.027 0.854-0.0371 1.42-0.0224 0.571 0.0148 1.18-0.025 1.37-0.0891l0.337-0.116 0.333 0.2c0.411 0.246 1.58 0.288 1.72 0.061 0.0485-0.0785 0.145-0.412 0.215-0.741 0.197-0.927 0.561-0.886 0.708 0.0791 0.0542 0.355 0.118 0.486 0.224 0.46 0.842-0.2 3.03-0.514 4.17-0.599 0.397-0.0297 0.786-0.108 0.865-0.173 0.0791-0.0654 0.45-0.128 0.825-0.14 0.611-0.0187 1.3-0.0638 2.82-0.185 0.271-0.0215 0.727-0.117 1.01-0.212 0.305-0.101 0.634-0.144 0.796-0.105 0.6 0.147 2.92 0.305 3.53 0.241 0.222-0.0236 0.275-0.164 0.555-1.47 0.186-0.869 0.958-4.23 1.4-6.08 0.175-0.737 0.454-1.83 0.619-2.42 1.39-4.99 1.71-6.16 2.2-7.83 0.305-1.05 0.958-3.3 1.45-5 0.493-1.7 0.986-3.35 1.1-3.67 0.238-0.684 0.248-0.814 0.061-0.814-0.528 0-10.3 3.51-10.6 3.81-0.0783 0.0757-0.309 1.05-1.66 7.05-0.874 3.87-1.97 9.44-2.53 12.8-0.275 1.67-0.545 3.08-0.601 3.14-0.305 0.305-0.35-0.0137-0.53-3.74-0.059-1.22-0.176-3.54-0.259-5.15-0.179-3.46-0.327-7.27-0.424-11l-0.0704-2.65h-0.15c-0.136 0-2.05 0.78-4.97 2.03-0.595 0.254-1.16 0.539-1.26 0.633-0.496 0.488-4.04 15-5.08 20.8-0.0916 0.51-0.188 1.04-0.214 1.19l-0.0475 0.258 0.151-0.27c0.11-0.197 0.257-0.283 0.542-0.319zm81.5-1.19c0.04-4.37 5.09-7.58 8.48-5.38 0.343 0.222 0.623 0.359 0.623 0.306 0-0.214-0.749-0.826-1.41-1.15l-0.7-0.344h-1.14c-3.64 0-6.92 3.87-6.03 7.09 0.148 0.531 0.155 0.509 0.164-0.515zm-28.4-5.63 7e-3 -0.296 0.309 0.256 0.557-0.282c0.431-0.218 0.647-0.269 0.954-0.223 0.218 0.0322 0.683 0.102 1.03 0.154 0.615 0.0926 0.795 0.074 1.99-0.205 0.255-0.0595 1.16-0.119 2.01-0.131 1.05-0.0157 1.7-0.0733 2.01-0.179 0.432-0.145 1.02-0.16 1.83-0.0492 0.188 0.0256 0.477-0.0226 0.649-0.108 0.17-0.0849 0.386-0.166 0.48-0.179 0.11-0.0161 0.238-0.243 0.361-0.635 1.33-4.26 1.43-4.34 1.57-1.13 0.0277 0.619 0.0735 1.15 0.102 1.18 0.0283 0.0283 0.0515-0.0258 0.0515-0.12 0-0.0945 0.058-0.172 0.129-0.172 0.0709-3.5e-4 0.265-0.0714 0.43-0.158 0.228-0.119 0.781-0.169 2.27-0.206 1.5-0.037 2.08-0.0908 2.46-0.225l0.494-0.176 0.431 0.269 0.373-0.15c1.38-0.554 1.52-0.58 3.41-0.633 0.595-0.0166 1.37-0.0641 1.71-0.106l0.63-0.0753 0.334-1.1c0.184-0.605 0.443-1.45 0.577-1.87 0.133-0.425 0.596-1.96 1.03-3.4 1.36-4.54 3.18-10.4 5.16-16.7 1.51-4.74 1.46-4.57 1.19-4.57-0.52 0-5.89 1.45-8.44 2.28l-0.952 0.31-0.201 0.688c-1.34 4.57-4.03 15-5.11 19.8-0.406 1.8-0.405 1.8-0.614 1.84l-0.193 0.0371 0.0639-4.01c0.073-4.58 0.244-11.1 0.373-14.2 0.102-2.45 0.141-2.34-0.719-2.02-0.366 0.138-1.5 0.558-2.52 0.933-1.02 0.375-1.91 0.737-1.98 0.804-0.329 0.326-4.53 13.6-5.96 18.8-0.155 0.567-0.352 1.14-0.437 1.28l-0.155 0.248-0.0844-0.151c-0.154-0.276 0.613-11.2 1.3-18.5 0.0855-0.907 0.184-1.99 0.218-2.4l0.0623-0.753-0.299 0.0697c-0.99 0.231-7.77 2.57-9.26 3.19l-0.402 0.168 0.0735 3.32c0.0465 2.1 0.136 3.77 0.243 4.55l0.169 1.24-0.027 3.92c-0.032 4.64 0.0817 10.5 0.198 10.2 0.0451-0.113 0.0853-0.339 0.0892-0.502zm32.3-5.43c0.171-0.814 0.321-1.13 0.531-1.13 0.101-3.7e-4 0.322-0.0928 0.492-0.206 0.198-0.131 0.484-0.205 0.793-0.205 0.266-3.8e-4 0.514-0.0492 0.55-0.108 0.0684-0.111 0.366-0.126 1.93-0.101 0.496 8e-3 0.96-0.0218 1.03-0.0666 0.0711-0.0447 0.406-0.175 0.743-0.29l0.614-0.209 0.494-1.39c0.272-0.765 1.26-3.62 2.2-6.34 1.94-5.63 3.04-8.76 5.02-14.3 1.83-5.1 1.88-5.24 1.81-5.31-0.108-0.108-7.17 1.11-9.5 1.64-1.33 0.303-1.33 0.298-1.54 1.35-0.0924 0.454-0.473 2.26-0.846 4.02-0.373 1.76-0.882 4.19-1.13 5.41s-0.921 4.49-1.49 7.27-1.27 6.16-1.54 7.53c-0.274 1.36-0.533 2.61-0.575 2.77l-0.0757 0.294 0.19-0.0366c0.138-0.0266 0.223-0.192 0.309-0.603zm-93.2-10.7c0.932-0.398 1.13-0.53 0.903-0.594-0.0804-0.0223-1.04-0.331-2.14-0.685s-2.02-0.617-2.05-0.583c-0.0771 0.0771 2.14 2.22 2.31 2.23 0.0658 3e-3 0.507-0.16 0.979-0.362zm13.6-1.7c2.23-0.946 2.45-1.06 2.36-1.15-0.0463-0.0463-0.453-0.265-0.904-0.487s-1.07-0.566-1.38-0.765c-0.687-0.441-0.724-0.423-0.724 0.351 0 0.708-0.284 1.61-0.666 2.11-0.542 0.71-0.49 0.708 1.31-0.0593zm8.75-0.141 0.382-0.164 0.106-0.387c0.0584-0.213 0.154-0.581 0.212-0.817l0.106-0.43 0.488-0.179c0.268-0.0986 0.766-0.291 1.11-0.428 5.01-2.01 13.6-4.84 13.9-4.57 0.062 0.062-0.0438 0.652-0.288 1.61-0.452 1.77-0.483 1.69 0.548 1.41 0.447-0.122 0.894-0.223 0.994-0.223h0.181l-0.0586 0.361c-0.079 0.487 0.0017 0.463 0.986-0.285 2.3-1.75 5.56-3.22 7.84-3.54 0.475-0.0656 0.754-0.247 0.507-0.33-2.39-0.796-5.84-5.48-7.23-9.82-0.365-1.14-0.46-1.11-0.946 0.246-1.79 5.01-4.67 8.45-7.93 9.46l-0.77 0.238-1.08-2e-3c-3.06-6e-3 -6.21-1.78-10.9-6.15-1.05-0.973-1.45-1.26-1.45-1.05 0 0.034 0.231 0.788 0.513 1.68 1.29 4.05 1.75 7.61 1.3 9.94l-0.134 0.694 0.379 0.12v1.47c0 1.81-0.0884 1.73 1.26 1.15zm35.8-5.58c-4e-3 -0.34 0.0374-1.11 0.0921-1.7 0.128-1.39 0.142-1.38-1.19-0.747-0.61 0.29-1.38 0.609-1.7 0.708-0.758 0.23-0.757 0.231 0.291 0.82 0.486 0.273 1.22 0.782 1.62 1.13 0.837 0.718 0.901 0.703 0.89-0.21zm16.5-3.31c2.46-0.924 2.23-0.761 2.4-1.7 0.311-1.76 0.994-3.72 2.02-5.78 0.758-1.52 0.682-1.56-0.809-0.362-0.666 0.533-2.42 1.87-3.89 2.98-4.57 3.42-4.37 3.22-2.89 2.82 1.28-0.35 1.26-0.38 1.04 1.21-0.198 1.48-0.204 1.63-0.0656 1.63 0.057 0 1.04-0.353 2.19-0.785zm-36.4 69.3c0.129-0.892 3.38-10.3 3.63-10.5 0.078-0.0632 0.416-0.173 0.751-0.244l0.609-0.129 0.472 0.395c0.608 0.508 0.635 0.383-0.526 2.39-0.549 0.949-1.78 3.09-2.73 4.75-0.955 1.66-1.86 3.19-2 3.4l-0.265 0.377zm59.9-11.2c-1.15-0.697-3.8-2.33-5.88-3.63l-3.79-2.36 2e-3 -0.522c2e-3 -0.652 0.0476-0.721 0.648-0.987 0.592-0.262 0.0812-0.599 4.19 2.77 6.39 5.24 7.27 5.99 6.97 5.99-0.0236 0-0.986-0.57-2.14-1.27zm-122-10.7c0-0.351 13.7-5.68 14.6-5.68 0.191 0 1.13 0.711 1.22 0.92 0.0769 0.186-0.147 1.26-0.297 1.42-0.123 0.134-15 3.43-15.4 3.43-0.0481 0-0.0874-0.0408-0.0874-0.0907zm141-5.11c-0.822-0.241-2.7-0.789-4.18-1.22-8.99-2.62-8.04-2.27-8.19-2.96-0.162-0.756-0.164-0.75 0.455-1.18l0.567-0.39 0.902 0.387c5.16 2.21 12.5 5.6 12.5 5.76 0 0.138-0.659 9e-3 -2.06-0.402zm-8.63-27.5c-0.184-0.251-0.335-0.524-0.335-0.607 0-0.188 0.784-1.65 0.965-1.8 0.472-0.392 8.02-3.03 11.9-4.17 4.52-1.32 4.51-1.3-0.309 1.12-1.67 0.839-4.97 2.52-7.33 3.72-4.83 2.47-4.46 2.34-4.91 1.73zm-106-14.8c-2.66-2.24-10.2-8.41-12.7-10.4-1.79-1.44-4.58-3.79-4.79-4.02l-0.206-0.234 0.258 0.0787c0.637 0.194 5.83 3.11 9.17 5.14 1.44 0.878 8.13 5.29 8.38 5.52 0.0663 0.0627 0.931 2.29 1.57 4.04 0.166 0.457 0.0873 0.599-0.376 0.674l-0.36 0.0584zm53.7-8.15c-0.21-0.215-0.382-0.451-0.382-0.524 0-0.322 8.86-9.39 9.17-9.39 0.187 0 0.253-0.0941-5.44 7.78l-1.64 2.27-0.509 0.119c-0.76 0.178-0.797 0.17-1.21-0.252z" fill="#f96200"/><path d="m80.4 196c0.0346-0.192 0.166-1.39 0.291-2.67l0.228-2.32 0.0112-6.7-0.178-0.942c-0.231-1.23-0.672-2.61-0.852-2.68-0.0784-0.0301-1.1 0.346-2.28 0.835-1.17 0.489-2.17 0.853-2.22 0.808-0.0439-0.045-0.13-0.569-0.191-1.16-0.202-1.98-0.168-1.92-0.981-1.53-0.57 0.277-0.546 0.302-0.745-0.78-0.254-1.38-0.348-1.25-0.635 0.897-0.227 1.7-0.085 1.53-2.03 2.37-0.85 0.368-2.43 1.06-3.51 1.54-5.12 2.29-6.9 3.09-8.08 3.62-1.53 0.694-1.43 0.76-1.55-1.07-0.103-1.64-0.147-1.75-0.609-1.51-0.538 0.278-0.606 0.228-0.735-0.535-0.0648-0.384-0.159-0.765-0.209-0.846l-0.091-0.147-0.651 0.273c-2.39 1-6.4 2.87-9.71 4.53-1.24 0.62-2.3 1.11-2.36 1.09-0.128-0.0427 0.818-1.31 4.3-5.75 4.73-6.03 6.86-8.88 6.86-9.19 0-0.402-2.1-11.1-2.2-11.2-0.536-0.536-8.21-2.01-14.7-2.82-2.28-0.285-2.59-0.343-2.47-0.459 0.0263-0.0263 2.43-0.862 5.35-1.86 8.17-2.78 9.67-3.33 9.83-3.59 0.0589-0.0926-0.024-0.683-0.229-1.63-0.177-0.817-0.763-3.52-1.3-6.01-1.17-5.39-1.13-4.82-0.351-5.3 0.347-0.21 0.831-0.53 1.08-0.711 0.244-0.181 1.06-0.614 1.82-0.962 0.755-0.348 1.44-0.696 1.52-0.774l0.146-0.141-0.377-0.46c-0.925-1.13-3.65-3.95-7.78-8.05-2.46-2.44-4.4-4.45-4.33-4.46 0.0774-0.016 1.76 0.456 3.75 1.05 14.8 4.43 20.7 5.31 22.1 3.27 0.568-0.848 0.709-2.7 0.378-4.97-0.0911-0.623-0.139-1.16-0.108-1.19 0.032-0.032 0.86 0.476 1.84 1.13 2.52 1.68 4.04 2.45 5.3 2.69 1.52 0.287 0.519-4.6-3.5-17.1-1.2-3.73-1.28-4.02-1.1-4.02 0.46 0 4.95 3.55 9.2 7.29 6.51 5.71 9.1 7.07 11.9 6.22 2.82-0.872 5.82-5.37 9.5-14.2 0.461-1.11 0.878-2.04 0.927-2.06 0.0492-0.0233 0.342 0.814 0.65 1.86 2.79 9.46 6.59 15 10.9 15.9 2.14 0.455 4.56-0.365 8.32-2.82 1.69-1.1 1.6-1.16 1.25 0.746-0.258 1.4-0.384 3.25-0.221 3.25 0.445 0 6.63-4.17 16.7-11.3 13.2-9.29 12.2-8.68 11.4-7.3-4.9 8.07-8.52 16.3-8.25 18.7 0.0859 0.76 0.123 0.781 0.864 0.504l0.602-0.225 0.382-1.06 2.22-0.701c2.83-0.895 5.42-1.6 7.82-2.13 2.24-0.496 2.02-0.393 2.17-1.03 0.0674-0.281 0.176-0.555 0.242-0.61 0.661-0.547 15.5-3.12 15.9-2.75 0.0417 0.0417-0.127 0.641-0.375 1.33s-0.474 1.39-0.502 1.55l-0.0515 0.291 0.651-0.0266c0.852-0.0348 0.854-0.145-0.0419 2.4-0.424 1.21-1.36 3.86-2.08 5.91-2.8 7.95-6.21 18.4-6.07 18.5 0.351 0.331 3.71 1.14 14.2 3.42 0.875 0.191 1.61 0.395 1.63 0.453 0.0194 0.0581-0.836 0.354-1.9 0.657-7.3 2.08-12.6 4.36-15.2 6.52l-0.287 0.239-0.0335 1.55-0.0334 1.55-0.226 0.766c-0.465 1.58-1.23 2.91-2.37 4.13-0.634 0.68-0.628 0.592-0.0976 1.49 1.47 2.48 4.38 6.25 9.24 11.9 0.324 0.379-0.0401 0.294-1.86-0.434-17.7-7.09-23.8-7.78-24.1-2.74l-0.0469 0.928 0.265 1.3c0.434 2.12 1.88 5.95 3.67 9.73 0.296 0.624 0.603 1.28 0.683 1.47l0.145 0.335-0.13-1e-3c-0.0716-6.7e-4 -0.919-0.586-1.88-1.3-7.95-5.89-12.5-8.45-16.4-9.26-5.97-1.25-10.2 3.26-14 14.8-0.226 0.695-0.448 1.26-0.494 1.26-0.0455 0-0.395-0.684-0.777-1.52-3.1-6.78-6.32-10.9-9.18-11.8-3.92-1.2-9.68 2.46-20 12.7-3.62 3.6-3.64 3.62-3.55 3.09zm4.39-6.2c6.28-6.2 11.2-9.83 15-11.1l1.3-0.432 0.938-0.0526c3.88-0.217 7.73 3.34 11 10.2 0.601 1.25 0.577 1.26 1.11-0.253 2.63-7.44 6.3-11.7 10.7-12.5 4.01-0.706 9.88 1.79 17.2 7.31 0.362 0.273 0.722 0.496 0.8 0.496h0.142l-0.17-0.387c-1.42-3.24-2.31-6.21-2.46-8.29l-0.0737-0.999 0.179-0.805c0.811-3.65 3.81-4.5 10.4-2.91 2.85 0.69 7.12 2.1 10.5 3.48 1.83 0.74 1.88 0.717 0.893-0.415-1.91-2.19-4.42-5.63-5.13-7.04-0.201-0.396-0.32-0.425-0.788-0.187-3.24 1.65-7.15 0.839-9.17-1.9-0.308-0.416-0.602-0.757-0.654-0.757-0.097 0-0.308 0.643-0.309 0.941-9e-4 0.264-0.153 0.334-1.96 0.9-3.85 1.21-7.42 2.45-10.1 3.51-0.688 0.274-0.738 0.147-0.748-1.92l-3e-3 -0.644h-0.153c-0.0839 0-0.334 0.0725-0.555 0.161l-0.403 0.161-0.282 1.48-2.01 0.806c-2.64 1.06-6.57 2.72-9.05 3.83-1.09 0.488-2.04 0.856-2.1 0.818-0.0784-0.0485-0.0925-0.459-0.0458-1.33 0.0954-1.78 0.0957-1.78-1.02-1.28-0.903 0.405-0.843 0.551-0.918-2.19-0.0805-2.94-0.161-4.2-0.268-4.2-0.0447 0-0.35 0.475-0.679 1.06-7.02 12.4-19.9 15.3-25.7 5.67-0.713-1.18-0.685-1.25-1.41 3.69-0.429 2.91-0.322 2.6-0.988 2.86-3.35 1.31-6.13 2.43-6.21 2.5-0.0536 0.051 0.0407 0.489 0.225 1.05 0.626 1.89 0.827 4.96 0.604 9.23-0.048 0.921-0.0503 1.68-5e-3 1.68 0.0453 0 1.08-0.987 2.3-2.19zm-35.2-5.48c1.04-0.521 3.63-1.71 4.96-2.28l1.16-0.497-6.16e-4 -0.264c-1e-3 -0.447-0.713-4.37-0.811-4.47-0.0539-0.0539-0.366 0.264-0.755 0.767-0.365 0.472-1.16 1.51-1.77 2.3-0.609 0.794-1.43 1.84-1.81 2.32-2.28 2.83-2.25 2.77-0.965 2.12zm11.4-4.04c3.54-1.65 7.04-3.24 7.14-3.24 0.278 0 0.428-0.51 0.785-2.68 0.989-6.01 2.85-15.8 3.04-16 0.0874-0.093 0.0906-0.0755 0.731 4 0.231 1.47 0.83 5.07 1.33 7.99s0.942 5.51 0.98 5.75c0.0382 0.241 0.108 0.461 0.154 0.49 0.0844 0.0522 9.16-3.5 9.31-3.65 0.0898-0.0862 0.108-0.194 0.746-4.29 1.96-12.6 3.36-18.8 7.35-32.4 0.224-0.765 0.664-2.27 0.979-3.35 0.315-1.08 0.602-2.04 0.638-2.13 0.0361-0.0935 0.0154-0.201-0.046-0.239-0.269-0.166-10.7 3.6-10.9 3.9-0.0241 0.0635-0.264 1.09-0.534 2.28-0.269 1.19-0.742 3.27-1.05 4.63-1.01 4.43-2.22 10.3-2.77 13.5-0.457 2.64-0.498 2.58-0.715-1.08-0.0926-1.56-0.234-3.9-0.315-5.21-0.175-2.83-0.347-7.02-0.444-10.8-0.0455-1.76-0.111-2.79-0.184-2.87-0.111-0.111-0.468 0.0274-4.94 1.92-0.737 0.313-1.4 0.622-1.46 0.688-0.124 0.118-0.578 1.72-1.63 5.74-1.16 4.42-1.29 4.96-1.75 6.91-0.928 3.92-1.2 5.12-1.65 7.19-0.428 2.01-0.507 2.28-0.622 2.17-0.23-0.23-0.232-21.4-0.0016-22.8 0.0274-0.17 0.0058-0.379-0.0481-0.464l-0.098-0.155-0.66 0.229c-0.605 0.211-2.63 1.03-4.81 1.95-0.915 0.386-5.83 2.56-7.04 3.12-1 0.461-1.09-0.677 0.753 9.95 1.5 8.68 4.95 29.6 4.95 30.1 0 0.12 0.302-6e-3 2.74-1.14zm40-8.95c6.87-1.67 12.5-9.2 15.3-20.5 2.3-9.3 1.71-16.5-1.64-19.9l-0.881-0.89-0.974-0.468c-6.69-3.21-16.1 3.16-20.6 14-6.64 15.9-2.04 30.4 8.81 27.7zm-0.787-11.9c-3.53-1.49-1.16-13.3 3.45-17.1 3.68-3.09 5.59 1.18 3.72 8.32-1.48 5.65-4.85 9.79-7.17 8.81zm22.2 6.68c1.67-0.754 3.72-1.67 4.55-2.03l1.52-0.659 0.0914-0.367c1.25-5.01 3.47-13.4 3.94-14.8 0.312-0.965 0.352-0.761 0.491 2.46 0.118 2.76 0.231 4.9 0.534 10.2 0.069 1.2 0.159 2.24 0.199 2.31 0.0513 0.0831 0.928-0.2 2.9-0.934 1.55-0.579 3.54-1.3 4.41-1.61 1.94-0.675 1.79-0.513 2.27-2.37 2.04-7.88 6.1-21.7 9.66-32.9 0.772-2.43 1.25-4.1 1.19-4.15-0.218-0.218-9.17 2.24-9.58 2.63-0.239 0.229-2.25 7.69-4.93 18.3-0.962 3.8-0.936 3.72-1.04 3.3-0.0929-0.37 0.134-12.6 0.331-17.8l0.0693-1.84-0.247 0.0548c-0.252 0.056-3.03 1.06-4.42 1.59l-0.773 0.298-1.32 3.91c-1.26 3.75-2.67 8.19-4.21 13.3-0.778 2.58-0.918 2.89-0.918 2.01 1e-3 -1.71 0.893-13.9 1.35-18.4 0.209-2.07 0.204-2.24-0.0684-2.24-0.431 0-9.27 3.07-9.62 3.34l-0.142 0.112 0.0573 3.61c0.0315 1.99 0.11 3.93 0.175 4.33 0.0811 0.497 0.127 3.99 0.149 11.2 0.0326 10.9 0.142 18.6 0.265 18.6 0.039 0 1.43-0.617 3.1-1.37zm30.2-4.2c3.81-0.618 6.48-5.25 4.86-8.42-1.52-2.98-5.93-2.9-8.5 0.152-3.25 3.85-0.974 9.02 3.64 8.27zm-101-1.36c-0.0392-0.241-0.176-0.879-0.304-1.42-0.128-0.539-0.318-1.44-0.423-2-0.23-1.23-0.195-1.21-1.51-0.702-0.583 0.228-2.5 0.889-4.26 1.47-1.76 0.58-3.22 1.07-3.24 1.09-0.12 0.0963 0.196 0.168 1.5 0.343 2.23 0.298 5.6 0.975 7.15 1.44 0.369 0.11 0.779 0.203 0.911 0.207l0.241 8e-3zm110-6.55c2.17-1.56 5.87-3.29 9.5-4.45 0.921-0.294 1.68-0.574 1.68-0.622 0-0.117-0.0328-0.125-2.68-0.657-2.85-0.573-4.2-0.89-5.79-1.36-0.675-0.2-1.32-0.349-1.44-0.331l-0.214 0.0322-0.197 0.67c-0.108 0.369-0.354 1.18-0.545 1.8-0.192 0.624-0.387 1.32-0.435 1.55l-0.0863 0.412-1.13 0.132c-1.58 0.185-1.62 0.313-0.406 1.51 0.345 0.342 0.755 0.842 0.912 1.11 0.334 0.575 0.325 0.573 0.842 0.201zm-9.19-6.45c0.992-0.247 2.46-0.482 4.18-0.668l1.6-0.173 0.136-0.41c0.0747-0.225 0.8-2.43 1.61-4.89 2.07-6.3 4.32-12.8 6.9-20 0.918-2.57 1.36-3.95 1.3-4.01-0.199-0.199-10.1 1.55-10.7 1.9-0.102 0.0545-0.228 0.394-0.331 0.892-0.0916 0.442-0.492 2.33-0.89 4.21-0.398 1.87-1.21 5.74-1.81 8.61s-1.36 6.5-1.7 8.09c-1.43 6.72-1.45 6.83-1.06 6.71 0.0995-0.0293 0.459-0.123 0.799-0.208zm-96.5-9.95c3.81-1.62 5.13-2.15 9.6-3.81 1.57-0.584 2.33-0.751 2.33-0.513 4.09e-4 0.0786-0.0531 0.736-0.119 1.46-0.145 1.6-0.129 1.62 0.696 1.26 0.388-0.172 0.709-0.25 0.888-0.215 0.313 0.0616 0.83-0.119 3.07-1.07 0.822-0.35 1.93-0.821 2.46-1.05 1.29-0.549 4.56-1.74 4.77-1.74 0.0461 0 0.0838 0.674 0.0838 1.5v1.5l0.14 0.0537c0.184 0.0705 1.45-0.438 1.64-0.66 0.0831-0.0953 0.209-0.428 0.28-0.74 0.187-0.82 0.159-0.795 1.55-1.35 6.45-2.57 14.1-5.01 14-4.45-0.868 3.36-0.893 3.14 0.311 2.83 1.13-0.292 1.08-0.301 1 0.187-0.0923 0.546 0.025 0.533 0.81-0.0912 5.75-4.57 12.5-5.16 16.6-1.44 0.868 0.795 0.973 0.766 1.01-0.282l0.0302-0.796 0.702-0.287c3.74-1.53 13.3-4.66 13.5-4.44 0.0445 0.0445 0.0112 0.609-0.0739 1.25-0.0851 0.646-0.155 1.31-0.155 1.48v0.303l0.316-0.0631c0.174-0.0347 1.48-0.499 2.91-1.03 1.43-0.533 3.2-1.19 3.95-1.45 0.742-0.266 1.4-0.515 1.46-0.552 0.0594-0.0373 0.159-0.537 0.221-1.11 0.3-2.77 1.72-6.4 4.61-11.8 1.15-2.15 1.16-2.23 0.139-1.5-5.42 3.9-6.49 4.66-11.6 8.27-0.879 0.615-2.04 1.43-2.58 1.81-3.13 2.2-9.58 6.29-9.93 6.29-0.292 0-0.537-2.13-0.392-3.41 0.127-1.13 0.128-1.13-1.13-0.382-3.39 2-5.8 2.36-8.52 1.27-3.61-1.45-7.19-6.55-9.41-13.4-0.438-1.36-0.454-1.35-1.23 0.515-2.74 6.56-5.71 10.6-8.79 11.8l-0.647 0.264-1.08 0.0454c-2.95 0.124-5.43-1.32-11.9-6.94-3.77-3.3-5.18-4.48-5.26-4.42-0.0887 0.0548 0.0183 0.47 0.398 1.54 1.14 3.22 2.97 9.82 3.31 12 0.402 2.48 0.222 5.23-0.358 5.45-0.818 0.314-4.06-0.851-5.96-2.14-0.92-0.626-0.894-0.643-0.895 0.578-6e-3 5.21-3.37 5.94-14.6 3.17-1.6-0.394-2.39-0.614-6.13-1.71-0.851-0.25-1.59-0.454-1.64-0.454-0.0499 0 1.23 1.33 2.84 2.97 1.61 1.63 3.55 3.65 4.31 4.48s1.42 1.52 1.47 1.52c0.0472 0 0.514-0.183 1.04-0.406zm41.2 57.2c-0.0095-0.31 3.19-9.71 3.51-10.3 0.0914-0.171 0.821-0.402 1.25-0.397 0.131 2e-3 0.436 0.176 0.679 0.387l0.441 0.384-0.918 1.6c-3.69 6.42-4.62 8.04-4.78 8.26l-0.175 0.247zm59.7-11.3c-3.1-1.88-9.37-5.81-9.43-5.92-0.291-0.468 0.115-1.25 0.749-1.44l0.38-0.114 1.99 1.64c9.63 7.93 9.35 7.67 6.31 5.83zm-122-10.6c0-0.0553 0.22-0.195 0.49-0.31 4.35-1.86 7.76-3.19 11.3-4.42l2.51-0.862 0.559 0.437c0.602 0.47 0.611 0.497 0.455 1.32-0.131 0.689 0.171 0.552-2.49 1.13-1.27 0.277-3.9 0.855-5.86 1.29s-4.23 0.922-5.05 1.09c-0.821 0.169-1.6 0.335-1.73 0.367s-0.235 0.0137-0.235-0.0416zm142-4.87c-0.34-0.105-2.17-0.639-4.07-1.19-1.9-0.548-3.82-1.11-4.28-1.24-0.454-0.136-1.64-0.485-2.63-0.776-0.992-0.291-1.84-0.564-1.89-0.607-0.182-0.172-0.364-1.12-0.242-1.27 0.207-0.245 0.872-0.695 1.03-0.695 0.381 0 12.2 5.34 12.9 5.83l0.216 0.151-0.203-6e-3c-0.112-3e-3 -0.482-0.0915-0.822-0.196zm-8.99-27.3c-0.0559-0.0368-0.247-0.27-0.426-0.518l-0.324-0.451 0.931-1.8 1.56-0.594c5.48-2.08 13.4-4.61 13.4-4.28 0 0.0454-2.26 1.22-5.03 2.62-2.76 1.39-6.14 3.11-7.51 3.81s-2.53 1.25-2.59 1.21zm-108-16.4c-7.31-6.05-9.11-7.52-11.4-9.35-2.77-2.24-4.51-3.72-4.45-3.79 0.0621-0.0621 1.21 0.526 3.29 1.69 5.04 2.81 6.95 4.01 13.7 8.6l0.416 0.281 0.798 2.15c0.909 2.45 0.912 2.51 0.122 2.51-0.0123 0-1.16-0.939-2.55-2.09zm55.1-6.93c-0.16-0.205-0.276-0.436-0.258-0.514 0.0811-0.352 8.12-8.64 8.67-8.94l0.188-0.103-0.113 0.212c-0.108 0.202-2.3 3.28-4.13 5.78-0.475 0.652-1.25 1.73-1.73 2.4-0.968 1.35-1.01 1.38-1.79 1.47l-0.552 0.0617z" fill="#080807"/></svg>
