<svg width="210mm" height="297mm" version="1.1" viewBox="0 0 210 297" xmlns="http://www.w3.org/2000/svg"><path d="m86.2 170c-0.741-0.795-1.48-1.59-1.63-1.76l-0.285-0.313-0.528 0.182c-0.291 0.1-1.17 0.409-1.94 0.687-1.7 0.605-1.61 0.599-1.32 0.0951 0.128-0.225 0.328-0.586 0.446-0.801s0.497-0.882 0.843-1.48c0.754-1.31 0.749-1.1 0.0503-2.01-1.25-1.62-1.36-1.77-1.3-1.86 0.0314-0.0508 0.0227-0.0669-0.0214-0.0396-0.0408 0.0252-0.184-0.09-0.319-0.256-0.388-0.48-0.389-0.478 0.0679-0.371 2.49 0.587 3.81 0.888 3.89 0.888 0.0884 0 0.882-1.17 2.01-2.95 0.267-0.423 0.492-0.74 0.501-0.706 0.0161 0.0637 0.151 1.34 0.347 3.26 0.0594 0.586 0.132 1.09 0.161 1.11 0.029 0.025 0.958 0.281 2.06 0.569s2.01 0.544 2.01 0.57c0 0.0256-0.264 0.161-0.587 0.3-1.66 0.716-3.3 1.48-3.36 1.57-0.0392 0.0596 0.0064 0.996 0.117 2.4 0.0996 1.27 0.172 2.32 0.161 2.33-0.0112 0.0121-0.627-0.629-1.37-1.42zm-1.55-16.9c-0.198-1.65-1.03-3.61-1.97-4.62-0.163-0.177-0.284-0.332-0.268-0.345 0.0155-0.013 0.21-0.105 0.432-0.205 0.544-0.245 0.538-0.225 0.597-2.06l0.052-1.61 0.479 0.228-0.0116 0.308-0.0116 0.308 0.172 0.188c0.26 0.284 1.64 0.908 3.15 1.42 1.24 0.424 1.53 0.317 1.65-0.616 0.271-2.16 1.38-7.91 1.55-8.09 0.0128-0.0128 0.262-0.0722 0.553-0.132 0.292-0.0597 0.596-0.124 0.677-0.142l0.147-0.0339 0.0884 2.39c0.0486 1.32 0.118 2.83 0.153 3.36l0.0648 0.967 0.133 0.18c0.0908 0.123 0.259 0.211 0.528 0.276l0.395 0.0952 0.068 0.708 0.239 0.247c0.388 0.4 1.67 0.6 3.85 0.6h1.35l0.455-0.407-0.192-2.09c-0.106-1.15-0.192-2.17-0.191-2.26l0.0012-0.171 0.135 0.122c0.074 0.0669 0.29 0.181 0.481 0.253l0.346 0.131 0.0367 0.354c0.0732 0.707 1.15 1.22 4.02 1.92l1.09 0.264-0.0347 0.259c-0.0815 0.607 0.245 2.73 0.596 3.87l0.041 0.133-0.31-0.192c-4.4-2.73-7.99-1.39-9.15 3.42-0.103 0.428-0.208 0.836-0.234 0.907l-0.0465 0.129-0.33-0.449c-3.01-4.1-6.81-3.93-10.4 0.47l-0.289 0.35zm-7.51-8c0.0035-0.946 0.029-1.47 0.0663-1.36 0.126 0.368 0.788 2.8 0.768 2.81-0.0116 0.01-0.205 0.0328-0.43 0.0506l-0.409 0.0325zm29-3.92c0.137-1.49 0.974-7.17 1.08-7.34 0.0206-0.0333 0.0832-0.0606 0.139-0.0606 0.401 0 2.42-0.803 3.36-1.34 0.284-0.161 0.516-0.265 0.516-0.231 0 0.0339-0.026 0.0723-0.0577 0.0854-0.51 0.21-1.36 2.09-1.48 3.27-0.108 1.08 0.568 3.33 1.22 4.06l0.102 0.115-0.747 0.0841c-1.65 0.186-2.89 0.697-3.88 1.61l-0.313 0.287zm-7.53-1.37c-0.023-0.518-0.0812-1.77-0.129-2.79-0.102-2.16-0.126-10.6-0.0365-12.9l0.0616-1.56 0.338 0.639c0.539 1.02 1.11 1.8 1.33 1.8 0.0482 0 0.203 0.19 0.344 0.421 0.141 0.232 0.368 0.519 0.504 0.639l0.249 0.218-0.389 1.94c-0.698 3.48-2.1 11.7-2.1 12.3 0 0.0812-0.0275 0.165-0.0612 0.185-0.0336 0.0208-0.08-0.386-0.103-0.904zm-27.6-0.0506c-0.64-1.23-1.6-2.08-3.41-3.03-0.507-0.266-0.971-0.535-1.03-0.596-0.0613-0.0613-0.264-0.208-0.45-0.325-0.425-0.269-0.423-0.312 0.0356-0.551 0.392-0.205 1.29-0.855 1.66-1.2 0.155-0.146 0.289-0.204 0.472-0.204h0.255l0.294 0.39c0.371 0.491 0.571 0.679 0.727 0.679 0.0733 0 0.208 0.151 0.336 0.378 0.632 1.12 1.24 1.08 1.76-0.129 0.271-0.625 0.283-0.595 0.178 0.463-0.0369 0.372-0.133 1.49-0.214 2.49-0.0809 0.999-0.171 1.93-0.201 2.06l-0.054 0.249zm13-1.53c0.0228-0.118 0.0622-0.334 0.0874-0.481s0.0716-0.267 0.103-0.267 0.0106 0.199-0.0461 0.442c-0.105 0.451-0.22 0.693-0.144 0.306zm0.758-5.05c0-0.499 1.14-6.03 1.71-8.3 0.296-1.18 0.224-1.39-0.551-1.62-0.206-0.06-0.375-0.129-0.375-0.153 0-0.024 0.0502-0.222 0.111-0.441 0.273-0.974-0.262-1.17-3.39-1.26l-1.53-0.0433-0.219 0.113c-0.383 0.198-0.508 0.894-1.14 6.32l-0.0537 0.463-0.0592-0.392c-0.0766-0.507-0.24-0.723-0.646-0.854l-0.329-0.107-0.0429-0.463c-0.0566-0.61-0.182-0.881-0.464-0.997l-0.228-0.0943-0.687 0.127c-0.833 0.154-1.76 0.372-2.89 0.684l-0.854 0.235-0.44 0.437-0.191 2.26-0.0902-0.123c-0.0524-0.0717-0.0727-0.211-0.0484-0.333l0.0418-0.209-0.213-0.227c-0.117-0.125-0.357-0.451-0.533-0.726-0.176-0.274-0.536-0.731-0.8-1.01-0.264-0.284-0.447-0.516-0.406-0.516 0.287 0 1.86-0.246 2.32-0.364 4.59-1.16 6.3-4.62 5.12-10.4l-0.0492-0.24 0.531 0.393c1.69 1.25 3.15 1.99 4.68 2.37l0.758 0.19 0.748 7.9e-4c2.55 3e-3 4.34-1.65 5.41-4.99l0.258-0.808 0.195 0.358c2.62 4.82 6.99 5.19 11.9 1.02l0.613-0.525 0.0488 0.81c0.055 0.911 0.161 1.68 0.317 2.3 0.058 0.23 0.0956 0.425 0.0836 0.434-0.012 9e-3 -0.358 0.203-0.769 0.431-1.8 0.995-4.05 2.79-4.52 3.61-0.05 0.0862-0.127 0.109-0.266 0.0806l-0.196-0.0403 0.0366-1.2-0.188-0.162c-0.508-0.439-3.72-0.17-6.84 0.571-0.974 0.232-0.938 0.187-1.63 2.03-0.316 0.841-0.672 1.79-0.792 2.1-0.534 1.39-2.1 5.97-2.73 7.98-0.222 0.705-0.436 1.32-0.476 1.37-0.115 0.139-0.199 0.105-0.199-0.0824zm29.5-3.33 0.64-0.626 0.264 0.29c0.145 0.159 0.271 0.31 0.28 0.335 9e-3 0.0246-0.275 0.116-0.632 0.202-0.357 0.0864-0.771 0.218-0.921 0.292l-0.272 0.135zm-5.28-4.78c9.5e-4 -0.131 0.749-3.02 0.873-3.37l0.1-0.285 0.599-0.122c1.11-0.225 1.24-0.132 0.964 0.662-0.342 0.968-2.54 3.67-2.54 3.12zm-12.1-20.8c0.0138-0.382 0.0564-1.17 0.0947-1.75 0.0383-0.578 0.0696-1.21 0.0696-1.4v-0.344l-0.765-0.323c-0.421-0.178-1.21-0.508-1.74-0.734-0.538-0.226-0.979-0.43-0.979-0.453 1.49e-4 -0.023 0.837-0.281 1.86-0.574l1.86-0.532 0.0578-0.144c0.057-0.142 0.336-2.09 0.502-3.51 0.11-0.941-0.0634-1.15 1.61 1.9 0.291 0.529 0.556 0.99 0.59 1.03 0.0564 0.0582 0.425-0.0042 3.15-0.533 0.385-0.0746 0.732-0.136 0.771-0.136 0.11 0-0.58 0.843-2.16 2.64l-0.412 0.468 0.539 1.31c0.485 1.18 0.812 2.03 0.812 2.11 0 0.0611-0.364-0.0926-1.75-0.738-1.7-0.795-1.47-0.777-1.99-0.15-1.2 1.45-2.12 2.55-2.13 2.55-0.0076 0-0.0025-0.312 0.0113-0.694z" fill="#fbe20a"/><path d="m87.2 171-0.425-0.445 0.445 0.425c0.245 0.234 0.445 0.434 0.445 0.445 0 0.0526-0.0703-0.0116-0.465-0.425zm-1.07-1.14-0.425-0.445 0.445 0.425c0.245 0.234 0.445 0.434 0.445 0.445 0 0.0526-0.0703-0.0116-0.465-0.425zm1.19-2.8c-0.0128-0.411 0.0593-0.602 0.228-0.602 0.0388 0 0.0176 0.0401-0.0472 0.089-0.0804 0.0608-0.126 0.224-0.143 0.516l-0.0248 0.427zm-3.53-11.3c-0.163-3.39-0.868-5.48-2.28-6.77-0.41-0.375-0.458-0.444-0.307-0.443 0.049 3.1e-4 0.338-0.102 0.642-0.227l0.553-0.227 0.254 0.245c0.916 0.881 1.85 3.04 2.06 4.72l0.0504 0.421 0.289-0.35c3.63-4.4 7.43-4.57 10.4-0.47l0.33 0.449 0.0465-0.129c0.0256-0.0708 0.131-0.479 0.234-0.907 1.16-4.81 4.75-6.15 9.15-3.42l0.31 0.192-0.041-0.133c-0.362-1.17-0.707-3.5-0.589-3.97l0.0479-0.191h0.322c0.241 0 0.363-0.0411 0.486-0.163l0.163-0.163 0.192-2.48 0.212-0.241c0.772-0.879 2.31-1.54 4-1.73l0.747-0.0841-0.102-0.115c-0.18-0.202-0.811-1.52-0.957-2-0.536-1.76-0.23-3.55 0.838-4.9 0.162-0.205 0.272-0.409 0.245-0.453-0.0289-0.0468-0.018-0.0608 0.0262-0.0335 0.0417 0.0258 0.151-0.0166 0.242-0.0943 0.0916-0.0776 0.471-0.357 0.843-0.62 0.372-0.264 0.868-0.634 1.1-0.823 0.426-0.343 1.13-0.629 1.82-0.739 0.347-0.0555 0.347-0.0478-7e-3 -0.432l-0.29-0.314 0.236-0.263c0.13-0.145 0.3-0.349 0.379-0.454l0.142-0.191 1.23 1.17-0.168 1.26-0.426 0.0956c-3.24 0.728-5.18 2.81-5.07 5.44l0.0339 0.81 0.192 0.57c0.287 0.851 0.772 1.79 1.37 2.64l0.533 0.761-0.163-0.0405c-0.884-0.219-2.77-0.098-3.79 0.244-3.39 1.14-3.97 4.53-1.71 10 0.135 0.327 0.246 0.616 0.246 0.642 0 0.0266-0.2-0.126-0.445-0.34-1.37-1.19-3.09-2.23-4.49-2.7l-0.655-0.222-0.749-0.0331c-2.88-0.128-4.44 2.26-4.69 7.18l-0.0516 1.03-0.272-0.528c-3.51-6.81-7.69-6.94-12.1-0.357-0.325 0.487-0.598 0.894-0.607 0.904-0.0094 0.0106-0.0399-0.454-0.0678-1.03zm-6.59-8.52v-0.612l0.16-0.0358c0.0881-0.0197 0.288-0.0443 0.445-0.0548l0.285-0.019 0.154 0.486c0.0849 0.268 0.21 0.548 0.278 0.623l0.124 0.137-0.563 9.7e-4c-0.31 5.3e-4 -0.635 0.0203-0.723 0.0439l-0.16 0.0429zm14.8-6.38c0-0.255 0.0129-0.359 0.0287-0.231s0.0158 0.336 0 0.463c-0.0158 0.127-0.0287 0.0231-0.0287-0.231zm-0.0683-2.06c0-0.372 0.012-0.524 0.0267-0.338s0.0147 0.49 0 0.676c-0.0147 0.186-0.0267 0.0338-0.0267-0.338zm-25.7-2.72c-0.333-0.157-0.615-0.295-0.628-0.307-0.0124-0.0119 0.0776-0.22 0.2-0.462 0.425-0.842 1.12-1.39 1.87-1.47l0.376-0.0411-0.178 0.184c-0.284 0.293-1.28 1.03-1.69 1.24-0.469 0.246-0.467 0.278 0.0539 0.613 0.235 0.151 0.427 0.298 0.427 0.327 0 0.0289 0.0721 0.0873 0.16 0.13 0.0881 0.0425 0.128 0.0767 0.089 0.0759-0.0392-7.2e-4 -0.344-0.13-0.676-0.287zm5.75-7.63c-0.147-0.155-0.268-0.332-0.269-0.395-0.0118-0.858-1.78-2.21-2.89-2.21-0.138 0-0.874-0.392-1.59-0.849-0.0718-0.0457 0.142-0.0693 0.651-0.0721 5.96-0.0329 8.84-2.35 8.85-7.12l0.0022-1.39-0.194-1.11c-0.158-0.902-0.469-2.24-0.808-3.48-0.0365-0.133 0.121-0.0164 0.629 0.468 6.95 6.62 12.3 5.35 13.3-3.17l0.0912-0.747 0.24 0.604c2.92 7.34 7.4 7.89 13.5 1.67l1.03-1.05-0.0438 0.207c-0.0241 0.114-0.114 0.623-0.199 1.13l-0.155 0.926-0.00154 2.56 0.16 0.712c0.088 0.392 0.165 0.754 0.172 0.804 6e-3 0.051-0.226 0.198-0.522 0.33l-0.534 0.238-0.0901-0.295c-0.149-0.489-0.302-1.53-0.357-2.42l-0.0515-0.845-0.613 0.525c-4.87 4.17-9.24 3.8-11.9-1.02l-0.195-0.358-0.258 0.808c-1.07 3.34-2.86 5-5.41 4.99l-0.748-7.9e-4 -0.758-0.19c-1.52-0.382-2.99-1.13-4.68-2.37l-0.531-0.393 0.0492 0.24c1.18 5.75-0.527 9.22-5.12 10.4-0.467 0.118-2.04 0.364-2.32 0.364-0.0408 0 0.142 0.232 0.406 0.516s0.647 0.773 0.851 1.09 0.439 0.631 0.523 0.705c0.147 0.131 0.208 0.434 0.0987 0.487-0.0294 0.0141-0.174-0.101-0.32-0.256zm24.9-24.3c0-0.294 0.0126-0.414 0.0279-0.267 0.0154 0.147 0.0154 0.387 0 0.534-0.0154 0.147-0.0279 0.0267-0.0279-0.267zm0.0693-1.53c4e-4 -0.235 0.0137-0.323 0.0295-0.195 0.0158 0.128 0.0155 0.32-7.27e-4 0.427-0.0162 0.107-0.0292 2e-3 -0.0288-0.233zm0.0731-1.17c0-0.294 0.0126-0.414 0.0279-0.267 0.0154 0.147 0.0154 0.387 0 0.534-0.0154 0.147-0.0279 0.0267-0.0279-0.267z" fill="#f9a402"/><path d="m124 155c-1.24-1.55-2.13-2.63-2.4-2.95l-0.259-0.302-0.676 0.139c-0.372 0.0762-1.62 0.317-2.78 0.535-1.16 0.218-2.18 0.414-2.28 0.436l-0.176 0.0394 0.14-0.165c0.228-0.267 1.99-2.16 2.9-3.11 0.46-0.481 0.837-0.908 0.837-0.948 0-0.0401-0.588-1.07-1.31-2.29-0.718-1.22-1.34-2.29-1.39-2.38l-0.0838-0.158 0.451 0.202c0.248 0.111 0.513 0.238 0.589 0.282 0.179 0.104 3.32 1.62 3.71 1.79l0.301 0.132 1.41-1.71c1.73-2.1 1.69-2.05 1.75-2.05 0.0279 0 0.0507 1.1 0.0507 2.45v2.45l0.267 0.0692c0.147 0.038 1.23 0.268 2.4 0.511 1.17 0.243 2.16 0.465 2.19 0.492 0.0527 0.0467-1.38 0.725-3.78 1.79l-1.01 0.45v2.62c0 1.44-0.024 2.62-0.0534 2.62-0.0294-1e-3 -0.394-0.426-0.81-0.943zm-59-2.27c-2.18-0.116-4.87-1.39-5.19-2.45l-0.045-0.149 0.838 0.417c3.95 1.97 8.53 0.541 10.3-3.21 0.137-0.288 0.258-0.512 0.268-0.498 0.0104 0.0139-0.0028 0.298-0.0294 0.63-0.0668 0.837 0.119 1.21 0.603 1.21 0.57 0-1.15 2.09-2.37 2.88-1.41 0.91-2.71 1.26-4.39 1.17zm9.86-2.34c-1.46-0.22-2.15-0.4-2.43-0.636l-0.251-0.207 0.0493-0.325c0.064-0.422 0.0368-0.409 0.625-0.286 1.36 0.283 2.78 0.375 3.08 0.198 0.299-0.177 0.29-0.0501 0.283-3.92-0.0038-1.97 0.0156-3.92 0.0431-4.34l0.0501-0.766 0.159 0.57c0.0873 0.313 0.322 1.16 0.522 1.89l0.363 1.32v6.36l-0.375 0.295-0.613-6e-3c-0.337-3e-3 -1.01-0.0668-1.5-0.141zm5.27-1.12-0.249-0.124-0.162-0.457c-0.211-0.595-0.303-0.503 1.16-1.15 0.704-0.313 1.36-0.648 1.46-0.745l0.178-0.176 0.0468-1.8c0.0695-2.67 0.181-4.21 0.557-7.71 0.359-3.34 1.36-8.85 2.28-12.5l0.228-0.908h0.171c0.211 0 0.651 0.179 0.823 0.334 0.182 0.165 0.162 0.534-0.0821 1.5-0.502 2-1.24 5.48-1.57 7.45l-0.143 0.845-0.572 0.517-0.285 1.21c-0.156 0.666-0.304 1.39-0.329 1.61l-0.044 0.403 0.184 0.184c0.101 0.101 0.236 0.184 0.299 0.184h0.115l-0.0473 0.587c-0.026 0.323-0.219 1.34-0.428 2.26-0.21 0.92-0.45 2.03-0.534 2.46l-0.153 0.783 0.077 0.198c0.0424 0.109 0.188 0.263 0.323 0.343l0.246 0.145-0.0368 1.54c-0.0503 2.11 0.138 1.85-1.9 2.65-1.44 0.57-1.3 0.536-1.62 0.374zm7.4-2.11c-2.61-0.916-3.34-1.33-3.34-1.9 0-0.341 0.0626-0.347 0.707-0.064 1.81 0.795 2.63 0.991 2.91 0.696l0.151-0.161 0.114-0.961c0.138-1.16 0.388-2.62 0.72-4.2 0.357-1.7 0.748-3.37 0.802-3.43 0.0542-0.0587 2.11-0.483 2.34-0.484l0.16-6.1e-4v1.48l-0.659 0.125c-0.766 0.145-0.785 0.16-0.902 0.676-0.658 2.91-0.926 4.31-1.25 6.51l-0.24 1.64-0.187 0.161c-0.255 0.219-0.514 0.203-1.33-0.0818zm8.55-0.232c-2.03-0.199-2.44-0.368-2.57-1.07-0.0853-0.457-0.0659-0.464 0.866-0.338 0.449 0.0608 1.4 0.116 2.12 0.123l1.3 0.0126 0.208-0.233c0.232-0.259 0.236-0.298 0.137-1.16-0.218-1.89-0.353-3.55-0.584-7.19-0.13-2.05-0.114-12.4 0.0222-14.5l0.0988-1.5 0.208 0.015c0.233 0.0169 0.324 0.119 0.325 0.367 6e-4 0.0925 0.117 0.455 0.259 0.806l0.258 0.637-0.0457 0.761c-0.243 4.05-0.101 16.3 0.206 17.7 0.0185 0.0826 0.0521 0.435 0.0747 0.783 0.0226 0.348 0.119 1.46 0.215 2.47 0.188 1.99 0.184 2.03-0.181 2.22l-0.208 0.108-1.23-0.0114c-0.678-6e-3 -1.34-0.0224-1.48-0.0358zm8.08-2.09c-3.1-0.741-4.37-1.39-4.13-2.13l0.043-0.136 0.55 0.174c2.87 0.912 3.81 1.08 4.14 0.751l0.197-0.197 0.0491-0.711c0.142-2.05 0.335-3.61 0.877-7.06l0.405-2.58 0.218-0.0444c5.84-1.19 11.6-8.26 10.5-12.9-0.133-0.568-0.117-0.59 0.149-0.201 0.468 0.683 0.859 1.82 0.896 2.61 0.0246 0.53-0.353 2.89-0.52 3.25-0.0721 0.157-0.174 0.413-0.227 0.57-0.0525 0.157-0.115 0.301-0.14 0.32-0.0244 0.0196-0.133 0.212-0.241 0.427-1.23 2.44-4 5-6.9 6.38-0.626 0.297-2.28 0.883-2.49 0.883-0.117 0-0.169 0.261-0.535 2.67-0.446 2.94-0.86 6.51-0.86 7.42v0.313l-0.416 0.416-0.344-5e-3c-0.189-3e-3 -0.728-0.0969-1.2-0.209zm-38.7-1.61c-2.91-1.17-3.76-1.66-4.45-2.53-0.36-0.455-0.355-0.533 0.0183-0.298 0.42 0.265 1.61 0.787 2.89 1.26 2.29 0.856 2.87 1.23 2.87 1.86 0 0.238 0.0073 0.24-1.32-0.293zm52.4-1.54c-0.704-0.199-1.34-0.706-1.65-1.31-0.163-0.319-0.16-0.321 0.257-0.154 1.3 0.522 2.92 0.11 4.09-1.04l0.584-0.574 0.289-0.603c0.299-0.624 0.544-1.64 0.48-1.98l-0.0349-0.186 0.249 0.285c0.137 0.157 0.33 0.445 0.43 0.64l0.181 0.355 0.0348 0.61c0.139 2.44-2.57 4.62-4.91 3.96zm-47.2-5.23c-0.111-0.0683-0.341-0.333-0.512-0.587l-0.31-0.463 0.235-0.121c0.708-0.365 1.97-4.36 1.87-5.91l-0.0354-0.547 0.0981 0.0376c0.0539 0.0207 0.208 0.191 0.343 0.379l0.245 0.341-0.134 1.45c-0.0739 0.797-0.18 1.98-0.237 2.63l-0.102 1.18-0.352 0.747c-0.452 0.957-0.672 1.13-1.11 0.858zm-5.4-0.452c-1.23-0.803-0.332-2.73 1.38-2.96 0.621-0.0833 1.42 0.354 1.91 1.04l0.144 0.202-0.375-0.0381c-0.992-0.101-2.06 0.622-2.51 1.7-0.134 0.32-0.131 0.32-0.551 0.0454zm56.3-1.87c-0.252-0.0496-0.481-0.149-0.605-0.262-0.328-0.299-0.718-0.566-0.993-0.681l-0.259-0.108 0.224-0.224 0.766 6e-3c0.421 3e-3 0.819-0.0229 0.885-0.0582 0.14-0.0748 0.16-0.123 0.641-1.53 1.8-5.27 4.4-10.8 7.31-15.4l0.738-1.19 0.551 0.248c1.01 0.456 1.02 0.378-0.116 2.17-2.59 4.09-4.58 8.1-6.5 13.1-0.791 2.05-0.889 2.31-1.13 3.06-0.348 1.07-0.46 1.14-1.51 0.934zm-42.4-2.14c-0.0243-0.157-0.143-0.853-0.263-1.55-0.244-1.4-0.452-2.98-0.401-3.03 0.0724-0.0724 0.684 0.222 0.763 0.367 0.0461 0.0847 0.124 0.362 0.173 0.617l0.0888 0.463-0.106 1.35c-0.0582 0.744-0.129 1.51-0.158 1.71l-0.0523 0.356zm11.7-0.331c0.15-0.527 1.04-3.22 1.07-3.26 0.0156-0.0163 0.0284 0.722 0.0284 1.64v1.67l-0.516 0.132c-0.284 0.0728-0.556 0.147-0.603 0.165-0.0648 0.0243-0.0593-0.0653 0.0212-0.348zm10.5-5.08c-0.133-0.0933-0.738-0.954-0.738-1.05 0-0.0218 0.0881-0.0575 0.196-0.0794 0.13-0.0265 0.375-0.243 0.728-0.646 0.293-0.333 0.541-0.597 0.551-0.587 0.0104 0.0104-0.0726 0.449-0.184 0.975s-0.225 1.08-0.252 1.22c-0.0535 0.296-0.0857 0.314-0.3 0.164zm6.24 0.0443c0-0.264 1.37-5.96 1.45-6.04 0.0624-0.0624 1.17-0.306 1.4-0.306 0.719 0 1.27 0.35 1.42 0.91 0.12 0.433 0.112 0.443-0.335 0.444-0.497 2e-3 -1.38 0.179-1.45 0.292-0.059 0.0954-0.754 2.75-0.876 3.35-0.0911 0.445-0.0999 0.455-0.982 1.05-0.561 0.376-0.628 0.409-0.628 0.307zm-45.4-5.07c0-0.0707-0.427-1.29-1.18-3.38-0.412-1.14-0.264-1.01-1.43-1.25-0.542-0.112-1.85-0.38-2.9-0.597-1.94-0.399-2.06-0.432-1.89-0.499 0.0546-0.0204 1.2-0.438 2.55-0.927 1.35-0.489 2.48-0.921 2.52-0.96 0.0458-0.0458-0.0607-0.944-0.308-2.6-0.208-1.39-0.365-2.54-0.349-2.56 0.016-0.016 0.653 0.563 1.42 1.29 0.763 0.724 1.65 1.56 1.97 1.85l0.584 0.536 1.37-0.814c2.08-1.23 2.74-1.62 2.79-1.62 0.0633 0-0.111 0.439-0.792 1.99-0.352 0.803-0.738 1.69-0.859 1.98l-0.219 0.516 0.228 0.219c0.125 0.12 0.848 0.785 1.61 1.48 0.757 0.691 1.34 1.27 1.3 1.28-0.0424 0.0141-1.08-0.0273-2.3-0.0921l-2.22-0.118-0.0526 0.0851c-0.0289 0.0468-0.429 1.03-0.89 2.18-0.732 1.83-0.96 2.31-0.96 2.02z" fill="#005fef"/><path d="m62.8 150c-1.13-0.214-2.43-0.774-3.19-1.37l-0.412-0.324 0.0464-0.295c0.172-1.09 0.949-3.78 1.37-4.73l0.133-0.3 0.639 0.62c2.36 2.29 4.67 2.55 5.79 0.656l0.19-0.32-6e-3 -0.534c-0.0168-1.48-0.555-1.97-3.34-3.01-2.32-0.87-3.14-1.3-3.83-2.01-0.345-0.358-0.59-0.67-0.525-0.67 0.0198 0-9e-3 -0.108-0.0639-0.239-0.305-0.73-0.267-2.23 0.0847-3.35 1.52-4.82 7.19-8.5 10.5-6.82l0.51 0.26 0.35 0.924-0.0775 1.64-0.249 0.89c-0.334 1.2-0.976 2.85-1.11 2.85-0.0238-7e-5 -0.139-0.152-0.256-0.338-0.321-0.51-1.16-1.33-1.6-1.56l-0.392-0.204-1.42-0.00154-0.482 0.228c-0.984 0.466-1.62 1.36-1.68 2.35l-0.0277 0.514 0.154 0.317c0.0845 0.175 0.385 0.558 0.667 0.851l0.513 0.534 1.48 0.721c3.29 1.6 4.07 2.47 4.33 4.8 0.385 3.45-1.77 6.83-4.97 7.78l-0.626 0.186-0.997 0.0268c-0.656 0.0176-1.17-7e-3 -1.51-0.0708zm10.9-2.25c-1.07-0.142-1.76-0.28-1.81-0.364-0.0186-0.0301 0.0478-1.07 0.148-2.32 0.0998-1.25 0.212-2.68 0.25-3.19 0.0376-0.509 0.085-1.07 0.105-1.25 0.0204-0.176 0.101-1.12 0.18-2.1 0.241-3 0.321-3.83 0.893-9.26 0.106-1 0.224-1.81 0.27-1.86 0.0796-0.0756 2.07-0.627 3.07-0.849 0.273-0.0608 0.516-0.143 0.541-0.184 0.0249-0.0403 0.0662 0.175 0.0918 0.478 0.174 2.06 1.73 9.97 1.91 9.69 0.0305-0.048 0.0605-0.312 0.0666-0.586l0.0112-0.498 0.0436 0.285c0.032 0.209 0.068-2.8e-4 0.135-0.783 0.138-1.61 0.354-3.71 0.59-5.73 0.323-2.77 0.433-3.51 0.923-6.29l0.0867-0.492 1.33 0.0463c0.729 0.0255 1.53 0.0464 1.78 0.0465l0.453 2.1e-4 -0.0441 0.16c-1.71 6.21-2.91 14.4-3.15 21.6l-0.0484 1.44-1.28 0.547c-0.702 0.301-1.3 0.52-1.33 0.486-0.0572-0.0651-0.0839-0.157-1.04-3.59-1.55-5.53-1.81-6.43-2.11-7.33l-0.226-0.676-0.0534 0.249c-0.124 0.58-0.229 4.24-0.234 8.21l-6e-3 4.25-0.285-7e-3c-0.157-4e-3 -0.722-0.0647-1.26-0.136zm12.2-3.45c-0.548-0.21-1.25-0.489-1.55-0.621l-0.554-0.24 0.0464-0.285c0.0564-0.346 0.513-2.37 1.07-4.75l0.412-1.76-0.293-0.293-0.3 0.0807c-0.165 0.0444-0.343 0.0972-0.395 0.117l-0.0956 0.0367 0.132-0.45c0.0724-0.248 0.214-0.727 0.314-1.07l0.182-0.616 0.89-0.417 0.626-1.88c1.31-3.94 3.9-10.9 4.14-11.1 0.16-0.157 3.18-0.685 5.06-0.886 0.43-0.0458 0.858-0.112 0.95-0.147l0.168-0.0638-0.0446 0.588c-0.474 6.26-0.269 16.7 0.456 23.2 0.0344 0.307 0.0474 0.583 0.0288 0.613-0.0701 0.113-2.04 0.0178-3.49-0.169l-0.653-0.0843-0.0393-0.647c-0.0694-1.14-0.187-4.82-0.187-5.82 3.89e-4 -0.533-0.0232-1.22-0.0525-1.53l-0.0532-0.563-0.042 0.392-0.042 0.392-0.0116-0.436c-0.015-0.563-0.0914-0.63-0.651-0.566-0.594 0.0673-3.14 0.592-3.21 0.661-0.208 0.216-1.7 7.83-1.7 8.69-4.11e-4 0.126-0.0014 0.126-1.1-0.296zm4.66-11.7c0.649-0.175 1.36-0.361 1.57-0.414l0.392-0.0961 0.0092-0.174c0.0147-0.277 0.0475-6.07 0.0353-6.23l-0.0111-0.142-0.138 0.214-0.0011-0.197c-7.73e-4 -0.14-0.052-0.221-0.176-0.277l-0.175-0.0798-0.175 0.115c-0.318 0.208-1.68 4.17-2.53 7.33-0.0392 0.147-0.0523 0.267-0.0292 0.267s0.573-0.143 1.22-0.318zm1.89-3.71c1.11e-4 -0.548 0.0113-0.763 0.0248-0.478s0.0135 0.734-2.02e-4 0.997c-0.0137 0.263-0.0248 0.0289-0.0246-0.519zm-0.0018-2.1c0-0.411 0.0118-0.579 0.0262-0.374s0.0144 0.542 0 0.748-0.0262 0.0374-0.0262-0.374zm10.8 15.4c-0.74-0.159-2.1-0.563-2.93-0.872l-0.618-0.229 0.0298-0.178c0.0164-0.0979 0.175-1.08 0.352-2.17 0.634-3.92 1.51-8.73 2.32-12.7 0.719-3.54 0.762-3.8 0.627-3.88-0.0657-0.0406-0.0784-0.0224-0.045 0.0645 0.0662 0.172-0.338 1.89-0.424 1.8-0.0176-0.0176 0.0501-0.438 0.15-0.933 0.336-1.66-0.168-1.53-1.87 0.475l-0.466 0.551-0.209-0.285c-0.115-0.156-0.216-0.324-0.223-0.373-0.0076-0.0488-0.202-0.627-0.431-1.29l-0.417-1.2 0.242-0.253c4.1-4.29 12.3-6.29 15.2-3.7 0.157 0.142 0.319 0.258 0.361 0.258 0.0414 0 0.225 0.24 0.408 0.533 1.84 2.95 0.29 7.5-3.69 10.8-1.71 1.44-4.19 2.72-5.67 2.93-0.254 0.036-0.488 0.0913-0.52 0.123-0.203 0.203-1.23 7.44-1.4 9.84-0.0595 0.852-0.0109 0.813-0.799 0.644zm3.82-14.6c2.45-1.23 4.53-3.27 5.12-5.04l0.18-0.538-3e-3 -0.687c-6e-3 -1.47-0.543-2.18-1.79-2.35-0.694-0.0953-1.95 0.117-2.4 0.407-0.212 0.134-2.03 7.91-1.9 8.13 0.0217 0.0352 7e-3 0.084-0.0329 0.109-0.109 0.0674-0.0869 0.321 0.028 0.321 0.0552 0 0.416-0.158 0.801-0.351zm9.53 11.3c-0.453-0.139-0.896-0.445-1.16-0.801l-0.207-0.282-0.0176-0.628c-0.0701-2.51 2.54-4.39 4.66-3.37 0.268 0.129 0.507 0.231 0.531 0.227 0.103-0.0193 0.424 0.797 0.463 1.18 0.234 2.28-2.15 4.33-4.28 3.68zm2.6-7.68c-0.725-0.131-1.43-0.243-1.57-0.249-0.137-6e-3 -0.197-0.0257-0.133-0.0426 0.0837-0.0223 0.13-0.153 0.165-0.472 0.275-2.45 1.25-8.12 2.1-12.2 0.25-1.2 1.24-5.22 1.51-6.13l0.139-0.472 0.338 0.0297c2.38 0.21 4.35 0.607 6.63 1.34 0.562 0.181 1.06 0.313 1.12 0.293 0.0525-0.0201-0.137 0.322-0.421 0.76-3.02 4.67-6.19 11.3-7.98 16.8l-0.193 0.587-0.19-8e-3c-0.104-4e-3 -0.783-0.115-1.51-0.246zm-38-9.27c0.126-0.0157 0.351-0.016 0.498-5.8e-4 0.148 0.0154 0.0443 0.0283-0.23 0.0286-0.274 3.2e-4 -0.395-0.0123-0.269-0.028z" fill="#f9110b"/><path d="m87.2 172c-0.49-0.499-1.38-1.42-1.97-2.05s-1.12-1.15-1.17-1.16c-0.0462-0.0104-1.11 0.313-2.36 0.719-3.07 0.995-2.96 1.16-1.35-1.93l1.18-2.26-0.0875-0.142c-0.0481-0.0783-0.67-0.943-1.38-1.92-0.712-0.979-1.35-1.87-1.42-1.98l-0.13-0.2 0.217-0.217 1.59 0.356c0.876 0.196 1.61 0.343 1.62 0.328 0.0661-0.0655 0.143-1.98 0.146-3.63 0.0105-5.73-1.35-8.37-4.32-8.37h-0.59v-1.83l0.223-0.0445c0.122-0.0245 0.444-0.0445 0.714-0.0445h0.492l-0.143-0.196c-0.0787-0.108-0.337-0.885-0.575-1.73-0.238-0.842-0.526-1.85-0.64-2.24-0.115-0.392-0.341-1.19-0.503-1.78-0.162-0.587-0.366-1.32-0.453-1.64l-0.158-0.57-0.0501 0.766c-0.0276 0.421-0.047 2.38-0.0431 4.34 0.0076 3.87 0.0167 3.74-0.283 3.92-0.299 0.177-1.72 0.0853-3.08-0.198l-0.509-0.106-0.056 0.0881c-0.0308 0.0485-0.0565 0.192-0.0571 0.32-0.0012 0.258-0.152 0.309-0.394 0.132l-0.135-0.099 0.0862-0.189c0.117-0.256 0.108-0.396-0.0242-0.396-0.484 0-0.67-0.373-0.603-1.21 0.0266-0.333 0.0398-0.617 0.0294-0.63-0.0104-0.0139-0.131 0.21-0.268 0.498-1.5 3.14-5.08 4.75-8.61 3.85-1.57-0.403-3.36-1.44-3.74-2.17l-0.111-0.215 0.0446-0.528c0.103-1.22 1.08-4.58 1.66-5.73 0.232-0.456 0.606-0.346 1.17 0.344 1.04 1.27 2.41 2.03 3.67 2.05l0.575 5e-3 0.405-0.198c0.522-0.255 0.758-0.586 0.758-1.06 0-0.805-0.429-1.11-2.87-2.02-3.37-1.26-4.62-2.25-5.11-4.05l-0.118-0.427-3.01-0.0119c-1.65-7e-3 -3.02-0.0255-3.04-0.0421-0.0166-0.0166 1.23-0.522 2.77-1.12s2.91-1.14 3.06-1.2l0.262-0.111 0.262-0.816c0.889-2.77 3.12-5.32 5.85-6.69 0.323-0.162 0.587-0.309 0.587-0.327 0-0.049-0.176-0.137-3.77-1.89-3.93-1.91-4.81-2.36-4.52-2.31 1.02 0.177 4.6 0.678 4.85 0.678h0.155l-0.48-1.35c-0.264-0.741-0.714-1.97-1-2.73l-0.521-1.39-3.64-0.801c-3.4-0.749-3.82-0.866-3.81-1.06 0.0049-0.177 0.363-0.32 5.48-2.18l0.961-0.35-0.0218-0.212c-0.012-0.117-0.199-1.49-0.416-3.05l-0.394-2.83 0.0866-0.104c0.171-0.205 0.338-0.0828 1.81 1.33 2.17 2.07 3.07 2.91 3.13 2.91 0.0289 0 1.15-0.641 2.5-1.42 2.48-1.45 2.57-1.49 2.72-1.34 0.137 0.137 0.137 0.136-1.02 2.92l-1.1 2.66 0.41 0.386c1.37 1.29 2.54 2.38 3.01 2.8l0.533 0.482-0.157 0.246-1.34-0.0192c-0.739-0.0106-1.64-0.0379-2.01-0.0607-0.832-0.0517-0.935-0.194 1.19 1.62 0.963 0.825 1.67 1.48 1.58 1.45-0.174-0.0532-3.18-1.12-4.68-1.67l-0.801-0.29-0.113 0.266c-0.474 1.12-1.19 2.85-1.37 3.31l-0.213 0.549 0.294 0.0381c4.01 0.52 7.66 0.153 9.56-0.964 3.01-1.77 3.24-6.15 0.737-14.5-0.234-0.781-0.419-1.42-0.41-1.43 0.0091-6e-3 0.561 0.564 1.23 1.27 6.33 6.69 10.4 8.59 12.5 5.8 1.4-1.86 2.02-5.34 2.14-12 0.0258-1.4 0.0679-2.52 0.0936-2.49 0.0256 0.0309 0.217 0.777 0.425 1.66 1.84 7.8 4.19 11.9 7.02 12.4l0.498 0.0794 0.605-0.105c2.86-0.498 7.31-4.56 11-10.1 0.0663-0.0981-0.0679 0.464-0.307 1.29-1.59 5.47-1.93 8.92-1.08 10.8 0.1 0.225 0.187 0.409 0.192 0.409 5e-3 0 0.393-0.0798 0.863-0.177 3.5-0.728 6.48 0.0487 8.02 2.09l0.183 0.242 0.666-0.154c0.367-0.0848 1.06-0.274 1.55-0.421l0.885-0.267 0.171-0.818c0.303-1.45 1.14-4.7 1.26-4.88 0.429-0.654 6.01 0.412 9.23 1.76 0.971 0.408 1.11 0.622 0.737 1.17-3 4.39-6.37 11.3-8.35 17.1-0.481 1.41-0.501 1.45-0.641 1.53-0.0658 0.0352-0.464 0.0614-0.885 0.0582l-0.766-6e-3 -0.224 0.224 0.247 0.103c0.992 0.414 1.74 1.4 1.91 2.52l0.0794 0.514-0.111 0.589c-0.067 0.355-0.226 0.829-0.401 1.19l-0.289 0.603-0.584 0.573c-3.61 3.54-8.38-1.06-5.02-4.84l0.367-0.411-0.174 0.053c-0.871 0.265-1.85 1.12-2.14 1.87-0.533 1.39 0.118 3.27 2.1 6.09l0.712 1.01 2.24 1.1c1.23 0.603 2.35 1.14 2.47 1.19l0.23 0.0962 1.12-1.36c2.04-2.47 2.66-3.19 2.76-3.19 0.236 0 0.252 0.181 0.271 3.1l0.0186 2.91 6.02 1.28 0.042 0.165c0.0231 0.091 0.0135 0.194-0.0213 0.229-0.0524 0.0524-3.76 1.77-5.45 2.53l-0.47 0.211-0.0456 0.783c-0.0251 0.431-0.0457 1.81-0.0459 3.07-4.5e-4 3.21 0.172 3.21-2.49-7e-3 -1.12-1.35-2.06-2.44-2.1-2.43-0.0396 0.0145-1.1 0.211-2.35 0.436s-2.3 0.43-2.33 0.455c-0.0281 0.0247 0.26 0.219 0.641 0.432 2.11 1.18 6.14 3.68 6.14 3.81 0 0.163-0.518 1.47-0.574 1.45-0.0301-0.0111-1.13-0.878-2.45-1.93-1.32-1.05-2.9-2.29-3.52-2.76l-1.12-0.85-1.37 0.237-0.113-0.0939c-0.156-0.13-0.147-0.165 0.136-0.504 0.325-0.389 0.367-0.317-0.57-0.991-0.45-0.324-0.836-0.617-0.857-0.651-0.0371-0.0601 0.925 0.371 1.65 0.74l0.369 0.187 1.02-1.12c0.56-0.616 1.4-1.53 1.86-2.03l0.841-0.913-0.136-0.226c-0.0749-0.125-0.514-0.883-0.976-1.69-0.462-0.803-1.05-1.83-1.31-2.28l-0.472-0.819-0.496-0.0829c-3.91-0.654-6.13 0.189-6.46 2.45l-0.0854 0.586 0.0823 0.73c0.261 2.31 1.59 5.92 4.39 11.9 0.18 0.385 0.327 0.719 0.327 0.743 0 0.024-1.16-1.11-2.58-2.52-4.66-4.63-6.94-6.23-8.88-6.22-2.53 4e-3 -3.3 3.55-2.85 13.1 0.0307 0.666 0.0505 1.22 0.0439 1.23-0.0066 9e-3 -0.23-0.535-0.496-1.21-2.42-6.15-4.49-9.46-6.51-10.4l-0.546-0.263-1.14 4e-3 -0.428 0.175c-1.76 0.722-4.39 3.88-6.76 8.12l-0.266 0.478 0.165 0.0381c0.872 0.201 1.09 0.24 1.13 0.196 0.0651-0.0712 2.56-3.84 2.76-4.16 0.154-0.253 0.376-0.35 0.467-0.203 0.0412 0.0667 0.203 1.3 0.502 3.81 0.0973 0.82 0.202 1.51 0.232 1.54 0.0501 0.0454 3.57 1.02 4.4 1.21 0.429 0.102 0.534 0.176 0.533 0.375l-0.0011 0.152-4.59 2.42 0.012 0.569c0.0066 0.313 0.0497 1.57 0.0958 2.8l0.0838 2.23-0.0867 0.104c-0.153 0.184-0.243 0.121-1.15-0.803zm0.376-1.98c-0.156-1.65-0.248-3.46-0.18-3.52 0.0614-0.0614 1.27-0.616 3.2-1.47 0.391-0.173 0.735-0.339 0.765-0.368 0.0291-0.0291-0.531-0.208-1.25-0.397-0.714-0.189-1.66-0.442-2.1-0.561l-0.803-0.217-0.0302-0.148c-0.0166-0.0815-0.114-1.01-0.216-2.07-0.102-1.06-0.209-2-0.238-2.09l-0.052-0.169-0.421 0.667c-0.231 0.367-0.781 1.22-1.22 1.89l-0.801 1.22-0.271-0.0645c-1.51-0.36-3.98-0.919-4.06-0.919-0.0797 0 1.33 1.93 2.35 3.21l0.206 0.259-0.172 0.275c-0.213 0.339-1.26 2.19-1.72 3.03-0.186 0.343-0.305 0.623-0.265 0.623 0.04 0 0.708-0.227 1.48-0.505s1.66-0.59 1.97-0.693l0.557-0.188 0.297 0.321c0.163 0.176 0.906 0.974 1.65 1.77l1.35 1.45 0.0233-0.278c0.0128-0.153-0.01-0.631-0.0507-1.06zm-3.5-13.7c1.86-3.06 4.21-5.13 6.12-5.41l0.552-0.0805 0.501 0.0895c1.76 0.314 3.58 2.09 5.16 5.04l0.375 0.698 0.0497-0.926c0.428-7.96 4.5-9.56 10.7-4.2 0.166 0.143 0.303 0.242 0.303 0.22 0-0.022-0.124-0.353-0.275-0.736-2.2-5.57-1.65-8.75 1.7-9.89 1.04-0.354 2.92-0.481 3.84-0.257l0.169 0.0415-0.4-0.562c-3.16-4.44-1.89-8.34 3.12-9.6l0.644-0.162 0.168-1.27-1.23-1.15 0.47-0.708c0.258-0.39 0.559-0.893 0.669-1.12 0.221-0.455 0.284-0.493 0.383-0.231 0.102 0.269 0.121 0.23 0.213-0.445 0.0705-0.513 0.282-1.81 0.639-3.92 0.0282-0.166 0.0243-0.303-9e-3 -0.303-0.0329 0-0.0619 0.04-0.0642 0.089-2e-3 0.049-0.0809-0.199-0.174-0.55-0.232-0.871-0.351-1.16-0.684-1.68-0.343-0.531-0.369-0.522-0.229 0.0751 1.09 4.66-4.65 11.7-10.5 12.9l-0.218 0.0444-0.405 2.58c-0.542 3.45-0.735 5.01-0.877 7.06l-0.0491 0.711-0.197 0.197c-0.284 0.284-0.881 0.217-2.68-0.305-1.97-0.569-2.81-0.908-3.04-1.22l-0.141-0.193 0.265-1.73c0.768-5 2.34-13.6 2.87-15.7 0.0336-0.134-0.0588-0.0639-0.375 0.285-0.853 0.942-0.927 0.982-1.38 0.75-0.678-0.35-2.32-3.83-2.05-4.34 0.578-1.09 3.59-3.3 5.75-4.24 0.688-0.296 0.652-0.233 0.494-0.891-0.336-1.39-0.334-3.06 6e-3 -4.93 0.0768-0.422 0.14-0.791 0.141-0.819 5.9e-4 -0.0283-0.552 0.503-1.23 1.18-2.17 2.18-3.97 3.41-5.71 3.9l-0.57 0.162-1.71-2e-3 -0.463-0.162c-1.86-0.654-3.36-2.45-4.7-5.63l-0.312-0.74-0.116 0.846c-1.17 8.51-6.3 9.67-13.3 3.01l-0.635-0.6 0.0494 0.178c0.249 0.896 0.655 2.65 0.808 3.49l0.188 1.03-0.0012 1.46-0.0012 1.46-0.188 0.706c-0.853 3.21-3.42 4.75-8.2 4.93-0.723 0.0274-1.17 0.0703-1.1 0.107 0.0573 0.0334 0.377 0.225 0.709 0.426 0.441 0.266 0.739 0.391 1.1 0.461 2.92 0.565 3.55 3.1 1.83 7.29-0.846 2.06-1.09 2.16-2.07 0.898-0.687-0.89-1.12-1.28-1.59-1.44-1.37-0.455-3.12 1.17-2.55 2.36 0.186 0.384 0.494 0.582 1.95 1.25 2.61 1.2 3.68 2.08 4.48 3.67 0.142 0.283 0.258 0.563 0.258 0.623 0 0.172 0.106 0.126 0.117-0.0517 0.0175-0.263 0.231-2.73 0.421-4.86 0.0978-1.1 0.242-2.71 0.321-3.6 0.333-3.74 0.5-5.23 0.603-5.39 0.144-0.22 2.01-0.775 3.68-1.09 1.31-0.25 1.57-0.162 1.66 0.578 0.191 1.55 0.466 3.42 0.672 4.55l0.201 1.1 0.0444-0.392c0.0244-0.215 0.0638-0.68 0.0874-1.03 0.178-2.65 0.897-8.27 1.11-8.67 0.0361-0.0681 0.168-0.177 0.294-0.242l0.229-0.118 1.28 0.0464c3.18 0.115 3.77 0.322 3.54 1.24-0.0474 0.186-0.0986 0.403-0.114 0.481-0.0153 0.0783-0.141 0.591-0.278 1.14-0.902 3.59-1.9 9.06-2.26 12.4-0.376 3.5-0.487 5.04-0.557 7.71l-0.0468 1.8-0.178 0.177c-0.159 0.158-2.79 1.38-3.01 1.4-0.0485 4e-3 -0.0118 0.0285 0.0815 0.0546 0.128 0.0359 0.207 0.152 0.32 0.474l0.151 0.426 0.543 0.265 0.787-0.301 0.199 0.142c1.48 1.05 2.36 3.5 2.54 7.07 0.0267 0.538 0.057 0.979 0.0673 0.979s0.121-0.168 0.247-0.374zm1.81-11.3c-2.21-0.85-2.81-1.14-2.95-1.42l-0.0988-0.208 0.156-0.789c0.224-1.13 0.846-3.82 1.05-4.52 0.0939-0.327 0.171-0.65 0.171-0.718v-0.122l-0.209 0.0307c-0.158 0.0232-0.257-0.0165-0.401-0.161l-0.192-0.192 0.044-0.403c0.0242-0.222 0.173-0.946 0.33-1.61 0.314-1.32 0.386-1.46 0.905-1.68l0.299-0.13 0.364-1.16c0.776-2.48 2.1-6.3 3.17-9.17 0.3-0.803 0.643-1.72 0.763-2.05 0.291-0.784 0.411-0.892 1.2-1.08 1.97-0.459 3.76-0.714 5.42-0.773l1.19-0.0423 0.45 0.45-0.0432 0.872c-0.0237 0.479-0.0825 1.53-0.131 2.33-0.122 2.04-0.119 12 0.0051 14 0.231 3.64 0.366 5.3 0.584 7.19 0.0986 0.854 0.0938 0.898-0.126 1.14l-0.197 0.22-0.569 0.0385c-0.718 0.0486-2.54-0.0821-3.64-0.261l-0.845-0.137-0.373-0.416-0.0463-0.739c-0.0729-1.16-0.175-3.71-0.228-5.67l-0.0486-1.8-0.15 6.1e-4c-0.227 9.4e-4 -2.28 0.426-2.33 0.484-0.0533 0.0577-0.444 1.73-0.802 3.43-0.331 1.58-0.582 3.04-0.72 4.2l-0.114 0.961-0.151 0.161c-0.239 0.254-0.601 0.207-1.73-0.227zm1.18-0.484c0.0028-0.862 1.49-8.47 1.7-8.69 0.07-0.0723 2.68-0.605 3.25-0.663 0.609-0.0624 0.574-0.213 0.667 2.82 0.113 3.7 0.224 5.87 0.303 5.92 0.28 0.175 4.12 0.444 4.22 0.296 0.0186-0.0301 0.0056-0.306-0.0288-0.613-0.722-6.44-0.918-15.5-0.489-22.6 0.0442-0.737 0.0619-1.36 0.0393-1.38-0.193-0.193-4.7 0.399-6.28 0.825l-0.293 0.0789-0.731 1.98c-1.49 4.03-3.01 8.46-3.63 10.6l-0.152 0.525-0.85 0.375-0.106 0.365c-0.149 0.512-0.51 2.12-0.483 2.16 0.0122 0.0153 0.219-0.0275 0.46-0.095 0.613-0.172 0.611-0.19 0.176 1.57-0.588 2.37-1.12 4.73-1.13 5.04l-0.0118 0.275 0.641 0.287c1.47 0.656 2.74 1.1 2.74 0.962zm2.42-12.1c0-0.669 2.17-6.96 2.47-7.16l0.175-0.115 0.175 0.0798c0.11 0.05 0.176 0.14 0.177 0.242 0.0012 0.089 0.0039 1.51 0.0058 3.15l0.0036 2.99-0.914 0.257c-0.503 0.141-1.18 0.339-1.5 0.439-0.325 0.101-0.587 0.15-0.587 0.11zm1.76-1.24 0.516-0.132v-1.67c0-0.918-0.0128-1.66-0.0284-1.64-0.0349 0.0364-0.92 2.73-1.07 3.26-0.0805 0.283-0.086 0.372-0.0212 0.348 0.048-0.018 0.32-0.0923 0.603-0.165zm33.4 21.5v-2.62l1.01-0.45c2.4-1.06 3.83-1.74 3.78-1.79-0.0311-0.0276-1.02-0.249-2.19-0.492-1.17-0.243-2.26-0.473-2.4-0.511l-0.267-0.0692v-2.45c0-1.35-0.0228-2.45-0.0507-2.45-0.062 0-0.0218-0.0472-1.75 2.05l-1.41 1.71-0.301-0.132c-0.395-0.173-3.54-1.69-3.71-1.79-0.076-0.0441-0.341-0.171-0.589-0.282l-0.451-0.202 0.0838 0.158c0.0461 0.0868 0.671 1.16 1.39 2.38 0.718 1.22 1.31 2.25 1.31 2.29 0 0.0401-0.377 0.467-0.837 0.948-0.906 0.947-2.67 2.84-2.9 3.11l-0.14 0.165 0.176-0.0394c0.0969-0.0216 1.12-0.218 2.28-0.436 1.16-0.218 2.41-0.459 2.78-0.535l0.676-0.139 0.259 0.302c0.275 0.321 1.16 1.41 2.4 2.95 0.416 0.517 0.781 0.942 0.81 0.943 0.0294 1e-3 0.0534-1.18 0.0534-2.62zm-58.7-2.89c4.74-1.41 6.73-8.1 3.33-11.2-0.723-0.669-1.19-0.938-3.51-2.03-1.14-0.541-1.59-0.882-1.85-1.41l-0.154-0.317 0.0277-0.514c0.0533-0.988 0.693-1.88 1.68-2.35l0.482-0.228 1.42 0.00154 0.392 0.204c0.441 0.23 1.28 1.05 1.6 1.56 0.275 0.436 0.25 0.45 0.599-0.342 0.635-1.44 0.996-2.76 1.05-3.86l0.0418-0.799-0.16-0.448c-0.566-1.58-2.87-2.1-5.19-1.18-5.18 2.05-8.35 8.59-5.55 11.4 0.746 0.758 1.53 1.17 3.87 2.05 2.93 1.1 3.67 1.85 3.2 3.24-0.711 2.09-4.09 1.86-6.22-0.423l-0.511-0.548-0.0617 0.0998c-0.302 0.488-1.27 3.92-1.39 4.92l-0.0469 0.397 0.375 0.337c1.22 1.1 3.03 1.7 4.94 1.65l0.997-0.0268zm9.35-6.22c0.0056-3.96 0.11-7.63 0.234-8.21l0.0534-0.249 0.226 0.676c0.3 0.899 0.559 1.8 2.11 7.33 0.96 3.43 0.987 3.52 1.04 3.59 0.0298 0.034 0.629-0.185 1.33-0.486l1.28-0.547 0.0484-1.44c0.242-7.18 1.17-13.6 3-21 0.176-0.706 0.224-1.01 0.167-1.04-0.108-0.0669-1.57-0.196-2.85-0.252l-1.04-0.0454-0.0422 0.168c-0.0586 0.234-0.443 2.99-0.616 4.41-0.266 2.19-0.421 3.94-0.607 6.87-0.102 1.61-0.204 3-0.227 3.1l-0.0414 0.178-0.167-0.641c-0.555-2.13-1.44-6.87-1.7-9.05-0.0585-0.5-0.119-0.923-0.135-0.938-0.0394-0.0394-2.18 0.441-3.16 0.709l-0.8 0.219-0.0339 0.22c-0.0377 0.244-0.0836 0.744-0.397 4.31-0.119 1.35-0.294 3.32-0.39 4.38-0.334 3.68-0.794 9.67-0.834 10.9l-0.0206 0.603 0.467 0.126c0.482 0.13 2.31 0.393 2.81 0.405l0.285 7e-3zm28.8-2.09c0.167-2.4 1.2-9.64 1.4-9.84 0.0316-0.0316 0.265-0.0869 0.52-0.123 1.04-0.147 2.94-0.987 4.26-1.88 8.06-5.45 7.72-14.6-0.528-14.3-3.39 0.119-7.91 2.16-10.4 4.71l-0.604 0.61 0.174 0.51c0.217 0.638 0.794 1.79 1.21 2.43l0.318 0.484 0.317-0.377c0.653-0.778 1.75-1.84 1.91-1.84 0.375 0 0.353 0.21-0.339 3.35-0.871 3.95-2.88 15.4-2.75 15.7 0.0877 0.229 4.05 1.45 4.43 1.36 0.0392-9e-3 0.0945-0.35 0.123-0.758zm2.19-14.1c0-0.103 0.341-1.79 0.576-2.85 0.426-1.92 1.27-5.15 1.36-5.21 0.457-0.29 1.71-0.502 2.4-0.407 2.48 0.34 2.33 3.17-0.315 5.79-1.24 1.23-4.03 3.08-4.03 2.68zm1.7-1.73c1.69-1.13 2.96-2.52 3.47-3.76 0.541-1.33 0.02-2.29-1.25-2.29-0.222 0-1.33 0.244-1.4 0.306-0.0834 0.0834-1.45 5.78-1.45 6.04 0 0.102 0.0675 0.069 0.628-0.308zm10.3 13.3c2.23-0.513 3.5-3.55 2.12-5.04-1.88-2.04-5.59-0.0996-5.37 2.81 0.124 1.64 1.55 2.62 3.25 2.23zm2.9-8.06c1.79-5.45 4.96-12.1 7.99-16.8 0.64-0.988 0.664-0.866-0.245-1.21-2.34-0.895-4.49-1.4-7.51-1.75l-0.34-0.0398-0.0697 0.159c-0.68 1.55-2.76 12.7-3.45 18.5-0.134 1.13-0.125 1.19 0.195 1.19 0.129 2e-3 0.826 0.11 1.55 0.241 0.725 0.131 1.4 0.241 1.51 0.246l0.19 8e-3zm-58.2-12c0.46-1.15 0.861-2.13 0.89-2.18l0.0526-0.0851 2.22 0.118c1.22 0.0648 2.25 0.106 2.3 0.0921 0.0424-0.0141-0.543-0.591-1.3-1.28-0.757-0.691-1.48-1.36-1.61-1.48l-0.228-0.219 0.219-0.516c0.12-0.284 0.507-1.17 0.859-1.98 0.681-1.56 0.856-1.99 0.792-1.99-0.0434 0-0.709 0.386-2.79 1.62l-1.37 0.814-0.584-0.536c-0.321-0.295-1.21-1.13-1.97-1.85-0.763-0.724-1.4-1.3-1.42-1.29-0.016 0.016 0.141 1.17 0.349 2.56 0.248 1.66 0.354 2.56 0.308 2.6-0.0385 0.0385-1.17 0.47-2.52 0.96-1.35 0.489-2.5 0.907-2.55 0.927-0.179 0.0669-0.053 0.1 1.89 0.499 1.05 0.217 2.36 0.486 2.9 0.597 1.17 0.24 1.02 0.11 1.43 1.25 0.754 2.09 1.18 3.31 1.18 3.38 0 0.291 0.227-0.187 0.96-2.02zm47.3 49.1c-1.54-2.61-3.87-6.64-4.86-8.38-0.365-0.646-0.768-1.35-0.895-1.57-0.283-0.48-2.32-4.1-2.45-4.34-0.123-0.238-0.104-0.217 0.537 0.605 0.305 0.392 1.17 1.5 1.92 2.46 2.63 3.37 8.84 11.6 9.17 12.2 0.0539 0.0898-1.85 1.38-2.04 1.38-0.0185 0-0.642-1.03-1.38-2.3zm-15.9 0.636c-0.105-0.133-1.22-6.15-1.9-10.2-0.179-1.08-0.339-2.04-0.357-2.14l-0.0329-0.178 0.0677 0.142c0.0676 0.142 2.35 6.45 3.67 10.1 0.382 1.07 0.678 1.96 0.657 1.98-0.0341 0.0341-1.09 0.234-1.78 0.337-0.161 0.024-0.288 7e-3 -0.329-0.0446zm-30.2-1.09c-0.488-0.297-0.931-0.583-0.986-0.637l-0.1-0.0968 0.13-0.199c0.127-0.194 4.4-5.69 6.3-8.11 0.527-0.67 1.44-1.83 2.02-2.58 0.585-0.749 1.08-1.35 1.09-1.33 0.0396 0.0395-2.82 5.26-5.78 10.5-0.745 1.33-1.42 2.54-1.5 2.69-0.192 0.346-0.155 0.355-1.18-0.272zm57.5-2.22c-1.87-2.06-4.06-4.51-4.94-5.54-2.42-2.8-2.47-2.86-1.61-2.11 0.261 0.227 0.923 0.798 1.47 1.27 5.23 4.48 7.04 6.07 7.07 6.18 0.0108 0.0455-0.231 0.332-0.538 0.637l-0.557 0.554zm-49.9-3.74c0.82-2.17 1.98-4.42 3.51-6.78 1.02-1.58 1.44-2.2 1.44-2.16 0.0019 0.253-2.03 4.63-2.71 5.85-0.659 1.17-2.25 3.54-2.38 3.54-0.0147 0 0.0489-0.2 0.141-0.445zm-13.4-2.62c0.0824-0.137 0.784-1.29 1.56-2.56 1.29-2.12 2.82-4.64 2.84-4.68 0.0043-8e-3 0.247 0.0494 0.539 0.128 0.313 0.0837 0.89 0.16 1.4 0.185 0.48 0.0236 0.872 0.0481 0.872 0.0546 0 0.0601-6.7 6.57-7.12 6.92l-0.247 0.205zm12.8-7.02c0.443-0.895 0.912-1.86 1.04-2.14 0.129-0.284 0.247-0.516 0.262-0.516 0.015 0 0.295 0.0625 0.623 0.139 0.541 0.126 2.43 0.429 2.68 0.43 0.0571 2.2e-4 -0.279 0.19-0.748 0.422-1.29 0.64-2.26 1.31-4.46 3.13l-0.203 0.167zm-21.1-6.78c-0.129-0.21-0.536-1.46-0.489-1.5 0.255-0.225 8.02-3.27 8.11-3.18 0.02 0.02-7.37 4.67-7.53 4.74-0.0279 0.0119-0.0704-0.0102-0.0944-0.049zm72.7-12.4c0-0.0293 0.115-0.397 0.255-0.818l0.255-0.764 0.262 0.112c0.776 0.333 1.81 0.723 2.82 1.07 0.625 0.212 1.15 0.402 1.17 0.421 0.0191 0.0191-1.04 0.0347-2.36 0.0347s-2.4-0.024-2.4-0.0533zm-65.2-5.65c-3.59-0.15-7.38-0.378-7.45-0.449-0.0567-0.0567 0.0904-1.17 0.189-1.43l0.0643-0.169 0.343 0.0694c3.89 0.787 9.22 2.1 8.28 2.04-0.096-6e-3 -0.735-0.0348-1.42-0.0634zm68.9-1.95c0.0716-0.0647 3.27-1.28 4.36-1.65l1.2-0.412 0.0565 0.0914c0.0945 0.153 0.291 1.24 0.234 1.29-0.0616 0.0574-1.58 0.267-3.81 0.526-1.44 0.167-2.11 0.218-2.04 0.153zm-13.6-12.4c0-0.171 1.72-2.71 2.52-3.71 0.698-0.877 2.98-3.3 3.11-3.3 0.26 0-1.98 3.15-3.27 4.59-0.383 0.429-2.36 2.45-2.36 2.41zm-30.7-2.61c-1.91-2.76-3.49-5.7-4.61-8.59-0.241-0.623-0.235-0.618 0.414 0.351 1.64 2.44 2.83 4.66 4.14 7.68 0.514 1.18 0.519 1.24 0.0494 0.562zm35.1 0.195c0-0.223 5.44-6.16 5.85-6.37l0.125-0.0669 0.404 0.46c0.494 0.563 0.552 0.436-0.642 1.41-4.64 3.76-5.73 4.64-5.73 4.58zm-8.36-0.514c0.0626-0.147 0.275-0.652 0.472-1.12 0.794-1.9 0.917-2.19 1.47-3.49 0.666-1.58 2.84-6.64 3.32-7.73 0.182-0.411 0.431-0.983 0.553-1.27 0.123-0.288 0.265-0.54 0.316-0.559 0.0736-0.0282 1.55 0.732 2.01 1.04l0.0965 0.0637-1.03 1.66c-0.569 0.915-1.47 2.35-2 3.2-0.53 0.842-1.37 2.19-1.86 2.99-0.495 0.803-1.11 1.8-1.36 2.21-0.256 0.411-0.818 1.32-1.25 2.01-0.804 1.3-0.924 1.46-0.726 0.997zm-13.2-1.41c0.0273-0.352 0.115-1.12 0.195-1.71 0.145-1.07 0.254-3.19 0.242-4.73l-0.0062-0.815-2.1-0.981c-1.15-0.54-2.15-1.03-2.2-1.09l-0.109-0.109 0.104-0.104c0.0574-0.0573 1.14-0.406 2.41-0.775 1.27-0.369 2.33-0.698 2.36-0.732 0.0337-0.0341 0.235-1.29 0.447-2.79 0.488-3.45 0.411-3.36 1.39-1.64 1.14 2.01 1.95 3.37 2.04 3.47l0.086 0.0908 1.81-0.326c0.996-0.179 2.03-0.369 2.3-0.422 1.12-0.219 1.1-0.166-0.846 2.27-0.804 1.01-1.46 1.86-1.46 1.89 0 0.0735 0.501 1.47 1.06 2.97 0.459 1.22 0.502 1.42 0.323 1.49-0.0928 0.0356-1.6-0.579-3.67-1.5l-0.404-0.179-0.273 0.301c-0.15 0.165-0.763 0.877-1.36 1.58l-1.09 1.28-0.601 1.56c-0.331 0.858-0.621 1.58-0.646 1.6-0.0244 0.023-0.0221-0.247 0.0051-0.599zm1.93-4.52c0.312-0.372 0.847-1.02 1.19-1.44l0.623-0.764 0.371 0.169c0.204 0.0927 0.855 0.394 1.45 0.669 0.591 0.275 1.19 0.548 1.33 0.607l0.255 0.107-0.0929-0.261c-0.0511-0.144-0.37-0.946-0.71-1.78l-0.617-1.52 0.0979-0.116c0.0538-0.0636 0.432-0.5 0.84-0.971 0.948-1.09 1.7-2 1.7-2.05 0-0.0529-0.272-0.0074-2.26 0.378l-1.73 0.335-0.167-0.291c-0.204-0.355-0.973-1.73-1.55-2.77-0.233-0.421-0.434-0.765-0.446-0.765-0.0239 0-0.0561 0.221-0.4 2.74-0.143 1.05-0.258 1.67-0.319 1.71-0.0524 0.0418-0.93 0.314-1.95 0.605s-1.86 0.547-1.86 0.57c0 0.0228 0.473 0.238 1.05 0.478 0.578 0.24 1.32 0.553 1.66 0.694s0.669 0.283 0.748 0.315l0.142 0.0577-0.0831 1.52c-0.0457 0.837-0.0858 1.79-0.089 2.13l-0.0059 0.603 0.13-0.14c0.0715-0.0772 0.385-0.445 0.697-0.817zm-12.8 2.4c-0.389-1.02-1.02-2.7-1.41-3.71-2.68-7.04-3.72-9.89-3.66-10 0.0448-0.117 1.88-0.858 2.01-0.81 0.0471 0.0181 0.139 0.268 0.203 0.556 0.0647 0.288 0.421 1.81 0.791 3.37 1.6 6.76 2.87 12.4 2.81 12.5-0.0121 0.012-0.341-0.817-0.73-1.84zm-9.94-2.17c-0.724-0.948-4.58-6.14-4.96-6.69l-0.158-0.224 0.999-0.683 0.0951 0.103c0.166 0.18 3.98 6.82 4.81 8.38 0.177 0.331 5.59e-4 0.13-0.779-0.89z" fill="#060505"/></svg>
