<svg width="210mm" height="297mm" version="1.1" viewBox="0 0 210 297" xmlns="http://www.w3.org/2000/svg"><path d="m93.6 210c-0.469-0.254-0.22-1.32 1.73-7.4 0.181-0.564 0.54-1.71 0.798-2.54 0.384-1.24 0.871-2.11 0.618-1.1-0.0709 0.282 0.119 0.402 0.215 0.135 0.028-0.0783 0.0846-0.111 0.126-0.0735 0.109 0.0998-0.261 2.67-1.46 10.1l-0.137 0.855h-0.524c-0.288 0-0.563 0.0384-0.611 0.0855-0.132 0.13-0.413 0.095-0.761-0.0937zm-43.3-5.68c-0.141-0.15-0.394-0.3-0.562-0.333-0.168-0.0337-0.429-0.228-0.58-0.431l-0.273-0.37 0.958-0.922c0.961-0.926 6.21-5.66 6.92-6.25 0.368-0.302 0.669-0.418 0.538-0.207-0.0354 0.0573 6e-6 0.126 0.0787 0.152 0.257 0.0863-1.07 1.83-6.28 8.26-0.358 0.442-0.465 0.455-0.801 0.0981zm16.1 0.0747c-0.0296-0.048 0.457-1.52 1.08-3.28 2.48-6.97 3.74-11.6 3.74-13.8v-0.726l-0.37 3e-4c-1.15 9.5e-4 -4.55 1.12-8.4 2.78-3.06 1.31-2.95 1.37-1.87-1.02 1.2-2.65 1.4-3.15 1.41-3.39l0.0027-0.209-0.541 0.307c-4.81 2.74-9.1 4.67-14.1 6.34-2.08 0.701-1.99 0.727-2.1-0.627-0.0887-1.15-0.0912-1.16-0.728-0.932-0.99 0.349-0.916 0.516-1.19-2.68-0.454-5.25-1.32-14.3-2.05-21.3-0.217-2.1-0.457-4.45-0.534-5.23-0.0766-0.775-0.201-1.47-0.276-1.55-0.12-0.12-8.56-3.53-11.6-4.68-1.66-0.631-1.85-0.464 2.42-2.09 4.58-1.74 7.69-2.94 7.96-3.09 0.309-0.165 0.317 0.0491-0.155-4.45-0.219-2.1-0.399-3.9-0.399-4.01 0-0.192 1.16-0.928 3.74-2.38 1.64-0.92 5.24-2.63 7.11-3.37 1.81-0.722 1.81-0.719 1.44-1.44-1.4-2.75-5.2-7.74-11.2-14.8-2.17-2.53-2.18-2.5 0.365-1.3 16.2 7.67 28.7 11.1 29.6 8.11 0.823-2.66 0.767-7.8-0.148-13.5-0.263-1.63-0.264-1.65-0.0604-1.65 0.0878 0 0.972 0.578 1.97 1.29 5.25 3.73 11.3 7.06 11.9 6.5 0.573-0.573 0.688-5.68 0.259-11.5l-0.0689-0.94h0.177c0.0971 0 0.397 0.269 0.667 0.598 4.78 5.84 8.33 9.22 10.5 10.1l0.524 0.2 0.414-0.219c2.35-1.24 6.11-7.01 9.28-14.2 0.896-2.04 1.15-2.45 1.27-2.1 0.0294 0.0835 0.546 1.56 1.15 3.29 2.83 8.1 5.22 12.3 7.66 13.5l0.607 0.297 0.822-0.0695c3.76-0.318 10.8-3.82 19.7-9.85 2.37-1.6 2.85-1.88 2.85-1.65 0 0.0606-0.207 0.997-0.459 2.08-2.84 12.2-1.78 14.6 5.47 12.3 3.05-0.965 8-3.18 13.1-5.85 2.95-1.55 3.41-1.76 3.41-1.57 0 0.115-0.461 0.888-2.16 3.63-2.44 3.92-4.26 7.23-4.08 7.41 0.0385 0.0385 0.626-0.0111 1.31-0.11 3.19-0.465 4.83-0.613 4.82-0.435-1e-3 0.047-0.0778 0.547-0.17 1.11-0.0927 0.564-0.169 1.17-0.169 1.35l-4.4e-4 0.322 0.37-0.078c0.547-0.115 0.534-0.0835 1.02-2.52 0.248-1.24 0.493-2.3 0.544-2.36 0.2-0.209 16.2 1.79 16.4 2.06 0.0711 0.0711-0.0742 0.569-0.409 1.4-0.654 1.63-0.672 1.53 0.306 1.72 1.07 0.204 1.08 0.0909-0.125 2.9-3.68 8.61-6.8 16.3-6.66 16.5 0.138 0.138 1.48 0.601 5.62 1.94 4.34 1.4 5.47 1.81 5.47 1.98 0 0.0828-1.75 0.798-4.19 1.71-5.29 1.98-10 3.91-10.7 4.33-0.182 0.12-0.392 0.58-0.737 1.62-0.265 0.801-0.553 1.6-0.641 1.77l-0.158 0.313h-0.681c-0.783 0-0.769-0.0207-0.4 0.61 0.377 0.644 0.607 1.32 0.748 2.21 0.0646 0.404 0.242 0.974 0.395 1.27 3.5 6.72-5.8 14.7-11.4 9.73-0.37-0.33-0.701-0.6-0.734-0.6-0.17 0-3.85 0.821-4.09 0.913-0.994 0.378 1.16 5.72 5.03 12.5 0.901 1.58 1.64 2.9 1.64 2.93 0 0.175-0.418-0.0157-2.83-1.29-17.8-9.39-22.8-7.09-21.4 9.91 0.31 3.81 0.325 4.1 0.223 4.1-0.0536 0-1.59-1.48-3.41-3.28-5.48-5.44-6.17-5.99-6.35-5.1-0.0711 0.342-0.658 4.64-0.658 4.81 0 0.259-0.49-0.223-1.42-1.4-3.72-4.7-5.94-6.99-6.79-6.99-1.22 0-4.93 5.88-7.74 12.3-0.828 1.88-0.888 1.92-1.3 0.741-2.05-5.8-5.02-11.8-5.85-11.8-1.21 0-6.62 5.73-11.6 12.3-1.09 1.44-1.42 1.74-1.42 1.31-7.76e-4 -0.335-0.332-3.87-0.516-5.5-0.301-2.68-0.718-4.87-1.21-6.36l-0.238-0.725-0.411 0.0667c-2.3 0.373-8.42 4.69-15.6 11-1.92 1.68-2.01 1.75-2.09 1.62zm76.3-0.628c-0.178-0.484-1.13-4.27-1.54-6.08-0.262-1.18-0.702-3.16-0.979-4.39-0.276-1.23-0.502-2.38-0.502-2.55v-0.305l0.313 0.205c1.95 1.28 10.5 8.95 10.4 9.26-0.177 0.287-7.06 4.01-7.41 4.01-0.103 0-0.21-0.0641-0.239-0.142zm23-8.66c-0.458-0.569-1.98-2.68-3.56-4.93-0.615-0.877-1.72-2.44-2.45-3.48-1.71-2.41-1.82-2.64-0.737-1.6l0.881 0.855-0.523-0.791c-0.776-1.17-0.565-1.06 0.922 0.516 0.736 0.778 2.65 2.77 4.26 4.43 1.6 1.66 3.18 3.31 3.51 3.67l0.593 0.65-0.11 0.206c-0.0606 0.113-0.218 0.303-0.35 0.423l-0.24 0.217-0.586-0.55-0.16 0.219c-0.19 0.26-0.735 0.634-0.925 0.635-0.0741 4.1e-4 -0.31-0.217-0.525-0.483zm-134-7.25c-2.76-2.47-3.23-2.92-3.14-3.07 0.465-0.752 11.2-7.22 11.2-6.74 0 0.697-5.87 11.3-6.25 11.3-0.113 0-0.944-0.66-1.85-1.47zm137-3.46c-3.19-6.09-4.08-7.95-3.78-7.95 0.805 0 11 5 11 5.4-1e-3 0.201-6.01 3.95-6.33 3.95-0.0842 0-0.482-0.628-0.884-1.4zm-142-13.4c-0.068-0.195-0.0993-0.394-0.0694-0.443 0.0299-0.0484-0.022-0.151-0.115-0.229-0.103-0.0857-0.17-0.337-0.17-0.642v-0.502l0.264-0.1c0.687-0.261 9.01-1.72 9.82-1.72 0.185 0 0.0062 0.213-0.312 0.371l-0.37 0.184 0.798 0.0237-0.309 0.168c-0.17 0.0923-1.86 0.707-3.76 1.37s-3.88 1.35-4.4 1.54c-1.17 0.419-1.23 0.419-1.38-0.0173zm150-4.48c-4.96-1.5-6.31-1.99-5.53-2l0.456-6e-3 -0.57-0.446 0.285-4e-3c0.853-0.0106 7.52 0.892 7.71 1.04 0.0886 0.0711 0.101 0.217 0.0373 0.439l-0.0954 0.333 0.574 0.418-0.176 0.421c-0.228 0.545-0.251 0.544-2.69-0.197zm-137-31.4c-7.22-1.31-7.61-1.39-7.52-1.7 0.0449-0.142 0.0063-0.243-0.109-0.287-0.24-0.0919-0.226-0.417 0.0309-0.734l0.21-0.259 0.747 0.188c0.938 0.236 6.19 1.83 7.05 2.14l0.642 0.232-0.0158 0.274c-0.0175 0.304-0.1 0.316-1.04 0.146zm7.49-16.1c-0.631-0.274-8.12-4.46-8.72-4.87-0.385-0.266-0.389-0.363-0.0337-0.719 0.454-0.454 0.388-0.491 6.39 3.62 2.96 2.03 3.45 2.44 2.36 1.96zm14.1-3.58c-1.62-1.53-7.04-7.24-8.63-9.1l-0.518-0.604 0.161-0.154c0.328-0.313 4.95-2.11 7.22-2.81l0.682-0.21 0.144 0.144c0.387 0.387 1.87 8.37 2.49 13.4 0.105 0.847-0.0232 0.794-1.55-0.646zm84.3-1.33c2.3e-4 -0.0579 0.108-0.285 0.24-0.504 0.132-0.219 0.341-0.578 0.466-0.798l0.226-0.399-0.311 0.342c-0.171 0.188-0.477 0.527-0.68 0.753-0.518 0.579-0.68 0.651-0.446 0.2 0.799-1.55 7.21-12 7.5-12.3 0.362-0.301 1.26 0.662 0.952 1.02-0.0783 0.0909 0.0706-0.0327 0.331-0.274l0.473-0.44 0.521 0.48c0.626 0.577 0.7 0.392-0.967 2.39-5.47 6.57-8.31 9.81-8.31 9.5zm-27.7-3.42c0-1.2 2.31-12.4 2.64-12.8 0.352-0.425 7.84 1.66 7.84 2.18 0 0.358-10 10.9-10.4 10.9-0.0525 0-0.0954-0.131-0.0954-0.292zm-28.6-2.87c-0.279-0.486-0.848-1.51-1.26-2.28-0.415-0.768-1.09-2.01-1.5-2.76-0.844-1.56-0.89-1.77-0.404-1.88 0.186-0.0409 0.367-0.171 0.405-0.29 0.0609-0.192 0.781-0.448 0.907-0.322 0.112 0.112 2.82 7.54 2.95 8.1 0.115 0.483-0.0675 0.372-0.421-0.256-0.372-0.662-0.45-0.716-0.29-0.199 0.0634 0.204 0.143 0.46 0.176 0.57 0.127 0.415-0.0768 0.169-0.567-0.684z" fill="#fac402"/><path d="m93.6 210c-0.469-0.254-0.22-1.32 1.73-7.4 0.181-0.564 0.54-1.71 0.798-2.54 0.384-1.24 0.871-2.11 0.618-1.1-0.0709 0.282 0.119 0.402 0.215 0.135 0.028-0.0783 0.0846-0.111 0.126-0.0735 0.109 0.0998-0.261 2.67-1.46 10.1l-0.137 0.855h-0.524c-0.288 0-0.563 0.0384-0.611 0.0855-0.132 0.13-0.413 0.095-0.761-0.0937zm-43.3-5.68c-0.141-0.15-0.394-0.3-0.562-0.333-0.168-0.0337-0.429-0.228-0.58-0.431l-0.273-0.37 0.958-0.922c0.961-0.926 6.21-5.66 6.92-6.25 0.368-0.302 0.669-0.418 0.538-0.207-0.0354 0.0573 6e-6 0.126 0.0787 0.152 0.257 0.0863-1.07 1.83-6.28 8.26-0.358 0.442-0.465 0.455-0.801 0.0981zm16.1 0.0747c-0.0296-0.048 0.457-1.52 1.08-3.28 2.48-6.97 3.74-11.6 3.74-13.8v-0.726l-0.37 3e-4c-1.15 9.5e-4 -4.55 1.12-8.4 2.78-3.06 1.31-2.95 1.37-1.87-1.02 1.2-2.65 1.4-3.15 1.41-3.39l0.0027-0.209-0.541 0.307c-4.81 2.74-9.1 4.67-14.1 6.34-2.08 0.701-1.99 0.727-2.1-0.627-0.0887-1.15-0.0912-1.16-0.728-0.932-0.99 0.349-0.916 0.516-1.19-2.68-0.454-5.25-1.32-14.3-2.05-21.3-0.217-2.1-0.457-4.45-0.534-5.23-0.0766-0.775-0.201-1.47-0.276-1.55-0.12-0.12-8.56-3.53-11.6-4.68-1.66-0.631-1.85-0.464 2.42-2.09 4.58-1.74 7.69-2.94 7.96-3.09 0.309-0.165 0.317 0.0491-0.155-4.45-0.219-2.1-0.399-3.9-0.399-4.01 0-0.192 1.16-0.928 3.74-2.38 1.64-0.92 5.24-2.63 7.11-3.37 1.81-0.722 1.81-0.719 1.44-1.44-1.4-2.75-5.2-7.74-11.2-14.8-2.17-2.53-2.18-2.5 0.365-1.3 16.2 7.67 28.7 11.1 29.6 8.11 0.823-2.66 0.767-7.8-0.148-13.5-0.263-1.63-0.264-1.65-0.0604-1.65 0.0878 0 0.972 0.578 1.97 1.29 5.25 3.73 11.3 7.06 11.9 6.5 0.573-0.573 0.688-5.68 0.259-11.5l-0.0689-0.94h0.177c0.0971 0 0.397 0.269 0.667 0.598 4.78 5.84 8.33 9.22 10.5 10.1l0.524 0.2 0.414-0.219c2.35-1.24 6.11-7.01 9.28-14.2 0.896-2.04 1.15-2.45 1.27-2.1 0.0294 0.0835 0.546 1.56 1.15 3.29 2.83 8.1 5.22 12.3 7.66 13.5l0.607 0.297 0.822-0.0695c3.76-0.318 10.8-3.82 19.7-9.85 2.37-1.6 2.85-1.88 2.85-1.65 0 0.0606-0.207 0.997-0.459 2.08-2.84 12.2-1.78 14.6 5.47 12.3 3.05-0.965 8-3.18 13.1-5.85 2.95-1.55 3.41-1.76 3.41-1.57 0 0.115-0.461 0.888-2.16 3.63-2.44 3.92-4.26 7.23-4.08 7.41 0.0385 0.0385 0.626-0.0111 1.31-0.11 3.19-0.465 4.83-0.613 4.82-0.435-1e-3 0.047-0.0778 0.547-0.17 1.11-0.0927 0.564-0.169 1.17-0.169 1.35l-4.4e-4 0.322 0.37-0.078c0.547-0.115 0.534-0.0835 1.02-2.52 0.248-1.24 0.493-2.3 0.544-2.36 0.2-0.209 16.2 1.79 16.4 2.06 0.0711 0.0711-0.0742 0.569-0.409 1.4-0.654 1.63-0.672 1.53 0.306 1.72 1.07 0.204 1.08 0.0909-0.125 2.9-3.68 8.61-6.8 16.3-6.66 16.5 0.138 0.138 1.48 0.601 5.62 1.94 4.34 1.4 5.47 1.81 5.47 1.98 0 0.0828-1.75 0.798-4.19 1.71-5.29 1.98-10 3.91-10.7 4.33-0.182 0.12-0.392 0.58-0.737 1.62-0.265 0.801-0.553 1.6-0.641 1.77l-0.158 0.313h-0.681c-0.783 0-0.769-0.0207-0.4 0.61 0.377 0.644 0.607 1.32 0.748 2.21 0.0646 0.404 0.242 0.974 0.395 1.27 3.5 6.72-5.8 14.7-11.4 9.73-0.37-0.33-0.701-0.6-0.734-0.6-0.17 0-3.85 0.821-4.09 0.913-0.994 0.378 1.16 5.72 5.03 12.5 0.901 1.58 1.64 2.9 1.64 2.93 0 0.175-0.418-0.0157-2.83-1.29-17.8-9.39-22.8-7.09-21.4 9.91 0.31 3.81 0.325 4.1 0.223 4.1-0.0536 0-1.59-1.48-3.41-3.28-5.48-5.44-6.17-5.99-6.35-5.1-0.0711 0.342-0.658 4.64-0.658 4.81 0 0.259-0.49-0.223-1.42-1.4-3.72-4.7-5.94-6.99-6.79-6.99-1.22 0-4.93 5.88-7.74 12.3-0.828 1.88-0.888 1.92-1.3 0.741-2.05-5.8-5.02-11.8-5.85-11.8-1.21 0-6.62 5.73-11.6 12.3-1.09 1.44-1.42 1.74-1.42 1.31-7.76e-4 -0.335-0.332-3.87-0.516-5.5-0.301-2.68-0.718-4.87-1.21-6.36l-0.238-0.725-0.411 0.0667c-2.3 0.373-8.42 4.69-15.6 11-1.92 1.68-2.01 1.75-2.09 1.62zm28.3-18.5c2.95-3.14 7-6.56 7.46-6.29 0.619 0.352 3.19 4.14 4.67 6.89 0.564 1.05 1.06 1.86 1.11 1.82 0.0463-0.0454 0.487-0.902 0.98-1.9 2.2-4.47 4.79-8.48 5.47-8.48 1.04 2e-3 6.31 3.44 9.71 6.34 0.722 0.617 1.53 1.29 1.79 1.5l0.481 0.38-1e-3 -0.323c-5.7e-4 -0.178-0.078-0.913-0.172-1.63-0.375-2.87-0.334-7.3 0.0792-8.68 0.213-0.71-1.17-0.414-4.73 1.01-1.9 0.76-1.92 0.751-1.55-0.525 0.327-1.13 0.33-1.13-0.867-0.81-1.08 0.286-1.27 0.238-1.08-0.269 0.245-0.644 0.119-0.636-0.85 0.0522-7.88 5.6-15 4.39-18.9-3.18l-0.48-0.954-0.151 0.158c-0.083 0.0868-0.613 0.856-1.18 1.71-1.37 2.07-2.61 3.59-4.01 4.92l-1.15 1.09 0.498 3.03 0.106 7.05 0.587-0.628c0.323-0.346 1.28-1.37 2.13-2.27zm-13-2.56c0.395-0.313 0.826-0.659 0.957-0.769l0.238-0.199-1.67 0.0564-0.267 0.657c-0.147 0.362-0.303 0.77-0.346 0.907l-0.0793 0.25 0.226-0.166c0.124-0.0916 0.55-0.423 0.945-0.736zm-39.7-33.5c0.15 0.276 0.671 0.355 0.89 0.136 0.0665-0.0665 0.346-0.123 0.621-0.126 0.275-3e-3 0.568-0.0609 0.652-0.129 0.173-0.141 0.354-0.172 1.39-0.239 2.21-0.144 2.78-0.201 2.96-0.295 0.106-0.0569 0.304-0.0744 0.44-0.0389 0.136 0.0355 0.484 5e-3 0.775-0.0685l0.528-0.133 0.639 0.195c0.352 0.107 0.692 0.235 0.757 0.284 0.0648 0.0488 0.189 0.045 0.275-8e-3 0.0865-0.0535 0.336-0.0682 0.554-0.0328 0.481 0.078 0.698-0.152 0.718-0.762l0.0135-0.405 0.087 0.342c0.0621 0.244 0.0913 0.0651 0.102-0.627 0.0188-1.2-0.0137-1.15 1.16-1.7 3.92-1.84 6.61-0.856 5.48 1.99l-0.229 0.579 0.768 0.278 0.462-0.223c0.584-0.282 0.956-0.337 2.84-0.417l1.53-0.0649 0.291-0.388 0.349 0.195c0.377 0.211 0.63 0.175 0.737-0.103 0.0475-0.124 0.108-0.141 0.208-0.0591 0.0776 0.0637 0.269 0.134 0.426 0.155 0.207 0.0287 0.278 0.102 0.259 0.267-0.0834 0.735 0.422 1.22 0.586 0.565 0.0399-0.159 0.225-0.449 0.411-0.644s0.339-0.401 0.339-0.458c0-0.0571 0.0528-0.0712 0.117-0.0313 0.153 0.0948 0.942-1.62 1.33-2.89l0.302-0.988 0.0084-1.77c0.0227-4.75-2.24-7.17-7.4-7.92-5.19-0.752-12.2 1.34-21.4 6.39l-1.23 0.676 0.07 0.798c0.0944 1.08 0.775 7.27 0.869 7.9 0.0062 0.0423 0.0478-0.0513 0.0924-0.208l0.0811-0.285zm85.4-4.81c0.0641-0.565 0.188-1.14 0.276-1.27 1-1.53 0.212-9.32-1.25-12.3-3.75-7.67-15.7-5.2-21.8 4.51-0.177 0.282-0.485 0.769-0.684 1.08-0.671 1.06-1.88 3.52-2.43 4.96l-0.545 1.42h-0.442l-0.0889-0.684c-0.942-7.24-2.98-10.5-7.26-11.5-6.56-1.59-14.2 3.63-18.2 12.4-0.509 1.12-0.517 1.14-0.33 1.03 0.0722-0.0446 0.188-5e-3 0.256 0.0889 0.132 0.179 0.638 0.336 1.06 0.329 0.138-3e-3 0.282 0.0459 0.32 0.108 0.0381 0.0617 0.243 0.112 0.455 0.112s0.415 0.0476 0.451 0.106c0.0791 0.128 0.954 0.073 1.66-0.104 0.282-0.0711 0.828-0.145 1.21-0.165 0.385-0.0199 0.749-0.0664 0.809-0.103 0.0599-0.037 0.257-0.0118 0.439 0.0561 0.406 0.152 1.3-0.0538 1.3-0.299 0-0.262 0.229-0.329 1.18-0.345l0.904-0.0152 0.182 0.325c0.1 0.179 0.311 0.355 0.467 0.391 0.157 0.0365 0.479 0.129 0.715 0.205 0.401 0.129 1.35 0.0311 1.96-0.202 0.0811-0.0311 0.413 0.0703 0.737 0.225l0.589 0.282 0.474-0.348c0.261-0.192 0.538-0.348 0.617-0.348 0.0785 0 0.184-0.0701 0.234-0.156l0.0911-0.156 2.25 0.174 0.412-0.174c0.532-0.224 1.74-0.211 2.1 0.0233 0.147 0.0966 0.307 0.137 0.354 0.0897 0.0475-0.0472 0.582-0.0946 1.19-0.105 2.25-0.0398 3.55-0.269 3.7-0.652l0.0675-0.176 0.427 0.178c0.249 0.104 0.571 0.151 0.774 0.113 0.191-0.0361 1.04-0.197 1.89-0.357 1.47-0.279 2-0.331 3.02-0.297 0.251 8e-3 0.646-0.0161 0.879-0.0544 0.318-0.0524 0.519-0.0103 0.811 0.17 0.213 0.132 0.55 0.24 0.749 0.24 0.198 0 0.487 0.083 0.642 0.184l0.281 0.184 0.655-0.494c0.36-0.271 0.886-0.704 1.17-0.961 1.43-1.3 3.25-1.84 4.29-1.28 0.771 0.418 1.63 1.28 1.63 1.63 0 0.464 0.246 1.19 0.405 1.19 0.179 0 0.279 0.261 0.279 0.728 0 0.202 0.0668 0.459 0.148 0.571l0.148 0.203 0.15-0.181c0.26-0.313 1.2-0.24 1.69 0.132l0.412 0.313 0.691 0.0262c1.42 0.0541 1.67 0.0367 1.91-0.135 0.368-0.258 1.13-0.229 1.37 0.0518 0.107 0.125 0.337 0.229 0.51 0.231 0.176 2e-3 0.49 0.149 0.713 0.333l0.398 0.33 0.201-0.414c0.111-0.228 0.254-0.876 0.318-1.44zm13.6-4.99c0.0886-0.71 0.0275-13.3-0.065-13.3-0.115-0.115-9.36 2.38-9.65 2.6-0.047 0.0362-0.918 3.5-1.29 5.12l-0.361 1.58 0.125 0.841c0.0688 0.463 0.125 1.11 0.125 1.45 0 0.333 0.0322 0.841 0.0715 1.13l0.0715 0.522 0.982-0.0511c0.54-0.0281 1.05-0.0485 1.12-0.0453 0.0783 3e-3 0.283 6e-3 0.456 6e-3 0.953 2e-3 1.27 0.0133 1.74 0.06 0.282 0.0283 0.652 0.052 0.822 0.0525 0.17 5.5e-4 0.336 0.0439 0.368 0.0963 0.0324 0.0524 0.29 0.0692 0.572 0.0374s0.578-7e-3 0.657 0.0551c0.16 0.126 1.29 0.117 1.58-0.013 0.111-0.0501 0.253-0.0153 0.355 0.0871 0.103 0.103 0.272 0.144 0.428 0.103 0.173-0.0451 0.292-5e-3 0.362 0.121 0.0791 0.141 0.271 0.188 0.775 0.188h0.67zm3.68-0.481c0.395-0.0773 0.777-0.199 0.849-0.271 0.0719-0.0719 0.213-0.131 0.313-0.131s0.246-0.0641 0.325-0.142c0.264-0.264 1.85-0.288 2.21-0.0337 0.343 0.24 0.987 0.221 1.58-0.0475 0.504-0.227 1.32-0.215 1.48 0.022 0.0946 0.144 1.89 0.226 2.14 0.0969 0.12-0.0642 0.272-0.0601 0.399 0.0107 0.15 0.0841 0.257 0.0673 0.401-0.0629 0.216-0.196 1.72-0.216 1.72-0.0235 3e-3 0.834 1.86-10.3 2.21-13.3l0.065-0.547-0.711 0.073c-0.734 0.0753-5.78 0.906-8.02 1.32l-1.27 0.234-0.285 0.645c-0.157 0.355-0.989 2.18-1.85 4.06-0.86 1.88-1.85 4.03-2.19 4.79-0.344 0.752-0.721 1.61-0.839 1.9l-0.213 0.534 0.219 0.495c0.27 0.61 0.342 0.685 0.566 0.591 0.0973-0.0408 0.5-0.137 0.895-0.215zm-68.8-1.65c0.749-1.06 1.42-1.87 2.39-2.87l0.841-0.866-3.46-0.0735c-1.9-0.0404-3.6-0.106-3.77-0.145-0.44-0.0999-0.405 0.116 0.121 0.746 0.239 0.286 0.786 1.03 1.22 1.66 0.43 0.627 1.01 1.46 1.28 1.86l0.503 0.718 0.171-0.142c0.0942-0.0782 0.408-0.478 0.697-0.889zm86.2 0.185c0.229-0.12 1.72-0.214 2.68-0.17 0.282 0.013 0.731 0.0167 0.997 8e-3 0.857-0.0274 0.987-0.03 1.56-0.0306 0.323-3.8e-4 0.633-0.0668 0.72-0.154l0.154-0.154 0.467 0.161c0.257 0.0885 0.616 0.267 0.799 0.397l0.331 0.236 0.27-0.144c0.156-0.0837 0.284-0.269 0.304-0.442 0.019-0.164 0.102-0.297 0.185-0.297 0.163 0 0.608-1.01 3.11-7.06 0.882-2.13 1.81-4.35 2.05-4.94 0.248-0.586 0.435-1.08 0.415-1.09-0.0458-0.0307-6.97-0.92-9.38-1.2-1-0.118-2.11-0.25-2.46-0.293l-0.635-0.078-0.204 1.18c-0.112 0.65-0.562 3.05-1 5.34-0.438 2.29-0.942 5-1.12 6.04-0.178 1.03-0.356 2.06-0.396 2.28-0.0527 0.286-0.0407 0.352 0.0422 0.234l0.116-0.165 0.154 0.613 0.301-0.0719c0.166-0.0395 0.404-0.126 0.529-0.191zm-59.9-2.1c2.86-4.63 7.51-8.72 11.6-10.2l0.72-0.259-0.061-0.243c-0.0335-0.134-0.116-0.725-0.182-1.31-0.0668-0.59-0.135-1.09-0.152-1.1-0.0168-0.0168-0.626 0.399-1.35 0.924-1.33 0.957-3.7 2.52-4.01 2.64-0.485 0.186-2.59-4.08-3.84-7.78-0.236-0.7-0.48-1.36-0.542-1.47l-0.113-0.202-0.652 1.3c-1.79 3.57-4.11 7.25-5.62 8.89l-0.565 0.614-0.496-0.241c-1-0.488-2.86-2.01-5.01-4.12l-2.21-2.16 7.54e-4 3.79 7.53e-4 3.79 3.65 0.103 1.25 0.414c2.76 0.912 5.29 3.32 6.88 6.54 0.356 0.726 0.338 0.725 0.752 0.0568zm-19.9-4.28c1.1-0.7 2.62-1.46 3.71-1.84 1.03-0.364 1.03-0.354-0.319-0.908-1.48-0.606-4.08-1.87-5.9-2.86-1.88-1.03-1.8-1.06-1.29 0.607 0.497 1.62 1.15 4.33 1.33 5.5 0.0713 0.47 0.151 0.923 0.176 1.01 0.0312 0.102 0.28-0.0327 0.758-0.412 0.392-0.31 1.08-0.8 1.54-1.09zm45.6-5.43c0.124-1.45 0.603-4.93 0.792-5.75 0.0575-0.249 0.0855-0.472 0.0622-0.495-0.0633-0.0633-7.18 4.69-7.22 4.82-0.019 0.0627 0.29 0.2 0.686 0.306 1.99 0.529 4.12 1.94 5.15 3.4l0.36 0.513 0.0259-0.684c0.0143-0.376 0.0804-1.32 0.147-2.11zm14.9 77.4c-0.178-0.484-1.13-4.27-1.54-6.08-0.262-1.18-0.702-3.16-0.979-4.39-0.276-1.23-0.502-2.38-0.502-2.55v-0.305l0.313 0.205c1.95 1.28 10.5 8.95 10.4 9.26-0.177 0.287-7.06 4.01-7.41 4.01-0.103 0-0.21-0.0641-0.239-0.142zm23-8.66c-0.458-0.569-1.98-2.68-3.56-4.93-0.615-0.877-1.72-2.44-2.45-3.48-1.71-2.41-1.82-2.64-0.737-1.6l0.881 0.855-0.523-0.791c-0.776-1.17-0.565-1.06 0.922 0.516 0.736 0.778 2.65 2.77 4.26 4.43 1.6 1.66 3.18 3.31 3.51 3.67l0.593 0.65-0.11 0.206c-0.0606 0.113-0.218 0.303-0.35 0.423l-0.24 0.217-0.586-0.55-0.16 0.219c-0.19 0.26-0.735 0.634-0.925 0.635-0.0741 4.1e-4 -0.31-0.217-0.525-0.483zm-134-7.25c-2.76-2.47-3.23-2.92-3.14-3.07 0.465-0.752 11.2-7.22 11.2-6.74 0 0.697-5.87 11.3-6.25 11.3-0.113 0-0.944-0.66-1.85-1.47zm137-3.46c-3.19-6.09-4.08-7.95-3.78-7.95 0.805 0 11 5 11 5.4-1e-3 0.201-6.01 3.95-6.33 3.95-0.0842 0-0.482-0.628-0.884-1.4zm-142-13.4c-0.068-0.195-0.0993-0.394-0.0694-0.443 0.0299-0.0484-0.022-0.151-0.115-0.229-0.103-0.0857-0.17-0.337-0.17-0.642v-0.502l0.264-0.1c0.687-0.261 9.01-1.72 9.82-1.72 0.185 0 0.0062 0.213-0.312 0.371l-0.37 0.184 0.798 0.0237-0.309 0.168c-0.17 0.0923-1.86 0.707-3.76 1.37s-3.88 1.35-4.4 1.54c-1.17 0.419-1.23 0.419-1.38-0.0173zm150-4.48c-4.96-1.5-6.31-1.99-5.53-2l0.456-6e-3 -0.57-0.446 0.285-4e-3c0.853-0.0106 7.52 0.892 7.71 1.04 0.0886 0.0711 0.101 0.217 0.0373 0.439l-0.0954 0.333 0.574 0.418-0.176 0.421c-0.228 0.545-0.251 0.544-2.69-0.197zm-137-31.4c-7.22-1.31-7.61-1.39-7.52-1.7 0.0449-0.142 0.0063-0.243-0.109-0.287-0.24-0.0919-0.226-0.417 0.0309-0.734l0.21-0.259 0.747 0.188c0.938 0.236 6.19 1.83 7.05 2.14l0.642 0.232-0.0158 0.274c-0.0175 0.304-0.1 0.316-1.04 0.146zm7.49-16.1c-0.631-0.274-8.12-4.46-8.72-4.87-0.385-0.266-0.389-0.363-0.0337-0.719 0.454-0.454 0.388-0.491 6.39 3.62 2.96 2.03 3.45 2.44 2.36 1.96zm14.1-3.58c-1.62-1.53-7.04-7.24-8.63-9.1l-0.518-0.604 0.161-0.154c0.328-0.313 4.95-2.11 7.22-2.81l0.682-0.21 0.144 0.144c0.387 0.387 1.87 8.37 2.49 13.4 0.105 0.847-0.0232 0.794-1.55-0.646zm84.3-1.33c2.3e-4 -0.0579 0.108-0.285 0.24-0.504 0.132-0.219 0.341-0.578 0.466-0.798l0.226-0.399-0.311 0.342c-0.171 0.188-0.477 0.527-0.68 0.753-0.518 0.579-0.68 0.651-0.446 0.2 0.799-1.55 7.21-12 7.5-12.3 0.362-0.301 1.26 0.662 0.952 1.02-0.0783 0.0909 0.0706-0.0327 0.331-0.274l0.473-0.44 0.521 0.48c0.626 0.577 0.7 0.392-0.967 2.39-5.47 6.57-8.31 9.81-8.31 9.5zm-27.7-3.42c0-1.2 2.31-12.4 2.64-12.8 0.352-0.425 7.84 1.66 7.84 2.18 0 0.358-10 10.9-10.4 10.9-0.0525 0-0.0954-0.131-0.0954-0.292zm-28.6-2.87c-0.279-0.486-0.848-1.51-1.26-2.28-0.415-0.768-1.09-2.01-1.5-2.76-0.844-1.56-0.89-1.77-0.404-1.88 0.186-0.0409 0.367-0.171 0.405-0.29 0.0609-0.192 0.781-0.448 0.907-0.322 0.112 0.112 2.82 7.54 2.95 8.1 0.115 0.483-0.0675 0.372-0.421-0.256-0.372-0.662-0.45-0.716-0.29-0.199 0.0634 0.204 0.143 0.46 0.176 0.57 0.127 0.415-0.0768 0.169-0.567-0.684z" fill="#f9a502"/><path d="m93.6 210c-0.264-0.115-0.37-0.236-0.37-0.423 2.67e-4 -0.334 2.9-9.82 3.24-10.6l0.164-0.376 0.0093 0.355c0.0051 0.195-0.0422 0.626-0.105 0.958-0.147 0.777-0.0662 0.857 0.15 0.149l0.168-0.551 0.0121 0.513c0.0067 0.282-0.0634 0.949-0.156 1.48-0.0923 0.533-0.3 1.84-0.461 2.91-0.369 2.43-0.844 5.31-0.906 5.49-0.0349 0.0995-0.157 0.105-0.463 0.0203l-0.416-0.115-0.198 0.179c-0.234 0.212-0.199 0.212-0.664 9e-3zm-43.3-5.82c-0.156-0.199-0.298-0.273-0.426-0.224-0.229 0.0879-0.838-0.449-0.838-0.738 0-0.21 1.22-1.38 5.07-4.83 2.96-2.66 3.47-3.06 3.02-2.34-0.0692 0.109-0.0612 0.196 0.0229 0.248 0.0909 0.0562 0.0937 0.124 0.0096 0.231-0.0657 0.0831-1.06 1.33-2.21 2.77-4.71 5.91-4.24 5.42-4.66 4.89zm36.3 0.163c-0.0278-0.0823-0.108-0.842-0.177-1.69-0.423-5.13-1.15-9.51-1.77-10.7l-0.168-0.324-0.314 0.0933c-3.06 0.908-8.16 4.51-15.6 11-2.33 2.03-2.33 2.03-1.71 0.367 2.74-7.43 4.43-13.4 4.43-15.7v-0.849l-0.427 3.6e-4c-1.19 1e-3 -4.28 1.03-8.52 2.84l-2.39 1.02-0.0324-0.19c-0.0178-0.105 0.385-1.11 0.894-2.24 1.67-3.69 1.68-3.55-0.253-2.44-4.04 2.33-13 6.17-14.7 6.29l-0.33 0.0237-0.114-1.08c-0.126-1.2-0.0783-1.15-0.993-0.901-0.71 0.197-0.588 0.807-1.23-6.17-0.313-3.41-0.671-7.2-0.796-8.42-0.124-1.22-0.355-3.53-0.513-5.13-0.158-1.6-0.466-4.65-0.685-6.78s-0.398-3.96-0.398-4.07c0-0.286-3.94-1.95-11.1-4.71-2.02-0.773-2.05-0.825-0.798-1.31 0.517-0.199 2.81-1.07 5.1-1.94 5.2-1.98 5.5-2.1 5.63-2.31 0.0696-0.11-0.0381-1.59-0.308-4.25-0.305-3-0.382-4.12-0.29-4.23 0.608-0.732 7.07-4.08 10.7-5.56 1.99-0.804 1.9-0.665 1.25-1.79-1.89-3.28-4.66-6.94-10.2-13.4-1.35-1.59-2.48-2.96-2.5-3.05-0.0474-0.211 0.0155-0.186 2.37 0.918 14.5 6.77 24.5 9.83 28.5 8.71 1.49-0.414 1.71-7.17 0.48-14.7-0.226-1.39-0.189-1.39 1.39-0.277 5.44 3.86 10.9 6.94 12.3 6.94 0.648 0 0.865-5.09 0.459-10.8-0.164-2.29-0.34-2.35 2.33 0.79 4.06 4.77 8 8.24 9.35 8.26 1.82 0.0177 6.06-6.14 9.57-13.9 1.41-3.1 1.29-3.08 2.18-0.513 1.2 3.46 1.63 4.61 2.35 6.32 2.35 5.59 4.76 8.66 6.79 8.66 3.4 0 10.3-3.33 19.3-9.36 3.54-2.37 3.71-2.46 3.58-1.94-2.62 10.3-2.44 14.7 0.607 14.9 3.06 0.215 10-2.53 20.1-7.97 0.387-0.208 0.741-0.34 0.786-0.295 0.0882 0.0882 0.0205 0.204-2.35 4.02-2.21 3.56-4.02 6.89-3.84 7.07 0.0377 0.0376 1.05-0.0635 2.24-0.225 4.19-0.566 3.93-0.61 3.71 0.616-0.0843 0.47-0.156 1.08-0.159 1.35l-6e-3 0.498 0.369-0.0737c0.564-0.113 0.6-0.201 1.04-2.51 0.226-1.19 0.476-2.22 0.557-2.3l0.146-0.146 1.99 0.221c5.51 0.612 14.1 1.77 14.3 1.92 0.0589 0.0589-0.137 0.677-0.47 1.48-0.642 1.55-0.66 1.48 0.432 1.66l0.748 0.123-0.0181 0.285c-0.01 0.156-0.607 1.67-1.33 3.36-3.1 7.28-6.35 15.2-6.35 15.5 0 0.126 1.49 0.66 5.58 2.01 3.07 1.01 5.58 1.88 5.58 1.94 0 0.169-0.274 0.282-4.85 1.99-6.19 2.32-10 3.92-10.3 4.29-0.0516 0.0791-0.35 0.888-0.663 1.8l-0.57 1.65-0.712-0.0198c-0.836-0.0232-0.828-0.0518-0.302 0.996 0.251 0.5 0.471 1.17 0.567 1.71 0.086 0.493 0.286 1.15 0.445 1.46 3.45 6.81-5.89 14.7-11.4 9.65l-0.611-0.558-0.993 0.196c-0.546 0.108-1.54 0.325-2.22 0.482l-1.22 0.286v0.416c0 1.79 2.21 6.74 5.66 12.7 1.45 2.49 1.47 2.58 0.451 2.03-5.92-3.21-10.7-5.24-14.5-6.12l-1.37-0.319-3.65-0.01-0.761 0.374c-3.04 1.5-3.9 6.87-2.87 18.1 0.114 1.24 0.244 1.33-3.99-2.85-6.21-6.14-5.67-6-6.22-1.63-0.131 1.03-0.26 1.9-0.286 1.92-0.111 0.111-0.263-0.0668-3.19-3.74-1.99-2.5-4.32-4.67-4.99-4.67-1.16 0-4.96 5.99-7.58 12-0.399 0.909-0.791 1.72-0.872 1.81l-0.147 0.16-0.174-0.388c-0.0957-0.213-0.511-1.29-0.924-2.38-2.04-5.44-4.37-9.91-5.15-9.91-1.19 0-6.17 5.19-11 11.5-1.77 2.3-1.87 2.41-1.95 2.17zm8.99-19.1c2.7-2.75 5.94-5.49 6.49-5.49 0.516 0 3.69 4.75 5.26 7.88 0.643 1.28 0.486 1.4 1.86-1.35 2.11-4.23 4.26-7.67 5.1-8.15 0.654-0.377 6.45 3.34 9.84 6.31 0.407 0.356 1.1 0.942 1.54 1.3l0.798 0.654 0.0371-0.373c0.0204-0.205-0.0555-1.15-0.169-2.09-0.241-2.01-0.28-6.43-0.0665-7.53 0.073-0.376 0.167-0.876 0.209-1.11l0.0761-0.427h-0.222c-0.341 0-3.36 0.974-4.8 1.55-1.65 0.661-1.66 0.656-1.31-0.584 0.347-1.2 0.391-1.16-0.868-0.818-1.15 0.314-1.21 0.289-1.03-0.387 0.182-0.676 0.131-0.666-1.11 0.212-7.93 5.63-15 4.43-18.7-3.19-0.322-0.651-0.607-1.1-0.663-1.04-0.0543 0.0555-0.586 0.856-1.18 1.78-1.4 2.16-2.46 3.48-4.11 5.08-0.928 0.899-1.31 1.34-1.26 1.47 0.0377 0.0982 0.177 0.799 0.309 1.56l0.24 1.38 0.109 7.29 0.866-0.968c0.477-0.533 1.74-1.86 2.81-2.94zm-13.6-1.91 1.35-1.01-1.06-0.033c-0.582-0.0182-1.1 7e-3 -1.15 0.057-0.0834 0.0846-0.786 1.91-0.786 2.05 0 0.134 0.355-0.0954 1.65-1.06zm-36.1-18.8c0.182-0.0575 0.669-0.104 1.08-0.103 0.414 8e-4 1.11-0.0725 1.55-0.163 0.439-0.0903 1.23-0.254 1.77-0.364 1.08-0.222 1.75-0.23 2.84-0.0303 0.553 0.101 0.746 0.102 0.779 3e-3 0.0655-0.197 0.229-0.158 0.288 0.0682 0.0356 0.136 0.0568 0.109 0.0671-0.0854 0.0328-0.624 1.47-1.32 3.69-1.78l1.4-0.292 0.662 0.12c0.455 0.0827 0.847 0.254 1.25 0.547 0.655 0.473 0.69 0.478 2.58 0.35 0.658-0.0444 1.96-0.109 2.9-0.145 0.935-0.0351 1.79-0.112 1.9-0.171s0.448-0.108 0.75-0.108c0.302-9e-5 0.984-0.0813 1.52-0.18 0.533-0.0991 1.03-0.185 1.11-0.19 0.197-0.0132 0.183-0.805-0.0329-1.76-0.763-3.38-2.56-4.93-6.52-5.63-0.893-0.158-0.889-0.196 0.143-1.28 10.1-10.6 5.72-21.2-7.72-18.9-4.74 0.83-15.1 5.02-17.1 6.91l-0.162 0.155 0.138 1.57c0.0757 0.864 0.47 4.67 0.875 8.46 1.23 11.5 1.42 13 1.66 13.1 0.179 0.11 2.09 0.0124 2.54-0.13zm7.99-10.8c-0.036-0.329-0.0782-1.98-0.0936-3.67l-0.0282-3.08 0.968-0.475c6.77-3.32 7.15 2.65 0.456 7.17-1.19 0.801-1.22 0.803-1.3 0.0547zm106 6.23c0.47-0.092 1.18-0.16 1.58-0.151 0.523 0.012 0.771-0.033 0.902-0.164l0.18-0.18-0.152-0.183c-0.555-0.668-2.14-1.08-3.27-0.85-1.48 0.308-3.38 1.57-2.58 1.73 0.426 0.0836 2.55-0.0419 3.34-0.198zm-69.6-0.212c0.135-0.12 0.576-0.158 1.8-0.158 1.3 4.3e-4 1.68-0.0361 1.9-0.182 0.153-0.1 0.428-0.182 0.61-0.182s0.389-0.0686 0.458-0.152c0.177-0.213 1.33-0.453 1.78-0.369 0.234 0.0439 0.493 6e-3 0.701-0.103 0.182-0.0947 0.425-0.173 0.542-0.173 0.116-3.8e-4 0.359-0.125 0.54-0.277 0.341-0.287 1.16-0.568 2.04-0.702 0.282-0.0429 0.572-0.125 0.644-0.181 0.0723-0.0568 0.478-0.128 0.902-0.159 0.424-0.0306 0.98-0.104 1.24-0.163 0.739-0.171 1.56-0.138 1.79 0.0713 0.15 0.136 0.288 0.16 0.522 0.0904 0.175-0.0517 0.497-0.0962 0.717-0.099l0.399-5e-3 0.0684-1.08c0.421-6.67 4.85-14.2 8.48-14.3l0.798-0.0382 0.45 0.261c0.636 0.369 1.16 1.11 1.45 2.06l0.255 0.818-3e-3 1.71c-4e-3 2.63-0.578 5.22-1.87 8.45l-0.675 1.69 0.25 0.248c0.42 0.417 1.75 0.591 4.12 0.539 1.85-0.0405 4.18-0.119 4.42-0.149 0.316-0.0395 1.98-4.86 2.57-7.44 2.46-10.8 0.913-19.5-3.86-21.9-7.17-3.6-17.4 3.08-21.8 14.2-0.523 1.32-0.683 1.39-0.786 0.342-0.799-8.14-4.93-12.3-11.4-11.3-8.31 1.21-15.3 10.3-17.6 22.8l-0.258 1.39 0.351 0.399c0.471 0.536 1.47 2.23 1.74 2.98 0.123 0.33 0.299 0.628 0.391 0.663 0.0917 0.0352 0.167 0.15 0.167 0.255v0.191l1.17-0.0804c0.749-0.0516 1.23-0.138 1.35-0.242 0.177-0.16 2.15-0.391 2.92-0.341 0.201 0.013 0.341-0.0154 0.312-0.0632-0.249-0.403 1.21-5.52 2.14-7.51 2.84-6.08 7.25-7.83 8.72-3.48l0.31 0.917-0.0036 2.11c-0.0047 2.74-0.375 4.64-1.49 7.67l-0.415 1.12 0.16 0.106c0.201 0.133 0.772 0.0342 1.01-0.175zm44.1-6.45c0.048-0.0777 0.14-0.109 0.205-0.0687 0.0672 0.0415 0.149-0.0862 0.192-0.299 0.458-2.27 0.969-2.86 1.14-1.31 0.117 1.05 0.179 1.35 0.267 1.29 0.0472-0.0292 0.304-4e-3 0.572 0.0561 0.332 0.0747 0.636 0.0682 0.962-0.0205 0.494-0.134 0.926-0.174 2.89-0.268 0.691-0.0329 1.19-0.0106 1.23 0.0549 0.0375 0.0607 0.258 0.11 0.489 0.11 0.232 0 0.583 0.0464 0.781 0.103l0.36 0.103 0.222-0.246c0.122-0.135 0.275-0.405 0.34-0.6 0.065-0.195 0.29-0.588 0.5-0.874 0.21-0.286 0.523-0.759 0.696-1.05 0.538-0.908 0.677-0.621 0.496 1.03l-0.0875 0.798 0.339 0.128c0.187 0.0708 0.406 0.086 0.49 0.0342 0.0833-0.0515 0.691-0.0967 1.35-0.1 1.32-7e-3 1.58-0.0278 2.9-0.227 0.655-0.0994 1.03-0.104 1.38-0.0157 0.325 0.0819 0.753 0.0858 1.32 0.0122 0.461-0.0599 0.872-0.11 0.913-0.112 0.149-7e-3 1.33-6.9 2.6-15.1 0.251-1.63 0.716-4.57 1.03-6.54 0.318-1.97 0.588-3.92 0.601-4.33l0.0234-0.745-0.456 0.0365c-1.21 0.0972-9.14 1.47-9.5 1.65-0.188 0.0914-0.444 0.516-0.838 1.39-1.42 3.14-5.4 11.7-5.85 12.6-0.123 0.247-0.279 0.467-0.348 0.488-0.183 0.0561-0.274-3-0.274-9.23l-3.5e-4 -5.33-0.171-0.0656c-0.372-0.143-9.59 2.44-9.81 2.75-0.0744 0.102-0.46 1.48-0.857 3.05l-0.722 2.87 0.0566 1.54c0.104 2.82 0.0352 6.16-0.16 7.8-0.17 1.43-0.827 5.37-0.92 5.52-0.0332 0.0537-0.515 2.65-0.515 2.78 0 0.191 0.944 0.297 3.13 0.349 0.815 0.0196 1.61 0.0855 1.76 0.146 0.327 0.131 1.14 6e-3 1.26-0.195zm28.4-2.39c0.148-0.0791 0.305-0.0729 0.509 0.02l0.295 0.134 0.879-0.21c0.484-0.116 0.962-0.205 1.06-0.199 0.102 6e-3 0.249-0.126 0.327-0.294 0.44-0.945 1.51-3.5 3.38-8.11 1.16-2.85 3.26-8 4.68-11.4 1.43-3.47 2.52-6.29 2.47-6.34-0.115-0.109-8.89-1.26-11.8-1.56-0.871-0.0869-0.724-0.444-1.47 3.58-0.347 1.88-0.735 3.93-0.862 4.55-0.216 1.05-0.494 2.5-1.93 10.1-1.09 5.75-1.69 9.61-1.48 9.48 0.0599-0.0371 0.109 0.0126 0.109 0.11 0 0.215-0.0378 0.214 0.723 0.0161 0.462-0.12 0.747-0.133 1.12-0.0483 0.273 0.0623 0.652 0.0887 0.842 0.0588s0.472 0.0156 0.627 0.101c0.344 0.191 0.309 0.188 0.567 0.0493zm-86.7-12.7c0.816-1.16 2.24-2.88 2.96-3.57 0.258-0.248 0.469-0.478 0.469-0.513 4.3e-5 -0.0343-1.12-0.0623-2.48-0.0623s-3.16-0.0387-3.99-0.0859c-1.82-0.103-1.78-0.207-0.513 1.49 0.548 0.736 1.36 1.89 1.79 2.56 0.961 1.47 0.857 1.46 1.76 0.178zm26.3-1.89c2.95-4.76 7.49-8.8 11.5-10.2 0.855-0.305 0.893-0.362 0.749-1.14-0.0674-0.365-0.128-0.897-0.134-1.18-6e-3 -0.286-0.0453-0.641-0.0869-0.789l-0.0755-0.269-0.967 0.718c-1.72 1.28-4.37 2.96-4.6 2.93-0.449-0.0678-2.44-4.27-3.63-7.67-0.308-0.877-0.601-1.64-0.651-1.69-0.0505-0.0513-0.635 0.933-1.3 2.19-2.01 3.79-3.77 6.53-5.12 7.96l-0.562 0.594-0.472-0.239c-1.29-0.657-4.55-3.45-6.21-5.32-0.397-0.449-0.82-0.869-0.94-0.933l-0.218-0.117 0.0285 2.99c0.0157 1.65 0.0076 3.43-0.0179 3.96l-0.0464 0.968 1.81 0.0643c4.63 0.164 8.04 2.6 10.3 7.31 0.253 0.539 0.261 0.537 0.664-0.114zm-21.2-3.45c1.55-1.19 3.46-2.23 5.29-2.87 0.99-0.348 0.971-0.42-0.247-0.933-1.88-0.793-4.55-2.07-6.28-3.02-1.81-0.983-1.94-1.04-1.85-0.724 0.0314 0.11 0.213 0.713 0.403 1.34 0.461 1.52 1.22 4.69 1.38 5.75 0.211 1.4 0.113 1.36 1.3 0.452zm47.9-2.18c-0.0461-0.313-0.321-0.418-0.321-0.123 0 0.236 0.0921 0.37 0.255 0.37 0.0566 0 0.0865-0.111 0.0665-0.247zm-1-2.06c3e-3 -1.58 0.353-4.76 0.811-7.36 0.125-0.711 0.203-1.32 0.173-1.35s-1.81 1.11-3.94 2.53-3.87 2.61-3.85 2.63c0.0241 0.0241 0.45 0.147 0.946 0.273 1.95 0.494 3.94 1.76 5.1 3.24 0.721 0.917 0.755 0.919 0.757 0.0355zm15.5-1.4c0.146-0.321 0.0745-0.459-0.187-0.359-0.193 0.0742-0.246 0.644-0.0594 0.644 0.064 0 0.175-0.128 0.246-0.285zm-0.688 76.4c-0.985-3.17-3.14-13-2.86-13 0.532 0 10.7 9 10.6 9.31-0.16 0.259-7.14 4.02-7.46 4.02-0.0683 0-0.176-0.167-0.239-0.37zm22.3-9.46c-0.615-0.83-1.66-2.28-2.31-3.22-0.657-0.94-1.82-2.59-2.58-3.67-1.99-2.81-2.11-3.07-0.705-1.63l1.16 1.2-1.3-1.94 1.53 1.54c2.92 2.95 7.73 8.01 7.73 8.14 0 0.0739-0.129 0.256-0.288 0.405l-0.288 0.27-1.51-1.47 0.361 0.507c0.457 0.641 0.451 0.8-0.0379 1.12-0.567 0.368-0.525 0.398-1.75-1.25zm-133-5.91c-0.721-0.635-1.82-1.64-2.44-2.23l-1.13-1.07 0.162-0.155c0.663-0.636 5.05-3.42 8.19-5.19 1.03-0.584 2.09-1.18 2.35-1.33 0.811-0.459 0.334 0.672-2.61 6.18-2.87 5.37-2.81 5.32-4.53 3.8zm137-4.11c-1.05-1.99-3.79-7.45-3.79-7.56 0-0.328 6.71 2.74 9.83 4.49 1.72 0.964 1.94 0.689-2.88 3.61-2.42 1.47-2.07 1.53-3.16-0.535zm-142-13.2c-0.0389-0.194-0.0459-0.394-0.0155-0.443s-0.0498-0.117-0.178-0.15l-0.233-0.061 0.0702-1.08 0.342-0.0936c1.63-0.445 8.76-1.62 9.38-1.55l0.307 0.0361-0.57 0.217c-0.764 0.292-0.923 0.457-0.342 0.356 1.2-0.209-0.0573 0.274-6.22 2.4-2.46 0.847-2.44 0.845-2.54 0.377zm152-3.81c-0.0627-0.022-0.986-0.299-2.05-0.616-2.44-0.724-5.35-1.67-5.61-1.82l-0.201-0.117 0.228-1e-3c0.125-6.5e-4 0.559 0.0467 0.964 0.105 0.935 0.135 0.997 0.0759 0.171-0.164-0.888-0.258-0.709-0.338 0.425-0.191 0.52 0.0678 1.28 0.155 1.69 0.194 3.56 0.338 4.81 0.642 4.72 1.14l-0.0728 0.388 0.297 0.113c0.35 0.133 0.342 0.0963 0.125 0.617-0.161 0.385-0.336 0.476-0.682 0.355zm-140-32.3c-0.627-0.12-2.09-0.397-3.25-0.616-2.77-0.522-2.61-0.478-2.74-0.767-0.0603-0.139-0.168-0.334-0.239-0.433-0.101-0.139-0.0842-0.249 0.0733-0.49l0.203-0.31 0.354 0.0757c0.93 0.199 7.25 2.11 7.79 2.36l0.26 0.119-0.359 0.151c-0.449 0.189-0.684 0.178-2.1-0.0927zm6.89-17c-2.58-1.43-6.4-3.6-6.67-3.8l-0.219-0.16 0.276-0.294c0.434-0.462 0.112-0.644 6.5 3.69 2.68 1.82 2.71 2 0.108 0.559zm14.6-4.06c-3.5-3.52-7.51-7.83-7.51-8.07 0-0.297 7.42-3.07 7.99-2.99l0.253 0.0368 0.314 1.25c0.406 1.62 1.03 4.98 1.47 7.86 0.287 1.9 0.679 4.67 0.679 4.81 0 0.248-0.747-0.427-3.2-2.9zm86 0.231c0-0.0455 0.289-0.56 0.642-1.14 0.775-1.28 0.752-1.44-0.054-0.382-0.326 0.429-0.702 0.877-0.835 0.995l-0.242 0.214 0.145-0.285c0.0798-0.157 0.413-0.721 0.74-1.25 0.327-0.533 1.5-2.48 2.6-4.33 3.84-6.44 3.93-6.55 4.52-6.05l0.393 0.328-0.519 0.783c-1.18 1.79-1.12 1.83 0.183 0.124 0.914-1.2 1.02-1.25 1.58-0.759 0.645 0.566 0.962 0.0883-3.86 5.81-3.58 4.25-5.3 6.18-5.3 5.96zm-27.8-3.27c0-0.153 0.62-3.65 1.15-6.5 0.275-1.47 1.02-4.72 1.3-5.68l0.196-0.671 0.758 0.0635c1.38 0.116 6.5 1.65 6.96 2.09l0.164 0.156-0.229 0.259c-4.71 5.31-10.3 10.9-10.3 10.3zm-28-2.74c-0.205-0.376-0.474-0.909-0.597-1.19-0.307-0.691-0.381-0.534-0.0991 0.209 0.529 1.39 0.141 0.844-1.32-1.87-0.237-0.439-0.803-1.49-1.26-2.33-0.617-1.14-0.798-1.57-0.707-1.68 0.16-0.193 0.318-0.185 0.554 0.0283l0.193 0.175-0.0267-0.852 0.314-0.113c0.442-0.159 0.464-0.124 1.3 2.11 1.9 5.07 2.5 7.06 1.65 5.51z" fill="#f75d03"/><path d="m93.6 210c-0.264-0.115-0.37-0.236-0.37-0.423 2.67e-4 -0.334 2.9-9.82 3.24-10.6l0.164-0.376 0.0093 0.266c0.0348 0.994-2.06 10.7-2.4 11.1-0.153 0.185-0.175 0.184-0.639-0.0181zm1.22-0.372c0-0.0474 0.0532-0.265 0.118-0.484 0.0651-0.219 0.165-0.794 0.223-1.28 0.0573-0.484 0.181-1.02 0.276-1.2l0.172-0.317 0.0039 0.513c0.0043 0.564-0.145 1.22-0.409 1.8-0.105 0.231-0.143 0.506-0.0976 0.712 0.0575 0.262 0.034 0.336-0.106 0.336-0.099 0-0.18-0.0388-0.18-0.0862zm-8.26-5.29c-0.0278-0.0823-0.108-0.842-0.177-1.69-0.423-5.13-1.15-9.51-1.77-10.7l-0.168-0.324-0.314 0.0933c-3.06 0.908-8.16 4.51-15.6 11-2.33 2.03-2.33 2.03-1.71 0.367 2.74-7.43 4.43-13.4 4.43-15.7v-0.849l-0.427 3.6e-4c-1.19 1e-3 -4.28 1.03-8.52 2.84l-2.39 1.02-0.0324-0.19c-0.0178-0.105 0.385-1.11 0.894-2.24 1.67-3.69 1.68-3.55-0.253-2.44-4.04 2.33-13 6.17-14.7 6.29l-0.33 0.0237-0.114-1.08c-0.126-1.2-0.0783-1.15-0.993-0.901-0.71 0.197-0.588 0.807-1.23-6.17-0.313-3.41-0.671-7.2-0.796-8.42-0.124-1.22-0.355-3.53-0.513-5.13-0.158-1.6-0.466-4.65-0.685-6.78s-0.398-3.96-0.398-4.07c0-0.286-3.94-1.95-11.1-4.71-2.02-0.773-2.05-0.825-0.798-1.31 0.517-0.199 2.81-1.07 5.1-1.94 5.2-1.98 5.5-2.1 5.63-2.31 0.0696-0.11-0.0381-1.59-0.308-4.25-0.305-3-0.382-4.12-0.29-4.23 0.608-0.732 7.07-4.08 10.7-5.56 1.99-0.804 1.9-0.665 1.25-1.79-1.89-3.28-4.66-6.94-10.2-13.4-1.35-1.59-2.48-2.96-2.5-3.05-0.0474-0.211 0.0155-0.186 2.37 0.918 14.5 6.77 24.5 9.83 28.5 8.71 1.49-0.414 1.71-7.17 0.48-14.7-0.226-1.39-0.189-1.39 1.39-0.277 5.44 3.86 10.9 6.94 12.3 6.94 0.648 0 0.865-5.09 0.459-10.8-0.164-2.29-0.34-2.35 2.33 0.79 4.06 4.77 8 8.24 9.35 8.26 0.915 9e-3 2.78-1.96 4.87-5.13 1.83-2.78 2.26-3.58 5.21-9.76 0.955-2 0.76-2.14 2.04 1.53 3.25 9.37 6.13 13.9 8.78 13.9 3.4 0 10.3-3.33 19.3-9.36 3.54-2.37 3.71-2.46 3.58-1.94-2.62 10.3-2.44 14.7 0.607 14.9 3.06 0.215 10-2.53 20.1-7.97 0.387-0.208 0.741-0.34 0.786-0.295 0.0882 0.0882 0.0205 0.204-2.35 4.02-2.21 3.56-4.02 6.89-3.84 7.07 0.0377 0.0376 1.05-0.0635 2.24-0.225 4.19-0.566 3.93-0.61 3.71 0.616-0.0843 0.47-0.156 1.08-0.159 1.35l-6e-3 0.498 0.369-0.0737c0.564-0.113 0.6-0.201 1.04-2.51 0.226-1.19 0.476-2.22 0.557-2.3l0.146-0.146 1.99 0.221c5.51 0.612 14.1 1.77 14.3 1.92 0.0589 0.0589-0.137 0.677-0.47 1.48-0.642 1.55-0.66 1.48 0.432 1.66l0.748 0.123-0.0181 0.285c-0.01 0.156-0.607 1.67-1.33 3.36-3.1 7.28-6.35 15.2-6.35 15.5 0 0.126 1.49 0.66 5.58 2.01 3.07 1.01 5.58 1.88 5.58 1.95 0 0.16-0.424 0.333-5.24 2.14-5.18 1.94-9.68 3.81-9.85 4.09-0.0664 0.112-0.377 0.947-0.69 1.86l-0.57 1.65-0.712-0.0198c-0.836-0.0232-0.828-0.0518-0.302 0.996 0.251 0.5 0.471 1.17 0.567 1.71 0.086 0.493 0.286 1.15 0.445 1.46 3.45 6.81-5.89 14.7-11.4 9.65l-0.611-0.558-0.993 0.196c-0.546 0.108-1.54 0.325-2.22 0.482l-1.22 0.286v0.416c0 1.79 2.21 6.74 5.66 12.7 1.45 2.49 1.47 2.58 0.451 2.03-5.92-3.21-10.7-5.24-14.5-6.12l-1.37-0.319-3.65-0.01-0.761 0.374c-3.04 1.5-3.9 6.87-2.87 18.1 0.114 1.24 0.244 1.33-3.99-2.85-6.21-6.14-5.67-6-6.22-1.63-0.131 1.03-0.26 1.9-0.286 1.92-0.111 0.111-0.263-0.0668-3.19-3.74-1.99-2.5-4.32-4.67-4.99-4.67-1.16 0-4.96 5.99-7.58 12-0.399 0.909-0.791 1.72-0.872 1.81l-0.147 0.16-0.174-0.388c-0.0957-0.213-0.511-1.29-0.924-2.38-2.04-5.44-4.37-9.91-5.15-9.91-1.19 0-6.17 5.19-11 11.5-1.77 2.3-1.87 2.41-1.95 2.17zm6.95-16.8c3-3.34 7.85-7.7 8.54-7.67 0.458 0.0175 3.27 4.25 5.02 7.56 0.941 1.78 0.789 1.82 1.92-0.535 2.15-4.47 4.77-8.62 5.44-8.62 0.666 0 4.45 2.22 6.73 3.94 1.06 0.805 1.74 1.36 4.19 3.43 1.45 1.23 1.43 1.25 1.14-1.29-0.42-3.63-0.411-6.61 0.0269-8.73 0.221-1.07-0.746-0.927-4.96 0.727-1.72 0.676-1.66 0.7-1.33-0.533 0.321-1.2 0.345-1.17-0.907-0.85-1.16 0.299-1.22 0.283-1.03-0.281 0.257-0.778 0.112-0.756-1.19 0.178-7.78 5.57-15.4 4.15-18.8-3.51-0.476-1.08-0.447-1.1-1.58 0.708-1.46 2.32-2.28 3.36-4.07 5.15-0.897 0.896-1.61 1.67-1.57 1.72 0.0312 0.0504 0.169 0.753 0.307 1.56l0.25 1.47 0.034 3.59c0.0187 1.97 0.0361 3.6 0.0387 3.62 0.0334 0.202 0.54-0.266 1.77-1.64zm-12.4-3.41c0.366-0.283 1.06-0.798 1.54-1.14s0.912-0.683 0.952-0.748c0.0654-0.106-2.16-0.0439-2.53 0.0707-0.131 0.0401-0.84 1.87-0.84 2.17 0 0.264 0.165 0.198 0.873-0.349zm-8.33-6.51c0.318-0.0797 0.363-0.398 0.0899-0.625l-0.184-0.153-0.271 0.338c-0.314 0.393-0.359 0.681-0.0904 0.578 0.0998-0.0383 0.305-0.101 0.456-0.138zm-28-2.63 0.27-0.189 3.26-0.0494c4.15-0.0629 4.52-0.083 5.14-0.283 0.34-0.108 0.811-0.148 1.37-0.116 0.872 0.0509 1.81-0.0943 2.48-0.384 0.231-0.0996 0.53-0.136 0.759-0.0931 0.208 0.0391 0.55 0.0188 0.759-0.0451 0.499-0.153 1.73-0.349 3.01-0.481 0.568-0.0587 1.44-0.212 1.94-0.342 0.597-0.155 1.41-0.252 2.38-0.286 0.815-0.0283 1.59-0.077 1.73-0.108 0.15-0.0339 0.288 0.01 0.343 0.109 0.445 0.795 3-3.7 3.76-6.62l0.322-1.24-4.49e-4 -2.05-4.49e-4 -2.05-0.255-0.881c-0.875-3.03-2.62-4.62-5.78-5.25-1.68-0.338-1.68-0.305-0.399-1.64 6.37-6.66 7.02-14.6 1.45-17.7-5-2.78-14-0.961-24.9 5.07-2.04 1.12-1.86 0.405-1.34 5.52 1.12 11 1.4 13.7 1.77 17.1 0.218 2.04 0.523 4.91 0.678 6.38 0.243 2.31 0.458 4 0.691 5.44 0.0672 0.415 0.215 0.459 0.61 0.181zm10.1-4.46c-0.0548-0.107-0.165-1.72-0.245-3.59l-0.145-3.4 0.158-0.151c0.956-0.916 4.94-1.75 5.95-1.24 2.6 1.31 0.724 4.78-4.24 7.83-1.22 0.753-1.35 0.799-1.47 0.552zm-0.868-16.6c-0.051-0.16-0.292-5.5-0.29-6.44l9.68e-4 -0.605 1.05-0.498c4.47-2.11 6.73-0.489 4.4 3.15-1.11 1.74-4.97 5.02-5.16 4.4zm19.6 17 0.296-0.274 0.992 0.0659c1.42 0.0944 2.18 0.0617 3.13-0.135 0.461-0.0951 1.01-0.144 1.23-0.109 0.361 0.0586 1.01-0.033 2.21-0.313 0.707-0.164 1.77-0.329 2.39-0.372 0.313-0.0215 1.08-0.125 1.71-0.229 3.1-0.517 4.11-0.595 6.25-0.478l0.778 0.0426 0.626 0.6 0.175-0.202c0.957-1.1 2.59-4.18 3.72-7.03 0.922-2.31 0.998-2.38 1.09-0.897 0.237 3.7 0.985 6.11 1.71 5.51 0.0842-0.0699 0.351-0.117 0.593-0.104 0.242 0.0128 0.491 6e-3 0.554-0.0158 0.0627-0.0215 0.35 5e-5 0.639 0.0479 0.336 0.0557 0.992 0.0199 1.82-0.0993 0.714-0.102 1.96-0.264 2.78-0.359 0.815-0.0948 1.89-0.227 2.39-0.294 0.501-0.0669 1.12-0.131 1.37-0.143 0.603-0.0283 1.51-0.17 1.95-0.307 0.197-0.0604 1.12-0.158 2.05-0.218 0.93-0.0594 2.18-0.16 2.77-0.224 1.11-0.119 2.64 0.0102 2.93 0.247 1.07 0.875 5.39-8.19 7.11-14.9 3.14-12.3 1.15-21.5-5.08-23.6l-0.798-0.272h-3.87l-0.933 0.255c-1.52 0.417-1.96 0.583-3.4 1.29-4.65 2.29-8.82 7.2-11.3 13.4-0.612 1.49-0.693 1.49-0.882-0.0954-0.82-6.87-4.22-10.8-9.43-10.8-8.97-0.0428-17.1 9.36-19.6 22.7l-0.316 1.67 0.531 0.606c2.09 2.39 2.7 6.95 1.53 11.5-0.885 3.5-0.853 3.28-0.539 3.57 0.333 0.311 0.48 0.305 0.843-0.0317zm9.12-6.33c-3.01-0.732-3.61-5.87-1.37-11.7 4.07-10.7 11.5-9.3 9.16 1.7-1.32 6.22-4.84 10.8-7.79 10zm26.2-3.83c-5.27-2.67 1.64-21 7.22-19.2 5.22 1.72 0.0313 19.1-5.8 19.5l-0.804 0.0471zm23.7 2.46c0.153-0.599 0.836-3.6 1.52-6.66 1.56-7.02 1.41-6.85 1.92-2.12 0.459 4.28 0.897 7.97 1.04 8.76 0.0614 0.339 0.112 0.814 0.112 1.05 0 0.623 0.172 0.542 0.583-0.275 0.197-0.392 0.781-1.46 1.3-2.36 0.516-0.909 2.06-3.73 3.42-6.27 1.37-2.54 2.62-4.82 2.78-5.07l0.294-0.456 0.0335 0.285c0.0184 0.157-0.347 2.57-0.812 5.35-0.905 5.43-1.1 6.72-1.1 7.2l7.6e-4 0.303 0.256-0.0577c0.141-0.0318 0.465-0.151 0.72-0.265 0.326-0.146 0.986-0.244 2.22-0.33 0.967-0.0677 2.15-0.174 2.63-0.236l0.877-0.113 0.528 0.227c0.291 0.125 0.754 0.227 1.03 0.227h0.501l0.304-0.598c0.381-0.748 0.437-1.04 1.41-7.38 0.439-2.85 1.13-7.31 1.54-9.91 0.406-2.6 1.02-6.55 1.36-8.77 0.344-2.22 0.828-5.33 1.07-6.89s0.465-3.08 0.486-3.36l0.0387-0.513-0.57 0.0337c-1.03 0.0609-9.17 1.43-9.57 1.61-0.125 0.0559-0.354 0.401-0.508 0.767-0.266 0.632-3.86 8.43-5.54 12-0.432 0.924-0.842 1.68-0.91 1.68-0.138 0-0.275-5.63-0.275-11.3-2.1e-4 -3.9 0.463-3.55-3.37-2.53-7.52 2-6.56 1.32-7.55 5.37l-0.806 3.28 0.119 0.797c0.953 6.38-1.61 18.4-5.66 26.5-0.576 1.16-0.347 1.4 1.2 1.27 0.407-0.0337 1.1-0.0907 1.54-0.127 1.8-0.148 4.66-0.105 5.01 0.0751l0.342 0.173 0.103-0.169c0.0566-0.0932 0.228-0.66 0.381-1.26zm26.2 1.19c0.658-0.0301 1.48-0.102 1.82-0.161 1.2-0.203 3.18-0.272 3.37-0.117 0.236 0.196 0.285 0.115 0.358-0.591 0.473-4.59-4.6-7.02-8.14-3.91-1.3 1.15-2.54 3.68-2.25 4.6l0.0708 0.223 0.649 0.047c0.62 0.0449 1.47 0.0249 4.12-0.0963zm5.55-9.88c0.0599-0.0783 0.587-1.42 1.17-2.99 1.49-4.01 7.44-18.8 10.1-25.2 0.666-1.59 0.801-2.05 0.599-2.05-0.0517 0-1.45-0.178-3.11-0.396-5.02-0.66-8.56-1.08-9.07-1.08l-0.475-7.4e-4 -0.0644 0.313c-0.0354 0.172-0.324 1.72-0.64 3.45-0.317 1.72-0.854 4.54-1.19 6.27-1.25 6.33-4.04 21.2-4.04 21.5 0 0.0745 0.748 0.121 2.08 0.129 1.7 0.0104 3.7 0.1 4.37 0.197 0.0707 0.0101 0.177-0.0457 0.237-0.124zm-88.5-16.2c0.938-1.33 1.54-2.05 2.71-3.24 1.2-1.22 1.41-1.11-2.16-1.16-1.65-0.0252-3.51-0.0835-4.12-0.13l-1.11-0.0837v0.165c0 0.0909 0.246 0.47 0.546 0.843 0.476 0.591 2.45 3.4 3.02 4.3 0.286 0.45 0.336 0.419 1.11-0.684zm26.4-2.11c3.01-4.78 6.93-8.3 11.2-10.1 1.25-0.515 1.19-0.423 1.05-1.42-0.0634-0.466-0.145-1.14-0.181-1.5-0.0833-0.833-0.043-0.841-1.68 0.358-2.16 1.58-3.96 2.68-4.16 2.56-0.475-0.3-2.58-4.93-3.55-7.8-0.728-2.15-0.576-2.19-1.97 0.497-2.25 4.36-5.1 8.63-5.76 8.63-0.6 0-2.74-1.71-5.37-4.29-2.8-2.74-2.53-2.83-2.49 0.784 0.0184 1.64 0.0077 3.47-0.0236 4.06l-0.057 1.07 3.76 0.0504 1 0.303c3.1 0.936 5.45 3.1 7.25 6.66 0.429 0.85 0.458 0.853 0.93 0.102zm-21.5-3.2c1.63-1.27 3.63-2.39 5.34-2.98 0.501-0.174 0.985-0.383 1.07-0.465l0.163-0.149-0.22-0.0799c-1.53-0.558-5-2.19-7.33-3.45-2.35-1.27-2.26-1.32-1.61 0.84 0.59 1.96 0.966 3.48 1.26 5.08 0.327 1.79 0.335 1.82 0.449 1.82 0.0551 0 0.451-0.274 0.881-0.61zm48.1-2.59v-0.449h-0.228c-0.256 0-0.297 0.26-0.114 0.74 0.156 0.411 0.342 0.253 0.342-0.291zm-0.871-2.59c0.0879-1.84 0.302-3.7 0.717-6.21 0.38-2.3 0.52-2.28-2.35-0.342-1.35 0.91-3.04 2.03-3.76 2.49-2.1 1.34-2.04 1.22-0.753 1.54 2.27 0.568 4.02 1.69 5.39 3.44 0.681 0.877 0.677 0.881 0.763-0.921zm15.5-0.614c0.254-0.363 0.219-0.544-0.103-0.544-0.283 0-0.517 0.28-0.517 0.619 0 0.267 0.416 0.216 0.62-0.0748zm-93 76.9c-0.141-0.17 0.171-0.525 0.805-0.918 0.205-0.127 0.313-0.292 0.313-0.476 0-0.281 0.353-0.738 0.57-0.738 0.289 0-0.488 1.18-1.42 2.14l-0.142 0.148zm-1.2-0.402c-0.545-0.569-0.655-0.447 4.82-5.37 3.18-2.86 3.6-3.13 2.34-1.55-0.345 0.433-0.627 0.855-0.627 0.939 0 0.0837-0.156 0.247-0.347 0.363-0.191 0.116-0.474 0.383-0.629 0.593-0.36 0.487-5.05 5.34-5.16 5.34-0.0458 0-0.221-0.144-0.39-0.32zm93.3-0.45c-0.101-0.36-0.279-0.988-0.396-1.4-0.529-1.85-2.56-11.1-2.46-11.2 0.0894-0.0893 0.476 0.185 1.78 1.27 0.533 0.441 1.56 1.29 2.28 1.89 2.89 2.39 6.69 5.93 6.57 6.12-0.162 0.262-7.14 4.02-7.46 4.02-0.0714 0-0.213-0.295-0.314-0.655zm2.81-2.13c0.225-0.148 0.815-0.473 1.31-0.722s1.03-0.557 1.19-0.683l0.284-0.23-1.56-1.52c-1.52-1.48-3.28-3.15-4.73-4.49-0.852-0.785-0.888-0.771-0.607 0.243 0.21 0.758 0.487 1.77 1.15 4.21 0.171 0.627 0.451 1.65 0.623 2.28 0.172 0.627 0.384 1.28 0.472 1.45l0.16 0.311 0.653-0.288c0.359-0.158 0.837-0.409 1.06-0.557zm19.6-7.04c-0.615-0.83-1.66-2.28-2.31-3.22-0.657-0.94-1.82-2.59-2.58-3.67s-1.5-2.15-1.63-2.39l-0.238-0.433 0.708 0.741c2.06 2.16 8.2 9.49 8.2 9.79-1e-3 0.173-0.682 0.689-0.91 0.689-0.0644 0-0.62-0.679-1.23-1.51zm1.21-1.14c-1.44-1.59-1.85-2.34-0.812-1.49 1.14 0.935 1.99 2.2 1.48 2.2-0.0118 0-0.312-0.32-0.667-0.712zm-134-4.78c-0.721-0.635-1.82-1.64-2.45-2.23l-1.14-1.08 0.34-0.273c2.19-1.76 10.9-6.88 10.9-6.42 0 0.676-5.77 11.2-6.14 11.2-0.099-7.1e-4 -0.77-0.521-1.49-1.16zm1.67-1.21c0.625-0.977 1.7-2.8 2.26-3.85 0.304-0.564 0.764-1.36 1.02-1.77 0.88-1.39 0.833-1.39-1.08-0.112-0.721 0.481-1.59 1.06-1.94 1.28-0.829 0.541-2.2 1.46-2.87 1.93-0.688 0.478-0.713 0.422 0.806 1.84 1.51 1.41 1.37 1.36 1.81 0.668zm135-2.91c-1.81-3.43-3.78-7.48-3.67-7.55 0.368-0.228 11.1 4.92 11.1 5.32 0 0.184-6.04 3.96-6.33 3.96-0.0728 0-0.545-0.782-1.05-1.74zm2-0.279c0.293-0.169 0.892-0.547 1.33-0.841s0.964-0.618 1.17-0.721c0.582-0.295 0.54-0.344-1.05-1.25-0.749-0.426-1.15-0.641-3.59-1.91-0.533-0.278-1.15-0.618-1.37-0.755-0.748-0.468-0.749-0.334-1e-3 0.781 0.312 0.467 0.569 0.903 0.57 0.969 8.2e-4 0.0661 0.164 0.374 0.363 0.684 0.199 0.31 0.487 0.82 0.64 1.13 0.153 0.313 0.419 0.749 0.591 0.968 0.172 0.219 0.352 0.527 0.399 0.684 0.193 0.637 0.265 0.657 0.949 0.262zm-144-13.6c-0.0335-0.0874-0.0448-0.353-0.0249-0.591l0.0361-0.432 0.342-0.0935c2.06-0.563 9.89-1.8 9.61-1.51-0.0331 0.0331-0.695 0.28-1.47 0.549s-1.4 0.545-1.39 0.614c0.0333 0.164-1.04 0.532-1.09 0.374-0.0668-0.2-0.491-0.132-2.36 0.383-1.61 0.443-3.33 0.868-3.52 0.868-0.0366 0-0.094-0.0715-0.128-0.159zm152-3.09c-0.0627-0.022-0.986-0.299-2.05-0.616-3.76-1.12-6.15-1.94-5.64-1.94 0.542-2e-3 7.12 1.23 8.01 1.5 0.549 0.166 0.57 0.208 0.362 0.705-0.16 0.383-0.336 0.474-0.681 0.353zm-140-32.4c-2.06-0.239-5.95-1.12-6.57-1.48-0.47-0.277-0.458-0.241-0.228-0.686l0.178-0.344 0.363 0.0779c1.11 0.238 7.38 2.16 7.83 2.4l0.285 0.153-0.513-0.0102c-0.282-6e-3 -0.886-0.0536-1.34-0.107zm20.8-20.9c-3.5-3.52-7.51-7.83-7.51-8.07 0-0.298 7.42-3.07 8-2.99l0.256 0.0368 0.36 1.48c0.548 2.25 2.1 11.4 2.1 12.4 0 0.279-0.665-0.317-3.2-2.87zm1.72-0.854c-0.136-0.517-0.339-1.43-0.452-2.02-0.422-2.22-1.39-6.44-1.5-6.55-0.0573-0.0573-4.29 1.45-4.75 1.7l-0.381 0.201 0.209 0.248c0.115 0.136 0.398 0.453 0.629 0.704 0.404 0.439 1.06 1.17 2.53 2.83 0.381 0.429 1.05 1.17 1.49 1.66 0.439 0.482 1.16 1.28 1.6 1.78l0.798 0.902 0.0363-0.251c0.02-0.138-0.0747-0.674-0.21-1.19zm84.3 1.07c0-0.585 8.19-12.1 8.61-12.1 0.226 0 0.965 0.673 0.965 0.878 0 0.179-0.693 1.03-4.27 5.27-3.68 4.37-5.3 6.18-5.3 5.94zm1.37-3.02c0-0.14 0.587-1 0.643-0.945 0.0789 0.0789-0.247 0.689-0.465 0.87-0.0981 0.0814-0.178 0.115-0.178 0.0749zm-29.2-0.184c0-0.924 1.86-10.2 2.46-12.3l0.185-0.637 0.758 0.0635c1.38 0.116 6.5 1.65 6.96 2.09l0.164 0.156-0.229 0.259c-4.49 5.08-10.3 10.9-10.3 10.3zm2.24-3.28c0.173-0.23 0.625-0.728 1-1.11 0.629-0.627 1.81-1.93 4.21-4.65 0.488-0.552 0.864-1.03 0.835-1.06-0.261-0.261-4.38-1.38-4.67-1.27-0.182 0.0698-2.25 8.14-2.25 8.78 0 0.167 0.557-0.277 0.87-0.695zm28.4 1.29c-0.115-0.115 0.151-0.623 0.326-0.623 0.0839 0 0.153 0.0456 0.153 0.101 0 0.17-0.397 0.603-0.478 0.522zm-59.5-2.56c-2.43-4.97-2.68-5.66-2.11-5.86 0.488-0.172 0.746 0.4 2.72 6.02 0.955 2.72 0.777 2.67-0.611-0.163zm61.3-0.256-0.186-0.142 0.614-1.03 0.0364 0.256c0.02 0.141 0.0824 0.256 0.139 0.256 0.0562 0-4e-3 0.179-0.133 0.399-0.272 0.461-0.231 0.438-0.469 0.256zm1.53-2.39c-0.0827-0.0996-0.0714-0.254 0.0375-0.513l0.156-0.37h0.411c0.448 0 0.447 0.0179-0.0238 0.655-0.299 0.404-0.401 0.444-0.58 0.228z" fill="#f72b03"/><path d="m93.6 210c-0.264-0.115-0.37-0.236-0.37-0.423 2.67e-4 -0.334 2.9-9.82 3.24-10.6l0.164-0.376 0.0093 0.26c0.0246 0.686-2.17 10.9-2.4 11.2-0.149 0.18-0.172 0.179-0.636-0.0223zm-7.03-5.66c-0.0278-0.0823-0.108-0.842-0.177-1.69-0.423-5.13-1.15-9.51-1.77-10.7l-0.168-0.324-0.314 0.0933c-3.06 0.908-8.16 4.51-15.6 11-2.33 2.03-2.33 2.03-1.71 0.367 2.74-7.43 4.43-13.4 4.43-15.7v-0.849l-0.427 3.6e-4c-1.19 1e-3 -4.28 1.03-8.52 2.84l-2.39 1.02-0.0324-0.19c-0.0178-0.105 0.385-1.11 0.894-2.24 1.67-3.69 1.68-3.55-0.253-2.44-4.04 2.33-13 6.17-14.7 6.29l-0.33 0.0237-0.114-1.08c-0.126-1.2-0.0783-1.15-0.993-0.901-0.71 0.197-0.588 0.807-1.23-6.17-0.313-3.41-0.671-7.2-0.796-8.42-0.124-1.22-0.355-3.53-0.513-5.13-0.158-1.6-0.466-4.65-0.685-6.78s-0.398-3.96-0.398-4.07c0-0.286-3.94-1.95-11.1-4.71-2.02-0.773-2.05-0.825-0.798-1.31 0.517-0.199 2.81-1.07 5.1-1.94 5.2-1.98 5.5-2.1 5.63-2.31 0.0696-0.11-0.0381-1.59-0.308-4.25-0.305-3-0.382-4.12-0.29-4.23 0.608-0.732 7.07-4.08 10.7-5.56 1.99-0.804 1.9-0.665 1.25-1.79-1.89-3.28-4.66-6.94-10.2-13.4-1.35-1.59-2.48-2.96-2.5-3.05-0.0474-0.211 0.0155-0.186 2.37 0.918 14.5 6.77 24.5 9.83 28.5 8.71 1.49-0.414 1.71-7.17 0.48-14.7-0.226-1.39-0.189-1.39 1.39-0.277 5.44 3.86 10.9 6.94 12.3 6.94 0.648 0 0.865-5.09 0.459-10.8-0.164-2.29-0.34-2.35 2.33 0.79 4.06 4.77 8 8.24 9.35 8.26 1.7 0.0165 6.3-6.52 9.28-13.2 1.55-3.46 1.68-3.51 2.53-1.05 4.14 11.9 6.66 15.4 10.5 14.6 3.96-0.817 9.83-3.85 17.8-9.18 3.54-2.37 3.71-2.46 3.58-1.94-2.62 10.3-2.44 14.7 0.607 14.9 3.06 0.215 10-2.53 20.1-7.97 0.387-0.208 0.741-0.34 0.786-0.295 0.0882 0.0882 0.0205 0.204-2.35 4.02-2.21 3.56-4.02 6.89-3.84 7.07 0.0377 0.0376 1.05-0.0635 2.24-0.225 4.19-0.566 3.93-0.61 3.71 0.616-0.0843 0.47-0.156 1.08-0.159 1.35l-6e-3 0.498 0.369-0.0737c0.564-0.113 0.6-0.201 1.04-2.51 0.226-1.19 0.476-2.22 0.557-2.3l0.146-0.146 1.99 0.221c5.51 0.612 14.1 1.77 14.3 1.92 0.0589 0.0589-0.137 0.677-0.47 1.48-0.642 1.55-0.66 1.48 0.432 1.66l0.748 0.123-0.0181 0.285c-0.01 0.156-0.607 1.67-1.33 3.36-3.1 7.28-6.35 15.2-6.35 15.5 0 0.126 1.49 0.66 5.58 2.01 3.07 1.01 5.58 1.88 5.58 1.94 0 0.169-0.274 0.282-4.85 1.99-2.41 0.902-5.37 2.05-6.57 2.55-1.21 0.5-2.49 1.02-2.85 1.15-0.785 0.291-0.784 0.29-1.51 2.39l-0.57 1.65-0.712-0.0198c-0.836-0.0232-0.828-0.0518-0.302 0.996 0.251 0.5 0.471 1.17 0.567 1.71 0.086 0.493 0.286 1.15 0.445 1.46 3.45 6.81-5.89 14.7-11.4 9.65l-0.611-0.558-0.993 0.196c-0.546 0.108-1.54 0.325-2.22 0.482l-1.22 0.286v0.416c0 1.79 2.21 6.74 5.66 12.7 1.45 2.49 1.47 2.58 0.451 2.03-5.92-3.21-10.7-5.24-14.5-6.12l-1.37-0.319-3.65-0.01-0.761 0.374c-3.04 1.5-3.9 6.87-2.87 18.1 0.114 1.24 0.244 1.33-3.99-2.85-6.21-6.14-5.67-6-6.22-1.63-0.131 1.03-0.26 1.9-0.286 1.92-0.111 0.111-0.263-0.0668-3.19-3.74-1.99-2.5-4.32-4.67-4.99-4.67-1.16 0-4.96 5.99-7.58 12-0.399 0.909-0.791 1.72-0.872 1.81l-0.147 0.16-0.174-0.388c-0.0957-0.213-0.511-1.29-0.924-2.38-2.04-5.44-4.37-9.91-5.15-9.91-1.19 0-6.17 5.19-11 11.5-1.77 2.3-1.87 2.41-1.95 2.17zm1.87-4.79c3.64-4.73 7.98-9.11 10.5-10.6l0.832-0.489 0.27 0.144c0.148 0.0794 0.494 0.407 0.767 0.728 1.55 1.82 2.69 3.93 4.52 8.42 0.742 1.81 0.785 1.85 1.11 0.937 1.38-3.82 5.21-9.63 7.29-11.1l0.633-0.436 0.6 0.325c1.48 0.798 4.03 3.27 5.73 5.56 0.797 1.07 0.852 1.06 1.01-0.15 0.314-2.39 0.532-3.29 0.799-3.29 0.587 0 3.57 2.52 6.8 5.75 2.06 2.06 1.96 2.02 1.8 0.591-1.02-9.18 1.44-15.3 6.36-15.8l1.23-0.129 1.3 0.187c3.32 0.479 7.16 1.75 11.3 3.74 1.65 0.792 1.77 0.779 1.26-0.122-1.66-2.92-4.13-8.71-4.13-9.68 0-0.43-0.226-0.393-5 0.821-2.44 0.62-2.37 0.643-2.09-0.656 0.25-1.15 0.262-1.12-0.353-0.932-0.263 0.0789-0.696 0.18-0.962 0.225l-0.484 0.0814v-0.349c0-0.192 0.0989-0.824 0.22-1.41 0.121-0.581 0.327-1.65 0.459-2.37s0.295-1.6 0.363-1.95c0.192-0.996 0.0672-1.02-0.466-0.0937-0.269 0.468-0.655 1.11-0.858 1.42-0.329 0.509-1.09 1.73-1.51 2.42-0.351 0.581-0.535 0.306-0.666-0.997-0.155-1.54-0.316-1.84-0.665-1.25-0.373 0.632-0.558 0.41-0.717-0.862-0.0784-0.626-0.179-1.34-0.224-1.59l-0.081-0.456-0.0863 0.342c-0.244 0.967-0.648 2.81-1.08 4.9-0.372 1.82-0.426 2.05-0.495 2.13-0.0647 0.0719-1.33 0.246-4 0.55-0.595 0.0678-1.47 0.218-1.94 0.334-0.47 0.116-1.08 0.244-1.36 0.285-0.654 0.0956-3.72 1.09-5.17 1.68-1.34 0.546-1.31 0.57-0.984-0.645 0.316-1.19 0.337-1.17-0.862-0.872-1.13 0.285-1.21 0.264-1.06-0.28 0.215-0.78 0.0982-0.775-1.04 0.0418-8.03 5.75-15.3 4.46-18.9-3.34l-0.474-1.02-0.166 0.228c-0.0913 0.125-0.552 0.843-1.02 1.6-1.69 2.69-3.17 4.43-5.37 6.33l-1.29 1.11-1.62 0.813c-2.57 1.29-4.02 1.69-6.56 1.78l-1.33 0.0514-1.05-0.278c-2.58-0.688-4.96-2.42-6.3-4.59-0.201-0.327-0.412-0.594-0.468-0.594-0.056 0-0.206-0.205-0.334-0.456-0.306-0.6-0.319-0.595-1.12 0.406-1.65 2.07-3.76 4.14-5.77 5.66l-0.907 0.683-0.416 1.21c-0.229 0.667-0.587 1.56-0.796 1.98-0.494 0.992-0.452 1.01 1 0.431 3.59-1.43 7.93-2.41 8.43-1.9 0.799 0.799-0.193 6.36-2.21 12.4-0.723 2.16-0.722 2.16 0.15 1.42 6.39-5.45 14.1-10 14.9-8.78 0.677 1.05 1.72 5.91 2.07 9.68 0.0761 0.805 0.148 0.811 0.729 0.057zm-40.8-13c16.8-6.36 25.8-15.4 24.8-25-0.434-4.13-2.44-6.31-6.5-7.06-0.528-0.0974-0.984-0.2-1.01-0.229-0.0283-0.0283 0.323-0.451 0.78-0.938 2.56-2.73 4.41-5.76 5.09-8.34l0.291-1.09 0.0112-1.65c0.0689-10.1-12.2-11-28.4-2.1-2.42 1.34-2.19 0.511-1.65 5.86 0.252 2.48 0.587 5.81 0.746 7.41 0.158 1.6 0.519 5.16 0.801 7.92 0.929 9.08 1.15 11.4 2.16 21.9 0.344 3.61 0.38 3.92 0.457 4.05 0.0727 0.118 0.575-0.0332 2.39-0.718zm7.29-16.2c-0.026-0.0783-0.12-1.6-0.209-3.39l-0.162-3.25 0.142-0.231c0.0792-0.129 0.604-0.42 1.19-0.658 6.53-2.67 8.03 1.76 2.02 6.01-1.81 1.29-2.88 1.83-2.98 1.52zm-0.902-16.5c-0.0298-0.147-0.114-1.72-0.186-3.49l-0.132-3.22 0.153-0.185c0.219-0.266 1.68-0.911 2.81-1.24 5.15-1.49 4.17 3.84-1.4 7.69-1.07 0.741-1.17 0.776-1.24 0.443zm29.6 24.1c5.64-1.65 10.7-7.55 13.9-16.2 0.548-1.49 0.618-1.43 0.726 0.663 0.308 6 2.67 10.4 6.34 11.7l0.964 0.363 3.19 0.018 0.921-0.252c9.92-2.72 18.7-18.7 18.7-34.2l-4.3e-4 -2.62-0.242-1.42c-0.867-5.1-2.73-7.88-6.01-8.95l-1.02-0.333h-3.99l-1.3 0.374c-5.9 1.7-11 6.89-14.2 14.3-0.692 1.63-0.849 1.77-0.854 0.785-0.0313-6.44-4.26-11.5-9.63-11.5-8.86 0.0195-16.8 9.14-19.5 22.5-0.374 1.84-0.372 1.86 0.212 2.61 2.52 3.26 2.77 8.89 0.615 13.9l-0.23 0.542 0.366 1.05c1.91 5.48 6.16 7.98 11.1 6.53zm-1.1-13.5c-2.42-0.643-3.18-5.11-1.68-9.94 3.99-12.9 12.9-11.3 9.21 1.63-1.62 5.64-4.71 9.05-7.53 8.3zm2.08-2.05c2.2-1.47 4.55-7.23 4.56-11.2 0.0014-1.61-0.149-1.74-1.26-1.06-2.43 1.48-5.21 7.95-4.98 11.6 0.0794 1.29 0.45 1.42 1.68 0.598zm24.6-1.58c-5.11-1.5-0.137-18 5.79-19.3 5.87-1.23 2.91 16-3.26 19l-0.818 0.392-0.687-0.0103c-0.378-6e-3 -0.841-0.0554-1.03-0.111zm1.74-1.69c1.56-0.8 3.13-3.18 4.39-6.68 1.14-3.17 1.59-6.99 0.791-6.69-2.76 1.02-6.18 7.88-6.18 12.4 0 1.33 0.112 1.44 1 0.984zm11 13c0.931-0.286 6.74-1.73 7.97-1.99 1.25-0.256 1.39-0.332 1.48-0.779 0.0839-0.41 1.61-7.44 1.89-8.74 0.124-0.564 0.637-2.92 1.14-5.24 1.14-5.28 1.08-5.19 1.41-1.94 0.824 8.13 1.22 11.5 1.38 11.5 0.132 0.0434 0.263-0.193 4-7.2 4.24-7.95 4.49-8.37 4.31-7.32-0.0351 0.204-0.189 1.06-0.341 1.91-0.153 0.846-0.41 2.33-0.572 3.3s-0.395 2.3-0.516 2.96c-0.122 0.658-0.556 3.06-0.966 5.33-0.41 2.27-0.846 4.63-0.97 5.24-0.252 1.25-0.282 1.74-0.107 1.74 0.0658 0 0.848-0.203 1.74-0.451 0.89-0.248 3.12-0.835 4.96-1.3 1.84-0.469 3.38-0.883 3.41-0.921 0.136-0.136 0.193-1.16 0.0954-1.71-0.227-1.28 0.132-3.69 0.725-4.85 0.217-0.426 0.373-1.39 1.76-10.9 0.438-3.01 1.99-13.1 2.68-17.5 1.43-9.04 1.38-8.37 0.523-8.26-0.89 0.116-4.33 0.676-6.62 1.08-1.13 0.198-2.25 0.396-2.5 0.44-0.547 0.0953-0.236-0.475-2.93 5.37-4.2 9.13-4.28 9.3-4.43 9.16-0.0538-0.0546-0.135-3.34-0.18-7.31-0.045-3.97-0.117-7.23-0.159-7.26-0.0791-0.0489-6.47 1.63-8.45 2.22-1.35 0.402-1.53 0.496-1.6 0.826-0.0296 0.143-0.394 1.65-0.809 3.35l-0.756 3.09 0.125 1.01c0.876 7.1-2.11 19.9-6.37 27.3l-0.557 0.968-0.597 2.39c-0.328 1.32-0.721 2.83-0.872 3.36-0.427 1.49-0.405 1.53 0.693 1.2zm37.8-2.17c5.24-1.54 6.57-9.27 1.96-11.4l-0.659-0.307-1.03-0.0398c-4.93-0.191-8.25 6.65-5.08 10.5 1.06 1.27 3.05 1.81 4.81 1.29zm-119-13.6c-0.0013-0.329-0.0792-1.32-0.173-2.19-0.0938-0.877-0.203-1.97-0.242-2.42-0.0799-0.925-0.0537-0.903-0.736-0.616-0.689 0.29-3.01 1.18-4.32 1.66-2.88 1.05-2.86 0.96-0.53 1.87 1.01 0.395 2.43 0.951 3.15 1.23 3.24 1.28 2.85 1.21 2.85 0.468zm129-1.86c0.368-0.222 1.08-0.591 1.58-0.819 1.36-0.619 7.13-3.56 7.5-3.82 0.452-0.319 0.292-0.442-1.14-0.875-0.675-0.204-1.74-0.542-2.37-0.75-2.79-0.929-3.48-1.12-3.6-1-0.111 0.111-0.498 1.11-1.43 3.68-0.215 0.595-0.512 1.39-0.658 1.77s-0.33 0.94-0.407 1.25c-0.0773 0.313-0.167 0.659-0.198 0.769-0.0778 0.269-0.0448 0.26 0.724-0.205zm-3.51-2.73c1.7-4.58 5.93-15.2 9.46-23.8 0.815-1.97 1.45-3.62 1.41-3.67-0.114-0.118-10.8-1.52-12.2-1.59-0.636-0.0347-0.548-0.259-1.13 2.88-0.281 1.53-0.865 4.57-1.3 6.76-0.431 2.19-1.46 7.53-2.28 11.8s-1.59 8.37-1.72 8.99c-0.287 1.45-0.43 1.41 5.82 1.38l0.855-4e-3zm-91-11.5c3.89-5.82 6.99-8.51 11.9-10.3 1.99-0.73 2.31-0.788 4.5-0.8l1.94-0.0107 0.968 0.258c3.14 0.837 5.41 2.85 7.43 6.58 0.537 0.996 0.571 0.998 1.15 0.0449 2.74-4.49 7.23-8.4 11.5-9.99 0.407-0.153 0.794-0.323 0.859-0.377 0.0652-0.0541 0.629-0.234 1.25-0.401l1.13-0.302 3.3 8.9e-4 1.31 0.343c2.95 0.772 5.68 2.86 6.67 5.1 0.415 0.938 0.495 0.854 0.669-0.694 0.0353-0.313 0.169-0.885 0.296-1.27l0.232-0.7 0.935-0.288c1.05-0.324 9.6-2.76 11.2-3.19l1.05-0.283 0.136 0.164c0.0972 0.117 0.119 0.617 0.0784 1.76-0.0635 1.77-0.0699 1.75 0.522 1.57 0.654-0.201 0.694-0.0975 0.69 1.79-2e-3 0.907 4e-3 1.65 0.0142 1.65 0.0317 0 1.02-2.04 1.89-3.91 0.995-2.14 0.648-1.9 3.53-2.41 3.59-0.635 3.87-0.757 3.87-1.71 0-0.435 0.802-2.28 1.55-3.55 1.84-3.16 1.84-2.97-0.0172-2.05-5.79 2.86-10.1 4.56-13.2 5.16l-1.56 0.309-1.03-0.13c-2.9-0.366-3.94-2.94-3.29-8.09 0.289-2.27 0.666-4.54 0.856-5.13 0.115-0.362-0.0522-0.325-0.82 0.182-7.26 4.8-13.4 8.03-17.2 9.02l-1.29 0.338h-2.39l-0.697-0.37c-1.58-0.839-3.67-3.57-5.09-6.65-1.19-2.58-2.29-5.29-2.78-6.88-0.772-2.49-1.22-2.24-2.74 1.54-0.803 1.99-1.88 3.87-4.3 7.5-2.34 3.51-3.31 4.6-3.99 4.48-2.04-0.383-6.05-3.66-9.5-7.76l-0.476-0.565 0.0644 1.94c0.143 4.31-0.436 8.37-1.2 8.37-1.22 0-5.96-2.2-9.28-4.31-0.557-0.354-1.33-0.844-1.72-1.09-0.388-0.244-0.956-0.641-1.26-0.883-1.09-0.862-1.42-0.588-1.22 1.02 0.183 1.48 0.44 4.35 0.523 5.83 0.0401 0.721 0.121 1.76 0.18 2.31 0.239 2.23-0.428 4.35-1.46 4.63-3.29 0.913-9.66-0.303-17.9-3.41-0.689-0.261-1.73-0.649-2.31-0.863-0.58-0.214-1.35-0.536-1.71-0.716-0.36-0.18-0.86-0.391-1.11-0.469-0.251-0.0774-0.985-0.397-1.63-0.709-1.43-0.689-1.5-0.654-0.634 0.316 0.369 0.416 0.844 0.994 1.06 1.28 0.211 0.291 0.579 0.734 0.818 0.985 0.238 0.251 0.728 0.866 1.09 1.37 2.87 3.98 2.66 3.69 4.31 6.27 0.32 0.501 0.647 1.06 0.725 1.24 0.111 0.253 0.199 0.313 0.396 0.269 0.139-0.0313 0.945-0.237 1.79-0.458 8.55-2.23 15.3-0.258 17.3 5.06 0.116 0.305 0.418 0.883 0.671 1.28 0.253 0.4 0.538 0.914 0.633 1.14 0.223 0.534 0.201 0.544 0.801-0.355zm-25.1 63.5c-0.545-0.569-0.655-0.447 4.82-5.37 4.41-3.96 3.92-3.24-2.43 3.61-2.15 2.32-1.98 2.19-2.39 1.76zm93.3-0.45c-0.101-0.36-0.279-0.988-0.395-1.4-0.294-1.03-0.953-3.88-1.48-6.38-0.243-1.16-0.573-2.66-0.734-3.34-0.46-1.95-0.552-1.93 1.49-0.275 4.43 3.58 9.06 7.76 8.89 8.03-0.162 0.262-7.14 4.02-7.46 4.02-0.0714 0-0.213-0.295-0.314-0.655zm3.58-2.38c2.29-1.25 2.23-1.21 2.1-1.46-0.108-0.193-3.81-3.76-6.01-5.8l-1.25-1.16-0.0338 0.237c-0.0489 0.342 2.21 8.77 2.49 9.3l0.108 0.202 0.299-0.114c0.165-0.0626 1.2-0.606 2.31-1.21zm18.8-6.79c-0.615-0.83-1.66-2.28-2.31-3.22-0.657-0.94-1.82-2.59-2.58-3.67-2.95-4.16-2.37-3.62 3.18 2.93 4.31 5.09 4.11 4.79 3.46 5.21-0.567 0.368-0.525 0.398-1.75-1.25zm-133-5.91c-0.721-0.635-1.82-1.64-2.45-2.23l-1.14-1.08 0.34-0.273c1.53-1.22 10.3-6.54 10.8-6.54 0.379 0-3.72 7.93-5.69 11-0.26 0.407-0.43 0.323-1.82-0.902zm1.67-0.939c0.323-0.499 2.89-4.83 3.68-6.19 0.334-0.581 0.574-1.09 0.535-1.13-0.123-0.123-7.1 4.46-7.47 4.91l-0.135 0.162 0.83 0.777c0.456 0.427 1.09 1.02 1.4 1.32 0.683 0.642 0.836 0.662 1.16 0.156zm135-3.17c-2.22-4.22-3.84-7.61-3.62-7.61 0.702 0 11 5.04 11 5.38 0 0.184-6.04 3.96-6.33 3.96-0.0728 0-0.544-0.782-1.05-1.74zm3.73-1.17c1.82-1.14 2.12-0.781-2.8-3.44-3.51-1.9-3.5-1.9-2.67-0.489 0.241 0.412 0.988 1.72 1.66 2.91 0.673 1.19 1.27 2.23 1.34 2.31 0.128 0.163 0.293 0.077 2.48-1.29zm-146-12.7c-0.0352-0.0917-0.0478-0.361-0.0279-0.598l0.0361-0.432 0.342-0.0935c1.52-0.416 8.5-1.59 9.33-1.56l0.357 9e-3 -0.389 0.17c-0.441 0.192-2.73 0.842-6.56 1.86-1.44 0.384-2.71 0.724-2.82 0.756-0.114 0.0328-0.228-0.0143-0.264-0.109zm152-3.1c-0.0627-0.022-0.986-0.299-2.05-0.616-7.05-2.09-7.26-2.32-0.973-1.08 4.11 0.813 3.95 0.756 3.71 1.34-0.163 0.391-0.338 0.483-0.685 0.361zm-141-32.8c-5.32-1.03-6.04-1.26-5.76-1.82l0.187-0.362 0.363 0.0779c1.11 0.238 7.38 2.16 7.83 2.4l0.285 0.153-0.342-7e-3c-0.188-4e-3 -1.34-0.201-2.56-0.438zm21.9-20.6c-3.5-3.52-7.51-7.83-7.51-8.07 0-0.297 7.42-3.07 7.99-2.99l0.253 0.0368 0.314 1.25c0.694 2.77 2.26 12.3 2.07 12.6-0.102 0.176-0.275 0.0184-3.13-2.85zm2.18 0.706c0-0.197-0.449-2.29-1.51-7.04-0.834-3.74-0.534-3.46-2.86-2.63-3.87 1.39-3.72 1.01-1.42 3.6 1.02 1.14 2.05 2.31 2.3 2.6s0.734 0.828 1.08 1.21c0.348 0.378 0.982 1.08 1.41 1.57 0.78 0.883 0.989 1.03 0.989 0.703zm83.9-0.484c0-0.505 8.24-12.1 8.6-12.1 0.232 0 0.973 0.669 0.973 0.878 0 0.179-0.693 1.03-4.27 5.27-3.64 4.31-5.3 6.18-5.3 5.95zm-27.8-3.47c1.17-6.78 1.77-9.76 2.43-12l0.185-0.637 0.758 0.0635c1.38 0.116 6.5 1.65 6.96 2.09l0.164 0.156-0.229 0.259c-5.35 6.04-10.4 11-10.3 10.1zm2.15-2.74c0.459-0.522 1.84-2.05 3.06-3.39 3.07-3.37 3.31-3.65 3.24-3.75-0.098-0.159-2.87-1.03-4.21-1.32-0.986-0.214-0.76-0.761-2.27 5.5-1.11 4.58-1.12 4.44 0.186 2.96zm-30.6-0.704c-2.8-5.79-3.08-6.52-2.54-6.71 0.441-0.155 0.464-0.118 1.3 2.11 2.13 5.68 2.59 7.4 1.24 4.6z" fill="#5c1604"/><path d="m93.6 210c-0.141-0.0574-0.258-0.145-0.26-0.194-0.0068-0.179 2.67-8.8 2.72-8.75 0.0742 0.0742-0.272 1.83-1.03 5.24-0.378 1.69-0.72 3.23-0.761 3.42-0.0809 0.369-0.263 0.447-0.664 0.283zm-6.9-5.81c-0.0301-0.094-0.138-1.15-0.241-2.34-0.439-5.12-1.27-9.62-1.86-10.1-1-0.83-8.3 4.15-16.1 10.9-2.14 1.87-2.07 2.07-0.655-1.94 2.35-6.64 3.5-10.9 3.53-13.1l0.011-0.897-0.194-0.124c-0.497-0.319-4.23 0.828-8.32 2.56-3.26 1.38-3.07 1.52-1.8-1.32 1.6-3.58 1.62-3.53-0.821-2.15-3.57 2.03-8.45 4.19-12.8 5.66-1.99 0.671-1.86 0.703-1.98-0.487-0.128-1.27-0.178-1.31-1.12-0.979-0.588 0.207-0.532 0.366-0.746-2.1-0.468-5.4-1.18-12.9-2-20.9-0.247-2.41-0.524-5.12-0.615-6.03-0.0914-0.902-0.217-1.69-0.279-1.75-0.175-0.176-5.86-2.48-11.3-4.58-0.773-0.299-1.36-0.584-1.31-0.633 0.0526-0.0494 1.12-0.475 2.37-0.947 1.88-0.708 8.55-3.26 9.02-3.46 0.267-0.11 0.26-0.454-0.0799-3.64-0.19-1.78-0.357-3.66-0.37-4.17l-0.025-0.935 1.2-0.718c3.11-1.87 6.41-3.51 9.67-4.81 0.836-0.334 1.55-0.685 1.59-0.781 0.173-0.452-2.98-5.22-5.66-8.57-1-1.25-3.77-4.57-5.46-6.54-2.2-2.57-2.22-2.45 0.222-1.31 14.4 6.74 23.8 9.64 28.3 8.74 1.81-0.363 2.2-6.27 0.964-14.3-0.283-1.84-0.346-1.76 0.822-0.94 5.36 3.78 9.2 6.02 11.8 6.92l0.938 0.32 0.151-0.205c0.447-0.605 0.613-5.32 0.366-10.4-0.106-2.16-0.112-2.15 0.663-1.2 4.42 5.42 8.3 9.08 10.4 9.83l0.487 0.172 0.532-0.289c1.52-0.83 3.97-3.96 6.23-7.97 0.423-0.752 0.867-1.52 0.987-1.71l0.218-0.342-0.0795 0.285c-0.158 0.567-1.46 3.05-2.24 4.27-3.62 5.66-4.9 7.28-5.7 7.19-1.84-0.212-6.15-3.73-9.26-7.57-0.31-0.382-0.64-0.684-0.732-0.67l-0.169 0.025 0.0344 2.68c0.0443 3.44-0.318 6.91-0.781 7.46-0.609 0.733-8.38-3.19-12.7-6.41-0.192-0.143-0.541-0.267-0.798-0.283l-0.456-0.0283 0.0049 0.684c0.0027 0.376 0.116 1.71 0.252 2.96 0.862 7.95 0.656 10.2-0.969 10.7l-0.654 0.202-4.1-0.0262-1.6-0.303c-3.82-0.726-12.3-3.47-15.2-4.91-0.282-0.14-0.718-0.321-0.968-0.4-0.251-0.0798-1.09-0.446-1.87-0.813-1.94-0.916-2.13-0.88-1.18 0.215 2.56 2.95 5.35 6.7 7.4 9.94 0.575 0.912 1.12 1.75 1.2 1.87l0.155 0.215 1.02-0.297c8.85-2.58 16-0.753 18 4.6 0.117 0.309 0.421 0.89 0.674 1.29 0.253 0.401 0.572 0.966 0.708 1.26 0.3 0.639 0.466 0.66 0.803 0.1 4.49-7.46 10.6-11.6 17-11.5l1.99 0.0278 1.08 0.361c2.79 0.932 4.86 2.89 6.77 6.4 0.58 1.06 0.64 1.08 1.16 0.272 4.48-6.9 10.4-11 16.2-11.3l1.42-0.0657 1.34 0.304c3.25 0.737 5.82 2.67 7.02 5.28 0.444 0.963 0.698 0.765 0.913-0.712 0.134-0.924 0.423-1.96 0.573-2.05 0.136-0.0843 6.42-1.9 11.4-3.3 1.76-0.493 1.58-0.655 1.57 1.43l-0.0129 1.73 1.12-0.148 0.0589 0.202c0.0324 0.111 0.0464 0.933 0.0311 1.83-0.0427 2.49-0.0956 2.53 1.69-1.28 1.62-3.48 1.12-3.05 4.29-3.64 2.97-0.553 3.22-0.625 3.44-1 0.439-0.726 1.19-2.06 1.6-2.82 0.248-0.47 0.58-1.01 0.739-1.2 0.158-0.188 0.434-0.667 0.613-1.07 0.179-0.398 0.428-0.869 0.555-1.05 0.129-0.181 0.182-0.352 0.121-0.389-0.0595-0.0367-0.14-0.0147-0.18 0.049-0.0394 0.0637-0.126 0.116-0.192 0.116-0.115 0-0.0937-0.205 0.0811-0.769 0.121-0.389-0.0112-0.345-2.28 0.761-10.1 4.94-15.4 6.23-17.2 4.18-1.36-1.54-1.68-4.78-0.774-7.82 0.26-0.877 0.544-2.2 0.576-2.68 0.0165-0.251 0.0669-0.699 0.112-0.995 0.207-1.36-0.0464-1.39-1.83-0.217-8.71 5.72-15.5 8.94-19 8.95l-1.2 5e-3 -0.627-0.329c-2.52-1.33-5.44-6.3-7.81-13.3-0.338-1-0.692-1.9-0.787-1.99l-0.173-0.173-0.341 0.129c-0.188 0.0709-0.341 0.107-0.341 0.0793 0-0.0954 0.901-1.81 1.12-2.13 0.275-0.404 0.231-0.479 1.04 1.83 4.3 12.3 6.7 15.3 11.3 14.2 3.72-0.902 9.8-4.1 17.2-9.03 1.81-1.21 3.31-2.18 3.33-2.16 0.0233 0.0233-0.217 1.16-0.534 2.53-1.75 7.59-1.68 11.3 0.228 12.3l0.493 0.261 1.04-2e-3c3.19-5e-3 9.06-2.31 18.4-7.22 0.907-0.477 1.69-0.853 1.74-0.837 0.0505 0.0168-0.431 0.876-1.07 1.91-4.61 7.46-5.51 9.27-4.51 9.07 0.675-0.137 5.59-0.75 5.64-0.704 0.0252 0.0252-0.0442 0.644-0.154 1.38-0.227 1.51-0.207 1.56 0.547 1.42 0.515-0.0941 0.625-0.214 0.731-0.794 0.0401-0.219 0.237-1.22 0.436-2.22l0.364-1.82 0.916 0.0242c1.6 0.0422 15 1.78 15.2 1.97 0.0513 0.048-0.148 0.68-0.443 1.4-0.641 1.58-0.632 1.62 0.316 1.72 0.399 0.0427 0.785 0.115 0.859 0.161 0.0945 0.0584-0.298 1.1-1.32 3.5-2.3 5.41-4 9.5-5.84 14l-0.614 1.52 0.204 0.149c0.112 0.0821 2.03 0.746 4.27 1.48 5.52 1.8 6.54 2.16 6.52 2.29-8e-3 0.0612-2 0.861-4.42 1.78s-5.21 1.98-6.18 2.37c-2.17 0.87-2.16 0.868-1.88 0.666 0.125-0.0903 1.02-0.541 1.99-1 2.34-1.11 6.03-3.05 6.35-3.34 0.45-0.407 0.325-0.506-1.25-0.995-0.83-0.257-1.95-0.614-2.48-0.792-0.533-0.178-1.56-0.514-2.27-0.746l-1.3-0.421-0.197 0.244c-0.108 0.134-0.286 0.486-0.395 0.783s-0.438 1.18-0.732 1.96c-1.02 2.71-1.71 4.73-1.71 4.99 3.1e-4 0.0809-0.0983 0.286-0.219 0.456-0.121 0.17-0.458 1.04-0.749 1.93l-0.53 1.62h-0.789c-0.935 0-0.927-0.0299-0.331 1.18 0.282 0.572 0.515 1.26 0.607 1.78 0.082 0.47 0.256 1.06 0.386 1.31 3.46 6.71-6.06 14.8-11.2 9.52l-0.45-0.464-0.404 9.4e-4c-0.524 1e-3 -4.21 0.857-4.37 1.01-0.648 0.648 1.86 6.6 5.34 12.7 0.78 1.36 1.42 2.5 1.42 2.54 0 0.0379-0.577-0.239-1.28-0.615-19.3-10.3-24.4-7.92-22.7 10.5 0.102 1.09 0.186 2.17 0.186 2.39v0.397l-3.45-3.42c-4.37-4.33-5.69-5.5-6.05-5.36-0.196 0.075-0.495 1.74-0.821 4.55-0.103 0.887-1e-5 0.971-2.29-1.88-2.81-3.5-5.14-5.78-5.91-5.78-1.19 0-5.18 6.32-7.88 12.5-0.673 1.54-0.618 1.56-1.49-0.735-2.16-5.71-4.26-9.84-5.3-10.4l-0.221-0.118-0.758 0.504c-2.26 1.5-5.76 5.23-9.73 10.4-1.02 1.32-1.94 2.51-2.05 2.64l-0.191 0.239zm1.97-4.48c3.82-5.03 9.75-10.8 11.1-10.8 0.457 0 1.91 1.91 3.04 4 0.822 1.52 1.05 2.02 2.31 5.06 1.28 3.09 1.5 3.2 2.01 1.03 0.0735-0.313 0.258-0.754 0.409-0.979 0.152-0.225 0.324-0.706 0.383-1.07 0.0591-0.363 0.122-0.672 0.139-0.686 0.0176-0.0143 0.153-0.0891 0.301-0.166l0.269-0.14-0.136-0.852 0.44-0.902c1.12-2.3 3.83-5.7 5.06-6.37l0.393-0.212 0.555 0.321c1.54 0.89 3.63 2.91 5.43 5.24 1.22 1.58 1.26 1.6 1.39 0.543 0.211-1.82 0.596-3.68 0.762-3.68 0.494 0 3.06 2.17 6.03 5.1 1.35 1.33 2.52 2.42 2.59 2.42 0.12 0 0.0863-4.44-0.037-4.85-0.405-1.37 0.741-7.49 1.74-9.28 2.33-4.17 9.17-3.78 18.8 1.07 1.67 0.845 1.75 0.797 1.01-0.59-1.99-3.7-3.66-7.58-4.03-9.41-0.174-0.836 0.0363-0.843-3.8 0.12-3.86 0.97-3.57 0.976-3.33-0.0678 0.296-1.3 0.199-1.48-0.637-1.17-0.145 0.0539-0.456 0.133-0.691 0.176l-0.427 0.0781v-0.279c0-0.153 0.201-1.32 0.446-2.6 1.08-5.61 1.11-5.48-0.673-2.49-2.25 3.76-2.07 3.63-2.33 1.74-0.261-1.88-0.315-1.96-0.762-1.17-0.311 0.553-0.416 0.571-0.483 0.0855-0.0283-0.204-0.133-0.981-0.233-1.73-0.313-2.34-0.301-2.37-1.5 3.52-0.28 1.38-0.553 2.61-0.608 2.74l-0.099 0.231-2.32 0.261c-3.51 0.394-6.75 1.2-9.72 2.41-1.35 0.55-1.29 0.582-0.983-0.574 0.322-1.19 0.288-1.23-0.956-0.899-1.15 0.303-1.13 0.311-0.919-0.385l0.163-0.541-0.165-0.0632c-0.0906-0.0348-0.358 0.0881-0.594 0.273-7.99 6.26-15.5 5.3-19.3-2.47-0.34-0.684-0.668-1.27-0.729-1.31-0.131-0.081-0.186-6e-3 -1.45 1.98-3.98 6.26-8.81 9.57-14.3 9.77l-1.65 0.0608-0.966-0.244c-2.88-0.726-4.89-2.36-7.07-5.74-0.417-0.645-0.456-0.634-1.22 0.37-1.49 1.97-3.79 4.23-5.85 5.78l-0.986 0.737-0.362 1.04c-0.199 0.574-0.533 1.43-0.743 1.9-0.777 1.74-0.796 1.73 1.4 0.867 2.88-1.13 5.13-1.74 6.89-1.85l1.1-0.0732 0.057 0.273c0.405 1.94-0.508 6.55-2.43 12.3-0.806 2.4-0.799 2.42 0.401 1.42 5.64-4.72 12.7-9.14 14.5-9.14 0.566 0 1.73 4.82 2.21 9.14 0.225 2.02 0.223 2.02 1.2 0.742zm-41.1-12.8c16.5-6.19 25.4-14.8 25-24.3-0.181-4.4-2.11-7.01-5.79-7.81-0.587-0.129-1.21-0.27-1.38-0.313l-0.312-0.0787 1.14-1.25c4.66-5.11 6.23-10.6 4.18-14.7-3.24-6.42-14.2-5.72-27.7 1.75l-2.19 1.21 0.0268 0.963c0.0148 0.529 0.157 2.25 0.316 3.81 0.159 1.57 0.491 4.85 0.739 7.29 0.942 9.32 1.26 12.5 1.42 13.9 0.0903 0.815 0.345 3.35 0.566 5.64 0.221 2.29 0.474 4.85 0.562 5.7 0.0884 0.846 0.3 3.1 0.469 5.01 0.17 1.91 0.355 3.6 0.413 3.74l0.105 0.268 0.31-0.0769c0.171-0.0423 1.11-0.375 2.08-0.739zm7.47-16.8c-0.0331-0.266-0.122-1.78-0.197-3.37l-0.136-2.88 0.161-0.155c0.538-0.516 3.27-1.34 4.49-1.36 4.21-0.0599 1.76 5.2-3.72 7.97l-0.544 0.276zm-0.918-17.1c-0.0408-0.58-0.0841-2.13-0.0961-3.45l-0.0218-2.39 0.909-0.441c5.48-2.66 6.83 0.748 2.08 5.24-0.798 0.755-2.55 2.09-2.74 2.09-0.0309 0-0.0896-0.474-0.13-1.05zm28.7 25.5c5.77-1.19 11.6-7.69 14.7-16.3 0.373-1.05 0.386-1.04 0.504 0.547 0.319 4.27 1.65 7.89 3.64 9.9l0.973 0.982 0.979 0.474c6.91 3.34 16.3-3.85 21.1-16.2 5.78-14.8 4.69-28.1-2.52-30.7-7.17-2.54-16.5 3.89-20.9 14.4-0.497 1.2-0.527 1.18-0.718-0.339-1.05-8.33-6.57-12.2-13.8-9.71-7.56 2.63-13.4 11-15.6 22.3l-0.295 1.53 0.235 0.29c2.71 3.33 3.17 8.38 1.25 13.6-0.518 1.4-0.518 1.4-3e-3 2.77 1.9 5.03 5.74 7.44 10.4 6.49zm-0.745-14.2c-0.968-0.491-1.56-1.55-1.82-3.27l-0.183-1.22 0.131-1.31c0.689-6.87 4.98-13.4 8.23-12.5 5.25 1.41 0.674 18.3-5.02 18.5l-0.855 0.0361zm2.09-1.24c2.44-1.11 5.05-7.04 5.1-11.6 0.048-4.76-5.08 1.4-6.3 7.57-0.691 3.49-0.327 4.7 1.2 4.01zm25.1-2.17c-5.2-1.62 0.406-19 6.13-19 5.95-8.1e-4 0.918 18.9-5.1 19.1-0.379 0.0154-0.843-0.0197-1.03-0.0782zm1.72-1.41c2.79-1.3 6.43-10.1 5.58-13.5l-0.0787-0.314-0.39 0.0633c-2.57 0.416-6.43 7.96-6.43 12.5 0 1.44 0.25 1.66 1.32 1.16zm12.5 12.6c2.46-0.654 5.05-1.28 6.6-1.6 1.29-0.269 1.33-0.297 1.49-1.11 0.131-0.652 1.34-6.17 1.65-7.54 0.234-1.03 1.73-7.95 1.96-9.04 0.205-0.995 0.307-0.958 0.42 0.153 1.26 12.4 1.37 13.1 1.85 12.3 0.192-0.309 2.97-5.46 5.4-10 1.21-2.26 2.27-4.18 2.36-4.27l0.171-0.171-0.0649 0.228c-0.0357 0.125-0.114 0.535-0.175 0.911-0.509 3.16-3.26 18.5-3.37 18.8-0.227 0.62 0.0154 0.606 2.79-0.152 1.28-0.35 3.53-0.941 5-1.31 1.47-0.372 2.69-0.7 2.72-0.73 0.152-0.152 0.213-1.24 0.111-1.99-0.195-1.44 0.112-3.4 0.72-4.59 0.172-0.338 0.385-1.48 0.789-4.23 0.96-6.54 1.35-9.13 1.94-12.9 0.316-2.04 0.803-5.22 1.08-7.06s0.712-4.62 0.961-6.15c0.63-3.89 0.909-5.8 0.91-6.24l7.5e-4 -0.37-0.484 5.8e-4c-0.986 1e-3 -9.88 1.54-10.1 1.74-0.0725 0.0748-0.618 1.21-1.21 2.53s-1.68 3.67-2.41 5.24c-0.731 1.57-1.7 3.64-2.15 4.61l-0.818 1.77-0.0757-0.741c-0.0417-0.407-0.087-3.18-0.101-6.15s-0.05-5.89-0.0806-6.47l-0.0556-1.05h-0.22c-0.254 0-6.84 1.75-8.7 2.31l-1.25 0.378-0.134 0.281c-0.0736 0.155-0.475 1.69-0.893 3.41l-0.759 3.13 0.124 1.54c0.626 7.81-1.98 18.9-6.26 26.7l-0.687 1.24-0.615 2.48c-0.338 1.36-0.747 2.93-0.908 3.49-0.425 1.47-0.535 1.44 2.44 0.646zm36.5-1.83c5.02-1.45 6.4-9.3 2.02-11.5-5.61-2.8-11.3 5.97-6.83 10.5l0.749 0.751 0.741 0.241c1.22 0.395 1.99 0.399 3.32 0.0154zm-119-13.4c0-0.284-0.0764-1.25-0.17-2.14-0.0934-0.891-0.216-2.07-0.272-2.63-0.128-1.27-0.16-1.3-0.996-0.958-1.12 0.454-2.72 1.07-4.94 1.9-2.29 0.855-2.48 1.01-1.69 1.3 1.91 0.708 5.06 1.94 6.7 2.62 0.533 0.221 1.06 0.404 1.17 0.407l0.199 5e-3zm124-1.91c0.0647-0.0783 0.693-1.68 1.4-3.56 1.81-4.84 8.34-21.1 10.3-25.7 0.443-1.03 0.48-1.21 0.271-1.34-0.153-0.0947-6-0.885-10.1-1.36l-2.65-0.311-0.149 0.161c-0.0819 0.0888-0.316 1.11-0.519 2.27-0.204 1.16-0.746 4.03-1.21 6.38-0.46 2.35-1.05 5.37-1.3 6.72-0.257 1.35-0.617 3.22-0.8 4.16-0.372 1.91-1.4 7.32-1.94 10.2-0.196 1.05-0.329 1.99-0.295 2.08l0.0621 0.162 2.14 0.0121c1.18 7e-3 2.6 0.0498 3.17 0.0959s1.13 0.0919 1.27 0.102c0.133 0.01 0.295-0.046 0.36-0.124zm-115 48.7-0.276-0.296 0.902-0.852c0.775-0.732 4.94-4.5 5.75-5.21l0.276-0.239-0.187 0.277c-0.443 0.656-5.95 6.62-6.11 6.62-0.0428 0-0.202-0.133-0.354-0.296zm93.5 0.0399c-0.39-1.22-1.15-4.33-1.72-7.04-0.218-1.03-0.578-2.69-0.8-3.68s-0.386-1.85-0.366-1.9c0.0765-0.218 5.63 4.47 8.61 7.27 1.96 1.84 1.97 1.51-0.114 2.67-4.15 2.31-5.52 2.96-5.61 2.67zm1.29-1.42c0.229-0.105 0.929-0.482 1.56-0.837 0.627-0.356 1.51-0.84 1.97-1.08 1.21-0.628 1.36-0.371-2.25-3.83-3.32-3.18-4.33-4.09-4.53-4.09h-0.17l0.0772 0.484c0.0425 0.266 0.177 0.843 0.299 1.28 0.122 0.439 0.611 2.21 1.09 3.93 1.33 4.83 1.18 4.5 1.97 4.14zm20.7-8.61c-0.743-1.02-1.76-2.44-2.27-3.16-0.504-0.721-1.11-1.59-1.36-1.94-1.24-1.77-1.45-2.09-1.26-1.94 0.198 0.158 4.99 5.75 6.48 7.58l0.655 0.798-0.297 0.256c-0.473 0.409-0.542 0.353-1.96-1.6zm-132-4.99c-1.64-1.45-3.93-3.57-3.93-3.65 0-0.235 5.13-3.51 7.89-5.05 0.831-0.461 1.79-1 2.12-1.2 0.337-0.199 0.637-0.337 0.667-0.307 0.156 0.156-4.99 9.75-5.67 10.6l-0.285 0.343zm1.08-1.14c0.318-0.439 1.97-3.19 3.69-6.14 1.3-2.23 1.27-2.23-3.76 1.15-4.13 2.77-3.91 2.3-1.96 4.09 1.71 1.57 1.59 1.52 2.03 0.905zm136-1.96c-0.214-0.257-4.35-8.53-4.32-8.63 0.045-0.129 4.21 1.69 6.75 2.95 1.51 0.749 3.68 1.94 3.76 2.07 0.0867 0.14-5.65 3.76-5.96 3.76-0.0581 0-0.163-0.0687-0.232-0.153zm1.5-1.56c3.7-2.25 3.9-1.7-1.64-4.66-3.58-1.91-3.65-1.91-2.57-0.0809 0.335 0.569 1.08 1.88 1.67 2.92 1.31 2.32 1.35 2.39 1.49 2.39 0.0643 0 0.537-0.256 1.05-0.569zm-144-13.9c-0.653-0.653 0.875-1.13 6.16-1.93 3.18-0.478 2.89-0.361-3.11 1.25-2.77 0.741-2.95 0.782-3.05 0.681zm151-3.47c-2.66-0.797-4.43-1.39-4.3-1.44 0.133-0.047 6.06 1.09 6.17 1.18 0.597 0.526-0.479 0.674-1.87 0.258zm-141-32.6c-4.12-0.848-4.55-0.991-4.28-1.43l0.108-0.17 1 0.258c1.17 0.302 5.4 1.6 5.48 1.68 0.122 0.122-0.568 0.0211-2.32-0.339zm23.1-20.5c-2.65-2.67-5.49-5.67-6.74-7.13l-0.522-0.611 0.164-0.103c1.02-0.642 7.59-2.97 7.73-2.74 0.284 0.459 1.23 5.24 1.77 8.95 0.165 1.13 0.372 2.54 0.46 3.13 0.188 1.27 0.193 1.37 0.0767 1.37-0.0483 0-1.38-1.29-2.95-2.88zm2.35 0.987c0-0.225-0.153-1.08-0.341-1.91-0.481-2.12-1.58-7.08-1.73-7.8-0.186-0.899-0.217-0.9-2.6-0.0266-3.92 1.44-3.86 0.915-0.556 4.62 1.45 1.63 3.12 3.5 3.71 4.17 1.32 1.5 1.52 1.62 1.52 0.939zm84.7-1.76c0.298-0.608 4.15-6.12 6.27-8.98l1.29-1.74 0.198 0.107c0.109 0.0587 0.322 0.24 0.474 0.402l0.276 0.295-0.23 0.256c-0.126 0.141-0.993 1.18-1.93 2.31-2.87 3.47-6.54 7.71-6.36 7.35zm-28.5-2.21c-7e-3 -0.396 1.29-7.39 1.71-9.23 0.605-2.65 0.799-3.26 1.02-3.26 1.13 0 7.29 1.83 7.29 2.16 0 0.201-3.6 4.07-6.69 7.18-2.16 2.18-3.33 3.29-3.33 3.15zm0.971-1.53c0.113-0.0794 0.942-0.976 4.49-4.87 3.66-4.01 3.64-3.53 0.229-4.5-2.9-0.827-2.5-1.19-3.59 3.25-1.63 6.64-1.6 6.45-1.13 6.12zm-29.8-2.62c-2.04-4.14-2.66-5.72-2.31-5.85l0.263-0.0994 0.18 0.426c0.352 0.832 2.21 5.98 2.17 6.02-0.0214 0.0214-0.158-0.204-0.304-0.5z" fill="#060302"/></svg>
