<svg width="210mm" height="297mm" version="1.1" viewBox="0 0 210 297" xmlns="http://www.w3.org/2000/svg"><path d="m127 162c-0.181-0.126-0.843-1.13-1.11-1.68-0.174-0.357-0.174-0.357 0.311-0.846 1.02-1.03 1.98-0.729 3.22 1.02 0.644 0.909-1.43 2.2-2.42 1.5zm-43.8-1.98c-0.82-0.333-1.19-0.52-1.19-0.603 0-0.196 5.89-6.27 5.99-6.18 0.0439 0.0439-1.73 3.78-3.04 6.38-0.512 1.02-0.335 0.981-1.76 0.4zm59.5-0.422c-1.29-0.338-2.36-1.48-2.5-2.68-0.0534-0.451-0.0764-0.477-0.575-0.661-2.33-0.861-2.87-4.12-0.999-6.05 0.403-0.417 0.466-0.188-0.595-2.19-0.58-1.09-0.595-1.22-0.0764-0.652 1.72 1.89 1.79 1.94 2.17 1.81 0.446-0.152 0.45-0.122-0.115-0.884-2.29-3.09-2.85-4.06-1.57-2.75 1.79 1.85 3.56 3.65 3.71 3.78 0.158 0.137 0.164 0.132 0.444-0.369 0.369-0.661 0.976-1.25 1.65-1.61 0.517-0.272 0.688-0.464 0.688-0.771 0-0.0574-0.423-0.407-0.939-0.776-1.28-0.916-3.63-2.71-4.92-3.76-1.21-0.991-1.23-0.994-1.66-0.504-0.804 0.91-1.07 1.7-1.35 3.91-0.0502 0.407-0.0662 0.406-0.825-0.0455-1.05-0.623-1.59-0.903-2.39-1.24-1.34-0.559-3.22-0.945-3.37-0.692-0.0261 0.0422-0.117 0.0767-0.202 0.0767-0.416 0-1.37 0.857-1.72 1.55-0.467 0.914-0.563 2.77-0.263 5.1 0.189 1.47 0.185 1.49-0.33 1.11-6.21-4.5-8.97-5.82-11.1-5.27-2.56 0.663-5.5 4.79-7.92 11.1-0.379 0.992-0.322 1.02-1.2-0.551-2.33-4.17-4.25-6.54-5.32-6.54-1.31 5e-3 -4.67 3.41-7.69 7.8-0.659 0.957-0.589 1.02-0.842-0.748-0.547-3.83-1.16-5.97-2.03-7.13-0.827-1.1-2.95-0.307-7.38 2.77-1.14 0.789-1.48 0.997-1.48 0.89 0-0.0129 0.069-0.399 0.153-0.858 0.0844-0.459 0.153-0.898 0.153-0.974 0-0.13-1.38-1.83-2.53-3.13-0.647-0.727-0.687-0.806-0.696-1.39-0.0171-1.09-0.0795-1.33-0.337-1.3-0.905 0.107-3.87 1.19-6.71 2.46-1.09 0.486-1.13 0.475-0.876-0.205 1.58-4.14 2.34-6.65 2.46-8.08 0.186-2.22-3.64-4.15-12.6-6.33-1.9-0.464-1.98-0.487-1.98-0.58 0-0.0349 0.613-0.382 1.36-0.771 7.17-3.73 8.25-4.52 8.62-6.29 0.176-0.844-1.78-3.24-5.24-6.41-0.852-0.781-1.12-1.1-0.94-1.1 0.477 0 5.35-0.928 6.87-1.31 4.58-1.15 4.91-1.88 2.6-5.78-0.679-1.15-0.772-1.35-0.615-1.35 0.0429 0 0.742 0.175 1.55 0.389 6.84 1.8 7.65 1.55 6.19-1.94-0.548-1.31-0.549-1.3 0.389-0.738 2.77 1.67 5.86 2.64 6.56 2.06 0.0585-0.0486 0.145-0.0645 0.192-0.0355 0.047 0.029 0.306-0.056 0.577-0.189 1.45-0.712 1.94-2.7 1.57-6.35-0.128-1.28-0.12-1.3 0.358-0.875 2.97 2.61 3.4 2.82 4.59 2.24 1.24-0.609 2.01-2.77 2.68-7.48 0.252-1.77 0.179-1.7 1-0.977 4.97 4.37 8.98 6.44 11.6 5.97 2.71-0.478 5.63-3.39 10.3-10.3 0.766-1.12 0.964-1.35 0.966-1.11 0.0456 4.24 1.29 8.56 2.88 10 1.85 1.69 3.65 1.5 6.71-0.685 1.32-0.944 1.19-0.921 1.35-0.233 0.893 3.83 3.25 3.61 16.7-1.56 1.93-0.74 4.7-1.78 6.17-2.31 1.47-0.531 2.8-1.01 2.96-1.08 0.709-0.273 0.694-0.218-0.394 1.49-6.8 10.7-6.49 11.4 5.55 14 0.717 0.153 1.33 0.306 1.37 0.34 0.0347 0.0345-0.397 0.589-0.959 1.23-7.04 8.06-7.08 9.98-0.293 15.1 1.66 1.26 1.65 1.13 0.138 1.57-12 3.53-13.7 5.6-10.2 12.6 0.517 1.03 0.504 1.05-0.56 0.709-3.05-0.975-5.54-1.59-7.97-1.98-1.79-0.282-3.99-0.094-5.02 0.432-0.544 0.276-0.536 0.297 0.285 0.776 0.947 0.553 3.36 1.98 5.01 2.96 1.17 0.694 1.53 0.858 1.53 0.687 0-0.147 0.679-0.824 1.1-1.1 2.07-1.34 4.73-0.711 5.73 1.35 0.308 0.636 0.308 0.636 0.85 0.759 3.89 0.878 4.13 6.42 0.335 7.75-0.46 0.161-0.46 0.161-0.511 0.771-0.231 2.76-3.16 4.65-5.88 3.8-0.566-0.175-0.566-0.175-1 0.271-0.938 0.963-2.15 1.3-3.46 0.958zm3.5-13.2c0.144-0.32 0.786-1.02 1.25-1.36 0.278-0.204 0.267-0.283-0.0291-0.209-0.441 0.111-1.49 1.38-1.49 1.81 0 0.18 0.14 0.0576 0.274-0.241zm-45.2-24.6c0.103-0.0467 0.226-0.149 0.275-0.227 0.118-0.189-0.846 0.0598-1.05 0.27-0.146 0.154 0.406 0.123 0.77-0.0426zm-22.6-3.64c0.146-0.0532 0.278-0.135 0.294-0.181 0.0291-0.0874 0.0208-0.0847-0.541 0.17-0.28 0.127-0.421 0.278-0.153 0.165 0.0738-0.0313 0.254-0.1 0.4-0.154zm1.84-0.697c0.529-0.195 0.997-0.379 1.04-0.409 0.0422-0.0298 0.249-0.117 0.46-0.193 0.211-0.0763 0.556-0.218 0.767-0.316 0.211-0.0973 1.04-0.44 1.84-0.762 1.37-0.549 1.73-0.688 3.57-1.37 0.401-0.149 1-0.38 1.34-0.513 0.337-0.133 0.915-0.333 1.28-0.445 0.465-0.14 0.708-0.257 0.794-0.38 0.176-0.253 0.131-0.257-0.469-0.0478-0.294 0.103-0.984 0.34-1.53 0.526-1.18 0.403-1.88 0.66-2.61 0.964-0.295 0.123-1.14 0.464-1.88 0.758s-1.72 0.694-2.19 0.89c-0.464 0.196-1.13 0.476-1.49 0.622s-0.683 0.292-0.729 0.326c-0.0456 0.0336-0.325 0.16-0.62 0.28-1.29 0.526-0.967 0.579 0.418 0.0682zm13.4-3.83c0.157-0.0675 0.492-0.184 0.745-0.259 0.253-0.0748 0.65-0.224 0.882-0.331 0.232-0.107 0.698-0.287 1.04-0.399 1.4-0.467 1.93-0.655 2.11-0.756 0.105-0.0588 0.33-0.13 0.498-0.158 0.415-0.0685 0.863-0.269 0.917-0.411 0.0626-0.163-0.482-0.0824-1.08 0.16-0.249 0.101-0.678 0.256-0.952 0.344-1.75 0.56-4.75 1.74-4.75 1.87 0 0.0998 0.292 0.0697 0.597-0.0616zm58.9-2.16c-1.7-4.55-8.38-6.65-15.4-4.85-0.316 0.0804-0.951 0.236-1.41 0.347-0.935 0.225-1.35 0.378-1.35 0.497 0 0.127 0.26 0.0962 1.02-0.121 0.388-0.111 0.93-0.264 1.2-0.342 6.61-1.86 13.6 0.0429 15.8 4.28 0.166 0.327 0.278 0.444 0.184 0.192zm-47.6-0.965c0.312-0.145 0.654-0.282 0.76-0.304 0.199-0.0408 1.21-0.408 1.88-0.683 0.211-0.0866 0.729-0.259 1.15-0.383 0.965-0.283 1.45-0.707 0.605-0.523-0.348 0.0754-0.717 0.204-2.41 0.843-0.359 0.135-0.824 0.31-1.04 0.387-1.79 0.655-2.07 0.789-1.99 0.921 0.0774 0.125 0.376 0.0511 1.04-0.258zm8.95-0.859c0.155-0.0649 0.301-0.144 0.323-0.175 0.0226-0.0315 0.214-0.0947 0.424-0.141 0.211-0.0458 0.556-0.155 0.767-0.242 0.373-0.155 1.86-0.592 3.34-0.982 0.678-0.179 1.23-0.443 1.23-0.591 1e-3 -0.142-5.32 1.47-5.64 1.71-0.0422 0.0314-0.242 0.102-0.443 0.156-0.382 0.103-0.48 0.179-0.401 0.308 0.0611 0.0989 0.0685 0.0982 0.402-0.0413zm-3.03-1.32c0.231-0.231 0.146-0.263-0.331-0.121-0.69 0.205-0.825 0.358-0.278 0.318 0.322-0.0239 0.491-0.0784 0.609-0.197zm14.2-0.357c0.0819-0.0619 0.273-0.114 0.425-0.115 0.346-3e-3 0.777-0.147 0.861-0.287 0.0361-0.0606 0.124-0.0868 0.205-0.0612 0.0777 0.0247 0.895-0.129 1.82-0.341 0.921-0.212 1.93-0.442 2.24-0.511 0.312-0.0687 0.76-0.226 0.997-0.35 0.237-0.124 0.344-0.206 0.238-0.182-0.105 0.0239-0.451 0.08-0.767 0.125-0.677 0.0957-4.2 0.948-4.58 1.11-0.147 0.0614-0.349 0.112-0.449 0.112-0.0999 0-0.363 0.069-0.585 0.153-0.222 0.0843-0.455 0.154-0.518 0.155-0.221 2e-3 -0.362 0.141-0.23 0.228 0.152 0.0997 0.175 0.0974 0.35-0.0347zm-5.89 50.7c-0.0667-0.0996-0.33-0.42-0.584-0.713-0.35-0.402-0.514-0.673-0.671-1.11-0.115-0.319-0.412-1.1-0.661-1.74-0.45-1.15-0.441-2.02 0.0255-2.6 0.585-0.73 5.28 0.988 5.66 2.07 0.332 0.942 0.277 1.53-0.227 2.41-0.631 1.1-0.659 1.13-1.82 1.48-1.35 0.41-1.57 0.437-1.72 0.206zm-46.4-2.3c-0.743-2.06-0.701-2.41 0.531-4.32 1.54-2.39 2.76-2.74 4.4-1.26 0.127 0.113 0.351 0.286 0.498 0.383 0.443 0.293 0.46 0.34 0.459 1.26-6.46e-4 0.466-0.0265 0.884-0.0575 0.927-0.0529 0.0744-1.88 1.67-2.42 2.12-0.172 0.141-0.649 0.319-1.59 0.591-1.87 0.541-1.75 0.521-1.83 0.308zm59.6-3c-1.02-2.03-3.17-6.59-3.17-6.72 0-0.185 0.222 0.0591 1.52 1.67 0.663 0.824 1.87 2.3 2.68 3.29 1.64 1.98 1.61 1.93 1.15 2.21-0.179 0.112-0.552 0.354-0.828 0.538-0.675 0.449-0.601 0.503-1.35-0.988zm1.75-5.04c-1.5-1.47-3.15-3.1-3.65-3.61-1.02-1.03-1.03-1.04 0.844 0.274 0.548 0.384 1.6 1.11 2.34 1.61 4.4 2.97 4.42 2.99 3.82 3.79-0.588 0.788-0.203 1.02-3.35-2.06zm-67.8-2.66c-0.271-0.235-0.493-0.478-0.493-0.54 0-0.131 5.19-3.05 5.34-3.01 0.106 0.0354-4.15 3.97-4.3 3.97-0.0294 0-0.275-0.192-0.546-0.427zm-5.7-0.697c-0.653-0.921-1.17-0.613 4.21-2.53 4.4-1.57 5.68-1.98 5.06-1.61-0.197 0.118-3.83 2.1-6.47 3.53-2.59 1.41-2.29 1.34-2.81 0.608zm98.1-4.88c-3.32-1.96-6.09-3.75-5.88-3.8 0.142-0.031 1.02 0.207 5.5 1.49 3.34 0.957 3.04 0.709 2.44 1.99-0.603 1.29-0.439 1.27-2.06 0.312zm-89.4-27.8c-1.03-0.582-3.8-2.12-5.32-2.95-0.519-0.285-0.512-0.31 0.395-1.29 0.927-0.998 0.742-1.03 2.01 0.316 0.587 0.62 1.8 1.88 2.7 2.8 2.1 2.16 2.1 2.19 0.211 1.12zm16.3-2.85c-0.756-0.459-4.76-3.22-7.16-4.93-1.41-1.01-1.27-0.968-1.62-0.489-1.16 1.59-3.49 1.84-4.97 0.541-0.35-0.308-0.35-0.308-0.952-0.0635-3.33 1.36-6.86-2.19-5.42-5.45 0.182-0.412 0.182-0.412-0.275-0.901-2.61-2.79-0.594-7.42 3.28-7.52 1.01-0.0272 0.978-0.0154 1.05-0.389 0.653-3.5 5.27-5.3 8.48-3.31 0.277 0.171 0.277 0.171 0.667-0.212 2.18-2.15 5.95-0.764 6.42 2.36 0.0401 0.265 0.0686 0.29 0.444 0.4 3.24 0.942 2.87 5.89-0.514 6.95-0.3 0.094-0.571 0.194-0.604 0.222-0.0325 0.0283 0.289 0.877 0.715 1.89 1.94 4.59 2.84 6.9 2.66 6.84-0.114-0.0381-1.51-2.46-3.33-5.75-0.784-1.42-1.45-2.59-1.48-2.59-0.0316 0-0.284 0.152-0.561 0.338-0.424 0.285-0.764 0.443-1.5 0.701-0.154 0.0539-0.111 0.129 1.11 1.92 1.65 2.42 4.56 6.86 4.56 6.95 0 0.176-0.945-0.901-2.78-3.16-0.563-0.696-1.63-2.01-2.37-2.91-0.738-0.907-1.5-1.85-1.68-2.09-0.564-0.73-0.936-0.723-1.18 0.0219-0.293 0.903-0.898 1.72-1.65 2.23-0.493 0.334-0.542 0.235 0.589 1.19 5.26 4.46 8.7 7.47 8.53 7.47-0.0179-1e-4 -0.222-0.115-0.454-0.256zm-19.6-15.5c0.621-1.02 1.79-1.68 3.07-1.73 0.891-0.035 0.932-0.0442 0.779-0.172-1.05-0.868-3.7 0.433-4.2 2.06-0.178 0.573-0.201 1.06-0.0272 0.583 0.0592-0.161 0.231-0.496 0.381-0.744zm4.72-2.48c0-0.0962 0.169-0.517 0.375-0.935 1.28-2.59 4.64-3.5 7.05-1.9 0.225 0.149 0.418 0.26 0.429 0.246 0.0103-0.0136 0.124-0.18 0.252-0.37 0.48-0.709 1.47-1.32 2.32-1.42 0.359-0.0456 0.397-0.065 0.255-0.129-0.2-0.0903-1.22 0.116-1.64 0.33-0.233 0.121-0.639 0.553-1.15 1.22-0.123 0.163-0.167 0.177-0.285 0.098-1.65-1.12-2.89-1.4-4.41-1.02-1.58 0.398-2.97 1.83-3.21 3.3-0.0382 0.232-0.0909 0.521-0.117 0.642-0.0329 0.151-0.0213 0.204 0.037 0.168 0.0467-0.0289 0.0849-0.131 0.0849-0.227zm63.7 8.56c0.242-0.443 8.24-8.99 8.41-8.99 0.138 0 1.13 0.34 2.05 0.702 0.302 0.119 0.264 0.236-0.192 0.581-1.17 0.885-5.34 4.09-7.11 5.46-3.25 2.52-3.33 2.57-3.15 2.25zm-7.1-1.11c0.322-1.89 1.23-6.63 1.28-6.68 0.0646-0.0648 1.7 0.135 1.85 0.225 0.147 0.091-0.381 1.29-2.25 5.11-0.749 1.53-0.971 1.87-0.881 1.34zm5.42 0.175c0-0.0891 0.237-0.677 0.651-1.61 0.14-0.316 1.07-2.44 2.06-4.72 2.83-6.5 3.56-8.12 3.68-8.2 0.142-0.0895 4.21 1.7 4.18 1.84-0.0123 0.0522-0.505 0.659-1.1 1.35-2.22 2.59-5.25 6.25-7.77 9.4-1.55 1.93-1.7 2.1-1.7 1.94z" fill="#facd06"/><path d="m127 162c-0.259-0.0392-1.44-1.74-1.44-2.07 0-0.448 1.26-1.18 1.81-1.05 0.834 0.197 2.27 1.72 2.04 2.16-0.412 0.771-1.3 1.13-2.41 0.959zm-44-2.05c-1.49-0.613-1.68-0.199 1.72-3.71 3.47-3.58 3.34-3.49 2.51-1.76-2.25 4.69-2.86 5.92-2.96 5.94-0.0422 0.0107-0.612-0.201-1.27-0.47zm60-0.323c-1.48-0.247-2.61-1.25-2.91-2.56-0.0417-0.184-0.0942-0.425-0.117-0.534-0.0318-0.154-0.115-0.22-0.369-0.296-2.38-0.712-3.05-4.07-1.19-6.03 0.406-0.429 0.406-0.429-0.307-1.8-0.392-0.755-0.686-1.37-0.652-1.37 0.0339 4.9e-4 0.528 0.502 1.1 1.12 1.1 1.18 1.05 1.15 1.57 0.956 0.282-0.107 0.258-0.167-0.408-1.07-0.729-0.984-2.03-2.83-2.15-3.06-0.206-0.386 0.204 6e-5 1.93 1.82 2.79 2.93 2.6 2.79 2.94 2.13 0.281-0.554 1.1-1.34 1.73-1.67 0.893-0.457 0.855-0.663-0.268-1.46-1.18-0.835-3.15-2.35-4.61-3.52-0.709-0.572-1.36-1.09-1.44-1.15-0.577-0.409-1.68 1.78-1.92 3.79-0.0515 0.443-0.119 0.805-0.149 0.805-0.0307 0-0.413-0.213-0.849-0.473-2.34-1.39-4.26-2-6.18-1.96-2.34 0.0553-2.97 1.2-2.66 4.85 0.128 1.52 0.128 1.57 0.0106 1.57-0.0527-3.4e-4 -0.397-0.224-0.765-0.496-4.68-3.47-7.84-4.88-9.78-4.38-2.57 0.661-5.38 4.28-7.83 10.1-0.387 0.917-0.399 0.919-0.845 0.164-1.68-2.85-2.06-3.42-2.98-4.54-0.957-1.16-1.79-1.75-2.47-1.74-1.39 7e-3 -3.93 2.32-6.97 6.34-0.743 0.982-0.895 1.15-0.958 1.05-0.0213-0.0345-0.129-0.58-0.239-1.21-1.32-7.58-2.53-8.18-8.74-4.35-0.628 0.388-1.22 0.705-1.33 0.705-0.102 0-0.32 0.069-0.485 0.153-0.165 0.0844-0.349 0.153-0.408 0.153-0.0844 0-2-2.18-3.11-3.55-0.167-0.204-0.192-0.326-0.233-1.14-0.0254-0.5-0.0804-0.943-0.122-0.985-0.237-0.237-3.19 0.796-6.89 2.41-1.29 0.563-1.28 0.881-0.0558-2.46 1.86-5.07 2.11-7.41 0.919-8.56-1.12-1.08-5.68-2.81-11.2-4.27-0.438-0.115-0.414-0.177 0.192-0.509 4.12-2.26 6.86-4.05 7.47-4.89 0.855-1.18-0.969-3.72-6.02-8.4-0.651-0.602-0.693-0.569 1.07-0.859 9.93-1.64 10.7-2.3 7.85-7.03-0.573-0.961-0.674-1.18-0.544-1.18 0.0316 3.3e-4 0.698 0.17 1.48 0.378 6.95 1.84 7.79 1.58 6.29-1.96-0.551-1.3-0.577-1.27 0.481-0.637 5 2.98 8 2.82 8.76-0.466 0.197-0.861 0.231-2.36 0.0865-3.81-0.0681-0.68-0.124-1.28-0.124-1.32 0-0.167 0.196-0.0762 0.575 0.267 3.1 2.81 5.02 3.57 5.92 2.35 0.726-0.987 1.45-3.24 1.9-5.96 0.236-1.41 0.257-1.5 0.341-1.5 0.0368 0 0.511 0.356 1.05 0.792 9.23 7.41 12.5 6.8 20.3-3.78 0.588-0.799 0.607-0.8 0.728-0.0384 1.3 8.2 4.56 9.94 10.5 5.64 0.995-0.718 1.15-0.759 1.15-0.305 0 0.904 0.993 2.14 2.03 2.52 1.93 0.719 4.17 0.128 14.4-3.81 4.17-1.6 9.66-3.62 9.86-3.62 0.148 0 0.0495 0.187-0.799 1.51-6.86 10.7-6.56 11.5 5.32 14.1 0.78 0.168 1.45 0.34 1.49 0.381 0.0943 0.0939 0.116 0.0654-0.948 1.27-3.75 4.24-5.25 6.83-5.26 9.08-9e-3 1.85 0.929 2.94 5.4 6.29 0.527 0.394 0.974 0.729 0.992 0.744 0.104 0.0857-0.304 0.238-1.92 0.714-11.3 3.32-12.9 5.45-9.62 12.2 0.616 1.25 0.664 1.22-0.903 0.73-6.54-2.03-10.3-2.46-12.5-1.41-0.266 0.126-0.471 0.269-0.455 0.316 0.0333 0.0998-0.194-0.0386 3.74 2.28 1.67 0.983 3.1 1.84 3.2 1.9 0.154 0.0989 0.183 0.0897 0.344-0.109 1.99-2.45 5.88-2.21 6.86 0.435 0.18 0.481 0.223 0.515 0.899 0.687 3.71 0.95 3.98 6.56 0.358 7.65-0.572 0.173-0.615 0.216-0.616 0.626-9e-3 2.72-3.15 4.88-5.83 4.01-0.664-0.216-0.618-0.228-1.12 0.299-0.756 0.792-1.91 1.19-2.94 1.02zm1.51-1.4c0.896-0.388 1.22-0.955 0.863-1.51-0.291-0.459-0.2-0.493 0.375-0.138 3.26 2.01 7-0.885 5.77-4.48-0.256-0.747 0.0675-0.621 0.631 0.246 0.598 0.92 2.31-0.359 2.6-1.95 0.353-1.9-1.02-3.49-3.14-3.67-0.67-0.0549-0.67-0.0549-0.376-0.202 0.355-0.178 0.347-0.376-0.0386-0.978-1.2-1.88-4.29-1.63-5.27 0.425-0.345 0.722-0.347 0.719 0.463 0.765 1.09 0.0618 1.58 0.36 0.593 0.363-2.29 8e-3 -4.38 1.95-4.71 4.36-0.0981 0.737-0.0981 0.737-0.231 0.431-0.0732-0.169-0.186-0.366-0.251-0.439-0.0833-0.0937-0.106-0.232-0.0791-0.474 0.0657-0.583-0.46-1.1-0.981-0.973-3.26 0.821-2.93 5.28 0.408 5.44 0.787 0.0362 0.864 0.164 0.198 0.332-0.388 0.0977-0.426 0.265-0.22 0.96 0.413 1.39 2.01 2.09 3.39 1.49zm-60-9.35c2.58-1.47 3.46-1.96 4.22-2.34 0.926-0.473 0.94-0.491 0.71-0.869-0.204-0.335-0.183-0.345-4.33 2.08-2.21 1.29-2.16 1.25-1.93 1.44 0.245 0.211 0.558 0.139 1.34-0.306zm-10.8-3.09c0.0506-0.0506 0.092-0.231 0.092-0.4 0-0.367-0.139-0.284-0.343 0.204-0.128 0.307 0.0219 0.424 0.251 0.196zm7.65-1.05c0.38-0.201 1.23-0.654 1.88-1.01 1.13-0.608 2.97-1.57 3.79-1.98 0.376-0.188 0.376-0.188 0.328-1.08-0.208-3.86-0.731-16.2-0.762-18-0.018-1.03-0.018-1.03 0.557-1.25 0.783-0.296 3.28-1.22 4.01-1.48 0.746-0.267 0.694-0.0707 0.596-2.28-0.0456-1.02-0.106-2.59-0.134-3.49-0.047-1.51-0.0614-1.63-0.19-1.63-0.935 0-11.8 4.47-18.4 7.55-0.76 0.356-0.729 0.0544-0.299 2.93 0.207 1.39 0.421 2.86 0.475 3.27 0.124 0.953 0.0224 0.946 1.67 0.126 2-0.998 4.02-1.92 4.2-1.92 0.107 0 0.127 0.216 0.292 3.03 0.184 3.14 0.719 11.4 0.843 13 0.0603 0.78 0.148 2.06 0.195 2.84 0.0864 1.43 0.12 1.69 0.215 1.68 0.0288-1e-3 0.363-0.167 0.743-0.368zm11.4-1.53c-0.147-0.284-0.275-0.374-0.275-0.194 0 0.133 0.305 0.516 0.364 0.457 0.017-0.017-0.0232-0.135-0.0892-0.263zm0.552-3.39c0.977-0.451 3.75-1.61 4.2-1.76 0.169-0.0548 0.514-0.198 0.767-0.317s0.514-0.218 0.58-0.218c0.366-1.9e-4 0.374-0.047 0.42-2.53 0.0909-4.94 0.18-6.85 0.322-6.96 0.26-0.195 3.01-1.05 3.1-0.961 0.0588 0.0588 0.0579 0.53-3e-3 1.64-0.103 1.88-0.387 8.33-0.388 8.8-5e-4 0.398-0.165 0.425 1.57-0.257 0.717-0.281 1.72-0.666 2.22-0.854 0.506-0.188 1.13-0.424 1.38-0.524 0.253-0.1 0.659-0.258 0.902-0.352 0.534-0.205 0.48 4e-3 0.633-2.45 0.211-3.4 0.493-7.15 0.769-10.2 0.147-1.65 0.355-3.97 0.462-5.18 0.213-2.39 0.636-6.63 0.851-8.53 0.0879-0.776 0.11-1.23 0.0623-1.28-0.104-0.0996-3.16 0.929-6.02 2.03-1.71 0.656-1.58 0.513-1.63 1.74-0.226 4.94-0.462 8.85-0.54 8.92-0.14 0.133-3.13 1.12-3.25 1.07-0.0866-0.0332-0.1-0.171-0.0667-0.675 0.0231-0.348 0.0973-1.72 0.165-3.05 0.0676-1.33 0.183-3.43 0.256-4.68 0.0734-1.24 0.106-2.29 0.0723-2.33-0.104-0.119-4.5 1.41-6.78 2.35-0.614 0.255-0.614 0.255-0.66 5.27-0.0819 8.85-0.0761 21.5 0.0098 21.5 0.0431 0 0.311-0.107 0.594-0.238zm56.6-4e-3c0-0.0489-0.136-0.385-0.302-0.748-2.11-4.6 0.535-8.42 7.24-10.5 1.57-0.479 2.04-0.61 2.41-0.674 1.28-0.221 1.32-0.252 0.787-0.594-0.37-0.237-1.26-0.142-1.91 0.204-0.0907 0.0486-0.763 0.283-1.49 0.52-7.39 2.4-10.1 6.19-7.76 11 0.322 0.664 1.02 1.21 1.02 0.793zm-23-3.52c0.696-0.467 1.43-1.13 1.49-1.34 0.0733-0.27 0.0556-0.258-0.804 0.524-0.43 0.391-0.902 0.805-1.05 0.919-0.412 0.32-0.159 0.249 0.364-0.102zm-7.52-0.839c5.45-0.927 8.9-4.89 9.84-11.3 0.305-2.08 0.959-6.28 1.53-9.85 0.833-5.18 1.08-6.71 1.23-7.51 0.0854-0.481 0.137-0.894 0.114-0.916-0.145-0.145-7.52 1.62-7.76 1.86-0.0511 0.0511-0.141 0.744-0.786 6.03-1.8 14.7-1.69 14.2-3.19 14.8-1.93 0.804-2.49-0.612-1.88-4.72 0.0407-0.274 0.231-1.72 0.422-3.22 0.191-1.5 0.467-3.55 0.611-4.56s0.385-2.7 0.534-3.76c0.149-1.05 0.359-2.49 0.467-3.18 0.271-1.75 0.308-2.15 0.198-2.15-0.326 0-4.68 1.31-6.41 1.93-1.24 0.443-1.3 0.497-1.37 1.15-0.289 2.74-1.53 15.3-1.63 16.5-0.544 6.47 2.51 9.84 8.07 8.9zm12-0.652c12.8-2.77 20.9-9.74 21.7-18.7 0.8-8.49-7.1-12.4-18.3-9.12-1.15 0.339-0.995-0.02-1.43 3.24-0.389 2.92-1.31 9.5-2.07 14.8-0.272 1.9-0.58 4.07-0.683 4.83-0.104 0.759-0.312 2.22-0.463 3.24-0.27 1.83-0.28 2.04-0.0937 1.97 0.0514-0.018 0.663-0.156 1.36-0.307zm6.44-8.21c0-0.354 2.61-13.2 2.7-13.4 0.199-0.243 1.77-0.0271 2.51 0.345 2.72 1.37 2.34 6.11-0.786 9.82-1.31 1.56-4.42 3.8-4.42 3.19zm18.5-8.98c0.424-0.992 0.595-1.3 1.21-2.16 0.739-1.04 1.11-1.49 2.36-2.84 0.898-0.965 0.904-0.995 0.233-1.06-0.459-0.0416-0.459-0.0416-0.692 0.294-0.128 0.185-0.531 0.681-0.894 1.1-0.363 0.422-0.961 1.19-1.33 1.7-0.739 1.04-0.781 1.05-0.937 0.35-0.172-0.775-0.64-1.94-0.739-1.84-0.0135 0.0135 0.0434 0.282 0.126 0.597 0.228 0.863 0.379 2.14 0.379 3.19 0 1 0.0651 1.16 0.279 0.657zm-5.95-11.1c-2.4e-4 -0.0738-0.0338-0.338-0.0747-0.587-0.255-1.55 1.56-5.6 3.58-7.98 0.408-0.48 0.323-0.536-0.399-0.266-0.512 0.192-0.919 0.527-0.991 0.817-0.0288 0.116-0.314 0.605-0.634 1.09-1.77 2.67-2.88 5.79-2.34 6.56 0.189 0.268 0.862 0.55 0.861 0.361zm-31.8 51.6c-0.595-0.702-0.738-0.93-0.899-1.44-0.0535-0.169-0.316-0.864-0.583-1.55-1.29-3.28 0.773-3.83 4.8-1.29 1.16 0.734 1.38 1.75 0.642 3.02-0.711 1.23-0.662 1.19-1.99 1.58-1.46 0.432-1.31 0.456-1.98-0.328zm-45.9-1.73c-0.043-0.0527-0.221-0.646-0.395-1.32-0.363-1.4-0.484-1.01 1.07-3.39 0.444-0.682 0.843-1.3 0.885-1.37 0.504-0.831 2.62-0.281 4.04 1.05 0.401 0.376 0.331 1.74-0.111 2.16-0.382 0.365-1.9 1.7-2.18 1.92-0.105 0.0809-0.866 0.348-1.69 0.594-1.75 0.521-1.51 0.469-1.61 0.351zm4.35-5.05c0-0.0748-0.621-0.381-0.773-0.381-0.135 0-0.0693 0.222 0.1 0.341 0.191 0.134 0.673 0.162 0.673 0.04zm55.8 3.23c-0.0987-0.061-1.63-3.19-3.32-6.77-0.806-1.71-0.761-1.68 1.15 0.682 0.844 1.04 2.09 2.57 2.76 3.39 1.46 1.77 1.41 1.55 0.445 2.16-0.991 0.629-0.931 0.598-1.04 0.532zm0.491-6.88c-2.96-2.9-3.84-3.8-3.49-3.6 0.0571 0.0332 0.535 0.36 1.06 0.725s1.63 1.12 2.45 1.69c2.47 1.69 4.29 3.02 4.29 3.15 1e-3 0.137-0.757 1.2-0.898 1.25-0.0521 0.0215-1.58-1.41-3.42-3.22zm-67.3-2.15c-0.589-0.545-0.628-0.461 0.513-1.09 0.538-0.295 1.22-0.672 1.51-0.838 2.43-1.37 2.88-1.6 2.88-1.49 0 0.0547-3.29 3.08-3.96 3.64-0.335 0.28-0.415 0.261-0.943-0.228zm-5.63-0.641c-0.477-0.68-0.493-0.729-0.277-0.845 0.474-0.254 9.32-3.38 9.54-3.37 0.138 4e-3 -0.178 0.212-0.951 0.627-0.401 0.215-1.25 0.675-1.88 1.02-6.56 3.6-5.9 3.33-6.44 2.57zm98.7-4.5c-2.73-1.61-6.52-3.99-6.52-4.11 0-0.135 8.33 2.2 8.38 2.35 0.0448 0.119-0.952 2.19-1.05 2.19-0.0463-1e-3 -0.412-0.196-0.813-0.431zm-90.6-28.4c-1.03-0.576-2.59-1.44-3.45-1.91-1.97-1.09-1.89-0.906-0.916-1.94 0.97-1.04 0.619-1.18 2.84 1.14 1.03 1.07 2.23 2.32 2.66 2.78 1.1 1.14 1 1.13-1.14-0.0623zm15.5-3.43c-1.63-1.1-4.94-3.41-6.2-4.32-0.936-0.677-0.786-0.672-1.37-0.0462-1.41 1.52-3.41 1.68-4.77 0.38-0.219-0.208-0.365-0.292-0.46-0.262-0.0769 0.0241-0.374 0.132-0.66 0.24-3.28 1.24-6.7-2.26-5.29-5.42 0.196-0.438 0.196-0.438-0.254-0.93-2.67-2.91-0.438-7.69 3.53-7.55 0.679 0.024 0.679 0.024 0.849-0.551 0.998-3.39 4.75-4.95 8-3.33 0.711 0.355 0.711 0.355 1.12-0.0303 2.13-2.01 6.02-0.676 6.32 2.17 0.0494 0.479 0.0508 0.48 0.63 0.677 3.19 1.09 2.68 5.79-0.761 6.91-0.603 0.196-0.601 0.172-0.123 1.29 1.14 2.66 2.92 7.05 3 7.38 0.127 0.541-0.871-1.1-2.8-4.6-2.26-4.1-1.92-3.63-2.37-3.31-0.431 0.314-1.01 0.61-1.45 0.741-0.41 0.122-0.409 0.205 0.0077 0.792 0.677 0.953 5.07 7.59 5.26 7.93 0.121 0.228-0.0156 0.222-0.195-8e-3 -0.0773-0.0992-0.658-0.8-1.29-1.56-1.08-1.3-4.56-5.56-5.25-6.45-0.517-0.661-0.858-0.586-1.16 0.253-0.28 0.775-0.84 1.53-1.49 2.01-0.271 0.201-0.493 0.389-0.493 0.418-2e-6 0.0565 0.376 0.384 3.73 3.24 6.15 5.25 6.66 5.75 3.96 3.93zm-9.2-4.6c0.454-0.208 1.13-0.801 1.13-0.993 0-0.226-0.908-0.827-1.12-0.744-0.104 0.0395-0.316 0.0713-0.471 0.0706-0.502-2e-3 -0.637-0.237-0.188-0.329 0.571-0.117 0.609-0.436 0.0519-0.436-0.386 0-1.44-0.323-1.7-0.523-0.167-0.126-0.132-0.131 0.882-0.13 2.51 3e-3 4.05-1.38 4.5-4.04 0.0784-0.463 0.187-0.383 0.31 0.228 0.0613 0.305 0.364 0.386 0.959 0.259 1.55-0.332 2.57-1.6 2.75-3.43 0.0611-0.605 0.0611-0.605 0.202-0.298 0.199 0.434 0.247 1.57 0.0889 2.12-0.156 0.534-0.101 0.566 0.265 0.155 0.364-0.408 0.816-1.3 0.894-1.77 0.14-0.831 0.459-0.0213 0.366 0.928-0.053 0.537-0.053 0.537 0.202 0.482 2.46-0.535 3.35-3.62 1.42-4.91-0.693-0.46-0.898-0.449-1.24 0.068-0.46 0.693-0.933 0.945-0.681 0.363 1.46-3.37-2.91-5.98-4.89-2.92-0.301 0.464-0.246 0.463-0.935 0.0133-3.67-2.4-8.07 0.629-7.18 4.94 0.0965 0.466 0.0965 0.466-0.27 0.805-0.586 0.543-0.699 0.451-0.24-0.195 0.263-0.37 0.263-0.37 0.124-0.723-0.0762-0.194-0.163-0.497-0.192-0.674-0.0789-0.472-0.879-0.683-1.85-0.486-3.17 0.644-3.86 4.64-1.1 6.34 0.451 0.278 0.528 0.459 0.168 0.39-0.638-0.122-1.06 1.76-0.642 2.86 0.817 2.15 4 2.71 5.45 0.967 0.248-0.299 0.323 0.0352 0.118 0.526-0.376 0.9 1.59 1.66 2.83 1.09zm59.5-4.02c0.188-0.244 1.24-1.42 2.29-2.55 0.57-0.613 1.83-1.98 2.8-3.03 2.12-2.31 3.11-3.34 3.22-3.34 0.199-0.0034 2.27 0.797 2.27 0.878 0 0.0491-0.181 0.225-0.403 0.391-0.221 0.166-1.44 1.1-2.7 2.07-3.32 2.55-3.27 2.51-4.84 3.72-2.6 2.01-2.93 2.24-2.63 1.86zm-7.14-1.06c0-0.108 0.119-0.842 0.266-1.63 0.146-0.788 0.407-2.21 0.579-3.16 0.37-2.03 0.624-2.22 2.2-1.65 0.163 0.059 0.127 0.149-0.988 2.52-1.79 3.82-2.06 4.33-2.06 3.91zm5.48-0.0906c0.0955-0.267 0.416-1.01 2.08-4.81 0.35-0.801 0.997-2.29 1.44-3.3 1.76-4.03 2.7-6.11 2.78-6.15 0.0972-0.0373 3.93 1.63 4.09 1.77 0.0848 0.0791-0.0992 0.332-1.04 1.43-2.6 3.04-6.62 7.92-8.8 10.7-0.576 0.73-0.709 0.822-0.551 0.381z" fill="#d2031a"/><path d="m127 162c-0.259-0.0392-1.44-1.74-1.44-2.07 0-0.448 1.26-1.18 1.81-1.05 0.834 0.197 2.27 1.72 2.04 2.16-0.412 0.771-1.3 1.13-2.41 0.959zm1.25-1.24c0.275-0.223-0.521-1.17-1.07-1.28-0.261-0.0495-0.703 0.239-0.698 0.455 5e-3 0.214 0.733 0.844 1.03 0.894 0.497 0.0822 0.55 0.077 0.735-0.073zm-45.3-0.814c-1.49-0.613-1.68-0.199 1.72-3.71 3.47-3.58 3.34-3.49 2.51-1.76-2.25 4.69-2.86 5.92-2.96 5.94-0.0422 0.0107-0.612-0.201-1.27-0.47zm60-0.323c-1.48-0.247-2.61-1.25-2.91-2.56-0.0417-0.184-0.0942-0.425-0.117-0.534-0.0318-0.154-0.115-0.22-0.369-0.296-2.38-0.712-3.05-4.07-1.19-6.03 0.406-0.429 0.406-0.429-0.307-1.8-0.392-0.755-0.686-1.37-0.652-1.37 0.0339 4.9e-4 0.528 0.502 1.1 1.12 1.1 1.18 1.05 1.15 1.57 0.956 0.282-0.107 0.258-0.167-0.408-1.07-0.729-0.984-2.03-2.83-2.15-3.06-0.206-0.386 0.204 6e-5 1.93 1.82 2.79 2.93 2.6 2.79 2.94 2.13 0.281-0.554 1.1-1.34 1.73-1.67 0.893-0.457 0.855-0.663-0.268-1.46-1.18-0.835-3.15-2.35-4.61-3.52-0.709-0.572-1.36-1.09-1.44-1.15-0.577-0.409-1.68 1.78-1.92 3.79-0.0515 0.443-0.119 0.805-0.149 0.805-0.0307 0-0.413-0.213-0.849-0.473-2.34-1.39-4.26-2-6.18-1.96-2.34 0.0553-2.97 1.2-2.66 4.85 0.128 1.52 0.128 1.57 0.0106 1.57-0.0527-3.4e-4 -0.397-0.224-0.765-0.496-4.68-3.47-7.84-4.88-9.78-4.38-2.57 0.661-5.38 4.28-7.83 10.1-0.387 0.917-0.399 0.919-0.845 0.164-1.68-2.85-2.06-3.42-2.98-4.54-0.957-1.16-1.79-1.75-2.47-1.74-1.39 7e-3 -3.93 2.32-6.97 6.34-0.743 0.982-0.895 1.15-0.958 1.05-0.0213-0.0345-0.129-0.58-0.239-1.21-1.32-7.58-2.53-8.18-8.74-4.35-0.628 0.388-1.22 0.705-1.33 0.705-0.102 0-0.32 0.069-0.485 0.153-0.165 0.0844-0.349 0.153-0.408 0.153-0.0844 0-2-2.18-3.11-3.55-0.167-0.204-0.192-0.326-0.233-1.14-0.0254-0.5-0.0804-0.943-0.122-0.985-0.237-0.237-3.19 0.796-6.89 2.41-1.29 0.563-1.28 0.881-0.0558-2.46 1.86-5.07 2.11-7.41 0.919-8.56-1.12-1.08-5.68-2.81-11.2-4.27-0.438-0.115-0.414-0.177 0.192-0.509 4.12-2.26 6.86-4.05 7.47-4.89 0.855-1.18-0.969-3.72-6.02-8.4-0.651-0.602-0.693-0.569 1.07-0.859 9.93-1.64 10.7-2.3 7.85-7.03-0.573-0.961-0.674-1.18-0.544-1.18 0.0316 3.3e-4 0.698 0.17 1.48 0.378 6.95 1.84 7.79 1.58 6.29-1.96-0.551-1.3-0.577-1.27 0.481-0.637 5 2.98 8 2.82 8.76-0.466 0.197-0.861 0.231-2.36 0.0865-3.81-0.0681-0.68-0.124-1.28-0.124-1.32 0-0.167 0.196-0.0762 0.575 0.267 3.1 2.81 5.02 3.57 5.92 2.35 0.726-0.987 1.45-3.24 1.9-5.96 0.236-1.41 0.257-1.5 0.341-1.5 0.0368 0 0.511 0.356 1.05 0.792 9.23 7.41 12.5 6.8 20.3-3.78 0.588-0.799 0.607-0.8 0.728-0.0384 1.3 8.2 4.56 9.94 10.5 5.64 0.995-0.718 1.15-0.759 1.15-0.305 0 0.904 0.993 2.14 2.03 2.52 1.93 0.719 4.17 0.128 14.4-3.81 4.17-1.6 9.66-3.62 9.86-3.62 0.148 0 0.0495 0.187-0.799 1.51-6.86 10.7-6.56 11.5 5.32 14.1 0.78 0.168 1.45 0.34 1.49 0.381 0.0943 0.0939 0.116 0.0654-0.948 1.27-3.75 4.24-5.25 6.83-5.26 9.08-9e-3 1.85 0.929 2.94 5.4 6.29 0.527 0.394 0.974 0.729 0.992 0.744 0.104 0.0857-0.304 0.238-1.92 0.714-11.3 3.32-12.9 5.45-9.62 12.2 0.616 1.25 0.664 1.22-0.903 0.73-6.54-2.03-10.3-2.46-12.5-1.41-0.266 0.126-0.471 0.269-0.455 0.316 0.0333 0.0998-0.194-0.0386 3.74 2.28 1.67 0.983 3.1 1.84 3.2 1.9 0.154 0.0989 0.183 0.0897 0.344-0.109 1.99-2.45 5.88-2.21 6.86 0.435 0.18 0.481 0.223 0.515 0.899 0.687 3.71 0.95 3.98 6.56 0.358 7.65-0.572 0.173-0.615 0.216-0.616 0.626-9e-3 2.72-3.15 4.88-5.83 4.01-0.664-0.216-0.618-0.228-1.12 0.299-0.756 0.792-1.91 1.19-2.94 1.02zm1.51-1.4c0.896-0.388 1.22-0.955 0.863-1.51-0.291-0.459-0.2-0.493 0.375-0.138 3.26 2.01 7-0.885 5.77-4.48-0.256-0.747 0.0675-0.621 0.631 0.246 0.598 0.92 2.31-0.359 2.6-1.95 0.353-1.9-1.02-3.49-3.14-3.67-0.67-0.0549-0.67-0.0549-0.376-0.202 0.355-0.178 0.347-0.376-0.0386-0.978-1.2-1.88-4.29-1.63-5.27 0.425-0.345 0.722-0.347 0.719 0.463 0.765 1.09 0.0618 1.58 0.36 0.593 0.363-2.29 8e-3 -4.38 1.95-4.71 4.36-0.0981 0.737-0.0981 0.737-0.231 0.431-0.0732-0.169-0.186-0.366-0.251-0.439-0.0833-0.0937-0.106-0.232-0.0791-0.474 0.0657-0.583-0.46-1.1-0.981-0.973-3.26 0.821-2.93 5.28 0.408 5.44 0.787 0.0362 0.864 0.164 0.198 0.332-0.388 0.0977-0.426 0.265-0.22 0.96 0.413 1.39 2.01 2.09 3.39 1.49zm-49.7-6.44c4.96-6.43 8.37-6.54 11.9-0.373 0.406 0.715 0.39 0.713 0.654 0.115 4.13-9.33 9.02-11 16.3-5.57 0.386 0.29 0.718 0.527 0.736 0.527 0.0187 0 0.0535-0.457 0.0773-1.02 0.126-2.96 1.95-4.49 5.09-4.25 0.712 0.0548 0.696-0.207-0.0714-1.13-0.294-0.352-0.312-0.404-0.365-1.05-0.0497-0.599-0.0941-0.748-0.38-1.26-0.414-0.75-0.472-0.768-0.912-0.291-0.195 0.211-0.475 0.446-0.622 0.522-0.147 0.0756-0.396 0.248-0.554 0.382-0.158 0.135-0.451 0.328-0.652 0.429-0.201 0.101-0.6 0.318-0.888 0.482s-0.729 0.362-0.98 0.44c-0.252 0.0783-0.517 0.173-0.589 0.211-0.329 0.173-0.761 0.181-0.804 0.0153-0.0427-0.163-0.274-0.214-0.405-0.0883-0.0401 0.0386-0.175 0.0817-0.3 0.0959-0.235 0.0267-0.286-0.0322-0.49-0.562-0.0736-0.191-0.0973-0.199-0.371-0.135-3.64 0.862-7.22-0.309-8.87-2.9-0.53-0.83-0.766-0.779-0.806 0.175-0.0273 0.662-0.0273 0.662 0.173 0.531 0.192-0.126 0.2-0.125 0.2 0.0198 0 0.257-0.163 0.634-0.274 0.634-0.279 0-0.241 0.909 0.0444 1.05 0.197 0.0971 0.38 1.18 0.228 1.35-0.0671 0.0752-1.05 0.514-1.76 0.787-0.274 0.105-0.982 0.394-1.57 0.643-3.48 1.46-4.42 1.87-4.66 2.03-0.944 0.597-1.44 0.481-2.02-0.475-0.276-0.454-0.419-0.516-0.776-0.336-0.159 0.0801-0.375 0.172-0.48 0.204-0.105 0.0322-0.399 0.153-0.652 0.269-0.253 0.116-0.788 0.357-1.19 0.535-0.834 0.371-2.93 1.35-4.2 1.96-0.966 0.466-0.917 0.467-1.25-0.0304-0.134-0.198-0.393-0.523-0.576-0.721-0.476-0.517-0.504-2.07-0.0303-1.64 0.205 0.186 0.201 0.0735-0.0105-0.264-0.132-0.211-0.174-0.239-0.197-0.133-0.0301 0.139-0.591-0.407-0.86-0.836-0.0625-0.0999-0.156-0.182-0.208-0.182-0.23 0-0.244-0.415-0.251-7.79-0.0039-4.13-0.022-7.52-0.0404-7.54-0.0912-0.0912-1.21 0.494-1.31 0.684-0.058 0.112-0.159 0.224-0.223 0.249-0.213 0.0816-0.132 0.74 0.0904 0.74 0.13 0 0.0737 0.381-0.0688 0.469-0.0534 0.033-0.0509 0.524 0.0075 1.53 0.0473 0.817 0.119 2.81 0.16 4.44 0.0809 3.23 0.191 6.05 0.308 7.9 0.0415 0.654 0.0753 1.43 0.0752 1.74-1.99e-4 0.489 0.0281 0.594 0.268 0.992 0.164 0.273 0.268 0.545 0.268 0.702 0 0.141 0.0431 0.269 0.0959 0.284 1.63 0.468 2.74 2.11 3.32 4.93 0.246 1.19 0.213 1.17 0.735 0.488zm-10.4-2.87c2.15-1.24 3.76-2.13 4.44-2.45 0.832-0.392 0.872-0.442 0.67-0.832-0.191-0.369-0.309-0.314-4.45 2.1-2.21 1.29-2.16 1.25-1.93 1.44 0.241 0.207 0.566 0.139 1.27-0.265zm-10.1-3.46c1.01-0.506 2.39-1.05 3.35-1.31 0.389-0.108 0.773-0.216 0.852-0.239 0.157-0.0466 0.146-1.17-0.035-3.82-0.114-1.67-0.454-7.56-0.455-7.9-0.0028-0.607-0.398-0.511-2.17 0.525-2.15 1.25-1.82 1.27-3.14-0.173-0.265-0.29-0.685-1.82-0.933-3.4-0.0682-0.433-0.174-1.06-0.236-1.4-0.0614-0.337-0.215-1.36-0.341-2.26-0.126-0.907-0.265-1.87-0.308-2.15-0.0433-0.274-0.115-0.802-0.159-1.17-0.0438-0.371-0.113-0.85-0.154-1.06-0.229-1.21-0.0936-1.31 4.45-3.32 2.94-1.31 6.52-2.85 7.35-3.18 0.194-0.0764 0.836-0.337 1.43-0.58 2.53-1.04 5.33-2.08 6.79-2.53 0.316-0.097 0.79-0.249 1.05-0.337 0.76-0.257 0.884-0.231 1.26 0.261 0.175 0.232 0.329 0.422 0.341 0.422 0.0123 0 0.707-0.254 1.54-0.565 2.59-0.964 5.91-2.04 6.27-2.04 0.065 0 0.28 0.224 0.477 0.498 0.386 0.536 0.484 0.601 0.484 0.319 0-0.404 2.87-1.63 7.05-3.01 3.17-1.05 3.1-1.04 3.66-0.372 1.02 1.22 0.88 1.16 1.81 0.812 0.456-0.17 0.939-0.341 1.07-0.379 0.135-0.0387 0.935-0.28 1.78-0.537 1.63-0.495 4.18-1.16 4.46-1.16 0.165-4e-4 0.263 0.13 0.895 1.2 0.18 0.303 0.231 0.346 0.289 0.243 0.111-0.199 2.77-0.995 5.28-1.58 2.06-0.481 2.64-0.604 3.68-0.779 1.26-0.213 1.3-0.246 0.61-0.457-0.988-0.3-2.01-1.07-2.37-1.78-0.214-0.42-0.242-0.419-0.917 0.0402-5.24 3.57-9.74 1.82-11-4.27-0.0965-0.48-0.142-0.524-0.294-0.281-2.67 4.28-7.51 7.73-10.4 7.38-2.76-0.332-4.97-1.37-8.42-3.96-0.561-0.421-1.03-0.752-1.04-0.737s-0.0999 0.407-0.196 0.871c-1.23 5.94-3.41 7.41-7.15 4.83-0.699-0.481-0.676-0.492-0.676 0.34 0 4.69-3.64 6.64-8.18 4.4-0.661-0.327-0.647-0.332-0.548 0.209 0.397 2.18-2.19 2.78-6.52 1.52-0.698-0.203-0.695-0.208-0.332 0.52 1.72 3.44-0.185 5.02-7.54 6.23-1.29 0.214-1.29 0.214-0.614 0.848 6.03 5.63 6 7.81-0.146 11.3-0.804 0.453-1.29 0.803-1.19 0.856 0.056 0.0297 0.464 0.147 0.907 0.262 9.17 2.36 10.8 5.02 7.61 12.4-0.508 1.17-0.546 1.13 0.64 0.541zm7.71-1.07c1.54-0.832 4.94-2.6 5.16-2.68 0.137-0.051 0.143-0.116 0.0961-1.03-0.254-4.97-0.731-16.2-0.761-18-0.018-1.03-0.018-1.03 0.557-1.25 0.783-0.296 3.28-1.22 4.01-1.48 0.746-0.267 0.694-0.0707 0.596-2.28-0.0456-1.02-0.106-2.59-0.134-3.49-0.047-1.51-0.0614-1.63-0.19-1.63-0.935 0-11.8 4.47-18.4 7.55-0.76 0.356-0.729 0.0544-0.299 2.93 0.207 1.39 0.421 2.86 0.475 3.27 0.124 0.953 0.0224 0.946 1.67 0.126 2-0.998 4.02-1.92 4.2-1.92 0.107 0 0.127 0.216 0.292 3.03 0.184 3.14 0.719 11.4 0.843 13 0.0603 0.78 0.148 2.06 0.195 2.84 0.123 2.03-0.0653 1.92 1.7 0.969zm52.6-1.72c0.113-0.613 0.65-1.82 0.998-2.24 0.481-0.585 0.428-0.636-0.357-0.342-0.155 0.0581-0.724 0.212-1.27 0.342-0.541 0.13-1.26 0.32-1.6 0.421-0.337 0.101-0.852 0.238-1.14 0.303-0.808 0.181-0.8 0.204 0.174 0.464 0.72 0.193 2.39 0.91 2.76 1.18 0.295 0.22 0.374 0.196 0.434-0.129zm-41.2-2.93c1.04-0.452 2.99-1.25 4.42-1.82 0.696-0.276 1.27-0.508 1.28-0.515 0.0091-8e-3 0.0366-1.08 0.061-2.39 0.0938-5.01 0.181-6.89 0.324-7 0.26-0.195 3.01-1.05 3.1-0.961 0.0588 0.0588 0.0579 0.53-3e-3 1.64-0.102 1.86-0.387 8.33-0.388 8.79-5.4e-4 0.421-0.0989 0.438 1.88-0.331 0.928-0.361 2.34-0.901 3.14-1.2 1.75-0.654 1.52-0.265 1.68-2.8 0.226-3.59 0.492-7.13 0.775-10.3 0.149-1.67 0.358-4.01 0.465-5.22 0.213-2.39 0.636-6.63 0.851-8.53 0.0879-0.776 0.11-1.23 0.0623-1.28-0.104-0.0996-3.16 0.929-6.02 2.03-1.71 0.656-1.58 0.513-1.63 1.74-0.226 4.94-0.462 8.85-0.54 8.92-0.14 0.133-3.13 1.12-3.25 1.07-0.0866-0.0332-0.1-0.171-0.0667-0.675 0.0231-0.348 0.0973-1.72 0.165-3.05 0.0676-1.33 0.183-3.43 0.256-4.68 0.0734-1.24 0.106-2.29 0.0723-2.33-0.104-0.119-4.5 1.41-6.78 2.35-0.614 0.255-0.614 0.255-0.66 5.27-0.0869 9.4-0.0767 21.5 0.0181 21.5 0.0477 0 0.401-0.136 0.786-0.303zm56.4 0.0611c0-0.0489-0.136-0.385-0.302-0.748-1.97-4.3-0.163-7.46 5.61-9.82 1.24-0.505 3.29-1.18 4.01-1.31 1.41-0.261 1.39-0.24 0.566-0.765-1.25-0.796-3.3-2.73-3.68-3.47-0.199-0.391-0.308-0.341-0.462 0.215-0.179 0.647-1.13 2.74-1.51 3.32-0.176 0.27-0.32 0.535-0.32 0.587 0 0.0829-0.599 0.937-1.18 1.68-0.0986 0.127-0.538 0.472-0.976 0.767-1.32 0.891-2.52 2.07-2.85 2.8-0.232 0.512-0.429 0.745-0.886 1.05-0.227 0.151-0.523 0.371-0.659 0.49-0.222 0.195-0.742 0.53-1.73 1.11-0.19 0.112-0.545 0.323-0.789 0.469-0.62 0.37-2.96 1.53-3.22 1.6-0.378 0.0946-0.154 0.166 0.687 0.218 1.46 0.0909 3.82 0.571 5.85 1.19 0.743 0.226 0.908 0.292 1.38 0.552 0.306 0.168 0.46 0.188 0.46 0.0594zm-23.2-3.3c0.261-0.14 1.55-1.15 1.63-1.29 0.395-0.625 0.202-0.555-0.676 0.244-0.43 0.391-0.902 0.805-1.05 0.919-0.269 0.209-0.209 0.287 0.0962 0.123zm-7.22-1.03c5.43-0.923 8.87-4.9 9.81-11.3 0.305-2.08 0.959-6.28 1.53-9.85 0.833-5.18 1.08-6.71 1.23-7.51 0.0854-0.481 0.137-0.894 0.114-0.916-0.145-0.145-7.52 1.62-7.76 1.86-0.0511 0.0511-0.141 0.744-0.786 6.03-1.8 14.7-1.69 14.2-3.19 14.8-1.93 0.804-2.49-0.612-1.88-4.72 0.0407-0.274 0.231-1.72 0.422-3.22 0.191-1.5 0.467-3.55 0.611-4.56s0.385-2.7 0.534-3.76c0.149-1.05 0.359-2.49 0.467-3.18 0.271-1.75 0.308-2.15 0.198-2.15-0.326 0-4.68 1.31-6.41 1.93-1.24 0.443-1.3 0.497-1.37 1.15-0.289 2.74-1.53 15.3-1.63 16.5-0.44 5.23 1.22 8.12 5.15 9 0.397 0.0882 2.29 0.0428 2.96-0.071zm13-0.887c11.9-2.75 19.8-9.81 20.6-18.5 0.8-8.49-7.1-12.4-18.3-9.12-1.15 0.339-0.995-0.02-1.43 3.24-0.389 2.92-1.31 9.5-2.07 14.8-0.272 1.9-0.58 4.07-0.683 4.83-0.104 0.759-0.312 2.22-0.463 3.24-0.151 1.02-0.257 1.89-0.234 1.93 0.0487 0.0787 0.782-0.0542 2.57-0.467zm5.37-8.01c0-0.354 2.61-13.2 2.7-13.4 0.199-0.243 1.77-0.0271 2.51 0.345 2.72 1.37 2.34 6.11-0.786 9.82-1.31 1.56-4.42 3.8-4.42 3.19zm5.05-6.72c0.268-0.652 0.297-0.826 0.138-0.826-0.176 0-0.254 0.164-0.384 0.813-0.192 0.959-0.143 0.962 0.246 0.0133zm13.5-2.26c0.651-1.55 1.66-2.95 3.61-5.04 0.861-0.92 0.867-0.951 0.207-1.01-0.249-0.0227-0.866-0.138-1.37-0.257-0.506-0.119-1.06-0.238-1.23-0.265-0.461-0.0738-2.3-0.567-2.94-0.787-0.664-0.23-0.721-0.204-0.411 0.184 1.12 1.4 1.84 3.95 1.85 6.49 3e-3 1.04 0.0671 1.19 0.279 0.69zm-5.95-11.1c-2.4e-4 -0.0738-0.0338-0.338-0.0747-0.587-0.258-1.58 1.47-5.41 3.65-8.08 0.393-0.483 0.238-0.448-1.89 0.423-0.612 0.25-1.89 0.758-2.84 1.13-0.949 0.371-2.45 0.959-3.34 1.31-0.886 0.349-2.15 0.843-2.8 1.1-4.57 1.79-7.02 2.47-8.95 2.47-0.352 0-0.64 0.0165-0.64 0.0367 0 0.208 0.972 1.42 1.11 1.39 4.1-1.16 8.09-1.46 11.1-0.844 1.47 0.297 3.68 1.07 3.79 1.32 0.0948 0.224 0.832 0.53 0.831 0.345zm-31.8 51.6c-0.595-0.702-0.738-0.93-0.899-1.44-0.0535-0.169-0.316-0.864-0.583-1.55-1.29-3.28 0.773-3.83 4.8-1.29 1.16 0.734 1.38 1.75 0.642 3.02-0.711 1.23-0.662 1.19-1.99 1.58-1.46 0.432-1.31 0.456-1.98-0.328zm0.558-0.767c-3.6e-4 -0.453-0.288-1.01-0.389-0.748-0.105 0.267-0.0763 0.507 0.0965 0.814 0.221 0.392 0.293 0.376 0.292-0.0662zm1.06-0.829c1.04-0.286 1.05-0.29 1.41-0.995 0.406-0.793 0.54-0.642-1.5-1.68-2.77-1.41-2.88-0.993-0.688 2.62 0.124 0.205 0.208 0.21 0.78 0.0534zm-47.5-0.13c-0.043-0.0527-0.221-0.646-0.395-1.32-0.363-1.4-0.484-1.01 1.07-3.39 0.444-0.682 0.843-1.3 0.885-1.37 0.504-0.831 2.62-0.281 4.04 1.05 0.401 0.376 0.331 1.74-0.111 2.16-0.382 0.365-1.9 1.7-2.18 1.92-0.105 0.0809-0.866 0.348-1.69 0.594-1.75 0.521-1.51 0.469-1.61 0.351zm1.73-2.25c0.885-0.291 1.16-0.422 1.71-0.807 0.359-0.253 0.833-0.585 1.05-0.737 0.576-0.396 0.244-1.48-0.453-1.48-0.0523 0-0.224-0.0893-0.381-0.198-0.278-0.193-0.303-0.196-0.848-0.114-0.656 0.0991-0.648 0.0916-1.37 1.28-0.27 0.443-0.595 0.964-0.721 1.16-0.424 0.651-0.414 0.621-0.286 0.947 0.144 0.366 0.0311 0.37 1.3-0.0471zm58.5 0.435c-0.0987-0.061-1.63-3.19-3.32-6.77-0.806-1.71-0.761-1.68 1.15 0.682 0.844 1.04 2.09 2.57 2.76 3.39 1.46 1.77 1.41 1.55 0.445 2.16-0.991 0.629-0.931 0.598-1.04 0.532zm0.491-6.88c-2.96-2.9-3.84-3.8-3.49-3.6 0.0571 0.0332 0.535 0.36 1.06 0.725s1.63 1.12 2.45 1.69c2.47 1.69 4.29 3.02 4.29 3.15 1e-3 0.137-0.757 1.2-0.898 1.25-0.0521 0.0215-1.58-1.41-3.42-3.22zm-67.3-2.15c-0.589-0.545-0.628-0.461 0.513-1.09 0.538-0.295 1.22-0.672 1.51-0.838 2.43-1.37 2.88-1.6 2.88-1.49 0 0.0547-3.29 3.08-3.96 3.64-0.335 0.28-0.415 0.261-0.943-0.228zm-5.63-0.641c-0.477-0.68-0.493-0.729-0.277-0.845 0.474-0.254 9.32-3.38 9.54-3.37 0.138 4e-3 -0.178 0.212-0.951 0.627-0.401 0.215-1.25 0.675-1.88 1.02-6.56 3.6-5.9 3.33-6.44 2.57zm98.7-4.5c-2.73-1.61-6.52-3.99-6.52-4.11 0-0.135 8.33 2.2 8.38 2.35 0.0448 0.119-0.952 2.19-1.05 2.19-0.0463-1e-3 -0.412-0.196-0.813-0.431zm-90.6-28.4c-1.03-0.576-2.59-1.44-3.45-1.91-1.97-1.09-1.89-0.906-0.916-1.94 0.97-1.04 0.619-1.18 2.84 1.14 1.03 1.07 2.23 2.32 2.66 2.78 1.1 1.14 1 1.13-1.14-0.0623zm15.5-3.43c-1.63-1.1-4.94-3.41-6.2-4.32-0.936-0.677-0.786-0.672-1.37-0.0462-1.41 1.52-3.41 1.68-4.77 0.38-0.219-0.208-0.365-0.292-0.46-0.262-0.0769 0.0241-0.374 0.132-0.66 0.24-3.28 1.24-6.7-2.26-5.29-5.42 0.196-0.438 0.196-0.438-0.254-0.93-2.67-2.91-0.438-7.69 3.53-7.55 0.679 0.024 0.679 0.024 0.849-0.551 0.998-3.39 4.75-4.95 8-3.33 0.711 0.355 0.711 0.355 1.12-0.0303 2.13-2.01 6.02-0.676 6.32 2.17 0.0494 0.479 0.0508 0.48 0.63 0.677 3.19 1.09 2.68 5.79-0.761 6.91-0.603 0.196-0.601 0.172-0.123 1.29 1.14 2.66 2.92 7.05 3 7.38 0.127 0.541-0.871-1.1-2.8-4.6-2.26-4.1-1.92-3.63-2.37-3.31-0.431 0.314-1.01 0.61-1.45 0.741-0.41 0.122-0.409 0.205 0.0077 0.792 0.677 0.953 5.07 7.59 5.26 7.93 0.121 0.228-0.0156 0.222-0.195-8e-3 -0.0773-0.0992-0.658-0.8-1.29-1.56-1.08-1.3-4.56-5.56-5.25-6.45-0.517-0.661-0.858-0.586-1.16 0.253-0.28 0.775-0.84 1.53-1.49 2.01-0.271 0.201-0.493 0.389-0.493 0.418-2e-6 0.0565 0.376 0.384 3.73 3.24 6.15 5.25 6.66 5.75 3.96 3.93zm-9.2-4.6c0.454-0.208 1.13-0.801 1.13-0.993 0-0.226-0.908-0.827-1.12-0.744-0.104 0.0395-0.316 0.0713-0.471 0.0706-0.502-2e-3 -0.637-0.237-0.188-0.329 0.571-0.117 0.609-0.436 0.0519-0.436-0.386 0-1.44-0.323-1.7-0.523-0.167-0.126-0.132-0.131 0.882-0.13 2.51 3e-3 4.05-1.38 4.5-4.04 0.0784-0.463 0.187-0.383 0.31 0.228 0.0613 0.305 0.364 0.386 0.959 0.259 1.55-0.332 2.57-1.6 2.75-3.43 0.0611-0.605 0.0611-0.605 0.202-0.298 0.199 0.434 0.247 1.57 0.0889 2.12-0.156 0.534-0.101 0.566 0.265 0.155 0.364-0.408 0.816-1.3 0.894-1.77 0.14-0.831 0.459-0.0213 0.366 0.928-0.053 0.537-0.053 0.537 0.202 0.482 2.46-0.535 3.35-3.62 1.42-4.91-0.693-0.46-0.898-0.449-1.24 0.068-0.46 0.693-0.933 0.945-0.681 0.363 1.46-3.37-2.91-5.98-4.89-2.92-0.301 0.464-0.246 0.463-0.935 0.0133-3.67-2.4-8.07 0.629-7.18 4.94 0.0965 0.466 0.0965 0.466-0.27 0.805-0.586 0.543-0.699 0.451-0.24-0.195 0.263-0.37 0.263-0.37 0.124-0.723-0.0762-0.194-0.163-0.497-0.192-0.674-0.0789-0.472-0.879-0.683-1.85-0.486-3.17 0.644-3.86 4.64-1.1 6.34 0.451 0.278 0.528 0.459 0.168 0.39-0.638-0.122-1.06 1.76-0.642 2.86 0.817 2.15 4 2.71 5.45 0.967 0.248-0.299 0.323 0.0352 0.118 0.526-0.376 0.9 1.59 1.66 2.83 1.09zm59.5-4.02c0.188-0.244 1.24-1.42 2.29-2.55 0.57-0.613 1.83-1.98 2.8-3.03 2.12-2.31 3.11-3.34 3.22-3.34 0.199-0.0034 2.27 0.797 2.27 0.878 0 0.0491-0.181 0.225-0.403 0.391-0.221 0.166-1.44 1.1-2.7 2.07-3.32 2.55-3.27 2.51-4.84 3.72-2.6 2.01-2.93 2.24-2.63 1.86zm-7.14-1.06c0-0.108 0.119-0.842 0.266-1.63 0.146-0.788 0.407-2.21 0.579-3.16 0.37-2.03 0.624-2.22 2.2-1.65 0.163 0.059 0.127 0.149-0.988 2.52-1.79 3.82-2.06 4.33-2.06 3.91zm5.48-0.0906c0.0955-0.267 0.416-1.01 2.08-4.81 0.35-0.801 0.997-2.29 1.44-3.3 1.76-4.03 2.7-6.11 2.78-6.15 0.0972-0.0373 3.93 1.63 4.09 1.77 0.0848 0.0791-0.0992 0.332-1.04 1.43-2.6 3.04-6.62 7.92-8.8 10.7-0.576 0.73-0.709 0.822-0.551 0.381z" fill="#9c0a0d"/><path d="m127 162c-0.254-0.212-1.22-1.75-1.22-1.94 0-0.0484 0.262-0.322 0.581-0.609 0.918-0.821 1.99-0.389 3 1.22 0.5 0.791-1.6 1.98-2.36 1.34zm1.47-0.979c0.389-0.199 0.389-0.202-0.159-0.839-0.769-0.893-1.84-0.941-1.84-0.0811 0 0.269 0.817 0.949 1.21 1 0.201 0.028 0.393 0.0555 0.426 0.0612 0.0333 6e-3 0.197-0.0595 0.364-0.145zm-45.3-1.01c-1.43-0.577-1.65-0.115 1.7-3.58 2.44-2.52 3.08-3.14 2.94-2.87-0.11 0.215-1.82 3.74-2.5 5.15-0.976 2.03-0.708 1.87-2.14 1.29zm59.5-0.411c-0.862-0.209-1.67-0.818-2.12-1.6-0.192-0.333-0.268-0.582-0.423-1.39-0.0214-0.112-0.125-0.197-0.319-0.26-2.47-0.799-3.12-4.02-1.22-6.04 0.395-0.418 0.395-0.418-0.247-1.66-0.644-1.24-0.216-1.07 0.911 0.368 0.34 0.434 0.391 0.452 0.849 0.303 0.505-0.165 0.538-0.0861-0.805-1.97-1.85-2.58-1.83-2.58 0.812 0.172 2.22 2.31 2.11 2.24 2.41 1.63 0.294-0.605 1.08-1.37 1.77-1.73 0.499-0.259 0.552-0.31 0.602-0.572 0.0648-0.342 0.139-0.271-1.69-1.6-1.46-1.06-2.84-2.13-4.24-3.27-1.18-0.964-1.18-0.965-1.71-0.387-0.706 0.77-1.12 1.88-1.29 3.46-0.0873 0.814-0.0132 0.798-0.99 0.218-2.29-1.36-3.97-1.91-5.88-1.92-2.69-0.0174-3.32 1.12-2.94 5.36 0.107 1.2 0.196 1.18-1.06 0.286-5.48-3.91-8.16-4.9-10.3-3.81-2.33 1.18-4.74 4.51-6.88 9.52-0.455 1.06-0.506 1.1-0.808 0.537-2.2-4.07-4.23-6.38-5.6-6.38-1.39 0-3.8 2.18-6.92 6.27-0.971 1.27-0.936 1.26-1.05 0.444-1.17-8.11-3.02-8.96-9.68-4.44-0.176 0.12-0.411 0.218-0.521 0.218-0.11 0-0.335 0.069-0.501 0.153-0.454 0.232-0.415 0.262-1.84-1.42-1.94-2.29-1.84-2.14-1.84-2.56 0-0.708-0.099-1.53-0.189-1.56-0.336-0.129-3.34 0.913-6.16 2.14-0.914 0.396-1.67 0.687-1.69 0.647-0.0143-0.0406 0.147-0.531 0.359-1.09 2.58-6.81 2.89-9.25 1.29-10.5-1.36-1.02-5.66-2.63-10.5-3.92-0.892-0.239-0.907-0.255-0.46-0.505 4.98-2.78 7.29-4.33 7.68-5.14 0.549-1.16-1.28-3.73-5.38-7.57-0.686-0.643-1.23-1.18-1.22-1.2 0.0172-0.0173 0.924-0.182 2.01-0.367 9.41-1.59 10.2-2.31 7.41-6.92-0.796-1.33-0.878-1.25 0.869-0.79 6.95 1.84 7.84 1.55 6.28-2.09-0.192-0.45-0.349-0.835-0.349-0.857 0-0.0967 0.198-4e-3 1.08 0.51 6.46 3.74 9.34 2.13 8.58-4.83-0.126-1.16-0.134-1.15 0.591-0.506 2.46 2.2 4.23 3.1 5.19 2.64 1.01-0.487 1.94-2.89 2.54-6.56 0.111-0.675 0.228-1.25 0.258-1.29 0.0304-0.0328 0.553 0.34 1.16 0.828 8.93 7.16 12.4 6.6 19.7-3.15 1.03-1.39 1.03-1.38 1.08-1.33 0.0203 0.0203 0.106 0.467 0.191 0.992 1.28 7.9 4.62 9.45 10.8 4.99 0.356-0.257 0.661-0.454 0.676-0.438 0.0156 0.0156 0.0807 0.23 0.145 0.477 0.982 3.79 3.4 3.6 15.9-1.23 5.26-2.02 10.3-3.86 10.4-3.78 0.0172 0.0172-0.246 0.466-0.585 0.997-7.13 11.2-6.9 11.9 4.78 14.5 0.967 0.214 1.78 0.409 1.8 0.432 0.0568 0.0568 0.0202 0.103-0.981 1.23-6.97 7.87-6.99 10-0.141 15.2 0.664 0.498 1.23 0.936 1.25 0.973 0.0227 0.0367-0.245 0.152-0.594 0.257-2.34 0.702-3.07 0.93-4.16 1.3-8.47 2.88-9.78 4.98-6.88 11 0.318 0.665 0.554 1.23 0.525 1.26-0.0596 0.0596-0.125 0.0424-1.9-0.501-6.11-1.87-9.87-2.24-12-1.17-0.691 0.354-1.04 0.0816 3.72 2.89 3.24 1.91 3.08 1.84 3.36 1.42 1.56-2.36 5.63-1.96 6.69 0.656 0.182 0.448 0.182 0.448 0.716 0.569 3.56 0.812 4.23 5.77 0.991 7.39-0.298 0.149-0.598 0.271-0.667 0.271-0.305 0-0.467 0.222-0.467 0.64 0 2.71-3.06 4.75-5.84 3.89-0.589-0.181-0.589-0.181-1.01 0.273-0.872 0.942-2.08 1.29-3.38 0.977zm1.68-1.07c0.954-0.291 1.63-1.1 1.31-1.55-0.248-0.349-0.162-0.398 0.246-0.14 3.02 1.91 6.76-0.804 5.88-4.27-0.189-0.75 0.0121-0.729 0.424 0.0435 0.196 0.368 0.473 0.382 1.13 0.0561 2.77-1.39 1.84-5.43-1.36-5.86-0.585-0.0791-0.637-0.0988-0.483-0.183 0.499-0.274-0.299-1.47-1.32-1.97-1.6-0.791-3.5-0.104-4.28 1.54-0.306 0.654-0.272 0.725 0.346 0.725 0.57 0 0.971 0.0672 0.971 0.163 0 0.0369-0.115 0.0671-0.256 0.0671-2.2 0-4.38 2.08-4.69 4.47-0.0473 0.367-0.0473 0.367-0.242 0.0803-0.16-0.235-0.187-0.345-0.15-0.611 0.0661-0.482-0.509-1.13-0.938-1.06-3.36 0.573-3.21 5.36 0.178 5.63 0.616 0.0474 0.616 0.0474 0.271 0.168-0.345 0.121-0.345 0.121-0.342 0.535 0.0101 1.54 1.71 2.66 3.3 2.18zm-49.5-6.27c5.06-6.66 8.38-6.83 11.9-0.611 0.501 0.882 0.459 0.901 1.11-0.526 4.05-8.84 8.83-10.3 16.1-4.75 0.784 0.597 0.741 0.637 0.783-0.711 0.134-4.32 4.72-5.61 9.5-2.67 0.502 0.309 0.588 0.3 0.684-0.0713 0.0438-0.169 0.118-0.453 0.164-0.633 0.708-2.72 3.28-4.26 6.8-4.05 2.3 0.133 6.23 0.988 7.44 1.62 0.832 0.434 0.922 0.308 0.482-0.671-2.34-5.2 0.883-8.81 9.92-11.1 1.02-0.261 1.03-0.288 0.335-0.792-3.83-2.76-4.66-4.19-3.83-6.61 0.207-0.602 0.371-1.48 0.469-2.51 0.076-0.798 0.109-0.92 0.362-1.34 0.862-1.44 2.02-2.94 3.33-4.32 0.796-0.835 0.827-0.755-0.396-1.01-2.7-0.56-4.06-0.895-5.19-1.28-1.06-0.358-1.05-0.36-0.536 0.374 1.58 2.25 2.33 6.32 1.66 9.06-0.0411 0.169-0.114 0.566-0.162 0.882-0.0478 0.316-0.152 0.696-0.232 0.844-0.0799 0.148-0.28 0.665-0.444 1.15-2.67 7.89-10.5 13.6-23 16.8-2.85 0.719-2.63 0.735-2.71-0.187-0.0537-0.625-0.585-1.85-0.881-2.03-0.106-0.0657-0.0898-0.446 0.0515-1.19 0.27-1.42 0.243-1.47-0.368-0.805-0.212 0.232-0.418 0.422-0.457 0.422-0.0395 0-0.424 0.317-0.855 0.703-5.3 4.76-12.4 4.36-15-0.838-0.296-0.582-0.334-0.407-0.444 2.08-0.0549 1.24-0.0984 1.36-0.551 1.47-0.218 0.0534-2.51 1.01-6.56 2.74-2.88 1.23-2.68 1.21-2.76 0.266-0.0699-0.776-0.116-0.973-0.228-0.973-0.134 0-3.66 1.58-5.95 2.66-0.485 0.23-1.05 0.491-1.27 0.581-0.211 0.0899-0.561 0.26-0.779 0.378-0.603 0.327-0.64 0.309-0.64-0.322 0-0.539 0.0527-0.636 0.23-0.422 0.279 0.336 0.378 0.0694 0.161-0.431-0.0892-0.206-0.166-0.627-0.199-1.09-0.0616-0.861 0.0033-0.821-0.836-0.514-0.619 0.227-0.568 0.943-0.597-8.45-0.0286-9.6 0.0564-8.67-0.769-8.35-1.51 0.601-1.34 0.171-1.21 3.07 0.13 3.05 0.23 5.49 0.349 8.55 0.0643 1.65 0.149 3.66 0.189 4.49 0.206 4.29 0.277 3.83-0.66 4.33-0.919 0.49-1.97 1.08-4.75 2.69-1.01 0.584-2 1.15-2.2 1.26-0.429 0.232-0.448 0.334-0.12 0.672 0.319 0.329 0.317 0.329 1.23-0.199 5.73-3.31 5.79-3.34 6.73-3.29 2.02 0.108 3.34 1.83 3.98 5.22 0.22 1.16 0.184 1.14 0.671 0.497zm-20.3-6.57c1.28-0.611 2.66-1.14 3.61-1.39 0.364-0.0947 0.706-0.199 0.759-0.232 0.106-0.0658 0.1-0.21-0.307-7.25-0.125-2.15-0.262-4.29-0.306-4.76-0.0436-0.469-0.0797-1.07-0.0803-1.34-0.0023-1.06 0.234-1.1-2.8 0.438-1.42 0.72-2.54 1.24-2.58 1.21-0.102-0.102-0.656-2.49-0.798-3.44-0.0696-0.464-0.175-1.12-0.235-1.46-0.0597-0.337-0.197-1.25-0.306-2.03-0.109-0.78-0.317-2.26-0.463-3.29-0.256-1.81-0.261-1.88-0.128-2.01 0.67-0.67 13.3-6.08 18.2-7.81 3.49-1.23 3.46-1.22 3.94-0.688 0.422 0.469 0.422 0.469 1.34 0.11 2.17-0.846 6.45-2.26 6.83-2.26 0.103 1e-3 0.288 0.192 0.56 0.575 0.496 0.699 0.624 0.71 0.628 0.0547 1e-3 -0.207 0.109-0.259 2.65-1.28 2.38-0.959 6.89-2.5 7.33-2.5 0.0348 0 0.368 0.362 0.74 0.805 0.783 0.932 0.713 0.911 1.76 0.533 2.45-0.888 7.05-2.14 7.29-1.99 0.0625 0.0401 0.31 0.398 0.551 0.795 0.478 0.79 0.555 0.859 0.668 0.601 0.0871-0.199 0.309-0.281 2.22-0.827 2.58-0.736 7.19-1.76 7.91-1.76 0.0415 0 0.272 0.29 0.513 0.644 0.594 0.875 0.492 0.834 1.47 0.583 5.81-1.49 10.9-1.26 14.2 0.651 0.96 0.542 0.897 0.58 0.85-0.517-0.0791-1.83 0.981-4.22 3.32-7.5 0.812-1.14 0.934-1.16-3.08 0.425-0.928 0.366-1.98 0.779-2.34 0.919-0.359 0.14-2 0.779-3.64 1.42-9.72 3.79-12.5 4.01-14.3 1.15-0.343-0.555-0.269-0.556-1.12 0.0153-5.15 3.46-9.89 1.59-10.8-4.24-0.103-0.697-0.182-0.694-0.728 0.0255-6.29 8.28-10.5 9.01-18.2 3.2-1.32-0.985-1.48-1.06-1.48-0.719 0 0.0986-0.0866 0.588-0.192 1.09-1.22 5.76-3.4 7.06-7.17 4.28-0.598-0.44-0.615-0.423-0.616 0.604-0.0055 4.67-3.35 6.51-7.89 4.34-0.912-0.434-0.958-0.423-0.842 0.202 0.406 2.19-1.81 2.73-6.26 1.53-1.02-0.276-1.05-0.254-0.65 0.456 1.44 2.55 0.608 4.14-2.72 5.25-1.3 0.432-2.55 0.693-5.78 1.21-0.351 0.0561-0.308 0.133 0.489 0.878 6.17 5.76 6.04 7.49-0.829 11.5-0.914 0.534-0.95 0.58-0.537 0.686 1.96 0.503 2.65 0.703 3.92 1.13 6.51 2.17 7.41 4.54 4.42 11.7-0.409 0.983-0.454 0.97 0.96 0.294zm8.54-1.5c0.97-0.516 2.35-1.24 3.07-1.61 0.717-0.368 1.35-0.71 1.4-0.76 0.0978-0.094 0.103 0.0457-0.324-8.56-0.145-2.93-0.415-9.33-0.442-10.5-0.0232-1.01-0.347-0.796 3.2-2.09 1.05-0.383 1.95-0.726 1.99-0.762 0.0668-0.0635-0.162-7.11-0.234-7.23-0.173-0.285-7.47 2.52-13.6 5.25-3.48 1.54-5.59 2.53-5.67 2.66-0.0245 0.0396 0.126 1.22 0.335 2.63 0.209 1.41 0.418 2.85 0.464 3.21 0.147 1.13 0.0072 1.11 1.67 0.28 1.7-0.849 4.23-2 4.29-1.94 0.0498 0.0498 0.0386-0.109 0.338 4.77 0.33 5.38 0.51 8.15 0.721 11.1 0.102 1.43 0.209 3.04 0.238 3.57 0.0287 0.527 0.0836 1.02 0.122 1.09 0.0828 0.159-0.12 0.252 2.48-1.13zm11.5-4.63c0.987-0.415 2.43-1.01 3.21-1.32s1.46-0.59 1.5-0.625c0.057-0.0436 0.103-1.19 0.144-3.57 0.11-6.41-0.054-5.74 1.54-6.28 1.89-0.649 1.76-0.678 1.7 0.378-0.0271 0.475-0.0827 1.57-0.124 2.43-0.0669 1.41-0.117 2.56-0.279 6.35-0.0598 1.4-0.21 1.32 1.4 0.701 0.667-0.258 2.11-0.808 3.2-1.22 1.09-0.415 2.02-0.789 2.06-0.829 0.0406-0.0406 0.138-1.12 0.216-2.4 0.4-6.55 0.839-11.8 1.73-20.9 0.271-2.75 0.404-4.38 0.358-4.43-0.111-0.111-5 1.58-7.12 2.46-0.679 0.283-0.603-0.0593-0.771 3.45-0.194 4.05-0.277 5.61-0.331 6.25-0.0519 0.614-0.0519 0.614-1.55 1.13-1.82 0.624-1.72 0.627-1.7-0.0529 0.0208-0.698 0.302-6.24 0.396-7.82 0.0902-1.51 0.0949-2.42 0.0127-2.42-0.431 0-7.17 2.46-7.43 2.71-0.155 0.152-0.24 26.7-0.0854 26.7 0.0634 0 0.923-0.34 1.91-0.755zm25.4-3.91c4.13-0.961 7.44-3.96 8.73-7.91 0.273-0.836 0.52-2.07 0.799-3.99 0.324-2.23 1.1-7.27 1.46-9.51 0.188-1.16 0.552-3.42 0.809-5.02s0.486-2.99 0.509-3.09c0.0283-0.115 1e-3 -0.187-0.0815-0.219-0.323-0.124-7.55 1.61-7.82 1.88-0.0552 0.0552-0.3 1.97-1.36 10.6-0.936 7.64-1.07 8.46-1.47 9.22-0.826 1.55-2.81 1.57-3.13 0.0273-0.122-0.589-0.0847-1.02 0.457-5.22 0.538-4.17 1.32-9.89 1.84-13.4 0.259-1.75 0.271-1.96 0.12-1.96-0.653 0-7.59 2.27-7.75 2.53-0.0859 0.139-1.45 13.4-1.77 17.2-0.555 6.6 2.95 10.2 8.64 8.87zm11.2-0.517c12.7-2.59 21-9.63 22-18.6 0.949-8.33-6.39-12.6-17.1-9.89-2.71 0.683-2.34 0.134-2.92 4.39-0.603 4.4-1.23 8.85-2.46 17.4-0.525 3.67-0.954 6.72-0.954 6.77 0 0.132 0.29 0.109 1.36-0.111zm6.84-8.55c0-0.269 2.5-13.1 2.58-13.2 0.0601-0.0973 0.942-0.0676 1.5 0.0504 5.11 1.08 2.6 9.91-3.75 13.2-0.312 0.161-0.33 0.159-0.33-0.0325zm4.18-4.99c0.767-1.16 1.07-2.01 1.29-3.68 0.0552-0.401-0.0911-0.595-0.57-0.755-0.352-0.118-0.404-0.0422-0.568 0.817-0.0701 0.369-0.211 1.07-0.313 1.55-0.21 0.997-0.502 2.6-0.501 2.74 2e-3 0.23 0.18 0.0458 0.657-0.677zm-23.5 36.5c-0.452-0.542-0.628-0.827-0.816-1.32-0.132-0.348-0.429-1.12-0.662-1.72-0.943-2.42 0.17-3.35 2.64-2.2 1.99 0.929 2.87 1.51 2.98 1.98 0.451 1.82-0.331 3.09-2.23 3.65-1.37 0.399-1.24 0.425-1.91-0.38zm0.668-0.172c0.163-0.608-0.184-1.68-0.508-1.57-0.314 0.104-0.295 0.82 0.0332 1.29 0.358 0.508 0.408 0.538 0.475 0.286zm2.56-0.922c0.036-0.303-0.123-0.564-0.26-0.427-0.0834 0.0834-0.089 0.169-0.0259 0.397 0.0898 0.325 0.249 0.342 0.286 0.03zm-1.42-0.318c0.893-0.246 0.951-0.292 1.38-1.1 0.444-0.842 0.601-0.664-1.57-1.78-2.87-1.47-3.18-1.03-1.37 1.98 0.114 0.19 0.301 0.509 0.414 0.709 0.241 0.424 0.248 0.425 1.14 0.179zm-47.7-0.369c-0.419-1-0.625-2.37-0.413-2.73 2.21-3.79 3.44-4.39 5.36-2.63 0.127 0.116 0.359 0.305 0.518 0.421 0.529 0.387 0.437 1.83-0.148 2.33-0.24 0.203-0.777 0.672-1.2 1.04-0.993 0.88-0.898 0.829-2.36 1.27-1.77 0.528-1.68 0.512-1.76 0.306zm1.76-1.96c1.2-0.397 3.14-1.6 3.25-2.03 0.118-0.44-0.201-0.857-0.949-1.24-0.148-0.0763-0.356-0.203-0.462-0.282-0.59-0.436-1.44-0.0237-2.09 1.01-0.328 0.525-0.753 1.2-0.945 1.49-0.363 0.56-0.387 0.71-0.195 1.21 0.105 0.271 0.0827 0.274 1.39-0.157zm58.4 0.123c-0.21-0.321-3.11-6.31-3.55-7.34-0.195-0.452 7e-3 -0.238 1.36 1.45 0.73 0.907 1.83 2.25 2.44 2.99 1.84 2.21 1.75 1.9 0.754 2.53-0.961 0.613-0.872 0.581-1.01 0.369zm1.86-5.48c-5.55-5.42-5.51-5.23-0.412-1.72 3.57 2.45 3.49 2.38 3 3.05-0.562 0.771-0.318 0.896-2.59-1.32zm-68.5-3.37c-0.576-0.521-0.644-0.418 0.813-1.23 0.664-0.368 1.4-0.781 1.63-0.917 0.931-0.545 2.09-1.13 2.02-1.02-0.0989 0.169-3.87 3.59-3.96 3.59-0.0198 0-0.249-0.193-0.51-0.429zm-5.68-0.686c-0.564-0.808-1.13-0.504 4.9-2.65 4.6-1.63 4.59-1.63 2.19-0.323-7.46 4.07-6.58 3.7-7.09 2.97zm97.4-5.32c-1.12-0.672-2.53-1.54-3.14-1.93-0.605-0.388-1.27-0.812-1.48-0.944-0.742-0.462-0.494-0.404 5.12 1.2 1.38 0.396 2.55 0.75 2.58 0.789 0.0992 0.0998-0.841 2.1-0.987 2.1-0.0361 0-0.981-0.55-2.1-1.22zm-87.7-26.8c-0.104-0.0544-0.827-0.457-1.61-0.894-0.78-0.437-2.21-1.23-3.18-1.77-2.1-1.16-1.99-0.961-1.06-1.95 0.828-0.884 0.86-0.901 1.1-0.596 0.142 0.182 1.9 2.02 4.32 4.52 0.682 0.704 0.786 0.872 0.426 0.682zm14.8-3.75c-2.52-1.71-5.93-4.08-7.1-4.94-0.805-0.59-0.695-0.594-1.28 0.0506-1.33 1.47-3.37 1.66-4.69 0.418-0.386-0.361-0.386-0.361-1.01-0.116-3.39 1.34-6.83-2.08-5.39-5.35 0.181-0.411 0.181-0.411-0.28-0.914-2.62-2.86-0.474-7.55 3.42-7.45 0.809 0.0208 0.843 0.0069 0.905-0.37 0.537-3.31 4.66-5.15 7.93-3.54 0.789 0.387 0.789 0.387 1.2 0.0029 2.11-2 6.26-0.579 6.26 2.14 0 0.368 0.126 0.515 0.549 0.641 3.3 0.979 2.63 6.32-0.866 6.91-0.428 0.0724-0.427 0.108 0.0389 1.23 3.36 8.06 3.41 8.21 1.91 5.6-0.714-1.24-1.3-2.29-3.22-5.78-0.344-0.626-0.36-0.629-1.05-0.178-0.322 0.21-0.812 0.458-1.09 0.55-0.646 0.215-0.858-0.212 2.09 4.22 2.34 3.51 2.84 4.29 2.75 4.29-0.0591 0-4.81-5.79-6.24-7.6-0.425-0.539-0.516-0.603-0.858-0.603-0.264 0-0.346 0.0956-0.462 0.537-0.204 0.779-0.821 1.63-1.59 2.2-0.649 0.476-1.14-0.0653 3.82 4.17 1.41 1.2 2.89 2.48 3.29 2.84 0.403 0.359 0.884 0.781 1.07 0.939 0.437 0.372 0.364 0.441-0.119 0.113zm-9.89-5.01c0.467-0.236 1.11-0.868 1.11-1.09-0.0036-0.259-0.965-0.904-1.19-0.801-0.214 0.0974-0.667 0.118-0.751 0.0346-0.0294-0.0294 0.0943-0.108 0.275-0.175 0.58-0.214 0.477-0.487-0.209-0.55-1.22-0.113-1.56-0.404-0.537-0.458 2.21-0.115 3.69-1.36 4.24-3.58 0.167-0.669 0.209-0.724 0.277-0.365 0.0703 0.375 0.307 0.466 0.94 0.362 1.54-0.254 2.6-1.44 2.9-3.24 0.0939-0.575 0.0939-0.575 0.183-0.268 0.128 0.441 0.11 1.37-0.0361 1.9-0.145 0.516-0.118 0.583 0.158 0.402 0.425-0.279 1.19-1.67 1.19-2.16 0-0.0556 0.0324-0.101 0.072-0.101 0.123 0 0.183 0.694 0.0996 1.14-0.1 0.54-0.0456 0.603 0.414 0.48 2.35-0.627 3.25-3.39 1.59-4.84-0.694-0.609-1.23-0.684-1.51-0.211-0.421 0.712-0.75 0.89-0.507 0.274 1.06-2.68-1.88-5.12-4.28-3.55-0.37 0.242-1.02 0.952-1.02 1.11 0 0.123-0.156 0.0751-0.485-0.15-3.74-2.56-8.35 0.379-7.49 4.78 0.103 0.533 0.103 0.533-0.19 0.786-0.374 0.323-0.418 0.277-0.122-0.131 0.228-0.315 0.231-0.328 0.116-0.601-0.0648-0.154-0.161-0.469-0.214-0.701-0.117-0.514-0.342-0.623-1.31-0.632-3.57-0.0344-4.8 4.48-1.77 6.49 0.168 0.111 0.28 0.202 0.249 0.202-0.818 0-1.25 1.98-0.693 3.16 0.968 2.04 3.28 2.55 5.19 1.14 0.463-0.342 0.494-0.326 0.303 0.153-0.399 0.998 1.72 1.83 3 1.18zm59.6-4.22c0-0.0698 0.251-0.352 1.84-2.07 0.702-0.759 2.1-2.28 3.11-3.37 2.28-2.48 3.04-3.26 3.19-3.26 0.198 4.86e-4 2.07 0.724 2.09 0.805 0.0148 0.0887-0.297 0.344-1.96 1.61-0.666 0.506-2.25 1.72-3.52 2.71-4.83 3.73-4.73 3.65-4.73 3.58zm-7.29-1.11c0-0.0444 0.158-0.933 0.35-1.97s0.449-2.44 0.571-3.11c0.268-1.48 0.18-1.39 1.18-1.24 0.449 0.0667 0.833 0.121 0.853 0.121 0.124 0-1.15 2.82-2.43 5.39-0.426 0.852-0.525 1.01-0.525 0.82zm5.52 0.0071c0-0.0671 0.374-0.956 1.03-2.46 0.267-0.608 1.06-2.41 2.33-5.33 2.18-5 2.78-6.33 2.86-6.33 0.124 0 3.91 1.66 4.01 1.76 0.0343 0.0334-0.376 0.574-0.911 1.2-2.55 2.99-6.33 7.56-8.34 10.1-0.876 1.1-0.974 1.21-0.974 1.06z" fill="#0c0704"/></svg>
