<svg width="210mm" height="297mm" version="1.1" viewBox="0 0 210 297" xmlns="http://www.w3.org/2000/svg"><path d="m101 195c-0.0235-0.0712-0.0935-1.18-0.156-2.46-0.774-15.9-5.78-16.4-25.3-2.07-2.69 1.97-2.72 1.99-2.84 1.92-0.12-0.0743-0.0181-0.363 0.824-2.33 2.1-4.9 3.52-8.86 3.99-11.1 0.197-0.936 0.323-0.928-1.34-0.0891-8.8 4.45-17.6 0.793-21-8.7-0.276-0.776-0.395-0.99-0.565-1.02-0.496-0.0752-6.35 1.27-11.3 2.61-1.78 0.477-2.23 0.552-2.23 0.374 0-0.258 5.67-4.69 11.2-8.73l1.51-1.11 0.0647-1.63c0.291-7.33 2.73-14.8 6.65-20.4 0.717-1.03 0.721-0.999-0.356-2.21-2.26-2.54-5.27-5.11-11-9.38-2.38-1.79-2.9-2.26-2.34-2.17 0.108 0.0173 1.92 0.445 4.03 0.951 7.83 1.88 11.1 2.48 13.5 2.48h1.03l1.22-0.357c0.67-0.196 2.87-0.806 4.89-1.35 5.91-1.61 6.68-2.06 7.37-4.29l0.239-0.776-0.0056-1.5c-0.0112-3-1.11-7.24-3.62-13.9-0.786-2.1-0.875-2.43-0.651-2.43 0.16 0 3.98 3.03 9.5 7.55 4.41 3.61 4.56 3.72 6.31 5.02 3.14 2.32 4.74 3.1 6.42 3.11l0.882 4e-3 0.691-0.34c2.7-1.33 4.3-6.14 4.74-14.3 0.121-2.25 0.133-2.33 0.344-2.33 0.08 0 1.24 1.93 2.64 4.37 4.05 7.11 5.03 8.48 6.54 9.17 2.79 1.28 6.75-2.42 14-13.1 2.73-4.01 2.66-3.91 2.78-3.8 0.0707 0.0707 0.0637 1.33-0.0216 3.87-0.567 16.9 2.09 19.7 14.6 15.5 1.62-0.552 2.09-0.664 2.09-0.496-8.1e-4 0.0427-0.231 0.637-0.511 1.32-0.613 1.49-0.711 1.44 1.45 0.789 6.63-2 10.7-3.87 16.7-7.66 2.51-1.59 2.5-1.59 0.945 0.818-3.27 5.06-5.83 9.39-5.83 9.87 0 0.0215 0.33 0.285 0.734 0.585 0.404 0.3 1.13 0.942 1.61 1.43 1.11 1.12 0.902 1.55 1.65-3.5 0.455-3.07 0.382-2.93 1.62-3.15 1.01-0.183 2.9-0.549 8.52-1.65 8.35-1.63 11.2-2.16 11.4-2.05 0.0761 0.0761-0.142 0.835-0.726 2.52-2.93 8.46-6.03 17.6-8.53 25.1-1.88 5.64-2.39 7.26-2.3 7.39 0.491 0.779 7.7 4.09 12.8 5.87 1.85 0.648 1.83 0.681-0.678 1.04-5.35 0.774-9.57 1.51-12.2 2.13l-1.3 0.31-0.0625 1.21c-0.22 4.26-2.78 7.88-6.46 9.14l-1.01 0.345-2.59 0.01-0.725-0.242c-1.05-0.349-1.79-0.775-2.58-1.47-0.743-0.659-0.749-0.662-1.12-0.519-0.353 0.134-0.541 0.666-0.536 1.52l4e-3 0.732 0.513 1.08c0.631 1.33 2.04 3.23 4.59 6.2 1 1.17 1.96 2.28 2.12 2.48l0.299 0.362-0.169 0.0331c-0.0929 0.0182-1.25-0.594-2.58-1.36-5.94-3.44-8.8-4.52-11.9-4.52-2.69 0-4.11 0.928-4.89 3.21l-0.195 0.569 0.016 4.04 0.281 1.55c0.154 0.854 0.535 2.66 0.846 4.02 0.783 3.42 0.875 3.3-1.09 1.45-0.712-0.667-1.85-1.73-2.54-2.36-12.5-11.5-16.1-10.6-17.7 4.64-0.209 1.96-0.257 2.01-0.925 0.945-3.83-6.12-6.17-8.94-8.38-10.1l-0.752-0.382-0.812-0.047c-2.74-0.159-5.72 2.61-10.6 9.84-1.33 1.97-1.51 2.19-1.6 1.91zm-46.8-6c0-0.22 3.27-4.22 4.52-5.53l0.608-0.638 2.48 0.0687c2.96 0.0818 2.9 3e-3 0.956 1.28-2.76 1.82-8.56 5.09-8.56 4.82zm118-8.89-4.14-1.66-1.96-1.9c-2.26-2.2-2.28-2.25-0.621-1.81 0.624 0.167 1.62 0.402 2.22 0.523l1.08 0.22 0.729 0.535c2.94 2.16 7.09 5.48 7.09 5.67 0 0.183-0.311 0.0723-4.4-1.57zm-121-31.3c-3.84-1.38-6.9-2.71-6.69-2.92 0.223-0.223 8.65 0.894 8.85 1.17 0.38 0.524 0.847 1.31 0.847 1.42 0 0.125-1 1-1.13 0.985-0.035-4e-3 -0.879-0.3-1.87-0.657zm127-0.202c-0.061-0.243 0.702-1.76 1.19-2.36l0.197-0.244 4.96 0.0129c7.37 0.0191 7.38 0.0233 0.6 1.54-3.29 0.738-6.09 1.29-6.53 1.29h-0.345zm-110-26.2c-1.78-0.878-3.79-1.73-5.02-2.12-0.732-0.232-0.665-0.169-1.69-1.58-0.481-0.666-1.64-2.21-2.58-3.44-0.937-1.22-1.79-2.36-1.89-2.52l-0.189-0.29 0.346-0.357c0.489-0.504 0.391-0.558 2.98 1.64 3.36 2.85 4.01 3.42 4.89 4.26 0.427 0.41 1.79 1.72 3.03 2.9 2.95 2.83 2.96 2.9 0.129 1.5zm72.3-4.78c0-0.142 0.742-1.14 1.96-2.64 0.43-0.53 0.98-1.22 1.22-1.54 1.18-1.54 1.56-1.95 5.18-5.7 3.42-3.54 3.38-3.55 1.48 0.252-3.04 6.1-3.22 6.37-4.46 6.91-0.924 0.4-2.99 1.5-3.9 2.08-1.04 0.66-1.48 0.85-1.48 0.636z" fill="#b565e5"/><path d="m101 194c-0.279-5.3-0.568-7.39-1.31-9.53-2.31-6.62-8.54-5.11-23.3 5.66-3.68 2.69-3.62 2.65-3.62 2.4 0-0.0539 0.424-1.11 0.942-2.35 2.67-6.4 4.32-11.3 3.95-11.6-0.0461-0.0461-0.722 0.239-1.5 0.633-8.79 4.45-17.5 0.888-20.9-8.57-0.214-0.588-0.46-1.1-0.545-1.13-0.333-0.128-7.51 1.53-12.4 2.87-0.857 0.233-1.04 0.254-1.04 0.114 0-0.194 5.97-4.85 9.93-7.74 1.11-0.813 2.17-1.6 2.36-1.74l0.336-0.263 0.0021-1c0.0147-6.95 2.66-15.3 6.69-21.1 0.663-0.949 0.669-1.01 0.173-1.62-1.88-2.33-5.55-5.53-11.2-9.74-1.54-1.15-2.81-2.14-2.83-2.19-0.0624-0.162 0.24-0.0997 4.56 0.94 6.92 1.67 10 2.25 12.6 2.35l1.46 0.0606 0.82-0.267c0.451-0.147 1.38-0.413 2.06-0.591 7.61-1.99 9.13-2.56 10-3.8 1.85-2.55 1.12-7.36-2.69-17.7-0.771-2.09-0.836-2.31-0.69-2.31 0.0895 0 5.07 3.97 8.1 6.46 4.43 3.64 5.5 4.49 7.09 5.69 8.95 6.71 12.6 3.66 13.4-11.3 0.141-2.52 0.112-2.48 0.861-1.16 0.251 0.439 1.13 1.99 1.96 3.44 2.98 5.24 3.48 6.05 4.61 7.47 3.59 4.51 7.41 1.52 17.8-13.9 0.449-0.669 0.853-1.22 0.897-1.22 0.0987 0 0.0975 0.22-0.0231 4.24-0.495 16.5 2.28 19.3 14.8 15 1.39-0.477 1.83-0.595 1.83-0.487 0 0.021-0.233 0.605-0.518 1.3-0.285 0.692-0.518 1.28-0.518 1.31 0 0.171 2.13-0.421 4.97-1.39 5.21-1.77 8.3-3.28 14-6.86 2.16-1.36 2.11-1.42 0.588 0.927-3.57 5.51-5.88 9.49-5.72 9.88 0.0268 0.0688 0.239 0.234 0.473 0.368 0.233 0.133 0.973 0.776 1.64 1.43 0.753 0.731 1.25 1.14 1.29 1.07 0.0396-0.064 0.299-1.64 0.577-3.5 0.576-3.86 0.562-3.81 1.1-3.91 0.216-0.0378 3.12-0.596 6.45-1.24 12.1-2.34 13.8-2.65 13.9-2.56 0.0564 0.0564-0.49 1.79-1.37 4.33-0.803 2.33-1.78 5.17-2.17 6.31s-1.34 3.93-2.12 6.21c-5.27 15.4-6.09 18-5.72 18.3 2.7 1.7 7.38 3.82 12.3 5.6 1.93 0.692 1.93 0.684 0.129 0.933-4.8 0.665-10.8 1.72-13 2.3l-0.932 0.238-0.0715 1.24c-0.443 7.68-8.31 12.2-13.3 7.69l-0.674-0.618-0.319 0.07c-0.651 0.143-0.962 1.2-0.678 2.31 0.464 1.81 2.54 4.68 7.03 9.71 0.477 0.534 0.0234 0.382-1.48-0.496-8.99-5.26-13.7-6.3-16.5-3.65-2.01 1.91-1.96 4.95 0.226 14.2 0.224 0.948 0.434 1.1-3.28-2.36-7.34-6.83-11.2-9.15-13.9-8.32l-0.609 0.189-0.729 0.731c-1.4 1.41-2.3 3.85-2.89 7.87-0.153 1.04-0.576 4.76-0.576 5.06 0 0.364-0.231 0.0968-1.05-1.21-3.55-5.68-5.89-8.42-8.15-9.52l-0.692-0.339h-2.07l-0.608 0.285c-2.29 1.07-4.91 3.94-8.63 9.44-1.62 2.39-1.53 2.36-1.62 0.711zm4.02-11.4c2.23-2.72 5.11-4.27 7.93-4.27l1.19-4e-3 0.867 0.297c1.57 0.537 3.54 1.95 4.9 3.51 0.874 1.01 0.967 1.04 1.12 0.447 2.1-8.07 9.42-9.45 16.9-3.18 0.749 0.629 0.988 0.718 0.945 0.353-0.292-2.45 0.302-4.92 1.51-6.27 0.503-0.561 0.496-0.565-0.656-0.341-4.21 0.818-8.82-0.967-11.7-4.51-0.293-0.367-0.566-0.68-0.606-0.696-0.0401-0.0158-0.153 0.776-0.251 1.76-0.213 2.14-0.256 2.44-0.356 2.5-0.0422 0.0261-1.36 0.373-2.92 0.772-4.54 1.16-7.54 1.97-11.3 3.07-3.35 0.984-3.1 0.996-2.9-0.136 0.2-1.15 0.197-1.21-0.081-1.25l-0.24-0.034 0.029-0.401c0.0393-0.545 0.0446-0.543-1-0.254-1.27 0.351-4.17 1.18-5.77 1.65l-1.32 0.389-0.154-0.127c-0.103-0.0853-0.157-0.338-0.164-0.762-6e-3 -0.349-0.0428-0.751-0.0824-0.893l-0.0721-0.259-0.346 0.0352c-0.207 0.0211-0.379-0.0192-0.429-0.1-0.126-0.205-0.177-0.096-0.293 0.637-0.127 0.795-0.29 0.965-1.1 1.15-0.77 0.172-0.774 0.244-0.0269 0.496 1.69 0.569 3.4 2.08 4.37 3.85 0.349 0.638 0.992 2.35 0.992 2.64 0 0.798 0.275 0.778 0.973-0.07zm-21.6-3.58c0.391-1.27 0.189-1.36-0.291-0.136-0.385 0.985-0.397 1.07-0.123 0.927 0.125-0.067 0.284-0.371 0.414-0.791zm68-7.48c0-0.206-0.244-0.296-0.529-0.197-0.377 0.132-0.384 0.267-0.0145 0.313 0.318 0.0401 0.543-8e-3 0.543-0.116zm19.4-15c1.18-0.277 0.977-0.476-0.336-0.321-0.938 0.111-0.958 0.119-0.778 0.336 0.165 0.198 0.204 0.198 1.11-0.0151zm-79.5-20.9c0.602-3.84 0.817-4.61 1.33-4.71 0.181-0.0386 1.12-0.317 2.09-0.618 4.48-1.4 8.03-2.45 12.9-3.84 0.906-0.257 1.74-0.453 1.86-0.436l0.216 0.0309 0.0574 2.95 0.282-0.0721c0.155-0.0397 0.375-0.0752 0.489-0.0789l0.207-7e-3 -0.0367 2.59c-0.0233 1.64-6.7e-4 2.55 0.0619 2.48 0.0542-0.0569 0.486-1.17 0.959-2.48 1.08-2.99 1.1-3.03 1.32-3.09 0.237-0.0713 14.8-2.86 15-2.86 0.17 0 0.0342-0.259-0.43-0.816-1.34-1.61-2.35-4.56-2.56-7.49-0.0955-1.32-0.0687-1.33-1.27 0.261-6.24 8.27-12.2 9.56-16.4 3.54-0.885-1.27-0.908-1.29-1.12-0.716-3.35 9.26-11.1 9.27-21.1 0.0292-0.659-0.608-1.05-0.848-1.05-0.644 0 0.0318 0.138 0.604 0.306 1.27 0.823 3.26 0.561 6.13-0.735 8.05-0.426 0.632-0.424 0.636 0.587 1.06 2.84 1.18 4.45 2.63 6.38 5.71 0.457 0.731 0.525 0.721 0.653-0.0981zm-26.4 0.0533c0.421-0.435 0.457-0.4-0.598-0.566-1.05-0.165-1.08-0.14-0.535 0.453 0.524 0.569 0.677 0.584 1.13 0.113zm66.5-3.08c0.879-1.13 2.78-3.04 4.22-4.22 1.31-1.07 1.32-1.1 0.478-0.944-1.34 0.249-4.57-4e-3 -5.34-0.419l-0.186-0.0998-0.103 0.27c-0.0564 0.148-0.103 0.408-0.103 0.578v0.308l0.361-0.0678c0.505-0.0947 0.448 2.29-0.123 5.16-0.0938 0.471 0.109 0.328 0.801-0.564zm20-9.91c1.87-0.698 2.35-0.895 2.35-0.976 4e-3 -0.196-2.31 0.311-4.14 0.908l-0.776 0.253 1.01 8e-3c0.764 6e-3 1.14-0.0409 1.55-0.193zm-97 66.6c0-0.106 0.165-0.321 1.65-2.14 0.934-1.14 2.27-2.7 2.81-3.28l0.455-0.486 2.41 0.0605c2.86 0.072 2.8-0.044 0.725 1.29-2.82 1.82-8.05 4.77-8.05 4.55zm117-8.86-3.96-1.59-1.84-1.78c-2.32-2.25-2.29-2.15-0.523-1.7 0.572 0.145 1.48 0.355 2.03 0.467l0.988 0.203 1.15 0.853c2.37 1.76 6.3 4.88 6.36 5.05 0.0705 0.196-0.329 0.0533-4.2-1.5zm-120-30.7c-0.0854-0.0315-0.994-0.358-2.02-0.725-3.38-1.21-6.19-2.41-6.03-2.57 0.209-0.209 8.36 0.89 8.51 1.15 0.057 0.0946 0.255 0.405 0.44 0.69 0.424 0.652 0.42 0.678-0.143 1.15-0.482 0.401-0.504 0.41-0.763 0.314zm126-0.571c-0.203-0.203-0.138-0.401 0.489-1.48l0.602-1.04 1.54-0.0813c3.47-0.183 9.51 0.0495 8.47 0.327-1.54 0.412-6.88 1.59-9.16 2.03-0.769 0.146-1.49 0.288-1.61 0.315-0.118 0.027-0.269-6e-3 -0.336-0.0726zm-111-26.4c-1.75-0.863-3.79-1.72-4.96-2.08l-0.613-0.19-0.37-0.519c-0.49-0.688-3.21-4.31-4.12-5.49-0.398-0.516-0.807-1.06-0.909-1.22l-0.186-0.283 0.293-0.306c0.161-0.168 0.355-0.306 0.431-0.306 0.476 0 11.9 10.3 12.4 11.1 0.149 0.267-0.124 0.164-1.94-0.732zm72.6-4.78c0-0.124 0.257-0.47 1.55-2.09 0.657-0.821 1.54-1.93 1.95-2.47 0.845-1.08 1.48-1.77 4.87-5.29 1.47-1.52 2.35-2.36 2.37-2.26 0.0772 0.396-4.36 8.86-4.74 9.05-0.141 0.0707-0.885 0.432-1.65 0.803-0.768 0.371-2.03 1.05-2.79 1.5-1.39 0.824-1.55 0.903-1.55 0.749z" fill="#fbcb03"/><path d="m101 194c-0.279-5.3-0.568-7.39-1.31-9.53-2.31-6.62-8.54-5.11-23.3 5.66-3.68 2.69-3.62 2.65-3.62 2.4 0-0.0539 0.424-1.11 0.942-2.35 2.67-6.4 4.32-11.3 3.95-11.6-0.0461-0.0461-0.722 0.239-1.5 0.633-8.79 4.45-17.5 0.888-20.9-8.57-0.214-0.588-0.46-1.1-0.545-1.13-0.333-0.128-7.51 1.53-12.4 2.87-0.857 0.233-1.04 0.254-1.04 0.114 0-0.194 5.97-4.85 9.93-7.74 1.11-0.813 2.17-1.6 2.36-1.74l0.336-0.263 0.0021-1c0.0147-6.95 2.66-15.3 6.69-21.1 0.663-0.949 0.669-1.01 0.173-1.62-1.88-2.33-5.55-5.53-11.2-9.74-1.54-1.15-2.81-2.14-2.83-2.19-0.0624-0.162 0.24-0.0997 4.56 0.94 6.92 1.67 10 2.25 12.6 2.35l1.46 0.0606 0.82-0.267c0.451-0.147 1.38-0.413 2.06-0.591 7.61-1.99 9.13-2.56 10-3.8 1.85-2.55 1.12-7.36-2.69-17.7-0.771-2.09-0.836-2.31-0.69-2.31 0.0895 0 5.07 3.97 8.1 6.46 4.43 3.64 5.5 4.49 7.09 5.69 8.95 6.71 12.6 3.66 13.4-11.3 0.141-2.52 0.112-2.48 0.861-1.16 0.251 0.439 1.13 1.99 1.96 3.44 2.98 5.24 3.48 6.05 4.61 7.47 3.59 4.51 7.41 1.52 17.8-13.9 0.449-0.669 0.853-1.22 0.897-1.22 0.0987 0 0.0975 0.22-0.0231 4.24-0.495 16.5 2.28 19.3 14.8 15 1.39-0.477 1.83-0.595 1.83-0.487 0 0.021-0.233 0.605-0.518 1.3-0.285 0.692-0.518 1.28-0.518 1.31 0 0.171 2.13-0.421 4.97-1.39 5.21-1.77 8.3-3.28 14-6.86 2.16-1.36 2.11-1.42 0.588 0.927-3.57 5.51-5.88 9.49-5.72 9.88 0.0268 0.0688 0.239 0.234 0.473 0.368 0.233 0.133 0.973 0.776 1.64 1.43 0.753 0.731 1.25 1.14 1.29 1.07 0.0396-0.064 0.299-1.64 0.577-3.5 0.576-3.86 0.562-3.81 1.1-3.91 0.216-0.0378 3.12-0.596 6.45-1.24 12.1-2.34 13.8-2.65 13.9-2.56 0.0564 0.0564-0.49 1.79-1.37 4.33-0.803 2.33-1.78 5.17-2.17 6.31s-1.34 3.93-2.12 6.21c-5.27 15.4-6.09 18-5.72 18.3 2.7 1.7 7.38 3.82 12.3 5.6 1.93 0.692 1.93 0.684 0.129 0.933-4.8 0.665-10.8 1.72-13 2.3l-0.932 0.238-0.0715 1.24c-0.443 7.68-8.31 12.2-13.3 7.69l-0.674-0.618-0.319 0.07c-0.651 0.143-0.962 1.2-0.678 2.31 0.464 1.81 2.54 4.68 7.03 9.71 0.477 0.534 0.0234 0.382-1.48-0.496-8.99-5.26-13.7-6.3-16.5-3.65-2.01 1.91-1.96 4.95 0.226 14.2 0.224 0.948 0.434 1.1-3.28-2.36-7.34-6.83-11.2-9.15-13.9-8.32l-0.609 0.189-0.729 0.731c-1.4 1.41-2.3 3.85-2.89 7.87-0.153 1.04-0.576 4.76-0.576 5.06 0 0.364-0.231 0.0968-1.05-1.21-3.55-5.68-5.89-8.42-8.15-9.52l-0.692-0.339h-2.07l-0.608 0.285c-2.29 1.07-4.91 3.94-8.63 9.44-1.62 2.39-1.53 2.36-1.62 0.711zm4.02-11.4c2.23-2.72 5.11-4.27 7.93-4.27l1.19-4e-3 0.867 0.297c1.57 0.537 3.54 1.95 4.9 3.51 0.874 1.01 0.967 1.04 1.12 0.447 2.1-8.07 9.42-9.45 16.9-3.18 0.749 0.629 0.988 0.718 0.945 0.353-0.292-2.45 0.302-4.92 1.51-6.27 0.503-0.561 0.496-0.565-0.656-0.341-4.21 0.818-8.82-0.967-11.7-4.51-0.293-0.367-0.566-0.68-0.606-0.696-0.0401-0.0158-0.153 0.776-0.251 1.76-0.213 2.14-0.256 2.44-0.356 2.5-0.0422 0.0261-1.36 0.373-2.92 0.772-4.54 1.16-7.54 1.97-11.3 3.07-3.35 0.984-3.1 0.996-2.9-0.136 0.2-1.15 0.197-1.21-0.081-1.25l-0.24-0.034 0.029-0.401c0.0393-0.545 0.0446-0.543-1-0.254-1.27 0.351-4.17 1.18-5.77 1.65l-1.32 0.389-0.154-0.127c-0.103-0.0853-0.157-0.338-0.164-0.762-6e-3 -0.349-0.0428-0.751-0.0824-0.893l-0.0721-0.259-0.346 0.0352c-0.207 0.0211-0.379-0.0192-0.429-0.1-0.126-0.205-0.177-0.096-0.293 0.637-0.127 0.795-0.29 0.965-1.1 1.15-0.77 0.172-0.774 0.244-0.0269 0.496 1.69 0.569 3.4 2.08 4.37 3.85 0.349 0.638 0.992 2.35 0.992 2.64 0 0.798 0.275 0.778 0.973-0.07zm-21.6-3.58c0.391-1.27 0.189-1.36-0.291-0.136-0.385 0.985-0.397 1.07-0.123 0.927 0.125-0.067 0.284-0.371 0.414-0.791zm68-7.48c0-0.206-0.244-0.296-0.529-0.197-0.377 0.132-0.384 0.267-0.0145 0.313 0.318 0.0401 0.543-8e-3 0.543-0.116zm-79.6-6.47c3.38-0.715 7.22-6.57 7.81-11.9 0.0768-0.696 0.218-1.18 0.315-1.08 0.0329 0.0329 0.151-0.0249 0.262-0.129 0.213-0.198 1.99-0.369 2.21-0.213 0.344 0.246 1.44 0.114 1.88-0.225 0.336-0.262 1.73-0.484 1.85-0.293 0.097 0.157 0.393 0.125 0.331-0.0353-0.166-0.433 1.82-0.684 2.53-0.319 0.162 0.0838 0.298 0.139 0.303 0.124 0.0047-0.0157 0.0208-0.14 0.0356-0.277s0.0985-0.301 0.186-0.365c0.421-0.308 0.677-5.31 0.395-7.71-0.681-5.81-3.37-9.62-7.62-10.8l-0.822-0.226-1.86-7e-3c-12.4-0.047-24.1 15.6-23.3 31.1 0.115 2.31 0.212 2.42 0.22 0.247 0.0122-3.56 0.786-8.11 1.44-8.46 0.914-0.49 1.3-0.602 1.3-0.38 0 0.094 0.0582 0.15 0.129 0.126 0.0712-0.0249 0.117-0.117 0.102-0.204-0.0404-0.231 0.268-0.31 0.521-0.133 0.123 0.0861 0.265 0.115 0.328 0.0667 0.166-0.128 0.576-0.212 0.576-0.117 0 0.0455 0.192 0.034 0.427-0.0257 0.306-0.0776 0.519-0.0754 0.75 8e-3 0.461 0.165 1.78-0.0368 3.27-0.502 0.394-0.123 0.628-0.147 0.76-0.0782 0.126 0.0657 0.289 0.0585 0.482-0.0215 0.16-0.0663 0.7-0.128 1.2-0.138l0.91-0.0174 0.455-0.932c4.11-8.41 11-8.55 10.2-0.202-0.778 8.02-6.36 14.7-10.1 12.1-0.612-0.421-0.589-0.131 0.0338 0.418 0.69 0.607 1.36 0.735 2.54 0.485zm16.7-1.56c-0.0016-0.114-0.0643-0.0207-0.139 0.207-0.075 0.228-0.135 0.507-0.134 0.621 0.0016 0.114 0.0643 0.0207 0.139-0.207 0.075-0.228 0.135-0.507 0.134-0.621zm70.6-3.31c1.78-2.66 4.69-3.77 7.12-2.72 0.922 0.398 1.05 0.313 0.294-0.198-2.95-2-8.13 1.03-8.52 4.99l-0.0595 0.613 0.319-0.955c0.197-0.589 0.518-1.25 0.838-1.73zm-44.9-1.97c0.126-0.968 0.318-2.42 0.427-3.23 0.109-0.811 0.197-1.63 0.195-1.81l-3e-3 -0.337-0.105 0.181c-0.0579 0.0994-0.172 0.88-0.254 1.74-0.0819 0.855-0.242 2.33-0.357 3.29-0.214 1.78-0.237 2.06-0.17 1.98 0.0216-0.0237 0.142-0.835 0.268-1.8zm28 0.266c2.36-0.565 5.29-3.03 5.59-4.69 0.0958-0.532-0.0704-0.488-0.353 0.0942-1.22 2.5-4.2 4.37-6.8 4.26l-0.837-0.0355-0.744-0.369c-0.861-0.427-0.929-0.381-0.279 0.192 0.823 0.725 1.93 0.902 3.42 0.547zm28.6-1.94c1.18-0.277 0.977-0.476-0.336-0.321-0.938 0.111-0.958 0.119-0.778 0.336 0.165 0.198 0.204 0.198 1.11-0.0151zm-43.8-5.78c0.18-1.17 0.371-2.03 0.634-2.85l0.151-0.47 0.853-0.195c0.469-0.107 1.04-0.18 1.27-0.161 0.228 0.0186 0.484 0.0285 0.569 0.0221 1.41-0.106 2.07-0.113 2.07-0.0224 0 0.0581 0.0466 0.106 0.104 0.106s0.104-0.0585 0.104-0.13c0-0.347 2.86-0.929 3.46-0.702 0.132 0.05 0.451 0.0443 0.742-0.0132 0.281-0.0556 0.568-0.112 0.638-0.125 0.0703-0.0134 0.356-0.491 0.635-1.06 3.28-6.71 8.96-9.46 12.1-5.86l0.422 0.48 0.138-0.148c0.076-0.0814 0.946-1.06 1.93-2.17 2.16-2.43 4.74-5.26 6.12-6.7 1.21-1.27 1.2-1.19 0.26-2.13-6.12-6.16-18.9-3.57-25.9 5.26-4.15 5.23-6.86 13-6.79 19.5l0.0136 1.29 0.127-1.4c0.07-0.768 0.206-1.91 0.302-2.54zm15.5 2.85c0.0332-0.0536 0.107-0.368 0.164-0.699 0.144-0.835 1.11-4.9 1.36-5.75l0.21-0.699 0.22-0.0153c0.121-8e-3 0.29-0.0248 0.375-0.0364 0.0854-0.0116 0.21-0.028 0.277-0.0364 0.0672-8e-3 0.137-0.119 0.155-0.245l0.0331-0.229 0.776-0.181c0.523-0.122 1.36-0.194 2.56-0.222l1.78-0.0407 0.289-0.192c0.18-0.119 0.49-0.195 0.823-0.202 0.294-5e-3 0.597-0.0601 0.673-0.121 0.2-0.161 1.01-0.136 1.47 0.0465l0.395 0.157 0.403-0.133c0.296-0.0976 0.44-0.103 0.541-0.0189 0.101 0.0838 0.258 0.0786 0.591-0.0195l0.453-0.134-0.49-0.128 0.191-0.211c0.105-0.116 0.275-0.211 0.376-0.211s0.214-0.0466 0.249-0.104c0.106-0.172 0.259-0.116 0.259 0.0944 0 0.152 0.101 0.215 0.44 0.271 0.242 0.0402 0.561 0.135 0.709 0.211l0.269 0.138 0.171-0.708c0.094-0.389 0.172-0.794 0.173-0.9 1e-3 -0.106 0.096-0.399 0.211-0.651 0.334-0.737 0.29-0.749-1.37-0.365-8.96 2.07-13.3 3.11-13.4 3.17-0.0285 0.0285-0.17 0.7-0.315 1.49-0.379 2.08-0.955 5-1.13 5.76-0.209 0.888-0.161 1.34 0.0986 0.915zm-51.3-1.56c0.179-0.82 0.366-1.6 0.416-1.73l0.0908-0.239 0.413 0.258 0.3-0.177c0.386-0.228 2.02-0.371 2.13-0.187 0.0553 0.0895 0.121 0.063 0.23-0.0926l0.153-0.218 0.69-9.3e-4c0.38-5.1e-4 0.945-2e-3 1.26-3e-3 0.385-1e-3 0.693-0.0732 0.962-0.225 0.297-0.167 0.44-0.196 0.573-0.116 0.189 0.114 1.94 0.0772 2.16-0.0457 0.145-0.081 1.51 0.0243 2.16 0.167 0.232 0.0506 0.934 0.0581 1.56 0.0166 0.677-0.0447 1.33-0.0335 1.6 0.0275 0.544 0.122 0.87 0.129 1.27 0.0261 0.225-0.0576 0.322-0.0345 0.393 0.0935 0.146 0.261 0.386 0.203 0.581-0.14 0.097-0.17 0.215-0.31 0.261-0.31 0.0468-3.6e-4 0.155-0.0705 0.24-0.156 0.0854-0.0854 0.252-0.155 0.371-0.155s0.372-0.12 0.564-0.266c0.389-0.297 1-0.442 1.11-0.263 0.0391 0.0632 0.243 0.111 0.453 0.107 0.21-5e-3 0.312-0.0315 0.227-0.06-0.452-0.151-0.464-0.165-0.193-0.243 0.315-0.0908 0.836-0.0161 0.759 0.109-0.0758 0.123 0.113 0.213 0.298 0.142 0.0869-0.0334 0.134-0.124 0.104-0.201-0.104-0.27 2.13-0.514 2.3-0.25 0.0904 0.146 0.42 0.116 0.559-0.0507 0.201-0.242 1.56 0.0525 2 0.434 0.135 0.117 0.311 0.138 0.725 0.0845 0.3-0.0385 0.628-0.0654 0.727-0.0598 1.28 0.0718 2.54-0.288 2.39-0.681-0.0631-0.165 0.125-0.205 0.222-0.0476 0.076 0.123 0.649 0.0202 0.942-0.169 0.118-0.0764 0.246-0.108 0.283-0.0711 0.0374 0.0374 0.476 0.0658 0.975 0.0631 0.499-3e-3 0.954 0.0317 1.01 0.0763 0.194 0.152 0.672 0.0886 0.68-0.0901 6e-3 -0.129 0.028-0.12 0.0962 0.0388 0.06 0.14 0.0919 0.157 0.0981 0.0517 5e-3 -0.0854 0.0788-0.644 0.164-1.24 0.349-2.45 0.898-7.14 1.91-16.3 0.119-1.07 0.192-1.98 0.163-2.01-0.121-0.121-12.7 2.31-12.9 2.49-0.117 0.129-0.288 0.55-0.909 2.25-0.198 0.541-0.858 2.33-1.47 3.98-0.609 1.65-1.5 4.07-1.98 5.38s-1.04 2.82-1.24 3.36c-0.2 0.541-0.546 1.52-0.77 2.17-0.765 2.23-0.807 2.14-0.876-1.97-0.0311-1.85-0.101-5.47-0.155-8.05-0.0544-2.58-0.0989-5.55-0.0989-6.59 0-2.36 0.941-2.35-6.57-0.0804-7.41 2.24-6.38 1.61-6.83 4.18-0.206 1.17-0.748 4.15-1.2 6.62-0.456 2.48-0.964 5.55-1.13 6.83-0.321 2.49-0.45 3.41-0.616 4.4-0.121 0.718-0.121 0.723-0.0572 0.659 0.0266-0.0266 0.195-0.72 0.373-1.54zm15.5-2.79c-0.0786-0.127 0.206-0.251 0.359-0.157 0.0606 0.0374 0.0833 0.111 0.0506 0.164-0.079 0.128-0.329 0.123-0.41-8e-3zm55.1 1.71 3.4e-4 -0.414-0.0856 0.414c-0.0471 0.228-0.0828 0.554-0.0794 0.725l6e-3 0.311 0.079-0.311c0.0435-0.171 0.0792-0.497 0.0794-0.725zm0.495-3.11c0.384-2.51 1.11-6.52 1.25-6.99l0.0501-0.155 0.369 0.452 0.92-0.0986c0.506-0.0542 1.07-0.126 1.26-0.16 0.248-0.0456 0.336-0.0239 0.336 0.0827 0 0.214 0.856 0.444 1.12 0.302 0.115-0.0617 0.317-0.113 0.449-0.114l0.24-2e-3 -0.155-0.111c-0.12-0.0855-0.096-0.0941 0.104-0.0376 0.142 0.0403 0.468 0.096 0.725 0.124 0.275 0.0297 0.544 0.133 0.656 0.252 0.186 0.196 0.411 0.223 0.378 0.044-0.0488-0.262 0.438-0.333 0.673-0.0982l0.17 0.17 0.382-0.126c0.21-0.0694 0.428-0.117 0.485-0.106 0.0564 0.0113 0.201 0.0151 0.322 8e-3l0.219-0.0123 0.335-0.906c0.682-1.85 2.52-6.95 2.9-8.05 0.216-0.626 0.751-2.14 1.19-3.36 0.914-2.55 3.06-8.87 3.06-9.01 0-0.179-0.48-0.0987-6.28 1.04-7.14 1.41-7.72 1.53-7.82 1.63-0.214 0.214-1.92 12.2-3.24 22.8-0.202 1.62-0.414 3.29-0.471 3.7-0.0567 0.415-0.0982 0.904-0.0921 1.09l0.0111 0.332 0.0815-0.414c0.0448-0.228 0.21-1.25 0.367-2.28zm-8.62-2.48c0.125-0.0947 0.149-0.166 0.0727-0.213-0.167-0.103-0.415 0.0186-0.415 0.203 0 0.194 0.0964 0.196 0.343 0.01zm-62.4-9.79c0.602-3.84 0.817-4.61 1.33-4.71 0.181-0.0386 1.12-0.317 2.09-0.618 4.48-1.4 8.03-2.45 12.9-3.84 0.906-0.257 1.74-0.453 1.86-0.436l0.216 0.0309 0.0574 2.95 0.282-0.0721c0.155-0.0397 0.375-0.0752 0.489-0.0789l0.207-7e-3 -0.0367 2.59c-0.0233 1.64-6.7e-4 2.55 0.0619 2.48 0.0542-0.0569 0.486-1.17 0.959-2.48 1.08-2.99 1.1-3.03 1.32-3.09 0.237-0.0713 14.8-2.86 15-2.86 0.17 0 0.0342-0.259-0.43-0.816-1.34-1.61-2.35-4.56-2.56-7.49-0.0955-1.32-0.0687-1.33-1.27 0.261-6.24 8.27-12.2 9.56-16.4 3.54-0.885-1.27-0.908-1.29-1.12-0.716-3.35 9.26-11.1 9.27-21.1 0.0292-0.659-0.608-1.05-0.848-1.05-0.644 0 0.0318 0.138 0.604 0.306 1.27 0.823 3.26 0.561 6.13-0.735 8.05-0.426 0.632-0.424 0.636 0.587 1.06 2.84 1.18 4.45 2.63 6.38 5.71 0.457 0.731 0.525 0.721 0.653-0.0981zm-26.4 0.0533c0.421-0.435 0.457-0.4-0.598-0.566-1.05-0.165-1.08-0.14-0.535 0.453 0.524 0.569 0.677 0.584 1.13 0.113zm66.5-3.08c0.879-1.13 2.78-3.04 4.22-4.22 1.31-1.07 1.32-1.1 0.478-0.944-1.34 0.249-4.57-4e-3 -5.34-0.419l-0.186-0.0998-0.103 0.27c-0.0564 0.148-0.103 0.408-0.103 0.578v0.308l0.361-0.0678c0.505-0.0947 0.448 2.29-0.123 5.16-0.0938 0.471 0.109 0.328 0.801-0.564zm20-9.91c1.87-0.698 2.35-0.895 2.35-0.976 4e-3 -0.196-2.31 0.311-4.14 0.908l-0.776 0.253 1.01 8e-3c0.764 6e-3 1.14-0.0409 1.55-0.193zm-97 66.6c0-0.106 0.165-0.321 1.65-2.14 0.934-1.14 2.27-2.7 2.81-3.28l0.455-0.486 2.41 0.0605c2.86 0.072 2.8-0.044 0.725 1.29-2.82 1.82-8.05 4.77-8.05 4.55zm117-8.86-3.96-1.59-1.84-1.78c-2.32-2.25-2.29-2.15-0.523-1.7 0.572 0.145 1.48 0.355 2.03 0.467l0.988 0.203 1.15 0.853c2.37 1.76 6.3 4.88 6.36 5.05 0.0705 0.196-0.329 0.0533-4.2-1.5zm-120-30.7c-0.0854-0.0315-0.994-0.358-2.02-0.725-3.38-1.21-6.19-2.41-6.03-2.57 0.209-0.209 8.36 0.89 8.51 1.15 0.057 0.0946 0.255 0.405 0.44 0.69 0.424 0.652 0.42 0.678-0.143 1.15-0.482 0.401-0.504 0.41-0.763 0.314zm126-0.571c-0.203-0.203-0.138-0.401 0.489-1.48l0.602-1.04 1.54-0.0813c3.47-0.183 9.51 0.0495 8.47 0.327-1.54 0.412-6.88 1.59-9.16 2.03-0.769 0.146-1.49 0.288-1.61 0.315-0.118 0.027-0.269-6e-3 -0.336-0.0726zm-111-26.4c-1.75-0.863-3.79-1.72-4.96-2.08l-0.613-0.19-0.37-0.519c-0.49-0.688-3.21-4.31-4.12-5.49-0.398-0.516-0.807-1.06-0.909-1.22l-0.186-0.283 0.293-0.306c0.161-0.168 0.355-0.306 0.431-0.306 0.476 0 11.9 10.3 12.4 11.1 0.149 0.267-0.124 0.164-1.94-0.732zm72.6-4.78c0-0.124 0.257-0.47 1.55-2.09 0.657-0.821 1.54-1.93 1.95-2.47 0.845-1.08 1.48-1.77 4.87-5.29 1.47-1.52 2.35-2.36 2.37-2.26 0.0772 0.396-4.36 8.86-4.74 9.05-0.141 0.0707-0.885 0.432-1.65 0.803-0.768 0.371-2.03 1.05-2.79 1.5-1.39 0.824-1.55 0.903-1.55 0.749z" fill="#fb9000"/><path d="m101 194c-0.279-5.3-0.568-7.39-1.31-9.53-2.31-6.62-8.54-5.11-23.3 5.66-3.68 2.69-3.62 2.65-3.62 2.4 0-0.0539 0.424-1.11 0.942-2.35 2.67-6.4 4.32-11.3 3.95-11.6-0.0461-0.0461-0.722 0.239-1.5 0.633-8.79 4.45-17.5 0.888-20.9-8.57-0.214-0.588-0.46-1.1-0.545-1.13-0.333-0.128-7.51 1.53-12.4 2.87-0.857 0.233-1.04 0.254-1.04 0.114 0-0.194 5.97-4.85 9.93-7.74 1.11-0.813 2.17-1.6 2.36-1.74l0.336-0.263 0.0021-1c0.0147-6.95 2.66-15.3 6.69-21.1 0.663-0.949 0.669-1.01 0.173-1.62-1.88-2.33-5.55-5.53-11.2-9.74-1.54-1.15-2.81-2.14-2.83-2.19-0.0624-0.162 0.24-0.0997 4.56 0.94 6.92 1.67 10 2.25 12.6 2.35l1.46 0.0606 0.82-0.267c0.451-0.147 1.38-0.413 2.06-0.591 7.61-1.99 9.13-2.56 10-3.8 1.85-2.55 1.12-7.36-2.69-17.7-0.771-2.09-0.836-2.31-0.69-2.31 0.0895 0 5.07 3.97 8.1 6.46 4.43 3.64 5.5 4.49 7.09 5.69 8.95 6.71 12.6 3.66 13.4-11.3 0.141-2.52 0.112-2.48 0.861-1.16 0.251 0.439 1.13 1.99 1.96 3.44 2.98 5.24 3.48 6.05 4.61 7.47 3.59 4.51 7.41 1.52 17.8-13.9 0.449-0.669 0.853-1.22 0.897-1.22 0.0987 0 0.0975 0.22-0.0231 4.24-0.495 16.5 2.28 19.3 14.8 15 1.39-0.477 1.83-0.595 1.83-0.487 0 0.021-0.233 0.605-0.518 1.3-0.285 0.692-0.518 1.28-0.518 1.31 0 0.171 2.13-0.421 4.97-1.39 5.21-1.77 8.3-3.28 14-6.86 2.16-1.36 2.11-1.42 0.588 0.927-3.57 5.51-5.88 9.49-5.72 9.88 0.0268 0.0688 0.239 0.234 0.473 0.368 0.233 0.133 0.973 0.776 1.64 1.43 0.753 0.731 1.25 1.14 1.29 1.07 0.0396-0.064 0.299-1.64 0.577-3.5 0.576-3.86 0.562-3.81 1.1-3.91 0.216-0.0378 3.12-0.596 6.45-1.24 12.1-2.34 13.8-2.65 13.9-2.56 0.0564 0.0564-0.49 1.79-1.37 4.33-0.803 2.33-1.78 5.17-2.17 6.31s-1.34 3.93-2.12 6.21c-5.27 15.4-6.09 18-5.72 18.3 2.7 1.7 7.38 3.82 12.3 5.6 1.93 0.692 1.93 0.684 0.129 0.933-4.8 0.665-10.8 1.72-13 2.3l-0.932 0.238-0.0715 1.24c-0.443 7.68-8.31 12.2-13.3 7.69l-0.674-0.618-0.319 0.07c-0.651 0.143-0.962 1.2-0.678 2.31 0.464 1.81 2.54 4.68 7.03 9.71 0.477 0.534 0.0234 0.382-1.48-0.496-8.99-5.26-13.7-6.3-16.5-3.65-2.01 1.91-1.96 4.95 0.226 14.2 0.224 0.948 0.434 1.1-3.28-2.36-7.34-6.83-11.2-9.15-13.9-8.32l-0.609 0.189-0.729 0.731c-1.4 1.41-2.3 3.85-2.89 7.87-0.153 1.04-0.576 4.76-0.576 5.06 0 0.364-0.231 0.0968-1.05-1.21-3.55-5.68-5.89-8.42-8.15-9.52l-0.692-0.339h-2.07l-0.608 0.285c-2.29 1.07-4.91 3.94-8.63 9.44-1.62 2.39-1.53 2.36-1.62 0.711zm4.02-11.4c2.23-2.72 5.11-4.27 7.93-4.27l1.19-4e-3 0.867 0.297c1.57 0.537 3.54 1.95 4.9 3.51 0.874 1.01 0.967 1.04 1.12 0.447 2.1-8.07 9.42-9.45 16.9-3.18 0.749 0.629 0.988 0.718 0.945 0.353-0.292-2.45 0.302-4.92 1.51-6.27 0.503-0.561 0.496-0.565-0.656-0.341-4.21 0.818-8.82-0.967-11.7-4.51-0.293-0.367-0.566-0.68-0.606-0.696-0.0401-0.0158-0.153 0.776-0.251 1.76-0.213 2.14-0.256 2.44-0.356 2.5-0.0422 0.0261-1.36 0.373-2.92 0.772-4.54 1.16-7.54 1.97-11.3 3.07-3.35 0.984-3.1 0.996-2.9-0.136 0.2-1.15 0.197-1.21-0.081-1.25l-0.24-0.034 0.029-0.401c0.0393-0.545 0.0446-0.543-1-0.254-1.27 0.351-4.17 1.18-5.77 1.65l-1.32 0.389-0.154-0.127c-0.103-0.0853-0.157-0.338-0.164-0.762-6e-3 -0.349-0.0428-0.751-0.0824-0.893l-0.0721-0.259-0.346 0.0352c-0.207 0.0211-0.379-0.0192-0.429-0.1-0.126-0.205-0.177-0.096-0.293 0.637-0.127 0.795-0.29 0.965-1.1 1.15-0.77 0.172-0.774 0.244-0.0269 0.496 1.69 0.569 3.4 2.08 4.37 3.85 0.349 0.638 0.992 2.35 0.992 2.64 0 0.798 0.275 0.778 0.973-0.07zm-21.6-3.58c0.391-1.27 0.189-1.36-0.291-0.136-0.385 0.985-0.397 1.07-0.123 0.927 0.125-0.067 0.284-0.371 0.414-0.791zm4.09-10.3c0.884-3.61 1.72-6.91 2.07-8.23 0.13-0.484 0.318-1.2 0.418-1.58l0.181-0.701 0.142 0.118c0.0796 0.0661 0.222 0.0834 0.324 0.0396 1-0.429 4.35-0.406 6.75 0.0476 0.313 0.0591 0.645 0.0834 0.738 0.0541 0.175-0.055 0.713 0.139 0.827 0.298 0.0354 0.0497 0.141-0.299 0.234-0.774 0.28-1.43 0.854-3.91 0.92-3.98 0.155-0.155 0.267 0.121 0.329 0.812 0.32 3.55 1.23 10.8 1.37 10.9 0.0599 0.0581-0.0111-0.866-0.243-3.16-0.145-1.43-0.452-5.48-0.417-5.49 8e-3 -3e-3 0.657 0.0261 1.44 0.0647 1.4 0.069 1.73 0.0289 2.3-0.281 0.114-0.0618 0.664-0.138 1.22-0.17 0.558-0.0317 1.07-0.102 1.14-0.156 0.283-0.224 4.21 0.0122 4.72 0.284 0.129 0.069 0.248 0.11 0.264 0.0911 0.0958-0.11 0.422-0.829 0.644-1.42 0.142-0.377 0.479-1.17 0.751-1.77 0.271-0.598 0.577-1.28 0.68-1.53 0.103-0.242 0.249-0.44 0.326-0.44 0.166 0 0.169 0.0695 0.0373 0.88-0.0554 0.342-0.194 1.48-0.308 2.54-0.211 1.95-1.19 10.8-1.3 11.8-0.036 0.313-0.04 0.544-9e-3 0.514 0.0311-0.0303 0.27-1.5 0.531-3.26 0.665-4.49 1.19-7.92 1.26-8.2l0.0578-0.236 0.25 0.342 0.434-0.271 0.397 0.177c0.43 0.192 1.56 0.192 1.81 4.3e-4 0.254-0.195 0.812-0.372 1.25-0.397 0.241-0.0137 0.81-0.105 1.27-0.202l0.828-0.177 0.776 0.166c0.712 0.152 2.1 0.162 2.25 0.0167 0.0296-0.0296 0.137-9e-3 0.238 0.0448l0.184 0.0987 0.0576-0.387c0.0317-0.213 0.0857-0.666 0.12-1.01 0.0672-0.669 0.811-6.85 0.978-8.12 0.191-1.46 0.923-7.91 1.39-12.3 0.257-2.39 0.517-4.67 0.577-5.06 0.136-0.896 0.103-0.926-0.837-0.741-0.423 0.0833-2.14 0.412-3.82 0.73-6.42 1.22-8.18 1.57-8.28 1.67-0.055 0.055-0.43 1.01-0.833 2.11-0.713 1.96-0.977 2.67-2.43 6.57-0.804 2.16-1.85 5.01-2.8 7.66-1.04 2.88-0.936 3.36-1.12-5.18-0.262-12.1-0.279-12.6-0.422-12.6-0.0709 0-2.29 0.648-4.93 1.44-6.93 2.08-7.25 2.18-7.64 2.37l-0.36 0.175-0.342 1.97c-0.373 2.15-1.2 6.71-1.69 9.31-0.171 0.905-0.45 2.68-0.619 3.93-0.719 5.34-1.36 8.48-2.89 14.1-0.659 2.45-2.21 9.8-2.03 9.62 0.0246-0.0246 0.399-1.49 0.831-3.25zm63.9 2.86c0-0.206-0.244-0.296-0.529-0.197-0.377 0.132-0.384 0.267-0.0145 0.313 0.318 0.0401 0.543-8e-3 0.543-0.116zm-94.3-4.22c-0.201-1.14-0.425-4.51-0.331-5l0.069-0.363 0.802-0.0137c0.866-0.0148 1.7-0.184 2.06-0.416l0.222-0.145 0.271 0.124c0.213 0.0972 0.365 0.0944 0.711-0.0131 0.242-0.0752 0.673-0.153 0.957-0.172 0.284-0.0194 0.666-0.0846 0.849-0.145 0.202-0.0667 0.754-0.0859 1.4-0.0488 0.785 0.0447 1.17 0.0232 1.43-0.0802 0.678-0.269 1.8-0.12 1.96 0.263 0.0763 0.174 0.0888 0.0557 0.0476-0.451-0.591-7.28 5.6-16.6 9.78-14.7 4.41 1.99 1.21 15.1-4.37 17.9l-0.905 0.458-1.73 0.0908-0.456-0.203c-0.251-0.112-0.661-0.375-0.91-0.585-0.525-0.441-0.614-0.428-0.37 0.0557 1.42 2.81 5.44 1.47 8.31-2.78 0.471-0.697 0.88-1.27 0.909-1.27 0.0287 0 0.187 0.0696 0.351 0.155 0.366 0.189 2.31 0.306 2.59 0.155 0.132-0.0706 0.273-0.0677 0.442 9e-3 0.254 0.116 0.57 0.0472 1.73-0.375 0.338-0.123 0.551-0.143 0.776-0.0749 0.175 0.0532 0.446 0.0564 0.621 7e-3 0.171-0.0479 0.613-0.0793 0.983-0.0698 0.37 0.01 0.99-0.02 1.38-0.0656l0.704-0.0829 0.153-0.297c0.151-0.292 0.478-1.21 1.01-2.83 4.39-13.4 0.261-24.8-8.94-24.8-14 0.0139-27.2 21.3-22.6 36.4 0.238 0.767 0.272 0.52 0.079-0.57zm101-5.26c1.15-4.03 5.85-6.13 8.75-3.91 0.583 0.445 0.648 0.386 0.21-0.188-2.76-3.62-9.5 0.0888-9.5 5.23 0 1.11 0.136 1.31 0.241 0.366 0.0471-0.427 0.179-1.1 0.293-1.5zm-31.2-1.66c-0.275-1.09-0.47-5.01-0.266-5.32 0.0552-0.0854 0.101-0.107 0.102-0.0482 2e-3 0.133 1.05 0.101 1.54-0.0466 0.193-0.0584 0.389-0.0827 0.435-0.0541 0.0463 0.0286 0.258-0.0208 0.471-0.11 0.213-0.089 0.444-0.14 0.513-0.114 0.069 0.0265 0.374-0.0181 0.678-0.099s0.786-0.149 1.07-0.151c0.285-2e-3 0.718-0.05 0.963-0.107 1.1-0.253 3.23-0.163 3.48 0.148 0.0625 0.0771 0.207 0.162 0.321 0.189l0.207 0.0485 8e-3 -4.26 0.234-1.07c1.48-6.79 5.78-11.7 10.2-11.5l0.983 0.0368 0.704 0.333c0.461 0.218 0.922 0.551 1.34 0.965l0.631 0.631 0.175-0.188c0.0962-0.104 1.13-1.26 2.29-2.56 1.16-1.31 2.93-3.26 3.92-4.34 0.996-1.08 2.06-2.24 2.37-2.57l0.554-0.606-0.159-0.243c-3.7-5.65-14.7-5.41-22.5 0.493-8.19 6.17-13.1 20.7-10.3 30.6 0.0907 0.324 0.182 0.293 0.1-0.0337zm15.7-1.95c1.88-0.606 5.55-3.95 5.25-4.79-0.0377-0.105-0.0319-0.157 0.0128-0.117 0.0447 0.0404 0.212 6e-3 0.371-0.0765 0.178-0.0922 0.414-0.125 0.612-0.0856 0.236 0.0472 0.356 0.018 0.449-0.109 0.226-0.309 2.28-0.508 3.24-0.314 0.18 0.0363 0.606-8e-3 0.966-0.1 0.354-0.0907 0.791-0.167 0.972-0.169 0.18-2e-3 0.444-0.0702 0.587-0.152 0.335-0.192 0.774-0.195 0.962-7e-3l0.149 0.149 0.273-1.13c0.267-1.1 1.49-6.78 1.77-8.23 0.0775-0.398 0.191-0.854 0.252-1.01l0.111-0.288-0.152-0.0583c-0.0836-0.0321-1.26 0.202-2.61 0.52-1.35 0.318-4.64 1.09-7.31 1.72-5.51 1.29-5.06 1.11-5.23 2.1-0.0715 0.413-0.43 2.26-0.798 4.1-0.73 3.66-0.723 3.53-0.168 3.29 0.214-0.0925 0.562-0.198 0.774-0.234 0.212-0.0362 0.511-0.183 0.665-0.325l0.28-0.259 0.681 0.0607c0.374 0.0334 0.89 0.0125 1.15-0.0463 1.75-0.402 1.86-0.311 1.18 0.954-2.01 3.75-6.58 5.45-9.04 3.35-0.659-0.563-0.759-0.535-0.328 0.0911 1.02 1.48 2.72 1.88 4.94 1.17zm27.9-1.89c1.18-0.277 0.977-0.476-0.336-0.321-0.938 0.111-0.958 0.119-0.778 0.336 0.165 0.198 0.204 0.198 1.11-0.0151zm-9.06-3.84c0.0993-0.929 0.599-3.93 0.729-4.38l0.131-0.452 0.462 7e-3c0.254 4e-3 0.695 0.0145 0.98 0.024 1.38 0.0461 4.57-0.0651 4.76-0.166 0.114-0.0615 0.424-0.0873 0.69-0.0575l0.482 0.0543 0.173-0.335c0.23-0.445 1.37-3.57 3.05-8.38 0.389-1.11 0.97-2.76 1.29-3.67 3.45-9.76 5.39-15.5 5.3-15.5-0.0676-0.0676-0.494 0.0121-8.19 1.53-3.2 0.632-5.88 1.19-5.96 1.23-0.212 0.131-1.45 8.48-2.9 19.5-0.403 3.07-0.824 6.29-0.936 7.14s-0.25 1.97-0.307 2.48c-0.057 0.512-0.13 1.06-0.162 1.21-0.0323 0.155-0.0278 0.332 0.01 0.393 0.132 0.213 0.334-0.0996 0.387-0.6zm-70.5-17.1c0.602-3.84 0.817-4.61 1.33-4.71 0.181-0.0386 1.12-0.317 2.09-0.618 4.48-1.4 8.03-2.45 12.9-3.84 0.906-0.257 1.74-0.453 1.86-0.436l0.216 0.0309 0.0574 2.95 0.282-0.0721c0.155-0.0397 0.375-0.0752 0.489-0.0789l0.207-7e-3 -0.0367 2.59c-0.0233 1.64-6.7e-4 2.55 0.0619 2.48 0.0542-0.0569 0.486-1.17 0.959-2.48 1.08-2.99 1.1-3.03 1.32-3.09 0.237-0.0713 14.8-2.86 15-2.86 0.17 0 0.0342-0.259-0.43-0.816-1.34-1.61-2.35-4.56-2.56-7.49-0.0955-1.32-0.0687-1.33-1.27 0.261-6.24 8.27-12.2 9.56-16.4 3.54-0.885-1.27-0.908-1.29-1.12-0.716-3.35 9.26-11.1 9.27-21.1 0.0292-0.659-0.608-1.05-0.848-1.05-0.644 0 0.0318 0.138 0.604 0.306 1.27 0.823 3.26 0.561 6.13-0.735 8.05-0.426 0.632-0.424 0.636 0.587 1.06 2.84 1.18 4.45 2.63 6.38 5.71 0.457 0.731 0.525 0.721 0.653-0.0981zm-26.4 0.0533c0.421-0.435 0.457-0.4-0.598-0.566-1.05-0.165-1.08-0.14-0.535 0.453 0.524 0.569 0.677 0.584 1.13 0.113zm66.5-3.08c0.879-1.13 2.78-3.04 4.22-4.22 1.31-1.07 1.32-1.1 0.478-0.944-1.34 0.249-4.57-4e-3 -5.34-0.419l-0.186-0.0998-0.103 0.27c-0.0564 0.148-0.103 0.408-0.103 0.578v0.308l0.361-0.0678c0.505-0.0947 0.448 2.29-0.123 5.16-0.0938 0.471 0.109 0.328 0.801-0.564zm20-9.91c1.87-0.698 2.35-0.895 2.35-0.976 4e-3 -0.196-2.31 0.311-4.14 0.908l-0.776 0.253 1.01 8e-3c0.764 6e-3 1.14-0.0409 1.55-0.193zm-97 66.6c0-0.106 0.165-0.321 1.65-2.14 0.934-1.14 2.27-2.7 2.81-3.28l0.455-0.486 2.41 0.0605c2.86 0.072 2.8-0.044 0.725 1.29-2.82 1.82-8.05 4.77-8.05 4.55zm117-8.86-3.96-1.59-1.84-1.78c-2.32-2.25-2.29-2.15-0.523-1.7 0.572 0.145 1.48 0.355 2.03 0.467l0.988 0.203 1.15 0.853c2.37 1.76 6.3 4.88 6.36 5.05 0.0705 0.196-0.329 0.0533-4.2-1.5zm-120-30.7c-0.0854-0.0315-0.994-0.358-2.02-0.725-3.38-1.21-6.19-2.41-6.03-2.57 0.209-0.209 8.36 0.89 8.51 1.15 0.057 0.0946 0.255 0.405 0.44 0.69 0.424 0.652 0.42 0.678-0.143 1.15-0.482 0.401-0.504 0.41-0.763 0.314zm126-0.571c-0.203-0.203-0.138-0.401 0.489-1.48l0.602-1.04 1.54-0.0813c3.47-0.183 9.51 0.0495 8.47 0.327-1.54 0.412-6.88 1.59-9.16 2.03-0.769 0.146-1.49 0.288-1.61 0.315-0.118 0.027-0.269-6e-3 -0.336-0.0726zm-111-26.4c-1.75-0.863-3.79-1.72-4.96-2.08l-0.613-0.19-0.37-0.519c-0.49-0.688-3.21-4.31-4.12-5.49-0.398-0.516-0.807-1.06-0.909-1.22l-0.186-0.283 0.293-0.306c0.161-0.168 0.355-0.306 0.431-0.306 0.476 0 11.9 10.3 12.4 11.1 0.149 0.267-0.124 0.164-1.94-0.732zm72.6-4.78c0-0.124 0.257-0.47 1.55-2.09 0.657-0.821 1.54-1.93 1.95-2.47 0.845-1.08 1.48-1.77 4.87-5.29 1.47-1.52 2.35-2.36 2.37-2.26 0.0772 0.396-4.36 8.86-4.74 9.05-0.141 0.0707-0.885 0.432-1.65 0.803-0.768 0.371-2.03 1.05-2.79 1.5-1.39 0.824-1.55 0.903-1.55 0.749z" fill="#fb6f00"/><path d="m101 194c-0.279-5.3-0.568-7.39-1.31-9.53-2.31-6.62-8.54-5.11-23.3 5.66-3.68 2.69-3.62 2.65-3.62 2.4 0-0.0539 0.424-1.11 0.942-2.35 2.67-6.4 4.32-11.3 3.95-11.6-0.0461-0.0461-0.722 0.239-1.5 0.633-8.79 4.45-17.5 0.888-20.9-8.57-0.214-0.588-0.46-1.1-0.545-1.13-0.333-0.128-7.51 1.53-12.4 2.87-0.857 0.233-1.04 0.254-1.04 0.114 0-0.194 5.97-4.85 9.93-7.74 1.11-0.813 2.17-1.6 2.36-1.74l0.336-0.263 0.0021-1c0.0147-6.95 2.66-15.3 6.69-21.1 0.663-0.949 0.669-1.01 0.173-1.62-1.88-2.33-5.55-5.53-11.2-9.74-1.54-1.15-2.81-2.14-2.83-2.19-0.0624-0.162 0.24-0.0997 4.56 0.94 6.92 1.67 10 2.25 12.6 2.35l1.46 0.0606 0.82-0.267c0.451-0.147 1.38-0.413 2.06-0.591 7.61-1.99 9.13-2.56 10-3.8 1.85-2.55 1.12-7.36-2.69-17.7-0.771-2.09-0.836-2.31-0.69-2.31 0.0895 0 5.07 3.97 8.1 6.46 4.43 3.64 5.5 4.49 7.09 5.69 8.95 6.71 12.6 3.66 13.4-11.3 0.141-2.52 0.112-2.48 0.861-1.16 0.251 0.439 1.13 1.99 1.96 3.44 2.98 5.24 3.48 6.05 4.61 7.47 3.59 4.51 7.41 1.52 17.8-13.9 0.449-0.669 0.853-1.22 0.897-1.22 0.0987 0 0.0975 0.22-0.0231 4.24-0.495 16.5 2.28 19.3 14.8 15 1.39-0.477 1.83-0.595 1.83-0.487 0 0.021-0.233 0.605-0.518 1.3-0.285 0.692-0.518 1.28-0.518 1.31 0 0.171 2.13-0.421 4.97-1.39 5.21-1.77 8.3-3.28 14-6.86 2.16-1.36 2.11-1.42 0.588 0.927-3.57 5.51-5.88 9.49-5.72 9.88 0.0268 0.0688 0.239 0.234 0.473 0.368 0.233 0.133 0.973 0.776 1.64 1.43 0.753 0.731 1.25 1.14 1.29 1.07 0.0396-0.064 0.299-1.64 0.577-3.5 0.576-3.86 0.562-3.81 1.1-3.91 0.216-0.0378 3.12-0.596 6.45-1.24 12.1-2.34 13.8-2.65 13.9-2.56 0.0564 0.0564-0.49 1.79-1.37 4.33-0.803 2.33-1.78 5.17-2.17 6.31s-1.34 3.93-2.12 6.21c-5.27 15.4-6.09 18-5.72 18.3 2.7 1.7 7.38 3.82 12.3 5.6 1.93 0.692 1.93 0.684 0.129 0.933-4.8 0.665-10.8 1.72-13 2.3l-0.932 0.238-0.0715 1.24c-0.443 7.68-8.31 12.2-13.3 7.69l-0.674-0.618-0.319 0.07c-0.651 0.143-0.962 1.2-0.678 2.31 0.464 1.81 2.54 4.68 7.03 9.71 0.477 0.534 0.0234 0.382-1.48-0.496-8.99-5.26-13.7-6.3-16.5-3.65-2.01 1.91-1.96 4.95 0.226 14.2 0.224 0.948 0.434 1.1-3.28-2.36-7.34-6.83-11.2-9.15-13.9-8.32l-0.609 0.189-0.729 0.731c-1.4 1.41-2.3 3.85-2.89 7.87-0.153 1.04-0.576 4.76-0.576 5.06 0 0.364-0.231 0.0968-1.05-1.21-3.55-5.68-5.89-8.42-8.15-9.52l-0.692-0.339h-2.07l-0.608 0.285c-2.29 1.07-4.91 3.94-8.63 9.44-1.62 2.39-1.53 2.36-1.62 0.711zm4.02-11.4c2.23-2.72 5.11-4.27 7.93-4.27l1.19-4e-3 0.867 0.297c1.57 0.537 3.54 1.95 4.9 3.51 0.874 1.01 0.967 1.04 1.12 0.447 2.1-8.07 9.42-9.45 16.9-3.18 0.749 0.629 0.988 0.718 0.945 0.353-0.292-2.45 0.302-4.92 1.51-6.27 0.503-0.561 0.496-0.565-0.656-0.341-4.21 0.818-8.82-0.967-11.7-4.51-0.293-0.367-0.566-0.68-0.606-0.696-0.0401-0.0158-0.153 0.776-0.251 1.76-0.213 2.14-0.256 2.44-0.356 2.5-0.0422 0.0261-1.36 0.373-2.92 0.772-4.54 1.16-7.54 1.97-11.3 3.07-3.35 0.984-3.1 0.996-2.9-0.136 0.2-1.15 0.197-1.21-0.081-1.25l-0.24-0.034 0.029-0.401c0.0393-0.545 0.0446-0.543-1-0.254-1.27 0.351-4.17 1.18-5.77 1.65l-1.32 0.389-0.154-0.127c-0.103-0.0853-0.157-0.338-0.164-0.762-6e-3 -0.349-0.0428-0.751-0.0824-0.893l-0.0721-0.259-0.346 0.0352c-0.207 0.0211-0.379-0.0192-0.429-0.1-0.126-0.205-0.177-0.096-0.293 0.637-0.127 0.795-0.29 0.965-1.1 1.15-0.77 0.172-0.774 0.244-0.0269 0.496 1.69 0.569 3.4 2.08 4.37 3.85 0.349 0.638 0.992 2.35 0.992 2.64 0 0.798 0.275 0.778 0.973-0.07zm-21.6-3.58c0.391-1.27 0.189-1.36-0.291-0.136-0.385 0.985-0.397 1.07-0.123 0.927 0.125-0.067 0.284-0.371 0.414-0.791zm2.78-4.62c0.0611-0.0736 0.487-1.67 0.946-3.54 0.459-1.88 0.978-3.93 1.15-4.57l0.319-1.16 0.844-0.0473c1.93-0.108 2.61-0.0864 3.44 0.11 0.242 0.0573 0.685 0.0658 1.04 0.0198 0.337-0.0443 1.02-0.11 1.52-0.146 0.501-0.0358 1.01-0.102 1.13-0.147 0.239-0.0883 0.901 0.0661 1.05 0.244 0.0518 0.0638 0.0636 0.0338 0.0291-0.0735-0.032-0.0996-0.0183-0.181 0.0306-0.181 0.171 0 0.712-2.3 1.77-7.51 0.798-3.95 0.769-3.91 1.05-1.16 0.244 2.42 0.631 5.63 1.09 9.03 0.199 1.48 0.433 3.3 0.519 4.04 0.0865 0.74 0.206 1.39 0.266 1.45 0.124 0.118 0.0721-0.871-0.172-3.26-0.191-1.87-0.207-3.21-0.0382-3.21 0.0667 0 0.201-0.0723 0.299-0.161 0.11-0.0995 0.546-0.201 1.15-0.268 0.533-0.0588 1.13-0.151 1.33-0.205 0.411-0.111 0.823-0.118 2.79-0.0466 2.06 0.075 1.74 0.375 3.13-2.94 0.344-0.825 0.948-2.27 1.34-3.2 0.394-0.934 0.874-2.1 1.07-2.59 0.927-2.35 1.54-3.47 1.36-2.48-0.035 0.192-0.226 1.79-0.425 3.56-0.978 8.68-1.54 13.4-1.78 14.9-0.0617 0.386 0.0637 0.554 0.222 0.298 0.0359-0.0581 0.317-1.72 0.625-3.7 0.596-3.83 0.816-5.07 0.916-5.17 0.0344-0.0344 0.0626-4e-3 0.0626 0.0674 0 0.0968 0.258 0.125 1.01 0.11 0.555-0.0111 1.28 0.0367 1.61 0.106 0.451 0.0943 0.67 0.0971 0.859 0.011 0.139-0.0635 0.417-0.116 0.618-0.116 0.2 0 0.454-0.0483 0.565-0.107 0.11-0.0591 0.468-0.127 0.795-0.151 0.327-0.024 0.766-0.0864 0.975-0.139 0.209-0.0522 0.502-0.0715 0.652-0.0429 0.184 0.0352 0.315-6e-3 0.405-0.129l0.133-0.181 0.229 0.123c0.132 0.0706 0.522 0.109 0.918 0.0907l0.689-0.0319 0.256 0.504 0.0565-0.252c0.104-0.465 0.466-3.65 0.687-6.05 0.121-1.31 0.47-4.55 0.777-7.19 1.48-12.7 2.37-20.9 2.29-21-0.0776-0.0776-0.638 0.0222-7.42 1.32-4.29 0.822-5.47 1.08-5.6 1.23-0.0912 0.105-0.411 0.858-0.71 1.67-0.299 0.815-1.3 3.53-2.23 6.04s-1.93 5.21-2.22 6c-0.293 0.797-0.663 1.8-0.823 2.23-0.16 0.427-0.394 1.09-0.52 1.47-0.333 1.02-0.391 0.95-0.463-0.569-0.0844-1.78-0.37-14.5-0.37-16.4 0-1.64-0.0334-1.84-0.301-1.84-0.272 0-11.9 3.48-12.6 3.77l-0.316 0.132-0.396 2.27c-0.383 2.19-1.24 6.84-1.77 9.61-0.141 0.74-0.375 2.23-0.52 3.31-0.668 5-1.35 8.35-2.93 14.3-0.391 1.47-0.671 2.71-2.03 9.02-0.321 1.49-0.61 2.8-0.642 2.92-0.0639 0.244 0.0867 0.294 0.259 0.0866zm65.2-2.86c0-0.206-0.244-0.296-0.529-0.197-0.377 0.132-0.384 0.267-0.0145 0.313 0.318 0.0401 0.543-8e-3 0.543-0.116zm-93.6-1.85c-0.0886-0.342-0.161-0.689-0.161-0.771 0-0.247 0.967-0.392 2.59-0.388 0.825 2e-3 1.99-0.0477 2.59-0.11 0.598-0.0625 1.27-0.126 1.5-0.141 0.228-0.0151 0.521-0.0621 0.652-0.104 0.138-0.0445 0.296-0.0288 0.376 0.0374 0.194 0.161 2.85 0.24 3.03 0.0898 0.355-0.294 2.13-0.413 4.37-0.293 0.642 0.0344 1.22-0.0159 2.12-0.186 0.683-0.128 1.45-0.251 1.71-0.274 0.256-0.0225 0.687-0.0908 0.957-0.152 1.07-0.24 1.5-0.306 2.06-0.312 0.32-3e-3 0.752-0.077 0.959-0.164 0.573-0.239 2.19-0.245 2.64-0.01 0.192 0.102 0.38 0.146 0.42 0.0986 4.9-5.93 7.9-19.4 6-26.9-4.13-16.3-26.2-8.09-32 11.9-1.03 3.57-1.41 6.23-1.4 9.92l0.0063 2.9 0.276 1.41c0.152 0.778 0.422 1.85 0.599 2.38 0.541 1.62 1 2.34 0.668 1.04zm12.2-5.26c-5.4-1.66-0.841-17.1 5.43-18.4 2.38-0.492 3.8 1.29 3.8 4.79-0.0035 7.3-5.13 14.8-9.23 13.6zm76.2 3.28c0-0.15 0.0691-0.598 0.153-0.996 0.169-0.799 0.208-1.65 0.0637-1.4-0.0479 0.0854-0.144 0.481-0.213 0.88-0.0694 0.398-0.168 0.92-0.22 1.16-0.0518 0.239-0.0942 0.535-0.0942 0.66v0.226l0.155-0.129c0.0854-0.0709 0.155-0.251 0.155-0.401zm12.1-3.42c-0.0893-1.62 0.784-4.24 1.28-3.83 0.0849 0.0704 0.348 0.0912 0.684 0.0539 0.301-0.0333 1.01-0.0804 1.58-0.105 1.9-0.0806 3.04-0.282 3.52-0.62 0.329-0.231 0.542-0.268 1.58-0.277l0.646-6e-3 0.529 0.582-0.0683-0.569c-0.218-1.81-1.71-3-3.78-3.02-4.09-0.0323-7.65 4.87-6.15 8.47 0.219 0.524 0.243 0.433 0.182-0.681zm-30.4-1.96-0.0671-0.506 0.203-0.203c0.144-0.144 0.297-0.189 0.527-0.156 0.209 0.0307 0.448-0.0257 0.674-0.159 0.462-0.273 1.41-0.37 2.24-0.23 0.92 0.154 1.76 0.085 2.23-0.183 0.254-0.147 1.81-0.347 1.96-0.252 0.181 0.115 1.23 0.127 1.56 0.0185 0.296-0.0961 2.64-0.255 3.31-0.225 0.444 0.02 1.4-0.295 1.75-0.577 0.237-0.191 0.365-0.225 0.621-0.164 0.321 0.0765 0.415 0.0758 1.31-9e-3 0.256-0.0245 1.47-0.0625 2.69-0.0845 1.38-0.0247 2.31-0.0843 2.44-0.157 0.122-0.0654 0.599-0.108 1.09-0.0978l0.87 0.019 0.984-0.499 0.775 0.12c0.556 0.0865 0.843 0.0892 1.02 9e-3l0.244-0.111 0.805 0.431 0.0883-0.233c0.16-0.422 1.58-6.92 2.93-13.4 0.373-1.79 0.701-3.36 0.729-3.48 0.0974-0.428 0.707-0.538-6.96 1.26-1.88 0.44-4.45 1.04-5.72 1.34-2.76 0.645-2.44 0.354-2.87 2.6-0.194 1.02-0.561 2.88-0.814 4.13-0.537 2.65-0.59 2.48 0.658 2.16 4.17-1.05 4.75-1.03 4.15 0.138-1.55 2.97-5.13 4.86-7.71 4.06l-0.687-0.212-0.708-0.668c-1.18-1.11-1.52-2.32-1.43-5.01 0.331-9.47 8.51-17.3 13.2-12.7 0.777 0.755 0.766 0.754 1.28 0.137 0.718-0.862 4.66-5.24 6.74-7.48 2.25-2.43 2.16-2.25 1.57-2.94-1.4-1.63-3.78-2.93-6.4-3.49l-1.08-0.231-1.81-2e-3c-12.5-0.0134-22.7 11.5-23.9 26.9-0.299 3.77 0.16 7.75 1.15 9.96 0.397 0.886 0.441 0.917 0.352 0.245zm42.9-5.77c1.18-0.277 0.977-0.476-0.336-0.321-0.938 0.111-0.958 0.119-0.778 0.336 0.165 0.198 0.204 0.198 1.11-0.0151zm-8.94-3.34c0.356-0.217 2.52-0.61 5.18-0.942 0.906-0.113 1.66-0.217 1.67-0.232 0.0114-0.0147 0.404-1.12 0.873-2.46 0.469-1.34 1.92-5.48 3.23-9.21 4.06-11.6 4.84-13.8 5.95-17.1 0.591-1.76 1.08-3.26 1.08-3.35v-0.161l-0.492 0.0663c-1.27 0.171-13.7 2.68-13.8 2.79-0.193 0.192-1.87 11.6-3.13 21.3-0.347 2.68-0.675 5.17-0.729 5.54s-0.149 1.12-0.212 1.66c-0.0632 0.541-0.151 1.25-0.194 1.58-0.105 0.785-0.0291 0.854 0.548 0.503zm-70.6-17.6c0.602-3.84 0.817-4.61 1.33-4.71 0.181-0.0386 1.12-0.317 2.09-0.618 4.48-1.4 8.03-2.45 12.9-3.84 0.906-0.257 1.74-0.453 1.86-0.436l0.216 0.0309 0.0574 2.95 0.282-0.0721c0.155-0.0397 0.375-0.0752 0.489-0.0789l0.207-7e-3 -0.0367 2.59c-0.0233 1.64-6.7e-4 2.55 0.0619 2.48 0.0542-0.0569 0.486-1.17 0.959-2.48 1.08-2.99 1.1-3.03 1.32-3.09 0.237-0.0713 14.8-2.86 15-2.86 0.17 0 0.0342-0.259-0.43-0.816-1.34-1.61-2.35-4.56-2.56-7.49-0.0955-1.32-0.0687-1.33-1.27 0.261-6.24 8.27-12.2 9.56-16.4 3.54-0.885-1.27-0.908-1.29-1.12-0.716-3.35 9.26-11.1 9.27-21.1 0.0292-0.659-0.608-1.05-0.848-1.05-0.644 0 0.0318 0.138 0.604 0.306 1.27 0.823 3.26 0.561 6.13-0.735 8.05-0.426 0.632-0.424 0.636 0.587 1.06 2.84 1.18 4.45 2.63 6.38 5.71 0.457 0.731 0.525 0.721 0.653-0.0981zm-26.4 0.0533c0.421-0.435 0.457-0.4-0.598-0.566-1.05-0.165-1.08-0.14-0.535 0.453 0.524 0.569 0.677 0.584 1.13 0.113zm66.5-3.08c0.879-1.13 2.78-3.04 4.22-4.22 1.31-1.07 1.32-1.1 0.478-0.944-1.34 0.249-4.57-4e-3 -5.34-0.419l-0.186-0.0998-0.103 0.27c-0.0564 0.148-0.103 0.408-0.103 0.578v0.308l0.361-0.0678c0.505-0.0947 0.448 2.29-0.123 5.16-0.0938 0.471 0.109 0.328 0.801-0.564zm20-9.91c1.87-0.698 2.35-0.895 2.35-0.976 4e-3 -0.196-2.31 0.311-4.14 0.908l-0.776 0.253 1.01 8e-3c0.764 6e-3 1.14-0.0409 1.55-0.193zm-97 66.6c0-0.106 0.165-0.321 1.65-2.14 0.934-1.14 2.27-2.7 2.81-3.28l0.455-0.486 2.41 0.0605c2.86 0.072 2.8-0.044 0.725 1.29-2.82 1.82-8.05 4.77-8.05 4.55zm117-8.86-3.96-1.59-1.84-1.78c-2.32-2.25-2.29-2.15-0.523-1.7 0.572 0.145 1.48 0.355 2.03 0.467l0.988 0.203 1.15 0.853c2.37 1.76 6.3 4.88 6.36 5.05 0.0705 0.196-0.329 0.0533-4.2-1.5zm-120-30.7c-0.0854-0.0315-0.994-0.358-2.02-0.725-3.38-1.21-6.19-2.41-6.03-2.57 0.209-0.209 8.36 0.89 8.51 1.15 0.057 0.0946 0.255 0.405 0.44 0.69 0.424 0.652 0.42 0.678-0.143 1.15-0.482 0.401-0.504 0.41-0.763 0.314zm126-0.571c-0.203-0.203-0.138-0.401 0.489-1.48l0.602-1.04 1.54-0.0813c3.47-0.183 9.51 0.0495 8.47 0.327-1.54 0.412-6.88 1.59-9.16 2.03-0.769 0.146-1.49 0.288-1.61 0.315-0.118 0.027-0.269-6e-3 -0.336-0.0726zm-111-26.4c-1.75-0.863-3.79-1.72-4.96-2.08l-0.613-0.19-0.37-0.519c-0.49-0.688-3.21-4.31-4.12-5.49-0.398-0.516-0.807-1.06-0.909-1.22l-0.186-0.283 0.293-0.306c0.161-0.168 0.355-0.306 0.431-0.306 0.476 0 11.9 10.3 12.4 11.1 0.149 0.267-0.124 0.164-1.94-0.732zm72.6-4.78c0-0.124 0.257-0.47 1.55-2.09 0.657-0.821 1.54-1.93 1.95-2.47 0.845-1.08 1.48-1.77 4.87-5.29 1.47-1.52 2.35-2.36 2.37-2.26 0.0772 0.396-4.36 8.86-4.74 9.05-0.141 0.0707-0.885 0.432-1.65 0.803-0.768 0.371-2.03 1.05-2.79 1.5-1.39 0.824-1.55 0.903-1.55 0.749z" fill="#fb5000"/><path d="m101 194c-0.279-5.3-0.568-7.39-1.31-9.53-2.31-6.62-8.54-5.11-23.3 5.66-3.68 2.69-3.62 2.65-3.62 2.4 0-0.0539 0.424-1.11 0.942-2.35 2.67-6.4 4.32-11.3 3.95-11.6-0.0461-0.0461-0.722 0.239-1.5 0.633-8.79 4.45-17.5 0.888-20.9-8.57-0.214-0.588-0.46-1.1-0.545-1.13-0.333-0.128-7.51 1.53-12.4 2.87-0.857 0.233-1.04 0.254-1.04 0.114 0-0.194 5.97-4.85 9.93-7.74 1.11-0.813 2.17-1.6 2.36-1.74l0.336-0.263 0.0021-1c0.0147-6.95 2.66-15.3 6.69-21.1 0.663-0.949 0.669-1.01 0.173-1.62-1.88-2.33-5.55-5.53-11.2-9.74-1.54-1.15-2.81-2.14-2.83-2.19-0.0624-0.162 0.24-0.0997 4.56 0.94 6.92 1.67 10 2.25 12.6 2.35l1.46 0.0606 0.82-0.267c0.451-0.147 1.38-0.413 2.06-0.591 7.61-1.99 9.13-2.56 10-3.8 1.85-2.55 1.12-7.36-2.69-17.7-0.771-2.09-0.836-2.31-0.69-2.31 0.0895 0 5.07 3.97 8.1 6.46 4.43 3.64 5.5 4.49 7.09 5.69 8.95 6.71 12.6 3.66 13.4-11.3 0.141-2.52 0.112-2.48 0.861-1.16 0.251 0.439 1.13 1.99 1.96 3.44 2.98 5.24 3.48 6.05 4.61 7.47 3.59 4.51 7.41 1.52 17.8-13.9 0.449-0.669 0.853-1.22 0.897-1.22 0.0987 0 0.0975 0.22-0.0231 4.24-0.495 16.5 2.28 19.3 14.8 15 1.39-0.477 1.83-0.595 1.83-0.487 0 0.021-0.233 0.605-0.518 1.3-0.285 0.692-0.518 1.28-0.518 1.31 0 0.171 2.13-0.421 4.97-1.39 5.21-1.77 8.3-3.28 14-6.86 2.16-1.36 2.11-1.42 0.588 0.927-3.57 5.51-5.88 9.49-5.72 9.88 0.0268 0.0688 0.239 0.234 0.473 0.368 0.233 0.133 0.973 0.776 1.64 1.43 0.753 0.731 1.25 1.14 1.29 1.07 0.0396-0.064 0.299-1.64 0.577-3.5 0.576-3.86 0.562-3.81 1.1-3.91 0.216-0.0378 3.12-0.596 6.45-1.24 12.1-2.34 13.8-2.65 13.9-2.56 0.0564 0.0564-0.49 1.79-1.37 4.33-0.803 2.33-1.78 5.17-2.17 6.31s-1.34 3.93-2.12 6.21c-5.27 15.4-6.09 18-5.72 18.3 2.7 1.7 7.38 3.82 12.3 5.6 1.93 0.692 1.93 0.684 0.129 0.933-4.8 0.665-10.8 1.72-13 2.3l-0.932 0.238-0.0715 1.24c-0.443 7.68-8.31 12.2-13.3 7.69l-0.674-0.618-0.319 0.07c-0.651 0.143-0.962 1.2-0.678 2.31 0.464 1.81 2.54 4.68 7.03 9.71 0.477 0.534 0.0234 0.382-1.48-0.496-8.99-5.26-13.7-6.3-16.5-3.65-2.01 1.91-1.96 4.95 0.226 14.2 0.224 0.948 0.434 1.1-3.28-2.36-7.34-6.83-11.2-9.15-13.9-8.32l-0.609 0.189-0.729 0.731c-1.4 1.41-2.3 3.85-2.89 7.87-0.153 1.04-0.576 4.76-0.576 5.06 0 0.364-0.231 0.0968-1.05-1.21-3.55-5.68-5.89-8.42-8.15-9.52l-0.692-0.339h-2.07l-0.608 0.285c-2.29 1.07-4.91 3.94-8.63 9.44-1.62 2.39-1.53 2.36-1.62 0.711zm4.02-11.4c2.23-2.72 5.11-4.27 7.93-4.27l1.19-4e-3 0.867 0.297c1.57 0.537 3.54 1.95 4.9 3.51 0.874 1.01 0.967 1.04 1.12 0.447 2.1-8.07 9.42-9.45 16.9-3.18 0.749 0.629 0.988 0.718 0.945 0.353-0.292-2.45 0.302-4.92 1.51-6.27 0.503-0.561 0.496-0.565-0.656-0.341-4.21 0.818-8.82-0.967-11.7-4.51-0.293-0.367-0.566-0.68-0.606-0.696-0.0401-0.0158-0.153 0.776-0.251 1.76-0.213 2.14-0.256 2.44-0.356 2.5-0.0422 0.0261-1.36 0.373-2.92 0.772-4.54 1.16-7.54 1.97-11.3 3.07-3.35 0.984-3.1 0.996-2.9-0.136 0.2-1.15 0.197-1.21-0.081-1.25l-0.24-0.034 0.029-0.401c0.0393-0.545 0.0446-0.543-1-0.254-1.27 0.351-4.17 1.18-5.77 1.65l-1.32 0.389-0.154-0.127c-0.103-0.0853-0.157-0.338-0.164-0.762-6e-3 -0.349-0.0428-0.751-0.0824-0.893l-0.0721-0.259-0.346 0.0352c-0.207 0.0211-0.379-0.0192-0.429-0.1-0.126-0.205-0.177-0.096-0.293 0.637-0.127 0.795-0.29 0.965-1.1 1.15-0.77 0.172-0.774 0.244-0.0269 0.496 1.69 0.569 3.4 2.08 4.37 3.85 0.349 0.638 0.992 2.35 0.992 2.64 0 0.798 0.275 0.778 0.973-0.07zm-21.6-3.58c0.391-1.27 0.189-1.36-0.291-0.136-0.385 0.985-0.397 1.07-0.123 0.927 0.125-0.067 0.284-0.371 0.414-0.791zm-12.3-2.25c11.4-2.88 20.5-19.1 19-33.8-2.23-20.9-28.5-11.4-33.2 12-0.609 3.07-0.679 3.79-0.679 6.97l-3.5e-4 2.95 0.234 1.24c1.36 7.2 5.52 11 11.9 10.9l1.76-0.0382zm-0.828-12.3c-5.95-1.55-0.644-18.4 5.8-18.5 2.91-8e-3 3.96 3.72 2.58 9.15-1.43 5.63-5.43 10.1-8.38 9.31zm16.6 9.87c0.841-0.263 5.22-1.46 8.11-2.21 0.874-0.228 1.62-0.44 1.65-0.472 0.0679-0.0679 1.8-8.59 2.78-13.7 0.373-1.94 0.697-3.54 0.72-3.56 0.115-0.117 0.18 0.314 0.516 3.42 0.499 4.61 1.54 12.9 1.63 13 0.0698 0.0698 4.71-1.05 5.03-1.21 0.0811-0.0416 0.388-0.698 0.682-1.46s1.41-3.55 2.48-6.2c4.49-11.1 4.17-10.4 4.06-9.13-0.18 2-1.47 12.7-1.89 15.6-0.427 3.01-0.42 2.85-0.123 2.79 0.128-0.0296 1.61-0.404 3.29-0.831 1.68-0.428 4.1-1.02 5.38-1.32 1.28-0.298 2.36-0.572 2.41-0.609 0.0812-0.07 0.816-7.58 1.27-12.9 0.146-1.74 0.429-4.6 0.629-6.37 0.383-3.37 1.05-9.42 1.87-16.8 0.557-5.09 0.624-4.6-0.6-4.38-5.57 0.994-11.8 2.27-12 2.44-0.0912 0.105-0.411 0.858-0.71 1.67-0.299 0.815-1.3 3.53-2.23 6.04s-1.93 5.21-2.22 6c-0.293 0.797-0.663 1.8-0.823 2.23-0.16 0.427-0.394 1.09-0.52 1.47-0.217 0.664-0.416 0.91-0.42 0.518-9.7e-4 -0.0996-0.0686-2.58-0.15-5.51-0.0817-2.93-0.177-7.15-0.211-9.37-0.0691-4.43-0.0745-4.5-0.343-4.5-0.279 0-11.9 3.48-12.6 3.77l-0.316 0.132-0.396 2.27c-0.388 2.22-1.26 6.95-1.77 9.61-0.142 0.74-0.353 2.07-0.469 2.95-0.413 3.13-1.13 7.04-1.85 10.1-0.345 1.47-0.485 2.01-1.19 4.66-0.258 0.968-0.728 2.95-1.05 4.4-0.317 1.45-0.831 3.75-1.14 5.11-0.312 1.36-0.567 2.51-0.567 2.56 0 0.142 0.185 0.113 1.09-0.169zm64.5-2.83c0-0.206-0.244-0.296-0.529-0.197-0.377 0.132-0.384 0.267-0.0145 0.313 0.318 0.0401 0.543-8e-3 0.543-0.116zm-11.5-2.75c1.85-0.516 4.02-1.74 5.82-3.28 0.542-0.464 0.562-0.375 0.288 1.26-0.261 1.56-0.25 1.65 0.163 1.46 0.364-0.166 7.48-2.39 7.65-2.39 0.341 0 0.334 0.0318 4.41-20.2 0.852-4.24 0.975-3.87-1.15-3.38-0.939 0.218-3.24 0.757-5.12 1.2-1.88 0.44-4.45 1.04-5.72 1.34-2.81 0.656-2.35-0.0167-3.32 4.87-0.965 4.83-1.07 4.39 0.981 3.95 3.76-0.812 3.86-0.818 3.67-0.238-0.678 2.06-3.49 4.26-5.89 4.63l-0.858 0.131-0.639-0.131c-2.9-0.595-4-3.9-2.97-8.89 1.79-8.62 9.12-14 13.1-9.65l0.506 0.565 0.192-0.203c0.105-0.112 1.31-1.46 2.67-3 1.36-1.54 3.37-3.76 4.46-4.94 2.23-2.41 2.13-2.23 1.55-2.92-1.4-1.63-3.78-2.93-6.4-3.49l-1.08-0.231-1.81-2e-3c-12.2-0.0131-22.3 11-23.9 26-1.02 9.89 2.25 16.6 8.74 17.8 0.142 0.0277 1.03 0.0351 1.97 0.0166l1.71-0.0338zm23.9-1.37c4.05-1.39 6.05-6.93 3.5-9.7-3.06-3.32-9.52 0.398-9.52 5.49 0 3.27 2.88 5.29 6.02 4.21zm7-10.9c1.18-0.277 0.977-0.476-0.336-0.321-0.938 0.111-0.958 0.119-0.778 0.336 0.165 0.198 0.204 0.198 1.11-0.0151zm-8.87-3.19c0.819-0.276 2.9-0.66 4.8-0.889 1.03-0.123 1.92-0.237 1.98-0.253 0.0617-0.0161 0.581-1.42 1.16-3.12 1.51-4.48 3.13-9.18 5.62-16.3 2.65-7.61 4.35-12.6 4.35-12.9v-0.161l-0.492 0.0663c-1.27 0.171-13.7 2.68-13.8 2.79-0.17 0.169-1.63 9.97-2.77 18.5-0.257 1.94-0.652 4.89-0.878 6.57-0.883 6.56-0.883 5.94 8.4e-4 5.64zm-70.6-17.8c0.602-3.84 0.817-4.61 1.33-4.71 0.181-0.0386 1.12-0.317 2.09-0.618 4.48-1.4 8.03-2.45 12.9-3.84 0.906-0.257 1.74-0.453 1.86-0.436l0.216 0.0309 0.0574 2.95 0.282-0.0721c0.155-0.0397 0.375-0.0752 0.489-0.0789l0.207-7e-3 -0.0367 2.59c-0.0233 1.64-6.7e-4 2.55 0.0619 2.48 0.0542-0.0569 0.486-1.17 0.959-2.48 1.08-2.99 1.1-3.03 1.32-3.09 0.237-0.0713 14.8-2.86 15-2.86 0.17 0 0.0342-0.259-0.43-0.816-1.34-1.61-2.35-4.56-2.56-7.49-0.0955-1.32-0.0687-1.33-1.27 0.261-6.24 8.27-12.2 9.56-16.4 3.54-0.885-1.27-0.908-1.29-1.12-0.716-3.35 9.26-11.1 9.27-21.1 0.0292-0.659-0.608-1.05-0.848-1.05-0.644 0 0.0318 0.138 0.604 0.306 1.27 0.823 3.26 0.561 6.13-0.735 8.05-0.426 0.632-0.424 0.636 0.587 1.06 2.84 1.18 4.45 2.63 6.38 5.71 0.457 0.731 0.525 0.721 0.653-0.0981zm-26.4 0.0533c0.421-0.435 0.457-0.4-0.598-0.566-1.05-0.165-1.08-0.14-0.535 0.453 0.524 0.569 0.677 0.584 1.13 0.113zm66.5-3.08c0.879-1.13 2.78-3.04 4.22-4.22 1.31-1.07 1.32-1.1 0.478-0.944-1.34 0.249-4.57-4e-3 -5.34-0.419l-0.186-0.0998-0.103 0.27c-0.0564 0.148-0.103 0.408-0.103 0.578v0.308l0.361-0.0678c0.505-0.0947 0.448 2.29-0.123 5.16-0.0938 0.471 0.109 0.328 0.801-0.564zm20-9.91c1.87-0.698 2.35-0.895 2.35-0.976 4e-3 -0.196-2.31 0.311-4.14 0.908l-0.776 0.253 1.01 8e-3c0.764 6e-3 1.14-0.0409 1.55-0.193zm-97 66.6c0-0.106 0.165-0.321 1.65-2.14 0.934-1.14 2.27-2.7 2.81-3.28l0.455-0.486 2.41 0.0605c2.86 0.072 2.8-0.044 0.725 1.29-2.82 1.82-8.05 4.77-8.05 4.55zm117-8.86-3.96-1.59-1.84-1.78c-2.32-2.25-2.29-2.15-0.523-1.7 0.572 0.145 1.48 0.355 2.03 0.467l0.988 0.203 1.15 0.853c2.37 1.76 6.3 4.88 6.36 5.05 0.0705 0.196-0.329 0.0533-4.2-1.5zm-120-30.7c-0.0854-0.0315-0.994-0.358-2.02-0.725-3.38-1.21-6.19-2.41-6.03-2.57 0.209-0.209 8.36 0.89 8.51 1.15 0.057 0.0946 0.255 0.405 0.44 0.69 0.424 0.652 0.42 0.678-0.143 1.15-0.482 0.401-0.504 0.41-0.763 0.314zm126-0.571c-0.203-0.203-0.138-0.401 0.489-1.48l0.602-1.04 1.54-0.0813c3.47-0.183 9.51 0.0495 8.47 0.327-1.54 0.412-6.88 1.59-9.16 2.03-0.769 0.146-1.49 0.288-1.61 0.315-0.118 0.027-0.269-6e-3 -0.336-0.0726zm-111-26.4c-1.75-0.863-3.79-1.72-4.96-2.08l-0.613-0.19-0.37-0.519c-0.49-0.688-3.21-4.31-4.12-5.49-0.398-0.516-0.807-1.06-0.909-1.22l-0.186-0.283 0.293-0.306c0.161-0.168 0.355-0.306 0.431-0.306 0.476 0 11.9 10.3 12.4 11.1 0.149 0.267-0.124 0.164-1.94-0.732zm72.6-4.78c0-0.124 0.257-0.47 1.55-2.09 0.657-0.821 1.54-1.93 1.95-2.47 0.845-1.08 1.48-1.77 4.87-5.29 1.47-1.52 2.35-2.36 2.37-2.26 0.0772 0.396-4.36 8.86-4.74 9.05-0.141 0.0707-0.885 0.432-1.65 0.803-0.768 0.371-2.03 1.05-2.79 1.5-1.39 0.824-1.55 0.903-1.55 0.749z" fill="#651ea5"/></svg>
