<svg width="210mm" height="297mm" version="1.1" viewBox="0 0 210 297" xmlns="http://www.w3.org/2000/svg"><path d="m50.4 170c-8.47-1.61-13.1-12.3-10.2-23.4 4.51-17.4 22.3-27.6 31.6-18.1 0.227 0.234 0.444 0.406 0.482 0.383 0.038-0.0235 0.684-0.23 1.43-0.459 0.751-0.229 3-0.923 5.01-1.54 4.49-1.39 4.21-1.38 4.88-0.0743 0.606 1.18 0.6 1.01 0.132 3.53-0.452 2.44-2.44 14.3-2.89 17.2-0.179 1.16-0.348 2.22-0.377 2.35-0.0815 0.369 0.0292 0.339 4.15-1.14 2.11-0.755 3.97-1.37 4.14-1.37 0.365 0 0.308 0.296 0.694-3.59 0.147-1.48 0.337-3.29 0.421-4.01 0.0846-0.726 0.322-2.94 0.527-4.91 0.827-7.96 0.946-8.9 1.15-9.12 0.344-0.38 11-3.84 11.7-3.79 1.17 0.0965 1.57 1.92 1.07 4.93-0.476 2.87-0.47 2.88 0.639 1.22 6.44-9.63 16.4-13.5 22.9-8.86 0.557 0.397 0.556 0.397 0.657-0.301 0.0977-0.674-0.0329-0.612 4.18-1.96 6.38-2.04 8.59-2.62 8.86-2.3 0.844 1.02 1.09 2.12 0.855 3.79-0.203 1.43-0.224 1.94-0.0718 1.75 0.0194-0.0242 0.652-0.923 1.41-2 0.754-1.07 1.76-2.51 2.24-3.19 0.723-1.03 0.918-1.24 1.14-1.24 0.544 0 9.48 1.5 10.1 1.7 0.337 0.105 1.21 1.76 1.21 2.28-3.3e-4 0.131-0.446 0.789-1.04 1.53-3.07 3.86-9.95 13.1-9.95 13.3 0 0.113 1.34 2.9 2.97 6.2s3.13 6.33 3.32 6.74c0.405 0.877 0.543 1.01 0.636 0.596 0.26-1.15 0.428-1.65 0.804-2.4 0.755-1.5 1.95-2.8 3.31-3.6 0.376-0.22 0.683-0.42 0.683-0.446 0-0.0606-0.581-0.785-1.1-1.37-0.412-0.465-0.412-0.465-0.0249-4.76 0.557-6.19 1.15-12.4 1.76-18.6 0.118-1.19 0.287-2.92 0.376-3.85 0.192-2.01 0.244-2.12 1.02-2.21 1.09-0.123 8.72-0.791 11-0.963 2.78-0.21 2.62-0.26 3.29 1.04 0.513 0.999 0.513 0.999-0.0463 2.89-0.307 1.04-0.979 3.34-1.49 5.11-0.514 1.77-1.34 4.62-1.84 6.33-1.19 4.08-3.28 11.4-3.91 13.7-0.62 2.24-0.542 2.16-2.12 2.28-1.43 0.114-1.46 0.125-0.999 0.379 2.26 1.25 3.8 4.22 3.49 6.75-0.89 7.16-10.3 9.92-13.4 3.92-0.491-0.952-1e-3 -1.2-7.19 3.63-2.58 1.74-3.18 2.09-3.39 2.04-0.566-0.142-1.78-2.36-4.35-7.92-0.919-1.99-1.06-2.25-1.15-2.15-0.0536 0.0536-0.261 2.05-0.583 5.63-0.254 2.81 0.0551 2.45-3.01 3.53-1.34 0.468-3.45 1.21-4.7 1.66-4.2 1.49-3.65 1.47-4.53 0.136-0.641-0.968-0.652-0.996-0.598-1.57 0.256-2.7 0.316-2.6-0.943-1.46-8.88 8.04-18.4 7.45-22.9-1.42-0.432-0.842-0.571-0.979-0.58-0.574-0.0262 1.12-0.927 8.34-1.06 8.46-0.0839 0.0769-0.556 0.285-1.05 0.462s-2.73 0.998-4.96 1.82-4.24 1.55-4.45 1.61c-0.495 0.143-0.597 0.0607-1.21-0.977-0.259-0.439-0.516-0.869-0.572-0.956-0.0558-0.0871-0.148-0.289-0.204-0.448-0.103-0.29-0.103-0.29-0.66-0.0673-0.306 0.122-0.795 0.309-1.08 0.415-0.919 0.335-6.8 2.55-11.6 4.38-6.8 2.58-6.34 2.48-6.89 1.51-0.175-0.31-0.491-0.77-0.702-1.02-0.439-0.526-0.431-0.441-0.224-2.39 0.0864-0.813 0.157-1.49 0.157-1.5 1e-3 -0.14-0.325 0.0904-0.97 0.687-5.16 4.77-10.7 6.98-15.3 6.1zm17-13.5c4.31e-4 -0.197 0.477-4.6 0.957-8.84 0.289-2.56 0.596-5.31 0.683-6.12 0.0865-0.813 0.185-1.66 0.218-1.87 0.105-0.681-1.13 0.687-2.44 2.7-0.402 0.619-0.795 0.585-1.53-0.133-2.61-2.53-7.35-0.986-10.3 3.37-2.36 3.45-3.15 7.98-1.55 8.92 2.17 1.27 5.35 0.139 9.36-3.33 1.36-1.18 1.31-1.23 3.84 4.15 0.492 1.05 0.805 1.5 0.806 1.16zm58.9-9.92c9.3e-4 -0.223 0.297-3.92 0.789-9.85 0.2-2.41 0.408-4.93 0.462-5.6 0.134-1.66 0.107-1.65-1.36 0.546-1.83 2.74-1.76 2.69-2.65 2.03-3.51-2.57-9.15 0.847-10.8 6.56-1.72 5.9 2.97 6.58 8.89 1.29 1.15-1.03 1.23-0.994 2.31 1.06 2.29 4.37 2.37 4.51 2.37 3.96zm-81.1-21.2c-1.07-0.484-2.69-1.22-3.59-1.64-0.9-0.416-2.03-0.928-2.5-1.14s-0.888-0.438-0.916-0.51c-0.102-0.267 1.03-1.89 1.26-1.81 0.554 0.213 7.97 5.69 7.97 5.89 0 0.178-0.276 0.0787-2.22-0.796zm3.3-3.94c-2.84-2.96-6.2-6.68-6.2-6.86 0-0.27 1.73-1.46 1.94-1.33 0.412 0.255 6.56 9.82 6.56 10.2 0 0.288-0.56-0.203-2.3-2.02zm4.8-0.897c-0.145-0.421-0.532-1.5-0.86-2.4-2.23-6.11-2.18-5.76-0.774-5.87 1.03-0.0874 0.888-0.618 1.93 6.98 0.338 2.45 0.243 2.87-0.299 1.29z" fill="#11c9f5"/><path d="m50.9 170c-9.66-1.3-14.4-14.1-9.83-26.3 5.88-15.7 21.4-23.7 30.1-15.6 0.916 0.862 0.952 0.884 1.28 0.779 7.53-2.41 10.3-3.19 10.5-2.95 0.839 1.01 1.08 2.07 0.817 3.52-1.01 5.47-3.44 20.1-3.44 20.7 0 0.221 0.0137 0.217 4.22-1.3 2.06-0.741 3.91-1.35 4.12-1.36 0.368-0.0107 0.368-0.0107 0.607-2.39 0.234-2.33 0.445-4.31 1.51-14.1 0.621-5.74 0.418-5.16 1.98-5.71 3.42-1.2 10-3.29 10.4-3.29 0.342 0 1.56 2.03 1.44 2.41-0.121 0.402-0.805 4.94-0.774 5.13 0.0244 0.155 0.23-0.0875 0.754-0.889 6.47-9.89 16.6-14 23.1-9.34 0.698 0.497 0.818 0.449 0.818-0.33 0-0.345 0.377-0.791 0.669-0.791 0.0619 0 0.899-0.257 1.86-0.571 7.71-2.52 10.1-3.17 10.4-2.82 0.869 0.96 1.12 2.1 0.857 3.84-0.259 1.68-0.266 1.86-0.0697 1.73 0.0916-0.0566 2.03-2.77 3.76-5.27 0.393-0.567 0.8-1.08 0.905-1.13 0.22-0.118 9.38 1.33 10.4 1.65 0.244 0.0759 1.16 2.03 1.09 2.31-0.0299 0.116-0.285 0.497-0.567 0.845-2.08 2.57-10.2 13.3-10.4 13.7-0.0944 0.207 3.21 7.12 6.54 13.7 0.266 0.523 0.368 0.42 0.627-0.636 0.5-2.04 1.86-3.92 3.71-5.14 0.504-0.331 0.94-0.621 0.969-0.644 0.0289-0.023-0.0193-0.0974-0.107-0.165-0.0879-0.0678-0.324-0.337-0.526-0.598-0.201-0.261-0.497-0.601-0.658-0.755-0.255-0.244-0.285-0.338-0.238-0.739 0.0299-0.253 0.292-3.12 0.583-6.37 0.291-3.25 0.691-7.55 0.888-9.56 0.198-2 0.532-5.47 0.744-7.71 0.448-4.73 0.411-4.49 0.714-4.69 0.216-0.138 5.1-0.628 10.2-1.02 0.813-0.0628 1.95-0.154 2.53-0.203 2.29-0.192 2.87 1.15 1.89 4.41-0.325 1.08-0.913 3.09-1.31 4.45-0.394 1.36-1.31 4.52-2.04 7.02-1.62 5.59-2.71 9.37-3.61 12.6-0.798 2.87-0.673 2.7-2.15 2.8-1.72 0.108-1.76 0.141-0.832 0.667 2.53 1.43 3.87 5.2 2.86 8.07-2.23 6.3-10.3 7.7-13 2.28-0.169-0.33-0.354-0.628-0.411-0.664-0.131-0.0812-8.18 5.17-9.5 6.19-0.884 0.688-1.54-0.289-4.63-6.93-1.36-2.91-1.45-3.1-1.57-2.98-0.0799 0.0799-0.266 1.81-0.569 5.3-0.272 3.13-0.174 2.9-1.39 3.32-0.543 0.189-1.84 0.646-2.89 1.01-7.93 2.8-7.17 2.62-7.61 1.87-0.161-0.276-0.432-0.692-0.601-0.924-0.308-0.422-0.308-0.422-0.235-1.98 0.079-1.68 0.0563-1.74-0.429-1.23-7.96 8.5-18.9 8.14-23.5-0.784-0.692-1.33-0.58-1.67-1.11 3.3-0.48 4.54-0.457 4.38-0.668 4.56-0.0991 0.0846-0.631 0.312-1.18 0.504-0.906 0.317-2.09 0.751-7.13 2.61-0.871 0.322-1.74 0.644-1.94 0.715-0.526 0.19-0.712 0.0931-1.08-0.568-0.185-0.327-0.47-0.794-0.634-1.04-0.164-0.243-0.299-0.541-0.299-0.663 0-0.403-0.247-0.338-3.81 1.01-1.94 0.734-3.84 1.44-4.22 1.58-0.377 0.134-1.33 0.49-2.11 0.791-9.99 3.84-9.58 3.72-10.2 2.74-0.241-0.377-0.569-0.844-0.729-1.04-0.332-0.398-0.333-0.415-0.143-2.42 0.167-1.76 0.228-1.74-1.25-0.415-4.94 4.42-9.93 6.47-14.3 5.87zm3.24-2.96c3.6-0.732 7.14-2.83 10.7-6.33 0.915-0.907 1.66-1.71 1.66-1.79 0-0.143-0.964-2.47-1.23-2.96-0.0778-0.145-0.454-0.953-0.836-1.79-1.04-2.29-0.798-2.16-2.14-1.12-8.58 6.65-14.9 1.88-10.2-7.69 2.97-6.07 9.94-9.18 12.8-5.71 0.338 0.408 0.479 0.253 3.1-3.4 3.82-5.32 3.85-5.38 3.12-6.32-5.06-6.56-16.3-4.3-23.5 4.7-11.9 14.9-7.74 35.3 6.55 32.4zm17-2.65c5.63-2.07 8.5-3.1 12.1-4.38 2.83-0.989 3.59-1.29 3.66-1.47 0.197-0.477 1.01-9.48 0.864-9.53-0.325-0.125-7.94 2.75-8.68 3.29-1.61 1.14-1.59 1.17-1.11-1.8 0.989-6.1 2.23-13.6 2.96-17.9 0.957-5.6 0.93-5.34 0.553-5.31-0.273 0.0184-5.82 1.73-8.27 2.55-1.15 0.387-1.16 0.392-1.21 0.759-0.029 0.203-0.204 0.659-0.389 1.01-0.363 0.695-0.363 0.696-0.932 5.59-0.777 6.68-1.3 11.3-1.78 15.8-0.147 1.36-0.436 4.05-0.643 5.97-0.207 1.92-0.446 4.08-0.532 4.81-0.196 1.66-0.195 1.79 0.0053 1.79 0.0888 0 1.6-0.528 3.35-1.17zm21.1-4.33c1.66-0.585 3.64-1.28 4.39-1.55 0.755-0.266 1.43-0.536 1.49-0.6 0.0707-0.0678 0.326-1.99 0.61-4.6 1.2-11 2.45-21.4 3.03-25.1 0.175-1.13 0.386-2.51 0.47-3.06 0.0838-0.552 0.18-1.13 0.214-1.29 0.106-0.496-9.14 2.14-9.85 2.81-0.115 0.108-0.575 3.84-1.04 8.41-0.0909 0.9-0.399 3.87-0.685 6.6s-0.641 6.22-0.789 7.76c-0.148 1.54-0.437 4.41-0.641 6.39-0.507 4.91-0.536 5.33-0.364 5.33 0.0764 0 1.5-0.478 3.16-1.06zm22-3.41c3.75-0.918 8.91-4.55 11-7.73 0.17-0.26 0.226-0.128-1.75-4.18-1.23-2.51-1.06-2.39-2.12-1.51-6.24 5.21-12 3.34-10.8-3.49 1.2-6.8 8.02-11.7 12.3-8.85 0.595 0.393 0.494 0.504 3.08-3.41 3.28-4.96 3.22-4.81 2.54-5.71-4.3-5.73-14.4-3.4-21 4.84-11.1 13.8-6.7 33.3 6.77 30zm-46.7-1.75c0.0665-0.726 0.423-4 0.793-7.29 0.819-7.26 0.934-8.39 0.878-8.56-0.0241-0.0724-0.552 0.554-1.17 1.39-1.66 2.24-1.64 2.21-1.92 2.21-0.153 0-0.468-0.188-0.783-0.468-3.78-3.36-10 0.182-12.3 6.95-2.31 6.91 3.27 7.98 9.8 1.88 1.12-1.05 1.15-1.02 3.11 3.09 1.5 3.15 1.4 3.1 1.62 0.795zm63.6-1.27c4.88-1.68 4.85-1.67 4.98-1.82 0.0894-0.11 0.263-1.9 1.04-10.7 0.201-2.28 0.18-2.27 1.09-0.295 0.424 0.917 1.67 3.59 2.78 5.94s2.21 4.72 2.46 5.25c0.552 1.18 0.353 1.18 2.12 0.01 0.803-0.532 2.7-1.78 4.2-2.78 1.51-0.997 2.8-1.88 2.87-1.97 0.155-0.189-0.19-0.928-4.47-9.58-1.65-3.33-3-6.11-2.99-6.18 3e-3 -0.146 2.98-4.21 7.45-10.2 1.88-2.5 3.42-4.6 3.42-4.66 0-0.128-0.0392-0.137-2.16-0.492-6.33-1.06-6.61-1.09-6.8-0.798-0.0926 0.14-0.574 0.827-1.07 1.53-2.86 4.04-5.68 8.19-6.54 9.64-0.677 1.14-0.729 1.08-0.484-0.562 0.0856-0.576 0.274-1.95 0.418-3.05 0.144-1.1 0.378-2.86 0.52-3.91 0.427-3.16 0.417-3.01 0.212-3.01-0.518 0-10.2 3.07-10.5 3.31-0.0925 0.0903-0.2 1.09-0.342 3.19-0.182 2.68-0.506 6.87-0.842 10.9-0.0584 0.697-0.18 2.24-0.269 3.43-0.15 1.99-1.24 15.6-1.39 17.4-0.0823 0.974-0.51 1.03 4.26-0.605zm30.1-2.49c3.15-0.699 5.82-4.57 5.14-7.46-1.32-5.62-9.67-3.69-10.8 2.5-0.642 3.51 1.94 5.78 5.66 4.95zm-35-4.61c0.0266-0.131 0.0771-0.736 0.112-1.35 0.035-0.61 0.297-3.91 0.582-7.34 0.742-8.92 0.714-8.39 0.429-8.13-0.129 0.115-0.832 1.1-1.56 2.19-1.5 2.24-1.56 2.28-2.33 1.67-3.83-3.07-10.6 2-11.3 8.4-0.436 4.34 4.17 4.09 9.36-0.499 1.19-1.05 1.06-1.16 2.99 2.52 1.44 2.76 1.59 2.99 1.69 2.53zm36.6-9.54c3.23-0.198 2.88 3e-3 3.44-2 0.529-1.89 4.72-16.5 6.21-21.7 1.32-4.6 1.34-4.13-0.127-4.04-2.43 0.144-10.8 0.931-10.9 1.03-0.0652 0.0541-0.15 0.442-0.189 0.862-0.0389 0.42-0.21 2.19-0.381 3.93-0.17 1.74-0.478 5-0.683 7.23-0.205 2.24-0.605 6.46-0.888 9.4-0.283 2.93-0.494 5.37-0.468 5.41 0.0697 0.118 0.953 0.0985 3.99-0.0882zm-118-11.8c-7.68-3.45-7.16-3.11-6.49-4.18 0.673-1.08 0.274-1.27 5.93 2.89 3.3 2.42 3.35 2.55 0.556 1.29zm3.79-3.45c-2.98-3.05-6.64-7.07-6.64-7.29 0-0.197 1.67-1.41 1.85-1.34 0.157 0.0601 2.67 3.84 4.34 6.53 2.69 4.33 2.71 4.42 0.448 2.1zm4.06-2.18c-2.26-6.2-2.53-7.02-2.4-7.14 0.158-0.158 1.72-0.382 1.83-0.263 0.0889 0.0955 1.28 8.2 1.28 8.68-0.0047 0.496-0.178 0.186-0.708-1.27z" fill="#080e0f"/></svg>
