<svg width="210mm" height="297mm" version="1.1" viewBox="0 0 210 297" xmlns="http://www.w3.org/2000/svg"><path d="m136 220c-0.246-0.311-6.23-15.8-6.42-16.6l-0.0773-0.333 0.12 0.111c0.138 0.128 0.694 1.13 3.9 6.99 3.59 6.57 4.58 8.46 4.54 8.66-0.0933 0.473-1.83 1.42-2.06 1.13zm-54.9-3.09c-1.14-0.504-1.22-0.582-0.984-1.03 0.299-0.577 4-6.9 5.76-9.84 1.58-2.64 2.04-3.32 2.04-3 0 0.229-3.08 8.56-4.55 12.3l-0.794 2.02-0.242-7e-3c-0.133-4e-3 -0.688-0.204-1.23-0.445zm15.6-2.36c-0.0561-0.147-0.753-3.23-1.55-6.86-2.53-11.5-3.22-14.6-3.32-14.7-0.0974-0.0974-4 1.95-12.6 6.59-2.53 1.37-5.73 3.1-7.1 3.83-1.37 0.737-3.42 1.84-4.55 2.45-1.13 0.611-2.09 1.07-2.14 1.03-0.075-0.074 0.728-2.39 2.92-8.43 0.724-1.99 0.721-1.96 0.157-2.05-0.591-0.0959-1.1-0.46-1.83-1.31-0.751-0.873-0.729-0.788-0.889-3.38-0.239-3.84-0.445-6.9-0.509-7.52l-0.0657-0.638h-0.438c-0.241 0-1.97 0.177-3.84 0.393-5.24 0.605-7.5 0.816-7.61 0.709-0.0597-0.0567 0.306-0.479 0.888-1.02 1.59-1.49 5.92-5.42 8.15-7.39 1.13-1 2.09-1.88 2.13-1.95 0.123-0.208-0.579-9.63-0.73-9.79-0.0701-0.0736-2.55-1.13-5.51-2.35-9.39-3.87-9.03-3.68-7.99-3.96 0.275-0.0728 2.65-0.708 5.27-1.41 2.62-0.703 5.37-1.44 6.1-1.63 1.67-0.44 1.52-0.163 1.34-2.62l-0.154-2.1 0.181-0.186c0.0996-0.102 1.01-0.562 2.03-1.02 1.02-0.46 2.11-0.965 2.42-1.12l0.569-0.288-0.21-0.355c-0.115-0.195-2.15-3.4-4.52-7.12-4.06-6.38-4.54-7.16-4.33-7.16 0.117 0 2.64 0.781 12.3 3.8 11.9 3.73 12.4 3.89 12.5 3.79 0.095-0.095-0.1-1.02-1.17-5.57-0.278-1.18-0.505-2.19-0.505-2.25 0-0.247 0.253-0.138 7.46 3.22 3.93 1.83 3.96 1.84 3.97 1.04 0.0014-0.496 0.186-4.84 0.441-10.4 0.0605-1.31 0.16-3.63 0.22-5.16 0.0607-1.53 0.142-3.26 0.18-3.86l0.0694-1.08h0.144c0.079 0 0.286 0.17 0.46 0.378 0.174 0.208 1.74 1.94 3.48 3.86 1.74 1.91 5.11 5.64 7.48 8.28 2.38 2.64 4.38 4.79 4.45 4.77 0.0722-0.0176 1.47-1.58 3.11-3.47 7.47-8.64 13.5-15.4 13.6-15.4 0.166 0.0239 0.375 0.788 1.67 6.09 2.39 9.83 3.49 14.2 3.59 14.3 0.0595 0.0595 1.33-0.371 3.14-1.06 6.9-2.64 19.2-7.25 19.8-7.45 0.433-0.131 0.381 0.0991-0.74 3.28-0.61 1.73-1.11 3.2-1.11 3.27 0 0.15 0.221 0.169 6.27 0.551 2.75 0.173 4.78 0.351 5.13 0.448l0.583 0.161 0.638 0.635c0.719 0.716 1.67 2.23 1.76 2.82l0.0629 0.388-1.22 2.88c-0.672 1.58-1.62 3.86-2.11 5.06l-0.888 2.19 0.13 0.102c0.0713 0.0562 2.05 0.289 4.4 0.517 4.07 0.395 4.62 0.485 4.38 0.709-0.104 0.0951-6.82 4.75-10.8 7.5l-2.07 1.42-1.02 2.73c-0.562 1.5-1.42 3.8-1.9 5.11l-0.877 2.38 0.144 0.137c0.0789 0.0752 1.74 1.4 3.69 2.94 6.32 4.99 10.5 8.34 10.5 8.43 0 0.157-1.44 0.212-8.65 0.335-8.24 0.14-7.22-4e-3 -7.59 1.07-0.168 0.479-0.526 1.23-0.795 1.66-0.617 0.998-0.654 0.771 0.47 2.86 1.39 2.59 4.28 7.92 5.04 9.29 0.36 0.651 0.654 1.21 0.654 1.25 0 0.219-0.0713 0.193-8.38-3.1-6.23-2.47-11.8-4.68-12.1-4.76l-0.25-0.0777v0.233c0 0.215 0.305 1.4 2.61 10.2 1.59 6.06 1.98 7.6 1.9 7.68-0.0416 0.0416-0.461-0.192-0.933-0.519-1.19-0.824-8.14-5.93-13.5-9.91-1.46-1.08-2.72-1.97-2.8-1.97-0.198 0-0.0572-0.637-1.94 8.77-0.921 4.61-1.71 8.47-1.76 8.59l-0.0872 0.215-0.29-0.326c-0.159-0.179-1.75-2.27-3.54-4.65-6.87-9.13-7.94-10.5-8.08-10.5-0.172 0.0625-4.07 5.19-10.6 13.9-3 4.03-2.92 3.94-3.07 3.55zm39.1-5.88c-0.225-0.25-0.934-1.34-2.28-3.52-1.25-2.01-1.4-2.48-0.457-1.38 0.297 0.345 0.761 0.885 1.03 1.2 2.67 3.09 2.82 3.33 2.41 3.71-0.323 0.303-0.426 0.302-0.706-8e-3zm-85.2-31.7c-0.64-0.729-0.587-0.756 4.48-2.33 3.4-1.06 3.31-0.935-0.957 1.22-3.4 1.72-3.07 1.62-3.52 1.1zm122-2.41c-2.06-1.13-6.23-3.62-6.39-3.8-0.186-0.224 0.673 0.104 4.58 1.75 3.45 1.46 3.46 1.46 2.96 2.03-0.41 0.467-0.333 0.466-1.15 0.0178zm-128-0.989c1.34e-4 -0.424 0.565-2.35 0.75-2.55l0.175-0.196 7 0.0646c3.85 0.0355 7.12 0.0903 7.27 0.122l0.276 0.0571-0.168 0.0942c-0.308 0.173-14.3 2.66-15 2.66h-0.353zm128-3.93c-5.59-1.66-9.95-2.98-10.4-3.16-0.497-0.198-0.239-0.312 0.557-0.248 4.17 0.336 11.5 1.17 11.8 1.33 0.176 0.109 0.0937 0.47-0.311 1.37l-0.404 0.897-0.345-0.0115c-0.19-6e-3 -0.594-0.0855-0.899-0.176zm-95.2-42.8c-1.86-1.26-3.52-2.43-3.7-2.6l-0.326-0.317 0.419-0.609c0.498-0.723 0.653-0.866 0.858-0.787 0.156 0.0602 5.83 5.84 6.22 6.33l0.215 0.273h-0.158c-0.0868 0-1.68-1.03-3.53-2.29zm5.22-0.571c-1.06-1.33-2.77-3.51-3.81-4.85-1.04-1.34-2.36-3.06-2.94-3.81s-1.18-1.54-1.33-1.76l-0.275-0.398 0.497-0.43c0.273-0.237 0.683-0.561 0.912-0.72l0.415-0.29 0.17 0.141c0.245 0.204 3.19 5.15 6.56 11 2.54 4.41 2.52 4.5-0.194 1.1zm55.8 1.57c0-0.308 3.59-8.55 6.38-14.6 0.531-1.16 1.2-2.62 1.48-3.26 0.284-0.631 0.596-1.19 0.693-1.24 0.214-0.114 2.41 0.745 2.57 1.01l0.108 0.172-1.05 1.71c-0.578 0.943-1.64 2.66-2.36 3.82-1.53 2.47-3.6 5.82-5.88 9.54-1.57 2.56-1.95 3.12-1.95 2.87zm3.33-0.351c1.1e-4 -0.2 6.99-7.57 7.18-7.57 0.217 0 1.25 0.998 1.25 1.21-1e-5 0.193-0.0128 0.204-2.16 1.85-5.25 4.01-6.27 4.74-6.27 4.52z" fill="#f9e007"/><path d="m136 219c-0.295-0.551-6.15-15.6-6.38-16.4l-0.0796-0.277 0.172 0.166c0.197 0.191 1.26 2.1 4.7 8.43 4.33 7.98 3.98 7 2.82 7.79-0.849 0.583-1.05 0.633-1.23 0.306zm-54.7-2.97c-1.15-0.503-1.22-0.548-1.22-0.767 0-0.286 7.09-12.4 7.63-13l0.255-0.3-0.0698 0.277c-0.274 1.09-5.04 13.8-5.29 14.1-0.167 0.201-0.263 0.18-1.31-0.279zm15.5-2.25c-0.0379-0.0613-0.713-3.04-1.5-6.63-2.68-12.2-3.29-14.9-3.41-15-0.119-0.119-1.97 0.846-11.1 5.76-2.2 1.19-5.29 2.86-6.88 3.71s-4.08 2.2-5.53 2.99c-1.46 0.788-2.71 1.42-2.8 1.4l-0.15-0.0339 1.28-3.55c2.64-7.33 2.49-6.82 2.01-6.82-0.493 0-1.19-0.47-1.9-1.28l-0.721-0.824-0.0612-0.474c-0.0337-0.261-0.187-2.47-0.34-4.91-0.153-2.44-0.307-4.65-0.341-4.91l-0.062-0.472h-0.493c-0.271 0-2.48 0.223-4.9 0.495-7.24 0.812-6.78 0.794-6.28 0.257 0.654-0.693 5.72-5.32 9.08-8.29 0.854-0.755 1.65-1.46 1.76-1.56l0.204-0.19-0.355-4.87c-0.195-2.68-0.387-4.9-0.426-4.94-0.039-0.0397-1.02-0.457-2.18-0.927-3.62-1.47-9.54-3.91-11.5-4.76-0.229-0.0981-0.416-0.225-0.416-0.283 0-0.128-0.38-0.0194 6.66-1.9 3.2-0.856 6.02-1.62 6.27-1.69l0.444-0.132-0.0554-1.39c-0.0305-0.763-0.0554-1.79-0.0555-2.27l-8.8e-5 -0.886 0.388-0.189c0.214-0.104 1.29-0.597 2.39-1.1s2.06-0.97 2.15-1.05l0.148-0.139-3.63-5.7c-2-3.14-4.06-6.36-4.58-7.18-1.08-1.69-1.07-1.77 0.0886-1.41 0.458 0.143 3.9 1.22 7.66 2.39 3.75 1.17 7.82 2.44 9.04 2.82 5.65 1.76 6.97 2.17 7.12 2.17h0.169l-0.0762-0.416c-0.0419-0.229-0.446-1.99-0.898-3.91-0.465-1.97-0.78-3.53-0.725-3.59 0.0924-0.0924 1.97 0.744 8.15 3.63 1.52 0.708 2.85 1.29 2.95 1.29h0.194l0.0734-1.69c0.0404-0.931 0.172-3.89 0.292-6.57 0.12-2.69 0.294-6.63 0.386-8.76 0.0924-2.13 0.21-3.92 0.261-3.97 0.141-0.141 0.581 0.333 10.4 11.2 2.98 3.31 5.49 6.01 5.57 5.99 0.0807-0.0182 1.36-1.43 2.83-3.14 7.91-9.15 13.7-15.7 13.9-15.7 0.163 0 0.208 0.144 0.703 2.22 0.182 0.763 0.911 3.73 1.62 6.6 1.08 4.38 2.56 10.4 2.78 11.3 0.0824 0.354-0.0157 0.382 3.83-1.09 9.99-3.83 19.4-7.33 19.5-7.25 0.0508 0.0314-0.285 1.14-0.747 2.47-1.25 3.6-1.42 4.12-1.35 4.19 0.036 0.036 2.58 0.231 5.66 0.433l5.59 0.367 0.479 0.244c0.918 0.468 2.45 2.45 2.63 3.4l0.0668 0.356-0.496 1.2c-0.273 0.662-0.98 2.35-1.57 3.76-1.65 3.91-2.19 5.3-2.09 5.39 0.049 0.0452 2.06 0.275 4.46 0.511 4.64 0.455 4.7 0.469 3.97 0.975-2.94 2.04-7.76 5.37-9.86 6.82-1.45 0.995-2.66 1.89-2.7 1.99-0.141 0.354-3.19 8.51-3.45 9.25-0.331 0.914-0.492 0.68 1.6 2.32 0.961 0.752 2.72 2.14 3.91 3.09 6.94 5.52 8.54 6.82 8.54 6.89 0 0.118-11.2 0.436-15.2 0.434l-0.64-3.7e-4 -0.104 0.25c-0.057 0.137-0.262 0.642-0.456 1.12-0.194 0.479-0.521 1.12-0.726 1.43-0.519 0.771-0.621 0.496 1.97 5.26 4.52 8.33 4.37 8.03 4.12 8.03-0.131 0-2.59-0.958-10.2-3.97-10.2-4.04-10.3-4.07-10.4-3.96-0.0513 0.056 0.324 1.69 0.838 3.65 3.23 12.3 3.73 14.3 3.66 14.3-0.114 0.114-2.24-1.42-12.9-9.34-2.58-1.91-4.31-3.12-4.37-3.06-0.107 0.107-1.12 4.97-2.64 12.7-0.5 2.53-0.948 4.65-0.996 4.71-0.149 0.171-0.335-0.0556-3.58-4.36-3.54-4.7-6.71-8.89-7.62-10.1-0.336-0.439-0.668-0.799-0.739-0.801-0.165-5e-3 -4.72 5.98-11.9 15.6-1.64 2.21-1.64 2.21-1.76 2.02zm-24.2-23.3c2.46-0.853 4.5-1.59 4.54-1.64 0.0433-0.0472-0.0138-2.11-0.127-4.58-0.251-5.47-0.28-6.86-0.148-6.99 0.0558-0.0545 0.601-0.282 1.21-0.507 8.92-3.28 14.2-9.66 14.9-17.9l0.126-1.5-0.133-1.38c-0.196-2.02-0.635-3.62-1.41-5.14l-0.643-1.26-1-1.01c-1.54-1.55-2.62-2.16-4.92-2.77l-1.08-0.284-3.55-0.119-1.38 0.183c-3.41 0.452-6.96 1.6-12.2 3.94-0.976 0.44-1.85 0.868-1.93 0.95l-0.155 0.15 0.135 1.81c0.0744 0.996 0.18 2.41 0.235 3.14 0.123 1.65 1.16 16 1.38 19.1 0.089 1.25 0.287 4.02 0.44 6.16 0.311 4.35 0.569 8.08 0.679 9.82 0.0799 1.27 0.0957 1.33 0.322 1.33 0.0838 0 2.16-0.698 4.62-1.55zm3.83-22.4c-0.0914-0.148-0.423-10.8-0.343-11 0.0914-0.238 1.72-0.81 2.96-1.04l1.02-0.187 0.758 0.13c1.3 0.223 2.06 0.784 2.56 1.9l0.229 0.505 0.0862 2.57-0.234 0.854c-0.695 2.53-2.4 4.41-5.25 5.78-1.09 0.524-1.68 0.698-1.79 0.525zm27.5 16.3c9.08-1.37 16-11 17.3-24.1l0.182-1.83-0.0615-2.39c-0.241-9.36-4.19-14.9-11.1-15.6-6.2-0.643-12.6 3.57-16.3 10.7l-0.585 1.14 0.227 0.844c1.42 5.26-0.152 12.5-3.64 16.9l-0.223 0.277 0.111 0.999c1.06 9.5 6.24 14.4 14 13.2zm-1.62-10.1c-5.75-2.12-3.64-19 2.78-22.2 4.9-2.45 7.76 2 6.72 10.5-0.986 7.96-5.28 13.3-9.5 11.7zm45.5 8.51c2.21-0.87 3.73-3.02 3.9-5.51l0.0608-0.891-0.188-0.721c-0.533-2.04-2.1-3.4-4.25-3.66l-0.902-0.113-0.867 0.178c-1.3 0.266-2.13 0.712-3.07 1.64l-0.811 0.8-0.462 0.94c-1.61 3.27-0.387 6.49 2.86 7.56l0.616 0.203 2.22-0.0721zm-24.1-1.13c4.2-0.856 4.54-0.956 4.54-1.33 1e-3 -0.14 0.398-4.31 1.02-10.7 0.149-1.53 0.0175-1.39 1.76-1.86 9.74-2.58 15.6-8.73 16.4-17.2l0.129-1.37-0.124-1.17c-0.543-5.15-3.27-8.11-8.39-9.12l-0.999-0.197-2.27 2e-3c-2.33 3e-3 -2.99 0.0713-5.38 0.559-1.97 0.402-4.66 1.15-6.81 1.9-0.966 0.338-0.959 0.325-1.06 1.97-0.0408 0.671-0.122 1.82-0.18 2.55-0.0583 0.732-0.163 2.17-0.234 3.2l-0.128 1.87 0.181 1.07c0.857 5.07 0.268 11.4-1.59 17.1l-0.452 1.39-0.108 1.15c-0.0595 0.633-0.159 1.63-0.221 2.21-0.134 1.25-0.63 6.54-0.736 7.85l-0.0737 0.915h0.167c0.0918 0 2.13-0.401 4.53-0.891zm6.69-22.3c-0.0365-0.0952 0.0372-1.06 0.164-2.15 0.127-1.08 0.38-3.37 0.564-5.07 0.385-3.58 0.216-3.22 1.62-3.51l1.11-0.234 1.11 0.0534c2.11 0.102 3.1 0.891 3.38 2.7l0.121 0.783-0.175 0.881c-0.641 3.23-3.76 6.04-7.35 6.65l-0.471 0.0789zm22.1 8.84c0.127-0.351 0.556-1.54 0.954-2.65 0.65-1.81 2.32-6.28 3.98-10.7 1.4-3.7 4.09-10.7 5.7-14.7l1.72-4.37-0.429-0.429-11.9-0.745-0.129 0.13c-0.0709 0.0716-0.186 0.679-0.255 1.35-0.183 1.78-0.611 4.48-1.23 7.8-0.931 4.97-2.88 13.8-4.39 19.8-1.16 4.66-1.14 4.51-0.793 4.58 0.519 0.103 5.27 0.595 5.87 0.607l0.623 0.013zm-16.5 39.6c-0.392-0.446-3.3-5.14-3.3-5.32 0-0.235 0.0649-0.176 0.912 0.83 3.76 4.47 3.5 4.08 3.01 4.46-0.355 0.28-0.404 0.282-0.621 0.0358zm-85.4-31.8c-0.162-0.213-0.271-0.452-0.24-0.53 0.0545-0.142 5.99-2.13 6.74-2.25l0.388-0.0653-0.26 0.212c-0.425 0.346-5.82 3.03-6.09 3.03-0.147-1e-3 -0.362-0.157-0.539-0.39zm122-2.27c-2.9-1.63-6.51-3.79-6.44-3.86 0.128-0.128 7.5 2.97 7.66 3.22 0.119 0.188-0.149 0.668-0.47 0.84l-0.2 0.107zm-128-0.939c-0.119-0.311 0.55-2.57 0.803-2.71 0.179-0.1 13.2-0.0549 14 0.0489l0.495 0.0631-0.17 0.0953c-0.275 0.154-14.2 2.66-14.8 2.66-0.139 8e-5 -0.279-0.0686-0.312-0.153zm127-4.24c-4.17-1.21-9.74-2.94-9.87-3.05-0.167-0.157 0.959-0.119 3.64 0.124 3.21 0.291 8.76 0.986 8.89 1.11 0.126 0.123-0.0539 0.724-0.464 1.55l-0.303 0.61-0.277 0.0228c-0.153 0.0125-0.877-0.151-1.61-0.364zm-93.8-42.2c-3.77-2.53-4.47-3.04-4.51-3.28-0.0429-0.223 0.684-1.34 0.933-1.44 0.211-0.081 6.6 6.4 6.46 6.54-0.0347 0.0347-1.33-0.787-2.88-1.83zm6.16 0.956c-0.394-0.423-3.2-3.96-5.09-6.41-0.729-0.946-2.11-2.74-3.08-3.98-2.05-2.64-1.94-2.3-0.955-3.07 0.99-0.775 1.11-0.763 1.68 0.165 1.63 2.67 7.14 12.1 7.67 13.2 0.253 0.498 0.171 0.533-0.233 0.099zm54.4-0.997c0.88-2.25 5.28-12.2 7.7-17.4l0.53-1.14h0.24c0.301 0 2.17 0.742 2.38 0.945l0.155 0.151-0.481 0.811c-0.264 0.446-1.38 2.26-2.47 4.03-1.1 1.77-2.86 4.64-3.93 6.38-4.33 7.05-4.66 7.55-4.12 6.19zm3.17 0.203c0.0851-0.152 3.31-3.63 6.11-6.58 1.02-1.08 0.962-1.06 1.7-0.38 0.817 0.751 1.05 0.478-3.17 3.68-3.38 2.56-4.2 3.17-4.48 3.32l-0.261 0.139z" fill="#f31211"/><path d="m136 220c-0.0323-0.0522-0.502-1.21-1.04-2.58-3.31-8.36-5.43-13.9-5.32-14 0.049-0.049 0.814 1.26 1.92 3.28 1.51 2.76 5.5 10.1 6 11.1l0.541 1.02-0.212 0.234c-0.542 0.599-1.74 1.24-1.88 1.02zm-54.1-2.82c-1.6-0.709-1.89-0.864-1.89-1.02 0-0.164 2.34-4.23 5.07-8.83 1.85-3.11 2.27-3.8 2.49-4.09l0.202-0.265v0.178c0 0.16-0.561 1.76-1.61 4.57-0.204 0.549-0.705 1.9-1.11 3-1.16 3.12-2.4 6.31-2.52 6.46-0.131 0.165-0.266 0.165-0.637 7.8e-4zm14.4-4.11c-0.193-0.87-1.25-5.68-2.36-10.7-2.26-10.3-2.08-9.49-2.24-9.49-0.12 0-3.89 1.99-8.68 4.58-12.9 6.98-17.5 9.42-17.6 9.35-0.0894-0.0894-0.0042-0.34 2.04-5.99 1.69-4.67 1.61-4.35 1.06-4.43-0.835-0.134-2.35-1.54-2.55-2.37-0.0569-0.232-0.241-2.59-0.408-5.25s-0.347-4.94-0.398-5.07l-0.0936-0.248-0.475 0.0562c-1.49 0.176-8.44 0.945-9.52 1.05-0.702 0.0703-1.43 0.111-1.61 0.0901l-0.33-0.0377 2.38-2.21c1.31-1.21 3.87-3.53 5.68-5.15l3.3-2.95v-0.28c0-0.39-0.544-7.88-0.642-8.83l-0.0796-0.775-1.72-0.703c-0.946-0.387-2.64-1.08-3.77-1.54-2.26-0.921-7.87-3.26-8.35-3.48-0.6-0.274-0.829-0.2 7.41-2.38 2.69-0.71 5.06-1.35 5.27-1.43l0.388-0.138-0.0541-1.44c-0.0298-0.79-0.0547-1.81-0.0555-2.27l-0.0014-0.829 2.41-1.11c1.33-0.612 2.47-1.17 2.54-1.24l0.129-0.131-4.56-7.17c-2.51-3.94-4.56-7.19-4.56-7.22 0-0.18 2.79 0.667 20.3 6.16 2.34 0.735 4.35 1.34 4.47 1.34 0.289 0 0.291 0.0121-0.628-3.89-0.458-1.94-0.832-3.66-0.832-3.81v-0.28l0.194 0.0678c0.261 0.091 3.57 1.61 7.61 3.49 1.82 0.848 3.35 1.52 3.4 1.48 0.0515-0.0318 0.125-0.72 0.164-1.53 0.085-1.76 0.561-12.5 0.733-16.6 0.131-3.07 0.142-3.14 0.411-2.92 0.281 0.233 12.9 14.2 15.1 16.7 0.634 0.723 0.601 0.741 2.38-1.33 6.58-7.66 14.8-17 15-17 0.0801 0 0.656 2.13 1.49 5.52 0.748 3.04 1.87 7.61 2.5 10.2s1.17 4.67 1.21 4.71c0.0847 0.0847 0.525-0.0687 3.66-1.28 4.58-1.76 16-6.06 18.4-6.92l1.19-0.429v0.204c0 0.112-0.474 1.55-1.05 3.19-0.579 1.64-1.05 3.07-1.05 3.17-2e-3 0.26-0.0401 0.255 4.38 0.527 6.5 0.4 6.76 0.422 7.25 0.617 0.842 0.337 2.35 2.22 2.69 3.36l0.127 0.423-0.887 2.1c-2.72 6.45-3.4 8.15-3.28 8.26 0.0536 0.0518 1.97 0.276 4.26 0.497 2.29 0.222 4.28 0.428 4.42 0.457l0.259 0.0541-0.118 0.142c-0.0648 0.078-2.23 1.6-4.81 3.39-2.58 1.78-5.46 3.78-6.4 4.43l-1.71 1.19-1.18 3.16c-0.649 1.74-1.5 4.02-1.89 5.07l-0.705 1.91 0.139 0.167c0.0764 0.092 0.695 0.603 1.38 1.14 1.56 1.22 2.83 2.23 7.67 6.08 2.14 1.7 4.14 3.29 4.46 3.54 0.593 0.468 0.735 0.732 0.394 0.733-2.76 8e-3 -15.5 0.368-15.6 0.44-0.0558 0.0558-0.261 0.525-0.455 1.04-0.195 0.518-0.566 1.27-0.824 1.66l-0.47 0.722 0.856 1.59c0.471 0.874 1.81 3.34 2.97 5.47 2.98 5.48 2.91 5.35 2.83 5.43-0.0725 0.0729-2.78-0.963-9.8-3.75-10.9-4.32-10.9-4.34-10.9-4.13 0 0.0411 0.729 2.86 1.62 6.26 2.81 10.7 3.03 11.6 2.97 11.7-0.0862 0.139-3.35-2.21-12.8-9.21-2.4-1.78-4.41-3.24-4.46-3.24-0.134 0 0.0896-1.05-2.32 10.9-0.724 3.59-1.34 6.55-1.37 6.59-0.119 0.119-0.408-0.247-4.99-6.32-6.41-8.51-6.72-8.9-6.93-8.9-0.117 0-1.5 1.74-3.68 4.62-3.61 4.77-8.96 11.9-9.41 12.6-0.424 0.621-0.511 0.502-0.891-1.21zm5.33-7.66c6.13-8.17 8.54-11.3 8.67-11.3 0.131 0.0406 0.945 1.09 5.09 6.57 1.48 1.95 3.36 4.45 4.19 5.54 0.828 1.09 1.56 2.01 1.62 2.03 0.0719 0.024 0.381-1.27 0.795-3.32 1.16-5.78 2.58-12.7 2.64-12.9 0.103-0.334 0.241-0.248 3.76 2.37 1.89 1.41 4.84 3.58 6.55 4.84 1.71 1.26 3.51 2.59 3.99 2.95 0.894 0.666 1.35 0.931 1.44 0.84 0.0419-0.0419-2.34-9.28-3.82-14.9-0.236-0.885-0.391-1.65-0.346-1.7 0.0786-0.0811 1.45 0.409 4.67 1.67 0.763 0.299 2.16 0.845 3.11 1.21 0.946 0.368 3.81 1.5 6.38 2.52 4.53 1.8 5.27 2.07 5.27 1.89 0-0.0877-0.806-1.63-1.83-3.49-0.318-0.58-0.967-1.77-1.44-2.64-1.02-1.87-0.92-1.81-1.9-1.25-0.934 0.535-1.88 0.857-2.98 1.02l-0.832 0.124-0.91-0.133c-2.96-0.433-5.5-2.62-6.69-5.77l-0.315-0.832-0.0545-1.18c-0.165-3.57 1.84-6.78 4.99-7.98 0.76-0.29 0.755-0.255 0.185-1.19l-0.453-0.743 0.0553-0.555c0.0304-0.305 0.209-1.1 0.397-1.77 0.507-1.8 0.511-1.79-0.601-0.834-2.52 2.17-7.2 4.55-10.5 5.32l-0.591 0.139-0.0934 0.237c-0.0514 0.13-0.195 1.36-0.319 2.73-0.887 9.8-0.846 9.52-1.44 9.75-0.164 0.065-1.15 0.292-2.18 0.504-1.04 0.212-2.86 0.591-4.05 0.841-1.19 0.25-2.7 0.558-3.36 0.685l-1.2 0.23-0.446-0.201c-0.506-0.228-1.83-1.59-2.05-2.11l-0.146-0.345 0.104-0.987c0.0571-0.543 0.105-1.18 0.106-1.43l2e-3 -0.439-1.3 1.34c-3.08 3.16-6.02 4.88-9.77 5.73l-1.08 0.244-4.55-0.01-1.11-0.299c-4.64-1.25-8.71-5.77-10.4-11.5-0.182-0.631-0.357-1.17-0.387-1.2-0.0306-0.0306-0.486 0.277-1.01 0.683-1.99 1.53-4.3 2.89-6.44 3.78-0.549 0.229-1.07 0.482-1.16 0.562l-0.159 0.146 0.138 3.75c0.076 2.06 0.167 4.57 0.203 5.58l0.0644 1.83-0.283 0.272c-0.156 0.15-0.675 0.407-1.15 0.571-0.479 0.164-2.12 0.731-3.64 1.26-1.53 0.529-3 1.03-3.28 1.12-0.28 0.0865-0.584 0.245-0.676 0.353-0.21 0.246-2.81 7.44-2.72 7.53 0.0552 0.0552 2.84-1.41 8.01-4.2 5.16-2.79 10.5-5.68 12.8-6.85 0.61-0.321 1.61-0.853 2.23-1.18 1.21-0.642 1.42-0.699 1.53-0.408 0.0797 0.208 1.97 8.62 3.46 15.4 1.07 4.89 1 4.6 1.14 4.6 0.057 0 1.87-2.36 4.04-5.24zm-29.2-14c2.43-0.832 4.47-1.57 4.55-1.64l0.132-0.124-0.098-2.11c-0.265-5.71-0.368-9.27-0.27-9.36 0.0575-0.0532 0.604-0.28 1.21-0.503 10.4-3.79 16.4-12.7 14.8-22-1.71-10.3-10.8-12.1-26.1-5.25l-1.97 0.889 9.49e-4 0.57c5.22e-4 0.314 0.0484 1.12 0.106 1.79 0.134 1.55 0.223 2.76 0.831 11.3 0.273 3.84 0.524 7.26 0.558 7.6 0.0334 0.336 0.134 1.71 0.223 3.05 0.0891 1.34 0.262 3.79 0.383 5.44 0.284 3.85 0.783 11.2 0.783 11.5v0.267h0.219c0.12 0 2.2-0.681 4.63-1.51zm3.88-22.4c-0.0521-0.0848-0.287-6.99-0.337-9.91l-0.02-1.17 0.615-0.298c2.84-1.38 5.66-0.958 6.61 0.984l0.305 0.624 0.0903 2.46-0.181 0.774c-0.594 2.53-2.48 4.66-5.32 6.01-1.08 0.512-1.66 0.686-1.76 0.528zm3.96-4.17c1.16-1.33 1.99-3.77 1.52-4.51l-0.0976-0.154-0.816 0.0582c-0.449 0.032-1.02 0.127-1.26 0.211l-0.444 0.153 0.0381 2.44c0.0473 3.02 0.026 2.99 1.06 1.81zm23.7 20.5c8.2-1.3 14.8-9.71 16.8-21.4 1.95-11.6-1.51-20.5-8.64-22.3-6.87-1.74-14.3 2.48-18.3 10.4l-0.551 1.1 0.232 0.956c1.31 5.39-0.187 12.4-3.54 16.6l-0.351 0.441 0.0698 0.668c1.03 9.85 6.27 14.8 14.3 13.5zm-1.72-10.1c-2.24-0.8-3.26-2.95-3.39-7.17l-0.0606-1.94 0.186-1.53c0.728-5.98 3.34-10.6 6.67-11.9l0.661-0.246 2.11-8e-3 0.635 0.312c1.22 0.599 2.05 1.92 2.49 3.96l0.203 0.943 1.3e-4 2.61c4.6e-4 8.73-3.52 15.1-8.31 15.1-0.431-3e-3 -0.967-0.0701-1.19-0.15zm2.86-1.95c1.89-0.931 3.37-3.36 4.31-7.09 0.977-3.86 0.907-9.74-0.121-10.2-3.53-1.61-7.74 6.11-7.45 13.6 0.153 3.86 0.972 4.79 3.26 3.66zm41.8 10.7c5.98-1.54 6.16-10.2 0.23-11l-0.896-0.126-0.88 0.179c-3.36 0.685-5.68 4.21-4.93 7.48 0.616 2.67 3.55 4.26 6.47 3.51zm-23.4-1.37c2.37-0.48 4.35-0.916 4.4-0.968 0.05-0.0523 0.322-2.52 0.605-5.48s0.544-5.68 0.58-6.05c0.0853-0.861 0.172-1.01 0.627-1.1 9.97-1.87 17.1-9.26 17.6-18.1l0.069-1.44-0.17-1.11c-0.704-4.58-3.38-7.4-7.97-8.4l-1.15-0.25-4.77-6e-3 -1.22 0.2c-2.49 0.408-4.75 0.976-7.85 1.98l-1.74 0.563-0.052 0.349c-0.423 2.84-0.634 9.11-0.365 10.8 0.727 4.65-0.405 14.3-2.04 17.3-0.0584 0.109-0.182 0.987-0.275 1.95-0.093 0.964-0.216 2.23-0.272 2.81s-0.182 1.88-0.278 2.88c-0.0963 1.01-0.222 2.28-0.279 2.83-0.0573 0.549-0.105 1.24-0.106 1.53l-2e-3 0.527 0.194-3e-3c0.107-1e-3 2.13-0.396 4.5-0.876zm6.68-22.3c-0.113-0.182 1.06-10.4 1.2-10.5 0.37-0.235 1.89-0.474 3.01-0.474h1.22l0.583 0.203c2.99 1.04 2.38 6.12-1.05 8.76-1.46 1.12-4.69 2.4-4.96 1.97zm4.8-4.16c0.658-0.72 1.18-1.7 1.36-2.58l0.13-0.627-0.413-0.312-0.721 0.066c-1.04 0.0952-1.2 0.157-1.27 0.492-0.137 0.67-0.413 3.7-0.352 3.85l0.0659 0.172 0.321-0.229c0.177-0.126 0.572-0.503 0.879-0.839zm-72.7 26c1.43-0.165 2.65-0.339 2.7-0.387 0.05-0.0477 0.0354-0.755-0.0325-1.57s-0.154-1.92-0.191-2.46c-0.0857-1.24-0.0743-1.24-1.16-0.277-2.94 2.59-5.46 4.88-5.51 5.01-0.0551 0.135 0.97 0.0589 4.2-0.313zm103-2.9c0.632-0.0864 0.725 0.0157-1.86-2.05-5.15-4.1-7.71-6.09-7.82-6.05-0.0618 0.0205-0.245 0.381-0.407 0.801-0.168 0.437-0.428 0.879-0.605 1.03l-0.311 0.268-0.808-0.0683c-0.444-0.0376-1.01-0.1-1.25-0.139l-0.445-0.0712v0.156c0 0.086 0.302 0.454 0.671 0.819 1.36 1.34 2.19 2.96 2.29 4.49 0.0274 0.397 0.0722 0.791 0.0994 0.876l0.0495 0.155 4.96-0.0753c2.73-0.0414 5.18-0.105 5.44-0.14zm-13-9.52c0-0.368 6.92-18.7 10.8-28.5 1.73-4.4 1.84-4.77 1.45-4.92-0.29-0.116-12-0.84-12.1-0.747-0.0399 0.0455-0.158 0.832-0.261 1.75-0.597 5.26-3.1 17.5-5.68 27.7-0.513 2.03-0.933 3.79-0.933 3.91 0 0.275-0.0521 0.265 3.27 0.608 1.53 0.157 2.87 0.299 3 0.315 0.205 0.0264 0.499-0.0251 0.499-0.0874zm-88.5-8.47c-0.0445-0.656-0.139-1.94-0.21-2.86l-0.129-1.66-0.186-0.0358c-0.102-0.0197-1.73 0.37-3.61 0.865-5.25 1.38-4.92 1.25-4.06 1.64 1.66 0.753 7.78 3.22 8 3.23l0.265 9e-3zm99.7-6.72c1.08-0.75 2.61-1.8 3.38-2.34 1.5-1.03 1.6-1.18 0.768-1.18-0.286-2e-3 -0.87-0.0483-1.3-0.103-0.427-0.0548-1.31-0.134-1.95-0.177l-1.17-0.0773-0.288 0.763c-0.158 0.42-0.591 1.56-0.961 2.52-0.928 2.43-1.06 2.38 1.52 0.591zm-69.8-5.32c6.71-10.5 17.9-12.8 25.5-5.31 0.812 0.797 1.51 1.41 1.55 1.37 0.0428-0.0447 0.135-0.929 0.205-1.96 0.153-2.26-0.0163-2.04 2.04-2.71 13.2-4.31 20.4-3.37 25.3 3.29 0.926 1.27 0.802 1.45 1.31-1.86 1.23-8.11 1.06-7.44 2.19-8.3 0.254-0.193 1.55-3.65 1.41-3.78-0.0883-0.0883-1.25 0.317-5.44 1.9-2.01 0.762-4.39 1.66-5.28 2-0.89 0.337-3.65 1.39-6.12 2.34s-4.6 1.73-4.71 1.73h-0.206l-1.35-5.46c-0.743-3.01-1.78-7.22-2.31-9.36-0.525-2.14-0.997-3.96-1.05-4.04l-0.0935-0.151-0.193 0.159c-0.31 0.257-2.71 2.94-7.04 7.87-9.18 10.5-8.56 9.76-8.72 9.76-0.0722 0-1.25-1.24-2.61-2.75-1.36-1.51-3.13-3.47-3.94-4.35-0.803-0.885-2.85-3.16-4.55-5.05-1.7-1.89-3.15-3.46-3.23-3.47-0.205-0.0507-0.241 0.24-0.316 2.59-0.0683 2.13-0.254 6.38-0.554 12.6-0.0905 1.89-0.165 3.6-0.166 3.8l-0.0014 0.361h-0.212c-0.188 0-2.1-0.861-7.94-3.57-2.7-1.25-2.53-1.29-2.13 0.385 0.519 2.17 1.18 5.11 1.25 5.6l0.0737 0.472h-0.243c-0.235 0-2.4-0.662-10.5-3.22-9.44-2.96-12.4-3.88-12.5-3.88-0.19 0 0.242 0.746 1.99 3.44 0.258 0.397 1.17 1.82 2.02 3.16 2.31 3.64 2.8 4.38 2.86 4.38 0.0296 0 0.566-0.194 1.19-0.431 9.76-3.69 16.3-2.88 21.6 2.69 0.482 0.506 0.426 0.524 0.949-0.292zm42.3 59.5c-0.649-0.755-3.45-5.42-3.2-5.34 0.143 0.05 4.11 4.77 4.11 4.89 0 0.39-0.673 0.72-0.909 0.446zm-85.4-31.8c-0.496-0.65-0.685-0.551 3.74-1.96 4.06-1.3 3.98-1.16-0.658 1.16-2.62 1.31-2.68 1.33-3.08 0.805zm120-3.6c-5.44-3.17-5.4-3.19 0.762-0.574 2.9 1.23 2.93 1.26 2.57 1.77-0.36 0.505-0.499 0.456-3.33-1.19zm-126 0.39c-0.0598-0.156 0.442-2.19 0.624-2.53l0.112-0.209 6.57 0.012c6.21 0.0114 8.12 0.0713 7.74 0.242-0.299 0.133-14.3 2.63-14.8 2.63-0.109-1.5e-4 -0.222-0.0647-0.253-0.143zm128-3.99c-0.214-0.0658-2.46-0.74-4.99-1.5-5.6-1.68-5.56-1.67-5.77-1.8l-0.166-0.11 0.61-1e-3c0.854-2e-3 6.04 0.501 8.64 0.839 1.2 0.155 2.41 0.31 2.69 0.345 0.284 0.0346 0.58 0.103 0.659 0.151l0.143 0.0884-0.143 0.425c-0.0789 0.234-0.276 0.699-0.438 1.03l-0.295 0.61-0.276 0.0188c-0.152 0.0103-0.45-0.035-0.664-0.101zm-95.2-42.8c-4.7-3.19-4.37-2.84-3.68-3.79 0.592-0.816 0.485-0.887 3.85 2.55 4.02 4.11 4.02 4.09-0.164 1.24zm6.65 1.31c-0.645-0.707-4.28-5.34-8.72-11.1-0.629-0.817-1.14-1.57-1.14-1.68 0-0.225 1.4-1.33 1.68-1.33 0.211 0 1.41 1.96 5.44 8.88 3.13 5.37 3.49 6.06 2.74 5.24zm54.3-0.817c0.2-0.649 3.55-8.32 5.64-12.9 2.3-5.06 2.58-5.64 2.76-5.75l0.186-0.117 1.05 0.414c0.575 0.228 1.14 0.482 1.25 0.565l0.206 0.151-1.01 1.65c-0.554 0.907-1.6 2.6-2.32 3.76s-2.25 3.63-3.39 5.49c-4.4 7.17-4.59 7.47-4.37 6.75zm3.35-0.15c0.104-0.186 3.89-4.25 5.71-6.13l1.21-1.25 0.215 0.115c0.389 0.208 1.13 0.981 1.08 1.13-0.0693 0.216-8.01 6.3-8.22 6.3-0.0488 3.9e-4 -0.0474-0.0731 3e-3 -0.163z" fill="#0f0906"/></svg>
