<svg width="210mm" height="297mm" version="1.1" viewBox="0 0 210 297" xmlns="http://www.w3.org/2000/svg"><path d="m123 188c-0.034-0.055-0.0985-1.18-0.143-2.51l-0.0816-2.41-0.243-0.196c-0.134-0.108-1.41-0.871-2.83-1.7-1.42-0.826-2.7-1.59-2.83-1.7l-0.246-0.196 0.578-3.19c0.318-1.75 0.577-3.3 0.576-3.43-1e-3 -0.224-0.538-1.51-2.18-5.24-0.369-0.837-0.836-1.9-1.04-2.37-0.202-0.466-0.427-0.87-0.501-0.898-0.126-0.0482-3.53 2.3-6.48 4.48-1.94 1.43-1.85 1.44-2.58-0.362-0.301-0.747-0.584-1.4-0.629-1.45-0.073-0.0816-4.11 5.9-4.38 6.49l-0.109 0.239 0.378 1.1c0.208 0.603 0.85 2.31 1.43 3.79 3.28 8.4 3.13 7.92 2.43 7.92-0.432 0-0.484-0.0771-1.32-1.94-1.22-2.72-1.84-4-1.93-4-0.0909 0-1.03 1.01-3.58 3.84l-1.25 1.39-0.269-0.0312c-0.674-0.078-0.555-0.268 2.56-4.08l1.98-2.42-0.133-0.369c-0.129-0.357-2.16-5.16-2.41-5.72-0.181-0.393-5.88-7.04-6.54-7.62l-0.199-0.176-3.33 0.21-0.259-0.193c-0.149-0.111-0.274-0.318-0.293-0.487-0.0191-0.164-0.182-0.443-0.368-0.628l-0.333-0.334-2.93 3.02c-1.61 1.66-3.29 3.4-3.73 3.85-1.35 1.4-1.18 1.6-2.92-3.57l-1.43-4.27-0.575-0.298c-0.316-0.164-0.94-0.546-1.39-0.85s-0.858-0.552-0.914-0.552c-0.0952-7.3e-4 -1.82 1-6.75 3.94-5.8 3.45-8.34 4.86-8.93 4.97-0.739 0.14-5.03 1.4-5.14 1.51-0.089 0.0873-0.0362 0.412 0.217 1.33 0.184 0.67 0.57 2.09 0.858 3.16l0.523 1.94-0.191 0.542c-0.726 2.06-1.34 3.17-1.65 2.98-0.15-0.0927-0.136-0.178 0.32-1.9l0.423-1.59-0.735-2.41c-0.404-1.33-0.874-2.86-1.04-3.4l-0.308-0.988 0.161-0.246c0.0986-0.151 0.37-0.313 0.698-0.418 0.295-0.0942 1.55-0.516 2.8-0.938l2.26-0.767 3.77-5.39c4.04-5.78 4.65-6.65 5.98-8.54 0.473-0.67 1.09-1.56 1.38-1.98l0.516-0.761-0.175-1.19c-0.136-0.923-0.22-1.23-0.37-1.34-0.107-0.0814-0.88-0.65-1.72-1.26-7.06-5.18-10.2-7.55-10.2-7.72 0-0.471 1.67-0.638 11.1-1.11 1.17-0.0589 2.41-0.132 2.76-0.163l0.627-0.0563 1.06-1.86-0.164-0.662c-0.0899-0.364-0.348-1.44-0.573-2.39s-0.866-3.6-1.43-5.89c-0.559-2.29-1.19-4.87-1.39-5.73l-0.379-1.57-7.07-0.102-0.186-0.23c-0.142-0.175-1.59-4.28-2.04-5.78-0.0824-0.274 0.158-0.642 0.42-0.642 0.45 0 0.674 0.417 1.47 2.74 0.43 1.25 0.858 2.44 0.951 2.64l0.17 0.36 3.51-0.0384c3.88-0.0425 3.83-0.0498 4.09 0.599 0.235 0.586 0.0103 0.888 2.44-3.28 0.587-1.01 0.921-1.35 1.21-1.24 0.398 0.153 0.294 0.444-1.24 3.49-1.71 3.4-1.64 3.14-1.21 4.37 0.378 1.08 0.302 1.01 1.56 1.47 2.36 0.86 6.26 2.26 8.52 3.06l2.44 0.859 0.786-0.0685c1.12-0.0977 1.06 6e-3 1.24-2.22 0.0868-1.06 0.292-3.44 0.455-5.28 0.163-1.84 0.328-3.81 0.366-4.36 0.114-1.67 0.407-1.72 1.66-0.33 1.11 1.23 5.1 5.45 5.82 6.15 0.734 0.718 0.706 0.739 1.78-1.39 1.33-2.64 1.09-2.67 3.34 0.332 2.91 3.87 4.13 5.42 4.25 5.43 0.113 2e-3 2.79-3.58 3.42-4.59 0.75-1.19 2.91-5.03 2.91-5.18 0-0.087-0.594-1.2-1.32-2.47-0.726-1.27-1.32-2.39-1.32-2.49 0-0.412 6.23-7.53 6.55-7.48 0.541 0.0776 0.341 0.419-1.85 3.16-0.575 0.72-1.04 1.35-1.04 1.4 0 0.128 0.396 0.113 3.1-0.118 2.49-0.213 2.83-0.191 2.47 0.166-0.181 0.181-1.25 0.378-4.39 0.81l-2.12 0.292-0.695 0.864c-0.871 1.08-0.926 0.788 0.63 3.37 0.729 1.21 1.33 2.29 1.34 2.41 8e-3 0.112-0.618 1.45-1.39 2.98-1.09 2.16-1.39 2.83-1.34 3.02 0.0931 0.352 2.28 3.26 2.42 3.22 0.12-0.0399 3.94-9.86 4.7-12.1 0.69-2.02 0.752-2.04 2.04-0.556 0.497 0.57 1.48 1.66 2.17 2.42 0.698 0.758 2.71 2.95 4.47 4.88 3.47 3.8 5.76 6.19 5.92 6.19 0.115 0 0.26-0.125 4.8-4.13 1.94-1.71 3.39-3.06 3.42-3.19 0.0543-0.208-0.174-2.34-0.292-2.73-0.0368-0.12-0.603-0.265-2.31-0.589-3.24-0.617-3-0.269-2.41-3.48 0.489-2.66 0.698-3.11 1.27-2.69l0.197 0.144-0.135 0.798c-0.343 2.03-0.582 3.79-0.526 3.88 0.0335 0.0543 1.09 0.29 2.34 0.524 2.63 0.49 2.58 0.463 2.8 1.52 0.212 1.02 0.232 1.03 0.89 0.166 0.689-0.9 0.681-0.671 0.112-2.93-0.554-2.21-0.606-2.02 0.847-2.96 3.08-1.99 3.42-2.2 3.62-2.17 0.145 0.0208 0.208 0.105 0.208 0.279v0.249l-1.85 1.32c-1.02 0.728-1.92 1.4-2.02 1.49l-0.165 0.167 1.04 3.91-0.682 1.02c-1.44 2.16-1.47 2.29-0.897 3.2 0.197 0.312 0.806 1.27 1.35 2.14s1.06 1.58 1.14 1.6c0.08 0.0137 1.7-1.14 3.6-2.57 1.9-1.43 3.9-2.94 4.45-3.35 1.6-1.2 1.72-1.11 1.4 1.12-0.227 1.57-0.452 3.59-0.577 5.16l-0.0703 0.888h0.467c0.257 0 1.15-0.0502 1.99-0.111l1.53-0.111 0.251 0.165c0.138 0.0905 0.251 0.257 0.251 0.37 0 0.137 0.113 0.253 0.338 0.347 0.503 0.21 0.599 0.38 0.56 0.987-0.0417 0.642-0.0448 0.639 0.493 0.553l0.427-0.0682 0.696-0.938c0.383-0.516 1.19-1.65 1.8-2.51 2.27-3.23 2.97-4.06 3.41-4.06 0.49 0 0.42 0.263-0.382 1.44-0.425 0.623-0.778 1.2-0.784 1.29l-0.0112 0.16 2.84-0.0303c2.84-0.0303 3.19 5e-3 3.07 0.319-0.0979 0.255-0.698 0.352-3.22 0.519-1.31 0.0869-2.67 0.186-3.01 0.219l-0.629 0.0612-1.11 1.69c-2.81 4.28-4.18 6.45-4.18 6.61 0 0.0853 3.84 3.64 7.94 7.36 1.09 0.991 1.9 1.8 1.9 1.9 0 0.319-0.382 0.454-6.24 2.21-6.17 1.85-5.98 1.77-6.08 2.56l-0.0696 0.525 3.69 3.7c3.92 3.93 3.98 3.98 4.99 3.98 0.775 0 0.695 0.0731 1.84-1.69 0.469-0.72 0.957-1.44 1.08-1.6l0.231-0.294 2.29 0.0744c3.77 0.123 4.35 0.221 3.91 0.667l-0.152 0.152-5.52 0.102-0.697 1.25c-0.383 0.688-0.676 1.31-0.65 1.37 0.026 0.0677 1.34 0.483 2.93 0.923 3.56 0.988 3.77 1.08 3.27 1.45-0.274 0.2-0.254 0.203-4.55-0.634l-2.44-0.474-2.84 0.243-1.62 0.557c-0.893 0.306-2.77 0.943-4.16 1.41-3.24 1.1-2.86 0.759-3.4 3.03l-0.448 1.9-0.496 0.39h-1.76c-0.984 0-1.78 0.0419-1.82 0.0952-0.114 0.184 2.19 6.84 2.94 8.47 0.495 1.09 0.432 1.62-0.168 1.43-0.22-0.0698-6.19-3.23-11.9-6.29-4.75-2.56-7.71-4.11-7.82-4.11-0.192 0-2.46 1.91-6.97 5.88l-2.36 2.07v0.291c0 0.241-0.934 4.87-1.17 5.78l-0.0693 0.272 0.426 0.309c0.234 0.17 1.44 0.956 2.67 1.75 1.24 0.791 2.31 1.5 2.39 1.57 0.282 0.261 0.0653 5.11-0.25 5.59-0.159 0.242-0.396 0.305-0.502 0.133z" fill="#f6d301"/><path d="m123 188c-0.034-0.055-0.0985-1.18-0.143-2.51l-0.0816-2.41-0.243-0.196c-0.134-0.108-1.41-0.871-2.83-1.7-1.42-0.826-2.7-1.59-2.83-1.7l-0.246-0.196 0.578-3.19c0.318-1.75 0.577-3.3 0.576-3.43-1e-3 -0.224-0.538-1.51-2.18-5.24-0.369-0.837-0.836-1.9-1.04-2.37-0.202-0.466-0.427-0.87-0.501-0.898-0.126-0.0482-3.53 2.3-6.48 4.48-1.94 1.43-1.85 1.44-2.58-0.362-0.301-0.747-0.584-1.4-0.629-1.45-0.073-0.0816-4.11 5.9-4.38 6.49l-0.109 0.239 0.378 1.1c0.208 0.603 0.85 2.31 1.43 3.79 3.28 8.4 3.13 7.92 2.43 7.92-0.432 0-0.484-0.0771-1.32-1.94-1.22-2.72-1.84-4-1.93-4-0.0909 0-1.03 1.01-3.58 3.84l-1.25 1.39-0.269-0.0312c-0.674-0.078-0.555-0.268 2.56-4.08l1.98-2.42-0.133-0.369c-0.129-0.357-2.16-5.16-2.41-5.72-0.181-0.393-5.88-7.04-6.54-7.62l-0.199-0.176-3.33 0.21-0.259-0.193c-0.149-0.111-0.274-0.318-0.293-0.487-0.0191-0.164-0.182-0.443-0.368-0.628l-0.333-0.334-2.93 3.02c-1.61 1.66-3.29 3.4-3.73 3.85-1.35 1.4-1.18 1.6-2.92-3.57l-1.43-4.27-0.575-0.298c-0.316-0.164-0.94-0.546-1.39-0.85s-0.858-0.552-0.914-0.552c-0.0952-7.3e-4 -1.82 1-6.75 3.94-5.8 3.45-8.34 4.86-8.93 4.97-0.739 0.14-5.03 1.4-5.14 1.51-0.089 0.0873-0.0362 0.412 0.217 1.33 0.184 0.67 0.57 2.09 0.858 3.16l0.523 1.94-0.191 0.542c-0.726 2.06-1.34 3.17-1.65 2.98-0.15-0.0927-0.136-0.178 0.32-1.9l0.423-1.59-0.735-2.41c-0.404-1.33-0.874-2.86-1.04-3.4l-0.308-0.988 0.161-0.246c0.0986-0.151 0.37-0.313 0.698-0.418 0.295-0.0942 1.55-0.516 2.8-0.938l2.26-0.767 3.77-5.39c4.04-5.78 4.65-6.65 5.98-8.54 0.473-0.67 1.09-1.56 1.38-1.98l0.516-0.761-0.175-1.19c-0.136-0.923-0.22-1.23-0.37-1.34-0.107-0.0814-0.88-0.65-1.72-1.26-7.06-5.18-10.2-7.55-10.2-7.72 0-0.471 1.67-0.638 11.1-1.11 1.17-0.0589 2.41-0.132 2.76-0.163l0.627-0.0563 1.06-1.86-0.164-0.662c-0.0899-0.364-0.348-1.44-0.573-2.39s-0.866-3.6-1.43-5.89c-0.559-2.29-1.19-4.87-1.39-5.73l-0.379-1.57-7.07-0.102-0.186-0.23c-0.142-0.175-1.59-4.28-2.04-5.78-0.0824-0.274 0.158-0.642 0.42-0.642 0.45 0 0.674 0.417 1.47 2.74 0.43 1.25 0.858 2.44 0.951 2.64l0.17 0.36 3.51-0.0384c3.88-0.0425 3.83-0.0498 4.09 0.599 0.235 0.586 0.0103 0.888 2.44-3.28 0.587-1.01 0.921-1.35 1.21-1.24 0.398 0.153 0.294 0.444-1.24 3.49-1.71 3.4-1.64 3.14-1.21 4.37 0.378 1.08 0.302 1.01 1.56 1.47 2.36 0.86 6.26 2.26 8.52 3.06l2.44 0.859 0.786-0.0685c1.12-0.0977 1.06 6e-3 1.24-2.22 0.0868-1.06 0.292-3.44 0.455-5.28 0.163-1.84 0.328-3.81 0.366-4.36 0.114-1.67 0.407-1.72 1.66-0.33 1.11 1.23 5.1 5.45 5.82 6.15 0.734 0.718 0.706 0.739 1.78-1.39 1.33-2.64 1.09-2.67 3.34 0.332 2.91 3.87 4.13 5.42 4.25 5.43 0.113 2e-3 2.79-3.58 3.42-4.59 0.75-1.19 2.91-5.03 2.91-5.18 0-0.087-0.594-1.2-1.32-2.47-0.726-1.27-1.32-2.39-1.32-2.49 0-0.412 6.23-7.53 6.55-7.48 0.541 0.0776 0.341 0.419-1.85 3.16-0.575 0.72-1.04 1.35-1.04 1.4 0 0.128 0.396 0.113 3.1-0.118 2.49-0.213 2.83-0.191 2.47 0.166-0.181 0.181-1.25 0.378-4.39 0.81l-2.12 0.292-0.695 0.864c-0.871 1.08-0.926 0.788 0.63 3.37 0.729 1.21 1.33 2.29 1.34 2.41 8e-3 0.112-0.618 1.45-1.39 2.98-1.09 2.16-1.39 2.83-1.34 3.02 0.0931 0.352 2.28 3.26 2.42 3.22 0.12-0.0399 3.94-9.86 4.7-12.1 0.69-2.02 0.752-2.04 2.04-0.556 0.497 0.57 1.48 1.66 2.17 2.42 0.698 0.758 2.71 2.95 4.47 4.88 3.47 3.8 5.76 6.19 5.92 6.19 0.115 0 0.26-0.125 4.8-4.13 1.94-1.71 3.39-3.06 3.42-3.19 0.0543-0.208-0.174-2.34-0.292-2.73-0.0368-0.12-0.603-0.265-2.31-0.589-3.24-0.617-3-0.269-2.41-3.48 0.489-2.66 0.698-3.11 1.27-2.69l0.197 0.144-0.135 0.798c-0.343 2.03-0.582 3.79-0.526 3.88 0.0335 0.0543 1.09 0.29 2.34 0.524 2.63 0.49 2.58 0.463 2.8 1.52 0.212 1.02 0.232 1.03 0.89 0.166 0.689-0.9 0.681-0.671 0.112-2.93-0.554-2.21-0.606-2.02 0.847-2.96 3.08-1.99 3.42-2.2 3.62-2.17 0.145 0.0208 0.208 0.105 0.208 0.279v0.249l-1.85 1.32c-1.02 0.728-1.92 1.4-2.02 1.49l-0.165 0.167 1.04 3.91-0.682 1.02c-1.44 2.16-1.47 2.29-0.897 3.2 0.197 0.312 0.806 1.27 1.35 2.14s1.06 1.58 1.14 1.6c0.08 0.0137 1.7-1.14 3.6-2.57 1.9-1.43 3.9-2.94 4.45-3.35 1.6-1.2 1.72-1.11 1.4 1.12-0.227 1.57-0.452 3.59-0.577 5.16l-0.0703 0.888h0.467c0.257 0 1.15-0.0502 1.99-0.111l1.53-0.111 0.251 0.165c0.138 0.0905 0.251 0.257 0.251 0.37 0 0.137 0.113 0.253 0.338 0.347 0.503 0.21 0.599 0.38 0.56 0.987-0.0417 0.642-0.0448 0.639 0.493 0.553l0.427-0.0682 0.696-0.938c0.383-0.516 1.19-1.65 1.8-2.51 2.27-3.23 2.97-4.06 3.41-4.06 0.49 0 0.42 0.263-0.382 1.44-0.425 0.623-0.778 1.2-0.784 1.29l-0.0112 0.16 2.84-0.0303c2.84-0.0303 3.19 5e-3 3.07 0.319-0.0979 0.255-0.698 0.352-3.22 0.519-1.31 0.0869-2.67 0.186-3.01 0.219l-0.629 0.0612-1.11 1.69c-2.81 4.28-4.18 6.45-4.18 6.61 0 0.0853 3.84 3.64 7.94 7.36 1.09 0.991 1.9 1.8 1.9 1.9 0 0.319-0.382 0.454-6.24 2.21-6.17 1.85-5.98 1.77-6.08 2.56l-0.0696 0.525 3.69 3.7c3.92 3.93 3.98 3.98 4.99 3.98 0.775 0 0.695 0.0731 1.84-1.69 0.469-0.72 0.957-1.44 1.08-1.6l0.231-0.294 2.29 0.0744c3.77 0.123 4.35 0.221 3.91 0.667l-0.152 0.152-5.52 0.102-0.697 1.25c-0.383 0.688-0.676 1.31-0.65 1.37 0.026 0.0677 1.34 0.483 2.93 0.923 3.56 0.988 3.77 1.08 3.27 1.45-0.274 0.2-0.254 0.203-4.55-0.634l-2.44-0.474-2.84 0.243-1.62 0.557c-0.893 0.306-2.77 0.943-4.16 1.41-3.24 1.1-2.86 0.759-3.4 3.03l-0.448 1.9-0.496 0.39h-1.76c-0.984 0-1.78 0.0419-1.82 0.0952-0.114 0.184 2.19 6.84 2.94 8.47 0.495 1.09 0.432 1.62-0.168 1.43-0.22-0.0698-6.19-3.23-11.9-6.29-4.75-2.56-7.71-4.11-7.82-4.11-0.192 0-2.46 1.91-6.97 5.88l-2.36 2.07v0.291c0 0.241-0.934 4.87-1.17 5.78l-0.0693 0.272 0.426 0.309c0.234 0.17 1.44 0.956 2.67 1.75 1.24 0.791 2.31 1.5 2.39 1.57 0.282 0.261 0.0653 5.11-0.25 5.59-0.159 0.242-0.396 0.305-0.502 0.133zm23.4-16.1c0-0.0717-0.259-0.814-0.575-1.65-0.316-0.835-0.858-2.41-1.2-3.5l-0.63-1.98-0.577-0.0633c-0.639-0.0701-1.07-0.373-1.07-0.747 0-0.125-0.134-0.316-0.317-0.452l-0.317-0.235 0.0683-0.723c0.0981-1.04 0.621-4.37 0.708-4.51 0.138-0.223-0.178-0.12-0.846 0.274-1.09 0.646-1.57 0.641-1.85-0.0211-0.0724-0.177-0.236-0.404-0.363-0.506-0.159-0.126-0.341-0.541-0.58-1.32-0.981-3.2-1.29-4.17-1.33-4.21-0.0698-0.0698-0.189 0.704-0.755 4.91-0.417 3.1 0.0437 2.8-4.49 2.86l-3.52 0.0463-0.262-0.262c-0.144-0.144-0.263-0.371-0.263-0.503 0-0.132-0.119-0.344-0.266-0.471l-0.266-0.231 0.139-1.23-0.184 0.0728c-1.25 0.493-3.56 0.698-4.73 0.421-0.38-0.0895-0.711-0.163-0.736-0.163-0.0245 0-0.0444 0.112-0.0444 0.249 0 0.875-0.109 0.91-4.15 1.34-3.87 0.408-4 0.404-4.13-0.136-0.0365-0.155-0.194-0.42-0.35-0.587l-0.283-0.305-0.32-2.08c-0.176-1.14-0.351-2.11-0.389-2.14-0.038-0.0323-0.914 0.0133-1.95 0.102l-1.88 0.16-0.529 1.57c-0.653 1.94-0.654 1.85 0.0213 2.62 1.02 1.17 1.15 1.02-3.2 3.57-0.698 0.409-1.72 1.01-2.28 1.35-0.556 0.33-1.16 0.625-1.35 0.656l-0.337 0.0546-0.562-0.597c-0.508-0.54-1.28-1.45-2.73-3.23-1.88-2.31-2.42-2.91-2.49-2.78-0.0728 0.136-0.112 0.758-0.305 4.8-0.124 2.6-0.225 2.79-1.45 2.8-0.203 4e-4 -0.274 0.0421-0.237 0.139 0.123 0.321 5.39 6.46 5.54 6.46 0.0754 0 1.36-1.81 4.37-6.18 0.893-1.29 1.13-1.5 1.56-1.4l0.251 0.0631 0.619 1.46c0.34 0.802 0.619 1.5 0.619 1.55 0 0.0532 0.0616 0.181 0.137 0.284l0.137 0.187 1.11-0.798c6-4.32 6.64-4.76 7.03-4.76 0.459 0 0.297-0.324 3.16 6.33 0.515 1.2 0.976 2.22 1.02 2.27 0.0957 0.1 0.282-0.0409 1.59-1.21 1.66-1.48 5.76-5.06 6.89-6.01l1.11-0.939 0.85-3.5e-4 1.86 1c2.47 1.33 5.21 2.84 8.76 4.83 0.726 0.406 2.1 1.17 3.05 1.7 0.949 0.529 2.09 1.17 2.54 1.42 0.906 0.515 0.964 0.536 0.964 0.351zm-64.5-5.58c3.27-3.37 3.89-4.03 3.81-4.03-0.0382 0-0.377 0.154-0.752 0.343-1.91 0.958-5.06 1.41-6.91 0.994-0.708-0.16-0.711-0.338 0.0346 1.92 0.359 1.08 0.748 2.3 0.866 2.71 0.118 0.405 0.251 0.736 0.296 0.736 0.0453 0 1.24-1.2 2.66-2.66zm-19.6-0.967c0.642-0.362 1.51-0.852 1.93-1.09 3.08-1.74 4-2.26 5.43-3.05 0.893-0.491 1.69-0.953 1.77-1.03l0.146-0.134-0.323-0.383c-0.956-1.13-1.96-2.84-2.66-4.52-0.18-0.433-0.362-0.787-0.405-0.787-0.0761 0-1.78 2.43-3.98 5.68-0.586 0.865-1.5 2.21-2.03 2.99-0.529 0.782-1.27 1.87-1.65 2.43-1.06 1.55-1.22 1.56 1.77-0.121zm92.5-7.81c1.85-0.622 3.17-1.12 3.17-1.19 0-0.188-6-6.08-6.09-5.98-0.0432 0.0474-0.177 0.748-0.298 1.56-0.552 3.7-0.181 3.32-3.49 3.56l-1.65 0.122-1.27 0.712c-0.698 0.392-1.46 0.821-1.7 0.954-0.516 0.29-0.547 0.378-0.102 0.298 0.181-0.0329 1.7-0.178 3.37-0.323l3.04-0.264 0.263 0.195c0.145 0.108 0.278 0.294 0.295 0.415 0.0179 0.121 0.166 0.288 0.328 0.372 0.163 0.0841 0.368 0.293 0.456 0.464 0.117 0.226 0.208 0.292 0.332 0.243 0.0939-0.0372 1.6-0.548 3.34-1.14zm-72.4-4.84c1.38-0.293 2.83-1.22 3.9-2.48 0.551-0.654 1.06-1 1.28-0.871 0.159 0.0984 0.189-0.147 0.552-4.61 0.39-4.79 0.389-4.68 0.0365-4.43-0.317 0.222-0.785 0.203-1.15-0.0462-1.45-0.987-2.76-1.04-4.52-0.184l-0.863 0.421-0.914 0.925c-2.74 2.78-3.56 7.51-1.75 10.2 0.747 1.12 1.75 1.43 3.43 1.08zm19.1-3.89c0.312-0.935 0.567-1.73 0.567-1.77 0-0.0407-0.562 0.302-1.25 0.761-0.687 0.459-1.34 0.888-1.45 0.953l-0.198 0.117 0.81 0.821c0.445 0.452 0.841 0.821 0.88 0.821 0.0385 0 0.325-0.765 0.637-1.7zm25.1-0.208c0.344-0.162 0.823-0.461 1.07-0.665 0.457-0.384 0.858-0.471 1.24-0.267l0.194 0.104 0.0521-0.231c0.11-0.485 0.641-5 0.596-5.08-0.0256-0.0419-0.127-0.0761-0.225-0.0761-0.0983 0-0.416-0.177-0.706-0.393-3.08-2.3-7.35 3.01-5.09 6.32 0.519 0.761 1.62 0.87 2.87 0.283zm-59.1-1.32c0.0048-1.03 0.564-3.56 1.17-5.3 0.204-0.586 0.396-1.15 0.426-1.25l0.0556-0.185-0.953 0.0563c-0.524 0.031-1.55 0.0809-2.27 0.111-3.18 0.132-7.22 0.373-7.4 0.441-0.191 0.0748 0.452 0.576 6.08 4.74 2.98 2.21 2.89 2.16 2.89 1.39zm77.1-1.47c0.0279-0.126 0.0971-0.662 0.154-1.19 0.152-1.42 0.295-2.63 0.367-3.12 0.0353-0.237 0.0389-0.431 8e-3 -0.431-0.0515 0-1.45 2.01-1.79 2.57l-0.144 0.239 0.363 0.6c0.199 0.33 0.467 0.816 0.595 1.08 0.258 0.534 0.366 0.596 0.442 0.254zm10.1-1.33c0.865-0.247 2.62-0.731 3.91-1.08 3.38-0.906 3.42-0.917 3.38-1.01-0.0177-0.0489-0.332-0.355-0.699-0.68-0.367-0.325-2.05-1.85-3.74-3.38s-3.13-2.8-3.2-2.82c-0.103-0.0245-1.35 7.29-1.56 9.15l-0.0443 0.391 0.189-0.0587c0.104-0.0323 0.897-0.261 1.76-0.509zm-58-2.4c1.03-0.74 1.71-1.91 1.74-3l0.0154-0.639-0.237-0.253c-0.45-0.48-1.78-0.649-1.94-0.247-0.0798 0.192-0.308 3.36-0.307 4.26 3.66e-4 0.366 0.065 0.354 0.735-0.126zm21.2-6.06c2.72-4.02 8.61-5.88 12.7-3.99l0.83 0.388 0.0537-0.371c0.0296-0.204 0.132-0.96 0.228-1.68 0.135-1.02 0.221-1.36 0.385-1.55l0.211-0.238 1.37-0.147c5.28-0.565 6.27-0.563 6.44 0.0105 0.0693 0.234 0.17 0.335 0.376 0.376 0.179 0.0358 0.34 0.17 0.443 0.368l0.161 0.312-0.259 1.85c-0.142 1.02-0.307 2.21-0.366 2.66-0.0589 0.447-0.123 0.892-0.143 0.99-0.0938 0.47 0.201 0.149 1.12-1.22 3.23-4.81 2.93-4.49 4.05-4.49h0.841l0.0541-0.228c0.0297-0.126 0.0861-0.541 0.125-0.923 0.0981-0.956 0.294-1.17 1.16-1.26l0.66-0.0719 0.126-1.07c0.0692-0.586 0.223-1.76 0.341-2.62 0.119-0.854 0.19-1.58 0.158-1.61-0.0603-0.0603-0.307 0.121-1.89 1.39-0.958 0.768-3.52 2.75-4.97 3.86-1.29 0.981-1.48 0.956-2.26-0.286-1.13-1.81-2.54-4.04-2.62-4.12-0.043-0.0474-0.347 0.158-0.676 0.457-0.79 0.718-6.63 5.9-7.26 6.46l-0.499 0.431h-0.848l-1.68-1.7c-1.63-1.65-3.77-3.91-8.71-9.24-1.31-1.41-2.41-2.56-2.45-2.56-0.0686 0-0.363 0.713-0.545 1.32-0.128 0.426-1.6 4.54-2.85 7.97-1.31 3.6-1.3 3.56-1.01 3.53 0.112-0.0126 1.04-0.119 2.06-0.236l1.86-0.213 0.252 0.165c0.139 0.0908 0.295 0.277 0.347 0.414 0.0648 0.17 0.173 0.248 0.343 0.248 0.386 0 0.622 0.406 0.811 1.39 0.094 0.491 0.326 1.6 0.516 2.47s0.42 1.93 0.511 2.36c0.19 0.901 0.214 0.919 0.558 0.41zm-11.1-3c1.14-3.51 1.1-3.4 1.45-3.59 0.363-0.188 0.35-0.234-0.309-1.07-0.281-0.356-0.892-1.15-1.36-1.76-0.466-0.614-0.889-1.12-0.941-1.12-0.0875 0-0.688 0.843-2.51 3.52-1.38 2.03-1.24 2.13-5.44-3.6-1.14-1.55-2.1-2.82-2.13-2.82-0.0364 0-0.431 0.735-0.876 1.63-0.833 1.68-0.942 1.82-1.45 1.82h-0.295l-2.93-3.02c-1.61-1.66-3.1-3.2-3.31-3.42-0.499-0.52-0.474-0.584-0.59 1.52-0.267 4.86-0.416 7.33-0.463 7.66-0.072 0.498-0.0188 0.536 1.1 0.786 0.549 0.122 1.4 0.398 1.88 0.613l0.884 0.39 0.352-0.146c5.71-2.37 12.9-0.355 15.5 4.34 0.248 0.448 0.479 0.816 0.513 0.817 0.0337 9e-4 0.435-1.15 0.893-2.56zm-33.2 1.12c1.79-1.73 3.52-2.91 5.51-3.73 0.724-0.299 0.736-0.288-0.991-0.869-0.782-0.263-2.33-0.795-3.45-1.18-5.07-1.76-4.57-1.64-4.41-1.09 0.135 0.465 1.5 6.16 1.68 7 0.294 1.38 0.0862 1.4 1.66-0.127z" fill="#2573f6"/><path d="m123 188c-0.0323-0.0842-0.0846-0.963-0.116-1.95-0.0316-0.99-0.0816-2.08-0.111-2.42l-0.0537-0.622-2.66-1.56c-1.46-0.858-2.77-1.61-2.91-1.67-0.4-0.174-0.543-0.408-0.476-0.778 0.0324-0.181 0.289-1.59 0.57-3.12 0.281-1.54 0.512-2.93 0.512-3.1 1e-3 -0.297-0.305-1.04-2.43-5.88-0.514-1.17-0.999-2.28-1.08-2.47l-0.141-0.335-0.231 0.124c-0.257 0.138-2.27 1.56-5.56 3.93-2.86 2.06-2.58 2.05-3.38 0.0795-0.29-0.718-0.572-1.31-0.628-1.32-0.176-0.0259-4.42 6.43-4.42 6.73 0 0.261 0.568 1.83 1.96 5.39 3.08 7.89 2.9 7.32 2.3 7.39-0.41 0.05-0.56-0.168-1.42-2.06-2.06-4.53-1.79-4.12-2.31-3.54-3.99 4.51-4.54 5.06-4.84 4.8-0.304-0.252-0.258-0.317 3.05-4.36 0.845-1.03 1.57-1.93 1.61-2 0.0396-0.0665-0.48-1.44-1.16-3.05-0.675-1.61-1.26-3-1.3-3.09-0.0785-0.193-2.58-3.15-4.79-5.65-0.809-0.918-1.56-1.78-1.68-1.92l-0.207-0.249-1.65 0.107c-2.01 0.129-2.35 0.0306-2.35-0.68 0-0.111-0.144-0.346-0.32-0.522l-0.32-0.32-1.36 1.35c-0.749 0.744-2.44 2.49-3.76 3.87l-2.4 2.52-0.618-0.0604-0.815-2.44c-0.448-1.34-1.1-3.29-1.45-4.33l-0.639-1.9-0.843-0.449c-0.464-0.247-1.1-0.64-1.41-0.875l-0.564-0.426-0.235 0.123c-0.307 0.161-3.79 2.22-5.67 3.35-5.38 3.23-9.6 5.58-10.1 5.58-0.241 0-4.88 1.32-5 1.42-0.0438 0.0368 0.287 1.43 0.736 3.09s0.816 3.18 0.816 3.36c0 0.584-1.2 3.43-1.5 3.54-0.374 0.143-0.364-0.142 0.0604-1.74 0.52-1.96 0.591-1.3-0.543-5.05-0.966-3.19-1.07-3.7-0.837-3.88 0.0698-0.0552 1.34-0.5 2.82-0.989 1.48-0.489 2.76-0.963 2.86-1.05 0.177-0.176 1.68-2.31 7.84-11.1 2.86-4.1 3.81-5.53 3.77-5.68-0.0299-0.114-0.108-0.653-0.174-1.2l-0.12-0.99-1.84-1.35c-4.13-3.04-6.29-4.64-7.99-5.9-0.982-0.731-1.92-1.43-2.08-1.55l-0.296-0.218 0.111-0.188c0.252-0.427 0.974-0.498 9.63-0.95 2.18-0.114 4.16-0.24 4.4-0.28l0.446-0.074 1.02-1.81-0.471-1.99c-0.259-1.09-0.772-3.22-1.14-4.73-0.368-1.51-1.03-4.23-1.46-6.05s-0.824-3.36-0.862-3.43c-0.0479-0.0775-1.1-0.112-3.44-0.113-2.5-1e-3 -3.43-0.0345-3.62-0.129l-0.254-0.127-0.987-2.89c-1.05-3.09-1.1-3.28-0.796-3.45 0.592-0.317 0.729-0.0867 1.79 2.99 0.423 1.23 0.838 2.34 0.923 2.47l0.154 0.238 3.42-0.0738c3.88-0.0836 3.81-0.0915 4.08 0.521 0.224 0.522 0.294 0.545 0.512 0.168 2.7-4.68 2.65-4.62 3.02-4.57 0.558 0.0676 0.514 0.202-1.14 3.51l-1.58 3.17 0.396 1.08c0.469 1.28 0.255 1.06 1.48 1.5 0.558 0.2 2.04 0.734 3.3 1.19s3.52 1.26 5.02 1.79l2.74 0.965 0.825-0.0687c0.454-0.0378 0.876-0.1 0.938-0.139 0.0687-0.0425 0.213-1.24 0.368-3.06 0.14-1.64 0.323-3.74 0.406-4.66 0.0831-0.921 0.207-2.42 0.275-3.34 0.17-2.28 0.355-2.43 1.49-1.21 4.1 4.43 6.65 7.04 6.79 6.95 0.0488-0.0301 0.518-0.906 1.04-1.95 0.931-1.85 1.15-2.15 1.47-2.02 0.0869 0.0333 1.09 1.3 2.23 2.83 2.77 3.71 3.71 4.88 3.89 4.88 0.24 0 3.18-4.08 4.13-5.73 0.466-0.809 1.14-1.98 1.5-2.6 0.858-1.48 0.834-1.35 0.395-2.09-0.21-0.354-0.829-1.43-1.38-2.4l-0.995-1.76 0.11-0.242c0.215-0.472 5.9-7.07 6.28-7.28 0.667-0.385 0.529 0.305-0.264 1.32-0.387 0.494-1.11 1.42-1.62 2.06-0.503 0.641-0.874 1.19-0.825 1.22 0.0487 0.0301 1.31-0.0489 2.8-0.176 2.77-0.235 3.11-0.218 2.76 0.136-0.157 0.157-2.91 0.633-5.51 0.951l-1.02 0.124-0.711 0.905c-0.858 1.09-0.923 0.762 0.665 3.39 0.723 1.2 1.31 2.28 1.31 2.4 0 0.125-0.617 1.45-1.37 2.94s-1.37 2.8-1.37 2.92c0 0.206 1.92 2.94 2.31 3.29l0.202 0.182 0.0725-0.182c0.0399-0.1 0.598-1.55 1.24-3.23s1.33-3.46 1.52-3.96c0.886-2.27 1.94-5.13 2.1-5.65 0.293-1.01 0.649-1.04 1.42-0.119 0.271 0.323 1.12 1.27 1.88 2.11 9.18 10 10.8 11.7 11 11.7 0.0744-7e-5 1.01-0.765 2.07-1.7 4.9-4.3 5.95-5.23 6.09-5.46l0.157-0.239-0.119-0.945c-0.0652-0.52-0.149-1.15-0.185-1.4l-0.0667-0.457-2.44-0.487c-1.39-0.278-2.5-0.55-2.58-0.633l-0.148-0.147 0.185-1.09c0.102-0.601 0.311-1.75 0.465-2.56l0.28-1.47 0.227-0.183c0.418-0.338 0.771-0.064 0.669 0.519-0.325 1.86-0.648 4.23-0.585 4.29 0.0432 0.0432 1.06 0.261 2.26 0.485 2.89 0.54 2.69 0.417 2.94 1.75 0.158 0.848 0.166 0.848 0.858-0.0427 0.679-0.874 0.672-0.677 0.107-2.94l-0.458-1.84 0.146-0.222c0.217-0.331 4.43-3.04 4.73-3.04 0.182-2e-3 0.262 0.0583 0.284 0.211l0.0305 0.214-2.04 1.46c-1.17 0.837-2.04 1.52-2.04 1.62 0 0.139 0.61 2.46 0.903 3.43 0.124 0.412 0.0857 0.521-0.447 1.29-0.893 1.29-1.37 2.15-1.37 2.48 0 0.47 2.56 4.67 2.85 4.68 0.0896 2e-3 2.13-1.47 4.53-3.28 5.08-3.82 4.55-3.45 4.86-3.37 0.307 0.0772 0.31 0.177 0.0471 1.81-0.202 1.25-0.611 5.09-0.611 5.73v0.342l0.634-2.5e-4c0.349-1.4e-4 1.24-0.0465 1.98-0.103 1.52-0.116 1.7-0.0737 1.83 0.436 0.0655 0.254 0.146 0.335 0.36 0.36 0.416 0.0488 0.615 0.428 0.544 1.03-0.0697 0.589-0.0346 0.625 0.494 0.507 0.503-0.112 0.515-0.127 2.9-3.47 1.06-1.49 2.2-3.02 2.51-3.4l0.577-0.687h0.3c0.51 0 0.418 0.313-0.458 1.56-0.446 0.635-0.785 1.2-0.752 1.25 0.0344 0.0557 1.2 0.0891 2.81 0.0809 3.43-0.0175 3.21-0.0278 3.21 0.149 0 0.343-0.371 0.408-3.45 0.608-1.31 0.0853-2.62 0.181-2.91 0.213l-0.523 0.0576-1.62 2.46c-2 3.03-3.59 5.54-3.65 5.75-0.0518 0.198 2.26 2.38 8.07 7.61 1.68 1.51 1.9 1.78 1.62 2.01-0.174 0.138-1.82 0.665-5.3 1.7-5.96 1.77-6.74 2.02-6.79 2.13-0.0251 0.0654-0.0757 0.366-0.112 0.668l-0.0668 0.549 3.76 3.75c4.16 4.16 3.83 3.89 4.9 3.9l0.775 7e-3 1.13-1.71c0.619-0.943 1.2-1.74 1.29-1.78 0.236-0.0906 1.55-0.0769 3.7 0.0385 2.37 0.127 2.54 0.155 2.54 0.414 0 0.344-0.424 0.399-3.1 0.399h-2.58l-0.238 0.381c-0.562 0.898-1.2 2.17-1.15 2.3 0.0287 0.0748 0.433 0.238 0.898 0.361 0.806 0.215 2.84 0.787 4.42 1.24 0.403 0.116 0.806 0.293 0.897 0.392l0.164 0.181-0.507 0.332-0.643-0.114c-0.354-0.0625-1.82-0.339-3.26-0.615-1.44-0.276-2.85-0.499-3.15-0.497-1.01 8e-3 -2.77 0.279-3.47 0.537-0.391 0.142-2.26 0.789-4.16 1.44-1.9 0.648-3.48 1.23-3.52 1.29-0.0384 0.0622-0.267 0.939-0.508 1.95-0.327 1.37-0.495 1.89-0.664 2.06l-0.226 0.228h-1.77c-1.1 0-1.8 0.0394-1.84 0.104-0.115 0.186 2.11 6.63 2.93 8.49 0.491 1.11 0.414 1.62-0.21 1.39-0.219-0.0824-1.15-0.58-10.5-5.59-9.93-5.33-9.08-4.94-9.73-4.42-3.06 2.46-8.74 7.54-8.74 7.81 0 0.134-0.258 1.46-0.572 2.96s-0.592 2.83-0.617 2.97l-0.0442 0.254 1.66 1.08c0.911 0.594 2.09 1.35 2.62 1.69 0.53 0.335 1.04 0.683 1.14 0.772l0.178 0.163-1e-3 1.4c-1e-3 1.85-0.173 3.77-0.362 4.06-0.171 0.263-0.4 0.298-0.486 0.0752zm23.4-16c0-0.0717-0.259-0.814-0.575-1.65-0.316-0.835-0.858-2.41-1.2-3.5l-0.63-1.98-0.577-0.0633c-0.639-0.0701-1.07-0.373-1.07-0.747 0-0.125-0.134-0.316-0.317-0.452l-0.317-0.235 0.0683-0.723c0.0981-1.04 0.621-4.37 0.708-4.51 0.138-0.223-0.178-0.12-0.846 0.274-1.09 0.646-1.57 0.641-1.85-0.0211-0.0724-0.177-0.236-0.404-0.363-0.506-0.159-0.126-0.341-0.541-0.58-1.32-0.981-3.2-1.29-4.17-1.33-4.21-0.0698-0.0698-0.189 0.704-0.755 4.91-0.417 3.1 0.0437 2.8-4.49 2.86l-3.52 0.0463-0.262-0.262c-0.144-0.144-0.263-0.371-0.263-0.503 0-0.132-0.119-0.344-0.266-0.471l-0.266-0.231 0.139-1.23-0.184 0.0728c-1.25 0.493-3.56 0.698-4.73 0.421-0.38-0.0895-0.711-0.163-0.736-0.163-0.0245 0-0.0444 0.112-0.0444 0.249 0 0.875-0.109 0.91-4.15 1.34-3.87 0.408-4 0.404-4.13-0.136-0.0365-0.155-0.194-0.42-0.35-0.587l-0.283-0.305-0.32-2.08c-0.176-1.14-0.351-2.11-0.389-2.14-0.038-0.0323-0.914 0.0133-1.95 0.102l-1.88 0.16-0.529 1.57c-0.653 1.94-0.654 1.85 0.0213 2.62 1.02 1.17 1.15 1.02-3.2 3.57-0.698 0.409-1.72 1.01-2.28 1.35-0.556 0.33-1.16 0.625-1.35 0.656l-0.337 0.0546-0.562-0.597c-0.508-0.54-1.28-1.45-2.73-3.23-1.88-2.31-2.42-2.91-2.49-2.78-0.0728 0.136-0.112 0.758-0.305 4.8-0.124 2.6-0.225 2.79-1.45 2.8-0.203 4e-4 -0.274 0.0421-0.237 0.139 0.123 0.321 5.39 6.46 5.54 6.46 0.0754 0 1.36-1.81 4.37-6.18 0.893-1.29 1.13-1.5 1.56-1.4l0.251 0.0631 0.619 1.46c0.34 0.802 0.619 1.5 0.619 1.55 0 0.0532 0.0616 0.181 0.137 0.284l0.137 0.187 1.11-0.798c6-4.32 6.64-4.76 7.03-4.76 0.459 0 0.297-0.324 3.16 6.33 0.515 1.2 0.976 2.22 1.02 2.27 0.0957 0.1 0.282-0.0409 1.59-1.21 1.66-1.48 5.76-5.06 6.89-6.01l1.11-0.939 0.85-3.5e-4 1.86 1c2.47 1.33 5.21 2.84 8.76 4.83 0.726 0.406 2.1 1.17 3.05 1.7 0.949 0.529 2.09 1.17 2.54 1.42 0.906 0.515 0.964 0.536 0.964 0.351zm-64.5-5.58c3.27-3.37 3.89-4.03 3.81-4.03-0.0382 0-0.377 0.154-0.752 0.343-1.91 0.958-5.06 1.41-6.91 0.994-0.708-0.16-0.711-0.338 0.0346 1.92 0.359 1.08 0.748 2.3 0.866 2.71 0.118 0.405 0.251 0.736 0.296 0.736 0.0453 0 1.24-1.2 2.66-2.66zm-19.6-0.967c0.642-0.362 1.51-0.852 1.93-1.09 3.08-1.74 4-2.26 5.43-3.05 0.893-0.491 1.69-0.953 1.77-1.03l0.146-0.134-0.323-0.383c-0.956-1.13-1.96-2.84-2.66-4.52-0.18-0.433-0.362-0.787-0.405-0.787-0.0761 0-1.78 2.43-3.98 5.68-0.586 0.865-1.5 2.21-2.03 2.99-0.529 0.782-1.27 1.87-1.65 2.43-1.06 1.55-1.22 1.56 1.77-0.121zm28.4-2.11c2.38-0.0832 2.19 0.0397 2.27-1.48 0.439-8.21 0.362-7.41 0.727-7.57 0.514-0.234 1.34 0.637 5.43 5.72 0.53 0.66 1.14 1.4 1.36 1.64l0.394 0.439 0.622-0.336c1.09-0.588 4.68-2.72 4.82-2.86l0.143-0.141-0.708-0.742c-0.389-0.408-1.21-1.29-1.81-1.96-0.609-0.67-2.5-2.7-4.21-4.5-3.9-4.14-3.68-3.61-1.9-4.47 11.6-5.58 6.55-19-5.99-16.1-0.608 0.143-1.17 0.32-1.24 0.393l-0.135 0.133 1.84 1.56v0.328c0 0.198-0.114 0.487-0.287 0.729-0.158 0.22-0.713 0.986-1.23 1.7l-0.946 1.3-0.0862 0.984c-0.164 1.87-0.605 7.18-0.751 9.05-0.081 1.03-0.175 2.09-0.209 2.35-0.0778 0.587-0.131 0.542 1.69 1.42 1.66 0.806 1.83 0.923 1.83 1.31 0 0.803-2.17 4.85-3.4 6.34-0.368 0.447-0.732 0.903-0.809 1.02-0.155 0.224-0.43 3.62-0.309 3.81 0.0432 0.07 0.248 0.0916 0.541 0.0572 0.259-0.0304 1.32-0.0849 2.35-0.121zm3.14-19.2c-0.146-0.176-0.117-1.18 0.156-5.37 0.182-2.8 0.162-2.74 0.873-2.89 2.01-0.43 3.62 0.219 4.3 1.73l0.281 0.627-0.0442 0.926c-0.103 2.16-1.64 3.93-4.17 4.82-1.02 0.358-1.21 0.38-1.39 0.16zm2.77-1.97c1.03-0.74 1.71-1.91 1.74-3l0.0154-0.639-0.237-0.253c-0.45-0.48-1.78-0.649-1.94-0.247-0.0798 0.192-0.308 3.36-0.307 4.26 3.66e-4 0.366 0.065 0.354 0.735-0.126zm51.7 20.1c0.389-1.43 0.893-3.89 0.814-3.97-0.0745-0.0745-1.35 0.014-4.53 0.314-0.55 0.0519-1.02 0.113-1.04 0.136-0.085 0.085-0.586 3.92-0.521 3.99 0.0782 0.0782 3.09 0.223 4.29 0.207l0.811-0.0112zm-66.1-0.851c3.64-1.07 6.07-3.51 8.03-8.06 0.546-1.27 0.656-1.09-1.25-2.02l-1.58-0.766-0.498 0.567c-3.54 4.03-9.07 3.54-10.6-0.932-2.22-6.56 4.69-14.9 10-12.1l0.657 0.347 0.187-0.187c0.379-0.379 3.52-4.84 3.52-5.01 0.0046-0.356-1.74-1.59-2.99-2.11-5.02-2.09-12 0.936-15.8 6.84-6.17 9.55-3.36 21.7 5.46 23.6l0.938 0.203 3.05-0.0727zm72.6-3.79c1.85-0.622 3.17-1.12 3.17-1.19 0-0.188-6-6.08-6.09-5.98-0.0432 0.0474-0.177 0.748-0.298 1.56-0.552 3.7-0.181 3.32-3.49 3.56l-1.65 0.122-1.27 0.712c-0.698 0.392-1.46 0.821-1.7 0.954-0.516 0.29-0.547 0.378-0.102 0.298 0.181-0.0329 1.7-0.178 3.37-0.323l3.04-0.264 0.263 0.195c0.145 0.108 0.278 0.294 0.295 0.415 0.0179 0.121 0.166 0.288 0.328 0.372 0.163 0.0841 0.368 0.293 0.456 0.464 0.117 0.226 0.208 0.292 0.332 0.243 0.0939-0.0372 1.6-0.548 3.34-1.14zm-20.2 0.241c0.0291-0.121 0.404-2.66 0.834-5.65 0.779-5.42 0.879-5.89 1.25-5.89 0.316 0 0.405 0.209 1.14 2.66 0.943 3.17 1.55 5.18 1.95 6.53 0.208 0.69 0.393 1.13 0.483 1.14 0.129 0.0248 2.96-1.56 5.19-2.9 0.992-0.597 1.01-0.426-0.342-2.94-0.621-1.15-1.34-2.49-1.59-2.96-0.254-0.475-0.917-1.66-1.47-2.63-0.556-0.969-1.01-1.86-1.01-1.99 0-0.125 0.845-1.44 1.92-2.97 1.05-1.51 2.58-3.7 3.39-4.86 2.8-4.01 3.16-4.54 3.11-4.66-0.039-0.102-3.14-0.363-4.24-0.358l-0.27 1e-3 -1.43 2.13c-1.49 2.22-4.11 6.22-5.05 7.74-0.584 0.934-0.787 1.1-1.04 0.85l-0.156-0.156 0.17-1.29c0.0936-0.712 0.445-3.19 0.782-5.51 0.336-2.32 0.612-4.38 0.613-4.59l1e-3 -0.381-0.685-2.9e-4c-0.701-3e-4 -4.38 0.268-4.97 0.362l-0.326 0.0522-0.0603 0.326c-0.0332 0.179-0.143 1.03-0.243 1.9l-0.183 1.57 0.624 0.66c2.09 2.21 2.11 1.95-0.483 4.85l-1.33 1.48-0.222 1.73c-0.876 6.85-0.888 6.96-0.78 7.19 0.0593 0.127 0.619 0.914 1.24 1.75l1.14 1.52-0.0564 0.308c-0.0646 0.353-1.37 1.65-2.56 2.54l-0.722 0.542-0.0606 0.387c-0.0333 0.213-0.0915 0.694-0.129 1.07l-0.0687 0.683 2.02 0.0275c1.11 0.0151 2.37 0.0126 2.8-6e-3l0.778-0.0331zm-17.9-0.373c3.11-0.3 3.26-0.321 3.32-0.463 0.0275-0.0716-0.368-2-0.879-4.27-0.511-2.28-1.11-4.94-1.32-5.92-0.216-0.977-0.671-3.01-1.01-4.52-1.61-7.09-2.74-12.3-2.74-12.5 0-0.0885-4.31 0.363-5.04 0.528-0.252 0.0568-0.149-0.217-1.82 4.87-0.813 2.47-1.2 3.8-1.27 4.36-0.148 1.22-0.456 2.23-0.969 3.2-0.419 0.789-3.18 8.53-3.18 8.92 0 0.128 1.12 1.4 3.33 3.78 0.848 0.913 0.723 1.01 1.36-1.06 0.38-1.23 0.581-1.73 0.732-1.83 0.341-0.216 6.07-0.659 6.18-0.478 0.0557 0.0901 0.592 3.18 0.78 4.49 0.114 0.796 0.226 1.12 0.388 1.12 0.035-7.2e-4 1-0.0916 2.14-0.202zm-8.05-9.86c-0.277-0.155-0.218-0.406 0.791-3.31 1.14-3.29 1.14-3.28 1.64-2.92 0.144 0.105 1.03 3.62 1.32 5.29 0.0911 0.507-0.137 0.606-1.84 0.805-0.837 0.0974-1.57 0.191-1.63 0.208-0.0592 0.017-0.185-0.0123-0.279-0.0651zm16.9 8.28c1.63-0.337 3.33-1.31 4.61-2.64 0.812-0.846 0.916-0.497-0.904-3.05-1.01-1.42-0.985-1.4-1.38-1.14-2.6 1.71-5.31 1.16-6.49-1.32l-0.315-0.665 0.012-2.64 0.269-0.741c1.24-3.42 4.63-5.08 7.3-3.59l0.473 0.264 0.45-0.503c3.17-3.54 3.47-3.98 3.1-4.47-3.7-4.94-11.5-3.56-15 2.65l-0.341 0.609 0.297 1.37c0.163 0.754 0.591 2.67 0.952 4.26 0.36 1.59 0.792 3.53 0.96 4.31 0.168 0.782 0.507 2.29 0.753 3.35s0.525 2.28 0.62 2.72l0.172 0.788 0.279 0.144c0.829 0.429 2.82 0.576 4.13 0.305zm23.7-2.51c0.056-0.0698 0.311-1.52 0.567-3.22 0.486-3.23 0.963-6.3 1.74-11.2 0.254-1.59 0.574-3.62 0.711-4.52s0.367-2.35 0.51-3.25c0.409-2.55 0.502-3.39 0.388-3.51-0.106-0.106-4.48 0.0553-5.26 0.194l-0.406 0.072-0.0889 0.69c-0.117 0.909-0.162 0.884 1.83 1.05 2.95 0.249 3.05-0.106-1.78 6.62-0.458 0.639-0.851 1.26-0.872 1.37-0.045 0.245-0.955 8.48-1.1 9.92l-0.0963 0.982 0.806 1.45c0.443 0.8 1.04 1.9 1.34 2.44l0.529 0.99h0.539c0.309 0 0.582-0.0541 0.641-0.127zm-66.9-0.627c1.38-0.293 2.83-1.22 3.9-2.48 0.551-0.654 1.06-1 1.28-0.871 0.159 0.0984 0.189-0.147 0.552-4.61 0.39-4.79 0.389-4.68 0.0365-4.43-0.317 0.222-0.785 0.203-1.15-0.0462-1.45-0.987-2.76-1.04-4.52-0.184l-0.863 0.421-0.914 0.925c-2.74 2.78-3.56 7.51-1.75 10.2 0.747 1.12 1.75 1.43 3.43 1.08zm19.1-3.89c0.312-0.935 0.567-1.73 0.567-1.77 0-0.0407-0.562 0.302-1.25 0.761-0.687 0.459-1.34 0.888-1.45 0.953l-0.198 0.117 0.81 0.821c0.445 0.452 0.841 0.821 0.88 0.821 0.0385 0 0.325-0.765 0.637-1.7zm25.1-0.208c0.344-0.162 0.823-0.461 1.07-0.665 0.457-0.384 0.858-0.471 1.24-0.267l0.194 0.104 0.0521-0.231c0.11-0.485 0.641-5 0.596-5.08-0.0256-0.0419-0.127-0.0761-0.225-0.0761-0.0983 0-0.416-0.177-0.706-0.393-3.08-2.3-7.35 3.01-5.09 6.32 0.519 0.761 1.62 0.87 2.87 0.283zm-59.1-1.32c0.0048-1.03 0.564-3.56 1.17-5.3 0.204-0.586 0.396-1.15 0.426-1.25l0.0556-0.185-0.953 0.0563c-0.524 0.031-1.55 0.0809-2.27 0.111-3.18 0.132-7.22 0.373-7.4 0.441-0.191 0.0748 0.452 0.576 6.08 4.74 2.98 2.21 2.89 2.16 2.89 1.39zm77.1-1.47c0.0279-0.126 0.0971-0.662 0.154-1.19 0.152-1.42 0.295-2.63 0.367-3.12 0.0353-0.237 0.0389-0.431 8e-3 -0.431-0.0515 0-1.45 2.01-1.79 2.57l-0.144 0.239 0.363 0.6c0.199 0.33 0.467 0.816 0.595 1.08 0.258 0.534 0.366 0.596 0.442 0.254zm10.1-1.33c0.865-0.247 2.62-0.731 3.91-1.08 3.38-0.906 3.42-0.917 3.38-1.01-0.0177-0.0489-0.332-0.355-0.699-0.68-0.367-0.325-2.05-1.85-3.74-3.38s-3.13-2.8-3.2-2.82c-0.103-0.0245-1.35 7.29-1.56 9.15l-0.0443 0.391 0.189-0.0587c0.104-0.0323 0.897-0.261 1.76-0.509zm-36.8-8.46c2.72-4.02 8.61-5.88 12.7-3.99l0.83 0.388 0.0537-0.371c0.0296-0.204 0.132-0.96 0.228-1.68 0.135-1.02 0.221-1.36 0.385-1.55l0.211-0.238 1.37-0.147c5.28-0.565 6.27-0.563 6.44 0.0105 0.0693 0.234 0.17 0.335 0.376 0.376 0.179 0.0358 0.34 0.17 0.443 0.368l0.161 0.312-0.259 1.85c-0.142 1.02-0.307 2.21-0.366 2.66-0.0589 0.447-0.123 0.892-0.143 0.99-0.0938 0.47 0.201 0.149 1.12-1.22 3.23-4.81 2.93-4.49 4.05-4.49h0.841l0.0541-0.228c0.0297-0.126 0.0861-0.541 0.125-0.923 0.0981-0.956 0.294-1.17 1.16-1.26l0.66-0.0719 0.126-1.07c0.0692-0.586 0.223-1.76 0.341-2.62 0.119-0.854 0.19-1.58 0.158-1.61-0.0603-0.0603-0.307 0.121-1.89 1.39-0.958 0.768-3.52 2.75-4.97 3.86-1.29 0.981-1.48 0.956-2.26-0.286-1.13-1.81-2.54-4.04-2.62-4.12-0.043-0.0474-0.347 0.158-0.676 0.457-0.79 0.718-6.63 5.9-7.26 6.46l-0.499 0.431h-0.848l-1.68-1.7c-1.63-1.65-3.77-3.91-8.71-9.24-1.31-1.41-2.41-2.56-2.45-2.56-0.0686 0-0.363 0.713-0.545 1.32-0.128 0.426-1.6 4.54-2.85 7.97-1.31 3.6-1.3 3.56-1.01 3.53 0.112-0.0126 1.04-0.119 2.06-0.236l1.86-0.213 0.252 0.165c0.139 0.0908 0.295 0.277 0.347 0.414 0.0648 0.17 0.173 0.248 0.343 0.248 0.386 0 0.622 0.406 0.811 1.39 0.094 0.491 0.326 1.6 0.516 2.47s0.42 1.93 0.511 2.36c0.19 0.901 0.214 0.919 0.558 0.41zm-11.1-3c1.14-3.51 1.1-3.4 1.45-3.59 0.363-0.188 0.35-0.234-0.309-1.07-0.281-0.356-0.892-1.15-1.36-1.76-0.466-0.614-0.889-1.12-0.941-1.12-0.0875 0-0.688 0.843-2.51 3.52-1.38 2.03-1.24 2.13-5.44-3.6-1.14-1.55-2.1-2.82-2.13-2.82-0.0364 0-0.431 0.735-0.876 1.63-0.833 1.68-0.942 1.82-1.45 1.82h-0.295l-2.93-3.02c-1.61-1.66-3.1-3.2-3.31-3.42-0.499-0.52-0.474-0.584-0.59 1.52-0.267 4.86-0.416 7.33-0.463 7.66-0.072 0.498-0.0188 0.536 1.1 0.786 0.549 0.122 1.4 0.398 1.88 0.613l0.884 0.39 0.352-0.146c5.71-2.37 12.9-0.355 15.5 4.34 0.248 0.448 0.479 0.816 0.513 0.817 0.0337 9e-4 0.435-1.15 0.893-2.56zm-33.2 1.12c1.79-1.73 3.52-2.91 5.51-3.73 0.724-0.299 0.736-0.288-0.991-0.869-0.782-0.263-2.33-0.795-3.45-1.18-5.07-1.76-4.57-1.64-4.41-1.09 0.135 0.465 1.5 6.16 1.68 7 0.294 1.38 0.0862 1.4 1.66-0.127z" fill="#897702"/><path d="m123 188c-0.0253-0.0698-0.0831-1.19-0.129-2.49-0.0648-1.85-0.114-2.39-0.23-2.5-0.208-0.197-5.28-3.16-5.55-3.25-0.464-0.147-0.459-0.287 0.128-3.5 0.73-4 0.876-3.1-1.3-8.02-0.308-0.698-0.82-1.86-1.14-2.59-0.317-0.726-0.637-1.38-0.711-1.46l-0.133-0.139-0.492 0.337c-0.582 0.398-5.76 4.09-6.79 4.85-0.919 0.67-1.12 0.673-1.31 0.017-0.214-0.721-1-2.44-1.12-2.44-0.21 0-4.51 6.56-4.51 6.88 0 0.324 0.714 2.26 2.74 7.43 1.98 5.04 2.03 5.21 1.61 5.26-0.38 0.0442-0.422-0.0279-1.82-3.11-0.811-1.79-1.33-2.82-1.44-2.84-0.104-0.02-0.995 0.895-2.47 2.54-2.42 2.69-2.5 2.77-2.74 2.68-0.317-0.122 0.308-0.995 3.25-4.53 1.46-1.75 1.5-1.81 1.42-2.05-0.039-0.123-0.538-1.32-1.11-2.66-0.571-1.34-1.12-2.65-1.21-2.91-0.195-0.522-2.81-3.65-6.42-7.69l-0.49-0.547-1.66 0.11c-1.98 0.132-2.23 0.063-2.24-0.612-9.74e-4 -0.173-0.0791-0.317-0.209-0.387-0.114-0.0612-0.251-0.224-0.304-0.363-0.132-0.346-0.251-0.266-1.47 0.991-0.559 0.577-2.22 2.29-3.69 3.81-1.87 1.93-2.74 2.77-2.89 2.77l-0.218-9e-5 -1.35-4.03c-1.71-5.1-1.47-4.6-2.36-5.06-0.404-0.212-1.04-0.605-1.4-0.873-0.368-0.268-0.704-0.487-0.748-0.487-0.0438 0-1.67 0.944-3.61 2.1-8.5 5.06-11.5 6.75-12.2 6.88-0.72 0.134-5.03 1.41-5.16 1.53l-0.136 0.122 0.822 3.03c0.452 1.67 0.822 3.18 0.822 3.37-4.52e-4 0.308-0.678 2.1-1.13 2.99-0.174 0.343-0.579 0.561-0.471 0.254 0.0245-0.0698 0.222-0.818 0.438-1.66l0.394-1.54-0.952-3.13c-1.03-3.39-1.12-3.79-0.89-3.98 0.0809-0.0671 1.37-0.532 2.87-1.03 1.5-0.502 2.75-0.946 2.79-0.989 0.0645-0.0729 4.51-6.42 6.95-9.92 0.622-0.893 1.58-2.26 2.13-3.05 0.549-0.782 1.36-1.94 1.8-2.57l0.806-1.15-0.109-0.575c-0.06-0.316-0.139-0.858-0.176-1.2-0.081-0.758 0.314-0.399-3.65-3.32-5.89-4.35-8.58-6.36-8.58-6.45 0-0.36 1.21-0.474 9.69-0.918 2.29-0.12 4.3-0.238 4.47-0.264l0.313-0.046 1.08-1.95-0.124-0.572c-0.181-0.839-0.886-3.78-2.04-8.49-0.559-2.29-1.19-4.87-1.4-5.73l-0.379-1.57-3.57-0.0508c-2.23-0.0317-3.61-0.0898-3.68-0.154-0.13-0.13-2.04-5.77-2.04-6.03 0-0.296 0.444-0.327 0.791-0.0559 0.0164 0.0129 0.326 0.885 0.689 1.94 0.797 2.32 1.16 3.29 1.3 3.48l0.105 0.139 7.07-0.149 0.193 0.174c0.106 0.0959 0.221 0.303 0.256 0.461 0.186 0.848 0.263 0.763 1.95-2.16 1.22-2.11 1.36-2.31 1.64-2.31 0.424 0 0.288 0.371-1.26 3.45l-1.57 3.13 0.369 1.05c0.455 1.29 0.369 1.21 1.71 1.69 0.614 0.219 2.67 0.957 4.57 1.64 1.9 0.683 4.11 1.47 4.92 1.75l1.47 0.505 0.835-0.0696c1.21-0.101 1.12 0.0769 1.35-2.74 0.109-1.34 0.264-3.14 0.345-4.01 0.0807-0.865 0.223-2.58 0.316-3.81 0.247-3.26 0.147-3.23 2.39-0.795 2.07 2.24 5.44 5.74 5.64 5.86 0.235 0.134 0.349-0.0357 1.35-2.02 0.929-1.83 1.09-2.06 1.35-1.91 0.0759 0.0446 1.1 1.36 2.27 2.93 2.74 3.66 3.75 4.92 3.91 4.86 0.12-0.0487 1.04-1.27 2.66-3.53 0.408-0.568 1.23-1.88 1.83-2.91 0.597-1.03 1.29-2.23 1.54-2.66l0.452-0.78-0.149-0.286c-0.0819-0.157-0.675-1.21-1.32-2.34-0.643-1.13-1.2-2.14-1.23-2.25-0.0982-0.31 6-7.52 6.36-7.52 0.448 0 0.307 0.227-1.72 2.77-1.45 1.82-1.55 2.06-0.86 1.96 0.209-0.032 1.29-0.128 2.41-0.214 1.12-0.0858 2.2-0.182 2.41-0.213 0.443-0.0669 0.526 0.113 0.123 0.266-0.231 0.0879-4.19 0.69-5.65 0.858l-0.578 0.0669-0.695 0.882c-0.382 0.485-0.732 0.942-0.777 1.02-0.0515 0.0841 0.0477 0.348 0.267 0.711 0.192 0.317 0.813 1.34 1.38 2.27 1.05 1.73 1.18 2.07 0.892 2.47-0.338 0.483-2.6 5.11-2.6 5.32 0 0.207 1.49 2.39 2.23 3.27l0.292 0.345 0.148-0.152c0.0814-0.0837 0.248-0.426 0.371-0.761 0.123-0.335 1.15-3.03 2.29-5.99 1.13-2.96 2.16-5.71 2.28-6.11 0.279-0.946 0.493-1.05 1.02-0.472 0.199 0.218 0.978 1.08 1.73 1.91 6.51 7.2 11.2 12.2 11.5 12.2 0.204 0 0.505-0.253 4.93-4.15 1.79-1.57 3.31-2.98 3.38-3.12l0.136-0.26-0.168-1.34c-0.211-1.67-8e-3 -1.52-2.74-2.05-1.38-0.266-2.38-0.505-2.47-0.595l-0.15-0.15 0.444-2.47c0.323-1.8 0.493-2.52 0.625-2.65l0.181-0.181 0.425 0.227-0.0648 0.371c-0.0357 0.204-0.178 1.1-0.316 1.99s-0.274 1.76-0.3 1.93c-0.0785 0.49-5e-3 0.52 2.33 0.959 1.23 0.23 2.31 0.442 2.4 0.471 0.192 0.0577 0.319 0.4 0.496 1.34 0.159 0.837 0.299 0.82 1.03-0.13 0.707-0.915 0.704-0.823 0.129-3.09l-0.449-1.78 0.122-0.177c0.144-0.209 4.43-3.02 4.61-3.02 0.599-3e-3 0.304 0.286-1.92 1.88l-1.85 1.33 0.01 0.348c5e-3 0.191 0.199 1.04 0.431 1.89 0.513 1.88 0.513 1.88 0.0451 2.57-1.91 2.83-1.96 2.29 0.621 6.32l0.764 1.19 0.181-0.0689c0.0995-0.0379 2.12-1.53 4.49-3.31 5.54-4.16 5.12-4 4.79-1.83-0.235 1.54-0.485 3.8-0.589 5.34l-0.0672 0.99 0.751-3e-3c0.413-2e-3 1.32-0.0448 2.02-0.0958l1.27-0.0927 0.228 0.149c0.134 0.0872 0.228 0.252 0.228 0.396v0.248l0.405 0.109c0.463 0.125 0.54 0.295 0.49 1.07l-0.0322 0.499 0.355-0.0266c0.782-0.0585 0.809-0.0894 3.47-3.85 2.05-2.91 2.77-3.78 3.12-3.78 0.361 0 0.249 0.278-0.604 1.5-0.45 0.643-0.794 1.23-0.764 1.31l0.053 0.138h3c2.72 0 3.33 0.0526 2.84 0.243-0.19 0.0728-1.77 0.216-4.53 0.409-1.1 0.0772-2.05 0.173-2.12 0.213-0.164 0.101-3.68 5.46-5.01 7.63-0.502 0.82-0.564 0.708 1.36 2.48 2.1 1.94 7 6.39 7.65 6.96 0.56 0.489 0.562 0.667 0.0104 0.897-0.292 0.122-8.86 2.72-11 3.34-0.667 0.192-0.738 0.285-0.84 1.1l-0.0738 0.592 3.03 3.05c1.67 1.68 3.43 3.41 3.92 3.85l0.892 0.806 1.77-0.0586 1.03-1.57c0.568-0.865 1.11-1.66 1.21-1.77l0.175-0.192 2.04 0.0721c2.33 0.0822 3.89 0.199 3.99 0.298 0.252 0.252-0.291 0.32-2.94 0.369l-2.76 0.0507-0.686 1.27c-0.861 1.59-0.86 1.61 0.178 1.89 5.14 1.42 5.43 1.51 5.43 1.72 0 0.27-0.468 0.224-3.35-0.33-3.77-0.724-3.53-0.698-5.11-0.556l-1.42 0.127-1.43 0.492c-0.788 0.271-2.71 0.928-4.27 1.46-1.56 0.533-2.89 1.03-2.96 1.1-0.0678 0.0723-0.322 0.976-0.565 2.01-0.277 1.18-0.508 1.94-0.621 2.06l-0.179 0.179h-3.66l-0.0571 0.149c-0.0978 0.255 2.07 6.58 2.91 8.48 0.841 1.91 1.2 2.04-8.23-3-9.83-5.26-11.3-6.03-11.5-6.03-0.16 0-2.38 1.82-4.63 3.8-0.639 0.561-1.94 1.7-2.89 2.53-1.94 1.69-1.83 1.57-1.92 2.19-0.0353 0.251-0.322 1.68-0.637 3.18l-0.573 2.72 0.141 0.14c0.0777 0.077 1.24 0.846 2.58 1.71s2.54 1.64 2.66 1.74l0.228 0.166-1e-3 1.34c-2e-3 2.8-0.35 4.96-0.66 4.11zm23.5-15.8c-0.0168-0.0804-0.354-1.04-0.749-2.13-0.395-1.09-0.94-2.68-1.21-3.54-0.579-1.84-0.582-1.84-1.2-1.84-0.561 0-0.924-0.22-0.924-0.56 0-0.242-0.0705-0.335-0.448-0.596-0.134-0.0928-0.191-0.243-0.181-0.486 0.0306-0.815 0.645-4.61 0.78-4.81 0.193-0.295 0.619-0.353 5.6-0.761l1.54-0.126 0.159 0.132c0.0874 0.0725 0.195 0.273 0.24 0.446 0.0557 0.215 0.16 0.332 0.329 0.372 0.158 0.0371 0.314 0.198 0.431 0.444 0.138 0.291 0.225 0.369 0.355 0.318 0.0949-0.0369 1.66-0.568 3.47-1.18 1.81-0.612 3.34-1.16 3.4-1.22 0.121-0.121-6.12-6.39-6.36-6.39-0.148 0-0.36 1.08-0.699 3.55-0.207 1.51-0.0779 1.44-2.95 1.68l-1.9 0.16-1.05 0.591c-4.88 2.76-4.79 2.72-5.17 2.37-0.102-0.0924-0.185-0.241-0.185-0.33 5e-4 -0.089-0.133-0.276-0.297-0.416l-0.298-0.254-0.833-2.79c-0.801-2.69-0.935-3.05-1.07-2.92-0.0668 0.0669-0.429 2.48-0.813 5.41-0.388 2.96 0.0544 2.69-4.37 2.69-3.67 0-3.79-0.0173-3.79-0.507 0-0.191-0.0962-0.386-0.269-0.546l-0.269-0.249 0.0573-0.555c0.0784-0.759 0.0114-0.793-0.97-0.497-1.08 0.325-3.11 0.419-4.18 0.192-0.842-0.177-0.863-0.169-0.863 0.326 0 0.67-0.125 0.716-2.61 0.98-1.22 0.129-2.63 0.283-3.14 0.343-1.78 0.206-2.1 0.155-2.22-0.35-0.0399-0.167-0.183-0.395-0.318-0.506l-0.245-0.203-0.302-1.98c-0.347-2.28-0.396-2.44-0.75-2.44-0.814 0-3.68 0.329-3.78 0.435-0.126 0.128-1.15 3.24-1.15 3.5 0 0.0796 0.251 0.408 0.558 0.73 0.926 0.971 0.869 1.11-0.914 2.16-4.93 2.9-5.52 3.23-5.8 3.23h-0.3l-0.729-0.837c-0.401-0.461-1.53-1.82-2.52-3.02-2.06-2.52-2.49-2.98-2.61-2.85-0.0488 0.0488-0.159 1.64-0.244 3.53-0.189 4.18-0.195 4.2-1.24 4.2-0.21 0-0.462 0.0584-0.559 0.13l-0.178 0.13 1.59 1.87c3.48 4.11 4.15 4.87 4.3 4.87 0.14-2e-3 1.26-1.57 4.62-6.47 1.12-1.63 1.23-1.6 2.15 0.581 0.362 0.863 0.706 1.63 0.765 1.7 0.141 0.17 0.181 0.147 1.98-1.16 3.76-2.72 6.06-4.29 6.27-4.29 0.356 0 0.123-0.462 2.35 4.67 0.644 1.48 1.29 2.99 1.45 3.35 0.365 0.874 0.387 0.87 1.69-0.277 8.2-7.21 8.35-7.34 8.75-7.34 0.332 0 3.79 1.87 13.1 7.06 4.73 2.64 4.83 2.69 4.74 2.28zm-64.1-6.16c4.2-4.3 4.21-4.31 2.77-3.58-2.27 1.14-4.91 1.57-7.16 1.17-1.07-0.191-1.06-0.245-0.373 1.84 0.331 0.999 0.747 2.28 0.923 2.86 0.201 0.653 0.372 1.04 0.459 1.04 0.076 0 1.6-1.5 3.39-3.32zm-22.5 0.904c0.888-0.498 2.03-1.14 6.19-3.48 2.23-1.26 4.37-2.46 4.75-2.67 0.814-0.45 0.816-0.461 0.219-1.17-0.946-1.13-1.9-2.8-2.53-4.39-0.408-1.04-0.501-1.13-0.779-0.748-0.437 0.602-2.01 2.9-4.7 6.86-1.61 2.37-3.12 4.59-3.37 4.94-0.673 0.948-0.614 1.13 0.218 0.663zm30.6-3.53c2.38-0.0832 2.19 0.0397 2.27-1.48 0.439-8.21 0.362-7.41 0.727-7.57 0.514-0.234 1.34 0.637 5.43 5.72 0.53 0.66 1.14 1.4 1.36 1.64l0.394 0.439 0.622-0.336c1.09-0.588 4.68-2.72 4.82-2.86l0.143-0.141-0.708-0.742c-0.389-0.408-1.21-1.29-1.81-1.96-0.609-0.67-2.5-2.7-4.21-4.5-3.9-4.14-3.68-3.61-1.9-4.47 11.6-5.58 6.55-19-5.99-16.1-0.608 0.143-1.17 0.32-1.24 0.393l-0.135 0.133 1.84 1.56v0.328c0 0.198-0.114 0.487-0.287 0.729-0.158 0.22-0.713 0.986-1.23 1.7l-0.946 1.3-0.0862 0.984c-0.164 1.87-0.605 7.18-0.751 9.05-0.081 1.03-0.175 2.09-0.209 2.35-0.0778 0.587-0.131 0.542 1.69 1.42 1.66 0.806 1.83 0.923 1.83 1.31 0 0.803-2.17 4.85-3.4 6.34-0.368 0.447-0.732 0.903-0.809 1.02-0.155 0.224-0.43 3.62-0.309 3.81 0.0432 0.07 0.248 0.0916 0.541 0.0572 0.259-0.0304 1.32-0.0849 2.35-0.121zm3.14-19.2c-0.146-0.176-0.117-1.18 0.156-5.37 0.182-2.8 0.162-2.74 0.873-2.89 2.01-0.43 3.62 0.219 4.3 1.73l0.281 0.627-0.0442 0.926c-0.103 2.16-1.64 3.93-4.17 4.82-1.02 0.358-1.21 0.38-1.39 0.16zm2.74-1.76c1.16-0.806 1.93-2.1 1.93-3.26v-0.597l-0.257-0.306c-0.37-0.44-1.47-0.734-1.99-0.534l-0.263 0.1-0.0655 0.793c-0.13 1.57-0.249 4.03-0.199 4.11 0.0936 0.151 0.288 0.0808 0.851-0.309zm51.7 19.9c0.389-1.43 0.893-3.89 0.814-3.97-0.0745-0.0745-1.35 0.014-4.53 0.314-0.55 0.0519-1.02 0.113-1.04 0.136-0.085 0.085-0.586 3.92-0.521 3.99 0.0782 0.0782 3.09 0.223 4.29 0.207l0.811-0.0112zm-66.1-0.851c3.64-1.07 6.07-3.51 8.03-8.06 0.546-1.27 0.656-1.09-1.25-2.02l-1.58-0.766-0.498 0.567c-3.54 4.03-9.07 3.54-10.6-0.932-2.22-6.56 4.69-14.9 10-12.1l0.657 0.347 0.187-0.187c0.379-0.379 3.52-4.84 3.52-5.01 0.0046-0.356-1.74-1.59-2.99-2.11-5.02-2.09-12 0.936-15.8 6.84-6.17 9.55-3.36 21.7 5.46 23.6l0.938 0.203 3.05-0.0727zm52.4-3.55c0.0291-0.121 0.404-2.66 0.834-5.65 0.779-5.42 0.879-5.89 1.25-5.89 0.316 0 0.405 0.209 1.14 2.66 0.943 3.17 1.55 5.18 1.95 6.53 0.208 0.69 0.393 1.13 0.483 1.14 0.129 0.0248 2.96-1.56 5.19-2.9 0.992-0.597 1.01-0.426-0.342-2.94-0.621-1.15-1.34-2.49-1.59-2.96-0.254-0.475-0.917-1.66-1.47-2.63-0.556-0.969-1.01-1.86-1.01-1.99 0-0.125 0.845-1.44 1.92-2.97 1.05-1.51 2.58-3.7 3.39-4.86 2.8-4.01 3.16-4.54 3.11-4.66-0.039-0.102-3.14-0.363-4.24-0.358l-0.27 1e-3 -1.43 2.13c-1.49 2.22-4.11 6.22-5.05 7.74-0.584 0.934-0.787 1.1-1.04 0.85l-0.156-0.156 0.17-1.29c0.0936-0.712 0.445-3.19 0.782-5.51 0.336-2.32 0.612-4.38 0.613-4.59l1e-3 -0.381-0.685-2.9e-4c-0.701-3e-4 -4.38 0.268-4.97 0.362l-0.326 0.0522-0.0603 0.326c-0.0332 0.179-0.143 1.03-0.243 1.9l-0.183 1.57 0.624 0.66c2.09 2.21 2.11 1.95-0.483 4.85l-1.33 1.48-0.222 1.73c-0.876 6.85-0.888 6.96-0.78 7.19 0.0593 0.127 0.619 0.914 1.24 1.75l1.14 1.52-0.0564 0.308c-0.0646 0.353-1.37 1.65-2.56 2.54l-0.722 0.542-0.0606 0.387c-0.0333 0.213-0.0915 0.694-0.129 1.07l-0.0687 0.683 2.02 0.0275c1.11 0.0151 2.37 0.0126 2.8-6e-3l0.778-0.0331zm-17.9-0.373c3.11-0.3 3.26-0.321 3.32-0.463 0.0275-0.0716-0.368-2-0.879-4.27-0.511-2.28-1.11-4.94-1.32-5.92-0.216-0.977-0.671-3.01-1.01-4.52-1.61-7.09-2.74-12.3-2.74-12.5 0-0.0885-4.31 0.363-5.04 0.528-0.252 0.0568-0.149-0.217-1.82 4.87-0.813 2.47-1.2 3.8-1.27 4.36-0.148 1.22-0.456 2.23-0.969 3.2-0.419 0.789-3.18 8.53-3.18 8.92 0 0.128 1.12 1.4 3.33 3.78 0.848 0.913 0.723 1.01 1.36-1.06 0.38-1.23 0.581-1.73 0.732-1.83 0.341-0.216 6.07-0.659 6.18-0.478 0.0557 0.0901 0.592 3.18 0.78 4.49 0.114 0.796 0.226 1.12 0.388 1.12 0.035-7.2e-4 1-0.0916 2.14-0.202zm-8.05-9.86c-0.277-0.155-0.218-0.406 0.791-3.31 1.14-3.29 1.14-3.28 1.64-2.92 0.144 0.105 1.03 3.62 1.32 5.29 0.0911 0.507-0.137 0.606-1.84 0.805-0.837 0.0974-1.57 0.191-1.63 0.208-0.0592 0.017-0.185-0.0123-0.279-0.0651zm2.65-1.13c0.128-0.154 0.0142-0.697-0.158-0.754-0.132-0.0439-0.378 0.633-0.284 0.783 0.089 0.144 0.31 0.129 0.442-0.0294zm14.3 9.42c1.63-0.337 3.33-1.31 4.61-2.64 0.812-0.846 0.916-0.497-0.904-3.05-1.01-1.42-0.985-1.4-1.38-1.14-2.6 1.71-5.31 1.16-6.49-1.32l-0.315-0.665 0.012-2.64 0.269-0.741c1.24-3.42 4.63-5.08 7.3-3.59l0.473 0.264 0.45-0.503c3.17-3.54 3.47-3.98 3.1-4.47-3.7-4.94-11.5-3.56-15 2.65l-0.341 0.609 0.297 1.37c0.163 0.754 0.591 2.67 0.952 4.26 0.36 1.59 0.792 3.53 0.96 4.31 0.168 0.782 0.507 2.29 0.753 3.35s0.525 2.28 0.62 2.72l0.172 0.788 0.279 0.144c0.829 0.429 2.82 0.576 4.13 0.305zm23.7-2.51c0.056-0.0698 0.311-1.52 0.567-3.22 0.486-3.23 0.963-6.3 1.74-11.2 0.254-1.59 0.574-3.62 0.711-4.52s0.367-2.35 0.51-3.25c0.409-2.55 0.502-3.39 0.388-3.51-0.106-0.106-4.48 0.0553-5.26 0.194l-0.406 0.072-0.0889 0.69c-0.117 0.909-0.162 0.884 1.83 1.05 2.95 0.249 3.05-0.106-1.78 6.62-0.458 0.639-0.851 1.26-0.872 1.37-0.045 0.245-0.955 8.48-1.1 9.92l-0.0963 0.982 0.806 1.45c0.443 0.8 1.04 1.9 1.34 2.44l0.529 0.99h0.539c0.309 0 0.582-0.0541 0.641-0.127zm-66.5-0.539c1.22-0.296 2.32-1.02 3.63-2.39l0.864-0.903h0.327c0.393 0 0.378 0.0514 0.526-1.88 0.0598-0.782 0.224-2.83 0.365-4.55 0.279-3.41 0.277-3.44-0.17-3.07-0.395 0.332-0.843 0.33-1.34-5e-3 -1.06-0.722-2.4-0.873-3.73-0.42-4.61 1.57-7.01 8.93-4.09 12.5 0.705 0.869 1.9 1.09 3.61 0.679zm19-3.95c0.788-2.39 0.802-2.36-0.569-1.41-0.614 0.423-1.33 0.88-1.6 1.02-0.265 0.136-0.482 0.302-0.482 0.37 0 0.186 1.76 1.91 1.91 1.88 0.0784-0.016 0.391-0.802 0.738-1.85zm24.7 0.0284c0.295-0.109 0.729-0.352 0.964-0.541 0.235-0.189 0.562-0.419 0.727-0.512l0.299-0.168 0.339 0.182c0.21 0.113 0.375 0.146 0.434 0.0875 0.0963-0.0963 0.712-4.65 0.712-5.27v-0.336l-0.292-0.0641c-0.161-0.0353-0.446-0.179-0.634-0.32-3.14-2.35-7.49 2.43-5.6 6.14 0.562 1.1 1.54 1.36 3.05 0.8zm-58.8-1.07c0.0034-1.43 0.81-4.83 1.64-6.9 0.231-0.579 0.812-0.564-6.76-0.181-3.09 0.156-4.2 0.24-4.34 0.327-0.15 0.0891 0.171 0.357 2.57 2.15 7.23 5.39 6.9 5.18 6.9 4.61zm77.3-2.87c0.0943-0.753 0.219-1.78 0.277-2.28 0.0581-0.502 0.136-1.13 0.172-1.4 0.0928-0.673-0.119-0.639-0.629 0.102-0.221 0.321-0.69 1-1.04 1.52l-0.639 0.933 0.691 1.28c0.893 1.65 0.945 1.64 1.17-0.151zm9.37-0.14c0.67-0.194 2.43-0.681 3.91-1.08 4.76-1.29 4.42-1.07 3.32-2.04-0.405-0.357-1.76-1.59-3.02-2.73-3.7-3.38-4.02-3.65-4.19-3.65-0.191 0-0.157-0.162-0.733 3.55-0.255 1.65-0.579 3.7-0.719 4.56-0.266 1.63-0.261 1.89 0.0342 1.8 0.098-0.0292 0.726-0.212 1.4-0.407zm-36.3-8.67c3.04-4.14 8.61-5.86 12.6-3.88 0.982 0.494 0.929 0.562 1.2-1.53l0.215-1.67 0.193-0.16c0.196-0.162 1.7-0.334 5.61-0.644 1.88-0.149 2-0.136 2.08 0.232 0.0894 0.375 0.199 0.487 0.543 0.556 0.514 0.103 0.518-4e-3 -0.2 5.14-0.311 2.23-0.516 2.41 2.83-2.54 0.622-0.921 1.24-1.8 1.38-1.96l0.244-0.28 1.74 0.134 0.0463-0.142c0.0255-0.0779 0.101-0.547 0.167-1.04 0.15-1.12 0.283-1.28 1.04-1.28 0.775-2e-3 0.784-0.0162 0.945-1.43 0.0791-0.692 0.242-1.96 0.362-2.81 0.286-2.03 0.42-2-1.66-0.35-1.73 1.38-3.89 3.06-5.34 4.16-1.24 0.937-1.35 0.91-2.27-0.594-1.38-2.25-2.41-3.8-2.55-3.83-0.146-0.0285-3.4 2.79-7.25 6.28-1.06 0.961-1.41 1.17-1.78 1.08-0.306-0.0767-2.24-2.06-6.97-7.12-1.98-2.12-4.16-4.46-4.86-5.21l-1.27-1.35-0.121 0.134c-0.0663 0.0736-0.524 1.3-1.02 2.72s-1.53 4.32-2.3 6.44c-0.895 2.46-1.37 3.89-1.31 3.95 0.0621 0.0621 0.805 0.0131 2.05-0.135 2.31-0.275 2.42-0.268 2.6 0.162 0.106 0.24 0.227 0.337 0.481 0.385 0.454 0.0852 0.517 0.231 0.9 2.08 0.18 0.868 0.473 2.29 0.652 3.15s0.344 1.63 0.366 1.7c0.0812 0.252 0.341 0.117 0.69-0.358zm-11-3.26c0.938-2.84 1.17-3.36 1.48-3.36 0.277 0 0.26-0.316-0.0385-0.69-0.164-0.207-0.818-1.06-1.45-1.9-1.07-1.42-1.29-1.67-1.42-1.67-0.0291-8.5e-4 -0.782 1.05-1.67 2.35-0.891 1.29-1.72 2.39-1.84 2.45-0.571 0.26-0.759 0.0497-4.28-4.77-1.31-1.79-2.16-2.86-2.25-2.85-0.0854 0.0132-0.5 0.726-0.945 1.62-0.836 1.69-1.08 1.98-1.5 1.81-0.209-0.0804-3-2.9-5.94-5.99l-0.894-0.942-0.119 0.163c-0.0682 0.0933-0.149 0.76-0.188 1.56-0.0379 0.766-0.157 2.88-0.266 4.69-0.108 1.81-0.197 3.47-0.197 3.68-1.98e-4 0.449 0.0129 0.456 1.4 0.772 0.518 0.118 1.31 0.381 1.75 0.584l0.808 0.369 0.818-0.27c2.24-0.741 5.22-1.07 7.08-0.782 3.38 0.524 6.74 2.82 8.11 5.52 0.194 0.384 0.403 0.675 0.471 0.654 0.0672-0.0209 0.563-1.37 1.1-3.01zm-33.4 1.53c1.84-1.82 3.95-3.22 6-4.01 0.779-0.296 0.992-0.194-3.83-1.84-1.54-0.526-3.42-1.17-4.19-1.44-1.64-0.573-1.67-0.565-1.4 0.42 0.25 0.921 1.62 6.64 1.79 7.46 0.0687 0.337 0.222 0.71 0.29 0.71 0.0174 0 0.621-0.582 1.34-1.29zm81.7-3.89c0.113-0.219 0.131-0.349 0.0577-0.422-0.164-0.164-0.419 0.107-0.419 0.446 0 0.382 0.157 0.371 0.361-0.0241z" fill="#0e0f0e"/></svg>
