<svg width="210mm" height="297mm" version="1.1" viewBox="0 0 210 297" xmlns="http://www.w3.org/2000/svg"><path d="m107 185c-2.16-6.53-3.69-9.46-6.23-11.9l-0.667-0.644-0.272 0.205c-4.6 3.47-10.1 3.77-13.8 0.757l-0.667-0.537-0.584 0.287c-3.1 1.52-7 4.77-11 9.18-0.574 0.628-1.1 1.16-1.17 1.17l-0.131 0.031 0.0586-0.69c0.286-3.36 0.338-4.24 0.341-5.74 0.0149-7.09-3.47-10.3-9.18-8.42-2.2 0.715-4.55 2.21-8.84 5.6-1.5 1.18-1.5 1.15-0.131-1.17 2.68-4.54 4.22-7.68 5.09-10.4 0.38-1.17 0.382-1.06-0.0374-1.92-0.753-1.53-1.05-4.69-0.569-5.96 0.108-0.282-1.57-2.2-2.81-3.22-2.47-2.02-5.6-3.29-10.1-4.12-2-0.368-1.99-0.308-0.143-0.96 2.72-0.959 5.65-2.31 7.01-3.24l0.609-0.415 0.014-2.06 0.014-2.06 0.437-1.8-0.159-0.242c-0.496-0.758-3.17-3.19-5.63-5.11-0.519-0.407-0.944-0.796-0.944-0.865v-0.125l0.549 0.0535c3.04 0.297 7.48 0.373 9.18 0.158l0.904-0.114 0.869-0.675c1.37-1.07 2.67-1.72 4.31-2.17 0.455-0.124 0.924-0.254 1.04-0.289 0.452-0.134 1.45-2.44 1.82-4.23l0.157-0.747-0.0114-3.86-0.234-1.11c-0.402-1.91-1.13-4.11-2.22-6.74-0.788-1.89-0.811-1.88 0.878-0.465 6.24 5.24 10.1 6.93 13.9 6.12 3.69-0.786 6.09-3.39 8.97-9.73 0.28-0.616 0.547-1.12 0.594-1.12 0.0468 0 0.629 0.529 1.29 1.18 1.84 1.79 3.47 2.97 5.16 3.76 0.885 0.41 0.868 0.41 1.47 0.0247 0.809-0.517 1.98-1.07 2.87-1.36l0.836-0.271 0.439-0.5c2.01-2.29 3.7-5.14 5.74-9.7 0.414-0.926 0.502-0.985 0.667-0.454 0.688 2.21 0.929 2.94 1.42 4.25 1.31 3.56 2.86 6.2 4.84 8.27 1.03 1.07 0.984 1.06 1.87 0.655 3.95-1.8 7.84-1.11 9.88 1.76 0.402 0.563 0.993 1.79 0.995 2.06 5.9e-4 0.0786 0.0569 0.189 0.125 0.246l0.124 0.103 0.864-0.323c2.86-1.07 5.5-2.86 7.98-5.41 1.81-1.86 2.96-3.32 5.88-7.48 0.733-1.04 0.789-1.06 0.719-0.176-0.345 4.31-0.107 6.79 0.833 8.71l0.447 0.913 0.671 0.675c0.75 0.755 1.31 1.1 2.34 1.47l0.703 0.246 3.25 4e-3 0.966-0.206c1.85-0.395 3.9-1.17 6.73-2.56 1.38-0.674 1.53-0.693 1.11-0.139-4.75 6.24-6.49 9.53-7.18 13.6l-0.19 1.13 0.353 0.586c0.496 0.823 0.929 1.79 1.17 2.61l0.204 0.7 0.615 0.622c1.75 1.77 4.75 3.01 9.7 4.03 1.77 0.363 1.82 0.39 1.31 0.687-0.21 0.121-1.05 0.603-1.88 1.07-1.65 0.942-3.54 2.18-4.09 2.67l-0.352 0.318 0.134 0.689c1.04 5.35-1.94 10.6-7.4 13l-0.816 0.36-0.283 0.703c-1.03 2.55-2.77 4.18-5.5 5.14l-0.926 0.326-0.0583 0.208c-0.108 0.386-0.0766 2.08 0.0578 3.11 0.386 2.94 1.46 5.8 4.05 10.8 0.804 1.56 1.02 2.05 0.874 2.05-0.0216 0-0.842-0.509-1.82-1.13-4.97-3.15-8.4-4.74-11.6-5.39l-0.981-0.197-1.41-2e-3c-4.01-7e-3 -6.28 1.77-7.88 6.14-0.365 0.998-0.233 1.01-1.84-0.196-2.37-1.78-4.08-2.68-5.53-2.92l-0.676-0.112-0.685 0.106c-3.26 0.506-6.11 4.73-8.28 12.3-0.172 0.597-0.309 0.781-0.393 0.527zm-46.1-26.8c-0.0464-1.59 0.141-3.11 1.25-10.2 0.263-1.67 0.599-3.84 0.747-4.83 1.31-8.74 1.99-10.6 4.53-12.4 2.69-1.92 13-3.11 15.5-1.79 0.234 0.125 0.292 0.102 0.157-0.0628-0.588-0.715-3.17-1.13-5.74-0.918-7.55 0.616-10.4 1.63-12.2 4.39-1.27 1.9-1.51 3-3 13.2-0.528 3.62-1.29 8.63-1.46 9.66-0.0611 0.362-0.112 1.21-0.112 1.89l-0.0013 1.23 0.165 0.549c0.0909 0.302 0.172 0.549 0.181 0.549 0.0086 0-8.16e-4 -0.563-0.021-1.25zm45.5 0.351c0.0376-0.0604 0.0964-0.347 0.131-0.637 0.0342-0.29 0.145-1.12 0.246-1.84s0.219-1.57 0.261-1.89c0.0425-0.314 0.221-1.54 0.396-2.72 0.175-1.18 0.595-4.05 0.934-6.37 0.338-2.32 0.796-5.44 1.02-6.94 0.221-1.5 0.667-4.56 0.993-6.81l0.592-4.08 0.256-0.0669c0.291-0.076 6.26-0.91 9.04-1.26l1.84-0.235 3.78-0.018 0.615 0.15c0.338 0.0824 0.786 0.21 0.995 0.284 0.549 0.194 0.435-0.0199-0.172-0.321-1.42-0.706-3.39-0.795-7.32-0.331-2.44 0.288-9.37 1.3-9.45 1.38-0.0692 0.0716-0.296 1.64-1.62 11.2-0.414 2.99-1.03 7.4-1.36 9.79-0.334 2.39-0.651 4.68-0.704 5.09-0.0534 0.411-0.253 1.84-0.443 3.17-0.19 1.33-0.346 2.45-0.346 2.48 0 0.0997 0.252 0.0564 0.321-0.0552zm-22.5-2.77c5.16e-4 -1.4 0.089-2.18 0.8-7.05 0.243-1.67 0.524-3.6 0.622-4.3 1.56-11 2.05-12.9 3.95-14.8 1.42-1.42 2.82-1.97 6.28-2.49 5.06-0.759 8.17-0.813 10-0.173 0.761 0.26 0.845 0.238 0.341-0.0882-1.62-1.05-5.69-1.07-11.8-0.0473-4.68 0.777-6.67 2.73-7.68 7.54-0.277 1.31-1.86 12.3-2.74 19-0.176 1.34-0.0497 3.69 0.199 3.69 0.0134 0 0.0245-0.583 0.0248-1.3zm-11.7-1.21c0.87-0.128 1.38-0.372 1.76-0.843l0.254-0.316 0.174-0.958c0.193-1.06 0.53-3.26 1.05-6.84 0.189-1.3 0.404-2.73 0.477-3.16 0.586-3.5 0.731-4.87 0.559-5.29l-0.102-0.247-0.069 0.395c-0.038 0.217-0.132 0.909-0.21 1.54s-0.358 2.56-0.624 4.3c-0.54 3.54-1.14 7.54-1.28 8.61-0.183 1.35-0.625 2.13-1.32 2.32-0.486 0.131-2.73 0.449-3.17 0.45l-0.34 2.1e-4 0.231 0.278 0.927-0.0611c0.51-0.0336 1.27-0.111 1.69-0.173zm55.9-0.649c-0.208-0.726-0.11-2.61 0.27-5.19 0.149-1.01 0.114-0.99 2.1-1.27 0.411-0.0589 1.16-0.174 1.67-0.256 0.507-0.0819 1.3-0.208 1.76-0.281 1.2-0.191 1.36-0.237 1.39-0.421l0.0314-0.163-0.382 0.0641c-0.21 0.0353-0.58 0.0945-0.821 0.132-1.45 0.223-2.49 0.388-3.34 0.531-0.531 0.0894-1.31 0.212-1.74 0.272-0.919 0.13-0.898 0.104-1.02 1.27-0.051 0.479-0.152 1.31-0.224 1.84-0.205 1.51-0.128 2.71 0.23 3.58 0.133 0.323 0.183 0.258 0.0795-0.103zm-32.9-1.38c2.06-0.294 2.04-0.255 2.73-4.97 0.194-1.32 0.548-3.67 0.788-5.21 0.935-6.04 1.01-6.75 0.795-7.16-0.149-0.278-0.26-0.194-0.26 0.196 0 0.375-0.0339 0.631-0.785 5.91-1.19 8.33-1.37 9.45-1.63 9.96-0.408 0.789-0.947 0.968-3.63 1.2-0.6 0.0528-0.778 0.137-0.527 0.248 0.155 0.0687 1.44-0.0199 2.51-0.174zm43.3-2.84c1.41-0.176 1.72-0.505 2.01-2.13l0.103-0.584-0.236-0.763-0.371 2.13-0.245 0.321c-0.135 0.177-0.447 0.424-0.693 0.548l-0.448 0.227-1.28 0.084c-1.37 0.0903-1.46 0.11-1.14 0.247 0.232 0.0988 1.12 0.0681 2.3-0.0803zm-20.3-8.09c2.35-0.356 2.44-0.446 2.94-2.9 0.747-3.69 0.86-4.66 0.582-5l-0.162-0.2-0.0609 0.595c-0.114 1.11-0.944 5.45-1.12 5.84-0.37 0.839-0.648 0.993-2.22 1.22-1.33 0.194-1.37 0.209-1.37 0.452 0 0.21-0.0225 0.21 1.41-8e-3zm11.8-2.01c-0.186-0.715-0.151-1.98 0.0966-3.56 0.121-0.773 0.341-2.19 0.488-3.15 0.653-4.26 1.51-5.81 3.9-7.02 2.46-1.24 9.74-1.76 12.7-0.914l0.712 0.206-0.11-0.133c-1.24-1.5-10.3-1.15-13.8 0.527l-0.737 0.351-0.72 0.716c-1.51 1.51-1.84 2.51-2.64 8.01l-0.408 2.81 0.0522 0.709c0.0508 0.689 0.301 1.61 0.505 1.85 0.155 0.187 0.16 0.113 0.0247-0.407zm16.2 0.203c-0.379-0.301-2.6-1.32-5.75-2.64-0.411-0.172-1.1-0.465-1.53-0.652-0.877-0.382-0.845-0.373-0.845-0.247 0 0.051 0.188 0.174 0.417 0.272 0.229 0.0987 0.654 0.29 0.944 0.425 0.906 0.422 3.21 1.41 4.97 2.14 0.416 0.171 0.989 0.431 1.27 0.578 0.562 0.29 0.795 0.347 0.516 0.125zm-3.93-5.52c0.143-1.02 0.106-1.84-0.0936-2.04l-0.149-0.149v0.278c0 0.3-0.234 2.22-0.311 2.55l-0.047 0.204 0.489-0.0562zm-82.8-2.33c0.113-0.183 1.88-1.37 2.68-1.81 0.776-0.42 2.5-1.01 3.69-1.27l0.395-0.0847-0.652 0.0437c-1.45 0.0971-2.97 0.675-4.62 1.76-0.687 0.451-2.12 1.71-1.74 1.53 0.106-0.0507 0.217-0.131 0.246-0.179zm13.9-5.07c0.0528-0.0355 0.308-0.418 0.566-0.849 2.58-4.3 8.02-6.82 12.6-5.84 0.454 0.0959 0.889 0.171 0.966 0.167 0.329-0.0168-0.552-0.288-1.74-0.536l-1.28-0.267-1.05 0.0506c-4.02 0.193-7.34 2.05-9.53 5.33-0.941 1.41-1.23 2.4-0.565 1.95zm18-5.67c-0.0011-0.548 0.875-2.91 1.47-3.97 2.34-4.16 6.19-6.82 9.84-6.82 0.996-2e-4 0.99-0.048-0.0224-0.163-4.5-0.512-9.82 3.88-11.2 9.21-0.251 1-0.377 2.08-0.233 1.99 0.0528-0.0326 0.0957-0.146 0.0955-0.252zm34.9-2.6c0.151-0.0903 0.462-0.234 0.693-0.32 0.231-0.0857 0.406-0.169 0.39-0.185-0.0945-0.0945-1.56 0.462-1.56 0.592 0 0.123 0.177 0.09 0.473-0.0872zm7.78-0.758c0.14-0.0726 0.595-0.255 1.01-0.405 0.86-0.311 0.965-0.446 0.127-0.164-0.538 0.181-1.6 0.689-1.46 0.697 0.0386 2e-3 0.185-0.0552 0.326-0.128zm-20.3-3.71c1.13-0.658 2.72-1.31 3.6-1.48 0.925-0.176 2.52-0.319 2.94-0.263l0.351 0.0471-0.22-0.104c-0.135-0.0635-0.661-0.103-1.36-0.101l-1.14 2e-3 -1.01 0.29c-1.79 0.516-4.25 1.83-4.98 2.66-0.0978 0.111 0.0511 0.0437 0.36-0.163 0.29-0.194 0.942-0.594 1.45-0.889zm36.6 53c-2.01-2.72-2.02-2.76-0.501-1.42 1.93 1.7 2.59 2.33 2.59 2.45 0 0.117-0.602 0.743-0.716 0.745-0.0315 4.1e-4 -0.648-0.8-1.37-1.78zm3.71-0.257c-1.7-1.49-6.1-5.55-6.1-5.62 0-0.0849 0.333 0.0954 1.01 0.546 0.193 0.129 1.6 1.02 3.12 1.97 3.2 2.01 3.78 2.39 3.78 2.5 0 0.162-0.89 1.14-1.04 1.14-0.0828-8.4e-4 -0.427-0.244-0.765-0.541zm-102-2.23c-0.596-0.559-0.765-0.419 2.99-2.47 1.77-0.971 2.16-1.08 1.35-0.392-0.262 0.224-1.21 1.05-2.11 1.83-1.86 1.63-1.68 1.54-2.23 1.03zm-5.07-1.89c-0.0549-0.103-0.192-0.459-0.306-0.792l-0.206-0.605 0.193-0.121c0.171-0.107 1.46-0.436 6.81-1.73 2.37-0.575 2.26-0.508-3.02 1.93-3.66 1.69-3.33 1.57-3.47 1.32zm10.8-36.7c-0.29-0.113-1.87-0.767-3.51-1.45-1.64-0.687-3.04-1.27-3.1-1.29-0.27-0.108 0.376-1.66 0.66-1.59 0.182 0.0479 5.9 3.91 6.34 4.28 0.371 0.313 0.296 0.324-0.395 0.0543zm-2.11-5.77c-2.44-2.44-4.44-4.49-4.44-4.56 0-0.155 1.51-1.48 1.69-1.48 0.0681 0 0.32 0.287 0.561 0.637 0.736 1.07 5.47 7.88 6.01 8.64 1.32 1.86 1.02 1.61-3.82-3.23zm19.8-9.91c-0.478-0.671-2.21-3.16-3.13-4.5l-0.645-0.939 0.107-0.129c0.206-0.248 1.09-0.69 1.22-0.609 0.067 0.0423 0.291 0.472 0.498 0.955 0.207 0.483 0.703 1.63 1.1 2.55 1.24 2.85 1.32 3.05 1.29 3.15-0.0175 0.0526-0.215-0.161-0.438-0.475zm2.25-0.131c-0.298-0.581-3.44-7.39-4.72-10.2-1.29-2.86-1.48-3.34-1.39-3.43 0.141-0.141 2.58-1.06 2.74-1.03 0.205 0.0389 0.0267-0.654 2.08 8.06 0.415 1.76 0.952 4.03 1.19 5.04 0.487 2.04 0.509 2.37 0.107 1.59zm70.4-0.492c1.29-1.37 7.05-6.66 7.24-6.67 0.275-1e-3 1.22 1.24 1.22 1.6 0 0.193-0.15 0.29-3.86 2.51-1.62 0.966-3.34 2-3.82 2.29-0.977 0.603-1.17 0.667-0.789 0.267zm-3.21-0.652c-3e-3 -0.181 3.87-6.5 4.29-6.99 0.161-0.19 0.363-0.384 0.449-0.429l0.156-0.0833 0.587 0.406c0.408 0.282 0.579 0.454 0.561 0.563-0.0391 0.234-6.04 6.72-6.04 6.53z" fill="#f5d201"/><path d="m107 185c-2.16-6.53-3.69-9.46-6.23-11.9l-0.667-0.644-0.272 0.205c-4.6 3.47-10.1 3.77-13.8 0.757l-0.667-0.537-0.584 0.287c-3.1 1.52-7 4.77-11 9.18-0.574 0.628-1.1 1.16-1.17 1.17l-0.131 0.031 0.0586-0.69c0.286-3.36 0.338-4.24 0.341-5.74 0.0149-7.09-3.47-10.3-9.18-8.42-2.2 0.715-4.55 2.21-8.84 5.6-1.5 1.18-1.5 1.15-0.131-1.17 2.68-4.54 4.22-7.68 5.09-10.4 0.38-1.17 0.382-1.06-0.0374-1.92-0.753-1.53-1.05-4.69-0.569-5.96 0.108-0.282-1.57-2.2-2.81-3.22-2.47-2.02-5.6-3.29-10.1-4.12-2-0.368-1.99-0.308-0.143-0.96 2.72-0.959 5.65-2.31 7.01-3.24l0.609-0.415 0.014-2.06 0.014-2.06 0.437-1.8-0.159-0.242c-0.496-0.758-3.17-3.19-5.63-5.11-0.519-0.407-0.944-0.796-0.944-0.865v-0.125l0.549 0.0535c3.04 0.297 7.48 0.373 9.18 0.158l0.904-0.114 0.869-0.675c1.37-1.07 2.67-1.72 4.31-2.17 0.455-0.124 0.924-0.254 1.04-0.289 0.452-0.134 1.45-2.44 1.82-4.23l0.157-0.747-0.0114-3.86-0.234-1.11c-0.402-1.91-1.13-4.11-2.22-6.74-0.788-1.89-0.811-1.88 0.878-0.465 6.24 5.24 10.1 6.93 13.9 6.12 3.69-0.786 6.09-3.39 8.97-9.73 0.28-0.616 0.547-1.12 0.594-1.12 0.0468 0 0.629 0.529 1.29 1.18 1.84 1.79 3.47 2.97 5.16 3.76 0.885 0.41 0.868 0.41 1.47 0.0247 0.809-0.517 1.98-1.07 2.87-1.36l0.836-0.271 0.439-0.5c2.01-2.29 3.7-5.14 5.74-9.7 0.414-0.926 0.502-0.985 0.667-0.454 0.688 2.21 0.929 2.94 1.42 4.25 1.31 3.56 2.86 6.2 4.84 8.27 1.03 1.07 0.984 1.06 1.87 0.655 3.95-1.8 7.84-1.11 9.88 1.76 0.402 0.563 0.993 1.79 0.995 2.06 5.9e-4 0.0786 0.0569 0.189 0.125 0.246l0.124 0.103 0.864-0.323c2.86-1.07 5.5-2.86 7.98-5.41 1.81-1.86 2.96-3.32 5.88-7.48 0.733-1.04 0.789-1.06 0.719-0.176-0.345 4.31-0.107 6.79 0.833 8.71l0.447 0.913 0.671 0.675c0.75 0.755 1.31 1.1 2.34 1.47l0.703 0.246 3.25 4e-3 0.966-0.206c1.85-0.395 3.9-1.17 6.73-2.56 1.38-0.674 1.53-0.693 1.11-0.139-4.75 6.24-6.49 9.53-7.18 13.6l-0.19 1.13 0.353 0.586c0.496 0.823 0.929 1.79 1.17 2.61l0.204 0.7 0.615 0.622c1.75 1.77 4.75 3.01 9.7 4.03 1.77 0.363 1.82 0.39 1.31 0.687-0.21 0.121-1.05 0.603-1.88 1.07-1.65 0.942-3.54 2.18-4.09 2.67l-0.352 0.318 0.134 0.689c1.04 5.35-1.94 10.6-7.4 13l-0.816 0.36-0.283 0.703c-1.03 2.55-2.77 4.18-5.5 5.14l-0.926 0.326-0.0583 0.208c-0.108 0.386-0.0766 2.08 0.0578 3.11 0.386 2.94 1.46 5.8 4.05 10.8 0.804 1.56 1.02 2.05 0.874 2.05-0.0216 0-0.842-0.509-1.82-1.13-4.97-3.15-8.4-4.74-11.6-5.39l-0.981-0.197-1.41-2e-3c-4.01-7e-3 -6.28 1.77-7.88 6.14-0.365 0.998-0.233 1.01-1.84-0.196-2.37-1.78-4.08-2.68-5.53-2.92l-0.676-0.112-0.685 0.106c-3.26 0.506-6.11 4.73-8.28 12.3-0.172 0.597-0.309 0.781-0.393 0.527zm0.48-6.32c1.28-3.26 3.4-6.23 5.25-7.35 0.497-0.301 0.472-0.396-0.0878-0.325-3.46 0.442-7.11-0.57-8.98-2.49-0.453-0.464-0.496-0.454-0.8 0.186-0.142 0.298-0.546 0.978-0.899 1.51l-0.642 0.969 0.565 0.531c1.69 1.59 3.57 4.5 4.76 7.36 0.326 0.786 0.38 0.76 0.834-0.395zm-32.3-0.483c2.11-2.34 6.39-5.6 8.67-6.61 0.438-0.194 0.439-0.198 0.153-0.845-0.256-0.58-0.481-1.4-0.483-1.76-7.4e-4 -0.138-0.0354-0.305-0.077-0.37l-0.0757-0.119-0.578 0.276c-2.07 0.99-4.43 0.804-6.35-0.501-0.63-0.428-1.8-1.64-2.04-2.11-0.241-0.472-0.156-0.458-1.59-0.273-5.75 0.741-8.71 0.297-10.7-1.6-0.765-0.739-0.746-0.74-1.05 0.0368-0.486 1.26-0.954 2.33-1.51 3.44-0.721 1.44-0.708 1.49 0.234 0.924 2.35-1.42 4.49-2.14 6.59-2.24l1.01-0.0476 0.861 0.178c4.05 0.84 6.36 4.76 6.29 10.7-0.0088 0.725-0.0116 1.35-0.0063 1.38 0.0229 0.156 0.196 0.034 0.624-0.439zm48.3-5.27c1.22-3.06 3.57-5.03 6.67-5.57l0.969-0.17 1.49 0.0466c0.821 0.0256 1.73 0.102 2.02 0.17 2.94 0.688 5.25 1.61 8.18 3.27 1.31 0.746 1.29 0.763 0.694-0.525-1.38-2.97-2.24-6.41-2.24-8.94-4.7e-4 -1.2 0.0379-1.16-0.92-1.03-0.859 0.12-0.779 0.0546-1.32 1.09-3.26 6.25-11.4 7.29-15.5 2.01-0.549-0.698-0.461-0.743-1.08 0.551-1.23 2.57-3.2 4.53-6.02 5.97l-0.834 0.427 0.834 0.0586c1.78 0.125 4.05 1.2 6.1 2.87 0.606 0.496 0.683 0.478 0.963-0.227zm-62.6-14.7c-0.0464-1.59 0.141-3.11 1.25-10.2 0.263-1.67 0.599-3.84 0.747-4.83 1.31-8.74 1.99-10.6 4.53-12.4 2.69-1.92 13-3.11 15.5-1.79 0.234 0.125 0.292 0.102 0.157-0.0628-0.588-0.715-3.17-1.13-5.74-0.918-7.55 0.616-10.4 1.63-12.2 4.39-1.27 1.9-1.51 3-3 13.2-0.528 3.62-1.29 8.63-1.46 9.66-0.0611 0.362-0.112 1.21-0.112 1.89l-0.0013 1.23 0.165 0.549c0.0909 0.302 0.172 0.549 0.181 0.549 0.0086 0-8.16e-4 -0.563-0.021-1.25zm45.5 0.351c0.0376-0.0604 0.0964-0.347 0.131-0.637 0.0342-0.29 0.145-1.12 0.246-1.84s0.219-1.57 0.261-1.89c0.0425-0.314 0.221-1.54 0.396-2.72 0.175-1.18 0.595-4.05 0.934-6.37 0.338-2.32 0.796-5.44 1.02-6.94 0.221-1.5 0.667-4.56 0.993-6.81l0.592-4.08 0.256-0.0669c0.291-0.076 6.26-0.91 9.04-1.26l1.84-0.235 3.78-0.018 0.615 0.15c0.338 0.0824 0.786 0.21 0.995 0.284 0.549 0.194 0.435-0.0199-0.172-0.321-1.42-0.706-3.39-0.795-7.32-0.331-2.44 0.288-9.37 1.3-9.45 1.38-0.0692 0.0716-0.296 1.64-1.62 11.2-0.414 2.99-1.03 7.4-1.36 9.79-0.334 2.39-0.651 4.68-0.704 5.09-0.0534 0.411-0.253 1.84-0.443 3.17-0.19 1.33-0.346 2.45-0.346 2.48 0 0.0997 0.252 0.0564 0.321-0.0552zm-22.5-2.77c5.16e-4 -1.4 0.089-2.18 0.8-7.05 0.243-1.67 0.524-3.6 0.622-4.3 1.56-11 2.05-12.9 3.95-14.8 1.42-1.42 2.82-1.97 6.28-2.49 5.06-0.759 8.17-0.813 10-0.173 0.761 0.26 0.845 0.238 0.341-0.0882-1.62-1.05-5.69-1.07-11.8-0.0473-4.68 0.777-6.67 2.73-7.68 7.54-0.277 1.31-1.86 12.3-2.74 19-0.176 1.34-0.0497 3.69 0.199 3.69 0.0134 0 0.0245-0.583 0.0248-1.3zm-11.7-1.21c0.87-0.128 1.38-0.372 1.76-0.843l0.254-0.316 0.174-0.958c0.193-1.06 0.53-3.26 1.05-6.84 0.189-1.3 0.404-2.73 0.477-3.16 0.586-3.5 0.731-4.87 0.559-5.29l-0.102-0.247-0.069 0.395c-0.038 0.217-0.132 0.909-0.21 1.54s-0.358 2.56-0.624 4.3c-0.54 3.54-1.14 7.54-1.28 8.61-0.183 1.35-0.625 2.13-1.32 2.32-0.486 0.131-2.73 0.449-3.17 0.45l-0.34 2.1e-4 0.231 0.278 0.927-0.0611c0.51-0.0336 1.27-0.111 1.69-0.173zm55.9-0.649c-0.208-0.726-0.11-2.61 0.27-5.19 0.149-1.01 0.114-0.99 2.1-1.27 0.411-0.0589 1.16-0.174 1.67-0.256 0.507-0.0819 1.3-0.208 1.76-0.281 1.2-0.191 1.36-0.237 1.39-0.421l0.0314-0.163-0.382 0.0641c-0.21 0.0353-0.58 0.0945-0.821 0.132-1.45 0.223-2.49 0.388-3.34 0.531-0.531 0.0894-1.31 0.212-1.74 0.272-0.919 0.13-0.898 0.104-1.02 1.27-0.051 0.479-0.152 1.31-0.224 1.84-0.205 1.51-0.128 2.71 0.23 3.58 0.133 0.323 0.183 0.258 0.0795-0.103zm-32.9-1.38c2.06-0.294 2.04-0.255 2.73-4.97 0.194-1.32 0.548-3.67 0.788-5.21 0.935-6.04 1.01-6.75 0.795-7.16-0.149-0.278-0.26-0.194-0.26 0.196 0 0.375-0.0339 0.631-0.785 5.91-1.19 8.33-1.37 9.45-1.63 9.96-0.408 0.789-0.947 0.968-3.63 1.2-0.6 0.0528-0.778 0.137-0.527 0.248 0.155 0.0687 1.44-0.0199 2.51-0.174zm-35.6-0.585c0.0264-0.109 0.0742-0.435 0.106-0.725l0.0582-0.527-0.426-0.206c-2.1-1.01-4.13-3.21-4.91-5.3-0.233-0.631-0.254-0.632-1.24-0.0547-0.489 0.286-1.36 0.736-1.93 1-1.28 0.589-1.28 0.601-0.0385 0.977 2.92 0.883 5.58 2.45 7.51 4.41 0.657 0.669 0.791 0.735 0.866 0.426zm79-2.26c1.41-0.176 1.72-0.505 2.01-2.13l0.103-0.584-0.236-0.763-0.371 2.13-0.245 0.321c-0.135 0.177-0.447 0.424-0.693 0.548l-0.448 0.227-1.28 0.084c-1.37 0.0903-1.46 0.11-1.14 0.247 0.232 0.0988 1.12 0.0681 2.3-0.0803zm-20.3-8.09c2.35-0.356 2.44-0.446 2.94-2.9 0.747-3.69 0.86-4.66 0.582-5l-0.162-0.2-0.0609 0.595c-0.114 1.11-0.944 5.45-1.12 5.84-0.37 0.839-0.648 0.993-2.22 1.22-1.33 0.194-1.37 0.209-1.37 0.452 0 0.21-0.0225 0.21 1.41-8e-3zm11.8-2.01c-0.186-0.715-0.151-1.98 0.0966-3.56 0.121-0.773 0.341-2.19 0.488-3.15 0.653-4.26 1.51-5.81 3.9-7.02 2.46-1.24 9.74-1.76 12.7-0.914l0.712 0.206-0.11-0.133c-1.24-1.5-10.3-1.15-13.8 0.527l-0.737 0.351-0.72 0.716c-1.51 1.51-1.84 2.51-2.64 8.01l-0.408 2.81 0.0522 0.709c0.0508 0.689 0.301 1.61 0.505 1.85 0.155 0.187 0.16 0.113 0.0247-0.407zm16.2 0.203c-0.379-0.301-2.6-1.32-5.75-2.64-0.411-0.172-1.1-0.465-1.53-0.652-0.877-0.382-0.845-0.373-0.845-0.247 0 0.051 0.188 0.174 0.417 0.272 0.229 0.0987 0.654 0.29 0.944 0.425 0.906 0.422 3.21 1.41 4.97 2.14 0.416 0.171 0.989 0.431 1.27 0.578 0.562 0.29 0.795 0.347 0.516 0.125zm12.2-2.91c0.581-0.374 1.24-0.791 1.47-0.927 0.511-0.306 0.467-0.346-0.625-0.581-1.11-0.238-3.11-0.89-4.08-1.33-0.948-0.428-0.959-0.401-0.167 0.422 0.765 0.795 1.45 1.71 1.79 2.39 0.434 0.872 0.301 0.87 1.62 0.022zm-103-2.35c0.173-0.315 0.493-0.843 0.711-1.17 0.565-0.857 0.683-0.801-1.67-0.801-1.24 0-2.06 0.0332-2.06 0.083 0 0.0457 0.385 0.417 0.856 0.825 0.471 0.408 1.05 0.944 1.29 1.19 0.54 0.556 0.495 0.562 0.873-0.124zm87.2-0.262c0.143-1.02 0.106-1.84-0.0936-2.04l-0.149-0.149v0.278c0 0.3-0.234 2.22-0.311 2.55l-0.047 0.204 0.489-0.0562zm-82.8-2.33c0.113-0.183 1.88-1.37 2.68-1.81 0.776-0.42 2.5-1.01 3.69-1.27l0.395-0.0847-0.652 0.0437c-1.45 0.0971-2.97 0.675-4.62 1.76-0.687 0.451-2.12 1.71-1.74 1.53 0.106-0.0507 0.217-0.131 0.246-0.179zm10.3-4.26c0.459-0.114 0.981-0.231 1.16-0.261l0.327-0.0535 0.0933-0.37c1.04-4.13 4.24-7.2 8.76-8.42l1.04-0.279 3.86-6e-3 1.05 0.282c1.13 0.302 2.46 0.896 3.48 1.56 0.732 0.474 0.672 0.502 0.776-0.364 0.279-2.33 1.26-4.53 2.96-6.65 0.674-0.836 0.676-0.769-0.0425-1.17-1.41-0.777-2.59-1.63-3.94-2.82-0.793-0.703-0.744-0.717-1.25 0.352-4.41 9.35-11.4 11.5-19.5 6.08-0.768-0.513-1.42-0.912-1.44-0.885-0.0264 0.0264 0.0765 0.551 0.229 1.17 1.08 4.38 0.913 7.68-0.568 10.9-0.377 0.825-0.439 0.738 0.634 0.898 0.482 0.0721 0.975 0.171 1.1 0.219 0.121 0.0483 0.279 0.0677 0.351 0.0432 0.0725-0.0245 0.507-0.138 0.966-0.252zm3.57-0.814c0.0528-0.0355 0.308-0.418 0.566-0.849 2.58-4.3 8.02-6.82 12.6-5.84 0.454 0.0959 0.889 0.171 0.966 0.167 0.329-0.0168-0.552-0.288-1.74-0.536l-1.28-0.267-1.05 0.0506c-4.02 0.193-7.34 2.05-9.53 5.33-0.941 1.41-1.23 2.4-0.565 1.95zm76.2-3.5c0.627-2.62 1.74-5.05 3.56-7.74 0.552-0.818 0.543-0.824-0.605-0.435-0.52 0.176-1.42 0.426-2 0.554l-1.05 0.233-2.9 0.078-0.835-0.172c-3.64-0.751-5.88-3.48-6.31-7.7-0.116-1.13-0.165-1.16-0.734-0.328-2.31 3.36-6.59 7.04-9.97 8.58-0.76 0.346-0.845 0.482-0.301 0.482 0.805 0 1.8 0.413 2.48 1.03l0.341 0.308 0.461-0.352c6.41-4.9 14.6-2.39 14.6 4.46v0.51l0.154 0.0446c0.0845 0.0245 0.33 0.0903 0.546 0.146 0.447 0.116 1.39 0.58 1.85 0.908 0.425 0.305 0.457 0.276 0.669-0.611zm-58.2-2.17c-0.0011-0.548 0.875-2.91 1.47-3.97 2.34-4.16 6.19-6.82 9.84-6.82 0.996-2e-4 0.99-0.048-0.0224-0.163-4.5-0.512-9.82 3.88-11.2 9.21-0.251 1-0.377 2.08-0.233 1.99 0.0528-0.0326 0.0957-0.146 0.0955-0.252zm34.9-2.6c0.151-0.0903 0.462-0.234 0.693-0.32 0.231-0.0857 0.406-0.169 0.39-0.185-0.0945-0.0945-1.56 0.462-1.56 0.592 0 0.123 0.177 0.09 0.473-0.0872zm7.78-0.758c0.14-0.0726 0.595-0.255 1.01-0.405 0.86-0.311 0.965-0.446 0.127-0.164-0.538 0.181-1.6 0.689-1.46 0.697 0.0386 2e-3 0.185-0.0552 0.326-0.128zm-21.8-4.86c0-0.0223-0.332-0.385-0.738-0.806-2.14-2.22-4.21-5.85-5.45-9.52-0.0819-0.244-0.152-0.147-0.918 1.28-0.799 1.48-1.57 2.74-2.41 3.9-0.713 0.994-0.709 1.05 0.0836 1.12 2.96 0.276 5.77 2.84 6.57 5.99 0.0864 0.338 0.172 0.642 0.19 0.675 0.0311 0.0566 2.66-2.55 2.66-2.64zm1.49 1.14c1.13-0.658 2.72-1.31 3.6-1.48 0.925-0.176 2.52-0.319 2.94-0.263l0.351 0.0471-0.22-0.104c-0.135-0.0635-0.661-0.103-1.36-0.101l-1.14 2e-3 -1.01 0.29c-1.79 0.516-4.25 1.83-4.98 2.66-0.0978 0.111 0.0511 0.0437 0.36-0.163 0.29-0.194 0.942-0.594 1.45-0.889zm36.6 53c-2.01-2.72-2.02-2.76-0.501-1.42 1.93 1.7 2.59 2.33 2.59 2.45 0 0.117-0.602 0.743-0.716 0.745-0.0315 4.1e-4 -0.648-0.8-1.37-1.78zm3.71-0.257c-1.7-1.49-6.1-5.55-6.1-5.62 0-0.0849 0.333 0.0954 1.01 0.546 0.193 0.129 1.6 1.02 3.12 1.97 3.2 2.01 3.78 2.39 3.78 2.5 0 0.162-0.89 1.14-1.04 1.14-0.0828-8.4e-4 -0.427-0.244-0.765-0.541zm-102-2.23c-0.596-0.559-0.765-0.419 2.99-2.47 1.77-0.971 2.16-1.08 1.35-0.392-0.262 0.224-1.21 1.05-2.11 1.83-1.86 1.63-1.68 1.54-2.23 1.03zm-5.07-1.89c-0.0549-0.103-0.192-0.459-0.306-0.792l-0.206-0.605 0.193-0.121c0.171-0.107 1.46-0.436 6.81-1.73 2.37-0.575 2.26-0.508-3.02 1.93-3.66 1.69-3.33 1.57-3.47 1.32zm10.8-36.7c-0.29-0.113-1.87-0.767-3.51-1.45-1.64-0.687-3.04-1.27-3.1-1.29-0.27-0.108 0.376-1.66 0.66-1.59 0.182 0.0479 5.9 3.91 6.34 4.28 0.371 0.313 0.296 0.324-0.395 0.0543zm-2.11-5.77c-2.44-2.44-4.44-4.49-4.44-4.56 0-0.155 1.51-1.48 1.69-1.48 0.0681 0 0.32 0.287 0.561 0.637 0.736 1.07 5.47 7.88 6.01 8.64 1.32 1.86 1.02 1.61-3.82-3.23zm19.8-9.91c-0.478-0.671-2.21-3.16-3.13-4.5l-0.645-0.939 0.107-0.129c0.206-0.248 1.09-0.69 1.22-0.609 0.067 0.0423 0.291 0.472 0.498 0.955 0.207 0.483 0.703 1.63 1.1 2.55 1.24 2.85 1.32 3.05 1.29 3.15-0.0175 0.0526-0.215-0.161-0.438-0.475zm2.25-0.131c-0.298-0.581-3.44-7.39-4.72-10.2-1.29-2.86-1.48-3.34-1.39-3.43 0.141-0.141 2.58-1.06 2.74-1.03 0.205 0.0389 0.0267-0.654 2.08 8.06 0.415 1.76 0.952 4.03 1.19 5.04 0.487 2.04 0.509 2.37 0.107 1.59zm70.4-0.492c1.29-1.37 7.05-6.66 7.24-6.67 0.275-1e-3 1.22 1.24 1.22 1.6 0 0.193-0.15 0.29-3.86 2.51-1.62 0.966-3.34 2-3.82 2.29-0.977 0.603-1.17 0.667-0.789 0.267zm-3.21-0.652c-3e-3 -0.181 3.87-6.5 4.29-6.99 0.161-0.19 0.363-0.384 0.449-0.429l0.156-0.0833 0.587 0.406c0.408 0.282 0.579 0.454 0.561 0.563-0.0391 0.234-6.04 6.72-6.04 6.53z" fill="#00ebdb"/><path d="m107 185c-2.16-6.53-3.69-9.46-6.23-11.9l-0.667-0.644-0.272 0.205c-4.6 3.47-10.1 3.77-13.8 0.757l-0.667-0.537-0.584 0.287c-3.1 1.52-7 4.77-11 9.18-0.574 0.628-1.1 1.16-1.17 1.17l-0.131 0.031 0.0586-0.69c0.286-3.36 0.338-4.24 0.341-5.74 0.0149-7.09-3.47-10.3-9.18-8.42-2.2 0.715-4.55 2.21-8.84 5.6-1.5 1.18-1.5 1.15-0.131-1.17 2.68-4.54 4.22-7.68 5.09-10.4 0.38-1.17 0.382-1.06-0.0374-1.92-0.753-1.53-1.05-4.69-0.569-5.96 0.108-0.282-1.57-2.2-2.81-3.22-2.47-2.02-5.6-3.29-10.1-4.12-2-0.368-1.99-0.308-0.143-0.96 2.72-0.959 5.65-2.31 7.01-3.24l0.609-0.415 0.014-2.06 0.014-2.06 0.437-1.8-0.159-0.242c-0.496-0.758-3.17-3.19-5.63-5.11-0.519-0.407-0.944-0.796-0.944-0.865v-0.125l0.549 0.0535c3.04 0.297 7.48 0.373 9.18 0.158l0.904-0.114 0.869-0.675c1.37-1.07 2.67-1.72 4.31-2.17 0.455-0.124 0.924-0.254 1.04-0.289 0.452-0.134 1.45-2.44 1.82-4.23l0.157-0.747-0.0114-3.86-0.234-1.11c-0.402-1.91-1.13-4.11-2.22-6.74-0.788-1.89-0.811-1.88 0.878-0.465 6.24 5.24 10.1 6.93 13.9 6.12 3.69-0.786 6.09-3.39 8.97-9.73 0.28-0.616 0.547-1.12 0.594-1.12 0.0468 0 0.629 0.529 1.29 1.18 1.84 1.79 3.47 2.97 5.16 3.76 0.885 0.41 0.868 0.41 1.47 0.0247 0.809-0.517 1.98-1.07 2.87-1.36l0.836-0.271 0.439-0.5c2.01-2.29 3.7-5.14 5.74-9.7 0.414-0.926 0.502-0.985 0.667-0.454 0.688 2.21 0.929 2.94 1.42 4.25 1.31 3.56 2.86 6.2 4.84 8.27 1.03 1.07 0.984 1.06 1.87 0.655 3.95-1.8 7.84-1.11 9.88 1.76 0.402 0.563 0.993 1.79 0.995 2.06 5.9e-4 0.0786 0.0569 0.189 0.125 0.246l0.124 0.103 0.864-0.323c2.86-1.07 5.5-2.86 7.98-5.41 1.81-1.86 2.96-3.32 5.88-7.48 0.733-1.04 0.789-1.06 0.719-0.176-0.345 4.31-0.107 6.79 0.833 8.71l0.447 0.913 0.671 0.675c0.75 0.755 1.31 1.1 2.34 1.47l0.703 0.246 3.25 4e-3 0.966-0.206c1.85-0.395 3.9-1.17 6.73-2.56 1.38-0.674 1.53-0.693 1.11-0.139-4.75 6.24-6.49 9.53-7.18 13.6l-0.19 1.13 0.353 0.586c0.496 0.823 0.929 1.79 1.17 2.61l0.204 0.7 0.615 0.622c1.75 1.77 4.75 3.01 9.7 4.03 1.77 0.363 1.82 0.39 1.31 0.687-0.21 0.121-1.05 0.603-1.88 1.07-1.65 0.942-3.54 2.18-4.09 2.67l-0.352 0.318 0.134 0.689c1.04 5.35-1.94 10.6-7.4 13l-0.816 0.36-0.283 0.703c-1.03 2.55-2.77 4.18-5.5 5.14l-0.926 0.326-0.0583 0.208c-0.108 0.386-0.0766 2.08 0.0578 3.11 0.386 2.94 1.46 5.8 4.05 10.8 0.804 1.56 1.02 2.05 0.874 2.05-0.0216 0-0.842-0.509-1.82-1.13-4.97-3.15-8.4-4.74-11.6-5.39l-0.981-0.197-1.41-2e-3c-4.01-7e-3 -6.28 1.77-7.88 6.14-0.365 0.998-0.233 1.01-1.84-0.196-2.37-1.78-4.08-2.68-5.53-2.92l-0.676-0.112-0.685 0.106c-3.26 0.506-6.11 4.73-8.28 12.3-0.172 0.597-0.309 0.781-0.393 0.527zm0.48-6.32c1.28-3.26 3.4-6.23 5.25-7.35 0.497-0.301 0.472-0.396-0.0878-0.325-3.46 0.442-7.11-0.57-8.98-2.49-0.453-0.464-0.496-0.454-0.8 0.186-0.142 0.298-0.546 0.978-0.899 1.51l-0.642 0.969 0.565 0.531c1.69 1.59 3.57 4.5 4.76 7.36 0.326 0.786 0.38 0.76 0.834-0.395zm-32.3-0.483c2.11-2.34 6.39-5.6 8.67-6.61 0.438-0.194 0.439-0.198 0.153-0.845-0.256-0.58-0.481-1.4-0.483-1.76-7.4e-4 -0.138-0.0354-0.305-0.077-0.37l-0.0757-0.119-0.578 0.276c-2.07 0.99-4.43 0.804-6.35-0.501-0.63-0.428-1.8-1.64-2.04-2.11-0.241-0.472-0.156-0.458-1.59-0.273-5.75 0.741-8.71 0.297-10.7-1.6-0.765-0.739-0.746-0.74-1.05 0.0368-0.486 1.26-0.954 2.33-1.51 3.44-0.721 1.44-0.708 1.49 0.234 0.924 2.35-1.42 4.49-2.14 6.59-2.24l1.01-0.0476 0.861 0.178c4.05 0.84 6.36 4.76 6.29 10.7-0.0088 0.725-0.0116 1.35-0.0063 1.38 0.0229 0.156 0.196 0.034 0.624-0.439zm48.3-5.27c1.22-3.06 3.57-5.03 6.67-5.57l0.969-0.17 1.49 0.0466c0.821 0.0256 1.73 0.102 2.02 0.17 2.94 0.688 5.25 1.61 8.18 3.27 1.31 0.746 1.29 0.763 0.694-0.525-1.38-2.97-2.24-6.41-2.24-8.94-4.7e-4 -1.2 0.0379-1.16-0.92-1.03-0.859 0.12-0.779 0.0546-1.32 1.09-3.26 6.25-11.4 7.29-15.5 2.01-0.549-0.698-0.461-0.743-1.08 0.551-1.23 2.57-3.2 4.53-6.02 5.97l-0.834 0.427 0.834 0.0586c1.78 0.125 4.05 1.2 6.1 2.87 0.606 0.496 0.683 0.478 0.963-0.227zm-62.4-13.6c-0.274-1.21-0.188-2.35 0.519-6.91 0.075-0.483 0.177-1.17 0.227-1.54 0.114-0.834 0.644-3.97 0.876-5.18 0.0969-0.507 0.205-1.08 0.239-1.27 0.0462-0.255 0.111-0.358 0.239-0.378 0.0965-0.0152 0.263-0.0711 0.37-0.124 0.148-0.0735 0.228-0.0685 0.336 0.0209l0.141 0.117 0.315-0.17c0.18-0.0968 0.329-0.132 0.346-0.0822 0.129 0.37 0.379 0.372 0.379 4e-3 0-0.25 0.154-0.318 0.566-0.252l0.312 0.0507v-0.146c0-0.208 0.224-0.266 0.533-0.138l0.266 0.11 0.429-0.229 0.447 0.203 0.041-0.131c0.0225-0.0722 0.0612-0.195 0.0859-0.273 0.0311-0.0981 0.0784-0.116 0.154-0.0566 0.198 0.155 0.495 0.183 0.599 0.0574 0.056-0.0675 0.18-0.123 0.275-0.123 0.0953 0 0.286-0.0803 0.424-0.178 0.172-0.123 0.321-0.161 0.475-0.122l0.224 0.0562 0.01 0.276c0.0135 0.371 0.376-1.48 0.652-3.32 0.462-3.09 0.878-3.46 4.23-3.7l0.808-0.0585 0.232 0.152c0.127 0.0835 0.304 0.316 0.392 0.518l0.16 0.366-0.0768 0.439c-0.0423 0.242-0.14 0.953-0.217 1.58-0.0771 0.628-0.357 2.56-0.623 4.3-0.54 3.54-1.14 7.54-1.28 8.61-0.178 1.32-0.566 2.03-1.24 2.28-0.387 0.142-2.75 0.491-3.33 0.491-0.374 0-0.414 0.0756-0.161 0.304l0.172 0.156 1.51-0.152c1.99-0.2 2.47-0.373 2.96-1.05l0.257-0.358 0.187-1.14c0.103-0.627 0.269-1.65 0.369-2.28s0.339-2.07 0.53-3.21c0.191-1.14 0.385-2.32 0.43-2.63 0.165-1.14 0.269-1.33 0.414-0.768l0.0739 0.285 0.733 0.016 0.282-0.43 0.259 0.0518c0.144 0.0289 0.335 4e-3 0.431-0.0557 0.132-0.0823 0.21-0.0835 0.336-5e-3 0.182 0.113 0.823 0.0682 1.13-0.0794 0.123-0.0595 0.379-0.0688 0.703-0.0252 0.667 0.0898 1.71 0.0556 1.85-0.0606 0.0782-0.0649 0.151-0.0581 0.25 0.0234 0.104 0.0861 0.178 0.0909 0.293 0.0188 0.241-0.15 0.414 2e-3 0.297 0.26-0.0526 0.115-0.073 0.326-0.0452 0.467 0.0677 0.346 0.221-0.504 0.99-5.5 0.979-6.36 0.921-7.44-0.486-9.06l-0.51-0.588-0.536-0.224c-1.65-0.689-3.57-0.73-8.05-0.174-5.45 0.676-7.53 1.6-9.17 4.06-1.25 1.88-1.51 3.02-2.91 12.6-0.663 4.53-1.43 9.61-1.54 10.2-0.0494 0.266-0.113 0.997-0.14 1.62l-0.0506 1.14 0.142 0.599c0.149 0.628 0.488 1.5 0.557 1.43 0.0222-0.0222-0.0227-0.318-0.0998-0.657zm2.09-16c-0.029-0.0756-0.026-0.244 0.0067-0.374l0.0594-0.237 0.0804 0.127c0.108 0.17 0.105 0.499-0.0053 0.567-0.0486 0.0301-0.112-7e-3 -0.141-0.0828zm43.3 15.3c0.0934-0.05 0.169-0.178 0.168-0.285-7.8e-4 -0.107 0.0598-0.57 0.135-1.03 0.0748-0.459 0.372-2.49 0.66-4.52 0.288-2.03 0.644-4.42 0.792-5.31 0.147-0.894 0.324-2.02 0.392-2.5 0.369-2.61 0.37-2.61 0.81-2.45 0.414 0.148 0.921 0.158 1.06 0.0217 0.0799-0.0799 0.195-0.0384 0.499 0.18l0.395 0.284 0.631-0.118-0.0566 0.32 0.379 0.0768c0.403 0.0818 0.659-0.0239 0.577-0.238-0.0648-0.169 0.417-0.239 0.588-0.0853 0.194 0.174 0.267 0.159 0.658-0.137 0.406-0.307 0.565-0.332 0.565-0.0903 0 0.111 0.0585 0.176 0.158 0.176 0.087 0 0.201 0.0432 0.254 0.096 0.0694 0.0694 0.146 0.0694 0.275 0 0.0986-0.0528 0.422-0.096 0.718-0.096 0.76 0 1.14-0.219 0.936-0.544l-0.102-0.164 0.131-0.0815c0.072-0.0448 0.349-0.106 0.615-0.136 0.266-0.0301 0.549-0.0726 0.628-0.0945 0.146-0.0401 0.426 0.173 0.426 0.324 0 0.0449-0.138 0.0815-0.307 0.0815h-0.307v0.351h0.27c0.148 0 0.329 0.0596 0.402 0.133 0.0729 0.0729 0.169 0.11 0.213 0.0826 0.109-0.0671 0.103-0.303-7e-3 -0.303-0.0483 0-0.0878-0.0593-0.0878-0.132 0-0.0878 0.0878-0.132 0.263-0.132 0.2 0 0.263 0.0401 0.263 0.166 0 0.104 0.0822 0.187 0.22 0.221 0.121 0.0303 0.22 0.0967 0.22 0.148 0 0.0508 0.0621 0.0303 0.138-0.0456 0.0759-0.0759 0.211-0.138 0.301-0.138 0.0896 0 0.245-0.105 0.346-0.232l0.183-0.232 0.153 0.126c0.0841 0.0695 0.252 0.169 0.372 0.222 0.121 0.0523 0.338 0.147 0.483 0.21 0.145 0.0631 0.402 0.167 0.571 0.23l0.307 0.115 0.31-0.373 0.415 0.0468c0.228 0.0258 0.485 0.01 0.57-0.0357 0.0982-0.0525 0.215-0.0501 0.321 7e-3 0.126 0.0676 0.179 0.0577 0.217-0.0408 0.0648-0.169 0.267-0.166 0.41 5e-3 0.078 0.0939 0.0844 0.164 0.0209 0.227-0.107 0.107-0.0406 0.449 0.0738 0.378 0.0428-0.0265 0.0778-0.124 0.0778-0.217v-0.169l0.226 0.103c0.174 0.0795 0.265 0.0786 0.397-4e-3 0.121-0.0756 0.22-0.0806 0.339-0.0171 0.284 0.152 0.33 0.11 0.602-0.547 0.588-1.42 0.86-2.58 1.6-6.83 0.671-3.86 0.802-4.85 0.801-6.04l-1e-3 -1.08-0.39-1.31-0.477-0.544c-1.25-1.43-3.26-1.7-8.23-1.11-2.44 0.288-9.37 1.3-9.45 1.38-0.0692 0.0716-0.296 1.64-1.62 11.2-0.414 2.99-1.03 7.4-1.36 9.79-0.334 2.39-0.651 4.68-0.704 5.09-0.0534 0.411-0.253 1.84-0.443 3.17-0.19 1.33-0.346 2.45-0.346 2.48 0 0.0825 0.167 0.0655 0.357-0.0363zm9.79-17-0.168-0.169 0.108-0.769c0.0594-0.423 0.319-2.13 0.577-3.8 0.258-1.67 0.494-3.21 0.525-3.44 0.0829-0.603 0.215-0.65 2.44-0.87l1.03-0.101 0.335 0.164c0.211 0.103 0.389 0.277 0.48 0.471l0.145 0.307-0.115 0.834c-0.233 1.69-0.939 5.33-1.11 5.71-0.372 0.841-0.648 0.993-2.23 1.22-1.13 0.165-1.62 0.329-1.62 0.535 0 0.139-0.206 0.0887-0.388-0.0941zm-32 15.8c-0.147-0.5-0.153-2.97-0.0096-3.9 0.0599-0.386 0.269-1.83 0.465-3.21 0.505-3.55 0.958-6.37 1.12-6.98 0.0774-0.287 0.371-0.398 0.585-0.22 0.0875 0.0727 0.17 0.0745 0.297 7e-3 0.0965-0.0516 0.317-0.0939 0.49-0.0939s0.393-0.049 0.489-0.109l0.174-0.109 0.174 0.109c0.256 0.16 0.435 0.134 0.622-0.0887l0.166-0.198 0.0557 0.198c0.0628 0.223 0.53 0.283 0.72 0.0922 0.0803-0.0803 0.174-0.0817 0.391-6e-3 0.157 0.0548 0.513 0.0855 0.79 0.0684l0.505-0.0312v0.169c0 0.206 0.313 0.225 0.566 0.0343 0.24-0.182 0.575-0.167 0.579 0.0247 0.0029 0.161 0.234 0.52 0.293 0.455 0.0414-0.0455 0.285-1.56 0.806-5 0.617-4.08 0.671-4.15 3.21-4.52 1.68-0.244 2.3-0.154 2.57 0.378l0.128 0.247-0.0772 0.783c-0.1 1.02-0.641 4.9-1.49 10.7-0.896 6.12-0.715 5.82-3.78 6.15-0.749 0.0794-1.42 0.163-1.49 0.186l-0.125 0.0412 0.301 0.301 0.634-0.0247c3.66-0.143 4.02-0.43 4.5-3.55 0.121-0.788 0.32-2.03 0.443-2.75 0.349-2.07 0.474-2.85 0.568-3.53 0.123-0.892 0.178-1.01 0.49-1.03l0.263-0.0207 0.386 0.563 0.284-0.0103c0.156-6e-3 0.323-0.0339 0.372-0.0627 0.0483-0.0288 0.315-0.0799 0.593-0.114l0.505-0.0612 0.053 0.138c0.0335 0.0874 0.161 0.138 0.346 0.138 0.2 0 0.335 0.0598 0.425 0.189 0.089 0.127 0.22 0.187 0.399 0.182 0.146-4e-3 0.287 0.0255 0.312 0.066 0.025 0.0405 0.292 0.0515 0.594 0.0246l0.549-0.049 0.345-0.294c0.429-0.366 0.69-0.373 1.01-0.0284l0.243 0.266 0.192-1.17c0.106-0.641 0.252-1.6 0.325-2.13 0.0732-0.531 0.191-1.28 0.262-1.67 0.399-2.17 0.759-5.02 0.806-6.37l0.0495-1.45-0.141-0.68c-0.556-2.68-2.52-3.61-7.08-3.33-10.1 0.614-12.7 2.18-14 8.26-0.277 1.31-1.86 12.3-2.74 19-0.222 1.69-0.0503 3.44 0.426 4.33 0.144 0.271 0.178 0.098 0.0584-0.306zm44.1-3.5c-0.218-0.839 0.0252-4.46 0.385-5.75l0.0734-0.263 0.345-0.0631c0.332-0.0607 1.04-0.169 3.02-0.463 0.507-0.075 1.22-0.194 1.58-0.264s0.85-0.154 1.08-0.185l0.424-0.058 0.0952-0.209c0.136-0.298 0.0562-0.329-0.566-0.221-0.304 0.0529-1.07 0.177-1.69 0.276-0.628 0.0987-1.62 0.257-2.2 0.352-0.58 0.0948-1.38 0.22-1.78 0.278-0.867 0.126-0.855 0.111-0.973 1.22-0.0482 0.455-0.154 1.32-0.234 1.92-0.213 1.59-0.0702 3.09 0.357 3.75 0.204 0.312 0.224 0.235 0.0801-0.318zm-68.6-1.96c0.0264-0.109 0.0742-0.435 0.106-0.725l0.0582-0.527-0.426-0.206c-2.1-1.01-4.13-3.21-4.91-5.3-0.233-0.631-0.254-0.632-1.24-0.0547-0.489 0.286-1.36 0.736-1.93 1-1.28 0.589-1.28 0.601-0.0385 0.977 2.92 0.883 5.58 2.45 7.51 4.41 0.657 0.669 0.791 0.735 0.866 0.426zm78.8-2.09c1.73-0.178 2.37-0.938 2.4-2.85 6e-3 -0.436-0.304-1.17-0.351-0.832-0.0101 0.0725-0.0863 0.578-0.169 1.12l-0.151 0.992-0.257 0.355c-0.165 0.228-0.42 0.429-0.712 0.563l-0.455 0.208-1.38 0.106c-0.761 0.0582-1.38 0.137-1.38 0.175 0 0.261 0.91 0.321 2.46 0.162zm-32.5-5.86 0.0104-0.201-0.376 0.35 0.241 0.579 0.057-0.263c0.0313-0.145 0.0617-0.354 0.0674-0.465zm29.6-1.08c-0.275-0.229-0.205-0.28 0.406-0.298 0.279-8e-3 0.592-0.0688 0.696-0.135l0.188-0.12 0.292 0.142c0.203 0.0983 0.325 0.114 0.4 0.0521 0.0593-0.0492 0.191-0.0632 0.292-0.0311 0.102 0.0323 0.241 0.0112 0.311-0.047l0.127-0.105 0.22 0.144c0.121 0.0793 0.22 0.191 0.22 0.248 0 0.0781 0.0257 0.0776 0.105-2e-3 0.148-0.148 0.422-0.131 0.422 0.0264 0 0.179 0.147 0.166 0.254-0.022l0.0873-0.154 0.179 0.11c0.269 0.165 0.445 0.135 0.445-0.0761v-0.186l0.184 0.0482c0.101 0.0265 0.276 7e-3 0.387-0.0442 0.157-0.0714 0.249-0.0601 0.406 0.0498 0.219 0.153 0.691 0.194 0.691 0.0603 0-0.13 0.359-0.209 0.466-0.102 0.148 0.148 0.588 0.121 0.588-0.0355v-0.132l0.748 0.0321c0.572 0.0245 0.79 0.0702 0.927 0.194l0.179 0.162 0.366-0.228 0.413 0.221 0.333-0.302 0.785 0.0159c1.17 0.0237 1.36-0.152 0.986-0.896-0.123-0.241-0.223-0.339-0.311-0.305-0.0713 0.0273-0.148 7.4e-4 -0.171-0.0591-0.0271-0.0707-0.177-0.0981-0.428-0.0781l-0.387 0.0308-0.101-0.189c-0.145-0.27-0.0317-0.706 0.183-0.706h0.171l-0.149-0.228c-0.219-0.335-1.94-1.16-5.91-2.82-0.411-0.172-1.06-0.451-1.45-0.62-0.386-0.169-0.818-0.322-0.96-0.34-0.943-0.12-1.39-1.14-1.16-2.65 0.29-1.88 0.838-2.28 3.35-2.44l0.883-0.0587 0.285 0.147c0.38 0.196 0.628 0.622 0.628 1.08 3.3e-4 0.371-0.222 2.26-0.312 2.65l-0.0481 0.208 0.246-0.0484c1.15-0.227 1.8-0.339 3.12-0.538 0.835-0.126 1.85-0.286 2.27-0.356 0.411-0.0693 0.89-0.148 1.06-0.175l0.318-0.0494 0.28-1.73c0.779-4.82 0.37-6.59-1.75-7.55-2.5-1.13-10.1-0.635-13.3 0.869l-0.737 0.351-0.72 0.716c-1.51 1.51-1.84 2.51-2.64 8.01l-0.408 2.81 0.0522 0.709c0.086 1.17 0.654 2.41 0.977 2.14 0.135-0.112 0.435 0.207 0.365 0.389-0.0307 0.08 0.0564 0.221 0.224 0.362l0.274 0.231 0.27-0.0494c0.318-0.0581 0.458 0.013 0.502 0.255 0.0384 0.21 0.774 0.6 1.12 0.591 0.129-3e-3 0.441-0.0339 0.695-0.068 0.323-0.0435 0.501-0.0288 0.595 0.0492l0.134 0.111-0.261 0.398 0.107 0.0843c0.0973 0.077 1.01 0.447 1.12 0.451 0.0241 9.1e-4 -0.0506-0.0771-0.166-0.173zm23-6.03c0.581-0.374 1.24-0.791 1.47-0.927 0.511-0.306 0.467-0.346-0.625-0.581-1.11-0.238-3.11-0.89-4.08-1.33-0.948-0.428-0.959-0.401-0.167 0.422 0.765 0.795 1.45 1.71 1.79 2.39 0.434 0.872 0.301 0.87 1.62 0.022zm-103-2.35c0.173-0.315 0.493-0.843 0.711-1.17 0.565-0.857 0.683-0.801-1.67-0.801-1.24 0-2.06 0.0332-2.06 0.083 0 0.0457 0.385 0.417 0.856 0.825 0.471 0.408 1.05 0.944 1.29 1.19 0.54 0.556 0.495 0.562 0.873-0.124zm4.31-2.59c0.113-0.183 1.88-1.37 2.68-1.81 0.776-0.42 2.5-1.01 3.69-1.27l0.395-0.0847-0.652 0.0437c-1.45 0.0971-2.97 0.675-4.62 1.76-0.687 0.451-2.12 1.71-1.74 1.53 0.106-0.0507 0.217-0.131 0.246-0.179zm10.3-4.26c0.459-0.114 0.981-0.231 1.16-0.261l0.327-0.0535 0.0933-0.37c1.04-4.13 4.24-7.2 8.76-8.42l1.04-0.279 3.86-6e-3 1.05 0.282c1.13 0.302 2.46 0.896 3.48 1.56 0.732 0.474 0.672 0.502 0.776-0.364 0.279-2.33 1.26-4.53 2.96-6.65 0.674-0.836 0.676-0.769-0.0425-1.17-1.41-0.777-2.59-1.63-3.94-2.82-0.793-0.703-0.744-0.717-1.25 0.352-4.41 9.35-11.4 11.5-19.5 6.08-0.768-0.513-1.42-0.912-1.44-0.885-0.0264 0.0264 0.0765 0.551 0.229 1.17 1.08 4.38 0.913 7.68-0.568 10.9-0.377 0.825-0.439 0.738 0.634 0.898 0.482 0.0721 0.975 0.171 1.1 0.219 0.121 0.0483 0.279 0.0677 0.351 0.0432 0.0725-0.0245 0.507-0.138 0.966-0.252zm3.57-0.814c0.0528-0.0355 0.308-0.418 0.566-0.849 2.58-4.3 8.02-6.82 12.6-5.84 0.454 0.0959 0.889 0.171 0.966 0.167 0.329-0.0168-0.552-0.288-1.74-0.536l-1.28-0.267-1.05 0.0506c-4.02 0.193-7.34 2.05-9.53 5.33-0.941 1.41-1.23 2.4-0.565 1.95zm76.2-3.5c0.627-2.62 1.74-5.05 3.56-7.74 0.552-0.818 0.543-0.824-0.605-0.435-0.52 0.176-1.42 0.426-2 0.554l-1.05 0.233-2.9 0.078-0.835-0.172c-3.64-0.751-5.88-3.48-6.31-7.7-0.116-1.13-0.165-1.16-0.734-0.328-2.31 3.36-6.59 7.04-9.97 8.58-0.76 0.346-0.845 0.482-0.301 0.482 0.805 0 1.8 0.413 2.48 1.03l0.341 0.308 0.461-0.352c6.41-4.9 14.6-2.39 14.6 4.46v0.51l0.154 0.0446c0.0845 0.0245 0.33 0.0903 0.546 0.146 0.447 0.116 1.39 0.58 1.85 0.908 0.425 0.305 0.457 0.276 0.669-0.611zm-58.2-2.17c-0.0011-0.548 0.875-2.91 1.47-3.97 2.34-4.16 6.19-6.82 9.84-6.82 0.996-2e-4 0.99-0.048-0.0224-0.163-4.5-0.512-9.82 3.88-11.2 9.21-0.251 1-0.377 2.08-0.233 1.99 0.0528-0.0326 0.0957-0.146 0.0955-0.252zm34.9-2.6c0.151-0.0903 0.462-0.234 0.693-0.32 0.231-0.0857 0.406-0.169 0.39-0.185-0.0945-0.0945-1.56 0.462-1.56 0.592 0 0.123 0.177 0.09 0.473-0.0872zm7.78-0.758c0.14-0.0726 0.595-0.255 1.01-0.405 0.86-0.311 0.965-0.446 0.127-0.164-0.538 0.181-1.6 0.689-1.46 0.697 0.0386 2e-3 0.185-0.0552 0.326-0.128zm-21.8-4.86c0-0.0223-0.332-0.385-0.738-0.806-2.14-2.22-4.21-5.85-5.45-9.52-0.0819-0.244-0.152-0.147-0.918 1.28-0.799 1.48-1.57 2.74-2.41 3.9-0.713 0.994-0.709 1.05 0.0836 1.12 2.96 0.276 5.77 2.84 6.57 5.99 0.0864 0.338 0.172 0.642 0.19 0.675 0.0311 0.0566 2.66-2.55 2.66-2.64zm1.49 1.14c1.13-0.658 2.72-1.31 3.6-1.48 0.925-0.176 2.52-0.319 2.94-0.263l0.351 0.0471-0.22-0.104c-0.135-0.0635-0.661-0.103-1.36-0.101l-1.14 2e-3 -1.01 0.29c-1.79 0.516-4.25 1.83-4.98 2.66-0.0978 0.111 0.0511 0.0437 0.36-0.163 0.29-0.194 0.942-0.594 1.45-0.889zm36.6 53c-2.01-2.72-2.02-2.76-0.501-1.42 1.93 1.7 2.59 2.33 2.59 2.45 0 0.117-0.602 0.743-0.716 0.745-0.0315 4.1e-4 -0.648-0.8-1.37-1.78zm3.71-0.257c-1.7-1.49-6.1-5.55-6.1-5.62 0-0.0849 0.333 0.0954 1.01 0.546 0.193 0.129 1.6 1.02 3.12 1.97 3.2 2.01 3.78 2.39 3.78 2.5 0 0.162-0.89 1.14-1.04 1.14-0.0828-8.4e-4 -0.427-0.244-0.765-0.541zm-102-2.23c-0.596-0.559-0.765-0.419 2.99-2.47 1.77-0.971 2.16-1.08 1.35-0.392-0.262 0.224-1.21 1.05-2.11 1.83-1.86 1.63-1.68 1.54-2.23 1.03zm-5.07-1.89c-0.0549-0.103-0.192-0.459-0.306-0.792l-0.206-0.605 0.193-0.121c0.171-0.107 1.46-0.436 6.81-1.73 2.37-0.575 2.26-0.508-3.02 1.93-3.66 1.69-3.33 1.57-3.47 1.32zm10.8-36.7c-0.29-0.113-1.87-0.767-3.51-1.45-1.64-0.687-3.04-1.27-3.1-1.29-0.27-0.108 0.376-1.66 0.66-1.59 0.182 0.0479 5.9 3.91 6.34 4.28 0.371 0.313 0.296 0.324-0.395 0.0543zm-2.11-5.77c-2.44-2.44-4.44-4.49-4.44-4.56 0-0.155 1.51-1.48 1.69-1.48 0.0681 0 0.32 0.287 0.561 0.637 0.736 1.07 5.47 7.88 6.01 8.64 1.32 1.86 1.02 1.61-3.82-3.23zm19.8-9.91c-0.478-0.671-2.21-3.16-3.13-4.5l-0.645-0.939 0.107-0.129c0.206-0.248 1.09-0.69 1.22-0.609 0.067 0.0423 0.291 0.472 0.498 0.955 0.207 0.483 0.703 1.63 1.1 2.55 1.24 2.85 1.32 3.05 1.29 3.15-0.0175 0.0526-0.215-0.161-0.438-0.475zm2.25-0.131c-0.298-0.581-3.44-7.39-4.72-10.2-1.29-2.86-1.48-3.34-1.39-3.43 0.141-0.141 2.58-1.06 2.74-1.03 0.205 0.0389 0.0267-0.654 2.08 8.06 0.415 1.76 0.952 4.03 1.19 5.04 0.487 2.04 0.509 2.37 0.107 1.59zm70.4-0.492c1.29-1.37 7.05-6.66 7.24-6.67 0.275-1e-3 1.22 1.24 1.22 1.6 0 0.193-0.15 0.29-3.86 2.51-1.62 0.966-3.34 2-3.82 2.29-0.977 0.603-1.17 0.667-0.789 0.267zm-3.21-0.652c-3e-3 -0.181 3.87-6.5 4.29-6.99 0.161-0.19 0.363-0.384 0.449-0.429l0.156-0.0833 0.587 0.406c0.408 0.282 0.579 0.454 0.561 0.563-0.0391 0.234-6.04 6.72-6.04 6.53z" fill="#ab0cfa"/><path d="m107 185c-2.16-6.53-3.69-9.46-6.23-11.9l-0.667-0.644-0.272 0.205c-4.6 3.47-10.1 3.77-13.8 0.757l-0.667-0.537-0.584 0.287c-3.1 1.52-7 4.77-11 9.18-0.574 0.628-1.1 1.16-1.17 1.17l-0.131 0.031 0.0586-0.69c0.286-3.36 0.338-4.24 0.341-5.74 0.0149-7.09-3.47-10.3-9.18-8.42-2.2 0.715-4.55 2.21-8.84 5.6-1.5 1.18-1.5 1.15-0.131-1.17 2.68-4.54 4.22-7.68 5.09-10.4 0.38-1.17 0.382-1.06-0.0374-1.92-0.753-1.53-1.05-4.69-0.569-5.96 0.108-0.282-1.57-2.2-2.81-3.22-2.47-2.02-5.6-3.29-10.1-4.12-2-0.368-1.99-0.308-0.143-0.96 2.72-0.959 5.65-2.31 7.01-3.24l0.609-0.415 0.014-2.06 0.014-2.06 0.437-1.8-0.159-0.242c-0.496-0.758-3.17-3.19-5.63-5.11-0.519-0.407-0.944-0.796-0.944-0.865v-0.125l0.549 0.0535c3.04 0.297 7.48 0.373 9.18 0.158l0.904-0.114 0.869-0.675c1.37-1.07 2.67-1.72 4.31-2.17 0.455-0.124 0.924-0.254 1.04-0.289 0.452-0.134 1.45-2.44 1.82-4.23l0.157-0.747-0.0114-3.86-0.234-1.11c-0.402-1.91-1.13-4.11-2.22-6.74-0.788-1.89-0.811-1.88 0.878-0.465 6.24 5.24 10.1 6.93 13.9 6.12 3.69-0.786 6.09-3.39 8.97-9.73 0.28-0.616 0.547-1.12 0.594-1.12 0.0468 0 0.629 0.529 1.29 1.18 1.84 1.79 3.47 2.97 5.16 3.76 0.885 0.41 0.868 0.41 1.47 0.0247 0.809-0.517 1.98-1.07 2.87-1.36l0.836-0.271 0.439-0.5c2.01-2.29 3.7-5.14 5.74-9.7 0.414-0.926 0.502-0.985 0.667-0.454 0.688 2.21 0.929 2.94 1.42 4.25 1.31 3.56 2.86 6.2 4.84 8.27 1.03 1.07 0.984 1.06 1.87 0.655 3.95-1.8 7.84-1.11 9.88 1.76 0.402 0.563 0.993 1.79 0.995 2.06 5.9e-4 0.0786 0.0569 0.189 0.125 0.246l0.124 0.103 0.864-0.323c2.86-1.07 5.5-2.86 7.98-5.41 1.81-1.86 2.96-3.32 5.88-7.48 0.733-1.04 0.789-1.06 0.719-0.176-0.345 4.31-0.107 6.79 0.833 8.71l0.447 0.913 0.671 0.675c0.75 0.755 1.31 1.1 2.34 1.47l0.703 0.246 3.25 4e-3 0.966-0.206c1.85-0.395 3.9-1.17 6.73-2.56 1.38-0.674 1.53-0.693 1.11-0.139-4.75 6.24-6.49 9.53-7.18 13.6l-0.19 1.13 0.353 0.586c0.496 0.823 0.929 1.79 1.17 2.61l0.204 0.7 0.615 0.622c1.75 1.77 4.75 3.01 9.7 4.03 1.77 0.363 1.82 0.39 1.31 0.687-0.21 0.121-1.05 0.603-1.88 1.07-1.65 0.942-3.54 2.18-4.09 2.67l-0.352 0.318 0.134 0.689c1.04 5.35-1.94 10.6-7.4 13l-0.816 0.36-0.283 0.703c-1.03 2.55-2.77 4.18-5.5 5.14l-0.926 0.326-0.0583 0.208c-0.108 0.386-0.0766 2.08 0.0578 3.11 0.386 2.94 1.46 5.8 4.05 10.8 0.804 1.56 1.02 2.05 0.874 2.05-0.0216 0-0.842-0.509-1.82-1.13-4.97-3.15-8.4-4.74-11.6-5.39l-0.981-0.197-1.41-2e-3c-4.01-7e-3 -6.28 1.77-7.88 6.14-0.365 0.998-0.233 1.01-1.84-0.196-2.37-1.78-4.08-2.68-5.53-2.92l-0.676-0.112-0.685 0.106c-3.26 0.506-6.11 4.73-8.28 12.3-0.172 0.597-0.309 0.781-0.393 0.527zm0.48-6.32c1.28-3.26 3.4-6.23 5.25-7.35 0.497-0.301 0.472-0.396-0.0878-0.325-3.46 0.442-7.11-0.57-8.98-2.49-0.453-0.464-0.496-0.454-0.8 0.186-0.142 0.298-0.546 0.978-0.899 1.51l-0.642 0.969 0.565 0.531c1.69 1.59 3.57 4.5 4.76 7.36 0.326 0.786 0.38 0.76 0.834-0.395zm-32.3-0.483c2.11-2.34 6.39-5.6 8.67-6.61 0.438-0.194 0.439-0.198 0.153-0.845-0.256-0.58-0.481-1.4-0.483-1.76-7.4e-4 -0.138-0.0354-0.305-0.077-0.37l-0.0757-0.119-0.578 0.276c-2.07 0.99-4.43 0.804-6.35-0.501-0.63-0.428-1.8-1.64-2.04-2.11-0.241-0.472-0.156-0.458-1.59-0.273-5.75 0.741-8.71 0.297-10.7-1.6-0.765-0.739-0.746-0.74-1.05 0.0368-0.486 1.26-0.954 2.33-1.51 3.44-0.721 1.44-0.708 1.49 0.234 0.924 2.35-1.42 4.49-2.14 6.59-2.24l1.01-0.0476 0.861 0.178c4.05 0.84 6.36 4.76 6.29 10.7-0.0088 0.725-0.0116 1.35-0.0063 1.38 0.0229 0.156 0.196 0.034 0.624-0.439zm48.3-5.27c1.22-3.06 3.57-5.03 6.67-5.57l0.969-0.17 1.49 0.0466c0.821 0.0256 1.73 0.102 2.02 0.17 2.94 0.688 5.25 1.61 8.18 3.27 1.31 0.746 1.29 0.763 0.694-0.525-1.38-2.97-2.24-6.41-2.24-8.94-4.7e-4 -1.2 0.0379-1.16-0.92-1.03-0.859 0.12-0.779 0.0546-1.32 1.09-3.26 6.25-11.4 7.29-15.5 2.01-0.549-0.698-0.461-0.743-1.08 0.551-1.23 2.57-3.2 4.53-6.02 5.97l-0.834 0.427 0.834 0.0586c1.78 0.125 4.05 1.2 6.1 2.87 0.606 0.496 0.683 0.478 0.963-0.227zm-62.4-13.6c-0.274-1.21-0.188-2.35 0.519-6.91 0.075-0.483 0.177-1.17 0.227-1.54 0.114-0.834 0.644-3.97 0.876-5.18 0.0969-0.507 0.205-1.08 0.239-1.27 0.0462-0.255 0.111-0.358 0.239-0.378 0.0965-0.0152 0.263-0.0711 0.37-0.124 0.148-0.0735 0.228-0.0685 0.336 0.0209l0.141 0.117 0.315-0.17c0.18-0.0968 0.329-0.132 0.346-0.0822 0.129 0.37 0.379 0.372 0.379 4e-3 0-0.25 0.154-0.318 0.566-0.252l0.312 0.0507v-0.146c0-0.208 0.224-0.266 0.533-0.138l0.266 0.11 0.429-0.229 0.447 0.203 0.041-0.131c0.0225-0.0722 0.0612-0.195 0.0859-0.273 0.0311-0.0981 0.0784-0.116 0.154-0.0566 0.198 0.155 0.495 0.183 0.599 0.0574 0.056-0.0675 0.18-0.123 0.275-0.123 0.0953 0 0.286-0.0803 0.424-0.178 0.172-0.123 0.321-0.161 0.475-0.122l0.224 0.0562 0.01 0.276c0.0135 0.371 0.376-1.48 0.652-3.32 0.462-3.09 0.878-3.46 4.23-3.7l0.808-0.0585 0.232 0.152c0.127 0.0835 0.304 0.316 0.392 0.518l0.16 0.366-0.0768 0.439c-0.0423 0.242-0.14 0.953-0.217 1.58-0.0771 0.628-0.357 2.56-0.623 4.3-0.54 3.54-1.14 7.54-1.28 8.61-0.178 1.32-0.566 2.03-1.24 2.28-0.387 0.142-2.75 0.491-3.33 0.491-0.374 0-0.414 0.0756-0.161 0.304l0.172 0.156 1.51-0.152c1.99-0.2 2.47-0.373 2.96-1.05l0.257-0.358 0.187-1.14c0.103-0.627 0.269-1.65 0.369-2.28s0.339-2.07 0.53-3.21c0.191-1.14 0.385-2.32 0.43-2.63 0.165-1.14 0.269-1.33 0.414-0.768l0.0739 0.285 0.733 0.016 0.282-0.43 0.259 0.0518c0.144 0.0289 0.335 4e-3 0.431-0.0557 0.132-0.0823 0.21-0.0835 0.336-5e-3 0.182 0.113 0.823 0.0682 1.13-0.0794 0.123-0.0595 0.379-0.0688 0.703-0.0252 0.667 0.0898 1.71 0.0556 1.85-0.0606 0.0782-0.0649 0.151-0.0581 0.25 0.0234 0.104 0.0861 0.178 0.0909 0.293 0.0188 0.241-0.15 0.414 2e-3 0.297 0.26-0.0526 0.115-0.073 0.326-0.0452 0.467 0.0677 0.346 0.221-0.504 0.99-5.5 0.979-6.36 0.921-7.44-0.486-9.06l-0.51-0.588-0.536-0.224c-1.65-0.689-3.57-0.73-8.05-0.174-5.45 0.676-7.53 1.6-9.17 4.06-1.25 1.88-1.51 3.02-2.91 12.6-0.663 4.53-1.43 9.61-1.54 10.2-0.0494 0.266-0.113 0.997-0.14 1.62l-0.0506 1.14 0.142 0.599c0.149 0.628 0.488 1.5 0.557 1.43 0.0222-0.0222-0.0227-0.318-0.0998-0.657zm2.09-16c-0.029-0.0756-0.026-0.244 0.0067-0.374l0.0594-0.237 0.0804 0.127c0.108 0.17 0.105 0.499-0.0053 0.567-0.0486 0.0301-0.112-7e-3 -0.141-0.0828zm43.3 15.3c0.0934-0.05 0.169-0.178 0.168-0.285-7.8e-4 -0.107 0.0598-0.57 0.135-1.03 0.0748-0.459 0.372-2.49 0.66-4.52 0.288-2.03 0.644-4.42 0.792-5.31 0.147-0.894 0.324-2.02 0.392-2.5 0.369-2.61 0.37-2.61 0.81-2.45 0.414 0.148 0.921 0.158 1.06 0.0217 0.0799-0.0799 0.195-0.0384 0.499 0.18l0.395 0.284 0.631-0.118-0.0566 0.32 0.379 0.0768c0.403 0.0818 0.659-0.0239 0.577-0.238-0.0648-0.169 0.417-0.239 0.588-0.0853 0.194 0.174 0.267 0.159 0.658-0.137 0.406-0.307 0.565-0.332 0.565-0.0903 0 0.111 0.0585 0.176 0.158 0.176 0.087 0 0.201 0.0432 0.254 0.096 0.0694 0.0694 0.146 0.0694 0.275 0 0.0986-0.0528 0.422-0.096 0.718-0.096 0.76 0 1.14-0.219 0.936-0.544l-0.102-0.164 0.131-0.0815c0.072-0.0448 0.349-0.106 0.615-0.136 0.266-0.0301 0.549-0.0726 0.628-0.0945 0.146-0.0401 0.426 0.173 0.426 0.324 0 0.0449-0.138 0.0815-0.307 0.0815h-0.307v0.351h0.27c0.148 0 0.329 0.0596 0.402 0.133 0.0729 0.0729 0.169 0.11 0.213 0.0826 0.109-0.0671 0.103-0.303-7e-3 -0.303-0.0483 0-0.0878-0.0593-0.0878-0.132 0-0.0878 0.0878-0.132 0.263-0.132 0.2 0 0.263 0.0401 0.263 0.166 0 0.104 0.0822 0.187 0.22 0.221 0.121 0.0303 0.22 0.0967 0.22 0.148 0 0.0508 0.0621 0.0303 0.138-0.0456 0.0759-0.0759 0.211-0.138 0.301-0.138 0.0896 0 0.245-0.105 0.346-0.232l0.183-0.232 0.153 0.126c0.0841 0.0695 0.252 0.169 0.372 0.222 0.121 0.0523 0.338 0.147 0.483 0.21 0.145 0.0631 0.402 0.167 0.571 0.23l0.307 0.115 0.31-0.373 0.415 0.0468c0.228 0.0258 0.485 0.01 0.57-0.0357 0.0982-0.0525 0.215-0.0501 0.321 7e-3 0.126 0.0676 0.179 0.0577 0.217-0.0408 0.0648-0.169 0.267-0.166 0.41 5e-3 0.078 0.0939 0.0844 0.164 0.0209 0.227-0.107 0.107-0.0406 0.449 0.0738 0.378 0.0428-0.0265 0.0778-0.124 0.0778-0.217v-0.169l0.226 0.103c0.174 0.0795 0.265 0.0786 0.397-4e-3 0.121-0.0756 0.22-0.0806 0.339-0.0171 0.284 0.152 0.33 0.11 0.602-0.547 0.588-1.42 0.86-2.58 1.6-6.83 0.671-3.86 0.802-4.85 0.801-6.04l-1e-3 -1.08-0.39-1.31-0.477-0.544c-1.25-1.43-3.26-1.7-8.23-1.11-2.44 0.288-9.37 1.3-9.45 1.38-0.0692 0.0716-0.296 1.64-1.62 11.2-0.414 2.99-1.03 7.4-1.36 9.79-0.334 2.39-0.651 4.68-0.704 5.09-0.0534 0.411-0.253 1.84-0.443 3.17-0.19 1.33-0.346 2.45-0.346 2.48 0 0.0825 0.167 0.0655 0.357-0.0363zm9.79-17-0.168-0.169 0.108-0.769c0.0594-0.423 0.319-2.13 0.577-3.8 0.258-1.67 0.494-3.21 0.525-3.44 0.0829-0.603 0.215-0.65 2.44-0.87l1.03-0.101 0.335 0.164c0.211 0.103 0.389 0.277 0.48 0.471l0.145 0.307-0.115 0.834c-0.233 1.69-0.939 5.33-1.11 5.71-0.372 0.841-0.648 0.993-2.23 1.22-1.13 0.165-1.62 0.329-1.62 0.535 0 0.139-0.206 0.0887-0.388-0.0941zm-32 15.8c-0.147-0.5-0.153-2.97-0.0096-3.9 0.0599-0.386 0.269-1.83 0.465-3.21 0.505-3.55 0.958-6.37 1.12-6.98 0.0774-0.287 0.371-0.398 0.585-0.22 0.0875 0.0727 0.17 0.0745 0.297 7e-3 0.0965-0.0516 0.317-0.0939 0.49-0.0939s0.393-0.049 0.489-0.109l0.174-0.109 0.174 0.109c0.256 0.16 0.435 0.134 0.622-0.0887l0.166-0.198 0.0557 0.198c0.0628 0.223 0.53 0.283 0.72 0.0922 0.0803-0.0803 0.174-0.0817 0.391-6e-3 0.157 0.0548 0.513 0.0855 0.79 0.0684l0.505-0.0312v0.169c0 0.206 0.313 0.225 0.566 0.0343 0.24-0.182 0.575-0.167 0.579 0.0247 0.0029 0.161 0.234 0.52 0.293 0.455 0.0414-0.0455 0.285-1.56 0.806-5 0.617-4.08 0.671-4.15 3.21-4.52 1.68-0.244 2.3-0.154 2.57 0.378l0.128 0.247-0.0772 0.783c-0.1 1.02-0.641 4.9-1.49 10.7-0.896 6.12-0.715 5.82-3.78 6.15-0.749 0.0794-1.42 0.163-1.49 0.186l-0.125 0.0412 0.301 0.301 0.634-0.0247c3.66-0.143 4.02-0.43 4.5-3.55 0.121-0.788 0.32-2.03 0.443-2.75 0.349-2.07 0.474-2.85 0.568-3.53 0.123-0.892 0.178-1.01 0.49-1.03l0.263-0.0207 0.386 0.563 0.284-0.0103c0.156-6e-3 0.323-0.0339 0.372-0.0627 0.0483-0.0288 0.315-0.0799 0.593-0.114l0.505-0.0612 0.053 0.138c0.0335 0.0874 0.161 0.138 0.346 0.138 0.2 0 0.335 0.0598 0.425 0.189 0.089 0.127 0.22 0.187 0.399 0.182 0.146-4e-3 0.287 0.0255 0.312 0.066 0.025 0.0405 0.292 0.0515 0.594 0.0246l0.549-0.049 0.345-0.294c0.429-0.366 0.69-0.373 1.01-0.0284l0.243 0.266 0.192-1.17c0.106-0.641 0.252-1.6 0.325-2.13 0.0732-0.531 0.191-1.28 0.262-1.67 0.399-2.17 0.759-5.02 0.806-6.37l0.0495-1.45-0.141-0.68c-0.556-2.68-2.52-3.61-7.08-3.33-10.1 0.614-12.7 2.18-14 8.26-0.277 1.31-1.86 12.3-2.74 19-0.222 1.69-0.0503 3.44 0.426 4.33 0.144 0.271 0.178 0.098 0.0584-0.306zm44.1-3.5c-0.218-0.839 0.0252-4.46 0.385-5.75l0.0734-0.263 0.345-0.0631c0.332-0.0607 1.04-0.169 3.02-0.463 0.507-0.075 1.22-0.194 1.58-0.264s0.85-0.154 1.08-0.185l0.424-0.058 0.0952-0.209c0.136-0.298 0.0562-0.329-0.566-0.221-0.304 0.0529-1.07 0.177-1.69 0.276-0.628 0.0987-1.62 0.257-2.2 0.352-0.58 0.0948-1.38 0.22-1.78 0.278-0.867 0.126-0.855 0.111-0.973 1.22-0.0482 0.455-0.154 1.32-0.234 1.92-0.213 1.59-0.0702 3.09 0.357 3.75 0.204 0.312 0.224 0.235 0.0801-0.318zm-2.09-0.892c-0.0302-0.151-0.0602-0.536-0.0666-0.856l-0.0117-0.582-0.0581 0.416c-0.0348 0.25-0.122 0.463-0.219 0.534l-0.161 0.117 0.208 0.322c0.256 0.395 0.38 0.415 0.307 0.0493zm-0.699-0.742c0.0824 0.0316 0.0552-0.0452-0.0736-0.208-0.217-0.274-0.416-0.325-0.693-0.177-0.242 0.129-0.21 0.238 0.0875 0.303 0.142 0.0311 0.31 0.119 0.373 0.196l0.116 0.14 0.0296-0.152c0.0182-0.0932 0.0801-0.133 0.16-0.102zm-65.8-0.323c0.0264-0.109 0.0742-0.435 0.106-0.725l0.0582-0.527-0.426-0.206c-2.1-1.01-4.13-3.21-4.91-5.3-0.233-0.631-0.254-0.632-1.24-0.0547-0.489 0.286-1.36 0.736-1.93 1-1.28 0.589-1.28 0.601-0.0385 0.977 2.92 0.883 5.58 2.45 7.51 4.41 0.657 0.669 0.791 0.735 0.866 0.426zm78.8-2.09c1.73-0.178 2.37-0.938 2.4-2.85 6e-3 -0.436-0.304-1.17-0.351-0.832-0.0101 0.0725-0.0863 0.578-0.169 1.12l-0.151 0.992-0.257 0.355c-0.165 0.228-0.42 0.429-0.712 0.563l-0.455 0.208-1.38 0.106c-0.761 0.0582-1.38 0.137-1.38 0.175 0 0.261 0.91 0.321 2.46 0.162zm-78.3-1.91c0.214-1.27 0.91-5.59 1.11-6.92 0.912-5.93 1.36-7.53 2.74-9.65 0.532-0.824 1.79-2.07 2.44-2.42l0.522-0.278-0.878 0.0437c-4.2 0.209-8.34 3.6-9.84 8.06-1.05 3.12-0.977 5.52 0.267 8.45 0.53 1.25 2.82 3.84 3.39 3.84 0.0331 0 0.145-0.504 0.249-1.12zm93.2-1.38c0.853-0.455 1.71-0.97 1.9-1.14 0.193-0.174 0.467-0.34 0.608-0.368l0.258-0.0515 0.172-0.459c1.22-3.25 5e-3 -7.78-2.69-10l-0.44-0.369-0.155 0.588c-0.152 0.575-0.199 0.899-0.392 2.69-0.12 1.11-0.183 1.21-0.891 1.35-0.308 0.0621-0.995 0.207-1.53 0.323-0.531 0.116-1.13 0.236-1.34 0.267-0.353 0.0536-0.466 0.149-0.298 0.253 0.0416 0.0257 0.198 0.304 0.349 0.618 0.15 0.314 0.376 0.661 0.503 0.771 1.04 0.902 1.97 2.92 1.97 4.29 8.4e-4 0.272 0.0644 0.618 0.142 0.773 0.0773 0.155 0.162 0.517 0.188 0.804 0.026 0.287 0.0574 0.522 0.0697 0.522s0.72-0.373 1.57-0.828zm-22.3-1.25 0.198-0.053v-0.297c0-0.396-0.132-0.375-0.351 0.0542-0.186 0.364-0.176 0.384 0.154 0.296zm-25.2-1.33 0.0104-0.201-0.376 0.35 0.241 0.579 0.057-0.263c0.0313-0.145 0.0617-0.354 0.0674-0.465zm29.6-1.08c-0.275-0.229-0.205-0.28 0.406-0.298 0.279-8e-3 0.592-0.0688 0.696-0.135l0.188-0.12 0.292 0.142c0.203 0.0983 0.325 0.114 0.4 0.0521 0.0593-0.0492 0.191-0.0632 0.292-0.0311 0.102 0.0323 0.241 0.0112 0.311-0.047l0.127-0.105 0.22 0.144c0.121 0.0793 0.22 0.191 0.22 0.248 0 0.0781 0.0257 0.0776 0.105-2e-3 0.148-0.148 0.422-0.131 0.422 0.0264 0 0.179 0.147 0.166 0.254-0.022l0.0873-0.154 0.179 0.11c0.269 0.165 0.445 0.135 0.445-0.0761v-0.186l0.184 0.0482c0.101 0.0265 0.276 7e-3 0.387-0.0442 0.157-0.0714 0.249-0.0601 0.406 0.0498 0.219 0.153 0.691 0.194 0.691 0.0603 0-0.13 0.359-0.209 0.466-0.102 0.148 0.148 0.588 0.121 0.588-0.0355v-0.132l0.748 0.0321c0.572 0.0245 0.79 0.0702 0.927 0.194l0.179 0.162 0.366-0.228 0.413 0.221 0.333-0.302 0.785 0.0159c1.17 0.0237 1.36-0.152 0.986-0.896-0.123-0.241-0.223-0.339-0.311-0.305-0.0713 0.0273-0.148 7.4e-4 -0.171-0.0591-0.0271-0.0707-0.177-0.0981-0.428-0.0781l-0.387 0.0308-0.101-0.189c-0.145-0.27-0.0317-0.706 0.183-0.706h0.171l-0.149-0.228c-0.219-0.335-1.94-1.16-5.91-2.82-0.411-0.172-1.06-0.451-1.45-0.62-0.386-0.169-0.818-0.322-0.96-0.34-0.943-0.12-1.39-1.14-1.16-2.65 0.29-1.88 0.838-2.28 3.35-2.44l0.883-0.0587 0.285 0.147c0.38 0.196 0.628 0.622 0.628 1.08 3.3e-4 0.371-0.222 2.26-0.312 2.65l-0.0481 0.208 0.246-0.0484c1.15-0.227 1.8-0.339 3.12-0.538 0.835-0.126 1.85-0.286 2.27-0.356 0.411-0.0693 0.89-0.148 1.06-0.175l0.318-0.0494 0.28-1.73c0.779-4.82 0.37-6.59-1.75-7.55-2.5-1.13-10.1-0.635-13.3 0.869l-0.737 0.351-0.72 0.716c-1.51 1.51-1.84 2.51-2.64 8.01l-0.408 2.81 0.0522 0.709c0.086 1.17 0.654 2.41 0.977 2.14 0.135-0.112 0.435 0.207 0.365 0.389-0.0307 0.08 0.0564 0.221 0.224 0.362l0.274 0.231 0.27-0.0494c0.318-0.0581 0.458 0.013 0.502 0.255 0.0384 0.21 0.774 0.6 1.12 0.591 0.129-3e-3 0.441-0.0339 0.695-0.068 0.323-0.0435 0.501-0.0288 0.595 0.0492l0.134 0.111-0.261 0.398 0.107 0.0843c0.0973 0.077 1.01 0.447 1.12 0.451 0.0241 9.1e-4 -0.0506-0.0771-0.166-0.173zm23-6.03c0.581-0.374 1.24-0.791 1.47-0.927 0.511-0.306 0.467-0.346-0.625-0.581-1.11-0.238-3.11-0.89-4.08-1.33-0.948-0.428-0.959-0.401-0.167 0.422 0.765 0.795 1.45 1.71 1.79 2.39 0.434 0.872 0.301 0.87 1.62 0.022zm-103-2.35c0.173-0.315 0.493-0.843 0.711-1.17 0.565-0.857 0.683-0.801-1.67-0.801-1.24 0-2.06 0.0332-2.06 0.083 0 0.0457 0.385 0.417 0.856 0.825 0.471 0.408 1.05 0.944 1.29 1.19 0.54 0.556 0.495 0.562 0.873-0.124zm31.3-5.24c0.988-1.46 2.59-2.64 4.49-3.31 2.32-0.82 9.47-1.64 12.3-1.41l1.19 0.0977 0.922 0.304c1.38 0.456 2.35 1.15 3.07 2.21 0.429 0.629 0.405 0.674 0.667-1.25 0.0749-0.549 7e-3 -0.525 2.54-0.898 1.16-0.17 3.17-0.466 4.46-0.656s3.25-0.45 4.35-0.576l1.99-0.23 1.67 0.0447c3.02 0.0809 4.66 0.767 5.83 2.43l0.381 0.544 0.222-0.295c1.94-2.58 5.61-3.71 12.4-3.81l1.98-0.0311-0.0316-0.685c-0.164-3.56-3.37-5.73-7.52-5.08-2.6 0.408-6.12 2.25-7.85 4.12-0.228 0.245-0.534 0.308-0.534 0.109 0-0.152 0.756-1.31 1.14-1.75l0.288-0.328-0.105-0.127c-0.195-0.235-0.866-0.574-1.42-0.715l-0.546-0.14-0.637 0.0948c-1.26 0.187-2.32 0.744-2.56 1.34-0.0922 0.23-0.184 0.335-0.28 0.316l-0.142-0.0272-0.0573-1.27c-0.136-3.02-1.45-5.13-3.67-5.9-2.96-1.02-7.4 0.755-10.7 4.28-0.516 0.553-1 1.01-1.08 1.01-0.0773 2e-3 -0.313 0.22-0.524 0.483-0.734 0.917-0.834 0.537-0.19-0.72l0.437-0.854-0.126-0.545c-0.824-3.55-3.99-6.11-7.29-5.89-5.41 0.358-10.4 6.21-10.4 12.2l-0.0016 0.951-0.154-0.0295c-0.109-0.021-0.211-0.232-0.352-0.731-0.226-0.797-0.162-0.732-1.53-1.54-5.53-3.28-13.2-0.801-15.9 5.16-0.344 0.745-0.329 0.831 0.125 0.719 0.554-0.137 2.71-0.404 4.21-0.523l1.42-0.112 1.22 0.101c2.56 0.213 4.2 1.04 5.48 2.78 0.266 0.362 0.491 0.659 0.502 0.662 0.0103 2e-3 0.186-0.242 0.39-0.543zm-16.7-1.61c0.459-0.114 0.981-0.231 1.16-0.261l0.327-0.0535 0.0933-0.37c1.04-4.13 4.24-7.2 8.76-8.42l1.04-0.279 3.86-6e-3 1.05 0.282c1.13 0.302 2.46 0.896 3.48 1.56 0.732 0.474 0.672 0.502 0.776-0.364 0.279-2.33 1.26-4.53 2.96-6.65 0.674-0.836 0.676-0.769-0.0425-1.17-1.41-0.777-2.59-1.63-3.94-2.82-0.793-0.703-0.744-0.717-1.25 0.352-4.41 9.35-11.4 11.5-19.5 6.08-0.768-0.513-1.42-0.912-1.44-0.885-0.0264 0.0264 0.0765 0.551 0.229 1.17 1.08 4.38 0.913 7.68-0.568 10.9-0.377 0.825-0.439 0.738 0.634 0.898 0.482 0.0721 0.975 0.171 1.1 0.219 0.121 0.0483 0.279 0.0677 0.351 0.0432 0.0725-0.0245 0.507-0.138 0.966-0.252zm79.8-4.31c0.627-2.62 1.74-5.05 3.56-7.74 0.552-0.818 0.543-0.824-0.605-0.435-0.52 0.176-1.42 0.426-2 0.554l-1.05 0.233-2.9 0.078-0.835-0.172c-3.64-0.751-5.88-3.48-6.31-7.7-0.116-1.13-0.165-1.16-0.734-0.328-2.31 3.36-6.59 7.04-9.97 8.58-0.76 0.346-0.845 0.482-0.301 0.482 0.805 0 1.8 0.413 2.48 1.03l0.341 0.308 0.461-0.352c6.41-4.9 14.6-2.39 14.6 4.46v0.51l0.154 0.0446c0.0845 0.0245 0.33 0.0903 0.546 0.146 0.447 0.116 1.39 0.58 1.85 0.908 0.425 0.305 0.457 0.276 0.669-0.611zm-37.3-10.4c0-0.0223-0.332-0.385-0.738-0.806-2.14-2.22-4.21-5.85-5.45-9.52-0.0819-0.244-0.152-0.147-0.918 1.28-0.799 1.48-1.57 2.74-2.41 3.9-0.713 0.994-0.709 1.05 0.0836 1.12 2.96 0.276 5.77 2.84 6.57 5.99 0.0864 0.338 0.172 0.642 0.19 0.675 0.0311 0.0566 2.66-2.55 2.66-2.64zm38.1 54.2c-2.01-2.72-2.02-2.76-0.501-1.42 1.93 1.7 2.59 2.33 2.59 2.45 0 0.117-0.602 0.743-0.716 0.745-0.0315 4.1e-4 -0.648-0.8-1.37-1.78zm3.71-0.257c-1.7-1.49-6.1-5.55-6.1-5.62 0-0.0849 0.333 0.0954 1.01 0.546 0.193 0.129 1.6 1.02 3.12 1.97 3.2 2.01 3.78 2.39 3.78 2.5 0 0.162-0.89 1.14-1.04 1.14-0.0828-8.4e-4 -0.427-0.244-0.765-0.541zm-102-2.23c-0.596-0.559-0.765-0.419 2.99-2.47 1.77-0.971 2.16-1.08 1.35-0.392-0.262 0.224-1.21 1.05-2.11 1.83-1.86 1.63-1.68 1.54-2.23 1.03zm-5.07-1.89c-0.0549-0.103-0.192-0.459-0.306-0.792l-0.206-0.605 0.193-0.121c0.171-0.107 1.46-0.436 6.81-1.73 2.37-0.575 2.26-0.508-3.02 1.93-3.66 1.69-3.33 1.57-3.47 1.32zm10.8-36.7c-0.29-0.113-1.87-0.767-3.51-1.45-1.64-0.687-3.04-1.27-3.1-1.29-0.27-0.108 0.376-1.66 0.66-1.59 0.182 0.0479 5.9 3.91 6.34 4.28 0.371 0.313 0.296 0.324-0.395 0.0543zm-2.11-5.77c-2.44-2.44-4.44-4.49-4.44-4.56 0-0.155 1.51-1.48 1.69-1.48 0.0681 0 0.32 0.287 0.561 0.637 0.736 1.07 5.47 7.88 6.01 8.64 1.32 1.86 1.02 1.61-3.82-3.23zm19.8-9.91c-0.478-0.671-2.21-3.16-3.13-4.5l-0.645-0.939 0.107-0.129c0.206-0.248 1.09-0.69 1.22-0.609 0.067 0.0423 0.291 0.472 0.498 0.955 0.207 0.483 0.703 1.63 1.1 2.55 1.24 2.85 1.32 3.05 1.29 3.15-0.0175 0.0526-0.215-0.161-0.438-0.475zm2.25-0.131c-0.298-0.581-3.44-7.39-4.72-10.2-1.29-2.86-1.48-3.34-1.39-3.43 0.141-0.141 2.58-1.06 2.74-1.03 0.205 0.0389 0.0267-0.654 2.08 8.06 0.415 1.76 0.952 4.03 1.19 5.04 0.487 2.04 0.509 2.37 0.107 1.59zm70.4-0.492c1.29-1.37 7.05-6.66 7.24-6.67 0.275-1e-3 1.22 1.24 1.22 1.6 0 0.193-0.15 0.29-3.86 2.51-1.62 0.966-3.34 2-3.82 2.29-0.977 0.603-1.17 0.667-0.789 0.267zm-3.21-0.652c-3e-3 -0.181 3.87-6.5 4.29-6.99 0.161-0.19 0.363-0.384 0.449-0.429l0.156-0.0833 0.587 0.406c0.408 0.282 0.579 0.454 0.561 0.563-0.0391 0.234-6.04 6.72-6.04 6.53z" fill="#00ccc8"/><path d="m107 185c-2.16-6.53-3.69-9.46-6.23-11.9l-0.667-0.644-0.272 0.205c-4.6 3.47-10.1 3.77-13.8 0.757l-0.667-0.537-0.584 0.287c-3.1 1.52-7 4.77-11 9.18-0.574 0.628-1.1 1.16-1.17 1.17l-0.131 0.031 0.0586-0.69c0.286-3.36 0.338-4.24 0.341-5.74 0.0149-7.09-3.47-10.3-9.18-8.42-2.2 0.715-4.55 2.21-8.84 5.6-1.5 1.18-1.5 1.15-0.131-1.17 2.68-4.54 4.22-7.68 5.09-10.4 0.38-1.17 0.382-1.06-0.0374-1.92-0.753-1.53-1.05-4.69-0.569-5.96 0.108-0.282-1.57-2.2-2.81-3.22-2.47-2.02-5.6-3.29-10.1-4.12-2-0.368-1.99-0.308-0.143-0.96 2.72-0.959 5.65-2.31 7.01-3.24l0.609-0.415 0.014-2.06 0.014-2.06 0.437-1.8-0.159-0.242c-0.496-0.758-3.17-3.19-5.63-5.11-0.519-0.407-0.944-0.796-0.944-0.865v-0.125l0.549 0.0535c3.04 0.297 7.48 0.373 9.18 0.158l0.904-0.114 0.869-0.675c1.37-1.07 2.67-1.72 4.31-2.17 0.455-0.124 0.924-0.254 1.04-0.289 0.452-0.134 1.45-2.44 1.82-4.23l0.157-0.747-0.0114-3.86-0.234-1.11c-0.402-1.91-1.13-4.11-2.22-6.74-0.788-1.89-0.811-1.88 0.878-0.465 6.24 5.24 10.1 6.93 13.9 6.12 3.69-0.786 6.09-3.39 8.97-9.73 0.28-0.616 0.547-1.12 0.594-1.12 0.0468 0 0.629 0.529 1.29 1.18 1.84 1.79 3.47 2.97 5.16 3.76 0.885 0.41 0.868 0.41 1.47 0.0247 0.809-0.517 1.98-1.07 2.87-1.36l0.836-0.271 0.439-0.5c2.01-2.29 3.7-5.14 5.74-9.7 0.414-0.926 0.502-0.985 0.667-0.454 0.688 2.21 0.929 2.94 1.42 4.25 1.31 3.56 2.86 6.2 4.84 8.27 1.03 1.07 0.984 1.06 1.87 0.655 3.95-1.8 7.84-1.11 9.88 1.76 0.402 0.563 0.993 1.79 0.995 2.06 5.9e-4 0.0786 0.0569 0.189 0.125 0.246l0.124 0.103 0.864-0.323c2.86-1.07 5.5-2.86 7.98-5.41 1.81-1.86 2.96-3.32 5.88-7.48 0.733-1.04 0.789-1.06 0.719-0.176-0.345 4.31-0.107 6.79 0.833 8.71l0.447 0.913 0.671 0.675c0.75 0.755 1.31 1.1 2.34 1.47l0.703 0.246 3.25 4e-3 0.966-0.206c1.85-0.395 3.9-1.17 6.73-2.56 1.38-0.674 1.53-0.693 1.11-0.139-4.75 6.24-6.49 9.53-7.18 13.6l-0.19 1.13 0.353 0.586c0.496 0.823 0.929 1.79 1.17 2.61l0.204 0.7 0.615 0.622c1.75 1.77 4.75 3.01 9.7 4.03 1.77 0.363 1.82 0.39 1.31 0.687-0.21 0.121-1.05 0.603-1.88 1.07-1.65 0.942-3.54 2.18-4.09 2.67l-0.352 0.318 0.134 0.689c1.04 5.35-1.94 10.6-7.4 13l-0.816 0.36-0.283 0.703c-1.03 2.55-2.77 4.18-5.5 5.14l-0.926 0.326-0.0583 0.208c-0.108 0.386-0.0766 2.08 0.0578 3.11 0.386 2.94 1.46 5.8 4.05 10.8 0.804 1.56 1.02 2.05 0.874 2.05-0.0216 0-0.842-0.509-1.82-1.13-4.97-3.15-8.4-4.74-11.6-5.39l-0.981-0.197-1.41-2e-3c-4.01-7e-3 -6.28 1.77-7.88 6.14-0.365 0.998-0.233 1.01-1.84-0.196-2.37-1.78-4.08-2.68-5.53-2.92l-0.676-0.112-0.685 0.106c-3.26 0.506-6.11 4.73-8.28 12.3-0.172 0.597-0.309 0.781-0.393 0.527zm0.48-6.32c1.28-3.26 3.4-6.23 5.25-7.35 0.497-0.301 0.472-0.396-0.0878-0.325-3.46 0.442-7.11-0.57-8.98-2.49-0.453-0.464-0.496-0.454-0.8 0.186-0.142 0.298-0.546 0.978-0.899 1.51l-0.642 0.969 0.565 0.531c1.69 1.59 3.57 4.5 4.76 7.36 0.326 0.786 0.38 0.76 0.834-0.395zm-32.3-0.483c2.11-2.34 6.39-5.6 8.67-6.61 0.438-0.194 0.439-0.198 0.153-0.845-0.256-0.58-0.481-1.4-0.483-1.76-7.4e-4 -0.138-0.0354-0.305-0.077-0.37l-0.0757-0.119-0.578 0.276c-2.07 0.99-4.43 0.804-6.35-0.501-0.63-0.428-1.8-1.64-2.04-2.11-0.241-0.472-0.156-0.458-1.59-0.273-5.75 0.741-8.71 0.297-10.7-1.6-0.765-0.739-0.746-0.74-1.05 0.0368-0.486 1.26-0.954 2.33-1.51 3.44-0.721 1.44-0.708 1.49 0.234 0.924 2.35-1.42 4.49-2.14 6.59-2.24l1.01-0.0476 0.861 0.178c4.05 0.84 6.36 4.76 6.29 10.7-0.0088 0.725-0.0116 1.35-0.0063 1.38 0.0229 0.156 0.196 0.034 0.624-0.439zm48.3-5.27c1.22-3.06 3.57-5.03 6.67-5.57l0.969-0.17 1.49 0.0466c0.821 0.0256 1.73 0.102 2.02 0.17 2.94 0.688 5.25 1.61 8.18 3.27 1.31 0.746 1.29 0.763 0.694-0.525-1.38-2.97-2.24-6.41-2.24-8.94-4.7e-4 -1.2 0.0379-1.16-0.92-1.03-0.859 0.12-0.779 0.0546-1.32 1.09-3.26 6.25-11.4 7.29-15.5 2.01-0.549-0.698-0.461-0.743-1.08 0.551-1.23 2.57-3.2 4.53-6.02 5.97l-0.834 0.427 0.834 0.0586c1.78 0.125 4.05 1.2 6.1 2.87 0.606 0.496 0.683 0.478 0.963-0.227zm-54-10.9c5.51-0.57 7.66-1.22 9.36-2.84 1.96-1.86 2.63-3.99 3.88-12.4 0.123-0.821 0.361-2.36 0.528-3.43 0.167-1.06 0.549-3.55 0.848-5.53l0.544-3.6 0.0037-1.32c0.0131-4.62-2.29-5.66-10.4-4.65-6.27 0.779-8.36 1.94-9.97 5.54-0.719 1.61-1.03 3.2-2.41 12.4-0.24 1.59-0.594 3.91-0.785 5.14-0.913 5.89-0.93 7-0.127 8.59 1.03 2.04 3.37 2.61 8.53 2.08zm-0.566-7.81c-0.107-0.0785-0.238-0.29-0.291-0.469l-0.0964-0.326 0.616-3.82c0.339-2.1 0.855-5.4 1.15-7.33 0.709-4.68 0.675-4.5 0.913-4.95 0.115-0.222 0.363-0.512 0.551-0.644l0.341-0.241 1.3-0.22c2.95-0.498 3.04-0.373 2.48 3.4-0.737 4.92-1.98 12.8-2.06 13.1-0.291 1.08-1.12 1.42-3.78 1.56l-0.922 0.0486zm24.3 5.71c6.04-0.651 8.2-1.53 9.9-4.05 1.38-2.04 1.78-3.88 3.81-17.5l0.805-5.4 0.0455-1.38c0.166-5.04-2.22-6.17-10.8-5.11-5.68 0.703-7.56 1.5-9.07 3.86-1.13 1.76-1.41 2.88-2.45 9.79-1.92 12.7-2.18 15-1.87 16.5 0.403 1.87 1.53 2.97 3.48 3.39l0.747 0.164 2.06-0.0381c1.14-0.021 2.64-0.0999 3.34-0.175zm-1.04-7.6c-0.111-0.0466-0.256-0.216-0.323-0.376-0.152-0.365-0.303 0.782 1.62-12.4 0.767-5.23 0.751-5.21 4.27-5.42l0.894-0.054 0.263 0.263c0.487 0.487 0.541-0.0339-1.17 11.4-0.968 6.44-0.817 6.14-3.29 6.44-1.77 0.21-2.05 0.228-2.27 0.138zm18 5.8c1.91-0.295 3.53-0.556 3.61-0.581 0.178-0.0551 0.234-0.344 0.692-3.6 0.71-5.04 0.786-5.52 0.898-5.62 0.0619-0.057 1.14-0.248 2.4-0.425 6.18-0.87 8.06-2.13 9.43-6.35 0.695-2.14 2.03-10.1 2.03-12.1v-1.09l-0.185-0.601c-0.721-2.33-3.1-2.99-8.6-2.37-2.55 0.289-9.84 1.34-9.93 1.43-0.0385 0.0386-0.406 2.4-0.816 5.25s-1.14 7.93-1.63 11.3c-1.34 9.32-2.12 14.8-2.12 15.1v0.265l0.373-0.0481c0.205-0.0265 1.93-0.29 3.84-0.585zm6.11-16.9c-0.0258-0.0417-9e-3 -0.308 0.038-0.593 0.0898-0.548 0.459-3 0.878-5.82 0.139-0.937 0.288-1.74 0.332-1.78 0.0436-0.0436 0.721-0.16 1.51-0.259 2.79-0.351 2.82-0.303 1.97 4.18-0.729 3.86-0.663 3.77-3.15 4.14-1.63 0.241-1.51 0.231-1.57 0.134zm19.6 15.4c7.53-0.531 9.98-2.03 11.2-6.87 0.83-3.26 1.19-6.3 0.894-7.55-0.483-2.06-0.999-2.39-8.84-5.68-1.45-0.608-1.85-0.892-2.07-1.46l-0.152-0.399 0.101-0.808c0.235-1.88 0.663-2.3 2.52-2.52 2.33-0.266 2.64 0.101 2.28 2.68-0.18 1.28-0.171 1.29 1.32 1.01 0.242-0.0461 1.6-0.264 3.03-0.484 1.42-0.22 2.62-0.428 2.65-0.463 0.164-0.181 0.721-4.34 0.727-5.42 0.0146-2.6-1.02-3.83-3.72-4.41l-0.747-0.161-2.02 8e-3c-4.03 0.0162-7.12 0.512-9.08 1.46l-0.739 0.356-0.76 0.759c-1.48 1.48-1.81 2.48-2.64 7.92-0.812 5.38-0.412 6.18 3.99 8.04 6.98 2.94 6.63 2.69 6.32 4.59-0.257 1.6-0.617 1.94-2.26 2.12-2.66 0.297-2.92 0.105-2.64-1.95 0.089-0.639 0.112-1.06 0.0615-1.11-0.112-0.0979-7.08 1.02-7.21 1.15-0.139 0.15-0.561 3.54-0.561 4.51 0 3.78 2.36 5.11 8.33 4.68zm-9.77-3.61c-0.0302-0.151-0.0602-0.536-0.0666-0.856l-0.0117-0.582-0.0581 0.416c-0.0348 0.25-0.122 0.463-0.219 0.534l-0.161 0.117 0.208 0.322c0.256 0.395 0.38 0.415 0.307 0.0493zm-0.699-0.742c0.0824 0.0316 0.0552-0.0452-0.0736-0.208-0.217-0.274-0.416-0.325-0.693-0.177-0.242 0.129-0.21 0.238 0.0875 0.303 0.142 0.0311 0.31 0.119 0.373 0.196l0.116 0.14 0.0296-0.152c0.0182-0.0932 0.0801-0.133 0.16-0.102zm-65.8-0.323c0.0264-0.109 0.0742-0.435 0.106-0.725l0.0582-0.527-0.426-0.206c-2.1-1.01-4.13-3.21-4.91-5.3-0.233-0.631-0.254-0.632-1.24-0.0547-0.489 0.286-1.36 0.736-1.93 1-1.28 0.589-1.28 0.601-0.0385 0.977 2.92 0.883 5.58 2.45 7.51 4.41 0.657 0.669 0.791 0.735 0.866 0.426zm0.486-4c0.214-1.27 0.91-5.59 1.11-6.92 0.912-5.93 1.36-7.53 2.74-9.65 0.532-0.824 1.79-2.07 2.44-2.42l0.522-0.278-0.878 0.0437c-4.2 0.209-8.34 3.6-9.84 8.06-1.05 3.12-0.977 5.52 0.267 8.45 0.53 1.25 2.82 3.84 3.39 3.84 0.0331 0 0.145-0.504 0.249-1.12zm93.2-1.38c0.853-0.455 1.71-0.97 1.9-1.14 0.193-0.174 0.467-0.34 0.608-0.368l0.258-0.0515 0.172-0.459c1.22-3.25 5e-3 -7.78-2.69-10l-0.44-0.369-0.155 0.588c-0.152 0.575-0.199 0.899-0.392 2.69-0.12 1.11-0.183 1.21-0.891 1.35-0.308 0.0621-0.995 0.207-1.53 0.323-0.531 0.116-1.13 0.236-1.34 0.267-0.353 0.0536-0.466 0.149-0.298 0.253 0.0416 0.0257 0.198 0.304 0.349 0.618 0.15 0.314 0.376 0.661 0.503 0.771 1.04 0.902 1.97 2.92 1.97 4.29 8.4e-4 0.272 0.0644 0.618 0.142 0.773 0.0773 0.155 0.162 0.517 0.188 0.804 0.026 0.287 0.0574 0.522 0.0697 0.522s0.72-0.373 1.57-0.828zm-22.3-1.25 0.198-0.053v-0.297c0-0.396-0.132-0.375-0.351 0.0542-0.186 0.364-0.176 0.384 0.154 0.296zm27.4-8.44c0.581-0.374 1.24-0.791 1.47-0.927 0.511-0.306 0.467-0.346-0.625-0.581-1.11-0.238-3.11-0.89-4.08-1.33-0.948-0.428-0.959-0.401-0.167 0.422 0.765 0.795 1.45 1.71 1.79 2.39 0.434 0.872 0.301 0.87 1.62 0.022zm-103-2.35c0.173-0.315 0.493-0.843 0.711-1.17 0.565-0.857 0.683-0.801-1.67-0.801-1.24 0-2.06 0.0332-2.06 0.083 0 0.0457 0.385 0.417 0.856 0.825 0.471 0.408 1.05 0.944 1.29 1.19 0.54 0.556 0.495 0.562 0.873-0.124zm31.3-5.24c0.988-1.46 2.59-2.64 4.49-3.31 2.32-0.82 9.47-1.64 12.3-1.41l1.19 0.0977 0.922 0.304c1.38 0.456 2.35 1.15 3.07 2.21 0.429 0.629 0.405 0.674 0.667-1.25 0.0749-0.549 7e-3 -0.525 2.54-0.898 1.16-0.17 3.17-0.466 4.46-0.656s3.25-0.45 4.35-0.576l1.99-0.23 1.67 0.0447c3.02 0.0809 4.66 0.767 5.83 2.43l0.381 0.544 0.222-0.295c1.94-2.58 5.61-3.71 12.4-3.81l1.98-0.0311-0.0316-0.685c-0.164-3.56-3.37-5.73-7.52-5.08-2.6 0.408-6.12 2.25-7.85 4.12-0.228 0.245-0.534 0.308-0.534 0.109 0-0.152 0.756-1.31 1.14-1.75l0.288-0.328-0.105-0.127c-0.195-0.235-0.866-0.574-1.42-0.715l-0.546-0.14-0.637 0.0948c-1.26 0.187-2.32 0.744-2.56 1.34-0.0922 0.23-0.184 0.335-0.28 0.316l-0.142-0.0272-0.0573-1.27c-0.136-3.02-1.45-5.13-3.67-5.9-2.96-1.02-7.4 0.755-10.7 4.28-0.516 0.553-1 1.01-1.08 1.01-0.0773 2e-3 -0.313 0.22-0.524 0.483-0.734 0.917-0.834 0.537-0.19-0.72l0.437-0.854-0.126-0.545c-0.824-3.55-3.99-6.11-7.29-5.89-5.41 0.358-10.4 6.21-10.4 12.2l-0.0016 0.951-0.154-0.0295c-0.109-0.021-0.211-0.232-0.352-0.731-0.226-0.797-0.162-0.732-1.53-1.54-5.53-3.28-13.2-0.801-15.9 5.16-0.344 0.745-0.329 0.831 0.125 0.719 0.554-0.137 2.71-0.404 4.21-0.523l1.42-0.112 1.22 0.101c2.56 0.213 4.2 1.04 5.48 2.78 0.266 0.362 0.491 0.659 0.502 0.662 0.0103 2e-3 0.186-0.242 0.39-0.543zm-16.7-1.61c0.459-0.114 0.981-0.231 1.16-0.261l0.327-0.0535 0.0933-0.37c1.04-4.13 4.24-7.2 8.76-8.42l1.04-0.279 3.86-6e-3 1.05 0.282c1.13 0.302 2.46 0.896 3.48 1.56 0.732 0.474 0.672 0.502 0.776-0.364 0.279-2.33 1.26-4.53 2.96-6.65 0.674-0.836 0.676-0.769-0.0425-1.17-1.41-0.777-2.59-1.63-3.94-2.82-0.793-0.703-0.744-0.717-1.25 0.352-4.41 9.35-11.4 11.5-19.5 6.08-0.768-0.513-1.42-0.912-1.44-0.885-0.0264 0.0264 0.0765 0.551 0.229 1.17 1.08 4.38 0.913 7.68-0.568 10.9-0.377 0.825-0.439 0.738 0.634 0.898 0.482 0.0721 0.975 0.171 1.1 0.219 0.121 0.0483 0.279 0.0677 0.351 0.0432 0.0725-0.0245 0.507-0.138 0.966-0.252zm79.8-4.31c0.627-2.62 1.74-5.05 3.56-7.74 0.552-0.818 0.543-0.824-0.605-0.435-0.52 0.176-1.42 0.426-2 0.554l-1.05 0.233-2.9 0.078-0.835-0.172c-3.64-0.751-5.88-3.48-6.31-7.7-0.116-1.13-0.165-1.16-0.734-0.328-2.31 3.36-6.59 7.04-9.97 8.58-0.76 0.346-0.845 0.482-0.301 0.482 0.805 0 1.8 0.413 2.48 1.03l0.341 0.308 0.461-0.352c6.41-4.9 14.6-2.39 14.6 4.46v0.51l0.154 0.0446c0.0845 0.0245 0.33 0.0903 0.546 0.146 0.447 0.116 1.39 0.58 1.85 0.908 0.425 0.305 0.457 0.276 0.669-0.611zm-37.3-10.4c0-0.0223-0.332-0.385-0.738-0.806-2.14-2.22-4.21-5.85-5.45-9.52-0.0819-0.244-0.152-0.147-0.918 1.28-0.799 1.48-1.57 2.74-2.41 3.9-0.713 0.994-0.709 1.05 0.0836 1.12 2.96 0.276 5.77 2.84 6.57 5.99 0.0864 0.338 0.172 0.642 0.19 0.675 0.0311 0.0566 2.66-2.55 2.66-2.64zm38.1 54.2c-2.01-2.72-2.02-2.76-0.501-1.42 1.93 1.7 2.59 2.33 2.59 2.45 0 0.117-0.602 0.743-0.716 0.745-0.0315 4.1e-4 -0.648-0.8-1.37-1.78zm3.71-0.257c-1.7-1.49-6.1-5.55-6.1-5.62 0-0.0849 0.333 0.0954 1.01 0.546 0.193 0.129 1.6 1.02 3.12 1.97 3.2 2.01 3.78 2.39 3.78 2.5 0 0.162-0.89 1.14-1.04 1.14-0.0828-8.4e-4 -0.427-0.244-0.765-0.541zm-102-2.23c-0.596-0.559-0.765-0.419 2.99-2.47 1.77-0.971 2.16-1.08 1.35-0.392-0.262 0.224-1.21 1.05-2.11 1.83-1.86 1.63-1.68 1.54-2.23 1.03zm-5.07-1.89c-0.0549-0.103-0.192-0.459-0.306-0.792l-0.206-0.605 0.193-0.121c0.171-0.107 1.46-0.436 6.81-1.73 2.37-0.575 2.26-0.508-3.02 1.93-3.66 1.69-3.33 1.57-3.47 1.32zm10.8-36.7c-0.29-0.113-1.87-0.767-3.51-1.45-1.64-0.687-3.04-1.27-3.1-1.29-0.27-0.108 0.376-1.66 0.66-1.59 0.182 0.0479 5.9 3.91 6.34 4.28 0.371 0.313 0.296 0.324-0.395 0.0543zm-2.11-5.77c-2.44-2.44-4.44-4.49-4.44-4.56 0-0.155 1.51-1.48 1.69-1.48 0.0681 0 0.32 0.287 0.561 0.637 0.736 1.07 5.47 7.88 6.01 8.64 1.32 1.86 1.02 1.61-3.82-3.23zm19.8-9.91c-0.478-0.671-2.21-3.16-3.13-4.5l-0.645-0.939 0.107-0.129c0.206-0.248 1.09-0.69 1.22-0.609 0.067 0.0423 0.291 0.472 0.498 0.955 0.207 0.483 0.703 1.63 1.1 2.55 1.24 2.85 1.32 3.05 1.29 3.15-0.0175 0.0526-0.215-0.161-0.438-0.475zm2.25-0.131c-0.298-0.581-3.44-7.39-4.72-10.2-1.29-2.86-1.48-3.34-1.39-3.43 0.141-0.141 2.58-1.06 2.74-1.03 0.205 0.0389 0.0267-0.654 2.08 8.06 0.415 1.76 0.952 4.03 1.19 5.04 0.487 2.04 0.509 2.37 0.107 1.59zm70.4-0.492c1.29-1.37 7.05-6.66 7.24-6.67 0.275-1e-3 1.22 1.24 1.22 1.6 0 0.193-0.15 0.29-3.86 2.51-1.62 0.966-3.34 2-3.82 2.29-0.977 0.603-1.17 0.667-0.789 0.267zm-3.21-0.652c-3e-3 -0.181 3.87-6.5 4.29-6.99 0.161-0.19 0.363-0.384 0.449-0.429l0.156-0.0833 0.587 0.406c0.408 0.282 0.579 0.454 0.561 0.563-0.0391 0.234-6.04 6.72-6.04 6.53z" fill="#8602d2"/><path d="m107 184c-1.57-4.98-3.5-8.57-5.92-11l-0.752-0.743-0.243 0.193c-4.42 3.5-10.6 3.79-14 0.65-0.495-0.461-0.495-0.461-1.65 0.164-3.09 1.67-6.25 4.36-10.7 9.09l-0.991 1.05 0.0505-0.615c0.0278-0.338 0.114-1.39 0.192-2.33s0.142-2.52 0.142-3.51l1.26e-4 -1.8-0.182-1.01c-0.687-3.81-2.78-5.98-5.9-6.12l-0.922-0.0418-0.918 0.189c-2.66 0.549-4.83 1.78-9.31 5.26-0.99 0.771-1.81 1.36-1.83 1.32-0.0168-0.0471 0.184-0.45 0.446-0.894 0.507-0.86 1.57-2.7 2.39-4.15 1.23-2.16 2.55-5.1 3.18-7.07 0.366-1.15 0.367-1.09-0.0468-1.91-0.708-1.4-0.945-3.21-0.679-5.16l0.132-0.966-0.126-0.195c-2.21-3.43-6.72-5.9-12.8-7.01-0.7-0.128-1.33-0.265-1.4-0.305l-0.132-0.0727 0.132-0.0474c0.0725-0.0261 0.626-0.221 1.23-0.434 2.59-0.913 5.12-2.07 6.72-3.07l0.866-0.543 0.0259-4.22 0.438-1.8-0.157-0.258c-0.436-0.718-2.93-3-5.51-5.03-1.11-0.881-1.16-0.96-0.517-0.894 2.54 0.261 6.29 0.368 8.03 0.228 1.97-0.158 1.97-0.159 2.5-0.601 1.5-1.26 3.81-2.39 5.36-2.62 0.73-0.108 1.62-1.77 2.15-3.99l0.218-0.922 0.0471-1.62c0.0863-2.98-0.438-5.27-2.23-9.73-0.413-1.03-0.728-1.89-0.701-1.92 0.0276-0.0276 0.635 0.441 1.35 1.04 5.69 4.78 9.35 6.52 12.9 6.13 4.15-0.464 6.87-3.11 9.78-9.53 0.328-0.725 0.632-1.35 0.674-1.4 0.0459-0.0489 0.511 0.348 1.15 0.985 1.85 1.83 3.18 2.83 4.97 3.73 1.21 0.606 1.19 0.605 1.98 0.114 0.848-0.528 2.17-1.14 2.87-1.33 0.65-0.174 0.774-0.269 1.53-1.18 1.76-2.11 3.44-4.96 5.06-8.56 0.652-1.46 0.675-1.5 0.737-1.44 0.0205 0.0205 0.257 0.736 0.526 1.59 1.81 5.76 3.82 9.41 6.48 11.8l0.511 0.461 0.502-0.253c1.45-0.733 2.95-1.09 4.59-1.09l1.19 2e-3 0.685 0.184c2.18 0.585 3.85 2.13 4.54 4.23 0.281 0.847 0.285 0.847 2.11 0.059 4.56-1.97 7.83-5.04 12.6-11.8 1.19-1.7 1.18-1.69 1.09-0.483-0.0395 0.519-0.07 1.89-0.068 3.05l4e-3 2.11 0.154 0.775c0.79 3.98 3.5 6.02 7.52 5.68 2.33-0.201 4.55-0.926 8.29-2.71 0.717-0.342 1.28-0.567 1.26-0.501-0.0255 0.0664-0.393 0.57-0.816 1.12-3.86 5-5.92 9.09-6.49 12.9l-0.138 0.916 0.39 0.67c0.522 0.899 0.877 1.7 1.15 2.57l0.222 0.728 0.639 0.613c1.89 1.81 4.92 3.08 9.52 3.98 0.765 0.151 1.47 0.305 1.56 0.343l0.172 0.0696-0.611 0.353c-3.49 2.02-4.15 2.43-5.31 3.3-0.729 0.549-0.722 0.533-0.569 1.34 1.04 5.41-2.37 11.2-7.71 13.1-0.427 0.15-0.511 0.256-0.802 1-0.976 2.5-2.88 4.24-5.63 5.13-0.868 0.283-0.869 0.285-0.908 1.4-0.113 3.31 0.852 6.46 3.73 12.2 0.737 1.47 1.32 2.69 1.3 2.71-0.0192 0.0192-0.778-0.436-1.69-1.01-7.09-4.5-11.9-6.18-15.6-5.53-3.08 0.536-4.74 2.07-6.22 5.76-0.223 0.555-0.433 1.04-0.466 1.07-0.0335 0.0333-0.535-0.299-1.11-0.738-3.42-2.59-5.45-3.46-7.33-3.15-2.97 0.486-6.01 4.78-7.9 11.2-0.563 1.9-0.53 1.87-0.873 0.773zm0.696-5.36c1.28-3.26 3.4-6.23 5.25-7.35 0.497-0.301 0.472-0.396-0.0878-0.325-3.46 0.442-7.11-0.57-8.98-2.49-0.453-0.464-0.496-0.454-0.8 0.186-0.142 0.298-0.546 0.978-0.899 1.51l-0.642 0.969 0.565 0.531c1.69 1.59 3.57 4.5 4.76 7.36 0.326 0.786 0.38 0.76 0.834-0.395zm-32.3-0.483c2.11-2.34 6.39-5.6 8.67-6.61 0.438-0.194 0.439-0.198 0.153-0.845-0.256-0.58-0.481-1.4-0.483-1.76-7.4e-4 -0.138-0.0354-0.305-0.077-0.37l-0.0757-0.119-0.578 0.276c-2.07 0.99-4.43 0.804-6.35-0.501-0.63-0.428-1.8-1.64-2.04-2.11-0.241-0.472-0.156-0.458-1.59-0.273-5.75 0.741-8.71 0.297-10.7-1.6-0.765-0.739-0.746-0.74-1.05 0.0368-0.486 1.26-0.954 2.33-1.51 3.44-0.721 1.44-0.708 1.49 0.234 0.924 2.35-1.42 4.49-2.14 6.59-2.24l1.01-0.0476 0.861 0.178c4.05 0.84 6.36 4.76 6.29 10.7-0.0088 0.725-0.0116 1.35-0.0063 1.38 0.0229 0.156 0.196 0.034 0.624-0.439zm18.3-4.63c3.1-0.502 6.26-2.5 8.57-5.4l0.594-0.747-0.0401-0.263c-0.0221-0.145-0.0686-0.352-0.103-0.461-0.0992-0.31 0.0728-0.24 0.651 0.263 1.15 1 2.7 1.81 4.28 2.24l0.862 0.233 3.6 0.00144 0.773-0.194c4.17-1.05 7.88-4.04 10.2-8.27l0.463-0.834-3e-3 0.351c-2e-3 0.193-0.054 0.639-0.116 0.991l-0.112 0.64 0.149 0.238c0.202 0.325 0.528 0.614 1.36 1.21 4.1 2.93 9.33 2.03 12.3-2.12 0.289-0.398 0.525-0.775 0.525-0.84l-3e-5 -0.117h-4l-0.734-0.158c-1.89-0.407-3.21-1.31-4.42-3-0.553-0.774-1.54-2.53-1.75-3.12l-0.204-0.569-2e-3 -2c-9.2e-4 -1.1-0.0123-2-0.0252-2-0.0129 0-0.371 0.196-0.795 0.435-1.33 0.748-2.56 1.08-5.69 1.54-0.865 0.127-1.62 0.278-1.67 0.334-0.0548 0.0563-0.323 1.7-0.596 3.66-0.776 5.56-0.772 5.54-0.924 5.61-0.154 0.0776-0.674 0.164-5.1 0.848-4.17 0.645-4.9 0.744-5.03 0.687-0.061-0.0263-0.504-0.539-0.984-1.14-0.48-0.6-0.888-1.09-0.906-1.09-0.0184 0-0.218 0.153-0.444 0.341-1.89 1.56-3.78 2.24-7.62 2.73-7.83 0.99-10.6 0.304-12.6-3.14-0.511-0.864-0.549-0.892-0.743-0.537-1.41 2.59-3.32 4.15-6.19 5.08-0.614 0.198-1.2 0.36-1.3 0.36-0.851 0 1.1 1.86 2.55 2.43l0.831 0.326 1.05 0.0372c1.18 0.0418 2.03-0.0937 2.8-0.448l0.464-0.212 0.197-0.796c0.108-0.438 0.246-0.864 0.307-0.947l0.11-0.151 0.0505 1.18c0.149 3.49 2.05 5.84 5.43 6.71l0.826 0.213 1.14 4e-3c0.628 2e-3 1.51-0.0553 1.95-0.128zm30-0.636c1.22-3.06 3.57-5.03 6.67-5.57l0.969-0.17 1.49 0.0466c0.821 0.0256 1.73 0.102 2.02 0.17 2.94 0.688 5.25 1.61 8.18 3.27 1.31 0.746 1.29 0.763 0.694-0.525-1.38-2.97-2.24-6.41-2.24-8.94-4.7e-4 -1.2 0.0379-1.16-0.92-1.03-0.859 0.12-0.779 0.0546-1.32 1.09-3.26 6.25-11.4 7.29-15.5 2.01-0.549-0.698-0.461-0.743-1.08 0.551-1.23 2.57-3.2 4.53-6.02 5.97l-0.834 0.427 0.834 0.0586c1.78 0.125 4.05 1.2 6.1 2.87 0.606 0.496 0.683 0.478 0.963-0.227zm-54-10.9c5.51-0.57 7.66-1.22 9.36-2.84 1.96-1.86 2.63-3.99 3.88-12.4 0.123-0.821 0.361-2.36 0.528-3.43 0.167-1.06 0.549-3.55 0.848-5.53l0.544-3.6 0.0037-1.32c0.0115-4.05-2.08-5.49-7.37-5.06-8.41 0.686-11.2 1.92-13 5.67-0.789 1.71-1.01 2.84-2.5 12.7-0.266 1.76-0.686 4.51-0.934 6.1l-0.451 2.9-0.0874 2.99 0.143 0.566c0.747 2.96 3.11 3.8 8.99 3.2zm-0.569-7.82c-0.106-0.0742-0.236-0.282-0.289-0.461l-0.0964-0.326 0.616-3.82c0.339-2.1 0.855-5.4 1.15-7.33 0.709-4.68 0.675-4.5 0.913-4.95 0.115-0.222 0.363-0.512 0.551-0.644l0.341-0.241 1.3-0.22c3.06-0.516 3.04-0.565 2.21 4.84-0.22 1.44-0.697 4.58-1.06 6.97-0.876 5.77-0.858 5.72-2.08 5.97-1.62 0.329-3.26 0.432-3.56 0.223zm3.53-1.67c0.0759-0.0759 0.138-0.209 0.138-0.295 0-0.0864 0.0253-0.35 0.0563-0.587l0.0563-0.429-0.221 0.203c-0.143 0.131-0.253 0.364-0.311 0.659-0.118 0.597-0.0208 0.753 0.282 0.45zm0.449-2.42c0.0609-0.0986 1.53-9.5 1.53-9.79 0-0.191-0.244-0.152-0.355 0.0556-0.0985 0.184-0.274 1.18-0.787 4.47-0.154 0.99-0.41 2.59-0.568 3.56-0.158 0.966-0.273 1.78-0.255 1.81 0.0412 0.0726 0.371-0.0101 0.432-0.108zm20.3 9.8c6.04-0.651 8.2-1.53 9.9-4.05 1.38-2.04 1.78-3.87 3.81-17.5l0.805-5.4 0.0894-2.83-0.151-0.677c-0.227-1.02-0.633-1.75-1.32-2.36-0.32-0.285-1.39-0.743-2.11-0.902l-0.703-0.155-1.8 4e-3c-3.42 7e-3 -8.66 0.738-10.4 1.46-2.9 1.17-4.36 3.35-5.14 7.7-0.358 1.99-2.34 15.7-2.65 18.3-0.444 3.77 0.694 5.84 3.56 6.47l0.747 0.164 2.06-0.0381c1.14-0.021 2.64-0.0999 3.34-0.175zm-1.04-7.61c-0.111-0.044-0.256-0.211-0.323-0.372-0.152-0.365-0.303 0.782 1.62-12.4 0.767-5.23 0.751-5.21 4.27-5.42l0.894-0.054 0.539 0.539v0.481c0 0.513-0.924 7.01-1.98 13.9-0.433 2.84-0.546 2.93-3.86 3.21-0.386 0.032-0.762 0.072-0.834 0.0888-0.0725 0.0168-0.222-5e-3 -0.333-0.0495zm3.35-1.71c0.196-0.196 0.264-0.539 0.589-2.94 0.049-0.362 0.226-1.57 0.393-2.68 0.167-1.11 0.362-2.45 0.432-2.99 0.155-1.17 0.454-3.14 0.536-3.53l0.0599-0.285h-0.184c-0.334 0-0.451 0.354-0.713 2.16-0.174 1.2-0.664 4.4-0.966 6.31-0.0993 0.628-0.239 1.58-0.311 2.11-0.0718 0.531-0.17 1.16-0.219 1.39-0.12 0.574 0.0556 0.781 0.384 0.453zm11.2 8.05c0.264-0.0532 1.92-0.316 3.69-0.583 1.76-0.268 3.27-0.507 3.35-0.531 0.178-0.0552 0.234-0.344 0.692-3.6 0.71-5.04 0.786-5.52 0.898-5.62 0.0619-0.057 1.14-0.248 2.4-0.425 6.18-0.87 8.06-2.13 9.43-6.35 0.692-2.13 2.03-10.1 2.03-12.1l2.8e-4 -1.08-0.186-0.626c-0.718-2.42-3.04-3.08-8.63-2.45-3.15 0.356-9.82 1.34-9.95 1.47-0.0979 0.0993-0.725 4.42-3.64 25.1-1.05 7.46-1.02 7.09-0.662 6.95 0.0539-0.0207 0.314-0.0811 0.579-0.134zm9.54-17.4c-0.0286-0.0462-0.0138-0.317 0.0328-0.601 0.0898-0.548 0.459-3 0.878-5.82 0.139-0.937 0.288-1.74 0.332-1.78 0.116-0.116 2.88-0.447 3.22-0.384 0.157 0.0294 0.38 0.155 0.497 0.279l0.212 0.226-9e-3 0.629c-0.0105 0.756-0.846 5.32-1.1 5.99-0.195 0.522-0.626 0.964-1.02 1.04-0.136 0.0281-0.762 0.131-1.39 0.229-0.628 0.098-1.25 0.201-1.37 0.229-0.127 0.028-0.255 0.0131-0.283-0.0331zm19.6 15.3c8.6-0.607 10.4-2.1 11.8-9.83l0.336-1.8 2e-3 -1.32c4e-3 -2.89-0.704-3.69-4.83-5.47-2.09-0.904-5.23-2.21-5.3-2.21-0.192 0-0.725-0.575-0.859-0.927l-0.152-0.399 0.101-0.808c0.242-1.94 0.664-2.33 2.74-2.53 2.19-0.217 2.41 0.152 1.92 3.21-0.12 0.747-0.103 0.76 0.78 0.607 0.374-0.065 1.94-0.316 3.49-0.558 1.55-0.242 2.83-0.468 2.87-0.502 0.0854-0.0947 0.682-4.08 0.745-4.98 0.265-3.75-1.94-5.31-7.21-5.1-6.79 0.265-9.62 1.33-11.1 4.18-0.622 1.19-0.888 2.38-1.55 6.89l-0.321 2.2 0.0443 0.834c0.118 2.22 0.95 3.07 4.41 4.53 7.04 2.96 6.63 2.64 6.24 4.87-0.268 1.52-0.696 1.77-3.29 1.9l-1.11 0.0577-0.202-0.165c-0.379-0.31-0.412-1.16-0.0953-2.52 0.0616-0.265 0.0676-0.455 0.0159-0.507-0.111-0.111-7.27 1-7.36 1.15-0.11 0.179-0.516 3.77-0.516 4.57 2e-3 3.74 2.4 5.07 8.36 4.65zm-76.3-4.67c0.0264-0.109 0.0742-0.435 0.106-0.725l0.0582-0.527-0.426-0.206c-2.1-1.01-4.13-3.21-4.91-5.3-0.233-0.631-0.254-0.632-1.24-0.0547-0.489 0.286-1.36 0.736-1.93 1-1.28 0.589-1.28 0.601-0.0385 0.977 2.92 0.883 5.58 2.45 7.51 4.41 0.657 0.669 0.791 0.735 0.866 0.426zm91.5-0.66c5.6-3.1 7.52-10.6 3.97-15.4-1.04-1.41-2.75-2.81-2.76-2.26-9.4e-4 0.0604-0.0601 0.505-0.131 0.988-0.0714 0.483-0.189 1.31-0.262 1.84-0.18 1.31-0.149 1.25-0.684 1.32-0.252 0.0311-0.655 0.0922-0.897 0.136-0.242 0.0436-1.07 0.166-1.84 0.272-1.52 0.208-1.71 0.277-1.36 0.503 0.497 0.326 1.22 1.1 1.54 1.66 0.19 0.326 0.563 0.838 0.828 1.14 0.978 1.1 1.44 2.11 1.59 3.46l0.103 0.904-0.108 0.929c-0.0593 0.511-0.263 1.79-0.453 2.84-0.19 1.05-0.345 1.93-0.345 1.95 0 0.111 0.263 0.0181 0.811-0.286zm-91-2.28c0.0279-0.181 0.187-1.16 0.354-2.17 0.167-1.01 0.545-3.41 0.84-5.31 0.856-5.54 1.23-7.11 2.09-8.83 0.795-1.59 1.97-2.95 3.13-3.61 1.94-1.11-2.24-0.489-4.51 0.675-6.95 3.56-8.99 13.1-3.89 18.2 1.29 1.28 1.9 1.6 1.99 1.03zm78.6-1.27c0.0148-0.0761-0.0524-0.156-0.154-0.182-0.13-0.0341-0.18-5e-3 -0.18 0.106 0 0.291 0.28 0.355 0.334 0.0764zm-7.23-2.22c1.85-0.274 1.83-0.255 0.95-0.749-0.28-0.158-0.845-0.631-1.27-1.06-0.42-0.428-0.782-0.748-0.804-0.712-0.0223 0.0362-0.148 0.461-0.279 0.944-0.131 0.483-0.313 1.07-0.404 1.3-0.0909 0.231-0.165 0.439-0.165 0.461 0 0.0817 0.515 0.0344 1.97-0.181zm27-8.63c0.581-0.374 1.24-0.791 1.47-0.927 0.511-0.306 0.467-0.346-0.625-0.581-1.11-0.238-3.11-0.89-4.08-1.33-0.948-0.428-0.959-0.401-0.167 0.422 0.765 0.795 1.45 1.71 1.79 2.39 0.434 0.872 0.301 0.87 1.62 0.022zm-18.1-1.63c0.0195-0.164-0.0125-0.235-0.107-0.235-0.192 0-0.335 0.297-0.206 0.427 0.152 0.152 0.281 0.0729 0.312-0.192zm-85.2-0.72c0.173-0.315 0.493-0.843 0.711-1.17 0.565-0.857 0.683-0.801-1.67-0.801-1.24 0-2.06 0.0332-2.06 0.083 0 0.0457 0.385 0.417 0.856 0.825 0.471 0.408 1.05 0.944 1.29 1.19 0.54 0.556 0.495 0.562 0.873-0.124zm31.3-4.81c1.93-3.1 4.47-4.08 12.5-4.85 5.36-0.512 8.12 0.305 9.54 2.82 0.147 0.26 0.302 0.472 0.344 0.472 0.103 0 0.209-0.56 0.393-2.09l0.0558-0.461 0.189-0.0466c0.427-0.105 9.09-1.35 11-1.59 0.832-0.101 1.91-0.156 3.12-0.159l1.84-3e-3 0.747 0.16c1.52 0.327 2.8 1.14 3.57 2.26 0.5 0.732 0.458 0.727 0.938 0.103 1.9-2.47 5.17-3.47 11.9-3.61l2.46-0.0535-7e-3 -0.748c-0.0358-3.77-3.64-6.17-7.98-5.32-2.52 0.49-4.5 1.5-7.4 3.77-0.393 0.308-0.299 0.0759 0.281-0.693 0.668-0.885 0.673-0.953 0.103-1.33-1.25-0.84-3.78-0.577-4.94 0.514l-0.191 0.179-0.0614-0.776c-0.581-7.34-7.76-8.43-14.2-2.16-0.511 0.498-0.992 0.906-1.07 0.906-0.0764 0-0.359 0.247-0.629 0.549-0.568 0.637-0.618 0.554-0.175-0.289l0.316-0.6-0.0582-0.291c-0.554-2.76-2.53-5.14-5.01-6.01l-0.703-0.248-2.81 0.00172-0.79 0.242c-4.8 1.47-8.33 6.11-8.81 11.6-0.0708 0.799-0.105 0.82-0.272 0.167l-0.0921-0.36-0.605-0.402c-5.84-3.89-14-1.58-17 4.81-0.474 1.01-0.532 0.984 1.56 0.717 5.04-0.646 7.35-0.447 9.22 0.792 0.556 0.368 1.69 1.54 1.96 2.03 0.26 0.463 0.377 0.462 0.668-5e-3zm-16.7-2.04c0.459-0.114 0.981-0.231 1.16-0.261l0.327-0.0535 0.0933-0.37c1.04-4.13 4.24-7.2 8.76-8.42l1.04-0.279 3.86-6e-3 1.05 0.282c1.13 0.302 2.46 0.896 3.48 1.56 0.732 0.474 0.672 0.502 0.776-0.364 0.279-2.33 1.26-4.53 2.96-6.65 0.674-0.836 0.676-0.769-0.0425-1.17-1.41-0.777-2.59-1.63-3.94-2.82-0.793-0.703-0.744-0.717-1.25 0.352-4.41 9.35-11.4 11.5-19.5 6.08-0.768-0.513-1.42-0.912-1.44-0.885-0.0264 0.0264 0.0765 0.551 0.229 1.17 1.08 4.38 0.913 7.68-0.568 10.9-0.377 0.825-0.439 0.738 0.634 0.898 0.482 0.0721 0.975 0.171 1.1 0.219 0.121 0.0483 0.279 0.0677 0.351 0.0432 0.0725-0.0245 0.507-0.138 0.966-0.252zm79.8-4.31c0.627-2.62 1.74-5.05 3.56-7.74 0.552-0.818 0.543-0.824-0.605-0.435-0.52 0.176-1.42 0.426-2 0.554l-1.05 0.233-2.9 0.078-0.835-0.172c-3.64-0.751-5.88-3.48-6.31-7.7-0.116-1.13-0.165-1.16-0.734-0.328-2.31 3.36-6.59 7.04-9.97 8.58-0.76 0.346-0.845 0.482-0.301 0.482 0.805 0 1.8 0.413 2.48 1.03l0.341 0.308 0.461-0.352c6.41-4.9 14.6-2.39 14.6 4.46v0.51l0.154 0.0446c0.0845 0.0245 0.33 0.0903 0.546 0.146 0.447 0.116 1.39 0.58 1.85 0.908 0.425 0.305 0.457 0.276 0.669-0.611zm-37.3-10.4c0-0.0223-0.332-0.385-0.738-0.806-2.14-2.22-4.21-5.85-5.45-9.52-0.0819-0.244-0.152-0.147-0.918 1.28-0.799 1.48-1.57 2.74-2.41 3.9-0.713 0.994-0.709 1.05 0.0836 1.12 2.96 0.276 5.77 2.84 6.57 5.99 0.0864 0.338 0.172 0.642 0.19 0.675 0.0311 0.0566 2.66-2.55 2.66-2.64zm38.1 54.1c-1.63-2.24-1.65-2.23 0.518-0.309 1.54 1.37 1.52 1.34 1.18 1.7-0.371 0.388-0.442 0.33-1.7-1.39zm3.64-0.319c-0.338-0.299-1.11-0.999-1.72-1.56-0.606-0.556-1.72-1.58-2.48-2.27-1.53-1.4-1.73-1.65-0.764-0.973 0.121 0.0849 1.37 0.875 2.77 1.76 4.32 2.71 4.02 2.45 3.45 3.14-0.461 0.566-0.51 0.562-1.26-0.0999zm-102-2.2-0.372-0.379 0.156-0.137c0.318-0.279 4.4-2.49 4.47-2.42 0.0432 0.0431-3.71 3.32-3.81 3.32-0.0397 0-0.24-0.171-0.444-0.379zm-5.02-1.85c-0.353-0.425-0.517-1.42-0.247-1.49 0.728-0.202 7.33-1.81 7.44-1.81 0.282 0-3.78 1.96-6.73 3.25l-0.367 0.161zm10.6-36.8c-0.44-0.149-6.47-2.68-6.54-2.75-0.0909-0.0871 0.335-1.16 0.522-1.31 0.0909-0.0754 0.334 0.047 1.07 0.538 0.923 0.618 5.04 3.41 5.11 3.47 0.0733 0.0595-0.04 0.0923-0.168 0.0488zm-2.17-5.9c-2.33-2.31-4.23-4.25-4.23-4.32 0.0084-0.156 1.36-1.32 1.55-1.34 0.12-0.01 6.75 9.34 6.92 9.76 0.067 0.166 0.273 0.366-4.23-4.1zm18.1-12.4c-1.01-1.46-1.85-2.69-1.87-2.73-0.0258-0.0773 0.97-0.71 1.12-0.71 0.0395 0 0.419 0.8 0.842 1.78 0.424 0.978 1 2.31 1.29 2.95 0.285 0.646 0.504 1.22 0.488 1.27-0.0167 0.0502-0.858-1.1-1.87-2.56zm3.76 1.82c-0.498-1.02-3.9-8.43-4.87-10.6l-0.956-2.15 0.111-0.103c0.137-0.127 2.37-1 2.56-1 0.157 0 0.157-0.0013 0.456 1.32 0.126 0.555 0.678 2.91 1.23 5.23 2.04 8.62 1.99 8.39 1.47 7.32zm71.1-0.108c2.42-2.32 6.27-5.91 6.53-6.07l0.219-0.143 0.182 0.0973c0.219 0.117 0.972 1.22 0.972 1.42 0 0.124-7.95 5-8.15 5-0.0333 0 0.0771-0.132 0.245-0.293zm-3.25-0.883c-1e-3 -0.0743 0.467-0.853 2.28-3.79 0.418-0.676 0.949-1.54 1.18-1.91 0.231-0.374 0.538-0.78 0.682-0.901l0.262-0.22 0.244 0.144c0.54 0.319 0.913 0.698 0.831 0.843-0.18 0.318-5.48 5.95-5.48 5.83z" fill="#09090a"/></svg>
