<svg width="210mm" height="297mm" version="1.1" viewBox="0 0 210 297" xmlns="http://www.w3.org/2000/svg"><path d="m67.8 193c-1.55-0.166-1.27-0.221 3.03-0.6 9.46-0.832 18.6-2.58 29.2-5.57 5.11-1.45 5.66-1.62 18.3-5.73 4.68-1.51 10.7-3.4 13.7-4.27 10.2-3 21.9-5.29 26.9-5.29 1.46 0 1.05 0.166-1.26 0.519-7.67 1.17-15.9 3.45-29.1 8.02-26.6 9.23-35.7 11.5-50.1 12.8-1.68 0.145-9.57 0.239-10.6 0.126zm-10.4-4.06c-1.75-0.161-1.28-0.254 2.74-0.544 14.7-1.06 29-3.78 57.2-10.9 13.5-3.4 15.1-3.66 7.76-1.27-2.29 0.747-4.9 1.58-5.79 1.85-0.892 0.27-2.38 0.73-3.3 1.02-22.7 7.15-45.7 11-58.6 9.83zm-12-6.28c-2.65-0.262-6.17-0.915-6.45-1.2-0.106-0.104-0.0454-0.333 0.263-0.996 0.407-0.875 0.396-1.04-0.0676-1.05-1.45-0.0203-1.72 0.697 3.94-10.7 5.83-11.7 4.93-10.3 6.27-9.64 3.46 1.76 8.89 2.11 13.3 0.862 1.08-0.305 0.956-0.369-1.68-0.898-8.98-1.8-12.7-4.43-14.1-10-3.55-13.8 22.8-28.6 43.5-24.3 2.9 0.596 2.95 0.627 2.4 1.65-0.563 1.04-0.56 1.05 0.485 1.37 1.37 0.421 1.81-0.729-5.12 13.3-0.938 1.9-0.802 1.8-1.77 1.37-3.58-1.57-9.99-1.08-14.4 1.1-0.842 0.413-0.829 0.457 0.183 0.623 8.84 1.45 12.4 3.05 13.9 6.26 0.727 1.54 0.791 1.66 1.2 2.31 0.503 0.792 0.852 1.91 1.02 3.28 0.27 2.19 4.94 3.33 9.55 2.32 1.25-0.274 1.22-0.347-0.35-0.799-5.39-1.55-7.42-3.05-9.26-6.8-5.95-12.1 16.2-27.4 33.1-22.8 1.17 0.318 1.18 0.344 0.655 1.39-0.49 0.974-0.474 1.01 0.523 1.33 1.19 0.378 1.19 0.291-0.0659 3.02-1.15 2.51-1.16 2.53-0.126 1.33 6.12-7.14 19.4-10.6 27-7.13 0.982 0.454 1.01 0.537 0.504 1.39-0.466 0.786-0.465 0.788 0.52 1.23 0.477 0.215 0.899 0.469 0.938 0.564 0.0736 0.183-5.8 12.1-5.97 12.1-0.0507 0-0.534-0.207-1.07-0.46-1.67-0.785-3.7-0.99-5.65-0.573-0.713 0.153-0.74 0.288-0.0909 0.457 3.4 0.887 5.65 2.35 6.56 4.27 0.185 0.392 0.476 0.895 0.647 1.12 0.468 0.613 0.986 1.8 1.13 2.59 0.152 0.818 0.171 0.824 1.1 0.361 2.89-1.45 6.28-0.89 7.53 1.23 0.37 0.632 0.379 0.631 1.05-0.0902 3.16-3.4 7.81-3.86 9.84-0.984 0.234 0.332 0.234 0.332 1.15-0.586 3.13-3.13 7.5-3.42 9.33-0.614 0.187 0.285 0.187 0.285 0.8-0.386 3.03-3.31 7.8-3.64 9.33-0.642 0.11 0.214 0.405 0.615 0.657 0.891 2.42 2.64 0.127 7.86-4.37 9.94-2.44 1.13-4.63 0.887-6.03-0.668-0.497-0.553-0.497-0.553-1-4e-3 -3.16 3.43-7.58 4.28-9.65 1.86-0.41-0.478-0.41-0.478-1.37 0.438-3.4 3.26-8.84 3.67-9.77 0.734-0.114-0.359-0.257-0.279-1.34 0.748-2.84 2.7-6.2 3.65-8.73 2.44-1.02-0.483-2.39-2.2-2.39-2.99 0-0.447-0.335-0.24-1.6 0.986-7.2 6.99-18.8 10.2-28.2 7.76-0.974-0.25-1.01-0.332-0.518-1.3 0.289-0.572 0.332-0.741 0.209-0.819-0.283-0.179-0.451-0.107-1.37 0.591-8.02 6.11-19 8.8-28.7 7.01-2.91-0.539-2.97-0.58-2.37-1.65 0.441-0.782 0.398-0.898-0.397-1.08-0.949-0.212-0.963-0.231-0.682-0.88 0.329-0.761 0.312-0.757-0.918 0.216-6.34 5.01-14.2 8.27-22.7 9.43-1.54 0.21-8.69 0.321-10.3 0.16zm82.4-28.1c1.07-0.255 1.03-0.333-0.411-0.818-6.05-2.03-9.11-5.61-8.92-10.4 0.0559-1.39 0.0559-1.39-0.613-0.0217-0.368 0.753-0.697 1.4-0.733 1.43-0.0352 0.0352-0.445-0.0928-0.91-0.284-2.04-0.839-5.71-0.803-8 0.0777-0.544 0.209-0.363 0.319 0.96 0.582 4.92 0.981 7.47 2.49 8.77 5.18 0.189 0.39 0.478 0.887 0.644 1.1 0.165 0.217 0.464 0.743 0.664 1.17 0.879 1.88 5.01 2.85 8.55 2zm-23.4-29c0.612-0.463 5.7-2.28 9.25-3.31 9.57-2.77 25.2-4.96 38-5.33 6.09-0.177 16 0.146 15.5 0.508-0.0265 0.0224-2.11 0.102-4.63 0.176-17.5 0.516-32.5 2.58-55.4 7.6-2.63 0.576-3.07 0.634-2.7 0.352zm-12-2.96c0.233-0.377 3.83-1.85 6.89-2.82 11.9-3.76 27.7-6.52 41.5-7.25 5.7-0.301 15.8-0.232 16.1 0.11 0.0757 0.0757 0.0141 0.115-0.181 0.115-0.469 0-4.83 0.22-6.99 0.352-15.7 0.959-33.6 3.93-55.3 9.14-2.12 0.511-2.21 0.526-2.1 0.351z" fill="#8dc909"/><path d="m68.4 193c-1.77-0.179-1.61-0.237 1.46-0.505 14.1-1.23 24.2-3.52 44.4-10.1 23.7-7.68 34.6-10.4 43.9-10.8 2.1-0.105 1.85 0.0802-0.651 0.473-8.36 1.31-16.9 3.76-33.4 9.54-20.9 7.31-32 10.1-45.3 11.2-2 0.173-9.29 0.323-10.4 0.213zm-10.5-4.07c-2.13-0.103-1.69-0.223 1.86-0.5 8.06-0.63 15.4-1.63 24.7-3.37 7.57-1.42 17.5-3.71 32-7.35 14.9-3.75 16-3.89 6.43-0.826-21.4 6.83-33.4 9.7-47.1 11.2-6.31 0.714-13.2 1.02-17.9 0.798zm-12.9-6.35c-2.77-0.292-5.95-0.916-6.05-1.19-0.0322-0.0838 0.107-0.524 0.31-0.977 0.377-0.844 0.359-1.01-0.109-1.02-0.477-7e-3 -1.04-0.254-1.04-0.456 0-0.318 9.96-20.2 10.1-20.3 0.085-0.0195 0.579 0.178 1.1 0.439 3.43 1.73 8.38 2.07 13 0.909 1.53-0.382 1.55-0.445 0.176-0.676-11.3-1.9-16.3-6.08-16-13.1 0.725-13.5 24.7-25.3 43.7-21.5 2.95 0.593 2.94 0.593 2.43 1.62-0.552 1.1-0.551 1.1 0.496 1.42 0.863 0.265 0.897 0.289 0.883 0.618-0.0276 0.646-6.78 14.5-7.02 14.4-4.25-1.86-10-1.59-15.1 0.717-0.621 0.282-0.999 0.596-0.717 0.596 0.122 0 3.57 0.61 4.64 0.82 5.93 1.17 9.08 3.06 10.4 6.22 0.181 0.445 0.485 1.02 0.675 1.29 0.645 0.89 1.03 2.1 1.27 4.01 0.228 1.8 4.67 2.79 9.14 2.03 1.66-0.283 1.8-0.385 0.899-0.631-6.06-1.65-8.32-3.24-10.2-7.15-5.37-11.3 13.8-25.8 30.7-23.2 3.34 0.516 3.73 0.747 3.16 1.88-0.528 1.05-0.534 1.01 0.19 1.25 1.52 0.498 1.51 0.331 0.251 3.1-1.13 2.48-1.14 2.56-0.266 1.55 5.99-6.93 18-10.5 25.9-7.77 2.26 0.788 2.28 0.812 1.73 1.83-0.444 0.82-0.459 0.786 0.589 1.32 1.1 0.559 1.31-0.122-2.06 6.62-3.34 6.68-2.87 6.06-4.11 5.47-1.63-0.782-3.93-1.01-5.69-0.567-0.668 0.168-0.681 0.294-0.0456 0.457 3.28 0.844 5.71 2.42 6.53 4.24 0.17 0.377 0.485 0.928 0.699 1.22 0.484 0.668 0.89 1.58 1.08 2.42 0.0778 0.351 0.161 0.701 0.186 0.779 0.03 0.0965 0.351-6e-3 1-0.319 2.9-1.39 6.01-0.925 7.37 1.11 0.501 0.747 0.485 0.746 1.14 0.0454 3.15-3.37 7.63-3.85 9.79-1.05 0.303 0.393 0.303 0.393 1.16-0.468 2.81-2.83 7.19-3.47 8.88-1.3 0.174 0.225 0.399 0.515 0.498 0.644 0.176 0.229 0.206 0.21 1.1-0.678 3.05-3.02 7.53-3.29 8.91-0.548 0.124 0.245 0.417 0.655 0.652 0.91 1.85 2.01 1.32 5.3-1.29 7.94-3.08 3.11-6.98 3.75-8.97 1.48-0.513-0.586-0.513-0.586-1.3 0.252-3 3.18-7.07 3.92-9.25 1.68-0.527-0.542-0.527-0.542-1.42 0.313-3.5 3.34-7.99 3.72-9.77 0.833-0.248-0.401-0.248-0.401-1.19 0.517-4.25 4.15-9.91 4.13-11.2-0.0353-0.233-0.754-0.267-0.741-1.71 0.648-6.93 6.67-17.7 9.87-27 8.03-2.26-0.446-2.29-0.466-1.73-1.57 0.284-0.562 0.326-0.728 0.203-0.806-0.289-0.183-0.466-0.102-1.57 0.728-8.43 6.34-20.2 8.92-30 6.55-1.41-0.344-1.36-0.282-0.917-1.18 0.504-1.02 0.494-1.06-0.308-1.22-1.02-0.2-1.04-0.232-0.733-0.871 0.383-0.788 0.282-0.758-1.1 0.326-6.37 4.99-14 8.14-22.7 9.32-1.82 0.248-8.54 0.312-10.5 0.101zm25.5-25c0.0471-0.123 0.238-0.174 0.65-0.174 0.493 0 0.583-0.0336 0.583-0.218 0-0.271 0.217-0.456 0.692-0.593 0.448-0.129 0.955 0.032 0.862 0.273-0.15 0.39 0.434 0.304 0.865-0.128 0.0989-0.0989 0.262-0.134 0.408-0.0892 0.134 0.0414 0.296 0.0652 0.359 0.0529 0.572-0.111 3.3-0.0831 3.59 0.0364 0.64 0.263 2.14 0.188 2.35-0.118 0.122-0.183 0.287-0.261 0.558-0.261 0.497 0 0.602-0.182 0.262-0.457-0.27-0.219-0.27-0.219 0.0201-0.279 0.159-0.0334 0.446-0.0958 0.637-0.139 0.191-0.0429 0.53-0.0751 0.753-0.0715 0.516 8e-3 1.42-0.215 1.53-0.377 0.048-0.0702 0.0859-0.0108 0.0869 0.136 9.76e-4 0.143 0.0539 0.261 0.118 0.261 0.339 0 0.0587-2.93-0.332-3.48-0.115-0.159-0.244-0.471-0.288-0.693-0.111-0.564-0.537-1.16-1.1-1.56-0.265-0.184-0.656-0.499-0.87-0.7-1.19-1.12-4.43-2.13-9.59-2.97-2.92-0.477-4.5-0.887-5.35-1.4-4.58-2.72 5.45-7.97 13.9-7.3 1.36 0.109 1.98 0.208 3.46 0.553 0.217 0.0506 0.295-0.0213 0.479-0.445 0.121-0.278 1.22-2.54 2.45-5.02 3.15-6.39 2.92-5.67 1.83-5.89-8.72-1.81-22.2 0.804-30.6 5.95-11.3 6.93-13.8 17-5.09 20.7 1.78 0.751 7.2 2 8.9 2.05 0.44 0.0133 0.781 0.0556 0.757 0.094-0.0237 0.0384 0.255 0.136 0.619 0.217 0.364 0.0807 1.2 0.27 1.85 0.421 0.925 0.213 1.25 0.246 1.46 0.149 0.357-0.163 0.809 0.0519 0.717 0.341-0.145 0.456 1.16 1.07 1.52 0.712 0.128-0.128 0.506-0.0351 0.506 0.124 0 0.0526-0.104 0.129-0.232 0.169-0.367 0.116-0.27 0.29 0.161 0.29 0.243 0 0.419-0.0666 0.46-0.174zm75.5-1.38c0.271-0.117 0.492-0.255 0.492-0.305 0-0.176 1.12-0.257 1.37-0.0994 0.198 0.124 0.273 0.119 0.448-0.0286 0.296-0.251 1.57-0.467 2.55-0.433 0.515 0.018 0.893-0.0235 0.997-0.11 0.126-0.104 0.258-0.107 0.535-0.0105 0.443 0.154 1.13 0.0474 1.22-0.191 0.0364-0.0948 0.205-0.225 0.374-0.29 0.287-0.109 0.303-0.152 0.237-0.638-0.317-2.31-3.34-2.99-6.1-1.38-1.25 0.728-3.36 3.04-3.36 3.67 0 0.117 0.828-8e-3 1.25-0.189zm-24.8 0.0488c0.138-0.0872 0.116-0.128-0.116-0.214-0.737-0.276-0.807-0.28-0.807-0.0384 0 0.31 0.581 0.469 0.923 0.253zm-10.3-0.819c0.278-0.126 0.574-0.229 0.659-0.229s0.325-0.156 0.535-0.348c0.209-0.191 0.442-0.348 0.516-0.348 0.0746 0 0.163-0.0717 0.197-0.159 0.0566-0.148 0.651-0.161 1.76-0.0398 0.186 0.0203 0.232-0.0435 0.232-0.322 0-0.289 0.0419-0.342 0.249-0.313 0.137 0.0189 0.42-0.0697 0.629-0.197 0.209-0.127 0.423-0.205 0.475-0.172 0.0523 0.0323 0.0951-0.127 0.0951-0.354 0-0.227 0.0521-0.412 0.116-0.412 0.152 0 0.147-0.339-0.0113-0.794-0.0699-0.201-0.18-0.332-0.244-0.292-0.0723 0.0447-0.0882-0.0185-0.0415-0.165 0.16-0.504-0.463-1.5-1.1-1.77-0.185-0.0766-0.336-0.207-0.336-0.291 0-0.25-0.823-0.849-1.44-1.05-0.321-0.104-0.904-0.342-1.3-0.529-0.702-0.334-1.73-0.579-5.24-1.25-4.07-0.78-5.33-1.83-4.27-3.57 1.37-2.26 8.27-4.02 11.8-3.01 0.618 0.178 0.618 0.178 1.35-1.34 0.819-1.71 1.52-3.19 2.11-4.48 0.221-0.478 0.652-1.39 0.958-2.03 0.813-1.69 1.04-2.25 0.946-2.31-2.34-1.45-12.1-0.156-17.8 2.36-8.21 3.61-14 11.3-12.3 16.2 0.159 0.446 0.323 0.961 0.366 1.14 0.181 0.788 2.05 2.35 3.58 2.99 2.04 0.854 5.88 1.89 6.59 1.78 0.458-0.0718 1.6 0.143 1.6 0.301 0 0.0528-0.0652 0.0998-0.145 0.105-0.168 0.01 0.711 0.434 0.927 0.446 0.0797 5e-3 0.139-0.0305 0.131-0.0783-0.04-0.253 0.0537-0.318 0.448-0.306 0.703 0.0197 0.753 0.0358 0.682 0.22-0.0867 0.226 0.125 0.224 0.352-4e-3 0.142-0.142 0.212-0.149 0.349-0.0359 0.135 0.112 0.221 0.111 0.409-7e-3 0.195-0.122 0.291-0.121 0.522 3e-3 0.246 0.132 0.299 0.126 0.395-0.0469 0.137-0.246 0.372-0.256 0.564-0.0237 0.107 0.129 0.186 0.142 0.296 0.0499 0.167-0.138 0.629 0.0396 0.629 0.242 0 0.0615 0.109 0.112 0.243 0.112 0.134 0 0.386 0.102 0.561 0.226 0.229 0.163 0.559 0.238 1.18 0.267 0.472 0.0222 0.963 0.0496 1.09 0.0609s0.459-0.0827 0.737-0.209zm-5.08-0.229c0-0.0637-0.209-0.116-0.463-0.116s-0.463 0.0521-0.463 0.116c0 0.0637 0.209 0.116 0.463 0.116s0.463-0.0521 0.463-0.116zm21.7-0.575c1.51-0.311 1.5-0.366-0.0557-0.878-4.13-1.36-6.42-3.07-7.79-5.82-1.05-2.1-1.12-2.37-1.12-4.29 0-0.908-0.0112-1.65-0.0248-1.65-0.0136 1e-5 -0.306 0.592-0.65 1.32-0.736 1.55-0.698 1.51-1.36 1.22-2.06-0.934-5.93-0.944-8.24-0.0211-0.638 0.255-0.521 0.315 1.42 0.726 4.6 0.977 7.05 2.46 8.24 4.99 0.195 0.414 0.461 0.871 0.591 1.02 0.13 0.145 0.448 0.692 0.708 1.22 0.979 1.98 4.6 2.93 8.28 2.17zm6.27-0.4c0-0.0266 0.0317-0.131 0.0703-0.232 0.0444-0.116 8e-3 -0.183-0.099-0.183-0.0931 0-0.304-0.125-0.469-0.278-0.339-0.314-0.656 0.108-0.411 0.547 0.0943 0.169 0.908 0.299 0.908 0.146zm25.2-0.366c0.143-0.0938 0.261-0.245 0.261-0.335 0-0.246 0.768-0.165 0.963 0.102 0.208 0.285 0.813 0.0288 0.87-0.368 0.0468-0.328 0.357-0.337 0.698-0.0201 0.33 0.308 0.655 0.25 0.658-0.117 3e-3 -0.339 0.199-0.426 0.434-0.191 0.216 0.216 0.987 0.27 1.32 0.0928 0.135-0.0728 0.357-0.111 0.492-0.0849 0.301 0.058 0.32-0.154 0.0637-0.695-0.191-0.403-0.502-0.608-0.623-0.411-0.0838 0.136-0.584 0.0297-0.584-0.124 0-0.0577-0.132-0.165-0.293-0.238-0.205-0.0936-0.25-0.16-0.149-0.223 0.098-0.0606 0.0342-0.132-0.199-0.223-1.41-0.552-5.81 1.89-5.26 2.92 0.146 0.272 0.872 0.225 1.35-0.0879zm-24-0.165c0.102-0.165 1.14-0.144 1.31 0.0261 0.112 0.112 0.19 0.112 0.369 0 0.125-0.0781 0.381-0.142 0.569-0.142 0.244 0 0.363-0.0688 0.418-0.24 0.0488-0.154 0.139-0.216 0.252-0.173 0.0967 0.0371 0.392 6e-3 0.656-0.0688 0.264-0.0749 0.591-0.125 0.726-0.111 0.161 0.0167 0.266-0.054 0.306-0.205 0.0439-0.168 0.127-0.213 0.305-0.167 0.135 0.0352 0.245 0.01 0.245-0.0564 0-0.172 0.673-0.356 1.22-0.332 0.403 0.0176 0.46 0.0536 0.437 0.274-0.023 0.221 0.0374 0.259 0.463 0.29 0.36 0.0261 0.483 0.0819 0.462 0.211-0.0539 0.34 0.422 0.506 0.543 0.189 0.202-0.532 0.369-1.26 0.304-1.32-0.036-0.0361-0.0656-6e-3 -0.0656 0.066 0 0.0724-0.0782 0.102-0.174 0.0649-0.239-0.0918-0.218-0.355 0.0579-0.706 0.232-0.295 0.232-0.295 0.244 0.0397 0.0281 0.792 0.23-0.505 0.245-1.58 0.0429-2.96-2.18-4.81-7.04-5.85-4.11-0.878-5.34-1.69-4.72-3.1 0.956-2.15 6.46-3.74 9.76-2.83 1.37 0.378 1.03 0.763 3.36-3.87 2.68-5.34 2.65-4.79 0.372-5.36-7.94-1.98-20.4 3.37-23.9 10.3-2.95 5.74-1.1 9.09 6.14 11.1 3.55 0.989 4.25 1.28 5.04 2.13 0.304 0.326 0.618 0.593 0.698 0.593 0.0806 0 0.228 0.0913 0.327 0.203 0.49 0.551 0.961 0.814 1.09 0.608zm36.4-1.04c0.426-0.0645 1.35-0.13 2.05-0.145 1.27-0.0276 1.27-0.0276 1.46-0.424 0.173-0.367 0.197-0.38 0.316-0.174 0.262 0.452 0.148-0.459-0.125-0.992-0.815-1.59-3.35-1.54-5.53 0.115-1.94 1.48-1.26 2.09 1.83 1.62zm8.98-1.09c0.369-0.0182 0.695 6e-3 0.724 0.053 0.0293 0.0474 0.157 0.0591 0.284 0.026s0.202-0.106 0.167-0.163c-0.0349-0.0565 0.0755-0.103 0.245-0.103 0.17 0 0.669-0.0868 1.11-0.193 0.69-0.167 0.84-0.171 1.1-0.0326 0.269 0.144 0.347 0.133 0.755-0.102 0.251-0.144 0.506-0.231 0.569-0.192 0.12 0.0742 0.164-0.782 0.0457-0.9-0.0371-0.0371-0.25 9e-3 -0.473 0.102-0.39 0.163-0.403 0.16-0.332-0.0637 0.048-0.151-0.0189-0.359-0.19-0.591-0.223-0.302-0.238-0.374-0.0953-0.462 0.179-0.11-0.485-0.463-0.871-0.463-1.29 0-2.98 0.734-4.06 1.76-1.35 1.28-1.41 1.66-0.251 1.46 0.331-0.057 0.904-0.118 1.27-0.137zm-75.9-26c0.407-0.397 5.64-2.28 9.03-3.25 8.76-2.51 23.1-4.69 34.8-5.27 5.57-0.281 18.8-0.0329 18.3 0.344-0.0526 0.0459-2.16 0.146-4.67 0.221-17.2 0.517-32.4 2.63-55.5 7.71-2.14 0.47-2.25 0.484-2 0.247zm-12.1-3.02c0-0.228 3.4-1.61 6.27-2.55 11.2-3.67 26.3-6.41 40.5-7.36 5.28-0.354 16.8-0.36 17.4-9e-3 0.154 0.0898 0.0816 0.117-0.323 0.12-0.618 5e-3 -6.51 0.313-7.76 0.406-16 1.19-30.8 3.62-51.7 8.53-3.67 0.861-4.37 0.999-4.37 0.862z" fill="#6aba0c"/><path d="m69.2 193c-0.287-0.0495-0.443-0.0984-0.348-0.109 0.0956-0.0102 0.8-0.0719 1.56-0.137 6.7-0.571 15.6-2.05 22.7-3.78 4.2-1.02 11.8-3.23 17.4-5.04 1.37-0.446 3.3-1.07 4.29-1.39s2.81-0.909 4.06-1.31c15.1-4.93 24.7-7.43 33.8-8.8 3.07-0.462 6.23-0.713 4.29-0.34-5.55 1.06-6.72 1.33-11.1 2.48-4.84 1.28-12.4 3.7-20.5 6.54-20.5 7.24-31.9 10.2-44.4 11.5-3.86 0.398-10.5 0.639-11.8 0.425zm-10.2-4.06c-0.733-0.0825-0.856-0.0665 3.19-0.416 14.5-1.26 27.6-3.81 56-10.9 7.95-2 10.3-2.5 7.59-1.64-0.669 0.215-2.23 0.721-3.48 1.13-3.78 1.23-12.5 3.89-15.9 4.83-15.6 4.38-28.3 6.54-41.4 7.03-3.26 0.122-4.99 0.124-6.03 7e-3zm-13.7-6.27c-2.67-0.25-6.37-0.955-6.37-1.21 0-0.077 0.161-0.496 0.359-0.932 0.415-0.916 0.37-1.01-0.545-1.15-0.303-0.0454-0.551-0.152-0.59-0.254-0.0856-0.223 9.82-20.2 10-20.2 0.0811-4e-3 0.55 0.194 1.04 0.442 2.27 1.14 4.28 1.56 7.33 1.55 3.63-0.0117 8.71-1.04 6.76-1.37-9.9-1.66-14.2-4.09-16-8.96-5.37-14.7 22.5-30.6 44.3-25.3 1.42 0.345 1.39 0.31 0.88 1.35-0.468 0.949-0.417 1.06 0.651 1.37 1.13 0.332 1.18 0.0969-1.01 4.61-4.58 9.42-4.94 10.1-5.21 10-0.144-0.0368-0.783-0.248-1.42-0.469-3.57-1.24-9.23-0.688-13.6 1.33-1.17 0.542-1.18 0.692-0.0142 0.892 9.73 1.68 12.7 3.12 14.2 6.82 0.179 0.436 0.515 1.08 0.747 1.43 0.667 1.01 1.23 2.92 1.23 4.18 0 0.539 1.29 1.32 2.96 1.79 1.57 0.441 6.37 0.285 7.77-0.253 0.396-0.152 0.108-0.373-0.795-0.61-10.5-2.75-13.7-9.88-8.23-18.3 5.6-8.67 20.3-14 31-11.4 1.43 0.358 1.43 0.355 0.926 1.35-0.577 1.15-0.651 1.01 0.886 1.58 0.763 0.28 0.861-0.0855-1.14 4.26-0.343 0.745-0.624 1.38-0.624 1.42 0 0.198 0.239-2e-3 0.582-0.486 5.26-7.45 19.2-11.6 27.4-8.25 1.23 0.508 1.25 0.533 0.795 1.38-0.471 0.884-0.447 0.94 0.622 1.43 0.868 0.401 0.874 0.407 0.752 0.73-0.161 0.424-5.67 11.4-5.78 11.5-0.0465 0.0495-0.498-0.117-1-0.371-1.75-0.877-4.38-1.07-6.28-0.459-0.541 0.174-0.468 0.303 0.29 0.514 3.71 1.03 5.62 2.26 6.65 4.28 0.228 0.446 0.6 1.08 0.827 1.42 0.464 0.683 0.825 1.57 0.951 2.35 0.136 0.837 0.19 0.852 1.24 0.345 2.95-1.43 6.22-0.888 7.41 1.23 0.434 0.769 0.284 0.8 1.35-0.274 3.06-3.08 7.06-3.59 9.22-1.16 0.645 0.725 0.645 0.725 1.49-0.144 3.07-3.15 7.2-3.51 9.26-0.797 0.301 0.397 0.301 0.397 1.1-0.422 3.01-3.08 7.54-3.48 8.92-0.779 0.124 0.243 0.425 0.668 0.67 0.943 2.55 2.87 0.199 8.08-4.56 10.1-2.25 0.951-4.66 0.541-5.69-0.969-0.367-0.539-0.442-0.526-1.03 0.176-2.69 3.19-7.05 4.13-9.25 2-0.757-0.733-0.823-0.745-1.22-0.226-2.63 3.44-8.21 4.22-10 1.4-0.414-0.655-0.459-0.651-1.11 0.108-3.74 4.34-9.81 4.48-11.3 0.277-0.317-0.87-0.281-0.882-1.84 0.619-7.12 6.88-18.2 10-27.8 7.84-1.33-0.301-1.31-0.279-0.859-1.2 0.37-0.751 0.375-0.783 0.164-0.938-0.358-0.262-0.546-0.194-1.51 0.547-8.26 6.34-20 8.99-29.8 6.71-1.52-0.352-1.47-0.292-0.99-1.25 0.475-0.944 0.463-0.97-0.542-1.19-0.796-0.176-0.842-0.227-0.605-0.684 0.616-1.19 0.456-1.2-0.983-0.0459-8.86 7.09-21.4 10.7-33 9.65zm9.39-4.44c15.1-2.33 28.3-11.8 30.2-21.7 1.12-5.84-1.93-8.74-10.8-10.3-3.7-0.646-5.65-1.07-6.33-1.38-6.12-2.8 7.37-8.8 15.5-6.92 1.72 0.397 1.55 0.461 2.16-0.795 5.88-11.9 5.49-10.5 2.86-10.8-17.7-2.48-38.4 7.48-40 19.2-0.741 5.57 2.82 8.16 13.8 10.1 5.73 1.01 6.99 1.63 6.33 3.12-1.41 3.19-13.7 4.85-18.9 2.55-0.357-0.158-0.722-0.287-0.812-0.287-0.1 0-1.57 2.84-3.82 7.38-5.12 10.3-4.76 9.48-4.01 9.6 0.237 0.0373 0.754 0.123 1.15 0.191 3.18 0.542 9.23 0.571 12.5 0.0594zm38-5.75c11.9-1.72 22.1-9.19 23.7-17.3 1.05-5.18-1.34-7.25-10.3-8.9-0.605-0.112-1.44-0.306-1.85-0.431-6.37-1.92 2.34-7.15 9.49-5.7 0.514 0.104 0.898 0.132 0.961 0.0685 0.269-0.269 4.96-10.4 4.87-10.5-0.405-0.405-4.78-0.752-7.02-0.555-12.3 1.08-22.7 8.48-23.7 16.9-0.522 4.34 1.84 6.33 9.92 8.37 3.41 0.862 4.22 1.24 4.37 2.05 0.6 3.14-9.9 5.17-14.5 2.81-0.24-0.123-0.509-0.223-0.596-0.223-0.148 0-1.53 2.73-4.6 9.1-0.646 1.34-1.33 2.74-1.51 3.12-0.474 0.959-0.483 0.944 0.733 1.17 2.41 0.455 7.17 0.483 10.1 0.0605zm30-5.05c10.9-1.57 20.4-8.95 21.2-16.5 0.437-3.85-1.61-5.83-7.42-7.16-3.89-0.896-4.83-1.48-4.41-2.77 0.692-2.1 6.98-3.74 10.1-2.64 0.94 0.336 0.623 0.768 3.18-4.33 2.62-5.22 2.58-4.72 0.472-5.25-10.7-2.71-25.7 5.96-25.7 14.9-5e-3 3.65 1.75 5.12 8.57 7.12 2.95 0.871 3.88 1.4 3.88 2.2 0 2.77-7.99 4.42-12.4 2.56-0.635-0.266-0.802-0.298-0.906-0.173-0.353 0.425-5.63 11.6-5.54 11.7 0.436 0.551 6.06 0.753 9.02 0.324zm26-5.96c3.9-1.46 6.7-6.07 5.12-8.42-2.17-3.24-8.67-0.179-9.94 4.68-0.813 3.13 1.56 4.97 4.82 3.75zm11.2-1.66c2.86-1.04 5.06-3.8 5.06-6.36 0-3.3-4.64-3.44-7.53-0.232-3.53 3.92-1.93 8.19 2.48 6.6zm10.7-1.78c3.24-1.29 5.63-4.99 4.57-7.06-1.31-2.54-6.02-1.18-8.12 2.35-2.02 3.41 0.0194 6.11 3.55 4.71zm11.1-2.05c4.74-2.35 5.11-8.23 0.474-7.43-2.77 0.48-5.29 3.25-5.29 5.8 0 2.22 2.16 2.95 4.82 1.63zm-55-0.999c1.89-0.299 2.45-0.658 1.42-0.918-5.86-1.48-9.77-5.54-9.76-10.1 3e-3 -0.828 0.0465-1.17 0.29-2.24 0.16-0.705-0.266-0.0953-0.959 1.37-0.88 1.86-0.681 1.75-2.22 1.21-1.74-0.621-4.29-0.621-6.6-8.2e-4 -2.04 0.548-2.06 0.675-0.138 1.04 4.99 0.957 7.71 2.52 8.89 5.13 0.166 0.364 0.447 0.845 0.624 1.07 0.177 0.223 0.483 0.76 0.678 1.19 0.815 1.8 4.3 2.83 7.77 2.28zm-21.6-29.5c0-0.0634 0.0802-0.0985 1.51-0.659 11.9-4.69 32.9-7.82 50.9-7.58 6.24 0.0818 7.79 0.215 4.06 0.348-16.1 0.573-31.4 2.58-49.7 6.51-0.765 0.164-1.63 0.345-1.91 0.402-0.287 0.0566-1.48 0.315-2.66 0.573-2.37 0.522-2.21 0.493-2.21 0.41zm-11.7-3.23c0.74-0.519 5.85-2.29 9.6-3.32 14.7-4.06 30.7-6.24 45.7-6.24 4.61-1.8e-4 6.11 0.133 3.13 0.278-3.99 0.195-9.88 0.679-13.6 1.12-6.97 0.816-9.69 1.21-17 2.49-7.25 1.26-16 3.09-26.3 5.5-1.71 0.4-1.83 0.415-1.5 0.184z" fill="#0a2506"/></svg>
