<svg width="210mm" height="297mm" version="1.1" viewBox="0 0 210 297" xmlns="http://www.w3.org/2000/svg"><path d="m103 188c-2.22-13.1-3.36-17.1-5.26-18.8-1.94-1.66-5.72 0.386-23.9 12.9-2.82 1.95-3.58 2.42-3.58 2.2 0-0.0253 0.498-1.37 1.11-2.99 4.25-11.3 5.57-15.7 5.24-17.2-0.178-0.83-0.0611-0.811-3.2-0.494-5.89 0.596-4.76 0.33-9.43 2.22-4.74 1.92-4.96 1.96-5.44 1.03-0.0847-0.164-0.394-0.578-0.687-0.921-0.293-0.343-0.534-0.688-0.534-0.768-3e-3 -0.469-1.58-1.98-1.6-1.53-0.0814 3.27-0.464 4.79-1.29 5.1-0.308 0.116-2.73 1.07-5.38 2.12-4.56 1.8-5.04 1.97-5.57 1.94-0.232-0.0123-1.92-1.83-2.1-2.27-0.175-0.416-0.813-1.14-1.24-1.41-0.788-0.497-0.789-0.505-0.469-4.4 0.549-6.69 1.8-20.8 2.66-29.9 0.14-1.49 0.426-4.56 0.636-6.84 0.475-5.14 0.447-4.93 0.679-5.3 0.454-0.738 11.5-6.41 12.5-6.41 0.413 0 0.959 0.446 0.959 0.784 0 0.537 2.6 2.52 2.69 2.05 0.119-0.594 0.0793-0.823-0.142-0.823-0.113 0-0.268-0.0864-0.344-0.192-0.213-0.295-4.65-4.48-6.89-6.51-1.1-0.995-1.98-1.86-1.96-1.93 0.0529-0.155 0.0954-0.148 3.31 0.532 6.79 1.44 7.78 1.64 9.2 1.9 1.96 0.355 2.01 0.409 0.789 0.893-1.47 0.585-0.322 0.251 1.95-0.564 4.23-1.52 7.07-2.42 7.5-2.38 2.31 0.201-0.728-8.49-9.35-26.7-1.37-2.9-1.7-2.98 3.67 0.848 15.1 10.7 21.4 14.8 23.7 15.2 1.99 0.376 4.2-3.77 10-18.8 2.84-7.33 2.52-6.8 3.14-5.25 6.56 16.6 7.93 19.1 10.1 18 1.77-0.836 7.91-6.01 17.7-14.9 2.88-2.61 2.91-2.64 3.02-2.53 0.0602 0.0602-0.164 1.16-0.579 2.85-4.57 18.6-4.6 23.1-0.173 23.8 0.419 0.0706 0.802 0.194 0.852 0.274 0.0648 0.105 0.18-0.0324 0.411-0.49 0.46-0.911 1.12-1.17 8.39-3.25 6.86-1.97 7.37-2.02 7.95-0.787 0.173 0.367 0.581 0.977 0.907 1.36 0.326 0.379 0.727 0.845 0.891 1.04 0.28 0.328 0.324 0.343 0.76 0.265 0.254-0.0455 0.637-0.0805 0.85-0.0778 0.466 6e-3 0.467 2e-3 0.575-3.5 0.104-3.37-0.45-2.99 7.52-5.18 7.87-2.16 9.07-2.31 9.33-1.14 0.0452 0.206 0.642 0.869 1.86 2.07 2.27 2.23 2.56-0.559-1.86 17.5-4.23 17.3-4.46 18.3-4.37 18.4 0.0767 0.0767 2.03 0.43 5.79 1.05 3.87 0.635 3.83 0.459 0.427 2.01-3.45 1.57-6.61 3.05-6.72 3.14-0.055 0.0464 0.0266 0.354 0.191 0.721 3.1 6.92-6.73 14.7-12 9.52-0.749-0.749-0.913-0.731-1.51 0.164-1.28 1.91 0.362 4.71 9.96 17 3.48 4.44 3.31 4.2 3.18 4.33-0.0721 0.0721-1.47-0.383-4.28-1.39-24.5-8.81-28.5-8.64-28.5 1.21 0 3.17 0.418 6.31 1.92 14.4 0.685 3.71 0.691 3.76 0.488 3.76-0.0768 0-1.66-1.61-3.52-3.57-11.2-11.8-14.9-14.8-17.1-13.7-2.34 1.2-6.13 7.4-11.7 19.2-1.91 4.03-1.76 3.97-2.27 0.984zm-61.1-25.2c-0.0071-0.679-0.0083-0.682-0.092-0.212-0.123 0.692-0.113 1.92 0.0115 1.32 0.0482-0.233 0.0845-0.734 0.0805-1.11zm0.394-4.24c0.224-2.2 0.454-4.58 0.575-5.94 0.562-6.33 0.864-9.65 0.953-10.5 0.507-4.81 1.23-12.1 1.59-16 0.204-2.21 0.218-2.29 0.483-2.49 0.477-0.37 5.33-3.04 7.39-4.07 1.1-0.547 1.66-0.967 1.3-0.967-0.254 0-8.59 4.33-9.15 4.76-0.242 0.183-0.261 0.32-0.663 4.68-0.609 6.62-0.811 8.87-1.16 12.9-0.171 1.98-0.406 4.65-0.523 5.94-0.496 5.44-0.93 10.9-1 12.6-0.0634 1.5-0.0134 1.29 0.204-0.848zm15.9-1.27c0.422-3.84 0.779-7.87 0.961-10.9 0.102-1.67-0.179 0.758-0.688 5.94-0.115 1.17-0.279 2.81-0.365 3.66-0.189 1.85-0.304 4.14-0.167 3.34 0.0495-0.291 0.166-1.22 0.259-2.07zm9.71-3.71c0.24-0.728 0.697-2.19 1.02-3.26 0.319-1.06 0.696-2.26 0.838-2.65 0.142-0.394 0.424-1.24 0.626-1.88 0.203-0.641 0.663-2 1.02-3.02 0.36-1.02 0.766-2.19 0.903-2.6 1.21-3.62 5.28-14.5 7.82-20.9 0.51-1.29 3.09-2.47 10-4.6 0.71-0.219 0.971-0.371 0.847-0.495-0.0273-0.0273-0.545 0.114-1.15 0.313s-1.82 0.588-2.69 0.863c-2.55 0.801-6.59 2.23-6.79 2.39-0.363 0.302-5.52 13.9-7.7 20.2-3.19 9.34-5.28 16-5.28 16.9 0 0.205 0.124-0.107 0.528-1.33zm16.9-3.55c0.0487-1.92 0.07-3.52 0.0474-3.55-0.18-0.219-0.238 0.709-0.232 3.76 0.0037 1.92 0.0268 3.45 0.0512 3.39s0.0843-1.68 0.133-3.6zm11-1.29c0.0828-1.16 0.223-3.13 0.311-4.38 0.336-4.78 0.383-5.4 0.533-7.05 0.0847-0.933 0.252-3.06 0.372-4.72s0.24-3.14 0.266-3.29c0.0267-0.146 0.168-1.84 0.315-3.76s0.336-4.33 0.42-5.35c0.0846-1.02 0.278-3.43 0.431-5.35 0.442-5.58 0.363-5.04 0.773-5.28 0.471-0.275 6.55-3.13 7.49-3.52 0.766-0.317 0.956-0.46 0.804-0.612-0.151-0.151-8.39 3.4-8.99 3.87-0.175 0.14-0.201 0.44-0.933 10.7-0.144 2.01-0.332 4.63-0.418 5.83-0.0864 1.2-0.207 3.06-0.267 4.13-0.0606 1.08-0.203 3.25-0.316 4.82-0.114 1.57-0.258 3.6-0.321 4.5-0.063 0.904-0.21 2.95-0.327 4.56-0.521 7.13-0.526 7.25-0.347 7.07 0.0273-0.0273 0.117-0.996 0.2-2.15zm15.4-2.1c0.0696-0.933 0.168-2.13 0.22-2.65 0.0511-0.525 0.0899-1.26 0.0863-1.64-7e-3 -0.689-7e-3 -0.689-0.0943 0.106-0.141 1.28-0.522 5.65-0.518 5.94 0.012 0.79 0.194-0.251 0.306-1.75zm11.5-4.89c0.181-0.516 0.44-1.27 0.575-1.68 0.135-0.408 0.517-1.46 0.849-2.33s0.76-2.04 0.953-2.6c0.368-1.06 2.78-7.4 4.54-11.9 1.27-3.27 4.51-11.3 5.78-14.3 0.294-0.7 0.934-2.23 1.42-3.39 0.885-2.12 0.885-2.12 2.68-2.73 2.54-0.869 5.95-1.95 7.26-2.3 2.84-0.767 3.67-1.06 3.03-1.06-0.926 0-12 3.21-12.4 3.59-0.213 0.218-1.2 2.58-5.04 12.1-1.98 4.9-5.4 13.8-6.76 17.7-0.311 0.874-0.695 1.92-0.853 2.33-0.405 1.05-1.7 4.74-2.18 6.25-0.633 1.96-0.533 2.29 0.126 0.409zm19.1-4.39c0.134-4.7 0.136-5.36 0.0112-4.71-0.117 0.609-0.394 8.18-0.329 8.96 0.0864 1.02 0.217-0.73 0.317-4.25zm-30 2.55c0.0604-0.494 0.184-1.83 0.275-2.96 0.0907-1.14 0.209-2.57 0.262-3.18 0.136-1.55 0.13-1.74-0.0456-1.32-0.0743 0.175-0.192 1.1-0.262 2.07-0.0698 0.962-0.17 2.25-0.222 2.86-0.254 2.97-0.259 4.6-8e-3 2.54zm-31.3 0.056c0.525-0.212 1.43-0.592 2.01-0.844 0.583-0.252 1.25-0.517 1.48-0.59 1.11-0.345 1.01 0.334 1.01-6.52 0-3.99-0.0366-6.09-0.106-6.09-0.155 0-0.155-0.017-0.157 6.24-0.0021 6.52 0.4 5.65-3.23 7.06-1.83 0.715-2.07 0.834-2.16 1.06-0.0447 0.116-0.0225 0.156 0.0666 0.117 0.0735-0.0315 0.563-0.231 1.09-0.443zm74.2-3.5c0.356-2.24 1.52-3.91 3.31-4.76 1.05-0.497 0.946-0.887-0.113-0.444-2.22 0.929-4.17 4.37-3.48 6.17 0.0895 0.233 0.097 0.208 0.284-0.966zm-101 0.679c0.785-0.4 4.79-2.04 5.67-2.33 0.804-0.259 0.846-0.311 0.926-1.16 0.249-2.65 0.422-4.29 0.596-5.67 0.273-2.16 1.03-8.92 1.23-11 0.0885-0.924 0.11-0.963 0.659-1.2 1.33-0.565 7.41-2.88 7.56-2.88 0.272 0 1.26-0.463 1.26-0.591 0-0.314-9.29 2.85-9.77 3.33-0.0658 0.0662-0.244 1.74-0.935 8.81-1.1 11.2-0.876 9.72-1.48 9.98-0.269 0.116-0.846 0.346-1.28 0.511-2.55 0.963-5.14 2.1-5.18 2.26-0.0466 0.242 0.213 0.226 0.742-0.0443zm107-6.16c-0.175-0.175-1.66-0.179-1.84-4e-3 -0.106 0.106 0.0772 0.132 0.917 0.132 0.821 0 1.02-0.028 0.921-0.128zm-3.9-5.94c0.138-2.54 0.272-5.15 0.383-7.5 0.062-1.31 0.254-4.84 0.428-7.84 0.443-7.67 0.634-11.4 0.634-12.5 0-0.569 0.0499-0.978 0.132-1.08 0.154-0.199 8.46-2.69 10.7-3.21 0.901-0.209 1.02-0.258 1.02-0.434 0-0.312-11.6 2.68-12.3 3.16-0.0743 0.0559-0.144 0.874-0.19 2.23-0.0401 1.18-0.188 4.96-0.329 8.4-0.141 3.44-0.284 7.21-0.318 8.37-0.0558 1.9-0.287 7.84-0.416 10.7-0.0269 0.599-0.0109 1.07 0.0356 1.04 0.0465-0.0287 0.116-0.638 0.155-1.35zm-20.6 0.857c0.318-0.127 1.51-0.562 3.58-1.31 2.5-0.895 2.25-0.718 2.32-1.7 0.099-1.39 0.292-11.6 0.221-11.7-0.221-0.221-0.368 3.69-0.373 9.94-2e-3 2.16-0.0589 2.41-0.582 2.57-0.711 0.221-4.48 1.6-4.99 1.82-0.771 0.341-0.936 0.66-0.186 0.359zm-28.3-2.58c0.612-0.249 1.61-0.667 2.23-0.929 0.612-0.262 1.43-0.579 1.81-0.705 1.12-0.366 1.03-0.138 1.26-3.14 0.114-1.46 0.256-3.15 0.315-3.76 0.195-2.01 0.525-6.17 0.635-8 0.16-2.67 0.183-2.8 0.516-2.93 0.943-0.376 3.55-1.31 6.19-2.21 3.22-1.1 3.26-1.12 3.26-1.27 0-0.338-9.63 2.73-10.1 3.23-0.0742 0.0732-0.206 1.48-0.348 3.72-0.222 3.51-0.802 11.7-0.921 13.1-0.0498 0.556-0.0946 0.669-0.289 0.729-0.537 0.167-6.39 2.51-6.47 2.59-0.267 0.258 0.029 0.43 0.436 0.254 0.22-0.0952 0.901-0.377 1.51-0.626zm22-6.87c0.138-0.351 0.232-0.657 0.21-0.679-0.0447-0.0447-0.702 1.5-0.697 1.63 5e-3 0.146 0.223-0.281 0.487-0.954zm-50.4-0.068c0.571-0.291 6.3-2.28 9.34-3.24 2.43-0.767 3.37-1.11 2.6-0.94-1.27 0.275-8.67 2.72-11.3 3.72-1.2 0.462-1.44 0.633-1.61 1.13-0.116 0.334-0.116 0.334 0.215-0.0664 0.182-0.22 0.509-0.491 0.727-0.602zm-19-1.73c0.142-0.142 0.687-0.442 1.21-0.667 1.23-0.528 1.17-0.567-0.158-0.093-1.31 0.467-1.86 1.06-1.58 1.71 0.0628 0.146 0.103 0.0892 0.176-0.251 0.0522-0.242 0.211-0.556 0.353-0.698zm71-2.05c0.276-0.674 0.482-1.25 0.457-1.27-0.045-0.045-0.847 1.8-0.98 2.26-0.168 0.575 0.0601 0.145 0.524-0.988zm-33.8-4.7c0.301-0.141 0.529-0.275 0.506-0.298-0.0626-0.0626-1.28 0.569-1.41 0.732-0.0622 0.0776-0.148 0.26-0.191 0.406-0.0604 0.205-0.0073 0.169 0.234-0.159 0.193-0.262 0.521-0.522 0.86-0.68zm35.9-0.644c-1e-3 -0.0875-0.115 0.0795-0.252 0.371-0.137 0.291-0.249 0.602-0.247 0.689 1e-3 0.0874 0.115-0.0795 0.252-0.371 0.137-0.291 0.249-0.602 0.247-0.689zm-32.5-0.973c0.662-0.302 1.19-0.566 1.17-0.588-0.0386-0.0386-2 0.805-2.36 1.02-0.477 0.278 0.0964 0.0712 1.2-0.431zm33.3-1.12c-0.0757-0.0757-0.487 0.81-0.478 1.03 4e-3 0.0875 0.126-0.0947 0.273-0.405 0.147-0.31 0.239-0.591 0.205-0.625zm-30.5-0.105c0.321-0.142 0.956-0.403 1.41-0.579 0.456-0.177 0.806-0.344 0.778-0.372-0.0542-0.0542-1.76 0.614-2.72 1.07-0.716 0.337-0.276 0.241 0.53-0.116zm9-2.73c0.666-0.344 7.41-2.67 9.87-3.4 0.729-0.217 1.61-0.48 1.96-0.584 0.35-0.104 0.544-0.192 0.431-0.196-0.44-0.0162-4.24 1.13-7.8 2.36-4.59 1.58-5.19 1.86-5.19 2.46-2e-3 0.167 0.0415 0.141 0.205-0.127 0.114-0.187 0.35-0.413 0.525-0.504zm37 79.6c-0.263-0.364-1.48-2.05-2.7-3.74-2.69-3.73-6.71-9.36-7.69-10.8-1.91-2.79-0.282-1.03 8.98 9.75 1.1 1.28 2.35 2.73 2.78 3.22 0.94 1.08 0.938 1.03 0.0714 1.7-0.877 0.677-0.856 0.679-1.43-0.12zm-93-0.358c-0.659-0.721-0.672-0.672 0.383-1.52 8.84-7.14 12.6-10.2 14-11.2 0.619-0.449-1.4 1.58-4.82 4.83-2.22 2.11-5.11 4.87-6.43 6.15-2.76 2.65-2.45 2.49-3.15 1.72zm-5.47-4.92c-0.393-0.623-0.487-0.912-0.335-1.04 0.361-0.294 12.7-6.33 15.8-7.72 2.36-1.06 1.68-0.578-3.22 2.3-3.5 2.05-6.21 3.65-9.46 5.58-2.5 1.48-2.42 1.46-2.78 0.88zm103-2.03c-5.41-4.24-13.3-10.6-13.2-10.6 0.0941-0.0941 2.53 1.45 11.2 7.09 2 1.3 3.94 2.56 4.3 2.79 0.797 0.507 0.795 0.48 0.13 1.36-0.67 0.885-0.499 0.927-2.43-0.59zm-92.5-67.3c-2.5-0.886-7.05-2.56-11.7-4.31-2.35-0.881-2.76-1.07-2.79-1.26-0.0331-0.232 0.511-1.55 0.685-1.66 0.13-0.0804 2.29 0.95 9.95 4.74 7.75 3.83 7.87 3.91 3.86 2.49zm2.53-3.47c-11.2-7.88-14.1-9.99-14.1-10.2 0-0.225 1.29-1.86 1.47-1.85 0.172 0.0026 3.73 3.12 9.45 8.26 1.6 1.44 3.73 3.35 4.72 4.24 3.11 2.78 2.86 2.72-1.55-0.395zm78.2-7.41c0.252-0.213 1.13-0.876 1.96-1.47 9.02-6.52 14.2-10.2 14.3-10.2 0.3 0 1.08 1.5 0.878 1.69-0.163 0.153-9.6 5.82-15.1 9.07-2.39 1.41-2.86 1.63-2.03 0.929zm-2.94-0.318c1.14-1.44 11.5-13.3 14.7-16.7 1.88-2.05 1.78-2.01 2.71-1.03 0.819 0.868 0.832 0.928 0.296 1.39-1.49 1.3-9.55 8.83-13.4 12.6-3.42 3.29-4.95 4.64-4.28 3.78z" fill="#fcd402"/><path d="m103 188c-2.22-13.1-3.36-17.1-5.26-18.8-1.94-1.66-5.72 0.386-23.9 12.9-2.82 1.95-3.58 2.42-3.58 2.2 0-0.0253 0.498-1.37 1.11-2.99 4.25-11.3 5.57-15.7 5.24-17.2-0.178-0.83-0.0611-0.811-3.2-0.494-5.89 0.596-4.76 0.33-9.43 2.22-4.74 1.92-4.96 1.96-5.44 1.03-0.0847-0.164-0.394-0.578-0.687-0.921-0.293-0.343-0.534-0.688-0.534-0.768-3e-3 -0.469-1.58-1.98-1.6-1.53-0.0814 3.27-0.464 4.79-1.29 5.1-0.308 0.116-2.73 1.07-5.38 2.12-4.56 1.8-5.04 1.97-5.57 1.94-0.232-0.0123-1.92-1.83-2.1-2.27-0.175-0.416-0.813-1.14-1.24-1.41-0.788-0.497-0.789-0.505-0.469-4.4 0.549-6.69 1.8-20.8 2.66-29.9 0.14-1.49 0.426-4.56 0.636-6.84 0.475-5.14 0.447-4.93 0.679-5.3 0.454-0.738 11.5-6.41 12.5-6.41 0.413 0 0.959 0.446 0.959 0.784 0 0.537 2.6 2.52 2.69 2.05 0.119-0.594 0.0793-0.823-0.142-0.823-0.113 0-0.268-0.0864-0.344-0.192-0.213-0.295-4.65-4.48-6.89-6.51-1.1-0.995-1.98-1.86-1.96-1.93 0.0529-0.155 0.0954-0.148 3.31 0.532 6.79 1.44 7.78 1.64 9.2 1.9 1.96 0.355 2.01 0.409 0.789 0.893-1.47 0.585-0.322 0.251 1.95-0.564 4.23-1.52 7.07-2.42 7.5-2.38 2.31 0.201-0.728-8.49-9.35-26.7-1.37-2.9-1.7-2.98 3.67 0.848 15.1 10.7 21.4 14.8 23.7 15.2 1.99 0.376 4.2-3.77 10-18.8 2.84-7.33 2.52-6.8 3.14-5.25 6.56 16.6 7.93 19.1 10.1 18 1.77-0.836 7.91-6.01 17.7-14.9 2.88-2.61 2.91-2.64 3.02-2.53 0.0602 0.0602-0.164 1.16-0.579 2.85-4.57 18.6-4.6 23.1-0.173 23.8 0.419 0.0706 0.802 0.194 0.852 0.274 0.0648 0.105 0.18-0.0324 0.411-0.49 0.46-0.911 1.12-1.17 8.39-3.25 6.86-1.97 7.37-2.02 7.95-0.787 0.173 0.367 0.581 0.977 0.907 1.36 0.326 0.379 0.727 0.845 0.891 1.04 0.28 0.328 0.324 0.343 0.76 0.265 0.254-0.0455 0.637-0.0805 0.85-0.0778 0.466 6e-3 0.467 2e-3 0.575-3.5 0.104-3.37-0.45-2.99 7.52-5.18 7.87-2.16 9.07-2.31 9.33-1.14 0.0452 0.206 0.642 0.869 1.86 2.07 2.27 2.23 2.56-0.559-1.86 17.5-4.23 17.3-4.46 18.3-4.37 18.4 0.0767 0.0767 2.03 0.43 5.79 1.05 3.87 0.635 3.83 0.459 0.427 2.01-3.45 1.57-6.61 3.05-6.72 3.14-0.055 0.0464 0.0266 0.354 0.191 0.721 3.1 6.92-6.73 14.7-12 9.52-0.749-0.749-0.913-0.731-1.51 0.164-1.28 1.91 0.362 4.71 9.96 17 3.48 4.44 3.31 4.2 3.18 4.33-0.0721 0.0721-1.47-0.383-4.28-1.39-24.5-8.81-28.5-8.64-28.5 1.21 0 3.17 0.418 6.31 1.92 14.4 0.685 3.71 0.691 3.76 0.488 3.76-0.0768 0-1.66-1.61-3.52-3.57-11.2-11.8-14.9-14.8-17.1-13.7-2.34 1.2-6.13 7.4-11.7 19.2-1.91 4.03-1.76 3.97-2.27 0.984zm-61.4-21.6c0.0389-0.063 0.132-0.361 0.207-0.662 0.0751-0.301 0.196-0.715 0.27-0.919 0.206-0.574 0.207-0.582 0.238-1.9 0.0261-1.08 0.0599-1.28 0.264-1.57 0.129-0.181 0.234-0.455 0.234-0.609s0.0654-0.409 0.145-0.567c0.0799-0.157 0.178-0.509 0.217-0.781 0.0396-0.272 0.141-0.552 0.226-0.622 0.0846-0.0702 0.154-0.166 0.154-0.213s0.167-0.447 0.371-0.888c0.204-0.442 0.373-0.934 0.376-1.09 0.0074-0.463 0.25-1.26 0.449-1.48 0.1-0.111 0.182-0.275 0.182-0.364 0-0.0896 0.0954-0.284 0.212-0.432 0.117-0.148 0.212-0.357 0.212-0.465s0.16-0.323 0.356-0.48c0.196-0.156 0.384-0.419 0.418-0.583 0.0416-0.201 0.22-0.403 0.542-0.617 0.264-0.175 0.481-0.377 0.483-0.449 0.0013-0.0721 0.171-0.202 0.378-0.288 0.279-0.117 0.43-0.28 0.588-0.637 0.117-0.264 0.258-0.481 0.314-0.481 0.0556 0 0.101-0.0682 0.101-0.152 0-0.0833 0.242-0.381 0.539-0.662 1.11-1.05 1.48-1.44 1.64-1.72 0.0937-0.159 0.271-0.333 0.394-0.388 0.142-0.0635 0.264-0.263 0.334-0.546 0.142-0.579 0.163-0.595 1.22-0.983 0.776-0.286 1.79-0.708 2.92-1.22 0.175-0.0793 0.959-0.366 1.74-0.637 0.784-0.271 1.66-0.584 1.94-0.695 0.62-0.244 0.823-0.254 0.823-0.0402 0 0.225-0.618 1.43-0.733 1.43-0.196 0-0.342 0.756-0.543 2.81-1.27 13-1.33 13.7-1.14 13.6 0.193-0.0643 0.526-1.3 0.634-2.36 0.567-5.54 0.673-6.28 0.909-6.33 0.161-0.032 0.65-1.3 0.66-1.72 0.0027-0.112 0.158-0.517 0.345-0.901 0.187-0.384 0.376-0.912 0.419-1.17 0.0771-0.465 0.217-1.13 0.36-1.72 0.0391-0.16 0.113-0.291 0.165-0.291 0.0515 0 0.0936-0.134 0.0936-0.298s0.07-0.39 0.156-0.503c0.0856-0.113 0.157-0.361 0.159-0.55 0.0025-0.261 0.0501-0.344 0.195-0.344 0.247 0 0.656-0.552 0.656-0.885 0-0.187 0.0732-0.276 0.265-0.324 0.146-0.0366 0.265-0.132 0.265-0.212s0.0716-0.173 0.159-0.207c0.0874-0.0336 0.159-0.183 0.159-0.331 0-0.168 0.123-0.38 0.326-0.56 0.691-0.615 1.37-1.33 1.37-1.44 2.19e-4 -0.0649 0.227-0.209 0.503-0.321 0.277-0.112 0.704-0.345 0.95-0.519 0.359-0.254 0.477-0.291 0.6-0.189 0.113 0.0938 0.172 0.0955 0.227 6e-3 0.0409-0.0662 0.162-0.0976 0.268-0.0696 0.11 0.0289 0.275-0.0387 0.382-0.157 0.171-0.189 0.193-0.191 0.251-0.0282 0.0664 0.189 0.268-1.22 0.699-4.88 0.41-3.49 0.438-3.72 0.667-5.46 0.119-0.904 0.504-3.93 0.857-6.73 0.853-6.77 1.27-9.92 1.34-10.1 0.104-0.346-0.228-0.299-1.98 0.277-2.68 0.882-7.67 2.73-7.86 2.91-0.0387 0.0379-0.244 1.83-0.457 3.99-1.14 11.5-1.45 14.5-1.52 14.6-0.072 0.066-5.02 2.08-6.3 2.56-0.892 0.338-0.903 0.311-0.687-1.65 0.0984-0.89 0.297-2.79 0.442-4.21 0.145-1.43 0.335-3.26 0.423-4.08 0.0882-0.816 0.28-2.63 0.427-4.03 0.147-1.4 0.311-2.9 0.365-3.34 0.0538-0.436 0.0775-0.813 0.0527-0.838-0.133-0.133-8.09 3.96-9.27 4.76-0.268 0.184-0.185-0.629-1.96 19.2-0.737 8.21-0.781 8.71-1.59 18.2-0.149 1.75-0.318 3.65-0.375 4.22-0.15 1.51-0.107 1.88 0.166 1.44zm25.9-9.75c0.262-0.0573 0.581-0.128 0.708-0.157 0.312-0.0706 0.652-0.572 0.767-1.13 0.0518-0.252 0.194-0.72 0.316-1.04 0.122-0.32 0.222-0.655 0.222-0.745 0-0.0899 0.167-0.512 0.371-0.938s0.371-0.841 0.371-0.922c0-0.0813 0.0929-0.301 0.206-0.487 0.114-0.187 0.182-0.379 0.152-0.428-0.195-0.316 0.908-1.97 1.84-2.76 0.189-0.161 0.344-0.365 0.344-0.454 0-0.305 1.22-1.96 1.44-1.96 0.0657-2.2e-4 0.179-0.0719 0.251-0.159 0.0726-0.0874 0.215-0.159 0.317-0.159 0.102 0 0.299-0.167 0.437-0.37s0.313-0.371 0.388-0.371c0.0748-4e-4 0.486-0.239 0.914-0.531 0.693-0.472 0.84-0.53 1.35-0.532 0.725-3e-3 2.2-0.496 2.63-0.878 0.198-0.176 0.444-0.286 0.64-0.286 0.175 0 0.319-0.0509 0.319-0.113 0-0.0622 0.0887-0.085 0.197-0.0506 0.111 0.0353 0.252-4e-3 0.324-0.091 0.0701-0.0845 0.399-0.237 0.73-0.339 0.633-0.195 1.19-0.574 1.31-0.896 0.0402-0.105 0.243-0.271 0.45-0.369 0.208-0.0985 0.377-0.246 0.377-0.329 0-0.0823 0.12-0.195 0.267-0.251 0.471-0.179 0.899-0.56 0.899-0.799 0-0.167 0.0917-0.256 0.337-0.326 0.185-0.0531 0.412-0.218 0.503-0.367 0.0916-0.149 0.274-0.434 0.405-0.634 0.131-0.2 0.238-0.418 0.238-0.484 2.18e-4 -0.0659 0.167-0.247 0.371-0.403s0.371-0.345 0.371-0.42c0-0.0756 0.0954-0.247 0.212-0.382 0.117-0.134 0.212-0.359 0.212-0.499 0-0.198 0.101-0.299 0.453-0.455 0.249-0.11 0.559-0.322 0.688-0.471s0.319-0.271 0.422-0.271c0.102-3.9e-4 0.326-0.0928 0.497-0.205 0.23-0.152 0.361-0.178 0.506-0.1 0.412 0.221 0.534-0.202 0.522-1.81-0.0057-0.779 0.0222-1.05 0.0931-0.901 0.133 0.279 0.0398-1.5-0.427-8.11-0.142-2.02-0.527-8.45-0.527-8.83-4.48e-4 -0.266-0.0275-0.287-0.292-0.224-1.33 0.317-10.1 3.31-10.4 3.55-0.356 0.296-5.52 13.9-7.62 20-4.07 11.9-5.75 17.4-5.77 18.7-0.0042 0.271-0.011 0.27 0.632 0.129zm11.6-16.9c-0.0301-0.355 0.0454-0.775 0.175-0.973 0.079-0.121 0.594-1.56 1.14-3.19 0.985-2.92 2.53-7.47 3.09-9.1 0.294-0.851 0.643-1.22 0.908-0.953 0.185 0.185 0.265 12.1 0.0822 12.3-0.585 0.482-5.38 2.18-5.4 1.91zm5.72 15.4c0.152-1.08 0.278-9.35 0.143-9.35-0.395 0-0.503 1.68-0.54 8.41-0.0122 2.2 0.162 2.61 0.396 0.938zm11-3.85c0.165-0.724 0.313-1.51 0.33-1.74 0.017-0.233 0.0428-0.448 0.0574-0.477 0.0146-0.0292 0.0181-0.136 0.0077-0.238s0.0318-0.185 0.0938-0.185 0.113-0.0771 0.113-0.171c0-0.0942 0.0698-0.392 0.155-0.662 0.31-0.982 0.502-1.77 0.491-2.02-0.0059-0.14 0.0411-0.316 0.104-0.393 0.0634-0.0764 0.0821-0.192 0.0417-0.258-0.13-0.21 0.411-2.13 0.712-2.53 0.105-0.139 0.191-0.302 0.191-0.363 0-0.0604 0.0639-0.185 0.142-0.277 0.078-0.092 0.226-0.444 0.33-0.783s0.295-0.744 0.427-0.901c0.367-0.439 0.904-1.35 0.904-1.53 0-0.0908 0.177-0.275 0.394-0.408 0.216-0.134 0.479-0.328 0.583-0.433 0.104-0.104 0.249-0.191 0.322-0.192 0.23-5e-3 0.758-0.577 1.03-1.12 0.205-0.404 0.329-0.529 0.55-0.554 0.199-0.023 0.295-0.103 0.318-0.265 0.0182-0.128 0.14-0.279 0.272-0.337 0.134-0.0589 0.238-0.198 0.238-0.319 0-0.272 0.507-0.827 0.691-0.756 0.154 0.0591 0.263-0.146 0.263-0.498 1e-3 -0.534 0.215-1.01 0.505-1.11 1.9-0.706 3.52-1.33 4.22-1.63 0.474-0.202 0.998-0.4 1.17-0.44 0.293-0.07 0.743-0.23 2.01-0.712 0.856-0.326 0.821 0.792-0.0467 1.52-0.326 0.272-0.404 0.742-0.641 3.85-0.365 4.78-0.751 9.63-0.954 12-0.106 1.22-0.171 2.26-0.144 2.31 0.0998 0.176 0.333-0.167 0.404-0.594 0.0406-0.244 0.143-0.58 0.228-0.745 0.0848-0.166 0.129-0.368 0.0972-0.449-0.0313-0.0815 0.0125-0.995 0.0973-2.03s0.202-2.48 0.261-3.21c0.365-4.54 0.485-5.55 0.641-5.46 0.136 0.0843 0.133-0.195-4e-3 -0.332-0.22-0.22 4.1e-4 -0.787 0.279-0.717 0.214 0.0537 0.252 0.024 0.252-0.196 0-0.142 0.0327-0.292 0.0726-0.331 0.164-0.164 0.335-0.867 0.279-1.15-0.0431-0.216 0.0149-0.414 0.205-0.701 0.146-0.22 0.298-0.549 0.337-0.73 0.0398-0.181 0.165-0.413 0.278-0.516 0.113-0.103 0.206-0.23 0.206-0.284 0-0.0537 0.215-0.377 0.477-0.717 0.363-0.472 0.477-0.711 0.477-1 0-0.257 0.0831-0.473 0.252-0.656 0.139-0.15 0.231-0.353 0.205-0.453-0.07-0.268 0.518-0.858 0.785-0.788 0.15 0.0392 0.229-5e-3 0.267-0.149 0.0308-0.118 0.183-0.233 0.359-0.272 0.337-0.0746 0.911-0.777 1.03-1.26 0.0457-0.184 0.143-0.291 0.264-0.291 0.105 0 0.304-0.119 0.44-0.265s0.338-0.265 0.446-0.265 0.224-0.0706 0.257-0.157c0.0331-0.0862 0.274-0.264 0.535-0.394 0.261-0.131 0.526-0.333 0.589-0.45 0.363-0.679 1.35-0.806 1.35-0.173 4.5e-4 0.823 0.125 0.149 0.216-1.17 0.0538-0.779 0.168-2.27 0.254-3.32 0.0856-1.05 0.278-3.43 0.427-5.3s0.34-4.23 0.425-5.25c0.0849-1.02 0.228-2.86 0.318-4.08 0.263-3.57 0.379-4.96 0.44-5.27 0.0432-0.221 0.0157-0.291-0.114-0.291-0.652 0-9.65 3-9.98 3.33-0.0746 0.0735-0.207 1.5-0.35 3.77-0.127 2.01-0.346 5.21-0.488 7.1-0.141 1.89-0.302 4.11-0.358 4.92-0.0553 0.809-0.148 1.52-0.206 1.58-0.0923 0.0923-4.92 2.04-6.14 2.48-0.788 0.283-0.781 0.503-0.173-5.85 0.0837-0.874 0.343-3.64 0.576-6.15 0.233-2.51 0.463-4.88 0.512-5.28 0.122-0.996 0.287-1.03-3.58 0.639-5.54 2.38-5.5 2.35-5.62 3.91-0.0526 0.694-0.241 3.24-0.418 5.66s-0.417 5.69-0.533 7.26c-0.116 1.57-0.284 4.01-0.374 5.41-0.0899 1.4-0.328 4.74-0.53 7.42-0.385 5.13-0.946 13.1-1.07 15.1-0.1 1.67 0.114 1.58 0.521-0.208zm16.9-18.1c-0.102-0.102-0.0869-0.649 0.0199-0.715 0.189-0.117 0.588 0.447 0.442 0.623-0.142 0.17-0.343 0.21-0.462 0.0914zm9.69 9.93c0.191-0.258 0.267-0.294 0.434-0.205 0.655 0.351 1.93-0.877 1.91-1.83-4e-3 -0.155 0.0841-0.366 0.197-0.467 0.113-0.102 0.205-0.27 0.205-0.375 0-0.104 0.0877-0.252 0.195-0.328 0.107-0.0762 0.225-0.259 0.261-0.405 0.0699-0.283 0.745-1.27 1.13-1.66 0.128-0.128 0.201-0.283 0.163-0.344-0.0381-0.0617-0.0196-0.112 0.0411-0.112 0.137 0 1.07-0.882 1.07-1.01 0-0.174 1.02-1.18 1.4-1.38 0.169-0.0896 0.291-0.243 0.291-0.366 0-0.122 0.101-0.25 0.238-0.303 0.131-0.05 0.37-0.223 0.532-0.384 0.346-0.347 0.765-0.579 1.04-0.579 0.129 0 0.2-0.075 0.2-0.212 0-0.131 0.071-0.212 0.185-0.213 0.416-2e-3 1.61-1.3 1.62-1.75 8.1e-4 -0.246 0.346-0.499 0.567-0.415 0.085 0.0326 0.243-0.0602 0.364-0.214 0.117-0.149 0.292-0.271 0.387-0.271 0.0957 0 0.296-0.0802 0.446-0.178 0.219-0.144 0.331-0.156 0.578-0.0626 0.385 0.145 0.706 0.0658 0.789-0.195 0.0608-0.191 0.213-0.245 0.593-0.208 0.0948 9e-3 0.201-0.0569 0.235-0.147 0.0394-0.103 0.196-0.163 0.421-0.163 0.223 0 0.43-0.0797 0.55-0.212 0.107-0.119 0.326-0.212 0.497-0.212 0.168 0 0.422-0.0768 0.566-0.171 0.143-0.0939 0.336-0.142 0.429-0.106 0.0926 0.0355 0.271-7e-3 0.395-0.0943 0.125-0.0874 0.292-0.159 0.372-0.159 0.0799 0 0.266-0.0948 0.413-0.211 0.147-0.116 0.311-0.183 0.365-0.15 0.186 0.115 1.26-0.407 1.26-0.612 0-0.121 0.0777-0.192 0.208-0.192 0.115 0 0.261-0.0994 0.327-0.221 0.065-0.122 0.281-0.289 0.481-0.372 0.238-0.0995 0.362-0.223 0.362-0.36 0-0.114 0.122-0.288 0.27-0.385 0.149-0.0974 0.247-0.239 0.218-0.314-0.029-0.0755 0.105-0.275 0.297-0.444 0.192-0.169 0.381-0.433 0.42-0.587 0.0456-0.182 0.166-0.304 0.341-0.348 0.154-0.0388 0.382-0.244 0.53-0.479 0.143-0.226 0.294-0.412 0.337-0.414 0.043-2e-3 0.197-0.196 0.343-0.432 0.175-0.284 0.364-0.449 0.556-0.487 0.193-0.0386 0.292-0.125 0.292-0.256 0-0.285 0.799-0.797 0.993-0.636 0.163 0.135 0.321-0.329 0.286-0.84-0.0101-0.148 0.0554-0.41 0.146-0.583 0.0902-0.173 0.164-0.375 0.165-0.448 5.7e-4 -0.118 0.0686-0.278 0.309-0.726 0.0347-0.0647 0.148-0.238 0.253-0.385 0.13-0.183 0.21-0.556 0.254-1.18 0.0353-0.5 0.105-0.884 0.155-0.854 0.139 0.0857 0.107-1.87-0.12-7.38-0.114-2.77-0.24-6.1-0.28-7.4-0.0845-2.75 0.218-2.53-2.5-1.82-9.97 2.61-9.98 2.62-11 5.03-4.64 11.2-8.19 20.3-12.5 32.2-1.98 5.44-2.43 7.29-1.48 5.99zm13.3-17.8c-0.106-0.127-0.0853-0.233 0.106-0.556 0.13-0.22 0.49-1.07 0.799-1.88 3.42-9.03 4.78-12.2 5.22-12.1 0.327 0.0379 0.318-0.561 0.119 7.82-0.117 4.91-0.11 4.83-0.448 4.94-0.43 0.132-4.04 1.43-4.71 1.69-0.772 0.304-0.907 0.316-1.08 0.104zm5.86 16.5c0.25-0.625 0.27-0.872 0.388-4.89 0.0607-2.07 0.135-4.14 0.166-4.59 0.0544-0.812 0.0506-0.829-0.182-0.795-0.352 0.0509-0.38 0.313-0.56 5.35-0.213 5.95-0.214 5.94 0.189 4.93zm13.6-2.78c-0.069-0.431-0.069-0.431 0.381-0.397 0.45 0.0339 0.45 0.0339 0.848-0.768 0.239-0.481 0.503-0.859 0.66-0.943 0.145-0.0778 0.292-0.275 0.329-0.443 0.0366-0.167 0.126-0.303 0.2-0.303 0.0732 0 0.254-0.131 0.403-0.291 0.148-0.16 0.514-0.501 0.812-0.758 0.299-0.256 0.544-0.519 0.545-0.583 2e-3 -0.134 0.703-0.733 0.979-0.836 0.102-0.038 0.185-0.138 0.185-0.223 0-0.0848 0.143-0.297 0.318-0.472 0.175-0.175 0.318-0.414 0.318-0.532s0.0477-0.243 0.106-0.279c0.0583-0.036 0.106-0.158 0.106-0.271 0-0.372 0.773-0.0994 1.27 0.449 0.335 0.367 0.415 0.266 0.167-0.21-1.06-2.02-4.68-1.96-6.83 0.118-1.9 1.85-2.45 5.45-1.06 6.93 0.307 0.326 0.332 0.307 0.252-0.192zm1.73-12.5c0.053-0.131 0.123-0.366 0.156-0.521 0.0605-0.284 0.747-0.76 1.3-0.898 0.246-0.0617 0.305-0.235 0.259-0.76-0.0117-0.134 0.1-0.388 0.248-0.565 0.148-0.176 0.27-0.363 0.27-0.415 0-0.052 0.31-0.45 0.689-0.884 0.379-0.434 0.689-0.83 0.689-0.878 7e-5 -0.0483 0.191-0.363 0.424-0.698 0.233-0.336 0.424-0.654 0.424-0.708 0-0.0537 0.262-0.375 0.581-0.714s0.582-0.671 0.583-0.736c8.2e-4 -0.0657 0.073-0.179 0.16-0.251 0.0874-0.0726 0.159-0.21 0.159-0.306 0-0.224 0.491-0.754 0.698-0.754 0.217 0 0.68-0.515 0.68-0.757 0-0.108 0.0642-0.197 0.143-0.197 0.0971 0 0.283-0.584 0.581-1.83 0.654-2.73 1.47-6.18 1.89-8.03 0.207-0.904 0.589-2.55 0.849-3.66 0.26-1.11 0.803-3.44 1.2-5.19s0.853-3.68 1-4.29c0.32-1.32 0.317-1.27 0.082-1.27-0.552 0.0013-11.8 3.07-12.1 3.3-0.0743 0.0559-0.144 0.874-0.19 2.23-0.0401 1.18-0.188 4.98-0.33 8.45s-0.284 7.02-0.318 7.9c-0.0339 0.874-0.155 3.81-0.269 6.52-0.268 6.39-0.261 6.82 0.106 5.91zm-27-10.2c0.138-0.351 0.232-0.657 0.21-0.679-0.0447-0.0447-0.702 1.5-0.697 1.63 5e-3 0.146 0.223-0.281 0.487-0.954zm-50.4-0.068c0.571-0.291 6.3-2.28 9.34-3.24 2.43-0.767 3.37-1.11 2.6-0.94-1.27 0.275-8.67 2.72-11.3 3.72-1.2 0.462-1.44 0.633-1.61 1.13-0.116 0.334-0.116 0.334 0.215-0.0664 0.182-0.22 0.509-0.491 0.727-0.602zm-19-1.73c0.142-0.142 0.687-0.442 1.21-0.667 1.23-0.528 1.17-0.567-0.158-0.093-1.31 0.467-1.86 1.06-1.58 1.71 0.0628 0.146 0.103 0.0892 0.176-0.251 0.0522-0.242 0.211-0.556 0.353-0.698zm71-2.05c0.276-0.674 0.482-1.25 0.457-1.27-0.045-0.045-0.847 1.8-0.98 2.26-0.168 0.575 0.0601 0.145 0.524-0.988zm-33.8-4.7c0.301-0.141 0.529-0.275 0.506-0.298-0.0626-0.0626-1.28 0.569-1.41 0.732-0.0622 0.0776-0.148 0.26-0.191 0.406-0.0604 0.205-0.0073 0.169 0.234-0.159 0.193-0.262 0.521-0.522 0.86-0.68zm35.9-0.644c-1e-3 -0.0875-0.115 0.0795-0.252 0.371-0.137 0.291-0.249 0.602-0.247 0.689 1e-3 0.0874 0.115-0.0795 0.252-0.371 0.137-0.291 0.249-0.602 0.247-0.689zm-32.5-0.973c0.662-0.302 1.19-0.566 1.17-0.588-0.0386-0.0386-2 0.805-2.36 1.02-0.477 0.278 0.0964 0.0712 1.2-0.431zm33.3-1.12c-0.0757-0.0757-0.487 0.81-0.478 1.03 4e-3 0.0875 0.126-0.0947 0.273-0.405 0.147-0.31 0.239-0.591 0.205-0.625zm-30.5-0.105c0.321-0.142 0.956-0.403 1.41-0.579 0.456-0.177 0.806-0.344 0.778-0.372-0.0542-0.0542-1.76 0.614-2.72 1.07-0.716 0.337-0.276 0.241 0.53-0.116zm9-2.73c0.666-0.344 7.41-2.67 9.87-3.4 0.729-0.217 1.61-0.48 1.96-0.584 0.35-0.104 0.544-0.192 0.431-0.196-0.44-0.0162-4.24 1.13-7.8 2.36-4.59 1.58-5.19 1.86-5.19 2.46-2e-3 0.167 0.0415 0.141 0.205-0.127 0.114-0.187 0.35-0.413 0.525-0.504zm37 79.6c-0.263-0.364-1.48-2.05-2.7-3.74-2.69-3.73-6.71-9.36-7.69-10.8-1.91-2.79-0.282-1.03 8.98 9.75 1.1 1.28 2.35 2.73 2.78 3.22 0.94 1.08 0.938 1.03 0.0714 1.7-0.877 0.677-0.856 0.679-1.43-0.12zm-93-0.358c-0.659-0.721-0.672-0.672 0.383-1.52 8.84-7.14 12.6-10.2 14-11.2 0.619-0.449-1.4 1.58-4.82 4.83-2.22 2.11-5.11 4.87-6.43 6.15-2.76 2.65-2.45 2.49-3.15 1.72zm-5.47-4.92c-0.393-0.623-0.487-0.912-0.335-1.04 0.361-0.294 12.7-6.33 15.8-7.72 2.36-1.06 1.68-0.578-3.22 2.3-3.5 2.05-6.21 3.65-9.46 5.58-2.5 1.48-2.42 1.46-2.78 0.88zm103-2.03c-5.41-4.24-13.3-10.6-13.2-10.6 0.0941-0.0941 2.53 1.45 11.2 7.09 2 1.3 3.94 2.56 4.3 2.79 0.797 0.507 0.795 0.48 0.13 1.36-0.67 0.885-0.499 0.927-2.43-0.59zm-92.5-67.3c-2.5-0.886-7.05-2.56-11.7-4.31-2.35-0.881-2.76-1.07-2.79-1.26-0.0331-0.232 0.511-1.55 0.685-1.66 0.13-0.0804 2.29 0.95 9.95 4.74 7.75 3.83 7.87 3.91 3.86 2.49zm2.53-3.47c-11.2-7.88-14.1-9.99-14.1-10.2 0-0.225 1.29-1.86 1.47-1.85 0.172 0.0026 3.73 3.12 9.45 8.26 1.6 1.44 3.73 3.35 4.72 4.24 3.11 2.78 2.86 2.72-1.55-0.395zm78.2-7.41c0.252-0.213 1.13-0.876 1.96-1.47 9.02-6.52 14.2-10.2 14.3-10.2 0.3 0 1.08 1.5 0.878 1.69-0.163 0.153-9.6 5.82-15.1 9.07-2.39 1.41-2.86 1.63-2.03 0.929zm-2.94-0.318c1.14-1.44 11.5-13.3 14.7-16.7 1.88-2.05 1.78-2.01 2.71-1.03 0.819 0.868 0.832 0.928 0.296 1.39-1.49 1.3-9.55 8.83-13.4 12.6-3.42 3.29-4.95 4.64-4.28 3.78z" fill="#fbb300"/><path d="m103 188c-2.22-13.1-3.36-17.1-5.26-18.8-1.94-1.66-5.72 0.386-23.9 12.9-2.82 1.95-3.58 2.42-3.58 2.2 0-0.0253 0.498-1.37 1.11-2.99 4.25-11.3 5.57-15.7 5.24-17.2-0.178-0.83-0.0611-0.811-3.2-0.494-5.89 0.596-4.76 0.33-9.43 2.22-4.74 1.92-4.96 1.96-5.44 1.03-0.0847-0.164-0.394-0.578-0.687-0.921-0.293-0.343-0.534-0.688-0.534-0.768-3e-3 -0.469-1.58-1.98-1.6-1.53-0.0814 3.27-0.464 4.79-1.29 5.1-0.308 0.116-2.73 1.07-5.38 2.12-4.56 1.8-5.04 1.97-5.57 1.94-0.232-0.0123-1.92-1.83-2.1-2.27-0.175-0.416-0.813-1.14-1.24-1.41-0.788-0.497-0.789-0.505-0.469-4.4 0.549-6.69 1.8-20.8 2.66-29.9 0.14-1.49 0.426-4.56 0.636-6.84 0.475-5.14 0.447-4.93 0.679-5.3 0.454-0.738 11.5-6.41 12.5-6.41 0.413 0 0.959 0.446 0.959 0.784 0 0.537 2.6 2.52 2.69 2.05 0.119-0.594 0.0793-0.823-0.142-0.823-0.113 0-0.268-0.0864-0.344-0.192-0.213-0.295-4.65-4.48-6.89-6.51-1.1-0.995-1.98-1.86-1.96-1.93 0.0529-0.155 0.0954-0.148 3.31 0.532 6.79 1.44 7.78 1.64 9.2 1.9 1.96 0.355 2.01 0.409 0.789 0.893-1.47 0.585-0.322 0.251 1.95-0.564 4.23-1.52 7.07-2.42 7.5-2.38 2.31 0.201-0.728-8.49-9.35-26.7-1.37-2.9-1.7-2.98 3.67 0.848 15.1 10.7 21.4 14.8 23.7 15.2 1.99 0.376 4.2-3.77 10-18.8 2.84-7.33 2.52-6.8 3.14-5.25 6.56 16.6 7.93 19.1 10.1 18 1.77-0.836 7.91-6.01 17.7-14.9 2.88-2.61 2.91-2.64 3.02-2.53 0.0602 0.0602-0.164 1.16-0.579 2.85-4.57 18.6-4.6 23.1-0.173 23.8 0.419 0.0706 0.802 0.194 0.852 0.274 0.0648 0.105 0.18-0.0324 0.411-0.49 0.46-0.911 1.12-1.17 8.39-3.25 6.86-1.97 7.37-2.02 7.95-0.787 0.173 0.367 0.581 0.977 0.907 1.36 0.326 0.379 0.727 0.845 0.891 1.04 0.28 0.328 0.324 0.343 0.76 0.265 0.254-0.0455 0.637-0.0805 0.85-0.0778 0.466 6e-3 0.467 2e-3 0.575-3.5 0.104-3.37-0.45-2.99 7.52-5.18 7.87-2.16 9.07-2.31 9.33-1.14 0.0452 0.206 0.642 0.869 1.86 2.07 2.27 2.23 2.56-0.559-1.86 17.5-4.23 17.3-4.46 18.3-4.37 18.4 0.0767 0.0767 2.03 0.43 5.79 1.05 3.87 0.635 3.83 0.459 0.427 2.01-3.45 1.57-6.61 3.05-6.72 3.14-0.055 0.0464 0.0266 0.354 0.191 0.721 3.1 6.92-6.73 14.7-12 9.52-0.749-0.749-0.913-0.731-1.51 0.164-1.28 1.91 0.362 4.71 9.96 17 3.48 4.44 3.31 4.2 3.18 4.33-0.0721 0.0721-1.47-0.383-4.28-1.39-24.5-8.81-28.5-8.64-28.5 1.21 0 3.17 0.418 6.31 1.92 14.4 0.685 3.71 0.691 3.76 0.488 3.76-0.0768 0-1.66-1.61-3.52-3.57-11.2-11.8-14.9-14.8-17.1-13.7-2.34 1.2-6.13 7.4-11.7 19.2-1.91 4.03-1.76 3.97-2.27 0.984zm-57.8-22.9c2.11-0.809 4.14-1.58 4.52-1.71 0.975-0.341 0.921-0.216 1.16-2.7 0.192-1.96 0.748-7.21 1.22-11.5 0.191-1.75-0.163-1.44 3.49-2.97 3.58-1.5 3.39-1.46 3.31-0.721-0.0574 0.525-0.42 4.48-0.537 5.86-0.0611 0.718-0.624 6.42-0.831 8.41-0.174 1.68-0.556 1.69 4.03-0.195 4.61-1.9 3.97-1.42 4.5-3.4 0.239-0.899 0.546-2.05 0.683-2.56 0.167-0.623 0.475-2.87 0.938-6.84 1.56-13.4 2.85-24.1 3.76-31.2 0.261-2.05 0.381-3.32 0.319-3.39-0.194-0.196-9.47 3.02-9.87 3.42-0.064 0.0648-0.325 2.51-0.835 7.81-0.118 1.22-0.354 3.49-0.524 5.03-0.171 1.54-0.366 3.41-0.434 4.13-0.149 1.6-0.149 1.6-0.859 1.85-0.311 0.111-1.78 0.696-3.26 1.3-3.11 1.27-3.03 1.26-2.93 0.214 0.113-1.19 1.29-12.8 1.54-15.2 0.158-1.5 0.189-2.14 0.108-2.22-0.159-0.159-7.95 3.86-9.33 4.82-0.217 0.15-0.249 0.325-0.433 2.38-0.109 1.22-0.317 3.49-0.462 5.03-0.145 1.54-0.361 3.91-0.48 5.25-0.119 1.34-0.285 3.03-0.37 3.76-0.147 1.27-0.256 2.42-0.857 9.12-0.149 1.66-0.365 4.05-0.479 5.3-0.936 10.3-1.11 12.4-0.986 12.4 0.0364 0 1.79-0.662 3.9-1.47zm22.6-7.43c0.575-0.0569 2.33-0.201 3.91-0.321 3.28-0.249 3.3-0.252 3.37-0.502 0.029-0.103 0.517-1.86 1.08-3.9 0.568-2.04 1.07-3.77 1.11-3.85 0.0816-0.151 0.515-0.347 3.21-1.45 0.92-0.377 2.12-0.876 2.66-1.11 0.544-0.233 1.07-0.423 1.18-0.423 0.177 0 0.183 0.268 0.109 5.09-0.0668 4.34-0.0564 5.09 0.0706 5.09 0.082 0 1.48-0.6 3.11-1.33 1.63-0.734 3.67-1.65 4.53-2.03 1.96-0.866 1.77 0.112 1.23-6.55-0.114-1.4-0.327-4.24-0.474-6.31-0.243-3.41-0.661-9.08-1.21-16.4-0.111-1.49-0.281-4.13-0.376-5.88-0.198-3.61-0.215-3.73-0.588-3.67-0.415 0.0588-4.22 1.31-6.2 2.03-0.991 0.363-2.32 0.849-2.96 1.08-0.639 0.23-1.22 0.464-1.29 0.52-0.361 0.299-4.7 11.7-7.88 20.7-0.226 0.641-0.732 2.07-1.12 3.18-2.39 6.74-4.99 15.5-4.78 16 0.0761 0.198-0.0062 0.194 1.31 0.0643zm11.7-18c-0.0903-0.0903 0.0256-0.455 2.36-7.45 2.93-8.75 2.78-8.75 2.73-0.0735-0.031 5.61-0.031 5.61-1.14 6.07-3.13 1.28-3.85 1.55-3.95 1.45zm19.7 11.7c1.72-0.66 3.5-1.34 3.95-1.5 0.971-0.36 0.878-0.134 1.09-2.64 0.0925-1.11 0.355-4.04 0.582-6.52 0.228-2.48 0.446-4.89 0.485-5.37 0.0933-1.14-0.169-0.956 3.28-2.33 3.4-1.36 3.41-1.36 3.37-0.674-0.0808 1.42-0.26 3.88-0.403 5.51-0.489 5.6-0.984 11.9-0.939 12 0.0571 0.0923 0.0999 0.073 5.08-2.29 1.92-0.914 3.83-1.8 4.24-1.98 0.408-0.174 0.782-0.356 0.832-0.404 0.265-0.263 0.406-1.76 1.13-11.9 0.555-7.82 1.05-14.5 1.59-21.7 0.936-12.4 0.885-11.3 0.572-11.3-0.636 0-9.64 3.01-9.96 3.33-0.0746 0.0735-0.207 1.5-0.35 3.77-0.372 5.89-0.899 12.9-1.02 13.4-0.0333 0.16-0.257 0.304-0.817 0.526-0.424 0.168-1.87 0.744-3.21 1.28-1.34 0.537-2.47 0.953-2.52 0.926-0.165-0.102-0.197 0.294 1.19-14.9 0.237-2.6 0.255-3.1 0.113-3.19-0.212-0.131-8.56 3.5-9 3.91-0.086 0.0812-0.174 0.606-0.234 1.39-0.102 1.35-0.602 8.15-0.958 13-0.119 1.63-0.333 4.4-0.475 6.15-0.142 1.75-0.307 3.9-0.367 4.77-0.0594 0.874-0.132 1.8-0.162 2.07-0.219 1.92-1.16 15.8-1.08 16 0.0643 0.167 0.0985 0.168 0.469 0.013 0.22-0.0922 1.81-0.707 3.53-1.37zm27.2-7.63c2.13-0.329 3.9-0.632 3.95-0.675 0.0426-0.0425 0.704-1.89 1.47-4.1 1.63-4.71 1.25-4.14 3.22-4.88 3.24-1.22 6.15-2.27 6.28-2.27 0.175 0 0.174 0.353-0.0275 5.98-0.181 5.04-0.208 4.73 0.405 4.49 2.11-0.819 7-2.63 8.23-3.06 0.843-0.288 1.58-0.572 1.64-0.629 0.114-0.114 0.106-0.75-0.0488-3.97-0.0562-1.17-0.196-4.1-0.311-6.52s-0.259-5.42-0.32-6.68c-0.128-2.63-0.686-15.3-0.85-19.3-0.139-3.38 0.508-3.21-5.56-1.47-7.66 2.2-7.1 1.88-8.2 4.54-2.57 6.22-5.41 13.3-6.69 16.6-0.477 1.25-1.03 2.68-1.23 3.18-1.03 2.58-2.62 6.79-4.85 12.8-1.8 4.87-2.18 6.66-1.39 6.54 0.228-0.0326 2.16-0.328 4.28-0.657zm9.69-18.4c-0.124-0.324 5.29-14.1 5.61-14.3 0.419-0.235 0.355 12-0.0645 12.4-0.0698 0.0672-1.15 0.49-2.41 0.939s-2.46 0.882-2.68 0.961c-0.342 0.123-0.41 0.122-0.459-4e-3zm23.1 15.6c4.08-1.06 6.09-6.51 3.38-9.15-2.2-2.15-6.28-0.933-7.85 2.34-1.91 3.97 0.616 7.82 4.47 6.81zm-1.55-14.1c1.19-0.217 1.71-0.273 3.35-0.363 1.81-0.099 1.47 0.516 2.72-5 1.01-4.48 1.82-8.05 2.56-11.2 0.181-0.787 0.682-2.98 1.11-4.88 0.658-2.9 1.37-5.99 2.7-11.8 0.222-0.962 0.201-1.25-0.0903-1.25-0.544 0.0014-11.7 3.07-12.1 3.3-0.075 0.0565-0.144 0.884-0.192 2.29-0.0997 2.96-0.568 13.9-0.693 16.2-0.0914 1.69-0.335 6.88-0.517 11-0.0926 2.1-0.215 1.92 1.11 1.68zm-27.7-10.4c0.138-0.351 0.232-0.657 0.21-0.679-0.0447-0.0447-0.702 1.5-0.697 1.63 5e-3 0.146 0.223-0.281 0.487-0.954zm-50.4-0.068c0.571-0.291 6.3-2.28 9.34-3.24 2.43-0.767 3.37-1.11 2.6-0.94-1.27 0.275-8.67 2.72-11.3 3.72-1.2 0.462-1.44 0.633-1.61 1.13-0.116 0.334-0.116 0.334 0.215-0.0664 0.182-0.22 0.509-0.491 0.727-0.602zm-19-1.73c0.142-0.142 0.687-0.442 1.21-0.667 1.23-0.528 1.17-0.567-0.158-0.093-1.31 0.467-1.86 1.06-1.58 1.71 0.0628 0.146 0.103 0.0892 0.176-0.251 0.0522-0.242 0.211-0.556 0.353-0.698zm71-2.05c0.276-0.674 0.482-1.25 0.457-1.27-0.045-0.045-0.847 1.8-0.98 2.26-0.168 0.575 0.0601 0.145 0.524-0.988zm-33.8-4.7c0.301-0.141 0.529-0.275 0.506-0.298-0.0626-0.0626-1.28 0.569-1.41 0.732-0.0622 0.0776-0.148 0.26-0.191 0.406-0.0604 0.205-0.0073 0.169 0.234-0.159 0.193-0.262 0.521-0.522 0.86-0.68zm35.9-0.644c-1e-3 -0.0875-0.115 0.0795-0.252 0.371-0.137 0.291-0.249 0.602-0.247 0.689 1e-3 0.0874 0.115-0.0795 0.252-0.371 0.137-0.291 0.249-0.602 0.247-0.689zm-32.5-0.973c0.662-0.302 1.19-0.566 1.17-0.588-0.0386-0.0386-2 0.805-2.36 1.02-0.477 0.278 0.0964 0.0712 1.2-0.431zm33.3-1.12c-0.0757-0.0757-0.487 0.81-0.478 1.03 4e-3 0.0875 0.126-0.0947 0.273-0.405 0.147-0.31 0.239-0.591 0.205-0.625zm-30.5-0.105c0.321-0.142 0.956-0.403 1.41-0.579 0.456-0.177 0.806-0.344 0.778-0.372-0.0542-0.0542-1.76 0.614-2.72 1.07-0.716 0.337-0.276 0.241 0.53-0.116zm9-2.73c0.666-0.344 7.41-2.67 9.87-3.4 0.729-0.217 1.61-0.48 1.96-0.584 0.35-0.104 0.544-0.192 0.431-0.196-0.44-0.0162-4.24 1.13-7.8 2.36-4.59 1.58-5.19 1.86-5.19 2.46-2e-3 0.167 0.0415 0.141 0.205-0.127 0.114-0.187 0.35-0.413 0.525-0.504zm37 79.6c-0.263-0.364-1.48-2.05-2.7-3.74-2.69-3.73-6.71-9.36-7.69-10.8-1.91-2.79-0.282-1.03 8.98 9.75 1.1 1.28 2.35 2.73 2.78 3.22 0.94 1.08 0.938 1.03 0.0714 1.7-0.877 0.677-0.856 0.679-1.43-0.12zm-93-0.358c-0.659-0.721-0.672-0.672 0.383-1.52 8.84-7.14 12.6-10.2 14-11.2 0.619-0.449-1.4 1.58-4.82 4.83-2.22 2.11-5.11 4.87-6.43 6.15-2.76 2.65-2.45 2.49-3.15 1.72zm-5.47-4.92c-0.393-0.623-0.487-0.912-0.335-1.04 0.361-0.294 12.7-6.33 15.8-7.72 2.36-1.06 1.68-0.578-3.22 2.3-3.5 2.05-6.21 3.65-9.46 5.58-2.5 1.48-2.42 1.46-2.78 0.88zm103-2.03c-5.41-4.24-13.3-10.6-13.2-10.6 0.0941-0.0941 2.53 1.45 11.2 7.09 2 1.3 3.94 2.56 4.3 2.79 0.797 0.507 0.795 0.48 0.13 1.36-0.67 0.885-0.499 0.927-2.43-0.59zm-92.5-67.3c-2.5-0.886-7.05-2.56-11.7-4.31-2.35-0.881-2.76-1.07-2.79-1.26-0.0331-0.232 0.511-1.55 0.685-1.66 0.13-0.0804 2.29 0.95 9.95 4.74 7.75 3.83 7.87 3.91 3.86 2.49zm2.53-3.47c-11.2-7.88-14.1-9.99-14.1-10.2 0-0.225 1.29-1.86 1.47-1.85 0.172 0.0026 3.73 3.12 9.45 8.26 1.6 1.44 3.73 3.35 4.72 4.24 3.11 2.78 2.86 2.72-1.55-0.395zm78.2-7.41c0.252-0.213 1.13-0.876 1.96-1.47 9.02-6.52 14.2-10.2 14.3-10.2 0.3 0 1.08 1.5 0.878 1.69-0.163 0.153-9.6 5.82-15.1 9.07-2.39 1.41-2.86 1.63-2.03 0.929zm-2.94-0.318c1.14-1.44 11.5-13.3 14.7-16.7 1.88-2.05 1.78-2.01 2.71-1.03 0.819 0.868 0.832 0.928 0.296 1.39-1.49 1.3-9.55 8.83-13.4 12.6-3.42 3.29-4.95 4.64-4.28 3.78z" fill="#9839cc"/><path d="m104 190c0-0.18-1.25-7.34-1.64-9.43-1.73-9.14-3.23-12.3-5.71-12.1-2.55 0.212-7.27 3.04-21.4 12.8-3.74 2.59-4.18 2.88-4.22 2.75-0.02-0.0601 0.443-1.38 1.03-2.94 1.1-2.92 1.29-3.45 2.6-7.13 2.18-6.11 2.86-8.72 2.6-9.95-0.21-0.979 0.01-0.938-3.24-0.61-5.97 0.603-4.83 0.335-9.49 2.22-4.7 1.9-4.91 1.95-5.35 1.1-0.0966-0.188-0.378-0.58-0.626-0.871-0.248-0.291-0.527-0.715-0.621-0.941-0.189-0.456-1.53-1.82-1.66-1.69-0.0446 0.0467-0.173 1.13-0.285 2.4-0.246 2.79-0.107 2.57-2.2 3.39-0.816 0.317-3.19 1.25-5.28 2.08-4.38 1.73-4.45 1.74-5.04 1.06-0.21-0.243-0.633-0.719-0.939-1.06-0.306-0.34-0.556-0.692-0.556-0.782 0-0.212-0.911-1.19-1.29-1.39-0.584-0.302-0.658-0.643-0.518-2.37 0.62-7.61 1.57-18.4 2.45-27.9 1.66-17.9 1.42-15.7 1.78-16.1 0.755-0.82 11.4-6.25 12.3-6.25 0.387 0 0.892 0.377 0.892 0.665 0 0.285 2.69 2.71 2.8 2.53 0.0333-0.0538 0.16-1.07 0.281-2.26 0.258-2.52 0.313-2.67 1.18-3.08 2.16-1.03 11.3-4.15 11.9-4.07 2.44 0.31-0.272-7.79-8.43-25.1-0.94-2-1.71-3.69-1.71-3.75 0-0.15-0.0019-0.151 4.56 3.09 20.1 14.3 23.7 16.3 25.5 14.3 1.83-2.09 3.97-6.83 9.15-20.2 0.799-2.07 1.49-3.83 1.53-3.9 0.142-0.26 0.103-0.347 1.71 3.8 4.01 10.3 6.51 15.2 8.01 15.4 0.57 0.107 1.8-0.559 3.53-1.91 2.43-1.89 9.25-7.83 15.4-13.4 1.41-1.28 2.62-2.35 2.67-2.37 0.179-0.0626 0.112 0.314-0.488 2.74-4.56 18.5-4.59 23.1-0.131 23.9 0.891 0.157 0.884 0.143 0.507 1.1-0.454 1.15-0.523 1.21-1.38 1.1-4.3-0.544-5.59-4.16-4.26-11.9 0.656-3.78 1.97-9.97 2.31-10.8 0.143-0.372-0.256-0.137-1.18 0.693-0.799 0.721-6.91 6.06-9.69 8.46-4.76 4.12-6.86 5.35-8.22 4.83-1.88-0.718-4.92-6.23-8.22-14.9-0.42-1.1-0.373-1.13-1.05 0.667-5.46 14.6-8.11 19.6-10.6 20.1-1.54 0.338-4.85-1.39-12.3-6.43-0.793-0.537-2.63-1.77-4.09-2.74-1.46-0.971-2.84-1.91-3.07-2.08-0.233-0.171-0.819-0.572-1.3-0.891-0.483-0.32-1.32-0.906-1.85-1.3-1.72-1.27-1.76-1.26-1.08 0.218 0.525 1.15 0.75 1.66 2.75 6.29 4.53 10.5 5.41 14 4.13 16.5-0.316 0.624-0.318 0.737-0.018 1.02 0.668 0.624 1.24 0.0664 1.68-1.64 0.639-2.49 0.0944-5.2-2.18-10.8-1.31-3.24-1.95-4.77-2.19-5.25-0.119-0.233-0.306-0.685-0.416-1-0.11-0.319-0.337-0.798-0.505-1.07-0.763-1.21-0.694-1.61 0.176-1 0.334 0.233 1.11 0.775 1.72 1.2 1.15 0.803 1.52 1.06 3.61 2.52 6.11 4.25 10.5 6.89 12.7 7.63 4.18 1.44 6.98-2.11 12-15.2 0.435-1.14 0.927-2.42 1.09-2.85 0.479-1.25 0.617-1.18 1.26 0.598 0.174 0.48 0.527 1.34 0.784 1.91s0.69 1.53 0.962 2.14c1.72 3.86 3.94 7.04 5.39 7.74 2.16 1.03 4.04-0.0148 11.1-6.19 0.599-0.525 1.53-1.34 2.07-1.8 0.538-0.466 1.32-1.16 1.75-1.54 2.77-2.48 2.61-2.38 2.51-1.64-0.0364 0.266-0.158 0.802-0.269 1.19-0.199 0.695-0.285 1.11-0.81 3.89-0.667 3.53-0.954 7.35-0.649 8.62 0.18 0.747 0.274 0.888 1.12 1.67 0.589 0.546 0.589 0.546 0.559 1.55-0.0435 1.45 1.24 2.41 3.82 2.84 0.816 0.138 0.838 0.182 0.462 0.924-0.139 0.275-0.42 0.929-0.623 1.45-0.204 0.525-0.691 1.69-1.08 2.6-0.392 0.904-0.799 1.88-0.906 2.17-0.106 0.291-0.44 1.1-0.741 1.8-0.486 1.13-1.58 4-2.28 6.01-0.313 0.891-0.424 1.47-0.285 1.47 0.123 0 0.189-0.157 2.08-4.93 0.786-1.98 1.91-4.77 2.5-6.2 1.2-2.9 1.89-4.6 2.85-6.94 1.27-3.12 0.596-2.73 8.81-5.09 7.04-2.03 7.69-2.11 8.16-0.975 0.199 0.486 0.543 0.939 1.85 2.43 0.336 0.384 0.371 0.398 0.816 0.323 1.05-0.176 0.998-0.228 0.975 0.971-0.0831 4.37-0.13 5.76-0.226 6.73-0.175 1.77-0.215 6.38-0.0534 6.22 0.099-0.099 0.286-3.88 0.612-12.4 0.288-7.49 0.329-7.95 0.728-8.21 0.743-0.487 13.3-3.9 14.9-4.05 0.685-0.0635 1.1 0.18 1.22 0.711 0.0658 0.299 2.71 3.09 3.32 3.5 0.584 0.394 0.915-1.22-3.11 15.2-4.3 17.5-4.69 19.2-4.58 19.3 0.0736 0.0736 1.82 0.387 5.59 1 3.18 0.52 3.2 0.523 3.16 0.649-0.0187 0.056-1.42 0.736-3.11 1.51-7.04 3.23-6.33 2.8-5.95 3.66 3.09 6.89-6.62 14.6-11.8 9.41-0.725-0.723-0.792-0.733-1.28-0.192-1.9 2.1-0.594 4.45 9.97 17.9 1.48 1.88 2.71 3.49 2.75 3.58 0.106 0.277-0.189 0.188-4.12-1.23-29.9-10.8-31.5-9.71-26.4 17.5 0.446 2.38 0.803 2.57-3.29-1.73-11.2-11.8-14.8-14.7-17.1-13.6-2.22 1.08-6.84 8.73-12 19.9-0.967 2.09-1.38 2.85-1.38 2.54zm1.37-8.45c4.75-10.3 8.07-15.4 10.9-16.9 2.68-1.39 6.67 1.29 15.3 10.3 3.2 3.33 3.09 3.28 2.71 1.15-3.51-19.7-0.083-22.9 18.3-17.1 1.22 0.386 2.58 0.814 3.02 0.95s1.84 0.605 3.13 1.04c3.69 1.26 3.66 1.59 0.262-2.89-3.18-4.19-5.42-7.46-6.21-9.06-0.527-1.06-0.554-1.08-1.22-0.882-0.925 0.277 0.862 3.38 5.29 9.19 1.58 2.07 1.55 2.03 1.2 2.03-0.112 0-0.624-0.16-1.14-0.356-4.79-1.82-11.8-3.73-15.1-4.09-8.4-0.932-11.4 4.27-9.48 16.6 0.443 2.89 0.502 2.82-1.03 1.2-11.4-12.1-15-12.7-20.9-3.75-1.03 1.58-3.07 5.22-3.45 6.14-0.096 0.233-0.394 0.843-0.662 1.35-0.268 0.512-0.488 1.02-0.488 1.12 0 0.282-0.282 0.623-0.408 0.495-0.0575-0.0583-0.21-0.75-0.339-1.54-1.26-7.68-4.41-12.6-8.05-12.6-2.68 0-7.58 2.53-14.5 7.46-0.466 0.334-1.17 0.831-1.56 1.1-0.394 0.273-1.13 0.818-1.64 1.21-1.36 1.05-1.35 1.12-0.295-1.87 1.57-4.46 2.09-6.6 2.08-8.59-0.0087-1.47-0.268-1.62-0.487-0.273-0.111 0.682-0.468 1.47-0.702 1.54-0.11 0.0349-0.221 0.168-0.246 0.295-0.25 1.25-0.727 2.98-1.23 4.47-0.916 2.71-1.82 5.32-2.48 7.15-0.741 2.06-0.865 2.03 1.41 0.335 6.43-4.78 13.9-9.59 16.6-10.6 5.33-2.11 7.95 1.15 10.2 12.7 0.0958 0.496 0.239 1.21 0.319 1.59 0.0796 0.379 0.173 0.88 0.207 1.11 0.183 1.24 0.171 1.24 0.681 0.132zm-59.6-16.6c2.11-0.809 4.14-1.58 4.52-1.71 0.975-0.341 0.921-0.216 1.16-2.7 0.192-1.96 0.748-7.21 1.22-11.5 0.191-1.75-0.163-1.44 3.49-2.97 3.58-1.5 3.39-1.46 3.31-0.721-0.0342 0.306-0.156 1.56-0.27 2.78-0.332 3.55-1.16 12.2-1.2 12.5-0.0634 0.508 0.106 0.459 4.14-1.2 4.61-1.9 3.97-1.42 4.5-3.4 0.239-0.899 0.546-2.05 0.683-2.56 0.167-0.623 0.475-2.87 0.938-6.84 1.56-13.4 2.84-24 3.77-31.3 0.498-3.92 0.471-3.5 0.23-3.5-0.63 0-9.48 3.18-9.84 3.53-0.073 0.0725-0.28 1.72-0.509 4.04-0.951 9.66-1.45 14.4-1.52 14.5-0.0409 0.0409-1.2 0.525-2.57 1.08-1.37 0.551-2.84 1.15-3.27 1.33-0.973 0.407-1.01 0.384-0.922-0.559 0.105-1.11 1.28-12.7 1.55-15.2 0.286-2.73 0.574-2.64-2.88-0.895-5.35 2.71-6.64 3.48-6.71 3.99-0.0307 0.24-0.438 4.66-0.906 9.82-1.24 13.7-1.45 16-1.8 20.1-0.178 2.07-0.489 5.68-0.691 8.03-0.388 4.5-0.407 4.8-0.302 4.8 0.0364 0 1.79-0.662 3.9-1.47zm37.8-6.56c-0.224-0.442-0.251-0.626-0.229-1.53 0.0396-1.63-0.258-1.44-0.396 0.259-0.0866 1.07 0.192 1.78 0.698 1.78 0.161 0 0.152-0.057-0.0731-0.502zm-15.2-0.873c0.575-0.0569 2.33-0.201 3.91-0.321 3.28-0.249 3.3-0.252 3.37-0.502 0.029-0.103 0.517-1.86 1.08-3.9 0.568-2.04 1.07-3.77 1.11-3.85 0.0816-0.151 0.515-0.347 3.21-1.45 0.92-0.377 2.12-0.876 2.66-1.11 0.544-0.233 1.07-0.423 1.17-0.423 0.17 0 0.177 0.325 0.104 5.09-0.0671 4.41-0.0569 5.09 0.076 5.09 0.0844 0 1.49-0.6 3.12-1.33 1.63-0.734 3.67-1.65 4.53-2.03 1.96-0.866 1.77 0.112 1.23-6.55-0.114-1.4-0.327-4.24-0.474-6.31-0.24-3.37-0.618-8.49-1.21-16.4-0.111-1.49-0.281-4.11-0.377-5.83-0.201-3.59-0.225-3.82-0.418-3.82-0.517 0-10.5 3.42-10.8 3.68-0.164 0.181-2.96 7.36-4.73 12.1-5.43 14.7-9.58 28-8.75 28 0.054 0 0.568-0.0466 1.14-0.104zm11.7-18c-0.089-0.089 0.0316-0.469 2.37-7.45 2.07-6.2 2.22-6.59 2.48-6.59 0.131 0 0.343 9.84 0.248 11.5-0.0301 0.52-4.05 2.61-5.02 2.61-0.0061 0-0.039-0.028-0.0732-0.0622zm19.7 11.7c1.72-0.66 3.5-1.34 3.95-1.5 0.971-0.36 0.878-0.134 1.09-2.64 0.0925-1.11 0.355-4.04 0.582-6.52 0.228-2.48 0.446-4.89 0.485-5.37 0.0933-1.14-0.169-0.956 3.28-2.33 3.24-1.29 3.41-1.34 3.37-0.832-0.0148 0.173-0.194 2.51-0.399 5.19-0.205 2.68-0.515 6.56-0.689 8.62-0.174 2.06-0.291 3.79-0.26 3.84 0.0625 0.101 0.0778 0.0943 5.08-2.28 1.92-0.914 3.83-1.8 4.24-1.98 0.408-0.174 0.782-0.356 0.832-0.404 0.265-0.263 0.407-1.77 1.13-11.9 0.525-7.41 1.15-15.9 1.49-20.3 0.959-12.4 0.981-12.8 0.671-12.8-0.728 0-9.65 3.01-10 3.38-0.141 0.141-0.205 0.693-0.349 2.98-0.182 2.89-0.434 6.51-0.803 11.5-0.116 1.57-0.212 2.87-0.212 2.88-2e-4 0.0103-0.394 0.17-0.875 0.355s-1.94 0.761-3.24 1.28c-1.3 0.519-2.38 0.943-2.41 0.943-0.11 0-0.0261-1.18 0.481-6.74 0.292-3.2 0.625-6.89 0.74-8.2 0.115-1.31 0.235-2.56 0.266-2.79 0.108-0.765-1.33-0.254-7.79 2.77-1.79 0.836-1.58 0.369-1.85 4.15-0.532 7.31-0.831 11.5-1.12 15.6-0.176 2.54-0.39 5.52-0.475 6.62-0.86 11.2-1.29 17.8-1.17 18 0.0512 0.0828 0.187 0.069 0.464-0.0472 0.215-0.0904 1.8-0.704 3.52-1.36zm10.2 1.28c0-0.0198-0.142-0.294-0.316-0.609-0.303-0.549-0.316-0.559-0.318-0.243-2e-3 0.322 0.34 0.889 0.536 0.889 0.0541 0 0.0983-0.0162 0.0983-0.0361zm27.9-2.87c0.559-0.168 0.684-0.294 0.689-0.694 7e-3 -0.598 0.181-0.616 0.695-0.0703 0.265 0.282 0.54 0.492 0.61 0.466 0.0698-0.0257 0.377-0.129 0.682-0.229 0.6-0.197 0.68-0.272 0.735-0.688 0.258-1.98 0.1-2.87-0.51-2.87-0.104 0-0.245-0.102-0.312-0.228-0.109-0.204-0.0985-0.221 0.102-0.169 0.324 0.0847 0.29-0.212-0.0675-0.586-0.291-0.305-0.291-0.305-0.254-2.8 0.0418-2.8-0.181-3.68-0.312-1.23-0.0754 1.41-0.0289 1.32-0.994 1.79-0.753 0.362-0.783 0.392-0.855 0.823-0.0411 0.246-0.158 0.567-0.26 0.712s-0.218 0.384-0.258 0.53c-0.0398 0.146-0.163 0.48-0.274 0.742-1.23 2.91-1.33 3.32-0.85 3.66 0.219 0.152 0.487 0.441 0.595 0.642 0.228 0.424 0.179 0.411 0.838 0.213zm-10.9-6.04c2.13-0.329 3.9-0.632 3.95-0.675 0.0426-0.0425 0.704-1.89 1.47-4.1 1.63-4.71 1.25-4.14 3.22-4.88 3.24-1.22 6.15-2.27 6.28-2.27 0.162 0 0.165-0.465-0.0234 4.82-0.192 5.4-0.194 5.78-0.0343 5.78 0.0688 0 0.844-0.28 1.72-0.623 1.8-0.703 6.07-2.27 7.56-2.78 1.24-0.422 1.17-0.191 1.02-3.43-0.178-3.79-0.548-11.5-0.68-14.2-0.126-2.56-0.683-15.2-0.85-19.3-0.0714-1.75-0.155-2.78-0.228-2.82-0.251-0.155-7.13 1.74-11.6 3.21-1.17 0.382-0.767-0.325-3.17 5.55-3.01 7.35-4.88 12-6.23 15.6-0.253 0.67-0.895 2.36-1.43 3.76-5.32 14-6.29 17.1-5.24 17 0.228-0.0326 2.16-0.328 4.28-0.657zm9.65-18.5c0-0.435 5.35-14 5.6-14.2 0.112-0.0885 0.204-0.0975 0.274-0.027 0.124 0.124-0.108 12.2-0.238 12.3-0.304 0.304-5.63 2.07-5.63 1.87zm23.1 15.6c3.7-0.964 5.82-5.64 3.88-8.56-1.76-2.65-6-2.06-8.06 1.13-2.53 3.9 0.0609 8.51 4.18 7.44zm-101-8.14c0.0626-0.465 0.297-2.96 0.493-5.26 0.148-1.72 0.0618-1.75-0.156-0.0473-0.19 1.49-0.703 5.66-0.703 5.72 0 0.293 0.319-0.0685 0.366-0.414zm99.1-5.95c1.19-0.217 1.71-0.273 3.35-0.363 1.81-0.099 1.47 0.516 2.72-5 1.01-4.48 1.82-8.05 2.56-11.2 0.181-0.787 0.682-2.98 1.11-4.88 0.658-2.89 1.38-6.02 2.7-11.8 0.278-1.2 0.275-1.36-0.0277-1.36-0.71 0-12.1 3.16-12.3 3.4-0.0388 0.0628-0.104 1.12-0.144 2.36-0.0722 2.19-0.2 5.4-0.545 13.6-0.543 13-0.628 15.2-0.596 15.3 0.0471 0.141 0.154 0.137 1.15-0.0433zm-80.8-4.72c1.89-4.83 2.1-5.29 2.62-5.54 1.42-0.694 11.9-4.21 12.6-4.21 0.392 0 0.757 0.308 0.889 0.748 0.129 0.43 0.67 1.04 0.804 0.906 0.0434-0.0434-0.0277-0.264-0.158-0.49s-0.237-0.469-0.237-0.539c0-0.501-1.02-1.22-1.56-1.09-0.847 0.192-4.55 1.35-7.6 2.38-0.874 0.295-1.96 0.65-2.41 0.789s-1.01 0.35-1.24 0.469c-0.234 0.119-0.682 0.313-0.995 0.43-0.919 0.344-1.27 1.01-2.82 5.3-0.347 0.962-0.832 2.27-1.08 2.91-0.43 1.12-0.678 2.25-0.444 2.01 0.0588-0.0583 0.805-1.89 1.66-4.08zm34.4-2.78c0.225-2.71 0.168-3.75-0.0885-1.62-0.309 2.57-0.3 2.38-0.122 2.38 0.105 0 0.164-0.216 0.21-0.768zm-15.2-0.791c0.136-1.4 0.242-2.73 0.544-6.8 0.218-2.94 0.257-3.11 0.787-3.46 0.918-0.601 9.69-4.4 10.9-4.73 0.611-0.163 0.999 0.0646 1.22 0.714 0.154 0.46 0.409 0.788 0.615 0.788 0.254 0-0.52-1.51-0.91-1.78-0.728-0.495-4.91 1.07-11.2 4.19-1.69 0.833-1.66 0.747-2.02 6.96-0.281 4.86-0.223 7.38 0.095 4.11zm16.2-11.9c0.0343-0.248 0.0919-1.05 0.128-1.78 0.117-2.36-0.0999-2.13 3.07-3.27 8.83-3.18 10.5-3.53 10.9-2.25 0.131 0.487 0.772 1.11 0.831 0.807 0.0194-0.0989-0.0521-0.304-0.159-0.456-0.107-0.152-0.314-0.495-0.459-0.761-0.702-1.28-1.02-1.24-7.62 0.933-4.87 1.61-6.42 2.26-6.71 2.8-0.168 0.314-0.422 3.82-0.3 4.14 0.152 0.4 0.288 0.332 0.359-0.179zm38.2 75.7c-0.526-0.603-10.5-14.6-10.8-15.1-0.374-0.702 0.635 0.436 10 11.3 2.72 3.15 2.46 2.77 2.16 3.1-0.626 0.673-1.17 0.947-1.39 0.698zm-93.3-0.894c-0.497-0.581-0.638-0.388 1.55-2.12 2-1.58 3.06-2.44 3.95-3.2 1.21-1.02 6.25-5.05 6.28-5.02 0.0197 0.0197-0.358 0.412-0.839 0.872s-1.02 0.98-1.2 1.16c-0.176 0.176-1.46 1.4-2.86 2.72s-3.4 3.22-4.45 4.21c-2.19 2.07-1.94 1.93-2.43 1.37zm-5.6-4.88c-0.132-0.248-0.274-0.534-0.317-0.637-0.0663-0.159 0.394-0.423 3.13-1.79 4.42-2.21 12.4-6.03 12.5-6.03 0.26 0-0.0852 0.214-5.36 3.31-1.14 0.668-3.73 2.2-5.76 3.4-4.14 2.45-3.9 2.35-4.22 1.74zm103-2.09c-0.806-0.638-2.09-1.65-2.85-2.25-1.61-1.27-7.26-5.8-7.73-6.19-0.532-0.451 1.51 0.831 6.02 3.78 3.46 2.26 4.75 3.1 5.93 3.86 1.3 0.827 1.27 0.767 0.747 1.45-0.511 0.67-0.423 0.697-2.12-0.646zm-96.4-57.9c-2.34-2.24-4.54-4.29-5.96-5.53-1.71-1.51-1.98-1.47 3.1-0.385 4.38 0.938 7.29 1.53 8.32 1.71 1.44 0.241 1.43 0.252-0.633 1.04-1.83 0.704-1.9 0.714-3.08 0.496-1.74-0.323-1.6-0.346-1.04 0.174 1.38 1.28 1.63 2.08 1.18 3.88-0.0875 0.355-0.0741 0.364-1.9-1.38zm3.34-9.59c-0.0874-0.0322-0.994-0.359-2.01-0.726-1.02-0.367-2.38-0.867-3.02-1.11-2.04-0.775-3.67-1.38-4.98-1.85-1.77-0.638-3.78-1.41-3.85-1.48-0.0576-0.0576 0.499-1.43 0.58-1.43 0.157 0 11.1 5.33 13 6.33 0.569 0.3 0.696 0.429 0.265 0.27zm5.09-1.71c-0.689-0.466-4.09-2.86-8.21-5.79-5.43-3.85-7.91-5.69-7.88-5.84 0.0566-0.252 1.19-1.74 1.33-1.74 0.0725-3.79e-4 0.512 0.334 0.976 0.743 4.15 3.66 13 11.6 14.3 12.7 0.377 0.352 0.118 0.294-0.472-0.105zm74.4-10.4c0.231-0.289 1.09-1.29 1.91-2.22s2.85-3.25 4.51-5.14c5.4-6.18 8.67-9.75 8.91-9.75 0.151 0 1.48 1.37 1.48 1.53 0 0.0817-1.27 1.28-4.4 4.16-2.76 2.54-7.55 7.04-10.5 9.91-1.99 1.91-2.51 2.33-1.86 1.52zm4.3 0.0128c0-0.0553 2.01-1.53 5.01-3.69 1.45-1.04 2.84-2.04 3.1-2.23 0.258-0.19 0.853-0.607 1.32-0.928s1.25-0.869 1.74-1.22 1.02-0.719 1.19-0.82c0.168-0.101 0.512-0.352 0.764-0.556 0.573-0.465 0.534-0.471 0.946 0.158 0.429 0.655 0.429 0.65-0.053 0.898-0.219 0.113-0.617 0.361-0.886 0.552-0.268 0.191-0.722 0.456-1.01 0.588-0.285 0.132-0.686 0.368-0.89 0.524s-0.644 0.442-0.977 0.636-2.24 1.34-4.24 2.54c-4.12 2.48-6.02 3.6-6.02 3.54z" fill="#6f0cb2"/><path d="m104 190c0-0.755-2.09-11.9-2.66-14.3-2.56-10.4-3.05-10.3-28.4 7.27-1.54 1.06-1.87 1.26-1.87 1.1 0-0.0312 0.29-0.806 0.644-1.72 5.12-13.2 6.61-18.9 4.99-19.1-1.04-0.0993-7.9 0.732-8.7 1.05-0.437 0.176-2.33 0.936-4.2 1.69-4.05 1.63-4 1.63-4.63 0.618-0.0942-0.152-0.359-0.493-0.588-0.758s-0.518-0.691-0.642-0.947c-0.261-0.539-1.34-1.68-1.6-1.68-0.0989 0-0.155 0.428-0.327 2.49-0.245 2.94 0.962 2.11-8.41 5.79-3.58 1.41-4.53 1.23-5.51-1.04-0.189-0.438-0.924-1.28-1.33-1.52-0.803-0.474-0.742-1.44 1.89-29.9 0.421-4.55 1.3-14 1.43-15.3 0.12-1.23 0.829-1.69 8.26-5.39 4.52-2.25 4.7-2.3 5.14-1.43 0.233 0.458 1.94 2.23 2.14 2.23 0.0711 0 0.263 0.128 0.425 0.284 0.403 0.386 0.389 0.426 0.628-1.89 0.287-2.79 0.297-2.82 1.16-3.24 1.94-0.95 11-4.08 11.9-4.1 2.52-0.0614 0.0047-7.5-8.92-26.4-0.583-1.24-1.04-2.3-1.02-2.37 0.0215-0.0646 1.9 1.21 4.17 2.82 16.2 11.5 22.8 15.7 24.5 15.4 1.89-0.355 4.21-5.03 10.2-20.7 1.91-4.96 1.75-4.71 2.25-3.42 5.9 15.1 7.78 18.6 9.65 18.3 1.38-0.259 7.84-5.62 18.7-15.5 2.25-2.05 2.45-2.22 2.45-2.02 0 0.0649-0.284 1.27-0.63 2.68-4.59 18.7-4.59 23.3-0.0173 23.9 0.774 0.1 0.772 0.096 0.361 1.12-0.422 1.05-0.405 1.04-1.68 0.814-3.29-0.593-4.68-3.37-4.19-8.38 0.273-2.8 1.87-11.1 2.72-14.1 0.177-0.632 0.0384-0.532-3.1 2.24-11.6 10.2-13.8 12-15.5 11.8-1.92-0.185-4.19-3.97-7.92-13.2-0.622-1.54-1.18-2.82-1.23-2.84-0.055-0.0183-0.595 1.27-1.2 2.86-4.82 12.7-7.42 17.8-9.56 18.7-1.9 0.863-4.58-0.555-16.8-8.9-2.63-1.8-3.54-2.43-6-4.17-2.45-1.73-2.44-1.73-1.67-0.058 3.75 8.22 6.39 14.8 7.14 17.8 0.588 2.33 0.535 4.05-0.165 5.29-0.317 0.562-0.317 0.562-0.0932 0.846 0.494 0.628 1 0.801 1.32 0.45 0.344-0.38 0.54 0.136 0.224 0.588-0.268 0.383-0.517 1.46-0.512 2.22 0.0025 0.408-0.0578 1.08-0.134 1.48-0.0763 0.408-0.19 1.12-0.252 1.59-0.252 1.88-0.359 2.62-0.611 4.19-0.145 0.904-0.331 1.91-0.415 2.24-0.0833 0.329-0.151 0.709-0.151 0.844 0 0.559 0.353-0.222 2.01-4.46 1.98-5.05 1.95-4.99 2.63-5.28 1.84-0.793 11.9-4.15 12.4-4.15 0.271 0 0.821 0.565 0.821 0.844 0 0.129 0.282 0.526 0.665 0.936 0.366 0.391 0.801 0.89 0.967 1.11 0.166 0.219 0.369 0.397 0.452 0.397 0.532 0 0.671 0.436 0.683 2.14 0.0352 4.95 0.279 3.42 1.01-6.33 0.212-2.85 0.23-2.9 1.17-3.37 2.4-1.21 7.86-3.58 9.93-4.31 1.1-0.39 1.76-0.135 1.76 0.68 0 0.0863 0.241 0.387 0.535 0.668s0.704 0.737 0.91 1.01c0.206 0.277 0.434 0.503 0.506 0.503 0.072 0 0.241 0.126 0.375 0.281 0.349 0.401 0.384 0.272 0.523-1.91 0.124-1.96 0.179-2.19 0.573-2.45 0.566-0.37 7.85-2.87 11-3.77 1.56-0.446 2.08-0.332 2.28 0.499 0.078 0.316 1.05 1.46 2.15 2.53 0.678 0.66 0.678 0.66 0.618 1.54-0.0334 0.487-0.0136 1.14 0.0438 1.45 0.0654 0.354 0.0671 0.612 5e-3 0.69-0.0997 0.125-0.252 1.44-0.442 3.83-0.154 1.93-0.611 7.23-0.859 9.96-0.361 3.97-0.345 3.63-0.156 3.4 0.0905-0.113 0.361-0.709 0.6-1.32 1-2.58 2.91-7.34 3.91-9.76 1.26-3.05 1.95-4.72 2.91-7.09 1.21-2.97 0.776-2.6 4.19-3.65 10.4-3.2 12.4-3.57 12.7-2.32 0.0585 0.215 0.365 0.688 0.682 1.05s0.732 0.876 0.923 1.14c0.406 0.565 0.604 0.637 1.38 0.496 0.686-0.125 0.732-0.103 0.732 0.344 0 1.05-0.132 1.65-0.36 1.65-0.463 3e-3 -0.52 0.132-0.467 1.05 0.0545 0.941 0.104 1.06 0.35 0.859 0.311-0.258 0.414 2.15 0.134 3.13-0.149 0.516-0.232 4.81-0.127 6.52 0.109 1.77 0.217 1.16 0.356-2.01 0.252-5.75 0.513-12.2 0.591-14.7 0.124-3.89-0.644-3.26 6.57-5.34 2.51-0.723 8.68-2.24 9.11-2.24 0.345 0 0.876 0.466 0.958 0.84 0.0459 0.209 0.631 0.859 1.86 2.07 2.21 2.17 2.38 0.135-1.24 14.7-0.934 3.77-2.56 10.5-4.29 17.6-0.407 1.69-0.726 3.19-0.709 3.33 0.0364 0.306-0.171 0.26 5.38 1.18 1.78 0.295 3.25 0.558 3.28 0.586 0.102 0.102-0.204 0.261-2.53 1.32-6.56 2.98-7.15 3.3-6.57 3.66 0.512 0.317 0.864 3.33 0.543 4.66-1.39 5.76-8.46 8.68-12.1 5.02-0.867-0.863-0.769-0.85-1.39-0.191-1.89 2.03-0.581 4.46 9.04 16.7 3.49 4.45 3.75 4.79 3.68 4.86-0.066 0.066-0.29-0.0104-4.94-1.69-28.6-10.3-30.6-9.03-25.9 16.3 0.293 1.57 0.518 2.97 0.5 3.12-0.0283 0.237-0.392-0.108-2.94-2.79-11.6-12.2-15.2-15.2-17.5-14.2-2.38 1.07-6.5 7.81-12.1 19.8-1.1 2.36-1.43 2.94-1.43 2.58zm2.64-10.7c8.76-18.5 10.7-18.8 25-4.08 1.61 1.66 2.97 3.04 3.01 3.06 0.132 0.0589 0.0902-0.519-0.123-1.68-3.94-21.5-0.6-23.7 23.7-15.6 2.09 0.699 3.84 1.26 3.89 1.24 0.117-0.0399-1.32-2.06-2.72-3.83-4.22-5.33-7.18-10.1-7.21-11.6-0.01-0.496-0.0235-0.933-0.0302-0.973-7e-3 -0.0394-0.31 0.0491-0.675 0.197-0.364 0.148-1.03 0.405-1.48 0.572-0.452 0.167-1.19 0.443-1.64 0.612-1.95 0.733-4.54 1.61-4.76 1.61-0.133 0-0.422 0.0708-0.642 0.157-1.07 0.422-1.42 0.213-1.21-0.734 0.115-0.515 0.162-0.589 0.337-0.533 0.26 0.0826 0.259-0.0359-3e-3 -0.315-0.114-0.121-0.278-0.492-0.364-0.824-0.15-0.574-0.926-1.88-1.12-1.88-0.348 0-0.424-0.689-0.328-2.97 0.108-2.57 0.117-2.53-0.591-2.18-0.286 0.141-0.767 0.336-1.07 0.434-0.782 0.253-0.776 0.24-2.6 5.78-1.21 3.67-0.916 3.4-4.11 3.82-1.68 0.222-1.78 0.397-0.68 1.21 0.853 0.626 0.865 0.765 0.0708 0.854-0.335 0.0376-0.821 0.136-1.08 0.22-0.258 0.0832-0.592 0.15-0.742 0.148-0.461-6e-3 0.0385-0.299 0.647-0.38 0.809-0.107 0.588-1.09-0.282-1.25-0.205-0.0384-0.372-0.115-0.372-0.171 0-0.197-3.13 0.144-3.47 0.378-0.0799 0.0541 0.236 1.21 0.416 1.52 0.591 1.03-1.35 1.06-2.05 0.04-0.452-0.67-0.56-0.771-0.759-0.711-0.318 0.0963-6.15 2.81-9.4 4.37-1.22 0.589-1.93 0.474-2.28-0.373-0.09-0.215-0.228-0.465-0.306-0.554-0.0785-0.0896-0.317-0.499-0.53-0.909-0.213-0.41-0.576-0.983-0.807-1.27-0.791-0.991-0.769-0.541-0.31-6.46 0.226-2.91 0.442-5.59 0.479-5.95 0.0433-0.409 0.028-0.675-0.0414-0.718-0.128-0.0789-0.183 0.28-0.334 2.16-0.102 1.28-0.358 4.18-0.691 7.85-0.0874 0.963-0.159 2.08-0.16 2.49-2e-3 2.21-0.248 3-1.01 3.21-0.291 0.0816-0.721 0.221-0.954 0.309-0.233 0.0885-0.901 0.34-1.48 0.559-2.84 1.06-5.03 1.91-5.51 2.12-2.16 0.949-3.1 1.12-3.56 0.628-0.363-0.388-0.357-0.389-2.23 0.452-0.661 0.297-1.63 0.718-2.16 0.936s-1.5 0.647-2.17 0.953c-3.26 1.49-3.78 1.56-4.19 0.596-0.077-0.182-0.334-0.59-0.572-0.906-0.238-0.317-0.432-0.656-0.432-0.753 0-0.197-0.677-1.14-0.976-1.35-0.453-0.329-0.508-0.647-0.508-2.91 0-2.51 0.0486-2.38-0.715-1.92-0.328 0.198-0.632 0.36-0.674 0.36-0.0956 0-0.374 0.742-0.517 1.38-0.13 0.575-1.03 3.95-1.49 5.56-0.252 0.892-0.327 1.36-0.319 2.01 0.0053 0.466-0.0396 1.06-0.0998 1.32-0.772 3.37-1.12 4.51-3.23 10.4-1.33 3.73-1.35 3.62 0.527 2.26 22.3-16.1 24.1-15.8 27.7 4.83 0.178 1.01 0.159 1.04 2-2.84zm50.9-20.3c-0.15-0.0605-0.491-0.664-0.416-0.738 0.0603-0.0603 0.604 0.58 0.604 0.711 0 0.0538-0.0119 0.0941-0.0265 0.0895-0.0146-5e-3 -0.0871-0.0328-0.161-0.0626zm-112 6.02c2.11-0.809 4.14-1.58 4.52-1.71 0.975-0.341 0.921-0.216 1.16-2.7 0.192-1.96 0.748-7.21 1.22-11.5 0.191-1.75-0.163-1.44 3.49-2.97 3.58-1.5 3.39-1.46 3.31-0.721-0.0342 0.306-0.158 1.58-0.275 2.84-0.117 1.25-0.306 3.23-0.419 4.4s-0.304 3.15-0.426 4.4c-0.121 1.25-0.257 2.65-0.302 3.11-0.11 1.12-0.365 1.16 4.09-0.672 4.61-1.9 3.97-1.42 4.5-3.4 0.239-0.899 0.546-2.05 0.683-2.56 0.167-0.623 0.475-2.87 0.938-6.84 1.56-13.4 2.84-24 3.77-31.3 0.5-3.93 0.473-3.5 0.214-3.5-0.687 0-9.56 3.19-9.85 3.54-0.104 0.126-0.277 1.67-0.906 8.12-0.701 7.19-1.03 10.3-1.1 10.4-0.04 0.0381-1.03 0.451-2.19 0.918s-2.64 1.07-3.28 1.33c-1.38 0.573-1.38 0.573-1.29-0.397 0.105-1.11 1.28-12.7 1.55-15.2 0.146-1.39 0.189-2.2 0.123-2.26-0.238-0.238-9.56 4.69-9.69 5.13-0.0412 0.137-0.269 2.44-0.505 5.12-0.237 2.68-0.763 8.57-1.17 13.1-1.1 12.2-2.12 24-2.12 24.5 0 0.351-0.385 0.468 3.96-1.2zm22.6-7.43c0.575-0.0569 2.33-0.201 3.91-0.321 3.28-0.249 3.3-0.252 3.37-0.502 0.029-0.103 0.517-1.86 1.08-3.9 0.568-2.04 1.07-3.77 1.11-3.85 0.0816-0.151 0.515-0.347 3.21-1.45 0.92-0.377 2.12-0.876 2.66-1.11 0.544-0.233 1.07-0.423 1.17-0.423 0.169 0 0.176 0.333 0.104 5.09-0.0668 4.41-0.0566 5.09 0.0768 5.09 0.0846 0 1.49-0.6 3.12-1.33 1.63-0.734 3.67-1.65 4.53-2.03 1.96-0.866 1.77 0.112 1.23-6.55-0.114-1.4-0.327-4.24-0.474-6.31-0.24-3.37-0.618-8.49-1.21-16.4-0.111-1.49-0.281-4.11-0.377-5.83-0.204-3.65-0.223-3.82-0.433-3.82-0.439 0-10.4 3.37-10.7 3.62-0.242 0.199-3.72 9.19-6.04 15.6-1.67 4.64-4.65 13.4-5.82 17.2-0.793 2.55-1.9 6.96-1.81 7.2 0.0761 0.198-0.0062 0.194 1.31 0.0643zm11.7-18c-0.0927-0.0927 0.0149-0.432 2.36-7.45 2.07-6.2 2.22-6.59 2.48-6.59 0.159 0 0.355 11.9 0.198 12.1-0.0744 0.0661-1.41 0.61-4.87 1.98-0.0613 0.0244-0.141 0.0148-0.177-0.0212zm19.7 11.7c1.72-0.66 3.5-1.34 3.95-1.5 0.971-0.36 0.878-0.134 1.09-2.64 0.0925-1.11 0.355-4.04 0.582-6.52 0.228-2.48 0.446-4.89 0.485-5.37 0.0933-1.14-0.167-0.957 3.26-2.33 3.76-1.5 3.48-1.48 3.35-0.258-0.0469 0.437-0.16 1.8-0.25 3.02-0.36 4.85-0.498 6.61-0.803 10.2-0.174 2.06-0.291 3.79-0.26 3.84 0.0625 0.101 0.0778 0.0943 5.08-2.28 1.92-0.914 3.83-1.8 4.24-1.98 0.408-0.174 0.782-0.356 0.832-0.404 0.265-0.263 0.407-1.77 1.13-11.9 0.536-7.56 1.14-15.9 1.59-21.6 0.232-3.03 0.495-6.56 0.584-7.84 0.089-1.28 0.192-2.63 0.228-2.99 0.0648-0.651 0.0615-0.662-0.195-0.662-0.724 0-9.54 2.9-10.1 3.32-0.132 0.101-0.205 0.774-0.383 3.52-0.278 4.28-0.96 13.9-0.988 13.9-0.518 0.509-6.49 2.51-6.52 2.18-0.0173-0.217 0.162-2.52 0.398-5.13s0.571-6.3 0.743-8.21c0.172-1.91 0.341-3.71 0.374-3.98 0.092-0.766 0.271-0.814-4.24 1.14-5.32 2.31-5.15 2.19-5.26 3.57-0.327 4.22-1.06 14.4-1.42 19.8-0.088 1.31-0.303 4.32-0.478 6.68-1.24 16.7-1.22 16.1-0.551 15.8 0.215-0.0904 1.8-0.704 3.52-1.36zm27.2-7.63c2.13-0.329 3.9-0.632 3.95-0.675 0.0426-0.0425 0.704-1.89 1.47-4.1 1.63-4.71 1.25-4.14 3.22-4.88 5.92-2.23 6.41-2.39 6.41-2.09-1e-3 0.102-0.0719 2.14-0.157 4.53-0.192 5.4-0.195 5.88-0.0336 5.88 0.0688 0 0.844-0.28 1.72-0.623 1.8-0.703 6.07-2.27 7.56-2.78 1.24-0.422 1.17-0.191 1.02-3.43-0.178-3.79-0.548-11.5-0.68-14.2-0.126-2.56-0.683-15.2-0.85-19.3-0.062-1.52-0.148-2.79-0.191-2.83-0.182-0.182-11.1 2.85-12.4 3.45-0.279 0.127-0.463 0.454-1.02 1.82-0.215 0.524-0.596 1.45-0.848 2.07-4.42 10.8-6.08 15-10.8 27.8-2.95 7.92-3.52 10.1-2.61 9.99 0.228-0.0326 2.16-0.328 4.28-0.657zm9.65-18.5c0-0.435 5.35-14 5.6-14.2 0.111-0.0874 0.204-0.0971 0.273-0.0283 0.119 0.119-0.108 12.2-0.231 12.3-0.306 0.299-5.64 2.07-5.64 1.87zm23.1 15.6c3.7-0.965 5.82-5.64 3.88-8.57-1.8-2.72-6.34-1.96-8.21 1.37-2.24 4 0.312 8.25 4.33 7.2zm7.32-3.13c0.28 0 0.166-0.743-0.2-1.3-0.426-0.647-0.678-0.467-0.681 0.487-2e-3 0.482 0.38 1.11 0.563 0.925 0.0628-0.0628 0.206-0.114 0.318-0.114zm-71.8-5.62c-0.0343-1.31-0.108-2.79-0.164-3.29-0.0561-0.496-0.151-1.64-0.21-2.54-0.0596-0.904-0.179-2.57-0.265-3.71-0.0859-1.14-0.158-2.4-0.159-2.81-4e-3 -0.98-0.0695-1.21-0.327-1.14-0.288 0.0754-0.211 2.43 0.269 8.19 0.085 1.02 0.206 2.47 0.268 3.23 0.0813 0.983 0.159 1.41 0.27 1.5 0.184 0.139 0.216 0.515 0.0347 0.403-0.124-0.0767-0.0699 2.02 0.0921 3.56 0.139 1.32 0.259-0.808 0.192-3.39zm-35.9-1.59c0.533-5.73 0.619-7.13 0.338-5.49-0.239 1.39-0.983 7.95-0.921 8.11 0.196 0.511 0.359-0.225 0.582-2.62zm108 2.61c0.16-0.0827 0.551-0.243 0.869-0.357 0.752-0.268 2.16-1.04 2.04-1.12-0.705-0.436-1.83-0.274-1.83 0.263 0 0.442-0.622 0.937-1.18 0.937-0.528 0-0.619 0.0692-0.392 0.297 0.158 0.158 0.141 0.158 0.492-0.0231zm-12.8-0.904c0.091-0.147-0.341-11.7-0.807-21.6-0.122-2.59-0.252-5.47-0.289-6.38-0.07-1.74-0.123-1.92-0.534-1.81-0.252 0.0658-0.252 0.0658-0.187 1.77 0.0357 0.938 0.114 2.99 0.173 4.57 0.0595 1.57 0.155 3.86 0.212 5.09 0.0572 1.22 0.176 3.92 0.264 5.99 0.0877 2.07 0.208 4.55 0.266 5.51 0.0586 0.962 0.16 2.87 0.226 4.24 0.136 2.84 0.26 3.33 0.676 2.66zm3.73-5.46c1.19-0.217 1.71-0.273 3.35-0.363 1.81-0.099 1.47 0.516 2.72-5 1.01-4.48 1.82-8.05 2.56-11.2 0.181-0.787 0.682-2.98 1.11-4.88 0.725-3.19 2.14-9.37 2.75-12 0.142-0.612 0.222-1.15 0.176-1.2-0.0988-0.1-5.46 1.25-8.81 2.22-1.31 0.38-2.65 0.765-2.97 0.855-0.88 0.248-0.812-0.0914-1 4.96-0.179 4.78-0.642 16.3-0.992 24.8-0.0949 2.29-0.221 2.08 1.11 1.84zm-46.4-6.82c0.0522-0.102 0.151-1.21 0.219-2.46 0.0683-1.25 0.147-2.45 0.174-2.67 0.0274-0.215 2e-3 -0.421-0.0563-0.457-0.0584-0.0361-0.106-0.0271-0.106 0.0201-7e-5 0.0472-0.0966 0.992-0.215 2.1-0.386 3.62-0.388 4.2-0.0158 3.47zm-17.8-3.08c0.028-0.0453-0.0396-0.2-0.15-0.344-0.155-0.202-0.202-0.221-0.204-0.0852-0.0051 0.385 0.216 0.653 0.354 0.43zm76.6-4.61c0.337-1.11 0.344-1.67 0.0159-1.28-0.155 0.183-0.283 0.374-0.284 0.424-3e-3 0.106-0.828 0.734-0.933 0.711-0.0392-9e-3 -0.155 0.0286-0.257 0.0832-0.33 0.176-0.202 0.371 0.318 0.483 0.939 0.204 0.954 0.198 1.14-0.418zm-1.37-1.57c0.0456-0.0737 0.241-0.0907 0.536-0.0465 0.43 0.0645 0.472 0.0494 0.568-0.202 0.0908-0.239 0.303-0.332 0.653-0.288 0.0896 0.0114 0.435-1.37 0.361-1.45-0.0316-0.0316-0.0575-0.0114-0.0575 0.045 0 0.0563-0.107 0.104-0.238 0.105-0.302 4e-3 -1.21 0.419-1.32 0.604-0.119 0.198-0.41 0.286-0.534 0.162-0.101-0.101-0.345 0.62-0.345 1.02 0 0.189 0.269 0.223 0.377 0.0489zm1.34-3.11c0.0687-0.381 0.98-0.444 1.08-0.0747 0.0328 0.124 0.0504 0.106 0.059-0.0584 7e-3 -0.129 0.0834-0.392 0.17-0.583 0.172-0.378 0.838-3.02 0.956-3.79 0.0402-0.262 0.164-0.81 0.275-1.22 0.261-0.958 0.256-1.01-0.09-1.02-0.641-0.0164-0.72-0.135-0.301-0.455 0.211-0.161 0.477-0.3 0.591-0.308 0.3-0.0226 1.06-2.64 1.06-3.64 0-0.189 0.0477-0.373 0.106-0.409 0.297-0.183-0.537-1.32-0.978-1.33-0.0742-0.0021-0.23-0.205-0.347-0.45-0.308-0.649-0.511-0.586-0.615 0.189-0.0468 0.35-0.154 0.851-0.239 1.11-0.0844 0.262-0.294 1.19-0.465 2.07-0.171 0.874-0.409 1.97-0.528 2.44-0.272 1.06-0.277 1.01 0.0856 1.01 0.216 0 0.322-0.0618 0.361-0.212 0.0351-0.134 0.145-0.212 0.299-0.212 0.189 0 0.215 0.0283 0.116 0.127-0.07 0.07-0.127 0.236-0.127 0.369 0 0.169-0.0791 0.262-0.261 0.307-0.144 0.0361-0.29 0.156-0.325 0.267-0.0385 0.121-0.161 0.201-0.309 0.201-0.273 0-0.396 0.238-0.576 1.11-0.0599 0.291-0.211 0.993-0.335 1.56-0.245 1.11-0.217 1.3 0.185 1.22 0.362-0.0692 0.406 0.136 0.146 0.676-0.219 0.453-0.321 1.62-0.124 1.42 0.0526-0.0554 0.113-0.194 0.133-0.308zm-20.3 73.8c-0.434-0.6-1.57-2.16-2.52-3.48-1.36-1.87-6.23-8.72-7.34-10.3-0.696-1 0.518 0.243 2.41 2.47 0.233 0.274 1.31 1.52 2.39 2.77 1.08 1.25 2.69 3.1 3.56 4.12s2.04 2.36 2.57 2.97c1.3 1.49 1.26 1.4 0.723 1.83-1.04 0.837-0.909 0.864-1.8-0.37zm-98.3-4.97c-0.165-0.294-0.273-0.606-0.24-0.693 0.0962-0.251 15-7.52 15.2-7.44 0.09 0.03-0.345 0.293-5.12 3.1-2.53 1.49-3.62 2.14-7.33 4.33-2.42 1.44-2.19 1.37-2.57 0.698zm5.76-60.4c-1.2-1.14-3.19-3.01-4.44-4.15-1.25-1.14-2.22-2.09-2.16-2.11 0.0588-0.0196 1.91 0.351 4.12 0.823 3.53 0.754 9.15 1.9 9.31 1.9 0.337 0-0.219 0.289-1.53 0.793-1.78 0.684-1.62 0.674-3.69 0.245-1.42-0.295-1.42-0.267-0.138 1.02 1.21 1.21 1.15 1.01 0.89 3.05-0.0832 0.656 0.113 0.787-2.37-1.59zm9.06-10.8c-0.486-0.277-12.8-9.04-15.4-10.9-0.466-0.344-0.862-0.662-0.878-0.706-0.0378-0.0996 1.22-1.81 1.33-1.81 0.167 0 15.2 13.4 15.2 13.5 0 0.0607-0.0252 0.0527-0.265-0.084zm74.2-10.4c0.254-0.412 9.64-11.1 12.7-14.4 2.89-3.17 2.51-2.94 3.38-2.06 0.407 0.404 0.74 0.767 0.74 0.807 0 0.0398-1.59 1.54-3.52 3.33-3.97 3.67-9.71 9.06-11.8 11.1-1.26 1.22-1.65 1.55-1.46 1.25z" fill="#120818"/></svg>
