<svg width="210mm" height="297mm" version="1.1" viewBox="0 0 210 297" xmlns="http://www.w3.org/2000/svg"><path d="m138 183c-0.171-0.184-0.777-1.01-3.45-4.69-0.735-1.01-2.38-3.27-3.65-5.02-1.27-1.75-2.83-3.9-3.47-4.78-0.64-0.882-1.37-1.88-1.62-2.22-0.25-0.338-1.34-1.82-2.41-3.3-2.44-3.33-4.72-6.4-4.81-6.46-0.0369-0.0228-0.359 0.266-0.717 0.642l-0.65 0.683-0.449 0.854c-0.577 1.1-0.778 1.41-0.879 1.38-0.0449-0.0149-0.278-0.524-0.517-1.13-0.24-0.607-0.458-1.1-0.486-1.1-0.0273 0-0.634 0.883-1.35 1.96-5.21 7.88-5.29 8-7.34 11.2-0.752 1.16-1.56 2.42-1.8 2.78-0.487 0.752-0.601 0.825-0.536 0.341 0.158-1.17 0.756-4.63 1.88-10.9 0.927-5.16 1.11-6.42 0.946-6.42-0.245 0-8.54 5.99-14 10.1-4.18 3.15-8.53 6.51-12.5 9.64-2.17 1.71-2.25 1.78-2.36 1.74-0.0663-0.0221 0.821-1.52 3.32-5.62 1.14-1.87 2.14-3.52 3.64-6.01 0.611-1.01 1.5-2.49 1.98-3.28 0.476-0.788 1.38-2.29 2.01-3.34s2.2-3.63 3.48-5.73c3.57-5.85 3.6-5.9 3.56-6.01-0.0494-0.129-0.92-0.14-1.38-0.0172l-0.313 0.0837-0.21-0.121c-0.319-0.183-1.32-0.24-8.72-0.494-3.29-0.113-3.34-0.117-3.34-0.233 0-0.0386 1.5-0.819 3.33-1.73 4.11-2.06 6.5-3.29 6.65-3.44 0.081-0.0816 0.196-0.614 0.398-1.85 0.38-2.32 0.166-2.04 2.15-2.84 0.673-0.275 1.25-0.528 1.29-0.562 0.067-0.067-0.713-0.635-3.43-2.5-0.92-0.631-2.98-2.04-4.57-3.14s-3.79-2.6-4.88-3.35c-1.09-0.749-2.79-1.91-3.77-2.58-0.985-0.669-1.79-1.24-1.79-1.28 0-0.158 0.663-0.0157 7.75 1.66 8.29 1.96 10.1 2.38 11.8 2.75 2.53 0.56 5.48 1.04 5.48 0.897 0-0.164-3.51-5.88-9.8-15.9-4.98-7.98-5.23-8.39-5.03-8.39 0.173 0 3.41 2.78 13.7 11.7 4.91 4.28 6.72 5.82 7.15 6.06 0.0975 0.0574 1.56-1.19 1.61-1.38 0.136-0.465 0.615-4.26 1.06-8.44 0.19-1.76 0.436-4.04 0.546-5.05s0.264-2.47 0.341-3.24c0.208-2.09 0.136-2.1 1.14 0.273 0.431 1.02 1.13 2.62 1.94 4.47 0.215 0.488 1.11 2.53 1.99 4.54 1.95 4.43 1.98 4.5 2.07 4.5 0.146 5e-3 0.756-0.716 2.48-2.93 0.577-0.741 0.54-0.768 1.24 0.917 0.99 2.4 0.889 2.26 1.3 1.79 1.11-1.27 4.75-5.75 9.43-11.6 0.286-0.357 0.6-0.723 0.697-0.814l0.178-0.165v0.169c0 0.0931-0.185 0.92-0.412 1.84-1.29 5.22-2.93 12.5-2.93 13-2.7e-4 0.201 0.0762 0.195 0.794-0.0581l0.6-0.212 0.116 0.143c0.0639 0.0789 0.146 0.143 0.183 0.143 0.172 0 7.33-3.9 11.9-6.49 1.98-1.12 5.52-3.09 6.33-3.52 1.06-0.564 1.11-0.642-1.69 2.37-1.63 1.75-2.89 3.14-5.36 5.93-1.9 2.14-2.28 2.58-2.28 2.66 0 0.0423 0.333 0.0687 0.87 0.069 3.41 2e-3 5.81 1.52 6.65 4.2 0.118 0.375 0.219 0.69 0.226 0.7 6e-3 0.01 0.967 0.125 2.13 0.257 3.47 0.392 4.33 0.53 4.17 0.671-0.0163 0.0146-0.567 0.364-1.22 0.775-1.02 0.64-2.19 1.39-5.09 3.26l-0.547 0.353-0.118 0.374c-0.806 2.56-2.62 4.42-6.29 6.44-0.738 0.407-1.36 0.764-1.38 0.793-0.018 0.0291 0.21 0.34 0.507 0.691 1.95 2.3 2.81 3.32 4.81 5.72 1.24 1.48 2.42 2.9 2.64 3.14 0.212 0.244 1.26 1.49 2.32 2.76s2.51 3 3.2 3.82c3.43 4.08 3.25 3.85 2.91 3.76-0.179-0.0451-1.77-0.792-4.82-2.26-5.84-2.81-16.9-7.88-17.2-7.88-0.0278 0-0.0231 2.62 0.0103 5.82 0.081 7.75 0.0803 8.19-0.0127 8.22-0.0421 0.0141-1.01-1.37-2.14-3.07-2.05-3.07-2.32-3.45-2.32-3.27 0 0.17 0.868 3.63 1.35 5.4 0.507 1.84 0.585 2.11 2.56 8.67 0.695 2.31 1.41 4.67 1.58 5.26 0.175 0.582 0.512 1.69 0.75 2.46 0.971 3.14 1.26 4.16 1.17 4.16-0.0219 0-0.118-0.0845-0.215-0.188zm4.24-1.37c-0.0193-0.0313-0.417-0.914-0.884-1.96-0.467-1.05-1.21-2.7-1.65-3.68-0.439-0.976-0.977-2.19-1.2-2.7-0.22-0.507-0.604-1.38-0.853-1.95-1.48-3.34-1.53-3.48-1.27-3.21 0.0715 0.074 1.32 1.92 2.78 4.09 1.46 2.18 3.15 4.71 3.77 5.63s1.14 1.72 1.15 1.78c0.0281 0.106-1.64 2.04-1.76 2.04-0.0327 0-0.0752-0.0256-0.0946-0.0568zm0.214-7.67c-2.26-3.02-4.67-6.38-4.61-6.44 0.0839-0.0839 5.89 5.91 5.91 6.1 0.0229 0.228-0.331 1.33-0.438 1.36-0.043 0.0136-0.431-0.445-0.861-1.02zm-57.6-12.6c-0.0721-0.0962-0.501-1.03-0.501-1.09 0-0.0369 3.83-3.6 4.56-4.25 0.66-0.581 0.566-0.36-0.36 0.847-0.36 0.469-1.05 1.38-1.54 2.01-1.94 2.55-2.03 2.65-2.16 2.48zm-4.18-0.787c0.0011-0.141 0.0445-0.713 0.0964-1.27l0.0943-1.02 0.125-0.121c0.298-0.287 9.55-5.65 9.62-5.57 0.0449 0.0449-0.444 0.461-3.12 2.65-1.3 1.06-3.33 2.75-4.52 3.76-2.33 1.97-2.31 1.95-2.3 1.57zm69.4-14.3c-1.05-0.797-2.39-1.82-2.96-2.27s-1.25-0.976-1.5-1.17c-0.476-0.367-0.681-0.574-0.572-0.574 0.0505 0 6.3 3.55 7.51 4.27 0.286 0.169 0.278 0.256-0.0732 0.75-0.396 0.557-0.264 0.612-2.41-1.01zm-1.91-4.44c-3.87-1.68-4.47-1.97-4.23-2.01 0.122-0.0195 2.37 0.529 6.09 1.49 0.72 0.186 1.33 0.338 1.35 0.338 0.135 0-0.0155 0.312-0.339 0.703-0.475 0.576-0.231 0.62-2.87-0.524zm-54.8-16.2c-0.526-0.18-1.35-0.472-1.84-0.649-0.488-0.177-1.27-0.46-1.74-0.629s-0.892-0.345-0.94-0.391l-0.087-0.0843 0.087-0.439c0.12-0.606 0.0481-0.625 2.35 0.624 4.04 2.19 4.07 2.22 2.17 1.57zm1.43-1.01c-3.33-1.86-7.13-4.07-7.13-4.16 0-0.0876 0.632-0.88 1.09-1.36 0.183-0.195 0.197-0.187 1.06 0.579 0.375 0.333 1.67 1.48 2.87 2.54 3.2 2.84 3.17 2.81 3.17 2.88 0 0.112-0.0899 0.0726-1.06-0.468zm42.2-9.07c0.198-0.558 3.42-7.06 3.49-7.06 0.0799 0 0.822 0.408 0.863 0.474 0.0573 0.0927-4.04 6.41-4.3 6.62l-0.107 0.089zm-1.41-0.387c0-0.0481 0.32-2.65 0.71-5.78 0.391-3.13 0.765-6.18 0.832-6.78 0.0833-0.743 0.155-1.12 0.228-1.21 0.144-0.164 3-1.13 3.08-1.04 0.0417 0.0417-0.395 1.46-1.2 3.92-1.03 3.13-2.6 8-3.4 10.5-0.131 0.417-0.254 0.598-0.254 0.373z" fill="#01b2f1"/><path d="m138 183c-0.171-0.184-0.777-1.01-3.45-4.69-0.735-1.01-2.38-3.27-3.65-5.02-1.27-1.75-2.83-3.9-3.47-4.78-0.64-0.882-1.37-1.88-1.62-2.22-0.25-0.338-1.34-1.82-2.41-3.3-2.44-3.33-4.72-6.4-4.81-6.46-0.0369-0.0228-0.359 0.266-0.717 0.642l-0.65 0.683-0.449 0.854c-0.577 1.1-0.778 1.41-0.879 1.38-0.0449-0.0149-0.278-0.524-0.517-1.13-0.24-0.607-0.458-1.1-0.486-1.1-0.0273 0-0.634 0.883-1.35 1.96-5.21 7.88-5.29 8-7.34 11.2-0.752 1.16-1.56 2.42-1.8 2.78-0.487 0.752-0.601 0.825-0.536 0.341 0.158-1.17 0.756-4.63 1.88-10.9 0.927-5.16 1.11-6.42 0.946-6.42-0.245 0-8.54 5.99-14 10.1-4.18 3.15-8.53 6.51-12.5 9.64-2.17 1.71-2.25 1.78-2.36 1.74-0.0663-0.0221 0.821-1.52 3.32-5.62 1.14-1.87 2.14-3.52 3.64-6.01 0.611-1.01 1.5-2.49 1.98-3.28 0.476-0.788 1.38-2.29 2.01-3.34s2.2-3.63 3.48-5.73c3.57-5.85 3.6-5.9 3.56-6.01-0.0494-0.129-0.92-0.14-1.38-0.0172l-0.313 0.0837-0.21-0.121c-0.319-0.183-1.32-0.24-8.72-0.494-3.29-0.113-3.34-0.117-3.34-0.233 0-0.0386 1.5-0.819 3.33-1.73 4.11-2.06 6.5-3.29 6.65-3.44 0.081-0.0816 0.196-0.614 0.398-1.85 0.38-2.32 0.166-2.04 2.15-2.84 0.673-0.275 1.25-0.528 1.29-0.562 0.067-0.067-0.713-0.635-3.43-2.5-0.92-0.631-2.98-2.04-4.57-3.14s-3.79-2.6-4.88-3.35c-1.09-0.749-2.79-1.91-3.77-2.58-0.985-0.669-1.79-1.24-1.79-1.28 0-0.158 0.663-0.0157 7.75 1.66 8.29 1.96 10.1 2.38 11.8 2.75 2.53 0.56 5.48 1.04 5.48 0.897 0-0.164-3.51-5.88-9.8-15.9-4.98-7.98-5.23-8.39-5.03-8.39 0.173 0 3.41 2.78 13.7 11.7 4.91 4.28 6.72 5.82 7.15 6.06 0.0975 0.0574 1.56-1.19 1.61-1.38 0.136-0.465 0.615-4.26 1.06-8.44 0.19-1.76 0.436-4.04 0.546-5.05s0.264-2.47 0.341-3.24c0.208-2.09 0.136-2.1 1.14 0.273 0.431 1.02 1.13 2.62 1.94 4.47 0.215 0.488 1.11 2.53 1.99 4.54 1.95 4.43 1.98 4.5 2.07 4.5 0.146 5e-3 0.756-0.716 2.48-2.93 0.577-0.741 0.54-0.768 1.24 0.917 0.99 2.4 0.889 2.26 1.3 1.79 1.11-1.27 4.75-5.75 9.43-11.6 0.286-0.357 0.6-0.723 0.697-0.814l0.178-0.165v0.169c0 0.0931-0.185 0.92-0.412 1.84-1.29 5.22-2.93 12.5-2.93 13-2.7e-4 0.201 0.0762 0.195 0.794-0.0581l0.6-0.212 0.116 0.143c0.0639 0.0789 0.146 0.143 0.183 0.143 0.172 0 7.33-3.9 11.9-6.49 1.98-1.12 5.52-3.09 6.33-3.52 1.06-0.564 1.11-0.642-1.69 2.37-1.63 1.75-2.89 3.14-5.36 5.93-1.9 2.14-2.28 2.58-2.28 2.66 0 0.0423 0.333 0.0687 0.87 0.069 3.41 2e-3 5.81 1.52 6.65 4.2 0.118 0.375 0.219 0.69 0.226 0.7 6e-3 0.01 0.967 0.125 2.13 0.257 3.47 0.392 4.33 0.53 4.17 0.671-0.0163 0.0146-0.567 0.364-1.22 0.775-1.02 0.64-2.19 1.39-5.09 3.26l-0.547 0.353-0.118 0.374c-0.806 2.56-2.62 4.42-6.29 6.44-0.738 0.407-1.36 0.764-1.38 0.793-0.018 0.0291 0.21 0.34 0.507 0.691 1.95 2.3 2.81 3.32 4.81 5.72 1.24 1.48 2.42 2.9 2.64 3.14 0.212 0.244 1.26 1.49 2.32 2.76s2.51 3 3.2 3.82c3.43 4.08 3.25 3.85 2.91 3.76-0.179-0.0451-1.77-0.792-4.82-2.26-5.84-2.81-16.9-7.88-17.2-7.88-0.0278 0-0.0231 2.62 0.0103 5.82 0.081 7.75 0.0803 8.19-0.0127 8.22-0.0421 0.0141-1.01-1.37-2.14-3.07-2.05-3.07-2.32-3.45-2.32-3.27 0 0.17 0.868 3.63 1.35 5.4 0.507 1.84 0.585 2.11 2.56 8.67 0.695 2.31 1.41 4.67 1.58 5.26 0.175 0.582 0.512 1.69 0.75 2.46 0.971 3.14 1.26 4.16 1.17 4.16-0.0219 0-0.118-0.0845-0.215-0.188zm-29.2-19.2c5.93-9.75 7.33-11.8 7.56-11.1 0.0323 0.103 0.173 2.23 0.176 2.66 2e-3 0.306 0.217 0.119 2.29-2 1.16-1.19 2.17-2.19 2.24-2.23l0.133-0.0719 0.187 0.224c0.322 0.386 4.35 6.43 5.62 8.43 0.667 1.05 1.39 2.19 1.61 2.53 1.39 2.17 1.26 2.03 1.05 1.11-0.0858-0.385-0.252-1.11-0.369-1.62-0.607-2.62-1.25-5.72-2.36-11.4-0.328-1.67-0.614-3.06-0.636-3.08-0.0217-0.0246-0.356 0.0809-0.743 0.234l-0.703 0.279-0.885-0.883c-0.63-0.629-0.917-0.966-0.996-1.17-0.14-0.366 0.0773-0.427-2.05 0.569-1.01 0.473-2.03 0.95-2.28 1.06l-0.444 0.201-0.224 0.765c-0.123 0.421-0.313 1.08-0.422 1.47-0.256 0.909-0.0824 0.766-2.26 1.85-2.26 1.13-3.35 1.72-4.54 2.44l-0.886 0.539-0.0513 0.202c-0.0282 0.111-0.224 1.12-0.434 2.25s-0.551 2.86-0.756 3.86c-0.205 0.995-0.481 2.35-0.612 3-0.131 0.657-0.256 1.26-0.277 1.35-0.0765 0.309 0.0532 0.122 1.04-1.5zm40.4-11.2c-0.312-0.366-0.862-1-1.22-1.42-1.06-1.22-4.33-5.03-5.18-6.04-1.3-1.54-2.61-3.07-2.97-3.48-0.188-0.209-0.43-0.495-0.537-0.636-0.257-0.337-0.197-0.357-3.36 1.11l-0.283 0.131-0.0415 0.26c-0.0806 0.505-0.175 2.44-0.12 2.46 0.0307 0.0103 0.345 0.182 0.699 0.382 0.354 0.2 1.27 0.71 2.04 1.13 3.14 1.73 6.34 3.6 9.83 5.76 0.882 0.544 1.63 0.992 1.66 0.995 0.0314 4e-3 -0.198-0.293-0.511-0.659zm-52-2.22c1.06-1.93 1.99-3.81 1.88-3.81-0.107 0-1.49 0.674-1.49 0.726 0 0.038-0.57 2.97-0.652 3.35-0.0538 0.252 0.0178 0.178 0.266-0.273zm4-15.4c0.724-0.282 2.2-0.862 3.27-1.29 6.47-2.57 7.7-3.05 8.46-3.32l0.564-0.196 0.203 0.0708c0.183 0.0638 0.684 0.631 1.39 1.58 0.229 0.305 0.293 0.317 0.387 0.0683 0.104-0.274 0.723-1.75 0.967-2.3 0.116-0.263 0.274-0.543 0.352-0.622 0.124-0.126 3.6-1.84 4.29-2.12l0.261-0.105 0.258 0.0774c0.19 0.057 0.319 0.166 0.49 0.413 0.127 0.185 0.605 0.81 1.06 1.39 0.823 1.04 1.91 2.61 2.89 4.18l0.508 0.812 0.0439-0.166c0.0242-0.0912 0.0643-0.596 0.0892-1.12 0.148-3.13 0.263-4.72 0.356-4.93l0.0989-0.225 1.62-0.789c4.2-2.04 6.55-3.02 8.78-3.65l0.809-0.227 1.14-1.3c0.625-0.715 1.3-1.5 1.51-1.74 0.204-0.244 0.519-0.604 0.7-0.799 0.382-0.412 0.393-0.562 0.0213-0.292-0.0375 0.0274-0.898 0.487-1.91 1.02-1.93 1.02-4.04 2.15-7.37 3.96-1.09 0.591-2.05 1.1-2.13 1.12l-0.154 0.0468v-0.171c0-0.0941 0.0768-0.384 0.171-0.644 0.228-0.632 0.224-0.649-0.119-0.494-2.01 0.911-2.44 1.06-2.44 0.844 0-0.161 2.17-8.73 2.59-10.2 0.207-0.737 0.175-0.775-0.221-0.263-0.197 0.254-0.492 0.635-0.656 0.846-0.164 0.211-0.457 0.584-0.652 0.828-0.195 0.244-0.632 0.797-0.971 1.23-4.75 6.06-4.83 6.15-5.02 5.95-0.0989-0.103-1.06-2.33-1.18-2.73-0.0663-0.222-0.0961-0.207-0.755 0.375-0.533 0.472-1.03 0.906-2.31 2.02-0.528 0.459-0.331 0.685-2.42-2.77-2.3-3.81-2.71-4.45-2.78-4.45-0.0335 2e-3 -0.0976 0.217-0.142 0.478-0.0448 0.261-0.346 2.06-0.67 3.99-0.503 3.01-1.13 6.36-1.32 7.06-0.15 0.555-0.82 0.228-8.03-3.92-0.375-0.216-0.937-0.539-1.25-0.717-0.311-0.179-0.583-0.308-0.603-0.288-0.0203 0.0203 0.608 1.25 1.4 2.72 2.36 4.43 3.23 6.14 3.83 7.59 0.122 0.295 0.0618 0.319-0.796 0.319-1.5-3.8e-4 -3.65-0.271-7.83-0.984-1.2-0.205-2.82-0.481-3.6-0.614s-1.49-0.26-1.59-0.284c-0.277-0.0696-0.2 0.0694 0.186 0.336 0.197 0.136 0.881 0.634 1.52 1.11 0.638 0.472 1.79 1.32 2.56 1.87 0.77 0.558 1.69 1.23 2.05 1.49 0.785 0.582 0.534 0.585 2.11-0.0269zm41 46.7c-0.0193-0.0313-0.417-0.914-0.884-1.96-0.467-1.05-1.21-2.7-1.65-3.68-0.439-0.976-0.977-2.19-1.2-2.7-0.22-0.507-0.604-1.38-0.853-1.95-1.48-3.34-1.53-3.48-1.27-3.21 0.0715 0.074 1.32 1.92 2.78 4.09 1.46 2.18 3.15 4.71 3.77 5.63s1.14 1.72 1.15 1.78c0.0281 0.106-1.64 2.04-1.76 2.04-0.0327 0-0.0752-0.0256-0.0946-0.0568zm0.214-7.67c-2.26-3.02-4.67-6.38-4.61-6.44 0.0839-0.0839 5.89 5.91 5.91 6.1 0.0229 0.228-0.331 1.33-0.438 1.36-0.043 0.0136-0.431-0.445-0.861-1.02zm-57.6-12.6c-0.0721-0.0962-0.501-1.03-0.501-1.09 0-0.0369 3.83-3.6 4.56-4.25 0.66-0.581 0.566-0.36-0.36 0.847-0.36 0.469-1.05 1.38-1.54 2.01-1.94 2.55-2.03 2.65-2.16 2.48zm-4.18-0.787c0.0011-0.141 0.0445-0.713 0.0964-1.27l0.0943-1.02 0.125-0.121c0.298-0.287 9.55-5.65 9.62-5.57 0.0449 0.0449-0.444 0.461-3.12 2.65-1.3 1.06-3.33 2.75-4.52 3.76-2.33 1.97-2.31 1.95-2.3 1.57zm69.4-14.3c-1.05-0.797-2.39-1.82-2.96-2.27s-1.25-0.976-1.5-1.17c-0.476-0.367-0.681-0.574-0.572-0.574 0.0505 0 6.3 3.55 7.51 4.27 0.286 0.169 0.278 0.256-0.0732 0.75-0.396 0.557-0.264 0.612-2.41-1.01zm-1.91-4.44c-3.87-1.68-4.47-1.97-4.23-2.01 0.122-0.0195 2.37 0.529 6.09 1.49 0.72 0.186 1.33 0.338 1.35 0.338 0.135 0-0.0155 0.312-0.339 0.703-0.475 0.576-0.231 0.62-2.87-0.524zm-54.8-16.2c-0.526-0.18-1.35-0.472-1.84-0.649-0.488-0.177-1.27-0.46-1.74-0.629s-0.892-0.345-0.94-0.391l-0.087-0.0843 0.087-0.439c0.12-0.606 0.0481-0.625 2.35 0.624 4.04 2.19 4.07 2.22 2.17 1.57zm1.43-1.01c-3.33-1.86-7.13-4.07-7.13-4.16 0-0.0876 0.632-0.88 1.09-1.36 0.183-0.195 0.197-0.187 1.06 0.579 0.375 0.333 1.67 1.48 2.87 2.54 3.2 2.84 3.17 2.81 3.17 2.88 0 0.112-0.0899 0.0726-1.06-0.468zm42.2-9.07c0.198-0.558 3.42-7.06 3.49-7.06 0.0799 0 0.822 0.408 0.863 0.474 0.0573 0.0927-4.04 6.41-4.3 6.62l-0.107 0.089zm-1.41-0.387c0-0.0481 0.32-2.65 0.71-5.78 0.391-3.13 0.765-6.18 0.832-6.78 0.0833-0.743 0.155-1.12 0.228-1.21 0.144-0.164 3-1.13 3.08-1.04 0.0417 0.0417-0.395 1.46-1.2 3.92-1.03 3.13-2.6 8-3.4 10.5-0.131 0.417-0.254 0.598-0.254 0.373z" fill="#f51011"/><path d="m138 182c-0.271-0.336-1.17-1.57-5.82-7.97-9.65-13.3-13.3-18.2-13.4-18.2-0.05 0-0.396 0.333-0.77 0.74l-0.679 0.74-0.416 0.813c-0.494 0.964-0.669 1.26-0.752 1.26-0.0338 0-0.255-0.491-0.491-1.09-0.506-1.29-0.513-1.29-0.99-0.562-0.19 0.29-1.65 2.49-3.24 4.9-2.52 3.81-4.19 6.36-6.59 10.1-0.36 0.559-0.621 0.904-0.634 0.837-0.0461-0.238 0.303-2.29 1.86-11 0.916-5.1 1.11-6.47 0.906-6.47-0.121 3e-3 -3.99 2.7-6.3 4.4-0.263 0.193-1.52 1.12-2.8 2.05-4.16 3.04-6.9 5.12-12.9 9.79-1.14 0.881-3.38 2.63-5.66 4.43-0.579 0.456-1.07 0.816-1.08 0.8-0.0332-0.0332 0.316-0.622 2.12-3.59 1.72-2.82 3.41-5.61 7.52-12.4 1.96-3.25 4.36-7.21 5.34-8.81 2.59-4.23 2.72-4.45 2.89-4.77l0.151-0.295-0.0914-0.058c-0.131-0.083-1.1-0.0735-1.45 0.0141l-0.294 0.0741-0.53-0.267-1.71-0.0788c-2.1-0.097-6.24-0.257-8.28-0.321-0.836-0.0261-1.54-0.0729-1.56-0.104-0.0193-0.0312 1.14-0.645 2.58-1.36 2.97-1.49 6.72-3.41 7.08-3.64l0.247-0.156 0.625-3.72 0.161-0.159c0.0888-0.0877 0.653-0.358 1.25-0.601 1.61-0.65 1.74-0.712 1.74-0.817 0-0.116-1.97-1.5-7.92-5.56-0.469-0.321-2.22-1.52-3.89-2.67-2.38-1.64-6.02-4.13-6.51-4.45-0.348-0.23 0.791 0.0175 8.7 1.89 11.5 2.73 12.1 2.85 14.9 3.28 1.22 0.185 1.32 0.172 1.17-0.154-0.103-0.226-1.56-2.67-2.4-4.01-0.327-0.526-1.44-2.32-2.47-3.99-1.03-1.67-3.34-5.39-5.14-8.26-3.69-5.9-4.76-7.65-4.71-7.7 0.0861-0.0861 3.48 2.8 10.7 9.06 5.79 5.06 8.88 7.72 9.58 8.24l0.502 0.379 0.158-0.0968c0.441-0.269 1.52-1.36 1.56-1.58 0.243-1.35 1.27-10.3 1.89-16.5 0.0793-0.788 0.157-1.45 0.173-1.46 0.0761-0.0777 0.15 0.0831 1.46 3.17 0.159 0.375 0.904 2.08 1.65 3.79 2.28 5.18 2.56 5.83 2.66 6.07 0.382 0.923 1.04 2.25 1.11 2.25 0.121 0 0.789-0.776 1.89-2.2 0.505-0.65 0.966-1.22 1.02-1.27l0.107-0.0886 0.0648 0.124c0.0356 0.0681 0.225 0.523 0.421 1.01 0.55 1.37 0.964 2.31 1.06 2.42l0.0914 0.0965 0.112-0.093c0.334-0.277 4.11-4.88 8.63-10.5 0.92-1.15 1.7-2.09 1.72-2.09 0.101-4e-3 0.045 0.283-0.423 2.19-1.66 6.78-2.95 12.6-2.81 12.8 0.0422 0.0422 0.281-0.0113 0.668-0.149 0.714-0.255 0.791-0.261 0.92-0.0674l0.0981 0.148 0.815-0.432c3.37-1.79 7.5-4.05 11-6.02 0.863-0.488 1.83-1.03 2.15-1.21 0.319-0.177 1.21-0.674 1.98-1.1 2.09-1.17 2.73-1.51 2.78-1.46 0.0218 0.0218-0.344 0.447-0.814 0.946-3.4 3.61-9.06 9.95-9.06 10.1 0 0.0541 0.256 0.0784 0.836 0.0793 2.47 4e-3 4.08 0.586 5.45 1.97l0.583 0.589 0.352 0.717c0.194 0.394 0.398 0.901 0.455 1.13 0.135 0.533 0.146 0.539 1.21 0.641 1.91 0.183 5.18 0.614 5.18 0.683-3.4e-4 0.0234-0.392 0.285-0.87 0.582s-2 1.26-3.38 2.15l-2.51 1.61-0.113 0.307c-1.09 2.98-2.48 4.4-6.44 6.59-0.695 0.385-1.27 0.741-1.28 0.791-9e-3 0.0503 0.646 0.875 1.46 1.83 0.81 0.957 2.39 2.83 3.5 4.16 1.12 1.33 2.74 3.27 3.61 4.3 5.81 6.91 7.93 9.46 7.87 9.47-0.0686 0.023-1.3-0.545-3.96-1.83-7.03-3.39-17.6-8.26-18-8.26-0.19 0-0.195 0.39-0.0903 7.06 0.0575 3.68 0.0838 6.75 0.0585 6.82-0.035 0.097-0.537-0.607-2.12-2.97-2.45-3.66-2.27-3.4-2.38-3.4-0.225-5e-3 1.24 5.62 2.82 10.8 0.314 1.03 1.07 3.54 1.67 5.56 0.607 2.03 1.34 4.47 1.64 5.43 0.884 2.88 1.24 4.1 1.21 4.14-0.0178 0.0178-0.139-0.0998-0.27-0.261zm-28.4-19.6c4.4-7.21 5.4-8.79 6.15-9.6 0.734-0.802 0.703-0.841 0.799 1.03 0.0509 0.996 0.101 1.33 0.199 1.33 0.0447 0 1.09-1.01 2.32-2.25s2.26-2.25 2.29-2.25c0.163 0 7.42 11 8.51 13 0.17 0.298 0.273 0.4 0.337 0.336 0.0202-0.0202-0.0885-0.568-0.241-1.22-0.783-3.33-1.47-6.51-2.09-9.71-0.754-3.88-1.27-6.41-1.33-6.47-0.0278-0.0292-0.359 0.0707-0.736 0.222-0.377 0.151-0.714 0.275-0.75 0.275-0.144 0-1.67-1.65-1.8-1.94-0.213-0.482 0.164-0.598-3.3 1.02-1.83 0.854-1.66 0.69-1.98 1.83-0.139 0.497-0.329 1.16-0.421 1.47l-0.168 0.564-1.86 0.929c-2.11 1.06-3.29 1.69-4.42 2.36-1.13 0.682-1.21 0.746-1.26 1.09-0.113 0.706-0.944 5.01-1.26 6.54-0.191 0.92-0.469 2.26-0.618 2.97-0.149 0.716-0.271 1.33-0.271 1.35 0 0.221 0.39-0.363 1.89-2.83zm-15.1-2.44c0.241-0.256 0.668-0.74 0.95-1.07 0.825-0.982 0.778-0.946 3.11-2.37 0.375-0.229 0.913-0.56 1.19-0.736 0.993-0.62 2.23-1.37 2.68-1.63 0.156-0.0893 0.489-0.297 0.739-0.461 0.25-0.164 0.48-0.298 0.512-0.299 0.0317-1e-4 0.288-0.154 0.57-0.341 0.282-0.188 0.536-0.341 0.564-0.341 0.0289-1e-4 0.181-0.081 0.337-0.18 0.311-0.196 2.46-1.46 3.23-1.89 1.62-0.919 3.42-1.84 5.46-2.78 0.563-0.261 1.16-0.546 1.33-0.633l0.307-0.158 0.182-0.573c0.0999-0.315 0.278-0.889 0.395-1.27l0.213-0.7 1.24-0.619c2.24-1.12 5.16-2.45 5.39-2.45 0.174 0 0.212 0.075 0.787 1.53 0.295 0.746 0.572 1.37 0.614 1.39 0.0421 0.0166 0.441-0.122 0.887-0.308 2.35-0.979 3.17-1.31 3.26-1.31 0.159 0 0.211 0.112 0.685 1.5 0.714 2.09 2.46 6.71 2.55 6.74 0.0539 0.018 0.0917-0.203 0.122-0.711 0.0599-1.02 0.152-2.28 0.276-3.77 0.194-2.35 0.304-3.71 0.452-5.63 0.0808-1.05 0.169-1.95 0.197-2 0.0274-0.0512 0.538-0.322 1.13-0.603 7.45-3.5 10.3-5.76 12.4-9.8 0.799-1.55 0.939-2.16 0.716-3.11-0.322-1.37-1.2-2.13-2.87-2.48l-0.683-0.146-1.13 7e-3c-3.24 0.0187-6.44 1.04-12.7 4.08-0.843 0.406-1.12 0.569-1.14 0.677-0.0767 0.407-0.516 8.73-0.47 8.91 0.0149 0.0591 0.101 0.614 0.19 1.23 0.23 1.59 0.144 1.62-0.595 0.239-1.14-2.13-1.59-2.95-2.68-4.91-2.03-3.66-3.17-5.56-3.31-5.56-0.0572-9.5e-4 -0.61 0.248-1.23 0.553-0.619 0.305-1.35 0.657-1.62 0.782-0.909 0.417-0.772 0.214-1.77 2.62-2.12 5.1-4.37 10.8-5.98 15.2-0.315 0.852-0.445 1.06-0.556 0.879-0.0203-0.0328 0.0254-0.532 0.102-1.11 0.0762-0.577 0.157-1.22 0.18-1.42l0.0416-0.37-0.112 0.0429c-0.0614 0.0236-0.335 0.208-0.608 0.41-0.273 0.202-1.16 0.847-1.96 1.43-0.807 0.586-1.91 1.39-2.46 1.79s-1.07 0.742-1.16 0.765c-0.0948 0.0227-0.304 0.117-0.465 0.21-0.402 0.232-0.411 0.176-0.0644-0.404 0.165-0.276 0.414-0.701 0.552-0.945s0.423-0.72 0.633-1.06c0.21-0.338 0.604-0.983 0.876-1.43 0.272-0.45 1.02-1.69 1.67-2.76s1.61-2.7 2.14-3.62c0.528-0.92 1.08-1.87 1.23-2.11 0.148-0.243 0.661-1.46 1.14-2.7s0.953-2.45 1.05-2.69c0.101-0.239 0.169-0.448 0.151-0.465-0.0582-0.0582-17 6.76-19 7.64l-0.379 0.168-0.326 1.9c-0.539 3.15-0.68 4.05-0.638 4.1 0.0218 0.0218 0.618-0.267 1.32-0.642 1.6-0.848 3.68-1.89 5.38-2.69 2.29-1.08 5.01-2.31 5.12-2.31 0.206 0 0.087 0.244-0.942 1.93-1.43 2.34-1.85 3.09-3.49 6.09-1.46 2.67-6.45 12.9-6.45 13.2 0 0.13 0.142 0.024 0.552-0.411zm23-19.8c-0.061-0.159 2.03-6.41 2.27-6.79 0.126-0.198 0.267 8e-3 0.645 0.937 0.739 1.82 1.42 3.64 1.4 3.75-0.0195 0.106-4 2.18-4.19 2.19-0.0429 2e-3 -0.0954-0.042-0.117-0.0976zm16.2-5.83c-0.145-0.235 0.557-4.68 0.764-4.84 0.839-0.648 3.46-1.53 4.59-1.54l0.648-7e-3 0.293 0.155c0.996 0.528 0.572 1.94-0.976 3.24-1.48 1.25-5.13 3.3-5.32 2.99zm16.7 18.6c0-0.0321-0.178-0.255-0.397-0.495-0.218-0.24-1.27-1.45-2.34-2.69-1.78-2.07-2.77-3.22-5.91-6.89-0.609-0.713-1.39-1.63-1.73-2.03-0.717-0.84-0.654-0.818-1.35-0.47-0.29 0.145-1.05 0.488-1.68 0.763s-1.16 0.532-1.18 0.573c-0.0454 0.118-0.211 2.66-0.179 2.75 0.0158 0.0455 0.249 0.202 0.517 0.348 1.83 0.994 4.24 2.34 6.29 3.53 2.24 1.29 3.23 1.89 6.48 3.88 1.23 0.753 1.47 0.873 1.47 0.737zm-53.2-2.2c0.047-0.0908 0.623-1.2 1.28-2.47 1.47-2.84 1.45-2.65 0.219-2.06-0.987 0.475-0.852 0.218-1.3 2.49-0.212 1.07-0.406 2.02-0.429 2.11-0.0563 0.214 0.114 0.166 0.234-0.0658zm4.96-16.5c1.09-0.429 3.42-1.35 5.19-2.05 5.43-2.16 6.37-2.5 6.59-2.46 0.148 0.0325 0.35 0.244 0.83 0.867 0.349 0.453 0.686 0.889 0.75 0.968l0.115 0.144 0.097-0.102c0.0533-0.0563 0.177-0.302 0.274-0.546 0.23-0.577 0.734-1.77 0.955-2.27l0.174-0.389 1.01-0.491c3.67-1.78 3.65-1.77 3.97-1.44 0.788 0.828 2.69 3.47 4.01 5.57 0.379 0.603 0.734 1.11 0.79 1.12l0.102 0.0198 0.0834-1.49c0.199-3.54 0.288-4.77 0.358-4.91 0.0968-0.19 3.69-1.95 5.99-2.94 1.73-0.743 3.43-1.35 4.93-1.76l0.38-0.104 0.234-0.292c0.129-0.161 0.48-0.571 0.781-0.911 0.301-0.341 0.808-0.921 1.13-1.29 0.319-0.369 0.834-0.962 1.14-1.32 0.555-0.637 0.638-0.766 0.486-0.766-0.13 0-4.35 2.24-9.35 4.96-1.34 0.727-2.47 1.32-2.51 1.32-0.11 0-0.104-0.0371 0.121-0.703 0.261-0.771 0.287-0.769-1.23-0.113-0.713 0.309-1.31 0.543-1.34 0.519-0.0532-0.0532 0.788-3.41 2.57-10.2 0.126-0.484 0.187-0.839 0.15-0.876-0.0513-0.0513-0.783 0.807-1.48 1.73-0.279 0.372-4.09 5.19-5.06 6.41-0.557 0.694-1.06 1.27-1.12 1.28-0.0977 0.0187-0.643-1.16-1.16-2.53-0.193-0.505-0.21-0.501-1 0.195-1.83 1.61-2.61 2.28-2.66 2.28-0.0581 0-0.337-0.447-2.24-3.58-2.54-4.19-2.54-4.18-2.64-4.08-0.0251 0.0266-0.357 1.91-0.738 4.18-0.615 3.67-1.02 5.88-1.34 7.32-0.0687 0.306-0.136 0.461-0.201 0.461-0.228 0-2.55-1.25-5.96-3.19-3.67-2.1-3.89-2.21-3.89-2.07 0 0.0441 0.733 1.45 1.63 3.13 2.8 5.24 3.86 7.42 3.68 7.53-0.176 0.112-2.42-0.0544-4.39-0.326-1.12-0.155-7.02-1.13-8.81-1.46-0.889-0.163-0.938-0.165-0.909-0.0411 0.0224 0.0967 1.67 1.34 4.53 3.4 0.863 0.625 1.86 1.35 2.22 1.62 0.791 0.585 0.425 0.624 2.76-0.296zm40.1 46.2c-0.153-0.347-0.666-1.49-1.14-2.54-0.775-1.72-2.24-5.02-3.21-7.24-0.197-0.45-0.502-1.14-0.679-1.54-0.177-0.394-0.351-0.794-0.388-0.887l-0.0663-0.171 0.132 0.137c0.0728 0.0751 1.39 2.01 2.92 4.3 1.53 2.29 3.16 4.73 3.63 5.42 0.541 0.806 0.822 1.28 0.79 1.34-0.0947 0.169-1.59 1.81-1.65 1.81-0.0325 0-0.184-0.284-0.336-0.631zm0.618-6.86c-0.332-0.441-0.85-1.14-1.15-1.55-1.5-2.07-2.26-3.12-2.59-3.55-0.194-0.263-0.412-0.57-0.483-0.682l-0.13-0.205 0.186 0.145c0.379 0.295 5.24 5.32 5.24 5.41 0 0.191-0.346 1.23-0.41 1.23-0.0352 0-0.336-0.361-0.668-0.802zm-57.7-12.7c-0.103-0.131-0.429-0.876-0.429-0.979 0-0.0496 0.868-0.896 1.93-1.88 1.06-0.985 2.06-1.91 2.22-2.06 0.364-0.346 0.431-0.296 0.13 0.0983-0.127 0.166-0.839 1.1-1.58 2.08-1.08 1.41-2.05 2.67-2.18 2.82-9e-3 0.0103-0.047-0.0204-0.0844-0.0683zm-4.18-0.663c0-0.293 0.226-2.37 0.261-2.4 0.0466-0.0468 1.5-0.908 3.29-1.95 0.544-0.317 1.27-0.74 1.6-0.939 1.7-1.01 4.21-2.43 4.24-2.41 0.0244 0.0244-0.696 0.63-2.5 2.1-1.46 1.19-2.79 2.3-4.66 3.88-2 1.69-2.23 1.87-2.23 1.72zm69.5-14.4c-2.89-2.18-4.62-3.53-4.57-3.58 0.0141-0.0141 0.866 0.457 1.89 1.05s2.59 1.48 3.47 1.99c0.882 0.503 1.63 0.943 1.67 0.977 0.0608 0.0602-0.34 0.718-0.538 0.882-0.0651 0.054-0.545-0.273-1.92-1.31zm0.0917-3.61c-0.0663-0.0386-0.512-0.234-0.99-0.435-0.811-0.34-1.77-0.757-3.94-1.71-0.488-0.214-0.931-0.431-0.984-0.482l-0.0965-0.0919 0.131 0.0309c0.394 0.0931 5.44 1.37 6.12 1.55 0.91 0.238 0.887 0.194 0.416 0.8-0.322 0.415-0.434 0.473-0.66 0.341zm-57.7-17.4c-1.23-0.435-2.16-0.768-3.11-1.12l-0.614-0.226 0.0142-0.4c0.0218-0.618-0.0255-0.628 1.94 0.441 0.988 0.536 2.03 1.1 2.31 1.25 1.09 0.584 0.989 0.593-0.546 0.0511zm1.09-1.36c-4.03-2.28-5.96-3.4-5.98-3.47-0.0306-0.0916 1.07-1.39 1.18-1.39 0.0491 0 0.498 0.361 0.997 0.802 4 3.53 5.58 4.95 5.58 4.97 0 0.0764-0.249-0.0522-1.78-0.92zm43.7-9.13c0.01-0.182 3-6.14 3.09-6.16 0.136-0.027 0.658 0.238 0.704 0.357 0.0191 0.0499-0.34 0.671-0.798 1.38-2.65 4.1-3.01 4.63-2.99 4.42zm-1.68-0.401c0.0712-0.494 1.06-8.48 1.33-10.7 0.183-1.53 0.292-2.23 0.355-2.27 0.199-0.124 2.85-0.976 2.9-0.931 0.0369 0.0369-1.85 5.93-2.77 8.65-0.153 0.451-1.03 3.22-1.43 4.51-0.298 0.959-0.445 1.27-0.376 0.785z" fill="#aa090a"/><path d="m138 182c-0.271-0.336-1.17-1.57-5.82-7.97-9.65-13.3-13.3-18.2-13.4-18.2-0.05 0-0.396 0.333-0.77 0.74l-0.679 0.74-0.416 0.813c-0.494 0.964-0.669 1.26-0.752 1.26-0.0338 0-0.255-0.491-0.491-1.09-0.506-1.29-0.513-1.29-0.99-0.562-0.19 0.29-1.65 2.49-3.24 4.9-2.52 3.81-4.19 6.36-6.59 10.1-0.36 0.559-0.621 0.904-0.634 0.837-0.0461-0.238 0.303-2.29 1.86-11 0.916-5.1 1.11-6.47 0.906-6.47-0.121 3e-3 -3.99 2.7-6.3 4.4-0.263 0.193-1.52 1.12-2.8 2.05-4.16 3.04-6.9 5.12-12.9 9.79-1.14 0.881-3.38 2.63-5.66 4.43-0.579 0.456-1.07 0.816-1.08 0.8-0.0332-0.0332 0.316-0.622 2.12-3.59 1.72-2.82 3.41-5.61 7.52-12.4 1.96-3.25 4.36-7.21 5.34-8.81 2.59-4.23 2.72-4.45 2.89-4.77l0.151-0.295-0.0914-0.058c-0.131-0.083-1.1-0.0735-1.45 0.0141l-0.294 0.0741-0.53-0.267-1.71-0.0788c-2.1-0.097-6.24-0.257-8.28-0.321-0.836-0.0261-1.54-0.0729-1.56-0.104-0.0193-0.0312 1.14-0.645 2.58-1.36 2.97-1.49 6.72-3.41 7.08-3.64l0.247-0.156 0.625-3.72 0.161-0.159c0.0888-0.0877 0.653-0.358 1.25-0.601 1.61-0.65 1.74-0.712 1.74-0.817 0-0.116-1.97-1.5-7.92-5.56-0.469-0.321-2.22-1.52-3.89-2.67-2.38-1.64-6.02-4.13-6.51-4.45-0.348-0.23 0.791 0.0175 8.7 1.89 11.5 2.73 12.1 2.85 14.9 3.28 1.22 0.185 1.32 0.172 1.17-0.154-0.103-0.226-1.56-2.67-2.4-4.01-0.327-0.526-1.44-2.32-2.47-3.99-1.03-1.67-3.34-5.39-5.14-8.26-3.69-5.9-4.76-7.65-4.71-7.7 0.0861-0.0861 3.48 2.8 10.7 9.06 5.79 5.06 8.88 7.72 9.58 8.24l0.502 0.379 0.158-0.0968c0.441-0.269 1.52-1.36 1.56-1.58 0.243-1.35 1.27-10.3 1.89-16.5 0.0793-0.788 0.157-1.45 0.173-1.46 0.0761-0.0777 0.15 0.0831 1.46 3.17 0.159 0.375 0.904 2.08 1.65 3.79 2.28 5.18 2.56 5.83 2.66 6.07 0.382 0.923 1.04 2.25 1.11 2.25 0.121 0 0.789-0.776 1.89-2.2 0.505-0.65 0.966-1.22 1.02-1.27l0.107-0.0886 0.0648 0.124c0.0356 0.0681 0.225 0.523 0.421 1.01 0.55 1.37 0.964 2.31 1.06 2.42l0.0914 0.0965 0.112-0.093c0.334-0.277 4.11-4.88 8.63-10.5 0.92-1.15 1.7-2.09 1.72-2.09 0.101-4e-3 0.045 0.283-0.423 2.19-1.66 6.78-2.95 12.6-2.81 12.8 0.0422 0.0422 0.281-0.0113 0.668-0.149 0.714-0.255 0.791-0.261 0.92-0.0674l0.0981 0.148 0.815-0.432c3.37-1.79 7.5-4.05 11-6.02 0.863-0.488 1.83-1.03 2.15-1.21 0.319-0.177 1.21-0.674 1.98-1.1 2.09-1.17 2.73-1.51 2.78-1.46 0.0218 0.0218-0.344 0.447-0.814 0.946-3.4 3.61-9.06 9.95-9.06 10.1 0 0.0541 0.256 0.0784 0.836 0.0793 2.47 4e-3 4.08 0.586 5.45 1.97l0.583 0.589 0.352 0.717c0.194 0.394 0.398 0.901 0.455 1.13 0.135 0.533 0.146 0.539 1.21 0.641 1.91 0.183 5.18 0.614 5.18 0.683-3.4e-4 0.0234-0.392 0.285-0.87 0.582s-2 1.26-3.38 2.15l-2.51 1.61-0.113 0.307c-1.09 2.98-2.48 4.4-6.44 6.59-0.695 0.385-1.27 0.741-1.28 0.791-9e-3 0.0503 0.646 0.875 1.46 1.83 0.81 0.957 2.39 2.83 3.5 4.16 1.12 1.33 2.74 3.27 3.61 4.3 5.81 6.91 7.93 9.46 7.87 9.47-0.0686 0.023-1.3-0.545-3.96-1.83-7.03-3.39-17.6-8.26-18-8.26-0.19 0-0.195 0.39-0.0903 7.06 0.0575 3.68 0.0838 6.75 0.0585 6.82-0.035 0.097-0.537-0.607-2.12-2.97-2.45-3.66-2.27-3.4-2.38-3.4-0.225-5e-3 1.24 5.62 2.82 10.8 0.314 1.03 1.07 3.54 1.67 5.56 0.607 2.03 1.34 4.47 1.64 5.43 0.884 2.88 1.24 4.1 1.21 4.14-0.0178 0.0178-0.139-0.0998-0.27-0.261zm-28.4-19.6c4.4-7.21 5.4-8.79 6.15-9.6 0.734-0.802 0.703-0.841 0.799 1.03 0.0509 0.996 0.101 1.33 0.199 1.33 0.0447 0 1.09-1.01 2.32-2.25s2.26-2.25 2.29-2.25c0.163 0 7.42 11 8.51 13 0.17 0.298 0.273 0.4 0.337 0.336 0.0202-0.0202-0.0885-0.568-0.241-1.22-0.783-3.33-1.47-6.51-2.09-9.71-0.754-3.88-1.27-6.41-1.33-6.47-0.0278-0.0292-0.359 0.0707-0.736 0.222-0.377 0.151-0.714 0.275-0.75 0.275-0.144 0-1.67-1.65-1.8-1.94-0.213-0.482 0.164-0.598-3.3 1.02-1.83 0.854-1.66 0.69-1.98 1.83-0.139 0.497-0.329 1.16-0.421 1.47l-0.168 0.564-1.86 0.929c-2.11 1.06-3.29 1.69-4.42 2.36-1.13 0.682-1.21 0.746-1.26 1.09-0.113 0.706-0.944 5.01-1.26 6.54-0.191 0.92-0.469 2.26-0.618 2.97-0.149 0.716-0.271 1.33-0.271 1.35 0 0.221 0.39-0.363 1.89-2.83zm-15.1-2.17c1.19-0.797 2.69-1.77 3.9-2.53 0.641-0.402 1.5-0.948 1.92-1.21 0.413-0.264 1.27-0.811 1.91-1.21s1.31-0.833 1.5-0.954c0.361-0.233 0.432-0.278 1.88-1.19 2.94-1.85 5.66-3.39 8.67-4.89l1.13-0.567 0.425-1.39c0.234-0.763 0.453-1.46 0.488-1.54 0.0875-0.211 5.06-2.66 6.3-3.1l0.262-0.0933 0.0955 0.131c0.0525 0.0719 0.332 0.727 0.621 1.46s0.565 1.34 0.615 1.36c0.077 0.0295 1.03-0.346 3.54-1.39 0.776-0.323 0.747-0.335 0.98 0.41 0.34 1.09 1.39 3.94 3.13 8.49 0.401 1.05 0.327 1.5 0.904-5.51 0.37-4.5 0.533-6.39 0.584-6.78l0.0429-0.329 0.215-0.0963c0.118-0.0529 0.768-0.33 1.44-0.616 7.12-3.01 10.4-5.72 11.7-9.77 1.07-3.3 0.258-5.37-2.38-6.11l-0.542-0.151-1.54 1.2e-4c-3.34 2.5e-4 -6.98 1.17-13 4.18l-0.921 0.458-0.0458 0.478c-0.109 1.14-0.464 7.28-0.465 8.06-6.1e-4 0.342 0.06 1.02 0.135 1.5 0.223 1.45 0.205 1.47-0.363 0.397-2.75-5.17-5.76-10.4-6-10.5-0.0992-0.0192-2.05 0.886-3.36 1.56l-0.478 0.246-0.294 0.677c-0.437 1.01-1.68 4.03-3.06 7.47-0.792 1.96-1.67 4.23-2.45 6.28-1.58 4.21-1.51 4.09-1.26 2.22 0.154-1.14 0.167-1.4 0.0665-1.4-0.0689 0-2.39 1.65-3.99 2.83-2.22 1.65-2.28 1.68-2.13 1.31 0.362-0.861 5.55-10.2 6.57-11.8 0.0882-0.14 0.542-1.25 1.01-2.46 0.466-1.21 0.942-2.43 1.06-2.71 0.386-0.928 0.809-1.03-4.16 0.981-3.69 1.49-7.39 2.99-7.88 3.18-0.263 0.103-1.46 0.594-2.66 1.09s-2.43 1-2.73 1.12c-1.35 0.546-1.78 0.736-1.87 0.821-0.058 0.0556-0.21 0.771-0.388 1.82-0.161 0.95-0.386 2.27-0.502 2.92-0.209 1.19-0.249 1.57-0.165 1.57 0.0245 0 0.647-0.319 1.38-0.709 2.58-1.37 5.22-2.65 8.91-4.33 1.57-0.715 1.7-0.749 1.48-0.397-3.44 5.64-6.61 11.6-9.41 17.6-1.45 3.14-1.61 3.52-1.49 3.52 0.0178 0 0.348-0.211 0.734-0.469zm23.1-20.2c-0.0881-0.143 2.14-6.56 2.28-6.56 0.087 0 1.78 4.3 1.78 4.52 0 0.107-4.01 2.12-4.06 2.04zm16.2-6.2c0.23-2.07 0.549-4.09 0.67-4.24 0.117-0.145 1.17-0.648 2.07-0.988 2.86-1.08 4.5-0.58 3.63 1.12-0.604 1.19-2.46 2.61-5.18 3.96-1.3 0.647-1.24 0.64-1.19 0.145zm16.6 19c0-0.0321-0.178-0.255-0.397-0.495-0.218-0.24-1.27-1.45-2.34-2.69-1.78-2.07-2.77-3.22-5.91-6.89-0.609-0.713-1.39-1.63-1.73-2.03-0.717-0.84-0.654-0.818-1.35-0.47-0.29 0.145-1.05 0.488-1.68 0.763s-1.16 0.532-1.18 0.573c-0.0454 0.118-0.211 2.66-0.179 2.75 0.0158 0.0455 0.249 0.202 0.517 0.348 1.83 0.994 4.24 2.34 6.29 3.53 2.24 1.29 3.23 1.89 6.48 3.88 1.23 0.753 1.47 0.873 1.47 0.737zm-53.2-2.2c0.047-0.0908 0.623-1.2 1.28-2.47 1.47-2.84 1.45-2.65 0.219-2.06-0.987 0.475-0.852 0.218-1.3 2.49-0.212 1.07-0.406 2.02-0.429 2.11-0.0563 0.214 0.114 0.166 0.234-0.0658zm4.96-16.5c1.09-0.429 3.42-1.35 5.19-2.05 5.43-2.16 6.37-2.5 6.59-2.46 0.148 0.0325 0.35 0.244 0.83 0.867 0.349 0.453 0.686 0.889 0.75 0.968l0.115 0.144 0.097-0.102c0.0533-0.0563 0.177-0.302 0.274-0.546 0.23-0.577 0.734-1.77 0.955-2.27l0.174-0.389 1.01-0.491c3.67-1.78 3.65-1.77 3.97-1.44 0.788 0.828 2.69 3.47 4.01 5.57 0.379 0.603 0.734 1.11 0.79 1.12l0.102 0.0198 0.0834-1.49c0.199-3.54 0.288-4.77 0.358-4.91 0.0968-0.19 3.69-1.95 5.99-2.94 1.73-0.743 3.43-1.35 4.93-1.76l0.38-0.104 0.234-0.292c0.129-0.161 0.48-0.571 0.781-0.911 0.301-0.341 0.808-0.921 1.13-1.29 0.319-0.369 0.834-0.962 1.14-1.32 0.555-0.637 0.638-0.766 0.486-0.766-0.13 0-4.35 2.24-9.35 4.96-1.34 0.727-2.47 1.32-2.51 1.32-0.11 0-0.104-0.0371 0.121-0.703 0.261-0.771 0.287-0.769-1.23-0.113-0.713 0.309-1.31 0.543-1.34 0.519-0.0532-0.0532 0.788-3.41 2.57-10.2 0.126-0.484 0.187-0.839 0.15-0.876-0.0513-0.0513-0.783 0.807-1.48 1.73-0.279 0.372-4.09 5.19-5.06 6.41-0.557 0.694-1.06 1.27-1.12 1.28-0.0977 0.0187-0.643-1.16-1.16-2.53-0.193-0.505-0.21-0.501-1 0.195-1.83 1.61-2.61 2.28-2.66 2.28-0.0581 0-0.337-0.447-2.24-3.58-2.54-4.19-2.54-4.18-2.64-4.08-0.0251 0.0266-0.357 1.91-0.738 4.18-0.615 3.67-1.02 5.88-1.34 7.32-0.0687 0.306-0.136 0.461-0.201 0.461-0.228 0-2.55-1.25-5.96-3.19-3.67-2.1-3.89-2.21-3.89-2.07 0 0.0441 0.733 1.45 1.63 3.13 2.8 5.24 3.86 7.42 3.68 7.53-0.176 0.112-2.42-0.0544-4.39-0.326-1.12-0.155-7.02-1.13-8.81-1.46-0.889-0.163-0.938-0.165-0.909-0.0411 0.0224 0.0967 1.67 1.34 4.53 3.4 0.863 0.625 1.86 1.35 2.22 1.62 0.791 0.585 0.425 0.624 2.76-0.296zm40.1 46.2c-0.153-0.347-0.666-1.49-1.14-2.54-0.775-1.72-2.24-5.02-3.21-7.24-0.197-0.45-0.502-1.14-0.679-1.54-0.177-0.394-0.351-0.794-0.388-0.887l-0.0663-0.171 0.132 0.137c0.0728 0.0751 1.39 2.01 2.92 4.3 1.53 2.29 3.16 4.73 3.63 5.42 0.541 0.806 0.822 1.28 0.79 1.34-0.0947 0.169-1.59 1.81-1.65 1.81-0.0325 0-0.184-0.284-0.336-0.631zm0.618-6.86c-0.332-0.441-0.85-1.14-1.15-1.55-1.5-2.07-2.26-3.12-2.59-3.55-0.194-0.263-0.412-0.57-0.483-0.682l-0.13-0.205 0.186 0.145c0.379 0.295 5.24 5.32 5.24 5.41 0 0.191-0.346 1.23-0.41 1.23-0.0352 0-0.336-0.361-0.668-0.802zm-57.7-12.7c-0.103-0.131-0.429-0.876-0.429-0.979 0-0.0496 0.868-0.896 1.93-1.88 1.06-0.985 2.06-1.91 2.22-2.06 0.364-0.346 0.431-0.296 0.13 0.0983-0.127 0.166-0.839 1.1-1.58 2.08-1.08 1.41-2.05 2.67-2.18 2.82-9e-3 0.0103-0.047-0.0204-0.0844-0.0683zm-4.18-0.663c0-0.293 0.226-2.37 0.261-2.4 0.0466-0.0468 1.5-0.908 3.29-1.95 0.544-0.317 1.27-0.74 1.6-0.939 1.7-1.01 4.21-2.43 4.24-2.41 0.0244 0.0244-0.696 0.63-2.5 2.1-1.46 1.19-2.79 2.3-4.66 3.88-2 1.69-2.23 1.87-2.23 1.72zm69.5-14.4c-2.89-2.18-4.62-3.53-4.57-3.58 0.0141-0.0141 0.866 0.457 1.89 1.05s2.59 1.48 3.47 1.99c0.882 0.503 1.63 0.943 1.67 0.977 0.0608 0.0602-0.34 0.718-0.538 0.882-0.0651 0.054-0.545-0.273-1.92-1.31zm0.0917-3.61c-0.0663-0.0386-0.512-0.234-0.99-0.435-0.811-0.34-1.77-0.757-3.94-1.71-0.488-0.214-0.931-0.431-0.984-0.482l-0.0965-0.0919 0.131 0.0309c0.394 0.0931 5.44 1.37 6.12 1.55 0.91 0.238 0.887 0.194 0.416 0.8-0.322 0.415-0.434 0.473-0.66 0.341zm-57.7-17.4c-1.23-0.435-2.16-0.768-3.11-1.12l-0.614-0.226 0.0142-0.4c0.0218-0.618-0.0255-0.628 1.94 0.441 0.988 0.536 2.03 1.1 2.31 1.25 1.09 0.584 0.989 0.593-0.546 0.0511zm1.09-1.36c-4.03-2.28-5.96-3.4-5.98-3.47-0.0306-0.0916 1.07-1.39 1.18-1.39 0.0491 0 0.498 0.361 0.997 0.802 4 3.53 5.58 4.95 5.58 4.97 0 0.0764-0.249-0.0522-1.78-0.92zm43.7-9.13c0.01-0.182 3-6.14 3.09-6.16 0.136-0.027 0.658 0.238 0.704 0.357 0.0191 0.0499-0.34 0.671-0.798 1.38-2.65 4.1-3.01 4.63-2.99 4.42zm-1.68-0.401c0.0712-0.494 1.06-8.48 1.33-10.7 0.183-1.53 0.292-2.23 0.355-2.27 0.199-0.124 2.85-0.976 2.9-0.931 0.0369 0.0369-1.85 5.93-2.77 8.65-0.153 0.451-1.03 3.22-1.43 4.51-0.298 0.959-0.445 1.27-0.376 0.785z" fill="#060506"/></svg>
