<svg width="210mm" height="297mm" version="1.1" viewBox="0 0 210 297" xmlns="http://www.w3.org/2000/svg"><path d="m45.8 197c-0.0859-1.57 0.0185-42.5 0.109-42.7 0.0646-0.168 0.476-0.315 2.65-0.946 0.759-0.22 2.35-0.685 3.55-1.03 1.19-0.349 3.34-0.974 4.78-1.39 1.44-0.414 3.35-0.972 4.25-1.24 1.88-0.558 1.91-0.561 2.09-0.264 2.28 3.67 3.53 5.65 5.27 8.4 1.17 1.84 2.69 4.26 3.4 5.37 2.89 4.58 3.56 5.61 3.6 5.57 0.0443-0.0443 0.64-5.27 1.45-12.7 0.247-2.27 0.489-4.31 0.537-4.53 0.0478-0.218 0.118-0.757 0.155-1.2 0.0374-0.441 0.0988-0.851 0.136-0.912 0.0756-0.122 14.2-2.71 14.3-2.63 0.0657 0.0252 0.33 0.437 0.588 0.916 0.258 0.478 0.571 0.981 0.695 1.12 0.124 0.135 0.866 1.44 1.65 2.91 1.18 2.21 4.58 8.47 6.1 11.3 0.215 0.393 0.426 0.735 0.468 0.761 0.102 0.0631 0.332-1.07 4.09-20.1 0.127-0.642 0.291-1.22 0.365-1.29 0.128-0.121 1.87-0.298 10.4-1.06 2.77-0.246 2.6-0.287 3.02 0.716l0.31 0.73 0.855 0.602 0.616 1.38c1.29 2.88 1.47 3.29 2.11 4.68 0.361 0.786 1.11 2.43 1.67 3.65 0.559 1.22 1.06 2.26 1.11 2.32 0.108 0.112 0.113 0.169-0.365-3.79-0.186-1.54-0.438-3.7-0.56-4.8l-0.221-1.99 0.347-0.651-0.0836-0.788c-0.108-1.02-0.0848-1.12 0.297-1.18 0.172-0.0281 3.08-0.346 6.46-0.707l6.14-0.656 0.0872 0.138c0.048 0.0758 0.0879 0.565 0.0887 1.09l2e-3 0.949 1.13 0.17 0.0618 1.03c0.034 0.569 0.0672 1.92 0.0739 2.99l0.0121 1.96 0.812-0.0708c0.447-0.0389 0.838-0.0872 0.871-0.107 0.0324-0.02 0.0868-1.66 0.121-3.65 0.0721-4.2-0.112-3.75 1.6-3.93 2.92-0.305 9.69-0.933 10.1-0.933h0.397l0.0582 0.714c0.032 0.393 0.0691 0.865 0.0823 1.05l0.0241 0.335 0.463 0.134c0.255 0.0739 0.491 0.179 0.524 0.233 0.073 0.118 0.159 1.86 0.486 9.8 0.358 8.69 0.4 9.18 0.589 6.76 0.0925-1.18 0.0964-1.19 0.558-1.19h0.384v-0.26c0-0.289-0.151-1.62-0.936-8.26-0.295-2.49-0.621-5.26-0.725-6.16l-0.189-1.63 0.447-0.788-0.209-2.04 0.14-0.0867c0.0771-0.0477 0.229-0.0671 0.338-0.0432s1.77 0.203 3.7 0.397c10.9 1.1 10.4 1 10.2 2.13-0.232 1.17-0.249 1.12 0.419 1.25 0.973 0.191 1.12-1.1-1.18 10.6l-1.08 5.51 0.122 0.228c0.096 0.179 0.0969 0.388 4e-3 0.983-0.139 0.895-0.132 0.906 0.691 1.05l0.623 0.111 0.0283 0.246c0.0155 0.135-0.195 1.73-0.468 3.55s-0.568 3.78-0.655 4.36c-0.0872 0.581-0.216 1.1-0.285 1.16-0.119 0.0991-8.48-0.284-10.3-0.473l-0.681-0.0697-0.707-1.28-0.0297 0.46c-0.0163 0.253-0.0828 0.502-0.148 0.554-0.137 0.109-13.7 0.34-13.8 0.235-0.0976-0.0954-0.274-3.5-0.276-5.34-1e-3 -0.84-0.0291-1.63-0.0623-1.75l-0.0605-0.226-0.849 0.0654c-1.12 0.0861-1.03-0.257-1.07 3.9-0.0235 2.28-0.0748 3.69-0.136 3.73-0.0538 0.0333-0.861 0.114-1.79 0.178-0.932 0.0649-2.32 0.161-3.07 0.215-0.759 0.0531-2.4 0.163-3.65 0.244l-2.27 0.148-4.47 0.991c-5.24 1.16-4.54 1.24-5.37-0.563-0.372-0.806-0.713-1.5-0.758-1.55-0.101-0.108-3.84 0.609-3.99 0.767-0.0598 0.0604-0.2 0.858-0.312 1.77-0.248 2.02 0.217 1.7-3.57 2.47-1.76 0.356-3.3 0.691-3.42 0.744l-0.221 0.0964 0.434 0.893-0.143 0.132c-0.0788 0.0727-0.83 0.32-1.67 0.55-0.84 0.23-3.47 0.971-5.85 1.65-5.06 1.44-4.38 1.48-5.38-0.352-0.444-0.816-0.843-1.51-0.887-1.53-0.0982-0.0607-4.33 1.08-4.45 1.2-0.0472 0.0472-0.136 0.882-0.198 1.86-0.135 2.14 0.214 1.8-2.77 2.65-1.37 0.39-2.63 0.78-2.79 0.866-0.165 0.086-1.65 0.71-3.3 1.39-1.65 0.677-4.55 1.88-6.44 2.67-1.89 0.793-3.53 1.45-3.64 1.46l-0.21 0.0216-1.15-1.92c-1.34-2.24-1.11-2.08-2.27-1.62-0.507 0.198-1.63 0.637-2.5 0.977-0.867 0.34-1.75 0.678-1.95 0.751-0.583 0.207-0.577 0.172-0.399 2.45 0.196 2.51 0.669 2.01-3.43 3.65-1.86 0.748-4.74 1.92-6.39 2.61-1.65 0.69-3.47 1.45-4.04 1.69s-1.11 0.432-1.2 0.432l-0.162 5.1e-4z" fill="#f95cb5"/><path d="m45.9 195c-0.0965-3.3 0.0414-41.1 0.151-41.4 0.0474-0.125 0.204-0.249 0.362-0.288 0.153-0.0371 1.79-0.507 3.63-1.04 10.3-3.02 12.9-3.74 13-3.69 0.0476 0.0294 0.283 0.374 0.523 0.766 0.568 0.927 4.13 6.59 5.65 8.99 0.654 1.03 1.78 2.8 2.49 3.94 3.04 4.81 3.78 5.96 3.85 5.96 0.122 0 0.282-1.35 1.51-12.8 0.242-2.25 0.482-4.27 0.532-4.48 0.0509-0.217 0.123-0.776 0.16-1.24 0.0372-0.467 0.0985-0.898 0.136-0.959 0.0376-0.0608 3.24-0.687 7.11-1.39l7.04-1.28 0.184 0.221c0.101 0.122 0.333 0.518 0.516 0.882 0.183 0.363 0.458 0.806 0.612 0.985 0.154 0.179 0.48 0.702 0.724 1.16 2.56 4.83 7.29 13.5 7.5 13.8 0.222 0.279 0.0988 0.851 3.41-15.9 0.6-3.03 1.13-5.54 1.19-5.57 0.12-0.074 11.2-1.1 12.2-1.12l0.69-0.0166 0.394 0.814c0.297 0.613 0.479 0.866 0.739 1.02 0.435 0.261 0.332 0.0717 1.68 3.09 1.83 4.1 4.25 9.35 4.38 9.49 0.263 0.292 0.251 0.121-0.345-4.71-0.164-1.33-0.391-3.27-0.506-4.31l-0.208-1.9 0.33-0.503-0.0688-0.97-0.0687-0.97 0.431-0.0582c0.392-0.053 3.92-0.436 10-1.09 2.68-0.286 2.46-0.363 2.47 0.89 2e-3 1.04 0.0564 1.13 0.711 1.13h0.473l3.2e-4 1.45c1.8e-4 0.799 0.0295 2.16 0.0653 3.02l0.0649 1.57 0.879-0.0624c0.484-0.0343 0.913-0.083 0.953-0.108 0.0406-0.0251 0.102-1.67 0.136-3.66 0.0722-4.22-0.127-3.74 1.65-3.93 2.22-0.234 9.72-0.938 10-0.938h0.248l7e-3 0.616c4e-3 0.339 0.0373 0.813 0.0739 1.05l0.0666 0.439 0.415 0.103c0.228 0.0567 0.461 0.15 0.518 0.207 0.103 0.104 0.195 1.88 0.593 11.4 0.299 7.17 0.32 7.57 0.398 7.78l0.0731 0.197 0.0581-0.345c0.0319-0.19 0.106-1.01 0.165-1.82 0.136-1.88 0.117-1.82 0.594-1.82h0.387v-0.348c0-0.376-0.423-4.18-0.887-7.98-0.917-7.5-0.967-8.13-0.68-8.51l0.206-0.279-0.107-0.875c-0.059-0.481-0.107-0.959-0.108-1.06l-2.7e-4 -0.187 0.714 0.0583c3.24 0.265 13.4 1.41 13.5 1.52 0.0569 0.0569 0.0191 0.426-0.0993 0.97-0.226 1.04-0.208 1.08 0.589 1.23 0.321 0.0632 0.603 0.146 0.627 0.184 0.0447 0.0723-0.22 1.47-1.98 10.5l-1.06 5.39 0.254 0.475-0.247 1.53 0.168 0.123c0.0922 0.0674 0.412 0.153 0.712 0.191 0.299 0.0374 0.566 0.125 0.593 0.194 0.0761 0.198-1.25 8.86-1.38 8.99-0.106 0.109-7.12-0.198-9.96-0.437l-0.882-0.074-0.372-0.64c-0.205-0.352-0.389-0.685-0.41-0.739-0.088-0.229-0.193 0.0838-0.178 0.528 0.0102 0.287-0.0331 0.521-0.108 0.581-0.0985 0.0798-9.35 0.27-13.1 0.27h-0.493l-0.0608-0.985c-0.0334-0.542-0.0916-2.09-0.129-3.45-0.0376-1.35-0.0902-2.57-0.117-2.7l-0.0483-0.235-0.955 0.0701c-1.32 0.0968-1.2-0.299-1.23 3.98l-0.0258 3.71-2.41 0.168c-1.33 0.0925-3.75 0.256-5.37 0.363l-2.96 0.194-2.06 0.456c-1.14 0.251-3.14 0.699-4.46 0.995-2.37 0.532-2.67 0.559-2.67 0.231 0-0.327-1.33-2.85-1.51-2.85-0.399 0-3.87 0.721-3.98 0.827-0.0613 0.0601-0.204 0.86-0.318 1.78-0.251 2.03 0.24 1.69-3.65 2.49-1.81 0.369-3.35 0.719-3.44 0.779l-0.148 0.108 0.201 0.455c0.256 0.578 0.311 0.54-1.56 1.05-0.84 0.231-3.45 0.968-5.81 1.64-3.14 0.892-4.31 1.19-4.41 1.11-0.0697-0.0578-0.469-0.748-0.888-1.53-0.925-1.74-0.569-1.63-3.19-0.926-2.65 0.716-2.37 0.424-2.49 2.57l-0.101 1.79-0.156 0.0818c-0.086 0.045-0.821 0.269-1.63 0.499-2.58 0.727-3.43 0.985-3.54 1.07-0.0998 0.0782-1.3 0.58-3.93 1.65-0.586 0.238-2.93 1.21-5.2 2.16-4.91 2.05-4.22 2.08-5.57-0.204-1.32-2.23-1-2.12-3.34-1.2-1.02 0.404-2.34 0.92-2.93 1.15-1.29 0.502-1.21 0.267-1.01 2.73l0.161 2.04-0.125 0.116c-0.0689 0.0639-1.3 0.584-2.74 1.16-2.99 1.19-6.17 2.5-9.67 3.97-1.34 0.563-2.47 1.02-2.53 1.02-0.0535 0-0.124-1.07-0.167-2.54zm7.17-5.06c6.46-2.58 5.64-1.9 5.44-4.47l-0.167-2.14 0.137-0.125c0.0756-0.0687 0.403-0.225 0.729-0.347 0.606-0.227 3.89-1.47 6.25-2.36 1.58-0.599 1.31-0.755 2.59 1.48 0.557 0.97 1.06 1.78 1.11 1.8 0.188 0.0696 10.8-4.26 10.9-4.44 0.0436-0.113-1.6-2.87-4.44-7.42-0.759-1.22-2.11-3.39-3-4.83-0.893-1.44-2.02-3.25-2.51-4.04s-1.05-1.69-1.26-2.02-1.73-2.76-3.38-5.42c-1.65-2.66-3.06-4.91-3.14-5.01l-0.138-0.187-2.41 0.713c-1.32 0.392-3.43 1.01-4.67 1.38s-2.98 0.879-3.84 1.13c-0.867 0.254-2 0.591-2.52 0.748l-0.945 0.287-0.0648 1.2c-0.0871 1.62-0.213 36.2-0.131 36.2 0.0352 0 2.51-0.978 5.51-2.17zm4.66-15.6c-0.0825-0.261-0.235-11.2-0.157-11.2 0.085-0.0856 0.287 0.184 1.39 1.86 1.26 1.92 4.33 6.75 4.52 7.11l0.112 0.218-0.223 0.146c-0.209 0.137-1.31 0.555-4.2 1.59-1.34 0.48-1.39 0.491-1.44 0.313zm2.71-2.53c0-0.202-0.128-0.402-0.257-0.402-0.14 0-0.191 0.307-0.0716 0.427 0.0972 0.0971 0.328 0.0797 0.328-0.0248zm23.1 6.34c2.46-0.667 2.16-0.347 2.28-2.5 0.107-2.06 0.0452-1.92 0.944-2.16 1.89-0.52 6.61-1.78 6.67-1.78 0.038 0 0.423 0.706 0.855 1.57s0.826 1.59 0.876 1.62c0.09 0.0556 8.53-2.42 8.65-2.53 0.176-0.176-5.09-10.5-11.2-21.8-1.64-3.06-0.435-2.88-8.65-1.34-1.3 0.242-2.85 0.528-3.44 0.633-1.34 0.241-1.21 0.0282-1.44 2.28-0.109 1.05-0.307 2.89-0.44 4.08s-0.486 4.47-0.784 7.29c-0.298 2.82-0.616 5.82-0.706 6.66l-0.164 1.54 0.542 0.875c0.907 1.47 3.53 5.69 3.68 5.92 0.178 0.277-0.0729 0.313 2.29-0.33zm2.42-11.5c-0.0346-0.056-0.0128-0.666 0.0484-1.35 0.0612-0.689 0.215-2.66 0.343-4.39 0.231-3.13 0.253-3.29 0.433-3.18 0.135 0.0833 3.52 5.92 4.19 7.22 0.322 0.626 0.507 0.54-2.92 1.36-2.06 0.492-2 0.483-2.09 0.341zm22 3.54c3.55-0.698 3.19-0.436 3.43-2.5 0.102-0.901 0.234-1.67 0.293-1.72 0.115-0.0887 6.35-1.32 6.75-1.34l0.239-8e-3 0.65 1.52c0.357 0.836 0.702 1.54 0.766 1.56 0.112 0.0374 5.23-1.09 7.46-1.64l1.08-0.269-0.0215-0.202c-0.0118-0.111-0.463-1.19-1-2.4-1.05-2.35-1.27-2.84-3.75-8.26-0.881-1.92-1.77-3.87-1.98-4.33-0.205-0.461-0.791-1.75-1.3-2.86-0.511-1.11-1.28-2.77-1.7-3.69-0.423-0.921-0.826-1.74-0.896-1.81l-0.126-0.138-1.8 0.165c-0.992 0.0908-3.22 0.297-4.95 0.458-1.73 0.161-3.19 0.294-3.25 0.294-0.285 4e-3 -0.392 0.372-0.992 3.4-0.353 1.78-1.24 6.26-1.98 9.94-1.63 8.17-2.01 10.2-2.01 10.5-3.7e-4 0.332 1.85 3.92 2.02 3.92 0.0162 0 1.4-0.268 3.07-0.597zm4.17-10.9c0-0.212 0.92-6.43 1.16-7.83 0.0416-0.244 0.115-0.443 0.162-0.443 0.141 0 3.51 7.18 3.51 7.48 0 0.165-0.0146 0.169-2.46 0.661-2.31 0.466-2.37 0.469-2.37 0.134zm21.1 6.41c1.35-0.08 2.72-0.172 3.06-0.205l0.616-0.0595v-3.78c0-2.33 0.0366-3.8 0.0953-3.84 0.186-0.115 6.31-0.481 6.41-0.383 0.0813 0.0813 0.286 4.82 0.291 6.72l1e-3 0.63 4.56-0.0713c2.51-0.0392 4.59-0.106 4.64-0.148 0.0443-0.0425-0.0334-2.18-0.173-4.75-0.227-4.18-0.619-12.4-0.8-16.7-0.0774-1.86 0.0125-1.72-1.04-1.6-1.45 0.168-6.92 0.687-7.24 0.687-0.532 0-0.528-0.0404-0.415 3.83 0.127 4.35 0.759 3.74-4.25 4.1l-2.02 0.142-0.123-0.161c-0.0938-0.123-0.123-1.11-0.123-4.14v-3.97l-0.155-0.0595c-0.0853-0.0327-1.18 0.0613-2.44 0.209-1.26 0.148-3.21 0.376-4.35 0.507-1.14 0.131-2.15 0.263-2.24 0.293-0.232 0.0735-0.226 0.236 0.119 3.36 0.161 1.45 0.45 4.13 0.644 5.94s0.569 5.25 0.835 7.64l0.483 4.33 0.312 0.69c0.372 0.821 0.456 0.936 0.69 0.936 0.0975 0 1.28-0.0654 2.62-0.145zm31.9-0.421c0.146-0.276 0.837-5.35 0.741-5.44-0.135-0.128-8.3-0.642-8.42-0.529-0.128 0.128-0.444 5.44-0.329 5.55 0.0485 0.0448 1.71 0.178 3.68 0.295 1.98 0.118 3.66 0.229 3.74 0.247 0.342 0.0759 0.491 0.0458 0.577-0.117zm-0.396-9.26c0.176-0.721 2.58-13.4 2.73-14.3 0.0883-0.591 0.668-0.471-5.27-1.09-5.58-0.582-5.35-0.587-5.27 0.118 0.0289 0.25 0.142 1.3 0.251 2.33 0.505 4.76 1.49 12.8 1.58 12.9 0.104 0.105 3.69 0.409 5.09 0.432l0.809 0.0131z" fill="#0a0609"/></svg>
