<svg width="210mm" height="297mm" version="1.1" viewBox="0 0 210 297" xmlns="http://www.w3.org/2000/svg"><path d="m90.2 184c-0.996-0.329-1.67-0.901-2.11-1.79l-0.315-0.637-0.0617-1.8 0.184-0.61c0.285-0.942 0.765-1.78 1.63-2.83 2.22-2.7 2.8-3.76 2.8-5.14 4.59e-4 -1.31-0.804-2.03-2.19-1.95l-0.663 0.0384-1.62 0.816-0.845 0.839c-0.518 0.515-1.11 1.23-1.54 1.84-1.79 2.58-3.66 3.67-4.86 2.85-1.08-0.735-0.933-1.85 0.557-4.23 0.616-0.986 0.858-1.56 0.925-2.2l0.0461-0.437-0.192-0.327c-0.535-0.911-1.98-0.911-3.98 1.9e-4 -2.58 1.17-4.91 3.35-7.29 6.81-2.13 3.08-3.48 4.28-5.42 4.77-3.56 0.912-6.21-2.18-4.75-5.54 0.86-1.98 2-2.95 5.25-4.5 1.01-0.481 2.08-1.16 2.08-1.33 0-0.0428-0.216-0.121-0.481-0.173-1.57-0.311-3.5-0.984-4.13-1.44l-0.327-0.237v-0.285-0.285l-0.273-0.169c-0.417-0.258-0.648-0.543-0.7-0.864l-0.0472-0.291 1.64-3.25c1.96-3.88 1.96-3.88 0.645-3.88-1.12-3e-3 -1.63 0.211-3.64 1.53-2.8 1.83-4.69 2.02-5.47 0.562l-0.201-0.376 0.0292-0.549c0.0712-1.34 1.26-2.7 2.98-3.39 0.521-0.21 1.43-0.456 3.03-0.821 1.55-0.355 2.52-0.931 2.8-1.68 0.186-0.486 0.0894-0.674-0.831-1.62-3.62-3.74-3.13-9.79 1.13-14 0.406-0.4 0.738-0.765 0.738-0.811 0-0.341-1.13-0.788-2.45-0.97-0.513-0.0703-1.21-0.167-1.56-0.215-3.17-0.442-4.77-3.01-2.87-4.59 1.58-1.3 3.53-0.635 6.18 2.1 0.998 1.03 2.2 1.6 3.38 1.59l0.627-2e-3 0.886-0.341c0.487-0.187 1.37-0.437 1.96-0.554 1.11-0.22 1.15-0.237 1.62-0.666 1.5-1.37 0.338-4.1-2.67-6.25-0.476-0.341-1.63-0.993-2.92-1.65-2.31-1.17-2.89-1.57-3.52-2.41-2.31-3.05 0.585-7.03 3.89-5.36 1.07 0.54 1.99 1.69 3.02 3.75 1.75 3.5 3.15 5.41 4.77 6.49 1.43 0.954 2.19 1.04 2.32 0.281l0.0533-0.297-0.303-0.615c-1.11-2.25 0.732-2.94 2.89-1.09 2.07 1.77 3.67 1.27 3.27-1.03-0.332-1.94-1.71-3.7-4.06-5.16-2.66-1.65-3.18-2.05-3.93-3.03-3.61-4.71 0.752-10.8 5.8-8.08 1.83 0.977 2.76 2.59 3.93 6.85 0.516 1.88 0.915 3.07 1.34 3.99 1.68 3.65 5.02 5.42 6.44 3.41 1.32-1.88 2.29-1.93 3.97-0.21 1.47 1.49 2.45 1.6 3.2 0.335 0.882-1.47 0.816-3.3-0.234-6.48-1.43-4.34-0.88-7.08 1.66-8.26l0.557-0.259 1.51-8e-3 0.559 0.275c2.22 1.09 2.52 4.16 0.777 7.92-0.205 0.442-0.491 1.17-0.636 1.61l-0.262 0.809-0.0228 2.01 0.167 0.459c0.318 0.874 1.11 1.47 1.74 1.31 0.591-0.148 1.1-1.24 1.23-2.66 0.113-1.24 0.47-1.78 1.18-1.78 0.723 0 0.938 0.469 0.995 2.17l0.0453 1.34 0.161 0.268c0.534 0.89 1.64 0.276 2.43-1.35 0.758-1.56 1.04-3.45 0.883-5.9-0.278-4.3 0.217-6.29 2-8.03 2.34-2.3 5.85-1.82 6.8 0.921l0.188 0.544-2e-3 0.92c-3e-3 1.78-0.595 3.14-2.43 5.57-2.21 2.93-3.16 5.49-2.76 7.42 0.431 2.07 1.71 2.24 3.44 0.475 1.09-1.12 1.8-1.4 2.53-1.02 0.892 0.467 0.868 1.59-0.0596 2.75-0.829 1.04-1 1.61-0.609 2l0.189 0.189 0.452-0.0107c0.51-0.0121 1.21-0.303 2.19-0.914 1.04-0.647 1.66-0.896 2.32-0.935l0.595-0.0346 0.375 0.194c0.557 0.288 0.82 0.725 0.921 1.53 0.101 0.805 0.214 0.992 0.713 1.18l0.386 0.147 0.514-0.0956c1.08-0.201 2.49-1.06 3.83-2.33 1.24-1.18 1.82-1.96 3.57-4.79 1.59-2.56 3.31-3.74 5.36-3.67 2.81 0.0992 3.71 2.98 1.6 5.15-0.836 0.86-1.6 1.28-3.68 2.03-1.63 0.59-2.75 1.14-3.57 1.74-2.37 1.76-2.36 3.87 0.0318 4.32 0.955 0.183 1.05 0.169 1.24-0.179 0.359-0.667 1.17-0.665 4.88 0.0102 4.05 0.737 4.97 1.29 4.5 2.68-0.187 0.55-0.173 0.645 0.117 0.774 0.294 0.13 0.5 0.48 0.5 0.849 0 0.269-0.0839 0.48-1.92 4.83-0.611 1.45-1.09 2.7-1.08 2.8l0.0267 0.188 0.297-8e-3c0.164-4e-3 0.754-0.181 1.31-0.392 3.02-1.14 5.28-0.362 5.29 1.82 3e-3 1.68-1.33 2.55-4.11 2.67-2.2 0.0945-3.23 0.55-3.63 1.6-0.41 1.07 0.233 1.93 2.14 2.86 2.2 1.07 2.88 2.6 1.66 3.75-0.605 0.569-0.917 0.639-2.78 0.623-1.93-0.0169-2.37 0.117-2.74 0.853-0.561 1.1 0.339 2.41 2.6 3.78 0.606 0.368 1.32 0.849 1.59 1.07 2.88 2.35 2.07 6.27-1.29 6.28l-0.753 2e-3 -0.613-0.22c-0.79-0.283-1.34-0.621-2.34-1.43-2.26-1.84-3.63-2.31-4.43-1.51l-0.272 0.272v0.629c0 0.758-0.0354 0.864-0.34 1.02-0.385 0.199-0.394 0.197-1.69-0.446-0.193-0.0958-9e-3 0.368 0.345 0.869 0.599 0.848 1.36 1.59 2.35 2.29 3.49 2.47 4.23 5.65 1.65 7.01l-0.427 0.225-1.51-4e-4 -0.636-0.303c-1.27-0.607-2.11-1.61-3.46-4.17-1.96-3.7-3.85-5.59-6.17-6.16l-0.563-0.137-0.482 0.0957c-0.654 0.13-1.1 0.455-1.38 1.02l-0.231 0.457-0.123 1.12c-0.378 3.45-2.18 3.98-5.02 1.47-0.697-0.615-1.2-0.987-1.66-1.22l-0.658-0.33h-0.537c-2.95 0-2.56 4.35 0.766 8.49 1.52 1.9 2.04 2.94 2.11 4.26 0.11 2.02-0.939 3.47-2.86 3.94l-0.574 0.142-0.664-0.0968c-2.72-0.396-3.94-2.4-4.08-6.67-0.0371-1.15-0.122-2.39-0.189-2.76-0.824-4.52-4.2-5.76-5-1.83-0.581 2.84-2.6 3.72-3.66 1.6l-0.285-0.568-0.0634-1.31c-0.0893-1.85-0.317-2.48-1.05-2.91l-0.38-0.222-0.481 0.0437c-2.38 0.216-4.25 3.6-4.78 8.64-0.357 3.39-1.21 5-3.16 5.95l-0.641 0.311-0.878 0.0223c-0.561 0.0143-0.999-0.0175-1.21-0.0882zm17.9-64.6c0.254-0.78 0.199-1.04-0.152-0.731-0.349 0.311-0.502 0.975-0.353 1.53l0.0537 0.201 0.112-0.154c0.0619-0.0846 0.214-0.466 0.339-0.848zm-8.47 59.4c-1.06-0.646-0.958-2.45 0.205-3.66 0.759-0.79 1.4-0.327 1.82 1.32 0.405 1.58-0.862 3.04-2.02 2.34zm26.4-1.8c-1.32-0.354-2.11-1.7-2.11-3.6l2e-5 -1 0.171-0.292c0.0943-0.161 0.271-0.348 0.393-0.416l0.221-0.124 0.472 0.16c1.08 0.366 2.36 1.47 2.79 2.39 0.781 1.69-0.316 3.33-1.94 2.89zm-72.1-25.9c-3.86-1.07-1.97-5.53 1.96-4.61 1.17 0.273 3.46 1.6 3.66 2.12 0.485 1.28-3.55 3.06-5.61 2.49zm14.7-19c-0.876-0.277-1.38-0.781-1.4-1.4-0.0306-1.08 1.5-1.23 2.39-0.243 0.938 1.04 0.322 2.06-0.993 1.64zm56.3-11.5c-1.18-0.824 0.199-4.53 2.01-5.41 1.98-0.967 3.61 0.732 2.63 2.74-0.825 1.69-3.7 3.34-4.64 2.68zm-31.8-1.03c-2.59-1.3-2.57-5.13 0.0277-4.92 1.54 0.128 2.41 2.24 1.7 4.11-0.39 1.03-0.859 1.25-1.73 0.808z" fill="#99d501"/><path d="m90.2 184c-0.996-0.329-1.67-0.901-2.11-1.79l-0.315-0.637-0.0617-1.8 0.184-0.61c0.285-0.942 0.765-1.78 1.63-2.83 2.22-2.7 2.8-3.76 2.8-5.14 4.59e-4 -1.31-0.804-2.03-2.19-1.95l-0.663 0.0384-1.62 0.816-0.845 0.839c-0.518 0.515-1.11 1.23-1.54 1.84-1.79 2.58-3.66 3.67-4.86 2.85-1.08-0.735-0.933-1.85 0.557-4.23 0.616-0.986 0.858-1.56 0.925-2.2l0.0461-0.437-0.192-0.327c-0.535-0.911-1.98-0.911-3.98 1.9e-4 -2.58 1.17-4.91 3.35-7.29 6.81-2.13 3.08-3.48 4.28-5.42 4.77-3.56 0.912-6.21-2.18-4.75-5.54 0.86-1.98 2-2.95 5.25-4.5 1.01-0.481 2.08-1.16 2.08-1.33 0-0.0428-0.216-0.121-0.481-0.173-1.57-0.311-3.5-0.984-4.13-1.44l-0.327-0.237v-0.285-0.285l-0.273-0.169c-0.417-0.258-0.648-0.543-0.7-0.864l-0.0472-0.291 1.64-3.25c1.96-3.88 1.96-3.88 0.645-3.88-1.12-3e-3 -1.63 0.211-3.64 1.53-2.8 1.83-4.69 2.02-5.47 0.562l-0.201-0.376 0.0292-0.549c0.0712-1.34 1.26-2.7 2.98-3.39 0.521-0.21 1.43-0.456 3.03-0.821 1.55-0.355 2.52-0.931 2.8-1.68 0.186-0.486 0.0894-0.674-0.831-1.62-3.62-3.74-3.13-9.79 1.13-14 0.406-0.4 0.738-0.765 0.738-0.811 0-0.341-1.13-0.788-2.45-0.97-0.513-0.0703-1.21-0.167-1.56-0.215-3.17-0.442-4.77-3.01-2.87-4.59 1.58-1.3 3.53-0.635 6.18 2.1 0.998 1.03 2.2 1.6 3.38 1.59l0.627-2e-3 0.886-0.341c0.487-0.187 1.37-0.437 1.96-0.554 1.11-0.22 1.15-0.237 1.62-0.666 1.5-1.37 0.338-4.1-2.67-6.25-0.476-0.341-1.63-0.993-2.92-1.65-2.31-1.17-2.89-1.57-3.52-2.41-2.31-3.05 0.585-7.03 3.89-5.36 1.07 0.54 1.99 1.69 3.02 3.75 1.75 3.5 3.15 5.41 4.77 6.49 1.43 0.954 2.19 1.04 2.32 0.281l0.0533-0.297-0.303-0.615c-1.11-2.25 0.732-2.94 2.89-1.09 2.07 1.77 3.67 1.27 3.27-1.03-0.332-1.94-1.71-3.7-4.06-5.16-2.66-1.65-3.18-2.05-3.93-3.03-3.61-4.71 0.752-10.8 5.8-8.08 1.83 0.977 2.76 2.59 3.93 6.85 0.516 1.88 0.915 3.07 1.34 3.99 1.68 3.65 5.02 5.42 6.44 3.41 1.32-1.88 2.29-1.93 3.97-0.21 1.47 1.49 2.45 1.6 3.2 0.335 0.882-1.47 0.816-3.3-0.234-6.48-1.43-4.34-0.88-7.08 1.66-8.26l0.557-0.259 1.51-8e-3 0.559 0.275c2.22 1.09 2.52 4.16 0.777 7.92-0.205 0.442-0.491 1.17-0.636 1.61l-0.262 0.809-0.0228 2.01 0.167 0.459c0.318 0.874 1.11 1.47 1.74 1.31 0.591-0.148 1.1-1.24 1.23-2.66 0.113-1.24 0.47-1.78 1.18-1.78 0.723 0 0.938 0.469 0.995 2.17l0.0453 1.34 0.161 0.268c0.534 0.89 1.64 0.276 2.43-1.35 0.758-1.56 1.04-3.45 0.883-5.9-0.278-4.3 0.217-6.29 2-8.03 2.34-2.3 5.85-1.82 6.8 0.921l0.188 0.544-2e-3 0.92c-3e-3 1.78-0.595 3.14-2.43 5.57-2.21 2.93-3.16 5.49-2.76 7.42 0.431 2.07 1.71 2.24 3.44 0.475 1.09-1.12 1.8-1.4 2.53-1.02 0.892 0.467 0.868 1.59-0.0596 2.75-0.829 1.04-1 1.61-0.609 2l0.189 0.189 0.452-0.0107c0.51-0.0121 1.21-0.303 2.19-0.914 1.04-0.647 1.66-0.896 2.32-0.935l0.595-0.0346 0.375 0.194c0.557 0.288 0.82 0.725 0.921 1.53 0.101 0.805 0.214 0.992 0.713 1.18l0.386 0.147 0.514-0.0956c1.08-0.201 2.49-1.06 3.83-2.33 1.24-1.18 1.82-1.96 3.57-4.79 1.59-2.56 3.31-3.74 5.36-3.67 2.81 0.0992 3.71 2.98 1.6 5.15-0.836 0.86-1.6 1.28-3.68 2.03-1.63 0.59-2.75 1.14-3.57 1.74-2.37 1.76-2.36 3.87 0.0318 4.32 0.955 0.183 1.05 0.169 1.24-0.179 0.359-0.667 1.17-0.665 4.88 0.0102 4.05 0.737 4.97 1.29 4.5 2.68-0.187 0.55-0.173 0.645 0.117 0.774 0.294 0.13 0.5 0.48 0.5 0.849 0 0.269-0.0839 0.48-1.92 4.83-0.611 1.45-1.09 2.7-1.08 2.8l0.0267 0.188 0.297-8e-3c0.164-4e-3 0.754-0.181 1.31-0.392 3.02-1.14 5.28-0.362 5.29 1.82 3e-3 1.68-1.33 2.55-4.11 2.67-2.2 0.0945-3.23 0.55-3.63 1.6-0.41 1.07 0.233 1.93 2.14 2.86 2.2 1.07 2.88 2.6 1.66 3.75-0.605 0.569-0.917 0.639-2.78 0.623-1.93-0.0169-2.37 0.117-2.74 0.853-0.561 1.1 0.339 2.41 2.6 3.78 0.606 0.368 1.32 0.849 1.59 1.07 2.88 2.35 2.07 6.27-1.29 6.28l-0.753 2e-3 -0.613-0.22c-0.79-0.283-1.34-0.621-2.34-1.43-2.26-1.84-3.63-2.31-4.43-1.51l-0.272 0.272v0.629c0 0.758-0.0354 0.864-0.34 1.02-0.385 0.199-0.394 0.197-1.69-0.446-0.193-0.0958-9e-3 0.368 0.345 0.869 0.599 0.848 1.36 1.59 2.35 2.29 3.49 2.47 4.23 5.65 1.65 7.01l-0.427 0.225-1.51-4e-4 -0.636-0.303c-1.27-0.607-2.11-1.61-3.46-4.17-1.96-3.7-3.85-5.59-6.17-6.16l-0.563-0.137-0.482 0.0957c-0.654 0.13-1.1 0.455-1.38 1.02l-0.231 0.457-0.123 1.12c-0.378 3.45-2.18 3.98-5.02 1.47-0.697-0.615-1.2-0.987-1.66-1.22l-0.658-0.33h-0.537c-2.95 0-2.56 4.35 0.766 8.49 1.52 1.9 2.04 2.94 2.11 4.26 0.11 2.02-0.939 3.47-2.86 3.94l-0.574 0.142-0.664-0.0968c-2.72-0.396-3.94-2.4-4.08-6.67-0.0371-1.15-0.122-2.39-0.189-2.76-0.824-4.52-4.2-5.76-5-1.83-0.581 2.84-2.6 3.72-3.66 1.6l-0.285-0.568-0.0634-1.31c-0.0893-1.85-0.317-2.48-1.05-2.91l-0.38-0.222-0.481 0.0437c-2.38 0.216-4.25 3.6-4.78 8.64-0.357 3.39-1.21 5-3.16 5.95l-0.641 0.311-0.878 0.0223c-0.561 0.0143-0.999-0.0175-1.21-0.0882zm-20.1-17.6c6.24-0.68 11-6 10.3-11.6-0.416-3.44-2.16-5.12-7.47-7.16-3.24-1.25-4.29-2.39-3.75-4.08 0.621-1.92 3.49-2.58 5.95-1.37l0.784 0.386 0.214-0.0754c0.245-0.086 0.229-0.05 1.35-3.13 1.23-3.39 1.23-3.4-1.04-4.29-7.16-2.82-16.4 4.69-14.8 12 0.643 2.91 2.25 4.24 6.86 5.69 3.18 0.996 4.33 1.65 4.59 2.61 0.567 2.04-2.37 3.74-5.71 3.3-1.24-0.164-1.02-0.374-2.35 2.21-2.27 4.42-2.15 4.06-1.51 4.41 1.49 0.82 4.41 1.29 6.55 1.06zm13.5-2.91c2.32-0.81 2.65-0.938 2.83-1.11l0.159-0.148-0.183-2.66c-0.101-1.46-0.225-3.24-0.277-3.94l-0.0943-1.28 0.118-0.114c0.065-0.0626 0.57-0.348 1.12-0.635 4.46-2.31 7.36-5.84 8.19-9.96 1.41-6.97-2.93-11.4-9.64-9.73-2.82 0.684-6.24 2.62-6.54 3.71-0.0898 0.325 0.073 3.47 0.456 8.8 0.117 1.63 0.236 3.33 0.263 3.76l0.0493 0.794 0.196 0.293c0.33 0.494 0.756 1.51 0.965 2.3l0.198 0.753 6.63e-4 1.51c5.08e-4 1.16-0.034 1.65-0.148 2.13-0.176 0.741-0.536 1.87-0.7 2.19l-0.116 0.229 0.0912 1.94c0.056 1.19 0.126 1.97 0.181 2 0.123 0.0763 0.905-0.151 2.87-0.835zm2.04-15.7c-0.0794-0.145-0.13-1.1-0.189-3.57l-0.0812-3.37 0.166-0.166c0.299-0.299 1.32-0.592 2.11-0.607l0.717-0.0129 0.417 0.192c1.99 0.915 1.72 3.85-0.556 6.21-0.662 0.686-1.73 1.42-2.16 1.48l-0.316 0.0424zm9.99 14.6c1.9-0.919 3.82-1.8 6.49-2.98 3.92-1.74 3.43-1.33 3.6-2.98 0.0757-0.724 0.243-2.22 0.372-3.32 0.353-3.02 0.424-2.97-2.47-1.69-1.28 0.565-1.54 0.685-3.33 1.53-1.12 0.529-1.29 0.561-1.44 0.282-0.0856-0.16 1.17-7.96 2.01-12.5 0.227-1.22 0.529-2.89 0.671-3.72s0.332-1.93 0.421-2.45c0.334-1.95 0.254-2.06-1.59-2.32-1.27-0.174-4.16-0.138-4.56 0.0564-0.316 0.154-0.349 0.316-0.42 2.07l-0.0599 1.5 0.256 0.448c0.367 0.642 0.74 1.65 0.949 2.58l0.181 0.799 0.0023 1.51 0.0023 1.51-0.227 1.08c-0.358 1.7-1.02 3.3-1.92 4.65l-0.417 0.627-0.113 1.05c-0.0622 0.575-0.171 1.59-0.242 2.26-0.071 0.667-0.299 2.77-0.506 4.67s-0.4 3.79-0.429 4.2l-0.0524 0.739 0.284 0.383c0.156 0.21 0.353 0.475 0.436 0.589 0.223 0.301 0.294 0.281 2.1-0.59zm9.64-0.742c3.13-0.748 4.51-1.11 4.64-1.22 0.15-0.129 0.236-0.626 0.712-4.13 0.177-1.3 0.23-1.39 1.05-1.64 0.336-0.103 1.01-0.312 1.49-0.464 0.483-0.152 1.25-0.383 1.7-0.513l0.825-0.236 0.158 0.195c0.0868 0.107 0.158 0.306 0.158 0.441 0 0.136 0.0371 0.498 0.0826 0.806 0.0454 0.308 0.16 1.2 0.254 1.98 0.372 3.09 0.435 3.39 0.718 3.39 0.187 0 0.516-0.137 2.42-1.01 0.322-0.147 1.07-0.49 1.67-0.761 1.49-0.682 1.57-0.795 1.3-2.05-0.0468-0.221-0.213-1.19-0.37-2.16-0.157-0.966-0.457-2.77-0.666-4.01-0.465-2.76-0.816-4.96-1.05-6.56-0.0962-0.667-0.23-1.57-0.297-2.01-0.0671-0.437-0.291-2.02-0.498-3.51s-0.417-2.98-0.466-3.3c-0.0498-0.322-0.145-0.981-0.211-1.46-0.399-2.91-0.314-2.79-1.7-2.38-2.34 0.703-4.34 1.46-6.17 2.33l-1.1 0.524-0.091 0.283c-0.05 0.155-0.184 0.715-0.297 1.24-0.171 0.796-2.03 8.9-2.98 13-0.147 0.635-0.218 1.1-0.17 1.11 0.872 0.291 1.12 1.04 0.886 2.73-0.184 1.36-0.452 3.64-0.549 4.67-0.129 1.37-0.345 1.76-1.14 2.06-0.248 0.0926-0.591 0.24-0.762 0.328l-0.312 0.159-0.187 0.781c-0.365 1.53-0.267 1.67 0.959 1.38zm6.44-12.5c-0.108-0.108-0.0508-0.441 0.439-2.54 0.272-1.17 0.762-3.27 1.09-4.68 0.734-3.16 0.7-3.03 0.816-3.07 0.125-0.0415 0.184 0.157 0.272 0.91 0.106 0.902 0.826 6.42 0.964 7.38 0.136 0.951 0.104 1.06-0.347 1.21-2.11 0.667-3.11 0.913-3.23 0.795zm15.1 10.4c0.828-0.159 1.65-0.325 1.82-0.369 1.18-0.305 1.02 0.134 1.28-3.41 0.34-4.72 0.522-6.87 1.04-12.3 0.0921-0.966 0.205-2.17 0.251-2.68 0.17-1.88-0.0657-1.69 2.83-2.26 0.852-0.166 1.26-0.286 1.41-0.409l0.202-0.174 0.293-2.34c0.348-2.78 0.434-4.08 0.281-4.26-0.602-0.725-14.8 2.39-15.1 3.33-0.0804 0.214-0.257 5.9-0.196 6.31 0.0591 0.401 0.264 0.475 0.84 0.306 1.21-0.356 3.64-0.941 3.74-0.901 0.197 0.0757 0.221 0.344 0.126 1.39-0.135 1.48-0.649 7.61-0.797 9.51-0.0702 0.897-0.221 2.82-0.336 4.26s-0.234 3.04-0.264 3.54l-0.0558 0.91 0.578-0.0598c0.318-0.0329 1.25-0.19 2.08-0.348zm10.6-0.435c0.715-0.337 1.24-0.872 1.64-1.66l0.285-0.57 9.1e-4 -0.963 9.1e-4 -0.963-0.275-0.56c-0.311-0.632-0.734-1.04-1.44-1.39l-0.462-0.227-0.627 3e-3c-2.63 0.0119-4.24 2.67-3.11 5.1 0.478 1.02 1.43 1.55 2.73 1.52l0.669-0.0171zm2.56-9.3c1.45-3.71 3.78-9.39 5.2-12.7 2.05-4.78 2.33-5.63 1.91-5.85-0.674-0.355-4.8-1.18-6.55-1.31l-0.809-0.0594-0.0859 0.199c-0.0473 0.11-0.163 0.557-0.257 0.994-0.324 1.5-0.848 3.97-1.05 4.93-0.109 0.529-0.39 1.86-0.625 2.97s-0.52 2.48-0.635 3.05c-0.114 0.575-0.466 2.27-0.782 3.76-0.754 3.57-0.785 3.73-0.732 3.87 0.0529 0.138 0.262 0.176 1.94 0.352 0.688 0.0722 1.27 0.15 1.29 0.173 0.023 0.023 0.267 0.0309 0.541 0.0174l0.499-0.0244zm-31.9-30.4c0.254-0.78 0.199-1.04-0.152-0.731-0.349 0.311-0.502 0.975-0.353 1.53l0.0537 0.201 0.112-0.154c0.0619-0.0846 0.214-0.466 0.339-0.848zm-8.47 59.4c-1.06-0.646-0.958-2.45 0.205-3.66 0.759-0.79 1.4-0.327 1.82 1.32 0.405 1.58-0.862 3.04-2.02 2.34zm26.4-1.8c-1.32-0.354-2.11-1.7-2.11-3.6l2e-5 -1 0.171-0.292c0.0943-0.161 0.271-0.348 0.393-0.416l0.221-0.124 0.472 0.16c1.08 0.366 2.36 1.47 2.79 2.39 0.781 1.69-0.316 3.33-1.94 2.89zm-72.1-25.9c-3.86-1.07-1.97-5.53 1.96-4.61 1.17 0.273 3.46 1.6 3.66 2.12 0.485 1.28-3.55 3.06-5.61 2.49zm14.7-19c-0.876-0.277-1.38-0.781-1.4-1.4-0.0306-1.08 1.5-1.23 2.39-0.243 0.938 1.04 0.322 2.06-0.993 1.64zm56.3-11.5c-1.18-0.824 0.199-4.53 2.01-5.41 1.98-0.967 3.61 0.732 2.63 2.74-0.825 1.69-3.7 3.34-4.64 2.68zm-31.8-1.03c-2.59-1.3-2.57-5.13 0.0277-4.92 1.54 0.128 2.41 2.24 1.7 4.11-0.39 1.03-0.859 1.25-1.73 0.808z" fill="#771daf"/><path d="m90.5 184c-1.81-0.409-2.92-2.15-2.62-4.11 0.204-1.31 0.852-2.49 2.27-4.13 2.34-2.71 2.96-4.88 1.73-6.07-1.47-1.41-4-0.2-6.36 3.05-1.81 2.5-3.27 3.46-4.52 2.98-1.34-0.513-1.27-1.77 0.237-4.17 1.55-2.48 1.31-3.82-0.692-3.82-2.71 0-6.57 2.83-9.43 6.93-2.42 3.46-3.5 4.52-5.27 5.17l-0.653 0.24h-2.17l-0.627-0.302c-3.24-1.56-2.75-5.94 0.941-8.38 0.379-0.251 1.39-0.794 2.24-1.21 1.48-0.718 2.62-1.46 2.45-1.61-0.0382-0.0329-0.483-0.144-0.989-0.246-2.23-0.452-3.97-1.25-3.97-1.82v-0.279l-0.324-0.205c-0.979-0.618-0.981-0.613 0.957-4.44 1.75-3.45 1.77-3.51 1.29-3.75-0.909-0.454-2.31-8e-3 -4.37 1.39-1.73 1.17-2.52 1.5-3.61 1.51l-0.671 4e-3 -0.415-0.214c-1.11-0.572-1.21-1.94-0.228-3.24 0.944-1.24 2.01-1.75 5.22-2.48 1.84-0.42 3-1.21 3-2.04 0-0.404-0.103-0.56-0.92-1.4-3.58-3.67-3.1-9.7 1.11-13.9 0.45-0.445 0.818-0.862 0.818-0.926 0-0.473-1.15-0.862-3.27-1.11-1.85-0.214-2.81-0.543-3.53-1.2-2.11-1.95-0.114-4.72 2.72-3.78 0.853 0.284 1.49 0.752 2.78 2.04 1.57 1.57 2.5 2.06 3.92 2.06h0.602l0.708-0.285c0.792-0.319 1.48-0.511 2.43-0.679 3.07-0.54 2.52-4.14-1.04-6.76-0.932-0.686-1.81-1.19-3.39-1.95-2.55-1.23-3.4-1.96-3.93-3.37-1.1-2.99 1.88-5.68 4.58-4.12 0.943 0.546 1.71 1.53 2.73 3.5 2.05 3.96 3.27 5.59 5.1 6.8 1.34 0.892 2.01 0.969 2.2 0.256 0.101-0.374 0.26-0.426 0.455-0.147 0.318 0.454 0.119 0.788-0.608 1.02l-0.446 0.145-0.558-0.188c-1.01-0.341-1.72-0.715-2.27-1.2-0.299-0.261-0.566-0.474-0.595-0.474-0.37 0-2.12-2.61-3.22-4.8-1.75-3.48-2.83-4.57-4.53-4.57-1.21 0-2.16 1-2.26 2.37l-0.0408 0.569 0.231 0.59c0.466 1.19 1.29 1.88 3.47 2.91 3.91 1.85 6.21 4.09 6.75 6.55l0.142 0.653-0.092 0.537c-0.0563 0.329-0.194 0.703-0.355 0.965-0.32 0.52-0.416 0.452 0.846 0.605 1.93 0.234 4.38 1.28 4.82 2.06 0.18 0.317 0.098 0.34 1.07-0.299 2.73-1.81 5.43-2.67 8.27-2.67l1.67 5e-3 0.644 0.179c1.06 0.295 2.06 0.769 2.79 1.33 0.799 0.609 0.751 0.649 0.83-0.694 0.0692-1.18 0.246-1.7 0.667-1.96 0.536-0.332 3.35-0.441 5.35-0.207l1.08 0.126 0.592 0.318c0.764 0.411 0.965 0.731 0.967 1.54l1e-3 0.568 0.376 0.511-0.0144 0.974c-0.0145 0.984-0.107 1.57-1.1 7-0.185 1.01-0.472 2.63-0.638 3.6s-0.393 2.28-0.505 2.93c-0.265 1.52-0.4 2.56-0.341 2.62 0.0476 0.0476 0.157 4e-3 1.68-0.678 0.46-0.206 1.26-0.551 1.77-0.767l0.933-0.393 0.128-0.514c0.0705-0.283 0.378-1.61 0.682-2.94 0.305-1.33 0.799-3.48 1.1-4.77 0.873-3.75 1.36-5.88 1.55-6.76 0.111-0.515 0.263-0.955 0.411-1.19l0.235-0.37 0.791-0.38c2.39-1.15 5.23-2.21 7.37-2.76 1.21-0.311 1.86 0.143 2.01 1.38 0.0399 0.348 0.146 0.693 0.297 0.962 0.147 0.263 0.256 0.61 0.292 0.932 0.0312 0.282 0.0908 0.564 0.132 0.627l0.0755 0.115 0.0863-0.146c0.446-0.756 8.76-2.85 14.1-3.53l1.65-0.215 0.357 0.158c0.403 0.178 0.805 0.608 0.824 0.88 7e-3 0.1 3e-3 0.42-9e-3 0.71l-0.0213 0.529 0.394 0.421-9e-3 0.85c-8e-3 0.713 0.107 0.985 0.13 0.306 4e-3 -0.115 0.135-0.755 0.291-1.42 0.156-0.667 0.31-1.39 0.341-1.6l0.0574-0.385-0.488-0.052c-0.269-0.0286-0.808-0.164-1.2-0.3l-0.711-0.248-0.429-0.458c-1.88-2.01 0.46-4.93 5.36-6.7 0.598-0.216 1.37-0.539 1.71-0.718 2.56-1.33 3.22-3.7 1.3-4.69l-0.328-0.169-1.62 0.0652-0.731 0.362c-1.34 0.663-1.97 1.4-3.93 4.53-3.45 5.52-8.84 7.73-9.36 3.82-0.167-1.25-1.1-1.26-3.24-0.033-2.07 1.17-3.09 1.27-3.77 0.361l-0.176-0.236 0.0102-0.558c0.0126-0.692 0.143-1.01 0.679-1.65 1.73-2.08 0.605-2.86-1.34-0.93-1.16 1.15-1.87 1.46-2.78 1.19-2.1-0.609-2.38-4.06-0.621-7.49 0.393-0.764 0.734-1.28 2.32-3.53 2.22-3.13 2.34-5.98 0.295-7.02l-0.569-0.288-0.797 8e-3c-1.85 0.0196-3.31 1.16-4.08 3.17-0.466 1.23-0.483 1.4-0.455 4.68 0.0275 3.22-0.0189 3.88-0.371 5.23-1.12 4.3-4.61 5.55-4.64 1.65-0.0128-2.16-0.197-2.44-1.01-1.54l-0.31 0.342-3e-3 -0.28c-0.011-0.899 0.885-1.48 1.49-0.968 0.353 0.297 0.447 0.718 0.458 2.04l9e-3 1.13 0.15 0.301c0.804 1.62 2.79-0.561 3.33-3.65l0.161-0.92-0.0476-6.69 0.227-0.812c0.836-2.99 3.18-4.88 5.61-4.53 3.52 0.507 4.11 4.5 1.24 8.43-2.82 3.86-3.39 5.13-3.39 7.48l-3e-3 1.13 0.238 0.485c0.274 0.558 0.691 0.884 1.22 0.955l0.341 0.0458 0.537-0.264c0.41-0.202 0.69-0.432 1.18-0.972 0.488-0.538 0.771-0.771 1.18-0.97l0.533-0.262 0.349 0.0468c1.31 0.176 1.42 1.52 0.236 2.99-0.715 0.888-0.861 1.49-0.461 1.89 0.458 0.458 1.34 0.228 3.02-0.789 2.35-1.42 3.77-1.1 4.01 0.902 0.205 1.73 2.06 1.6 4.53-0.315 1.55-1.2 2.55-2.4 4.06-4.86 1.52-2.47 2.24-3.25 3.67-3.97 4.04-2.03 6.72 2.22 3.18 5.05-0.649 0.52-1.67 1.02-3.27 1.6-3.09 1.11-4.85 2.46-5.19 3.95-0.269 1.2 0.499 2 2.15 2.23 0.707 0.1 0.813 0.0721 0.946-0.249 0.275-0.664 1.65-0.622 5.6 0.169 3.46 0.694 4.14 1.17 3.64 2.59-0.173 0.49-0.162 0.55 0.129 0.67 0.798 0.331 0.753 0.544-1.01 4.72-1.96 4.65-1.99 4.4 0.361 3.55 2.94-1.06 5.1-0.299 5.09 1.8-9e-3 1.68-1.27 2.48-4.14 2.64-1.93 0.105-2.53 0.297-3.2 1.02-1.09 1.18-0.483 2.46 1.64 3.46 2.64 1.25 3.2 3.23 1.16 4.13l-0.438 0.194-3.43 8e-3 -0.348 0.186c-1.7 0.908-0.89 2.82 1.91 4.52 2.6 1.57 3.65 3.12 3.32 4.89-0.514 2.83-3.63 3.2-6.6 0.771-2.46-2.01-4.17-2.47-4.81-1.28l-0.164 0.307 0.0866 0.423c0.168 0.819-0.354 1.3-0.953 0.881-0.205-0.144-0.176-0.287 0.0584-0.287 0.236 0 0.426-0.277 0.426-0.621 0-0.173 0.0531-0.434 0.118-0.579 0.0649-0.145 0.142-0.407 0.172-0.582 0.0701-0.415 0.271-0.605 0.808-0.764 1.16-0.344 2.4 0.139 4.45 1.73 2.18 1.7 3.56 2.04 4.8 1.21 0.559-0.375 0.795-0.839 0.842-1.66l0.0375-0.648-0.262-0.559c-0.513-1.1-1.38-1.93-2.85-2.74-2.71-1.5-3.76-3.92-2.28-5.25 0.692-0.624 1.38-0.773 3.2-0.696l1.13 0.0475 0.411-0.148c0.554-0.2 0.761-0.491 0.755-1.07-7e-3 -0.743-0.545-1.22-2.45-2.17-1.86-0.929-2.44-2.88-1.26-4.18 0.805-0.88 1.73-1.21 3.71-1.31 2.56-0.129 3.61-0.822 3.35-2.2-0.247-1.32-1.82-1.58-4.21-0.708-0.758 0.277-1.4 0.451-1.89 0.515l-0.745 0.0973-0.23 0.504c-0.126 0.277-0.538 1.26-0.916 2.18-0.377 0.92-0.817 1.97-0.978 2.34s-0.592 1.42-0.958 2.34c-0.946 2.37-0.959 2.38-3.07 2.06-1.56-0.242-1.68-0.228-0.921 0.105 1.07 0.466 1.64 1.08 2.09 2.23 0.0979 0.253 0.285 0.667 0.415 0.92 1.16 2.26-0.196 5.24-2.68 5.86-1.66 0.417-2.91-0.0567-4.39-1.67l-0.753-0.82-0.228-0.591c-1.04-2.69 0.663-5.76 3.44-6.22l0.597-0.0987-0.232-0.141c-0.285-0.174-0.413-0.327-0.453-0.542-0.0226-0.122-0.126-0.181-0.399-0.228-0.653-0.112-1.02-0.667-0.851-1.3 0.107-0.403 0.7-3.2 1.68-7.92l0.309-1.49-0.174 0.0394c-0.0957 0.0217-0.757 0.158-1.47 0.303-1.82 0.371-1.91 0.399-1.96 0.616-0.0228 0.102-0.135 1.09-0.25 2.19-0.114 1.1-0.302 2.91-0.417 4.01-0.386 3.71-0.687 7.42-0.896 11l-0.106 1.83-0.17 0.253c-0.246 0.365-0.578 0.527-1.38 0.672-0.391 0.0707-1.24 0.227-1.88 0.347-2.1 0.392-2.67 0.367-2.95-0.128l-0.143-0.251-1.06-0.00106-0.244-0.244c-0.175-0.175-0.244-0.326-0.244-0.53 0-0.414-0.0427-0.419-0.7-0.0884-3.57 1.8-4.93 2.18-5.23 1.46l-0.101-0.244-0.377-0.0425c-0.679-0.0765-0.97-0.502-1.08-1.57-0.0294-0.299-0.128-1.13-0.22-1.84-0.0917-0.713-0.189-1.48-0.216-1.7l-0.049-0.405-0.176 0.0386c-0.576 0.127-2.11 0.584-2.37 0.708l-0.312 0.147-0.102 0.618c-0.0563 0.34-0.179 1.17-0.273 1.84-0.383 2.74-0.399 2.81-0.779 3.06-0.284 0.186-4.95 1.31-5.62 1.36l-0.585 0.04-0.224-0.178c-0.123-0.0978-0.236-0.262-0.251-0.364l-0.0265-0.186-0.376-0.0457c-0.693-0.084-1-0.387-1-0.976 0-0.45-4e-3 -0.45-1.08 0.0503-0.485 0.224-1.56 0.72-2.39 1.1-0.828 0.381-2.26 1.05-3.18 1.48-2.18 1.03-2.53 1.05-2.97 0.148-0.102-0.211-0.38-0.581-0.616-0.822s-0.561-0.661-0.722-0.934l-0.293-0.497 2e-3 -0.714c0.0011-0.393 0.0882-1.49 0.194-2.43 0.354-3.17 0.386-3.47 0.595-5.52 0.0491-0.483 0.108-0.963 0.132-1.07 0.0584-0.258-0.13-0.244-0.385 0.0289-0.563 0.603-2.56 1.94-3.9 2.62l-0.69 0.347 0.0012 0.48c0.0011 0.427 0.239 4.41 0.384 6.43l0.0548 0.764-0.194 0.344c-0.258 0.459-0.525 0.582-3.05 1.41-3.24 1.06-3.39 1.08-3.69 0.514l-0.134-0.259-0.374 0.0512c-0.731 0.1-1.2-0.328-1.2-1.1 0-0.495-0.024-0.485-0.973 0.427-2.42 2.32-5 3.51-8.35 3.83l-1 0.0971-0.46 0.391c-0.682 0.58-1.2 0.888-3.09 1.84-0.943 0.472-1.94 1.02-2.23 1.22-3.01 2.15-3.41 5.68-0.789 6.92l0.548 0.259 0.753-9e-3c1.9-0.0232 3.62-1.18 5.3-3.54 0.31-0.437 0.88-1.24 1.27-1.79 3.81-5.37 9.62-8.49 11.8-6.32 0.867 0.867 0.688 2.1-0.616 4.22-1 1.63-1.24 2.53-0.796 2.98l0.176 0.176 0.514-0.0347c1.01-0.068 1.81-0.728 3.17-2.61 1.44-1.99 2.6-3.05 4.01-3.67l0.611-0.267 1.84-6e-3 0.426 0.225c0.781 0.412 1.23 1.09 1.39 2.11l0.0969 0.623-0.189 0.737c-0.345 1.34-1.02 2.46-2.65 4.39-2.77 3.28-2.27 6.75 0.972 6.76 2.29 6e-3 3.59-1.9 4.01-5.88 0.452-4.34 2.03-7.48 4.37-8.72l0.606-0.321 1.34-6e-3 0.386 0.227c1.04 0.609 1.36 1.4 1.49 3.59l0.0642 1.14 0.193 0.398c0.673 1.39 1.89 0.702 2.28-1.3 0.932-4.68 5.34-3.67 6.41 1.47 0.13 0.625 0.194 1.37 0.252 2.94 0.0831 2.28 0.221 3.15 0.618 3.93 0.707 1.39 1.87 2.2 3.2 2.21l0.597 7e-3 0.569-0.266c0.646-0.302 1.09-0.727 1.38-1.32l0.2-0.406v-1.84l-0.244-0.585c-0.338-0.811-0.619-1.25-1.59-2.51-2.01-2.59-2.76-4.24-2.86-6.28l-0.0452-0.931 0.175-0.576c0.816-2.69 3.23-2.72 6.1-0.0942 1.5 1.38 2.6 1.52 3.21 0.432l0.234-0.413 0.267-2.34 0.259-0.567c1.02-2.24 3.83-2.09 6.58 0.35 1.19 1.06 2.05 2.24 3.41 4.72 1.38 2.51 1.92 3.18 3 3.73l0.575 0.293 0.545-2e-3c0.974-4e-3 1.56-0.436 1.8-1.33 0.404-1.49-0.441-2.9-2.8-4.66-1.13-0.847-2.07-1.8-2.29-2.33-0.0848-0.207-0.229-0.527-0.321-0.711-0.17-0.343-0.19-1-0.0297-1 0.0445 0 0.151 0.188 0.236 0.418 0.345 0.93 1.53 2.23 3.03 3.34 3.14 2.31 3.96 4.78 2.13 6.43-1.88 1.69-4.25 0.382-6.31-3.46-2.03-3.79-3.2-5.12-5.45-6.2l-0.718-0.344-1.4-0.0734-0.453 0.222c-0.83 0.406-1.08 0.927-1.26 2.61-0.339 3.24-2.12 3.73-4.85 1.34-1.4-1.23-2.14-1.63-2.98-1.63-1.89-6.1e-4 -2.54 2.33-1.42 5.14 0.458 1.15 0.759 1.61 2.87 4.38 1.95 2.55 1.88 5.34-0.178 6.7-2.31 1.53-5.39-0.0256-6.22-3.15l-0.173-0.652-0.0705-2.05c-0.0797-2.32-0.159-3-0.466-4.01-1.17-3.86-4.25-4.33-4.88-0.749-0.288 1.65-1.03 2.59-2.03 2.59-1.21 0-1.76-0.916-1.85-3.05-0.115-2.88-1.41-3.82-3.36-2.42-1.9 1.36-3.02 3.97-3.43 8.03-0.46 4.57-2.61 6.96-5.63 6.27zm-18.8-17.7c5.43-1.29 9.11-5.78 8.92-10.9-0.141-3.72-1.93-5.67-7.09-7.7-3.45-1.36-4.36-2.11-4.25-3.53 0.169-2.24 3.09-3.14 5.92-1.82l0.814 0.38 0.203-0.077c0.342-0.13 0.271 0.0286 1.57-3.54 1.11-3.05 1.11-3.03-0.62-3.89-7.65-3.82-18.2 5.18-15.3 13 0.906 2.35 2.38 3.42 6.51 4.72 3.58 1.12 4.53 1.7 4.66 2.82 0.212 1.88-2.54 3.24-5.75 2.83-1.18-0.15-0.943-0.416-2.74 3.09-1.66 3.24-1.63 3.17-1.57 3.39 0.0992 0.395 1.83 1.07 3.56 1.38l0.882 0.16 3.35-0.061zm11.2-2.39c2.03-0.688 3.31-1.15 3.56-1.27 0.374-0.193 0.378-0.32 0.111-4.09-0.138-1.95-0.252-3.71-0.252-3.9l-3.19e-4 -0.349 0.883-0.442c4.54-2.27 7.67-6.03 8.52-10.2 0.995-4.89-0.967-8.88-4.89-9.94l-0.711-0.192-1.55-3e-3c-3.02-5e-3 -6.74 1.39-8.82 3.31-0.718 0.662-0.722 0.0556 0.0681 11.6l0.184 2.68 0.177 0.25c1.42 2.01 1.62 5.55 0.467 8.49l-0.244 0.622 0.0767 1.92c0.101 2.53-0.0918 2.4 2.41 1.56zm2.99-16.1c-0.0742-0.0892-0.123-0.407-0.138-0.899-0.198-6.49-0.23-6.06 0.475-6.33 2.03-0.758 3.53-0.134 3.79 1.58l0.0906 0.585-0.149 0.615c-0.438 1.81-1.83 3.55-3.53 4.41-0.422 0.213-0.394 0.211-0.537 0.0393zm2.14-2.36c0.789-0.953 1.51-2.99 1.14-3.22-0.244-0.151-1.15-0.143-1.6 0.0141l-0.46 0.161 0.0218 1.75c0.012 0.961 0.0432 1.81 0.0693 1.9l0.0475 0.15 0.299-0.262c0.164-0.144 0.381-0.362 0.482-0.484zm6.88 17.5c2.61-1.24 4.17-1.96 6.71-3.09 4.73-2.11 4.16-1.65 4.35-3.52 0.082-0.795 0.253-2.32 0.379-3.39 0.25-2.12 0.239-2.27-0.18-2.46l-0.218-0.0993-0.431 0.152c-0.638 0.224-2.53 1.05-4.26 1.86-0.838 0.392-1.64 0.765-1.79 0.828l-0.263 0.116-0.1-0.121c-0.0983-0.118 1.16-8.07 1.85-11.7 1.03-5.4 1.48-8.27 1.33-8.62-0.299-0.722-2.8-1.11-5.48-0.847-1.42 0.139-1.4 0.0991-1.51 2.54l-0.0588 1.29 0.299 0.536c1.84 3.29 1.44 8.08-1 12l-0.457 0.729-0.33 3.08c-1.19 11.1-1.1 9.63-0.61 10.4 0.634 0.94 0.563 0.926 1.76 0.355zm12.1-1.52c2.63-0.623 3.08-0.763 3.2-0.995 0.0529-0.104 0.251-1.3 0.44-2.65 0.411-2.95 0.295-2.69 1.36-3.01 0.471-0.143 1.14-0.348 1.48-0.457 1.2-0.379 2.07-0.628 2.21-0.628 0.173 0 0.172-6e-3 0.51 2.68 0.434 3.45 0.474 3.7 0.607 3.92l0.123 0.198 0.269-0.0436c0.378-0.0613 5.12-2.24 5.37-2.46 0.293-0.268 0.293-0.271-0.671-6.05-0.983-5.89-1.17-7.08-1.93-12.5-0.3-2.12-0.692-4.86-0.871-6.1l-0.326-2.26-0.218-0.188c-0.284-0.244-0.243-0.249-1.73 0.183-2.38 0.69-6.55 2.4-6.91 2.83-0.12 0.145-0.0778-0.0316-1.81 7.5-0.754 3.29-1.48 6.47-1.62 7.07l-0.25 1.09 0.18 0.143c0.0987 0.0785 0.288 0.226 0.42 0.329 0.597 0.462 0.578 1.01-0.267 7.57-0.11 0.854-0.257 1.02-1.27 1.45-0.481 0.203-0.852 0.411-0.876 0.491-0.122 0.402-0.382 1.72-0.382 1.93 0 0.64 0.188 0.639 2.97-0.0217zm4.89-12.5c0-0.224 2.14-9.42 2.21-9.49 0.0786-0.0786 0.11 0.112 0.465 2.86 0.19 1.47 0.439 3.36 0.554 4.21 0.114 0.841 0.184 1.57 0.155 1.61-0.0715 0.116-0.252 0.179-1.75 0.617-1.5 0.439-1.63 0.454-1.63 0.187zm2.3-1.25 0.218-0.0993-0.0568-0.549c-0.0312-0.302-0.084-0.699-0.117-0.883l-0.0605-0.334-0.0625 0.334c-0.0344 0.184-0.134 0.6-0.222 0.925-0.215 0.795-0.196 0.833 0.301 0.606zm11.9 12.2c2.08-0.377 3.41-0.669 3.61-0.799 0.251-0.159 0.254-0.174 0.403-2.34 0.313-4.54 0.64-8.49 1.04-12.6 0.0881-0.897 0.224-2.31 0.301-3.14 0.191-2.04-0.0601-1.81 2.63-2.34 1.94-0.38 1.75-0.063 2.17-3.55 0.469-3.86 0.453-4.11-0.267-4.11-2.85 8e-3 -13.9 2.53-14.8 3.37l-0.189 0.185-0.0811 1.88c-0.0446 1.03-0.0817 2.5-0.0825 3.26l-1e-3 1.38 0.13 0.186c0.189 0.27 0.39 0.245 2.52-0.317 1.05-0.276 1.95-0.485 2.01-0.463 0.15 0.0574 0.146 0.117-0.309 5.45-0.227 2.66-0.474 5.65-0.548 6.64-0.074 0.989-0.206 2.64-0.294 3.68-0.375 4.42-0.573 4.01 1.71 3.59zm-67.6-0.233c0.387-0.164 1.21-0.634 1.84-1.04 2.55-1.67 3.98-2.02 5.23-1.27l0.466 0.281 0.26-0.0745c0.176-0.0505 0.425-0.0356 0.773 0.0465 1.54 0.364 3.88-0.0135 4.67-0.756 0.847-0.792 0.68-0.922-2.74-2.13-1.71-0.607-2.98-1.1-3.18-1.25-0.046-0.0336-0.301-0.183-0.566-0.332l-0.482-0.271-0.12 0.287c-0.526 1.26-1.85 2.01-4.69 2.65-0.863 0.196-1.39 0.373-2.02 0.673l-0.844 0.407-0.445 0.486c-1.74 1.9-0.599 3.33 1.83 2.3zm79.2-0.383c0.762-0.377 1.29-0.935 1.7-1.79l0.309-0.646v-1.84l-0.274-0.557c-1.24-2.51-4.67-2.33-5.93 0.313-1.16 2.45 0.363 4.97 2.93 4.85l0.659-0.0316zm-13.5-9.84c0.189-2.18 0.381-4.4 0.426-4.93s0.105-1.14 0.132-1.35c0.067-0.522 0.0627-0.523-1.26-0.193-0.636 0.159-1.26 0.289-1.39 0.289h-0.238v0.26c0 0.466 0.938 6.48 1.34 8.6 0.0918 0.483 0.226 1.2 0.298 1.59 0.214 1.16 0.228 1.18 0.291 0.418 0.0322-0.391 0.213-2.5 0.402-4.68zm15.9 0.848c0.0857-0.0857 0.336-0.622 0.557-1.19 0.966-2.5 2.97-7.36 5.39-13.1 1.71-4.07 1.8-4.35 1.45-4.69-0.391-0.391-4.63-1.29-6.9-1.46l-0.727-0.0557-0.126 0.284c-0.0692 0.156-0.371 1.45-0.671 2.88s-0.732 3.48-0.959 4.56-0.609 2.91-0.848 4.06c-0.238 1.15-0.671 3.22-0.962 4.6s-0.577 2.75-0.637 3.04l-0.108 0.532 0.183 0.148c0.123 0.0995 0.466 0.182 1.04 0.25 0.473 0.0558 1.22 0.15 1.65 0.208 1.18 0.159 1.48 0.154 1.66-0.0279zm-61-1.49c-0.333-4.75-0.402-5.81-0.402-6.19 4.19e-4 -0.586-0.109-0.614-0.28-0.0709-0.692 2.19-1.14 2.4-3.3 1.49-1.67-0.701-3.55-0.312-4.11 0.85-0.321 0.662 0.0192 0.909 2.72 1.98 2.73 1.08 4.91 2.25 5.27 2.83 0.134 0.217 0.168-0.0552 0.109-0.892zm-12.9-13 0.521-0.392-0.91-0.438c-0.984-0.473-1.58-0.924-3.02-2.3-1.01-0.962-1.37-1.19-2.25-1.42l-0.662-0.17-0.412 0.0881c-1.8 0.384-1.75 2.29 0.0706 3.17 0.35 0.169 1.37 0.394 2.68 0.589 1.06 0.158 2.87 0.811 3.14 1.13 0.159 0.191 0.276 0.153 0.837-0.268zm33.6 43c-1.02-0.68-0.748-2.63 0.521-3.7 1.05-0.883 2.11 2.12 1.19 3.36-0.407 0.545-1.17 0.694-1.71 0.334zm0.966-0.616c0.426-0.163 0.559-1.47 0.227-2.23-0.212-0.48-0.364-0.5-0.631-0.0836-0.819 1.28-0.572 2.69 0.404 2.31zm25.4-1.13c-1.44-0.417-2.38-2.58-1.96-4.48 0.424-1.89 3.98 0.416 4.09 2.65l0.0305 0.635-0.172 0.337c-0.384 0.752-1.17 1.09-1.99 0.852zm1.11-0.925c0.77-0.724 0.278-1.96-1.24-3.14-0.96-0.739-1.19-0.748-1.27-0.0486-0.229 2.09 1.44 4.2 2.52 3.19zm-73.5-25.1c-3.48-1.22-1.42-5.34 2.21-4.41 1.05 0.269 3.33 1.55 3.57 2.01 0.344 0.643-0.651 1.55-2.46 2.24l-0.767 0.293-2.01 0.0614zm2.79-0.783c0.866-0.273 1.34-0.508 1.89-0.948l0.435-0.344-0.0842-0.157c-0.114-0.212-1.64-1.02-2.46-1.3l-0.663-0.226-0.758 0.0294c-1.27 0.0491-1.97 0.505-2.11 1.36-0.223 1.38 1.76 2.21 3.75 1.58zm11.9-18.2c-1.15-0.42-1.52-1.65-0.63-2.07 1.05-0.5 2.75 1.12 2.06 1.97-0.201 0.248-0.901 0.301-1.43 0.108zm0.913-0.58c0-0.403-0.535-0.87-0.998-0.87-0.554 0-0.382 0.499 0.274 0.798 0.513 0.233 0.725 0.254 0.725 0.0726zm12.3-3.88c-0.443-0.133-1.32-0.683-1.96-1.22-0.714-0.607-1.07-0.786-1.55-0.786h-0.326l-0.0819 0.215c-0.058 0.153-0.0452 0.374 0.0439 0.758 0.233 1 0.116 1.09-0.418 0.318-0.72-1.04-0.343-2.04 0.77-2.04 0.552 0 1.11 0.289 1.94 1 2.53 2.18 4.28 0.999 3.13-2.12-0.671-1.81-1.89-2.99-5.15-4.99-2.61-1.6-3.86-3.53-3.84-5.95l0.0074-0.878 0.232-0.698c0.491-1.48 1.49-2.54 2.85-3.04l0.489-0.181 2.01-8e-3 0.559 0.193c2.3 0.796 3.5 2.55 4.68 6.86 1.36 5 2.65 7.15 4.92 8.27l0.627 0.309h1.52l0.354-0.234c0.195-0.129 0.475-0.409 0.621-0.622 1.24-1.8 2.15-1.84 3.83-0.144 1.43 1.45 2.37 1.6 3.17 0.517 1.03-1.4 0.992-3.46-0.134-6.81-0.98-2.92-1.04-4.55-0.241-6.18 1.33-2.71 4.61-3 5.85-0.523 0.803 1.61 0.627 3.62-0.548 6.24-1.31 2.92-1.39 5.03-0.24 6.07 1.01 0.913 1.77 0.518 2.34-1.23 0.217-0.66 0.411-0.729 0.543-0.194l0.0799 0.323-0.19 0.544c-1.13 3.24-4.55 1.51-4.25-2.15 0.0737-0.896 0.378-1.96 0.93-3.26 1.37-3.23 1.46-5.22 0.283-6.56l-0.339-0.385-0.586-0.178c-2.27-0.691-4.07 1.79-3.58 4.94 0.0467 0.299 0.331 1.33 0.632 2.28 0.68 2.16 0.871 3.12 0.87 4.35-4e-3 2.9-1.57 4.69-3.48 3.98l-0.488-0.182-0.893-0.9c-1.45-1.46-2-1.53-2.83-0.361-0.83 1.17-1.44 1.5-2.63 1.44l-0.69-0.0362-0.732-0.351c-2.55-1.23-4.02-3.56-5.35-8.5-1.23-4.55-2.42-6.18-4.9-6.7l-0.611-0.127-0.53 0.0924c-2.35 0.41-3.67 2.45-3.23 4.98 0.281 1.61 1.29 2.94 3.13 4.15 2.32 1.52 2.67 1.75 3.21 2.21 3.58 3.02 3.72 8.53 0.194 7.47zm43.6-6.83c-0.0978-0.0211-0.267-0.134-0.376-0.25l-0.199-0.212 7e-3 -0.808c0.0295-3.2 3.14-5.69 4.78-3.83 0.777 0.885 0.419 2.37-0.858 3.55-1.12 1.04-2.58 1.72-3.35 1.55zm1.55-1.12c2.56-1.33 3.2-4.46 0.771-3.77-1.19 0.343-2.53 2.79-2.2 4.05l0.0406 0.156 0.371-0.0508c0.204-0.028 0.663-0.203 1.02-0.388zm-33.6 0.0116c-0.592-0.269-1.34-1.04-1.69-1.75l-0.312-0.631 0.0058-0.594c0.0216-2.21 2.48-2.64 3.56-0.612l0.189 0.353-5.26e-4 1-5.27e-4 1-0.243 0.527c-0.389 0.845-0.786 1.03-1.52 0.696zm0.756-0.71c0.832-1.27 0.163-3.4-1.07-3.4h-0.381l-0.254 0.254c-0.745 0.745-0.0722 2.54 1.2 3.2 0.331 0.174 0.351 0.171 0.502-0.0594z" fill="#4b1270"/><path d="m90.5 184c-2.07-0.449-3.13-2.49-2.46-4.74 0.319-1.08 0.926-2.01 2.52-3.9 2.28-2.69 2.56-5.43 0.627-6.09-1.78-0.605-3.83 0.674-5.96 3.72-1.23 1.75-2.46 2.72-3.57 2.81l-0.49 0.0408-0.376-0.194c-0.271-0.14-0.431-0.299-0.571-0.571l-0.194-0.376 0.0485-0.499c0.0585-0.602 0.357-1.27 1.11-2.46 2.25-3.59 0.553-5.19-3.44-3.24-2.84 1.38-4.77 3.25-7.63 7.38-2.13 3.08-3.93 4.28-6.3 4.2l-0.89-0.0305-0.657-0.325c-3.79-1.87-2.22-6.88 2.89-9.22 2.16-0.99 3.34-1.85 2.73-1.99-0.103-0.023-0.64-0.141-1.19-0.261-1.06-0.232-2.48-0.725-3.18-1.1l-0.418-0.227-0.0515-0.712-0.322-0.164c-0.833-0.425-0.849-0.777-0.1-2.26 2.97-5.88 2.85-5.58 2.36-5.91-0.853-0.582-2.25-0.146-4.68 1.47-2.25 1.49-3.81 1.82-4.75 0.991-1.63-1.43 0.311-4.16 3.53-4.95 0.46-0.113 1.33-0.324 1.92-0.468 2.96-0.714 3.64-1.9 1.98-3.47-3.03-2.86-3.21-7.79-0.44-12 0.506-0.769 2.53-2.87 3.19-3.31 1.27-0.85 1.25-0.804 0.476-1.07-1.46-0.511-1.38-0.9 0.0975-0.455 0.309 0.0931 0.781 0.16 1.13 0.16h0.598l0.752-0.296c0.848-0.333 1.46-0.504 2.4-0.669 3.07-0.54 2.7-4.02-0.727-6.69-0.997-0.779-1.9-1.31-3.76-2.22-2.35-1.15-3.11-1.77-3.68-3.02-0.783-1.71-0.153-3.65 1.44-4.43l0.558-0.275h1.44l0.705 0.35c0.388 0.193 0.851 0.501 1.03 0.686l0.327 0.336-0.107 0.129c-0.151 0.182-0.156 0.18-0.915-0.325-3.42-2.28-5.96 2.27-2.71 4.84 0.266 0.21 1.25 0.769 2.2 1.24 5.56 2.79 8.05 6.28 6.26 8.76-0.319 0.44-0.31 0.445 0.916 0.566 2.01 0.199 4.62 1.31 4.95 2.1 0.143 0.345 0.212 0.327 1.13-0.294 4.73-3.21 10.3-3.66 13.5-1.1 0.842 0.68 0.77 0.788 0.925-1.38 0.0608-0.857 0.232-1.19 0.749-1.44l0.333-0.163 1.97-0.0337c4.09-0.0702 5.3 0.391 5.28 2.02l-8e-3 0.57 0.181 0.245c0.406 0.549 0.328 1.39-0.599 6.5-1.4 7.74-1.91 10.9-1.79 11 0.044 0.0438 0.541-0.132 1.2-0.427 0.621-0.276 1.62-0.71 2.22-0.965 0.598-0.255 1.13-0.507 1.18-0.56 0.0911-0.0903 0.222-0.624 1.12-4.57 0.193-0.851 0.594-2.58 0.89-3.85 0.296-1.26 0.782-3.37 1.08-4.68 0.644-2.84 0.663-2.9 0.944-3.21 0.689-0.757 7.55-3.4 8.82-3.4 0.73 6.7e-4 1.1 0.45 1.22 1.47 0.0384 0.343 0.131 0.716 0.205 0.829 0.0742 0.113 0.174 0.405 0.222 0.647 0.27 1.38 0.298 1.42 0.715 1l0.327-0.325 1.46-0.466c4.19-1.33 8.62-2.32 12.3-2.74l1.5-0.17 0.386 0.192c0.253 0.126 0.438 0.292 0.537 0.484l0.151 0.293-0.0515 0.564c-0.0401 0.439-0.0225 0.606 0.0789 0.75l0.13 0.186 3e-3 1.72c1e-3 0.993 0.0327 1.66 0.074 1.59 0.0757-0.133 0.324-1.22 0.765-3.35 0.514-2.48 0.516-2.34-0.031-2.34-0.591 0-1.85-0.447-2.31-0.823-1.13-0.914-0.831-2.84 0.594-3.83 0.17-0.118 0.415-0.368 0.545-0.556 0.426-0.617 2-1.5 3.83-2.15 2.39-0.847 3.49-1.6 4.13-2.8l0.219-0.418 4e-3 -1.45-0.253-0.361c-1.03-1.46-3.3-1.17-5.15 0.675-0.797 0.797-1.1 1.22-2.38 3.3l-0.664 1.08-1.22 1.31c-3.74 4-6.81 4.81-7.28 1.91-0.263-1.63-1.19-1.75-3.47-0.427-1.27 0.74-1.8 0.952-2.38 0.952-1.59 5.1e-4 -1.92-1.36-0.699-2.88 0.799-0.994 0.976-1.61 0.577-2.01-0.427-0.427-1.02-0.166-2.09 0.923-3.16 3.2-5.65-0.168-3.74-5.06 0.413-1.06 1.12-2.26 2.2-3.72 2.87-3.91 3.19-6.8 0.887-8.02-2.34-1.24-5.08 0.558-6.02 3.94l-0.177 0.642-0.012 7.02-0.15 0.65c-0.409 1.77-0.927 2.86-1.77 3.71l-0.589 0.595-0.429 0.092c-0.71 0.152-1.24-0.0771-1.55-0.677l-0.188-0.354-0.0249-1.25c-0.0286-1.44-0.0488-1.58-0.273-1.8-0.221-0.221-0.259-0.213-0.677 0.136-0.4 0.335-0.492 0.277-0.277-0.176 0.349-0.735 1.15-0.724 1.48 0.0211l0.17 0.383 0.0216 2.36 0.167 0.334c0.105 0.211 0.277 0.388 0.463 0.479l0.296 0.145 0.328-0.0906c1-0.277 2.09-2.22 2.42-4.34l0.136-0.871-0.0246-3.3-0.0245-3.3 0.193-0.711c1.08-4 5.17-5.97 7.51-3.64 1.84 1.84 1.38 4.52-1.43 8.32-1.48 2.01-2.15 3.25-2.56 4.78l-0.189 0.697-6e-3 2.26 0.192 0.417c0.703 1.53 1.88 1.49 3.43-0.0922 1.09-1.12 1.77-1.41 2.44-1.05 0.844 0.452 0.763 1.53-0.2 2.69-0.652 0.782-0.849 1.37-0.625 1.86 0.329 0.722 1.36 0.537 3.19-0.57 2.33-1.41 3.75-1.14 3.95 0.744 0.338 3.16 5.32 0.504 8.34-4.44 1.3-2.12 1.68-2.66 2.44-3.4 1.17-1.16 2.27-1.66 3.61-1.67l0.753-1e-3 0.473 0.22c1.86 0.868 2 3.12 0.296 4.79-0.906 0.885-1.44 1.17-4.03 2.11-3.05 1.11-4.91 2.73-4.92 4.29-0.0105 0.949 0.679 1.69 1.73 1.85 1.25 0.195 1.21 0.194 1.36 0.0182 0.0773-0.0906 0.252-0.287 0.388-0.437l0.248-0.272 0.81 0.054c1.73 0.116 5.15 0.747 6.68 1.23 1.24 0.394 1.5 0.847 1.14 1.98l-0.145 0.459 0.156 0.0917c0.0858 0.0505 0.264 0.18 0.396 0.287l0.24 0.196v0.359c0 0.356-0.127 0.677-2.28 5.73-1.14 2.68-1.13 2.7 1.54 1.72 2.57-0.941 4.68-0.122 4.69 1.82 0.0105 1.62-1.24 2.41-4.04 2.56-1.6 0.0832-2.05 0.182-2.76 0.605-0.54 0.322-1.16 1.17-1.18 1.6l-0.01 0.264-0.0829-0.398c-0.323-1.55 1.21-2.47 4.42-2.65l1.26-0.0699 0.514-0.231c3.02-1.36 0.694-4.22-2.5-3.07-0.391 0.14-0.987 0.354-1.32 0.475-0.355 0.127-0.895 0.241-1.28 0.271l-0.666 0.0514-0.159 0.311c-0.0873 0.171-0.23 0.495-0.317 0.719-0.0872 0.224-0.527 1.29-0.977 2.37-0.45 1.08-1.17 2.83-1.6 3.89-1.05 2.59-0.899 2.5-3.39 2.09-1.88-0.306-1.97-0.334-2.42-0.757-0.318-0.297-0.458-0.372-0.698-0.372-0.801 0-0.891-0.463-0.47-2.4 0.84-3.87 1.68-7.96 1.68-8.17l6e-5 -0.157-0.23 0.0495c-0.126 0.0273-0.944 0.202-1.82 0.388-1.84 0.392-1.78 0.351-1.88 1.22-0.531 4.33-1.25 12.4-1.51 17-0.125 2.19-0.0228 2.08-2.32 2.5-2.58 0.476-3.06 0.477-3.69 7e-3l-0.286-0.211h-0.602c-0.726 0-0.937-0.132-1.01-0.627-0.0255-0.184-0.0598-0.379-0.0762-0.433-0.0187-0.0618-0.816 0.261-2.13 0.863l-2.1 0.961-1.12 0.0942-0.596-0.523h-0.385c-0.845 0-0.891-0.115-1.27-3.22-0.28-2.32-0.277-2.3-0.43-2.3-0.131 0-1.03 0.259-2.23 0.643-0.814 0.261-0.741 0.0781-1.1 2.74-0.456 3.38-0.12 2.97-3.04 3.69-3 0.746-3.49 0.775-3.99 0.24l-0.258-0.274-0.482-0.0399c-0.639-0.053-0.82-0.232-0.872-0.863l-0.0391-0.471-0.202 0.0507c-0.111 0.0279-1.15 0.487-2.31 1.02-1.16 0.534-2.26 1.04-2.44 1.12-0.184 0.0809-0.824 0.381-1.42 0.668-2.32 1.11-2.34 1.12-2.8 0.88-0.158-0.0816-0.3-0.271-0.423-0.564-0.115-0.274-0.282-0.505-0.441-0.609-0.141-0.092-0.446-0.447-0.678-0.789l-0.422-0.622-0.0333-0.523c-0.0183-0.288 0.0079-0.892 0.0582-1.34 0.0504-0.451 0.207-1.89 0.347-3.2 0.141-1.31 0.311-2.87 0.378-3.47 0.222-1.98 0.235-1.96-0.736-1.12-0.912 0.788-2.22 1.65-3.36 2.22-1.13 0.564-1.07 0.487-1.02 1.41 0.0241 0.414 0.127 2.15 0.23 3.87l0.186 3.12-0.171 0.23c-0.263 0.353-0.547 0.484-2.51 1.16l-1.82 0.625-0.753-0.0568c-0.414-0.0312-0.884-0.101-1.05-0.154-0.179-0.0595-0.439-0.0736-0.669-0.0362-0.68 0.11-0.836 0.0868-1.09-0.165l-0.238-0.238-0.0589-0.598c-0.073-0.74 0.0293-0.772-1.12 0.347-2.46 2.4-5.23 3.67-8.48 3.88l-0.854 0.0545-0.46 0.395c-0.721 0.619-1.43 1.04-3.08 1.84-2.77 1.34-3.95 2.41-4.64 4.17l-0.248 0.632-0.015 1.59 0.27 0.552c0.32 0.655 0.845 1.17 1.51 1.48l0.475 0.222 1.92-0.01 0.564-0.215c1.59-0.604 2.69-1.65 4.53-4.31 1.6-2.31 3.09-3.97 4.61-5.16 5.56-4.32 10.1-3.01 6.98 2.01-0.797 1.28-1.03 1.8-1.07 2.43l-0.0342 0.52 0.528 0.528 0.479-0.0346c1.03-0.0748 1.98-0.848 3.37-2.76 1.42-1.96 2.32-2.8 3.67-3.44l0.711-0.338 0.807-0.0347c1.34-0.0574 2.01 0.285 2.5 1.27 0.811 1.65 0.0774 3.72-2.27 6.43-2.74 3.16-2.65 6.38 0.214 7.05l0.609 0.144 0.524-0.0923c2.23-0.392 3.36-2.16 3.73-5.83 0.512-5.11 2.78-8.91 5.4-9.06 1.62-0.0917 2.34 0.906 2.51 3.5 0.129 2 0.662 2.83 1.62 2.51 0.442-0.146 1.14-1.19 1.14-1.7 1.4e-4 -0.302 0.61-2.04 0.81-2.3 0.518-0.689 0.986-0.934 1.79-0.937l0.551-2e-3 0.495 0.247c1.9 0.948 2.69 3.04 2.87 7.61 0.0998 2.45 0.239 3 1.06 4.16 1.64 2.32 5.07 1.88 5.69-0.716 0.33-1.4-0.127-2.69-1.65-4.65-1.99-2.57-2.61-3.77-2.96-5.8-0.453-2.57 1.01-4.51 3.01-3.98 1.01 0.264 1.42 0.53 3.17 2.05 1.41 1.22 2.52 1.3 3.18 0.231l0.242-0.396 0.316-2.55 0.253-0.52c0.999-2.05 3.72-1.84 6.37 0.501 1.12 0.988 2.09 2.33 3.33 4.62 0.978 1.8 1.24 2.21 1.86 2.91l0.499 0.565 1.38 0.686 0.511 5e-3c0.719 7e-3 1.37-0.33 1.72-0.884l0.247-0.399 0.0778-1.34-0.224-0.57c-0.2-0.509-0.726-1.32-1.34-2.06-0.429-0.521-0.244-0.591 0.341-0.128 2.66 2.11 2.17 5.95-0.768 5.95-1.74 0-2.99-1.13-4.59-4.16-1.84-3.48-3.17-5.02-5.2-6.03-2.39-1.19-3.89-0.416-4.13 2.12-0.309 3.14-1.98 3.92-4.23 1.97-1.85-1.6-2.52-2.01-3.4-2.08-1.92-0.139-2.74 2.03-1.81 4.79 0.45 1.33 1.02 2.24 2.84 4.56 1.11 1.41 1.59 2.57 1.61 3.83 0.031 3.42-3.97 4.85-6.4 2.28-1.09-1.16-1.38-2.15-1.48-4.98-0.0381-1.1-0.113-2.32-0.166-2.71-0.669-4.88-4.55-6.37-5.36-2.07-0.306 1.62-0.975 2.48-1.94 2.48-1.16 0-1.69-0.867-1.77-2.93-0.125-3.27-1.89-4.17-4.03-2.06-1.73 1.71-2.55 3.85-2.92 7.58-0.149 1.49-0.237 2-0.471 2.75-0.777 2.49-2.88 3.95-5.01 3.49zm-18.9-17.6c5.43-1.29 9.11-5.78 8.92-10.9-0.141-3.72-1.93-5.67-7.09-7.7-3.45-1.36-4.36-2.11-4.25-3.53 0.169-2.24 3.09-3.14 5.92-1.82l0.814 0.38 0.203-0.077c0.342-0.13 0.271 0.0286 1.57-3.54 1.11-3.05 1.11-3.03-0.62-3.89-7.65-3.82-18.2 5.18-15.3 13 0.906 2.35 2.38 3.42 6.51 4.72 3.58 1.12 4.53 1.7 4.66 2.82 0.212 1.88-2.54 3.24-5.75 2.83-1.18-0.15-0.943-0.416-2.74 3.09-1.66 3.24-1.63 3.17-1.57 3.39 0.0992 0.395 1.83 1.07 3.56 1.38l0.882 0.16 3.35-0.061zm11.2-2.39c2.03-0.688 3.31-1.15 3.56-1.27 0.374-0.193 0.378-0.32 0.111-4.09-0.138-1.95-0.252-3.71-0.252-3.9l-3.19e-4 -0.349 0.883-0.442c4.54-2.27 7.67-6.03 8.52-10.2 0.995-4.89-0.967-8.88-4.89-9.94l-0.711-0.192-1.55-3e-3c-3.02-5e-3 -6.74 1.39-8.82 3.31-0.718 0.662-0.722 0.0556 0.0681 11.6l0.184 2.68 0.177 0.25c1.42 2.01 1.62 5.55 0.467 8.49l-0.244 0.622 0.0767 1.92c0.101 2.53-0.0918 2.4 2.41 1.56zm2.99-16.1c-0.0742-0.0892-0.123-0.407-0.138-0.899-0.198-6.49-0.23-6.06 0.475-6.33 2.03-0.758 3.53-0.134 3.79 1.58l0.0906 0.585-0.149 0.615c-0.438 1.81-1.83 3.55-3.53 4.41-0.422 0.213-0.394 0.211-0.537 0.0393zm1.92-1.93c0.837-0.845 1.46-2.09 1.57-3.13l0.0497-0.472-0.199-0.128c-0.332-0.214-0.915-0.255-1.5-0.105-0.793 0.203-0.749 0.0872-0.748 2 0.0014 2.57 0.0283 2.63 0.823 1.83zm7.1 17.1c2.61-1.24 4.17-1.96 6.71-3.09 4.73-2.11 4.16-1.65 4.35-3.52 0.082-0.795 0.253-2.32 0.379-3.39 0.25-2.12 0.239-2.27-0.18-2.46l-0.218-0.0993-0.431 0.152c-0.638 0.224-2.53 1.05-4.26 1.86-0.838 0.392-1.64 0.765-1.79 0.828l-0.263 0.116-0.1-0.121c-0.0983-0.118 1.16-8.07 1.85-11.7 1.03-5.4 1.48-8.27 1.33-8.62-0.299-0.722-2.8-1.11-5.48-0.847-1.42 0.139-1.4 0.0991-1.51 2.54l-0.0588 1.29 0.299 0.536c1.84 3.29 1.44 8.08-1 12l-0.457 0.729-0.33 3.08c-1.19 11.1-1.1 9.63-0.61 10.4 0.634 0.94 0.563 0.926 1.76 0.355zm12.1-1.52c2.63-0.623 3.08-0.763 3.2-0.995 0.0529-0.104 0.251-1.3 0.44-2.65 0.411-2.95 0.295-2.69 1.36-3.01 0.471-0.143 1.14-0.348 1.48-0.457 1.2-0.379 2.07-0.628 2.21-0.628 0.173 0 0.172-6e-3 0.51 2.68 0.434 3.45 0.474 3.7 0.607 3.92l0.123 0.198 0.269-0.0436c0.378-0.0613 5.12-2.24 5.37-2.46 0.293-0.268 0.293-0.271-0.671-6.05-0.983-5.89-1.17-7.08-1.93-12.5-0.3-2.12-0.692-4.86-0.871-6.1l-0.326-2.26-0.218-0.188c-0.284-0.244-0.243-0.249-1.73 0.183-2.38 0.69-6.55 2.4-6.91 2.83-0.12 0.145-0.0778-0.0316-1.81 7.5-0.754 3.29-1.48 6.47-1.62 7.07l-0.25 1.09 0.18 0.143c0.0987 0.0785 0.288 0.226 0.42 0.329 0.597 0.462 0.578 1.01-0.267 7.57-0.11 0.854-0.257 1.02-1.27 1.45-0.481 0.203-0.852 0.411-0.876 0.491-0.122 0.402-0.382 1.72-0.382 1.93 0 0.64 0.188 0.639 2.97-0.0217zm4.89-12.5c0-0.224 2.14-9.42 2.21-9.49 0.0786-0.0786 0.11 0.112 0.465 2.86 0.19 1.47 0.439 3.36 0.554 4.21 0.114 0.841 0.184 1.57 0.155 1.61-0.0715 0.116-0.252 0.179-1.75 0.617-1.5 0.439-1.63 0.454-1.63 0.187zm2.45-1.14c0.126-0.0482 0.23-0.136 0.229-0.194-2e-3 -0.253-0.249-2.18-0.284-2.22-0.1-0.1-0.203 0.102-0.296 0.582-0.0555 0.289-0.175 0.818-0.265 1.18-0.217 0.862-0.142 0.941 0.615 0.653zm-55.8 12c0.381-0.166 1.21-0.638 1.84-1.05 1.52-0.99 1.63-1.05 2.36-1.31 1.14-0.407 2.14-0.374 2.85 0.0942l0.328 0.217 0.321-0.0512c0.176-0.0282 0.581 4e-3 0.899 0.0714 1.98 0.419 4.39-0.184 5.06-1.26 0.354-0.572 0.0556-0.755-3.2-1.96-1.13-0.418-2.43-0.971-3.03-1.28-1.27-0.665-1.3-0.668-1.49-0.153-0.378 1.05-1.8 1.87-4.36 2.5-1.88 0.463-2.69 0.825-3.42 1.53-1.59 1.52-1.33 3.05 0.492 2.98l0.669-0.0256zm67.5 0.104c2.08-0.377 3.41-0.669 3.61-0.799 0.251-0.159 0.254-0.174 0.403-2.34 0.313-4.54 0.64-8.49 1.04-12.6 0.0881-0.897 0.224-2.31 0.301-3.14 0.191-2.04-0.0601-1.81 2.63-2.34 1.94-0.38 1.75-0.063 2.17-3.55 0.469-3.86 0.453-4.11-0.267-4.11-2.85 8e-3 -13.9 2.53-14.8 3.37l-0.189 0.185-0.0811 1.88c-0.0446 1.03-0.0817 2.5-0.0825 3.26l-1e-3 1.38 0.13 0.186c0.189 0.27 0.39 0.245 2.52-0.317 1.05-0.276 1.95-0.485 2.01-0.463 0.15 0.0574 0.146 0.117-0.309 5.45-0.227 2.66-0.474 5.65-0.548 6.64-0.074 0.989-0.206 2.64-0.294 3.68-0.375 4.42-0.573 4.01 1.71 3.59zm-2.26-5.12c0.0278-0.333 0.183-2.22 0.345-4.2 0.162-1.98 0.368-4.4 0.458-5.39 0.267-2.94 0.333-2.73-0.799-2.46-0.947 0.229-1.67 0.257-1.92 0.0742-0.394-0.298-0.395 0.137-4e-3 2.83 0.291 2 0.452 2.97 1.17 7.04 0.204 1.15 0.371 2.15 0.371 2.23 0 0.736 0.308 0.635 0.371-0.122zm16.2-4.48c0.0857-0.0857 0.336-0.622 0.557-1.19 0.966-2.5 2.97-7.36 5.39-13.1 1.71-4.07 1.8-4.35 1.45-4.69-0.391-0.391-4.63-1.29-6.9-1.46l-0.727-0.0557-0.126 0.284c-0.0692 0.156-0.371 1.45-0.671 2.88s-0.732 3.48-0.959 4.56-0.609 2.91-0.848 4.06c-0.238 1.15-0.671 3.22-0.962 4.6s-0.577 2.75-0.637 3.04l-0.108 0.532 0.183 0.148c0.123 0.0995 0.466 0.182 1.04 0.25 0.473 0.0558 1.22 0.15 1.65 0.208 1.18 0.159 1.48 0.154 1.66-0.0279zm-60.8-1.33c-0.0316-0.54-0.109-1.72-0.173-2.61-0.0635-0.897-0.163-2.3-0.22-3.12-0.12-1.7-0.188-1.81-0.523-0.865-0.812 2.29-1.04 2.41-3.03 1.58-0.371-0.153-0.955-0.322-1.3-0.375l-0.622-0.0967-0.663 0.135c-1.12 0.229-2.01 0.969-1.95 1.63l0.0252 0.299 0.416 0.314c0.277 0.209 1.06 0.568 2.34 1.08 2.78 1.11 5.08 2.34 5.44 2.91 0.0309 0.0501 0.116 0.091 0.188 0.091h0.132zm20.5 29.8c-0.703-0.429-0.78-2.06-0.13-2.78 0.293-0.326 0.373 0.0501 0.147 0.69-0.456 1.29 0.513 2.38 1.25 1.39l0.176-0.236 0.0289-0.785c0.0471-1.28 0.393-1.24 0.493 0.0625l0.0434 0.562-0.23 0.47c-0.371 0.759-1.12 1.02-1.77 0.626zm26.3-1.79c-1.18-0.439-1.82-1.52-1.88-3.19-0.0505-1.44 0.24-2.06 0.864-1.84 0.348 0.123 0.353 0.29 9e-3 0.29-0.549 0-0.677 0.622-0.402 1.96 0.291 1.42 0.938 2.21 1.88 2.29l0.454 0.0376 0.633-0.58 0.0732-1.01-0.206-0.446c-0.227-0.493-0.814-1.19-1.27-1.5-0.244-0.167-0.47-0.468-0.47-0.626 0-0.22 1.14 0.521 1.6 1.04 1.57 1.76 0.651 4.3-1.29 3.57zm-25.2-1.47c-0.069-0.0446-0.229-0.0816-0.355-0.0823-0.277-2e-3 -0.31-0.203-0.0549-0.34 0.228-0.122 0.549-0.0378 0.663 0.174 0.144 0.268-8.7e-4 0.411-0.252 0.248zm37.1-7.45c-0.174-0.143-0.297-0.28-0.274-0.303 0.0528-0.0528 0.802 0.415 0.802 0.501 3.2e-4 0.136-0.228 0.0503-0.529-0.198zm-1.2-0.848c-0.461-0.423-0.863-1.02-0.863-1.29 0-0.228 0.172-0.254 0.302-0.0464 0.0503 0.0805 0.301 0.392 0.557 0.692 0.749 0.877 0.751 1.33 3e-3 0.646zm8.66-0.848c-0.935-0.27-1.61-0.67-2.92-1.73-1.8-1.46-2.93-1.9-4.03-1.57l-0.327 0.0979-0.267-0.267 0.284-0.173c1.03-0.627 2.67-0.0922 4.72 1.54 2.39 1.9 4.26 2.19 5.39 0.815 1.27-1.53 0.187-3.76-2.61-5.38-3.19-1.85-3.97-4.46-1.65-5.54l0.376-0.175 3.35-6e-3 0.376-0.173c1.27-0.584 1.07-1.74-0.467-2.75-0.5-0.329-0.704-0.513-0.704-0.634v-0.17l0.188 0.0584c2.4 0.744 3.11 3.11 1.19 3.98l-0.417 0.188-3.43 8e-3 -0.345 0.184c-1.85 0.989-1.04 2.92 1.97 4.72 3.53 2.12 4.38 5.46 1.71 6.77l-0.552 0.272-0.721 0.0225c-0.42 0.0131-0.882-0.0238-1.11-0.0883zm-8.1-1.14c0-0.191 0.181-0.413 0.337-0.413 0.206 0 0.212 0.182 0.0114 0.363-0.174 0.157-0.349 0.182-0.349 0.0493zm-0.711-4.06c-3.03-0.779-4.77-3.32-4.02-5.84 1.2-4.04 6.38-4.46 7.62-0.632 0.0822 0.253 0.235 0.621 0.34 0.817 0.273 0.514 0.392 1.2 0.352 2.04l-0.0348 0.728-0.315 0.637c-0.504 1.02-1.54 1.95-2.38 2.13-0.524 0.112-1.36 0.178-1.56 0.125zm1.09-1.82c0.762-0.377 1.29-0.935 1.7-1.79l0.309-0.646v-1.84l-0.274-0.557c-1.24-2.51-4.67-2.33-5.93 0.313-1.16 2.45 0.363 4.97 2.93 4.85l0.659-0.0316zm-83.9-8.33c-2.24-0.726-2.34-3.35-0.16-4.17 1.18-0.442 3.1-0.0709 4.4 0.849 0.698 0.493 0.0434 0.395-1.57-0.235l-0.585-0.229-1.77-0.012-0.493 0.252c-1.38 0.705-1.34 2.17 0.0846 2.88l0.583 0.293 0.838-2e-3c0.461-9.5e-4 0.989-0.0508 1.17-0.111 0.852-0.278 1.31-0.49 1.95-0.914l0.698-0.458-0.0419-0.219c-0.0231-0.121-0.0686-0.304-0.101-0.408l-0.0594-0.188h0.165c0.219 0 0.607 0.368 0.607 0.576 0 1.34-3.78 2.73-5.73 2.1zm7.9-15.5c-2.45-0.328-3.45-0.791-4.04-1.87-1.25-2.3 1.45-4.03 4.04-2.58 0.849 0.475 2.76 2.48 2.36 2.48-0.166-8.2e-4 -0.704-0.41-1.22-0.928-1.84-1.85-4.22-2.12-4.82-0.55-0.535 1.41 0.843 2.57 3.51 2.94 0.872 0.122 1.46 0.309 1.8 0.578l0.167 0.131-0.209-8e-3c-0.115-4e-3 -0.83-0.091-1.59-0.193zm6.84-3.43c-0.98-0.373-1.4-1.18-0.91-1.73l0.24-0.268 0.408 1e-3c0.851 3e-3 1.7 0.764 1.7 1.52 0 0.477-0.772 0.734-1.44 0.479zm1.08-0.441c-0.095-0.585-0.684-1.11-1.25-1.11-0.835 0-0.56 0.728 0.46 1.22 0.685 0.328 0.853 0.305 0.786-0.108zm8.16-3.13c-0.12-0.12-0.133-0.455-0.0204-0.525 0.116-0.0716 0.351 0.326 0.289 0.488-0.0626 0.163-0.133 0.173-0.269 0.0369zm-3.18-0.652c-1.73-1.21-3.86-4.08-3.58-4.81l0.0542-0.141 0.131 0.109c0.072 0.0598 0.221 0.285 0.33 0.501 0.735 1.45 2.48 3.56 3.45 4.18 0.328 0.207 0.598 0.423 0.599 0.481 0.0045 0.221-0.414 0.0877-0.985-0.314zm7.47-0.221c-0.092-0.0231-0.309-0.0784-0.482-0.123-0.173-0.0444-0.436-0.187-0.585-0.317-0.149-0.13-0.395-0.299-0.546-0.377-0.151-0.0776-0.509-0.339-0.794-0.58-0.79-0.668-1.47-0.881-1.88-0.59l-0.19 0.133 0.0178 0.494c0.0212 0.588-0.0353 0.673-0.284 0.424l-0.186-0.186v-1.01l0.546-0.488h0.442c0.614 0 1.2 0.314 1.98 1.05 1.93 1.84 3.89 1.23 3.51-1.09-0.379-2.37-1.81-3.99-5.49-6.19-2.55-1.53-3.84-3.51-3.82-5.9l0.0068-0.878 0.225-0.668c1.11-3.3 4.76-4.27 7.52-2 1.31 1.08 1.98 2.44 2.98 6.05 1.07 3.87 1.8 5.4 3.3 6.9l0.757 0.757 1.48 0.729 0.619 0.0397c1.03 0.066 1.39-0.143 2.26-1.31 1-1.34 1.89-1.27 3.4 0.259 1.47 1.49 2.44 1.64 3.29 0.512 1.06-1.4 1.02-3.6-0.14-6.97-1.35-3.95-0.794-6.76 1.56-7.88l0.57-0.27h1.59l0.397 0.196c2.11 1.04 2.43 4.03 0.796 7.58-1.58 3.45-1.27 6.35 0.704 6.62 0.753 0.102 0.975-0.124 1.49-1.51 0.282-0.765 0.457-0.835 0.407-0.164-0.0488 0.663-0.397 1.41-0.745 1.6-0.146 0.0796-0.372 0.231-0.502 0.338-1.2 0.979-2.83-0.77-2.83-3.05l-2e-3 -0.768 0.326-1.03c0.179-0.567 0.447-1.33 0.595-1.7 0.872-2.16 1.09-3.01 1.09-4.3 0-4.3-4.8-4.43-5.57-0.152-0.223 1.23-0.074 2.21 0.712 4.66 1.15 3.58 1.06 5.97-0.263 7.35-1.08 1.13-2.2 0.93-3.74-0.655l-0.881-0.907-0.37-0.0998c-0.707-0.19-1.3 0.164-1.88 1.13-0.677 1.12-2.14 1.39-3.66 0.68-2.25-1.05-3.84-3.42-4.96-7.42-1.11-3.97-1.51-4.97-2.44-6.06-3.92-4.66-9.9 0.492-6.46 5.56 0.612 0.902 1.32 1.46 4.05 3.2 3.09 1.97 4.87 5.27 3.96 7.33-0.333 0.754-1.16 1.21-1.87 1.04zm43.2-6.86c-1.03-0.221-0.495-3.1 0.834-4.52 2.02-2.16 4.64-0.653 3.35 1.92-0.666 1.32-3.1 2.83-4.18 2.6zm0.866-0.582c2.49-0.84 4.1-3.67 2.47-4.35-1.42-0.594-3.37 1.61-3.37 3.82 0 0.692 0.154 0.784 0.896 0.533zm-32.9-0.55c-0.568-0.281-1.27-1.03-1.6-1.69l-0.284-0.579 0.0028-0.592c0.0055-1.17 0.594-1.8 1.68-1.8 1.23 0 2.01 1.11 1.93 2.75l-0.0387 0.804-0.236 0.527c-0.361 0.804-0.721 0.949-1.46 0.585zm1.07-0.946c0.13-0.387 0.198-0.788 0.202-1.18l5e-3 -0.599-0.229-0.468c-0.906-1.85-3.07-0.748-2.27 1.16 0.349 0.836 1.34 1.75 1.85 1.7l0.251-0.0234z" fill="#090709"/></svg>
