<svg width="210mm" height="297mm" version="1.1" viewBox="0 0 210 297" xmlns="http://www.w3.org/2000/svg"><path d="m88.5 211c-1.2-0.533-1.62-0.704-1.7-0.704-0.0427 0-0.259-0.139-0.48-0.308-0.221-0.17-0.769-0.508-1.22-0.751-1.04-0.566-0.922-0.431-1.35-1.51-0.203-0.515-0.461-1.17-0.574-1.45-0.113-0.286-0.205-0.572-0.205-0.638 3.71e-4 -0.204 1.79-2.87 2.09-3.11 0.153-0.124 0.821-0.646 1.48-1.16 1.67-1.29 1.67-1.29 1.67-1.39 3e-6 -0.0856-0.722-0.658-0.83-0.658-0.0629 8e-5 -3.27 1.25-3.8 1.48-0.188 0.082-0.414 0.149-0.5 0.149h-0.158l-0.682-1.41 0.191-0.611c0.105-0.336 0.177-0.625 0.159-0.643-0.0307-0.0307-2.25 0.846-4.16 1.64-0.526 0.219-1.56 0.624-2.3 0.9-4.08 1.52-5.66 2.11-7.58 2.85-1.17 0.45-2.19 0.819-2.28 0.819l-0.149 2.2e-4 -0.336-0.762c-0.185-0.419-0.37-0.875-0.411-1.01l-0.0742-0.251 0.657-1.63c1.34-3.31 2.77-6.71 4.19-9.94 0.543-1.24 0.287-1.08 2.9-1.78 1.19-0.319 2.21-0.606 2.26-0.636 0.112-0.0619 0.13-0.0483-2.4-1.82-2.56-1.79-3.19-2.27-3.19-2.45 2.98e-4 -0.0879 0.096-0.511 0.213-0.939 0.511-1.88 0.501-1.82 0.48-2.59l-0.0203-0.736-2.76-8e-3 -2.04-0.589-1.81 0.319c-0.996 0.176-1.86 0.301-1.92 0.279l-0.106-0.0405 0.101-0.0973c0.0859-0.0826 1.57-0.737 2.98-1.31l0.395-0.161 1.55 0.362c1.85 0.431 1.6 0.422 3.06 0.105 1.43-0.31 1.25-0.163 1.83-1.5l0.483-1.11 0.638-0.51c0.351-0.28 1.34-1.12 2.2-1.87l1.56-1.36 0.0415-0.237c0.0228-0.13 0.0228-0.265 0-0.3-0.0395-0.0595-2.54-1.08-3.71-1.51-1.92-0.711-0.298-0.485 3.65 0.507 1.43 0.361 1.28 0.387 2.32-0.401l0.894-0.681 3.02 0.0618 0.11-0.183c0.0603-0.1 0.269-0.417 0.463-0.704 0.265-0.39 0.358-0.597 0.374-0.826 0.0424-0.629 0.466-1.12 1.37-1.6 0.375-0.197 0.762-0.419 0.86-0.495l0.177-0.137-0.186-0.161c-0.103-0.0886-0.287-0.312-0.411-0.498l-0.224-0.336-1.67-0.995c-0.917-0.547-1.95-1.15-2.29-1.35l-0.626-0.353-0.0706-0.335c-0.0388-0.184-0.188-0.941-0.332-1.68-0.144-0.74-0.385-1.96-0.537-2.71-0.349-1.73-0.357-1.61 0.158-2.42 0.811-1.27 2.57-3.78 2.72-3.87 0.244-0.157 4.44-1.18 4.64-1.13 0.228 0.0573 0.296 0.116 2.34 2.01 0.95 0.882 2.1 1.94 2.55 2.35l0.823 0.75 1.76 0.904c1.94 0.997 1.83 0.903 2.26 1.95 0.166 0.409 0.561 1.38 0.878 2.16l0.576 1.42 0.338-0.012c0.522-0.0185 2.42-0.649 2.68-0.889l0.212-0.198-0.0484-0.323c-0.0266-0.177-0.0937-0.496-0.149-0.709l-0.101-0.386 0.414-1.04c0.807-2.04 0.804-1.91 0.0703-2.6l-0.509-0.48-0.547-1.21c-0.301-0.667-0.79-1.72-1.09-2.35-0.297-0.624-0.539-1.2-0.539-1.27l-3.22e-4 -0.14 0.204 0.211c0.317 0.328 4.33 5.7 4.33 5.8-2.8e-4 0.0463-0.144 0.786-0.319 1.64-0.175 0.857-0.318 1.65-0.318 1.76l-1.3e-4 0.196 0.33 0.229c0.916 0.635 1.5 1.06 2.04 1.49l0.596 0.474h0.316c0.174 0 0.626 0.0637 1 0.142l0.688 0.142 0.471-0.108c0.259-0.0595 0.811-0.204 1.23-0.321 0.416-0.117 0.958-0.26 1.2-0.316 0.835-0.192 1.96-0.604 2-0.729 0.0191-0.0654 0.196-0.884 0.394-1.82 0.198-0.935 0.384-1.81 0.414-1.95l0.0545-0.248 0.635-0.342c1.3-0.702 3.91-2.14 4.36-2.4l0.465-0.272 0.44-1.65c0.42-1.57 1.02-3.78 1.25-4.57 0.0911-0.316 0.316-0.538 0.316-0.313 0 0.379-0.759 6.24-0.894 6.91l-0.0405 0.2-1.11 0.727c-4.12 2.7-3.61 2.25-3.53 3.14 0.0961 1.09 0.2 1.12 2.47 0.588l1.59-0.37 0.461 0.158c0.253 0.0871 1.08 0.397 1.84 0.689 1.95 0.747 2.18 0.78 3.2 0.45l0.658-0.212 0.0862 0.0866c0.0517 0.052 0.125 0.563 0.184 1.28l0.0978 1.19 0.136 0.179c0.153 0.202 0.688 0.436 1.62 0.709 0.351 0.103 0.801 0.247 1 0.321l0.363 0.134 0.125 0.335c0.0686 0.184 0.299 0.678 0.511 1.1l0.386 0.762 0.189-2e-3c0.23-3e-3 1.28-0.246 1.34-0.312 0.026-0.026-0.109-0.35-0.3-0.72l-0.347-0.672 0.118-0.334c0.234-0.663 0.692-2.56 0.903-3.73 0.269-1.49 0.105-1.27 1.69-2.35 0.745-0.507 1.63-1.12 1.97-1.37 0.843-0.609 1.57-1.1 1.79-1.2 0.0974-0.0466 0.496-0.312 0.886-0.589 1.25-0.889 3.46-2.35 3.77-2.49 0.433-0.193 0.365-0.237 2.77 1.76l1.22 1.01 0.0477 0.318c0.0262 0.175 0.0344 1.08 0.0181 2l-0.0296 1.68-0.696 1.17c-0.383 0.643-0.74 1.24-0.793 1.33-0.0533 0.0861-0.966 0.672-2.03 1.3-1.06 0.63-2.01 1.21-2.11 1.28-0.0974 0.0749-0.27 0.191-0.384 0.258-0.114 0.0668-0.325 0.225-0.469 0.351s-0.384 0.281-0.534 0.343c-0.149 0.0623-0.452 0.236-0.673 0.386l-0.402 0.273-0.0769 0.303c-0.104 0.409-0.225 0.422 1.7-0.175 1.85-0.573 4.47-1.35 5.43-1.61 0.735-0.2 0.774-0.17 0.579 0.458-0.0812 0.263-0.138 0.503-0.126 0.533 0.0121 0.0304 0.851-0.18 1.86-0.467 2.7-0.767 5.84-1.6 6.18-1.64 0.363-0.0418 0.367-0.0219 0.129 0.679-0.217 0.639-0.341 0.621 1.48 0.217 1.34-0.296 5.55-1.15 7.37-1.5l0.567-0.108 0.183 0.177-0.562 1.31c-0.896 2.08-2.59 5.91-3.86 8.71-1.09 2.42-1.36 3-2.58 5.62-0.258 0.555-0.527 1.14-0.597 1.3-0.0696 0.161-0.246 0.385-0.392 0.496-0.969 0.74-1.01 0.831-0.567 1.3 0.686 0.733 0.996 1.64 0.99 2.9l-5e-3 0.886-0.197 0.602c-1.41 4.31-6.36 6.88-9.33 4.85l-0.471-0.321-1.02 0.256c-0.559 0.141-1.59 0.416-2.29 0.611-0.702 0.196-1.95 0.539-2.77 0.764l-1.49 0.408-0.636 0.428c-0.35 0.235-0.842 0.594-1.09 0.797-0.252 0.203-0.553 0.417-0.67 0.477s-0.324 0.213-0.461 0.342c-0.136 0.129-0.376 0.268-0.532 0.309-0.193 0.0509-0.408 0.2-0.67 0.466-0.27 0.273-0.462 0.405-0.637 0.438-0.138 0.0259-0.67 0.283-1.18 0.571l-0.931 0.524-0.309 0.428c-0.17 0.236-0.586 0.806-0.924 1.27l-0.615 0.839-0.306 0.0373c-0.168 0.0205-0.625 0.0557-1.01 0.0783-0.956 0.0553-1.18 0.122-1.34 0.407-0.0752 0.128-0.465 0.71-0.867 1.29l-0.73 1.06 0.0182 0.28 0.0182 0.28 0.601 0.429c0.33 0.236 0.968 0.64 1.42 0.899l0.817 0.47 1.29 2.65c0.709 1.46 1.29 2.72 1.29 2.82l4e-3 0.17-0.151-0.135c-0.0831-0.0743-0.902-1.14-1.82-2.37s-1.68-2.24-1.69-2.26c-0.0104-0.0136-0.601-0.245-1.31-0.514l-1.29-0.489-0.748 0.14c-0.412 0.0772-0.964 0.171-1.23 0.208l-0.48 0.0671-1.62 0.82c-0.893 0.451-1.67 0.82-1.72 0.819-0.0517-3.4e-4 -1.1-0.431-2.32-0.957l-2.22-0.956h-1.15l-0.464 0.655c-0.921 1.3-0.984 1.44-0.798 1.79 0.577 1.08 2 5.04 1.78 4.98-0.145-0.0426-3.53-4.6-3.53-4.76 0-0.0771 0.303-0.771 0.673-1.54 0.773-1.61 0.726-1.42 0.487-2l-0.187-0.454-0.619-0.326c-0.784-0.413-0.636-0.434-2.11 0.305l-1.26 0.631-0.319 0.334c-0.326 0.341-1.04 0.742-1.33 0.742-0.148 5e-5 -0.923 0.395-3.03 1.54-1.06 0.577-0.801 0.597-3.39-0.26-2.17-0.72-3.23-1.03-3.3-0.966-0.0489 0.0489-0.135 0.631-0.268 1.81-0.145 1.28-0.0394 1.13-1.32 1.96-0.596 0.386-1.17 0.804-1.28 0.928-0.109 0.124-0.315 0.264-0.457 0.311-0.142 0.0469-0.579 0.293-0.971 0.547-2.22 1.44-2.09 1.4-3.16 0.931zm7.15-52.1c0.266-0.218 0.344-0.607 0.184-0.916-0.21-0.405-0.286-0.314-0.286 0.341 0 0.336-0.0263 0.675-0.0585 0.753l-0.0585 0.142 0.0879-0.142c0.0483-0.0779 0.107-0.158 0.131-0.177zm-0.421-1.34c0-0.0794-0.373-0.286-0.51-0.283-0.125 3e-3 0.279 0.352 0.408 0.352 0.0563 0 0.102-0.0311 0.102-0.069zm-13.8-1.23-0.266-0.228 6e-6 -0.761-0.111 0.0921c-0.061 0.0506-0.155 0.178-0.209 0.283l-0.0985 0.191 0.44 0.327c0.509 0.378 0.63 0.426 0.245 0.0966zm10.1-1.08c-0.0945-0.101-0.231-0.216-0.304-0.255l-0.133-0.0714 0.0545 0.0957c0.114 0.2 0.346 0.415 0.448 0.415 0.0776 0 0.06-0.0495-0.0655-0.184zm50.9 53.7c-0.58-0.393-1.45-0.995-1.94-1.34-0.489-0.343-1.17-0.814-1.51-1.05-0.453-0.308-0.686-0.522-0.85-0.782-0.125-0.197-0.259-0.404-0.298-0.46-0.039-0.0564-0.725-0.568-1.52-1.14-0.799-0.569-1.56-1.13-1.69-1.24l-0.242-0.202-0.127-0.987c-0.0697-0.543-0.224-1.74-0.343-2.66-0.119-0.922-0.216-1.79-0.216-1.93v-0.255l1.36-1.08c0.75-0.594 1.81-1.44 2.36-1.88 2.3-1.86 2.84-2.28 2.94-2.28 0.0594 0 0.395 0.0933 0.746 0.207 0.856 0.278 2.63 0.813 3.33 1 0.312 0.085 1.14 0.339 1.84 0.565 1.18 0.381 2.41 0.752 3.38 1.02l0.399 0.11 1.09 1.25c0.599 0.689 1.27 1.46 1.5 1.72 0.537 0.615 0.571 0.402-0.755 4.77-0.14 0.46-0.254 0.848-0.254 0.862 0 0.0138-0.667 0.57-1.48 1.24-1.32 1.08-1.95 1.69-2.48 2.38-0.142 0.187-1.64 1.32-3.28 2.48-0.714 0.506-0.702 0.508-1.93-0.327zm-67.4-1.07c0-0.088-8e-3 -0.078 1.95-2.43 0.777-0.93 1.47-1.76 1.54-1.86l0.127-0.166-0.0851-0.136c-0.145-0.232-0.0341-0.328 0.833-0.717 0.462-0.208 1.18-0.533 1.59-0.722 1.1-0.508 1.12-0.494 0.479 0.541-0.24 0.39-0.564 0.926-0.72 1.19-0.209 0.355-0.358 0.52-0.561 0.624-0.254 0.129-1.85 1.31-3.42 2.54-1.61 1.26-1.74 1.34-1.74 1.13zm87.2-10.5c-1.3-0.417-11.8-5.15-11.8-5.34-0.0126-0.0633-0.0106-0.115 5e-3 -0.115 0.379 0 1.73-0.248 1.98-0.363l0.331-0.153 0.348 0.205c0.788 0.463 2.2 1.32 3.74 2.26 0.896 0.55 2.53 1.54 3.63 2.19s2 1.23 2 1.29c0 0.0541-8e-3 0.0957-0.0177 0.0923-0.01-3e-3 -0.0974-0.0316-0.195-0.0628zm-3.26-7.02c-0.37-0.0716-1.3-0.242-2.06-0.378-2.46-0.44-2.41-0.419-1.91-0.933 0.441-0.45 0.344-0.465 2.75 0.439 2.57 0.966 2.89 1.2 1.21 0.872zm-0.822-10.4c-1.09-0.839-1.24-0.766 1.92-0.945 3.9-0.221 4.48-0.24 4.53-0.154 0.0699 0.113-0.0964 0.168-2.19 0.719-1.05 0.277-2.26 0.596-2.69 0.71-0.429 0.114-0.799 0.207-0.822 0.207-0.0233 2.4e-4 -0.358-0.241-0.744-0.537zm-77.1-13c-0.273-0.0574-1.64-0.355-3.05-0.661-1.4-0.306-2.76-0.6-3.01-0.652-0.645-0.134-0.608-0.248 0.177-0.54 0.852-0.317 0.849-0.284 0.0875-0.876-3.9-3.03-5.58-4.37-5.58-4.46 0-0.187 0.342-0.0108 4.95 2.55 2.03 1.13 3.26 1.77 3.39 1.77 0.142 3.7e-4 0.452 0.196 1.09 0.691 0.491 0.38 1.33 1.02 1.86 1.42 1.18 0.888 1.19 0.981 0.0793 0.748zm66.6-4.73c0-0.0551 0.502-0.57 1.12-1.14 0.806-0.753 1.13-1.1 1.16-1.25 0.0605-0.278 0.468-0.693 0.681-0.693 0.142 0 2.1-1.15 3.03-1.78 0.977-0.66 6.4-3.89 6.53-3.89 0.216 0-0.0147 0.214-1.77 1.64-1.02 0.831-2.05 1.67-2.29 1.87-0.236 0.196-1.1 0.914-1.93 1.6-1.62 1.34-1.61 1.32-1.16 1.47 0.528 0.176 0.384 0.285-1.05 0.8-0.721 0.258-1.93 0.697-2.68 0.976-1.42 0.522-1.64 0.578-1.64 0.406z" fill="#a4a29f"/><path d="m88.3 211c-0.584-0.257-1.2-0.51-1.37-0.564-0.168-0.0535-0.43-0.205-0.584-0.336-0.153-0.131-0.678-0.457-1.17-0.724-1.09-0.598-0.967-0.431-1.63-2.13l-0.552-1.42 0.0838-0.157c0.0461-0.0861 0.475-0.752 0.953-1.48l0.869-1.32 0.348-0.243c1.07-0.747 3.08-2.38 3.08-2.5 0-0.143-0.89-0.703-1.06-0.669-0.176 0.0342-2.38 0.882-3.53 1.36-0.791 0.328-0.749 0.344-1.11-0.433l-0.315-0.678 0.216-0.675c0.119-0.371 0.199-0.692 0.178-0.713-0.0423-0.0423-0.642 0.192-3.59 1.4-1.11 0.456-2.64 1.06-3.4 1.34-3.1 1.15-5.04 1.88-7.16 2.69-1.23 0.472-2.27 0.85-2.32 0.839-0.0865-0.0183-0.865-1.7-0.865-1.87-2.38e-4 -0.26 5.1-12.4 5.31-12.7 0.0239-0.0272 1.11-0.339 2.41-0.693s2.39-0.659 2.41-0.679c0.0642-0.0642-0.223-0.289-1.44-1.13-1.84-1.27-3.74-2.63-4.05-2.89l-0.27-0.234 0.192-0.737c0.106-0.405 0.273-1.01 0.371-1.34l0.179-0.6-0.0198-0.853-0.0198-0.853-2.69-0.00179-2.17-0.612-1.7 0.295c-2.26 0.392-2.26 0.376 0.059-0.596l1.29-0.54 1.48 0.359c1.78 0.432 1.68 0.428 3.18 0.104 1.45-0.314 1.25-0.151 1.87-1.54l0.514-1.15 0.648-0.505c0.546-0.425 2.6-2.2 3.54-3.05l0.266-0.242v-0.244c0-0.322 0.0019-0.321-2.05-1.14-1.85-0.731-2.02-0.805-1.96-0.856 0.0376-0.0376 2.39 0.486 4.04 0.901 0.616 0.154 1.16 0.258 1.2 0.229 0.0466-0.0284 0.482-0.352 0.967-0.72l0.883-0.668 3.05 0.0542 0.164-0.312c0.0902-0.172 0.244-0.407 0.342-0.523 0.266-0.316 0.454-0.725 0.455-0.986 2.05e-4 -0.128 0.0642-0.329 0.142-0.446 0.078-0.117 0.206-0.311 0.283-0.432 0.078-0.12 0.229-0.258 0.336-0.305 0.384-0.17 1.72-0.954 1.72-1.01 0-0.0313-0.097-0.107-0.216-0.168-0.119-0.0613-0.322-0.278-0.452-0.481l-0.237-0.37-1.97-1.17c-1.09-0.646-2.13-1.26-2.31-1.37s-0.337-0.198-0.337-0.206c-4.18e-4 -0.017-0.417-2.16-0.895-4.6l-0.329-1.68 0.525-0.833c0.896-1.42 2.5-3.69 2.66-3.76 0.0861-0.0411 1.12-0.315 2.29-0.608l2.13-0.533 0.203 0.0878c0.197 0.0852 1.25 1.03 4.14 3.73l1.4 1.3 3.64 1.88 0.15 0.38c0.766 1.94 1.69 4.15 1.76 4.23l0.0874 0.0916 0.349-0.077c0.93-0.205 2.38-0.72 2.62-0.931 0.288-0.253 0.299-0.348 0.128-1.17l-0.12-0.579 0.364-0.909c0.2-0.5 0.447-1.14 0.549-1.43l0.185-0.516-0.142-0.229c-0.0778-0.126-0.345-0.409-0.594-0.629l-0.453-0.4-0.344-0.803c-0.189-0.442-0.641-1.44-1.01-2.21-0.596-1.27-0.75-1.69-0.5-1.37 0.0483 0.0623 0.988 1.31 2.09 2.77l2 2.65-0.318 1.58c-0.175 0.87-0.318 1.7-0.318 1.85v0.267l0.726 0.497c0.399 0.273 1.08 0.769 1.5 1.1l0.777 0.605h0.273c0.15 0 0.596 0.0669 0.99 0.149 0.828 0.171 0.859 0.168 2.29-0.227 0.585-0.162 1.25-0.337 1.49-0.389 0.776-0.172 1.94-0.598 1.98-0.725 0.0197-0.0654 0.198-0.884 0.396-1.82 0.198-0.935 0.384-1.81 0.413-1.95l0.0524-0.247 0.848-0.468c0.466-0.257 1.65-0.906 2.62-1.44 2.18-1.2 1.95-0.943 2.4-2.63 0.583-2.18 1.26-4.6 1.29-4.63 0.193-0.193-0.627 6.39-0.827 6.63-0.0418 0.0503-0.241 0.196-0.443 0.323-1.05 0.662-4.13 2.71-4.17 2.78-0.051 0.0772-8e-3 0.809 0.0803 1.35l0.0457 0.283 0.282 0.0947c0.382 0.128 0.744 0.0825 2.39-0.303l1.4-0.327 1.43 0.541c1.97 0.745 2.29 0.853 2.78 0.943l0.424 0.0783 0.73-0.224c0.905-0.278 0.861-0.325 0.926 0.975l0.0527 1.06 0.35 0.615 0.41 0.164c0.225 0.0903 0.86 0.301 1.41 0.468l0.999 0.304 0.136 0.323c0.586 1.4 0.966 2.01 1.21 1.95 1.69-0.372 1.59-0.284 1.15-1.05-0.33-0.564-0.389-0.854-0.247-1.23 0.189-0.497 0.664-2.45 0.859-3.54 0.273-1.52 0.103-1.29 1.78-2.42 0.789-0.535 1.66-1.14 1.93-1.34 0.807-0.592 1.4-0.998 1.65-1.12 0.126-0.0648 0.912-0.591 1.75-1.17 3.27-2.27 3.14-2.22 4.05-1.48 0.973 0.782 2.62 2.16 2.71 2.28 0.0631 0.0761 0.0908 0.626 0.101 2.01l0.0139 1.9-0.638 1.09c-0.978 1.66-0.815 1.5-2.56 2.54-2.49 1.48-3.24 1.96-3.42 2.18-0.051 0.0615-0.224 0.17-0.385 0.242-0.16 0.0713-0.471 0.245-0.69 0.385l-0.398 0.255-0.0802 0.319c-0.15 0.596-0.229 0.596 1.66 5e-3 1.49-0.465 4.37-1.32 5.47-1.63l0.589-0.163 0.0381 0.0993c0.0209 0.0546-0.0289 0.298-0.111 0.54-0.212 0.629-0.246 0.629 1.99-2e-3 2.33-0.658 6-1.64 6.13-1.64 0.129 0 0.115 0.166-0.0633 0.72-0.0853 0.265-0.134 0.503-0.109 0.528 0.0257 0.0256 1.32-0.227 2.87-0.562 2.8-0.604 6.44-1.32 6.7-1.32h0.135l-0.0426 0.17c-0.0509 0.203-0.613 1.51-1.9 4.44-1.8 4.09-3.03 6.81-5.14 11.4l-0.618 1.34-0.283 0.177c-0.328 0.205-0.725 0.565-0.824 0.747l-0.0687 0.126 0.352 0.395c3.84 4.31-3.81 12.5-8.52 9.12l-0.359-0.258-0.676 0.161c-0.372 0.0887-1.43 0.367-2.34 0.618-0.916 0.251-2.32 0.635-3.12 0.852l-1.45 0.396-0.709 0.48c-0.39 0.264-0.868 0.609-1.06 0.767s-0.522 0.387-0.728 0.509c-0.206 0.122-0.406 0.282-0.445 0.355-0.0409 0.0765-0.214 0.169-0.406 0.217-0.247 0.0618-0.445 0.188-0.76 0.486-0.249 0.236-0.513 0.42-0.638 0.444-0.254 0.0488-1.89 0.965-2.14 1.2-0.0964 0.0899-0.509 0.631-0.916 1.2-0.979 1.37-0.819 1.26-1.98 1.34-1.13 0.0749-1.33 0.11-1.46 0.27-0.055 0.0641-0.49 0.695-0.966 1.4l-0.866 1.28 0.148 0.549 0.651 0.461c0.358 0.253 0.989 0.652 1.4 0.886l0.75 0.426 0.283 0.57c1.06 2.14 2.17 4.5 2.15 4.58-0.0168 0.0503-0.793-0.927-1.73-2.17l-1.7-2.26-0.531-0.197c-0.292-0.109-0.873-0.329-1.29-0.49l-0.759-0.293-1.03 0.187c-0.564 0.103-1.11 0.187-1.21 0.187s-0.945 0.383-1.87 0.852l-1.69 0.852-0.204-0.0767c-0.112-0.0422-1.16-0.485-2.33-0.983l-2.13-0.906-1.1 0.0277-0.105 0.135c-1.03 1.32-1.4 2.11-1.18 2.47 0.319 0.528 1.84 4.64 1.72 4.64-0.0842 0-3.34-4.37-3.34-4.48 3e-5 -0.0479 0.303-0.719 0.673-1.49 0.742-1.55 0.738-1.53 0.52-2.05-0.21-0.503-0.242-0.533-0.993-0.927l-0.66-0.347-2.61 1.31-0.398 0.38c-0.398 0.38-1.04 0.74-1.32 0.741-0.0828 3.8e-4 -0.98 0.447-1.99 0.993-1.01 0.546-1.92 0.992-2.01 0.992-0.0905 0-1.17-0.332-2.4-0.739-2.42-0.801-3.23-1.02-3.33-0.921-0.0341 0.0359-0.132 0.671-0.217 1.41-0.196 1.71-0.108 1.55-1.25 2.28-0.534 0.343-1.14 0.776-1.35 0.961s-0.422 0.337-0.474 0.337-0.537 0.28-1.08 0.623c-2.21 1.4-1.89 1.32-3.18 0.751zm1.16-4.23c0.495-0.325 1.08-0.702 1.29-0.838 0.214-0.136 0.684-0.54 1.04-0.897 0.473-0.47 0.703-0.65 0.83-0.65h0.176l0.41-0.608c1.44-2.14 1.47-2.19 1.21-2.26-0.783-0.225-1.62-0.488-1.81-0.571-0.128-0.0556-0.307-0.101-0.397-0.101-0.0903 0-0.32-0.0838-0.511-0.186-0.337-0.181-1.67-0.664-1.84-0.664-0.0447 0-0.589 0.414-1.21 0.92s-1.58 1.26-2.14 1.68l-1.02 0.763-0.775 1.16c-0.426 0.64-0.75 1.19-0.72 1.22 0.106 0.1 1.83 0.825 2.18 0.916 0.195 0.0508 0.478 0.154 0.628 0.229 0.347 0.173 1.29 0.46 1.55 0.471 0.138 6e-3 0.471-0.171 1.1-0.582zm12.4-4.16c0.283-0.195 0.578-0.354 0.655-0.354 0.0835 0 0.419-0.28 0.827-0.691l0.686-0.691 1.2-0.664c2.63-1.45 3.15-1.82 4.05-2.87l0.22-0.259h0.577l0.164-0.23c0.0902-0.127 0.382-0.469 0.649-0.762l0.485-0.531-0.0459-0.349c-0.0253-0.192-0.0763-0.406-0.113-0.475l-0.0674-0.126-0.466 0.175c-0.256 0.0965-1.52 0.527-2.82 0.956s-3.11 1.05-4.04 1.39c-1.96 0.708-1.9 0.714-1.65-0.157 0.0996-0.343 0.171-0.635 0.158-0.648-0.0259-0.0259-1.97 0.889-3.24 1.52-0.589 0.294-0.821 0.446-0.835 0.549-0.0113 0.078-0.0338 0.206-0.0502 0.284l-0.0297 0.142-0.654-4e-3c-0.777-5e-3 -0.748 0.0365-0.602-0.869 0.061-0.378 0.107-0.767 0.101-0.864-0.0052-0.0974 0.0629-0.474 0.151-0.837 0.21-0.861 0.177-0.864-0.369-0.0354-0.252 0.383-0.582 0.883-0.733 1.11-0.518 0.783-0.883 1.36-0.929 1.46-0.025 0.0565-0.191 0.3-0.369 0.541s-0.357 0.496-0.399 0.565c-0.19 0.319-0.406-0.176-0.599-1.37-0.058-0.359-0.121-0.535-0.208-0.582-0.0894-0.0478-0.138-0.192-0.171-0.51-0.0255-0.244-0.0922-0.62-0.148-0.836-0.056-0.216-0.124-0.488-0.151-0.605l-0.0488-0.213-0.0914 0.319c-0.362 1.26-0.415 1.35-0.988 1.56-0.234 0.0854-0.664 0.261-0.957 0.389-0.292 0.129-0.592 0.255-0.666 0.28l-0.134 0.0464 0.514 0.354c0.283 0.195 0.696 0.497 0.918 0.672 0.264 0.208 0.61 0.388 1 0.524 0.574 0.198 1.01 0.361 3.36 1.24 0.585 0.22 1.48 0.555 1.98 0.744s1.11 0.43 1.35 0.536c0.723 0.327 1.33 0.518 1.67 0.524l0.324 5e-3zm18.4-1.06c0.232-0.117 0.494-0.213 0.584-0.213 0.234 0 1.61-0.967 2.07-1.46 0.855-0.903 1.18-1.21 1.44-1.38 0.347-0.223 1.43-1.83 1.43-2.12 0-0.123-0.849-1.06-1.06-1.17-0.144-0.0747-0.222-0.188-0.278-0.408-0.0531-0.208-0.156-0.366-0.325-0.499l-0.247-0.195-0.375 0.148c-0.206 0.0815-1.08 0.398-1.93 0.704s-1.86 0.668-2.23 0.806l-0.673 0.251-0.0819-0.0863c-0.0855-0.0901-9e-3 -0.631 0.223-1.59 0.0585-0.24 0.106-0.52 0.106-0.621v-0.185l-0.195 0.0467c-0.107 0.0257-0.402 0.123-0.655 0.216-0.253 0.0931-0.955 0.347-1.56 0.564s-1.46 0.537-1.9 0.712c-1.02 0.403-0.968 0.473-0.859-1.13 0.104-1.52 0.106-1.51-0.231-1.48l-0.254 0.0219-0.0948-0.194c-0.183-0.374-0.585-0.248-0.727 0.228l-0.0446 0.15 0.216 0.0894c0.289 0.12 0.306 0.163 0.18 0.465l-0.108 0.259-0.248-0.029c-0.137-0.016-0.248 9.2e-4 -0.248 0.0375 0 0.12 0.439 1.5 0.541 1.69l0.0995 0.194-0.218 0.621c-0.652 1.86-0.641 1.8-0.362 1.98 0.403 0.26 1.19 0.797 1.42 0.975 0.181 0.135 0.33 0.183 0.575 0.183h0.331l0.269 0.214c0.354 0.281 0.933 0.61 1.31 0.742 0.165 0.0583 0.448 0.214 0.629 0.345 0.346 0.252 1.46 0.745 1.82 0.808 0.117 0.0203 0.289 0.0963 0.382 0.169 0.0929 0.0725 0.225 0.132 0.292 0.132 0.0679 0 0.163 0.0478 0.212 0.106 0.129 0.156 0.308 0.132 0.779-0.106zm-7.47-5.03c-0.0222-0.0359 0.0469-0.134 0.154-0.218 0.209-0.165 0.289-0.0974 0.164 0.137-0.081 0.151-0.248 0.194-0.317 0.0805zm14.5-0.897 0.743-0.254 0.433 0.0834c0.946 0.182 1.08 0.203 1.32 0.206l0.248 3e-3 0.638-0.79c0.351-0.434 0.749-0.918 0.886-1.07l0.248-0.284-0.142 0.0409c-0.0779 0.0225-0.34 0.115-0.582 0.206-0.587 0.22-0.639 0.167-0.488-0.496 0.145-0.639 0.148-0.932 7e-3 -0.932-0.0585 0-0.106-0.0319-0.106-0.0709s0.0606-0.0709 0.135-0.0709c0.103 0 0.155-0.083 0.219-0.352 0.121-0.504 0.0885-0.524-0.425-0.261-0.253 0.13-0.636 0.293-0.85 0.364-0.214 0.0703-0.533 0.201-0.709 0.291-0.326 0.167-0.675 0.304-2.15 0.847-1.05 0.385-1.09 0.414-1.25 0.847-0.0704 0.195-0.172 0.462-0.225 0.593l-0.0974 0.239 0.177 0.115c0.0974 0.0635 0.4 0.313 0.673 0.554 0.594 0.525 0.409 0.497 1.3 0.194zm-26-24.1 0.64-1.22 0.388-0.133c0.213-0.0731 0.723-0.234 1.13-0.359l0.744-0.226 0.117-0.527c0.189-0.849 0.187-0.856-0.326-1.38-0.497-0.51-0.537-0.514-0.753-0.0901-0.199 0.391-0.234 0.309-0.0614-0.146 0.078-0.205 0.136-0.475 0.129-0.598-0.0109-0.195 0.185-0.917 0.722-2.65 0.0755-0.244 0.137-0.504 0.137-0.577 0-0.168-1.75-1.64-1.95-1.64-0.174 2.2e-4 -3.33 1.06-3.84 1.29l-0.373 0.167-0.354 0.601c-0.238 0.404-0.354 0.68-0.354 0.843 0 0.136-0.132 0.523-0.301 0.886l-0.301 0.644 0.0044 0.786 0.352 0.695c0.208 0.412 0.433 0.753 0.551 0.837 0.353 0.252 0.141 0.22-0.293-0.0433-0.231-0.141-0.444-0.256-0.472-0.256s-0.146-0.0797-0.262-0.177c-0.413-0.347-0.589-0.248-0.908 0.509-0.249 0.592-0.252 0.593-1.11 0.245-0.952-0.386-1.82-0.647-2.14-0.647h-0.272l-0.0365-0.139c-0.02-0.0767-0.143-0.186-0.274-0.243-0.131-0.0572-0.588-0.263-1.02-0.457-0.429-0.194-1.02-0.415-1.31-0.49-0.292-0.0755-0.711-0.22-0.931-0.32l-0.399-0.183-0.235 0.126c-0.236 0.126-0.356 0.29-0.213 0.29 0.0422 0 0.0768 0.0319 0.0768 0.0709 0 0.0985-0.237 0.0889-0.34-0.0138l-0.0847-0.0847-2.09 1.06-0.44 0.85c-0.466 0.9-0.524 1.1-0.322 1.1 0.0682 2.3e-4 0.778-0.0945 1.58-0.21 0.799-0.116 2.27-0.308 3.26-0.427 0.994-0.119 2-0.261 2.23-0.316 0.234-0.0549 0.688-0.121 1.01-0.148l0.584-0.0479 0.0441 0.115c0.0243 0.0633-0.0277 0.282-0.116 0.486-0.0878 0.204-0.186 0.461-0.217 0.571l-0.0577 0.2 0.666-0.0464 0.0218 0.153c0.012 0.0843-0.0757 0.326-0.195 0.537-0.119 0.211-0.217 0.451-0.217 0.534 0 0.0823-0.0669 0.263-0.149 0.402-0.173 0.293-0.164 0.296 0.397 0.114 0.234-0.0757 0.601-0.175 0.815-0.221 0.214-0.0461 0.677-0.188 1.03-0.316 0.747-0.272 1.56-0.543 2.3-0.768 0.654-0.198 0.872-0.312 0.826-0.431-0.0265-0.069 0.0396-0.0831 0.269-0.0572 0.217 0.0245 0.508-0.029 1.02-0.187 0.724-0.225 0.933-0.262 0.941-0.168 2e-3 0.0292 0.01 0.745 0.0165 1.59 7e-3 0.845 0.0285 1.52 0.0487 1.5 0.0202-0.0191 0.325-0.583 0.676-1.25zm9.84-0.0276c0.0294-0.117 0.0137-0.205-0.0428-0.24-0.145-0.0895-0.202-4e-3 -0.202 0.303v0.288l0.0994-0.0824c0.0546-0.0454 0.12-0.166 0.146-0.268zm0.171-0.556c0.164 0.0519 0.249-0.0816 0.529-0.824 0.204-0.542 0.514-1.17 0.607-1.22 0.0968-0.0598 1.37-0.521 1.99-0.722 0.292-0.0944 0.763-0.255 1.05-0.356l0.514-0.185v-0.177c0-0.0975 0.0371-0.379 0.0825-0.625l0.0825-0.448-0.0946-0.114c-0.196-0.236-0.939-0.752-1.03-0.716-0.0531 0.0204-0.194 0.23-0.313 0.465-0.226 0.448-0.41 0.581-0.322 0.234 0.0272-0.107 0.0951-0.434 0.151-0.726 0.0558-0.292 0.118-0.583 0.137-0.647 0.0221-0.0711-0.121-0.305-0.374-0.611-0.225-0.273-0.663-0.842-0.972-1.27s-0.591-0.79-0.625-0.814c-0.266-0.183-4.56 1.21-5.38 1.75l-0.189 0.124-0.542-0.178-0.531 0.11c-0.329 0.0678-0.566 0.158-0.623 0.235-0.654 0.897-1.49 2.27-1.46 2.39 0.126 0.454 0.56 1.43 0.675 1.52 0.0745 0.0591 0.168 0.219 0.207 0.354 0.0393 0.136 0.149 0.342 0.244 0.457l0.173 0.21 0.552-0.121c0.304-0.0667 1.08-0.281 1.72-0.476 2.17-0.66 3.49-1.01 3.56-0.936 0.0418 0.0418 0.0388 0.329-8e-3 0.767-0.0852 0.798-0.22 2.4-0.219 2.61l8.1e-4 0.135 0.137-0.124c0.0855-0.0774 0.19-0.107 0.28-0.0782zm14-2.51c0.386-0.37 0.786-0.728 0.888-0.796 0.26-0.171 0.404-1.13 0.221-1.47-0.156-0.291 0.503-0.0756 0.895 0.293l0.158 0.148 0.802-0.263c1.01-0.332 0.961-0.236 0.655-1.18-0.321-0.988-0.208-0.876-1.21-1.2-1.2-0.391-1.38-0.34-1.8 0.504-0.087 0.175-0.306 0.48-0.486 0.677-0.18 0.197-0.382 0.46-0.448 0.585s-0.154 0.227-0.195 0.227c-0.111 0-0.0895-0.253 0.0294-0.352 0.057-0.0473 0.124-0.155 0.15-0.239 0.0255-0.0842 0.124-0.257 0.219-0.384l0.173-0.231 0.159-1.69-0.853-1.54-0.343-0.173c-0.189-0.0952-0.453-0.17-0.588-0.166-0.281 8e-3 -0.766-0.183-1.1-0.431-0.193-0.145-2.42-1.14-2.85-1.27-0.0789-0.0245-0.414 0.0333-0.744 0.128-0.33 0.0951-0.888 0.255-1.24 0.356-0.351 0.101-0.893 0.256-1.2 0.345l-0.567 0.161-0.0972 0.209c-0.0535 0.115-0.216 0.336-0.36 0.492-0.344 0.371-0.719 0.856-0.918 1.19l-0.159 0.265 0.283 0.975c0.155 0.536 0.304 1.08 0.329 1.2l0.0468 0.228 0.406 0.247c0.527 0.32 0.65 0.464 0.697 0.815 0.0501 0.374 0.403 0.7 0.958 0.885l0.406 0.135 0.479-0.146c0.264-0.0803 0.957-0.296 1.54-0.48s1.29-0.396 1.56-0.471c0.273-0.0754 0.778-0.221 1.12-0.323l0.626-0.186 0.0574 0.0928c0.0711 0.115 0.179 4.35 0.114 4.46-0.0261 0.0422-0.0262 0.19-3.1e-4 0.328l0.0471 0.251 0.716-0.764c0.394-0.42 1.03-1.07 1.42-1.44zm-31.6-6.11c0.488-0.614 0.782-1.07 1-1.54 0.173-0.37 0.386-0.769 0.473-0.886 1.29-1.72 1.24-1.82-1.79-3.33-0.831-0.417-1.51-0.798-1.51-0.85 0-0.113-0.73-0.781-1.02-0.934l-0.206-0.108-0.265 0.0794c-0.201 0.0603-0.32 0.166-0.495 0.438l-0.23 0.358-0.0203 0.549c-0.0191 0.517-0.19 1.14-0.312 1.14-0.0569 0-0.131-1.76-0.134-3.19l-0.0018-0.815-2.1-2.02-0.248 0.0254c-0.274 0.0281-2.61 0.609-3.33 0.829l-0.461 0.14-0.673 0.96c-1.18 1.68-1.92 2.81-1.89 2.89 0.0364 0.109 1.15 0.865 1.61 1.09 0.214 0.106 0.562 0.332 0.773 0.502 0.211 0.171 0.609 0.456 0.886 0.634 0.276 0.178 0.63 0.41 0.786 0.516 0.423 0.287 0.891 0.556 1.17 0.673 0.136 0.0572 0.344 0.156 0.461 0.218 0.33 0.178 1.33 0.594 1.43 0.594 0.0483 0 0.161 0.0749 0.25 0.166 0.216 0.221 1.01 0.649 1.39 0.752 0.168 0.0449 0.425 0.19 0.571 0.322 0.146 0.132 0.503 0.373 0.793 0.536 0.29 0.163 0.63 0.373 0.755 0.466 0.343 0.257 1.23 0.663 1.45 0.663h0.192zm43.8-1.1c1.01-0.418 2.83-1.41 2.83-1.55 0-0.194 0.318-0.425 0.645-0.47 0.176-0.0242 0.526-0.141 0.777-0.26 0.251-0.119 0.527-0.216 0.613-0.216 0.18-6e-5 0.469-0.126 2.01-0.874l1.11-0.537 0.0482-0.729c0.0265-0.401 0.0377-0.903 0.0247-1.11l-0.0235-0.385-0.444-0.376c-0.275-0.233-0.51-0.376-0.619-0.376-0.128 0-0.187-0.048-0.219-0.177-0.0244-0.0973-0.208-0.311-0.409-0.475-0.2-0.164-0.53-0.451-0.732-0.638-0.474-0.438-0.212-0.544-2.5 1.01-0.292 0.198-0.755 0.51-1.03 0.692-0.342 0.229-0.541 0.42-0.642 0.615-0.0802 0.156-0.39 0.762-0.689 1.35-0.832 1.63-1.18 2.08-0.688 0.908 0.263-0.631 0.32-1.22 0.136-1.4l-0.111-0.111-0.881 0.589c-1.71 1.14-3.04 2.12-3.04 2.23-4e-3 0.122 0.754 1.47 1.08 1.91 0.375 0.515 0.806 0.717 1.54 0.721l0.39 2e-3zm4.77 47.7c-0.633-0.437-1.78-1.23-2.55-1.76l-1.4-0.969-0.522-0.844-1.4-1.01c-0.772-0.556-1.54-1.11-1.7-1.22-0.208-0.148-0.306-0.276-0.332-0.432-0.151-0.897-0.695-5.44-0.661-5.53 0.0231-0.0601 0.833-0.738 1.8-1.51 0.966-0.769 2.36-1.89 3.09-2.49 0.734-0.598 1.41-1.14 1.5-1.2l0.168-0.11 0.658 0.215c0.362 0.118 1.38 0.426 2.25 0.683 0.877 0.257 2.3 0.689 3.15 0.959 1.31 0.412 3.48 1.06 3.55 1.06 0.0289 0 1.38 1.53 2.25 2.55 0.415 0.486 0.755 0.936 0.755 1 0 0.111-0.581 2.13-1.17 4.06-0.311 1.02-0.115 0.791-1.87 2.23-1.1 0.901-1.59 1.35-1.99 1.84l-0.531 0.649-1.33 0.972c-2.14 1.56-2.26 1.65-2.42 1.64-0.0805-2e-3 -0.664-0.36-1.3-0.797zm2.33-5.63c0.214-0.224 0.447-0.53 0.517-0.678 0.198-0.418 0.7-0.8 1.45-1.11 1.61-0.655 2.48-1.13 3.61-1.98 0.292-0.22 0.764-0.557 1.05-0.749s0.553-0.392 0.596-0.444l0.0786-0.0947-0.354-0.368c-0.194-0.203-0.733-0.812-1.2-1.35-0.985-1.15-0.712-1.01-3.29-1.74-1.11-0.314-2.26-0.654-2.57-0.755-0.302-0.101-0.659-0.174-0.792-0.163-0.15 0.0129-0.292-0.0233-0.372-0.0952-0.071-0.0638-0.607-0.264-1.19-0.445-0.585-0.181-1.2-0.376-1.38-0.434-0.172-0.0579-0.352-0.0902-0.4-0.0718-0.148 0.0568-1.67 1.22-2.23 1.71-0.292 0.254-0.743 0.629-1 0.833-1.12 0.89-2.33 1.91-2.33 1.96 0 0.0661 2.06 1.49 2.43 1.68 0.125 0.0643 0.475 0.275 0.777 0.468l0.549 0.351 0.762 0.169c0.826 0.183 1.17 0.27 2.46 0.63 0.468 0.13 0.969 0.256 1.11 0.281 0.145 0.0249 0.284 0.0795 0.31 0.121 0.0737 0.119-0.127 0.21-0.361 0.163-0.576-0.116-1.2-0.155-1.8-0.113l-0.671 0.0457 0.493 0.386c0.271 0.212 0.67 0.55 0.885 0.752s0.5 0.422 0.631 0.49c0.132 0.0682 0.511 0.312 0.842 0.541 0.773 0.536 0.869 0.537 1.37 0.01zm-69.4 4.46c0.0377-0.0682 0.824-1.03 1.75-2.13l1.68-2.01-0.0823-0.181c-0.111-0.244-0.153-0.217 1.52-0.977 1.87-0.852 1.77-0.858 1.21 0.0678-0.931 1.54-0.997 1.64-1.21 1.73-0.237 0.111-1.71 1.21-3.58 2.66-1.23 0.959-1.41 1.08-1.28 0.841zm84.8-11.3c-3.61-1.56-9.08-4.02-9.45-4.26-0.227-0.145-0.21-0.152 0.686-0.27 0.435-0.0574 0.885-0.153 1-0.212 0.333-0.172 0.411-0.144 1.57 0.565 0.603 0.37 1.12 0.673 1.14 0.673 0.026 1.3e-4 0.457 0.26 0.957 0.578 0.5 0.318 1.98 1.21 3.28 1.99s2.42 1.46 2.48 1.51l0.104 0.0966-0.104-5e-3c-0.0571-3e-3 -0.805-0.307-1.66-0.677zm-2.06-6.3c-0.507-0.0899-1.29-0.232-1.74-0.317-1.71-0.322-1.66-0.293-1.22-0.727 0.359-0.351 0.311-0.359 2.4 0.422 2.38 0.889 2.44 0.956 0.555 0.622zm0.159-10.2c-0.681-0.515-0.765-0.606-0.607-0.66 0.165-0.0559 5.09-0.322 5.87-0.318 0.934 6e-3 0.911 0.0166-1.31 0.602-0.974 0.257-2.11 0.558-2.53 0.669l-0.763 0.202zm-77.1-13c-0.263-0.0609-5.24-1.14-5.83-1.27-0.713-0.15-0.707-0.203 0.0592-0.493 0.329-0.125 0.607-0.271 0.617-0.326 0.0209-0.11 0.0757-0.0647-3.06-2.51-2.32-1.81-2.9-2.29-2.77-2.3 0.0828-3e-3 2.4 1.26 5.52 3 1.2 0.67 2.22 1.2 2.36 1.22 0.173 0.0221 0.575 0.286 1.43 0.937 0.652 0.499 1.43 1.09 1.74 1.32 0.302 0.226 0.549 0.424 0.549 0.44 0 0.037-0.415 0.0232-0.602-0.0201zm66.7-4.69c-0.032-0.0518 0.698-0.788 1.69-1.7 0.241-0.223 0.442-0.476 0.477-0.603 0.0863-0.313 0.442-0.678 0.661-0.678 0.11 0 0.919-0.46 2.08-1.18 1.9-1.19 4.06-2.51 5.66-3.46 1.61-0.965 1.73-0.97 0.572-0.0217-0.445 0.365-1.63 1.34-2.64 2.16-2.38 1.95-3.73 3.09-3.76 3.18-0.0127 0.0401 0.11 0.12 0.274 0.177 0.483 0.17 0.408 0.24-0.665 0.62-0.557 0.198-1.59 0.572-2.29 0.832-1.84 0.683-2.01 0.74-2.05 0.678z" fill="#fa4b00"/><path d="m88.8 211c-0.234-0.0991-0.735-0.321-1.11-0.493-0.378-0.172-0.734-0.313-0.79-0.313-0.0561 0-0.289-0.14-0.516-0.311-0.228-0.171-0.797-0.519-1.26-0.774l-0.85-0.463-0.165-0.413c-0.0907-0.227-0.351-0.89-0.578-1.47l-0.413-1.06 0.109-0.212c0.0602-0.116 0.467-0.758 0.905-1.43l0.795-1.21 0.736-0.555c1.53-1.15 2.76-2.17 2.76-2.29 0-0.145-0.847-0.787-1.04-0.787-0.0725 0-0.467 0.129-0.876 0.287-0.409 0.158-1.06 0.41-1.45 0.56s-0.986 0.388-1.32 0.528c-0.339 0.14-0.635 0.255-0.658 0.255-0.0727 0-0.604-1.15-0.604-1.31 0-0.0829 0.0797-0.385 0.177-0.672 0.353-1.04 0.706-1.11-4.15 0.885-0.877 0.361-1.99 0.803-2.48 0.982-2.84 1.04-4.86 1.8-7.15 2.68-1.42 0.545-2.6 0.964-2.63 0.932-0.0294-0.0319-0.219-0.442-0.421-0.91l-0.367-0.852 0.367-0.919c1.58-3.94 4.78-11.5 4.95-11.7 0.0305-0.031 1.12-0.343 2.42-0.694 1.3-0.351 2.39-0.675 2.42-0.72 0.0747-0.121 0.0436-0.15-0.705-0.669-3.23-2.23-5.05-3.56-5.05-3.68 0-0.0516 0.16-0.646 0.355-1.32l0.355-1.23 0.0144-0.867c0.0193-1.16 0.171-1.09-1.93-1.01l-0.815 0.0306-2.23-0.627-1.36 0.231c-0.75 0.127-1.43 0.248-1.51 0.269-0.409 0.109 0.13-0.174 1.17-0.616 1.41-0.598 1.38-0.599 4.12 0.111l0.406 0.105 1.37-0.293c1.64-0.351 1.4-0.17 2-1.55l0.496-1.14 0.661-0.529c0.363-0.291 1.38-1.16 2.25-1.92l1.59-1.39v-0.3c0-0.39 0.0725-0.346-1.77-1.09-0.877-0.352-1.54-0.642-1.48-0.644 0.121-4e-3 2.78 0.608 3.68 0.845 0.726 0.192 0.637 0.223 1.67-0.574l0.921-0.714 3.07 0.101 0.184-0.345c0.101-0.19 0.312-0.526 0.469-0.747 0.204-0.288 0.304-0.517 0.351-0.804 0.0974-0.599 0.458-1.04 1.13-1.38 1.34-0.679 1.54-0.859 1.17-1.06-0.115-0.064-0.355-0.302-0.531-0.528-0.347-0.444-0.397-0.478-3.19-2.12-0.799-0.468-1.49-0.887-1.54-0.931-0.0483-0.0439-0.201-0.653-0.338-1.35-0.924-4.7-0.913-4.64-0.893-4.93 0.0218-0.312 2.9-4.49 3.14-4.56 1.01-0.284 4.14-1.03 4.31-1.03 0.258 0 0.131-0.106 2.54 2.12 0.951 0.88 1.99 1.83 2.3 2.12 0.315 0.285 0.61 0.565 0.654 0.623 0.0444 0.0574 0.919 0.544 1.94 1.08l1.86 0.977 0.237 0.562c0.13 0.309 0.544 1.33 0.92 2.26 0.376 0.935 0.721 1.74 0.768 1.79l0.0851 0.094 0.397-0.0734c0.818-0.151 2.46-0.723 2.71-0.944l0.242-0.212 9e-4 -0.258c5e-4 -0.142-0.0523-0.486-0.117-0.764l-0.118-0.506 0.186-0.486c0.102-0.267 0.346-0.901 0.541-1.41 0.449-1.17 0.463-1.07-0.246-1.8l-0.604-0.626-0.487-1.09c-0.268-0.599-0.666-1.47-0.884-1.93-0.218-0.463-0.397-0.861-0.396-0.886 0.0011-0.0646 0.207 0.202 2.13 2.76l1.74 2.32-0.34 1.72c-0.408 2.07-0.434 1.92 0.421 2.48 0.377 0.251 1.06 0.748 1.51 1.11l0.829 0.649 0.269 9.3e-4c0.148 5.1e-4 0.572 0.0639 0.942 0.141 0.886 0.184 0.95 0.181 1.98-0.0964 0.487-0.131 1.11-0.293 1.38-0.361 0.914-0.226 2.34-0.698 2.45-0.812 0.101-0.1 0.379-1.27 0.815-3.44 0.145-0.72 0.0537-0.632 1.43-1.37 2.01-1.08 3.82-2.09 4.01-2.24l0.184-0.142 0.341-1.31c0.641-2.46 1.1-4.07 1.13-3.92 0.0296 0.207-0.227 2.39-0.487 4.15-0.114 0.774-0.208 1.43-0.208 1.46 0 0.0308-0.213 0.19-0.473 0.355-1.45 0.913-4.22 2.78-4.25 2.87-0.052 0.136 0.102 1.61 0.176 1.68 0.0331 0.0331 0.226 0.104 0.428 0.157l0.368 0.097 1.22-0.274c0.671-0.15 1.41-0.319 1.65-0.376l0.433-0.102 0.488 0.17c0.268 0.0935 1.11 0.405 1.87 0.692 0.76 0.287 1.59 0.56 1.85 0.608l0.473 0.0857 0.688-0.224c0.849-0.276 0.813-0.314 0.859 0.893l0.0374 0.983 0.316 0.709 0.561 0.223c0.308 0.123 0.943 0.341 1.41 0.485 0.946 0.292 0.994 0.318 1.06 0.579 0.0652 0.26 0.797 1.72 0.942 1.88l0.12 0.133 0.25-0.0463c0.138-0.0255 0.529-0.11 0.87-0.188l0.62-0.142v-0.139c0-0.0763-0.147-0.393-0.326-0.705l-0.326-0.566 0.0337-0.228c0.0185-0.125 0.182-0.77 0.364-1.43 0.182-0.663 0.428-1.74 0.547-2.4s0.238-1.25 0.264-1.33c0.0261-0.0707 0.717-0.584 1.54-1.14 0.818-0.557 1.87-1.29 2.34-1.62 0.468-0.335 0.958-0.665 1.09-0.733 0.132-0.0676 0.902-0.582 1.71-1.14 2.08-1.45 3.1-2.08 3.32-2.08 0.169 5.6e-4 2.19 1.58 3.25 2.55l0.301 0.274 0.0105 1.26c6e-3 0.694 2e-3 1.56-8e-3 1.93l-0.019 0.669-1.53 2.56-1.55 0.916c-2.37 1.4-3.38 2.04-3.56 2.26-0.0535 0.0648-0.137 0.118-0.186 0.118-0.145 0-1.15 0.687-1.24 0.843-0.113 0.212-0.175 0.761-0.0912 0.812 0.0392 0.0242 1.04-0.254 2.22-0.619 2.83-0.873 5.5-1.64 5.55-1.6 0.0196 0.0196-0.0268 0.241-0.103 0.493-0.24 0.788-0.344 0.778 1.76 0.178 2.35-0.667 2.73-0.772 4.66-1.28 0.965-0.253 1.77-0.447 1.78-0.432 0.0152 0.0152-0.0513 0.278-0.148 0.583-0.245 0.776-0.258 0.769 1.02 0.48 3.2-0.721 8.47-1.78 8.54-1.71 0.0811 0.0811-4.21 9.75-6.82 15.3l-0.834 1.79-0.325 0.221c-0.883 0.602-0.981 0.864-0.509 1.36 2.57 2.72-0.0816 8.32-4.52 9.55l-0.543 0.151-1.84 9.8e-4 -0.461-0.159c-0.253-0.0876-0.671-0.301-0.928-0.475-0.624-0.421-0.199-0.496-5.52 0.97l-2.59 0.712-0.598 0.392c-0.329 0.216-0.834 0.572-1.12 0.791-0.289 0.219-0.635 0.465-0.769 0.547-0.135 0.0817-0.348 0.249-0.475 0.372-0.127 0.123-0.287 0.223-0.356 0.223-0.199 0-0.406 0.134-0.837 0.541-0.251 0.237-0.465 0.38-0.568 0.38-0.0914 0-0.405 0.138-0.696 0.307-0.291 0.169-0.746 0.426-1.01 0.571l-0.48 0.265-0.377 0.509c-0.207 0.28-0.622 0.848-0.922 1.26l-0.545 0.752-0.433 0.0453c-0.238 0.0249-0.644 0.0483-0.901 0.0521-0.257 4e-3 -0.624 0.0436-0.815 0.0886l-0.347 0.0818-1.9 2.83 0.0464 0.249c0.0715 0.383 0.629 0.828 2.14 1.7l0.79 0.459 1.11 2.29c0.609 1.26 1.09 2.31 1.08 2.32-0.0245 0.0245-2.37-3.06-2.88-3.79-0.183-0.262-0.135-0.239-1.73-0.826l-1.12-0.413-1.07 0.191c-0.591 0.105-1.14 0.19-1.23 0.19-0.0848-7e-4 -0.869 0.365-1.74 0.814s-1.66 0.815-1.75 0.815c-0.0911 0-1.14-0.421-2.33-0.935l-2.17-0.935-1.23-0.0232-0.138 0.15c-0.34 0.368-1.36 1.99-1.36 2.17 0 0.103 0.0656 0.313 0.146 0.467 0.262 0.505 1.64 4.13 1.61 4.22-0.0104 0.0294-0.321-0.352-0.69-0.847-1.84-2.47-2.36-3.17-2.39-3.25-0.0187-0.0464 0.288-0.753 0.681-1.57l0.715-1.49-0.207-0.515c-0.236-0.587-0.296-0.643-1.14-1.06l-0.613-0.3-1.34 0.674c-1 0.504-1.41 0.749-1.63 0.972-0.277 0.291-1.15 0.778-1.39 0.778-0.0678 0-0.579 0.243-1.14 0.539-2.32 1.24-2.73 1.44-2.83 1.44-0.057 0-1.07-0.321-2.26-0.714-2.6-0.859-3.4-1.08-3.52-0.962-0.0459 0.0448-0.15 0.655-0.231 1.36-0.0813 0.702-0.164 1.37-0.184 1.5l-0.0357 0.22-1.12 0.724c-0.618 0.398-1.19 0.816-1.27 0.928-0.083 0.112-0.256 0.233-0.385 0.269-0.129 0.0355-0.52 0.249-0.868 0.475-2.21 1.43-2.19 1.42-2.9 1.12zm1.46-1.11c0.327-0.209 0.993-0.647 1.48-0.974l0.884-0.595 0.132-0.461c0.0727-0.253 0.209-0.542 0.303-0.642 0.094-0.0996 0.171-0.233 0.171-0.297 0-0.0638 0.0319-0.136 0.0709-0.16 0.0426-0.0263 0.0709 0.0665 0.0709 0.233 0 0.188 0.0461 0.318 0.143 0.406l0.143 0.13 0.191-0.143c0.105-0.0786 0.209-0.22 0.231-0.314 0.0302-0.129 0.0945-0.176 0.264-0.193 0.299-0.0293 0.296-0.0115 0.327-1.89 0.0212-1.27-0.0399-2.78-0.087-2.15-0.0049 0.0656-0.0992 0.184-0.21 0.262-0.11 0.0786-0.307 0.344-0.437 0.589-0.13 0.246-0.294 0.522-0.366 0.615-0.0857 0.111-0.13 0.288-0.13 0.516 0 0.409-0.14 0.518-0.361 0.281-0.185-0.198-0.151-0.209-0.756 0.246-0.29 0.218-0.739 0.495-0.998 0.615-0.619 0.286-1.5 0.878-2.03 1.36l-0.421 0.385 0.111 0.693c0.146 0.91 0.0748 1.11-0.222 0.635-0.208-0.337-0.322-0.419-0.478-0.342-0.0713 0.0351-0.285 0.139-0.474 0.231-0.366 0.177-0.554 0.437-0.417 0.575 0.262 0.262 1.34 0.38 1.42 0.155 0.0966-0.274 0.331-0.274 0.414-1.4e-4 0.203 0.672 0.305 0.695 1.03 0.234zm-2.93-1.32c0.402-0.305 0.52-0.338 0.648-0.185 0.123 0.148 0.361 0.192 0.361 0.0672 0-0.224-0.146-0.38-0.342-0.365-0.245 0.0186-0.379-0.0625-0.355-0.214 0.0298-0.189-0.222-0.507-0.401-0.507-0.088 0-0.3-0.0498-0.47-0.111-0.274-0.0977-0.825-0.093-0.99 8e-3 -0.023 0.0141-0.0148 0.223 0.0183 0.465l0.0601 0.439-0.221 0.244 0.192 0.151c0.277 0.218 0.512 0.262 0.619 0.116l0.088-0.12 0.174 0.145c0.224 0.186 0.185 0.194 0.618-0.134zm-2.11-1.14c0.558-0.417 0.552-0.4 0.205-0.557-0.49-0.222-0.988-0.0315-0.871 0.334 0.194 0.606 0.166 0.596 0.666 0.223zm4.25-0.695c0.534-0.347 1.09-0.673 1.25-0.726 0.189-0.0663 0.494-0.323 0.977-0.824 0.463-0.479 0.778-0.747 0.921-0.784l0.218-0.0561 0.488-0.705c0.75-1.08 1.32-2.01 1.32-2.15 0-0.119-1.09-0.542-1.75-0.682-0.126-0.0264-0.248-0.0775-0.27-0.113-0.0222-0.036-0.129-0.0654-0.237-0.0654-0.108 0-0.353-0.081-0.545-0.18-0.192-0.099-0.713-0.307-1.16-0.462l-0.809-0.282-0.254 0.169c-0.14 0.0931-0.668 0.51-1.17 0.927-0.507 0.417-1.4 1.12-1.98 1.56l-1.06 0.806-0.74 1.11c-0.407 0.612-0.742 1.18-0.744 1.25l-0.0045 0.14 0.85 0.386c0.468 0.212 1.1 0.459 1.4 0.549 0.3 0.0895 0.66 0.231 0.801 0.314 0.141 0.0832 0.342 0.154 0.447 0.157 0.105 3e-3 0.35 0.0643 0.545 0.136 0.507 0.187 0.464 0.201 1.53-0.488zm11.7-2.15c-0.0563-0.0899-0.12-0.369-0.141-0.621-0.0455-0.545-0.14-0.641-0.633-0.641h-0.344l-0.179-0.193c-0.17-0.184-0.457-0.292-1.16-0.44l-0.319-0.0669-0.337 0.332 0.0748 0.215c0.0801 0.23 0.0402 0.509-0.0854 0.598-0.151 0.106 0.187 0.277 0.463 0.235l0.257-0.0398 0.176 0.176c0.315 0.315 0.951 0.549 1.59 0.586l0.579 0.0334-0.0402 0.105c-0.0221 0.0577 4e-3 0.133 0.0587 0.167 0.142 0.0888 0.171-0.235 0.0405-0.444zm1.2 0.143c0.305-0.163 0.698-0.394 0.872-0.514 0.175-0.12 0.557-0.347 0.85-0.505l0.533-0.288-0.0144-0.173c-0.0102-0.122 0.0596-0.234 0.237-0.381l0.252-0.208 0.439 0.166 0.162-0.106c0.193-0.126 0.409-0.44 0.411-0.594 7.4e-4 -0.0694 0.0925-0.126 0.249-0.155 0.136-0.0246 0.338-0.0811 0.448-0.125 0.11-0.0443 0.305-0.0806 0.433-0.0806 0.34 0 2.15-1.02 2.26-1.27 0.0934-0.22 0.12-2.28 0.0297-2.28-0.0338 0-0.146 0.0598-0.25 0.133-0.103 0.0731-0.414 0.246-0.691 0.385-0.277 0.139-0.595 0.329-0.709 0.423-0.113 0.0937-0.509 0.372-0.879 0.619s-0.817 0.585-0.992 0.751c-0.175 0.167-0.491 0.467-0.7 0.668l-0.382 0.365-0.238-0.0446c-0.262-0.0492-0.419 0.0144-0.829 0.336-0.191 0.15-0.248 0.234-0.195 0.287 0.253 0.253-0.0819 0.546-0.427 0.373-0.32-0.159-0.829 0.135-1.05 0.609-0.0653 0.137-0.179 0.244-0.285 0.269l-0.177 0.0413-0.0417 0.422c-0.0229 0.232-0.0657 0.496-0.095 0.587-0.0545 0.168 0.0699 0.579 0.175 0.579 0.0312 0 0.306-0.133 0.611-0.296zm4.12-3.26c-0.0682-0.0385-0.124-0.1-0.124-0.137 0-0.093 0.264-0.085 0.323 0.01 0.0738 0.119-0.0604 0.206-0.199 0.128zm12.5 2.86c0.0406-0.146 0.074-0.334 0.0742-0.416 2.2e-4 -0.0829 0.0494-0.191 0.109-0.241 0.0841-0.0698 0.106-0.226 0.0971-0.688l-0.0118-0.597-0.149-0.139c-0.0819-0.0763-0.325-0.224-0.54-0.328-0.215-0.104-0.543-0.298-0.729-0.43s-0.568-0.319-0.85-0.416c-0.282-0.0964-0.736-0.319-1.01-0.494-1.14-0.73-1.41-0.886-2.11-1.18-0.4-0.172-0.814-0.333-0.92-0.357-0.106-0.0246-0.311-0.125-0.455-0.223-0.537-0.364-0.744-0.328-0.876 0.156-0.0516 0.189-0.152 0.454-0.224 0.59-0.0714 0.136-0.13 0.364-0.13 0.506 0 0.165-0.0386 0.274-0.106 0.3-0.194 0.0745-0.11 0.16 0.254 0.259l0.36 0.098-0.0638 0.334 0.84 0.421c0.462 0.232 0.915 0.421 1.01 0.421s0.372 0.132 0.621 0.294 0.629 0.356 0.844 0.431c0.214 0.0752 0.454 0.194 0.531 0.264 0.271 0.243 2.27 1.21 2.5 1.21 0.163 0 0.294 0.0688 0.473 0.248 0.313 0.313 0.37 0.311 0.462-0.0177zm0.819-0.0886c0.147-0.117 0.312-0.213 0.367-0.213 0.179 0 0.692-0.299 0.913-0.533 0.14-0.148 0.357-0.27 0.612-0.344 0.217-0.0631 0.55-0.226 0.739-0.362 0.19-0.136 0.495-0.328 0.679-0.426 0.184-0.0978 0.369-0.242 0.411-0.321 0.0798-0.149 0.349-1.29 0.352-1.49l2e-3 -0.114-0.266 0.0491c-0.146 0.027-0.512 0.166-0.813 0.309-0.301 0.143-0.582 0.26-0.625 0.26s-0.22 0.0978-0.394 0.217c-0.174 0.12-0.482 0.296-0.686 0.392-0.783 0.369-1.13 0.698-1.32 1.26-0.0836 0.24-0.198 0.527-0.254 0.637-0.11 0.216-0.141 0.898-0.041 0.898 0.0336 0 0.182-0.0957 0.329-0.213zm-17.9-1.69c0.499-0.329 0.56-0.351 0.757-0.269 0.0803 0.0336 0.169-0.0376 0.308-0.249 0.535-0.809 1.34-1.38 3.12-2.23 1.16-0.556 2.66-1.71 3.31-2.56 0.0947-0.123 0.195-0.159 0.437-0.159h0.315l0.159-0.23c0.0872-0.127 0.392-0.474 0.678-0.771 0.37-0.385 0.519-0.593 0.519-0.723 0-0.298-0.145-0.883-0.238-0.96-0.09-0.0747-4.43 1.35-7.42 2.44-1.85 0.674-1.72 0.687-1.49-0.144 0.168-0.587 0.174-0.673 0.0433-0.673-0.124 0-2.79 1.25-4.16 1.95-0.874 0.446-1.27 0.605-1.26 0.512 2.26e-4 -0.01 0.0336-0.209 0.0742-0.443 0.0406-0.234 0.0988-0.648 0.129-0.921 0.0306-0.273 0.132-0.853 0.225-1.29 0.165-0.774 0.164-0.94-0.0071-0.835-0.0735 0.0454-1.9 2.78-2.76 4.14-0.173 0.273-0.338 0.496-0.367 0.496-0.0729 0-0.237-0.628-0.343-1.31-0.0589-0.38-0.133-0.609-0.223-0.694-0.078-0.0734-0.135-0.223-0.135-0.354-2.04e-4 -0.238-0.382-1.87-0.454-1.95-0.0807-0.0807-0.151 0.0717-0.437 0.954l-0.289 0.89-1.2 0.478c-1.42 0.565-1.39 0.528-0.691 0.959 0.304 0.187 0.794 0.526 1.09 0.753 0.296 0.227 0.56 0.412 0.587 0.412 0.0621 0 3.63 1.28 4.44 1.59 0.331 0.128 0.969 0.368 1.42 0.532 0.448 0.165 0.958 0.382 1.13 0.483 1.04 0.596 1.99 0.656 2.72 0.17zm18.4-1.04c0.271-0.136 0.565-0.248 0.654-0.248 0.344 0 1.75-1.07 2.74-2.09 0.325-0.334 0.63-0.607 0.677-0.607 0.215 0 1.6-2 1.6-2.31 0-0.148-0.715-0.997-1.03-1.22-0.169-0.121-0.242-0.239-0.274-0.44l-0.044-0.275-0.334-0.255c-0.184-0.14-0.383-0.24-0.443-0.222-0.0948 0.0294-2.78 1.01-4.45 1.62-0.746 0.275-0.729 0.314-0.452-1.02 0.143-0.691 0.21-1.16 0.17-1.2-0.0705-0.0705-1.56 0.432-3.8 1.28-1.6 0.607-1.52 0.618-1.44-0.182 0.11-1.18 0.234-3.65 0.187-3.73-0.0312-0.0505-0.207-0.019-0.532 0.0948l-0.485 0.17-0.149 0.294c-0.0817 0.162-0.23 0.433-0.329 0.602-0.635 1.08-0.663 1.47-0.198 2.63l0.352 0.88-0.216 0.597c-0.119 0.328-0.243 0.676-0.276 0.774-0.0331 0.0974-0.128 0.364-0.21 0.591l-0.15 0.414 0.0864 0.104c0.0475 0.0573 0.175 0.15 0.283 0.206 0.108 0.0558 0.54 0.341 0.959 0.633l0.763 0.532 0.572 0.00186 0.508 0.341c0.28 0.187 0.726 0.432 0.992 0.544s0.624 0.309 0.795 0.438 0.426 0.266 0.567 0.305c0.141 0.0386 0.67 0.278 1.18 0.531 1.07 0.537 1.09 0.539 1.74 0.213zm-49.6-2.02c1.47-0.583 3.99-1.58 5.61-2.23 2.73-1.08 4.53-1.81 6.73-2.74 1.01-0.421 1.19-0.57 2.04-1.63l0.54-0.673 0.525-1.17c0.598-1.33 2.13-5.24 2.19-5.57l0.0352-0.217-0.45-0.238c-0.501-0.265-3.45-1.86-6.46-3.49-1.08-0.587-1.97-1.11-1.97-1.16 0-0.338 0.19-0.443 1.98-1.09 1.86-0.677 3.45-1.19 3.87-1.24l0.355-0.0467 0.353 0.381c0.194 0.21 0.454 0.508 0.576 0.662l0.223 0.281 0.357-0.744c2.9-6.04 3.8-8 3.72-8.09-0.0406-0.0406-0.336-0.0264-0.769 0.0369-0.387 0.0566-1.05 0.138-1.48 0.181-1.74 0.175-5.56 0.76-7.16 1.09-0.769 0.161-3.31 1.82-6.88 4.49l-1.08 0.803-0.673 2.04c-0.726 2.2-1.25 3.88-1.25 4.01 0 0.0456 1.79 1.05 3.99 2.24 5.03 2.72 5.04 2.73 5.07 2.86 0.0538 0.27-0.279 0.434-1.51 0.747-1.44 0.366-5.85 1.57-6.68 1.82-0.711 0.217-0.613 0.0778-1.47 2.08-2.95 6.87-3.26 7.65-3.08 7.65 0.0418 0 1.28-0.477 2.75-1.06zm58.7-1.93c0.0997-0.121 0.188-0.62 0.11-0.62-0.107 0-0.373 0.213-0.453 0.362-0.132 0.246 0.168 0.47 0.344 0.258zm-43.7-0.804c0.429-0.179 1.78-0.739 3.01-1.25 2.71-1.12 2.49-0.981 2.69-1.66 0.0896-0.306 0.476-1.54 0.858-2.75 0.819-2.59 1.88-6.07 2.03-6.64 0.112-0.43 0.23-0.54 0.23-0.213 2.7e-5 0.107 0.0806 1.61 0.179 3.35 0.0985 1.73 0.223 4.01 0.277 5.05 0.0538 1.05 0.117 1.92 0.141 1.94 0.0758 0.0758 0.154-0.0501 1.46-2.36 2.01-3.55 3.27-5.81 4.59-8.24 0.738-1.36 0.749-1.33 0.321 0.729-0.311 1.5-1.14 5.21-1.67 7.48-0.423 1.82-0.474 2.12-0.362 2.12 0.061 0 1.12-0.505 3.94-1.87 0.853-0.414 1.57-0.753 1.6-0.753 0.237 0 0.511-1.18 1.39-5.95 0.175-0.955 0.56-3.04 0.854-4.64 0.294-1.6 0.658-3.59 0.809-4.43s0.386-2.13 0.523-2.87c0.612-3.31 0.768-4.22 0.727-4.26-0.0855-0.0855-1.94 0.443-5.42 1.54-0.925 0.292-0.462-0.471-4.24 7.01-0.522 1.03-0.984 1.91-1.03 1.95-0.0534 0.0501-0.0628-0.313-0.0322-1.24 0.0642-1.94 0.248-5.98 0.3-6.6 0.0307-0.364 0.02-0.556-0.0327-0.588-0.143-0.0881-5.8 1.71-5.95 1.89-0.0413 0.0498-0.233 0.536-0.425 1.08-0.337 0.953-0.987 2.76-2.21 6.13-0.318 0.877-0.757 2.1-0.976 2.72l-0.397 1.13 0.132 0.0764c0.0727 0.042 0.22 0.156 0.328 0.254l0.196 0.177-0.343 0.921c-0.331 0.889-0.56 1.48-1.91 4.92-0.344 0.877-0.76 1.95-0.924 2.37-0.194 0.506-0.37 0.848-0.503 0.974-0.202 0.191-1.15 2.63-1.08 2.76 0.0472 0.0825 0.0789 0.073 0.908-0.272zm41.8-1.18 0.591-0.207 0.365 0.081c1.53 0.339 1.61 0.327 2.16-0.356 0.235-0.292 0.67-0.814 0.966-1.16 0.733-0.854 0.707-0.913-0.238-0.54-0.676 0.267-0.661 0.308-0.386-1.06 0.297-1.47 0.315-1.44-0.594-1.04-0.93 0.414-2.77 1.18-3.7 1.53-0.487 0.186-0.939 0.359-1 0.386-0.0662 0.0268-0.201 0.286-0.307 0.592-0.297 0.853-0.299 0.812 0.0467 1.08 0.169 0.131 0.495 0.407 0.725 0.612l0.418 0.373 0.184-0.0444c0.101-0.0244 0.45-0.137 0.776-0.251zm-21.7-2.18c0.526-0.202 1.75-0.669 2.73-1.04 0.974-0.368 1.79-0.692 1.82-0.72 0.0252-0.028 0.339-0.848 0.698-1.82 0.358-0.974 0.689-1.79 0.735-1.82 0.149-0.0947 3.91-1.33 4.04-1.33h0.135l-0.046 0.833c-0.0253 0.458-0.0997 1.57-0.165 2.48-0.136 1.89-0.16 1.8 0.42 1.56 1.41-0.579 4.08-1.67 4.62-1.89l0.638-0.256 0.0179-10.9c0.01-6.02-9e-3 -11-0.0425-11-0.11-0.11-7.34 2.17-7.77 2.46-0.0779 0.0506-0.186 0.216-0.239 0.368-0.133 0.375-3.25 8.34-4.94 12.6-1.47 3.73-1.58 4.06-1.8 5.42-0.233 1.45-0.64 3.78-0.676 3.88-0.0183 0.0511-0.27 0.202-0.559 0.336l-0.525 0.243-0.149 0.44c-0.0817 0.242-0.149 0.485-0.149 0.541 0 0.123-5e-3 0.124 1.2-0.34zm7.79-10.9c0-0.248 2.55-6.99 2.64-6.99 0.0474 0 0.0562 0.473 0.026 1.4-0.0251 0.77-0.067 2.21-0.0931 3.2l-0.0474 1.8-0.148 0.0605c-0.734 0.299-2.38 0.671-2.38 0.537zm10.3 8.56c4.19-1.72 5.47-2.26 7.14-3.01l0.838-0.378 0.27-0.323c0.537-0.643 1.04-1.68 1.41-2.92 0.378-1.26 1.21-4.52 1.21-4.74 0-0.141-2.35-1.74-5.14-3.5-0.663-0.418-1.26-0.822-1.33-0.899l-0.121-0.14 0.0843-0.185c0.134-0.293 3.58-1.72 4.16-1.72 0.0991 0 0.47 0.411 0.755 0.836 0.297 0.444 0.365 0.44 0.529-0.0256 1.34-3.8 2.69-7.82 2.69-8.02v-0.17l-0.195 0.0406c-0.107 0.0223-0.673 0.123-1.26 0.224-1.68 0.289-3.94 0.832-5.61 1.35l-0.792 0.244-0.877 0.7c-1.04 0.828-2.51 2.23-3.43 3.27l-0.663 0.744-0.139 0.461c-0.174 0.577-0.907 4.25-0.935 4.68l-0.0204 0.319 0.673 0.445c0.37 0.245 1.2 0.775 1.84 1.18 3.3 2.07 3.9 2.46 4.07 2.65l0.137 0.154-0.139 0.186c-0.161 0.216-0.164 0.217-2.64 0.874-2.25 0.597-2 0.593-2.52 0.0353-0.645-0.691-0.521-0.949-1.15 2.41l-0.401 2.13-0.0768 2.13-0.803 0.383-0.109 0.376c-0.284 0.978-0.334 1.33-0.188 1.33 0.0253 0 1.26-0.496 2.73-1.1zm11.2-1.56c2.94-1.14 3.02-1.17 3.14-1.31 0.0626-0.0702 0.153-0.329 0.201-0.575 0.0478-0.246 0.419-1.94 0.825-3.77 0.406-1.83 0.738-3.33 0.738-3.35 0-0.07 2.5-0.821 2.55-0.767 0.0659 0.0707 0.0219 0.263-1.17 5.12-0.484 1.96-0.862 3.59-0.841 3.61 0.0345 0.0345 1.47-0.441 4.21-1.39l0.956-0.332 0.476-1.81c0.262-0.994 0.698-2.62 0.97-3.61 0.272-0.994 0.639-2.35 0.817-3.01 0.311-1.16 1.75-6.22 2.95-10.3 0.786-2.71 0.918-3.22 0.848-3.26-0.207-0.128-6.24 1.65-6.24 1.84 0 0.0274-1.5 6.76-1.74 7.8-0.0627 0.274-0.138 0.538-0.168 0.586-0.0554 0.0897-2.48 0.821-2.54 0.765-0.0171-0.0171 0.131-0.679 0.329-1.47 0.337-1.35 0.568-2.22 1.74-6.57 0.256-0.953 0.441-1.76 0.411-1.79-0.0698-0.0698-1.96 0.468-4.25 1.21l-1.79 0.58-0.067 0.155c-0.0744 0.172-2.19 10.8-2.19 11 0 0.069 0.0957 0.194 0.213 0.277 0.29 0.206 0.288 0.221-0.291 2.43-0.277 1.06-0.566 2.16-0.642 2.46-0.0763 0.292-0.314 1.23-0.527 2.09-0.242 0.971-0.445 1.64-0.539 1.77-0.127 0.175-0.616 2.09-0.621 2.43-2e-3 0.141 0.0278 0.131 2.25-0.728zm15.6-1.66c3.82-1.62 5.04-6.65 1.6-6.62-3.52 0.0305-6.58 5.48-3.8 6.76l0.296 0.136 1.35-0.0432zm0.462-8.43c0.441-0.234 1.13-0.584 1.54-0.779 0.415-0.2 0.777-0.424 0.832-0.514 0.0535-0.0878 0.329-0.558 0.612-1.05 0.283-0.487 0.708-1.16 0.944-1.49 0.628-0.881 0.913-1.44 3.38-6.66 0.341-0.721 1.01-2.11 1.48-3.09 0.473-0.979 0.86-1.8 0.86-1.82 0-0.202-7.3 1.35-7.56 1.61-0.047 0.0463-0.245 0.865-0.439 1.82-0.367 1.8-0.628 3.04-1.18 5.56-0.178 0.818-0.404 1.87-0.502 2.34-0.0981 0.468-0.352 1.64-0.564 2.6-0.212 0.963-0.386 1.78-0.386 1.82 0 0.139 0.187 0.0722 0.986-0.352zm-49.7-7.74 0.713-1.36 1.06-0.336c1.19-0.377 1.19-0.38 1.31-1.04 0.0465-0.261 0.0999-0.531 0.119-0.6 0.0419-0.153 0.166-0.0918 0.166 0.0816 0 0.069 0.0987 0.274 0.219 0.456 0.304 0.459 0.112 0.48 2.76-0.307 1.95-0.581 3.27-0.937 3.31-0.895 0.0198 0.0198 5e-4 0.365-0.0429 0.767-0.251 2.33-0.354 4.24-0.228 4.24 0.0344 0 0.135-0.183 0.223-0.407s0.28-0.631 0.427-0.903 0.393-0.815 0.547-1.2c0.154-0.39 0.34-0.834 0.414-0.987l0.133-0.278 1.73-0.593c2.04-0.697 1.88-0.6 1.94-1.23 0.0605-0.651 0.0871-0.683 0.353-0.427 0.191 0.184 0.47 0.322 0.977 0.483 0.0641 0.0204 0.734-0.155 1.49-0.39 1.68-0.525 3.79-1.14 3.89-1.14 0.047 0 0.0721 0.872 0.0728 2.53 6.2e-4 1.43 0.0297 2.58 0.0667 2.64l0.0656 0.104 1.13-1.17c0.621-0.642 1.4-1.4 1.74-1.69 0.688-0.591 0.697-0.606 0.708-1.33l8e-3 -0.523 0.0963 0.0369c0.0529 0.0203 0.124 0.037 0.159 0.037 0.0344 0 0.173 0.0969 0.308 0.215l0.245 0.215 0.926-0.301c1.08-0.349 1.02-0.233 0.631-1.35-0.345-0.988-0.293-0.942-1.46-1.3l-0.871-0.267-0.192 0.0665c-0.18 0.0623-0.555 0.555-0.885 1.16-0.183 0.337-0.189 0.275-0.0655-0.732l0.111-0.91-0.238-0.437c-0.734-1.35-0.994-1.6-1.67-1.6-0.18-2e-3 -0.433-0.0812-0.673-0.211-0.714-0.386-1.44-0.725-2.4-1.12l-0.955-0.392-0.462 0.105c-0.254 0.058-0.876 0.224-1.38 0.369-0.507 0.145-1.15 0.329-1.43 0.408l-0.509 0.144-0.0911 0.22c-0.0501 0.121-0.237 0.381-0.416 0.578-1.05 1.16-1.09 1.3-0.741 2.52 0.138 0.484 0.282 1 0.322 1.15l0.0717 0.266 0.49 0.323c0.446 0.294 0.649 0.54 0.538 0.651-0.0234 0.0234-0.13-0.0366-0.237-0.133-0.632-0.573-0.858-0.655-1.04-0.374-0.173 0.265-0.194 0.185-0.0969-0.38l0.0858-0.501-0.35-0.407c-0.193-0.224-0.639-0.808-0.991-1.3l-0.641-0.892-0.196-0.0228c-0.419-0.0489-4.43 1.22-5.06 1.6-0.301 0.181-0.448 0.23-0.581 0.195-0.277-0.0748-0.626-0.0513-1.15 0.0776l-0.484 0.119-0.112 0.222c-0.0618 0.122-0.396 0.655-0.742 1.18-0.708 1.08-0.711 1.1-0.411 1.78 0.12 0.273 0.203 0.512 0.184 0.53-0.0337 0.0337-0.898-0.938-0.898-1.01 0-0.0353 0.466-1.6 0.784-2.63 0.0752-0.244 0.137-0.488 0.137-0.541 0-0.141-1.88-1.74-2.05-1.74-0.0418 0-1.04 0.318-2.22 0.708l-2.14 0.708-0.372 0.703c-0.205 0.387-0.372 0.788-0.372 0.891 0 0.103-0.15 0.528-0.333 0.945-0.414 0.944-0.417 1.12-0.0305 1.88 0.356 0.701 0.36 0.751 0.0454 0.511-0.136-0.104-0.381-0.236-0.545-0.293l-0.298-0.105-0.0818 0.0902c-0.045 0.0496-0.189 0.34-0.32 0.645-0.297 0.691-0.206 0.662-1.03 0.333-0.385-0.154-1.11-0.436-1.62-0.627-0.507-0.191-1.43-0.554-2.05-0.807-0.624-0.253-1.49-0.597-1.93-0.765l-0.799-0.306-2.94 1.49-0.523 1.04c-0.635 1.27-0.647 1.24 0.43 1.08 0.785-0.116 3.15-0.424 4.98-0.648 0.507-0.0618 1.24-0.158 1.64-0.214 0.82-0.116 1.3-0.131 1.3-0.0385 0 0.0349-0.0957 0.288-0.213 0.563-0.117 0.275-0.213 0.549-0.213 0.61v0.111l0.39-0.0458c0.48-0.0565 0.48-0.0952-0.0027 0.933-0.231 0.491-0.366 0.861-0.329 0.899 0.0373 0.0373 0.571-0.0969 1.3-0.326 1.95-0.617 4.26-1.37 4.46-1.45 0.377-0.157 1.93-0.585 1.97-0.543 0.0242 0.0242 0.0355 0.777 0.0252 1.67-0.0256 2.21-0.0765 2.2 0.938 0.261zm-7.35-5c-0.0216-0.146-0.0586-0.361-0.0821-0.478-0.0414-0.205 0.0796-0.499 0.146-0.354 0.506 1.11 0.682 1.24 0.917 0.697 0.0983-0.228 0.277-0.612 0.398-0.854 0.15-0.301 0.236-0.603 0.273-0.957 0.0652-0.628 0.117-0.765 0.287-0.765 0.0935 0 0.202-0.148 0.376-0.514l0.244-0.514-0.0624-1.42c-0.0817-1.86-0.164-2.21-0.432-1.88-0.385 0.483-0.935 1.07-1.07 1.14l-0.148 0.079 0.041-0.205c0.0226-0.113 0.312-0.66 0.643-1.22l0.602-1.01-0.108-0.318c-0.0647-0.19-0.198-0.387-0.331-0.488-0.209-0.159-3.32-1.81-3.41-1.81-0.0229 0-0.251-0.209-0.507-0.465-0.256-0.256-0.589-0.547-0.74-0.647l-0.275-0.182-0.301 0.04c-0.544 0.0722-0.919 0.685-0.919 1.5 0 0.282-0.0244 0.552-0.0541 0.6l-0.0541 0.0876-0.0549-0.0888c-0.0302-0.0489-0.0501-0.857-0.0442-1.8l0.0107-1.71-0.868-0.837c-0.477-0.46-1-0.948-1.16-1.08l-0.294-0.246-1.97 0.499c-1.08 0.274-1.98 0.499-1.99 0.499-0.0107 0-0.266 0.359-0.567 0.797s-0.711 1.02-0.91 1.29c-0.526 0.719-1.17 1.77-1.17 1.91 0 0.107 1.44 1.11 1.75 1.22 0.0681 0.0246 0.427 0.27 0.797 0.545 0.37 0.275 0.833 0.597 1.03 0.715 0.195 0.118 0.498 0.313 0.673 0.433s0.43 0.276 0.567 0.347c0.594 0.309 1.28 0.639 1.87 0.895 0.348 0.151 0.685 0.323 0.749 0.381 0.168 0.152 1.13 0.646 1.37 0.703 0.112 0.0268 0.352 0.17 0.531 0.318 0.18 0.148 0.519 0.375 0.752 0.504 0.234 0.129 0.515 0.297 0.624 0.372l0.199 0.138-0.121 0.134c-0.0667 0.0737-0.198 0.134-0.291 0.134-0.167 0-0.286 0.104-0.687 0.603-0.113 0.14-0.33 0.319-0.482 0.396l-0.277 0.141 0.128 0.167c0.0702 0.0917 0.553 0.558 1.07 1.04l0.944 0.869 0.579 0.242c1.33 0.555 1.58 0.651 1.7 0.653l0.133 2e-3zm-0.633-1.91c-0.0988-0.149-0.261-0.433-0.361-0.63-0.13-0.257-0.248-0.385-0.416-0.453-0.78-0.316-0.857-0.762-0.0909-0.53 0.505 0.153 0.467 0.174 1.1-0.603 0.32-0.391 0.641-0.743 0.713-0.782l0.131-0.0702v0.165c0 0.0907-0.154 0.408-0.342 0.706s-0.417 0.684-0.51 0.858l-0.168 0.316 0.124 0.415c0.24 0.804 0.148 1.11-0.184 0.609zm40.9 0.0116c0.0625-0.0625 0.177-0.238 0.255-0.39 0.144-0.283 0.28-0.363 0.28-0.165 0 0.061-0.0345 0.175-0.0766 0.254-0.0421 0.0787-0.0583 0.161-0.0359 0.184 0.0472 0.0472 1.38-0.234 1.74-0.368 0.136-0.0501 0.401-0.113 0.587-0.141 0.887-0.129 1.84-0.764 2.44-1.63 0.22-0.316 0.566-0.783 0.769-1.04 0.389-0.489 0.91-1.27 0.869-1.3-0.013-0.0107-0.566 0.217-1.23 0.505s-1.36 0.59-1.56 0.669-0.45 0.202-0.567 0.273c-0.117 0.0711-0.575 0.316-1.02 0.544s-0.818 0.446-0.833 0.485c-0.0154 0.039-0.255 0.31-0.531 0.602l-0.503 0.531 0.0373-0.213c0.0205-0.117 0.0934-0.407 0.162-0.644l0.125-0.432-0.377-0.546c-0.207-0.3-0.469-0.611-0.581-0.691-0.112-0.0799-0.295-0.326-0.407-0.546s-0.284-0.477-0.383-0.569l-0.18-0.168-0.103 0.38c-0.217 0.803-0.547 2.24-0.606 2.64l-0.0615 0.417 0.327 0.376c0.18 0.207 0.465 0.537 0.634 0.735 0.332 0.388 0.601 0.468 0.824 0.245zm-46-0.648c-0.0266-0.146-0.105-0.347-0.175-0.446-0.0694-0.099-0.243-0.425-0.385-0.725-0.142-0.3-0.288-0.564-0.325-0.586-0.0362-0.0224-0.0662-0.0946-0.0667-0.161-4.94e-4 -0.0659-0.177-0.339-0.392-0.606-0.215-0.268-0.458-0.618-0.538-0.779-0.175-0.35-0.451-0.659-0.708-0.793l-0.187-0.0978-0.0365 0.14c-0.0579 0.222-0.153 0.17-0.58-0.317-0.22-0.251-0.55-0.548-0.732-0.661-1.21-0.747-1.7-1.01-1.89-1.01-0.122 0-0.143 0.0753-0.255 0.926-0.0439 0.334-0.11 0.653-0.147 0.709l-0.0667 0.102-0.095-0.124c-0.0523-0.0682-0.179-0.124-0.282-0.124-0.237 0-0.237 0.0504-0.0099 1.15 0.0974 0.47 0.177 0.863 0.177 0.872 0 0.033 2.59 1.29 3.05 1.48 0.253 0.105 0.684 0.299 0.957 0.432s0.708 0.292 0.968 0.355c0.259 0.0622 0.722 0.204 1.03 0.315 0.745 0.271 0.75 0.27 0.691-0.051zm1.14-1.11c0.328-0.132 0.663-0.287 0.745-0.345l0.149-0.105-0.247-0.217c-0.247-0.217-2.8-1.53-2.86-1.47-0.0174 0.0173 0.0022 0.12 0.0435 0.229 0.0413 0.108 0.113 0.373 0.16 0.587 0.0976 0.447 0.221 0.606 0.811 1.04 0.234 0.174 0.451 0.36 0.482 0.415 0.0732 0.129 0.0293 0.137 0.719-0.141zm47.6-1.57c0.864-0.293 3.43-1.62 3.51-1.82 0.0598-0.15 1.45-0.785 1.87-0.858 0.304-0.0516 3.01-1.36 3.12-1.51 0.0617-0.0822 0.0886-0.442 0.0886-1.19v-1.07l-0.266-0.25c-0.146-0.138-0.409-0.359-0.584-0.493-0.175-0.133-0.701-0.569-1.17-0.969-0.468-0.399-0.898-0.726-0.957-0.725-0.0587 8e-4 -0.903 0.535-1.88 1.19l-1.77 1.19-0.464 0.9c-0.255 0.495-0.504 0.939-0.552 0.988l-0.0876 0.0876v-0.252c0-0.365-0.133-0.698-0.279-0.698-0.175 0-4.01 2.61-4.14 2.82-0.0407 0.0658 0.735 1.42 1.15 2.01 0.55 0.78 1.37 1 2.4 0.651zm-55.8-2.85c0.153-0.17 0.0786-0.365-0.14-0.365-0.174 0-0.22 0.14-0.127 0.384 0.0561 0.146 0.121 0.141 0.267-0.0194zm-0.28-0.974c0.172-0.0659 0.134-0.215-0.0955-0.379-0.251-0.178-0.309-0.116-0.179 0.192 0.104 0.248 0.108 0.251 0.275 0.187zm61.7 51.4c-0.446-0.303-1.59-1.09-2.54-1.75l-1.73-1.2-0.58-0.883-1.17-0.84c-0.643-0.462-1.4-1.01-1.68-1.21l-0.506-0.371-0.0769-0.546c-0.0423-0.3-0.211-1.58-0.374-2.85l-0.297-2.3 0.242-0.192c1.27-1.01 4.4-3.51 5.13-4.11 1.19-0.969 1.12-0.934 1.63-0.759 0.556 0.188 3.33 1.02 3.97 1.19 0.273 0.0729 1.18 0.352 2.02 0.621 0.838 0.268 1.89 0.593 2.35 0.721l0.824 0.233 0.806 0.929c1.84 2.12 2.12 2.45 2.12 2.52 0 0.163-1.36 4.74-1.46 4.91-0.0626 0.106-0.47 0.453-2.17 1.84-0.487 0.398-1.06 0.952-1.39 1.35l-0.569 0.676-1.51 1.1c-2.41 1.76-2 1.63-3.04 0.921zm0.724-0.907c0.0273-0.114 0.121-0.548 0.209-0.966l0.159-0.759-0.0852-0.659c-0.0469-0.362-0.0647-0.851-0.0395-1.09l0.0457-0.428-0.476-0.349c-0.287-0.211-0.53-0.455-0.612-0.617-0.134-0.263-0.188-0.297-0.436-0.271-0.14 0.0144-1.06-0.527-1.5-0.88-0.454-0.366-0.887-0.629-0.943-0.574-0.0284 0.0283-0.0676 0.503-0.0871 1.06l-0.0354 1h-0.102c-0.0673 0-0.154-0.192-0.255-0.567-0.0843-0.312-0.241-0.806-0.349-1.1-0.108-0.292-0.235-0.691-0.282-0.886l-0.0856-0.354-0.306-0.234c-0.437-0.334-0.494-0.296-0.699 0.47-0.113 0.421-0.197 0.626-0.232 0.563-0.0565-0.101-0.444-1.42-0.52-1.77-0.0285-0.132-0.0871-0.195-0.18-0.195-0.076 0-0.209-0.0958-0.296-0.213-0.275-0.372-1.49-1.21-1.6-1.1-0.0233 0.0233 0.0107 0.384 0.0756 0.802 0.0648 0.418 0.185 1.27 0.267 1.89 0.0821 0.624 0.162 1.2 0.178 1.28 0.0182 0.095 0.241 0.283 0.614 0.517 0.322 0.203 0.724 0.478 0.893 0.613 0.431 0.343 0.492 0.323 0.549-0.181 0.0765-0.676 0.182-0.586 0.381 0.323 0.103 0.47 0.172 0.639 0.299 0.726 0.0907 0.0627 0.245 0.209 0.342 0.326 0.628 0.75 0.715 0.756 0.937 0.0634 0.166-0.52 0.305-0.71 0.368-0.506 0.0281 0.0906 0.154 0.695 0.326 1.57l0.0811 0.411 0.791 0.583c2.63 1.94 2.52 1.87 2.61 1.5zm1.27-0.275c0.328-0.252 0.809-0.604 1.07-0.782 0.621-0.426 0.95-0.801 1.21-1.37 0.115-0.258 0.271-0.605 0.345-0.771 0.145-0.322 0.312-0.391 0.386-0.159 0.0605 0.191 0.106 0.181 0.43-0.0945 0.153-0.13 0.454-0.352 0.668-0.492 0.384-0.253 0.944-0.675 1.55-1.17 0.366-0.298 0.419-0.414 0.869-1.89 0.508-1.66 0.344-1.97-0.654-1.23-0.133 0.0985-0.529 0.323-0.879 0.5-0.351 0.177-0.797 0.403-0.992 0.504-0.195 0.101-0.439 0.2-0.542 0.22-0.103 0.0204-0.358 0.175-0.567 0.343-0.208 0.168-0.532 0.41-0.72 0.538-0.187 0.128-0.37 0.309-0.406 0.403-0.0357 0.094-0.118 0.171-0.182 0.171-0.0646 0-0.509 0.368-0.988 0.817l-0.871 0.817-0.0465 0.299c-0.0256 0.165-0.14 0.764-0.254 1.33-0.211 1.05-0.241 1.44-0.162 2.1 0.0554 0.461 0.0218 0.465 0.739-0.086zm-0.0485-4.54c0.259-0.256 0.533-0.589 0.61-0.738 0.199-0.39 0.651-0.726 1.38-1.03 0.351-0.144 0.8-0.339 0.999-0.433 0.199-0.0938 0.391-0.17 0.428-0.17 0.037 0 0.3-0.144 0.584-0.319s0.531-0.319 0.547-0.319 0.388-0.266 0.826-0.59c0.438-0.325 1.05-0.763 1.36-0.975 0.695-0.473 0.706-0.52 0.236-1.04-0.207-0.228-0.752-0.85-1.21-1.38l-0.836-0.966-0.546-0.177c-0.716-0.232-2.25-0.685-3.27-0.965-0.448-0.123-0.994-0.285-1.21-0.361-0.219-0.0758-0.538-0.168-0.709-0.204-0.171-0.0365-1.01-0.29-1.86-0.564-0.853-0.274-1.59-0.475-1.63-0.447-0.202 0.126-1.82 1.4-2.27 1.78-0.273 0.234-0.735 0.616-1.03 0.848-1.34 1.07-2.3 1.9-2.3 1.99 0 0.108 2.06 1.56 2.76 1.94 0.234 0.128 0.585 0.333 0.779 0.456 0.248 0.156 0.599 0.277 1.17 0.403 0.653 0.145 2.01 0.495 2.78 0.72 0.316 0.0917 0.0441 0.133-0.88 0.133-1.21 0-1.24 0.0253-0.542 0.574 0.285 0.225 0.749 0.626 1.03 0.892s0.558 0.483 0.611 0.483c0.0536 0 0.412 0.207 0.796 0.461 0.857 0.565 0.826 0.565 1.4-6e-3zm-68.9 3.89c0.116-0.146 0.837-1.01 1.6-1.93l1.39-1.66-0.0187-0.232-0.0187-0.232 0.744-0.344c1.61-0.744 2.07-0.943 2.1-0.913 0.0672 0.0672-1.28 2.18-1.42 2.22-0.195 0.0616-0.847 0.538-2.82 2.06-1.79 1.39-1.88 1.44-1.56 1.03zm84.3-10.8c-2.99-1.29-8.21-3.63-9.03-4.05l-0.425-0.216 0.248-0.0396c0.136-0.0218 0.468-0.0746 0.738-0.117 0.269-0.0428 0.579-0.124 0.687-0.18 0.283-0.147 0.393-0.13 0.799 0.123 1.15 0.714 1.82 1.12 1.86 1.12 0.0198 0 0.616 0.362 1.33 0.804 0.709 0.442 2.06 1.26 2.99 1.82 2.13 1.27 2.2 1.33 0.815 0.735zm-2.2-6.34c-0.747-0.124-2.49-0.444-2.9-0.532l-0.17-0.0368 0.273-0.279c0.15-0.154 0.318-0.279 0.373-0.279 0.134 0 3.15 1.13 3.23 1.21 0.037 0.0355 0.053 0.0615 0.0354 0.0579-0.0175-4e-3 -0.399-0.0672-0.847-0.141zm0.264-10.1c-0.687-0.538-0.722-0.516 0.976-0.613 5.39-0.309 5.26-0.376 1.34 0.662-1.8 0.477-1.64 0.48-2.32-0.0484zm-77-13c-0.039-0.013-1.36-0.301-2.94-0.639-3.4-0.729-3.44-0.738-3.36-0.806 0.0342-0.0291 0.293-0.141 0.575-0.249 0.761-0.291 0.751-0.326-0.307-1.13-1.32-1-4.04-3.15-4.31-3.4l-0.291-0.269 0.248 0.118c0.262 0.125 3.46 1.89 5.67 3.12 0.761 0.426 1.39 0.733 1.5 0.733 0.12 0 0.333 0.114 0.57 0.306 0.208 0.168 0.905 0.699 1.55 1.18 0.643 0.48 1.22 0.916 1.27 0.969l0.104 0.0968-0.104-6e-3c-0.0571-3e-3 -0.136-0.0162-0.175-0.0292zm66.8-4.87c0.0197-0.0487 0.465-0.487 0.99-0.974 0.66-0.613 0.954-0.933 0.954-1.04 7e-5 -0.204 0.331-0.59 0.506-0.59 0.177 0 0.424-0.129 1.22-0.638 2.8-1.78 7.34-4.52 7.34-4.44 0 0.026-3.67 3.06-4.42 3.66-1.04 0.821-2.24 1.89-2.24 1.98 0 0.0787 0.0998 0.15 0.292 0.207 0.375 0.112 0.332 0.145-0.646 0.489-0.448 0.158-1.51 0.544-2.36 0.858-1.64 0.606-1.69 0.62-1.64 0.483z" fill="#0a0908"/></svg>
