<svg width="210mm" height="297mm" version="1.1" viewBox="0 0 210 297" xmlns="http://www.w3.org/2000/svg"><path d="m58.8 158c-0.0956-0.0957-0.223-0.284-0.282-0.418l-0.109-0.244-0.162 0.0413c-0.251 0.0638-0.533-0.0243-0.888-0.277l-0.325-0.231-0.155 0.0786c-0.324 0.165-0.604 0.0936-0.991-0.253l-0.377-0.337-0.0058-0.443-0.0058-0.443-1.04-0.997-0.0047-0.374c-0.0026-0.206 0.108-2 0.246-3.98 0.603-8.67 1.02-16.5 1.11-20.5l0.0339-1.62-0.518-0.527c-0.285-0.29-0.715-0.789-0.955-1.11-0.241-0.32-0.539-0.666-0.662-0.768s-0.387-0.409-0.586-0.682l-0.361-0.496 0.18-0.565-0.134-0.231c-0.0736-0.127-0.306-0.456-0.517-0.731-0.442-0.578-0.437-0.538-0.226-1.82 0.0886-0.54 0.23-1.45 0.314-2.02 0.204-1.39 0.0339-1.24 2.67-2.38 1.25-0.54 3.6-1.56 5.23-2.27 4.29-1.86 6.06-2.62 6.33-2.71 0.434-0.146 0.676 0.0245 1.32 0.928 0.324 0.456 1.06 1.49 1.64 2.3 0.58 0.811 1.5 2.1 2.04 2.86 0.543 0.764 1 1.35 1.02 1.29 0.0183-0.0527-0.133-0.875-0.336-1.83l-0.369-1.73-0.129-1.76c-0.15-2.06-0.15-2.08-0.012-2.32 0.112-0.199 0.341-0.314 2.02-1.02 0.583-0.244 2.34-0.98 3.9-1.64 5.13-2.15 7.48-3.11 7.64-3.12 0.345-5e-3 0.662 0.42 1.33 1.79 0.368 0.75 0.788 1.59 0.932 1.87l0.263 0.506 0.139-0.196c4.97-7.05 12.7-8.71 16.6-3.57 0.675 0.905 0.559 0.891 0.971 0.112 2.07-3.9 5.26-6.62 8.81-7.49l0.751-0.184 2.39-0.0178 0.671 0.157c1.75 0.409 3.4 1.64 4.49 3.34 0.418 0.652 0.377 0.66 0.848-0.167 2.48-4.35 6.57-7.08 10.7-7.14l0.917-0.012 0.808 0.177c1.84 0.405 3.43 1.47 4.52 3.03l0.408 0.585 0.0548-0.229c0.0301-0.126 0.0783-1.83 0.107-3.8 0.0581-3.96 0.0542-3.91 0.327-4.15 0.219-0.194 3.09-1.16 12.3-4.12l2-0.646 0.554 0.203 0.354 0.63c0.55 0.981 1.36 2.28 1.87 3l0.466 0.664 4e-3 0.279c2e-3 0.153-0.0331 0.381-0.0781 0.507-0.045 0.126-0.152 0.557-0.237 0.959l-0.155 0.731 0.254 0.541-0.0894 0.528c-0.154 0.913-0.548 2.59-1.04 4.42-0.261 0.973-0.754 2.88-1.1 4.25-0.647 2.58-1.22 4.8-1.7 6.61-0.156 0.584-0.426 1.65-0.6 2.36-0.174 0.714-0.444 1.79-0.602 2.4-0.157 0.606-0.42 1.67-0.584 2.36-0.164 0.692-0.368 1.45-0.454 1.68-0.086 0.231-0.155 0.55-0.152 0.707l4e-3 0.287 0.575 0.855c1.04 1.55 1.31 2.41 1.25 3.99l-0.0356 0.93-0.438 1.42-0.0102 0.745c-0.0311 2.28-2.88 4.49-6.12 4.76l-0.638 0.0516-0.85-0.15c-0.556-0.0985-1.12-0.266-1.63-0.486l-0.783-0.336-0.619-0.629c-0.34-0.346-0.619-0.682-0.62-0.747-2e-3 -0.142-0.941-1.89-1.11-2.07l-0.121-0.128-0.265 0.0738c-0.365 0.102-0.94 0.651-1.32 1.27-0.37 0.593-1.01 1.26-2.29 2.36l-0.902 0.783-0.871 0.45c-0.479 0.248-1.29 0.588-1.8 0.755l-0.933 0.305-2.81 0.107-0.726-0.159c-0.4-0.0875-1.05-0.299-1.45-0.47l-0.728-0.311-0.776-0.712c-0.427-0.392-0.845-0.825-0.929-0.963l-0.153-0.251-0.531 0.0628c-0.737 0.087-0.746 0.0954-1.11 0.966-0.391 0.947-1.29 2.61-1.71 3.15-0.169 0.218-0.417 0.538-0.551 0.713-2.16 2.81-6.42 4.37-9.7 3.57-0.845-0.208-3-1.32-3.01-1.54-5.4e-4 -0.0289-0.269-0.3-0.596-0.603s-0.675-0.713-0.774-0.911l-0.179-0.36-0.324 4e-3c-0.693 9e-3 -1.16 0.405-1.29 1.1-0.0438 0.23-0.158 0.524-0.255 0.651-0.0964 0.128-0.259 0.436-0.361 0.684s-0.41 0.754-0.684 1.12c-0.274 0.37-0.629 0.856-0.789 1.08-3.37 4.73-8.87 6.2-13.3 3.54-0.399-0.238-0.792-0.432-0.872-0.431-0.0805 1e-3 -0.207-0.0187-0.282-0.0439l-0.135-0.0458 0.0141 1.07 0.0141 1.07-0.122 0.223c-0.067 0.123-0.261 0.301-0.43 0.396l-0.308 0.173 0.0665 0.173c0.0366 0.0952 0.0726 0.331 0.08 0.524l0.0136 0.351-0.423 0.268c-0.474 0.301-0.63 0.374-2.24 1.05-0.629 0.265-1.77 0.76-2.54 1.1-2.91 1.28-3.26 1.33-3.46 0.471l-0.0478-0.207-0.725 0.0848-0.262-0.221c-0.144-0.122-0.681-0.815-1.19-1.54-1.38-1.96-1.52-2.15-1.78-2.48-0.131-0.171-0.465-0.642-0.742-1.05-0.745-1.09-2.12-2.94-2.24-3.01-0.0559-0.0321-0.303-0.114-0.548-0.181l-0.446-0.123-0.0409 0.128c-0.0225 0.0707-0.0797 1.66-0.127 3.54-0.0474 1.88-0.115 4.15-0.151 5.05l-0.0646 1.64-0.138 0.201c-0.0759 0.111-0.207 0.248-0.291 0.305l-0.153 0.103 0.114 0.898-0.469 0.527-1.83 0.847c-1 0.466-2.51 1.17-3.35 1.56-5.82 2.71-5.77 2.69-6.12 2.33zm83.9-8.46c-0.145-0.0363-0.385-0.18-0.532-0.318-0.147-0.139-0.357-0.33-0.466-0.425-0.737-0.642-1.08-0.978-2.63-2.55-1.21-1.22-2.68-2.78-4.24-4.48-1.21-1.33-2.13-2.47-2.47-3.1-0.258-0.466-1.2-1.55-2.89-3.35-0.905-0.959-1.03-1.19-0.722-1.35l0.172-0.0875 1.31 0.642c0.718 0.353 1.96 0.943 2.76 1.31 3.4 1.56 5.53 2.59 11.2 5.44 1.63 0.818 3.34 1.68 3.8 1.91 0.463 0.231 0.893 0.494 0.957 0.585l0.116 0.165-0.095 1.1-0.869 0.612 0.207 0.2c0.462 0.446 0.105 0.852-1.6 1.82-3.46 1.96-3.52 1.99-3.99 1.87zm6.27-9.49c-0.933-0.449-1.11-0.523-1.22-0.521-0.0679 9e-4 -0.612-0.293-1.21-0.654-1.05-0.637-1.41-0.865-2.28-1.47-0.23-0.16-0.679-0.447-0.999-0.637-0.319-0.19-0.79-0.561-1.05-0.825-0.503-0.52-1.44-1.22-3.3-2.49-2.28-1.55-2.22-1.5-1.84-1.73l0.19-0.117 0.568 0.103c0.313 0.0564 2.06 0.315 3.88 0.574 8.24 1.17 14.4 2.18 14.6 2.4 0.161 0.131 0.307 0.931 0.218 1.2-0.0354 0.107-0.318 0.291-0.804 0.523-0.871 0.417-0.916 0.461-0.63 0.629 0.132 0.0774 0.215 0.199 0.216 0.318l3e-3 0.193-0.401 0.279c-0.423 0.295-3 1.53-4.31 2.06-0.881 0.36-1.21 0.392-1.7 0.16zm-82.9-29.7c-0.0704-0.0119-0.531-0.0579-1.02-0.102-0.493-0.0443-2.09-0.223-3.54-0.396-1.46-0.174-3.53-0.408-4.61-0.52-2.56-0.266-2.86-0.367-2.87-0.966-0.0023-0.171-0.0717-0.34-0.184-0.447-0.0992-0.0947-0.195-0.297-0.212-0.45-0.0175-0.153-0.078-0.471-0.135-0.707l-0.103-0.429 0.101-0.181c0.0557-0.0998 0.445-0.68 0.866-1.29 0.421-0.609 1.12-1.63 1.55-2.27 0.769-1.15 1.33-1.72 1.68-1.73 0.0768-1e-3 0.834 0.476 1.68 1.06s2.53 1.74 3.74 2.56c1.21 0.824 2.64 1.81 3.18 2.19 0.874 0.614 3.59 2.44 4.11 2.76 0.224 0.139 0.254 0.363 0.0683 0.508l-0.129 0.101-0.915-0.0813c-0.503-0.0447-1.06-0.0953-1.23-0.112l-0.312-0.0312 0.05 0.168c0.0949 0.318-0.862 0.514-1.76 0.362zm6.56-2.82c-0.178-0.191-0.417-0.358-0.544-0.379-0.371-0.0632-0.632-0.302-1.42-1.3-0.414-0.524-1.01-1.26-1.33-1.63-0.319-0.37-0.821-0.963-1.12-1.32-0.295-0.355-0.687-0.82-0.87-1.03-0.183-0.213-0.534-0.654-0.779-0.979-0.435-0.577-1.43-1.73-2.44-2.82-0.651-0.705-0.718-0.83-0.719-1.33l-6.7e-5 -0.417-0.671-0.799 0.0079-0.569c0.0122-0.873-0.104-0.82 3.87-1.77 2.49-0.598 2.53-0.605 2.81-0.408l0.191 0.138 0.352 1.4c0.193 0.771 0.511 2.02 0.707 2.77 0.195 0.752 0.54 2.11 0.767 3.01 0.75 2.99 1.84 7.26 1.89 7.39 0.0452 0.127-0.154 0.383-0.299 0.384-0.0412 5.4e-4 -0.218-0.152-0.393-0.34z" fill="#a3a3a3"/><path d="m57.7 157c-0.247-0.0902-2.96-2.45-3.1-2.71l-0.124-0.213 0.141-1.87c0.636-8.43 1.22-19.1 1.28-23.3l0.0259-1.88-0.671-0.814c-0.369-0.448-0.932-1.13-1.25-1.51-0.319-0.384-0.898-1.11-1.29-1.61l-0.708-0.909-0.0031-0.257c-0.0017-0.141 0.0496-0.557 0.114-0.925 0.0644-0.367 0.203-1.25 0.308-1.96l0.191-1.29 0.154-0.141c0.238-0.218 13.7-6.05 14-6.06 0.235-3e-3 0.519 0.269 1.01 0.966 0.24 0.342 0.887 1.25 1.44 2.02 0.55 0.769 1.54 2.16 2.21 3.1 1.63 2.3 1.6 2.31 1.01-0.326l-0.398-1.79-0.138-1.8c-0.176-2.31-0.176-2.36 0.0236-2.55 0.234-0.219 13-5.58 13.3-5.58 0.318-4e-3 0.533 0.299 1.26 1.79 1.31 2.67 1.23 2.57 1.64 1.97 2.25-3.37 6.15-5.95 9.58-6.35l0.851-0.0975 0.739 0.0746c2.18 0.22 3.72 1.12 5.09 2.97 0.763 1.03 0.7 1.02 1.06 0.302 2.08-4.15 5.66-7.11 9.39-7.76l0.765-0.134 0.938 0.0318c2.55 0.0866 4.57 1.28 5.97 3.54 0.445 0.72 0.457 0.718 0.986-0.217 2.47-4.36 6.46-7.05 10.5-7.1l1.02-0.0139 0.715 0.148c1.84 0.381 3.42 1.49 4.61 3.25 0.529 0.78 0.542 0.772 0.586-0.36 0.0443-1.14 0.144-6.18 0.134-6.81-0.01-0.671 0.0272-0.695 2.24-1.44 4.08-1.37 12-3.91 12.2-3.92 0.272-0.0036 0.366 0.113 1.09 1.36 0.35 0.599 0.945 1.55 1.32 2.11l0.683 1.02-0.33 1.33c-0.181 0.73-1.25 4.94-2.38 9.35-1.13 4.41-2.22 8.69-2.42 9.52-0.202 0.822-0.718 2.9-1.15 4.63l-0.778 3.13 0.243 0.306c1.99 2.5 2.45 4.08 1.86 6.34-0.794 3.03-3.64 5.25-6.96 5.44l-0.98 0.0556-0.673-0.16c-1-0.239-1.57-0.515-2.2-1.08l-0.567-0.502-0.648-1.13c-0.356-0.62-0.762-1.35-0.903-1.61-0.316-0.604-0.259-0.62-0.858 0.248-4.5 6.52-11.8 7.85-15.6 2.83-0.271-0.361-0.322-0.36-0.482 7e-3 -2.31 5.3-5.74 8.25-10.2 8.77-2.84 0.33-5.44-0.973-7.35-3.68-0.346-0.491-0.271-0.565-1.16 1.15-2.34 4.52-5.38 7.2-9.26 8.19l-0.7 0.178-2.47 0.0276-0.653-0.155c-1.08-0.258-2.22-0.834-3.18-1.61-0.457-0.37-0.46-0.362-0.403 1.53l0.05 1.68-0.154 0.161c-0.378 0.395-9.09 4.18-9.64 4.19-0.294 4e-3 -0.411-0.122-1.36-1.47-6.2-8.78-6.05-8.58-6.14-8.49-0.0705 0.0707-0.15 2.06-0.288 7.2-0.109 4.06-0.144 4.67-0.279 4.87-0.113 0.168-1.4 0.795-4.87 2.37-1.05 0.476-2.84 1.29-3.98 1.81-2.18 0.994-3.74 1.66-3.87 1.66-0.0403-2e-3 -0.15-0.0321-0.245-0.0665zm36.5-26.7c1.76-0.823 3.34-2.98 4.38-5.98 0.452-1.3 0.774-2.71 0.726-3.16l-0.031-0.294-0.226 0.901c-0.995 3.97-2.92 7.12-4.94 8.07l-0.574 0.269-1.04 0.0742-0.5-0.155c-0.275-0.085-0.671-0.28-0.879-0.432-0.422-0.309-0.462-0.291-0.199 0.0903 0.456 0.659 1.21 0.978 2.14 0.907l0.638-0.0492zm-37.2-1.81c-0.0208-0.141-0.0354-0.044-0.0325 0.215 0.0029 0.259 0.02 0.374 0.0378 0.256 0.0179-0.118 0.0155-0.33-0.0053-0.47zm0.0534-2.51c-0.0203-0.227-0.0324-0.061-0.0269 0.37 0.0054 0.431 0.022 0.617 0.0368 0.414s0.0104-0.556-0.0099-0.784zm56.1-1.27c1.8-0.843 3.67-3.84 4.23-6.78 0.157-0.82 0.0455-0.616-0.403 0.735-1.58 4.78-4.64 7.1-6.97 5.31l-0.349-0.268 0.134 0.228c0.426 0.725 1.26 1.13 2.23 1.07l0.575-0.0343zm-38.2 0.212c-0.165-0.248-0.703-1.06-1.2-1.81-1.15-1.74-2.85-4.22-6.26-9.11-0.499-0.715-0.949-1.3-1-1.3-0.102 1e-3 -1.64 0.63-3.13 1.27-0.513 0.223-1.92 0.832-3.13 1.35-1.21 0.522-2.6 1.12-3.09 1.34-0.489 0.214-1.4 0.607-2.03 0.874-1.18 0.504-1.34 0.611-1 0.719l0.196 0.0637 0.809-0.342c0.445-0.188 1.23-0.524 1.74-0.745s1.71-0.74 2.67-1.15c0.955-0.412 2.16-0.929 2.67-1.15 0.513-0.221 1.16-0.491 1.43-0.601 0.273-0.109 0.786-0.326 1.14-0.482 1.68-0.739 1.54-0.738 2.08-6e-3 0.214 0.292 0.852 1.16 1.42 1.93 1.85 2.51 3.04 4.18 4.77 6.64 1.37 1.96 2.16 3.03 2.2 2.99 0.0194-0.0183-0.0998-0.237-0.265-0.485zm0.991-0.527c-0.0828-0.355-0.185-0.856-0.228-1.11-0.0424-0.258-0.142-0.733-0.223-1.06-0.08-0.322-0.243-1.04-0.363-1.6-0.502-2.34-0.784-3.61-0.861-3.87-0.0453-0.15-0.164-0.695-0.263-1.21-0.0992-0.516-0.24-1.17-0.313-1.45-0.073-0.279-0.161-0.701-0.195-0.938s-0.101-0.565-0.15-0.729c-0.112-0.383-0.0462-0.456 0.622-0.688 0.291-0.101 0.757-0.293 1.04-0.427s1.12-0.488 1.86-0.788c1.65-0.663 6.22-2.54 6.72-2.75 0.199-0.0874 0.438-0.16 0.531-0.161l0.169-2e-3 -0.0368 3.17 0.106-1.33c0.113-1.42 0.21-2.19 0.305-2.41 0.087-0.205-0.106-0.173-0.819 0.137-0.344 0.149-1.31 0.555-2.15 0.902s-2 0.829-2.58 1.07c-0.583 0.242-1.31 0.543-1.61 0.667s-1.35 0.562-2.33 0.971c-0.979 0.409-1.88 0.785-2.01 0.835-0.329 0.129-0.333 0.183-0.0848 1.21 0.123 0.508 0.301 1.27 0.395 1.7 0.0942 0.43 0.442 1.92 0.772 3.32 0.33 1.4 0.736 3.12 0.901 3.83 0.165 0.709 0.362 1.52 0.437 1.8 0.0749 0.279 0.21 0.842 0.301 1.25 0.097 0.438 0.174 0.654 0.189 0.527 0.0132-0.118-0.0437-0.506-0.126-0.86zm-18.8-0.537-0.0305-1.12-0.0363 0.902c-0.0341 0.849-0.0108 1.33 0.0643 1.33 0.0181-2.4e-4 0.0192-0.503 0.0025-1.12zm84.7-1.31c-0.0289-1.87 1.22-3.63 3.26-4.58l0.768-0.358 1.4-0.207 0.734 0.129c0.809 0.142 1.03 0.225 1.76 0.665 0.577 0.348 0.633 0.273 0.147-0.199-1.61-1.56-4.74-1.18-6.83 0.839l-0.652 0.63-0.366 0.726c-0.569 1.13-0.721 2.14-0.413 2.74 0.202 0.396 0.206 0.388 0.194-0.394zm-11.3-2.58c2.59-0.744 4.88-4.79 5.37-9.48 0.0633-0.614-0.0937-0.743-0.2-0.164-0.502 2.74-0.864 3.88-1.81 5.69-0.986 1.88-2.06 3.02-3.26 3.45l-0.494 0.178-0.515-0.0226c-0.525-0.023-1.25-0.291-1.63-0.599-0.408-0.335-0.39-0.117 0.026 0.318 0.635 0.665 1.57 0.899 2.51 0.628zm-72.6-0.23c3.02-2.32 4.7-3.64 4.66-3.68-0.0722-0.0647-5.61 4.03-5.61 4.14 0.0023 0.176 0.304 0.0277 0.95-0.468zm30.5-7.95c4.51-7.12 11.2-9.4 15-5.08 0.413 0.471 0.445 0.345 0.0482-0.192-0.904-1.22-1.91-1.93-3.27-2.3l-0.513-0.139-2.39 0.0448-0.757 0.221c-3.8 1.11-7.48 4.77-9.43 9.4-0.421 0.996-0.343 0.949 0.244-0.148 0.289-0.539 0.762-1.35 1.05-1.81zm55.2-2.66c-0.0858-2.33-0.266-6.79-0.491-12.1-0.0653-1.55-0.128-3.52-0.139-4.37l-0.0203-1.55 0.393-0.161c0.216-0.0885 2.85-0.947 5.84-1.91 5.82-1.87 5.76-1.84 5.9-2.09 0.173-0.307 0.43-0.375-3.74 0.999-1.66 0.546-4.27 1.4-5.81 1.91-1.54 0.503-2.85 0.946-2.92 0.985l-0.118 0.0701 0.0728 1.5c0.04 0.823 0.201 3.89 0.357 6.82 0.156 2.93 0.337 6.49 0.402 7.91 0.065 1.42 0.149 3.02 0.187 3.55 0.124 1.75 0.174 0.854 0.0865-1.53zm-36.9-2.13c2.17-3.66 4.57-5.83 7.52-6.77l0.776-0.249 2.04-0.107 0.684 0.165c0.966 0.233 1.91 0.703 2.66 1.32 0.676 0.558 0.802 0.583 0.395 0.0808-0.858-1.06-2.24-1.77-3.79-1.94l-0.71-0.0799-0.775 0.102c-2.87 0.379-5.53 2.17-7.59 5.11-0.519 0.741-1.64 2.77-1.64 2.96 1e-3 0.11 0.0428 0.052 0.421-0.587zm17.9-4.23c2.01-3.38 4.86-5.73 7.85-6.46l0.702-0.173 2.04-0.0237 0.599 0.165c1.12 0.308 1.88 0.722 2.82 1.52l0.593 0.506-0.134-0.233c-0.461-0.802-1.86-1.78-3.06-2.14l-0.735-0.218-0.81-0.0305c-3.78-0.142-7.71 2.58-10 6.93-0.583 1.1-0.49 1.21 0.136 0.156zm16.2 44.4c-2.16-2.33-7.03-7.61-7.73-8.38-0.38-0.42-1.5-1.63-2.49-2.7-2.31-2.49-2.33-2.59-0.318-1.6 0.719 0.354 2 0.962 2.85 1.35 3.38 1.55 4.41 2.05 10.1 4.91 2.26 1.14 4.42 2.21 4.79 2.39s0.726 0.365 0.79 0.412l0.117 0.0867-0.0274 0.554c-0.0347 0.702 0.321 0.441-3.55 2.6-2.57 1.44-2.92 1.62-3.18 1.62l-0.217 5e-3zm6.95-3.51c-4.6e-4 -0.0352-0.165-0.144-0.365-0.243-0.748-0.367-4.21-2.12-6.11-3.1-2.34-1.2-5.34-2.72-6.18-3.13-0.33-0.161-0.813-0.403-1.07-0.538-1.3-0.678-2.85-1.42-2.88-1.39-0.0407 0.0385 0.423 0.363 0.516 0.362 0.0267-3.5e-4 0.523 0.251 1.1 0.559 0.579 0.308 1.36 0.708 1.74 0.89s0.841 0.423 1.03 0.536c0.189 0.113 0.633 0.345 0.987 0.515 0.589 0.283 1.34 0.673 3.35 1.73 0.401 0.212 1.17 0.614 1.72 0.894 0.543 0.28 1.47 0.76 2.06 1.07 3.79 1.97 4.12 2.12 4.11 1.84zm0.394-4.64c-0.302-0.164-3.23-1.99-4.5-2.81-0.81-0.521-4.11-2.73-5.67-3.8-1.19-0.815-1.16-0.948 0.183-0.721 0.481 0.0816 2.26 0.344 3.95 0.584 5.11 0.724 8.13 1.19 11.2 1.73l2.95 0.511 0.108 0.133c0.142 0.174 0.153 0.999 0.0147 1.11-0.156 0.12-5.34 2.45-6.58 2.97-1.2 0.493-1.29 0.509-1.67 0.299zm6.56-4.17c-5.7e-4 -0.0431-0.0354-0.0779-0.0774-0.0773-0.042 5.5e-4 -0.532-0.0822-1.09-0.184-1.4-0.255-5.63-1.02-7.08-1.28-0.658-0.117-2.14-0.361-3.29-0.541-2.94-0.46-3.41-0.53-3.84-0.577l-0.384-0.0407 0.342 0.11c0.188 0.0604 0.707 0.174 1.15 0.253 3.68 0.648 12.7 2.34 12.8 2.4 0.0801 0.0718 1.46 0.0116 1.46-0.0636zm-85-25.2c-0.211-0.0369-1.11-0.144-2.01-0.239-3.02-0.32-3.14-0.334-8.71-1.06-1.36-0.178-2.74-0.356-3.07-0.395-1.76-0.21-2.05-0.335-2.13-0.93-0.031-0.225-0.0817-0.531-0.113-0.682l-0.0564-0.274 1.16-1.7c0.638-0.935 1.38-2.03 1.65-2.43 0.268-0.402 0.534-0.732 0.589-0.733 0.0558-7.4e-4 0.184-0.0906 0.284-0.2 0.341-0.371-0.818-1.11 10.2 6.47 1 0.69 2.06 1.4 2.36 1.57l0.541 0.316-0.0232 0.163c-0.0274 0.192-0.146 0.214-0.663 0.124zm-1.21-1.11c-4.92e-4 -0.0374-0.335-0.25-2.32-1.48-1.35-0.836-1.89-1.12-1.34-0.698 0.635 0.479 3.66 2.28 3.66 2.17zm-4.21-2.61c-3.83e-4 -0.0291-1.9-1.24-3.38-2.15-0.278-0.171-0.693-0.432-0.923-0.58s-0.64-0.405-0.913-0.572-0.725-0.452-1.01-0.633c-0.616-0.398-0.589-0.397-0.806-0.048-0.225 0.361-0.225 0.512 9.38e-4 0.241 0.24-0.288 0.46-0.26 1.06 0.139 0.284 0.188 0.767 0.495 1.07 0.682 0.307 0.187 0.771 0.472 1.03 0.633s0.975 0.602 1.59 0.979c2.24 1.37 2.28 1.4 2.28 1.31zm6.66-0.936c-1.15-1.38-2.83-3.42-3.75-4.56-0.917-1.13-2-2.46-2.42-2.95-0.412-0.49-1.01-1.22-1.32-1.62l-0.575-0.724 0.0779-0.196c0.0428-0.108 0.0533-0.327 0.0232-0.487-0.0844-0.45 0.0666-0.505 3.96-1.43 2.24-0.533 2.62-0.558 2.63-0.172 3.55e-4 0.0271 0.363 1.47 0.807 3.22 3.06 12 2.91 11.4 2.72 11.4-0.0364 4.7e-4 -1-1.12-2.15-2.5zm-4.52-11c0.628-0.139 1.23-0.286 1.34-0.327 0.111-0.0405 0.291-0.0748 0.399-0.0763 0.193-0.0025 0.453-0.205 0.365-0.284-0.0244-0.0219-0.365 0.0394-0.756 0.136-1.04 0.257-3.41 0.888-3.6 0.955l-0.158 0.0582 0.156 0.0482c0.086 0.0265 0.37-0.0206 0.631-0.105 0.261-0.084 0.989-0.267 1.62-0.406z" fill="#f30c14"/><path d="m57.7 157c-0.247-0.0902-2.96-2.45-3.1-2.71l-0.124-0.213 0.141-1.87c0.636-8.43 1.22-19.1 1.28-23.3l0.0259-1.88-0.671-0.814c-0.369-0.448-0.932-1.13-1.25-1.51-0.319-0.384-0.898-1.11-1.29-1.61l-0.708-0.909-0.0031-0.257c-0.0017-0.141 0.0496-0.557 0.114-0.925 0.0644-0.367 0.203-1.25 0.308-1.96l0.191-1.29 0.154-0.141c0.238-0.218 13.7-6.05 14-6.06 0.235-3e-3 0.519 0.269 1.01 0.966 0.24 0.342 0.887 1.25 1.44 2.02 0.55 0.769 1.54 2.16 2.21 3.1 1.63 2.3 1.6 2.31 1.01-0.326l-0.398-1.79-0.138-1.8c-0.176-2.31-0.176-2.36 0.0236-2.55 0.234-0.219 13-5.58 13.3-5.58 0.318-4e-3 0.533 0.299 1.26 1.79 1.31 2.67 1.23 2.57 1.64 1.97 2.25-3.37 6.15-5.95 9.58-6.35l0.851-0.0975 0.739 0.0746c2.18 0.22 3.72 1.12 5.09 2.97 0.763 1.03 0.7 1.02 1.06 0.302 2.08-4.15 5.66-7.11 9.39-7.76l0.765-0.134 0.938 0.0318c2.55 0.0866 4.57 1.28 5.97 3.54 0.445 0.72 0.457 0.718 0.986-0.217 2.47-4.36 6.46-7.05 10.5-7.1l1.02-0.0139 0.715 0.148c1.84 0.381 3.42 1.49 4.61 3.25 0.529 0.78 0.542 0.772 0.586-0.36 0.0443-1.14 0.144-6.18 0.134-6.81-0.01-0.671 0.0272-0.695 2.24-1.44 4.08-1.37 12-3.91 12.2-3.92 0.272-0.0036 0.366 0.113 1.09 1.36 0.35 0.599 0.945 1.55 1.32 2.11l0.683 1.02-0.33 1.33c-0.181 0.73-1.25 4.94-2.38 9.35-1.13 4.41-2.22 8.69-2.42 9.52-0.202 0.822-0.718 2.9-1.15 4.63l-0.778 3.13 0.243 0.306c1.99 2.5 2.45 4.08 1.86 6.34-0.794 3.03-3.64 5.25-6.96 5.44l-0.98 0.0556-0.673-0.16c-1-0.239-1.57-0.515-2.2-1.08l-0.567-0.502-0.648-1.13c-0.356-0.62-0.762-1.35-0.903-1.61-0.316-0.604-0.259-0.62-0.858 0.248-4.5 6.52-11.8 7.85-15.6 2.83-0.271-0.361-0.322-0.36-0.482 7e-3 -2.31 5.3-5.74 8.25-10.2 8.77-2.84 0.33-5.44-0.973-7.35-3.68-0.346-0.491-0.271-0.565-1.16 1.15-2.34 4.52-5.38 7.2-9.26 8.19l-0.7 0.178-2.47 0.0276-0.653-0.155c-1.08-0.258-2.22-0.834-3.18-1.61-0.457-0.37-0.46-0.362-0.403 1.53l0.05 1.68-0.154 0.161c-0.378 0.395-9.09 4.18-9.64 4.19-0.294 4e-3 -0.411-0.122-1.36-1.47-6.2-8.78-6.05-8.58-6.14-8.49-0.0705 0.0707-0.15 2.06-0.288 7.2-0.109 4.06-0.144 4.67-0.279 4.87-0.113 0.168-1.4 0.795-4.87 2.37-1.05 0.476-2.84 1.29-3.98 1.81-2.18 0.994-3.74 1.66-3.87 1.66-0.0403-2e-3 -0.15-0.0321-0.245-0.0665zm-0.545-4.85c2.29-1.03 3.77-1.71 5.48-2.51 0.932-0.437 2.3-1.07 3.05-1.41 1.59-0.724 1.48-0.619 1.46-1.51l-0.0175-0.705-0.0706 0.393c-0.0388 0.216-0.0894 0.505-0.112 0.641l-0.0418 0.248-0.265 0.0887c-0.373 0.125-0.383 0.117-0.141-0.128l0.215-0.218 0.0475-0.745c0.0907-1.42 0.179-3.11 0.312-5.96 0.0735-1.57 0.208-4.45 0.299-6.39 0.0908-1.94 0.163-3.79 0.16-4.12-0.0094-1.04 0.0518-1.03 0.807 0.117 0.305 0.465 0.715 1.05 0.911 1.31 0.196 0.256 0.661 0.885 1.03 1.4 0.372 0.512 0.84 1.15 1.04 1.43 0.199 0.272 0.363 0.565 0.364 0.651 0.0011 0.0862 0.135 0.266 0.297 0.399s0.48 0.486 0.707 0.785c0.966 1.27 4.45 5.99 4.88 6.6 0.591 0.844 0.469 0.828 1.85 0.241 3-1.27 3.69-1.56 4.54-1.91 1.1-0.444 1.02-0.247 0.889-2.36-0.0592-0.946-0.159-2.74-0.223-3.99-0.0632-1.25-0.166-3.25-0.229-4.45-0.0625-1.2-0.156-3.54-0.209-5.21l-0.0948-3.03 0.118-1.22c0.0652-0.669 0.125-2.36 0.134-3.76 0.015-2.5 0.0727-4.45 0.206-6.94 0.0368-0.69 0.0854-1.63 0.108-2.1l0.0409-0.843-0.123 2e-3c-0.0676 8.9e-4 -0.404 0.124-0.748 0.273-0.344 0.149-1.31 0.555-2.15 0.902s-2 0.829-2.58 1.07c-0.583 0.242-1.31 0.543-1.61 0.667s-1.35 0.562-2.33 0.971c-0.979 0.409-1.88 0.785-2.01 0.835-0.33 0.129-0.333 0.183-0.0841 1.21 0.123 0.508 0.281 1.19 0.349 1.51 0.134 0.63 1.11 4.79 1.41 6.02 0.43 1.76 1.53 6.42 1.53 6.49 0.0029 0.222-0.206-0.036-0.864-1.07-1.46-2.29-3.11-4.73-6.01-8.91-2.58-3.71-2.9-4.15-2.99-4.15-0.102 1e-3 -1.64 0.63-3.13 1.27-0.513 0.223-1.92 0.832-3.13 1.35-1.21 0.522-2.6 1.12-3.09 1.34-0.489 0.214-1.44 0.623-2.12 0.91-1.42 0.603-1.42 0.596-0.855 1.25 0.232 0.272 0.619 0.757 0.86 1.08 0.471 0.627 0.666 0.811 0.785 0.742 0.129-0.0757 0.367-1.07 0.312-1.3-0.0309-0.134-0.0105-0.258 0.0501-0.305 0.186-0.146 6.25-3.09 6.29-3.05 0.0503 0.045-0.185 0.223-3.01 2.27-1.28 0.929-2.41 1.77-2.51 1.87l-0.181 0.182-0.152 1.55 0.454 0.692-0.0674 2.79c-0.166 6.88-0.435 14-0.702 18.5-0.105 1.78-0.491 7.64-0.545 8.26l-0.0458 0.53 0.106-1e-3c0.0583-7.6e-4 0.664-0.252 1.35-0.559zm5.91-5.18c-0.0058-0.443 1.51-9.26 1.66-9.66 0.0461-0.121 0.0924 1.58 0.121 4.43l0.0458 4.62-0.847 0.42c-1 0.497-0.973 0.491-0.977 0.188zm15-4.8c-0.162-0.203-0.446-0.596-0.631-0.873-0.186-0.278-0.49-0.708-0.677-0.957-0.187-0.249-0.323-0.467-0.304-0.485 0.0324-0.0307 0.205 0.165 1.43 1.62 0.252 0.3 0.498 0.567 0.546 0.594 0.0482 0.0266 0.819-0.24 1.71-0.593 0.894-0.353 2.15-0.844 2.79-1.09l1.17-0.45 0.0386-0.168c0.0212-0.0927 0.0324-0.221 0.0248-0.286-0.0076-0.0646-0.0043-0.311 0.0073-0.549l0.0212-0.431 0.0617 0.548c0.034 0.301 0.0413 0.636 0.0162 0.744l-0.0455 0.197-0.855 0.408c-1.49 0.712-4.79 2.14-4.95 2.14-0.0367 4.8e-4 -0.199-0.165-0.36-0.368zm-20.4-13.2c0.0127-1.44 0.201-5.11 0.265-5.17 0.0788-0.0782 0.0517 2.06-0.0489 3.87-0.144 2.58-0.232 3.11-0.216 1.3zm19.3-5.64c-0.141-0.204-2.77-10.5-2.72-10.7 0.0521-0.13 1.15-0.552 1.24-0.474 0.0399 0.0378 0.161 0.702 0.27 1.48s0.343 2.43 0.52 3.68c0.54 3.79 0.818 5.92 0.786 6.01l-0.0306 0.0879zm2.43 20.2c0.629-0.263 1.78-0.756 2.56-1.1 0.778-0.34 1.44-0.618 1.46-0.618 0.0267-3.5e-4 0.448-0.184 0.936-0.409l0.888-0.408-0.0184-0.916c-0.0101-0.504-0.0495-1.07-0.0875-1.27l-0.0691-0.352-0.0659 0.226c-0.0362 0.124-0.035 0.622 0.0028 1.11l0.0688 0.879-0.108 0.0838c-0.0595 0.0461-0.28 0.127-0.49 0.18-0.21 0.0527-0.706 0.236-1.1 0.408-2.01 0.871-2.46 1.06-2.97 1.24-0.303 0.109-0.89 0.348-1.3 0.531-1.09 0.484-1.04 0.509-2.06-0.904-0.326-0.448-0.797-1.09-1.05-1.44-0.249-0.342-0.636-0.891-0.86-1.22-0.398-0.586-0.625-0.831-0.51-0.548 0.0315 0.0772 0.298 0.472 0.591 0.878 0.294 0.406 0.652 0.912 0.797 1.13s0.517 0.755 0.828 1.2c0.31 0.449 0.711 1.05 0.891 1.35 0.188 0.305 0.368 0.513 0.424 0.489 0.0541-0.023 0.613-0.257 1.24-0.52zm14.8-4.92c2.2-0.604 5.92-3.27 5.91-4.23-4e-3 -0.334-0.53 0.0494-1.14 0.834-0.215 0.275-0.712 0.669-2.01 1.59-1.59 1.13-3.79 1.72-5.78 1.54l-0.768-0.0699-0.979-0.436c-0.683-0.304-1.14-0.573-1.53-0.89-0.804-0.667-0.755-0.47 0.0768 0.311l0.72 0.675 0.861 0.362c0.474 0.199 1.13 0.414 1.45 0.477l0.593 0.114 0.979-0.049c0.634-0.0317 1.2-0.111 1.62-0.224zm-0.91-0.7c6.53-1.1 11.9-11.2 12-22.4l0.0148-2.19-0.147-1.14c-0.582-4.52-2.27-7.11-5.14-7.89l-0.513-0.139-2.39 0.0448-0.757 0.221c-5.01 1.47-9.03 6.56-11.1 14.1l-0.346 1.25 0.0603 3.88c0.0374 2.41 0.129 4.91 0.241 6.61l0.181 2.73 0.219 0.597c0.12 0.328 0.382 0.894 0.582 1.26l0.363 0.661 0.607 0.567c1.88 1.76 3.66 2.3 6.16 1.88zm-1.29-7.84c-2.88-0.929-1.65-9.68 1.97-13.9 0.16-0.188 0.263-0.365 0.229-0.395-0.0842-0.0726-1.17 1.03-1.54 1.57-0.166 0.239-0.424 0.568-0.574 0.73-1.08 1.16-2.12 4.8-2.21 7.69l-0.0388 1.29-0.0659-0.352c-0.661-3.53 1.4-9.56 4.15-12.2l0.763-0.723 0.551-0.254c1.29-0.597 2.4-0.468 3.23 0.376 0.381 0.389 0.338 0.466-0.105 0.187-0.499-0.314-0.651-0.257-0.317 0.119 0.284 0.321 0.711 1.24 0.997 2.16l0.184 0.585 0.0169 1.33 0.0169 1.33-0.169 1.06c-0.697 4.34-2.76 8.1-5.05 9.17l-0.577 0.27-0.559 0.0293c-0.337 0.0177-0.695-0.0144-0.901-0.0808zm-18.4 7.47c-0.12-0.182-0.306-0.47-0.412-0.641-0.106-0.171-0.208-0.268-0.227-0.216-0.0185 0.052 0.0436 0.192 0.138 0.312 0.0943 0.119 0.273 0.366 0.397 0.547 0.124 0.182 0.247 0.33 0.274 0.329 0.0264-3.4e-4 -0.0505-0.149-0.171-0.331zm39.6-4.69c0.907-0.227 1.92-0.655 2.46-1.04 0.202-0.143 0.526-0.363 0.721-0.488 0.568-0.366 2.13-2 2.13-2.23-1e-3 -0.107-0.509 0.265-1.14 0.833-1.64 1.48-3.22 2.3-5.01 2.62l-0.702 0.122-0.79-0.0596c-1.51-0.114-2.43-0.447-3.49-1.26-0.815-0.63-0.937-0.685-0.691-0.313 0.809 1.22 2.75 2.04 4.81 2.03l0.905-6e-3zm-0.168-0.859c5.66-1.63 9.66-9.47 10.1-19.8 0.326-7.57-2-12.2-6.38-12.7l-0.71-0.0799-0.775 0.102c-4.02 0.53-7.89 4.14-9.64 9.01l-0.328 0.912 0.0818 0.251c0.188 0.577 0.458 2.41 0.566 3.84l0.116 1.53-0.0718 1.71c-0.0826 1.97-0.327 4.25-0.726 6.78-0.154 0.972-0.316 2.33-0.361 3.02l-0.082 1.26 0.506 0.973c0.278 0.535 0.643 1.17 0.812 1.42 0.306 0.446 0.463 0.602 0.273 0.271-0.0574-0.0999 0.0979-6e-3 0.362 0.219 0.839 0.715 1.69 1.14 2.86 1.41l0.598 0.142 2.04-0.0904zm-2.25-7.6-0.458-0.21-0.311-0.468c-0.171-0.257-0.391-0.73-0.489-1.05l-0.178-0.584-0.0314-3.37 0.221-1.06c0.468-2.25 1.45-4.61 2.59-6.21 0.292-0.41 0.511-0.764 0.487-0.785-0.0693-0.0621-0.882 0.759-1.2 1.22-0.16 0.227-0.365 0.432-0.456 0.456-0.204 0.0518-0.765 1.17-1.18 2.34-0.756 2.14-1.06 3.99-0.987 5.97 0.0543 1.43-0.0562 1.33-0.204-0.177l-0.11-1.12 0.128-1.09c0.522-4.44 2.68-8.66 5.04-9.83l0.548-0.274 1.32-0.0878 0.469 0.204c0.433 0.188 0.908 0.576 0.91 0.742 5.1e-4 0.0385-0.14-0.0153-0.312-0.119-0.56-0.339-0.569-0.297-0.0955 0.447 1.25 1.96 1.52 3.38 1.14 5.95-0.892 6.05-4.11 10.3-6.84 9.1zm20 2.9c0.358-0.0763 1.04-0.337 1.72-0.656l1.12-0.529 0.991-0.859c0.929-0.805 1.2-1.13 0.93-1.12-0.062 1e-3 -0.416 0.271-0.787 0.6-0.371 0.328-0.864 0.686-1.1 0.795-0.233 0.109-0.745 0.378-1.14 0.598l-0.714 0.4-1.07 0.253c-1.59 0.376-2.76 0.338-4.07-0.134-1.09-0.391-2.78-1.71-2.78-2.17-4.1e-4 -0.0312 0.3 0.205 0.667 0.525 1.43 1.24 2.72 1.71 4.56 1.67l0.894-0.0223 0.764-0.213c6.14-1.71 10.5-10.1 10.4-19.8-0.0872-5.99-1.92-9.63-5.36-10.6l-0.735-0.218-0.81-0.0305c-4.27-0.161-8.74 3.4-10.8 8.61l-0.275 0.694 0.111 0.523c0.813 3.83 0.786 7.52-0.101 13.5-0.36 2.44-0.458 3.36-0.382 3.58 1.27 3.63 4.33 5.41 7.98 4.63zm-2-7.73c-2.85-0.91-2.06-8.79 1.29-12.9 0.5-0.615 0.534-0.69 0.222-0.479-0.151 0.102-0.615 0.547-1.03 0.989l-0.757 0.804-0.358 0.711c-0.961 1.91-1.52 4.13-1.64 6.45l-0.0489 1.02-0.0791-0.352c-0.289-1.28 0.257-4.57 1.1-6.6 1.59-3.84 3.92-5.97 5.98-5.45l0.5 0.126 0.496 0.444c0.594 0.532 0.652 0.73 0.105 0.356-0.361-0.247-0.692-0.354-0.621-0.202 0.0161 0.0346 0.275 0.498 0.575 1.03 2.74 4.86-1.56 15.4-5.74 14.1zm17.8 6.41c5.68-1.62 5.7-9.28 0.0232-8.87-1.36 0.0996-2.61 0.689-3.72 1.77l-0.652 0.63-0.366 0.726c-0.415 0.824-0.56 1.35-0.565 2.05l-4e-3 0.485 0.274 0.506c0.623 1.15 1.63 1.95 2.78 2.2 0.893 0.195 0.977 0.264 0.293 0.24l-0.605-0.0211-0.441-0.213c-0.741-0.359-1.41-0.892-1.74-1.38-0.387-0.584-0.451-0.38-0.0841 0.268 0.837 1.48 2.88 2.17 4.8 1.62zm-7.43-6.86c0.0967-0.253 0.226-0.554 0.288-0.67 0.15-0.284 0.241-0.668 0.145-0.611-0.0423 0.0248-0.162 0.267-0.266 0.539-0.104 0.272-0.253 0.618-0.331 0.77-0.078 0.152-0.169 0.365-0.202 0.473l-0.0601 0.197 0.125-0.119c0.0689-0.0656 0.204-0.326 0.301-0.579zm6.52-3.81c3.57-0.871 3.15-0.583 3.5-2.37 0.23-1.18 1.08-5.05 2.5-11.4 0.151-0.67 0.585-2.6 0.964-4.28 0.38-1.69 0.995-4.37 1.37-5.97 0.964-4.14 1.05-4.52 0.991-4.56-0.0652-0.0584-0.368 0.0348-3.88 1.19-1.66 0.546-4.27 1.4-5.81 1.91-1.54 0.503-2.85 0.943-2.91 0.977-0.131 0.0776-0.125 0.958 0.0206 3.23 0.111 1.72 0.342 6.27 0.632 12.4 0.466 9.88 0.431 9.32 0.568 9.32 0.0366-1e-3 0.965-0.221 2.06-0.488zm-1.64-0.612c-0.0162-0.042-0.0149-0.315 3e-3 -0.607l0.0323-0.531 0.0515 0.43 0.0516 0.43 0.468-0.0262c0.258-0.0144 0.564-0.0474 0.681-0.0733 0.433-0.096 0.0364 0.111-0.538 0.28-0.664 0.196-0.709 0.202-0.75 0.0972zm5.52-9.69c-4e-3 -0.0948 0.116-0.802 0.266-1.57 0.151-0.769 0.386-2.03 0.522-2.81 0.282-1.61 0.401-2.09 1.01-4.13 0.24-0.801 0.702-2.37 1.03-3.5 0.326-1.12 0.608-2 0.627-1.95 0.0889 0.235-3.02 13.1-3.36 13.9l-0.0817 0.195zm-9 42.2c-2.16-2.33-7.03-7.61-7.73-8.38-0.38-0.42-1.5-1.63-2.49-2.7-2.31-2.49-2.33-2.59-0.318-1.6 0.719 0.354 2 0.962 2.85 1.35 3.38 1.55 4.41 2.05 10.1 4.91 2.26 1.14 4.42 2.21 4.79 2.39s0.726 0.365 0.79 0.412l0.117 0.0867-0.0274 0.554c-0.0347 0.702 0.321 0.441-3.55 2.6-2.57 1.44-2.92 1.62-3.18 1.62l-0.217 5e-3zm4.47-2.01c1.51-0.715 2.74-1.33 2.74-1.36s-0.203-0.164-0.451-0.289c-2.45-1.23-4.6-2.32-6.01-3.05-2.35-1.21-6.4-3.26-8.12-4.1-0.354-0.174-1.08-0.533-1.6-0.798-1.07-0.535-1.34-0.573-0.804-0.112 0.704 0.608 4.59 4.28 5.8 5.48 0.684 0.678 1.75 1.72 2.37 2.32 0.617 0.6 1.61 1.57 2.2 2.15 0.593 0.583 1.09 1.06 1.11 1.06 0.0183-1.8e-4 1.27-0.585 2.77-1.3zm-3.09 0.475c-0.456-0.427-0.417-0.569 0.0451-0.164 0.429 0.375 0.263 0.421 2.66-0.726 2.28-1.09 2.19-1.05 2.19-0.906 1e-3 0.0915-4.24 2.15-4.44 2.15-0.0432 4.1e-4 -0.249-0.159-0.458-0.354zm5.97-6.61c-0.302-0.164-3.23-1.99-4.5-2.81-0.81-0.521-4.11-2.73-5.67-3.8-1.19-0.815-1.16-0.948 0.183-0.721 0.481 0.0816 2.26 0.344 3.95 0.584 5.11 0.724 8.13 1.19 11.2 1.73l2.95 0.511 0.108 0.133c0.142 0.174 0.153 0.999 0.0147 1.11-0.156 0.12-5.34 2.45-6.58 2.97-1.2 0.493-1.29 0.509-1.67 0.299zm1.79-2.04c0.738-0.295 1.91-0.764 2.61-1.04 2.9-1.15 2.73-1.02 1.58-1.23-0.458-0.0855-0.987-0.185-1.17-0.222-0.333-0.0647-4.09-0.742-6.49-1.17-1.02-0.183-2.31-0.389-6.06-0.975-0.376-0.0586-0.894-0.127-1.15-0.152l-0.469-0.0454 0.088 0.0846c0.0484 0.0465 0.589 0.354 1.2 0.684 1.84 0.99 3.85 2.09 5.58 3.04 0.897 0.496 1.9 1.05 2.23 1.23 0.735 0.405 0.474 0.431 2.06-0.203zm-1.64-0.136c-0.518-0.306-0.554-0.36-0.129-0.19 0.558 0.224 0.519 0.234 2.79-0.725 2.35-0.99 2.43-1.02 2.51-0.912 0.0708 0.102-0.616 0.427-2.28 1.08-0.746 0.292-1.57 0.624-1.82 0.738-0.581 0.258-0.645 0.259-1.07 0.01zm-78.6-27.2c-0.211-0.0369-1.11-0.144-2.01-0.239-3.02-0.32-3.14-0.334-8.71-1.06-1.36-0.178-2.74-0.356-3.07-0.395-1.76-0.21-2.05-0.335-2.13-0.93-0.031-0.225-0.0817-0.531-0.113-0.682l-0.0564-0.274 1.16-1.7c0.638-0.935 1.38-2.03 1.65-2.43 0.268-0.402 0.534-0.732 0.589-0.733 0.0558-7.4e-4 0.184-0.0906 0.284-0.2 0.341-0.371-0.818-1.11 10.2 6.47 1 0.69 2.06 1.4 2.36 1.57l0.541 0.316-0.0232 0.163c-0.0274 0.192-0.146 0.214-0.663 0.124zm-0.558-0.681c-0.0622-0.0899-2.63-1.71-8.47-5.34-1.89-1.17-2.42-1.51-2.78-1.74-0.424-0.273-0.429-0.272-0.656 0.0827-0.104 0.163-0.733 1.09-1.4 2.07-0.664 0.974-1.21 1.82-1.22 1.89l-0.0083 0.12 1.62 0.348c11.9 2.56 13 2.78 12.9 2.58zm-11.8-2.72c-0.258-0.0551-0.871-0.175-1.36-0.265-0.842-0.156-1.11-0.283-0.83-0.387 0.0692-0.0255 0.754 0.136 1.52 0.358 1.38 0.4 1.58 0.489 0.669 0.295zm1.15-3.34c-0.753-0.364-1.07-0.6-0.952-0.712 0.0526-0.0496 0.319 0.0843 0.75 0.377 1.15 0.781 1.16 0.797 0.202 0.335zm12.5 2.1c-1.15-1.38-2.83-3.42-3.75-4.56-0.917-1.13-2-2.46-2.42-2.95-0.412-0.49-1.01-1.22-1.32-1.62l-0.575-0.724 0.0779-0.196c0.0428-0.108 0.0533-0.327 0.0232-0.487-0.0844-0.45 0.0666-0.505 3.96-1.43 2.24-0.533 2.62-0.558 2.63-0.172 3.55e-4 0.0271 0.363 1.47 0.807 3.22 3.06 12 2.91 11.4 2.72 11.4-0.0364 4.7e-4 -1-1.12-2.15-2.5zm0.779-1.8c-0.461-1.52-1.31-4.34-1.89-6.27-0.579-1.93-1.09-3.55-1.13-3.59-0.0819-0.0838-0.472 0.0031-2.87 0.639-0.864 0.229-1.66 0.435-1.76 0.457-0.333 0.0708-0.301 0.165 0.313 0.939 2.15 2.7 4.53 5.87 7.43 9.89 0.902 1.25 0.9 1.2-0.0931-2.06zm-2.63-7.3c-0.553-1.28-0.886-2.48-0.623-2.24 0.123 0.114 0.849 2.45 0.761 2.45-0.0255 3.35e-4 -0.0878-0.0958-0.139-0.214zm-3.88 0.0115c-0.218-0.22-0.982-1.2-0.983-1.25-0.0038-0.291 0.648 0.401 1.12 1.19 0.143 0.239 0.0694 0.273-0.138 0.0641z" fill="#150b0b"/></svg>
