<svg width="210mm" height="297mm" version="1.1" viewBox="0 0 210 297" xmlns="http://www.w3.org/2000/svg"><path d="m74.4 191c0.0523-0.208 0.818-1.91 4.4-9.8 1.21-2.66 1.39-3.12 1.25-3.12-0.028 0-1.22 0.671-2.65 1.49-5.55 3.18-5.46 3.28-1.24-1.35 1.07-1.18 2.56-2.83 3.31-3.68l1.36-1.53 0.625-1.39c1.12-2.48 1.46-3.33 1.37-3.37-0.11-0.0396-0.126-0.0281-4.98 3.7-2.08 1.6-3.81 2.9-3.85 2.9-0.0429 0-0.819-1.02-1.72-2.26-1.42-1.95-4.02-5.45-4.61-6.21-0.327-0.417-0.34-0.191-0.213 3.75 0.148 4.59 0.803 3.65-4.26 6.17-2.34 1.17-5.25 2.66-6.47 3.31-2.74 1.46-2.41 1.47-2.6-0.083-0.142-1.15-0.112-1.11-0.633-0.854-0.27 0.131-0.467 0.176-0.52 0.119-0.0788-0.0848-0.133-2.43-0.402-17.5-0.159-8.9-0.215-10.8-0.321-10.8-0.0548 0-0.339 0.135-0.631 0.3-0.651 0.367-0.645 0.373-0.797-0.884-0.156-1.29-0.1-1.23-0.828-0.825-0.822 0.459-0.681 2.02-0.986-11l-0.0632-2.7 0.129-0.156c0.445-0.536 8.84-4.36 12.4-5.64 0.991-0.358 1.83-0.683 1.88-0.722 0.0408-0.0388-1.77-1.9-4.02-4.14-4.27-4.24-4.34-4.33-3.31-4.08 2.26 0.536 11 2.49 12 2.66 0.689 0.129 0.706 0.148-7.82-8.37-4.53-4.52-8.23-8.26-8.23-8.3 0-0.252 8.76 5.12 17.7 10.8 3.5 2.25 3.83 2.44 3.83 2.23 0-0.105-1.26-2.57-3.42-6.73-1.5-2.89-1.46-2.76-1.07-2.69 0.391 0.0783 13.7 4.76 20.8 7.28 1.54 0.552 2.83 0.977 2.86 0.944 0.033-0.033 0.665-3.38 1.4-7.44 0.74-4.06 1.59-8.72 1.89-10.4 0.298-1.63 0.566-3.11 0.596-3.29 0.0982-0.564 0.593 0.0509 8.12 10.1 1.78 2.37 3.28 4.3 3.32 4.28 0.0486-0.0168 1.54-1.25 3.31-2.74 1.77-1.49 4.83-4.04 6.8-5.65 1.96-1.62 4.92-4.05 6.58-5.42 1.65-1.36 3.09-2.54 3.19-2.61l0.185-0.133 0.0559 0.146c0.0308 0.0802-0.231 2.35-0.583 5.05-0.592 4.54-1.71 13.5-1.71 13.7 0 0.157 0.137 0.109 3.53-1.24 3.23-1.28 7.8-3.06 9.36-3.64 1.01-0.377 0.995-0.179-0.522 5.3-0.338 1.22-0.532 1.42 3.7-3.84 1.7-2.12 3.87-4.85 4.83-6.09 1.78-2.29 1.9-2.43 2.01-2.31 0.0365 0.0379 0.0978 1.22 0.136 2.63 0.0385 1.41 0.103 2.56 0.143 2.56 0.0401 0 0.66-0.431 1.38-0.959 1.84-1.35 9.42-6.8 11.6-8.37 1.45-1.02 0.727-0.182-4.75 5.53-6.23 6.5-10.4 10.7-10.5 10.7-0.0489-0.0489-0.138-0.724-0.198-1.5-0.06-0.776-0.142-1.44-0.182-1.49-0.0717-0.0752-2.02 1.46-5.59 4.41-1.67 1.38-2.1 1.8-1.65 1.61 2.48-1.05 11-3.55 12.2-3.55 0.189 0 4.99-2.21 9.41-4.32 1.29-0.62 1.63-0.735 1.63-0.562 0 0.097-0.432 1.15-1.69 4.13l-0.937 2.21 2 2 0.464 0.898c0.693 1.34 0.64 1.4 0.936-1.04 0.107-0.884 0.285-2.35 0.395-3.26 0.11-0.91 0.244-1.7 0.298-1.75 0.0775-0.0775 13.6 2.07 14.8 2.35 0.301 0.0703 0.282 0.23-0.184 1.54-0.456 1.28-0.474 1.22 0.425 1.41 0.319 0.0677 0.603 0.182 0.63 0.254 0.0456 0.119-1.06 3.2-5.04 14.1-3.04 8.3-2.98 7.02-0.372 8.2 3.9 1.77 5.38 2.48 5.42 2.59 0.0287 0.0861-1.06 0.114-4.44 0.114h-4.48l-0.305 0.435-0.583-0.0289c-0.333-0.0165-0.583 0.0118-0.583 0.0658 0 0.149 0.505 1.18 0.893 1.82 2.11 3.49 0.0292 8.38-4.16 9.76l-0.779 0.255-1.07 6e-3c-1.84 0.0111-3.11-0.524-4.4-1.85l-0.798-0.821-0.98 0.492c-1.22 0.612-1.3 0.335 1.01 3.27 1.06 1.34 4 5.2 5.03 6.61 1.24 1.69 2.2 3 3.92 5.32 1.73 2.34 1.74 2.28-0.349 1.55-6.45-2.27-12.8-4.34-17.4-5.67-6.12-1.78-6.28-1.82-6.28-1.63 0 0.235 3.25 7.39 4.23 9.32 0.621 1.22 1.13 2.26 1.13 2.3 0 0.199-0.448 0.0166-2.31-0.941-1.1-0.562-2.03-1.02-2.08-1.02-0.163 0 0.418 0.967 3.68 6.14 4.14 6.56 4.47 6.7-2.93-1.27-2.41-2.6-5.1-5.49-5.96-6.43l-1.57-1.7-1.37-0.606c-1.9-0.836-1.76-0.955-1.57 1.36 0.129 1.56 0.583 7.72 0.583 7.91 0 0.356-0.183 0.214-4.28-3.31-4.56-3.92-7.42-6.29-7.54-6.24-0.0817 0.0314-0.854 2.98-2.09 7.97-2.51 10.2-2.38 9.64-2.49 9.65-0.121 9e-3 -0.363-0.424-2.58-4.6-2.91-5.49-5.09-9.45-5.21-9.45-0.0597 0-0.809 0.642-1.66 1.43-3.53 3.24-9.04 8.34-11.8 10.9-1.62 1.51-2.99 2.75-3.04 2.75-0.151 0-0.147-0.0598 0.451-7.28 0.638-7.7 0.689-7.04-0.474-6.29-3.43 2.19-10.8 7.02-11 7.23-0.305 0.296-2.2 2.57-7.35 8.84-1.82 2.21-2.1 2.5-1.98 2.04zm4.64-34.9c0-0.0161-0.0858-0.421-0.191-0.901-0.105-0.479-0.245-1.36-0.311-1.97-0.0662-0.603-0.149-1.1-0.183-1.1-0.162 0-1.56 1.66-1.49 1.78 0.269 0.453 2.18 2.37 2.18 2.19zm14.5-5.47c2.74-0.828 5.92-7.51 5.08-10.7-0.628-2.37-4.83 1.32-6.19 5.43-1.17 3.54-0.688 5.81 1.12 5.26zm-26.4-6.15c1.77-2.08 1.71-2.3-0.368-1.4l-0.511 0.22v0.962c0 1.19 0.0448 1.2 0.879 0.221zm92.5-1.7c0.157-0.165 0.582-0.497 0.944-0.738 0.709-0.472 0.753-0.616 0.188-0.619-0.198-8.2e-4 -0.418-0.0387-0.49-0.0841l-0.13-0.0826 0.447-3.56c0.246-1.96 0.447-3.59 0.447-3.62 0-0.191-0.224 0.0483-0.771 0.824-1.11 1.57-2.44 2.83-3.83 3.63-0.576 0.332-0.612 0.188 0.383 1.52 2.27 3.03 2.4 3.16 2.81 2.73zm-25-8.19c0.127-1.3 0.254-2.49 0.281-2.64 0.0664-0.353-0.141-1.24-0.289-1.24-0.0637 0-0.412 0.134-0.773 0.298-0.802 0.363-0.79 0.374-0.748-0.696l0.0341-0.868h-0.193c-0.393 0-0.419 0.2-0.168 1.27 0.131 0.559 0.502 2.17 0.826 3.58 0.794 3.46 0.722 3.44 1.03 0.289zm13.7-5.85c0.899-0.99 0.888-1.13-0.0611-0.801-0.546 0.19-0.67 0.364-0.67 0.941 0 0.604 0.0668 0.591 0.731-0.14zm-85.5 57.1c-1.71-0.672-1.85-0.426 1.78-3.14 4.93-3.69 7.18-5.27 7.18-5.03 0 0.116-5.86 7.03-7.03 8.29-0.467 0.504-0.336 0.512-1.93-0.115zm91.2-12.3c-4.45-5.5-4.99-6.23-4.21-5.62 1.77 1.4 9.86 8.38 9.86 8.51 0 0.128-2.04 1.03-2.33 1.03-0.0939 0-1.47-1.62-3.32-3.92zm-67.2-62.4-1.69-1.58-0.285-0.633c-0.468-1.04-2.12-5.15-2.12-5.27 0-0.436 3.94 5.42 5.79 8.6 0.456 0.785 0.102 0.55-1.69-1.12zm-4.43-0.471c-2.89-2.88-10.3-10.5-10.3-10.6 0-0.152 2.44-1.84 2.67-1.85 0.191-6e-3 0.507 0.468 5 7.49 3.93 6.14 4.02 6.31 2.61 4.91zm52.2-3.24c0-0.0794 4.32-9.84 5.17-11.7 0.068-0.147 0.183-0.268 0.257-0.268 0.245 0 2.8 0.804 2.93 0.921 0.136 0.125 0.0435 0.253-4.31 5.94-1.23 1.61-2.6 3.4-3.05 3.99-0.737 0.966-0.993 1.25-0.993 1.08z" fill="#fbd201"/><path d="m74.4 191c0.0523-0.208 0.818-1.91 4.4-9.8 1.21-2.66 1.39-3.12 1.25-3.12-0.028 0-1.22 0.671-2.65 1.49-5.55 3.18-5.46 3.28-1.24-1.35 1.07-1.18 2.56-2.83 3.31-3.68l1.36-1.53 0.625-1.39c1.12-2.48 1.46-3.33 1.37-3.37-0.11-0.0396-0.126-0.0281-4.98 3.7-2.08 1.6-3.81 2.9-3.85 2.9-0.0429 0-0.819-1.02-1.72-2.26-1.42-1.95-4.02-5.45-4.61-6.21-0.327-0.417-0.34-0.191-0.213 3.75 0.148 4.59 0.803 3.65-4.26 6.17-2.34 1.17-5.25 2.66-6.47 3.31-2.74 1.46-2.41 1.47-2.6-0.083-0.142-1.15-0.112-1.11-0.633-0.854-0.27 0.131-0.467 0.176-0.52 0.119-0.0788-0.0848-0.133-2.43-0.402-17.5-0.159-8.9-0.215-10.8-0.321-10.8-0.0548 0-0.339 0.135-0.631 0.3-0.651 0.367-0.645 0.373-0.797-0.884-0.156-1.29-0.1-1.23-0.828-0.825-0.822 0.459-0.681 2.02-0.986-11l-0.0632-2.7 0.129-0.156c0.445-0.536 8.84-4.36 12.4-5.64 0.991-0.358 1.83-0.683 1.88-0.722 0.0408-0.0388-1.77-1.9-4.02-4.14-4.27-4.24-4.34-4.33-3.31-4.08 2.26 0.536 11 2.49 12 2.66 0.689 0.129 0.706 0.148-7.82-8.37-4.53-4.52-8.23-8.26-8.23-8.3 0-0.252 8.76 5.12 17.7 10.8 3.5 2.25 3.83 2.44 3.83 2.23 0-0.105-1.26-2.57-3.42-6.73-1.5-2.89-1.46-2.76-1.07-2.69 0.391 0.0783 13.7 4.76 20.8 7.28 1.54 0.552 2.83 0.977 2.86 0.944 0.033-0.033 0.665-3.38 1.4-7.44 0.74-4.06 1.59-8.72 1.89-10.4 0.298-1.63 0.566-3.11 0.596-3.29 0.0982-0.564 0.593 0.0509 8.12 10.1 1.78 2.37 3.28 4.3 3.32 4.28 0.0486-0.0168 1.54-1.25 3.31-2.74 1.77-1.49 4.83-4.04 6.8-5.65 1.96-1.62 4.92-4.05 6.58-5.42 1.65-1.36 3.09-2.54 3.19-2.61l0.185-0.133 0.0559 0.146c0.0308 0.0802-0.231 2.35-0.583 5.05-0.592 4.54-1.71 13.5-1.71 13.7 0 0.157 0.137 0.109 3.53-1.24 3.23-1.28 7.8-3.06 9.36-3.64 1.01-0.377 0.995-0.179-0.522 5.3-0.338 1.22-0.532 1.42 3.7-3.84 1.7-2.12 3.87-4.85 4.83-6.09 1.78-2.29 1.9-2.43 2.01-2.31 0.0365 0.0379 0.0978 1.22 0.136 2.63 0.0385 1.41 0.103 2.56 0.143 2.56 0.0401 0 0.66-0.431 1.38-0.959 1.84-1.35 9.42-6.8 11.6-8.37 1.45-1.02 0.727-0.182-4.75 5.53-6.23 6.5-10.4 10.7-10.5 10.7-0.0489-0.0489-0.138-0.724-0.198-1.5-0.06-0.776-0.142-1.44-0.182-1.49-0.0717-0.0752-2.02 1.46-5.59 4.41-1.67 1.38-2.1 1.8-1.65 1.61 2.48-1.05 11-3.55 12.2-3.55 0.189 0 4.99-2.21 9.41-4.32 1.29-0.62 1.63-0.735 1.63-0.562 0 0.097-0.432 1.15-1.69 4.13l-0.937 2.21 2 2 0.464 0.898c0.693 1.34 0.64 1.4 0.936-1.04 0.107-0.884 0.285-2.35 0.395-3.26 0.11-0.91 0.244-1.7 0.298-1.75 0.0775-0.0775 13.6 2.07 14.8 2.35 0.301 0.0703 0.282 0.23-0.184 1.54-0.456 1.28-0.474 1.22 0.425 1.41 0.319 0.0677 0.603 0.182 0.63 0.254 0.0456 0.119-1.06 3.2-5.04 14.1-3.04 8.3-2.98 7.02-0.372 8.2 3.9 1.77 5.38 2.48 5.42 2.59 0.0287 0.0861-1.06 0.114-4.44 0.114h-4.48l-0.305 0.435-0.583-0.0289c-0.333-0.0165-0.583 0.0118-0.583 0.0658 0 0.149 0.505 1.18 0.893 1.82 2.11 3.49 0.0292 8.38-4.16 9.76l-0.779 0.255-1.07 6e-3c-1.84 0.0111-3.11-0.524-4.4-1.85l-0.798-0.821-0.98 0.492c-1.22 0.612-1.3 0.335 1.01 3.27 1.06 1.34 4 5.2 5.03 6.61 1.24 1.69 2.2 3 3.92 5.32 1.73 2.34 1.74 2.28-0.349 1.55-6.45-2.27-12.8-4.34-17.4-5.67-6.12-1.78-6.28-1.82-6.28-1.63 0 0.235 3.25 7.39 4.23 9.32 0.621 1.22 1.13 2.26 1.13 2.3 0 0.199-0.448 0.0166-2.31-0.941-1.1-0.562-2.03-1.02-2.08-1.02-0.163 0 0.418 0.967 3.68 6.14 4.14 6.56 4.47 6.7-2.93-1.27-2.41-2.6-5.1-5.49-5.96-6.43l-1.57-1.7-1.37-0.606c-1.9-0.836-1.76-0.955-1.57 1.36 0.129 1.56 0.583 7.72 0.583 7.91 0 0.356-0.183 0.214-4.28-3.31-4.56-3.92-7.42-6.29-7.54-6.24-0.0817 0.0314-0.854 2.98-2.09 7.97-2.51 10.2-2.38 9.64-2.49 9.65-0.121 9e-3 -0.363-0.424-2.58-4.6-2.91-5.49-5.09-9.45-5.21-9.45-0.0597 0-0.809 0.642-1.66 1.43-3.53 3.24-9.04 8.34-11.8 10.9-1.62 1.51-2.99 2.75-3.04 2.75-0.151 0-0.147-0.0598 0.451-7.28 0.638-7.7 0.689-7.04-0.474-6.29-3.43 2.19-10.8 7.02-11 7.23-0.305 0.296-2.2 2.57-7.35 8.84-1.82 2.21-2.1 2.5-1.98 2.04zm24-10.8c7.85-7.27 13.2-12.1 13.3-12.1 0.0959 0 0.257 0.159 0.369 0.365 0.11 0.201 0.573 1.04 1.03 1.87 3.05 5.54 4.1 7.47 4.56 8.35 0.582 1.11 0.666 1.15 0.838 0.456 0.0651-0.264 0.666-2.67 1.34-5.35 0.669-2.68 1.48-5.94 1.81-7.25 0.325-1.31 0.633-2.43 0.684-2.48 0.134-0.134 0.148-0.123 5.31 4.24 0.594 0.502 1.47 1.24 1.95 1.64 0.477 0.401 1.41 1.2 2.07 1.78 1.4 1.23 1.43 1.23 1.35 0.488-0.0318-0.308-0.105-1.26-0.162-2.12-0.0575-0.857-0.147-2.12-0.198-2.81-0.222-2.98-0.255-2.92 1.17-2.38 1.4 0.524 1.42 0.624-0.38-1.8-2.33-3.13-2.54-3.17 3.35 0.646 2.98 1.93 4.04 2.59 4.05 2.52 7e-3 -0.0379 3e-3 -0.666-0.0105-1.4-0.03-1.66-3e-3 -1.68 0.896-0.803 0.818 0.8 0.837 0.894-0.407-2.06-0.542-1.29-1.01-2.44-1.04-2.56l-0.056-0.219h0.217c0.26 0 3.69 0.879 6.33 1.62 5.83 1.64 9.15 2.67 13.6 4.18 3.35 1.15 3.35 1.15 2.83 0.474-0.209-0.266-1.46-1.91-2.77-3.65-3.65-4.83-5.74-7.54-5.83-7.58-0.045-0.0162-1.05 0.455-2.23 1.05-2.57 1.29-2.27 1.26-2.75 0.207-0.28-0.614-0.456-0.885-0.603-0.924-0.145-0.0384-0.386-0.4-0.801-1.2-1.79-3.45-2.21-4.22-2.26-4.16-0.0348 0.0347-0.0899 0.465-0.122 0.956-0.141 2.13-0.404 4.5-0.51 4.62-0.0629 0.0655-1.1 0.532-2.3 1.04-1.2 0.504-3.13 1.32-4.28 1.82s-2.53 1.08-3.07 1.31c-0.536 0.225-1.11 0.482-1.29 0.571-0.546 0.284-0.632 0.189-0.515-0.57 0.0411-0.267 0.0514-0.718 0.0227-1l-0.0521-0.515-0.848 0.127v-0.151c0-0.285-0.195-0.271-0.949 0.0655-1.59 0.707-5.97 2.5-6.11 2.5-0.185 0-0.274-0.233-0.428-1.12-0.152-0.88-0.212-0.979-0.496-0.827-0.3 0.161-0.371 0.0571-0.536-0.784-0.257-1.31-0.828-3.91-0.878-3.99-0.0424-0.0686-3.24 1.09-3.72 1.35-0.111 0.0594-0.248 0.395-0.389 0.953-0.207 0.818-1.1 4.68-1.1 4.76 0 0.0913-0.555 0.31-2.72 1.07-3 1.05-5.67 2.01-6.83 2.45-5 1.88-5.51 2.02-5.41 1.52 0.0949-0.5 0.225-1.81 0.186-1.89-0.0171-0.0331-0.206-0.0134-0.42 0.0436-0.542 0.145-0.566 0.0682-0.271-0.833 0.329-1 0.328-1-0.546-0.194-3.17 2.94-6.87 4.74-10.5 5.11l-1.15 0.117-1.15-0.167c-1.31-0.19-2.22-0.447-3.07-0.864l-0.581-0.287-0.117 0.16c-0.0644 0.0881-0.453 0.956-0.864 1.93-0.411 0.973-0.853 2.01-0.983 2.29-0.287 0.64-0.242 0.706 0.285 0.415 2.37-1.31 5.53-2.94 5.61-2.89 0.118 0.073-0.0717 0.461-1.34 2.73-0.507 0.911-1.3 2.33-1.75 3.16-0.456 0.83-0.871 1.56-0.923 1.63-0.346 0.436 0.254 0.123 2.21-1.15 6.56-4.28 9.82-6.33 9.91-6.23 0.105 0.105-0.126 3.32-0.703 9.8-0.166 1.86-0.225 3.07-0.152 3.07 0.0393 0 0.628-0.515 1.31-1.14zm-19.4-24.1c0-0.0161-0.0858-0.421-0.191-0.901-0.105-0.479-0.245-1.36-0.311-1.97-0.0662-0.603-0.149-1.1-0.183-1.1-0.162 0-1.56 1.66-1.49 1.78 0.269 0.453 2.18 2.37 2.18 2.19zm-23.7-3.08c0.166-0.311 0.42-0.399 0.711-0.248 0.141 0.073 0.34 0.111 0.444 0.0835 0.103-0.0271 0.218-2e-3 0.253 0.0567 0.091 0.147 0.651 0.127 0.859-0.0311 0.11-0.0831 0.324-0.114 0.589-0.0838 0.25 0.0282 0.604-0.0167 0.886-0.112 0.258-0.0877 0.55-0.134 0.648-0.103 0.0982 0.0312 0.281-0.0108 0.407-0.0932 0.149-0.0974 0.524-0.161 1.07-0.182 0.465-0.0176 0.875-0.062 0.912-0.0988 0.11-0.11 0.997-0.0756 1.19 0.0461l0.181 0.113 0.295-0.21c0.162-0.116 0.386-0.21 0.497-0.21 0.111 0 0.456-0.13 0.768-0.288 0.363-0.184 0.646-0.268 0.785-0.231 0.138 0.0361 0.288-7e-3 0.41-0.117l0.192-0.174 0.248 0.113c0.335 0.153 0.738 0.142 0.977-0.0255 0.109-0.0761 0.451-0.16 0.76-0.187 0.342-0.0297 0.637-0.116 0.752-0.22 0.145-0.131 0.216-0.144 0.303-0.0564 0.19 0.19 2.07 0.153 2.27-0.0444 0.236-0.236 0.967-0.26 1.17-0.0376l0.161 0.178 0.261-0.136c0.144-0.0749 0.342-0.136 0.441-0.137 0.0988-3.3e-4 0.2-0.0807 0.226-0.178 0.0256-0.0978 0.186-0.26 0.356-0.359 2.25-1.32 6.1-8.19 6.58-11.8 1.56-11.4-9.29-12.5-28.5-2.98l-1.82 0.907 0.0016 0.686c0.0031 1.34 0.283 9.23 0.329 9.28 0.0256 0.0256 0.691-0.338 1.48-0.807l1.43-0.854 0.117 0.16c0.084 0.115 0.137 1.27 0.188 4.08 0.0387 2.15 0.11 3.99 0.158 4.07 0.0691 0.118 0.0897 0.0982 0.0972-0.0938l0.0096-0.243 0.0827 0.195c0.0455 0.107 0.107 0.271 0.136 0.365 0.0746 0.236 0.513 0.221 0.643-0.0221zm7.84-3.14c-0.0296-0.174-0.0426-2.44-0.0288-5.04l0.0252-4.72 0.39-0.221c5.57-3.15 9.14-1.24 6.46 3.45-1.56 2.72-6.66 7.59-6.84 6.53zm3.85-5.39c1.77-2.08 1.71-2.3-0.368-1.4l-0.511 0.22v0.962c0 1.19 0.0448 1.2 0.879 0.221zm26.4 6.15c2.74-0.828 5.92-7.51 5.08-10.7-0.628-2.37-4.83 1.32-6.19 5.43-1.17 3.54-0.688 5.81 1.12 5.26zm-12.1-3.15c0.145-0.342 0.204-0.351 1.62-0.247 0.817 0.0598 1.68-0.123 1.91-0.406 0.15-0.18 0.334-0.176 0.626 0.0158 0.167 0.11 0.33 0.134 0.557 0.0831 0.176-0.0393 0.737-0.0761 1.25-0.0816l0.925-0.0101-0.0262-0.195c-0.015-0.111 0.0582-0.247 0.17-0.317l0.197-0.123 0.0094 0.366c0.0057 0.222 0.0623 0.026 0.144-0.498 1.03-6.62 5.94-12.1 9.42-10.5 2.02 0.926 2.82 4.21 1.97 8.17l-0.0641 0.3 0.423-0.0244c0.233-0.0134 0.703-0.0789 1.05-0.145 0.434-0.0843 0.702-0.0913 0.882-0.0232 0.167 0.063 0.344 0.0648 0.497 5e-3 0.131-0.051 0.402-0.0882 0.603-0.0827 0.201 6e-3 0.365-0.0314 0.365-0.0821s0.192-0.177 0.426-0.28c0.234-0.104 0.455-0.235 0.49-0.292 0.0354-0.0573 0.134-0.0773 0.22-0.0445 0.0981 0.0376 0.22-0.0259 0.33-0.172l0.175-0.232 0.186 0.168c0.113 0.102 0.344 0.168 0.587 0.168 0.221 0 0.514 0.0511 0.651 0.113l0.249 0.113 0.225-0.212c0.124-0.116 0.255-0.182 0.291-0.147 0.0359 0.0359 0.157-0.0179 0.269-0.12l0.204-0.185 0.256 0.351 0.0568-0.274c4.07-19.6-14.9-25-24.6-6.94-1.76 3.29-3.58 9.15-3.58 11.5 0 0.344 0.917 0.585 1.05 0.275zm78.1-4.69c0.157-0.165 0.582-0.497 0.944-0.738 0.709-0.472 0.753-0.616 0.188-0.619-0.198-8.2e-4 -0.418-0.0387-0.49-0.0841l-0.13-0.0826 0.447-3.56c0.246-1.96 0.447-3.59 0.447-3.62 0-0.191-0.224 0.0483-0.771 0.824-1.11 1.57-2.44 2.83-3.83 3.63-0.576 0.332-0.612 0.188 0.383 1.52 2.27 3.03 2.4 3.16 2.81 2.73zm-42.3-0.787c0.275 0.172 0.9 0.149 0.831-0.0301-0.0706-0.184 0.0418-0.249 0.456-0.265l0.334-0.0126 0.736-2.93c0.405-1.61 0.981-3.92 1.28-5.12 0.806-3.25 0.869-3.46 1.03-3.46 0.153 0 0.168 0.0624 0.682 2.82 0.714 3.83 1.18 6.04 1.32 6.19 0.0777 0.0859 0.17 0.363 0.204 0.616 0.0587 0.428 0.302 0.736 0.459 0.58 0.147-0.147 1.14-0.426 1.72-0.481 0.407-0.0388 0.677-0.116 0.757-0.217 0.0717-0.0904 0.298-0.166 0.536-0.18 0.226-0.0128 0.819-0.0661 1.32-0.118l0.906-0.095 0.339-0.298c0.258-0.227 0.433-0.298 0.732-0.298 0.268 0 0.493-0.0767 0.709-0.242 0.251-0.192 0.342-0.217 0.439-0.122 0.13 0.128 0.134 0.167-0.0878-0.805-0.196-0.856-0.87-3.78-1.36-5.89-0.273-1.18-0.738-3.24-1.03-4.58-0.295-1.34-0.776-3.51-1.07-4.83s-0.531-2.49-0.531-2.6c0-0.293-0.106-0.318-0.641-0.154-0.264 0.0809-1.29 0.381-2.28 0.667-1.63 0.469-4.87 1.43-7.45 2.21-1.28 0.385-1.11 0.136-1.9 2.86-0.171 0.589-0.565 1.93-0.875 2.97-0.31 1.04-0.769 2.6-1.02 3.46s-0.56 1.89-0.686 2.29-0.449 1.5-0.716 2.43-0.644 2.21-0.838 2.82c-0.193 0.615-0.394 1.31-0.445 1.54l-0.0937 0.418 0.461 0.498 0.357-0.0985c0.212-0.0586 0.474-0.0648 0.647-0.0152 0.216 0.062 0.29 0.0509 0.29-0.0436 0-0.169 0.731-0.281 0.977-0.15 0.132 0.0709 0.25 0.0714 0.38 2e-3 0.234-0.125 0.658-0.131 0.732-0.0109 0.0305 0.0494 0.187 0.119 0.347 0.154 0.161 0.0353 0.342 0.159 0.403 0.275 0.166 0.315 0.229 0.332 0.876 0.227 0.43-0.0693 0.645-0.0646 0.775 0.0171zm55.9-0.753c0.0443-0.0717-1.64-0.887-1.83-0.887-0.0981 0-0.356 0.561-0.356 0.774v0.2h1.07c0.586 0 1.09-0.0392 1.12-0.0871zm-36.8-3.27c0.0881 0.0881 0.22 0.125 0.311 0.0877 0.342-0.141 0.499-0.159 0.499-0.0546 0 0.145 0.917 0.142 1.32-4e-3 0.18-0.0652 0.388-0.079 0.494-0.0328 0.37 0.162 1.16 0.119 1.84-0.0985 0.375-0.12 0.838-0.268 1.03-0.328 0.191-0.0602 0.463-0.11 0.603-0.11s0.282-0.0438 0.315-0.0974 0.29-0.0974 0.571-0.0974c0.281 0 0.559-0.0482 0.618-0.107 0.0684-0.0684 0.225-0.0793 0.433-0.0301 0.179 0.0424 0.37 0.0611 0.424 0.0415 0.433-0.158 3.4-0.055 3.15 0.11-0.213 0.142 0.391-0.0187 0.888-0.236 0.324-0.142 0.692-0.197 1.41-0.213 1.11-0.0242 1.42-0.14 1.96-0.738 0.201-0.222 0.436-0.385 0.558-0.385 0.936 0 5.01-4.42 6.39-6.94 5.76-10.5-1.11-15.9-14.6-11.5-2.65 0.872-8.78 3.28-9.07 3.56-0.0975 0.0947-0.194 1.19-0.644 7.32l-0.0215 0.292 0.191-0.0335c0.105-0.0184 0.513-0.21 0.907-0.426 0.986-0.541 0.964-0.602 0.717 1.99-0.198 2.08-0.426 4.88-0.55 6.75-0.0319 0.482-0.0799 1.01-0.107 1.17l-0.0486 0.292 0.214-0.344zm7.63-4.29c0-0.187 0.129-1.53 0.286-2.99s0.34-3.27 0.405-4.02c0.156-1.79 0.121-1.71 1.03-2.08 7.48-3.01 7.94 2.53 0.665 7.96-2.22 1.66-2.39 1.73-2.39 1.13zm4.24-4.94c0.899-0.99 0.888-1.13-0.0611-0.801-0.546 0.19-0.67 0.364-0.67 0.941 0 0.604 0.0668 0.591 0.731-0.14zm-13.7 5.85c0.127-1.3 0.254-2.49 0.281-2.64 0.0664-0.353-0.141-1.24-0.289-1.24-0.0637 0-0.409 0.133-0.767 0.295-0.806 0.366-0.82 0.356-0.771-0.512 0.0801-1.42 0.228-3.27 0.367-4.6 0.0781-0.75 0.234-2.31 0.347-3.46 0.113-1.15 0.23-2.26 0.262-2.46l0.0571-0.371 0.704-0.331 0.363-1.41c0.2-0.776 0.59-2.28 0.867-3.34 0.277-1.06 0.475-1.95 0.44-1.99-0.0826-0.0826-0.206-0.0399-3.37 1.17-9.92 3.78-9.74 3.71-9.74 3.48 0-0.116 0.285-2.55 0.729-6.24 0.191-1.58 0.497-4.17 0.68-5.75 0.184-1.58 0.386-3.29 0.449-3.81 0.157-1.27 0.178-1.26-1.03-0.265-3.47 2.86-10 8.32-13.2 11-3 2.53-3.4 2.86-3.47 2.86-0.0409 0-2.18-2.82-4.76-6.26-2.58-3.44-4.73-6.3-4.78-6.35-0.138-0.147-0.234 0.0743-0.371 0.858-0.193 1.11-1.59 8.54-2.33 12.4-0.374 1.95-0.754 3.97-0.844 4.48-0.0909 0.509-0.205 0.975-0.253 1.04-0.0991 0.125-0.769-0.1-7.87-2.64-2.49-0.891-5.08-1.81-5.75-2.04-0.67-0.233-2.23-0.78-3.46-1.21-3.42-1.21-4.25-1.48-4.29-1.44-0.0444 0.0444 1.06 2.24 4.6 9.15 1.09 2.13 1.98 3.94 1.98 4.02 0 0.279-0.0266 0.266-2.78-1.34-6.16-3.6-5.88-3.44-5.75-3.12 0.148 0.359 0.951 2.53 1.1 2.96 0.288 0.856 0.313 0.851-1.87 0.368-0.696-0.154-2.38-0.523-3.75-0.82-1.37-0.297-2.97-0.657-3.58-0.8-1.47-0.349-1.49-0.402 0.801 1.84 2.35 2.3 1.98 2.12 3.53 1.74 7.89-1.9 12.8-0.306 15.3 4.98 0.605 1.27 0.484 1.28 1.4-0.123 3.2-4.92 7.67-8.32 12.5-9.47l0.882-0.211 3.8 2e-3 0.974 0.263c4.15 1.12 7.51 4.88 9.01 10.1 0.239 0.829 0.295 0.812 0.579-0.183 0.115-0.402 0.247-0.84 0.293-0.974 0.0461-0.134 0.239-0.769 0.429-1.41 0.19-0.643 0.629-2.11 0.976-3.26 0.347-1.15 0.9-2.99 1.23-4.09 0.735-2.46-0.121-1.94 6.38-3.84 3.05-0.895 5.88-1.73 6.28-1.86 2.73-0.858 2.53-1.02 2.97 2.46 0.0476 0.376 0.125 0.555 0.295 0.682l0.231 0.172 0.885 3.94c0.487 2.17 0.927 4.22 0.978 4.56 0.0508 0.337 0.179 0.973 0.285 1.41s0.457 1.95 0.78 3.37c0.792 3.47 0.721 3.44 1.03 0.289zm29.4-3.01c0.113-0.113 1.63-0.0732 2.11 0.0558 0.159 0.043 0.364 0.03 0.487-0.0308 0.368-0.182 1.12-0.239 2.21-0.168 0.402 0.0262 0.84 0.01 0.974-0.036 0.134-0.046 0.419-0.136 0.634-0.2l0.39-0.116 0.316-0.747c0.174-0.411 0.398-0.988 0.498-1.28 0.1-0.295 0.391-1.06 0.646-1.7 1.13-2.85 4.16-11.2 4.11-11.4-0.0228-0.0591-1.18-0.296-2.56-0.527-5.78-0.961-7.7-1.27-8.11-1.3l-0.43-0.0328-0.0742 0.292c-0.0408 0.161-0.166 1.1-0.278 2.09-0.204 1.8-0.364 3.18-0.826 7.11-0.333 2.83-0.845 7.72-0.812 7.74 0.559 0.387 0.573 0.391 0.726 0.239zm-5.88-17.7c0.363-0.811 0.462-1.1 0.382-1.1-0.106 0-2.3 0.981-2.39 1.07-0.0455 0.0428 0.174 0.15 0.487 0.239 0.313 0.0884 0.679 0.199 0.813 0.246 0.412 0.143 0.453 0.117 0.711-0.46zm-95.3 72c-1.71-0.672-1.85-0.426 1.78-3.14 4.93-3.69 7.18-5.27 7.18-5.03 0 0.116-5.86 7.03-7.03 8.29-0.467 0.504-0.336 0.512-1.93-0.115zm91.2-12.3c-4.45-5.5-4.99-6.23-4.21-5.62 1.77 1.4 9.86 8.38 9.86 8.51 0 0.128-2.04 1.03-2.33 1.03-0.0939 0-1.47-1.62-3.32-3.92zm-67.2-62.4-1.69-1.58-0.285-0.633c-0.468-1.04-2.12-5.15-2.12-5.27 0-0.436 3.94 5.42 5.79 8.6 0.456 0.785 0.102 0.55-1.69-1.12zm-4.43-0.471c-2.89-2.88-10.3-10.5-10.3-10.6 0-0.152 2.44-1.84 2.67-1.85 0.191-6e-3 0.507 0.468 5 7.49 3.93 6.14 4.02 6.31 2.61 4.91zm52.2-3.24c0-0.0794 4.32-9.84 5.17-11.7 0.068-0.147 0.183-0.268 0.257-0.268 0.245 0 2.8 0.804 2.93 0.921 0.136 0.125 0.0435 0.253-4.31 5.94-1.23 1.61-2.6 3.4-3.05 3.99-0.737 0.966-0.993 1.25-0.993 1.08z" fill="#fb8f01"/><path d="m74.4 192c-0.0057-0.112 0.409-1.08 1.26-2.94 0.416-0.911 1.27-2.79 1.9-4.19 0.628-1.39 1.39-3.08 1.7-3.75 1.18-2.56 1.17-2.53 0.324-2.02-0.651 0.392-3.98 2.3-5.47 3.13-1.61 0.9-1.61 0.898 1.8-2.87 4.29-4.74 5.01-5.57 5.1-5.79 0.0457-0.12 0.503-1.16 1.02-2.32 0.96-2.16 1.03-2.37 0.795-2.28-0.134 0.0514-4.49 3.37-7.35 5.6-1.11 0.865-1.43 1.07-1.53 0.98-0.0737-0.0611-0.822-1.06-1.66-2.22-2.25-3.1-4.55-6.18-4.73-6.32-0.259-0.214-0.264-0.0618-0.12 3.64 0.077 1.98 0.141 3.74 0.142 3.91l0.0022 0.315-4.07 2.04c-2.24 1.12-5.18 2.63-6.55 3.35-2.82 1.49-2.62 1.48-2.79 0.142-0.154-1.19-0.189-1.24-0.705-0.952-0.218 0.123-0.426 0.194-0.462 0.158-0.07-0.07-0.138-3.09-0.369-16.3-0.229-13.1-0.158-12.2-0.878-11.8-0.779 0.446-0.774 0.45-0.906-0.789-0.145-1.36-0.0726-1.32-1.22-0.63-0.341 0.207-0.461-2.31-0.591-12.4l-0.0206-1.61 1.95-0.993c3.59-1.83 8.3-3.89 11.2-4.9 1.48-0.513 1.86 0.094-2.87-4.61-2.24-2.22-4.03-4.07-3.99-4.11 0.0388-0.0388 1.88 0.336 4.09 0.834 6.27 1.41 8.94 1.98 9 1.91 0.0974-0.0974-4.03-4.3-10.4-10.6-3.31-3.27-6.01-5.98-6.01-6.03 0-0.131 0.594 0.198 3.05 1.69 5.76 3.5 9.63 5.92 15.8 9.91 2.7 1.73 2.76 1.76 2.52 1.21-0.194-0.439-2.73-5.35-3.74-7.26-0.823-1.55-1.03-2.03-0.86-2.03 0.125 0 13.1 4.55 19.5 6.83 4.63 1.66 4.33 1.61 4.5 0.651 0.125-0.712 2.16-11.9 3.18-17.5 0.293-1.6 0.532-2.95 0.532-2.99 0-0.428 0.7 0.46 7.79 9.88 4.03 5.35 3.43 4.86 4.69 3.8 5.28-4.46 5.23-4.42 12.9-10.8 2.7-2.23 5.14-4.23 5.4-4.45 0.62-0.514 0.769-0.522 0.69-0.0375-0.0326 0.201-0.121 0.869-0.197 1.49-0.0756 0.616-0.338 2.65-0.582 4.53-0.545 4.18-1.52 12.1-1.52 12.3 0 0.287 0.0588 0.269 3.47-1.09 4.64-1.85 9.96-3.89 10.1-3.89 0.178 0 0.247-0.327-0.716 3.39-0.714 2.75-0.788 3.22-0.439 2.78 0.0901-0.115 0.691-0.859 1.34-1.65 2.79-3.44 5.29-6.58 7.04-8.82 2.29-2.94 2.16-2.88 2.16-0.917 5.8e-4 1.75 0.114 3.67 0.217 3.67 0.0493 0 0.974-0.644 2.05-1.43s2.51-1.82 3.18-2.31c0.67-0.482 1.68-1.21 2.24-1.62 0.994-0.722 4.44-3.18 5.52-3.93 0.658-0.46 0.766-0.4 0.274 0.152-2.33 2.62-15.3 16-15.5 15.9-0.0832-0.0273-0.287-1.71-0.336-2.78-7e-3 -0.143-0.0618-0.215-0.15-0.195-0.299 0.0674-7.54 6.04-7.39 6.09 0.0574 0.0191 1.05-0.294 2.2-0.696 4.26-1.48 7.41-2.39 9.5-2.74l1.01-0.167 4.74-2.24c5.44-2.57 5.84-2.75 5.91-2.68 0.0551 0.0551-0.179 0.64-1.6 4.01-1.16 2.74-1.11 2.44-0.471 2.93 0.736 0.569 1.34 1.32 1.92 2.38 0.581 1.07 0.648 1.15 0.722 0.911 0.0483-0.16 0.626-4.73 0.801-6.35 0.0887-0.815-0.628-0.864 7.65 0.519 8.51 1.42 7.61 1.09 7.1 2.62-0.47 1.41-0.479 1.36 0.273 1.52 0.316 0.067 0.631 0.157 0.701 0.2 0.136 0.0839-0.0291 0.56-2.9 8.37-1.52 4.13-3.7 10.1-4.31 11.8-0.459 1.27-0.667 1.04 2.04 2.27 3.89 1.77 5.09 2.34 5.08 2.44-8e-3 0.0629-1.56 0.106-4.39 0.123l-4.38 0.0253-0.242 0.388h-0.61c-0.793 0-0.852-0.266 0.57 2.54 0.164 0.322 0.339 0.914 0.434 1.46l0.159 0.919-0.102 0.792c-0.454 3.52-3.41 6.18-6.89 6.19l-0.979 2e-3 -0.774-0.259c-1.26-0.422-2.1-0.987-2.82-1.9-0.213-0.271-0.444-0.493-0.513-0.493-0.218 0-1.88 0.876-1.94 1.02-0.0611 0.159-0.197-0.0288 2.79 3.85 2.37 3.08 2.99 3.9 5.35 7.11 0.768 1.04 2 2.72 2.74 3.72s1.35 1.87 1.35 1.93c0 0.163-0.155 0.118-2.68-0.779-5.03-1.79-11.7-3.97-16-5.21-2.51-0.732-6.58-1.9-6.63-1.9-0.129 0 6e-3 0.436 0.432 1.4 0.262 0.594 0.88 2 1.37 3.12s1.46 3.17 2.15 4.55c1.13 2.25 1.36 2.8 1.21 2.8-0.0265 0-0.988-0.47-2.14-1.04-1.15-0.574-2.12-1.01-2.15-0.98-0.089 0.089 0.495 1.04 5.77 9.41 0.45 0.714 0.846 1.37 0.878 1.45l0.0599 0.156-0.193-0.139c-0.324-0.234-4.71-4.93-10.7-11.5l-2.47-2.68-1.48-0.647c-0.813-0.356-1.51-0.627-1.55-0.603-0.135 0.0819-0.0495 1.59 0.458 8.1 0.18 2.3 0.341 2.29-2.15 0.164-6.11-5.22-9.41-7.98-9.51-7.98-0.104 0-2 7.39-3.97 15.4-0.658 2.7-0.518 2.7-1.94-0.014-2.61-4.96-6.19-11.6-6.37-11.7l-0.123-0.127-1.99 1.82c-3.72 3.41-5.28 4.86-9.09 8.4-4.85 4.52-5.41 5.02-5.48 4.95-0.0311-0.0311-0.0075-0.662 0.0525-1.4 0.328-4.04 0.984-11.9 1.02-12.2 0.0812-0.714 0.591-1.01-9.26 5.43l-2.65 1.73-2.81 3.37c-1.54 1.86-3.48 4.2-4.31 5.22-1.6 1.96-2.32 2.78-2.33 2.66zm24.2-11c1.61-1.51 4.48-4.16 12-11.1 0.605-0.554 1.15-0.99 1.21-0.97 0.0985 0.0328 4.08 7.18 5.79 10.4 0.769 1.45 0.817 1.47 1.04 0.537 0.0914-0.388 0.755-3.05 1.47-5.92 0.72-2.87 1.52-6.06 1.78-7.11 0.599-2.42 0.133-2.49 3.77 0.584 0.475 0.402 1.33 1.12 1.91 1.61 2.12 1.79 2.8 2.36 4.11 3.49 1.6 1.38 1.48 1.43 1.35-0.592-0.497-7.52-0.613-6.73 0.914-6.17 1.08 0.4 1.37 0.439 1.16 0.157-0.0517-0.0711-0.734-0.978-1.52-2.02-2.02-2.68-2.03-2.72-0.429-1.69 0.536 0.345 1.35 0.863 1.8 1.15 0.455 0.289 1.96 1.25 3.34 2.15 1.38 0.891 2.55 1.62 2.61 1.62 0.0585 0 0.0959-0.55 0.0959-1.41 0-1.67-8.5e-4 -1.67 0.844-0.758 0.847 0.911 0.836 0.815-0.17-1.59-1.07-2.57-1.32-3.22-1.25-3.3 0.241-0.241 12.5 3.29 19.1 5.51 4.76 1.6 4.45 1.61 3.12-0.133-0.583-0.765-1.71-2.24-2.5-3.29-2.56-3.39-4.3-5.66-4.92-6.44l-0.612-0.765-2.14 1.07c-2.58 1.29-2.34 1.27-2.84 0.199-0.286-0.625-0.454-0.88-0.594-0.901-0.145-0.022-0.444-0.517-1.17-1.93-1.3-2.55-1.83-3.51-1.91-3.51-0.0674 0-0.145 0.755-0.418 4.04-0.144 1.74-0.055 1.62-1.84 2.37-0.83 0.348-3.28 1.4-5.45 2.33s-4.05 1.72-4.17 1.75l-0.229 0.0531 0.0687-0.733c0.0377-0.403 0.0376-0.916-3.8e-4 -1.14l-0.069-0.409-0.224 0.0563c-0.123 0.031-0.297 0.0841-0.385 0.118-0.112 0.043-0.177-1e-3 -0.215-0.146-0.0746-0.285-0.183-0.268-1.32 0.216-3.43 1.46-5.83 2.42-5.88 2.37-0.0515-0.0515-0.422-1.75-0.425-1.95-5.5e-4 -0.0425-0.161-0.0644-0.357-0.0487l-0.356 0.0286-0.229-1.07c-0.126-0.589-0.344-1.64-0.485-2.34-0.319-1.58-0.229-1.51-1.37-1.09-1.15 0.421-2.85 1.1-2.91 1.16-0.0557 0.0557-0.62 2.36-1.02 4.16-0.389 1.76 0.0369 1.44-3.84 2.82-1.82 0.649-5.05 1.81-7.17 2.59s-3.96 1.41-4.07 1.41h-0.205l0.0648-0.268c0.0356-0.147 0.102-0.369 0.148-0.493 0.0457-0.124 0.0831-0.513 0.0831-0.863v-0.638l-0.219 0.0522c-0.121 0.0287-0.318 0.0827-0.438 0.12l-0.219 0.0679v-0.208c0-0.114 0.109-0.521 0.243-0.904 0.305-0.873 0.269-0.904-0.364-0.311-5.21 4.88-11.8 6.68-16.2 4.45-0.753-0.38-0.571-0.655-2.39 3.62-0.562 1.32-0.56 1.36 0.0644 1.02 4.78-2.58 5.67-3.03 5.67-2.86 0 0.0898-0.38 0.806-1.39 2.63-0.537 0.964-1.3 2.34-1.7 3.07-0.397 0.723-0.809 1.46-0.916 1.63-0.348 0.569-0.14 0.535 0.896-0.149 1.26-0.83 2.46-1.61 6.96-4.5 0.857-0.551 2.12-1.37 2.81-1.82 1.29-0.846 1.58-0.931 1.49-0.443-0.0287 0.147-0.0785 0.662-0.111 1.14-0.0322 0.482-0.121 1.62-0.196 2.53-0.0758 0.911-0.228 2.77-0.339 4.14s-0.243 2.91-0.295 3.44c-0.166 1.69-0.252 1.69 1.5 0.0415zm-40.3-16 0.295-0.358 0.321 0.0112c1.44 0.0499 2.16 0.01 2.44-0.136 0.179-0.0927 0.589-0.166 1-0.178l0.697-0.0211 0.211-0.211c0.116-0.116 0.25-0.211 0.297-0.211 0.0473 0 0.112-0.0767 0.143-0.17 0.0738-0.22 0.279-0.54 0.404-0.63 0.0598-0.0431 0.0974-0.888 0.0974-2.19v-2.12l0.158-0.0309c0.108-0.021 0.61 0.568 1.57 1.85 0.779 1.03 1.53 1.97 1.66 2.09l0.243 0.211 0.422-0.0543c0.232-0.0298 0.62-0.151 0.861-0.269 0.518-0.253 1.62-0.575 1.9-0.554 0.107 8e-3 0.589 0.0536 1.07 0.1 0.689 0.0669 0.923 0.0566 1.09-0.0483 0.119-0.0734 0.307-0.133 0.419-0.133 0.112 0 0.321-0.0602 0.466-0.134 0.147-0.0747 0.697-0.154 1.25-0.179 0.54-0.025 1.04-0.0843 1.12-0.132 0.0757-0.0474 0.203-0.0754 0.284-0.0623 0.0803 0.0131 0.32-0.0647 0.532-0.173 0.212-0.108 0.455-0.197 0.539-0.197 0.0842 0 0.391-0.153 0.682-0.341 0.291-0.187 0.585-0.341 0.654-0.341 0.265 0-0.071-0.476-1.14-1.61-2.34-2.5-5.03-5.45-5.11-5.61l-0.0902-0.189 0.779-0.798c9.48-9.72 10.2-20.5 1.58-22.4l-1.01-0.22-1.7 6e-3c-4.38 0.0163-9.96 1.76-18.2 5.66-1.95 0.929-3.52 1.74-3.59 1.86-0.0234 0.0379 0.0186 2.13 0.0933 4.64 0.0748 2.52 0.137 4.76 0.139 4.99 0.0037 0.535-0.0378 0.545 1.52-0.378 0.733-0.435 1.4-0.797 1.49-0.803l0.16-0.0118 0.0658 3.31c0.222 11.2 0.365 16 0.469 15.7l0.066-0.188 0.125 0.624h0.255c0.173 0 0.271-0.0625 0.306-0.195 0.0534-0.204 0.223-0.272 0.223-0.0887 0 0.332 0.627 0.567 0.992 0.371 0.136-0.0725 0.268-0.0763 0.407-0.0117 0.862 0.398 0.953 0.395 1.32-0.0439zm5.04-14.4c-0.0268-0.174-0.067-2.39-0.0894-4.91l-0.0406-4.6 0.166-0.15c0.699-0.633 3.97-1.73 5.18-1.74l0.742-5e-3 0.544 0.266c2.66 1.3 0.322 5.98-5.32 10.7-1.08 0.9-1.11 0.911-1.18 0.477zm4.53-6.24c0.891-1.18 0.776-1.26-0.821-0.628l-0.795 0.317-0.0282 0.918c-0.0456 1.48 0.101 1.43 1.64-0.607zm14.8 14.7c0.0667-0.0803 0.167-0.146 0.223-0.146 0.0562 0 0.175-0.066 0.264-0.147 0.129-0.117 0.223-0.125 0.462-0.042l0.3 0.105 0.656-0.354c0.653-0.352 1.1-0.452 2.15-0.476 0.276-6e-3 0.536-0.0442 0.576-0.0844 0.0404-0.0402 0.187-0.0731 0.325-0.0731 0.138-2e-5 0.471-0.0806 0.738-0.179 0.347-0.128 0.807-0.185 1.6-0.201 0.789-0.0158 1.2-0.0671 1.41-0.177 0.164-0.0849 0.45-0.149 0.635-0.142 0.188 7e-3 0.412-0.0563 0.509-0.144 0.133-0.121 0.283-0.142 0.651-0.0933l0.478 0.0634 0.0584-0.152c0.0414-0.108 0.108-0.128 0.23-0.0685 0.282 0.137 1.29 0.0158 1.83-0.22 0.161-0.0706 0.533-0.182 0.828-0.248 0.295-0.0656 0.587-0.16 0.65-0.21 0.304-0.241 2.04-0.794 2.29-0.729 0.1 0.0263 0.565-0.0381 1.03-0.143 0.468-0.105 0.96-0.214 1.09-0.243 0.134-0.0285 0.309-0.0754 0.39-0.104 0.21-0.0753 0.768-0.0732 0.844 3e-3 0.0357 0.0357 0.165 0.0649 0.286 0.0649 0.122 0 0.249 0.0438 0.282 0.0974s0.134 0.096 0.225 0.0943l0.165-3e-3 -0.343-0.26 0.132-0.109c0.0725-0.0601 0.27-0.124 0.439-0.143l0.308-0.0337 0.501-0.819c7.1-11.6 5.17-26.1-3.74-28.1l-1.09-0.248-1.46 0.0516c-8.82 0.311-16.9 10.4-18.3 22.9-0.287 2.56 0.0579 7.23 0.599 8.1 0.0289 0.0467 0.139 0.396 0.244 0.777 0.367 1.32 1.17 2.25 1.55 1.79zm9.42-5.61c-6.45-0.916-1.86-17.3 4.85-17.2 6.39 0.0131 3.27 15.8-3.38 17.2-0.82 0.162-0.873 0.165-1.46 0.0808zm1.73-2.07c2.53-1.19 4.84-5.66 4.86-9.44l0.0083-1.25-0.273-0.235c-0.403-0.347-1.12-0.326-1.88 0.0554-4.18 2.09-6.86 12.8-2.71 10.9zm-14.9 4.78c-0.15-0.675-0.439-2.64-0.443-3.02-0.0032-0.301-0.23-0.146-0.958 0.656-0.867 0.954-0.901 0.768 0.392 2.14 1.19 1.26 1.24 1.27 1.01 0.223zm32.8-3.67c0.398-0.0617 0.792-0.148 0.876-0.191 0.536-0.276 1.13-0.397 1.97-0.399 1.37-4e-3 2.19-0.117 2.69-0.369 0.0919-0.0465 0.466-0.157 0.831-0.246 0.365-0.0889 1.03-0.335 1.48-0.547 0.446-0.212 0.905-0.386 1.02-0.386 0.186 0 1.87-0.57 3.62-1.23 0.778-0.291 0.93-0.248 1.01 0.284 0.104 0.669 0.136 0.732 0.347 0.676 0.107-0.028 0.242-0.144 0.301-0.258 0.196-0.382 0.504-0.645 0.756-0.648 0.138-2e-3 0.332-0.0644 0.431-0.139 0.127-0.0963 0.368-0.124 0.821-0.0943 0.594 0.0388 0.852-4e-3 1.63-0.269 0.161-0.0549 0.391-0.0955 0.511-0.0903 0.12 5e-3 0.361-0.0775 0.536-0.184 0.219-0.134 0.49-0.193 0.88-0.194 0.353-2.3e-4 0.653-0.0588 0.803-0.157 0.132-0.0862 0.309-0.13 0.393-0.0977 0.0846 0.0325 0.249 5e-3 0.366-0.0614 0.117-0.0662 0.364-0.166 0.549-0.221 0.587-0.175 0.619-0.696 0.159-2.61-0.182-0.76-0.493-2.06-0.691-2.89-0.198-0.83-0.527-2.21-0.732-3.07-2.1-8.8-2.05-8.58-3.54-15.3-0.348-1.58-0.662-3.04-0.698-3.24-0.0388-0.216-0.121-0.365-0.201-0.365-0.2 0-9.52 2.73-10.7 3.15l-0.626 0.213-0.22 0.633c-0.121 0.348-0.353 1.09-0.515 1.66-0.378 1.31-1.58 5.38-2 6.77-0.178 0.589-0.502 1.66-0.719 2.39-0.217 0.723-0.668 2.21-1 3.31s-0.791 2.61-1.02 3.36c-0.227 0.75-0.617 2.02-0.867 2.82-0.25 0.803-0.648 2.1-0.883 2.87-0.235 0.777-0.671 2.2-0.968 3.17-0.525 1.71-0.623 2.15-0.462 2.05 0.0427-0.0264 0.126-0.018 0.185 0.0186 0.167 0.103 2.91 0.0413 3.72-0.0842zm7.12-8.98c0-0.0703 0.464-2.03 1.03-4.36 0.567-2.33 1.18-4.87 1.37-5.64 0.77-3.2 0.674-3.24 1.35 0.487 0.19 1.04 0.562 3.06 0.827 4.48 0.265 1.42 0.494 2.78 0.508 3.01l0.0262 0.434-0.256 0.125c-1.19 0.583-4.86 1.68-4.86 1.46zm18.4 4.64c0.134-0.0239 0.353-0.0899 0.487-0.147 0.134-0.0567 0.353-0.146 0.487-0.198 0.376-0.146 0.803-0.327 1.08-0.458 0.139-0.0656 0.533-0.132 0.876-0.148 0.863-0.0402 1.66-0.157 1.89-0.277 0.323-0.168 0.924-0.25 0.931-0.127 0.0203 0.357 0.195-0.479 0.287-1.37 0.228-2.22 0.409-3.59 0.486-3.67 0.167-0.175 0.0557-0.351 2.56 4.03 0.321 0.562 0.597 1.04 0.613 1.06 0.016 0.018 0.175-0.0364 0.353-0.121 0.583-0.276 2.11-0.545 3.1-0.545 0.515 0 0.979-0.0379 1.03-0.0841 0.206-0.187 0.813-0.334 1.48-0.359 0.48-0.018 0.859-0.0955 1.17-0.239 0.872-0.405 1.04-0.469 1.43-0.532 1.32-0.213 1.33-0.516 0.106-2.13-0.169-0.223-0.613-0.837-0.986-1.36-0.373-0.527-0.831-1.17-1.02-1.43-1.87-2.56-1.83-2.29-0.521-3.31 8.71-6.8 10.8-16.9 4.13-19.7-3.36-1.42-8.3-0.69-16.3 2.39-1.87 0.724-5.29 2.14-5.39 2.24-0.0703 0.068-0.639 6.62-0.645 7.43-3e-3 0.367 0.173 0.346 1.02-0.122 1.11-0.612 1.05-1.01 0.589 3.88-0.485 5.16-0.707 7.68-0.887 10l-0.159 2.09 0.357 1.45c0.462 1.87 0.548 2.03 1.02 1.85 0.0803-0.0303 0.256-0.0747 0.39-0.0986zm6.92-13.7c4.6e-4 -0.174 0.151-1.81 0.335-3.63s0.364-3.67 0.401-4.11c0.0776-0.922 0.0442-0.881 1.05-1.28 7.04-2.8 7.59 2.49 0.79 7.64-2.29 1.73-2.58 1.89-2.58 1.38zm4.23-4.95c0.906-0.978 0.859-1.1-0.279-0.701-0.485 0.169-0.536 0.253-0.538 0.883-2e-3 0.659 0.0492 0.647 0.817-0.182zm14.9 14.5c0.118-0.126 0.28-0.254 0.361-0.284 0.0909-0.0347 0.054-0.0585-0.0974-0.063-0.284-8e-3 -0.861 0.145-1.07 0.284l-0.146 0.097 0.146 0.0959c0.248 0.163 0.584 0.109 0.808-0.13zm-3.41-0.557c0.325-0.271 0.758-0.589 0.963-0.706 0.501-0.286 0.47-0.425-0.113-0.505-0.631-0.0867-0.617 0.273-0.135-3.55 0.569-4.53 0.601-4.29-0.386-2.9-0.905 1.28-2.09 2.45-3.26 3.23-1.21 0.808-1.3 0.518 1.1 3.56 1.22 1.54 1.1 1.49 1.84 0.869zm13.5-1.37c-0.173-0.173-2-0.95-2.09-0.892-0.0894 0.0552-0.228 0.382-0.324 0.767l-0.06 0.239h1.3c0.994 0 1.27-0.0267 1.18-0.115zm-9.63-2.52c0.32-0.212 0.525-0.285 0.686-0.245 0.126 0.0316 0.772-0.0548 1.43-0.192 0.663-0.137 1.48-0.257 1.81-0.266l0.605-0.0169 0.634-1.56c0.615-1.51 1.78-4.56 2.83-7.45 0.284-0.777 0.963-2.62 1.51-4.09 1.98-5.36 3.22-8.89 3.14-8.97-0.0771-0.0771-2.2-0.449-7.96-1.39-3.07-0.503-3.23-0.516-3.3-0.274-0.0295 0.0937-0.142 0.937-0.25 1.87s-0.283 2.43-0.39 3.31-0.348 2.92-0.537 4.53c-0.909 7.72-1.01 8.62-1.27 11.2-0.0857 0.884-0.192 1.91-0.237 2.29l-0.0809 0.682 0.17 0.195c0.0937 0.107 0.221 0.293 0.283 0.414 0.153 0.296 0.377 0.276 0.919-0.0832zm-29.1-4.52c0.247-2.58 0.242-3.19-0.0294-3.48-0.0369-0.0392-0.344 0.0594-0.681 0.219-0.338 0.16-0.68 0.29-0.76 0.29h-0.146l0.0641-1.19c0.0926-1.72 0.878-9.87 0.986-10.2 0.0288-0.0946 0.196-0.232 0.373-0.306l0.32-0.134 0.205-0.765c1.78-6.63 1.76-6.33 0.342-5.79-0.581 0.222-1.45 0.553-1.93 0.736s-1.93 0.734-3.21 1.23c-3.57 1.36-6.67 2.53-6.74 2.53-0.0914 0 0.0244-1.15 0.558-5.55 0.527-4.34 0.767-6.37 1.07-9.06 0.107-0.937 0.22-1.87 0.252-2.07 0.0828-0.519-0.0759-0.476-0.94 0.254-0.402 0.339-2.86 2.38-5.45 4.54-2.6 2.16-5.51 4.58-6.47 5.4-4.3 3.63-4.85 4.07-4.96 4.03-0.0672-0.0258-2.24-2.87-4.82-6.31-2.59-3.45-4.75-6.27-4.81-6.27-0.117 0-0.216 0.424-0.647 2.78-0.288 1.57-0.897 4.8-2.26 12-0.37 1.95-0.673 3.62-0.673 3.71 0 0.0852-0.0569 0.233-0.127 0.328l-0.127 0.173-1.55-0.552c-0.854-0.303-3.44-1.22-5.74-2.04-9.35-3.32-14-4.94-14-4.89-0.0447 0.0447 4.03 8.12 5.97 11.8 1.02 1.94 1.37 2.04-4-1.09-2.08-1.21-3.81-2.18-3.84-2.16-0.0634 0.0634-0.0088 0.232 0.704 2.18 0.3 0.82 0.521 1.53 0.489 1.58-0.104 0.168 0.338 0.256-6.76-1.33-1.85-0.413-3.46-0.77-3.58-0.795-0.405-0.0834 1.51 1.98 3.69 3.95l0.351 0.32 0.964-0.241c8.12-2.03 13-0.562 15.6 4.69 0.348 0.712 0.67 1.27 0.715 1.24 0.045-0.0278 0.457-0.61 0.915-1.29 8.72-13 22.9-12.8 26.9 0.454 0.368 1.21 0.46 1.28 0.685 0.473 0.094-0.337 0.588-1.99 1.1-3.68 1.24-4.11 1.92-6.39 2.23-7.45 0.355-1.23-0.311-0.902 5.2-2.53 9.79-2.89 9.41-2.79 9.53-2.65 0.0921 0.119 0.368 1.74 0.473 2.79l0.0635 0.629 0.518 0.495 0.657 2.97c0.622 2.81 0.989 4.48 1.42 6.48 0.479 2.2 1.47 6.41 1.53 6.5 0.131 0.212 0.214-0.313 0.462-2.9zm23.6-20.4c0.286-0.618 0.409-1.03 0.308-1.03-0.167 0-2.52 1.15-2.5 1.22 0.0301 0.107 1.27 0.504 1.63 0.524l0.225 0.012zm-95.3 72.2c-1.48-0.581-1.47-0.574-1.38-0.724 0.18-0.291 9.87-7.41 10.1-7.41 0.193 0 0.0219 0.225-1.79 2.35-3.32 3.89-5.43 6.32-5.51 6.32-0.0338-2e-3 -0.67-0.242-1.41-0.533zm94.1-8.69c-0.206-0.223-4.62-5.68-6.52-8.06-0.672-0.842-0.947-1.26-0.797-1.21 0.296 0.102 9.91 8.34 9.91 8.49 0 0.419-2.29 1.11-2.6 0.777zm-69.8-65.7c-0.739-0.686-1.53-1.42-1.76-1.64l-0.414-0.39-0.581-1.41c-2.29-5.57-2.31-5.45 0.232-1.7 1.8 2.65 4.01 6.24 3.92 6.34-0.0285 0.0285-0.656-0.51-1.39-1.2zm-4.54-0.545c-1.23-1.14-10.6-10.8-10.6-10.9 0.0827-0.134 2.55-1.86 2.66-1.86 0.164 0 8.48 13 8.38 13.1-0.0223 0.0223-0.241-0.145-0.487-0.371zm52.1-3.77c0.0388-0.134 0.586-1.4 1.22-2.82 0.63-1.42 1.75-3.94 2.48-5.6 0.737-1.66 1.39-3.08 1.46-3.15l0.119-0.129 1.44 0.442c0.791 0.243 1.46 0.465 1.49 0.494 0.106 0.106-0.202 0.549-2.18 3.12-1.11 1.45-2.85 3.72-3.87 5.06-1.02 1.34-1.93 2.52-2.04 2.63l-0.193 0.195z" fill="#fb7200"/><path d="m74.5 191c0-0.076 0.83-1.93 3.4-7.59 2.68-5.9 2.58-5.63 1.81-5.18-6.38 3.68-6.95 3.99-6.42 3.35 0.408-0.483 1.73-1.96 3.16-3.53 0.83-0.913 2.17-2.4 2.97-3.29l1.46-1.63 0.993-2.21c1.15-2.56 1.22-2.72 1.1-2.79-0.0661-0.0409-7.28 5.42-8.51 6.44-0.433 0.361-0.452 0.344-2.07-1.89-2.89-3.98-4.84-6.55-4.99-6.55h-0.143l0.0676 1.78c0.225 5.91 0.228 6.06 0.12 6.2-0.0597 0.0738-1.03 0.58-2.16 1.13-2.06 0.999-7.92 4-9.71 4.98-0.914 0.499-1.25 0.62-1.25 0.454-1e-3 -0.0402-0.0654-0.511-0.143-1.05-0.0776-0.536-0.142-1.01-0.144-1.05-0.0056-0.132-0.278-0.0766-0.622 0.126-0.488 0.288-0.444 1.06-0.698-12.6-0.129-6.92-0.246-13.3-0.262-14.1-0.0348-1.83 0.0212-1.78-1.18-1.06-0.258 0.156-0.331-0.0346-0.408-1.06-0.0369-0.492-0.107-0.957-0.155-1.03l-0.0884-0.139-0.593 0.325c-0.326 0.179-0.623 0.296-0.659 0.26-0.0695-0.0694-0.287-8.82-0.3-12.1l-0.0082-1.97 1.25-0.627c4.59-2.3 8.13-3.84 12.5-5.41 0.839-0.305 1.05-0.036-3.43-4.44-4.07-4-4.26-4.21-3.77-4.1 0.147 0.0315 1.93 0.434 3.97 0.894 8.15 1.84 8.91 1.99 8.91 1.76 0-0.0745-3.69-3.8-8.19-8.28-4.51-4.48-8.17-8.17-8.13-8.2 0.121-0.121 9.38 5.57 16.7 10.2 4.93 3.16 4.72 3.04 4.72 2.77 0-0.113-1.84-3.72-3.62-7.11-1.13-2.16-1.28-2.49-1.03-2.4 0.067 0.0254 1.79 0.626 3.82 1.34 6.86 2.39 12 4.2 18.8 6.63l1.04 0.372 0.109-0.131c0.0597-0.072 0.176-0.519 0.258-0.994 0.0823-0.475 0.694-3.84 1.36-7.48 0.665-3.64 1.39-7.61 1.61-8.81 0.63-3.47 0.721-3.91 0.821-3.93 0.108-0.0213 2 2.43 7.33 9.52 4.3 5.72 3.75 5.26 5.02 4.19 3.26-2.76 6.71-5.64 10-8.34 2.06-1.69 4.9-4.03 6.31-5.18 1.41-1.16 2.59-2.1 2.62-2.1 0.0949 0-9e-3 0.927-0.695 6.23-1.16 8.98-1.58 12.6-1.47 12.7 0.0609 0.049 1.39-0.429 3.27-1.18 2.84-1.13 7.04-2.77 9.38-3.66 1.21-0.46 1.2-0.863 0.0617 3.49-0.573 2.18-0.667 2.68-0.486 2.57 0.181-0.112 6.27-7.72 9.74-12.2 0.969-1.24 0.972-1.23 0.976 2.27 8.2e-4 0.943 0.0435 1.78 0.0949 1.86l0.0934 0.146 0.247-0.146c0.136-0.0803 2.1-1.48 4.36-3.12 8.95-6.47 9.59-6.9 8.34-5.57-5.02 5.31-8.1 8.53-12 12.5-2.13 2.17-3.08 3.07-3.13 2.98-0.0427-0.0691-0.108-0.68-0.144-1.36-0.108-1.99 0.161-2.03-2.84 0.399-4.67 3.78-5.38 4.4-4.84 4.23 0.0937-0.03 1.64-0.553 3.43-1.16 4.22-1.43 6.69-2.12 8.59-2.4 0.619-0.0898 1.69-0.557 6.7-2.93 5.27-2.5 4.77-2.37 4.25-1.09-0.189 0.467-0.763 1.84-1.27 3.04-1.1 2.58-1.07 2.4-0.4 2.92 0.693 0.535 1.4 1.4 1.8 2.22 0.827 1.67 0.795 1.73 1.28-2.37 0.223-1.87 0.454-3.46 0.512-3.52 0.106-0.115 14.7 2.24 14.9 2.4 0.0399 0.0362-0.107 0.602-0.326 1.26-0.464 1.39-0.46 1.42 0.222 1.58 0.285 0.067 0.593 0.16 0.683 0.207l0.164 0.0848-0.374 1.05c-0.46 1.29-2.41 6.63-4.82 13.2-1 2.73-1.97 5.38-2.15 5.89-0.419 1.15-0.486 1.03 0.999 1.71 1.58 0.72 4.85 2.22 5.68 2.61l0.633 0.297-0.487 0.0715c-0.268 0.0393-2.29 0.0753-4.5 0.08l-4.01 9e-3 -0.208 0.39h-0.63c-0.346 0-0.63 0.02-0.63 0.0445 0 0.0691 0.712 1.49 1.1 2.2 2.92 5.31-3.44 11.7-8.96 8.95l-0.797-0.39-1.52-1.64-1.02 0.521c-1.26 0.646-1.26 0.444-0.0227 2.05 0.578 0.75 1.86 2.42 2.85 3.7 1.93 2.5 8.35 11.2 8.43 11.4 0.0775 0.202 0.0395 0.191-2.6-0.752-7.75-2.76-22.4-7.31-22.7-7.04-0.0594 0.0594 0.194 0.745 0.697 1.89 0.435 0.987 1.09 2.48 1.45 3.31 0.365 0.835 1.22 2.62 1.89 3.98 0.677 1.35 1.22 2.51 1.2 2.56-0.0186 0.0557-1-0.397-2.19-1.01-1.19-0.608-2.19-1.08-2.22-1.04-0.0872 0.0872 0.0876 0.373 5.31 8.67 0.767 1.22 1.37 2.24 1.35 2.27-0.0711 0.0711-4.77-4.94-11.9-12.7-1.12-1.22-1.52-1.59-1.85-1.72-0.23-0.0891-0.891-0.369-1.47-0.622-1.38-0.604-1.29-1.01-0.897 4.29 0.364 4.86 0.386 5.32 0.261 5.32-0.0857 0-0.509-0.353-3.57-2.97-4.33-3.71-7.97-6.76-8.05-6.76-0.154 0-2.48 9.05-4.34 16.9-0.254 1.07-0.24 1.08-1.48-1.29-3.1-5.9-6.43-12-6.56-12-0.0457 0-0.289 0.189-0.541 0.421-0.252 0.231-1.58 1.44-2.94 2.7-1.37 1.25-4.56 4.21-7.1 6.57-2.54 2.36-4.89 4.54-5.22 4.85s-0.656 0.56-0.718 0.56c-0.0776 0-0.0943-0.171-0.055-0.56 0.282-2.79 1.1-13.4 1.04-13.5-0.0748-0.0748-1.84 1.04-6.47 4.07-1.06 0.694-2.66 1.74-3.55 2.32-2.05 1.33-2.06 1.34-8.54 9.27-2.49 3.05-2.68 3.26-2.68 3.02zm3.94-6.02c1.15-1.51 1.38-1.81 2.28-2.94 0.512-0.643 1.21-1.65 1.55-2.24 0.865-1.49 1.56-2.68 2.12-3.65 0.535-0.916 1.1-1.91 1.88-3.31 0.284-0.509 0.643-1.14 0.798-1.4 0.477-0.803 0.674-0.884-3.72 1.53l-2.39 1.31-1.68 1.79c-2.98 3.18-3.13 3.4-1.53 2.37 0.268-0.172 1.01-0.641 1.66-1.04 0.643-0.401 1.52-0.955 1.96-1.23 1.28-0.817 1.28-0.872 0.0277 1.71-0.542 1.12-1.39 2.9-1.89 3.98-0.495 1.07-1.1 2.37-1.35 2.88-0.646 1.34-0.59 1.39 0.279 0.251zm19.7-4.33c0.567-0.521 2.36-2.18 3.99-3.68 6.8-6.28 9.49-8.71 9.62-8.69 0.136 0.0266 0.871 1.33 4.51 8.01 1.81 3.33 2.06 3.74 2.17 3.64 0.0284-0.0284 0.146-0.442 0.261-0.919 0.115-0.477 0.788-3.17 1.5-5.98s1.48-5.89 1.71-6.85c0.231-0.954 0.469-1.8 0.529-1.88l0.109-0.149 1.26 1.06c6.04 5.08 6.36 5.35 8.01 6.78 1.49 1.3 1.43 1.36 1.24-1.21-0.418-5.74-0.428-6.03-0.205-6.03 0.0779 0 0.633 0.175 1.23 0.39 0.601 0.214 1.11 0.39 1.12 0.39 0.143 0-0.0633-0.363-0.58-1.02-1.33-1.69-2.61-3.5-2.5-3.54 0.0612-0.0204 0.338 0.115 0.615 0.301 2.01 1.35 8.16 5.24 8.23 5.2 0.0448-0.0277 0.0617-0.666 0.0377-1.42l-0.0437-1.37h0.144c0.0792 0 0.413 0.285 0.743 0.633 0.85 0.899 0.945 0.875 0.517-0.13-0.152-0.357-0.413-0.978-0.579-1.38-0.166-0.402-0.55-1.31-0.852-2.03-0.676-1.6-0.788-1.52 1.45-0.95 5.49 1.4 12 3.33 17.8 5.3 3.83 1.29 3.83 1.29 3.09 0.344-0.285-0.37-1.28-1.68-2.21-2.91-3.79-5.02-6.29-8.25-6.39-8.3-0.0618-0.0237-1.09 0.445-2.28 1.04-1.22 0.612-2.2 1.05-2.25 1-0.0464-0.0464-0.259-0.445-0.472-0.885-0.246-0.509-0.463-0.829-0.596-0.878-0.144-0.0532-0.486-0.618-1.1-1.82-2.11-4.12-2.07-4.08-2.2-2.51-0.219 2.66-0.413 4.57-0.47 4.63-0.0354 0.0357-0.656 0.313-1.38 0.617-3.03 1.27-8.47 3.59-9.04 3.85-0.904 0.414-0.873 0.441-0.87-0.747 3e-3 -1.1-0.0661-1.3-0.393-1.12-0.282 0.151-0.504 0.132-0.504-0.0427 0-0.29-0.283-0.249-1.28 0.183-5.17 2.24-5.98 2.53-6.06 2.13-0.029-0.147-0.104-0.541-0.166-0.875-0.0624-0.334-0.166-0.679-0.23-0.767l-0.117-0.16-0.205 0.11c-0.267 0.143-0.292 0.0964-0.51-0.942-0.95-4.53-0.547-4.08-2.87-3.18-2.31 0.897-1.99 0.324-3.17 5.61-0.147 0.656-0.26 0.961-0.375 1.01-0.0903 0.036-1.26 0.453-2.6 0.926-1.34 0.473-4.55 1.63-7.14 2.57-5.3 1.93-4.93 1.82-4.84 1.39 0.326-1.47 0.243-2.06-0.268-1.9-0.501 0.154-0.516 0.101-0.219-0.792 0.36-1.08 0.299-1.11-0.588-0.306-5.14 4.68-11.1 6.4-15.5 4.44-0.444-0.198-0.889-0.366-0.988-0.374l-0.18-0.0141-1.06 2.48c-1.31 3.05-1.29 2.94-0.331 2.41 4.81-2.63 5.49-2.96 5.36-2.62-0.0684 0.182-3 5.5-3.73 6.77-0.24 0.418-0.407 0.789-0.37 0.826 0.0854 0.0854 0.0407 0.113 3.61-2.2 1.66-1.08 3.46-2.24 3.99-2.58 0.536-0.346 1.76-1.14 2.72-1.76 1.81-1.17 2-1.26 2-0.939 0 0.215-0.388 5.02-0.68 8.43-0.275 3.2-0.336 4.33-0.235 4.33 0.0481-1e-3 0.552-0.428 1.12-0.949zm48.8-3.36c-0.0896-0.174-0.38-0.639-0.645-1.03-1.12-1.67-3.77-5.97-3.77-6.12-2.6e-4 -0.179-0.0165-0.186 1.77 0.657 0.909 0.428 1.69 0.779 1.74 0.779 0.115 0 0.116-0.128 3e-3 -0.248-0.048-0.0509-0.306-0.487-0.573-0.969-1.54-2.78-1.63-2.91-2.57-3.87-1.09-1.11-1.2-1.16-1.12-0.438 0.0328 0.281 0.0889 0.828 0.125 1.22l0.0649 0.704-0.149 0.0571c-0.094 0.0361-1.36-0.756-3.43-2.15-4.09-2.75-4.03-2.77-1.27 0.489 0.803 0.948 1.69 2.02 1.97 2.37 0.542 0.69 1.34 1.61 2.96 3.43 5.16 5.78 5.29 5.91 4.89 5.13zm-88.6-3.21c2-1.03 4.27-2.17 5.04-2.54l1.4-0.678-0.0638-1.96c-0.0351-1.08-0.13-3.9-0.21-6.28-0.0804-2.38-0.126-4.34-0.101-4.37 0.124-0.124 1.42 1.62 6.12 8.26 1.43 2.01 2.65 3.71 2.73 3.77 0.108 0.0899 0.457-0.135 1.73-1.12 0.879-0.678 3.03-2.31 4.79-3.62 1.76-1.31 3.18-2.42 3.16-2.46-0.0362-0.101-3.8-4.17-7.13-7.72-3.24-3.45-3.03-2.91-1.7-4.37 10.4-11.4 9.35-22.6-2.15-22.3-4.67 0.146-13.1 3.05-20.5 7.06l-0.828 0.448 0.0637 2.52c0.035 1.38 0.0926 3.66 0.128 5.06 0.0768 3.03-0.0844 2.86 1.69 1.8 1.65-0.99 1.56-0.973 1.56-0.273 0.0011 0.308 0.0428 3.63 0.0928 7.38 0.317 23.8 0.305 23.2 0.482 23.2 0.0429 0 1.72-0.84 3.72-1.87zm5.12-24.4c-0.0274-0.147-0.0637-2.33-0.0808-4.84l-0.031-4.58 1.09-0.545c7.35-3.68 8.8 1.33 2.21 7.61-2.26 2.15-3.11 2.78-3.19 2.36zm3.46-4.87c0.525-0.57 1.18-1.4 1.49-1.89l0.17-0.267-0.173-0.0663c-0.196-0.075-1.29 0.273-1.86 0.59l-0.375 0.21-0.0316 0.484c-0.0972 1.49 0.0754 1.7 0.776 0.941zm25.2 19.2c14.3-2.88 23.2-29.5 12.5-37.5-6.33-4.77-15.8-0.392-21 9.68-7.47 14.6-2.75 30.1 8.46 27.9zm-0.0862-11.5c-3.84-0.627-4.02-7.68-0.342-13.2 4.09-6.13 9.49-4.46 8.62 2.66-0.759 6.18-4.65 11.1-8.27 10.5zm1.93-1.9c3.69-1.84 6.74-11.8 3.42-11.2-2.62 0.491-5.55 5.34-5.59 9.25-0.0202 2.09 0.654 2.69 2.17 1.93zm12.2 10.2c0.905-0.326 3.4-1.21 5.54-1.96 4.66-1.64 3.94-0.947 4.87-4.63l0.779-3.09 0.876-0.329c1.21-0.454 4.91-1.82 5.77-2.13 0.837-0.301 0.854-0.291 0.984 0.61 0.0542 0.375 0.298 1.95 0.543 3.51 0.244 1.55 0.444 2.86 0.444 2.9 0 0.199 0.606-0.0181 2.9-1.04 5.61-2.49 6.5-2.9 6.59-2.98 0.13-0.129 0.0902-0.302-2.14-9.29-2.2-8.89-2.5-10.1-3.06-12.5-0.607-2.57-2.25-10-2.25-10.2 0-0.387-0.219-0.378-1.76 0.0704-3.75 1.09-8.49 2.5-9.17 2.73l-0.754 0.247-0.429 1.38c-0.236 0.759-0.651 2.13-0.922 3.04-0.271 0.911-0.797 2.66-1.17 3.9-0.373 1.23-0.969 3.2-1.32 4.38-0.356 1.18-0.889 2.91-1.18 3.85-0.296 0.937-0.793 2.51-1.1 3.51s-1.07 3.4-1.69 5.36c-0.618 1.95-1.7 5.37-2.4 7.6s-1.38 4.37-1.51 4.76c-0.205 0.612-0.239 0.887-0.109 0.887 0.0157 0 0.769-0.266 1.67-0.592zm12.8-18.2c0-0.211 0.54-2.53 2.14-9.17 0.657-2.73 0.703-2.9 0.798-2.8 0.0448 0.0448 0.345 1.55 0.668 3.34 0.934 5.19 1.18 6.71 1.15 6.99l-0.0302 0.26-2.19 0.754c-1.21 0.414-2.27 0.779-2.36 0.811-0.131 0.0443-0.17 3e-3 -0.17-0.18zm-39.9 13.6c0-0.104-0.0675-0.509-0.15-0.901-0.0825-0.392-0.21-1.23-0.284-1.86-0.169-1.45-0.11-1.42-1.02-0.448-0.971 1.03-0.981 0.95 0.265 2.28 1.09 1.16 1.19 1.25 1.19 0.933zm59.4-2.38c4.4-1.84 4.33-1.81 4.38-2.05 0.023-0.111 0.245-2.48 0.493-5.27 0.443-4.97 0.494-5.35 0.701-5.09 0.185 0.227 2.45 4.44 4.56 8.48 0.727 1.39 1.32 2.41 1.39 2.41 0.0749 5.4e-4 1.19-0.628 2.48-1.4 1.29-0.769 3.03-1.79 3.86-2.26 0.83-0.473 1.81-1.03 2.17-1.24 0.876-0.501 1-0.264-3.54-6.47-0.398-0.543-1.17-1.6-1.72-2.35-0.547-0.747-1.02-1.42-1.05-1.51-0.0395-0.103 0.26-0.397 0.995-0.976 3.88-3.06 6.66-6.96 7.69-10.8l0.27-1-6e-3 -3.41-0.265-0.794c-0.682-2.04-2.43-3.58-4.8-4.24l-0.774-0.214-2-3e-3c-3.82-6e-3 -7.68 1.06-15.4 4.23-2.64 1.08-2.48 0.958-2.56 2.03-0.036 0.467-0.174 2.16-0.307 3.76-0.285 3.43-0.335 3.26 0.799 2.7 1.06-0.524 1.02-0.586 0.807 1.49-0.181 1.73-1.06 10.9-1.26 13.3l-0.107 1.22 0.347 1.44c0.191 0.791 0.632 2.53 0.981 3.88s0.633 2.56 0.633 2.71v0.275l-1.26 0.514c-0.748 0.304-1.28 0.578-1.31 0.67-0.1 0.348-0.169 1.27-0.104 1.37 0.106 0.172 0.222 0.13 3.89-1.4zm5.79-20.1c0-0.396 0.786-8.4 0.832-8.48 0.0263-0.0425 0.496-0.25 1.04-0.462 4.7-1.82 6.94 0.424 4.17 4.16-1.36 1.83-6.04 5.54-6.04 4.78zm4.24-4.94c0.754-0.914 0.734-1.01-0.154-0.746-0.7 0.207-0.74 0.248-0.817 0.868-0.118 0.943 0.117 0.914 0.971-0.122zm15.9 22.7c4.02-1.32 5.15-6.66 1.76-8.34l-0.746-0.369-2.35 0.01-0.518 0.216c-1.05 0.436-2.28 1.42-2.65 2.12l-0.125 0.233 0.703 1.02c0.821 1.2 0.853 1.05-0.379 1.75l-0.975 0.552 2e-3 0.262c0.0156 1.92 2.91 3.31 5.27 2.54zm-4.69-8.52c0.185-0.192 0.589-0.506 0.9-0.698 0.698-0.433 0.711-0.645 0.0438-0.687l-0.462-0.0297v-0.239c0-0.131 0.175-1.65 0.39-3.37 0.539-4.33 0.547-4.25-0.34-2.95-1 1.47-2.62 3.02-3.92 3.74-0.624 0.346-0.636 0.325 1.71 3.29 1.12 1.41 1.19 1.45 1.68 0.942zm13.7-1.4c0.23-0.146-1.86-1.17-2.16-1.05-0.165 0.0633-0.406 0.787-0.329 0.988l0.0588 0.153 1.15-1e-3c0.631-8.2e-4 1.21-0.0399 1.28-0.0867zm-5.65-1.46c0.0717-0.0454 0.471-1.02 0.887-2.17 0.416-1.15 1.92-5.28 3.34-9.19 3.67-10.1 4.46-12.3 4.43-12.6l-0.0283-0.197-2.19-0.364c-5.55-0.923-8.9-1.44-9.01-1.4-0.13 0.0499-0.182 0.386-0.624 4.05-0.65 5.39-1.49 12.3-2.25 18.4-0.464 3.75-0.788 3.29 2.39 3.4 1.45 0.0472 2.69 0.092 2.77 0.0995 0.0803 8e-3 0.205-0.0235 0.276-0.0689zm-33.1-5.54c0.366-3.75 0.331-3.91-0.767-3.43-0.994 0.434-0.987 0.755-0.161-7.38 0.384-3.78 0.419-3.95 0.83-4.05 0.126-0.0316 0.255-0.126 0.287-0.209 0.212-0.552 1.73-6.69 1.68-6.81l-0.057-0.148-0.66 0.251c-0.363 0.138-1.62 0.616-2.8 1.06-1.18 0.446-3.76 1.43-5.74 2.18-4.16 1.59-3.88 1.52-3.81 0.91 0.14-1.1 1.07-8.89 1.37-11.5 0.183-1.58 0.378-3.22 0.434-3.65 0.234-1.79 0.452-1.86-2.69 0.759-6.61 5.49-11.4 9.52-13.1 10.9-0.991 0.838-1.87 1.52-1.95 1.52-0.0803-2e-3 -2.1-2.61-4.48-5.8-5.26-7.04-5.16-6.9-5.27-6.78-0.0516 0.0516-0.198 0.659-0.326 1.35-0.855 4.62-1.41 7.56-2.18 11.6-0.482 2.52-0.928 4.88-0.992 5.24-0.164 0.943 0.311 1.02-4.77-0.793-1.04-0.373-3.65-1.3-5.79-2.06-2.14-0.758-4.38-1.55-4.97-1.76-5.46-1.95-6.09-2.15-6.09-1.95 0 0.115 1.27 2.64 4.93 9.77 0.929 1.81 1.69 3.31 1.69 3.34 0 0.189-0.818-0.242-3.8-2-3.1-1.83-4.51-2.63-4.65-2.63-0.177 0-0.21-0.119 0.553 1.99 0.601 1.66 0.648 1.92 0.325 1.85-0.097-0.0211-1.01-0.217-2.03-0.436-1.95-0.418-6.59-1.45-7.62-1.69-0.443-0.104-0.627-0.113-0.676-0.0333-0.0836 0.135 4.13 4.26 4.35 4.26 0.0858 0 0.803-0.151 1.59-0.336 2.4-0.56 3.32-0.676 5.37-0.678l1.85-2e-3 1.02 0.222c3.18 0.692 5.2 2.3 6.64 5.29 0.736 1.52 0.642 1.52 1.66-3e-3 3.26-4.89 7.35-8.05 12.1-9.3l1.12-0.298 3.9-4e-3 0.925 0.253c4.12 1.13 7.2 4.5 8.85 9.71 0.457 1.44 0.482 1.43 0.973-0.209 0.228-0.765 0.518-1.72 0.645-2.12s0.652-2.15 1.17-3.9c0.516-1.74 1.1-3.67 1.3-4.28l0.357-1.12 0.243-0.114c0.249-0.117 2.2-0.698 11.3-3.39 2.18-0.64 2.68-0.77 2.74-0.711 0.0557 0.0556 0.113 0.41 0.39 2.39l0.167 1.2 0.204 0.106c0.112 0.0582 0.213 0.112 0.223 0.12 0.0108 8e-3 0.46 2.01 0.999 4.44 0.539 2.44 1.07 4.8 1.17 5.26s0.461 2.01 0.79 3.46c0.329 1.45 0.64 2.74 0.69 2.87l0.0922 0.243 0.0799-0.146c0.0439-0.0803 0.196-1.34 0.339-2.81zm-57.9-9.78c-0.0493-0.067-0.581-0.737-1.18-1.49l-1.09-1.37-2.14-1.36c-1.18-0.747-2.45-1.56-2.81-1.8-0.369-0.241-1.1-0.715-1.63-1.05-0.526-0.338-2.15-1.39-3.61-2.34s-2.9-1.88-3.21-2.08-1.11-0.703-1.78-1.13c-0.67-0.424-1.44-0.897-1.7-1.05l-0.487-0.281 0.35 0.385c0.192 0.212 2.89 2.91 5.99 5.98 3.1 3.08 5.68 5.65 5.74 5.71 1.14 1.21 1.24 1.11 0.594-0.599-0.512-1.36-0.611-1.7-0.49-1.7 0.14 0 1.24 0.623 3.38 1.92 3.63 2.19 4.34 2.58 4.1 2.25zm61.9-8.1c0.574-0.506 1.67-1.44 2.43-2.08 3.3-2.77 4.81-4.04 5.21-4.4 0.649-0.572 0.654-0.566 0.796 1.03 0.0693 0.778 0.156 1.43 0.193 1.46 0.0523 0.0323 4.4-4.28 9.54-9.46 0.744-0.75 0.363-0.577-1.22 0.557-2.15 1.53-6.42 4.62-6.94 5.02-0.628 0.479-0.632 0.472-0.7-1.48-0.0335-0.96-0.0663-1.89-0.073-2.06-0.0241-0.627 0.0733-0.728-2.99 3.09-2.26 2.82-3.13 3.89-3.74 4.62-0.187 0.225-0.67 0.817-1.07 1.32-0.402 0.499-1.09 1.33-1.52 1.85-1.47 1.75-1.44 1.89 0.0883 0.543zm19.6-2.73c0.415-0.899 0.446-1.02 0.262-1.02-0.238-1e-3 -2.61 1.1-2.61 1.22 0 0.0971 1.45 0.59 1.83 0.623 0.0706 6e-3 0.3-0.361 0.511-0.819zm-95.5 72.1c-0.683-0.269-1.24-0.543-1.24-0.61 0-0.201 9.67-7.36 9.94-7.36 0.23 0-0.178 0.497-4.63 5.64-1.12 1.3-2.13 2.47-2.22 2.6-0.245 0.321-0.419 0.296-1.84-0.264zm92.8-10.3c-0.87-1.08-2.24-2.78-3.05-3.77-2.16-2.65-2.96-3.7-2.83-3.7 0.178 0 9.79 8.25 9.79 8.41 0 0.103-2.04 1.04-2.27 1.04-0.0369 0-0.779-0.887-1.65-1.97zm-68.8-64.4c-1.87-1.75-1.69-1.48-2.94-4.51-0.947-2.3-1.11-2.74-1.06-2.8 0.165-0.165 5.78 8.48 5.69 8.76-0.0177 0.053-0.776-0.599-1.68-1.45zm-9.23-5.35c-3.17-3.21-5.42-5.56-5.4-5.64 0.0511-0.235 2.53-1.91 2.66-1.8 0.278 0.231 8.3 12.8 8.22 12.9-0.0217 0.0217-2.48-2.43-5.47-5.46zm57.2 1.25c0.0324-0.119 0.424-1.04 0.87-2.05 2.61-5.9 4.16-9.33 4.22-9.4 0.1-0.1 3.04 0.806 3.04 0.937-2e-4 0.0578-0.991 1.4-2.2 2.98-1.21 1.58-2.92 3.82-3.79 4.97-0.876 1.15-1.73 2.25-1.89 2.43l-0.302 0.341z" fill="#0d0a05"/></svg>
