<svg width="210mm" height="297mm" version="1.1" viewBox="0 0 210 297" xmlns="http://www.w3.org/2000/svg"><path d="m94.8 167c-0.654-0.381-1.22-0.742-1.26-0.803-0.108-0.168 1.95-11.1 2.13-11.4l0.0992-0.134 0.0976 0.0962c0.0674 0.0664 0.119 0.802 0.165 2.38 0.0373 1.25 0.114 3.72 0.17 5.48 0.0562 1.76 0.104 3.6 0.106 4.1l0.0043 0.901-0.164 0.0198c-0.0901 0.0109-0.699-0.292-1.35-0.672zm32.1-5.36c-0.667-0.897-1.64-2.21-2.15-2.92-8.93-12.2-13-16.8-15-16.8-1.1 0-1.87 3.21-2.22 9.3l-0.122 2.13 0.0324 9.67h-0.306l-0.922-2.38c-3.89-10-6.79-15.1-8.61-15.1-0.138 0-0.541 0.145-0.896 0.323l-0.645 0.323-0.76 0.71c-1.94 1.82-3.87 4.73-6.15 9.3-0.999 2-1.51 3.12-2.82 6.1-0.22 0.505-0.403 0.819-0.477 0.819h-0.121l8.5e-4 -0.656c4.67e-4 -0.361 0.0718-1.63 0.159-2.83 0.42-5.79-0.0317-10.7-1.09-11.9-1.25-1.4-4.72 0.391-14.7 7.63-3.84 2.77-3.99 2.83-2.54 0.936 4.72-6.17 6.46-8.6 7.95-11.1 0.639-1.07 0.639-1.09-0.0056-0.767-1.34 0.675-5.24 2.4-5.39 2.37l-0.168-0.0243-0.15-0.533c-0.191-0.68-0.946-3.68-1.74-6.89-0.825-3.36-1.67-6.57-1.75-6.65-0.132-0.132-4.68-0.964-8.43-1.54-0.839-0.13-1.13-0.362-0.659-0.524 2.23-0.764 7.8-3.03 7.74-3.14-0.0189-0.0325-0.226-0.76-0.461-1.62-0.541-1.98-1.74-6.19-2.1-7.41l-0.28-0.932 0.0993-0.12c0.392-0.473 5.34-3.11 7.59-4.04 0.459-0.19 0.834-0.376 0.834-0.413 0-0.208-2.18-3.28-4.85-6.85-1.85-2.47-2.23-3.06-1.95-3.06 0.048 0 1.18 0.658 2.52 1.46 7.83 4.71 14.5 7.66 18 8.01 0.248 0.0246 0.533 0.0614 0.633 0.0817l0.183 0.0369 0.0435-0.185c0.0239-0.102 0.0793-0.607 0.123-1.12 0.0986-1.16 0.0233-1.1 1.56-1.27 1.61-0.177 1.56-0.159 1.56-0.497 0-0.975-0.62-4.59-1.43-8.36-0.156-0.721-0.453-2.12-0.66-3.11-0.368-1.76-0.53-2.53-1.31-6.23-0.208-0.992-0.542-2.56-0.741-3.48-0.199-0.924-0.386-1.84-0.415-2.03l-0.0536-0.348h0.162c0.113 0 0.275 0.181 0.533 0.594 0.204 0.327 0.823 1.31 1.38 2.19 0.553 0.879 1.41 2.26 1.91 3.07 6.58 10.8 9.67 15 10.7 14.7 1.05-0.403 1.85-8.21 2.15-21 0.0596-2.56 0.198-2.85 0.608-1.29 0.0966 0.369 0.266 1 0.376 1.41 0.11 0.406 0.554 2.06 0.985 3.69 2.43 9.14 4.5 14.6 6.04 15.9 0.478 0.409 0.656 0.38 1.22-0.203l0.475-0.489 0.648-1.33c1.27-2.62 2.43-6.05 4.63-13.7 0.764-2.65 0.811-2.82 1.57-5.74 1.23-4.7 1.17-4.51 1.31-4.51 0.208 0 0.162-0.773 0.492 8.36 0.377 10.5 0.853 14.3 1.98 16.1l0.275 0.435 0.346 0.157c2.13 0.968 7.21-1.65 22.1-11.4 1.26-0.824 2.42-1.57 2.57-1.66l0.272-0.163 0.0926 0.0926 0.0925 0.0926-0.197 0.267c-0.108 0.147-0.975 1.23-1.93 2.4-6.61 8.14-12.5 16-12.5 16.8 0 0.0684 0.215 0.12 2.21 0.534 2.91 0.603 3.96 0.856 4.11 0.987l0.148 0.134 0.268-0.201c0.387-0.29 3.36-2.13 5.88-3.63 1.19-0.713 3.33-1.99 4.74-2.84 1.41-0.849 2.64-1.54 2.72-1.54h0.161v3.26l-0.102 0.0849c-0.132 0.11-3.62 1.5-6.66 2.65-1.31 0.496-2.89 1.1-3.52 1.34s-1.52 0.574-1.97 0.741-0.912 0.338-1.02 0.381l-0.205 0.0772 0.143 0.0803c0.252 0.141 0.275 0.0516-1.18 4.52-0.143 0.438-0.244 0.812-0.224 0.829 0.0486 0.0434 2.58 0.912 7.94 2.73 2.45 0.831 4.51 1.55 4.56 1.6 0.16 0.133 0.0466 0.295-0.241 0.344-1.55 0.264-2.62 0.439-4.85 0.796-3.62 0.577-6.98 1.17-8.44 1.49l-1.23 0.271-0.102 0.202c-0.0561 0.111-0.323 0.922-0.593 1.8-0.27 0.879-0.662 2.15-0.87 2.83l-0.379 1.23 0.806 0.77c0.444 0.423 1.73 1.6 2.86 2.62 4.59 4.14 6.16 5.64 10.4 9.95 2.59 2.62 2.52 2.62-2.2-0.0841-4.03-2.3-5.37-3.05-6.5-3.66-0.406-0.216-0.774-0.421-0.819-0.454-0.125-0.093-4.47-2.25-4.78-2.37l-0.274-0.109-0.0657 0.106c-0.0361 0.0585-0.0897 0.258-0.119 0.443-0.0293 0.185-0.199 0.639-0.377 1.01l-0.324 0.671-1.1 1.09-0.661 0.317c-2.41 1.16-5.19 0.146-6.4-2.32l-0.362-0.74-0.175 0.396c-0.0965 0.218-0.249 0.751-0.338 1.18l-0.163 0.788 0.0826 3.61 0.204 1.15c0.385 2.16 0.968 4.44 1.83 7.17 0.25 0.789 0.491 1.56 0.535 1.71 0.0939 0.324 1.43 4.15 2.27 6.51 0.924 2.59 0.805 2.64-0.87 0.388zm10.5-8.2c-0.241-0.312-0.813-1.04-1.27-1.62-4.94-6.22-5.09-6.42-4.77-6.42 0.138 0 0.331 0.153 4.29 3.4 1.98 1.63 3.78 3.1 4 3.27 0.517 0.419 0.501 0.454-0.593 1.25-1.13 0.824-1.11 0.822-1.66 0.114zm-78.3-4.65c-1.38-0.598-1.39-0.524 0.0706-1.57 0.434-0.311 1.92-1.38 3.3-2.37 2.65-1.91 2.81-2.01 2.89-1.93 0.151 0.151 0.282-0.0112-3.63 4.5-1.4 1.61-1.54 1.76-1.68 1.75-0.0477-2e-3 -0.474-0.171-0.947-0.376zm-7.58-3.65c-0.0245-0.0638-0.0343-0.668-0.0218-1.34l0.0228-1.23 0.451-0.151c1.12-0.377 8.62-2.69 11.7-3.6 0.458-0.136 0.895-0.224 0.972-0.194l0.139 0.0535-0.112 0.137c-0.135 0.165-12.5 6.32-12.9 6.39-0.158 0.0317-0.247 0.01-0.277-0.0695zm6.06-26.7c-5.14-1.44-4.91-1.36-4.94-1.57-0.0312-0.239 1.4-1.93 1.64-1.93 0.143 0 3.75 2 7.21 3.99 0.745 0.43 0.917 0.692 0.444 0.678-0.0939-3e-3 -2.05-0.53-4.35-1.17zm20.5-11.6c-0.55-0.576-2.89-3.26-6.65-7.61-0.947-1.1-0.895-1.09-1.28-0.104l-0.298 0.775h-0.383l-0.858-1.43c-0.472-0.789-0.901-1.48-0.954-1.53-0.0589-0.0573-0.775-0.127-1.87-0.182-2.2-0.111-2.3-0.147-1.85-0.675 0.0998-0.117 0.633-0.736 1.19-1.38 0.552-0.639 1-1.21 1-1.27 0-0.0583-0.107-0.49-0.238-0.96-0.131-0.47-0.343-1.27-0.471-1.78l-0.233-0.925 0.115-0.071c0.135-0.0836 0.219-0.0554 2.17 0.727l1.47 0.588 0.785-0.48c0.432-0.264 1.16-0.713 1.62-0.997 0.492-0.303 0.889-0.497 0.963-0.469l0.125 0.048-0.0016 0.392c-8.96e-4 0.215-0.0555 0.89-0.121 1.5-0.0658 0.608-0.12 1.3-0.121 1.53l-0.0016 0.423 1.39 1.12c1.81 1.46 1.78 1.37 0.506 1.68-0.421 0.102-0.781 0.228-0.801 0.281-0.0202 0.0527 1.18 2.53 2.67 5.5 1.49 2.97 2.71 5.45 2.71 5.5 3.85e-4 0.237-0.252 0.15-0.589-0.203zm48.8-12c0-0.235 4.83-12.3 4.98-12.5 0.0925-0.0882 2.31-0.81 2.49-0.81 0.265 0 0.191 0.167-1.06 2.39-0.669 1.19-2.05 3.67-3.08 5.52-1.03 1.85-2.04 3.67-2.26 4.06-0.216 0.383-0.452 0.813-0.523 0.955-0.237 0.47-0.544 0.675-0.544 0.363z" fill="#c5e6ee"/><path d="m94.9 167c-0.608-0.354-1.14-0.692-1.17-0.751-0.083-0.133 1.8-10.3 1.98-10.8l0.0707-0.164 0.0481 0.369c0.0264 0.203 0.0691 1.24 0.0947 2.29s0.104 3.61 0.174 5.68c0.121 3.58 0.119 4-0.0278 3.98-0.0352-4e-3 -0.562-0.297-1.17-0.65zm33-4.23c-0.116-0.126-0.684-0.875-1.26-1.66-6.49-8.86-8.71-11.8-11.1-14.5-2.75-3.13-4.4-4.51-5.54-4.62l-0.4-0.0384-0.315 0.332c-1.29 1.35-1.93 6.89-1.88 16.2 0.016 2.76-4e-3 4.38-0.0531 4.37-0.0431-7e-3 -0.507-1.11-1.03-2.46-3.65-9.36-6.32-14.1-8.24-14.7l-0.338-0.101-0.465 0.146c-2.74 0.863-6.74 6.91-10.7 16.1-0.57 1.34-0.656 1.39-0.58 0.369 0.65-8.79 0.176-13.9-1.36-14.7l-0.258-0.133-0.66 0.0451c-2.02 0.138-5.46 2.15-13 7.58-3.33 2.41-3.63 2.61-3.63 2.5 0-0.0355 0.536-0.759 1.19-1.61 4.11-5.33 6.65-8.91 7.84-11.1 0.34-0.624 0.269-0.683-0.411-0.347-1.12 0.554-5.36 2.46-5.47 2.46-0.0652 0-0.153-0.149-0.205-0.348-0.0502-0.192-0.139-0.496-0.198-0.676-0.0586-0.18-0.318-1.19-0.577-2.25-1.68-6.87-2.65-10.7-2.78-10.8-0.141-0.15-4.23-0.909-8.55-1.59-0.807-0.127-0.786-0.146 0.778-0.736 2.21-0.832 3.99-1.54 5.24-2.07l1.17-0.494-9.72e-4 -0.173c-0.0011-0.193 0.0301-0.0745-0.898-3.41-0.598-2.15-1.41-4.97-1.75-6.09-0.166-0.542-0.206-0.498 1.24-1.34 2.56-1.49 3.99-2.22 6.08-3.11 0.579-0.246 1.04-0.488 1.05-0.557 0.0477-0.229-1.76-2.83-4.76-6.83-1.12-1.5-2.03-2.76-2.01-2.81 0.0145-0.0433 0.801 0.387 1.75 0.956 8.42 5.06 14.3 7.72 18.6 8.35 1.05 0.157 0.993 0.214 1.12-1.11 0.12-1.3 0.0104-1.19 1.35-1.34 0.608-0.0685 1.27-0.147 1.47-0.174l0.36-0.0492-0.0539-0.702c-0.139-1.81-0.623-4.41-2.22-11.9-0.478-2.25-0.945-4.47-1.04-4.92s-0.405-1.93-0.693-3.28c-0.289-1.35-0.525-2.55-0.525-2.66l-2.7e-5 -0.202 0.112 0.12c0.159 0.17 1.77 2.76 5.46 8.77 4.49 7.31 7.05 10.8 8.35 11.4l0.362 0.162 0.152-0.0813c1.02-0.546 1.83-7.24 2.11-17.3 0.127-4.65 0.17-5.56 0.258-5.47 0.0422 0.0422 0.538 1.81 1.1 3.92 3.35 12.6 5.68 18.3 7.31 17.9 1.59-0.39 4.52-8.47 8.21-22.6 0.459-1.76 0.849-3.21 0.867-3.23 0.115-0.119 0.157 0.515 0.287 4.4 0.584 17.3 1.16 20.5 3.77 20.5 2.51 8e-3 7.45-2.59 18.2-9.57 1.22-0.789 2.98-1.93 3.92-2.54 0.937-0.607 1.72-1.08 1.75-1.06 0.0237 0.0237-0.28 0.443-0.674 0.932-4.96 6.15-7.47 9.33-9.54 12.1-2.29 3.07-4.21 5.96-4.16 6.24l0.0283 0.147 1.64 0.346c0.901 0.19 2.28 0.481 3.07 0.647 1.51 0.316 1.67 0.38 1.61 0.617-0.0472 0.18 0.07 0.28 0.416 0.354 0.357 0.0764 0.366 0.0251-0.397 2.38-0.821 2.53-0.929 2.9-0.873 2.96 0.0435 0.0435 4.13 1.45 9.65 3.32 1.51 0.512 2.74 0.968 2.73 1.01-0.0175 0.0881-0.973 0.259-5.51 0.986-4.99 0.799-8.92 1.55-9.12 1.75-0.126 0.126-1.94 6.06-1.9 6.18 0.0469 0.122 2.06 2 4.5 4.19 4.23 3.81 11.3 10.7 11 10.8-0.0554 0.0191-1.97-1.03-4.26-2.34-6.7-3.82-11.6-6.4-11.8-6.18-0.03 0.0348-0.101 0.285-0.157 0.555-0.0564 0.27-0.232 0.764-0.39 1.1l-0.288 0.605-0.548 0.548c-2.36 2.36-6.24 1.45-7.55-1.78-0.123-0.303-0.256-0.55-0.297-0.55-0.113 0-0.434 0.724-0.629 1.42l-0.175 0.627-1e-3 2.01-1e-3 2.01 0.23 1.31c0.3 1.71 0.996 4.48 1.67 6.64 0.295 0.946 0.591 1.91 0.658 2.13 0.0671 0.225 0.729 2.13 1.47 4.24 1.38 3.91 1.45 4.17 1.08 3.77zm-40.6-4.84c0.0959-0.214 0.438-0.979 0.76-1.7 3.45-7.72 6.88-12 9.62-12l0.574-5e-3 1.14 0.534 0.704 0.713c1.61 1.64 3.2 4.57 5.32 9.84 0.389 0.966 0.751 1.77 0.806 1.79l0.0989 0.033 6.9e-4 -3.43c2e-3 -8.4 0.821-12.3 2.74-13l0.369-0.141 0.553 0.0416c1.14 0.0855 2.21 0.783 4.08 2.64 2.47 2.46 4.51 5.03 9.36 11.8 1.78 2.5 1.84 2.57 1.49 1.59-1.7-4.71-2.75-8.32-3.25-11.2l-0.228-1.29 0.012-3.77 0.218-0.819c0.267-1 0.596-1.69 1.13-2.35l0.403-0.503v-0.31c0-1.52 1.03-3.05 2.52-3.74 0.521-0.241 0.537-0.32 0.082-0.41l-0.348-0.0685-0.0512-0.71-0.153-0.04c-0.274-0.0716-0.266-0.145 0.899-8.51 0.954-6.84 1.23-8.85 1.47-10.7 0.128-0.983 0.253-1.81 0.278-1.83 0.0249-0.0249 0.555 0.0514 1.18 0.169 0.623 0.118 1.21 0.215 1.3 0.215h0.169l0.559-0.922c0.722-1.19 1.7-2.63 2.94-4.32 0.917-1.25 1.88-2.49 5.07-6.58 1.75-2.24 1.76-2.27 0.742-1.6-7.98 5.22-13.1 8-15.9 8.72l-0.791 0.201h-1.61l-0.472-0.176c-2.27-0.847-3.04-4.59-3.35-16.1-0.0261-0.992-0.0673-1.93-0.0916-2.09l-0.0442-0.284-0.0793 0.142c-0.0436 0.0779-0.351 1.13-0.683 2.33-3.41 12.4-5.01 16.2-7.03 17l-0.39 0.149-0.455-0.0469c-2.03-0.209-3.91-4.04-6.34-12.9-0.278-1.01-0.559-2.04-0.624-2.27-0.199-0.722-0.251-0.501-0.309 1.31-0.224 6.95-0.721 11.5-1.46 13.5l-0.25 0.651-0.388 0.388c-1.18 1.18-2.79 0.201-5.3-3.21-1.38-1.87-2.38-3.49-7.27-11.7-0.698-1.17-0.74-1.15-0.416 0.266 2.08 9.08 3.13 14.2 3.29 16.1 0.0316 0.379 0.0947 0.666 0.151 0.688 0.124 0.0477 4.63-0.456 5.31-0.593l0.225-0.0458 0.157 0.366c0.0863 0.201 0.2 0.38 0.252 0.398 0.0525 0.0175 0.26 0.695 0.46 1.5 1.11 4.47 2.45 10.1 2.94 12.3 0.043 0.194 0.202 0.258 0.202 0.0819 4.7e-5 -0.0563 0.0541-0.821 0.12-1.7 0.066-0.879 0.178-2.43 0.248-3.44 0.0705-1.01 0.218-3.02 0.327-4.47 0.11-1.44 0.245-3.35 0.302-4.24 0.0563-0.892 0.128-1.66 0.158-1.71l0.0559-0.0905 10.1 0.197 0.0617 0.0969c0.0339 0.0533 0.0622 0.183 0.0629 0.289 8e-4 0.123 0.0606 0.208 0.166 0.235 0.222 0.058 0.162-0.372 0.746 5.39 0.201 1.98 0.227 2.17 0.301 2.17 0.0318-1.9e-4 0.629-1.76 1.33-3.9s1.31-3.96 1.36-4.03l0.0897-0.124 1.26 0.184c7.84 1.14 8.49 1.26 8.39 1.54-0.0607 0.166 0.0453 0.348 0.202 0.348 0.291 0 0.311 0.17 0.152 1.31-1.18 8.49-1.28 9.15-2.68 18.1-1.55 9.94-1.76 11.2-1.85 11.3-0.0479 0.0183-1.01-0.146-2.15-0.364-2.68-0.515-6.16-1.14-6.37-1.14-0.0931-6.9e-4 -0.222-0.0347-0.287-0.0755l-0.117-0.0743 0.209-0.697-0.374-0.282 0.18-0.807c0.194-0.873 0.214-1.06 0.115-1.12-0.104-0.0641-3.79-0.401-3.84-0.351-0.0251 0.0251-0.0786 0.683-0.119 1.46-0.0403 0.78-0.0904 1.46-0.111 1.52l-0.0383 0.105-4.67-0.113-0.287 0.254-1.27 0.0941c-1.53 0.113-4.92 0.452-6.56 0.655-1.28 0.159-1.39 0.141-1.39-0.24 0-0.124-0.0513-0.371-0.114-0.549-0.0627-0.178-0.234-1.21-0.38-2.28-0.298-2.2-0.289-2.18-0.842-2.09-0.554 0.0875-0.545 0.0621-0.674 1.77-0.236 3.11-0.286 3.59-0.387 3.69-0.0611 0.0609-1.31 0.251-3.13 0.477-1.67 0.207-3.55 0.452-4.18 0.545-0.631 0.0931-1.28 0.174-1.43 0.181l-0.287 0.0114-0.0246-0.471-0.0246-0.471h-0.123c-0.0678 0-0.333 0.141-0.59 0.313-0.257 0.172-0.928 0.565-1.49 0.873s-1.1 0.606-1.2 0.663c-0.0943 0.057-0.447 0.614-0.783 1.24-1.03 1.91-2.53 4.13-5.01 7.43-0.537 0.714-0.957 1.32-0.934 1.34 0.0232 0.0232 0.681-0.416 1.46-0.975 5.7-4.09 8.24-5.54 10.3-5.9l0.544-0.094 0.459 0.103c1.55 0.347 2.29 1.95 2.52 5.45l0.0981 1.47-0.103 2.22c-0.0567 1.22-0.124 2.41-0.149 2.65-0.0576 0.539 0.0548 0.555 0.285 0.041zm54.9-16.4c0-0.0479-4.05-3.81-6.02-5.59-0.901-0.815-1.99-1.8-2.42-2.19-0.861-0.786-0.884-0.793-1.04-0.336-0.16 0.462-0.153 0.46-1.04 0.236-1.01-0.256-1-0.264-0.348 0.553 0.565 0.707 1.14 1.72 1.24 2.19l0.0579 0.273 0.75 0.349c2.09 0.972 4.57 2.25 7.15 3.69 1.44 0.802 1.67 0.917 1.67 0.827zm-65.8-7.55c0.563-0.314 1.01-0.717 1.01-0.912v-0.127l-0.369 0.0416c-0.203 0.0229-0.682 0.192-1.07 0.376l-0.696 0.334v0.274c0 0.541 0.173 0.543 1.12 0.0139zm-10.3-2.72c-0.0013-0.209-0.561-2.17-0.643-2.25-0.038-0.038-0.803 0.223-1.7 0.581-0.897 0.357-1.77 0.699-1.94 0.76-0.172 0.0606-0.349 0.154-0.393 0.207l-0.0802 0.0966 0.598 0.0985c0.329 0.0542 1.3 0.22 2.15 0.369 0.856 0.149 1.66 0.274 1.78 0.278l0.225 8e-3zm18-7.41c0.312-2.71 0.314-2.73 0.273-2.68-0.0204 0.0217-0.12 0.371-0.22 0.777-0.25 1.01-0.576 1.82-1.06 2.67-0.506 0.877-0.513 0.804 0.101 1.11l0.512 0.252 0.0891-0.106c0.049-0.0584 0.188-0.965 0.308-2.01zm52.9 0.0158c1.2-0.269 5.77-1.08 7.21-1.28 1.16-0.16 1.31-0.0803-2.67-1.43-4.33-1.47-4.42-1.5-4.52-1.4-0.116 0.116-1.38 4.2-1.33 4.29 0.0497 0.0804 0.304 0.0454 1.3-0.179zm-63.5-0.9c0.754-0.449 1.25-0.913 1.2-1.13l-0.0284-0.139-0.317 0.0105c-0.202 7e-3 -0.604 0.156-1.1 0.41l-0.786 0.399 0.0086 0.299c0.0198 0.685 0.105 0.698 1.02 0.151zm11.3-5.64c0.392-3.35 0.417-3.08-0.3-3.2-0.723-0.125-1.99-0.441-3-0.752-1.05-0.321-1.07-0.295-0.275 0.338 2.07 1.65 2.86 3.43 3.09 6.92 0.0247 0.377 0.164-0.574 0.485-3.31zm-12.1-4.68c1.47-0.449 3.3-0.65 4.58-0.502 0.986 0.113 1.01 0.0777 0.162-0.293-1.68-0.739-6.54-3.28-9.23-4.83-0.464-0.267-0.388-0.0547 0.318 0.888 0.903 1.21 2.03 2.77 2.73 3.79 0.604 0.883 0.777 1.11 0.853 1.11 0.0268-3.4e-4 0.288-0.074 0.581-0.164zm64.8 40.7c-0.637-0.796-5.05-6.36-5.5-6.94-0.668-0.855-0.473-0.75 1.3 0.703 5.17 4.24 6.51 5.35 6.55 5.41 0.0471 0.0763-1.67 1.38-1.82 1.38-0.0506 1.5e-4 -0.291-0.249-0.534-0.553zm-78.4-4.65c-1.07-0.47-1.08-0.428 0.428-1.52 5.39-3.89 5.43-3.92 5.43-3.79 0 0.146-4.83 5.67-4.96 5.67-0.0451-2e-3 -0.451-0.165-0.901-0.364zm-7.48-4.76 0.0227-1.22 2.7-0.843c5.09-1.59 9.49-2.9 9.62-2.86 0.132 0.0318-11.8 5.99-12.2 6.09l-0.206 0.0516zm8.95-24.8c-1.58-0.454-7.38-2.07-7.56-2.11-0.4-0.0857-0.353-0.191 0.549-1.23 0.728-0.837 0.51-0.865 2.62 0.335 0.975 0.556 2.61 1.49 3.64 2.07 2.27 1.28 2.36 1.4 0.758 0.938zm78.1-6.51c0-0.141 12.9-8.03 13.3-8.14 0.108-0.029 0.197 0.887 0.197 2.04v0.798l-0.143 0.164c-0.161 0.184-4 1.72-8.24 3.31-0.728 0.272-1.69 0.636-2.14 0.81-2.27 0.877-2.99 1.12-2.99 1.03zm-60.8-6.13c-0.347-0.363-1.85-2.08-5.31-6.07-1.12-1.29-2.09-2.35-2.15-2.35-0.0571 0-0.25 0.378-0.428 0.84-0.178 0.462-0.371 0.84-0.429 0.84-0.0578 0-0.498-0.654-0.977-1.45s-0.898-1.48-0.93-1.51c-0.032-0.032-0.876-0.106-1.87-0.165-0.999-0.0584-1.85-0.139-1.89-0.178-0.041-0.041 0.438-0.665 1.12-1.46 0.655-0.761 1.19-1.44 1.19-1.51 9.52e-4 -0.0676-0.2-0.86-0.448-1.76-0.247-0.901-0.45-1.68-0.45-1.74-0.0016-0.179 0.207-0.117 1.91 0.562l1.67 0.665 1.53-0.956c0.843-0.526 1.59-0.977 1.65-1l0.118-0.0452-0.0024 0.357c-0.0013 0.196-0.0556 0.892-0.12 1.55-0.0649 0.654-0.118 1.35-0.119 1.56l-6.44e-4 0.369 0.914 0.737c2.1 1.69 2.04 1.64 1.64 1.73-0.851 0.193-1.45 0.361-1.51 0.427-0.047 0.047 0.926 2.08 2.54 5.31 2.4 4.79 2.79 5.6 2.7 5.6-0.0162 0-0.179-0.157-0.362-0.348zm49.5-12.8c0.218-0.632 1.87-4.79 3.41-8.6 0.548-1.35 1.06-2.5 1.13-2.56 0.103-0.08 1.5-0.566 2.13-0.741 0.214-0.0596 0.0493 0.267-1.85 3.66-1.08 1.92-2.59 4.63-3.37 6.03-1.54 2.77-1.75 3.1-1.45 2.21z" fill="#e81b22"/><path d="m94.9 167c-0.625-0.354-1.17-0.679-1.21-0.72-0.0934-0.0934 1.78-10.3 1.97-10.7l0.0702-0.164 0.0495 0.697c0.0272 0.383 0.0707 1.56 0.0966 2.62 0.0259 1.06 0.101 3.47 0.168 5.36 0.0666 1.89 0.0923 3.46 0.0571 3.5-0.0352 0.0352-0.575-0.226-1.2-0.58zm33-4.2c-0.0936-0.104-0.643-0.835-1.22-1.62-2.74-3.74-3.32-4.52-5.07-6.87-6.32-8.45-9.82-12.2-11.6-12.4l-0.431-0.0445-0.268 0.225c-0.813 0.684-1.44 3.28-1.73 7.21-0.0474 0.631-0.11 1.37-0.139 1.64-0.0291 0.27-0.0749 3.05-0.102 6.19l-0.049 5.7-0.358-0.901c-0.197-0.496-0.67-1.69-1.05-2.66-3.13-7.93-5.76-12.7-7.5-13.6-2.45-1.22-7.02 4.88-11.6 15.5-0.61 1.41-0.825 1.8-0.822 1.47 6.33e-4 -0.0563 0.0544-0.803 0.119-1.66 0.633-8.33-5.17e-4 -13.3-1.77-13.7l-0.338-0.091-0.667 0.135c-2.25 0.455-5.28 2.29-13 7.84-1.67 1.21-3.07 2.2-3.1 2.2-0.124 0 0.0625-0.27 1.17-1.69 3.66-4.71 6.11-8.16 7.59-10.7 0.654-1.12 0.668-1.11-1-0.321-2.04 0.968-4.63 2.14-4.73 2.14-0.0536 0-0.143-0.194-0.198-0.43-0.0555-0.237-0.131-0.489-0.168-0.561-0.0368-0.0717-0.494-1.88-1.02-4.02-1.27-5.2-2.25-8.94-2.37-9.07-0.153-0.159-4.07-0.888-8.47-1.58-0.917-0.144-1.05-0.0657 2.23-1.31 1.24-0.467 3.31-1.3 4.56-1.84 0.166-0.0708 0.322-0.161 0.346-0.201 0.0436-0.0706-1.19-4.6-2.13-7.8-0.257-0.879-0.507-1.74-0.556-1.91-0.0573-0.203-0.0603-0.354-0.0085-0.436 0.231-0.366 5.27-3.06 7.33-3.92 0.518-0.216 0.992-0.44 1.05-0.497l0.11-0.104-0.881-1.3c-1.2-1.78-1.8-2.6-4.08-5.64-1.08-1.44-1.92-2.63-1.88-2.65 0.0459-0.0153 0.871 0.446 1.83 1.02 8.38 5.04 14.3 7.7 18.6 8.3l0.683 0.0972 0.105-0.113c0.0623-0.0668 0.144-0.547 0.199-1.18 0.113-1.28-0.0379-1.15 1.44-1.31 0.676-0.0734 1.34-0.155 1.47-0.181l0.237-0.0478-0.0524-0.79c-0.127-1.91-0.843-5.55-4.07-20.7-0.226-1.06-0.409-2-0.407-2.09l0.0038-0.164 0.124 0.164c0.186 0.245 2.79 4.42 4.95 7.95 5.23 8.52 7.69 11.9 9.08 12.3 1.31 0.41 2.13-6.36 2.52-20.9 0.029-1.07 0.0854-1.95 0.125-1.95 0.04 0 0.0728 0.0158 0.0728 0.0352 0 0.222 2.28 8.59 2.96 10.8 2.22 7.42 4.22 11.4 5.48 10.8 1.62-0.67 4.4-8.38 8.03-22.2 0.502-1.92 0.943-3.51 0.98-3.55 0.0828-0.0854 0.136 0.936 0.291 5.64 0.466 14.1 1.07 18.2 2.8 19.1l0.369 0.179 0.792-0.0436c2.83-0.156 7.38-2.63 20.3-11.1 1.65-1.07 3.07-1.98 3.14-2.01l0.139-0.0533-0.0862 0.156c-0.0474 0.0857-0.628 0.82-1.29 1.63-6.85 8.39-13.2 17-13 17.5 0.0158 0.0475 0.487 0.184 1.05 0.302s1.92 0.406 3.03 0.639c2.49 0.524 2.28 0.454 2.31 0.768l0.0254 0.262 0.348 0.0731c0.441 0.0925 0.477-0.133-0.429 2.68-0.839 2.6-0.85 2.65-0.636 2.74 0.272 0.111 7.93 2.72 10.1 3.44 1.18 0.393 2.17 0.746 2.19 0.785 0.073 0.118 0.596 0.0232-6.06 1.1-5.36 0.868-8.38 1.46-8.6 1.69-0.0972 0.101-1.93 5.9-1.93 6.11 0 0.106 1.68 1.69 3.89 3.67 2.46 2.21 3.47 3.14 5.98 5.54 2.13 2.03 5.62 5.56 5.68 5.74 0.0423 0.115-0.169-3e-4 -3.72-2.02-6.82-3.89-11.5-6.38-12.2-6.45l-0.18-0.0203-0.146 0.585c-0.75 3.01-3.68 4.37-6.46 3.01l-0.611-0.298-0.578-0.581c-0.548-0.551-0.868-1.06-1.23-1.96-0.284-0.709-0.856 0.758-1.03 2.64l-0.0907 0.986 0.0906 1.21c0.28 3.76 1.38 7.77 4.75 17.3 0.683 1.93 0.74 2.16 0.446 1.83zm-40.6-4.88c0.0959-0.214 0.438-0.979 0.76-1.7 3.45-7.72 6.88-12 9.62-12l0.574-5e-3 1.14 0.534 0.704 0.713c1.61 1.64 3.2 4.57 5.32 9.84 0.389 0.966 0.751 1.77 0.806 1.79l0.0989 0.033 6.9e-4 -3.43c2e-3 -8.4 0.821-12.3 2.74-13l0.369-0.141 0.553 0.0416c1.14 0.0855 2.21 0.783 4.08 2.64 2.47 2.46 4.51 5.03 9.36 11.8 1.78 2.5 1.84 2.57 1.49 1.59-1.7-4.71-2.75-8.32-3.25-11.2l-0.228-1.29 0.012-3.77 0.218-0.819c0.267-1 0.596-1.69 1.13-2.35l0.403-0.503v-0.31c0-1.52 1.03-3.05 2.52-3.74 0.521-0.241 0.537-0.32 0.082-0.41l-0.348-0.0685-0.0512-0.71-0.153-0.04c-0.274-0.0716-0.266-0.145 0.899-8.51 0.954-6.84 1.23-8.85 1.47-10.7 0.128-0.983 0.253-1.81 0.278-1.83 0.0249-0.0249 0.555 0.0514 1.18 0.169 0.623 0.118 1.21 0.215 1.3 0.215h0.169l0.559-0.922c0.722-1.19 1.7-2.63 2.94-4.32 0.917-1.25 1.88-2.49 5.07-6.58 1.75-2.24 1.76-2.27 0.742-1.6-7.98 5.22-13.1 8-15.9 8.72l-0.791 0.201h-1.61l-0.472-0.176c-2.27-0.847-3.04-4.59-3.35-16.1-0.0261-0.992-0.0673-1.93-0.0916-2.09l-0.0442-0.284-0.0793 0.142c-0.0436 0.0779-0.351 1.13-0.683 2.33-3.41 12.4-5.01 16.2-7.03 17l-0.39 0.149-0.455-0.0469c-2.03-0.209-3.91-4.04-6.34-12.9-0.278-1.01-0.559-2.04-0.624-2.27-0.199-0.722-0.251-0.501-0.309 1.31-0.224 6.95-0.721 11.5-1.46 13.5l-0.25 0.651-0.388 0.388c-1.49 1.49-3.72-0.463-7.58-6.61-0.629-1-3.44-5.67-4.96-8.26-0.723-1.22-0.771-1.2-0.445 0.225 2.08 9.08 3.13 14.2 3.29 16.1 0.0316 0.379 0.0947 0.666 0.151 0.688 0.124 0.0477 4.63-0.456 5.31-0.593l0.225-0.0458 0.157 0.366c0.0863 0.201 0.2 0.38 0.252 0.398 0.0525 0.0175 0.26 0.695 0.46 1.5 1.11 4.47 2.45 10.1 2.94 12.3 0.043 0.194 0.202 0.258 0.202 0.0819 4.7e-5 -0.0563 0.0541-0.821 0.12-1.7 0.066-0.879 0.178-2.43 0.248-3.44 0.0705-1.01 0.218-3.02 0.327-4.47 0.11-1.44 0.245-3.35 0.302-4.24 0.0563-0.892 0.128-1.66 0.158-1.71l0.0559-0.0905 10.1 0.197 0.0617 0.0969c0.0339 0.0533 0.0622 0.183 0.0629 0.289 8e-4 0.123 0.0606 0.208 0.166 0.235 0.222 0.058 0.162-0.372 0.746 5.39 0.201 1.98 0.227 2.17 0.301 2.17 0.0318-1.9e-4 0.629-1.76 1.33-3.9s1.31-3.96 1.36-4.03l0.0897-0.124 1.26 0.184c7.84 1.14 8.49 1.26 8.39 1.54-0.0607 0.166 0.0453 0.348 0.202 0.348 0.291 0 0.311 0.17 0.152 1.31-1.18 8.49-1.28 9.15-2.68 18.1-1.55 9.94-1.76 11.2-1.85 11.3-0.0479 0.0183-1.01-0.146-2.15-0.364-2.68-0.515-6.16-1.14-6.37-1.14-0.0931-6.9e-4 -0.222-0.0347-0.287-0.0755l-0.117-0.0743 0.209-0.697-0.374-0.282 0.18-0.807c0.194-0.873 0.214-1.06 0.115-1.12-0.104-0.0641-3.79-0.401-3.84-0.351-0.0251 0.0251-0.0786 0.683-0.119 1.46-0.0403 0.78-0.0904 1.46-0.111 1.52l-0.0383 0.105-4.67-0.113-0.287 0.254-1.27 0.0941c-1.53 0.113-4.92 0.452-6.56 0.655-1.28 0.159-1.39 0.141-1.39-0.24 0-0.124-0.0513-0.371-0.114-0.549-0.0627-0.178-0.234-1.21-0.38-2.28-0.298-2.2-0.289-2.18-0.842-2.09-0.554 0.0875-0.545 0.0621-0.674 1.77-0.236 3.11-0.286 3.59-0.387 3.69-0.0611 0.0609-1.31 0.251-3.13 0.477-1.67 0.207-3.55 0.452-4.18 0.545-0.631 0.0931-1.28 0.174-1.43 0.181l-0.287 0.0114-0.0246-0.471-0.0246-0.471h-0.123c-0.0678 0-0.333 0.141-0.59 0.313-0.257 0.172-0.928 0.565-1.49 0.873s-1.1 0.606-1.2 0.663c-0.0943 0.057-0.447 0.614-0.783 1.24-1.03 1.91-2.53 4.13-5.01 7.43-0.537 0.714-0.957 1.32-0.934 1.34 0.0232 0.0232 0.681-0.416 1.46-0.975 5.7-4.09 8.24-5.54 10.3-5.9l0.544-0.094 0.459 0.103c1.55 0.347 2.29 1.95 2.52 5.45l0.0981 1.47-0.103 2.22c-0.0567 1.22-0.124 2.41-0.149 2.65-0.0576 0.539 0.0548 0.555 0.285 0.041zm-16.3-13.5c10.2-4.5 13.1-6.75 14.3-10.9l0.172-0.629 0.012-2.62-0.146-0.533c-0.08-0.293-0.294-0.839-0.475-1.21l-0.33-0.682-0.548-0.55c-0.962-0.966-2.03-1.37-3.44-1.3-0.915 0.0458-0.912 0.0619-0.14-0.806 1.68-1.88 2.39-3.54 2.47-5.74l0.0444-1.16-0.143-0.647c-0.876-3.97-4.93-5.68-9.9-4.17-2.3 0.696-5.93 2.37-8.28 3.8-0.289 0.177-0.676 0.398-0.86 0.492l-0.335 0.171 1.1e-5 0.183c6e-6 0.1 0.144 0.662 0.319 1.25 1.87 6.23 4.36 15.6 6.19 23.1 0.255 1.06 0.479 1.97 0.499 2.03 0.0484 0.142 0.119 0.131 0.635-0.0971zm3.39-8.89c-0.0915-0.148-0.698-2.98-0.654-3.05 0.0732-0.118 1.6-0.864 2.15-1.05 2.18-0.736 3.4 1.09 1.75 2.63-0.708 0.663-3.08 1.74-3.25 1.47zm1.98-1.53c0.563-0.314 1.01-0.717 1.01-0.912v-0.127l-0.369 0.0416c-0.203 0.0229-0.682 0.192-1.07 0.376l-0.696 0.334v0.274c0 0.541 0.173 0.543 1.12 0.0139zm-4.67-9.43c-0.0446-0.0735-0.794-2.95-0.794-3.05 0-0.199 1.79-1.21 2.53-1.43 1.95-0.579 3.07 1.15 1.73 2.68-0.527 0.6-3.32 2.05-3.47 1.8zm1.84-1.58c0.754-0.449 1.25-0.913 1.2-1.13l-0.0284-0.139-0.317 0.0105c-0.202 7e-3 -0.604 0.156-1.1 0.41l-0.786 0.399 0.0086 0.299c0.0198 0.685 0.105 0.698 1.02 0.151zm68.7 18.6c0-0.0479-4.05-3.81-6.02-5.59-0.901-0.815-1.99-1.8-2.42-2.19-0.861-0.786-0.884-0.793-1.04-0.336-0.16 0.462-0.153 0.46-1.04 0.236-1.01-0.256-1-0.264-0.348 0.553 0.565 0.707 1.14 1.72 1.24 2.19l0.0579 0.273 0.75 0.349c2.09 0.972 4.57 2.25 7.15 3.69 1.44 0.802 1.67 0.917 1.67 0.827zm-13.5-1.32c1.04-0.272 1.82-0.917 2.28-1.91l0.259-0.549v-2.05l-0.274-0.506c-1.7-3.14-6.28-2.61-6.91 0.789l-0.0922 0.496 0.0904 0.584c0.341 2.2 2.54 3.69 4.65 3.14zm-43.7-0.412c0.518-0.0703 1.77-0.234 2.78-0.364 1.01-0.13 1.86-0.266 1.9-0.303 0.0566-0.0578 0.285-2.35 0.454-4.56l0.0551-0.72 0.132-0.0688c0.0725-0.0378 0.648-0.13 1.28-0.205 0.631-0.0748 1.22-0.151 1.31-0.17 0.379-0.0791 0.361-0.156 1.03 4.55 0.115 0.809 0.0634 0.784 1.28 0.629 1.33-0.17 2.98-0.348 4.69-0.509 1.65-0.154 1.54-0.0236 1.23-1.44-0.618-2.82-1.74-7.87-1.88-8.51-0.0888-0.383-0.438-1.93-0.777-3.44-0.338-1.51-0.706-3.13-0.818-3.61-0.111-0.473-0.444-1.91-0.739-3.2-0.698-3.04-1.81-7.46-1.9-7.54-0.0382-0.0382-1.18 0.0548-2.53 0.207-1.35 0.152-3.21 0.354-4.14 0.45-0.924 0.0956-1.76 0.205-1.85 0.243l-0.167 0.0694-0.145 1.38c-0.0798 0.76-0.255 2.3-0.39 3.43-0.135 1.13-0.354 3-0.486 4.17-0.246 2.17-0.601 4.98-0.73 5.79l-0.072 0.451 0.114 0.164c0.0624 0.0901 0.301 0.404 0.53 0.697 2.64 3.38 2.18 8.22-1.1 11.6-1.13 1.17-1.23 1.09 0.937 0.791zm5.41-11.4c0-0.269 0.868-6.9 0.945-7.22 0.111-0.464 0.342 0.549 1.23 5.42 0.353 1.93 0.38 1.8-0.4 1.88-0.325 0.0321-0.857 0.0846-1.18 0.117l-0.594 0.0581zm29.3 8.79c0.189-1.17 0.644-3.97 1.01-6.23 1.93-11.9 2.31-14.3 2.98-19.3 0.125-0.924 0.151-0.881-0.601-0.998-6.46-1.01-7.42-1.14-7.53-1.02-0.0742 0.0752-0.914 2.6-2.92 8.78-0.531 1.63-0.994 2.97-1.03 2.97-0.0955 0-0.125-0.212-0.272-1.97-0.121-1.45-0.712-7.11-0.965-9.26l-0.102-0.86-2.99-0.061c-1.64-0.0336-3.62-0.052-4.38-0.041l-1.39 0.02-0.0626 0.697c-0.0344 0.383-0.173 2.28-0.308 4.22-0.386 5.55-0.638 9.09-0.729 10.2-0.0463 0.586-0.126 1.62-0.177 2.31l-0.0926 1.24 0.421 1.75c0.232 0.963 0.744 3.13 1.14 4.82l0.718 3.07 1.92 0.0637c1.22 0.0405 1.94 0.0347 1.99-0.016 0.0912-0.0912 0.115-0.496 0.505-8.41 0.157-3.2 0.31-6.08 0.339-6.39l0.0529-0.574 0.067 0.18c0.0697 0.187 0.252 3.36 0.404 7.03 0.193 4.67 0.219 5.13 0.292 5.19 0.0416 0.0379 0.592 0.114 1.22 0.169 0.631 0.055 1.4 0.134 1.72 0.177l0.569 0.0766 0.0944-0.104c0.132-0.146 0.448-1.08 1.68-4.98 2.3-7.29 2.55-7.96 2.09-5.59-0.48 2.46-1.94 9.34-2.7 12.7l-0.193 0.86 0.0935 0.0988c0.0514 0.0544 0.757 0.213 1.57 0.352 0.811 0.139 2.18 0.396 3.03 0.57 0.856 0.174 1.7 0.311 1.88 0.303l0.325-0.0137zm11.9-5.76c0.182-0.566 1.22-3.9 2.23-7.15 1.17-3.78 1.91-6.14 2.77-8.83 0.393-1.23 0.701-2.28 0.684-2.33-0.0167-0.0501-0.987-0.289-2.16-0.532-1.17-0.242-3-0.623-4.07-0.846-1.07-0.223-2.06-0.406-2.19-0.406h-0.245l-0.0395 0.184c-0.0217 0.101-0.135 0.922-0.252 1.82-0.117 0.901-0.412 3.08-0.655 4.83-0.649 4.69-1.4 10.2-1.56 11.3l-0.136 1.01 0.105 0.0651c0.058 0.0358 0.458 0.146 0.89 0.245 0.432 0.0988 1.52 0.357 2.42 0.575s1.74 0.398 1.86 0.401l0.219 6e-3zm-65.5-0.164c-0.0013-0.209-0.561-2.17-0.643-2.25-0.038-0.038-0.803 0.223-1.7 0.581-0.897 0.357-1.77 0.699-1.94 0.76-0.172 0.0606-0.349 0.154-0.393 0.207l-0.0802 0.0966 0.598 0.0985c0.329 0.0542 1.3 0.22 2.15 0.369 0.856 0.149 1.66 0.274 1.78 0.278l0.225 8e-3zm18-7.41c0.312-2.71 0.314-2.73 0.273-2.68-0.0204 0.0217-0.12 0.371-0.22 0.777-0.25 1.01-0.576 1.82-1.06 2.67-0.506 0.877-0.513 0.804 0.101 1.11l0.512 0.252 0.0891-0.106c0.049-0.0584 0.188-0.965 0.308-2.01zm52.9 0.0158c1.2-0.269 5.77-1.08 7.21-1.28 1.16-0.16 1.31-0.0803-2.67-1.43-4.33-1.47-4.42-1.5-4.52-1.4-0.116 0.116-1.38 4.2-1.33 4.29 0.0497 0.0804 0.304 0.0454 1.3-0.179zm-52.2-6.54c0.392-3.35 0.417-3.08-0.3-3.2-0.723-0.125-1.99-0.441-3-0.752-1.05-0.321-1.07-0.295-0.275 0.338 2.07 1.65 2.86 3.43 3.09 6.92 0.0247 0.377 0.164-0.574 0.485-3.31zm-12.1-4.68c1.47-0.449 3.3-0.65 4.58-0.502 0.986 0.113 1.01 0.0777 0.162-0.293-1.68-0.739-6.54-3.28-9.23-4.83-0.464-0.267-0.388-0.0547 0.318 0.888 0.903 1.21 2.03 2.77 2.73 3.79 0.604 0.883 0.777 1.11 0.853 1.11 0.0268-3.4e-4 0.288-0.074 0.581-0.164zm63 38.4c-3.09-3.88-3.97-5.01-3.97-5.1-2e-3 -0.101 0.291 0.129 3.32 2.61 1.49 1.22 3.17 2.6 3.75 3.07 0.575 0.469 1.04 0.897 1.04 0.95 0 0.0944-1.66 1.34-1.78 1.34-0.0347 0-1.09-1.3-2.36-2.88zm-76.6-2.34c-0.877-0.389-0.954-0.47-0.652-0.688 3.5-2.54 6.48-4.66 6.51-4.62 0.0593 0.0593-4.59 5.47-4.85 5.64-0.121 0.0795-0.0578 0.0996-1.01-0.324zm-7.46-4.75 0.0227-1.2 2.34-0.726c2.3-0.714 8.15-2.5 9.33-2.85 1.32-0.391 0.941-0.171-3.72 2.13-5.61 2.77-7.83 3.85-7.91 3.85-0.0493 0-0.0712-0.46-0.0572-1.2zm6.09-25.6c-4.6-1.28-4.96-1.39-4.96-1.47 0-0.118 1.4-1.73 1.5-1.73 0.124 2e-3 0.381 0.143 4.16 2.28 1.69 0.957 3.13 1.79 3.19 1.86l0.12 0.118-0.12-5e-3c-0.066-3e-3 -1.82-0.478-3.89-1.06zm81.2-5.86c0.181-0.218 12.6-7.78 13.1-7.97l0.104-0.0403-0.0446 3.09-1.88 0.761c-2.93 1.18-11.1 4.28-11.3 4.28-0.0638 0-0.061-0.0371 9e-3 -0.121zm-62.4-7.55c-1.86-2.12-3.96-4.54-5.14-5.9-1.03-1.19-0.942-1.2-1.46 0.148-0.32 0.829-0.25 0.873-1.23-0.769-0.463-0.777-0.906-1.47-0.985-1.54l-0.143-0.131-1.09-0.0549c-2.05-0.103-2.53-0.152-2.53-0.26 0-0.056 0.516-0.702 1.15-1.43 0.631-0.733 1.15-1.4 1.15-1.48 0-0.079-0.203-0.894-0.45-1.81-0.248-0.917-0.451-1.7-0.451-1.73-6.75e-4 -0.128 0.266-0.0428 1.85 0.594 1.97 0.79 1.5 0.826 3.25-0.255 0.808-0.501 1.54-0.929 1.63-0.952l0.158-0.0413v0.224c0 0.235-0.219 2.66-0.284 3.15l-0.0373 0.278 0.238 0.222c0.131 0.122 0.775 0.655 1.43 1.18 1.41 1.14 1.38 1.05 0.426 1.27-0.422 0.0975-0.831 0.224-0.909 0.281l-0.141 0.103 2.64 5.29c1.45 2.91 2.63 5.33 2.61 5.39-0.0195 0.0585-0.771-0.735-1.67-1.77zm-6.58-8.23c0.488-1.24 0.433-1.19 1.38-1.39 1.7-0.367 1.67-0.305 0.527-1.21l-0.857-0.678v-0.312c0-0.171 0.0399-0.708 0.0887-1.19 0.119-1.18 0.172-1.17-1.26-0.252l-0.829 0.533-0.169-0.0504c-0.093-0.0277-0.593-0.229-1.11-0.447-1.14-0.48-1.14-0.479-0.837 0.631 0.135 0.489 0.27 1 0.3 1.15l0.0543 0.258-0.605 0.726c-0.333 0.399-0.667 0.776-0.742 0.838-0.357 0.293 0.0257 0.42 1.26 0.42 0.906 0 0.974 0.0415 1.51 0.917 0.257 0.42 0.521 0.848 0.587 0.953 0.189 0.3 0.272 0.194 0.697-0.889zm57.5-2.95c0.108-0.359 2.26-5.77 3.73-9.38l0.734-1.8 1.09-0.384c0.602-0.211 1.13-0.386 1.16-0.389 0.135-0.0108-0.011 0.288-0.959 1.96-0.523 0.924-1.99 3.55-3.26 5.83-1.27 2.28-2.38 4.23-2.46 4.34l-0.152 0.197z" fill="#120e0e"/></svg>
