<svg width="210mm" height="297mm" version="1.1" viewBox="0 0 210 297" xmlns="http://www.w3.org/2000/svg"><path d="m76.5 198c-5.17-0.271-13.3-1.23-13.3-1.57 0-0.0986 0.22-0.154 0.609-0.154 0.449 0 2.75-0.37 4.56-0.735 0.743-0.149 1.63-0.327 1.97-0.395 0.34-0.0678 0.947-0.208 1.35-0.312 1.47-0.378 6.48-2.01 6.48-2.11 0-0.0772-0.486-0.131-1.7-0.189-0.488-0.0233-1.91-0.112-3.16-0.197-1.25-0.0849-2.88-0.19-3.63-0.234-0.743-0.044-1.88-0.148-2.53-0.231-1.43-0.183-1.65-0.186-1.97-0.0247-0.136 0.0694-1.36 0.786-2.72 1.59-1.36 0.807-2.79 1.66-3.19 1.89-0.504 0.299-0.742 0.401-0.799 0.343-0.077-0.077-0.0491-0.942 0.135-4.2 0.055-0.97 0.161-0.866-1.14-1.11-2.3-0.433-4.86-1.16-7.51-2.13-0.95-0.349-4.21-1.92-4.36-2.11-0.198-0.238 0.0122-0.202 1.31 0.223 3.51 1.15 8.79 2.34 11.3 2.54 0.515 0.041 0.536 0.0107 0.57-0.832l0.0279-0.694-0.27-0.057c-0.149-0.0313-0.878-0.146-1.62-0.255-9.12-1.34-14.8-4.19-16-8.06l-0.179-0.577 0.0039-0.849c0.0245-5.28 7.32-12.8 17.9-18.6 8.11-4.37 19-8.08 27.5-9.34 0.891-0.133 2.94-0.463 4.55-0.735 3.34-0.563 5.02-0.81 7.06-1.03 2.95-0.327 5.97-0.622 6.81-0.665l0.866-0.0451-0.134 0.11c-0.0739 0.0603-0.421 0.17-0.772 0.244-9.58 2.02-20.6 5.24-25.4 7.45-0.446 0.202-1.07 0.48-1.39 0.618-0.873 0.378-3.15 1.54-4.32 2.21-3.39 1.93-5.18 2.98-5.14 3.02 0.0116 0.0116 0.574-0.253 1.25-0.587 1.29-0.639 2.8-1.37 3.87-1.87 1.2-0.562 1.2-0.543-0.0663 1.36-0.556 0.838-1.03 1.57-1.05 1.62-0.0365 0.0951 3.32-1.45 3.49-1.6 0.0424-0.0395 0.165-0.374 0.273-0.743l0.195-0.671 1.08-0.49c2.71-1.23 4.74-2.09 8.11-3.44 1.82-0.727 2.03-0.796 2.14-0.692 0.0283 0.0283-0.278 0.688-0.682 1.47-0.403 0.779-0.733 1.45-0.733 1.48 0 0.0372 0.818-0.276 1.82-0.695 1-0.42 1.92-0.763 2.04-0.763 0.316 0 3.55-1.41 4.32-1.88 1.55-0.952 2.34-1.31 4.32-1.96 1.69-0.554 2.5-0.788 2.71-0.785l0.182 2e-3 -0.154 0.121c-0.164 0.129-2.75 1.4-3.2 1.57-0.149 0.0568-0.295 0.124-0.326 0.15-0.0683 0.0578-1.06 3.5-1.02 3.54 0.0158 0.0158 0.317-0.237 0.669-0.561 4.41-4.06 9.27-3.96 10.8 0.208 0.195 0.533 0.15 0.543 0.762-0.176 1.78-2.09 3.85-3.57 5.98-4.29l0.844-0.284 0.887-0.0374c1.93-0.0815 3.52 0.785 4.36 2.38 0.338 0.642 0.266 0.637 0.928 0.0687 1.96-1.68 4.99-3.22 8.45-4.28 1.32-0.406 4.19-1.12 4.49-1.12 0.274-5.9e-4 0.276-0.0197-0.148 1.41-0.424 1.43-0.449 1.36 0.413 1.11 3.13-0.901 3.5-0.975 3.5-0.706 0 0.238-0.148 0.256 1.29-0.161 0.67-0.195 1.57-0.455 1.99-0.578 1.18-0.342 1.24-0.306 0.765 0.436-0.354 0.554-0.335 0.564 0.641 0.36 0.979-0.205 0.855-0.0867 0.91-0.87 0.0656-0.937 0.105-1.13 0.234-1.18 0.491-0.189 10-1.66 11-1.69l0.538-0.0182-0.0177 0.17c-0.01 0.0932-0.473 1.4-1.03 2.89-2.55 6.86-5.2 14.2-6.28 17.4l-0.863 2.55-0.356 0.0772c-0.472 0.102-0.508 0.156-0.274 0.406 1.93 2.06 0.556 6.56-2.49 8.15-1.74 0.911-3.85 0.611-4.8-0.684-0.14-0.19-0.308-0.347-0.374-0.349-0.272-7e-3 -3.8 1.27-6.58 2.38-2.26 0.903-2.15 0.919-1.78-0.273 0.112-0.358 0.187-0.666 0.168-0.685-0.0806-0.0806-4.85 1.6-7.3 2.58-0.857 0.341-0.85 0.401-0.203-1.69 0.279-0.901 0.491-1.65 0.471-1.67s-0.429 0.16-0.908 0.4c-1.14 0.571-1.89 0.901-4.07 1.78-0.992 0.401-2.78 1.15-3.97 1.65-1.19 0.509-2.22 0.915-2.29 0.901-0.168-0.0347-0.136-0.343 0.189-1.82 0.312-1.41 0.322-1.38-0.26-0.865-4.03 3.55-8.36 3.56-10.1 0.041-0.17-0.338-0.319-0.625-0.331-0.637-0.0123-0.0123-0.278 0.299-0.591 0.692-2.94 3.69-6.51 5.65-9.38 5.16-0.604-0.105-2.1-0.747-2.16-0.928-0.0749-0.221-0.59-0.715-0.666-0.639-0.04 0.04-0.0798 0.225-0.0885 0.41l-0.0158 0.337 0.463 0.103-0.197 9e-3c-0.108 5e-3 -0.23 0.0419-0.27 0.082-0.0403 0.0401-0.698 0.348-1.46 0.685-1.59 0.7-4.36 2.01-4.47 2.11-0.12 0.109 0.318 0.0815 3.16-0.2 1.48-0.147 3.48-0.339 4.43-0.428 1.59-0.148 3.44-0.36 5.71-0.657 0.488-0.0637 1.6-0.203 2.47-0.31s2.31-0.296 3.2-0.42c0.891-0.124 2.4-0.316 3.36-0.426 0.955-0.11 1.94-0.232 2.2-0.272 2.08-0.319 5.64-0.672 5.56-0.552-0.0648 0.105-1.34 0.344-4.37 0.821-2.2 0.347-6.3 1.18-8.56 1.74-0.658 0.162-1.84 0.441-2.62 0.62-4.46 1.02-3.98 1.04 2.66 0.114 6.28-0.872 11-1.48 14.5-1.89 0.764-0.0878 2.12-0.244 3.01-0.347 2.58-0.299 5.78-0.59 6.19-0.562l0.371 0.0256-0.202 0.0886c-0.111 0.0487-0.996 0.233-1.97 0.409-12.9 2.33-26.2 5.74-32.9 8.43-0.858 0.343-0.929 0.405-0.544 0.474 4.21 0.759 13.5 0.777 22.9 0.0439 1.88-0.148 2.08-0.148 1.93 7e-3 -0.174 0.174-5.36 1.44-8.4 2.05-9 1.8-22 2.92-29.4 2.53zm-5.02-8.57c0.705-0.0626 0.741-0.0885 0.851-0.621 0.121-0.581 0.131-0.581-1 0.06-1.05 0.593-1.2 0.736-0.717 0.659 0.159-0.0254 0.55-0.0693 0.868-0.0975zm-12.3-7.99c0.0287-0.107 0.0653-0.591 0.0814-1.08l0.0293-0.88-0.772-0.0472c-0.424-0.026-0.824-0.0685-0.887-0.0944-0.0637-0.0259-0.566-0.101-1.12-0.168-2.05-0.247-4.27-0.861-5.61-1.55-4.24-2.19-2.42-6.72 5.18-12.8 1.48-1.19 4.22-3.05 6.48-4.4 0.879-0.524 1.37-0.812 2.97-1.75 0.297-0.173 0.725-0.387 0.951-0.475 0.226-0.0881 0.671-0.303 0.988-0.477 0.318-0.174 0.827-0.414 1.13-0.532 0.305-0.118 0.937-0.379 1.4-0.579 0.467-0.2 1.16-0.475 1.54-0.612 0.382-0.137 1.11-0.424 1.62-0.638s1.06-0.432 1.23-0.485c0.573-0.179 0.881-0.378 1.03-0.666l0.144-0.28 0.61-0.176c0.786-0.227 1.1-0.352 0.981-0.395-0.0505-0.0188-0.467 0.0886-0.926 0.239-0.459 0.15-1.11 0.358-1.45 0.461-1.24 0.377-5.48 2.07-6.79 2.71-0.382 0.187-0.952 0.446-1.27 0.577-0.314 0.13-0.766 0.354-1 0.497-0.238 0.143-0.658 0.372-0.933 0.509-0.858 0.426-2.31 1.29-4.3 2.57-6.98 4.47-12.5 9.98-13.6 13.6-0.906 2.95 1.05 4.97 6.08 6.27 0.573 0.148 1.34 0.31 1.7 0.359s0.947 0.139 1.3 0.2c0.356 0.0609 0.877 0.114 1.16 0.117 0.281 4e-3 0.806 0.0516 1.17 0.106 0.789 0.12 0.788 0.12 0.854-0.125zm-3.63 10.9c-6.42-0.822-11.2-3.03-13.9-6.42-0.62-0.774-0.49-0.787 0.495-0.0478 2.71 2.03 7.27 4.07 12.9 5.78 2.32 0.701 2.29 0.69 2.23 0.78-0.059 0.0955-0.431 0.0762-1.73-0.0897zm50.3-0.829c0-0.112 0.248-0.174 2.2-0.547 5.76-1.1 10.6-1.63 20.9-2.28 0.361-0.0227 0.707-9e-3 0.769 0.031l0.113 0.0723-0.19 0.07c-0.105 0.0385-0.833 0.165-1.62 0.282-0.785 0.117-1.97 0.297-2.62 0.402-7.72 1.22-19.6 2.42-19.6 1.97zm10.3-3.47c0-0.141 0.0805-0.162 2.49-0.637 7.67-1.52 12.1-2.15 17.8-2.54 0.637-0.0439 1.39-0.099 1.67-0.122 1.07-0.0885 0.723 0.174-0.514 0.386-7.84 1.34-8.41 1.43-17.2 2.51-3.75 0.465-4.24 0.511-4.24 0.402zm11.2-4.99c0.0775-0.0588 0.407-0.164 0.733-0.235 0.326-0.0703 1.53-0.336 2.68-0.59 9.31-2.07 15.4-3.05 20.8-3.36 0.632-0.0359 0.907-0.0262 0.907 0.0322 0 0.405-22.6 4.27-24.9 4.26l-0.352-2e-3zm21.7-9.3c0-0.355 3.54-1.09 5.84-1.21 1.95-0.103 1.12 0.256-2.06 0.892-1.51 0.302-3.78 0.492-3.78 0.316zm0.554-4.64c0.123-0.368 4.68-1.17 4.88-0.857 0.162 0.262-2.21 0.798-4.03 0.909l-0.878 0.0537zm0.464-2.47c0.0659-0.201 2.07-0.764 3.23-0.907 1.08-0.133 1.88-0.171 2-0.0938l0.112 0.0728-0.189 0.0815c-0.74 0.319-3.13 0.802-4.46 0.9l-0.724 0.0535zm-102-3.36c3.85-3.72 12-8.47 19.9-11.6 2.76-1.09 6.59-2.41 6.99-2.41h0.219l-0.152 0.104c-0.0837 0.0574-1.35 0.616-2.81 1.24-5.56 2.37-10.1 4.5-14.1 6.62-3.54 1.87-6.02 3.4-9.05 5.55-1.37 0.974-1.63 1.1-0.982 0.473zm57.6-14c0-0.203 3.94-1.5 6.6-2.17 3.34-0.841 10.6-2.02 10.3-1.67-0.169 0.169-8.48 2.18-13 3.13-3.01 0.641-3.9 0.801-3.9 0.705zm-25.3-0.766c0.591-0.596 8.11-2.93 12.2-3.8 5.41-1.14 16.5-2.47 19.6-2.34l0.579 0.0244-0.197 0.0884c-0.108 0.0487-0.924 0.198-1.81 0.331-8.13 1.22-17.9 3.09-27.4 5.21-1.25 0.281-2.45 0.53-2.66 0.554l-0.386 0.0428zm38.7-0.17c0-0.173 3.03-1.05 7.33-2.13 3.48-0.87 6.4-1.45 10.3-2.04 2.67-0.404 6.48-0.799 6.74-0.699l0.126 0.0485-0.132 0.0739c-0.195 0.11-12.4 2.59-18 3.66-6.24 1.19-6.33 1.2-6.33 1.08zm-3.55-2.81c0-0.173 3.66-1.36 5.59-1.82 3.13-0.737 12.3-1.89 13-1.62l0.138 0.0557-0.193 0.0744c-0.106 0.0409-0.974 0.213-1.93 0.382-1.57 0.278-4.67 0.858-8.45 1.58-5.97 1.14-8.14 1.5-8.14 1.35z" fill="#03cffb"/><path d="m76.5 198c-5.17-0.271-13.3-1.23-13.3-1.57 0-0.0986 0.22-0.154 0.609-0.154 0.449 0 2.75-0.37 4.56-0.735 0.743-0.149 1.63-0.327 1.97-0.395 0.34-0.0678 0.947-0.208 1.35-0.312 1.47-0.378 6.48-2.01 6.48-2.11 0-0.0772-0.486-0.131-1.7-0.189-0.488-0.0233-1.91-0.112-3.16-0.197-1.25-0.0849-2.88-0.19-3.63-0.234-0.743-0.044-1.88-0.148-2.53-0.231-1.43-0.183-1.65-0.186-1.97-0.0247-0.136 0.0694-1.36 0.786-2.72 1.59-1.36 0.807-2.79 1.66-3.19 1.89-0.504 0.299-0.742 0.401-0.799 0.343-0.077-0.077-0.0491-0.942 0.135-4.2 0.055-0.97 0.161-0.866-1.14-1.11-2.3-0.433-4.86-1.16-7.51-2.13-0.95-0.349-4.21-1.92-4.36-2.11-0.198-0.238 0.0122-0.202 1.31 0.223 3.51 1.15 8.79 2.34 11.3 2.54 0.515 0.041 0.536 0.0107 0.57-0.832l0.0279-0.694-0.27-0.057c-0.149-0.0313-0.878-0.146-1.62-0.255-9.12-1.34-14.8-4.19-16-8.06l-0.179-0.577 0.0039-0.849c0.0245-5.28 7.32-12.8 17.9-18.6 8.11-4.37 19-8.08 27.5-9.34 0.891-0.133 2.94-0.463 4.55-0.735 3.34-0.563 5.02-0.81 7.06-1.03 2.95-0.327 5.97-0.622 6.81-0.665l0.866-0.0451-0.134 0.11c-0.0739 0.0603-0.421 0.17-0.772 0.244-9.58 2.02-20.6 5.24-25.4 7.45-0.446 0.202-1.07 0.48-1.39 0.618-0.873 0.378-3.15 1.54-4.32 2.21-3.39 1.93-5.18 2.98-5.14 3.02 0.0116 0.0116 0.574-0.253 1.25-0.587 1.29-0.639 2.8-1.37 3.87-1.87 1.2-0.562 1.2-0.543-0.0663 1.36-0.556 0.838-1.03 1.57-1.05 1.62-0.0365 0.0951 3.32-1.45 3.49-1.6 0.0424-0.0395 0.165-0.374 0.273-0.743l0.195-0.671 1.08-0.49c2.71-1.23 4.74-2.09 8.11-3.44 1.82-0.727 2.03-0.796 2.14-0.692 0.0283 0.0283-0.278 0.688-0.682 1.47-0.403 0.779-0.733 1.45-0.733 1.48 0 0.0372 0.818-0.276 1.82-0.695 1-0.42 1.92-0.763 2.04-0.763 0.316 0 3.55-1.41 4.32-1.88 1.55-0.952 2.34-1.31 4.32-1.96 1.69-0.554 2.5-0.788 2.71-0.785l0.182 2e-3 -0.154 0.121c-0.164 0.129-2.75 1.4-3.2 1.57-0.149 0.0568-0.295 0.124-0.326 0.15-0.0683 0.0578-1.06 3.5-1.02 3.54 0.0158 0.0158 0.317-0.237 0.669-0.561 4.41-4.06 9.27-3.96 10.8 0.208 0.195 0.533 0.15 0.543 0.762-0.176 1.78-2.09 3.85-3.57 5.98-4.29l0.844-0.284 0.887-0.0374c1.93-0.0815 3.52 0.785 4.36 2.38 0.338 0.642 0.266 0.637 0.928 0.0687 1.96-1.68 4.99-3.22 8.45-4.28 1.32-0.406 4.19-1.12 4.49-1.12 0.274-5.9e-4 0.276-0.0197-0.148 1.41-0.424 1.43-0.449 1.36 0.413 1.11 3.13-0.901 3.5-0.975 3.5-0.706 0 0.238-0.148 0.256 1.29-0.161 0.67-0.195 1.57-0.455 1.99-0.578 1.18-0.342 1.24-0.306 0.765 0.436-0.354 0.554-0.335 0.564 0.641 0.36 0.979-0.205 0.855-0.0867 0.91-0.87 0.0656-0.937 0.105-1.13 0.234-1.18 0.491-0.189 10-1.66 11-1.69l0.538-0.0182-0.0177 0.17c-0.01 0.0932-0.473 1.4-1.03 2.89-2.55 6.86-5.2 14.2-6.28 17.4l-0.863 2.55-0.356 0.0772c-0.472 0.102-0.508 0.156-0.274 0.406 1.93 2.06 0.556 6.56-2.49 8.15-1.74 0.911-3.85 0.611-4.8-0.684-0.14-0.19-0.308-0.347-0.374-0.349-0.272-7e-3 -3.8 1.27-6.58 2.38-2.26 0.903-2.15 0.919-1.78-0.273 0.112-0.358 0.187-0.666 0.168-0.685-0.0806-0.0806-4.85 1.6-7.3 2.58-0.857 0.341-0.85 0.401-0.203-1.69 0.279-0.901 0.491-1.65 0.471-1.67s-0.429 0.16-0.908 0.4c-1.14 0.571-1.89 0.901-4.07 1.78-0.992 0.401-2.78 1.15-3.97 1.65-1.19 0.509-2.22 0.915-2.29 0.901-0.168-0.0347-0.136-0.343 0.189-1.82 0.312-1.41 0.322-1.38-0.26-0.865-4.03 3.55-8.36 3.56-10.1 0.041-0.17-0.338-0.319-0.625-0.331-0.637-0.0123-0.0123-0.278 0.299-0.591 0.692-2.94 3.69-6.51 5.65-9.38 5.16-0.604-0.105-2.1-0.747-2.16-0.928-0.0749-0.221-0.59-0.715-0.666-0.639-0.04 0.04-0.0798 0.225-0.0885 0.41l-0.0158 0.337 0.463 0.103-0.197 9e-3c-0.108 5e-3 -0.23 0.0419-0.27 0.082-0.0403 0.0401-0.698 0.348-1.46 0.685-1.59 0.7-4.36 2.01-4.47 2.11-0.12 0.109 0.318 0.0815 3.16-0.2 1.48-0.147 3.48-0.339 4.43-0.428 1.59-0.148 3.44-0.36 5.71-0.657 0.488-0.0637 1.6-0.203 2.47-0.31s2.31-0.296 3.2-0.42c0.891-0.124 2.4-0.316 3.36-0.426 0.955-0.11 1.94-0.232 2.2-0.272 2.08-0.319 5.64-0.672 5.56-0.552-0.0648 0.105-1.34 0.344-4.37 0.821-2.2 0.347-6.3 1.18-8.56 1.74-0.658 0.162-1.84 0.441-2.62 0.62-4.46 1.02-3.98 1.04 2.66 0.114 6.28-0.872 11-1.48 14.5-1.89 0.764-0.0878 2.12-0.244 3.01-0.347 2.58-0.299 5.78-0.59 6.19-0.562l0.371 0.0256-0.202 0.0886c-0.111 0.0487-0.996 0.233-1.97 0.409-12.9 2.33-26.2 5.74-32.9 8.43-0.858 0.343-0.929 0.405-0.544 0.474 4.21 0.759 13.5 0.777 22.9 0.0439 1.88-0.148 2.08-0.148 1.93 7e-3 -0.174 0.174-5.36 1.44-8.4 2.05-9 1.8-22 2.92-29.4 2.53zm-5.02-8.57c0.705-0.0626 0.741-0.0885 0.851-0.621 0.121-0.581 0.131-0.581-1 0.06-1.05 0.593-1.2 0.736-0.717 0.659 0.159-0.0254 0.55-0.0693 0.868-0.0975zm-10.3-5.51c0.102-0.609 0.214-1.86 0.285-3.19 0.0308-0.578 0.0878-1.01 0.138-1.04 0.156-0.0979 3.63-1.27 4.02-1.36 0.212-0.0473 0.438-0.119 0.501-0.16 0.0632-0.0404 0.827-0.303 1.7-0.583l1.58-0.51 0.188-0.4c0.229-0.488 0.39-0.525 0.39-0.0916 0 0.392-0.102 0.4 1.83-0.148 0.884-0.251 2.35-0.655 3.27-0.897 1.87-0.497 1.96-0.535 2.09-0.939 0.0517-0.161 0.822-2.24 1.71-4.61 2.33-6.23 3.54-9.54 4.07-11.1 0.221-0.676 0.632-1.47 0.973-1.87 0.107-0.127 0.178-0.248 0.158-0.269-0.0641-0.0641-2.7 1.07-4.94 2.12l-1.3 0.613-0.599 2c-0.329 1.1-0.779 2.59-0.999 3.31-0.748 2.45-2.33 7.71-2.49 8.26-0.315 1.1-0.489 1.13-0.412 0.0579 0.164-2.27 1.03-10.2 1.17-10.7 0.0704-0.247 0.0824-0.252-1.58 0.603-1.74 0.892-1.71 0.873-1.96 1.54-0.103 0.276-0.49 1.28-0.861 2.24-1.19 3.06-2.04 5.31-2.83 7.48-1.55 4.28-1.54 4 0.161-5.17 0.122-0.658 0.314-1.7 0.426-2.31s0.271-1.46 0.353-1.87c0.0816-0.411 0.149-0.828 0.149-0.926 3.75e-4 -0.231 0.221-0.587 0.793-1.28 0.255-0.308 0.443-0.582 0.418-0.607-0.0417-0.0417-1.96 0.955-3.22 1.67-0.276 0.157-0.953 0.54-1.5 0.85-1.11 0.628-3.28 1.89-4.28 2.5l-0.651 0.395 1.84 0.0418 0.0888 0.118c0.0531 0.0708 0.0755 0.295 0.0557 0.558-0.225 2.99-0.696 11-0.797 13.6-0.0442 1.12-0.0948 2.29-0.112 2.58-0.0355 0.6 0.037 0.43 0.18-0.424zm-2-2.48c0.0287-0.107 0.0653-0.591 0.0814-1.08l0.0293-0.88-0.772-0.0472c-0.424-0.026-0.824-0.0685-0.887-0.0944-0.0637-0.0259-0.566-0.101-1.12-0.168-2.05-0.247-4.27-0.861-5.61-1.55-4.24-2.19-2.42-6.72 5.18-12.8 1.48-1.19 4.22-3.05 6.48-4.4 0.879-0.524 1.37-0.812 2.97-1.75 0.297-0.173 0.725-0.387 0.951-0.475 0.226-0.0881 0.671-0.303 0.988-0.477 0.318-0.174 0.827-0.414 1.13-0.532 0.305-0.118 0.937-0.379 1.4-0.579 0.467-0.2 1.16-0.475 1.54-0.612 0.382-0.137 1.11-0.424 1.62-0.638s1.06-0.432 1.23-0.485c0.573-0.179 0.881-0.378 1.03-0.666l0.144-0.28 0.61-0.176c0.786-0.227 1.1-0.352 0.981-0.395-0.0505-0.0188-0.467 0.0886-0.926 0.239-0.459 0.15-1.11 0.358-1.45 0.461-1.24 0.377-5.48 2.07-6.79 2.71-0.382 0.187-0.952 0.446-1.27 0.577-0.314 0.13-0.766 0.354-1 0.497-0.238 0.143-0.658 0.372-0.933 0.509-0.858 0.426-2.31 1.29-4.3 2.57-6.98 4.47-12.5 9.98-13.6 13.6-0.906 2.95 1.05 4.97 6.08 6.27 0.573 0.148 1.34 0.31 1.7 0.359s0.947 0.139 1.3 0.2c0.356 0.0609 0.877 0.114 1.16 0.117 0.281 4e-3 0.806 0.0516 1.17 0.106 0.789 0.12 0.788 0.12 0.854-0.125zm22.1-7.58c1.43-0.356 3.18-0.773 3.88-0.928 0.7-0.155 1.72-0.385 2.28-0.512s1.4-0.311 1.89-0.411l0.887-0.181 0.469-1.84c0.258-1.01 0.704-2.68 0.991-3.7 0.287-1.02 0.728-2.58 0.979-3.47 0.651-2.31 0.969-3.41 1.3-4.51 0.161-0.53 0.403-1.35 0.536-1.81 0.134-0.467 0.313-1 0.397-1.19 0.0846-0.185 0.137-0.354 0.117-0.374-0.0646-0.0646-3.9 1.57-5.06 2.16l-0.5 0.253-0.631 2.7c-0.347 1.49-0.917 3.81-1.27 5.17s-0.652 2.55-0.672 2.64c-0.0595 0.284-2.61 1.57-3.12 1.57-0.257 0-0.147-0.426 1.94-7.52 0.35-1.19 0.666-2.29 0.703-2.45 0.0368-0.157 0.14-0.48 0.229-0.719 0.219-0.585 0.297-0.599-1.52 0.255l-1.61 0.758-0.112 0.342c-0.19 0.581-1.53 4.37-1.97 5.55-1.04 2.82-1.36 3.72-1.62 4.46-0.152 0.437-0.548 1.53-0.881 2.43-0.333 0.899-0.629 1.71-0.658 1.81l-0.0536 0.174h0.238c0.131 0 1.41-0.291 2.84-0.647zm16.1 0.251c0.943-0.411 1.94-1.61 2.88-3.44 0.29-0.569 0.45-0.802 0.571-0.829 0.0921-0.0209 0.567-0.108 1.05-0.193 0.816-0.142 2.86-0.531 3.05-0.581 0.179-0.0462 1.19-3.72 1.53-5.55 1.11-5.99 0.187-9.27-2.66-9.43l-0.658-0.0377-0.653 0.165c-3.47 0.875-7.83 6.02-9.8 11.5-0.266 0.748-1.54 5.46-1.54 5.69 0 0.172-0.153 0.187 1.37-0.136 0.712-0.151 1.69-0.359 2.17-0.46 1.07-0.224 0.965-0.127 1.24-1.2 1.2-4.74 4.05-8.62 5.44-7.4 1.68 1.47-1.49 10.3-4.15 11.6l-0.372 0.177-0.341-0.0468c-0.376-0.0515-0.434 0.0209-0.168 0.207 0.242 0.169 0.591 0.157 1.03-0.0349zm44.1-1.96c0.457-0.879 1.35-1.76 2.16-2.14l0.525-0.245 0.592-2.4e-4c0.641-2.7e-4 0.705-0.0661 0.198-0.203-1.1-0.296-2.64 0.633-3.34 2.01-0.246 0.485-0.503 1.2-0.495 1.38 3e-3 0.0676 0.0492-0.0159 0.103-0.186 0.0538-0.17 0.17-0.448 0.258-0.617zm-24.2-0.306c0.11-0.103 0.749-0.3 1.26-0.39 2.84-0.497 5.85-2.3 5.82-3.49l-6e-3 -0.215-0.13 0.27c-0.442 0.92-1.53 1.67-3.58 2.47-0.824 0.32-2.58 0.882-3.19 1.02l-0.319 0.0717-0.0471 0.285c-0.0789 0.477-0.0496 0.615 0.0632 0.299 0.0579-0.162 0.117-0.306 0.132-0.32zm-6.37 0.0754c0.896-0.446 2.02-1.87 2.96-3.74 0.213-0.424 0.408-0.77 0.433-0.77 0.116 0 2.43-0.406 2.88-0.504 0.276-0.0607 0.632-0.122 0.791-0.137 0.366-0.0338 0.322 0.0265 0.632-0.87 2.18-6.3 1.95-11.9-0.527-13.2l-0.394-0.208-1.77 8e-3 -0.502 0.177c-2.67 0.939-5.19 3.42-7.36 7.24l-0.363 0.638-0.0704 0.801c-0.0852 0.97-0.232 1.85-0.584 3.48-0.255 1.18-0.397 1.73-0.84 3.23-0.244 0.827-0.287 0.777 0.547 0.627 0.376-0.0679 1.08-0.194 1.57-0.279 1.06-0.186 0.874 7e-3 1.27-1.31 1.57-5.28 4.62-8.73 5.55-6.27l0.145 0.384-0.042 0.926c-0.126 2.77-1.92 7.1-3.67 8.84l-0.587 0.586-0.4 0.132c-0.268 0.0883-0.494 0.114-0.686 0.0781-0.348-0.0652-0.304 0.078 0.0731 0.242 0.345 0.15 0.508 0.136 0.944-0.0812zm13.4-6.13c0.417-0.0819 1.4-0.256 2.19-0.386s1.66-0.294 1.95-0.362l0.527-0.125-0.0498-0.202c-0.138-0.56-0.787-1.35-2.29-2.78-1.41-1.35-1.57-1.67-1.18-2.46 0.452-0.908 2.54-1.9 4.75-2.25l0.586-0.0939 0.28-1.21c0.154-0.664 0.387-1.68 0.518-2.25 0.316-1.39 0.586-2.39 0.815-3.04 0.24-0.676 0.312-0.656-1.05-0.284-4.71 1.29-8.07 3.37-9.94 6.17l-0.435 0.651-0.0545 1.11c-0.0299 0.609-0.15 1.77-0.267 2.59l-0.213 1.48 0.515 1.08 1.24 1.25c0.683 0.69 1.27 1.25 1.29 1.25 0.0287-1.7e-4 0.393-0.0673 0.81-0.149zm5.95-0.788 0.128-0.255 0.772-0.129c0.424-0.0709 1.6-0.275 2.62-0.455 1.02-0.179 2.62-0.457 3.55-0.618 4.43-0.763 5.02-0.874 5.1-0.954 0.124-0.123 2.18-6.5 2.5-7.76 0.092-0.361 0.377-1.4 0.633-2.3s0.452-1.66 0.436-1.67c-0.0165-0.0164-0.776 0.125-1.69 0.315-0.912 0.19-1.93 0.401-2.26 0.469-0.81 0.168-0.767 0.107-1.24 1.76-0.965 3.34-2.17 7.42-2.28 7.69l-0.0803 0.209-0.408 0.116c-1.23 0.351-2.39 0.6-2.46 0.53-0.0887-0.0887 0.166-0.928 1.67-5.5 1.42-4.33 1.37-4.21 1.82-4.72 0.559-0.643 0.581-0.645-1.21 0.104l-1.09 0.456-0.453 0.921c-0.367 0.745-0.646 1.13-0.646 0.887 0-0.108 0.481-1.79 0.58-2.02 0.0632-0.151 0.115-0.288 0.115-0.304 0-0.0778-0.363 1e-3 -1.38 0.3l-1.11 0.326-0.223 0.656c-0.123 0.361-0.465 1.44-0.762 2.39-0.81 2.61-1 3.19-1.07 3.28-0.0612 0.0757-0.64 1.98-1.47 4.85-0.442 1.52-0.484 2.22-0.0872 1.43zm16.6-3c0.609-0.091 1.18-0.179 1.27-0.197 0.108-0.0209 0.204-0.141 0.285-0.361 0.0672-0.181 0.416-1.15 0.776-2.14 2.59-7.18 3.46-9.55 3.86-10.5 0.335-0.822 0.334-0.813 0.0906-0.813-0.386 0-6.29 0.846-6.81 0.977l-0.174 0.0433v0.921l0.251-0.0607c0.138-0.0334 0.372-0.0622 0.521-0.064l0.27-3e-3 -0.01 0.193c-5e-3 0.106-0.307 1.67-0.669 3.47-0.629 3.13-0.975 4.76-1.56 7.39-0.145 0.646-0.264 1.23-0.264 1.3v0.128l0.533-0.0447c0.293-0.0246 1.03-0.119 1.64-0.21zm-91.3 30.3c-6.42-0.822-11.2-3.03-13.9-6.42-0.62-0.774-0.49-0.787 0.495-0.0478 2.71 2.03 7.27 4.07 12.9 5.78 2.32 0.701 2.29 0.69 2.23 0.78-0.059 0.0955-0.431 0.0762-1.73-0.0897zm50.3-0.829c0-0.112 0.248-0.174 2.2-0.547 5.76-1.1 10.6-1.63 20.9-2.28 0.361-0.0227 0.707-9e-3 0.769 0.031l0.113 0.0723-0.19 0.07c-0.105 0.0385-0.833 0.165-1.62 0.282-0.785 0.117-1.97 0.297-2.62 0.402-7.72 1.22-19.6 2.42-19.6 1.97zm10.3-3.47c0-0.141 0.0805-0.162 2.49-0.637 7.67-1.52 12.1-2.15 17.8-2.54 0.637-0.0439 1.39-0.099 1.67-0.122 1.07-0.0885 0.723 0.174-0.514 0.386-7.84 1.34-8.41 1.43-17.2 2.51-3.75 0.465-4.24 0.511-4.24 0.402zm11.2-4.99c0.0775-0.0588 0.407-0.164 0.733-0.235 0.326-0.0703 1.53-0.336 2.68-0.59 9.31-2.07 15.4-3.05 20.8-3.36 0.632-0.0359 0.907-0.0262 0.907 0.0322 0 0.405-22.6 4.27-24.9 4.26l-0.352-2e-3zm21.7-9.3c0-0.355 3.54-1.09 5.84-1.21 1.95-0.103 1.12 0.256-2.06 0.892-1.51 0.302-3.78 0.492-3.78 0.316zm0.554-4.64c0.123-0.368 4.68-1.17 4.88-0.857 0.162 0.262-2.21 0.798-4.03 0.909l-0.878 0.0537zm0.464-2.47c0.0659-0.201 2.07-0.764 3.23-0.907 1.08-0.133 1.88-0.171 2-0.0938l0.112 0.0728-0.189 0.0815c-0.74 0.319-3.13 0.802-4.46 0.9l-0.724 0.0535zm-102-3.36c3.85-3.72 12-8.47 19.9-11.6 2.76-1.09 6.59-2.41 6.99-2.41h0.219l-0.152 0.104c-0.0837 0.0574-1.35 0.616-2.81 1.24-5.56 2.37-10.1 4.5-14.1 6.62-3.54 1.87-6.02 3.4-9.05 5.55-1.37 0.974-1.63 1.1-0.982 0.473zm57.6-14c0-0.203 3.94-1.5 6.6-2.17 3.34-0.841 10.6-2.02 10.3-1.67-0.169 0.169-8.48 2.18-13 3.13-3.01 0.641-3.9 0.801-3.9 0.705zm-25.3-0.766c0.591-0.596 8.11-2.93 12.2-3.8 5.41-1.14 16.5-2.47 19.6-2.34l0.579 0.0244-0.197 0.0884c-0.108 0.0487-0.924 0.198-1.81 0.331-8.13 1.22-17.9 3.09-27.4 5.21-1.25 0.281-2.45 0.53-2.66 0.554l-0.386 0.0428zm38.7-0.17c0-0.173 3.03-1.05 7.33-2.13 3.48-0.87 6.4-1.45 10.3-2.04 2.67-0.404 6.48-0.799 6.74-0.699l0.126 0.0485-0.132 0.0739c-0.195 0.11-12.4 2.59-18 3.66-6.24 1.19-6.33 1.2-6.33 1.08zm-3.55-2.81c0-0.173 3.66-1.36 5.59-1.82 3.13-0.737 12.3-1.89 13-1.62l0.138 0.0557-0.193 0.0744c-0.106 0.0409-0.974 0.213-1.93 0.382-1.57 0.278-4.67 0.858-8.45 1.58-5.97 1.14-8.14 1.5-8.14 1.35z" fill="#999899"/><path d="m76.2 198c-4.29-0.21-13-1.23-12.4-1.45 0.284-0.102 10.5-0.04 11.4 0.069 1.18 0.147 8.67 0.155 10.5 0.0117 0.721-0.0568 1.68-0.119 2.12-0.138 0.982-0.0423 1.16-0.0757 1.16-0.22 0-0.28 0.451-0.34 0.887-0.117 0.345 0.176 0.965 0.2 2.04 0.0804 0.364-0.0406 1.13-0.112 1.7-0.16 1.27-0.104 2.09-0.222 2.21-0.315 0.0468-0.038 0.238-0.0558 0.424-0.0395l0.339 0.0297-0.463-0.116 0.193-0.0234c0.305-0.0369-1.76-0.132-3.2-0.147-0.721-8e-3 -1.57-0.0451-1.89-0.0832-0.318-0.0381-1.2-0.122-1.97-0.186-5-0.42-7.9-1.05-7.27-1.57 0.421-0.349 5.67-2.24 7.63-2.75 4.62-1.2 7.54-1.91 9.02-2.21 0.403-0.0808 1.31-0.267 2.01-0.414 1.85-0.388 7.15-1.47 8.72-1.78 1.74-0.343 2.47-0.508 2.47-0.554 0-0.0202-0.148-0.0179-0.328 5e-3 -0.18 0.023-0.762 0.094-1.29 0.158-1.47 0.176-5.76 0.71-7.79 0.97-0.997 0.127-2.37 0.302-3.05 0.388-0.679 0.0865-1.69 0.223-2.24 0.302-1.72 0.249-3.37 0.456-4.01 0.505-0.34 0.0255-1.1 0.131-1.7 0.235-1.33 0.232-3.57 0.558-6.91 1-0.488 0.0653-1.53 0.236-2.31 0.379-2.64 0.482-3.1 0.528-5.44 0.537l-2.16 8e-3 -1.22 0.675c-0.671 0.371-1.28 0.714-1.36 0.762-0.363 0.227-0.462-0.148-0.197-0.747 0.179-0.405 0.211-0.632 0.101-0.723-0.475-0.393-0.615-0.473-0.823-0.473-0.259 0-0.386 0.113-0.205 0.182 0.386 0.148 0.0696 0.222-0.73 0.172l-0.845-0.0535-0.226 0.117c-0.124 0.0643-0.338 0.211-0.475 0.327-0.529 0.445-1.89 1.22-2.01 1.14-0.0513-0.0317-0.0695-0.16-0.0445-0.314 0.0232-0.143 0.0278-0.26 0.0102-0.26-0.082 0-1.85 0.951-2.54 1.37-1.41 0.848-4.94 2.93-5.11 3.02-0.333 0.173-0.357 0.129-0.306-0.549 0.0265-0.35 0.0868-1.45 0.134-2.46l0.0858-1.82-0.224-0.663-0.293 0.314-0.656-0.112c-2.18-0.372-2.86-0.533-4.9-1.16-2.37-0.729-4.22-1.47-5.85-2.34-0.995-0.532-1.1-0.653-0.321-0.386 1.53 0.528 4.47 1.34 6.28 1.72 0.488 0.105 1.32 0.293 1.85 0.419 0.53 0.126 1.23 0.287 1.56 0.358 0.33 0.0712 0.581 0.158 0.56 0.193-0.0796 0.129 0.238 0.16 1.09 0.109l0.878-0.0525 0.0636-0.124c0.123-0.238 0.178-1.6 0.0682-1.68-0.0551-0.0419-0.449-0.118-0.875-0.169-8.37-1-14.8-3.76-16.5-7.11-3.32-6.44 8.23-17.7 25.2-24.6 6.19-2.52 13.9-4.72 19.4-5.56 1.92-0.291 4.46-0.703 5.94-0.965 3.28-0.579 12.7-1.65 12.7-1.44 0 0.0241-0.339 0.119-0.752 0.211-9.69 2.15-18.9 4.82-23.9 6.9-2.72 1.14-3.89 1.71-6.56 3.2-0.509 0.284-1.24 0.684-1.62 0.889-3.43 1.84-6.5 3.9-3.61 2.43 1.44-0.731 5.58-2.74 5.8-2.81 0.287-0.091 0.216 0.0444-0.878 1.69-0.578 0.867-1.04 1.61-1.02 1.66 0.0216 0.0648 2.32-0.977 3.61-1.64l0.191-0.0974 0.181-0.654c0.0993-0.36 0.222-0.694 0.272-0.742 0.351-0.336 10.9-4.76 11.1-4.63 0.03 0.03-0.286 0.715-0.703 1.52-0.417 0.807-0.737 1.49-0.712 1.51 0.0517 0.0517 0.0251 0.0619 2.22-0.855 0.877-0.366 1.64-0.647 1.7-0.624 0.196 0.0753 3.51-1.41 4.92-2.21 0.746-0.42 1.68-0.89 2.08-1.04 1.09-0.421 3.55-1.2 3.69-1.17 0.122 0.0265-1.77 0.981-2.48 1.25l-0.364 0.138-0.116 0.319c-0.207 0.569-0.97 3.29-0.97 3.47v0.166l0.405-0.39c1.99-1.92 4.2-3.11 6.25-3.36l0.719-0.0883 0.614 0.125c1.59 0.324 2.93 1.5 3.51 3.07 0.247 0.677 0.244 0.676 0.664 0.171 4.4-5.3 10.2-6.48 12.2-2.47 0.337 0.685 0.289 0.683 1.02 0.0488 1.89-1.63 4.96-3.2 8.28-4.22 1.72-0.529 4.57-1.22 4.67-1.13 0.0455 0.0455-0.0702 0.547-0.31 1.34-0.21 0.698-0.382 1.28-0.382 1.29 0 0.0742 0.459-0.0317 2.24-0.517 2.29-0.624 2.11-0.594 2.06-0.347-0.0505 0.264 0.0244 0.256 1.38-0.149 1.81-0.539 2.89-0.831 2.93-0.788 0.0214 0.0214-0.102 0.275-0.275 0.563-0.399 0.667-0.367 0.688 0.679 0.462 1.06-0.229 1.01-0.177 1.06-1.06 0.025-0.399 0.0725-0.798 0.106-0.888l0.0603-0.163 0.565-0.0864c0.311-0.0475 1.68-0.275 3.03-0.506 2.28-0.387 6.13-0.964 7.27-1.09l0.482-0.0526v0.147c0 0.0808-0.471 1.41-1.05 2.96-1.02 2.74-2.8 7.63-4.77 13.1-0.536 1.49-1.28 3.6-1.65 4.71l-0.676 2.01-0.411 0.0898c-0.536 0.117-0.532 0.107-0.207 0.532 2.39 3.14-0.658 8.66-4.7 8.51l-0.788-0.0292-0.586-0.29c-0.428-0.211-0.699-0.415-1-0.751-0.504-0.557-0.377-0.554-1.88-0.0435-1.8 0.613-2.46 0.859-4.88 1.82-1.2 0.477-2.21 0.845-2.23 0.818-0.0268-0.0268 0.0326-0.317 0.132-0.645 0.232-0.765 0.274-1.02 0.169-1.02-0.17 0-3.52 1.16-5.64 1.96-1.2 0.452-2.22 0.793-2.25 0.758-0.035-0.035 0.0205-0.322 0.123-0.639 0.54-1.66 0.898-2.87 0.861-2.91-0.0232-0.0232-0.451 0.167-0.95 0.424-1.05 0.54-1.89 0.908-4.18 1.83-0.911 0.368-2.68 1.1-3.92 1.63-1.25 0.532-2.3 0.937-2.33 0.901-0.0362-0.0362 0.0561-0.62 0.205-1.3 0.463-2.11 0.481-2.04-0.356-1.31-1.66 1.45-3.6 2.39-5.32 2.6l-0.747 0.0876-0.669-0.123c-0.969-0.178-1.59-0.507-2.29-1.21l-0.581-0.583-0.37-0.762c-0.204-0.419-0.398-0.731-0.433-0.694-0.0344 0.0369-0.351 0.432-0.703 0.877-3.33 4.21-7.46 6.01-10.5 4.58l-0.607-0.285-0.429-0.488c-0.573-0.653-0.609-0.641-0.7 0.226l-0.0478 0.457-0.162 0.0677c-2.12 0.887-6.01 2.75-5.95 2.85 0.028 0.0454 0.217 0.0618 0.449 0.0391 0.22-0.0216 1.34-0.127 2.48-0.233 1.15-0.107 2.4-0.228 2.78-0.27 0.382-0.042 1.51-0.144 2.51-0.228 0.998-0.0832 2.2-0.204 2.66-0.268 0.466-0.0641 1.14-0.15 1.5-0.191 1.54-0.176 5.77-0.72 6.94-0.893 0.7-0.103 1.92-0.259 2.7-0.346 0.785-0.0871 1.9-0.226 2.47-0.309 1.41-0.204 3.57-0.465 3.79-0.457l0.179 6e-3 -0.193 0.0682c-0.106 0.0375-0.974 0.192-1.93 0.344-0.955 0.152-2.17 0.36-2.7 0.462-0.53 0.102-1.88 0.363-3.01 0.579-1.12 0.216-2.34 0.476-2.7 0.576-0.361 0.1-1.16 0.293-1.77 0.428-2.4 0.527-5.17 1.28-5.17 1.4 0 0.149 2.6-0.14 6.94-0.775 6.95-1.01 21.1-2.73 22.3-2.7l0.231 4e-3 -0.173 0.0697c-0.0954 0.0383-1.4 0.298-2.89 0.578-8.5 1.59-19.2 4.17-25.4 6.13-2.53 0.799-6.46 2.23-6.56 2.39-0.0689 0.112 0.041 0.139 1.21 0.303 4.09 0.574 10.6 0.628 18.9 0.157 1.49-0.0838 3.07-0.187 3.51-0.229 0.446-0.042 0.897-0.0735 1-0.0701l0.193 6e-3 -0.262 0.114c-0.296 0.129-3.68 0.964-5.72 1.41-6.18 1.36-13.7 2.36-21.3 2.83-2.31 0.142-8.46 0.205-10.5 0.107zm-19.6-8.18c0-0.113-0.182-0.168-0.437-0.134l-0.219 0.0298 0.193 0.0868c0.247 0.111 0.463 0.119 0.463 0.017zm14.8-0.12c0.885-0.161 0.882-0.159 1.03-0.774 0.182-0.777 0.195-0.779-1.47 0.182-1.3 0.748-1.19 0.891 0.449 0.592zm-17.2-0.687c0.561-0.234 0.511-0.257-1.03-0.46-0.446-0.059-1-0.158-1.23-0.219-0.233-0.0617-0.581-0.134-0.772-0.161l-0.347-0.0489 0.579 0.222c1.81 0.697 2.4 0.836 2.8 0.667zm6.99-4.98c0.102-0.609 0.214-1.86 0.285-3.19 0.0308-0.578 0.0878-1.01 0.138-1.04 0.156-0.0979 3.63-1.27 4.02-1.36 0.212-0.0473 0.438-0.119 0.501-0.16 0.0632-0.0404 0.827-0.303 1.7-0.583l1.58-0.51 0.188-0.4c0.229-0.488 0.39-0.525 0.39-0.0916 0 0.392-0.102 0.4 1.83-0.148 0.884-0.251 2.35-0.655 3.27-0.897 1.87-0.497 1.96-0.535 2.09-0.939 0.0517-0.161 0.822-2.24 1.71-4.61 2.33-6.23 3.54-9.54 4.07-11.1 0.221-0.676 0.632-1.47 0.973-1.87 0.107-0.127 0.178-0.248 0.157-0.269-0.0439-0.0439-1.2 0.418-2.11 0.842-0.348 0.163-0.649 0.296-0.67 0.296-0.021 0-0.136 0.0405-0.255 0.09-0.119 0.0495-0.235 0.0946-0.256 0.1-0.0212 6e-3 -0.29 0.139-0.598 0.297-0.307 0.157-0.585 0.292-0.617 0.3-0.032 8e-3 -0.442 0.196-0.911 0.419l-0.852 0.405-0.104 0.41c-0.057 0.225-0.139 0.497-0.182 0.603-0.043 0.106-0.0898 0.252-0.104 0.324-0.0704 0.359-1.14 3.82-1.2 3.9-0.0421 0.0531-0.0568 0.0965-0.0325 0.0965s-0.0067 0.122-0.0688 0.27c-0.0621 0.149-0.093 0.27-0.0687 0.27s0.0171 0.0434-0.016 0.0965c-0.0331 0.0531-0.0695 0.156-0.0808 0.229-0.0113 0.0728-0.209 0.75-0.44 1.5s-0.736 2.43-1.12 3.73c-0.84 2.81-0.862 2.87-0.999 2.92l-0.107 0.0356 0.0549-0.763c0.164-2.28 1.03-10.3 1.17-10.7 0.0704-0.247 0.0821-0.252-1.58 0.604-1.59 0.82-1.75 0.919-1.83 1.18-0.124 0.407-0.904 2.34-0.984 2.43-0.049 0.0596-0.0813 0.12-0.0718 0.134 0.0348 0.0526-0.192 0.677-1.21 3.35-0.431 1.12-1.13 3-1.55 4.17-1.55 4.28-1.54 4 0.161-5.17 0.122-0.658 0.314-1.7 0.426-2.31s0.271-1.46 0.353-1.87c0.0816-0.411 0.149-0.828 0.149-0.926 3.75e-4 -0.231 0.221-0.587 0.793-1.28 0.609-0.736 0.557-0.746-0.614-0.123-0.544 0.29-1.02 0.519-1.05 0.509-0.0318-0.01-0.0579 0.011-0.0579 0.0462s-0.182 0.148-0.405 0.25c-0.223 0.102-0.422 0.209-0.444 0.236-0.0212 0.0275-0.386 0.241-0.81 0.473-0.424 0.233-1.24 0.694-1.81 1.03s-1.18 0.674-1.35 0.762c-0.17 0.088-0.326 0.18-0.347 0.205-0.0782 0.0912-1.13 0.688-1.21 0.688-0.047 0-0.0971 0.0281-0.111 0.0625-0.0142 0.0344-0.249 0.199-0.522 0.367l-0.496 0.304 1.84 0.0418 0.0888 0.118c0.0531 0.0708 0.0755 0.295 0.0557 0.558-0.225 2.99-0.696 11-0.797 13.6-0.0442 1.12-0.0948 2.29-0.112 2.58-0.0355 0.6 0.037 0.43 0.18-0.424zm-2.29-1.63c0.113-0.113 0.318-0.53 0.398-0.808 0.0256-0.0896 0.0626-1.13 0.0823-2.31 0.039-2.34 0.052-2.27-0.409-2.27-1.17-5e-3 -5.02-1.18-5.41-1.65l-0.103-0.124 0.299-0.127c0.314-0.134 1.25-0.346 2.34-0.531 0.358-0.0608 0.826-0.161 1.04-0.222 0.215-0.0614 0.617-0.154 0.893-0.205 0.999-0.186 0.821-0.251-0.93-0.337-1.65-0.0813-2.21-0.27-2.99-0.997l-0.405-0.381 9.16e-4 -0.317c0.0017-0.601 0.398-1.63 0.92-2.4 0.0868-0.127 0.158-0.289 0.158-0.36 2.8e-4 -0.0708 0.116-0.2 0.258-0.288 0.142-0.0875 0.422-0.369 0.624-0.626 0.458-0.583 1.27-1.4 2.2-2.2 0.392-0.34 0.799-0.73 0.904-0.867 0.105-0.137 0.459-0.455 0.786-0.706 0.327-0.251 0.942-0.754 1.37-1.12 0.424-0.364 1.05-0.848 1.39-1.08 0.34-0.227 0.756-0.553 0.926-0.723 0.17-0.17 0.429-0.372 0.576-0.447 0.147-0.0757 0.483-0.298 0.747-0.494 0.798-0.592 1.11-0.81 1.45-1.01 0.473-0.279 0.556-0.363 0.606-0.613 0.0486-0.243 0.303-0.379 0.462-0.247 0.123 0.102 0.539-0.0904 1.21-0.557 0.276-0.192 0.756-0.495 1.07-0.673s0.659-0.401 0.772-0.495c0.113-0.0942 0.327-0.233 0.475-0.309 0.149-0.0755 0.345-0.211 0.436-0.302 0.0914-0.0904 0.352-0.23 0.579-0.311 0.227-0.0809 1.21-0.492 2.19-0.912 3.76-1.62 5.18-2.19 7.05-2.84 0.482-0.168 1.17-0.442 1.52-0.61 0.355-0.168 0.681-0.306 0.724-0.306 0.0429 0 0.851-0.258 1.8-0.573 0.945-0.315 1.92-0.614 2.17-0.663 0.25-0.05 0.58-0.14 0.733-0.2l0.279-0.109-0.309 0.0333c-0.491 0.0528-1.4 0.197-2.31 0.369-0.467 0.0872-1.23 0.224-1.69 0.304-0.735 0.128-3.2 0.715-3.88 0.927l-0.246 0.0758 0.017 0.303c0.0202 0.362-0.0071 0.376-0.612 0.325l-0.47-0.04-0.161 0.225c-0.161 0.226-0.573 0.399-1.34 0.561-0.938 0.199-5.04 1.74-7.86 2.95-2.51 1.08-6.77 3.31-8.63 4.51-0.185 0.12-0.553 0.357-0.818 0.527-0.265 0.17-0.565 0.37-0.667 0.445-0.102 0.0751-0.706 0.505-1.34 0.954s-1.34 0.961-1.55 1.14c-0.217 0.175-0.911 0.735-1.54 1.24-4.3 3.47-7.67 7.74-8.14 10.3-0.23 1.25 0.353 2.86 1.3 3.57 0.373 0.28 0.403 0.328 0.405 0.637 0.0015 0.327 0.44 1.39 0.668 1.61l0.175 0.175h0.881l0.365 0.234c0.222 0.143 0.678 0.313 1.16 0.436l0.799 0.202 5.09 0.106 0.386 0.163c0.428 0.181 0.962 0.183 1.14 4e-3zm-5.02-7.67c-0.155-0.108-0.403-0.488-0.403-0.617 0-0.0598 0.443-6e-3 0.633 0.077 0.1 0.0437 0.144 0.01 0.182-0.143 0.0471-0.188 0.188-0.284 0.188-0.129 0 0.039 0.0211 0.126 0.0468 0.193 0.033 0.086 0.0017 0.122-0.106 0.122h-0.153l-0.0494 0.309c-0.0548 0.343-0.0905 0.363-0.339 0.188zm-0.557-2.14c0-0.138 0.215-0.328 0.288-0.255 0.0644 0.0644-0.0707 0.295-0.198 0.337-0.05 0.0167-0.0909-0.0204-0.0909-0.0824zm28 1.38c1.43-0.356 3.18-0.773 3.88-0.928 0.7-0.155 1.72-0.385 2.28-0.512s1.4-0.311 1.89-0.411l0.887-0.181 0.469-1.84c0.258-1.01 0.704-2.68 0.991-3.7 0.287-1.02 0.728-2.58 0.979-3.47 0.651-2.31 0.969-3.41 1.3-4.51 0.161-0.53 0.403-1.35 0.536-1.81 0.134-0.467 0.313-1 0.397-1.19 0.0846-0.185 0.137-0.354 0.117-0.374-0.0439-0.0439-1.14 0.399-2.9 1.17-1.29 0.566-1.52 0.664-1.66 0.698-0.0424 0.0103-0.284 0.136-0.538 0.28l-0.461 0.261-0.215 0.885c-0.118 0.487-0.23 0.979-0.249 1.09-0.0184 0.114-0.0763 0.357-0.129 0.54-0.0523 0.183-0.0896 0.357-0.0829 0.386 0.0067 0.0294-0.408 1.71-0.922 3.74-0.514 2.03-0.951 3.76-0.971 3.86-0.0631 0.285-2.62 1.57-3.12 1.57-0.257 0-0.147-0.426 1.94-7.52 0.35-1.19 0.666-2.29 0.703-2.45 0.0368-0.157 0.14-0.48 0.229-0.719 0.219-0.585 0.297-0.599-1.52 0.255l-1.61 0.758-0.112 0.342c-0.19 0.581-1.53 4.37-1.97 5.55-1.04 2.82-1.36 3.72-1.62 4.46-0.152 0.437-0.548 1.53-0.881 2.43-0.333 0.899-0.629 1.71-0.658 1.81l-0.0536 0.174h0.238c0.131 0 1.41-0.291 2.84-0.647zm16.1 0.251c0.943-0.411 1.94-1.61 2.88-3.44 0.29-0.569 0.45-0.802 0.571-0.829 0.0921-0.0209 0.567-0.108 1.05-0.193 0.816-0.142 2.86-0.531 3.05-0.581 0.179-0.0462 1.19-3.72 1.53-5.55 1.11-5.99 0.187-9.27-2.66-9.43l-0.658-0.0377-0.653 0.165c-2.48 0.624-5.65 3.58-7.68 7.15-0.121 0.212-0.238 0.403-0.262 0.424-0.0233 0.0212-0.119 0.195-0.212 0.386-0.0936 0.191-0.36 0.7-0.592 1.13-0.232 0.431-0.401 0.805-0.376 0.829 0.0248 0.0248-0.0012 0.0451-0.0578 0.0451-0.0566 0-0.0796 0.0233-0.0512 0.0517s-3e-3 0.135-0.0698 0.237c-0.0668 0.102-0.135 0.244-0.15 0.315-0.0159 0.0711-0.156 0.477-0.31 0.901-0.284 0.778-1.58 5.51-1.58 5.76 0 0.172-0.153 0.187 1.37-0.136 0.712-0.151 1.69-0.359 2.17-0.46 1.07-0.224 0.965-0.127 1.24-1.2 1.2-4.74 4.05-8.62 5.44-7.4 1.68 1.47-1.49 10.3-4.15 11.6l-0.372 0.177-0.341-0.0468c-0.376-0.0515-0.434 0.0209-0.168 0.207 0.242 0.169 0.591 0.157 1.03-0.0349zm44.1-1.96c0.457-0.879 1.35-1.76 2.16-2.14l0.525-0.245 0.592-2.4e-4c0.641-2.7e-4 0.705-0.0661 0.198-0.203-1.1-0.296-2.64 0.633-3.34 2.01-0.246 0.485-0.503 1.2-0.495 1.38 3e-3 0.0676 0.0492-0.0159 0.103-0.186 0.0538-0.17 0.17-0.448 0.258-0.617zm-24.2-0.306c0.11-0.103 0.749-0.3 1.26-0.39 2.84-0.497 5.85-2.3 5.82-3.49l-6e-3 -0.215-0.13 0.27c-0.442 0.92-1.53 1.67-3.58 2.47-0.824 0.32-2.58 0.882-3.19 1.02l-0.319 0.0717-0.0471 0.285c-0.0789 0.477-0.0496 0.615 0.0632 0.299 0.0579-0.162 0.117-0.306 0.132-0.32zm-6.37 0.0754c0.896-0.446 2.02-1.87 2.96-3.74 0.213-0.424 0.408-0.77 0.433-0.77 0.116 0 2.43-0.406 2.88-0.504 0.276-0.0607 0.632-0.122 0.791-0.137 0.366-0.0338 0.322 0.0265 0.632-0.87 2.18-6.3 1.95-11.9-0.527-13.2l-0.394-0.208-1.77 8e-3 -0.502 0.177c-2.26 0.794-4.35 2.62-6.24 5.45-0.369 0.552-0.696 1.01-0.728 1.03-0.0318 0.0142-0.0579 0.0628-0.0579 0.108 0 0.0453-0.158 0.356-0.35 0.69l-0.35 0.607-0.0704 0.801c-0.0852 0.97-0.232 1.85-0.584 3.48-0.255 1.18-0.397 1.73-0.84 3.23-0.244 0.827-0.287 0.777 0.547 0.627 0.376-0.0679 1.08-0.194 1.57-0.279 1.06-0.186 0.874 7e-3 1.27-1.31 1.57-5.28 4.62-8.73 5.55-6.27l0.145 0.384-0.042 0.926c-0.126 2.77-1.92 7.1-3.67 8.84l-0.587 0.586-0.4 0.132c-0.268 0.0883-0.494 0.114-0.686 0.0781-0.348-0.0652-0.304 0.078 0.0731 0.242 0.345 0.15 0.508 0.136 0.944-0.0812zm13.4-6.13c0.417-0.0819 1.4-0.256 2.19-0.386s1.66-0.294 1.95-0.362l0.527-0.125-0.0498-0.202c-0.138-0.56-0.787-1.35-2.29-2.78-1.41-1.35-1.57-1.67-1.18-2.46 0.452-0.908 2.54-1.9 4.75-2.25l0.586-0.0939 0.28-1.21c0.154-0.664 0.387-1.68 0.518-2.25 0.315-1.38 0.586-2.39 0.813-3.03 0.102-0.289 0.186-0.54 0.186-0.559 0-0.0291-0.436 8e-3 -0.54 0.0462-0.0212 8e-3 -0.0733 0.0208-0.116 0.0289-0.0424 8e-3 -0.129 0.037-0.193 0.0642-0.244 0.104-0.926 0.279-0.926 0.237 0-0.0241-0.0521-6.4e-4 -0.116 0.0522-0.0637 0.0528-0.116 0.074-0.116 0.047s-0.13 5e-3 -0.289 0.0718c-0.159 0.0665-0.289 0.117-0.289 0.111 0-5e-3 -0.0868 0.0228-0.193 0.0623s-0.505 0.185-0.887 0.323c-3.11 1.13-5.85 3.03-7.28 5.07-0.262 0.374-0.524 0.742-0.583 0.818-0.0705 0.0926-0.109 0.388-0.117 0.887-0.0129 0.881-0.0159 0.911-0.288 2.91l-0.21 1.54 0.514 1.08 1.24 1.25c0.683 0.69 1.27 1.25 1.29 1.25 0.0287-1.7e-4 0.393-0.0673 0.81-0.149zm5.95-0.788 0.128-0.255 0.772-0.129c0.424-0.0709 1.6-0.275 2.62-0.455 1.02-0.179 2.62-0.457 3.55-0.618 4.43-0.763 5.02-0.874 5.1-0.954 0.124-0.123 2.18-6.5 2.5-7.76 0.092-0.361 0.377-1.4 0.633-2.3s0.452-1.66 0.436-1.67c-0.0165-0.0164-0.776 0.125-1.69 0.315-0.912 0.19-1.93 0.401-2.26 0.469-0.81 0.168-0.767 0.107-1.24 1.76-0.965 3.34-2.17 7.42-2.28 7.69l-0.0803 0.209-0.408 0.116c-1.23 0.351-2.39 0.6-2.46 0.53-0.0887-0.0887 0.166-0.928 1.67-5.5 1.42-4.33 1.37-4.21 1.82-4.72 0.559-0.643 0.581-0.645-1.21 0.104l-1.09 0.456-0.453 0.921c-0.367 0.745-0.646 1.13-0.646 0.887 0-0.108 0.481-1.79 0.58-2.02 0.0632-0.151 0.115-0.288 0.115-0.304 0-0.0778-0.363 1e-3 -1.38 0.3l-1.11 0.326-0.223 0.656c-0.123 0.361-0.465 1.44-0.762 2.39-0.81 2.61-1 3.19-1.07 3.28-0.0612 0.0757-0.64 1.98-1.47 4.85-0.442 1.52-0.484 2.22-0.0872 1.43zm16.6-3c0.609-0.091 1.18-0.179 1.27-0.197 0.108-0.0209 0.204-0.141 0.285-0.361 0.0672-0.181 0.416-1.15 0.776-2.14 2.59-7.18 3.46-9.55 3.86-10.5 0.335-0.822 0.334-0.813 0.0906-0.813-0.386 0-6.29 0.846-6.81 0.977l-0.174 0.0433v0.921l0.251-0.0607c0.138-0.0334 0.372-0.0622 0.521-0.064l0.27-3e-3 -0.01 0.193c-5e-3 0.106-0.307 1.67-0.669 3.47-0.629 3.13-0.975 4.76-1.56 7.39-0.145 0.646-0.264 1.23-0.264 1.3v0.128l0.533-0.0447c0.293-0.0246 1.03-0.119 1.64-0.21zm-71.5-5.83c0.0815-0.0815 0.0866-0.114 0.0178-0.114-0.14 0-0.631 0.215-0.631 0.276 0 0.0888 0.493-0.0412 0.614-0.162zm-19.9 36c-4.83-0.658-8.87-2.15-11.5-4.26-0.663-0.526-2.01-1.88-2.18-2.18l-0.1-0.187 0.159 0.114c3.36 2.41 7.7 4.37 13.6 6.11 1.87 0.554 1.89 0.653 0.0772 0.407zm51.2-0.791c0.129-0.135 3.87-0.838 6.4-1.2 4.38-0.633 16.1-1.62 15.9-1.32-0.0838 0.0836-7.65 1.2-10.8 1.59-4.85 0.603-11.7 1.16-11.5 0.941zm10.6-3.6c0.0386-0.0386 3.89-0.805 6.01-1.19 4-0.738 8.75-1.35 12.9-1.65 1.36-0.101 2.06-0.0702 1.42 0.0609-2.08 0.424-9.08 1.5-12.8 1.97-6.47 0.815-7.64 0.942-7.51 0.815zm11.1-4.91c0.679-0.316 11-2.42 14.8-3 4-0.619 8.93-1.13 8.7-0.894-0.0805 0.0805-4.56 0.955-8.67 1.69-5.57 0.999-14 2.3-14.8 2.28l-0.199-5e-3zm21.2-9.25c0-0.0375 0.0608-0.0852 0.135-0.106 2.11-0.591 3.11-0.771 5.24-0.94 0.514-0.0407 0.827 0.0454 0.507 0.14-1.74 0.514-5.88 1.15-5.88 0.906zm0.779-4.71c0.416-0.267 2.51-0.649 3.35-0.611l0.54 0.0243-0.562 0.178c-1.02 0.323-3.71 0.653-3.33 0.409zm0.525-2.53c0.953-0.415 4.63-1.01 4.01-0.643-0.435 0.254-3.06 0.775-3.85 0.764l-0.424-6e-3zm-101-4.08c3.66-3.46 13.2-8.66 21-11.5 3.48-1.25 4.81-1.57 2.41-0.584-9.09 3.75-17.8 8.25-23.1 12-0.667 0.467-0.747 0.486-0.309 0.0728zm57.2-13.4c0.18-0.169 4.08-1.37 6.01-1.85 2.58-0.643 9.71-1.86 9.11-1.55-0.316 0.159-8.05 2.02-10.9 2.62-1.61 0.341-3.16 0.672-3.45 0.736-0.588 0.131-0.901 0.149-0.791 0.0461zm-25.6-0.618c0-0.16 4.13-1.59 6.91-2.39 5.69-1.64 14.1-2.95 22.3-3.44 0.403-0.0246 0.933-0.0629 1.18-0.0852 0.872-0.0797 0.426 0.104-0.656 0.27-2.66 0.407-6.73 1.09-10.7 1.79-3.23 0.573-11.9 2.34-15 3.04-3.37 0.777-4.05 0.914-4.05 0.818zm39-0.312c0.412-0.241 7.45-2.07 10.1-2.62 3.03-0.633 7.45-1.35 9.99-1.62 3.36-0.356 3.44-0.289 0.386 0.328-1.17 0.236-3.93 0.795-6.13 1.24-6.64 1.35-13.9 2.74-14.3 2.74l-0.139-2e-3zm-3.89-2.7c0.285-0.28 4.29-1.44 6.52-1.89 2.18-0.439 7.46-1.1 9.84-1.24 1.22-0.0691 0.729 0.0636-2.12 0.578-1.42 0.256-3.37 0.619-4.32 0.807-2.46 0.482-4.38 0.846-5.94 1.12-0.743 0.132-1.63 0.291-1.97 0.351-0.34 0.0607-0.868 0.162-1.17 0.225-0.644 0.133-0.936 0.148-0.829 0.0427z" fill="#00a5f4"/><path d="m76.2 198c-4.29-0.21-13-1.23-12.4-1.45 0.284-0.102 10.5-0.04 11.4 0.069 1.18 0.147 8.67 0.155 10.5 0.0117 0.721-0.0568 1.68-0.119 2.12-0.138 0.982-0.0423 1.16-0.0757 1.16-0.22 0-0.28 0.451-0.34 0.887-0.117 0.345 0.176 0.965 0.2 2.04 0.0804 0.364-0.0406 1.13-0.112 1.7-0.16 1.27-0.104 2.09-0.222 2.21-0.315 0.0468-0.038 0.238-0.0558 0.424-0.0395l0.339 0.0297-0.463-0.116 0.193-0.0234c0.305-0.0369-1.76-0.132-3.2-0.147-0.721-8e-3 -1.57-0.0451-1.89-0.0832-0.318-0.0381-1.2-0.122-1.97-0.186-5-0.42-7.9-1.05-7.27-1.57 0.421-0.349 5.67-2.24 7.63-2.75 4.62-1.2 7.54-1.91 9.02-2.21 0.403-0.0808 1.31-0.267 2.01-0.414 1.85-0.388 7.15-1.47 8.72-1.78 1.74-0.343 2.47-0.508 2.47-0.554 0-0.0202-0.148-0.0179-0.328 5e-3 -0.18 0.023-0.762 0.094-1.29 0.158-1.47 0.176-5.76 0.71-7.79 0.97-0.997 0.127-2.37 0.302-3.05 0.388-0.679 0.0865-1.69 0.223-2.24 0.302-1.72 0.249-3.37 0.456-4.01 0.505-0.34 0.0255-1.1 0.131-1.7 0.235-1.33 0.232-3.57 0.558-6.91 1-0.488 0.0653-1.53 0.236-2.31 0.379-2.64 0.482-3.1 0.528-5.44 0.537l-2.16 8e-3 -1.22 0.675c-0.671 0.371-1.28 0.714-1.36 0.762-0.363 0.227-0.462-0.148-0.197-0.747 0.179-0.405 0.211-0.632 0.101-0.723-0.475-0.393-0.615-0.473-0.823-0.473-0.259 0-0.386 0.113-0.205 0.182 0.386 0.148 0.0696 0.222-0.73 0.172l-0.845-0.0535-0.226 0.117c-0.124 0.0643-0.338 0.211-0.475 0.327-0.529 0.445-1.89 1.22-2.01 1.14-0.0513-0.0317-0.0695-0.16-0.0445-0.314 0.0232-0.143 0.0278-0.26 0.0102-0.26-0.082 0-1.85 0.951-2.54 1.37-1.41 0.848-4.94 2.93-5.11 3.02-0.333 0.173-0.357 0.129-0.306-0.549 0.0265-0.35 0.0868-1.45 0.134-2.46l0.0858-1.82-0.224-0.663-0.293 0.314-0.656-0.112c-2.18-0.372-2.86-0.533-4.9-1.16-2.37-0.729-4.22-1.47-5.85-2.34-0.995-0.532-1.1-0.653-0.321-0.386 1.53 0.528 4.47 1.34 6.28 1.72 0.488 0.105 1.32 0.293 1.85 0.419 0.53 0.126 1.23 0.287 1.56 0.358 0.33 0.0712 0.581 0.158 0.56 0.193-0.0796 0.129 0.238 0.16 1.09 0.109l0.878-0.0525 0.0636-0.124c0.123-0.238 0.178-1.6 0.0682-1.68-0.0551-0.0419-0.449-0.118-0.875-0.169-8.37-1-14.8-3.76-16.5-7.11-3.32-6.44 8.23-17.7 25.2-24.6 6.19-2.52 13.9-4.72 19.4-5.56 1.92-0.291 4.46-0.703 5.94-0.965 3.28-0.579 12.7-1.65 12.7-1.44 0 0.0241-0.339 0.119-0.752 0.211-9.69 2.15-18.9 4.82-23.9 6.9-2.72 1.14-3.89 1.71-6.56 3.2-0.509 0.284-1.24 0.684-1.62 0.889-3.43 1.84-6.5 3.9-3.61 2.43 1.44-0.731 5.58-2.74 5.8-2.81 0.287-0.091 0.216 0.0444-0.878 1.69-0.578 0.867-1.04 1.61-1.02 1.66 0.0216 0.0648 2.32-0.977 3.61-1.64l0.191-0.0974 0.181-0.654c0.0993-0.36 0.222-0.694 0.272-0.742 0.351-0.336 10.9-4.76 11.1-4.63 0.03 0.03-0.286 0.715-0.703 1.52-0.417 0.807-0.737 1.49-0.712 1.51 0.0517 0.0517 0.0251 0.0619 2.22-0.855 0.877-0.366 1.64-0.647 1.7-0.624 0.196 0.0753 3.51-1.41 4.92-2.21 0.746-0.42 1.68-0.89 2.08-1.04 1.09-0.421 3.55-1.2 3.69-1.17 0.122 0.0265-1.77 0.981-2.48 1.25l-0.364 0.138-0.116 0.319c-0.207 0.569-0.97 3.29-0.97 3.47v0.166l0.405-0.39c1.99-1.92 4.2-3.11 6.25-3.36l0.719-0.0883 0.614 0.125c1.59 0.324 2.93 1.5 3.51 3.07 0.247 0.677 0.244 0.676 0.664 0.171 4.4-5.3 10.2-6.48 12.2-2.47 0.337 0.685 0.289 0.683 1.02 0.0488 1.89-1.63 4.96-3.2 8.28-4.22 1.72-0.529 4.57-1.22 4.67-1.13 0.0455 0.0455-0.0702 0.547-0.31 1.34-0.21 0.698-0.382 1.28-0.382 1.29 0 0.0742 0.459-0.0317 2.24-0.517 2.29-0.624 2.11-0.594 2.06-0.347-0.0505 0.264 0.0244 0.256 1.38-0.149 1.81-0.539 2.89-0.831 2.93-0.788 0.0214 0.0214-0.102 0.275-0.275 0.563-0.399 0.667-0.367 0.688 0.679 0.462 1.06-0.229 1.01-0.177 1.06-1.06 0.025-0.399 0.0725-0.798 0.106-0.888l0.0603-0.163 0.565-0.0864c0.311-0.0475 1.68-0.275 3.03-0.506 2.28-0.387 6.13-0.964 7.27-1.09l0.482-0.0526v0.147c0 0.0808-0.471 1.41-1.05 2.96-1.02 2.74-2.8 7.63-4.77 13.1-0.536 1.49-1.28 3.6-1.65 4.71l-0.676 2.01-0.411 0.0898c-0.536 0.117-0.532 0.107-0.207 0.532 2.39 3.14-0.658 8.66-4.7 8.51l-0.788-0.0292-0.586-0.29c-0.428-0.211-0.699-0.415-1-0.751-0.504-0.557-0.377-0.554-1.88-0.0435-1.8 0.613-2.46 0.859-4.88 1.82-1.2 0.477-2.21 0.845-2.23 0.818-0.0268-0.0268 0.0326-0.317 0.132-0.645 0.232-0.765 0.274-1.02 0.169-1.02-0.17 0-3.52 1.16-5.64 1.96-1.2 0.452-2.22 0.793-2.25 0.758-0.035-0.035 0.0205-0.322 0.123-0.639 0.54-1.66 0.898-2.87 0.861-2.91-0.0232-0.0232-0.451 0.167-0.95 0.424-1.05 0.54-1.89 0.908-4.18 1.83-0.911 0.368-2.68 1.1-3.92 1.63-1.25 0.532-2.3 0.937-2.33 0.901-0.0362-0.0362 0.0561-0.62 0.205-1.3 0.463-2.11 0.481-2.04-0.356-1.31-1.66 1.45-3.6 2.39-5.32 2.6l-0.747 0.0876-0.669-0.123c-0.969-0.178-1.59-0.507-2.29-1.21l-0.581-0.583-0.37-0.762c-0.204-0.419-0.398-0.731-0.433-0.694-0.0344 0.0369-0.351 0.432-0.703 0.877-3.33 4.21-7.46 6.01-10.5 4.58l-0.607-0.285-0.429-0.488c-0.573-0.653-0.609-0.641-0.7 0.226l-0.0478 0.457-0.162 0.0677c-2.12 0.887-6.01 2.75-5.95 2.85 0.028 0.0454 0.217 0.0618 0.449 0.0391 0.22-0.0216 1.34-0.127 2.48-0.233 1.15-0.107 2.4-0.228 2.78-0.27 0.382-0.042 1.51-0.144 2.51-0.228 0.998-0.0832 2.2-0.204 2.66-0.268 0.466-0.0641 1.14-0.15 1.5-0.191 1.54-0.176 5.77-0.72 6.94-0.893 0.7-0.103 1.92-0.259 2.7-0.346 0.785-0.0871 1.9-0.226 2.47-0.309 1.41-0.204 3.57-0.465 3.79-0.457l0.179 6e-3 -0.193 0.0682c-0.106 0.0375-0.974 0.192-1.93 0.344-0.955 0.152-2.17 0.36-2.7 0.462-0.53 0.102-1.88 0.363-3.01 0.579-1.12 0.216-2.34 0.476-2.7 0.576-0.361 0.1-1.16 0.293-1.77 0.428-2.4 0.527-5.17 1.28-5.17 1.4 0 0.149 2.6-0.14 6.94-0.775 6.95-1.01 21.1-2.73 22.3-2.7l0.231 4e-3 -0.173 0.0697c-0.0954 0.0383-1.4 0.298-2.89 0.578-8.5 1.59-19.2 4.17-25.4 6.13-2.53 0.799-6.46 2.23-6.56 2.39-0.0689 0.112 0.041 0.139 1.21 0.303 4.09 0.574 10.6 0.628 18.9 0.157 1.49-0.0838 3.07-0.187 3.51-0.229 0.446-0.042 0.897-0.0735 1-0.0701l0.193 6e-3 -0.262 0.114c-0.296 0.129-3.68 0.964-5.72 1.41-6.18 1.36-13.7 2.36-21.3 2.83-2.31 0.142-8.46 0.205-10.5 0.107zm-12-8.12c0.637-0.379 1.17-0.7 1.18-0.713 0.0144-0.0136 0.262-0.73 0.55-1.59 0.288-0.863 0.897-2.61 1.35-3.88 0.456-1.27 0.996-2.78 1.2-3.36 0.983-2.76 1.23-3.43 1.32-3.51 0.165-0.155 0.0106 1.76-0.633 7.85-0.175 1.66-0.287 3.03-0.251 3.06 0.0364 0.0348 0.535-0.216 1.11-0.558 0.573-0.341 1.58-0.916 2.24-1.28 1.48-0.811 1.42-0.759 1.66-1.51 0.917-2.98 2.95-8.65 5.33-14.9 0.857-2.24 3.1-8.37 3.67-10 0.29-0.845 0.542-1.41 0.858-1.94 0.567-0.943 0.565-0.951-0.151-0.647-1.35 0.572-3.3 1.44-4.5 2.01l-1.28 0.603-0.6 2.01c-0.33 1.11-0.836 2.78-1.12 3.71-0.288 0.934-0.962 3.15-1.5 4.93-1.06 3.52-1.12 3.68-1.12 3.11-3e-3 -0.477 0.33-4.02 0.579-6.15 0.501-4.3 0.555-4.83 0.499-4.89-0.0564-0.061-3.09 1.48-3.3 1.68-0.0881 0.0829-0.804 1.89-2.46 6.22-0.794 2.07-2.08 5.56-2.26 6.11-0.154 0.482-0.267 0.452-0.207-0.0555 0.0694-0.59 0.803-4.72 1.75-9.84l0.476-2.58 0.394-0.54c0.742-1.02 0.857-1.19 0.809-1.24-0.116-0.116-9.73 5.33-9.9 5.61-0.026 0.0421 0.323 0.0714 0.853 0.0714 0.505 0 0.966 0.0371 1.06 0.0849l0.159 0.0849-0.0503 0.783c-0.0276 0.431-0.084 1.25-0.125 1.82-0.115 1.61-0.373 5.61-0.498 7.75-0.062 1.06-0.2 3.4-0.306 5.21-0.435 7.37-0.5 8.59-0.463 8.65 0.0215 0.0347 0.602-0.288 1.29-0.718 0.689-0.43 1.77-1.09 2.41-1.47zm-7.6-0.0578c0-0.113-0.182-0.168-0.437-0.134l-0.219 0.0298 0.193 0.0868c0.247 0.111 0.463 0.119 0.463 0.017zm14.8-0.12c0.885-0.161 0.882-0.159 1.03-0.774 0.182-0.777 0.195-0.779-1.47 0.182-1.3 0.748-1.19 0.891 0.449 0.592zm-17.2-0.687c0.561-0.234 0.511-0.257-1.03-0.46-0.446-0.059-1-0.158-1.23-0.219-0.233-0.0617-0.581-0.134-0.772-0.161l-0.347-0.0489 0.579 0.222c1.81 0.697 2.4 0.836 2.8 0.667zm21.3-1.67c0.467-0.257 1.55-0.833 2.41-1.28 1.96-1.02 1.8-0.858 2.09-2.11 0.132-0.573 0.632-2.62 1.11-4.54l0.87-3.5 0.163-0.107c0.212-0.139 2.31-1.1 2.63-1.2 0.463-0.152 0.523-0.472-0.947 5.04-0.481 1.8-0.998 3.73-1.15 4.27-0.15 0.547-0.256 1.02-0.236 1.05 0.0205 0.0332 0.879-0.348 1.91-0.847 1.03-0.499 2.22-1.06 2.64-1.24 0.912-0.398 1.02-0.475 1.08-0.795 0.0986-0.475 0.959-4.37 1.45-6.57 0.643-2.87 1.49-6.29 2.06-8.29 0.246-0.87 0.714-2.54 1.04-3.7 0.676-2.42 1.2-4.2 1.96-6.75 0.294-0.976 0.519-1.79 0.502-1.81-0.0803-0.0826-5.66 2.39-5.66 2.5 0 0.548-2.59 10.6-2.77 10.8-0.261 0.22-2.79 1.26-2.87 1.18-0.071-0.071 0.499-2.15 1.85-6.74 1.44-4.89 1.37-4.51 0.836-4.26-2.51 1.19-3.05 1.47-3.09 1.6-0.065 0.223-1.72 4.8-2.65 7.32-0.452 1.23-0.919 2.52-1.04 2.85s-0.529 1.49-0.914 2.55c-1.75 4.83-2.14 6.02-2.53 7.67-0.154 0.662-0.607 2.53-1.01 4.15-0.704 2.86-0.789 3.27-0.668 3.27 0.0318-2.7e-4 0.44-0.211 0.907-0.468zm-16.6-4.94c0.113-0.113 0.318-0.53 0.398-0.808 0.0256-0.0896 0.0626-1.13 0.0823-2.31 0.039-2.34 0.052-2.27-0.409-2.27-1.17-5e-3 -5.02-1.18-5.41-1.65l-0.103-0.124 0.299-0.127c0.314-0.134 1.25-0.346 2.34-0.531 0.358-0.0608 0.826-0.161 1.04-0.222 0.215-0.0614 0.617-0.154 0.893-0.205 0.999-0.186 0.821-0.251-0.93-0.337-1.65-0.0813-2.21-0.27-2.99-0.997l-0.405-0.381 9.16e-4 -0.317c0.0017-0.601 0.398-1.63 0.92-2.4 0.0868-0.127 0.158-0.289 0.158-0.36 2.8e-4 -0.0708 0.116-0.2 0.258-0.288 0.142-0.0875 0.422-0.369 0.624-0.626 0.458-0.583 1.27-1.4 2.2-2.2 0.392-0.34 0.799-0.73 0.904-0.867 0.105-0.137 0.459-0.455 0.786-0.706 0.327-0.251 0.942-0.754 1.37-1.12 0.424-0.364 1.05-0.848 1.39-1.08 0.34-0.227 0.756-0.553 0.926-0.723 0.17-0.17 0.429-0.372 0.576-0.447 0.147-0.0757 0.483-0.298 0.747-0.494 0.798-0.592 1.11-0.81 1.45-1.01 0.473-0.279 0.556-0.363 0.606-0.613 0.0486-0.243 0.303-0.379 0.462-0.247 0.123 0.102 0.539-0.0904 1.21-0.557 0.276-0.192 0.756-0.495 1.07-0.673s0.659-0.401 0.772-0.495c0.113-0.0942 0.327-0.233 0.475-0.309 0.149-0.0755 0.345-0.211 0.436-0.302 0.0914-0.0904 0.352-0.23 0.579-0.311 0.227-0.0809 1.21-0.492 2.19-0.912 3.76-1.62 5.18-2.19 7.05-2.84 0.482-0.168 1.17-0.442 1.52-0.61 0.355-0.168 0.681-0.306 0.724-0.306 0.0429 0 0.851-0.258 1.8-0.573 0.945-0.315 1.92-0.614 2.17-0.663 0.25-0.05 0.58-0.14 0.733-0.2l0.279-0.109-0.309 0.0333c-0.491 0.0528-1.4 0.197-2.31 0.369-0.467 0.0872-1.23 0.224-1.69 0.304-0.735 0.128-3.2 0.715-3.88 0.927l-0.246 0.0758 0.017 0.303c0.0202 0.362-0.0071 0.376-0.612 0.325l-0.47-0.04-0.161 0.225c-0.161 0.226-0.573 0.399-1.34 0.561-0.938 0.199-5.04 1.74-7.86 2.95-2.51 1.08-6.77 3.31-8.63 4.51-0.185 0.12-0.553 0.357-0.818 0.527-0.265 0.17-0.565 0.37-0.667 0.445-0.102 0.0751-0.706 0.505-1.34 0.954s-1.34 0.961-1.55 1.14c-0.217 0.175-0.911 0.735-1.54 1.24-4.3 3.47-7.67 7.74-8.14 10.3-0.23 1.25 0.353 2.86 1.3 3.57 0.373 0.28 0.403 0.328 0.405 0.637 0.0015 0.327 0.44 1.39 0.668 1.61l0.175 0.175h0.881l0.365 0.234c0.222 0.143 0.678 0.313 1.16 0.436l0.799 0.202 5.09 0.106 0.386 0.163c0.428 0.181 0.962 0.183 1.14 4e-3zm-5.02-7.67c-0.155-0.108-0.403-0.488-0.403-0.617 0-0.0598 0.443-6e-3 0.633 0.077 0.1 0.0437 0.144 0.01 0.182-0.143 0.0471-0.188 0.188-0.284 0.188-0.129 0 0.039 0.0211 0.126 0.0468 0.193 0.033 0.086 0.0017 0.122-0.106 0.122h-0.153l-0.0494 0.309c-0.0548 0.343-0.0905 0.363-0.339 0.188zm-0.557-2.14c0-0.138 0.215-0.328 0.288-0.255 0.0644 0.0644-0.0707 0.295-0.198 0.337-0.05 0.0167-0.0909-0.0204-0.0909-0.0824zm42.1 9.49c3.51-1.19 6.97-5.56 9.28-11.7 1.52-4.06 2.32-7.83 2.33-11l3e-3 -1.54-0.164-0.694c-0.341-1.44-0.966-2.36-1.89-2.78l-0.485-0.221-1.62-6e-3 -0.579 0.18c-2.96 0.921-6.17 4.35-8.59 9.17-1.11 2.21-2.02 5.18-3.14 10.2-1.29 5.85 0.936 9.68 4.86 8.35zm0.732-8.33c-0.369-0.369-0.449-0.758-0.402-1.94l0.0404-1 0.273-1.05c1.03-3.98 3.25-7.5 4.73-7.51l0.323-3e-3 0.225 0.216c1.34 1.29-0.71 8.13-3.21 10.7-0.861 0.88-1.51 1.08-1.98 0.61zm12.5 5.8c2.84-0.871 5.68-3.93 8.01-8.63 4.06-8.2 4.74-17 1.4-18.2-2.89-1.08-7.09 1.96-10.1 7.28l-0.387 0.694-0.169 1.2c-0.544 3.85-1.74 7.96-3.29 11.3l-0.286 0.617 0.0429 1.12c0.144 3.75 1.92 5.48 4.74 4.62zm1.13-7.82c-1.97-0.859 1.32-10.4 3.94-11.3l0.375-0.142 0.318 0.11c0.246 0.0853 0.362 0.189 0.512 0.458l0.194 0.347-0.01 1.93-0.212 0.912c-1.02 4.4-3.65 8.37-5.12 7.73zm6.69 6.66c0.4-0.174 1.33-0.554 2.08-0.843 6.63-2.58 9.68-5.1 10.6-8.78 0.692-2.7 0.202-4.1-2.3-6.57-1.64-1.62-1.78-1.91-1.34-2.66 0.482-0.822 2.64-1.78 4.74-2.11 0.271-0.0426 0.508-0.0929 0.527-0.112 0.019-0.019 0.288-1.14 0.599-2.49 0.31-1.35 0.689-2.89 0.843-3.43 0.318-1.11 0.344-1.34 0.143-1.28-4.43 1.25-6.42 2.14-8.55 3.79-1.17 0.908-2.97 3.04-2.97 3.51-1e-3 0.441-0.262 2.79-0.423 3.82l-0.193 1.23 0.265 0.548c0.313 0.647 0.879 1.3 2.18 2.52 1.1 1.03 1.28 1.25 1.42 1.74l0.0996 0.356-0.0947 0.354c-0.314 1.18-2.52 2.4-6.03 3.33-1.14 0.303-1.13 0.3-1.2 0.715-0.0615 0.389-1.16 5.83-1.31 6.52-0.0547 0.242 0.0502 0.225 0.896-0.143zm11-1.25c0.604-0.228 1.69-0.596 2.41-0.819 1.51-0.467 1.46-0.435 1.58-0.911 0.0697-0.279 1.49-4.96 2.19-7.23l0.0956-0.309 1.37-0.459c1.64-0.55 1.61-0.559 1.3 0.428-0.127 0.399-0.455 1.45-0.73 2.35-0.275 0.891-0.816 2.62-1.2 3.85-0.385 1.23-0.701 2.26-0.701 2.3 0 0.116 0.18 0.07 1.04-0.27 0.467-0.184 1.5-0.551 2.29-0.815 1.67-0.557 1.51-0.423 1.86-1.55 0.149-0.488 0.818-2.57 1.49-4.63 0.67-2.06 1.57-4.87 2.01-6.25s1-3.15 1.26-3.94c0.729-2.24 1.07-3.37 1.29-4.24 0.111-0.446 0.371-1.4 0.577-2.12s0.386-1.38 0.4-1.47l0.0243-0.154-0.231 0.0225c-1 0.0976-4.65 0.962-4.7 1.11-0.0174 0.0537-0.611 2.08-1.32 4.5-0.708 2.42-1.33 4.51-1.39 4.64l-0.0985 0.239-1.33 0.327c-0.73 0.18-1.35 0.307-1.37 0.283-0.0654-0.0654 0.139-0.731 1.64-5.33l1.36-4.17 0.457-0.594c0.494-0.643 0.513-0.679 0.346-0.679-0.105 0-1.93 0.751-2.51 1.04l-0.272 0.132-0.343 0.669c-0.414 0.806-0.485 0.687-0.189-0.318 0.115-0.391 0.227-0.794 0.249-0.897l0.0404-0.186-0.141 0.054c-0.0774 0.0297-0.647 0.196-1.27 0.37-1.47 0.412-1.13-0.142-2.44 4.08-0.4 1.3-0.795 2.51-0.878 2.7-0.083 0.189-0.538 1.66-1.01 3.26l-0.859 2.92 0.12 0.581c0.422 2.04-0.288 4.69-1.8 6.71-0.393 0.527-0.564 0.833-0.664 1.2-0.0743 0.268-0.357 1.24-0.629 2.15-0.483 1.63-0.536 1.84-0.454 1.84 0.0219 0 0.534-0.186 1.14-0.414zm16.4-1.39c2.35-1.15 3.31-4.74 1.6-5.95l-0.331-0.233-1.11-0.0548-0.447 0.168c-3.13 1.18-3.75 6.42-0.749 6.31l0.579-0.0217zm0.0839-8.1c0.255-0.0639 0.897-0.19 1.43-0.281 0.918-0.157 1.16-0.238 1.16-0.392 0-0.0959 1.21-3.51 2.26-6.39 0.489-1.34 1.31-3.61 1.83-5.05s1.34-3.68 1.82-4.97c0.932-2.49 0.951-2.56 0.742-2.55-0.518 5e-3 -7.04 0.981-7.13 1.07-0.0452 0.0444-0.0905 0.636-0.0705 0.92 5e-3 0.0718 0.116 0.0843 0.427 0.0478 0.231-0.0271 0.469-0.0306 0.528-8e-3l0.109 0.0417-0.639 3.15c-0.744 3.67-1.79 8.39-2.61 11.8-0.627 2.61-0.662 2.82-0.447 2.76 0.0743-0.0218 0.343-0.092 0.598-0.156zm-68.7-11.4c0.0815-0.0815 0.0866-0.114 0.0178-0.114-0.14 0-0.631 0.215-0.631 0.276 0 0.0888 0.493-0.0412 0.614-0.162zm-19.9 36c-4.83-0.658-8.87-2.15-11.5-4.26-0.663-0.526-2.01-1.88-2.18-2.18l-0.1-0.187 0.159 0.114c3.36 2.41 7.7 4.37 13.6 6.11 1.87 0.554 1.89 0.653 0.0772 0.407zm51.2-0.791c0.129-0.135 3.87-0.838 6.4-1.2 4.38-0.633 16.1-1.62 15.9-1.32-0.0838 0.0836-7.65 1.2-10.8 1.59-4.85 0.603-11.7 1.16-11.5 0.941zm10.6-3.6c0.0386-0.0386 3.89-0.805 6.01-1.19 4-0.738 8.75-1.35 12.9-1.65 1.36-0.101 2.06-0.0702 1.42 0.0609-2.08 0.424-9.08 1.5-12.8 1.97-6.47 0.815-7.64 0.942-7.51 0.815zm11.1-4.91c0.679-0.316 11-2.42 14.8-3 4-0.619 8.93-1.13 8.7-0.894-0.0805 0.0805-4.56 0.955-8.67 1.69-5.57 0.999-14 2.3-14.8 2.28l-0.199-5e-3zm21.2-9.25c0-0.0375 0.0608-0.0852 0.135-0.106 2.11-0.591 3.11-0.771 5.24-0.94 0.514-0.0407 0.827 0.0454 0.507 0.14-1.74 0.514-5.88 1.15-5.88 0.906zm0.779-4.71c0.416-0.267 2.51-0.649 3.35-0.611l0.54 0.0243-0.562 0.178c-1.02 0.323-3.71 0.653-3.33 0.409zm0.525-2.53c0.953-0.415 4.63-1.01 4.01-0.643-0.435 0.254-3.06 0.775-3.85 0.764l-0.424-6e-3zm-101-4.08c3.66-3.46 13.2-8.66 21-11.5 3.48-1.25 4.81-1.57 2.41-0.584-9.09 3.75-17.8 8.25-23.1 12-0.667 0.467-0.747 0.486-0.309 0.0728zm57.2-13.4c0.18-0.169 4.08-1.37 6.01-1.85 2.58-0.643 9.71-1.86 9.11-1.55-0.316 0.159-8.05 2.02-10.9 2.62-1.61 0.341-3.16 0.672-3.45 0.736-0.588 0.131-0.901 0.149-0.791 0.0461zm-25.6-0.618c0-0.16 4.13-1.59 6.91-2.39 5.69-1.64 14.1-2.95 22.3-3.44 0.403-0.0246 0.933-0.0629 1.18-0.0852 0.872-0.0797 0.426 0.104-0.656 0.27-2.66 0.407-6.73 1.09-10.7 1.79-3.23 0.573-11.9 2.34-15 3.04-3.37 0.777-4.05 0.914-4.05 0.818zm39-0.312c0.412-0.241 7.45-2.07 10.1-2.62 3.03-0.633 7.45-1.35 9.99-1.62 3.36-0.356 3.44-0.289 0.386 0.328-1.17 0.236-3.93 0.795-6.13 1.24-6.64 1.35-13.9 2.74-14.3 2.74l-0.139-2e-3zm-3.89-2.7c0.285-0.28 4.29-1.44 6.52-1.89 2.18-0.439 7.46-1.1 9.84-1.24 1.22-0.0691 0.729 0.0636-2.12 0.578-1.42 0.256-3.37 0.619-4.32 0.807-2.46 0.482-4.38 0.846-5.94 1.12-0.743 0.132-1.63 0.291-1.97 0.351-0.34 0.0607-0.868 0.162-1.17 0.225-0.644 0.133-0.936 0.148-0.829 0.0427z" fill="#636465"/><path d="m78.2 198c-3.45-0.0693-7.4-0.401-11.3-0.951-0.907-0.127-1.68-0.231-1.72-0.231-0.0368 0-0.0669-0.0284-0.0669-0.0631 0-0.087 7.8-0.0342 9.39 0.0636 6.88 0.423 17-0.0207 24.6-1.08 0.594-0.0827 1.23-0.17 1.41-0.194 0.922-0.124 0.126-0.189-2.35-0.193-7.49-0.0108-13.7-0.52-15.6-1.28-0.569-0.228-0.591-0.275-0.2-0.437 0.159-0.0661 0.55-0.228 0.868-0.361 2.01-0.836 4.96-1.82 7.06-2.35 0.764-0.194 1.84-0.473 2.39-0.619 1.65-0.436 4.73-1.16 6.75-1.58 1.04-0.216 2.19-0.461 2.55-0.543 0.748-0.171 7.23-1.5 8.1-1.66 3.24-0.597 4.52-0.954 3.09-0.86-0.403 0.0265-0.976 0.064-1.27 0.0833-1.73 0.112 3.92-0.58 10.1-1.24 0.805-0.0857 0.424 0.0305-0.89 0.272-2.24 0.412-3.25 0.607-4.36 0.844-0.594 0.127-1.65 0.354-2.35 0.504-6.82 1.46-14.5 3.44-19.4 4.99-2.6 0.83-5.9 2.05-6.14 2.27l-0.1 0.0925 0.109 0.0904c0.183 0.152 2.73 0.469 5.07 0.63 3.98 0.274 12.6 0.0791 18.7-0.421l0.424-0.035-0.347 0.115c-0.78 0.259-5.08 1.25-7.35 1.69-7.61 1.48-19.1 2.61-25.3 2.49-0.488-9e-3 -1.32-0.0247-1.85-0.0353zm-19.6-2.85c0.041-0.459 0.137-2.51 0.239-5.12 0.0158-0.403 0.0713-1.14 0.123-1.64 0.113-1.08 0.104-1.1-0.562-1.17-8.56-0.931-15.5-3.97-17-7.41-2.83-6.7 10.1-18.6 27.1-24.9 2.09-0.775 3.72-1.35 4.94-1.73 0.764-0.239 1.82-0.569 2.35-0.735 0.53-0.166 1.17-0.351 1.43-0.413 0.255-0.0614 0.909-0.236 1.46-0.388 1.27-0.354 2.9-0.743 4.56-1.09 1.29-0.267 2.01-0.39 3.7-0.628 0.467-0.0656 2.15-0.342 3.74-0.614 4.27-0.73 8.41-1.26 12.6-1.61l0.439-0.0373-0.27 0.0739c-0.149 0.0406-1.09 0.264-2.08 0.496-6.76 1.57-11.3 2.84-15.9 4.37-2.58 0.87-2.91 0.945-1.64 0.371 0.952-0.431 1.04-0.482 1.08-0.591 0.048-0.145-0.372-0.12-0.887 0.0519-0.244 0.0816-0.77 0.24-1.17 0.352-0.399 0.112-0.92 0.301-1.16 0.421-0.238 0.119-0.849 0.374-1.36 0.565-0.97 0.365-1.8 0.73-3.47 1.52-0.552 0.262-1.33 0.609-1.74 0.771-1.04 0.418-1.16 0.477-1.16 0.586 0 0.111 0.75 0.23 1.02 0.16l0.167-0.0436-0.109 0.0992c-0.286 0.26-2.44 1.38-2.91 1.51-0.66 0.184-2.73 0.875-3.51 1.17-0.912 0.347-2.92 0.998-2.96 0.959-0.0597-0.0597 1.14-0.898 2.65-1.86 2.52-1.59 4.39-2.62 6.16-3.36 2.94-1.24 4.65-1.92 7.56-2.99 1.45-0.537 3.83-1.3 5.78-1.86 0.881-0.251 1.64-0.498 1.69-0.55l0.0891-0.095-0.758 0.0503c-1.29 0.0853-3.65 0.465-5.76 0.928-1.9 0.415-5.21 1.24-6.13 1.52-1.52 0.471-3.1 0.981-3.7 1.2-0.297 0.106-0.887 0.307-1.31 0.448-0.87 0.288-2.85 1.08-3.09 1.23-0.0849 0.0552-0.467 0.214-0.849 0.354-1.18 0.431-2.06 0.914-1.49 0.813 0.359-0.0626 0.458 0.0331 0.429 0.417l-0.0243 0.327-1.27 0.654c-0.7 0.36-2.16 1.11-3.24 1.66-1.08 0.554-2.16 1.12-2.39 1.26-0.233 0.137-0.789 0.452-1.23 0.7-4.86 2.71-9.48 6.25-11.8 9.03-6.16 7.49-2.54 12.2 10.8 14.2 1.44 0.208 1.31 0.312 1.42-1.21 0.0489-0.679 0.119-1.36 0.156-1.5 0.0656-0.264 0.209-4.14 0.199-5.36-3e-3 -0.34 0.025-1.07 0.0621-1.63l0.0675-1.02-0.3-0.0446c-0.165-0.0245-0.474-0.0811-0.686-0.126-0.728-0.153-1.31-0.199-1.52-0.12-0.503 0.189-1.93-0.164-2.42-0.599-0.127-0.113-0.353-0.306-0.502-0.429l-0.27-0.223 0.012-0.402c0.0145-0.485 0.205-0.939 0.436-1.04 0.127-0.0559 0.17-0.142 0.172-0.347 0.0015-0.15 0.0797-0.397 0.174-0.549 0.0939-0.152 0.171-0.345 0.171-0.429 0-0.0991 0.22-0.326 0.626-0.647 0.344-0.272 0.735-0.585 0.868-0.696s0.624-0.433 1.09-0.717c0.827-0.502 1.16-0.773 1.08-0.893-0.0201-0.0326 0.123-0.12 0.317-0.194 0.195-0.0743 0.469-0.237 0.611-0.361 0.272-0.239 1.24-0.792 2.38-1.36 0.377-0.187 0.811-0.419 0.965-0.515 1.83-1.15 11-5.8 11.2-5.65 0.0252 0.0252-0.428 0.753-1.01 1.62-1.34 2-1.34 2.01-0.0673 1.38 0.413-0.206 1.22-0.593 1.79-0.858 1.29-0.599 1.25-0.564 1.47-1.36l0.176-0.655 0.317-0.143c5.25-2.37 10.6-4.57 10.6-4.35 0 0.0403-0.313 0.673-0.694 1.41-0.978 1.87-1.07 1.82 1.31 0.806 0.956-0.408 1.84-0.739 1.97-0.737 0.246 4e-3 2.18-0.803 4.09-1.7 1.71-0.81 3.51-1.48 3.63-1.36 0.0245 0.0245-0.203 0.904-0.505 1.95-0.343 1.19-0.522 1.94-0.477 1.98 0.0452 0.0452 0.373-0.206 0.871-0.667 4.46-4.13 9.11-4.09 10.7 0.0941 0.268 0.713 0.275 0.712 1.07-0.243 4.2-5.06 9.86-6.01 11.9-1.99 0.29 0.584 0.293 0.584 0.882 0.073 1.94-1.69 4.51-3.06 7.77-4.15 1.31-0.436 5.2-1.45 5.27-1.38 0.02 0.02-0.135 0.591-0.344 1.27-0.503 1.63-0.523 1.58 0.529 1.27 0.8-0.233 3.04-0.837 3.21-0.866l0.154-0.0259-0.023 0.167c-0.0373 0.271 0.0602 0.266 1.19-0.0621 3.56-1.04 3.27-1 2.85-0.347-0.475 0.743-0.452 0.756 0.864 0.472 1.1-0.237 1-0.135 1.08-1.14 0.0384-0.459 0.101-0.863 0.139-0.9 0.138-0.132 8.12-1.41 10.8-1.73 0.531-0.0634 0.6-0.321-1.18 4.39-0.24 0.637-1.07 2.91-1.85 5.05-2.88 7.94-3.39 9.37-4.09 11.5l-0.592 1.78-0.459 0.0902c-0.544 0.107-0.548 0.125-0.149 0.653 2.28 3.02-0.605 8.38-4.52 8.38-1.08 0-1.97-0.396-2.54-1.13-0.198-0.254-0.373-0.401-0.48-0.405-0.324-0.0111-3.35 1.07-6.46 2.3-1.54 0.613-1.98 0.762-1.97 0.683 6.4e-4 -0.0106 0.0874-0.297 0.193-0.637 0.233-0.75 0.244-0.965 0.0498-0.965-0.264 0-4.01 1.32-7.28 2.57-0.282 0.108-0.528 0.179-0.549 0.159-0.0201-0.0201 0.204-0.804 0.497-1.74 0.65-2.07 0.656-2.04-0.265-1.54-0.901 0.484-2.3 1.1-4.61 2.04-0.997 0.404-2.75 1.13-3.9 1.62l-2.08 0.889-0.0218-0.167c-0.012-0.0921 0.101-0.722 0.251-1.4 0.407-1.84 0.394-1.89-0.319-1.25-4.1 3.65-8.34 3.75-10.1 0.229-0.47-0.955-0.393-0.95-1.09-0.0772-4.04 5.06-9.04 6.79-11.6 4.03-0.257-0.275-0.516-0.5-0.576-0.5-0.12 0-0.282 0.532-0.282 0.926v0.241l-0.521 0.233c-3.21 1.44-5.75 2.67-5.79 2.82-0.0359 0.128 0.413 0.124 1.88-0.017 0.637-0.0614 1.54-0.148 2.01-0.192 0.467-0.0441 1.2-0.115 1.62-0.159 0.942-0.0956 3.68-0.303 4.04-0.306 1.01-8e-3 -1.59 0.658-6.48 1.66-1.79 0.366-3.73 0.66-5.59 0.846-1.05 0.105-1.98 0.208-3.8 0.421l-0.635 0.0745-1.22 0.633c-0.669 0.348-1.68 0.888-2.24 1.2-0.93 0.515-1.17 0.626-1.17 0.536 0-0.0168 0.067-0.251 0.149-0.521 0.082-0.27 0.191-0.716 0.243-0.992 0.0515-0.276 0.126-0.544 0.167-0.595 0.0737-0.0942 0.364-1.14 0.367-1.31 3e-3 -0.219-0.211-0.122-2.07 0.938-0.271 0.154-0.597 0.368-0.725 0.476-0.128 0.108-0.41 0.286-0.627 0.395s-0.854 0.49-1.42 0.844c-1.17 0.736-1.18 0.74-1.18 0.375 0-0.422 0.337-0.593-4.6 2.33-1.75 1.03-3.24 1.9-3.31 1.93l-0.134 0.0516zm3.59-3.95c0.877-0.545 1.97-1.21 2.42-1.48l0.827-0.493 0.32-1.01c0.309-0.972 1.98-5.71 3.65-10.3 0.432-1.2 0.458-1.16 0.315 0.476-0.154 1.76-0.781 7.99-0.92 9.14l-0.0443 0.367h0.142c0.078 0 0.296-0.0979 0.485-0.218 0.515-0.326 3.13-1.81 3.66-2.08 0.645-0.325 0.648-0.33 1.23-2.14 0.875-2.74 2.95-8.48 4.95-13.7 0.352-0.919 1.05-2.81 2.28-6.13 0.39-1.06 0.967-2.67 1.28-3.58 0.538-1.55 0.924-2.37 1.43-3.01 0.159-0.202 0.19-0.395 0.0634-0.395-0.241 0-6.23 2.68-6.46 2.89-0.0549 0.0504-0.39 1.06-0.745 2.25-0.355 1.18-0.825 2.74-1.04 3.47-0.219 0.721-0.728 2.41-1.13 3.74-1.1 3.66-1.29 4.24-1.32 4-0.0494-0.393 0.953-9.89 1.11-10.5 0.0337-0.134 0.012-0.205-0.0735-0.238-0.115-0.044-3 1.39-3.36 1.66-0.0971 0.0759-0.595 1.26-1.34 3.21-1.77 4.59-2.1 5.47-2.77 7.33-0.524 1.45-0.756 2-0.756 1.8 0-0.112 0.568-3.34 1.07-6.08 0.167-0.912 0.482-2.63 0.698-3.82s0.41-2.23 0.429-2.32c0.019-0.0877 0.33-0.556 0.691-1.04 0.702-0.944 0.731-0.998 0.527-0.998-0.427 0-10.1 5.54-10.1 5.78 0 0.0445 0.435 0.0843 1.06 0.097l1.06 0.0215-0.0198 0.617c-0.0109 0.34-0.124 2.2-0.251 4.13-0.127 1.93-0.318 5.11-0.424 7.06-0.106 1.95-0.297 5.37-0.424 7.6-0.258 4.51-0.27 4.94-0.148 4.94 0.0463 0 0.802-0.446 1.68-0.99zm13.6-3.9c0.644-0.354 1.79-0.965 2.55-1.36 0.922-0.479 1.4-0.769 1.44-0.88 0.0368-0.0912 0.419-1.62 0.849-3.41 0.43-1.78 0.927-3.8 1.1-4.48l0.322-1.23 0.309-0.151c0.896-0.439 2.62-1.19 2.67-1.16 0.0775 0.0479-1.12 4.65-2.6 10-0.0586 0.212-0.107 0.394-0.107 0.405-0.0049 0.104 0.476-0.0926 1.72-0.705 0.812-0.398 2-0.958 2.63-1.24 1.19-0.533 1.43-0.678 1.43-0.865 0-0.0967 0.384-1.84 1.62-7.39 0.505-2.26 1.42-5.93 1.92-7.68 0.211-0.743 0.7-2.48 1.09-3.86 0.814-2.91 1.73-6.04 2.17-7.38 0.166-0.515 0.302-0.957 0.302-0.984 0-0.131-0.409 8e-3 -1.82 0.617-0.846 0.366-1.93 0.833-2.4 1.04-0.885 0.382-1.64 0.748-1.64 0.793 0 0.262-2.55 10.6-2.66 10.8-0.0572 0.0925-2.82 1.27-2.87 1.22-0.0628-0.0628 0.884-3.39 2.68-9.41 0.486-1.63 0.511-1.75 0.351-1.75-0.154 0-3.4 1.54-3.46 1.65-0.0314 0.0494-0.132 0.316-0.223 0.591-0.267 0.808-1.53 4.33-2.42 6.75-0.453 1.23-0.92 2.52-1.04 2.85-0.117 0.34-0.511 1.43-0.875 2.43-1.76 4.82-2.27 6.37-2.69 8.21-0.175 0.768-0.573 2.42-0.885 3.67-0.857 3.44-0.879 3.55-0.722 3.55 0.0458 0 0.61-0.29 1.25-0.644zm19.6-5.09c4.5-1.58 8.65-7.94 10.8-16.5 0.594-2.37 0.883-4.44 0.882-6.32l-8.9e-4 -1.31-0.157-0.737c-1.27-5.95-8.01-3.37-12.6 4.83-1.61 2.87-2.35 5.08-3.76 11.3l-0.364 1.6 0.0098 3.4 0.207 0.771c0.48 1.79 1.21 2.73 2.43 3.14l0.437 0.145 0.772-0.0312c0.569-0.023 0.92-0.0831 1.34-0.229zm0.798-8.42c-0.792-0.667-0.509-3.28 0.683-6.32 2.54-6.45 6.09-7.02 4.4-0.698-1.16 4.36-3.84 8.06-5.08 7.01zm12.2 5.94c4.22-0.994 9.08-8.12 11-16.1 1.41-5.86 0.97-9.72-1.24-10.8l-0.584-0.288-0.601-0.0348c-2.81-0.163-6.35 2.76-9.06 7.47l-0.421 0.733-0.133 1.12c-0.268 2.26-0.868 4.79-1.86 7.84-0.262 0.805-1.17 3.07-1.47 3.67l-0.261 0.519v0.602c0 3.96 1.76 5.98 4.62 5.3zm1.27-8.06c-1.69-1.03 1.37-9.83 3.86-11.1 1.41-0.717 1.92 0.9 1.18 3.76-1.18 4.55-3.67 8.17-5.04 7.33zm6.86 6.79c0.479-0.208 1.47-0.61 2.21-0.894 6.47-2.5 9.48-5.03 10.5-8.8 0.706-2.7 0.111-4.25-2.63-6.87-0.782-0.746-1.05-1.05-1.15-1.32l-0.133-0.348 0.0942-0.314c0.272-0.907 2.13-1.86 4.51-2.32 1.06-0.204 0.908-3e-3 1.29-1.68 0.52-2.3 0.979-4.15 1.23-4.97 0.328-1.06 0.403-1.03-1.24-0.556-4.89 1.41-8.08 3.39-9.9 6.13l-0.529 0.794-0.0579 1.08c-0.0318 0.595-0.155 1.78-0.274 2.62l-0.216 1.54 0.594 1.18 1.5 1.49c1.86 1.84 2.06 2.21 1.64 3.08-0.497 1.03-2.87 2.21-6.09 3.04-1.07 0.276-0.895 0.0357-1.2 1.66-0.143 0.757-0.435 2.2-0.647 3.21-0.452 2.15-0.522 2.6-0.404 2.6 0.0462 0 0.476-0.17 0.955-0.378zm11-1.24c0.53-0.202 1.55-0.549 2.28-0.773 1.63-0.505 1.55-0.459 1.7-0.988 0.0686-0.243 0.438-1.47 0.822-2.72 0.384-1.25 0.865-2.83 1.07-3.5 0.204-0.675 0.399-1.25 0.433-1.28 0.0847-0.0767 2.45-0.847 2.6-0.847 0.18 0 0.205-0.0851-2.23 7.67-0.296 0.944-0.478 1.65-0.438 1.69 0.0401 0.0401 0.497-0.0949 1.1-0.324 0.567-0.216 1.64-0.596 2.38-0.843l1.35-0.45 0.0938-0.186c0.0516-0.103 0.578-1.7 1.17-3.54 0.592-1.85 1.41-4.38 1.81-5.63 1.98-6.14 3-9.39 3.26-10.3 0.153-0.573 0.478-1.75 0.724-2.6 0.321-1.13 0.422-1.58 0.359-1.63-0.0766-0.0636-2.05 0.308-4.31 0.813-0.713 0.159-0.639 0.0494-1.09 1.61-0.194 0.679-0.505 1.76-0.693 2.39s-0.625 2.13-0.973 3.32c-0.347 1.19-0.677 2.21-0.732 2.26-0.0789 0.0809-2.29 0.698-2.53 0.706-0.144 5e-3 -0.0193-0.407 1.8-5.95l1.16-3.52 0.509-0.646c0.702-0.89 0.595-0.897-1.32-0.0895-1.28 0.538-1.31 0.556-1.58 1.08-0.287 0.555-0.296 0.406-0.027-0.421 0.137-0.42 0.183-0.667 0.133-0.717-0.0979-0.0979-2.49 0.583-2.67 0.759-0.134 0.133-0.633 1.62-1.5 4.45-0.284 0.934-0.564 1.78-0.622 1.89-0.106 0.195-0.336 0.949-1.34 4.39l-0.552 1.89 0.122 0.484c0.486 1.93-0.272 4.81-1.79 6.81l-0.492 0.645-0.256 0.898c-0.141 0.494-0.435 1.5-0.652 2.23-0.391 1.32-0.418 1.54-0.169 1.44 0.07-0.0284 0.561-0.217 1.09-0.418zm16.3-1.39c2.96-1.44 3.41-6.33 0.58-6.33-2.98 0-5.04 5.26-2.54 6.46l0.395 0.189 0.522-0.0325c0.386-0.0241 0.656-0.0981 1.04-0.286zm0.329-8.13c0.445-0.1 1.11-0.228 1.48-0.283 0.835-0.124 0.687 0.095 1.51-2.24 0.382-1.08 1.16-3.25 1.73-4.82s1.36-3.74 1.75-4.82c0.875-2.43 1.97-5.41 2.39-6.48 0.173-0.443 0.314-0.873 0.314-0.956v-0.15l-0.521 0.0527c-1.92 0.194-6.71 0.935-6.86 1.06-0.116 0.0962-0.143 1.03-0.0323 1.1 0.038 0.0235 0.253 8e-3 0.478-0.0348 0.225-0.0426 0.432-0.0511 0.462-0.0188 0.0477 0.0528-1.08 5.76-1.57 7.97-0.109 0.488-0.375 1.69-0.591 2.66s-0.494 2.19-0.619 2.7c-0.66 2.69-1 4.16-1 4.29 0 0.187 0.0996 0.183 1.08-0.038zm-89 24.6c-5.67-0.779-10.1-2.69-12.7-5.49-0.534-0.571-0.5-0.562 0.588 0.161 2.5 1.66 7.5 3.79 11.8 5.03 0.706 0.204 1.22 0.41 0.922 0.371-0.0403-5e-3 -0.299-0.0405-0.575-0.0784zm52.8-0.925c3.28-0.702 7.77-1.3 13-1.72 0.806-0.0655 1.88-0.153 2.39-0.195 2.37-0.194 2.93-0.231 3.34-0.224l0.439 8e-3 -1.39 0.224c-6.12 0.988-16 2.11-18.2 2.07l-0.357-8e-3zm10.7-3.58c0.331-0.132 5.64-1.1 8.02-1.46 3.6-0.547 10.4-1.26 9.53-1-1.15 0.353-18.3 2.76-17.6 2.46zm-70.9-0.453c-0.461-0.187-1-0.504-0.867-0.506 0.102-2e-3 1.6 0.466 1.57 0.489-0.0149 9e-3 -0.08 0.0568-0.145 0.106l-0.118 0.0891zm62.2-1.39c0.361-0.0579 0.76-0.104 0.887-0.102l0.231 3e-3 -0.309 0.0614c-0.17 0.0338-0.569 0.0797-0.887 0.102l-0.579 0.0407zm19.8-3.09c0.103-0.0412 1.79-0.421 3.74-0.842 6.17-1.33 11.2-2.16 15.4-2.55 1.75-0.162 1.75-0.135 0 0.23-1.58 0.329-2.16 0.439-5.71 1.08-5.48 0.993-14.1 2.32-13.5 2.08zm20.5-9.19c1.01-0.318 4.24-0.837 4.37-0.703 0.0849 0.0849-2.31 0.576-3.48 0.715-1.12 0.133-1.34 0.13-0.891-0.0122zm0.667-4.66c0.222-0.0897 1.35-0.289 1.96-0.347l0.502-0.0473-0.14 0.0872c-0.189 0.118-1.69 0.383-2.13 0.377-0.272-4e-3 -0.316-0.02-0.192-0.0703zm0.494-2.52c0.31-0.0982 1.56-0.335 2.33-0.442 0.159-0.0221 0.289-0.0135 0.289 0.019 0 0.107-2.16 0.543-2.66 0.537l-0.309-4e-3zm-100-5.17c2.67-2.19 8.71-5.68 13.4-7.76 2.86-1.26 7.35-3 7.46-2.89 0.0165 0.0165-0.466 0.248-1.07 0.515-0.606 0.267-1.61 0.71-2.22 0.984-0.615 0.275-1.43 0.634-1.8 0.799-2.75 1.21-7.95 3.8-10.8 5.37-1.28 0.713-3.52 2.05-4.4 2.64-0.8 0.533-0.972 0.626-0.62 0.338zm56.8-12.5c0.398-0.174 3.41-1.07 4.61-1.36 1.75-0.436 7.5-1.48 7.37-1.34-0.068 0.0739-6.81 1.71-8.45 2.06-0.849 0.177-2.02 0.424-2.6 0.548-1.17 0.251-1.3 0.266-0.927 0.103zm-26.1-0.523c0.195-0.183 4.77-1.67 7.13-2.32 5.14-1.41 13.9-2.73 20.6-3.09l0.733-0.0394-0.424 0.0775c-0.233 0.0426-1.67 0.284-3.2 0.537-3.12 0.516-6.27 1.06-7.6 1.3-3.4 0.633-11.8 2.36-13.8 2.83-1.55 0.369-3.47 0.761-3.4 0.697zm39.9-0.442c2.78-1.11 17-3.91 19.5-3.84 0.393 0.0104-10.4 2.22-16.8 3.43-2.61 0.495-3.1 0.572-2.72 0.417zm-4.2-2.69c2.16-0.834 5.24-1.51 9.34-2.04 4.32-0.562 5.97-0.663 3.4-0.21-0.806 0.142-2.59 0.478-3.97 0.746-1.38 0.268-2.99 0.579-3.59 0.691-0.594 0.112-1.34 0.253-1.66 0.314-0.598 0.115-1.84 0.335-3.05 0.541-0.382 0.065-0.781 0.135-0.887 0.156-0.106 0.021 0.0849-0.0691 0.424-0.2z" fill="#0c0e10"/></svg>
