<svg width="210mm" height="297mm" version="1.1" viewBox="0 0 210 297" xmlns="http://www.w3.org/2000/svg"><path d="m63.8 198c-1.17-0.23-2.29-1.11-2.76-2.16l-0.271-0.604-0.668-0.329c-3.06-1.51-2.75-6.28 0.492-7.37l0.537-0.181 0.238-0.447c0.71-1.34 2.27-1.93 3.75-1.43l0.672 0.227 0.0834-0.139c0.0459-0.0764 0.632-1.16 1.3-2.42 1.52-2.83 3.29-5.95 3.49-6.16l0.155-0.155-0.0688 0.569c-0.0878 0.726-0.576 2.84-1.1 4.75-0.224 0.821-0.495 1.92-0.602 2.43s-0.267 1.22-0.356 1.56c-0.55 2.1 0.402-0.195 2.43-5.84 1.97-5.48 2.24-7.96 1.03-9.25l-0.4-0.428-0.554 0.58c-2.48 2.59-6.91 2.92-9.35 0.69-0.644-0.589-0.707-0.596-1.18-0.139-3.35 3.24-11.4 6.81-16.7 7.39-1.9 0.213-3.53-0.397-4.72-1.77-0.595-0.684-0.606-0.716-3.25-10.4-1.37-5.04-2.68-9.79-2.9-10.6s-0.756-2.7-1.19-4.3c-0.434-1.59-0.885-3.22-1-3.6-0.167-0.555-0.204-0.902-0.169-1.62l0.0437-0.915 0.376-0.76c0.658-1.33 1.38-1.96 4.22-3.69 8.29-5.03 16.3-6.4 20.8-3.55 0.326 0.21 0.658 0.421 0.738 0.47l0.145 0.0881-0.0558-0.416c-0.203-1.51-1.79-3.59-6.21-8.13-1.48-1.53-2.67-2.8-2.63-2.84 0.0355-0.0355 1.66 0.201 3.61 0.525 9.5 1.58 12.4 1.51 13.5-0.304 1.13-1.78 0.677-5.05-1.43-10.3-0.518-1.29-0.941-2.37-0.941-2.41 0-0.159 0.306-0.0138 1.69 0.801 6.3 3.71 11 5.5 13 4.91 3.12-0.936 4.18-10.5 2.32-21.1-0.607-3.44-0.805-3.47 2 0.257 7.61 10.1 12 13.7 14.9 12.3 1.98-0.996 4.79-4.95 10.4-14.6 1.97-3.41 2.41-4.13 2.51-4.13 0.0589 0 0.126 1.35 0.166 3.36 0.165 8.24 0.999 13.2 2.88 17 2.59 5.3 6.76 4.61 23.9-3.94 2.56-1.28 4.67-2.28 4.69-2.22 0.0199 0.0598-0.52 1-1.2 2.1-3.46 5.58-5.53 10.2-5.85 13-0.0747 0.653-0.0438 0.669 1.54 0.769 3.55 0.224 6.93 1.53 8.36 3.23 0.492 0.585 0.544 0.468 0.455-1.02-0.181-3.03-0.112-3.9 0.394-4.97 3.25-6.88 17.3-5.26 17.9 2.06l0.0617 0.753-0.43 2.17c-0.236 1.2-0.75 3.76-1.14 5.69s-1.37 6.83-2.17 10.9c-1.62 8.12-1.61 8.1-2.57 9.03l-0.56 0.54 0.554 0.668c1.28 1.55 1.84 2.9 1.92 4.68l0.0547 1.15-0.272 0.947c-1.46 5.08-7.24 7.18-11.1 4.04-0.749-0.604-0.758-0.605-1.04-0.151-1.45 2.35-5.58 3.09-7.98 1.44l-0.53-0.365-0.791 0.358c-0.435 0.197-0.965 0.414-1.18 0.483-0.558 0.18-0.556 0.216 0.089 1.16 1.44 2.11 7.42 9.09 7.79 9.09 0.0454 0 0.171-0.198 0.278-0.44 0.571-1.28 2.5-2.42 3.72-2.19l0.338 0.0635 0.375-0.586c2.71-4.23 9.34-2.72 9.66 2.2l0.0558 0.858 0.556 0.369c2.73 1.81 2.91 5.87 0.347 8.13l-0.616 0.542-0.109 0.523c-0.341 1.64-1.76 2.79-3.45 2.78l-0.807-4e-3 -0.405 0.596c-2.92 4.3-10.1 2.25-9.69-2.77l0.063-0.747-0.493-0.495c-0.271-0.272-0.606-0.728-0.744-1.01l-0.251-0.517-2.3e-4 -0.887-2.2e-4 -0.887 0.28-0.572c0.154-0.315 0.28-0.621 0.28-0.68 0-0.0964-2.59-1.95-6.42-4.58-0.768-0.53-1.54-1.06-1.72-1.19-0.943-0.652-7.46-1.74-9.13-1.53-4.5 0.578-5.34 7.96-2.34 20.7 0.369 1.56 0.364 1.56-2.39-1.67-8.81-10.3-13.9-14.7-16.7-14.4-3.01 0.412-6.18 5.1-10.2 15.1-0.74 1.83-0.601 2.01-1.6-2.02-2.35-9.41-3.82-12.4-6.33-12.8l-0.671-0.115-0.756 0.184c-2.98 0.725-8.44 4.31-14.6 9.57-0.657 0.563-0.658 0.573-0.0942 0.823 1.3 0.574 1.99 2.21 1.47 3.47l-0.154 0.368 0.256 0.55c0.191 0.411 0.256 0.725 0.257 1.24l1e-3 0.69-0.338 0.653c-0.565 1.09-1.87 1.87-2.88 1.7l-0.396-0.0633-0.314 0.456c-0.891 1.3-2.57 1.94-4.22 1.61zm-0.693-11.2c0.239-0.116 0.673-0.239 0.964-0.273 0.611-0.0724 0.687-0.202 0.174-0.298-0.514-0.0965-1.71 0.377-1.71 0.677 0 0.148 0.0835 0.133 0.576-0.105zm82.3-11.4c0.32-0.516 0.886-1.02 1.54-1.37 0.416-0.221 0.605-0.386 0.628-0.549l0.0331-0.233-0.395 8e-3c-1.55 0.0309-3.49 2.33-2.09 2.47 0.038 4e-3 0.163-0.144 0.278-0.329zm4.08-2.81c0.612-0.922 2.32-2.03 3.15-2.03 0.125-7e-4 0.26-0.0548 0.3-0.12 0.153-0.248-1.26-0.0263-1.98 0.311-1.13 0.527-2.18 1.72-1.98 2.24 0.0862 0.225 0.103 0.211 0.509-0.4zm-99.3-8.31c1.05-0.633 1.71-1.3 1.71-1.73v-0.202l-0.802 0.0589c-0.751 0.0551-1.92 0.377-2.13 0.586-0.0546 0.0546-0.021 0.415 0.0819 0.877 0.207 0.929 0.254 0.946 1.14 0.41zm-3.34-13.7c0.815-0.517 0.7-0.699-0.235-0.369-0.482 0.17-0.625 0.31-0.54 0.531 0.0793 0.207 0.25 0.171 0.775-0.162zm75.5-19.8 0.443-0.543-0.485 0.461c-0.425 0.404-0.581 0.625-0.443 0.625 0.0232 0 0.241-0.245 0.485-0.543zm-33.7-0.285c-0.0682-0.07-0.55 0.498-0.55 0.649 0 0.0658 0.135-0.0416 0.3-0.239 0.165-0.197 0.278-0.382 0.25-0.41zm35.1-0.927c0.197-0.168 0.301-0.308 0.231-0.31-0.0703-2e-3 -0.28 0.134-0.466 0.303-0.44 0.4-0.232 0.407 0.235 7e-3zm23.7-8.65c0.0672-0.203 0.0983-0.394 0.0692-0.423-0.0699-0.0699-0.589 0.697-0.589 0.871 0 0.269 0.395-0.0715 0.52-0.448zm1.6-1.47c0.0966-0.252-0.014-0.281-0.315-0.0834-0.203 0.133-0.241 0.202-0.142 0.263 0.173 0.107 0.378 0.0257 0.457-0.18zm-64.5 72.6c-0.359-0.282-0.453 0.116 1.08-4.59 1.96-5.98 1.98-5.84 0.444 2.52-0.254 1.38-0.423 2.06-0.536 2.15-0.247 0.194-0.684 0.156-0.991-0.0851zm-3.27-2.34c-0.786-0.289-0.754-0.367 1.51-3.77 2.67-4 2.93-4.27 1.81-1.87-0.335 0.721-0.867 1.89-1.18 2.6-0.314 0.712-0.76 1.7-0.99 2.2l-0.418 0.906-0.289-8e-3c-0.159-4e-3 -0.359-0.0339-0.445-0.0652zm50.8-1.02c-0.0913-0.0913-0.263-0.359-0.382-0.595-0.119-0.236-0.763-1.41-1.43-2.6-2.02-3.61-4.06-7.41-4.01-7.46 0.0563-0.0563 2.06 2.61 4.37 5.81 0.904 1.25 1.91 2.65 2.25 3.1s0.603 0.909 0.603 1.02c0 0.649-0.969 1.16-1.39 0.74zm-82.8-0.656c-0.272-0.124-0.541-0.36-0.724-0.637l-0.291-0.44 6.06e-4 -0.629c0.0019-1.97 2.64-2.72 3.67-1.04 1.03 1.66-0.83 3.58-2.66 2.75zm8.78-3.78c-1.61-0.509-2.06-2.48-0.854-3.69 1.74-1.74 4.53 0.103 3.58 2.37-0.437 1.05-1.68 1.65-2.73 1.32zm74.7-2.24c-0.497-0.634-1.26-1.6-1.7-2.15-2.9-3.61-2.88-3.63 0.547-0.542 3.54 3.19 3.49 3.13 2.66 3.64-0.502 0.306-0.527 0.291-1.5-0.949zm-89.1-49c-4.5-1.17-4.63-1.21-4.72-1.57-0.0966-0.385 0.0923-0.889 0.397-1.06l0.273-0.153 1.69 0.806c3.79 1.81 5.41 2.63 5.16 2.63-0.142 1.8e-4 -1.4-0.296-2.79-0.659zm2.42-2.16c-2.54-1.26-2.83-1.54-2.09-1.94l0.21-0.112 0.481 0.301c1.01 0.632 3.63 2.72 3.4 2.72-0.0322 0-0.936-0.436-2.01-0.97zm13.7-4.72c-0.445-0.244-0.494-0.248-0.536-0.048-0.0405 0.192-3.8-1.6-6.81-3.24l-1.91-1.05-0.207 0.153c-0.568 0.419-0.862 0.57-1.22 0.629l-0.394 0.0646-0.339 0.529c-0.445 0.693-1.09 1.26-1.81 1.6l-0.582 0.273h-2.28l-0.693-0.329c-0.808-0.383-1.56-1.09-1.83-1.72l-0.19-0.444-0.452-0.134c-3.33-0.985-4.4-5.14-1.95-7.66 0.293-0.303 0.509-0.612 0.48-0.688-1.44-3.75 4.31-8.18 7.59-5.85l0.322 0.229 1.6-0.688 2.07-0.00183 0.614 0.287c2.14 1 3.17 3.44 2.42 5.71l-0.222 0.676 0.196 0.436c0.143 0.318 0.196 0.674 0.196 1.32v0.882l-0.686 1.45 0.498 0.464c4.11 3.83 6.68 6.37 6.35 6.29-0.273-0.0713-0.262-0.0191 0.0861 0.429 0.161 0.207 0.327 0.435 0.368 0.506 0.113 0.195-0.24 0.153-0.661-0.0776zm81.4-8.45c0.228-0.204 0.973-0.839 1.66-1.41 0.683-0.573 2.73-2.31 4.55-3.85 6.39-5.42 5.86-5.05 6.45-4.55 0.778 0.654 0.645 0.885-1.27 2.21-11.1 7.66-11.6 7.98-11.7 7.98-0.0577-2e-3 0.0814-0.171 0.309-0.375zm-74.1-6.61-4.95-5.02-0.0307-0.337c-0.0386-0.425 0.401-0.884 0.928-0.969l0.36-0.0585 0.442 0.502c0.243 0.276 1.62 2.04 3.06 3.92 1.44 1.88 3.21 4.18 3.92 5.11 1.16 1.5 1.41 1.88 1.26 1.88-0.0238 0-2.27-2.26-4.99-5.02zm8.12 4.22c-0.144-0.165-3.55-5.07-3.74-5.39-0.138-0.229 0.022-0.599 0.316-0.733l0.28-0.128 0.242 0.187c0.263 0.204 3.26 6.24 3.1 6.24-0.0178 0-0.104-0.0815-0.19-0.181zm65.5-0.906c0.227-0.472 3.51-5.03 3.72-5.16 0.258-0.162 0.74 0.124 0.773 0.459l0.0258 0.255-2.33 2.38c-1.28 1.31-2.27 2.24-2.18 2.07zm-23.3-2.26c0-0.0782 0.0691-0.338 0.154-0.578 0.0845-0.239 0.172-0.699 0.194-1.02 0.0466-0.681 0.999-2.98 3.8-9.2l0.335-0.743-0.572-0.523c-0.763-0.697-1.05-1.34-1.07-2.42l-0.0159-0.807-0.31-0.331c-2-2.14-1.12-5.8 1.7-7.14l0.696-0.33h2.38l1.21 0.568 0.584-0.355c2.56-1.56 5.93-0.171 6.41 2.64 0.0789 0.462 0.0975 0.48 0.888 0.835 5.18 2.33 1.88 11.3-3.43 9.28l-0.545-0.203-0.49 0.241c-0.688 0.339-1.85 0.337-2.5-3e-3l-0.453-0.239-0.128 0.138c-0.0706 0.076-0.987 1.28-2.04 2.67-1.72 2.28-2.96 3.86-4.79 6.08-0.417 0.506-0.669 0.731-0.78 0.696-0.102-0.0325-0.337 0.124-0.622 0.414-0.478 0.487-0.621 0.562-0.621 0.324zm12.9-4.08c-2.07-1.33-0.221-4.59 1.98-3.48 1.26 0.637 1.36 2.46 0.177 3.4l-0.392 0.312-1.29 0.0762zm10.9-4.94c-2.07-0.898-1.93-3.63 0.231-4.35 1.45-0.483 3.02 0.819 2.83 2.36-0.179 1.51-1.78 2.54-3.06 1.99z" fill="#f6d604"/><path d="m63.8 198c-1.17-0.23-2.29-1.11-2.76-2.16l-0.271-0.604-0.668-0.329c-3.06-1.51-2.75-6.28 0.492-7.37l0.537-0.181 0.238-0.447c0.71-1.34 2.27-1.93 3.75-1.43l0.672 0.227 0.0836-0.139c0.046-0.0764 0.607-1.12 1.25-2.31 1.64-3.07 3.29-5.95 3.39-5.95 0.243 0-1.87 4.66-3.85 8.51-1.82 3.54-2.19 4.01-1.49 1.94 0.399-1.19 0.402-1.15-0.0875-1.38-0.837-0.397-2.32-0.0222-2.76 0.696l-0.193 0.318 0.152 0.168c0.385 0.425-0.101 0.854-0.853 0.753-0.79-0.106-1.63 0.51-2.21 1.62l-0.243 0.466-0.0045 0.88-0.0045 0.88 0.238 0.517c0.277 0.603 0.848 1.23 1.29 1.41l0.313 0.13 0.151-0.227c0.214-0.322 0.52-0.292 0.602 0.0579 0.0369 0.157 0.185 0.412 0.33 0.567l0.263 0.283-0.369 0.408 0.212 0.341c0.783 1.26 2.49 1.82 3.94 1.28 0.894-0.33 1.67-1.12 1.46-1.5-0.0826-0.154-0.0621-0.256 0.0894-0.443l0.196-0.242 0.345 0.142c1.52 0.628 2.98-0.355 2.98-2.01 0-0.707-0.131-0.98-0.469-0.98-0.272 0-0.285-0.0335-0.257-0.673 0.0138-0.311 0.0875-0.47 0.295-0.637l0.276-0.223-0.0076-0.529c-0.0122-0.847-0.718-1.7-1.51-1.83l-0.374-0.0607-0.449 0.658c-0.816 1.2-0.542 0.19 1.27-4.67 3.33-8.93 3.78-11.4 2.36-12.9l-0.4-0.428-0.554 0.58c-2.48 2.59-6.91 2.92-9.35 0.69-0.644-0.589-0.707-0.596-1.18-0.139-3.35 3.24-11.4 6.81-16.7 7.39-1.9 0.213-3.53-0.397-4.72-1.77-0.595-0.684-0.606-0.716-3.25-10.4-1.37-5.04-2.68-9.79-2.9-10.6s-0.756-2.7-1.19-4.3c-0.434-1.59-0.885-3.22-1-3.6-0.167-0.555-0.204-0.902-0.169-1.62l0.0437-0.915 0.376-0.76c0.658-1.33 1.38-1.96 4.22-3.69 8.29-5.03 16.3-6.4 20.8-3.55 0.326 0.21 0.658 0.421 0.738 0.47l0.145 0.0881-0.0558-0.416c-0.203-1.51-1.79-3.59-6.21-8.13-1.48-1.53-2.67-2.8-2.63-2.84 0.0355-0.0355 1.66 0.201 3.61 0.525 9.5 1.58 12.4 1.51 13.5-0.304 1.13-1.78 0.677-5.05-1.43-10.3-0.518-1.29-0.941-2.37-0.941-2.41 0-0.159 0.306-0.0138 1.69 0.801 6.3 3.71 11 5.5 13 4.91 3.12-0.936 4.18-10.5 2.32-21.1-0.607-3.44-0.805-3.47 2 0.257 7.61 10.1 12 13.7 14.9 12.3 1.98-0.996 4.79-4.95 10.4-14.6 1.97-3.41 2.41-4.13 2.51-4.13 0.0589 0 0.126 1.35 0.166 3.36 0.165 8.24 0.999 13.2 2.88 17 2.59 5.3 6.76 4.61 23.9-3.94 2.56-1.28 4.67-2.28 4.69-2.22 0.0199 0.0598-0.52 1-1.2 2.1-3.46 5.58-5.53 10.2-5.85 13-0.0747 0.653-0.0438 0.669 1.54 0.769 3.55 0.224 6.93 1.53 8.36 3.23 0.492 0.585 0.544 0.468 0.455-1.02-0.181-3.03-0.112-3.9 0.394-4.97 3.25-6.88 17.3-5.26 17.9 2.06l0.0617 0.753-0.43 2.17c-0.236 1.2-0.75 3.76-1.14 5.69s-1.37 6.83-2.17 10.9c-1.62 8.12-1.61 8.1-2.57 9.03l-0.56 0.54 0.554 0.668c1.28 1.55 1.84 2.9 1.92 4.68l0.0547 1.15-0.272 0.947c-1.46 5.08-7.24 7.18-11.1 4.04-0.749-0.604-0.758-0.605-1.04-0.151-1.45 2.35-5.58 3.09-7.98 1.44l-0.53-0.365-0.791 0.358c-0.435 0.197-0.965 0.414-1.18 0.483-0.558 0.18-0.556 0.216 0.089 1.16 1.44 2.11 7.42 9.09 7.79 9.09 0.0454 0 0.171-0.198 0.278-0.44 0.571-1.28 2.5-2.42 3.72-2.19l0.338 0.0635 0.375-0.586c2.71-4.23 9.34-2.72 9.66 2.2l0.0558 0.858 0.556 0.369c2.73 1.81 2.91 5.87 0.347 8.13l-0.616 0.542-0.109 0.523c-0.341 1.64-1.76 2.79-3.45 2.78l-0.807-4e-3 -0.405 0.596c-2.92 4.3-10.1 2.25-9.69-2.77l0.063-0.747-0.493-0.495c-0.271-0.272-0.606-0.728-0.744-1.01l-0.251-0.517-2.3e-4 -0.887-2.2e-4 -0.887 0.28-0.572c0.154-0.315 0.28-0.621 0.28-0.68 0-0.0964-2.59-1.95-6.42-4.58-0.768-0.53-1.54-1.06-1.72-1.19-0.943-0.652-7.46-1.74-9.13-1.53-4.5 0.578-5.34 7.96-2.34 20.7 0.369 1.56 0.364 1.56-2.39-1.67-8.81-10.3-13.9-14.7-16.7-14.4-3.01 0.412-6.18 5.1-10.2 15.1-0.74 1.83-0.601 2.01-1.6-2.02-2.35-9.41-3.82-12.4-6.33-12.8l-0.671-0.115-0.756 0.184c-2.98 0.725-8.44 4.31-14.6 9.57-0.657 0.563-0.658 0.573-0.0942 0.823 1.3 0.574 1.99 2.21 1.47 3.47l-0.154 0.368 0.256 0.55c0.191 0.411 0.256 0.725 0.257 1.24l1e-3 0.69-0.338 0.653c-0.565 1.09-1.87 1.87-2.88 1.7l-0.396-0.0633-0.314 0.456c-0.891 1.3-2.57 1.94-4.22 1.61zm87.2-9.17c1.34-0.632 2.43-2.01 1.96-2.48-0.151-0.151-0.0179-0.431 0.245-0.515 0.123-0.0389 0.277-0.144 0.343-0.234 0.195-0.266 0.694-0.0361 0.762 0.351l0.0544 0.308h1.38l0.447-0.315c0.246-0.173 0.588-0.522 0.759-0.776l0.312-0.462 2e-3 -0.582c1e-3 -0.351 0.0613-0.653 0.151-0.761 0.0819-0.0987 0.199-0.279 0.26-0.401 0.0685-0.137 0.209-0.222 0.366-0.222 1.15 0 2.08-2.58 1.6-4.43-0.297-1.14-1.57-2.63-2.13-2.48-0.138 0.036-0.308-0.0351-0.49-0.204-0.153-0.143-0.386-0.315-0.518-0.383-0.333-0.171-0.245-0.448 0.189-0.591l0.361-0.119-0.021-0.59c-0.0579-1.62-1.43-3.13-3.21-3.53l-0.796-0.177-0.696 0.108c-1.68 0.261-3.4 1.58-3.4 2.62v0.392l-0.543 0.251c-0.574 0.265-0.802 0.224-0.802-0.146v-0.194l-0.388 8e-3c-0.858 0.0174-1.82 0.629-2.3 1.46-0.462 0.806-0.486 0.784 2.17 1.95 1.4 0.617 1.6 0.762 0.765 0.555-0.335-0.0832-1.1-0.266-1.7-0.406s-2.11-0.584-3.36-0.986c-3.26-1.05-5.02-1.57-5.16-1.52-0.0654 0.0224 2.03 1.46 4.66 3.2 5.68 3.76 5.7 3.78 3.32 2.76-1.65-0.706-1.62-0.706-1.94-0.0397-0.313 0.647-0.317 1.47-9e-3 2.16 0.443 0.999 0.661 1.08 1.24 0.47 0.523-0.55 0.705-0.526 1.18 0.16l0.393 0.567-0.178 0.0683c-0.0987 0.0379-0.318-0.0121-0.493-0.112l-0.315-0.181-0.138 0.189c-0.0759 0.104-0.162 0.305-0.19 0.447-0.0288 0.142-0.102 0.428-0.164 0.635-0.431 1.46 0.42 3.18 1.99 4.02 0.912 0.486 1.06 0.519 2.27 0.491l1.09-0.0247zm-56.5-6.84c2.83-5.91 7.1-10.2 10.2-10.2 2.68 2e-3 6.79 2.88 11.4 7.98 1.45 1.6 1.37 1.63 1.37-0.562 0-10.7 4.13-13.2 15.9-9.44 2.03 0.644 2.38 0.737 2.38 0.625 0-0.0274-0.502-0.715-1.12-1.53-0.614-0.814-1.38-1.9-1.71-2.42l-0.596-0.94-1.52-0.0616c-4.75-0.192-9.73-2.81-12.1-6.37-0.532-0.787-0.593-0.722-0.637 0.679l-0.0383 1.22-0.869 1.78-0.777 0.726c-1.42 1.32-3.12 1.97-5.39 2.07l-1.35 0.0546-0.61-0.177c-1.41-0.41-2.43-1.25-3.62-2.95-0.335-0.484-0.757-1.09-0.936-1.35-0.179-0.256-1.08-1.57-2.01-2.93-1.64-2.4-1.95-2.73-1.83-1.95 0.103 0.664 0.473 5.44 0.492 6.34 0.0637 3.16-2.52 5.19-6.81 5.34l-1.46 0.0529-0.608-0.177c-0.335-0.0973-0.702-0.243-0.817-0.323-0.294-0.206-0.473-0.184-0.91 0.113-4.69 3.19-8.98 1.65-10.9-3.91-0.0952-0.278-6.51 1.12-6.86 1.5-0.244 0.261-0.456 2.46-0.238 2.46 2.53 0 3.59 4.06 2.4 9.13-0.428 1.83-0.418 1.9 0.199 1.44 3.53-2.62 6.9-4.54 9.39-5.36l0.88-0.289 2.59-0.014 0.699 0.331c2.03 0.961 3.93 4.22 5.1 8.75 0.258 0.997 0.314 1.02 0.654 0.313zm-44.3-17.7c1.05-0.633 1.71-1.3 1.71-1.73v-0.202l-0.802 0.0589c-0.751 0.0551-1.92 0.377-2.13 0.586-0.0546 0.0546-0.021 0.415 0.0819 0.877 0.207 0.929 0.254 0.946 1.14 0.41zm11.1-10.4c0-0.319 2.35-13.1 3-16.3 0.479-2.37 0.719-3.17 1.15-3.8 0.166-0.245 0.303-0.474 0.304-0.508 1e-3 -0.0344-0.778-0.0903-1.73-0.124-1.65-0.0589-2.94-0.221-5.45-0.689-1.3-0.242-1.33-0.236-0.927 0.239 3.82 4.55 4.53 6.84 2.88 9.29-0.422 0.628-0.418 0.563-0.1 1.44 0.893 2.48 0.695 5.9-0.48 8.27l-0.535 1.08 0.248 0.163c0.136 0.0895 0.505 0.359 0.82 0.599 0.549 0.419 0.831 0.54 0.831 0.358zm71.6-1.69c0.635-0.16 0.578-0.244-0.268-0.395-1.9-0.34-3.52-1.84-4.22-3.91l-0.274-0.806-8.8e-4 -1.73-8.9e-4 -1.73-0.127 0.366c-1.58 4.56 1.16 9.15 4.89 8.2zm-57.8-0.549c0.0311-0.0809 0.0013-0.25-0.0661-0.376-0.142-0.265-0.303-0.112-0.306 0.29-0.0018 0.26 0.28 0.325 0.372 0.0857zm-28.2-1.08c0.815-0.517 0.7-0.699-0.235-0.369-0.482 0.17-0.625 0.31-0.54 0.531 0.0793 0.207 0.25 0.171 0.775-0.162zm39.7-6.38c-1.13-12-1.13-12.2-0.282-13.7 1.07-2 3.75-3.32 7.07-3.46l1.35-0.0565 0.613 0.178c1.67 0.485 2.34 1.15 4.33 4.29 1.77 2.79 3.25 5.14 3.93 6.24 0.755 1.23 0.762 1.21 0.535-1.17-0.81-8.52-0.504-10 2.35-11.4 4.56-2.17 8.97-0.956 10.6 2.92l0.271 0.639 0.0549 2.48c0.0616 2.78 0.0892 2.86 0.646 1.89 1.84-3.2 5.07-6.14 8.78-7.99 0.541-0.27 0.998-0.503 1.02-0.519 0.0178-0.016 0.123-0.464 0.235-0.995 0.398-1.9 1.28-4.11 2.52-6.33 0.213-0.381 0.359-0.692 0.326-0.692-0.0339 0-1.08 0.508-2.32 1.13-6.4 3.2-10.3 4.51-13.5 4.51l-1.55 1e-3 -0.569-0.195c-3.77-1.29-5.9-5.7-6.78-14-0.0764-0.722-0.172-0.798-0.414-0.329-0.633 1.22-3.5 5.59-4.92 7.5-4.61 6.18-7.16 5.57-14.5-3.47-0.438-0.541-0.874-1.05-0.968-1.13l-0.171-0.142v1.13c0 3.91-0.872 8.31-2.17 10.9-1.83 3.73-4.51 3.89-11.2 0.678-1.82-0.87-1.71-0.921-1.33 0.586l0.3 1.22v3.52l-0.191 0.621c-0.105 0.342-0.308 0.868-0.45 1.17-0.33 0.7-0.333 0.699 0.759 0.393 3.87-1.08 6.2-0.785 7.86 1 0.963 1.04 1.71 2.54 6.12 12.3 0.941 2.08 1.76 3.87 1.83 3.98l0.116 0.207 0.0308-0.259c0.0169-0.142-0.113-1.8-0.29-3.67zm43.1-3.37c8e-3 -0.132 1.29-0.957 1.77-1.14 0.857-0.326 5.99-0.713 9.88-0.746l1.76-0.0147 0.621 0.186c0.342 0.103 0.871 0.326 1.18 0.497 0.739 0.413 0.742 0.406 0.629-1.62-0.251-4.51-0.193-4.29-0.862-3.26-0.809 1.26-2.27 2.39-3.62 2.81l-0.71 0.219-0.894-0.0551c-0.492-0.0303-1.07-0.13-1.28-0.222-2.74-1.18-6.13-0.212-8.11 2.31-0.434 0.552-1.08 1.65-1.07 1.83 2e-3 0.0956 0.713-0.697 0.719-0.802zm-7.23-10.1 0.443-0.543-0.485 0.461c-0.425 0.404-0.581 0.625-0.443 0.625 0.0232 0 0.241-0.245 0.485-0.543zm-33.7-0.285c-0.0682-0.07-0.55 0.498-0.55 0.649 0 0.0658 0.135-0.0416 0.3-0.239 0.165-0.197 0.278-0.382 0.25-0.41zm35.1-0.927c0.197-0.168 0.301-0.308 0.231-0.31-0.0703-2e-3 -0.28 0.134-0.466 0.303-0.44 0.4-0.232 0.407 0.235 7e-3zm23.7-8.65c0.0672-0.203 0.0983-0.394 0.0692-0.423-0.0699-0.0699-0.589 0.697-0.589 0.871 0 0.269 0.395-0.0715 0.52-0.448zm1.6-1.47c0.0966-0.252-0.014-0.281-0.315-0.0834-0.203 0.133-0.241 0.202-0.142 0.263 0.173 0.107 0.378 0.0257 0.457-0.18zm-64.5 72.6c-0.359-0.282-0.453 0.116 1.08-4.59 1.96-5.98 1.98-5.84 0.444 2.52-0.254 1.38-0.423 2.06-0.536 2.15-0.247 0.194-0.684 0.156-0.991-0.0851zm-3.27-2.34c-0.786-0.289-0.754-0.367 1.51-3.77 2.67-4 2.93-4.27 1.81-1.87-0.335 0.721-0.867 1.89-1.18 2.6-0.314 0.712-0.76 1.7-0.99 2.2l-0.418 0.906-0.289-8e-3c-0.159-4e-3 -0.359-0.0339-0.445-0.0652zm50.8-1.02c-0.0913-0.0913-0.263-0.359-0.382-0.595-0.119-0.236-0.763-1.41-1.43-2.6-2.02-3.61-4.06-7.41-4.01-7.46 0.0563-0.0563 2.06 2.61 4.37 5.81 0.904 1.25 1.91 2.65 2.25 3.1s0.603 0.909 0.603 1.02c0 0.649-0.969 1.16-1.39 0.74zm-82.8-0.656c-0.272-0.124-0.541-0.36-0.724-0.637l-0.291-0.44 6.06e-4 -0.629c0.0019-1.97 2.64-2.72 3.67-1.04 1.03 1.66-0.83 3.58-2.66 2.75zm1.54-0.647c0.18-0.0673 0.362-0.273 0.509-0.576l0.228-0.471-0.146-0.42c-0.311-0.893-1.4-1.17-2.07-0.524-0.703 0.673-0.46 1.74 0.467 2.06 0.407 0.139 0.474 0.135 1.01-0.065zm7.23-3.13c-1.61-0.509-2.06-2.48-0.854-3.69 1.74-1.74 4.53 0.103 3.58 2.37-0.437 1.05-1.68 1.65-2.73 1.32zm1.52-0.848c1.28-0.959 0.819-2.78-0.742-2.91l-0.527-0.0422-0.36 0.245c-0.796 0.541-1.01 1.27-0.629 2.12 0.365 0.804 1.55 1.11 2.26 0.584zm73.2-1.39c-0.497-0.634-1.26-1.6-1.7-2.15-2.9-3.61-2.88-3.63 0.547-0.542 3.54 3.19 3.49 3.13 2.66 3.64-0.502 0.306-0.527 0.291-1.5-0.949zm-89.1-49c-4.5-1.17-4.63-1.21-4.72-1.57-0.0966-0.385 0.0923-0.889 0.397-1.06l0.273-0.153 1.69 0.806c3.79 1.81 5.41 2.63 5.16 2.63-0.142 1.8e-4 -1.4-0.296-2.79-0.659zm2.42-2.16c-2.54-1.26-2.83-1.54-2.09-1.94l0.21-0.112 0.481 0.301c1.01 0.632 3.63 2.72 3.4 2.72-0.0322 0-0.936-0.436-2.01-0.97zm10.7-5.79c-1.33-0.646-3.29-1.64-4.34-2.22l-1.91-1.05-0.207 0.153c-0.568 0.419-0.862 0.57-1.22 0.629l-0.394 0.0646-0.339 0.529c-0.445 0.693-1.09 1.26-1.81 1.6l-0.582 0.273h-2.28l-0.693-0.329c-0.808-0.383-1.56-1.09-1.83-1.72l-0.19-0.444-0.452-0.134c-3.33-0.985-4.4-5.14-1.95-7.66 0.293-0.303 0.509-0.612 0.48-0.688-1.44-3.75 4.31-8.18 7.59-5.85l0.322 0.229 1.6-0.688 2.07-0.00183 0.614 0.287c2.14 1 3.17 3.44 2.42 5.71l-0.222 0.676 0.196 0.436c0.143 0.318 0.196 0.674 0.196 1.32v0.882l-0.686 1.45 0.498 0.464c2.12 1.98 6.55 6.25 6.51 6.29-0.202 0.202-5.9-4.54-9.09-7.56-2.07-1.97-2.01-2.03 0.313-0.356l0.856 0.617 0.2-0.181c0.653-0.591 0.661-1.93 0.0212-3.34-0.538-1.19-0.571-1.52-0.109-1.1 0.69 0.624 0.837-1.36 0.199-2.69-0.911-1.91-3.95-2.66-5.06-1.25-0.109 0.139-0.258 0.252-0.331 0.252s-0.288 0.0559-0.477 0.124c-0.425 0.154-0.603 0.0172-0.603-0.462v-0.327l-0.466-0.179c-1.48-0.57-3.76 0.144-4.79 1.5-0.71 0.933-1.13 2.64-0.808 3.26l0.117 0.218 0.651-0.227 0.139 0.191c0.215 0.294 0.17 0.423-0.23 0.659-0.284 0.168-0.354 0.264-0.305 0.42 0.14 0.441-0.294 0.8-0.568 0.469-0.257-0.309-0.732 0.0919-1.22 1.03l-0.273 0.524-0.0066 2.07 0.291 0.553c0.572 1.09 1.85 2.09 2.68 2.09 0.384 0 0.708 0.332 0.708 0.727 0 1.95 4.28 2.46 5.4 0.646l0.222-0.359-0.144-0.0914c-0.0794-0.0503-0.201-0.0921-0.27-0.093-0.605-8e-3 -1.05-0.991-0.495-1.1l0.362-0.068 0.181 0.223c0.36 0.444 1.81 0.39 2.24-0.0836l0.168-0.186-0.895-0.814c-1.58-1.44-0.924-1.13 5.45 2.56 2.81 1.63 5.36 3.29 5.04 3.29-0.0178 0-1.12-0.528-2.46-1.17zm84.4-7.38c0.228-0.204 0.973-0.839 1.66-1.41 0.683-0.573 2.73-2.31 4.55-3.85 6.39-5.42 5.86-5.05 6.45-4.55 0.778 0.654 0.645 0.885-1.27 2.21-11.1 7.66-11.6 7.98-11.7 7.98-0.0577-2e-3 0.0814-0.171 0.309-0.375zm-74.1-6.61-4.95-5.02-0.0307-0.337c-0.0386-0.425 0.401-0.884 0.928-0.969l0.36-0.0585 0.442 0.502c0.243 0.276 1.62 2.04 3.06 3.92 1.44 1.88 3.21 4.18 3.92 5.11 1.16 1.5 1.41 1.88 1.26 1.88-0.0238 0-2.27-2.26-4.99-5.02zm8.12 4.22c-0.144-0.165-3.55-5.07-3.74-5.39-0.138-0.229 0.022-0.599 0.316-0.733l0.28-0.128 0.242 0.187c0.263 0.204 3.26 6.24 3.1 6.24-0.0178 0-0.104-0.0815-0.19-0.181zm65.5-0.906c0.227-0.472 3.51-5.03 3.72-5.16 0.258-0.162 0.74 0.124 0.773 0.459l0.0258 0.255-2.33 2.38c-1.28 1.31-2.27 2.24-2.18 2.07zm-21.6-3.62c0.913-1.72 3.84-5.96 7.38-10.7 1.68-2.26 1.87-2.36 0.941-0.509-0.697 1.39-0.702 1.49-0.0904 1.71 0.804 0.291 1.7 0.0966 1.7-0.368 0-0.178 0.0812-0.273 0.295-0.345l0.295-0.099 0.274 0.222c2.4 1.95 5.95-0.699 5.49-4.09-0.216-1.59-1.69-3.24-2.76-3.09-0.607 0.0885-0.693-0.0286-0.7-0.954-0.0122-1.54-1.09-2.7-2.72-2.93-1.12-0.159-2.73 0.39-2.55 0.87 0.0951 0.248-0.224 0.481-0.713 0.521l-0.49 0.0399-0.121-0.225c-0.0664-0.124-0.113-0.237-0.103-0.251 0.317-0.469-1.85-0.827-2.94-0.485-0.819 0.258-1.76 1.14-2.18 2.03l-0.299 0.649-9.6e-4 1.76 0.343 0.696c0.378 0.768 0.501 0.826 0.903 0.424l0.272-0.272 0.333 0.333-0.175 0.368c-0.0965 0.202-0.175 0.532-0.175 0.733s-0.0494 0.458-0.11 0.571c-0.211 0.394 0.0701 1.29 0.567 1.81 0.584 0.609 0.654 0.591 1.33-0.35 1.15-1.6 1.08-1.21-0.317 1.82-1.83 3.97-5.72 11.2-4.99 9.29 0.396-1.04 2.29-5.41 3.74-8.61l0.335-0.743-0.572-0.523c-0.763-0.697-1.05-1.34-1.07-2.42l-0.0159-0.807-0.31-0.331c-2-2.14-1.12-5.8 1.7-7.14l0.696-0.33h2.38l1.21 0.568 0.584-0.355c2.56-1.56 5.93-0.171 6.41 2.64 0.0789 0.462 0.0975 0.48 0.888 0.835 5.18 2.33 1.88 11.3-3.43 9.28l-0.545-0.203-0.49 0.241c-0.688 0.339-1.85 0.337-2.5-3e-3l-0.453-0.239-0.128 0.138c-0.0706 0.076-0.995 1.29-2.05 2.7-1.75 2.32-3.25 4.23-4.66 5.93-0.804 0.965-0.833 0.98-0.422 0.207zm11.2-2.72c-2.07-1.33-0.221-4.59 1.98-3.48 1.26 0.637 1.36 2.46 0.177 3.4l-0.392 0.312-1.29 0.0762zm1.67-0.59c0.678-0.351 0.831-1.35 0.299-1.96-0.578-0.658-1.5-0.577-1.96 0.173-0.692 1.13 0.48 2.39 1.66 1.78zm9.21-4.35c-2.07-0.898-1.93-3.63 0.231-4.35 1.45-0.483 3.02 0.819 2.83 2.36-0.179 1.51-1.78 2.54-3.06 1.99zm1.55-0.857c0.77-0.413 1.02-1.48 0.521-2.19-0.723-1.02-2.36-0.709-2.66 0.499-0.316 1.27 0.995 2.3 2.14 1.69z" fill="#008efb"/><path d="m63.8 198c-1.17-0.23-2.29-1.11-2.76-2.16l-0.271-0.604-0.668-0.329c-3.06-1.51-2.75-6.28 0.492-7.37l0.537-0.181 0.238-0.447c0.71-1.34 2.27-1.93 3.75-1.43l0.672 0.227 0.0836-0.139c0.046-0.0764 0.607-1.12 1.25-2.31 1.64-3.07 3.29-5.95 3.39-5.95 0.243 0-1.87 4.66-3.85 8.51-1.82 3.54-2.19 4.01-1.49 1.94 0.399-1.19 0.402-1.15-0.0875-1.38-0.837-0.397-2.32-0.0222-2.76 0.696l-0.193 0.318 0.152 0.168c0.385 0.425-0.101 0.854-0.853 0.753-0.79-0.106-1.63 0.51-2.21 1.62l-0.243 0.466-0.0045 0.88-0.0045 0.88 0.238 0.517c0.277 0.603 0.848 1.23 1.29 1.41l0.313 0.13 0.151-0.227c0.214-0.322 0.52-0.292 0.602 0.0579 0.0369 0.157 0.185 0.412 0.33 0.567l0.263 0.283-0.369 0.408 0.212 0.341c0.783 1.26 2.49 1.82 3.94 1.28 0.894-0.33 1.67-1.12 1.46-1.5-0.0826-0.154-0.0621-0.256 0.0894-0.443l0.196-0.242 0.345 0.142c1.52 0.628 2.98-0.355 2.98-2.01 0-0.707-0.131-0.98-0.469-0.98-0.272 0-0.285-0.0335-0.257-0.673 0.0138-0.311 0.0875-0.47 0.295-0.637l0.276-0.223-0.0076-0.529c-0.0122-0.847-0.718-1.7-1.51-1.83l-0.374-0.0607-0.449 0.658c-0.816 1.2-0.542 0.19 1.27-4.67 3.33-8.93 3.78-11.4 2.36-12.9l-0.4-0.428-0.554 0.58c-2.48 2.59-6.91 2.92-9.35 0.69-0.644-0.589-0.707-0.596-1.18-0.139-3.35 3.24-11.4 6.81-16.7 7.39-1.9 0.213-3.53-0.397-4.72-1.77-0.595-0.684-0.606-0.716-3.25-10.4-1.37-5.04-2.68-9.79-2.9-10.6s-0.756-2.7-1.19-4.3c-0.434-1.59-0.885-3.22-1-3.6-0.167-0.555-0.204-0.902-0.169-1.62l0.0437-0.915 0.376-0.76c0.658-1.33 1.38-1.96 4.22-3.69 8.29-5.03 16.3-6.4 20.8-3.55 0.326 0.21 0.658 0.421 0.738 0.47l0.145 0.0881-0.0558-0.416c-0.203-1.51-1.79-3.59-6.21-8.13-1.48-1.53-2.67-2.8-2.63-2.84 0.0355-0.0355 1.66 0.201 3.61 0.525 9.5 1.58 12.4 1.51 13.5-0.304 1.13-1.78 0.677-5.05-1.43-10.3-0.518-1.29-0.941-2.37-0.941-2.41 0-0.159 0.306-0.0138 1.69 0.801 6.3 3.71 11 5.5 13 4.91 3.12-0.936 4.18-10.5 2.32-21.1-0.607-3.44-0.805-3.47 2 0.257 7.61 10.1 12 13.7 14.9 12.3 1.98-0.996 4.79-4.95 10.4-14.6 1.97-3.41 2.41-4.13 2.51-4.13 0.0589 0 0.126 1.35 0.166 3.36 0.165 8.24 0.999 13.2 2.88 17 2.59 5.3 6.76 4.61 23.9-3.94 2.56-1.28 4.67-2.28 4.69-2.22 0.0199 0.0598-0.52 1-1.2 2.1-3.46 5.58-5.53 10.2-5.85 13-0.0747 0.653-0.0438 0.669 1.54 0.769 3.55 0.224 6.93 1.53 8.36 3.23 0.492 0.585 0.544 0.468 0.455-1.02-0.181-3.03-0.112-3.9 0.394-4.97 3.25-6.88 17.3-5.26 17.9 2.06l0.0617 0.753-0.43 2.17c-0.236 1.2-0.75 3.76-1.14 5.69s-1.37 6.83-2.17 10.9c-1.62 8.12-1.61 8.1-2.57 9.03l-0.56 0.54 0.554 0.668c1.28 1.55 1.84 2.9 1.92 4.68l0.0547 1.15-0.272 0.947c-1.46 5.08-7.24 7.18-11.1 4.04-0.749-0.604-0.758-0.605-1.04-0.151-1.45 2.35-5.58 3.09-7.98 1.44l-0.53-0.365-0.791 0.358c-0.435 0.197-0.965 0.414-1.18 0.483-0.558 0.18-0.556 0.216 0.089 1.16 1.44 2.11 7.42 9.09 7.79 9.09 0.0454 0 0.171-0.198 0.278-0.44 0.571-1.28 2.5-2.42 3.72-2.19l0.338 0.0635 0.375-0.586c2.71-4.23 9.34-2.72 9.66 2.2l0.0558 0.858 0.556 0.369c2.73 1.81 2.91 5.87 0.347 8.13l-0.616 0.542-0.109 0.523c-0.341 1.64-1.76 2.79-3.45 2.78l-0.807-4e-3 -0.405 0.596c-2.92 4.3-10.1 2.25-9.69-2.77l0.063-0.747-0.493-0.495c-0.271-0.272-0.606-0.728-0.744-1.01l-0.251-0.517-2.3e-4 -0.887-2.2e-4 -0.887 0.28-0.572c0.154-0.315 0.28-0.621 0.28-0.68 0-0.0964-2.59-1.95-6.42-4.58-0.768-0.53-1.54-1.06-1.72-1.19-0.943-0.652-7.46-1.74-9.13-1.53-4.5 0.578-5.34 7.96-2.34 20.7 0.369 1.56 0.364 1.56-2.39-1.67-8.81-10.3-13.9-14.7-16.7-14.4-3.01 0.412-6.18 5.1-10.2 15.1-0.74 1.83-0.601 2.01-1.6-2.02-2.35-9.41-3.82-12.4-6.33-12.8l-0.671-0.115-0.756 0.184c-2.98 0.725-8.44 4.31-14.6 9.57-0.657 0.563-0.658 0.573-0.0942 0.823 1.3 0.574 1.99 2.21 1.47 3.47l-0.154 0.368 0.256 0.55c0.191 0.411 0.256 0.725 0.257 1.24l1e-3 0.69-0.338 0.653c-0.565 1.09-1.87 1.87-2.88 1.7l-0.396-0.0633-0.314 0.456c-0.891 1.3-2.57 1.94-4.22 1.61zm87.2-9.17c1.34-0.632 2.43-2.01 1.96-2.48-0.151-0.151-0.0179-0.431 0.245-0.515 0.123-0.0389 0.277-0.144 0.343-0.234 0.195-0.266 0.694-0.0361 0.762 0.351l0.0544 0.308h1.38l0.447-0.315c0.246-0.173 0.588-0.522 0.759-0.776l0.312-0.462 2e-3 -0.582c1e-3 -0.351 0.0613-0.653 0.151-0.761 0.0819-0.0987 0.199-0.279 0.26-0.401 0.0685-0.137 0.209-0.222 0.366-0.222 1.15 0 2.08-2.58 1.6-4.43-0.297-1.14-1.57-2.63-2.13-2.48-0.138 0.036-0.308-0.0351-0.49-0.204-0.153-0.143-0.386-0.315-0.518-0.383-0.333-0.171-0.245-0.448 0.189-0.591l0.361-0.119-0.021-0.59c-0.0579-1.62-1.43-3.13-3.21-3.53l-0.796-0.177-0.696 0.108c-1.68 0.261-3.4 1.58-3.4 2.62v0.392l-0.543 0.251c-0.574 0.265-0.802 0.224-0.802-0.146v-0.194l-0.388 8e-3c-0.858 0.0174-1.82 0.629-2.3 1.46-0.462 0.806-0.486 0.784 2.17 1.95 1.4 0.617 1.6 0.762 0.765 0.555-0.335-0.0832-1.1-0.266-1.7-0.406s-2.11-0.584-3.36-0.986c-3.26-1.05-5.02-1.57-5.16-1.52-0.0654 0.0224 2.03 1.46 4.66 3.2 5.68 3.76 5.7 3.78 3.32 2.76-1.65-0.706-1.62-0.706-1.94-0.0397-0.313 0.647-0.317 1.47-9e-3 2.16 0.443 0.999 0.661 1.08 1.24 0.47 0.523-0.55 0.705-0.526 1.18 0.16l0.393 0.567-0.178 0.0683c-0.0987 0.0379-0.318-0.0121-0.493-0.112l-0.315-0.181-0.138 0.189c-0.0759 0.104-0.162 0.305-0.19 0.447-0.0288 0.142-0.102 0.428-0.164 0.635-0.431 1.46 0.42 3.18 1.99 4.02 0.912 0.486 1.06 0.519 2.27 0.491l1.09-0.0247zm-56.5-6.84c2.83-5.91 7.1-10.2 10.2-10.2 2.68 2e-3 6.79 2.88 11.4 7.98 1.45 1.6 1.37 1.63 1.37-0.562 0-10.7 4.14-13.2 15.9-9.44 2.03 0.644 2.38 0.737 2.38 0.625 0-0.0274-0.502-0.715-1.12-1.53-0.614-0.814-1.38-1.9-1.71-2.42l-0.596-0.94-1.52-0.0616c-4.75-0.192-9.73-2.81-12.1-6.37-0.532-0.787-0.593-0.722-0.637 0.679l-0.0383 1.22-0.869 1.78-0.777 0.726c-1.42 1.32-3.12 1.97-5.39 2.07l-1.35 0.0546-0.61-0.177c-1.41-0.41-2.43-1.25-3.62-2.95-0.335-0.484-0.757-1.09-0.936-1.35-0.179-0.256-1.08-1.57-2.01-2.93-1.64-2.4-1.95-2.73-1.83-1.95 0.103 0.664 0.473 5.44 0.492 6.34 0.0637 3.16-2.52 5.19-6.81 5.34l-1.46 0.0529-0.608-0.177c-0.335-0.0973-0.702-0.243-0.817-0.323-0.294-0.206-0.473-0.184-0.91 0.113-4.69 3.19-8.98 1.65-10.9-3.91-0.0952-0.278-6.51 1.12-6.86 1.5-0.125 0.134-0.352 1.48-0.352 2.09v0.35l0.388 0.127c2.59 0.85 3.31 3.9 2.12 9.02-0.422 1.83-0.411 1.9 0.205 1.44 4.91-3.64 8.76-5.56 11.4-5.68l1.14-0.0534 0.82 0.344c2.1 0.882 3.77 3.55 5.08 8.11 0.511 1.79 0.502 1.78 0.869 1.01zm-55-10.5c-0.118-0.414-0.401-1.41-0.629-2.2-0.228-0.797-0.507-1.93-0.619-2.52l-0.204-1.07 0.209-0.41c0.115-0.225 0.317-0.451 0.449-0.501 0.132-0.0503 0.267-0.161 0.3-0.247 0.0385-0.1 0.138-0.134 0.283-0.0966 0.131 0.0342 0.259 2e-3 0.309-0.0785 0.0466-0.0754 0.263-0.14 0.481-0.144l0.396-7e-3 0.0332-0.259c0.0394-0.307 0.281-0.517 0.596-0.517 0.125 0 0.361-0.0696 0.524-0.155 0.163-0.085 0.422-0.155 0.576-0.155 0.266-6.1e-4 0.437-0.055 1.18-0.375 0.177-0.0762 0.432-0.3 0.568-0.498 0.277-0.405 1.25-0.934 1.56-0.852l0.199 0.0521-0.0603-0.948 1.03-0.405c4.04-1.58 6.07-1.46 7.11 0.43 0.19 0.345 0.4 0.628 0.467 0.628 0.147 1e-3 0.28 0.37 0.188 0.519-0.0361 0.0584-0.104 0.0826-0.15 0.0538-0.0968-0.0598-0.208 0.291-0.21 0.663l-0.0014 0.252 0.31-0.297c0.171-0.164 0.31-0.402 0.31-0.529v-0.232l0.595-0.0667c0.327-0.0367 0.665-0.093 0.75-0.125 0.0854-0.0322 0.737-0.0651 1.45-0.0732 0.712-8e-3 1.36-0.0567 1.44-0.108 0.0824-0.0513 0.362-0.0834 0.621-0.0713 0.648 0.0302 1.04-0.235 1.4-0.957 0.422-0.833 0.53-0.893 0.684-0.38 0.2 0.666 0.224 0.418 0.0491-0.503-0.616-3.25-3.44-5.79-6.44-5.8-0.241-8.6e-4 -0.48-0.0656-0.549-0.148l-0.122-0.147 0.586-0.604c1.38-1.42 2.18-2.75 2.7-4.46l0.275-0.902-6.79e-4 -1.4-6.78e-4 -1.4-0.339-1.03c-0.879-2.68-2.11-3.91-4.78-4.76l-0.869-0.278-1.52-0.0535c-6.14-0.216-18 5.55-18 8.75 0 0.167 0.444 1.93 0.988 3.91 0.543 1.98 1.64 6.01 2.44 8.94 0.797 2.93 1.61 5.91 1.82 6.62 0.202 0.712 0.638 2.27 0.969 3.47s0.64 2.27 0.686 2.38l0.0841 0.207 0.036-0.178c0.0198-0.0981-0.0602-0.517-0.178-0.931zm4.46-18.1c-1.42-5.73-1.48-5.47 1.54-6.47 4.1-1.36 6.17 1.42 3.24 4.35l-0.75 0.75-1.81 0.88c-2.08 1.01-2.09 1.01-2.22 0.492zm2.9-2.81c0.815-0.517 0.7-0.699-0.235-0.369-0.482 0.17-0.625 0.31-0.54 0.531 0.0793 0.207 0.25 0.171 0.775-0.162zm2.96 16.2c2.09-0.705 3.26-1.57 3.91-2.9 0.415-0.849 0.296-1.06-0.188-0.328-0.817 1.23-1.89 2.05-3.74 2.88-1.77 0.787-1.76 0.943 0.019 0.344zm0.389-2.51c1.05-0.633 1.71-1.3 1.71-1.73v-0.202l-0.802 0.0589c-0.751 0.0551-1.92 0.377-2.13 0.586-0.0546 0.0546-0.021 0.415 0.0819 0.877 0.207 0.929 0.254 0.946 1.14 0.41zm18.2-4.75c0.193-0.142 0.476-0.259 0.628-0.259s0.336-0.0699 0.407-0.155c0.0709-0.0854 0.288-0.155 0.483-0.155 0.197 0 0.484-0.0963 0.648-0.218 0.205-0.151 0.493-0.23 0.945-0.258 0.45-0.0276 0.717-0.1 0.866-0.235 0.275-0.25 1.38-0.363 1.65-0.169 0.0997 0.0729 0.268 0.11 0.375 0.082 0.106-0.0278 0.332 0.052 0.501 0.177 0.215 0.159 0.513 0.244 0.984 0.282l0.676 0.0542 0.487-0.272c0.268-0.15 0.599-0.272 0.736-0.272 0.137 0 0.352-0.0645 0.479-0.143 0.126-0.0788 0.449-0.144 0.719-0.146 0.538-3e-3 1.27-0.241 1.86-0.61 0.212-0.131 0.505-0.239 0.65-0.239 0.159 0 0.389-0.127 0.575-0.318 0.194-0.199 0.454-0.339 0.695-0.375 0.212-0.0315 0.441-0.127 0.509-0.213 0.141-0.177 0.749-0.334 1.58-0.409 0.313-0.0283 0.616-0.0859 0.673-0.128 0.0569-0.0422 0.38-0.0623 0.717-0.0445 0.341 0.018 0.674-0.0178 0.75-0.0804 0.0747-0.062 0.229-0.0883 0.343-0.0585 0.259 0.0677 0.261-0.049 0.0084-0.588-0.11-0.234-0.478-1.05-0.818-1.82s-0.909-2.05-1.26-2.85-0.888-2.01-1.19-2.69c-2.18-4.99-5.93-13.1-6.54-14.1-0.408-0.696-0.79-1.04-1.43-1.28l-0.47-0.18-1.22 0.0548c-1.86 0.084-3.95 0.587-5.51 1.33-2.02 0.961-2.21 1.3-2.99 5.42-0.172 0.911-0.57 3.01-0.883 4.66-0.313 1.65-0.662 3.54-0.775 4.19-0.113 0.655-0.506 2.84-0.873 4.86-0.822 4.52-0.854 4.78-0.651 5.09 0.0854 0.132 0.259 0.556 0.385 0.943 0.126 0.387 0.262 0.652 0.301 0.589 0.0449-0.0727 0.137-0.0149 0.249 0.156l0.178 0.272 0.555-0.0693c0.305-0.0381 0.616-0.0316 0.69 0.0145 0.208 0.129 1.1 0.155 1.18 0.035 0.044-0.0711 0.118-0.064 0.221 0.0214 0.156 0.13 0.377 0.186 0.879 0.223 0.152 0.0113 0.311 0.0555 0.354 0.0982 0.133 0.133 0.301 0.087 0.664-0.181zm2.93-5.44c0.0904-0.705 1.5-9.47 1.66-10.3 0.232-1.22 0.346-1.13 1.26 0.983 0.359 0.828 1.48 3.39 2.27 5.17 0.794 1.8 1.1 2.61 1.07 2.82l-0.031 0.206-2.79 0.71c-1.54 0.391-2.95 0.741-3.15 0.778l-0.352 0.0674zm3.76-2.41c0.0311-0.0809 0.0013-0.25-0.0661-0.376-0.142-0.265-0.303-0.112-0.306 0.29-0.0018 0.26 0.28 0.325 0.372 0.0857zm71.5 4.41c0.0291-2.24 4.46-4.95 6.62-4.06 0.59 0.244 0.446 3e-3 -0.165-0.277-2.51-1.15-5.78 0.52-6.51 3.33-0.182 0.698-0.21 1.33-0.0552 1.24 0.0569-0.0352 0.105-0.143 0.106-0.239zm-56.3-0.591c0.399-0.0532 0.593-0.14 0.755-0.339l0.218-0.267 0.541 0.0247c0.306 0.014 0.606-0.0294 0.691-0.0997 0.117-0.0972 0.245-0.0939 0.586 0.0153 0.572 0.183 0.809 0.2 1.04 0.076 0.107-0.0562 0.363-0.101 0.569-0.0996 0.207 1e-3 0.617-0.11 0.913-0.248s0.622-0.251 0.726-0.251c0.104 0 0.393-0.211 0.642-0.468 0.501-0.517 0.516-0.518 0.632-0.029 0.0959 0.404 0.0308-1.36-0.119-3.23-0.0571-0.712-0.13-1.77-0.162-2.35l-0.0582-1.06h0.159c0.168 0 0.49 0.421 1.99 2.6 0.512 0.745 1.28 1.85 1.71 2.45l0.778 1.1 0.567 0.0117c0.312 6e-3 0.669 0.0665 0.793 0.133 0.31 0.167 0.55 0.153 0.55-0.0335 0-0.185 0.0495-0.191 0.326-0.0435 0.16 0.0859 0.249 0.0752 0.383-0.046 0.132-0.119 0.508-0.168 1.55-0.2 0.755-0.0235 1.4-0.0727 1.44-0.109 0.0366-0.0366 0.218-0.0666 0.403-0.0666 0.185 0 0.622-0.0731 0.971-0.162 0.38-0.0974 0.765-0.134 0.962-0.0904 0.551 0.121 1.98 0.0656 2.09-0.0812 0.0571-0.0724 0.321-0.206 0.586-0.297l0.482-0.165 0.533 0.323 0.292-0.4 0.153 0.127c0.084 0.0697 0.263 0.114 0.398 0.0996 0.19-0.0209 0.287 0.0551 0.428 0.335l0.182 0.362-3e-4 -2.74c-1.6e-4 -1.51-0.0456-4.19-0.101-5.95s-0.174-6.14-0.265-9.73c-0.182-7.25-0.161-7.06-0.876-7.85-1.65-1.8-7.29-0.693-8.01 1.58-0.314 0.989-0.307 1.15 0.404 9.63 0.28 3.34 0.431 5.23 0.532 6.69 0.102 1.46-0.0798 1.4-1.2-0.355-0.35-0.551-1.04-1.63-1.53-2.4-1.17-1.83-2.2-3.46-3.09-4.89-0.398-0.639-0.911-1.45-1.14-1.8-0.228-0.352-0.713-1.12-1.08-1.71-3.07-4.92-3.45-5.19-6.55-4.59-3.86 0.738-4.78 1.94-4.48 5.83 0.207 2.68 0.928 10.8 1.2 13.5 0.117 1.17 0.302 3.15 0.41 4.4 0.274 3.17 0.404 4.03 0.495 3.24l0.0319-0.276zm43.4-1.15c1.4-0.415 2.4-1.14 2.7-1.95 0.0868-0.24 0.2-0.369 0.323-0.369 0.347 0 1.47-0.526 1.72-0.804 0.332-0.369 0.687-0.541 1.12-0.541 0.196 0 0.439-0.0439 0.54-0.0976 0.123-0.0658 0.33-0.0467 0.636 0.0586 0.357 0.123 0.546 0.133 0.892 0.0458 0.241-0.0607 0.691-0.11 1-0.11 0.357 0 0.607-0.0531 0.683-0.146 0.142-0.172 0.739-0.469 0.888-0.442 0.151 0.0269 0.218-0.752 0.368-4.3l0.135-3.18-0.191-0.424c-0.652-1.45-1.67-1.56-9.38-1.09-3.53 0.215-4.07 0.444-4.79 2.02-1.34 2.96 0.16 5.8 2.9 5.47 3.5-0.415 3.28-0.528 3.23 1.61l-0.0344 1.66-0.292 0.496c-0.879 1.5-3.26 2.22-5.68 1.72-1.29-0.263-1.27 0.0295 0.0223 0.425 0.5 0.153 2.62 0.106 3.22-0.0701zm-72.4-0.436c0-0.319 2.35-13.1 3-16.3 0.479-2.37 0.719-3.17 1.15-3.8 0.418-0.616 0.438-0.601-0.837-0.601-1.38 0-2.65-0.133-4.65-0.485-2.45-0.43-2.52-0.442-2.57-0.396-0.0499 0.0499 0.417 0.656 1.15 1.5 2.77 3.17 3.47 6.04 1.98 8.14-0.43 0.605-0.43 0.603-0.107 1.5 0.893 2.48 0.695 5.9-0.48 8.27l-0.535 1.08 0.248 0.163c0.136 0.0895 0.505 0.359 0.82 0.599 0.549 0.419 0.831 0.54 0.831 0.358zm57.2-0.614c0.0793-0.1 0.137-0.103 0.249-0.01 0.114 0.095 0.213 0.0714 0.458-0.11 0.205-0.151 0.355-0.198 0.436-0.136 0.0678 0.0522 0.542 0.154 1.05 0.225 0.512 0.0716 1.03 0.193 1.15 0.271 0.154 0.0972 0.553 0.137 1.29 0.129l1.07-0.0116 0.32-0.243c0.176-0.134 0.396-0.243 0.489-0.243 0.0925 0 0.269-0.137 0.393-0.304s0.357-0.359 0.518-0.425l0.293-0.121-0.0327-0.699c-0.0243-0.521-0.102-0.824-0.306-1.19-4.45-7.97 3.12-18.8 11.5-16.3 3.39 0.983 6.61-2.25 5.54-5.58l-0.24-0.754-0.62-0.61c-1.86-1.83-6.76-2.74-10.4-1.94-10.3 2.29-16.6 12.8-14.6 24.3 0.257 1.48 1.18 4.4 1.28 4.06 0.0255-0.0821 0.0929-0.208 0.15-0.28zm14.4-1.07c0.635-0.16 0.578-0.244-0.268-0.395-1.9-0.34-3.52-1.84-4.22-3.91l-0.274-0.806-8.8e-4 -1.73-8.9e-4 -1.73-0.127 0.366c-1.58 4.56 1.16 9.15 4.89 8.2zm-5.96-0.132c0-0.0222-0.167-0.22-0.372-0.44-0.378-0.406-0.379-0.32-3e-3 0.196 0.179 0.245 0.375 0.373 0.375 0.244zm-40.4-7.88c-1.13-12-1.13-12.2-0.282-13.7 1.07-2 3.75-3.32 7.07-3.46l1.35-0.0565 0.613 0.178c1.67 0.485 2.34 1.15 4.33 4.29 1.77 2.79 3.25 5.14 3.93 6.24 0.755 1.23 0.762 1.21 0.535-1.17-0.81-8.52-0.504-10 2.35-11.4 4.56-2.17 8.97-0.956 10.6 2.92l0.271 0.639 0.0549 2.48c0.0616 2.78 0.0892 2.86 0.646 1.89 1.84-3.2 5.07-6.14 8.78-7.99 0.541-0.27 0.998-0.503 1.02-0.519 0.0178-0.016 0.123-0.464 0.235-0.995 0.398-1.9 1.28-4.11 2.52-6.33 0.213-0.381 0.352-0.692 0.308-0.692-0.0433 0-1.18 0.55-2.52 1.22-6.31 3.16-10.1 4.42-13.3 4.42l-1.55 1e-3 -0.569-0.195c-3.77-1.29-5.9-5.7-6.78-14-0.0764-0.722-0.172-0.798-0.414-0.329-0.633 1.22-3.5 5.59-4.92 7.5-4.61 6.18-7.16 5.57-14.5-3.47-0.438-0.541-0.874-1.05-0.968-1.13l-0.171-0.142v1.13c0 3.92-0.862 8.26-2.18 10.9-1.82 3.73-4.48 3.89-11.3 0.666-1.87-0.889-1.73-0.936-1.34 0.471l0.316 1.14 0.0211 3.73-0.191 0.621c-0.105 0.342-0.308 0.868-0.45 1.17-0.33 0.7-0.333 0.699 0.759 0.393 3.87-1.08 6.2-0.785 7.86 1 0.963 1.04 1.71 2.54 6.12 12.3 0.941 2.08 1.76 3.87 1.83 3.98l0.116 0.207 0.0308-0.259c0.0169-0.142-0.113-1.8-0.29-3.67zm69-0.207c0.178-0.854 0.482-2.3 0.677-3.21 0.195-0.911 0.431-2.08 0.525-2.59 0.0938-0.512 0.543-2.79 0.998-5.07 0.455-2.28 0.934-4.7 1.07-5.38 0.131-0.683 0.41-2.1 0.621-3.16 0.211-1.05 0.406-2.22 0.433-2.6l0.0505-0.687-0.315-0.659c-0.488-1.02-1.4-1.67-3.28-2.33l-0.828-0.291-3.93 8e-3 -0.91 0.281c-3.65 1.13-4.37 2.31-4.12 6.82 0.249 4.53 0.43 7.46 0.626 10.1 0.111 1.51 0.228 3.21 0.261 3.78 0.129 2.23 0.365 5.62 0.427 6.14l0.0656 0.549 0.198-0.213c0.226-0.243 0.708-0.289 0.708-0.0685 0 0.179 0.957 0.692 1.11 0.597 0.0622-0.0385 0.804-0.0841 1.65-0.102 0.844-0.0174 1.58-0.0752 1.63-0.129 0.137-0.135 0.615-0.121 0.939 0.0267 0.21 0.0958 0.316 0.0958 0.469 0 0.304-0.19 0.407-0.15 0.418 0.161l0.0107 0.285 0.0858-0.362c0.0472-0.199 0.231-1.06 0.409-1.91zm-26-3.17c8e-3 -0.132 1.29-0.957 1.77-1.14 0.857-0.326 5.99-0.713 9.88-0.746l1.76-0.0147 0.621 0.186c0.342 0.103 0.871 0.326 1.18 0.497 0.739 0.413 0.742 0.406 0.629-1.62-0.251-4.51-0.193-4.29-0.862-3.26-0.809 1.26-2.27 2.39-3.62 2.81l-0.71 0.219-0.894-0.0551c-0.492-0.0303-1.07-0.13-1.28-0.222-2.74-1.18-6.13-0.212-8.11 2.31-0.434 0.552-1.08 1.65-1.07 1.83 2e-3 0.0956 0.713-0.697 0.719-0.802zm-45.1 51.2c-0.359-0.282-0.453 0.116 1.08-4.59 1.96-5.98 1.98-5.84 0.444 2.52-0.254 1.38-0.423 2.06-0.536 2.15-0.247 0.194-0.684 0.156-0.991-0.0851zm-3.27-2.34c-0.786-0.289-0.754-0.367 1.51-3.77 2.67-4 2.93-4.27 1.81-1.87-0.335 0.721-0.867 1.89-1.18 2.6-0.314 0.712-0.76 1.7-0.99 2.2l-0.418 0.906-0.289-8e-3c-0.159-4e-3 -0.359-0.0339-0.445-0.0652zm50.8-1.02c-0.0913-0.0913-0.263-0.359-0.382-0.595-0.119-0.236-0.763-1.41-1.43-2.6-2.02-3.61-4.06-7.41-4.01-7.46 0.0563-0.0563 2.06 2.61 4.37 5.81 0.904 1.25 1.91 2.65 2.25 3.1s0.603 0.909 0.603 1.02c0 0.649-0.969 1.16-1.39 0.74zm-82.8-0.656c-0.272-0.124-0.541-0.36-0.724-0.637l-0.291-0.44 6.06e-4 -0.629c0.0019-1.97 2.64-2.72 3.67-1.04 1.03 1.66-0.83 3.58-2.66 2.75zm1.54-0.647c0.18-0.0673 0.362-0.273 0.509-0.576l0.228-0.471-0.146-0.42c-0.311-0.893-1.4-1.17-2.07-0.524-0.703 0.673-0.46 1.74 0.467 2.06 0.407 0.139 0.474 0.135 1.01-0.065zm7.23-3.13c-1.61-0.509-2.06-2.48-0.854-3.69 1.74-1.74 4.53 0.103 3.58 2.37-0.437 1.05-1.68 1.65-2.73 1.32zm1.52-0.848c1.28-0.959 0.819-2.78-0.742-2.91l-0.527-0.0422-0.36 0.245c-0.796 0.541-1.01 1.27-0.629 2.12 0.365 0.804 1.55 1.11 2.26 0.584zm73.2-1.39c-0.497-0.634-1.26-1.6-1.7-2.15-2.9-3.61-2.88-3.63 0.547-0.542 3.54 3.19 3.49 3.13 2.66 3.64-0.502 0.306-0.527 0.291-1.5-0.949zm-89.1-49c-4.5-1.17-4.63-1.21-4.72-1.57-0.0966-0.385 0.0923-0.889 0.397-1.06l0.273-0.153 1.69 0.806c3.79 1.81 5.41 2.63 5.16 2.63-0.142 1.8e-4 -1.4-0.296-2.79-0.659zm2.42-2.16c-2.54-1.26-2.83-1.54-2.09-1.94l0.21-0.112 0.481 0.301c1.01 0.632 3.63 2.72 3.4 2.72-0.0322 0-0.936-0.436-2.01-0.97zm10.7-5.79c-1.33-0.646-3.29-1.64-4.34-2.22l-1.91-1.05-0.207 0.153c-0.568 0.419-0.862 0.57-1.22 0.629l-0.394 0.0646-0.339 0.529c-0.445 0.693-1.09 1.26-1.81 1.6l-0.582 0.273h-2.28l-0.693-0.329c-0.808-0.383-1.56-1.09-1.83-1.72l-0.19-0.444-0.452-0.134c-3.33-0.985-4.4-5.14-1.95-7.66 0.293-0.303 0.509-0.612 0.48-0.688-1.44-3.75 4.31-8.18 7.59-5.85l0.322 0.229 1.6-0.688 2.07-0.00183 0.614 0.287c2.14 1 3.17 3.44 2.42 5.71l-0.222 0.676 0.196 0.436c0.143 0.318 0.196 0.674 0.196 1.32v0.882l-0.686 1.45 0.498 0.464c2.12 1.98 6.55 6.25 6.51 6.29-0.202 0.202-5.9-4.54-9.09-7.56-2.07-1.97-2.01-2.03 0.313-0.356l0.856 0.617 0.2-0.181c0.653-0.591 0.661-1.93 0.0212-3.34-0.538-1.19-0.571-1.52-0.109-1.1 0.69 0.624 0.837-1.36 0.199-2.69-0.911-1.91-3.95-2.66-5.06-1.25-0.109 0.139-0.258 0.252-0.331 0.252s-0.288 0.0559-0.477 0.124c-0.425 0.154-0.603 0.0172-0.603-0.462v-0.327l-0.466-0.179c-1.48-0.57-3.76 0.144-4.79 1.5-0.71 0.933-1.13 2.64-0.808 3.26l0.117 0.218 0.651-0.227 0.139 0.191c0.215 0.294 0.17 0.423-0.23 0.659-0.284 0.168-0.354 0.264-0.305 0.42 0.14 0.441-0.294 0.8-0.568 0.469-0.257-0.309-0.732 0.0919-1.22 1.03l-0.273 0.524-0.0066 2.07 0.291 0.553c0.572 1.09 1.85 2.09 2.68 2.09 0.384 0 0.708 0.332 0.708 0.727 0 1.95 4.28 2.46 5.4 0.646l0.222-0.359-0.144-0.0914c-0.0794-0.0503-0.201-0.0921-0.27-0.093-0.605-8e-3 -1.05-0.991-0.495-1.1l0.362-0.068 0.181 0.223c0.36 0.444 1.81 0.39 2.24-0.0836l0.168-0.186-0.895-0.814c-1.58-1.44-0.924-1.13 5.45 2.56 2.81 1.63 5.36 3.29 5.04 3.29-0.0178 0-1.12-0.528-2.46-1.17zm84.4-7.38c0.228-0.204 0.973-0.839 1.66-1.41 0.683-0.573 2.73-2.31 4.55-3.85 6.39-5.42 5.86-5.05 6.45-4.55 0.778 0.654 0.645 0.885-1.27 2.21-11.1 7.66-11.6 7.98-11.7 7.98-0.0577-2e-3 0.0814-0.171 0.309-0.375zm-74.1-6.61-4.95-5.02-0.0307-0.337c-0.0386-0.425 0.401-0.884 0.928-0.969l0.36-0.0585 0.442 0.502c0.243 0.276 1.62 2.04 3.06 3.92 1.44 1.88 3.21 4.18 3.92 5.11 1.16 1.5 1.41 1.88 1.26 1.88-0.0238 0-2.27-2.26-4.99-5.02zm8.12 4.22c-0.144-0.165-3.55-5.07-3.74-5.39-0.138-0.229 0.022-0.599 0.316-0.733l0.28-0.128 0.242 0.187c0.263 0.204 3.26 6.24 3.1 6.24-0.0178 0-0.104-0.0815-0.19-0.181zm65.5-0.906c0.227-0.472 3.51-5.03 3.72-5.16 0.258-0.162 0.74 0.124 0.773 0.459l0.0258 0.255-2.33 2.38c-1.28 1.31-2.27 2.24-2.18 2.07zm-21.6-3.62c0.913-1.72 3.84-5.96 7.38-10.7 1.68-2.26 1.87-2.36 0.941-0.509-0.697 1.39-0.702 1.49-0.0904 1.71 0.804 0.291 1.7 0.0966 1.7-0.368 0-0.178 0.0812-0.273 0.295-0.345l0.295-0.099 0.274 0.222c2.4 1.95 5.95-0.699 5.49-4.09-0.216-1.59-1.69-3.24-2.76-3.09-0.607 0.0885-0.693-0.0286-0.7-0.954-0.0122-1.54-1.09-2.7-2.72-2.93-1.12-0.159-2.73 0.39-2.55 0.87 0.0951 0.248-0.224 0.481-0.713 0.521l-0.49 0.0399-0.121-0.225c-0.0664-0.124-0.113-0.237-0.103-0.251 0.317-0.469-1.85-0.827-2.94-0.485-0.819 0.258-1.76 1.14-2.18 2.03l-0.299 0.649-9.6e-4 1.76 0.343 0.696c0.378 0.768 0.501 0.826 0.903 0.424l0.272-0.272 0.333 0.333-0.175 0.368c-0.0965 0.202-0.175 0.532-0.175 0.733s-0.0494 0.458-0.11 0.571c-0.211 0.394 0.0701 1.29 0.567 1.81 0.584 0.609 0.654 0.591 1.33-0.35 1.15-1.6 1.08-1.21-0.317 1.82-1.83 3.97-5.72 11.2-4.99 9.29 0.396-1.04 2.29-5.41 3.74-8.61l0.335-0.743-0.572-0.523c-0.763-0.697-1.05-1.34-1.07-2.42l-0.0159-0.807-0.31-0.331c-2-2.14-1.12-5.8 1.7-7.14l0.696-0.33h2.38l1.21 0.568 0.584-0.355c2.56-1.56 5.93-0.171 6.41 2.64 0.0789 0.462 0.0975 0.48 0.888 0.835 5.18 2.33 1.88 11.3-3.43 9.28l-0.545-0.203-0.49 0.241c-0.688 0.339-1.85 0.337-2.5-3e-3l-0.453-0.239-0.128 0.138c-0.0706 0.076-0.995 1.29-2.05 2.7-1.75 2.32-3.25 4.23-4.66 5.93-0.804 0.965-0.833 0.98-0.422 0.207zm11.2-2.72c-2.07-1.33-0.221-4.59 1.98-3.48 1.26 0.637 1.36 2.46 0.177 3.4l-0.392 0.312-1.29 0.0762zm1.67-0.59c0.678-0.351 0.831-1.35 0.299-1.96-0.578-0.658-1.5-0.577-1.96 0.173-0.692 1.13 0.48 2.39 1.66 1.78zm9.21-4.35c-2.07-0.898-1.93-3.63 0.231-4.35 1.45-0.483 3.02 0.819 2.83 2.36-0.179 1.51-1.78 2.54-3.06 1.99zm1.55-0.857c0.77-0.413 1.02-1.48 0.521-2.19-0.723-1.02-2.36-0.709-2.66 0.499-0.316 1.27 0.995 2.3 2.14 1.69z" fill="#0070fb"/><path d="m63.8 198c-1.17-0.23-2.29-1.11-2.76-2.16l-0.271-0.604-0.668-0.329c-3.06-1.51-2.75-6.28 0.492-7.37l0.537-0.181 0.238-0.447c0.71-1.34 2.27-1.93 3.75-1.43l0.672 0.227 0.0836-0.139c0.046-0.0764 0.607-1.12 1.25-2.31 1.64-3.07 3.29-5.95 3.39-5.95 0.243 0-1.87 4.66-3.85 8.51-1.82 3.54-2.19 4.01-1.49 1.94 0.399-1.19 0.402-1.15-0.0875-1.38-0.837-0.397-2.32-0.0222-2.76 0.696l-0.193 0.318 0.152 0.168c0.385 0.425-0.101 0.854-0.853 0.753-0.79-0.106-1.63 0.51-2.21 1.62l-0.243 0.466-0.0045 0.88-0.0045 0.88 0.238 0.517c0.277 0.603 0.848 1.23 1.29 1.41l0.313 0.13 0.151-0.227c0.214-0.322 0.52-0.292 0.602 0.0579 0.0369 0.157 0.185 0.412 0.33 0.567l0.263 0.283-0.369 0.408 0.212 0.341c0.783 1.26 2.49 1.82 3.94 1.28 0.894-0.33 1.67-1.12 1.46-1.5-0.0826-0.154-0.0621-0.256 0.0894-0.443l0.196-0.242 0.345 0.142c1.52 0.628 2.98-0.355 2.98-2.01 0-0.707-0.131-0.98-0.469-0.98-0.272 0-0.285-0.0335-0.257-0.673 0.0138-0.311 0.0875-0.47 0.295-0.637l0.276-0.223-0.0076-0.529c-0.0122-0.847-0.718-1.7-1.51-1.83l-0.374-0.0607-0.449 0.658c-0.816 1.2-0.542 0.19 1.27-4.67 3.33-8.93 3.78-11.4 2.36-12.9l-0.4-0.428-0.554 0.58c-2.48 2.59-6.91 2.92-9.35 0.69-0.644-0.589-0.707-0.596-1.18-0.139-3.35 3.24-11.4 6.81-16.7 7.39-1.9 0.213-3.53-0.397-4.72-1.77-0.595-0.684-0.606-0.716-3.25-10.4-1.37-5.04-2.68-9.79-2.9-10.6s-0.756-2.7-1.19-4.3c-0.434-1.59-0.885-3.22-1-3.6-0.167-0.555-0.204-0.902-0.169-1.62l0.0437-0.915 0.376-0.76c0.658-1.33 1.38-1.96 4.22-3.69 8.29-5.03 16.3-6.4 20.8-3.55 0.326 0.21 0.658 0.421 0.738 0.47l0.145 0.0881-0.0558-0.416c-0.203-1.51-1.79-3.59-6.21-8.13-1.48-1.53-2.67-2.8-2.63-2.84 0.0355-0.0355 1.66 0.201 3.61 0.525 9.5 1.58 12.4 1.51 13.5-0.304 1.13-1.78 0.677-5.05-1.43-10.3-0.518-1.29-0.941-2.37-0.941-2.41 0-0.159 0.306-0.0138 1.69 0.801 6.3 3.71 11 5.5 13 4.91 3.12-0.936 4.18-10.5 2.32-21.1-0.607-3.44-0.805-3.47 2 0.257 7.61 10.1 12 13.7 14.9 12.3 1.98-0.996 4.79-4.95 10.4-14.6 1.97-3.41 2.41-4.13 2.51-4.13 0.0589 0 0.126 1.35 0.166 3.36 0.165 8.24 0.999 13.2 2.88 17 2.59 5.3 6.76 4.61 23.9-3.94 2.56-1.28 4.67-2.28 4.69-2.22 0.0199 0.0598-0.52 1-1.2 2.1-3.46 5.58-5.53 10.2-5.85 13-0.0747 0.653-0.0438 0.669 1.54 0.769 3.55 0.224 6.93 1.53 8.36 3.23 0.492 0.585 0.544 0.468 0.455-1.02-0.181-3.03-0.112-3.9 0.394-4.97 3.25-6.88 17.3-5.26 17.9 2.06l0.0617 0.753-0.43 2.17c-0.236 1.2-0.75 3.76-1.14 5.69s-1.37 6.83-2.17 10.9c-1.62 8.12-1.61 8.1-2.57 9.03l-0.56 0.54 0.554 0.668c1.28 1.55 1.84 2.9 1.92 4.68l0.0547 1.15-0.272 0.947c-1.46 5.08-7.24 7.18-11.1 4.04-0.749-0.604-0.758-0.605-1.04-0.151-1.45 2.35-5.58 3.09-7.98 1.44l-0.53-0.365-0.791 0.358c-0.435 0.197-0.965 0.414-1.18 0.483-0.558 0.18-0.556 0.216 0.089 1.16 1.44 2.11 7.42 9.09 7.79 9.09 0.0454 0 0.171-0.198 0.278-0.44 0.571-1.28 2.5-2.42 3.72-2.19l0.338 0.0635 0.375-0.586c2.71-4.23 9.34-2.72 9.66 2.2l0.0558 0.858 0.556 0.369c2.73 1.81 2.91 5.87 0.347 8.13l-0.616 0.542-0.109 0.523c-0.341 1.64-1.76 2.79-3.45 2.78l-0.807-4e-3 -0.405 0.596c-2.92 4.3-10.1 2.25-9.69-2.77l0.063-0.747-0.493-0.495c-0.271-0.272-0.606-0.728-0.744-1.01l-0.251-0.517-2.3e-4 -0.887-2.2e-4 -0.887 0.28-0.572c0.154-0.315 0.28-0.621 0.28-0.68 0-0.0964-2.59-1.95-6.42-4.58-0.768-0.53-1.54-1.06-1.72-1.19-0.943-0.652-7.46-1.74-9.13-1.53-4.5 0.578-5.34 7.96-2.34 20.7 0.369 1.56 0.364 1.56-2.39-1.67-8.81-10.3-13.9-14.7-16.7-14.4-3.01 0.412-6.18 5.1-10.2 15.1-0.74 1.83-0.601 2.01-1.6-2.02-2.35-9.41-3.82-12.4-6.33-12.8l-0.671-0.115-0.756 0.184c-2.98 0.725-8.44 4.31-14.6 9.57-0.657 0.563-0.658 0.573-0.0942 0.823 1.3 0.574 1.99 2.21 1.47 3.47l-0.154 0.368 0.256 0.55c0.191 0.411 0.256 0.725 0.257 1.24l1e-3 0.69-0.338 0.653c-0.565 1.09-1.87 1.87-2.88 1.7l-0.396-0.0633-0.314 0.456c-0.891 1.3-2.57 1.94-4.22 1.61zm87.2-9.17c1.34-0.632 2.43-2.01 1.96-2.48-0.151-0.151-0.0179-0.431 0.245-0.515 0.123-0.0389 0.277-0.144 0.343-0.234 0.195-0.266 0.694-0.0361 0.762 0.351l0.0544 0.308h1.38l0.447-0.315c0.246-0.173 0.588-0.522 0.759-0.776l0.312-0.462 2e-3 -0.582c1e-3 -0.351 0.0613-0.653 0.151-0.761 0.0819-0.0987 0.199-0.279 0.26-0.401 0.0685-0.137 0.209-0.222 0.366-0.222 1.15 0 2.08-2.58 1.6-4.43-0.297-1.14-1.57-2.63-2.13-2.48-0.138 0.036-0.308-0.0351-0.49-0.204-0.153-0.143-0.386-0.315-0.518-0.383-0.333-0.171-0.245-0.448 0.189-0.591l0.361-0.119-0.021-0.59c-0.0579-1.62-1.43-3.13-3.21-3.53l-0.796-0.177-0.696 0.108c-1.68 0.261-3.4 1.58-3.4 2.62v0.392l-0.543 0.251c-0.574 0.265-0.802 0.224-0.802-0.146v-0.194l-0.388 8e-3c-0.858 0.0174-1.82 0.629-2.3 1.46-0.462 0.806-0.486 0.784 2.17 1.95 1.4 0.617 1.6 0.762 0.765 0.555-0.335-0.0832-1.1-0.266-1.7-0.406s-2.11-0.584-3.36-0.986c-3.26-1.05-5.02-1.57-5.16-1.52-0.0654 0.0224 2.03 1.46 4.66 3.2 5.68 3.76 5.7 3.78 3.32 2.76-1.65-0.706-1.62-0.706-1.94-0.0397-0.313 0.647-0.317 1.47-9e-3 2.16 0.443 0.999 0.661 1.08 1.24 0.47 0.523-0.55 0.705-0.526 1.18 0.16l0.393 0.567-0.178 0.0683c-0.0987 0.0379-0.318-0.0121-0.493-0.112l-0.315-0.181-0.138 0.189c-0.0759 0.104-0.162 0.305-0.19 0.447-0.0288 0.142-0.102 0.428-0.164 0.635-0.431 1.46 0.42 3.18 1.99 4.02 0.912 0.486 1.06 0.519 2.27 0.491l1.09-0.0247zm-56.5-6.84c2.83-5.91 7.1-10.2 10.2-10.2 2.68 2e-3 6.79 2.88 11.4 7.98 1.45 1.6 1.37 1.63 1.37-0.562 0-10.7 4.14-13.2 15.9-9.44 2.03 0.644 2.38 0.737 2.38 0.625 0-0.0274-0.502-0.715-1.12-1.53-0.614-0.814-1.38-1.9-1.71-2.42l-0.596-0.94-1.52-0.0616c-4.75-0.192-9.73-2.81-12.1-6.37-0.532-0.787-0.593-0.722-0.637 0.679l-0.0383 1.22-0.869 1.78-0.777 0.726c-1.42 1.32-3.12 1.97-5.39 2.07l-1.35 0.0546-0.61-0.177c-1.41-0.41-2.43-1.25-3.62-2.95-0.335-0.484-0.757-1.09-0.936-1.35-0.179-0.256-1.08-1.57-2.01-2.93-1.64-2.4-1.95-2.73-1.83-1.95 0.103 0.664 0.473 5.44 0.492 6.34 0.0637 3.16-2.52 5.19-6.81 5.34l-1.46 0.0529-0.608-0.177c-0.335-0.0973-0.702-0.243-0.817-0.323-0.294-0.206-0.473-0.184-0.91 0.113-4.69 3.19-8.98 1.65-10.9-3.91-0.0952-0.278-6.51 1.12-6.86 1.5-0.125 0.134-0.352 1.48-0.352 2.09v0.35l0.388 0.127c2.59 0.85 3.31 3.9 2.12 9.02-0.422 1.83-0.411 1.9 0.205 1.44 4.91-3.64 8.76-5.56 11.4-5.68l1.14-0.0534 0.82 0.344c2.1 0.882 3.77 3.55 5.08 8.11 0.511 1.79 0.502 1.78 0.869 1.01zm-52.7-7.57c0.111-0.0701 0.0934-0.121-0.0819-0.244l-0.222-0.155 1.17-0.01c2.2-0.0182 2.19-0.0194 2.42 0.195 0.223 0.209 0.613 0.27 0.712 0.111 0.0718-0.116 1.01-0.426 1.29-0.426 0.117 0 0.213-0.0466 0.213-0.103 0-0.0622 0.418-0.104 1.05-0.104h1.05l0.307-0.259c0.169-0.142 0.367-0.259 0.441-0.259s0.309-0.14 0.524-0.31c0.215-0.171 0.443-0.309 0.506-0.306 0.0633 2e-3 -0.0143 0.0744-0.173 0.16-0.158 0.0858-0.262 0.197-0.231 0.247 0.0627 0.102 0.622-0.0321 0.819-0.196 0.0686-0.0569 0.227-0.0767 0.352-0.044 0.262 0.0684 0.31-0.115 0.066-0.252-0.124-0.0692-0.057-0.121 0.285-0.222 0.245-0.0726 0.53-0.207 0.633-0.299 0.201-0.179 0.564-0.0526 0.511 0.177-0.0311 0.136 0.102 0.148 0.238 0.0221 0.0541-0.05 0.275-0.148 0.491-0.217 1.27-0.407 4.63-3.11 5.81-4.67 3.98-5.29 1.72-12.8-4.11-13.7-1.13-0.171-1.2-0.19-1.2-0.309 0-0.0613 0.286-0.421 0.636-0.8 5.52-5.97 2.89-13.9-4.69-14.2-6.15-0.215-18 5.55-18 8.75 0 0.167 0.445 1.93 0.989 3.91s1.43 5.24 1.97 7.23c1.32 4.86 1.8 6.6 2.58 9.42 0.362 1.31 0.8 2.89 0.972 3.52 0.172 0.626 0.466 1.6 0.654 2.16l0.34 1.02 0.621 0.046c0.341 0.0253 0.64 0.0653 0.664 0.089 0.0693 0.0693 0.256 0.0469 0.407-0.0487zm5.2-7.33c-0.131-0.521-0.785-3.5-1.12-5.08l-0.268-1.28 0.142-0.138c0.198-0.192 2.46-1.04 3.44-1.29 4.1-1.05 6.36 2.28 3.54 5.21-1.54 1.59-5.54 3.39-5.74 2.58zm3.14-2.78c1.05-0.633 1.71-1.3 1.71-1.73v-0.202l-0.802 0.0589c-0.751 0.0551-1.92 0.377-2.13 0.586-0.0546 0.0546-0.021 0.415 0.0819 0.877 0.207 0.929 0.254 0.946 1.14 0.41zm-6.12-10.6c-0.226-0.366-1.25-5.32-1.14-5.5 0.138-0.22 1.51-0.855 2.76-1.28l0.88-0.297h2l0.449 0.311c1.4 0.97 1.26 2.85-0.331 4.42l-0.727 0.714-1.68 0.812c-1.94 0.937-2.1 0.997-2.21 0.818zm2.77-3.08c0.815-0.517 0.7-0.699-0.235-0.369-0.482 0.17-0.625 0.31-0.54 0.531 0.0793 0.207 0.25 0.171 0.775-0.162zm20.1 19.2c1.98-0.712 2.31-1.3 2.92-5.17 0.195-1.25 0.377-2.29 0.403-2.31 0.107-0.107 9.55-2.51 9.77-2.48l0.241 0.0259 0.41 0.983c0.226 0.541 0.596 1.45 0.823 2.01 0.757 1.88 1.15 2.46 1.91 2.82 0.688 0.323 0.823 0.309 1.08-0.11l0.22-0.355 0.436 0.198c0.24 0.109 0.529 0.2 0.643 0.202l0.207 4e-3 -0.31 0.201 0.224 2e-3c0.123 8.7e-4 0.241-0.0501 0.263-0.113 0.021-0.0632 0.228-0.128 0.459-0.143 2.4-0.163 4.28-2.94 3.3-4.87-0.142-0.28-0.311-0.672-0.376-0.871-0.127-0.391-2-4.64-3.56-8.07-0.53-1.17-1.73-3.84-2.67-5.95-5.31-11.9-6.03-13.3-7.09-13.7l-0.591-0.224-1.24 0.0508c-1.87 0.0767-3.96 0.576-5.54 1.33-2.02 0.961-2.21 1.3-2.99 5.42-0.172 0.911-0.57 3.01-0.883 4.66-0.313 1.65-0.662 3.54-0.775 4.19-0.113 0.655-0.506 2.84-0.874 4.86s-0.699 3.95-0.737 4.3l-0.0682 0.621 0.212 0.477c1.1 2.47 0.74 7.05-0.713 9.09l-0.23 0.323 0.127 0.54c0.481 2.04 2.64 2.95 5 2.1zm4.37-15.4c-0.039-0.0632-0.0467-0.196-0.017-0.295 0.0297-0.0991 0.22-1.27 0.423-2.61 0.688-4.53 1.32-8.23 1.43-8.36l0.108-0.135 0.131 0.135c0.275 0.283 4.21 9.43 4.16 9.67-0.0254 0.129-0.697 0.337-2.83 0.878-3.58 0.908-3.33 0.855-3.41 0.721zm3.73-2.74c0.0311-0.0809 0.0013-0.25-0.0661-0.376-0.142-0.265-0.303-0.112-0.306 0.29-0.0018 0.26 0.28 0.325 0.372 0.0857zm20 12.9c1.61-0.333 2.5-0.909 3.07-1.99l0.296-0.563-0.126-1.97c-0.0695-1.08-0.169-2.34-0.22-2.8-0.0515-0.46-0.191-2.02-0.31-3.48-0.119-1.45-0.284-3.39-0.366-4.31-0.282-3.15-0.526-3.32 3.27 2.29 2.76 4.07 3.06 4.52 3.98 5.78 0.342 0.467 0.889 1.25 1.22 1.75 0.328 0.493 0.745 1.02 0.927 1.18 0.182 0.153 0.408 0.45 0.502 0.66 0.269 0.601 0.611 0.764 1.56 0.744l0.808-0.0172 0.784 0.509 0.602-0.0978c1.37-0.223 2.28-0.641 3.11-1.43 1.08-1.03 1.11-1.2 0.991-5.65-0.0456-1.71-0.133-5.2-0.193-7.76-0.0608-2.56-0.157-6.26-0.214-8.23-0.0567-1.96-0.147-5.33-0.2-7.47-0.143-5.75-1.03-6.64-5.58-5.64-2.06 0.455-3.15 1.4-3.47 3.02-0.0572 0.288 0.13 3.06 0.513 7.6 0.084 0.996 0.225 2.79 0.313 3.98 0.0881 1.2 0.207 2.75 0.264 3.46 0.118 1.45 0.0414 1.72-0.352 1.23-0.242-0.303-2.85-4.39-6.49-10.2-2.5-3.98-3.46-5.41-3.84-5.77-1.74-1.59-7.18-0.287-8.12 1.94-0.445 1.07-0.362 2.47 0.997 16.9 0.115 1.22 0.3 3.3 0.411 4.61 0.269 3.17 0.219 2.96 1.15 4.9 0.45 0.94 0.883 1.9 0.962 2.13 0.0789 0.231 0.241 0.667 0.36 0.968 0.308 0.779 0.294 1.94-0.0316 2.73-0.288 0.699-0.286 0.703 0.414 0.703h0.545l0.0636 0.2c0.112 0.352 0.852 0.364 2.42 0.0416zm37.4-2.62 0.22-2e-3 -0.31-0.201 0.172-2e-3c0.0949-8.7e-4 0.188-0.0377 0.207-0.0819 0.094-0.219 0.914-0.415 1.34-0.32 0.512 0.115 0.963-4e-3 1.65-0.434 0.257-0.161 0.676-0.388 0.931-0.503s0.605-0.303 0.775-0.419c0.46-0.31 0.529-0.273 0.88 0.464 0.177 0.371 0.437 0.75 0.578 0.842l0.256 0.168 0.385-0.161c0.85-0.356 1.61-0.423 1.94-0.17 0.0577 0.0445 0.32 0.135 0.583 0.201l0.478 0.12 0.316-0.164c0.42-0.217 0.461-0.305 0.345-0.725l-0.0982-0.356 0.322-0.156c0.177-0.0857 0.357-0.134 0.4-0.107 0.119 0.0736 0.17-0.299 0.235-1.72 0.119-2.62 0.47-10.6 0.572-13 0.131-3.09-0.0135-3.65-1.08-4.22l-0.42-0.225-2.38 6e-3c-4.39 0.0108-8.34 0.298-9.03 0.657-2.57 1.32-2.48 6.47 0.125 7.05l0.583 0.131 1.82-0.19c1.28-0.133 1.87-0.158 1.99-0.0832l0.169 0.107-0.0698 3.29-0.207 0.44c-0.547 1.16-2.83 2.12-4.64 1.95-9.2-0.855-8.81-16.8 0.494-20.1l1-0.346 3.21-4e-3 1.14 0.361c2.24 0.71 3.51 0.201 4.91-1.97 2.05-3.18 0.594-5.6-4.14-6.86l-1.19-0.317-2.07-7e-3c-11.9-0.0409-20.4 12.1-17.7 25.3 1.01 5 3.86 8.81 7.87 10.5 1.3 0.55 1.76 0.714 2.16 0.767 0.176 0.0228 0.452 0.0923 0.612 0.154 0.533 0.206 1.11 6e-3 1.11-0.388 0-0.0894 0.069-0.123 0.181-0.0894 0.343 0.104 0.906 0.308 1.07 0.386 0.0891 0.0432 0.24 0.035 0.335-0.0182 0.229-0.128 0.995 0.0781 1.08 0.29 0.0445 0.116 0.146 0.143 0.37 0.0981 0.17-0.0339 0.408-0.0624 0.528-0.0633zm8.63-0.231c-0.0232-0.0712-0.174-0.194-0.336-0.273l-0.294-0.143-0.135 0.184c-0.192 0.263-0.0862 0.361 0.391 0.361 0.287 0 0.403-0.0403 0.374-0.129zm10.1-0.724c-0.118-0.322 0.13-0.429 0.935-0.404l0.792 0.0253 0.447-0.262c4-2.35 2.7-8.64-1.85-8.93-4.13-0.268-6.68 4.32-4.35 7.82l0.365 0.55 0.677 0.304c0.372 0.167 0.795 0.397 0.94 0.511s0.373 0.207 0.508 0.207 0.245 0.0432 0.245 0.0959c0 0.127 0.256 0.188 0.851 0.203 0.351 9e-3 0.475-0.0245 0.441-0.117zm-89.9-7.1c0-0.319 2.35-13.1 3-16.3 0.479-2.37 0.719-3.17 1.15-3.8 0.418-0.616 0.438-0.601-0.837-0.601-1.38 0-2.65-0.133-4.65-0.485-2.45-0.43-2.52-0.442-2.57-0.396-0.0499 0.0499 0.417 0.656 1.15 1.5 2.77 3.17 3.47 6.04 1.98 8.14-0.43 0.605-0.43 0.603-0.107 1.5 0.893 2.48 0.695 5.9-0.48 8.27l-0.535 1.08 0.248 0.163c0.136 0.0895 0.505 0.359 0.82 0.599 0.549 0.419 0.831 0.54 0.831 0.358zm71.6-1.69c0.635-0.16 0.578-0.244-0.268-0.395-1.9-0.34-3.52-1.84-4.22-3.91l-0.274-0.806-8.8e-4 -1.73-8.9e-4 -1.73-0.127 0.366c-1.58 4.56 1.16 9.15 4.89 8.2zm20-3.26c1.27-0.372 1.97-1.04 2.22-2.13 0.0827-0.36 0.55-2.73 1.04-5.26 0.489-2.53 1.23-6.33 1.65-8.43 2.43-12.2 2.33-11.5 1.87-12.5-0.482-1.02-1.84-1.94-3.58-2.42l-0.673-0.188-3.83 0.01-0.91 0.28c-2.67 0.82-4.09 2.21-4.19 4.09-0.0444 0.809 0.235 6.2 0.599 11.6 0.186 2.73 0.314 4.79 0.624 9.99 0.217 3.64 0.286 3.91 1.17 4.52 0.942 0.649 2.72 0.868 4.01 0.493zm-66.3-4.75c-1.13-12-1.13-12.2-0.282-13.7 1.07-2 3.75-3.32 7.07-3.46l1.35-0.0565 0.613 0.178c1.67 0.485 2.34 1.15 4.33 4.29 1.77 2.79 3.25 5.14 3.93 6.24 0.755 1.23 0.762 1.21 0.535-1.17-0.81-8.52-0.504-10 2.35-11.4 4.56-2.17 8.97-0.956 10.6 2.92l0.271 0.639 0.0549 2.48c0.0616 2.78 0.0892 2.86 0.646 1.89 1.84-3.2 5.07-6.14 8.78-7.99 0.541-0.27 0.998-0.503 1.02-0.519 0.0178-0.016 0.123-0.464 0.235-0.995 0.398-1.9 1.28-4.11 2.52-6.33 0.213-0.381 0.352-0.692 0.308-0.692-0.0433 0-1.18 0.55-2.52 1.22-6.31 3.16-10.1 4.42-13.3 4.42l-1.55 1e-3 -0.569-0.195c-3.77-1.29-5.9-5.7-6.78-14-0.0764-0.722-0.172-0.798-0.414-0.329-0.633 1.22-3.5 5.59-4.92 7.5-4.61 6.18-7.16 5.57-14.5-3.47-0.438-0.541-0.874-1.05-0.968-1.13l-0.171-0.142v1.13c0 3.92-0.862 8.26-2.18 10.9-1.82 3.73-4.48 3.89-11.3 0.666-1.87-0.889-1.73-0.936-1.34 0.471l0.316 1.14 0.0211 3.73-0.191 0.621c-0.105 0.342-0.308 0.868-0.45 1.17-0.33 0.7-0.333 0.699 0.759 0.393 3.87-1.08 6.2-0.785 7.86 1 0.963 1.04 1.71 2.54 6.12 12.3 0.941 2.08 1.76 3.87 1.83 3.98l0.116 0.207 0.0308-0.259c0.0169-0.142-0.113-1.8-0.29-3.67zm43.1-3.37c8e-3 -0.132 1.29-0.957 1.77-1.14 0.857-0.326 5.99-0.713 9.88-0.746l1.76-0.0147 0.621 0.186c0.342 0.103 0.871 0.326 1.18 0.497 0.739 0.413 0.742 0.406 0.629-1.62-0.251-4.51-0.193-4.29-0.862-3.26-0.809 1.26-2.27 2.39-3.62 2.81l-0.71 0.219-0.894-0.0551c-0.492-0.0303-1.07-0.13-1.28-0.222-2.74-1.18-6.13-0.212-8.11 2.31-0.434 0.552-1.08 1.65-1.07 1.83 2e-3 0.0956 0.713-0.697 0.719-0.802zm-45.1 51.2c-0.359-0.282-0.453 0.116 1.08-4.59 1.96-5.98 1.98-5.84 0.444 2.52-0.254 1.38-0.423 2.06-0.536 2.15-0.247 0.194-0.684 0.156-0.991-0.0851zm-3.27-2.34c-0.786-0.289-0.754-0.367 1.51-3.77 2.67-4 2.93-4.27 1.81-1.87-0.335 0.721-0.867 1.89-1.18 2.6-0.314 0.712-0.76 1.7-0.99 2.2l-0.418 0.906-0.289-8e-3c-0.159-4e-3 -0.359-0.0339-0.445-0.0652zm50.8-1.02c-0.0913-0.0913-0.263-0.359-0.382-0.595-0.119-0.236-0.763-1.41-1.43-2.6-2.02-3.61-4.06-7.41-4.01-7.46 0.0563-0.0563 2.06 2.61 4.37 5.81 0.904 1.25 1.91 2.65 2.25 3.1s0.603 0.909 0.603 1.02c0 0.649-0.969 1.16-1.39 0.74zm-82.8-0.656c-0.272-0.124-0.541-0.36-0.724-0.637l-0.291-0.44 6.06e-4 -0.629c0.0019-1.97 2.64-2.72 3.67-1.04 1.03 1.66-0.83 3.58-2.66 2.75zm1.54-0.647c0.18-0.0673 0.362-0.273 0.509-0.576l0.228-0.471-0.146-0.42c-0.311-0.893-1.4-1.17-2.07-0.524-0.703 0.673-0.46 1.74 0.467 2.06 0.407 0.139 0.474 0.135 1.01-0.065zm7.23-3.13c-1.61-0.509-2.06-2.48-0.854-3.69 1.74-1.74 4.53 0.103 3.58 2.37-0.437 1.05-1.68 1.65-2.73 1.32zm1.52-0.848c1.28-0.959 0.819-2.78-0.742-2.91l-0.527-0.0422-0.36 0.245c-0.796 0.541-1.01 1.27-0.629 2.12 0.365 0.804 1.55 1.11 2.26 0.584zm73.2-1.39c-0.497-0.634-1.26-1.6-1.7-2.15-2.9-3.61-2.88-3.63 0.547-0.542 3.54 3.19 3.49 3.13 2.66 3.64-0.502 0.306-0.527 0.291-1.5-0.949zm-89.1-49c-4.5-1.17-4.63-1.21-4.72-1.57-0.0966-0.385 0.0923-0.889 0.397-1.06l0.273-0.153 1.69 0.806c3.79 1.81 5.41 2.63 5.16 2.63-0.142 1.8e-4 -1.4-0.296-2.79-0.659zm2.42-2.16c-2.54-1.26-2.83-1.54-2.09-1.94l0.21-0.112 0.481 0.301c1.01 0.632 3.63 2.72 3.4 2.72-0.0322 0-0.936-0.436-2.01-0.97zm10.7-5.79c-1.33-0.646-3.29-1.64-4.34-2.22l-1.91-1.05-0.207 0.153c-0.568 0.419-0.862 0.57-1.22 0.629l-0.394 0.0646-0.339 0.529c-0.445 0.693-1.09 1.26-1.81 1.6l-0.582 0.273h-2.28l-0.693-0.329c-0.808-0.383-1.56-1.09-1.83-1.72l-0.19-0.444-0.452-0.134c-3.33-0.985-4.4-5.14-1.95-7.66 0.293-0.303 0.509-0.612 0.48-0.688-1.44-3.75 4.31-8.18 7.59-5.85l0.322 0.229 1.6-0.688 2.07-0.00183 0.614 0.287c2.14 1 3.17 3.44 2.42 5.71l-0.222 0.676 0.196 0.436c0.143 0.318 0.196 0.674 0.196 1.32v0.882l-0.686 1.45 0.498 0.464c2.12 1.98 6.55 6.25 6.51 6.29-0.202 0.202-5.9-4.54-9.09-7.56-2.07-1.97-2.01-2.03 0.313-0.356l0.856 0.617 0.2-0.181c0.653-0.591 0.661-1.93 0.0212-3.34-0.538-1.19-0.571-1.52-0.109-1.1 0.69 0.624 0.837-1.36 0.199-2.69-0.911-1.91-3.95-2.66-5.06-1.25-0.109 0.139-0.258 0.252-0.331 0.252s-0.288 0.0559-0.477 0.124c-0.425 0.154-0.603 0.0172-0.603-0.462v-0.327l-0.466-0.179c-1.48-0.57-3.76 0.144-4.79 1.5-0.71 0.933-1.13 2.64-0.808 3.26l0.117 0.218 0.651-0.227 0.139 0.191c0.215 0.294 0.17 0.423-0.23 0.659-0.284 0.168-0.354 0.264-0.305 0.42 0.14 0.441-0.294 0.8-0.568 0.469-0.257-0.309-0.732 0.0919-1.22 1.03l-0.273 0.524-0.0066 2.07 0.291 0.553c0.572 1.09 1.85 2.09 2.68 2.09 0.384 0 0.708 0.332 0.708 0.727 0 1.95 4.28 2.46 5.4 0.646l0.222-0.359-0.144-0.0914c-0.0794-0.0503-0.201-0.0921-0.27-0.093-0.605-8e-3 -1.05-0.991-0.495-1.1l0.362-0.068 0.181 0.223c0.36 0.444 1.81 0.39 2.24-0.0836l0.168-0.186-0.895-0.814c-1.58-1.44-0.924-1.13 5.45 2.56 2.81 1.63 5.36 3.29 5.04 3.29-0.0178 0-1.12-0.528-2.46-1.17zm84.4-7.38c0.228-0.204 0.973-0.839 1.66-1.41 0.683-0.573 2.73-2.31 4.55-3.85 6.39-5.42 5.86-5.05 6.45-4.55 0.778 0.654 0.645 0.885-1.27 2.21-11.1 7.66-11.6 7.98-11.7 7.98-0.0577-2e-3 0.0814-0.171 0.309-0.375zm-74.1-6.61-4.95-5.02-0.0307-0.337c-0.0386-0.425 0.401-0.884 0.928-0.969l0.36-0.0585 0.442 0.502c0.243 0.276 1.62 2.04 3.06 3.92 1.44 1.88 3.21 4.18 3.92 5.11 1.16 1.5 1.41 1.88 1.26 1.88-0.0238 0-2.27-2.26-4.99-5.02zm8.12 4.22c-0.144-0.165-3.55-5.07-3.74-5.39-0.138-0.229 0.022-0.599 0.316-0.733l0.28-0.128 0.242 0.187c0.263 0.204 3.26 6.24 3.1 6.24-0.0178 0-0.104-0.0815-0.19-0.181zm65.5-0.906c0.227-0.472 3.51-5.03 3.72-5.16 0.258-0.162 0.74 0.124 0.773 0.459l0.0258 0.255-2.33 2.38c-1.28 1.31-2.27 2.24-2.18 2.07zm-21.6-3.62c0.913-1.72 3.84-5.96 7.38-10.7 1.68-2.26 1.87-2.36 0.941-0.509-0.697 1.39-0.702 1.49-0.0904 1.71 0.804 0.291 1.7 0.0966 1.7-0.368 0-0.178 0.0812-0.273 0.295-0.345l0.295-0.099 0.274 0.222c2.4 1.95 5.95-0.699 5.49-4.09-0.216-1.59-1.69-3.24-2.76-3.09-0.607 0.0885-0.693-0.0286-0.7-0.954-0.0122-1.54-1.09-2.7-2.72-2.93-1.12-0.159-2.73 0.39-2.55 0.87 0.0951 0.248-0.224 0.481-0.713 0.521l-0.49 0.0399-0.121-0.225c-0.0664-0.124-0.113-0.237-0.103-0.251 0.317-0.469-1.85-0.827-2.94-0.485-0.819 0.258-1.76 1.14-2.18 2.03l-0.299 0.649-9.6e-4 1.76 0.343 0.696c0.378 0.768 0.501 0.826 0.903 0.424l0.272-0.272 0.333 0.333-0.175 0.368c-0.0965 0.202-0.175 0.532-0.175 0.733s-0.0494 0.458-0.11 0.571c-0.211 0.394 0.0701 1.29 0.567 1.81 0.584 0.609 0.654 0.591 1.33-0.35 1.15-1.6 1.08-1.21-0.317 1.82-1.83 3.97-5.72 11.2-4.99 9.29 0.396-1.04 2.29-5.41 3.74-8.61l0.335-0.743-0.572-0.523c-0.763-0.697-1.05-1.34-1.07-2.42l-0.0159-0.807-0.31-0.331c-2-2.14-1.12-5.8 1.7-7.14l0.696-0.33h2.38l1.21 0.568 0.584-0.355c2.56-1.56 5.93-0.171 6.41 2.64 0.0789 0.462 0.0975 0.48 0.888 0.835 5.18 2.33 1.88 11.3-3.43 9.28l-0.545-0.203-0.49 0.241c-0.688 0.339-1.85 0.337-2.5-3e-3l-0.453-0.239-0.128 0.138c-0.0706 0.076-0.995 1.29-2.05 2.7-1.75 2.32-3.25 4.23-4.66 5.93-0.804 0.965-0.833 0.98-0.422 0.207zm11.2-2.72c-2.07-1.33-0.221-4.59 1.98-3.48 1.26 0.637 1.36 2.46 0.177 3.4l-0.392 0.312-1.29 0.0762zm1.67-0.59c0.678-0.351 0.831-1.35 0.299-1.96-0.578-0.658-1.5-0.577-1.96 0.173-0.692 1.13 0.48 2.39 1.66 1.78zm9.21-4.35c-2.07-0.898-1.93-3.63 0.231-4.35 1.45-0.483 3.02 0.819 2.83 2.36-0.179 1.51-1.78 2.54-3.06 1.99zm1.55-0.857c0.77-0.413 1.02-1.48 0.521-2.19-0.723-1.02-2.36-0.709-2.66 0.499-0.316 1.27 0.995 2.3 2.14 1.69z" fill="#024fe6"/><path d="m63.5 198c-1.19-0.394-1.9-0.984-2.38-1.98l-0.364-0.756-0.488-0.186c-3.27-1.25-2.6-7.5 0.809-7.5 0.0577 0 0.177-0.175 0.264-0.388 0.531-1.29 2.39-2.04 3.81-1.52 0.653 0.235 0.694 0.211 1.16-0.702 1.08-2.11 4.04-7.4 4.19-7.49 0.303-0.187-1.99 4.85-3.86 8.47-1.82 3.54-2.19 4.01-1.49 1.94 0.399-1.19 0.402-1.15-0.0875-1.38-0.869-0.412-2.23-0.0847-2.73 0.659l-0.234 0.345 0.156 0.173c0.389 0.43-0.0918 0.859-0.849 0.758-0.79-0.106-1.63 0.51-2.21 1.62l-0.243 0.466-0.0045 0.88-0.0045 0.88 0.238 0.517c0.277 0.603 0.848 1.23 1.29 1.41l0.313 0.13 0.151-0.227c0.214-0.322 0.52-0.292 0.602 0.0579 0.0369 0.157 0.185 0.412 0.33 0.567l0.263 0.283-0.369 0.408 0.212 0.341c0.783 1.26 2.49 1.82 3.94 1.28 0.894-0.33 1.67-1.12 1.46-1.5-0.0826-0.154-0.0621-0.256 0.0894-0.443l0.196-0.242 0.345 0.142c1.52 0.628 2.98-0.355 2.98-2.01 0-0.707-0.131-0.98-0.469-0.98-0.272 0-0.285-0.0335-0.257-0.673 0.0138-0.311 0.0875-0.47 0.295-0.637l0.276-0.223-0.0076-0.529c-0.0122-0.847-0.718-1.7-1.51-1.83l-0.374-0.0607-0.449 0.658c-0.847 1.24-0.676 0.633 1.25-4.46 3.3-8.73 3.82-11.4 2.48-13.1-0.423-0.513-0.488-0.497-1.31 0.316-2.46 2.43-6.61 2.62-9.17 0.412l-0.603-0.52-0.241 0.195c-0.132 0.107-0.559 0.467-0.949 0.8-4.52 3.86-14.6 7.63-18 6.74-2.82-0.734-2.79-0.676-6-12.4-1.44-5.29-2.84-10.4-3.09-11.3-0.257-0.911-0.708-2.54-1-3.62-0.294-1.08-0.67-2.43-0.835-2.99-0.992-3.38 0.639-5.35 7.15-8.65 7.65-3.87 14-4.58 18-2.02 1.07 0.691 1.19 0.59 0.712-0.588-0.733-1.8-3.32-4.91-7.66-9.18-1.01-0.996-1.16-1.22-0.752-1.12 3.03 0.747 11.6 1.81 13.6 1.69 4.53-0.274 5.04-3.79 1.75-12-0.449-1.12-0.816-2.06-0.816-2.1 0-0.148 0.244-0.0279 1.87 0.927 6.59 3.86 11.2 5.48 13.1 4.58 2.67-1.28 3.75-10.8 2.24-19.6-0.146-0.854-0.354-2.06-0.463-2.69-0.108-0.626-0.197-1.18-0.197-1.23-0.0013-0.199 0.382 0.267 2.19 2.66 7.63 10.1 12 13.8 14.9 12.6l0.619-0.241 0.995-0.993c1.54-1.53 2.96-3.51 5.61-7.81 0.54-0.877 2.49-4.18 4.47-7.59 1.4-2.4 1.4-2.4 1.4-1.19 0.011 10.2 1.36 17.5 3.87 20.9 2.56 3.48 7.37 2.34 23-5.46 2.5-1.25 4.56-2.23 4.58-2.18 0.0174 0.0495-0.429 0.827-0.993 1.73-3.63 5.81-6.14 11.4-6 13.5l0.0305 0.467 1.24 0.0676c3.67 0.2 6.62 1.28 8.51 3.12 0.824 0.802 0.794 0.882 0.649-1.76l-0.124-2.26 0.166-0.705c1.9-8.08 18.2-6.88 18.2 1.33-3e-3 0.52-0.732 4.35-2.59 13.6l-2.58 12.9-0.284 0.562c-0.156 0.309-0.509 0.772-0.783 1.03-0.62 0.58-0.629 0.499 0.167 1.49 5.38 6.66-3.22 15.9-9.66 10.4-0.661-0.566-0.601-0.577-1.18 0.213-0.581 0.791-1.48 1.4-2.59 1.76l-0.844 0.275-1.14 0.0102c-1.49 0.0133-2.27-0.233-3.49-1.1-0.136-0.0966-0.246-0.0987-0.466-9e-3 -2.59 1.06-2.42 0.845-1.62 2.02 1.16 1.7 3.39 4.38 6.27 7.51 1.66 1.81 1.53 1.74 1.85 1.04 0.573-1.22 1.86-2.05 3.31-2.14l0.796-0.0461 0.43-0.654c2.17-3.29 7.39-2.98 9.04 0.537l0.333 0.711 0.0422 0.962 0.0423 0.962 0.534 0.342c2.79 1.78 2.99 6.32 0.366 8.2-0.401 0.288-0.531 0.456-0.617 0.796-0.33 1.31-0.94 2.13-1.94 2.63l-0.59 0.29-1.75 0.018-0.349 0.547c-2.75 4.3-9.77 2.49-9.62-2.48l0.029-0.988-0.446-0.402c-0.245-0.221-0.57-0.638-0.722-0.927l-0.276-0.524-5e-4 -0.983-5e-4 -0.983 0.605-1.23-0.251-0.182c-0.427-0.311-5.77-4.03-7.09-4.94l-1.25-0.858-1.75-0.398c-3.16-0.718-4.27-0.877-6.1-0.88l-1.66-2e-3 -1.58 0.78-0.466 0.62c-1.93 2.57-1.87 8.14 0.201 18.6 0.42 2.11 0.519 2.16-2.28-1.12-8.61-10.1-13.4-14.2-16.3-14.2h-0.714l-0.764 0.378c-2.6 1.28-5.28 5.54-8.68 13.7-1.12 2.71-0.995 2.74-1.75-0.377-3.8-15.6-5.81-16.6-17.1-8.28-4.63 3.43-6.36 5.06-5.62 5.3 1.22 0.403 1.94 1.97 1.52 3.29l-0.17 0.525 0.243 0.547c0.871 1.96-0.609 4.22-2.77 4.22l-0.638 8e-5 -0.218 0.352c-0.822 1.33-2.98 2.08-4.51 1.58zm87.5-9.03c1.34-0.632 2.43-2.01 1.96-2.48-0.151-0.151-0.0179-0.431 0.245-0.515 0.123-0.0389 0.277-0.144 0.343-0.234 0.195-0.266 0.694-0.0361 0.762 0.351l0.0544 0.308h1.38l0.447-0.315c0.246-0.173 0.588-0.522 0.759-0.776l0.312-0.462 2e-3 -0.582c1e-3 -0.351 0.0613-0.653 0.151-0.761 0.0819-0.0987 0.199-0.279 0.26-0.401 0.0685-0.137 0.209-0.222 0.366-0.222 1.15 0 2.08-2.58 1.6-4.43-0.297-1.14-1.57-2.63-2.13-2.48-0.138 0.036-0.308-0.0351-0.49-0.204-0.153-0.143-0.386-0.315-0.518-0.383-0.333-0.171-0.245-0.448 0.189-0.591l0.361-0.119-0.021-0.59c-0.079-2.22-2.52-4-4.91-3.59-1.65 0.283-3.41 1.73-3.24 2.67l0.0622 0.332-0.553 0.255c-0.579 0.267-0.831 0.227-0.741-0.119 0.185-0.706-1.83-0.0623-2.53 0.809-0.423 0.525-0.687 1.35-0.431 1.35 0.0605 0 0.398 0.135 0.75 0.301 0.352 0.165 1.13 0.518 1.73 0.783 1.3 0.578 1.48 0.716 0.662 0.513-0.335-0.0832-1.1-0.266-1.7-0.406s-2.11-0.584-3.36-0.986c-3.26-1.05-5.02-1.57-5.16-1.52-0.0654 0.0224 2.03 1.46 4.66 3.2 5.68 3.76 5.7 3.78 3.32 2.76-1.65-0.706-1.62-0.706-1.94-0.0397-0.313 0.647-0.317 1.47-9e-3 2.16 0.443 0.999 0.661 1.08 1.24 0.47 0.523-0.55 0.705-0.526 1.18 0.16l0.393 0.567-0.178 0.0683c-0.0987 0.0379-0.318-0.0121-0.493-0.112l-0.315-0.181-0.138 0.189c-0.0759 0.104-0.162 0.305-0.19 0.447-0.0288 0.142-0.102 0.428-0.164 0.635-0.431 1.46 0.42 3.18 1.99 4.02 0.912 0.486 1.06 0.519 2.27 0.491l1.09-0.0247zm-29.9-1.22c-2.35-13.5 0.0954-18.2 8.58-16.7 2.69 0.491 5.98 1.32 9.04 2.28 1.94 0.611 1.93 0.631 0.619-0.854-2.13-2.41-4.08-4.85-5.04-6.28l-0.543-0.809-0.588 0.07c-0.323 0.0385-0.62 0.0997-0.66 0.136-0.145 0.132-3.15-0.0729-4.18-0.285-3.79-0.783-7.78-3.3-9.67-6.1-0.532-0.787-0.593-0.722-0.637 0.679l-0.0383 1.22-0.869 1.78-0.777 0.726c-1.42 1.32-3.12 1.97-5.39 2.07l-1.35 0.0546-0.61-0.177c-1.41-0.41-2.43-1.25-3.62-2.95-0.335-0.484-0.757-1.09-0.936-1.35-0.179-0.256-1.08-1.57-2.01-2.93-1.64-2.4-1.95-2.73-1.83-1.95 0.103 0.664 0.473 5.44 0.492 6.34 0.0637 3.16-2.52 5.19-6.81 5.34l-1.46 0.0529-0.608-0.177c-0.335-0.0973-0.702-0.243-0.817-0.323-0.294-0.206-0.473-0.184-0.91 0.113-4.69 3.19-8.98 1.65-10.9-3.91-0.0911-0.266-0.186-0.25-3.59 0.593-3.67 0.909-3.36 0.726-3.51 2.05-0.0678 0.582-0.188 1.45-0.266 1.94l-0.143 0.88 0.281 0.229c0.154 0.126 0.431 0.351 0.615 0.5 1.37 1.11 1.48 4 0.301 7.77-0.425 1.36-1.5 4.5-1.83 5.35-0.299 0.772-0.221 0.823 0.444 0.291 7.24-5.8 12.2-8.35 15-7.68 2.5 0.612 4.54 4.43 6.56 12.3 0.289 1.12 0.307 1.11 1.29-1.07 2.08-4.65 3.91-7.63 5.9-9.63l1.04-1.05 0.792-0.376c3.77-1.79 7.81 0.934 17.5 11.8l1.29 1.45 0.0352-0.249c0.0194-0.137-0.0386-0.673-0.129-1.19zm-77.4-11.6c12-2.34 19.6-9.26 18.1-16.4-0.75-3.57-2.68-5.48-6.2-6.15-1.04-0.199-1.02-0.136-0.305-0.932 1.43-1.6 2.2-2.98 2.65-4.73l0.21-0.831-0.0481-1.41c-0.298-8.72-10.5-9.78-22.3-2.32-2.7 1.71-3.3 2.32-3.45 3.5l-0.0664 0.532 1.19 4.39c0.656 2.41 1.76 6.48 2.45 9.05s1.7 6.26 2.24 8.23 1.1 3.99 1.24 4.5c0.449 1.67 0.543 1.89 0.984 2.27 0.742 0.635 1.28 0.688 3.21 0.312zm3.4-8.81c0-0.0374-0.306-1.44-0.68-3.11-0.855-3.82-0.97-3.62 2.54-4.61 4.76-1.35 6.6 3.12 2.45 5.95-1.13 0.772-4.31 2.08-4.31 1.77zm2.95-2.84c0.827-0.481 1.53-1.13 1.72-1.57l0.126-0.304-0.146-0.0996c-0.339-0.231-2.78 0.296-3 0.647-0.128 0.206 0.271 1.75 0.452 1.75 0.0699 0 0.452-0.189 0.85-0.421zm-6.09-10.9c-0.253-0.896-1.11-5.02-1.07-5.13 0.138-0.36 3.16-1.5 4.21-1.59 2.59-0.218 3.52 2.41 1.57 4.41-1.18 1.2-4.55 2.86-4.71 2.31zm2.45-2.57c1.28-0.647 1.3-1.13 0.0246-0.653l-0.573 0.214v0.234c0 0.405 0.088 0.437 0.548 0.205zm20.1 19.3c1.3-0.333 2.18-0.939 2.67-1.85l0.284-0.521 0.768-5.34 2.07-0.544c6.08-1.6 7.6-1.96 7.69-1.85 0.0492 0.0642 0.43 0.978 0.847 2.03 1.49 3.76 2.01 4.27 4.21 4.1 2.95-0.227 5.2-2.01 5.21-4.13l0.0023-0.803-0.428-1.01c-0.439-1.04-1.67-3.77-4.72-10.5-0.515-1.14-1.66-3.68-2.54-5.64-3.86-8.59-5.25-11.4-5.77-11.8-2.09-1.49-9.18 0.42-10.3 2.77-0.289 0.609-0.941 3.86-2.69 13.4-1.71 9.33-1.61 8.51-1.19 9.75 0.874 2.62 0.637 5.42-0.683 8.07l-0.471 0.947 0.114 0.533c0.461 2.15 2.33 3.05 4.93 2.39zm4.81-15.9c1.22e-4 -0.454 1.57-10.2 1.72-10.7 0.11-0.356 0.229-0.151 1.26 2.17 2.28 5.16 3.12 7.27 2.88 7.27-0.0469 0-5.11 1.27-5.62 1.41-0.181 0.0497-0.233 0.021-0.233-0.129zm3.58-2.57c0.0311-0.0809 0.0013-0.25-0.0661-0.376-0.142-0.265-0.303-0.112-0.306 0.29-0.0018 0.26 0.28 0.325 0.372 0.0857zm20.3 13.1c1.56-0.374 2.73-1.28 3.08-2.39l0.177-0.562-0.181-2.25c-0.0996-1.24-0.293-3.44-0.429-4.89-0.485-5.15-0.567-6.12-0.567-6.69v-0.576l0.136 0.113c0.0746 0.0619 1.64 2.34 3.47 5.06 5.94 8.8 6.2 9.15 7.1 9.6l0.616 0.308 1.01 0.0405c2.34 0.0939 4.66-1.03 5.37-2.59l0.201-0.443 2e-3 -1.52c1e-3 -0.838-0.045-3.03-0.103-4.86-0.131-4.17-0.373-13.4-0.522-19.8-0.17-7.39-0.45-7.84-4.59-7.45-3.71 0.352-4.94 1.65-4.71 4.96 0.103 1.46 0.611 8.23 0.874 11.7 0.228 2.97 0.204 3.22-0.237 2.49-0.112-0.185-0.947-1.5-1.86-2.92-0.909-1.42-2.41-3.8-3.34-5.28-4.89-7.79-4.77-7.63-6-7.99-3.49-1.02-7.81 1.6-7.51 4.55 0.0297 0.296 0.217 2.52 0.417 4.94 0.372 4.51 1.33 15.5 1.48 17.1 0.0682 0.69 0.166 1.04 0.452 1.6 0.697 1.38 1.42 3.07 1.7 3.94l0.274 0.878-0.0504 0.694c-0.0282 0.388-0.154 0.935-0.286 1.24l-0.236 0.546 0.183 0.203c0.101 0.111 0.421 0.298 0.712 0.414l0.529 0.211 1.09-0.0535c0.598-0.0294 1.38-0.124 1.75-0.211zm37.7-2.68c1.46-0.321 2.79-0.872 4.06-1.68 0.686-0.438 0.648-0.446 0.955 0.192 1.01 2.1 5.14 1.84 5.94-0.365 0.157-0.434 0.165-0.609 0.697-14.4 0.148-3.84 0.0372-4.29-1.2-4.97l-0.318-0.174-2.48 0.014c-3.08 0.0174-7.92 0.298-8.59 0.498-3.08 0.928-3.36 6.69-0.359 7.47l0.514 0.133 1.88-0.195c2.27-0.236 2.05-0.376 2.05 1.29 0 2.76-0.679 3.6-3.3 4.06l-0.954 0.169-0.88-0.127c-6.9-0.998-8.48-11.7-2.58-17.6 2.57-2.55 5.66-3.24 9.21-2.05 1.77 0.589 3.27-0.112 4.61-2.15 2.57-3.91-0.543-7.18-7.03-7.4l-1.71-0.0579-1.26 0.215c-17.7 3.03-22.1 31.5-5.73 36.7 0.855 0.271 1.4 0.383 2.85 0.583 0.626 0.0865 2.92-0.0306 3.62-0.185zm19.3-1.02c3.6-1.17 4.87-5.83 2.28-8.42-3.13-3.14-8.46-0.722-8.47 3.84-9.9e-4 3.42 2.98 5.63 6.18 4.58zm-91-7.2c0-0.338 2.05-11.5 2.86-15.6 0.959-4.83 1.47-5.65 4.23-6.79 0.569-0.236 1.13-0.48 1.24-0.542 0.114-0.0625 0.243-0.103 0.287-0.0907 0.0441 0.0126 0.487-0.0909 0.983-0.23 3.85-1.08 6.19-0.778 7.84 1.01 0.965 1.04 1.7 2.51 6.17 12.4 0.967 2.13 1.8 3.93 1.85 3.98 0.144 0.148 0.124-0.2-0.217-3.82-1.12-11.9-1.13-12.2-0.282-13.7 1.07-2 3.75-3.32 7.07-3.46l1.35-0.0565 0.613 0.178c1.67 0.485 2.34 1.15 4.33 4.29 1.77 2.79 3.25 5.14 3.93 6.24 0.755 1.23 0.762 1.21 0.535-1.17-0.81-8.52-0.504-10 2.35-11.4 4.56-2.17 8.97-0.956 10.6 2.92l0.271 0.639 0.0549 2.48c0.0616 2.78 0.0892 2.86 0.646 1.89 1.84-3.2 5.07-6.14 8.78-7.99 0.541-0.27 0.999-0.532 1.02-0.582 0.019-0.0501 0.142-0.091 0.272-0.091 0.131 0 0.556-0.12 0.944-0.266 0.737-0.278 2.45-0.707 3.25-0.815l0.466-0.0628 0.184-1.13c0.418-2.57 1.99-6.4 4.3-10.5 0.78-1.37 0.895-1.37-2.07 0.0863-16.2 7.95-20.7 8.45-23.7 2.64-1.74-3.37-2.61-7.75-2.83-14.3-0.0375-1.12-0.11-2.04-0.16-2.04s-0.0922 0.0396-0.0922 0.088c0 0.0484-0.26 0.526-0.579 1.06-0.318 0.535-0.911 1.53-1.32 2.21-4.35 7.32-7.02 10.8-9.17 11.8l-0.856 0.429h-0.819c-3.09 0-7.24-3.45-12.8-10.6l-1.03-1.34-0.0356 0.307c-0.0196 0.169 0.0164 0.633 0.08 1.03 1.1 6.87-0.0332 15.4-2.35 17.8-1.77 1.82-4.74 1.3-11.6-2.05-2.46-1.2-2.31-1.22-1.84 0.192 3.4 10.1 0.014 12.8-13.1 10.2-1.25-0.244-1.29-0.178-0.419 0.673 2.91 2.83 5.19 5.91 5.74 7.74l0.227 0.756-0.142 1.52 0.551 0.715c0.303 0.393 0.664 0.957 0.802 1.25s0.289 0.539 0.336 0.539c0.0472 0 0.0858 0.0759 0.0858 0.169s0.114 0.486 0.254 0.873c0.893 2.48 0.695 5.9-0.48 8.27l-0.535 1.08 0.248 0.163c0.136 0.0895 0.505 0.359 0.82 0.599 0.544 0.415 0.831 0.54 0.831 0.363zm71.6-1.69c0.635-0.16 0.578-0.244-0.268-0.395-1.9-0.34-3.52-1.84-4.22-3.91l-0.274-0.806-8.8e-4 -1.73-8.9e-4 -1.73-0.127 0.366c-1.58 4.56 1.16 9.15 4.89 8.2zm19.7-3c1.72-0.36 2.49-1.18 2.82-3.04 0.358-1.99 1.69-8.83 3.18-16.4 1.69-8.54 1.66-8.32 1.17-9.34-0.533-1.09-2.07-2.04-3.93-2.42l-1.03-0.214-1.55 0.0528c-3.83 0.13-6.6 1.86-6.84 4.28-0.0556 0.555 0.171 5.34 0.532 11.3 0.0835 1.37 0.268 4.51 0.411 6.99 0.375 6.51 0.403 6.82 0.654 7.31 0.635 1.25 2.62 1.88 4.59 1.47zm-23-8.38c8e-3 -0.132 1.29-0.957 1.77-1.14 0.857-0.326 5.99-0.713 9.88-0.746l1.76-0.0147 0.621 0.186c0.342 0.103 0.871 0.326 1.18 0.497 0.739 0.413 0.742 0.406 0.629-1.62-0.251-4.51-0.193-4.29-0.862-3.26-0.809 1.26-2.27 2.39-3.62 2.81l-0.71 0.219-0.894-0.0551c-0.492-0.0303-1.07-0.13-1.28-0.222-2.74-1.18-6.13-0.212-8.11 2.31-0.434 0.552-1.08 1.65-1.07 1.83 2e-3 0.0956 0.713-0.697 0.719-0.802zm-44.8 51.3c-0.243-0.0786-0.365-0.187-0.388-0.345-0.0417-0.293 2.44-8.02 2.63-8.2 0.174-0.162-1.25 8.13-1.45 8.45-0.108 0.175-0.425 0.21-0.8 0.0894zm-3.59-2.55c-0.523-0.319-0.461-0.46 1.47-3.35 2.61-3.92 2.76-4.08 1.83-2.05-0.278 0.608-0.693 1.52-0.923 2.04-1.81 4.05-1.64 3.81-2.38 3.36zm50.7-1.27c-2.79-4.96-5.18-9.39-5.11-9.46 0.0774-0.0774 0.563 0.55 2.78 3.6 4.49 6.17 4.1 5.51 3.61 5.99-0.22 0.22-0.402 0.303-0.668 0.303h-0.366zm-82.4-0.227c-1.53-0.556-1.61-2.75-0.125-3.46 0.89-0.431 1.87-0.18 2.46 0.629l0.309 0.427v0.565c0 1.36-1.36 2.31-2.64 1.84zm1.32-0.7c0.18-0.0673 0.362-0.273 0.509-0.576l0.228-0.471-0.146-0.42c-0.311-0.893-1.4-1.17-2.07-0.524-0.703 0.673-0.46 1.74 0.467 2.06 0.407 0.139 0.474 0.135 1.01-0.065zm6.94-3.34c-0.405-0.188-0.621-0.377-0.854-0.744l-0.312-0.491v-0.636c0-0.802 0.293-1.39 0.916-1.84l0.45-0.326h1.62l0.44 0.31c2.14 1.51 0.128 4.84-2.26 3.73zm1.81-0.643c1.28-0.959 0.819-2.78-0.742-2.91l-0.527-0.0422-0.36 0.245c-0.796 0.541-1.01 1.27-0.629 2.12 0.365 0.804 1.55 1.11 2.26 0.584zm73.5-1.09c-0.802-1.05-2.54-3.25-2.93-3.71-1.63-1.91-1.24-1.68 1.83 1.09l2.65 2.38v0.278c0 0.177-0.0991 0.356-0.273 0.492-0.464 0.365-0.66 0.284-1.28-0.532zm-87.9-49c-2.92-0.745-5.13-1.33-5.59-1.48l-0.519-0.172-0.0621-0.96 0.271-0.213c0.198-0.156 0.332-0.19 0.497-0.127 0.298 0.114 6.32 3.01 6.37 3.07 0.134 0.134-0.139 0.103-0.974-0.11zm0.61-2.67c-2.11-1.07-2.31-1.25-1.85-1.62 0.265-0.22 2.59 1.25 3.67 2.33l0.152 0.151-0.152-4e-3c-0.0834-2e-3 -0.902-0.387-1.82-0.854zm10.9-5.7c-1.96-0.94-5.64-2.88-5.84-3.07-0.163-0.16-0.349-0.111-0.784 0.204-0.228 0.165-0.649 0.357-0.934 0.425l-0.519 0.125-0.211 0.415c-1.37 2.69-6.33 2.57-7.23-0.175l-0.116-0.352-0.667-0.222c-1.99-0.662-3.12-2.37-3.03-4.59l0.0425-1.05 0.304-0.612c0.167-0.337 0.538-0.86 0.824-1.16l0.52-0.55 0.00169-2.64 0.235-0.56c1.29-3.06 4.97-4.43 7.47-2.78l0.262 0.173 0.273-0.141c3.8-1.97 7.78 1.49 6.29 5.46l-0.208 0.555 0.226 0.508c0.17 0.383 0.225 0.703 0.222 1.3l-4e-3 0.794-0.324 0.693c-0.402 0.859-0.401 0.897 0.0122 1.24 0.746 0.625 6.3 5.97 6.25 6.02-0.196 0.196-5.51-4.23-8.68-7.24-2.07-1.97-2.01-2.03 0.313-0.356l0.856 0.617 0.2-0.181c0.653-0.591 0.661-1.93 0.0212-3.34-0.538-1.19-0.571-1.52-0.109-1.1 0.69 0.624 0.837-1.36 0.199-2.69-0.911-1.91-3.95-2.66-5.06-1.25-0.109 0.139-0.258 0.252-0.331 0.252s-0.288 0.0559-0.477 0.124c-0.425 0.154-0.603 0.0172-0.603-0.462v-0.327l-0.466-0.179c-1.48-0.57-3.76 0.144-4.79 1.5-0.71 0.933-1.13 2.64-0.808 3.26l0.117 0.218 0.651-0.227 0.139 0.191c0.215 0.294 0.17 0.423-0.23 0.659-0.284 0.168-0.354 0.264-0.305 0.42 0.14 0.441-0.294 0.8-0.568 0.469-0.257-0.309-0.732 0.0919-1.22 1.03l-0.273 0.524-0.0066 2.07 0.291 0.553c0.572 1.09 1.85 2.09 2.68 2.09 0.384 0 0.708 0.332 0.708 0.727 0 1.95 4.28 2.46 5.4 0.646l0.222-0.359-0.144-0.0914c-0.0794-0.0503-0.201-0.0921-0.27-0.093-0.605-8e-3 -1.05-0.991-0.495-1.1l0.362-0.068 0.181 0.223c0.36 0.444 1.81 0.39 2.24-0.0836l0.168-0.186-0.895-0.814c-1.47-1.33-1.03-1.16 3.22 1.28 1.14 0.655 2.28 1.31 2.54 1.46 0.915 0.515 3.77 2.3 4.08 2.55 0.515 0.416 0.194 0.296-1.92-0.717zm84.9-7.46c0.0854-0.105 1.2-1.08 2.48-2.16 1.28-1.08 3.07-2.6 3.98-3.38 3.59-3.05 4.87-4.11 5.1-4.23 0.432-0.231 1.05 0.289 1.06 0.885l2e-3 0.33-1.79 1.22c-0.982 0.668-3.58 2.46-5.77 3.98-4.36 3.02-5.31 3.65-5.07 3.36zm-73.6-5.62c-5.33-5.39-5.91-6-5.84-6.19 0.0345-0.0898 0.0626-0.208 0.0626-0.263 0-0.246 0.558-0.608 0.938-0.608h0.39l1.02 1.32c1.18 1.52 1.97 2.55 3.65 4.75 0.657 0.86 1.71 2.23 2.34 3.05 1.89 2.46 1.95 2.5-2.57-2.05zm6.36 2.07c-3.15-4.46-3.31-4.79-2.32-4.79 0.336 3e-3 0.43 0.156 1.72 2.8 1.71 3.51 1.73 3.57 0.608 1.99zm66.7-0.0398c0.147-0.279 2.18-3.15 2.87-4.05l0.459-0.601 0.262 0.0317c0.144 0.0174 0.33 0.134 0.412 0.259l0.15 0.227-2.04 2.15c-2.02 2.14-2.36 2.46-2.11 1.98zm-22.2-2.82c0-0.458 3.8-6.02 7.54-11 1.68-2.26 1.87-2.36 0.941-0.509-0.697 1.39-0.702 1.49-0.0904 1.71 0.804 0.291 1.7 0.0966 1.7-0.368 0-0.178 0.0812-0.273 0.295-0.345l0.295-0.099 0.274 0.222c2.4 1.95 5.95-0.699 5.49-4.09-0.216-1.59-1.69-3.24-2.76-3.09-0.607 0.0885-0.693-0.0286-0.7-0.954-0.0122-1.54-1.09-2.7-2.72-2.93-1.12-0.159-2.73 0.39-2.55 0.87 0.0951 0.248-0.224 0.481-0.713 0.521l-0.49 0.0399-0.121-0.225c-0.0664-0.124-0.113-0.237-0.103-0.251 0.317-0.469-1.85-0.827-2.94-0.485-0.819 0.258-1.76 1.14-2.18 2.03l-0.299 0.649-9.6e-4 1.76 0.343 0.696c0.378 0.768 0.501 0.826 0.903 0.424l0.272-0.272 0.333 0.333-0.175 0.368c-0.0965 0.202-0.175 0.532-0.175 0.733s-0.0494 0.458-0.11 0.571c-0.211 0.394 0.0701 1.29 0.567 1.81 0.584 0.609 0.654 0.591 1.33-0.35 0.826-1.15 0.98-1.25 0.665-0.426-0.931 2.44-5.86 12.1-5.86 11.5-3e-4 -0.177 1.71-4.21 2.98-7.02 0.283-0.626 0.635-1.41 0.783-1.73l0.269-0.596-0.282-0.232c-0.972-0.799-1.37-1.6-1.37-2.73v-0.68l-0.4-0.48c-2.97-3.57 0.983-8.83 5.33-7.09l0.704 0.281 0.366-0.227c2.71-1.68 6.11-0.36 6.58 2.55l0.0706 0.443 0.658 0.299c3.75 1.7 3.67 7.22-0.131 9.12l-0.702 0.35-1.97 4e-3 -0.912-0.486-0.476 0.24c-0.687 0.347-1.78 0.393-2.44 0.102-0.673-0.298-0.72-0.286-1.1 0.274-0.742 1.09-4.22 5.6-5.76 7.48-1.18 1.43-1.15 1.41-1.15 1.31zm11.7-2.91c-0.794-0.279-1.39-1.27-1.24-2.07 0.29-1.54 2.1-2.23 3.19-1.21 1.5 1.4-0.02 3.96-1.95 3.28zm1.3-0.727c0.678-0.351 0.831-1.35 0.299-1.96-0.578-0.658-1.5-0.577-1.96 0.173-0.692 1.13 0.48 2.39 1.66 1.78zm8.99-4.5c-1.32-0.697-1.62-2.34-0.63-3.44 1.7-1.88 4.6-0.115 3.7 2.25-0.44 1.15-2 1.76-3.07 1.19zm1.77-0.71c0.77-0.413 1.02-1.48 0.521-2.19-0.723-1.02-2.36-0.709-2.66 0.499-0.316 1.27 0.995 2.3 2.14 1.69z" fill="#0b0d0d"/></svg>
