<svg width="210mm" height="297mm" version="1.1" viewBox="0 0 210 297" xmlns="http://www.w3.org/2000/svg"><path d="m65.1 184c-1.73-1.15-2.22-1.5-2.22-1.58 1e-3 -0.0344 0.301-0.408 0.668-0.83 0.817-0.942 0.852-0.741-0.331-1.91-1.13-1.11-1.12-1.1-0.445-1.52 0.253-0.157 1.95-1.24 3.78-2.41 4.92-3.15 9.72-6.09 9.8-6.01 0.0552 0.0571-0.291 0.494-1.51 1.9-0.613 0.709-1.19 1.39-1.29 1.52l-0.176 0.234 0.171-0.0949c0.0943-0.0522 0.71-0.571 1.37-1.15 1.89-1.67 2-1.72 1.08-0.437-2.03 2.83-4.86 6.88-7.92 11.4-0.702 1.03-1.32 1.88-1.37 1.89-0.0526 0.0127-0.773-0.426-1.6-0.974zm30.8-0.774c-0.0223-0.0782-0.256-0.928-0.519-1.89-1.57-5.74-3.3-9.43-4.85-10.4l-0.341-0.207-0.373 0.0457c-1.73 0.211-5.71 3.71-10.9 9.58-1.48 1.67-1.42 1.69-0.952-0.488 1.96-9.17 1.47-11.9-2.3-12.6l-0.381-0.073-0.512 0.479c-1.49 1.4-3.44 2.31-5.28 2.47l-0.668 0.0569-0.729-0.13c-1.2-0.214-2.2-0.721-3.08-1.56-0.252-0.241-0.512-0.438-0.578-0.438-0.375 0-4.9 1.57-7.36 2.55-0.625 0.25-1.16 0.454-1.2 0.454-0.161 0 0.0306-0.298 1.22-1.89 1.92-2.57 3.62-5 4.37-6.25l0.333-0.55-0.246-1.01c-0.135-0.555-0.337-1.55-0.449-2.21l-0.204-1.2-0.1-3.9-0.55-0.277c-1.66-0.836-3.79-1.64-6.95-2.61-0.972-0.299-1.77-0.586-1.77-0.637 0-0.0512 1.1-0.473 2.44-0.936 3.99-1.38 6.53-2.46 8.25-3.49l0.859-0.516 0.393-0.7c0.216-0.385 0.614-1.01 0.884-1.38l0.491-0.684v-0.367c0-0.825-0.712-2.52-1.77-4.2-1.21-1.92-2.98-4.21-5.71-7.37-1.36-1.57-1.39-1.52 0.574-0.739 8.18 3.27 12.6 4.26 14.5 3.26l0.43-0.226 0.219-0.445c0.121-0.245 0.276-0.755 0.345-1.14l0.126-0.69-0.0419-1.3c-0.0651-2.02-0.452-4.06-1.51-7.97-0.668-2.46-0.693-2.37 0.379-1.43 5.08 4.47 9.11 7.05 11.1 7.1l0.434 0.0103 0.326-0.175c1.86-0.998 3.07-6.72 3.35-15.8 0.0238-0.787 0.0697-0.758 1.11 0.718 4.71 6.66 8.71 10.6 11.8 11.8l0.644 0.232 0.536 1e-3c2.55 5e-3 6.89-3.82 12.5-11 1.46-1.88 1.38-1.84 1.32-0.681-0.0241 0.508-0.0889 1.93-0.144 3.16l-0.1 2.23 0.0921 1.79c0.235 4.57 1.11 7.43 2.49 8.12l0.433 0.219 0.65 2e-3c2.6 8e-3 7.97-2.49 17.1-7.95 0.423-0.253 0.378-0.118-0.665 2.01-1.57 3.19-3.16 7.23-3.16 8.01 0 0.102 0.223 0.131 2 0.269 0.648 0.0499 1.69 0.144 2.32 0.21l1.14 0.119 0.186 0.191c0.102 0.105 0.261 0.328 0.353 0.495l0.168 0.304 2.44 0.508c4.58 0.956 4.34 0.87 4.76 1.69l0.26 0.503 8e-3 0.829-0.557 0.844c-0.306 0.464-0.823 1.25-1.15 1.74-1.02 1.55-3.28 5.16-3.28 5.24 0 0.133 2.02 0.43 4.67 0.687 0.734 0.0712 1.42 0.149 1.52 0.173l0.189 0.0433-0.15 0.145c-0.0826 0.0795-0.521 0.376-0.975 0.659-4.49 2.8-7.25 5.26-7.9 7.03l-0.204 0.558 0.0517 0.406c0.212 1.66 2.08 4.3 6.12 8.64 1.85 1.99 1.86 1.86-0.076 1.4-4.1-0.985-7.55-1.49-10.2-1.5l-1.5-5e-3 -0.19 0.143c-0.876 0.658-1.51 0.965-2.22 1.08-0.446 0.0691-0.542 0.193-0.726 0.933l-0.131 0.527 0.0447 0.974c0.0392 0.854 0.22 2.13 0.327 2.31 0.0203 0.034 0.365 0.256 0.766 0.493 0.401 0.237 2.57 1.55 4.81 2.91 2.25 1.36 4.36 2.64 4.69 2.84 0.755 0.446 0.76 0.392-0.137 1.32-0.905 0.932-0.904 0.838-0.0328 1.81 0.391 0.435 0.688 0.83 0.659 0.878-0.115 0.192-3.6 2.52-3.73 2.5-0.142-0.0242-1.83-2.22-4.3-5.59-0.671-0.916-1.25-1.7-1.28-1.74-0.175-0.204-0.123 0.0998 0.166 0.971 0.317 0.957 0.376 1.26 0.249 1.26-0.0764 0-0.0812-3e-3 -2.01-1.39-5.42-3.9-9.43-6.05-11-5.9l-0.384 0.0381-0.239 0.235c-0.497 0.488-0.81 1.28-1.06 2.68l-0.143 0.801 5e-3 2.35 5e-3 2.35 0.17 1.79c0.0937 0.983 0.193 1.96 0.22 2.17 0.0729 0.571 0.085 0.581-2.37-1.95-4.73-4.88-8.47-7.59-10-7.29-1.61 0.313-4.34 4.18-7.22 10.2-1.19 2.5-1.26 2.62-1.34 2.36zm-25.4-22.3c0.29-0.109 0.618-0.294 0.73-0.413l0.203-0.215-0.393 0.236c-1.09 0.654-2 0.586-2.88-0.217l-0.342-0.312-0.371-0.801c-0.205-0.441-0.439-1.11-0.522-1.49-0.096-0.441-0.153-0.595-0.157-0.426-0.0062 0.249 0.297 1.55 0.471 2.03 0.53 1.44 1.91 2.12 3.26 1.61zm61.5-5.63c-0.554-1.11-2.2-1.23-3.43-0.239-0.236 0.19-0.447 0.4-0.468 0.467-0.0209 0.067 0.129-0.0368 0.333-0.231 0.479-0.454 1.05-0.722 1.7-0.79l0.511-0.0537 0.289 0.125c0.377 0.163 0.961 0.723 1.09 1.05 0.0563 0.141 0.117 0.21 0.135 0.155 0.0178-0.0551-0.053-0.271-0.157-0.481zm-5.56-0.627c-0.656-1.1-2.46-1.13-3.59-0.0645l-0.3 0.285 0.415-0.3c0.578-0.418 1.14-0.623 1.75-0.636l0.513-0.0117 0.455 0.284c0.284 0.178 0.534 0.414 0.666 0.63 0.134 0.219 0.22 0.301 0.236 0.222 0.014-0.068-0.0512-0.252-0.145-0.409zm-25.1-1.18c-1.27-0.193-2.02-0.979-2.41-2.53-0.1-0.4-0.148-0.507-0.153-0.338-0.0425 1.56 1.12 2.95 2.47 2.94l0.55-2e-3zm5.17-0.403c-0.156-0.508-1.07-2.35-1.14-2.31-0.0575 0.0368-0.055 0.0882 8e-3 0.167 0.0849 0.106 0.379 0.713 0.893 1.84 0.21 0.462 0.338 0.622 0.239 0.3zm29.6-1.96c0.191-0.466 0.178-0.63-0.0188-0.237-0.193 0.386-0.281 0.658-0.214 0.658 0.0336 0 0.138-0.189 0.233-0.42zm-3.44-5.83c0.174-0.415 0.304-0.768 0.288-0.785-0.0249-0.0257-0.534 1.13-0.664 1.5-0.131 0.38 0.1-0.0631 0.376-0.72zm1.18-2.76c0.334-0.782 1.05-2.43 1.59-3.66 0.54-1.23 1.25-2.87 1.59-3.65 0.833-1.96 1.13-2.58 1.23-2.62 0.0503-0.0173 0.66 0.0906 1.36 0.24 0.695 0.149 1.51 0.324 1.81 0.387 0.302 0.0638 0.974 0.208 1.49 0.321 1.04 0.226 1.14 0.238 1.14 0.138 0-0.0957-3.44-0.881-4.99-1.14-0.259-0.0431-0.568-0.104-0.686-0.134l-0.214-0.0562-0.478 1.04c-2.08 4.54-5.39 12.3-4.58 10.8 0.0697-0.133 0.4-0.882 0.733-1.66zm-56.6 0.0203c-0.0651-0.13-0.181-0.289-0.257-0.353l-0.138-0.116 0.0646 0.122c0.279 0.527 0.576 0.838 0.33 0.347zm-0.693-0.965c-0.697-1-2.54-2.08-3.52-2.05l-0.277 7e-3 0.652 0.152c0.384 0.0895 0.917 0.296 1.3 0.501l0.644 0.348 0.707 0.708c0.389 0.39 0.718 0.709 0.732 0.711 0.0135 1e-3 -0.0926-0.167-0.236-0.373zm51.5-3.32c1.07-3.39 1.44-4.62 1.41-4.65-0.0643-0.0665-2.41 7.34-2.4 7.57 9e-3 0.132 0.258-0.606 0.987-2.92zm-58 1.67c0.161-0.055 0.274-0.12 0.25-0.145-0.0637-0.0659-1.31 0.449-1.54 0.635-0.131 0.107 3e-3 0.0681 0.399-0.115 0.328-0.152 0.728-0.321 0.889-0.376zm11-1.75c0.501-0.204 1.28-0.529 1.73-0.723 0.454-0.193 1.18-0.488 1.61-0.654 0.714-0.275 1.2-0.526 1.03-0.526-0.0383 0-0.461 0.163-0.94 0.362s-1.28 0.524-1.77 0.721c-2.44 0.971-2.92 1.18-2.68 1.19 0.0611 1e-3 0.521-0.165 1.02-0.369zm29.2-0.664c-0.437-1.87-2.18-3.49-4.24-3.92l-0.84-0.178-1.12 0.159 0.707 0.0124c2.42 0.0425 3.98 1.12 5.18 3.57 0.301 0.619 0.399 0.732 0.313 0.363zm-19.9-0.844c0.521-0.185 1.42-0.517 2.01-0.737 1.36-0.514 2.44-0.873 2.61-0.875 0.0756-5e-4 0.137-0.0582 0.137-0.128v-0.127l-0.177 0.0515c-0.0972 0.0283-0.495 0.173-0.884 0.322-0.389 0.149-1.29 0.477-2 0.728-1.67 0.588-2.61 0.949-2.71 1.03-0.135 0.121 0.0519 0.0718 1.01-0.27zm22-1.53c1.69-0.384 1.9-0.44 1.77-0.468-0.0711-0.0162-0.584 0.0787-1.14 0.211-0.555 0.132-1.14 0.264-1.3 0.292-0.162 0.0286-0.295 0.0908-0.295 0.138s0.0534 0.065 0.119 0.0391c0.0653-0.0259 0.445-0.122 0.844-0.212zm10.3-0.375c0.713-0.109 1.76-0.278 2.32-0.376 0.562-0.0982 1.18-0.181 1.37-0.184 0.22-4e-3 0.361-0.0465 0.384-0.117l0.0358-0.111-0.266 0.0559c-0.146 0.0307-0.761 0.125-1.37 0.209-1.76 0.246-4.2 0.656-4.39 0.738l-0.17 0.0752 0.393-0.0462c0.216-0.0254 0.976-0.135 1.69-0.244zm-21.3-0.154c0.271-0.156 0.444-0.284 0.384-0.284-0.111-9.5e-4 -0.952 0.47-0.952 0.533 0 0.0672 0.0806 0.0319 0.568-0.249zm14.1-0.157c0.573-0.115 1.06-0.276 0.868-0.285-0.171-9e-3 -1.3 0.249-1.43 0.325-0.162 0.0978-0.1 0.0936 0.563-0.0391zm-12.2-0.588c0.911-0.263 0.898-0.257 0.667-0.265-0.26-8e-3 -1.17 0.264-1.46 0.436-0.126 0.0751-0.158 0.113-0.0717 0.0846 0.0864-0.0285 0.475-0.144 0.864-0.256zm14.3 0.166c0.406-0.133-0.118-0.166-0.546-0.0344l-0.508 0.156 0.471-0.0427c0.259-0.0235 0.521-0.0591 0.583-0.0792zm19.2-2.71c-0.0267-0.0447-0.232-0.0819-0.456-0.0827s-0.726-0.0381-1.11-0.0829c-1.46-0.168-4.58-0.37-4.51-0.291 0.0257 0.0289 0.503 0.0863 1.06 0.128 0.963 0.0713 2.14 0.179 3.53 0.323 0.946 0.098 1.55 0.101 1.49 7e-3zm-6.36-1.85c0.0706-0.257 0.27-0.845 0.443-1.31 0.287-0.767 0.368-1.17 0.149-0.748-0.104 0.201-0.867 2.36-0.867 2.46 0 0.233 0.167-0.0128 0.274-0.403zm1.49-3.81c0.0658-0.163 0.104-0.312 0.0847-0.332-0.0421-0.0435-0.395 0.668-0.474 0.954l-0.0555 0.203 0.162-0.264c0.0893-0.145 0.216-0.398 0.282-0.561zm-55.9-0.258c-0.041-0.0377-0.421-0.389-0.845-0.78-0.424-0.391-0.789-0.693-0.811-0.67-0.0811 0.0839 0.175 0.4 0.442 0.545 0.151 0.0822 0.485 0.335 0.743 0.562 0.257 0.227 0.485 0.412 0.507 0.412 0.0213 0 0.0052-0.0308-0.0359-0.0685zm-1.26-0.398c-0.0465-0.27-0.19-0.566-0.19-0.391 0 0.109 0.179 0.696 0.212 0.696 0.0167 0 0.0068-0.137-0.022-0.305zm57.8-0.779c0.226-0.395 0.399-0.753 0.386-0.795-0.0607-0.188-0.321 0.195-0.612 0.901-0.367 0.891-0.335 0.876 0.226-0.107zm-18.9-1.36c-0.0534-0.465-0.11-0.758-0.126-0.652-0.0313 0.211 0.14 1.58 0.191 1.53 0.0174-0.018-0.0121-0.413-0.0654-0.877zm-19.8-1.4c-1.26-1.26-3.59-4.13-4.44-5.44-0.163-0.254-0.327-0.462-0.364-0.462-0.114 0-0.0744 0.327 0.0457 0.375 0.0622 0.0247 0.336 0.343 0.609 0.708 1.9 2.54 4.61 5.69 4.77 5.53 0.0227-0.0235-0.258-0.343-0.623-0.711zm19.5-1.66c-0.017-0.167-0.0308-0.0305-0.0308 0.305 0 0.335 0.0139 0.472 0.0308 0.305 0.0169-0.167 0.0169-0.442 0-0.609zm-44.4 11c-2.15-1.29-8.48-5.14-9.05-5.5-0.67-0.422-0.696-0.331 0.415-1.48 0.557-0.573 0.936-1.03 0.923-1.1-0.0121-0.0718-0.791-0.817-1.73-1.66s-1.71-1.55-1.71-1.58c0-0.111 4.52-3.49 4.67-3.49 0.0588 0 0.364 0.466 0.677 1.04 0.78 1.42 3.05 5.43 4.61 8.18 2.22 3.9 2.86 5.02 3.1 5.46l0.228 0.426h-0.112c-0.0615 0-0.723-0.512-1.47-1.14-0.747-0.626-1.38-1.12-1.4-1.1-0.0206 0.0213 0.469 0.589 1.09 1.26 1.65 1.79 1.64 1.81-0.243 0.679zm50.6-5.38c-2e-3 -0.0648 0.32-0.678 0.714-1.36 0.914-1.58 0.857-1.61-0.297-0.153-0.935 1.18-1.1 1.34-1.03 1 0.0619-0.306 6.3-17.1 6.38-17.2 0.0996-0.103 5.22 2.22 5.28 2.4 0.0208 0.0556-0.407 0.674-0.95 1.37l-0.988 1.27 0.0872 0.109c0.048 0.0598 0.378 0.25 0.733 0.422s0.67 0.353 0.7 0.403c0.031 0.0519-0.818 1.04-2.01 2.35-1.14 1.24-3.29 3.61-4.78 5.26-3.73 4.13-3.84 4.24-3.84 4.1z" fill="#f6d804"/><path d="m65.6 184c-3.16-2.1-2.91-1.74-1.99-2.81l0.681-0.792-1.03-1.03c-1.2-1.19-1.17-1.11-0.583-1.47 0.248-0.155 1.58-1.01 2.97-1.89 5.81-3.72 10.5-6.61 10.6-6.52 0.0498 0.0515-0.227 0.401-1.11 1.4-1.49 1.68-2.41 2.88-1.74 2.26 0.229-0.212 2.73-2.39 2.91-2.53 0.0784-0.0631 0.137-0.0744 0.137-0.0264 0 0.0811-0.234 0.418-2.32 3.35-0.525 0.737-2.06 2.95-3.42 4.91s-2.8 4.06-3.21 4.66c-0.91 1.32-0.711 1.27-1.89 0.485zm30.3-1.19c-0.0223-0.0782-0.256-0.928-0.519-1.89-1.57-5.74-3.42-9.62-4.93-10.4l-0.28-0.137-0.408 0.0435c-1.64 0.174-5.22 3.29-10.3 8.97-1.61 1.79-1.8 1.98-1.8 1.8 0-0.0556 0.175-0.944 0.39-1.97 1.82-8.76 1.39-11.4-2-12.2l-0.691-0.17-0.177 0.148c-0.0974 0.0815-0.419 0.351-0.714 0.6-1.69 1.42-3.26 2.09-5.1 2.17l-1.03 0.043-0.59-0.136c-0.99-0.228-2.09-0.856-2.9-1.65l-0.289-0.286-0.338 0.0558c-0.477 0.0789-4.93 1.62-6.69 2.32-0.811 0.321-1.53 0.572-1.6 0.558-0.0869-0.0182 0.316-0.616 1.36-2.02 2.35-3.16 4.5-6.33 4.5-6.62 0-0.0705-0.0855-0.482-0.19-0.914-0.515-2.13-0.686-3.41-0.744-5.58l-0.048-1.79-0.746-0.381c-1.75-0.891-3.89-1.67-7.99-2.91-0.771-0.232-0.752-0.252 0.707-0.734 3.45-1.14 6.42-2.32 8.3-3.3 1.81-0.939 1.98-1.07 2.29-1.63 0.141-0.26 0.49-0.814 0.775-1.23 0.285-0.418 0.58-0.856 0.656-0.974l0.138-0.215-0.0483-0.365c-0.299-2.26-2.7-5.93-7.53-11.5-1.02-1.18-1.02-1.17-0.971-1.22 0.0235-0.0243 0.321 0.0701 0.661 0.21 6.11 2.51 10.5 3.84 13.2 3.95l1.1 0.0467 0.511-0.136c2.3-0.609 2.37-4.06 0.266-11.9-0.629-2.32-0.611-2.25-0.526-2.25 0.0389 0 0.37 0.262 0.735 0.582 5.05 4.42 8.82 6.88 11 7.18l0.402 0.0551 0.346-0.137c1.81-0.716 3.22-6.38 3.46-13.9 0.0253-0.804 0.0657-1.73 0.0899-2.05l0.044-0.593 0.1 0.086c0.0551 0.0473 0.516 0.675 1.02 1.39 4.99 7.06 9.37 11.2 12.5 11.8l0.485 0.0987 0.574-0.132c2.6-0.598 6.71-4.36 11.6-10.6 0.782-1 1.46-1.82 1.51-1.82 0.0606 0 0.0703 0.283 0.0327 0.954-0.0294 0.525-0.0863 1.54-0.126 2.25-0.385 6.86 0.606 12 2.5 13l0.372 0.189 0.707-4e-3c2.6-0.0144 7.12-2.1 16.4-7.53 0.497-0.292 0.914-0.5 0.927-0.463 0.0128 0.0372-0.466 1.09-1.06 2.33-1.31 2.72-2.01 4.41-2.58 6.19-0.56 1.75-0.565 1.72 0.225 1.72 0.22 0 1.37 0.0923 2.57 0.205l2.17 0.205 0.196 0.148c0.108 0.0816 0.286 0.309 0.397 0.505l0.201 0.357 1.13 0.229c2.28 0.46 5.45 1.2 5.61 1.3 0.25 0.17 0.676 1.13 0.684 1.54 8e-3 0.431 0.0316 0.388-1.27 2.37-3.16 4.83-3.81 5.92-3.6 6.01 0.16 0.0603 3.71 0.51 4.77 0.605 1.74 0.155 1.72 0.118 0.412 0.943-5.23 3.29-7.95 5.87-8.09 7.69-0.123 1.55 1.71 4.23 6.25 9.14 0.755 0.817 1.35 1.5 1.33 1.53-0.0233 0.0241-0.744-0.122-1.6-0.324-2.41-0.569-4.3-0.928-6.31-1.2l-1.85-0.25-3.53-0.0206-0.393 0.317c-0.497 0.401-1.21 0.739-1.79 0.851-0.576 0.11-0.588 0.119-0.783 0.568l-0.163 0.375-0.034 0.938c-0.0367 1.01 0.146 2.58 0.337 2.88 0.0573 0.0925 0.435 0.364 0.838 0.603 0.817 0.485 3.99 2.4 6.39 3.86 0.864 0.525 2 1.21 2.51 1.52 0.518 0.311 0.993 0.615 1.05 0.674l0.112 0.108-0.799 0.84c-0.963 1.01-0.957 0.834-0.0533 1.76 0.41 0.423 0.746 0.796 0.746 0.831 0 0.123-3.68 2.6-3.8 2.56-0.114-0.045-2.73-3.49-4.6-6.04-1.29-1.77-1.3-1.77-0.796-0.226 0.477 1.47 0.579 1.46-1.27 0.118-5.27-3.82-9.33-6.1-11.1-6.23l-0.564-0.0402-0.281 0.18c-0.487 0.311-0.891 1.19-1.16 2.52l-0.154 0.771-0.0455 1.85c-0.0465 1.89 0.0196 3.3 0.28 5.97 0.0749 0.768 0.116 1.43 0.0905 1.47-0.0251 0.0421-0.999-0.914-2.16-2.12-4.98-5.18-8.94-7.98-10.4-7.37-1.87 0.766-4.85 5.25-7.71 11.6-0.443 0.983-0.552 1.13-0.631 0.853zm1.25-5.95c1.72-3.55 3.14-5.75 4.74-7.32l0.713-0.701 1.18-0.605 0.606-0.0354c2.02-0.118 4.93 1.8 8.81 5.8 0.924 0.954 1.7 1.72 1.72 1.69 0.0221-0.0228-4e-3 -0.417-0.0571-0.876-0.0534-0.459-0.116-1.55-0.139-2.42l-0.0423-1.59 0.137-1.05c0.48-3.7 1.88-5.18 4.38-4.63 1.93 0.424 6.11 2.97 9.43 5.74 0.33 0.276 0.323 0.18-0.0777-1.02l-0.373-1.12-1.12-1.35c-1.39-1.68-1.4-1.79-0.0232-0.629 0.344 0.29 0.645 0.526 0.668 0.526 0.153 0-0.088-0.31-1.09-1.4-1.11-1.22-1.27-1.47-0.692-1.11 1.57 0.975 1.48 0.984 1.37-0.147-0.105-1.04-0.0228-2.03 0.225-2.72l0.17-0.471-0.108-0.15c-0.0593-0.0825-0.245-0.34-0.412-0.572l-0.304-0.422-0.128 0.109c-0.0702 0.06-0.262 0.226-0.426 0.369-1.61 1.41-3.97 1.2-4.86-0.435-0.254-0.466-0.3-0.495-0.549-0.358-0.0849 0.047-0.675 0.176-1.31 0.286s-1.96 0.347-2.94 0.527l-1.78 0.326-0.232-0.124c-0.27-0.144-0.356-0.36-0.29-0.725l0.0473-0.26-0.474-0.773 0.865-3.62c1.01-4.22 0.946-3.77 0.531-3.76-0.493 2e-3 -0.501 0.0155-0.837 1.46-0.45 1.94-1.34 6.11-1.34 6.28 0 0.266-0.411 0.593-0.868 0.69-0.236 0.0501-1.58 0.354-2.99 0.674l-2.57 0.583-0.408-0.276v-0.28c0-0.318-0.341-1.18-0.467-1.18-0.0456 0-0.411 0.235-0.813 0.523-1.42 1.02-2.72 1.56-4.24 1.75l-0.763 0.0993-0.642-0.097c-2.47-0.374-4.19-1.94-5.29-4.82-0.305-0.801-0.33-0.802-0.609-0.0152-2.81 7.93-11.2 10.2-13.8 3.7-0.321-0.806-0.365-0.84-0.526-0.403-0.27 0.735-1.45 3.07-1.91 3.79-0.537 0.835-0.538 0.855-0.0164 0.988 0.206 0.0527 0.669 0.242 1.03 0.421l0.654 0.325 0.532 0.543c1.51 1.54 1.77 4.28 0.835 8.74-0.284 1.36-0.397 1.41 1.45-0.711 3.77-4.34 6.71-6.54 8.54-6.36 2.16 0.208 4.32 3.67 5.84 9.35 0.268 1.01 0.16 1.09 1.06-0.778zm-36.7-9.28c0.432-0.194 1.24-0.53 1.81-0.747 0.562-0.217 1.06-0.426 1.11-0.463l0.0903-0.0686-0.473-0.951c-0.581-1.17-0.479-1.15-1.2-0.226-0.529 0.68-1.56 1.92-2.15 2.58-0.279 0.314-0.116 0.289 0.814-0.129zm9.88-6.88c0.769-0.261 2.41-1.89 2.16-2.14-0.0227-0.0235-0.13 0.095-0.239 0.263-0.388 0.602-1.03 1.2-1.59 1.49l-0.544 0.276h-1.12l-0.355-0.215c-0.821-0.498-1.43-1.54-1.75-2.99l-0.167-0.771 1e-3 -1.66 1e-3 -1.66-0.0974 0.528c-0.757 4.11 1.19 7.74 3.69 6.89zm71.4-0.389c-0.0144-0.0398-0.503-0.533-1.09-1.1-2.74-2.64-4.23-4.83-4.56-6.7l-0.0899-0.513 0.0903-0.554c0.331-2.03 2.54-4.32 6.21-6.45 0.436-0.253 0.763-0.487 0.727-0.52-0.0872-0.0787-3.14-0.274-3.25-0.207-0.161 0.103-3.16 5.22-4.83 8.24-0.506 0.916-0.988 1.74-1.07 1.83l-0.153 0.162-0.485 7e-3c-0.274 4e-3 -0.497 0.0458-0.513 0.096-0.0425 0.132 0.197 0.57 0.361 0.661 0.222 0.123 0.618 0.968 0.715 1.52 0.0847 0.486 0.0766 0.603-0.121 1.75l-0.0522 0.303 0.108 0.0334c0.0595 0.0184 0.656 0.0915 1.33 0.162 1.66 0.176 4.67 0.793 5.97 1.22 0.407 0.135 0.732 0.161 0.694 0.0555zm-71.5-0.512c1.59-0.704 2.87-3.57 2.98-6.72l0.0413-1.1-0.118-0.701c-0.637-3.77-3.73-1.38-4.59 3.54-0.333 1.91-0.0231 4.76 0.543 4.99 0.26 0.108 0.883 0.101 1.14-0.0121zm58.1-4.66c0.53-0.558 1.12-0.846 1.84-0.902l0.565-0.0441 0.271 0.142c0.538 0.282 0.801 0.551 1.02 1.05l0.222 0.495 2e-3 -0.244c9e-3 -1.13-1.37-1.93-2.64-1.54-0.764 0.235-1.91 1.25-1.9 1.67 2e-3 0.0719 0.0435 0.0537 0.119-0.0515 0.0641-0.0893 0.294-0.349 0.511-0.577zm-5.17-0.948c1.28-0.88 2.62-0.662 3.28 0.535l0.234 0.421 7.3e-4 -0.227c1e-3 -0.439-0.44-1.01-1.02-1.32l-0.275-0.148-1.26 6e-3 -0.377 0.175c-0.595 0.276-1.05 0.638-1.39 1.1-0.422 0.577-0.398 0.674 0.0385 0.158 0.194-0.229 0.538-0.544 0.766-0.7zm-37 0.715 0.236-0.112-0.275 0.042c-0.151 0.0231-0.323 0.0574-0.382 0.0763-0.247 0.0797-0.709-0.142-1.02-0.489l-0.32-0.358-0.168-0.595c-0.227-0.803-0.22-0.786-0.227-0.543-0.0389 1.35 1.16 2.45 2.15 1.98zm41.8-0.682c0.19-0.173 0.54-0.42 0.778-0.548 0.481-0.26 0.506-0.338 0.254-0.794-0.226-0.408-0.282-0.394-0.494 0.126-0.0965 0.236-0.269 0.512-0.384 0.615l-0.209 0.186h-0.777v0.13c0 0.544 0.399 0.681 0.833 0.286zm-21-0.421c-0.0716-0.143-0.213-0.489-0.315-0.768-0.332-0.913-1.16-2.64-1.26-2.64-0.163 0-0.215 0.165-0.0846 0.269 0.1 0.0802 1.47 2.9 1.66 3.43 0.0345 0.094 0.0743 0.122 0.0945 0.0664 0.0192-0.0528-0.0237-0.213-0.0952-0.356zm-20.9 0.209c1.2-0.64 1.55-2.97 2.28-15.1 0.0902-1.5 0.188-2.75 0.218-2.78 0.112-0.12 7.18-2.66 7.4-2.66 0.183 0 0.249 0.291 0.227 1.01l-0.0173 0.575 0.268 0.01c0.433 0.016 0.451 0.0231 0.503 0.193 0.0274 0.0892-0.0274 0.584-0.122 1.1-0.188 1.03-0.175 1.14 0.0964 0.801 2.2-2.71 4.3-4.14 6.8-4.63l0.689-0.134 0.903 0.0433c1.49 0.0717 2.61 0.515 3.67 1.46 0.526 0.468 1.27 1.36 1.27 1.53 0 0.251 0.229 0.0206 0.272-0.274 0.0277-0.19 0.0688-0.445 0.0914-0.567l0.041-0.222 0.326-0.0907c0.179-0.0499 0.786-0.194 1.35-0.32 0.563-0.126 1.52-0.344 2.12-0.485 0.605-0.141 1.42-0.325 1.81-0.409 0.389-0.0844 1.04-0.228 1.45-0.319 0.407-0.0913 0.77-0.166 0.805-0.166 0.116 0 0.0675 0.534-0.0926 1.02-0.0864 0.26-0.157 0.542-0.157 0.628v0.156l0.255-0.063c0.14-0.0346 0.361-0.065 0.491-0.0674l0.236-4e-3 0.0241 0.215c0.0133 0.118-0.241 1.12-0.565 2.23-0.69 2.36-1.85 6.52-1.85 6.62 0 0.102 0.662 0.0833 0.763-0.022 0.0483-0.05 0.574-2.12 1.17-4.61 0.594-2.48 1.11-4.55 1.14-4.59 0.121-0.142 7.51-1.32 7.73-1.23 0.158 0.0626 0.135 0.298-0.0873 0.909-0.108 0.297-0.196 0.593-0.196 0.659v0.12l0.412-0.0565c0.546-0.0748 0.468 0.0646 1.16-2.08 0.764-2.38 0.817-2.51 1.09-2.68l0.227-0.134 0.133-0.475c0.356-1.28 1.5-3.94 2.33-5.41 0.438-0.779 0.38-0.786-0.722-0.0872-7.06 4.48-12 6.56-14.3 6.05-2.83-0.628-4.33-4.81-4.16-11.6 0.0251-1.06 0.018-1.93-0.0159-1.93s-0.377 0.41-0.762 0.912c-3.51 4.57-7.12 7.82-9.69 8.72l-0.432 0.152-2.04-8e-3 -0.589-0.228c-3.03-1.17-7.22-5.11-10.5-9.82-0.59-0.86-0.577-0.883-0.687 1.18-0.447 8.41-2.45 12.6-5.76 12.2-2.02-0.296-4.88-2.05-8.1-4.97-0.977-0.887-0.951-0.915-0.532 0.589 2.95 10.6-0.832 13.2-12.2 8.37-0.751-0.319-1.38-0.561-1.41-0.538-0.0222 0.023 0.38 0.503 0.894 1.07 2.25 2.47 3.92 4.86 4.52 6.48 0.207 0.56 0.256 0.562 0.917 0.0431 0.655-0.514 2.03-1.21 2.96-1.51l0.707-0.224 2.59 2e-3 0.628 0.217c1.68 0.58 3.06 1.87 4.25 3.98 0.341 0.603 0.505 0.695 0.507 0.286 7.29e-4 -0.145 0.0694-1.36 0.153-2.69l0.151-2.43 0.103-0.099c0.11-0.106 2.78-1.22 5.72-2.39l1.81-0.717 0.0798 0.0994c0.0546 0.068 0.04 0.321-0.0462 0.802-0.0693 0.386-0.107 0.755-0.0829 0.818l0.0431 0.116 0.796-0.263 0.189 0.195-0.168 1.03c-0.0923 0.569-0.328 2-0.524 3.19-1.03 6.22-1.73 12.5-1.49 13.4 0.0558 0.215 0.117 0.224 0.422 0.061zm16.6-1.13c0.391-0.2 0.779-0.447 0.864-0.548l0.154-0.184-0.196 0.127c-0.795 0.515-1.04 0.635-1.48 0.723-2.17 0.436-3.43-1.35-3.22-4.54 0.0691-1.04 0.0426-1.2-0.0915-0.56-0.477 2.28 0.341 4.76 1.74 5.28l0.419 0.155 1.1-0.0796zm20.5 0.0315c0.0489-0.486-0.195-0.523-0.271-0.0417l-0.0475 0.303 0.149-0.0292c0.0913-0.0179 0.157-0.108 0.169-0.232zm-39.3-1.6c-0.0162-0.212-0.0294-0.0386-0.0294 0.386 0 0.424 0.0132 0.598 0.0294 0.386 0.0162-0.212 0.0162-0.559 0-0.771zm18.6 0.723c0.642-0.327 1.67-1.32 2.41-2.32 0.281-0.381 0.546-0.694 0.589-0.696 0.0432-2e-3 0.411 0.691 0.818 1.54 0.407 0.848 0.767 1.54 0.8 1.54 0.11 0 0.134-0.103 0.696-3.01 0.306-1.58 0.682-3.49 0.835-4.24 0.153-0.748 0.266-1.44 0.252-1.54l-0.0269-0.184-1.18 1.2c-0.65 0.659-1.2 1.2-1.23 1.2-0.0274 0-0.214-0.329-0.416-0.732-0.575-1.15-1.12-1.52-1.92-1.31-1.9 0.52-3.96 4.65-3.74 7.52 0.0935 1.22 0.199 1.35 1.07 1.32l0.516-0.0212zm-41.5-0.371c0-0.143 0.516-2.39 0.649-2.83 0.215-0.704 0.213-0.705-0.742-0.323-0.946 0.379-2.62 0.941-3.93 1.32-0.508 0.146-0.923 0.294-0.923 0.329 0 0.0726-0.0156 0.0677 1.14 0.357 0.478 0.119 1.47 0.429 2.2 0.688 1.23 0.437 1.6 0.543 1.6 0.457zm44.1-0.895c-0.022-0.0228-0.176 0.131-0.342 0.342l-0.301 0.384 0.342-0.342c0.188-0.188 0.323-0.361 0.301-0.384zm26.1-2.12c0.234-0.536 0.594-1.38 0.798-1.87 0.747-1.79 2.6-6.13 3.34-7.84 0.42-0.96 1.17-2.68 1.67-3.82 0.497-1.14 0.973-2.23 1.06-2.42 0.0843-0.192 0.195-0.367 0.246-0.387 0.0805-0.0319 2.67 0.495 5 1.02 0.667 0.15 1.02 0.133 0.853-0.0394-0.0994-0.103-4.67-1.1-5.6-1.22l-0.395-0.0516-1.11 2.46c-1.65 3.66-4.83 11.2-6.2 14.7-0.482 1.23-0.298 0.956 0.346-0.517zm-4.28-6.78c0.8-2.52 1.8-5.68 2.21-7.02 0.417-1.34 0.825-2.62 0.907-2.84 0.0815-0.223 0.19-0.589 0.241-0.812 0.119-0.523 0.202-0.627 0.455-0.572 0.112 0.0245 0.663 0.08 1.22 0.123 1.07 0.0829 3.3 0.278 4.26 0.374l0.569 0.0568v-0.251l-0.452-0.0471c-0.248-0.0259-1.11-0.103-1.9-0.172-0.799-0.0687-1.84-0.161-2.32-0.204s-1.05-0.0796-1.28-0.0796h-0.407l-0.128 0.305c-0.479 1.14-5.15 16.1-5.13 16.5 7e-3 0.162 0.265-0.621 1.75-5.31zm-62.9 3.53c0.827-1.68 2.56-3.67 4.11-4.7 4.39-2.94 8.59-1.18 10.3 4.28 0.287 0.936 0.388 1 0.141 0.091-1.82-6.71-7.55-8.01-12.4-2.82-0.986 1.05-2.21 2.88-2.51 3.74l-0.0782 0.226 0.125-0.162c0.0686-0.0893 0.232-0.382 0.364-0.65zm51.8-1.01 0.353-0.065-0.393-5e-3c-0.216-3e-3 -0.534 0.0247-0.707 0.0617l-0.314 0.0672 0.353 3e-3c0.194 2e-3 0.513-0.0259 0.707-0.0617zm1.37-0.167 0.236-0.062-0.275-4e-3c-0.151-2e-3 -0.434 0.0257-0.628 0.0614l-0.353 0.065 0.393 5.5e-4c0.216 3.1e-4 0.499-0.0273 0.628-0.0614zm-7.17-1.87 0.0456-0.365-0.106 0.325c-0.058 0.179-0.105 0.434-0.105 0.568l7.1e-4 0.244 0.0592-0.203c0.0325-0.112 0.0797-0.367 0.105-0.568zm-27.5-5c1.15-0.467 2.34-0.962 2.65-1.1 0.313-0.137 0.622-0.229 0.687-0.203 0.0652 0.0259 0.119 0.0329 0.119 0.0156s0.0236-0.095 0.0525-0.173l0.0525-0.141-0.254 0.0524c-0.139 0.0288-0.808 0.278-1.49 0.553-3.41 1.39-4.29 1.76-4.32 1.86l-0.033 0.102 0.222-0.0577c0.122-0.0317 1.16-0.44 2.31-0.908zm28 0.112c-0.567-2.12-2.1-3.7-4.07-4.22l-0.668-0.173-0.943 0.046c-2.42 0.118-5.25 1.77-6.84 3.99l-0.357 0.497 0.733-0.785c4.66-4.99 10.4-4.55 12.1 0.927 0.173 0.551 0.234 0.317 0.0732-0.282zm-20.5-0.943c0.259-0.094 1.09-0.396 1.85-0.672 2.6-0.948 2.95-1.07 3.14-1.08l0.196-0.0108v-0.325l-0.157 0.0276c-0.0864 0.0152-0.528 0.167-0.982 0.337s-1.6 0.592-2.55 0.937c-2.18 0.792-2.26 0.827-2.2 0.935 0.0291 0.0486 0.0935 0.0727 0.143 0.0534 0.0496-0.0193 0.302-0.112 0.562-0.206zm22.3-1.64c0.403-0.0908 1.12-0.254 1.6-0.363 2.39-0.549 3.39-0.76 3.53-0.746 0.0917 9e-3 0.166-0.0418 0.182-0.126 0.0374-0.187-0.135-0.184-0.948 0.0178-0.654 0.162-2.35 0.547-4.14 0.939-1.19 0.261-1.18 0.257-1.18 0.361 0 0.117 0.122 0.107 0.956-0.0813zm10.4-0.407c0.907-0.137 2.08-0.323 2.62-0.413 0.532-0.0896 1.06-0.151 1.18-0.137l0.21 0.0255 0.0269-0.142c0.0179-0.0949-0.0223-0.142-0.121-0.142-0.386 0-5.88 0.865-6.01 0.946-0.129 0.0822 0.0341 0.184 0.238 0.149 0.117-0.0202 0.955-0.149 1.86-0.286zm-55.8-5.31c-5.22-3.15-6.96-4.22-7.2-4.41l-0.221-0.176 1-1.04c0.551-0.574 1-1.07 1-1.1 0-0.03-0.769-0.739-1.71-1.57-0.94-0.836-1.71-1.58-1.71-1.64 0-0.176 4.53-3.61 4.62-3.5 0.0154 0.0187 0.709 1.26 1.54 2.75 0.833 1.5 1.63 2.92 1.77 3.17 2.08 3.59 5.14 9.05 5.12 9.11-0.0146 0.0453-0.482-0.297-1.04-0.761-1.92-1.6-2.24-1.86-2.29-1.86-0.0276 0 0.528 0.623 1.24 1.39s1.33 1.46 1.39 1.54l0.108 0.158h-0.11c-0.0607 0-1.65-0.928-3.52-2.06zm52.9-4.16c0-0.0468 0.336-0.665 0.746-1.37 0.674-1.16 0.802-1.41 0.72-1.41-0.0259 0-1.17 1.41-1.74 2.13-0.388 0.498-0.464 0.487-0.285-0.0406 0.224-0.66 4.2-11.4 5.99-16.2 0.301-0.804 0.231-0.786 1.26-0.321 2.33 1.05 4.3 1.99 4.3 2.05 0 0.0343-0.442 0.632-0.982 1.33-1.17 1.51-1.15 1.36-0.236 1.81 1 0.49 1.18 0.143-1.69 3.24-0.456 0.491-2.33 2.56-4.17 4.59-3.51 3.88-3.92 4.31-3.92 4.17z" fill="#f30d04"/><path d="m65.6 184c-3.16-2.1-2.91-1.75-2-2.79l0.674-0.771 0.132 0.075c0.0724 0.0413 0.36 0.315 0.64 0.609s0.565 0.534 0.634 0.534c0.0689 0 0.939-0.941 1.93-2.09 3.84-4.44 5.03-5.78 5.52-6.2 0.281-0.24 1.08-0.931 1.77-1.54 1.54-1.35 1.53-1.34 1.53-1.24 0 0.0811-0.234 0.418-2.32 3.35-0.525 0.737-2.06 2.95-3.42 4.91s-2.8 4.06-3.21 4.66c-0.91 1.32-0.711 1.27-1.89 0.485zm30.3-1.19c-0.0223-0.0782-0.256-0.928-0.519-1.89-1.57-5.74-3.42-9.62-4.93-10.4l-0.28-0.137-0.408 0.0435c-1.64 0.174-5.22 3.29-10.3 8.97-1.61 1.79-1.8 1.98-1.8 1.8 0-0.0556 0.175-0.944 0.39-1.97 1.82-8.76 1.39-11.4-2-12.2l-0.691-0.17-0.177 0.148c-0.0974 0.0815-0.419 0.351-0.714 0.6-1.69 1.42-3.26 2.09-5.1 2.17l-1.03 0.043-0.59-0.136c-0.99-0.228-2.09-0.856-2.9-1.65l-0.289-0.286-0.338 0.0558c-0.477 0.0789-4.93 1.62-6.69 2.32-0.811 0.321-1.53 0.572-1.6 0.558-0.0869-0.0182 0.316-0.616 1.36-2.02 2.35-3.16 4.5-6.33 4.5-6.62 0-0.0705-0.0855-0.482-0.19-0.914-0.515-2.13-0.686-3.41-0.744-5.58l-0.048-1.79-0.746-0.381c-1.75-0.891-3.89-1.67-7.99-2.91-0.771-0.232-0.752-0.252 0.707-0.734 3.45-1.14 6.42-2.32 8.3-3.3 1.81-0.939 1.98-1.07 2.29-1.63 0.141-0.26 0.49-0.814 0.775-1.23 0.285-0.418 0.58-0.856 0.656-0.974l0.138-0.215-0.0483-0.365c-0.299-2.26-2.7-5.93-7.53-11.5-1.02-1.18-1.02-1.17-0.971-1.22 0.0235-0.0243 0.321 0.0701 0.661 0.21 6.11 2.51 10.5 3.84 13.2 3.95l1.1 0.0467 0.511-0.136c2.3-0.609 2.37-4.06 0.266-11.9-0.629-2.32-0.611-2.25-0.526-2.25 0.0389 0 0.37 0.262 0.735 0.582 5.05 4.42 8.82 6.88 11 7.18l0.402 0.0551 0.346-0.137c1.81-0.716 3.22-6.38 3.46-13.9 0.0253-0.804 0.0657-1.73 0.0899-2.05l0.044-0.593 0.1 0.086c0.0551 0.0473 0.516 0.675 1.02 1.39 4.99 7.06 9.37 11.2 12.5 11.8l0.485 0.0987 0.574-0.132c2.6-0.598 6.71-4.36 11.6-10.6 0.782-1 1.46-1.82 1.51-1.82 0.0606 0 0.0703 0.283 0.0327 0.954-0.0294 0.525-0.0863 1.54-0.126 2.25-0.385 6.86 0.606 12 2.5 13l0.372 0.189 0.707-4e-3c2.6-0.0144 7.12-2.1 16.4-7.53 0.497-0.292 0.914-0.5 0.927-0.463 0.0128 0.0372-0.466 1.09-1.06 2.33-1.31 2.72-2.01 4.41-2.58 6.19-0.56 1.75-0.565 1.72 0.225 1.72 0.22 0 1.37 0.0923 2.57 0.205l2.17 0.205 0.196 0.148c0.108 0.0816 0.286 0.309 0.397 0.505l0.201 0.357 1.13 0.229c2.28 0.46 5.45 1.2 5.61 1.3 0.25 0.17 0.676 1.13 0.684 1.54 8e-3 0.431 0.0316 0.388-1.27 2.37-3.16 4.83-3.81 5.92-3.6 6.01 0.16 0.0603 3.71 0.51 4.77 0.605 1.74 0.155 1.72 0.118 0.412 0.943-5.23 3.29-7.95 5.87-8.09 7.69-0.123 1.55 1.71 4.23 6.25 9.14 0.755 0.817 1.35 1.5 1.33 1.53-0.0233 0.0241-0.744-0.122-1.6-0.324-2.41-0.569-4.3-0.928-6.31-1.2l-1.85-0.25-3.53-0.0206-0.393 0.317c-0.497 0.401-1.21 0.739-1.79 0.851-0.576 0.11-0.588 0.119-0.782 0.568l-0.162 0.375-0.0352 0.915c-0.0241 0.626 8e-3 1.21 0.1 1.84 0.176 1.2 0.214 1.17-0.769 0.579-1.08-0.65-0.996-0.541-1.12-1.52l-0.108-0.84 0.0751-0.779c0.0413-0.428 0.151-0.985 0.245-1.24l0.17-0.458-0.109-0.151c-0.0597-0.0832-0.246-0.341-0.413-0.573l-0.304-0.422-0.128 0.109c-0.0702 0.06-0.262 0.226-0.426 0.369-1.61 1.41-3.97 1.2-4.86-0.435-0.254-0.466-0.3-0.495-0.549-0.358-0.0849 0.047-0.675 0.176-1.31 0.286s-1.96 0.347-2.94 0.527l-1.78 0.326-0.232-0.124c-0.27-0.144-0.356-0.36-0.29-0.725l0.0473-0.26-0.474-0.773 0.865-3.62c1.01-4.22 0.946-3.77 0.531-3.76-0.493 2e-3 -0.501 0.0155-0.837 1.46-0.45 1.94-1.34 6.11-1.34 6.28 0 0.266-0.411 0.593-0.868 0.69-0.236 0.0501-1.58 0.354-2.99 0.674l-2.57 0.583-0.408-0.276v-0.28c0-0.318-0.341-1.18-0.467-1.18-0.0456 0-0.411 0.235-0.813 0.523-1.42 1.02-2.72 1.56-4.24 1.75l-0.763 0.0993-0.642-0.097c-2.48-0.374-4.19-1.94-5.29-4.84-0.295-0.775-0.329-0.773-0.613 0.0283-2.8 7.9-11.2 10.1-13.8 3.67-0.321-0.806-0.365-0.84-0.526-0.403-0.27 0.735-1.45 3.07-1.91 3.79-0.537 0.835-0.538 0.855-0.0164 0.988 0.206 0.0527 0.67 0.243 1.03 0.423l0.658 0.327 0.53 0.548c1.5 1.55 1.76 4.27 0.829 8.73-0.285 1.36-0.424 1.43 1.52-0.788 3.82-4.37 6.64-6.46 8.47-6.28 2.16 0.208 4.34 3.7 5.83 9.35 0.0947 0.357 0.201 0.681 0.237 0.72 0.0354 0.0387 0.437-0.692 0.892-1.62 1.63-3.34 2.97-5.42 4.48-6.98l0.874-0.9 1.22-0.623 0.606-0.0354c2.02-0.118 4.93 1.8 8.81 5.8 0.924 0.954 1.7 1.72 1.72 1.69 0.0221-0.0228-4e-3 -0.417-0.0571-0.876-0.0534-0.459-0.116-1.55-0.139-2.42l-0.0423-1.59 0.137-1.05c0.48-3.7 1.88-5.18 4.38-4.63 1.95 0.426 6.06 2.93 9.46 5.76 0.301 0.251 0.29 0.138-0.104-1.04l-0.373-1.12-1.12-1.35c-1.38-1.68-1.39-1.77-0.0354-0.634 0.339 0.286 0.687 0.532 0.773 0.547 0.15 0.0264 2.34 2.31 6.89 7.16 1.16 1.24 2.18 2.29 2.26 2.34l0.151 0.0834 0.213-0.228c0.117-0.125 0.47-0.482 0.785-0.792l0.572-0.564 0.783 0.806c0.431 0.443 0.783 0.834 0.783 0.868 0 0.123-3.68 2.6-3.8 2.55-0.114-0.045-2.73-3.49-4.6-6.04-1.29-1.77-1.3-1.77-0.796-0.226 0.477 1.47 0.579 1.46-1.27 0.118-5.27-3.82-9.33-6.1-11.1-6.23l-0.564-0.0402-0.281 0.18c-0.487 0.311-0.891 1.19-1.16 2.52l-0.154 0.771-0.0455 1.85c-0.0465 1.89 0.0196 3.3 0.28 5.97 0.0749 0.768 0.116 1.43 0.0905 1.47-0.0251 0.0421-0.999-0.914-2.16-2.12-4.98-5.18-8.94-7.98-10.4-7.37-1.87 0.766-4.85 5.25-7.71 11.6-0.443 0.983-0.552 1.13-0.631 0.853zm-35.4-15.2c0.432-0.194 1.24-0.53 1.81-0.747 0.562-0.217 1.06-0.426 1.11-0.463l0.0903-0.0686-0.473-0.951c-0.581-1.17-0.479-1.15-1.2-0.226-0.529 0.68-1.56 1.92-2.15 2.58-0.279 0.314-0.116 0.289 0.814-0.129zm9.8-0.571c3.98-1.4 7.36-6.44 8.41-12.6 0.282-1.64 0.324-2.26 0.32-4.67l-0.0047-2.44-0.172-0.966c-0.78-4.38-3.07-7.11-6.16-7.32l-0.728-0.0515-0.742 0.134c-4.64 0.836-8.49 6.11-9.52 13.1l-0.173 1.17 0.0012 1.75c5e-3 7.28 2.97 12.3 7.21 12.1l0.943-0.0279zm-1.19-6.47c-1.26-0.395-2.06-1.9-2.29-4.3l-0.0883-0.927 0.083-0.934c0.706-7.94 6.36-10.4 7.08-3.14 0.485 4.94-2.18 10.1-4.79 9.3zm1.14-0.739c1.59-0.704 2.87-3.57 2.98-6.72l0.0413-1.1-0.118-0.701c-0.637-3.77-3.73-1.38-4.59 3.54-0.333 1.91-0.0231 4.76 0.543 4.99 0.26 0.108 0.883 0.101 1.14-0.0121zm15.2 2.21c4.2-0.956 7.13-5.74 7.58-12.4 0.0877-1.31 0.331-3.5 0.468-4.24 0.0418-0.223 0.164-0.826 0.271-1.34 0.107-0.514 0.271-1.48 0.363-2.15 0.0923-0.67 0.27-1.88 0.396-2.68s0.335-2.15 0.466-2.99c0.131-0.841 0.238-1.6 0.238-1.69v-0.162l-0.177 0.0554c-0.245 0.0768-4.26 1.53-5.11 1.85l-0.69 0.259-0.0334 0.162c-0.0183 0.0893-0.125 1.7-0.236 3.57-0.443 7.44-0.801 10.9-1.27 12.4-0.38 1.2-1.1 2.01-1.88 2.14l-0.345 0.0534-0.374-0.192c-0.476-0.244-0.765-0.719-0.933-1.53l-0.126-0.607 0.0453-1.5c0.0704-2.33 0.676-7.26 1.63-13.3 0.176-1.11 0.299-2.04 0.273-2.06-0.0592-0.0612-5.91 2.32-6.02 2.45-0.079 0.0984-0.143 0.95-0.394 5.21l-0.158 2.69 0.12 0.846c0.266 1.87 0.228 4.73-0.0888 6.75-0.0648 0.413-0.136 1.1-0.159 1.52l-0.0415 0.771 0.193 1.06c0.717 3.92 2.85 5.71 5.99 4.99zm56.3-1.69c-0.0144-0.0398-0.503-0.533-1.09-1.1-2.74-2.64-4.23-4.83-4.56-6.7l-0.0899-0.513 0.0903-0.554c0.331-2.03 2.54-4.32 6.21-6.45 0.436-0.253 0.763-0.487 0.727-0.52-0.0872-0.0787-3.14-0.274-3.25-0.207-0.161 0.103-3.16 5.22-4.83 8.24-0.506 0.916-0.988 1.74-1.07 1.83l-0.153 0.162-0.485 7e-3c-0.274 4e-3 -0.497 0.0458-0.513 0.096-0.0425 0.132 0.197 0.57 0.361 0.661 0.222 0.123 0.618 0.968 0.715 1.52 0.0847 0.486 0.0766 0.603-0.121 1.75l-0.0522 0.303 0.108 0.0334c0.0595 0.0184 0.656 0.0915 1.33 0.162 1.66 0.176 4.67 0.793 5.97 1.22 0.407 0.135 0.732 0.161 0.694 0.0555zm-40.6-0.943c1.82-0.512 4.03-2.21 5.6-4.29l0.478-0.634-0.104-0.3c-0.265-0.762-1.58-3.72-1.68-3.79-0.0381-0.0244-0.377 0.303-0.754 0.727-1.14 1.29-2.23 1.92-3.3 1.94l-0.55 7e-3 -0.365-0.173c-2.51-1.19-2.03-7.04 0.868-10.5 1.53-1.82 3.58-1.95 4.57-0.291 0.23 0.384 0.217 0.391 1.36-0.771 0.972-0.988 1.87-1.83 2.89-2.72 0.515-0.445 0.52-0.468 0.261-1.26-2.9-8.81-14.4-3.09-16.3 8.06-1.06 6.45-0.454 10.2 2.02 12.7l0.658 0.653 0.582 0.294c0.32 0.162 0.777 0.35 1.01 0.417l0.432 0.123 0.903-0.0353c0.497-0.0194 1.12-0.0951 1.37-0.168zm29-0.0761c1.93-0.943 2.72-3.64 1.42-4.83-1.22-1.11-3.25-0.335-4.13 1.58l-0.258 0.564v1.64l0.236 0.392c0.561 0.932 1.64 1.19 2.73 0.656zm-5.68-0.305c0.899-0.456 1.65-1.34 2.01-2.39l0.185-0.526-2e-3 -0.585c-7e-3 -2.28-2.62-2.84-4.29-0.925-1.32 1.52-1.26 3.74 0.125 4.5l0.353 0.195 1.18-0.0532zm-16.3-0.423c0.67-0.158 1.67-0.378 2.23-0.49 1.24-0.248 1.09-0.0754 1.45-1.72 0.887-4.07 1.46-6.55 1.54-6.66 0.126-0.179 3.31-0.673 3.44-0.535 0.0376 0.0389-0.162 1.04-0.451 2.25-1.79 7.54-1.7 7.1-1.51 7.1 0.054-1.4e-4 0.469-0.0749 0.923-0.166 0.454-0.0912 1.5-0.275 2.32-0.407 1.82-0.295 1.74-0.27 1.81-0.587 0.9-4.5 3.07-12.3 5.62-20.1 0.602-1.85 1.1-3.44 1.1-3.52v-0.146l-0.216 0.0473c-0.119 0.026-0.941 0.155-1.83 0.287-2.65 0.394-4.03 0.647-4.14 0.755-0.0525 0.0558-0.329 1.09-0.614 2.29-1.15 4.88-1.64 6.83-1.72 6.91-0.0995 0.107-3.32 0.491-3.4 0.405-0.0969-0.1 1.52-6.23 2.53-9.61 0.403-1.34 0.443-1.3-0.92-0.97-0.446 0.108-1.75 0.404-2.89 0.659-2.42 0.538-2.23 0.422-2.4 1.47l-0.132 0.825 0.206 0.806c0.278 1.09 0.282 1.07-0.266 1.52-0.259 0.211-0.471 0.396-0.471 0.413 0 0.0165-0.0549 0.297-0.122 0.624-0.164 0.799-1.46 7.35-1.84 9.32-0.17 0.871-0.415 2.18-0.545 2.92l-0.237 1.34 0.342 1.1-0.314 0.389c-0.434 0.536-0.391 0.412-0.737 2.14-0.316 1.58-0.325 1.74-0.0909 1.67 0.072-0.0216 0.679-0.168 1.35-0.326zm19.7-4.34c0.19-0.173 0.54-0.42 0.778-0.548 0.481-0.26 0.506-0.338 0.254-0.794-0.226-0.408-0.282-0.394-0.494 0.126-0.0965 0.236-0.269 0.512-0.384 0.615l-0.209 0.186h-0.777v0.13c0 0.544 0.399 0.681 0.833 0.286zm-41.8-0.213c1.2-0.64 1.55-2.97 2.28-15.1 0.0902-1.5 0.188-2.75 0.218-2.78 0.112-0.12 7.18-2.66 7.4-2.66 0.183 0 0.249 0.291 0.227 1.01l-0.0173 0.575 0.268 0.01c0.433 0.016 0.451 0.0231 0.503 0.193 0.0274 0.0892-0.0274 0.584-0.122 1.1-0.188 1.03-0.175 1.14 0.0964 0.801 2.2-2.71 4.3-4.14 6.8-4.63l0.689-0.134 0.903 0.0433c1.49 0.0717 2.61 0.515 3.67 1.46 0.526 0.468 1.27 1.36 1.27 1.53 0 0.352 0.237-0.021 0.314-0.496l0.0926-0.567 0.325-0.0905c0.179-0.0498 0.785-0.194 1.35-0.319 0.563-0.126 1.52-0.344 2.12-0.485 0.605-0.141 1.42-0.325 1.81-0.409 0.389-0.0844 1.04-0.228 1.45-0.319 0.407-0.0913 0.77-0.166 0.805-0.166 0.116 0 0.0675 0.534-0.0926 1.02-0.0864 0.26-0.157 0.542-0.157 0.628v0.156l0.255-0.063c0.14-0.0346 0.361-0.065 0.491-0.0674l0.236-4e-3 0.0241 0.215c0.0133 0.118-0.241 1.12-0.565 2.23-0.69 2.36-1.85 6.52-1.85 6.62 0 0.102 0.662 0.0833 0.763-0.022 0.0483-0.05 0.574-2.12 1.17-4.61 0.594-2.48 1.11-4.55 1.14-4.59 0.121-0.142 7.51-1.32 7.73-1.23 0.158 0.0626 0.135 0.298-0.0873 0.909-0.108 0.297-0.196 0.593-0.196 0.659v0.12l0.412-0.0565c0.546-0.0748 0.468 0.0646 1.16-2.08 0.764-2.38 0.817-2.51 1.09-2.68l0.227-0.134 0.133-0.475c0.356-1.28 1.5-3.94 2.33-5.41 0.438-0.779 0.38-0.786-0.722-0.0872-7.06 4.48-12 6.56-14.3 6.05-2.83-0.628-4.33-4.81-4.16-11.6 0.0251-1.06 0.018-1.93-0.0159-1.93s-0.377 0.41-0.762 0.912c-3.51 4.57-7.12 7.82-9.69 8.72l-0.432 0.152-2.04-8e-3 -0.589-0.228c-3.03-1.17-7.22-5.11-10.5-9.82-0.59-0.86-0.577-0.883-0.687 1.18-0.447 8.41-2.45 12.6-5.76 12.2-2.02-0.296-4.88-2.05-8.1-4.97-0.977-0.887-0.951-0.915-0.532 0.589 2.95 10.6-0.832 13.2-12.2 8.37-0.751-0.319-1.38-0.561-1.41-0.538-0.0222 0.023 0.38 0.504 0.894 1.07 2.24 2.46 3.81 4.7 4.48 6.39 0.26 0.657 0.288 0.661 0.959 0.134 0.655-0.514 2.03-1.21 2.96-1.51l0.707-0.224 2.59 2e-3 0.628 0.217c1.68 0.58 3.06 1.87 4.25 3.98 0.341 0.603 0.505 0.695 0.507 0.286 7.29e-4 -0.145 0.0694-1.36 0.153-2.69l0.151-2.43 0.103-0.099c0.11-0.106 2.78-1.22 5.72-2.39l1.81-0.717 0.0798 0.0994c0.0546 0.068 0.04 0.321-0.0462 0.802-0.0693 0.386-0.107 0.755-0.0829 0.818l0.0431 0.116 0.796-0.263 0.189 0.195-0.168 1.03c-0.0923 0.569-0.328 2-0.524 3.19-1.03 6.22-1.73 12.5-1.49 13.4 0.0558 0.215 0.117 0.224 0.422 0.061zm37.1-1.1c0.0489-0.486-0.195-0.523-0.271-0.0417l-0.0475 0.303 0.149-0.0292c0.0913-0.0179 0.157-0.108 0.169-0.232zm-20.7-0.88c0.642-0.327 1.67-1.32 2.41-2.32 0.281-0.381 0.546-0.694 0.589-0.696 0.0432-2e-3 0.411 0.691 0.818 1.54 0.407 0.848 0.767 1.54 0.8 1.54 0.11 0 0.134-0.103 0.696-3.01 0.306-1.58 0.682-3.49 0.835-4.24 0.153-0.748 0.266-1.44 0.252-1.54l-0.0269-0.184-1.18 1.2c-0.65 0.659-1.2 1.2-1.23 1.2-0.0274 0-0.214-0.329-0.416-0.732-0.575-1.15-1.12-1.52-1.92-1.31-1.9 0.52-3.96 4.65-3.74 7.52 0.0935 1.22 0.199 1.35 1.07 1.32l0.516-0.0212zm30.3-0.0731c0.0655-0.0782 0.254-0.398 0.419-0.711 0.652-1.24 3.2-5.65 4.58-7.92 1.63-2.69 2.16-3.54 4.32-6.88 1.1-1.71 1.98-3.13 1.96-3.16-0.125-0.129-5.53-1.27-5.84-1.23l-0.204 0.0254-0.976 2.19c-1.79 4.03-2.76 6.3-5.33 12.5-0.971 2.35-1.82 4.4-1.89 4.55-0.168 0.381-0.144 0.392 1.22 0.565 1.58 0.199 1.6 0.2 1.74 0.0325zm-71.7-0.893c0.0716-0.346 0.237-1.05 0.367-1.56 0.323-1.27 0.328-1.3 0.236-1.3-0.0447 0-0.252 0.0763-0.461 0.17-0.635 0.284-2.74 1.01-4.01 1.37-0.659 0.191-1.2 0.376-1.2 0.412 0 0.0736-0.0166 0.0684 1.14 0.358 0.478 0.119 1.47 0.429 2.2 0.688 0.731 0.26 1.39 0.476 1.46 0.482l0.132 0.01zm66.3-0.711c1.87-4.34 5.53-12 7.98-16.6 0.89-1.7 1.38-2.71 1.33-2.76-0.0792-0.0855-3.4-0.399-5.24-0.496l-1.13-0.059-0.0698 0.114c-0.245 0.401-6.43 20.3-6.43 20.7 0 0.0359 0.714 0.0555 1.59 0.0434l1.59-0.022zm-60.6-21.2c-5.22-3.15-6.96-4.22-7.2-4.41l-0.221-0.176 1.02-1.06c0.561-0.584 1.04-1.06 1.07-1.06 0.0251 0 1.21 1.05 2.63 2.34l2.59 2.34 1.8 1.93c1.86 1.98 2.01 2.16 1.83 2.16-0.0576 0-1.64-0.928-3.52-2.06zm52.9-4.16c0-0.295 2.11-3.71 2.94-4.78 0.351-0.447 1.31-1.67 2.12-2.72 2.62-3.38 3.82-4.87 3.88-4.87 0.183 0 1.58 0.757 1.58 0.857 0 0.109-0.431 0.597-2.44 2.76-0.456 0.491-2.33 2.56-4.17 4.59-3.52 3.88-3.92 4.31-3.92 4.17z" fill="#0e0a06"/></svg>
