<svg width="210mm" height="297mm" version="1.1" viewBox="0 0 210 297" xmlns="http://www.w3.org/2000/svg"><path d="m172 189c-10.6-1.88-32.1-5.83-38.7-7.13-1.05-0.206-2.79-0.545-3.87-0.754-7.69-1.49-17.6-3.43-33.1-6.5-5.73-1.13-13.3-2.63-16.8-3.33-7.22-1.42-7.32-1.44-7.17-1.6 0.143-0.143 2.04 0.093 12.5 1.55 9.92 1.38 21.3 3.18 31 4.9 12.4 2.2 23 4.4 37.7 7.84 1.02 0.239 2.69 0.63 3.71 0.869 8.18 1.92 17 4.16 17.2 4.39 0.174 0.166-0.55 0.0956-2.45-0.24zm-1.96-11.3c-3.25-0.337-33.2-3.68-38.9-4.34-1.08-0.126-3.04-0.352-4.36-0.502-21.8-2.49-49.7-6.38-73.6-10.2-6.01-0.973-6.05-1.15-0.149-0.646 3.23 0.278 9.08 0.848 12.9 1.26 1.14 0.122 3.74 0.391 5.78 0.597 2.04 0.207 4.59 0.474 5.67 0.594 1.08 0.12 4.44 0.49 7.47 0.823 5.54 0.609 10.7 1.21 17.4 2.01 1.98 0.238 4.65 0.559 5.94 0.714 3.33 0.4 12.5 1.54 14.4 1.79 0.87 0.115 3.1 0.411 4.96 0.658 5.89 0.78 11.1 1.52 18.8 2.67 10.7 1.6 26.9 4.43 27.2 4.74 0.17 0.17-1.16 0.125-3.53-0.12zm-18.3-9.04c0-0.144 0.0936-0.589 0.208-0.989 0.114-0.4 0.18-0.756 0.145-0.79-0.137-0.137-0.899-0.0625-0.899 0.0875 0 0.384-0.341 0.44-5.22 0.849-5.52 0.464-6.12 0.49-6.12 0.264 0-0.0846 0.0975-0.465 0.217-0.845 0.332-1.06 0.362-1.02-0.735-1.01-0.902 6e-3 -0.995 0.0295-1.72 0.434-4.73 2.65-10.4 1.87-13-1.8-0.852-1.19-0.862-1.2-1.64-1.33-0.993-0.169-1.39-0.0635-2.2 0.584-5.65 4.53-12.2 3.26-14.2-2.72-0.455-1.42-0.89-1.43-2.07-0.0756-4.79 5.51-11.9 5.95-14.3 0.871-0.231-0.48-0.437-0.895-0.458-0.924-0.0682-0.0911-0.211 0.218-0.637 1.38-0.23 0.627-0.493 1.18-0.585 1.22-0.164 0.0823-5.32-0.209-7.47-0.423-1.01-0.0999-3.31-0.283-6.91-0.55-1.74-0.128-1.63-0.057-1.4-0.944 0.285-1.09 0.154-1.14-1.24-0.481-3.82 1.79-8.17 1.15-11.7-1.71-1.5-1.22-1.55-1.29-1.2-1.77 0.271-0.367 0.271-0.367-0.388-1.05-0.768-0.8-0.795-0.654 0.376-2.06 0.999-1.2 1.26-1.09-2.99-1.19-7.05-0.159-9.8-0.329-8.76-0.543 0.48-0.099 6.31-0.609 13.1-1.14 1.88-0.149 2.35-0.789 1.61-2.2-0.734-1.41-0.549-3.02 0.527-4.6 0.554-0.811 0.578-0.779-0.527-0.699-0.525 0.0381-2.13 0.144-3.57 0.236-1.44 0.0916-3.94 0.262-5.56 0.379-8.76 0.631-8.12 0.44 6.98-2.07 2.88-0.479 5.33-0.893 5.45-0.92 0.12-0.0264 0.513-0.265 0.872-0.531 2.64-1.95 6.61-3.02 8.94-2.41 0.457 0.119 0.663 0.133 0.715 0.047 0.0408-0.066 0.584-0.268 1.21-0.449 0.624-0.181 1.28-0.421 1.47-0.534 0.184-0.112 0.788-0.278 1.34-0.368 0.555-0.0898 1.58-0.315 2.27-0.5 0.772-0.206 1.38-0.311 1.56-0.27 0.255 0.056 3.3-0.638 5.01-1.14 0.209-0.0617 0.605-0.112 0.879-0.112 0.281 0 1.87-0.373 3.65-0.857 4.36-1.18 4.78-1.28 5.09-1.14 0.387 0.176 0.842 0.0429 1.39-0.407 3.68-3.04 7.63-3.52 10.1-1.22 0.43 0.402 1.05 0.965 1.38 1.25s0.741 0.74 0.911 1.01c0.391 0.619 0.315 0.652 1.1-0.476 0.368-0.531 0.917-1.27 1.22-1.65 0.769-0.958 0.814-0.917-1.11-1.04-1.1-0.0717-1.43-0.159-1.18-0.314 0.0854-0.0528 3.67-0.598 3.96-0.603 0.0465-8.1e-4 0.394-0.29 0.773-0.642 4.52-4.2 9.52-5.11 12.5-2.26 1.09 1.04 1.43 1.2 2.39 1.12 1.79-0.152 1.68-0.101 2.93-1.28 5.03-4.71 11.3-6.23 14.1-3.42 0.893 0.893 0.994 0.869 1.3-0.321 0.0921-0.353 0.209-0.683 0.259-0.733 0.194-0.194 11-3.36 11.1-3.25 0.0688 0.0688 7e-3 0.508-0.175 1.25-0.32 1.3-0.356 1.24 0.66 1.03 0.608-0.13 0.588-0.0962 0.941-1.6 0.238-1.01-0.914-0.57 8.37-3.23 5.97-1.71 5.47-1.71 4.97-0.0171-0.41 1.39-0.448 1.34 0.759 1.06 1.51-0.354 1.48-0.378 1.12 0.844-0.117 0.399-0.685 2.42-1.26 4.49-0.577 2.07-1.21 4.35-1.42 5.07-0.203 0.72-0.814 2.93-1.36 4.91-0.545 1.98-1.11 4.01-1.25 4.52-0.883 3.11-2.81 10.1-2.82 10.2-0.0139 0.175 0.0734 0.18 7.32 0.414 4.92 0.159 4.37 0.284-4.99 1.12-1.53 0.136-2.72 0.291-2.79 0.362-0.312 0.32-3.08 10.9-2.85 10.9 0.394 5.8e-4 11 1.29 11.2 1.37 0.742 0.23-2.59 0.372-8.75 0.372-2.28 0-3.05 0.0332-3.13 0.136-0.062 0.075-0.438 1.34-0.836 2.81-0.879 3.25-0.263 2.83-4.49 3-8.36 0.332-8.43 0.333-8.43 0.0384zm-28.6-5.82c0.0764-0.533-0.277-0.687-0.632-0.276-0.431 0.499-0.413 0.568 0.137 0.528 0.367-0.0266 0.47-0.079 0.495-0.252zm8.85-14.1c0-0.143-0.958-1.29-1.08-1.29-0.0845 0-0.451 0.949-0.45 1.17 5.1e-4 0.122 0.347 0.191 1.17 0.234 0.204 0.0105 0.354-0.0346 0.354-0.106zm-77.6-10.5c-0.203-0.328 21.5-5.73 35.2-8.78 9.33-2.07 20.1-4.22 30.7-6.16 4.41-0.802 6.81-1.22 11.9-2.08 2.16-0.366 4.93-0.837 6.16-1.05 10.8-1.84 23.4-3.78 27.7-4.25 1.09-0.12 0.819 0.12-0.491 0.428-5.97 1.41-17.5 3.82-32.8 6.87-9.91 1.98-14.9 2.96-25.6 5.03-2.28 0.441-5.42 1.05-6.98 1.36-1.56 0.305-3.45 0.672-4.2 0.816-0.75 0.144-2.52 0.489-3.93 0.766-1.41 0.277-5.24 1.02-8.5 1.65-3.27 0.628-7.68 1.48-9.81 1.9-8.57 1.67-13.9 2.68-16.7 3.16-2.67 0.464-2.59 0.454-2.66 0.339zm27.1-11.3c0-0.144 0.31-0.233 4.58-1.32 11.1-2.81 27.5-6.6 39.1-8.98 23.1-4.77 41.9-8.46 48.7-9.55 0.78-0.125 1.55-0.249 1.72-0.277 0.591-0.0995 0.286 0.16-0.436 0.371-2.92 0.852-21.5 5.49-31.2 7.79-6.58 1.56-15.2 3.44-20.7 4.52-0.899 0.178-2.64 0.521-3.87 0.764-2.99 0.589-9.77 1.84-16.9 3.12-3.21 0.576-7.16 1.29-8.78 1.59-4.67 0.857-5.18 0.947-8.23 1.45-3.76 0.624-4.03 0.659-4.03 0.516z" fill="#f8d214"/><path d="m169 188c-0.0266-0.0265-0.807-0.176-1.74-0.333-1.49-0.251-7.79-1.39-12-2.17-0.81-0.15-2.58-0.474-3.93-0.719-2.35-0.428-4.93-0.907-11.2-2.08-2.78-0.518-5.41-1.03-11.3-2.17-1.5-0.293-4.52-0.881-6.71-1.31-5.79-1.13-19.9-3.91-31-6.11-3-0.594-6.11-1.21-6.92-1.37-0.81-0.157-2.55-0.503-3.87-0.767-1.32-0.265-2.44-0.481-2.5-0.482-0.055-1.1e-4 -0.0724-0.0277-0.0388-0.0613 0.066-0.066 1.2 0.0863 9.46 1.27 2.97 0.427 6.01 0.864 6.76 0.972s2.03 0.3 2.83 0.427c0.81 0.127 2.11 0.329 2.89 0.449 6.81 1.04 15.4 2.52 24.3 4.18 3.2 0.598 9.89 1.96 14 2.83 0.989 0.213 2.39 0.514 3.11 0.669 0.72 0.155 2.39 0.529 3.71 0.832s3.33 0.764 4.47 1.02c5.68 1.3 11.6 2.72 17.4 4.16 2.97 0.74 3.17 0.8 2.71 0.8-0.15 0-0.294-0.0217-0.321-0.0483zm-1.3-11.1c-0.45-0.0485-1.53-0.164-2.4-0.256-0.87-0.0922-2.88-0.313-4.47-0.491-1.59-0.178-4.26-0.475-5.94-0.661-1.68-0.186-4.55-0.508-6.38-0.717-3.34-0.38-8.41-0.95-10.1-1.14-0.51-0.056-2.64-0.297-4.74-0.537-2.1-0.239-4.7-0.535-5.78-0.658-5-0.567-23.4-2.85-29.1-3.61-13.4-1.78-45.6-6.61-45-6.74 0.113-0.0219 0.751 0.0136 1.42 0.079s2.73 0.266 4.59 0.446 4.04 0.4 4.85 0.49c0.81 0.0895 3.16 0.335 5.23 0.546 4.65 0.474 5.6 0.574 7.25 0.765 0.72 0.0832 1.6 0.18 1.96 0.215 0.968 0.0944 10.2 1.12 11.8 1.31 0.756 0.0894 1.84 0.213 2.4 0.274 0.563 0.0612 1.61 0.184 2.33 0.273 1.84 0.228 5.48 0.663 8.23 0.986 1.29 0.151 2.69 0.322 3.11 0.38 0.42 0.0582 1.84 0.231 3.16 0.385 1.32 0.154 2.94 0.351 3.6 0.439 0.66 0.0879 2.57 0.329 4.25 0.535 2.91 0.358 5.9 0.742 8.5 1.09 0.66 0.0891 2.13 0.284 3.27 0.432 3.28 0.428 14.9 2.1 15.2 2.19 0.0899 0.0264 0.728 0.125 1.42 0.218 3.61 0.49 16.5 2.63 21.3 3.53 1.65 0.311 1.65 0.398 0 0.22zm-15.7-8.62c-5.1e-4 -0.0821 0.0817-0.472 0.183-0.866 0.268-1.05-0.906-1.74-1.33-0.783-0.0592 0.135-0.182 0.246-0.273 0.247-0.0907 8.1e-4 -2.47 0.196-5.28 0.434-5.83 0.493-5.3 0.538-4.99-0.418 0.385-1.19 0.365-1.23-0.719-1.13-0.577 0.0493-0.708 0.0274-0.829-0.138-0.135-0.184-0.203-0.161-1.08 0.368-4.7 2.84-10.3 2.08-13.1-1.76-0.269-0.375-0.617-0.801-0.774-0.947s-0.338-0.465-0.402-0.709c-0.291-1.1-0.629-1.18-1.34-0.32-0.278 0.338-0.713 0.75-0.967 0.916-0.254 0.166-0.731 0.528-1.06 0.805-4.72 3.97-11.4 2.57-13.2-2.77-0.597-1.77-1.24-1.97-2.26-0.724-4.67 5.76-11.9 6.32-14.3 1.11-0.676-1.47-0.735-1.45-1.48 0.597-0.207 0.569-0.412 1.07-0.456 1.12-0.0786 0.0786-4.19-0.14-6.61-0.351-3.24-0.283-5.08-0.43-6.9-0.554-2.22-0.151-2.13-0.103-1.83-0.962 0.307-0.87-0.258-1.09-1.46-0.561-4.04 1.77-8.18 1.23-11.6-1.52-1.33-1.08-1.38-1.14-1.15-1.54 0.27-0.471 0.256-0.508-0.474-1.24-0.662-0.668-0.662-0.668 0.327-1.84 0.973-1.15 1.07-1.31 0.908-1.4-0.045-0.0268-2.04-0.106-4.44-0.176-4.03-0.117-5.51-0.199-5.23-0.289 0.0885-0.029 3.11-0.282 7.63-0.638 3.56-0.281 3.46-0.258 4.07-0.966 0.532-0.619 0.569-0.942 0.173-1.52-0.914-1.34-0.777-2.99 0.398-4.78 0.662-1.01 0.639-1.07-0.376-1-0.368 0.0241-2.17 0.14-3.99 0.257-5.06 0.325-6.54 0.427-7.25 0.501-1.05 0.109-0.65-0.033 0.765-0.271 0.719-0.121 2.7-0.464 4.41-0.762s3.89-0.669 4.85-0.825c4.32-0.7 4.17-0.658 5.09-1.35 2.53-1.9 6.72-3 8.91-2.36 0.51 0.151 0.596 0.152 0.756 9e-3 0.0991-0.0892 0.818-0.344 1.6-0.566 0.78-0.222 1.47-0.448 1.54-0.502 0.068-0.0543 0.51-0.172 0.981-0.262 0.472-0.09 1.4-0.308 2.06-0.485 0.754-0.202 1.34-0.301 1.58-0.265 0.262 0.0388 1.22-0.162 3.07-0.641 1.54-0.398 2.73-0.657 2.79-0.602 0.0545 0.0545 1.28-0.23 2.87-0.662 4.8-1.31 5.53-1.48 5.82-1.32 0.393 0.21 0.925 0.0533 1.53-0.452 2.91-2.42 6.47-3.32 8.72-2.19 0.78 0.393 3.19 2.72 3.55 3.43 0.307 0.602 0.445 0.53 1.23-0.649 0.389-0.585 1.01-1.42 1.37-1.85 0.899-1.07 0.89-1.14-0.157-1.3-0.545-0.0795-0.545-0.0795 0.586-0.271 1.11-0.188 1.14-0.201 1.69-0.727 4.55-4.37 9.43-5.26 12.7-2.31 1.33 1.21 1.34 1.22 2.64 1.08 1.43-0.148 1.37-0.123 2.43-1.12 5.25-4.96 11.2-6.46 14.3-3.61 1.01 0.924 1.13 0.916 1.42-0.0897 0.321-1.12 0.252-1.07 1.97-1.58 5.24-1.56 7.86-2.35 8.43-2.54 0.826-0.27 0.818-0.288 0.475 1.01-0.339 1.28-0.339 1.28 0.331 1.28 1.12-0.0134 1.24-0.122 1.57-1.4 0.356-1.38 0.188-1.22 1.83-1.69 13-3.75 11.6-3.5 11.2-2.08-0.484 1.68-0.473 1.69 0.951 1.35 1.12-0.267 1.06-0.313 0.809 0.616-0.255 0.928-2.21 7.93-2.57 9.21-0.144 0.51-0.512 1.83-0.818 2.94-0.306 1.11-0.674 2.43-0.818 2.94-0.144 0.51-0.512 1.83-0.819 2.94-0.307 1.11-0.722 2.61-0.923 3.33-0.201 0.72-0.642 2.31-0.98 3.54-0.338 1.23-0.756 2.72-0.928 3.31-0.434 1.49-0.439 1.48 1.32 1.49 2.17 3e-3 6 0.149 5.86 0.223-0.0801 0.0424-0.514 0.105-0.963 0.138-2.8 0.209-6.64 0.599-6.78 0.69-0.153 0.0945-0.286 0.496-0.738 2.22-0.227 0.87-0.62 2.32-0.873 3.22-0.253 0.899-0.62 2.22-0.815 2.94-0.196 0.72-0.447 1.64-0.558 2.04-0.26 0.947-0.25 0.955 1.34 1.13 2.89 0.326 7.6 0.924 7.65 0.97 0.0274 0.0274-2.01 0.0506-4.52 0.0515-5.77 2e-3 -4.94-0.505-6.08 3.71-0.654 2.42 0.167 2.14-6.94 2.39-1.89 0.0662-3.84 0.15-4.33 0.187-0.721 0.0533-0.9 0.0369-0.9-0.0826zm5.26-4.2c2.09-0.0475 3.17-0.112 3.23-0.193 0.0543-0.0667 0.33-0.98 0.613-2.03 0.283-1.05 1.13-4.14 1.87-6.87s1.68-6.14 2.06-7.58c0.389-1.44 0.947-3.48 1.24-4.52 0.294-1.05 0.981-3.53 1.53-5.51 1.31-4.74 3.02-10.9 3.81-13.7 1.08-3.87 1.66-6.07 1.6-6.12-0.029-0.029-1.89 0.473-4.13 1.12-2.24 0.642-4.37 1.25-4.73 1.35-0.629 0.178-0.658 0.202-0.794 0.665-0.247 0.836-2.52 9.52-3.31 12.6-0.418 1.65-0.794 3.03-0.834 3.07-0.119 0.121-4.72 1.19-4.83 1.12-0.214-0.132-0.113-0.584 1.35-6.05 0.33-1.23 0.928-3.48 1.33-5.01s0.867-3.29 1.04-3.92 0.289-1.16 0.266-1.19c-0.079-0.079-7.56 2.11-7.71 2.26-0.115 0.115-0.437 1.23-0.948 3.29-0.231 0.929-0.962 3.8-1.62 6.38s-1.55 6.04-1.97 7.69c-0.42 1.65-1.01 3.96-1.31 5.12-2.13 8.3-4.31 16.9-4.35 17.2-0.0597 0.361-0.44 0.36 4.39 5e-3 3.02-0.222 2.6 0.168 3.48-3.23 0.41-1.58 1.18-4.47 1.7-6.42 0.527-1.95 1.17-4.34 1.42-5.31 0.253-0.974 0.516-1.85 0.583-1.94 0.221-0.302 4.66-1.16 4.81-0.931 0.0665 0.108-1.45 6.13-3.53 14-1.46 5.5-1.42 4.91-0.306 4.83 0.495-0.0361 2.31-0.0977 4.03-0.137zm-24.4-0.74c5.44-1.5 10.1-8.9 10.1-15.9-9.4e-4 -3.56-0.759-5.19-3.97-8.5-2.4-2.48-2.62-4.11-0.798-6.06 1.79-1.91 3.53-1.21 3.21 1.29-0.113 0.903-0.316 0.927 2.77-0.321 3.35-1.35 3.55-1.68 3.58-5.93 0.0647-9.37-15.1-2.47-18 8.17-0.835 3.11-0.185 5.48 2.3 8.4 2.87 3.38 3.55 5.12 2.7 6.94-1.34 2.9-4.58 2.48-6.31-0.809-0.483-0.92-0.371-1-1.49 1.12-0.819 1.56-2.09 3.8-3.02 5.34-1.27 2.11 1.14 5.37 4.73 6.39 0.721 0.204 3.24 0.138 4.13-0.108zm-18.6-1.23c6.32-1.54 13.3-13.7 14.8-25.8 1.88-15.4-12.7-11.2-19.3 5.56-5.17 13.1-3.16 22.1 4.5 20.3zm-0.447-8.53c-2.98-1.82 3.23-17.9 6.92-17.9 1.49-0.0206 1.74 2.17 0.706 6.28-1.88 7.49-5.46 13-7.63 11.6zm3.85-4.45c1.14-1.95 3.03-7.57 2.28-6.78-0.171 0.179-1.02 1.86-1.35 2.66-0.779 1.91-1.25 3.29-1.48 4.33-0.108 0.491 0.217 0.366 0.557-0.213zm-36.8 12.4c0-0.176-0.282-0.202-0.385-0.0359-0.0388 0.0628-0.0412 0.191-0.0051 0.285 0.0782 0.204 0.39 5e-3 0.39-0.249zm15.7-0.325c5.21-1.31 10.3-9.85 12.3-20.6 2.73-14.6-10.9-10.3-16.7 5.23-3.88 10.3-1.97 17 4.4 15.4zm-0.621-6.86c-2.43-1.7 3.03-14.8 6.17-14.8 1.15 0 1.4 1.63 0.68 4.52-1.57 6.33-5.03 11.5-6.85 10.2zm4.51-6.22c0.183-0.48 0.161-0.67-0.0607-0.533-0.129 0.0795-0.408 0.698-0.516 1.14-0.113 0.467 0.354-0.0264 0.576-0.609zm-14 10.6c0.17-0.45 0.777-2.07 1.35-3.6 0.571-1.53 1.33-3.54 1.69-4.47 0.359-0.929 1.76-4.56 3.11-8.07s2.54-6.59 2.64-6.84c0.297-0.737 0.49-0.746-2.79 0.132-2.65 0.71-2.27 0.312-3.39 3.55-1.64 4.76-3.63 10.3-3.74 10.4-0.285 0.285-0.236-0.0839 0.536-4.06 0.812-4.18 1.61-8.67 1.55-8.74-0.0609-0.0609-1.39 0.245-2.76 0.637-0.557 0.159-0.809 0.288-0.885 0.454-0.15 0.329-3.94 9.95-4.33 11-0.613 1.64-0.62 0.734-0.014-1.85 1.26-5.36 2.03-8.89 1.96-8.96-0.102-0.106-4.74 1.15-4.91 1.33-0.0691 0.0724-0.201 0.598-0.292 1.17-0.0918 0.57-0.339 2.04-0.549 3.27-0.21 1.23-0.583 3.4-0.827 4.83s-0.618 3.54-0.83 4.69c-0.839 4.55-0.914 5.02-0.807 5.09 0.294 0.182 4.96 0.338 5.07 0.17 0.059-0.0921 0.967-2.31 2.02-4.93 1.73-4.31 2.34-5.6 2.15-4.49-0.0353 0.203-0.285 1.67-0.554 3.26-0.27 1.59-0.616 3.58-0.77 4.42-0.154 0.84-0.303 1.66-0.332 1.82-0.0646 0.373-0.0412 0.379 1.96 0.504 3.28 0.206 3.41 0.181 3.76-0.748zm-19-0.552c3.14-0.509 5.46-3.27 5.45-6.46-0.0074-2.08-0.719-3.08-3.12-4.41-1.75-0.962-1.93-1.24-1.32-1.94 1.12-1.28 2.92-1.17 2.92 0.176 0 0.464 0.037 0.46 1.58-0.129 1.74-0.664 1.52-0.382 1.84-2.38 0.508-3.18 0.549-3.12-2.06-3.1-3.04 0.0226-5.86 1.34-8.4 3.9-3.12 3.16-2.9 4.58 1.03 6.73 2.06 1.12 2.58 1.65 2.26 2.29-0.567 1.12-2.84 0.978-4.74-0.294-0.727-0.488-0.727-0.488-0.947-0.222-0.121 0.146-0.748 0.887-1.4 1.65-1.28 1.5-1.26 1.44-0.569 2.04 2.07 1.79 4.83 2.59 7.46 2.16zm65-9.62c0.0567-0.296-1.28-1.93-1.57-1.93-0.198 0-0.873 1.87-0.748 2.07 0.133 0.216 2.28 0.0875 2.32-0.139zm12.4-6.62c0.223-0.416 0.142-0.661-0.218-0.661-0.409 0-0.508 0.22-0.265 0.591 0.22 0.336 0.332 0.353 0.483 0.0705zm-3.6-4.19c0.0979-0.434 0.0116-0.557-0.317-0.453-0.263 0.0833-0.39 0.62-0.221 0.935 0.166 0.311 0.408 0.0944 0.538-0.482zm-81.6-1.17c1.03-0.321 13.3-3.4 17.1-4.28 8.27-1.94 15.4-3.55 20.3-4.59 4.4-0.931 17.7-3.53 22.6-4.41 1.02-0.184 2.79-0.503 3.93-0.709 1.14-0.206 3.69-0.649 5.67-0.985 1.98-0.336 5.88-0.999 8.67-1.48 10.5-1.8 17.7-2.93 22.3-3.54 0.72-0.095 1.46-0.196 1.64-0.224 0.786-0.123-0.199 0.159-1.69 0.484-3.22 0.703-4 0.874-5.02 1.1-0.57 0.126-2.34 0.5-3.93 0.831-1.59 0.33-3.67 0.765-4.63 0.967-2.95 0.619-25 5.01-29.9 5.95-2.52 0.485-5.29 1.02-6.16 1.2s-2.64 0.518-3.93 0.765c-1.29 0.247-4.23 0.818-6.54 1.27-9.2 1.8-10.3 2.01-12.8 2.49-1.44 0.277-3.48 0.67-4.52 0.873-1.05 0.203-2.84 0.546-3.98 0.761s-2.32 0.441-2.62 0.502c-1.81 0.366-10.7 2.08-14.9 2.87-1.5 0.283-2.19 0.353-1.57 0.159zm27.7-11.4c2.06-0.537 7.67-1.91 10.7-2.62 1.29-0.3 3.08-0.719 3.98-0.93 9.03-2.12 15.6-3.58 22-4.89 1.29-0.265 3.52-0.727 4.96-1.03 3.62-0.753 27.5-5.55 30.7-6.17 2.49-0.479 5.16-0.977 9.07-1.69 1.76-0.321 2.45-0.396 1.83-0.2-1.12 0.351-18.5 4.66-24.9 6.19-0.51 0.121-1.66 0.397-2.56 0.614-0.899 0.217-2.15 0.511-2.78 0.654-0.63 0.143-1.93 0.437-2.89 0.655-2.53 0.573-5.88 1.3-8.5 1.85-1.26 0.263-2.76 0.578-3.33 0.701-2.05 0.442-10.6 2.09-15.4 2.95-2.67 0.485-5.37 0.977-6 1.09-1.24 0.23-7.56 1.37-8.45 1.53-0.3 0.0518-1.76 0.318-3.25 0.591-3.69 0.678-6.49 1.16-6.71 1.14-0.101-5e-3 0.553-0.202 1.45-0.436z" fill="#89760b"/><path d="m150 166c2e-3 -0.288 0.207-1.12 0.634-2.57 0.185-0.63 0.506-1.81 0.712-2.62 0.207-0.81 0.527-2.02 0.711-2.69 0.527-1.92 2.63-10.1 2.63-10.2 0-0.414-1.2 0.029-1.33 0.491-0.19 0.678-0.862 3.18-1.87 6.98-0.575 2.16-1.17 4.37-1.32 4.91-0.15 0.54-0.441 1.64-0.648 2.45-0.525 2.05-0.518 2.04-1.01 2.11-1.43 0.209-7.73 0.699-9.11 0.709-1.26 9e-3 -1.21 0.133-0.748-1.65 0.61-2.37 0.643-2.32-0.763-1.14-5.72 4.82-12.6 3.58-15.7-2.84-0.478-0.985-0.377-1.01-1.74 0.387-6.37 6.52-14.2 4.76-15.2-3.39-0.104-0.933-0.188-1.11-0.376-0.796-5.27 8.82-14.6 9.77-16.3 1.66-0.0936-0.456-0.196-0.289-0.759 1.24-0.276 0.75-0.591 1.61-0.702 1.91-0.256 0.696-0.591 0.698-8.68 0.051-0.78-0.0624-2.41-0.181-3.62-0.263-1.21-0.0825-2.26-0.185-2.33-0.227-0.0689-0.0426-0.427-0.0837-0.796-0.0913-0.76-0.0158-0.742 0.0242-0.559-1.24 0.098-0.678 0.0948-0.679-0.694-0.193-3.66 2.25-9.09 1.25-12.4-2.28-0.956-1.03-0.956-1.03-0.0502-2.1 0.498-0.588 1.06-1.29 1.25-1.57 0.188-0.274 0.737-0.912 1.22-1.42 1.16-1.22 1.22-1.36 0.78-2-1.42-2.06 0.201-6.27 2.99-7.77 0.18-0.0967 0.572-0.36 0.872-0.585 2.5-1.87 6.7-2.98 8.88-2.33 0.509 0.151 0.596 0.152 0.756 9e-3 0.395-0.354 7.18-2.17 7.78-2.08 0.234 0.0344 1.3-0.191 3.05-0.645 1.54-0.398 2.73-0.657 2.79-0.602 0.0545 0.0545 1.28-0.229 2.87-0.662 5.79-1.58 5.75-1.57 5.79-1.04 0.0338 0.383 0.0338 0.383 0.852-0.216 0.45-0.329 1.16-0.849 1.58-1.16 4.78-3.48 10.1-2.15 10.8 2.69 0.12 0.877 0.277 0.873 0.828-0.0233 6.13-9.98 15.6-12.8 18.6-5.56 0.503 1.22 0.499 1.22 1.09 0.379 4.64-6.58 13.2-9.73 16.9-6.21 0.978 0.935 0.938 0.943 1.29-0.256 0.316-1.09 0.252-1.04 1.97-1.55 5.24-1.56 7.86-2.35 8.43-2.54 0.804-0.263 0.852 0.231 0.198 2.05-0.0267 0.0741 0.0792 0.183 0.235 0.243 0.359 0.136 0.443-0.288-0.808 4.09-0.171 0.6-0.49 1.78-0.709 2.62-0.219 0.84-0.538 2.04-0.71 2.67-1.25 4.61-1.23 4.41-0.624 4.32 0.658-0.105 0.915-0.309 1-0.793 0.0401-0.228 0.188-0.832 0.329-1.34 0.141-0.51 0.334-1.25 0.428-1.64 0.0945-0.39 0.518-2.03 0.941-3.65s0.963-3.69 1.2-4.61 0.477-1.75 0.534-1.86c0.0573-0.107 0.226-0.676 0.376-1.26 0.331-1.3 0.173-1.16 1.81-1.64 13-3.76 11.6-3.52 11.2-2-0.277 0.979-0.31 1.21-0.2 1.42 0.111 0.207 0.064 0.486-0.299 1.77-0.237 0.839-0.733 2.6-1.1 3.92-0.37 1.32-0.837 2.99-1.04 3.71-0.525 1.87-1.62 5.79-2 7.2-0.181 0.66-0.899 3.24-1.6 5.72s-1.48 5.33-1.75 6.32c-0.538 2.03-0.663 2.48-1.91 6.98-0.491 1.77-1.13 4.1-1.42 5.18-0.287 1.08-0.695 2.58-0.906 3.33-0.211 0.75-0.516 1.85-0.679 2.45-0.163 0.6-0.33 1.13-0.372 1.18-0.273 0.306-11.7 0.445-11.7 0.142zm7.14-1.92c1.62-0.062 2.98-0.148 3.02-0.19 0.0642-0.0662 1.78-6.26 4.68-16.9 0.416-1.53 1.2-4.37 1.74-6.32 0.541-1.95 1.35-4.87 1.79-6.49s1.28-4.64 1.86-6.71c1.25-4.45 2.61-9.42 2.72-9.9 0.119-0.544 0.0709-0.535-4.95 0.906-5.59 1.61-4.82 0.995-5.77 4.58-0.425 1.62-1.05 3.97-1.38 5.23-0.332 1.26-0.905 3.49-1.27 4.96-0.797 3.19-0.482 2.82-2.87 3.37-1.08 0.251-2.07 0.484-2.21 0.516-0.423 0.102-0.534 0.607 1.77-8.09 2.28-8.61 2.17-8.12 1.85-8.12-0.0927 0-0.964 0.241-1.94 0.535s-2.55 0.763-3.51 1.04-1.9 0.556-2.1 0.617c-0.464 0.146-0.0784-1.22-3.92 13.8-0.803 3.15-1.85 7.24-2.32 9.1s-1.24 4.85-1.7 6.65c-0.458 1.8-1.25 4.9-1.76 6.9-1.08 4.24-1.09 3.99 0.099 3.9 4.24-0.318 6.35-0.511 6.43-0.588 0.0503-0.0503 0.356-1.12 0.68-2.37 0.324-1.25 0.938-3.58 1.36-5.17 0.427-1.59 1.15-4.29 1.6-6 0.736-2.78 0.905-3.26 1.14-3.27 0.0354-9.2e-4 0.981-0.191 2.1-0.423 1.12-0.232 2.06-0.381 2.09-0.331 0.0614 0.0994-1.3 5.48-3.33 13.2-0.717 2.72-1.34 5.11-1.38 5.32-0.0835 0.445 0.264 0.462 5.46 0.263zm-25.4-0.587c7.51-1.34 13.6-14 10-21-0.595-1.18-1.26-2.03-2.99-3.81-2.46-2.54-2.66-4.26-0.712-6.08 1.69-1.58 2.93-0.99 2.76 1.32-0.0944 1.26-0.36 1.25 2.54 0.0667 1.3-0.531 2.6-1.05 2.88-1.16 0.588-0.221 0.53-0.0885 1.02-2.35 0.376-1.74 0.429-3.94 0.12-4.95-1.8-5.87-13.7-0.348-17.4 8.04-1.85 4.26-1.48 7.28 1.29 10.5 2.88 3.38 3.52 4.7 3.1 6.35-0.904 3.53-4.49 3.35-6.3-0.317-0.467-0.947-0.492-0.925-1.84 1.59-0.65 1.21-1.71 3.1-2.35 4.19-1.33 2.26-1.28 1.96-0.529 3.51 1.01 2.07 2.85 3.58 4.84 3.98 0.33 0.0659 0.698 0.139 0.818 0.163 0.494 0.0972 1.91 0.0511 2.68-0.0876zm-18-1.36c5.57-1.42 11.1-9.68 14-20.8 2.65-10.3 0.489-16.2-5.4-14.7-7.17 1.81-13.8 12-15.9 24.7-1.26 7.31 2.04 12.2 7.35 10.8zm0.0117-8.7c-1.93-0.353-0.964-6.45 1.99-12.5 3.2-6.57 6.56-7.15 5.44-0.936-1.25 6.95-5.08 13.9-7.42 13.5zm1.83-2.03c2.01-2.47 3.86-7.09 4.62-11.5 0.326-1.89 0.247-2.03-0.632-1.11-2.16 2.27-5.1 9.59-5.1 12.7-3e-5 1.02 0.203 1 1.1-0.105zm-19 9.69c5.31-1.95 10-10.1 12-20.8 2.73-14.8-11.4-10.1-17.2 5.68-3.86 10.5-1.41 17.6 5.24 15.2zm-1.19-7.14c-1.64-1.64 2.2-12 5.18-13.9 1.82-1.21 2.39 0.489 1.43 4.24-1.58 6.15-5.06 11.3-6.61 9.71zm2.12-1.67c1.57-1.97 3.98-8.01 3.98-9.98 0-0.395 0-0.395-0.337-0.0744-1.61 1.53-3.7 6.18-4.3 9.59-0.255 1.43-0.161 1.49 0.66 0.462zm-11.4 6.3c0.223-0.6 0.568-1.53 0.767-2.07 0.497-1.35 2.97-7.82 5.59-14.6 2.66-6.9 2.66-6.89 2.55-7-0.147-0.147-5.5 1.28-5.64 1.5-0.0496 0.0803-0.37 0.957-0.713 1.95-1.33 3.86-3.42 9.72-3.53 9.9-0.201 0.345-0.133-0.11 0.529-3.55 1.7-8.81 1.67-8.11 0.308-7.77-3.15 0.787-2.7 0.387-3.9 3.45-0.542 1.38-1.49 3.77-2.1 5.32-1.11 2.81-1.37 3.26-0.959 1.64 0.12-0.472 0.34-1.42 0.489-2.11 0.149-0.69 0.448-2.01 0.664-2.94 0.873-3.75 0.947-4.25 0.625-4.25-0.515 0-5.15 1.35-5.15 1.5-7.98e-4 0.0465-0.0987 0.624-0.218 1.28-0.119 0.66-0.586 3.38-1.04 6.05-0.717 4.23-1.13 6.57-1.86 10.5-0.261 1.4-0.244 1.45 0.609 1.54 1.33 0.138 4.36 0.302 4.51 0.243 0.0838-0.0322 0.955-2.08 1.94-4.54 1.02-2.57 1.8-4.38 1.82-4.25 0.0336 0.232-0.534 3.71-1.16 7.11-0.407 2.21-0.685 1.98 2.6 2.17 2.94 0.176 2.8 0.22 3.26-1.03zm-19.4-0.282c3.35-0.464 5.91-3.34 5.92-6.65 0.0048-2.12-1.01-3.49-3.49-4.74-1.6-0.8-1.68-1.38-0.315-2.08 1.1-0.556 1.8-0.312 1.94 0.675 0.0416 0.291 0.124 0.528 0.183 0.528 0.317 0 3.22-1.2 3.27-1.35 0.0794-0.253 0.589-3.61 0.622-4.09 0.0487-0.723-0.639-0.991-2.53-0.981-5.55 0.0269-12.3 5.93-10.3 8.97 0.386 0.584 0.969 1 2.95 2.1 2.09 1.16 2.43 1.55 1.92 2.2-0.673 0.855-2.9 0.489-4.6-0.756-0.618-0.454-0.52-0.526-2.55 1.88-1.22 1.44-1.19 1.31-0.403 1.98 2.19 1.88 4.76 2.68 7.41 2.31zm65.8-6.41c1.55-0.947 1.09-2.99-1.28-5.64-0.38-0.424-0.961-1.14-1.29-1.6-0.745-1.03-0.785-1.03-1.08 7e-3 -0.134 0.465-0.345 1.17-0.468 1.56-0.679 2.18 2.56 6.63 4.13 5.67zm-59.2-3.91c0.0846-0.638 0.0502-0.664-0.548-0.414-0.461 0.192-0.461 0.197-0.0363 0.733 0.398 0.503 0.481 0.458 0.584-0.318zm70.8-5.35c0.11-0.343 0.315-1.11 0.455-1.71 0.141-0.6 0.483-1.98 0.76-3.08s0.504-2.07 0.504-2.17c0-0.249-0.18-0.195-2.37 0.705-1.45 0.594-1.96 0.757-2.21 0.707-0.334-0.0668-1.58 0.32-1.71 0.532-0.036 0.0582 0.227 0.408 0.584 0.776 1.56 1.61 2.4 2.7 3.19 4.14 0.523 0.957 0.521 0.957 0.795 0.0985zm-4.84-6.67c0.313-1.39 0.314-1.63 2e-3 -1.35-0.561 0.507-0.84 1.76-0.523 2.35 0.173 0.324 0.26 0.157 0.521-1z" fill="#0d0e0b"/></svg>
