<svg width="210mm" height="297mm" version="1.1" viewBox="0 0 210 297" xmlns="http://www.w3.org/2000/svg"><path d="m89.5 161c-0.497-0.233-0.532-0.298-0.338-0.62 1.28-2.12 2.84-4.62 2.9-4.64 0.165-0.0533-0.596 2.19-1.61 4.74-0.333 0.838-0.306 0.823-0.953 0.519zm-2.58-0.833c-0.095-0.0614-0.263-0.188-0.373-0.282l-0.2-0.171 0.0562-0.15c0.0702-0.188 4.38-4.64 4.49-4.64 0.109 0 0.103 0.115-0.0148 0.289-0.684 1.01-3.47 4.85-3.6 4.96-0.143 0.125-0.15 0.125-0.361-0.0112zm-7.57 0.0137c-0.212-0.0774-0.34-0.275-0.434-0.67-0.0543-0.227-0.147-0.465-0.206-0.531-0.0682-0.0753-0.108-0.205-0.108-0.354v-0.235l-0.387 0.01-0.238-0.189c-0.298-0.236-0.188 0.309-0.85-4.21l-0.207-1.41-0.195-0.216c-0.209-0.231-0.234-0.359-0.128-0.651l0.0668-0.185-0.326-0.419c-0.226-0.29-0.326-0.471-0.326-0.587v-0.168l0.688-0.716-0.0541-0.515c-0.0298-0.283-0.134-1.28-0.231-2.21-0.254-2.44-0.631-5.66-0.666-5.7-0.0162-0.0162-0.0798 2e-3 -0.141 0.0403-0.279 0.174-0.541 0.0732-0.719-0.278-0.129-0.255-0.825-1.41-1.26-2.09-0.252-0.396-0.27-0.458-0.192-0.663l0.0668-0.177-0.142-0.0986c-0.568-0.394-0.835-0.755-0.75-1.01l0.0614-0.186 1.37-1 0.041-0.524c0.0225-0.288 0.0499-1.19 0.0608-2l0.0199-1.47 0.0875-0.0875c0.0481-0.0481 0.212-0.155 0.364-0.237l0.277-0.149 0.0082-0.28c0.0045-0.154 0.0433-0.345 0.0861-0.425l0.0778-0.145 2.39-1.19c4.25-2.11 5.7-2.69 7.77-3.07l0.662-0.121 2.07-8e-3 0.605 0.13c1.31 0.282 2.52 1.02 3.12 1.9 0.0993 0.146 0.28 0.38 0.402 0.52 0.122 0.14 0.3 0.392 0.397 0.561 0.217 0.38 0.214 0.38 0.488-0.0238 0.956-1.41 2.69-2.63 4.4-3.1l0.374-0.103 1.61-6e-3 0.48 0.131c0.959 0.262 1.63 0.656 2.41 1.41l0.475 0.461v-1.34l0.158-0.169c0.159-0.169 0.725-0.423 3.51-1.57 3.18-1.31 3.48-1.36 3.62-0.669 0.0834 0.417 0.152 0.56 0.267 0.56 0.17 0 0.338 0.106 0.391 0.248l0.0468 0.126 0.0424-0.476c0.0553-0.621 0.0687-0.635 1.1-1.08 1.89-0.827 4.45-1.91 4.67-1.98l0.236-0.0707 0.209 0.0689c0.261 0.0861 0.382 0.254 0.382 0.53 0 0.331 0.0888 0.509 0.254 0.509 0.29 0 0.415 0.266 0.331 0.706-0.0716 0.377-0.174 0.402 1.75-0.424 0.95-0.408 1.86-0.785 2.02-0.838l0.297-0.096 0.18 0.0747c0.23 0.0954 0.348 0.324 0.348 0.678v0.28l0.345 0.331v0.206c0 0.113-0.0255 0.294-0.0566 0.403-0.106 0.37-0.0112 0.243 0.396-0.528 0.224-0.424 0.466-0.825 0.538-0.892l0.131-0.121 1.92-0.489c1.06-0.269 1.94-0.511 1.97-0.539 0.0273-0.0273 0.0707-0.561 0.0963-1.19l0.0466-1.14 0.305-0.305 0.508-0.0761c1.84-0.276 4.73-0.536 6.44-0.58l1.33-0.034 0.174 0.0899c0.0956 0.0494 0.206 0.15 0.246 0.225 0.0396 0.074 0.149 0.179 0.243 0.233 0.0941 0.054 0.197 0.166 0.228 0.249l0.0573 0.151-0.0962 0.361c-0.124 0.465-0.129 0.456 0.525 0.95 0.321 0.243 0.581 0.485 0.615 0.572l0.0577 0.152-0.376 1.38c-0.207 0.76-0.608 2.24-0.892 3.28-0.699 2.57-2.58 9.63-2.94 11.1-0.162 0.633-0.321 1.25-0.352 1.37-0.0734 0.283-0.325 0.443-0.699 0.443-0.343 2.7e-4 -0.343-3e-3 0.0696 0.439 0.206 0.221 0.423 0.533 0.544 0.785 0.111 0.23 0.295 0.509 0.41 0.619 0.292 0.28 0.627 0.87 0.785 1.38l0.134 0.432-4e-3 1.61-0.132 0.489c-0.627 2.32-2.42 3.81-4.7 3.9l-0.748 0.0288-0.405-0.0862c-0.919-0.195-1.82-0.727-2.32-1.38l-0.26-0.335-0.149 0.0969c-0.143 0.0932-1.27 0.95-2 1.53-0.546 0.429-0.791 0.377-1.08-0.229l-0.165-0.346-0.195 6e-3c-0.314 9e-3 -0.385-0.125-0.972-1.83-0.306-0.887-0.579-1.64-0.607-1.67-0.0309-0.0326-0.0519 0.67-0.0519 1.74v1.79l-0.259 0.28-0.777 0.216c-1.12 0.312-2.49 0.808-3.98 1.44-1.03 0.438-1.15 0.396-1.34-0.452l-0.035-0.158h-0.173c-0.182 0-1.01 0.397-2.42 1.16-1.11 0.601-1.3 0.587-1.52-0.118l-0.106-0.349h-0.157c-0.0865 0-0.214-0.046-0.283-0.102-0.129-0.104-0.138-0.132-0.697-2.19-0.14-0.514-0.27-0.935-0.289-0.936-0.0328-4.3e-4 -0.0613 0.551-0.147 2.84l-0.0385 1.03-0.14 0.166c-0.0769 0.0914-0.166 0.166-0.198 0.166-0.106 0-3.11 1.52-4.4 2.24-1.58 0.868-1.84 0.891-1.95 0.177-0.0763-0.503-0.102-0.576-0.235-0.663-0.151-0.0986-0.258-0.356-0.258-0.615 0-0.148-0.124-0.321-0.235-0.327-0.0184-1e-3 -0.25 0.272-0.514 0.607-2.86 3.63-6.8 3.87-9.21 0.557-0.375-0.517-0.248-0.561-1.16 0.4-2.11 2.22-4.62 4.03-7.91 5.69-1.26 0.634-3.41 1.62-3.52 1.61-0.0279-2e-3 -0.0896-0.0188-0.137-0.0361zm-2.21-16.2c-0.0661-0.759-0.211-2.08-0.245-2.25-0.0845-0.403-0.0633-0.0251 0.0657 1.17 0.0767 0.712 0.14 1.34 0.141 1.39 5.47e-4 0.0554 0.0178 0.101 0.0382 0.101s0.0209-0.188 8.63e-4 -0.417zm19.8-0.0864c0.98-1.01 1.87-4.07 1.74-5.99l-0.0202-0.299h-0.0937c-0.143 0-0.73 0.649-0.991 1.1-0.797 1.36-1.4 3.65-1.31 4.92 0.0571 0.735 0.179 0.785 0.673 0.276zm30.8-3.97 0.524-0.526 0.559-0.268c0.617-0.296 0.691-0.355 0.297-0.236-0.895 0.269-2.39 1.7-2.39 2.28 1.7e-4 0.0447 0.109-0.1 0.241-0.322 0.136-0.228 0.468-0.631 0.765-0.929zm-0.462-0.94c0.0562-0.0621 0.245-0.211 0.419-0.331l0.317-0.218-0.078-1.04-0.31-0.325 0.0204-3.41c0.0141-2.36 2e-3 -3.39-0.0395-3.35-0.0862 0.0828-1.51 2.42-2.14 3.53l-0.537 0.937 1.06 2.16c1.07 2.18 1.11 2.25 1.29 2.05zm-43.4-1.56c0.758-0.902 1.23-1.8 1.28-2.42l0.0219-0.317-0.0544 0.297c-0.141 0.769-0.641 1.65-1.46 2.58-0.222 0.25-0.345 0.418-0.274 0.374 0.0711-0.0439 0.293-0.274 0.493-0.512zm-8.28-5.39c0.439-0.257 0.44-0.259 0.374-0.616l-0.0508-0.272 0.0687-0.0571c0.0934-0.0775 4.74-2.38 5.51-2.74 0.34-0.155 0.608-0.291 0.597-0.302-0.0444-0.0444-2.1 0.902-4.16 1.91l-2.16 1.06 0.045 0.188c0.0247 0.103 0.0475 0.279 0.0506 0.39l0.0056 0.202-0.345 0.185c-0.19 0.102-0.366 0.193-0.391 0.202-0.0253 9e-3 -0.0253 0.133 0 0.275l0.046 0.258 0.0346-0.473zm17.8-1.73c1.01-1.56 2.32-2.7 3.69-3.23 0.192-0.0742 0.272-0.119 0.178-0.0996-1.49 0.305-3.32 1.93-4.46 3.95l-0.185 0.329 0.0818 0.258 0.195-0.372c0.107-0.204 0.33-0.581 0.496-0.836zm18.2-2.59c0.0727-3.36 4e-3 -3.09 0.856-3.39 0.123-0.0433 0.44-0.181 0.705-0.306 0.265-0.125 0.619-0.288 0.787-0.362 0.324-0.142 0.475-0.268 0.201-0.166-0.0889 0.0328-0.712 0.296-1.39 0.584l-1.22 0.524v0.961c0 0.529-0.0165 1.87-0.0368 2.97-0.0202 1.11-0.0204 2-3.7e-4 1.98 0.02-0.0183 0.0633-1.27 0.0961-2.79zm17 0.58c0.0195-1.03 0.0131-1.8-0.0145-1.76-0.0271 0.0475-0.0603 0.91-0.0737 1.92s-7e-3 1.8 0.0145 1.76c0.0214-0.0407 0.0545-0.903 0.0737-1.92zm-6.72-0.557c0.119-0.28 0.0263-0.177-0.127 0.14-0.0829 0.172-0.102 0.242-0.0442 0.163 0.0559-0.0768 0.133-0.213 0.171-0.302zm-18.1-0.695c0.0537-0.0464 0.674-0.338 1.38-0.649 0.705-0.311 1.27-0.574 1.26-0.585-0.0237-0.0237-0.727 0.261-1.95 0.791l-0.849 0.367 0.018 0.523 0.0228-0.181c0.0125-0.0996 0.0667-0.219 0.12-0.265zm18.6-0.163c0.146-0.266 0.499-0.938 0.785-1.49s0.554-1.05 0.595-1.09c0.041-0.0475 0.13-0.216 0.198-0.374 0.165-0.386 0.372-0.647 0.594-0.75l0.183-0.0849-0.23 0.0341c-0.126 0.0187-0.247 0.0449-0.269 0.0581-0.0214 0.0132-0.323 0.574-0.671 1.25s-0.829 1.6-1.07 2.07c-0.394 0.762-0.497 0.987-0.409 0.899 0.0161-0.0161 0.148-0.247 0.294-0.513zm-15.5-1.24c0.142-0.0557 0.285-0.124 0.316-0.153 0.0797-0.0716-0.388 0.0978-0.585 0.212-0.182 0.105-0.113 0.09 0.269-0.0596zm10.8-0.853c0.421-0.202 1.06-0.501 1.43-0.665 0.895-0.404 1.38-0.648 1.21-0.603-0.134 0.0343-0.7 0.277-1.73 0.742-0.238 0.107-0.715 0.322-1.06 0.477-0.347 0.155-0.64 0.312-0.653 0.349-0.0335 0.1-0.0192 0.0951 0.805-0.3zm11-4.68 7e-3 -0.467 0.417-0.0645c0.23-0.0355 0.955-0.134 1.61-0.219 0.657-0.0852 1.18-0.168 1.17-0.183-0.0293-0.0293-2.03 0.181-2.82 0.297l-0.461 0.0673-9e-3 0.691c-5e-3 0.424 9e-3 0.624 0.0364 0.518 0.0247-0.095 0.048-0.383 0.0517-0.64zm-20.2 38.4-0.157-0.135 0.0763-0.941c0.0442-0.545 0.0545-0.949 0.0245-0.96-2.03-0.716-2.19-1.13-0.628-1.65 0.443-0.147 0.835-0.286 0.871-0.31 0.0359-0.0232 0.134-0.457 0.217-0.964 0.284-1.72 0.509-1.8 1.32-0.435l0.455 0.76 0.0917-0.0226c0.0504-0.0125 0.48-0.123 0.955-0.245 0.934-0.24 1.11-0.24 1.24-3e-3l0.0776 0.145-0.0672 0.147c-0.037 0.0811-0.352 0.506-0.7 0.945-0.348 0.439-0.633 0.816-0.633 0.838s0.157 0.456 0.349 0.964c0.375 0.991 0.389 1.12 0.134 1.29l-0.148 0.0969-0.211-0.0757c-0.116-0.0416-0.52-0.22-0.897-0.397l-0.686-0.321-0.609 0.64c-0.772 0.812-0.829 0.845-1.08 0.632zm1.13-1.61c0.399-0.437 0.406-0.437 1.15-0.0952 0.776 0.356 0.735 0.395 0.432-0.407-0.346-0.917-0.381-0.766 0.397-1.72 0.413-0.508 0.429-0.494-0.338-0.288-0.347 0.0932-0.698 0.17-0.778 0.17l-0.146 5e-5 -0.343-0.603c-0.422-0.742-0.383-0.75-0.534 0.117-0.165 0.948-0.121 0.893-0.932 1.18-0.381 0.134-0.686 0.25-0.678 0.257 9e-3 7e-3 0.294 0.137 0.634 0.289 0.71 0.317 0.704 0.307 0.622 0.957-0.033 0.263-0.06 0.526-0.06 0.585v0.106l0.139-0.109c0.0765-0.0602 0.272-0.255 0.435-0.433zm14.2-1.47c-0.531-0.594-1.54-1.71-2.23-2.49-1.99-2.21-1.93-2.13-1.71-2.13 0.173 3e-3 3.49 2.64 5.7 4.54 0.397 0.34 0.393 0.437-0.0288 0.767-0.688 0.538-0.59 0.578-1.72-0.688zm1.28-3.33c-1.47-0.977-2.57-1.74-2.57-1.79v-0.0857l0.149 0.0373c0.425 0.107 5.19 2.43 5.52 2.69 0.206 0.162 0.178 0.315-0.108 0.601-0.342 0.342-0.13 0.446-2.99-1.45zm-52.4-4.94c-0.986-0.528-2.04-2.4-2.28-4.07l-0.0959-0.649 0.0354-0.605c0.0607-1.04 0.352-1.96 0.817-2.6 0.361-0.492 0.54-0.368 0.282 0.195-0.0804 0.176-0.215 0.574-0.298 0.885l-0.152 0.566-0.0058 2.19 0.152 0.633c0.266 1.11 0.806 2.23 1.45 3.01 0.364 0.443 0.402 0.61 0.102 0.449zm0.745-0.874c-1.35-1.25-1.95-3.86-1.22-5.32l0.155-0.311 0.269-0.0386-0.0285 0.192c-0.0157 0.106-0.0624 0.458-0.104 0.783l-0.0754 0.591 0.0647 0.676c0.107 1.11 0.535 2.31 1.13 3.14 0.138 0.195 0.282 0.412 0.32 0.484l0.0682 0.13h-0.114c-0.0626 0-0.272-0.146-0.465-0.325zm62.8-3.69c0.0184-0.119 0.0867-0.462 0.152-0.763 0.0746-0.345 0.131-0.877 0.153-1.44l0.0344-0.892-0.0917-0.596c-0.127-0.825-0.285-1.32-0.627-1.98l-0.293-0.563 0.123-0.123 0.115 0.0618c0.704 0.377 1.34 2.04 1.34 3.51-5.7e-4 1.09-0.539 3-0.845 3h-0.091zm1.36-0.192c0-0.0346 0.0539-0.326 0.12-0.648 0.374-1.82 0.178-3.94-0.487-5.26-0.394-0.784-0.324-0.958 0.162-0.403 0.349 0.399 0.688 1.1 0.878 1.8l0.153 0.573 8e-3 2.13-0.129 0.507c-0.211 0.829-0.706 1.74-0.706 1.3zm-62.8-16.8c-0.148-0.188-0.148-0.186 0.0229-1.35l0.14-0.95-0.127-0.106c-0.0696-0.0583-0.463-0.289-0.875-0.512-0.894-0.485-1.01-0.578-1.01-0.823 0-0.293 0.138-0.361 1.24-0.608 1.24-0.277 1.07-0.0952 1.35-1.44 0.257-1.24 0.329-1.4 0.641-1.43 0.26-0.0225 0.279 2e-3 0.888 1.14 0.616 1.15 0.42 1.05 1.57 0.855 1.18-0.196 1.41-0.204 1.57-0.0494 0.25 0.25 0.211 0.315-0.971 1.64-0.41 0.459-0.587 0.699-0.567 0.767 0.0162 0.055 0.215 0.579 0.441 1.17 0.227 0.586 0.416 1.15 0.421 1.26l0.0087 0.194-0.139 0.113c-0.203 0.164-0.338 0.116-1.33-0.476-0.486-0.29-0.956-0.564-1.04-0.609l-0.16-0.0826-0.301 0.279c-0.166 0.153-0.528 0.478-0.806 0.722l-0.505 0.443h-0.168c-0.113 0-0.207-0.0498-0.287-0.152zm1.39-1.59c0.682-0.611 0.534-0.61 1.53-0.0157 0.944 0.561 0.918 0.557 0.728 0.107-0.705-1.67-0.723-1.55 0.392-2.71 0.371-0.388 0.349-0.399-0.507-0.254-0.396 0.0674-0.809 0.123-0.919 0.123h-0.199l-0.442-0.839c-0.243-0.461-0.455-0.825-0.472-0.809-0.0165 0.0165-0.105 0.414-0.197 0.882-0.0919 0.469-0.181 0.897-0.198 0.952-0.0361 0.115-0.341 0.215-1.1 0.361-0.508 0.0978-0.709 0.166-0.652 0.222 0.0149 0.0146 0.337 0.193 0.715 0.397 0.849 0.458 0.822 0.417 0.729 1.12-0.0412 0.311-0.0892 0.679-0.107 0.818l-0.0321 0.253 0.0792-0.049c0.0436-0.0269 0.334-0.277 0.645-0.556zm26 0.421c-0.0514-0.0832 0.0794-0.156 0.687-0.382 1.9-0.708 3.41-1.55 3.69-2.07l0.109-0.203-0.056-0.159c-0.123-0.349-0.933-0.6-2.32-0.718l-0.825-0.0705-1.02 0.0709c-1.24 0.0867-2.23 0.233-3.41 0.505-0.491 0.114-0.964 0.22-1.05 0.236l-0.158 0.0296v-0.0838c0-0.0483 0.189-0.172 0.446-0.291 1.36-0.631 2.96-1.01 4.77-1.14l0.937-0.0669 0.727 0.0669c1.36 0.125 2.15 0.397 2.61 0.891l0.245 0.267v0.263c0 0.991-1.75 2.02-4.7 2.76-0.67 0.168-0.635 0.163-0.676 0.0962zm-6.4-0.236c-1.56-0.229-2.23-0.993-1.76-1.99 1.04-2.19 7.49-5.43 10.6-5.31l0.461 0.0175v0.171l-0.489 0.101c-4.21 0.872-9.96 4.08-9.96 5.56 0 0.691 1.6 1.16 3.96 1.17 0.963 1e-3 0.704 0.171-0.438 0.286-0.663 0.067-1.9 0.0688-2.34 3e-3zm-4.5-1.2c-1.1-1.31-3.75-4.44-5.45-6.42-0.943-1.1-1.72-2.05-1.72-2.11 0-0.131 0.982-0.84 1.16-0.84h0.124l0.257 0.374c2.47 3.6 6.34 9.47 6.34 9.62 0 0.166-0.229-0.0322-0.726-0.627zm20-2.16c-0.207-0.0994-0.239-0.273-0.282-1.55-0.0535-1.57 0.0685-1.37-1.15-1.86l-1.03-0.412-0.112-0.325 0.172-0.306 0.969-0.384c0.533-0.211 0.99-0.406 1.02-0.433 0.0258-0.0269 0.0692-0.741 0.0966-1.59l0.0497-1.54 0.138-0.147c0.283-0.301 0.475-0.19 0.964 0.561 0.21 0.323 0.572 0.879 0.803 1.24 0.231 0.356 0.429 0.648 0.44 0.648 0.0105 0 0.483-0.13 1.05-0.288 1.18-0.329 1.23-0.335 1.4-0.155 0.213 0.227 0.16 0.373-0.508 1.42l-0.633 0.99 0.0942 0.183c0.0518 0.101 0.337 0.6 0.633 1.11 0.595 1.02 0.643 1.2 0.387 1.4-0.204 0.161-0.163 0.169-1.36-0.255-0.58-0.206-1.1-0.374-1.15-0.374-0.0564-2.2e-4 -0.375 0.391-0.791 0.971-0.841 1.17-0.905 1.23-1.2 1.09zm0.946-1.9c0.256-0.356 0.539-0.733 0.628-0.838l0.161-0.19 0.864 0.313c0.475 0.172 0.914 0.334 0.976 0.359l0.113 0.0465-0.136-0.227c-0.0748-0.125-0.257-0.434-0.406-0.687-0.148-0.253-0.326-0.551-0.394-0.662-0.166-0.269-0.157-0.424 0.0409-0.71 0.342-0.494 0.818-1.26 0.797-1.28-0.0122-0.0122-0.368 0.0815-0.79 0.208-0.422 0.127-0.839 0.23-0.925 0.23h-0.157l-1.31-1.99-0.0371 0.518c-0.0204 0.285-0.0403 0.829-0.0441 1.21-9e-3 0.891 0.0735 0.792-0.984 1.18-0.364 0.135-0.681 0.261-0.704 0.281-0.0229 0.0199 0.299 0.164 0.715 0.321 0.416 0.157 0.806 0.325 0.868 0.375l0.111 0.0902 0.0278 0.977c0.0385 1.36-0.0187 1.31 0.583 0.473zm-20.4 1.24c-0.0304-0.0568-0.189-0.465-0.353-0.907-1.09-2.94-2.85-7.76-3.19-8.73l-0.216-0.618 0.0663-0.0799c0.0364-0.0439 0.341-0.153 0.677-0.242l0.611-0.162 0.0685 0.0937c0.0377 0.0515 0.114 0.309 0.17 0.572 0.0885 0.417 0.81 3.54 1.04 4.51 0.556 2.32 1.24 5.26 1.27 5.44 0.0389 0.243-0.0433 0.314-0.145 0.125zm27.7-0.222c0-0.0461 0.129-0.219 0.958-1.29 2.54-3.27 4.42-5.58 4.52-5.58 0.116 0 0.91 0.726 0.91 0.833 0 0.0386-0.704 0.741-1.56 1.56s-2.26 2.17-3.11 3c-1.35 1.32-1.72 1.63-1.72 1.47zm-24-0.387c0-0.117 0.717-0.773 1.3-1.19 1.7-1.21 4.16-2.3 6.33-2.79l0.691-0.158 1.78-0.0417 0.288 0.102c0.163 0.0578 0.295 0.142 0.305 0.195l0.0174 0.0934-0.679-2e-3c-2.3-8e-3 -5.85 1.3-9.15 3.36-0.877 0.549-0.882 0.551-0.882 0.432zm22.6-0.358c0-0.0921 0.847-2.85 2.16-7.02l0.705-2.25 0.13-0.0191c0.16-0.0235 1.01 0.32 1.13 0.459l0.0919 0.102-1.97 4.28c-1.08 2.35-2.01 4.34-2.05 4.41-0.0942 0.151-0.194 0.17-0.194 0.038z" fill="#94ddf7"/><path d="m89.5 161c-0.518-0.249-0.524-0.189 0.117-1.22 0.294-0.473 0.931-1.51 1.42-2.31 1.32-2.17 1.32-2.15 0.157 0.994-0.305 0.823-0.665 1.77-0.799 2.1l-0.244 0.605-0.115 0.0159c-0.0632 9e-3 -0.303-0.0744-0.532-0.185zm-2.76-0.963c-0.481-0.377-0.709-0.0697 2.45-3.3 2.16-2.21 2.18-2.18 0.3 0.428-2.55 3.54-2.27 3.25-2.75 2.87zm-7.52 0.0573-0.156-0.135-0.0867-0.374c-0.0477-0.206-0.131-0.439-0.185-0.518-0.054-0.0793-0.111-0.261-0.127-0.403l-0.0288-0.259-0.204-3.6e-4c-0.142-2.6e-4 -0.274-0.0562-0.437-0.185l-0.233-0.184-0.103-0.708c-0.0567-0.389-0.237-1.61-0.401-2.7l-0.298-1.99-0.184-0.21c-0.198-0.226-0.222-0.353-0.117-0.641l0.0668-0.185-0.326-0.419c-0.225-0.29-0.326-0.471-0.326-0.587v-0.167l0.65-0.682-0.0382-0.543c-0.089-1.27-0.834-7.87-0.896-7.94-0.0229-0.0245-0.139-4e-3 -0.259 0.0462l-0.217 0.0907-0.127-0.0833c-0.07-0.0458-0.253-0.3-0.406-0.564s-0.523-0.877-0.821-1.36l-0.542-0.881 0.138-0.417-0.166-0.119c-0.987-0.708-0.982-0.916 0.0356-1.66l0.662-0.482 0.0416-0.546c0.0229-0.3 0.0514-1.21 0.0634-2.01l0.0218-1.46 0.109-0.0785c0.0601-0.0432 0.236-0.156 0.39-0.251l0.281-0.173-0.0338-0.208c-0.0216-0.133-0.0015-0.276 0.0556-0.397l0.0894-0.188 1.25-0.615c3.63-1.79 4.32-2.12 5.15-2.47 1.46-0.606 2.53-0.935 3.81-1.16l0.576-0.103 2.13 9e-4 0.548 0.119c1.36 0.297 2.36 0.922 3.16 1.97 0.516 0.68 0.719 0.963 0.823 1.15 0.136 0.247 0.171 0.231 0.483-0.21 2.48-3.51 6.69-4.2 9.32-1.52 0.445 0.454 0.434 0.463 0.434-0.337v-0.688l0.13-0.145c0.0768-0.0862 0.47-0.289 0.964-0.498 2.01-0.849 2.98-1.25 4-1.65 0.602-0.235 1.15-0.452 1.23-0.483 0.0727-0.0307 0.232-0.0557 0.355-0.0557h0.222l0.142 0.169c0.0802 0.0953 0.159 0.283 0.181 0.431 0.0448 0.299 0.154 0.437 0.346 0.437 0.163 0 0.25 0.0986 0.298 0.338 0.072 0.36 0.137 0.236 0.137-0.262l9e-5 -0.507 0.201-0.39 1.44-0.628c2.92-1.27 4.14-1.77 4.33-1.77 0.348 0 0.537 0.212 0.569 0.64 0.0247 0.332 0.0566 0.397 0.196 0.397 0.0572 0 0.174 0.0552 0.26 0.123l0.156 0.123-0.0812 0.867 0.0796-0.032c0.0438-0.0176 0.903-0.384 1.91-0.814 2.5-1.07 2.56-1.07 2.66-0.164l0.0408 0.381 0.276 0.217v0.201c0 0.11-0.0283 0.313-0.0629 0.451-0.144 0.571-0.01 0.442 0.449-0.431 0.628-1.2 0.188-0.965 3.41-1.79 1.4-0.357 1.25-0.185 1.3-1.53l0.0423-1.13 0.302-0.326 1.41-0.174c2.31-0.285 3.86-0.413 5.39-0.448l1.44-0.0325 0.181 0.0937c0.0997 0.0515 0.198 0.146 0.218 0.21 0.0203 0.064 0.112 0.155 0.204 0.203 0.0918 0.0475 0.195 0.14 0.23 0.205l0.0633 0.118-0.2 0.85 0.0719 0.0867c0.0396 0.0477 0.316 0.271 0.614 0.496 0.712 0.538 0.712 0.314 4e-3 2.92-1.32 4.85-2.61 9.69-3.49 13.1l-0.512 1.96-0.132 0.101c-0.0887 0.0683-0.236 0.102-0.453 0.102-0.445 2e-3 -0.446 0.0234-0.0173 0.477 0.236 0.25 0.45 0.551 0.568 0.797 0.104 0.217 0.321 0.539 0.482 0.715 0.363 0.397 0.673 1.02 0.792 1.58l0.091 0.432-0.056 1.44-0.151 0.506c-1.11 3.72-5.88 5.09-8.05 2.31-0.322-0.412-0.249-0.44-1.62 0.62l-1.2 0.93h-0.161c-0.222 0-0.306-0.0848-0.506-0.512l-0.173-0.369-0.345 0.069-0.135-0.136c-0.0912-0.0916-0.292-0.597-0.615-1.55-0.617-1.81-0.693-2.02-0.759-2.02-0.0335 0-0.0531 0.728-0.0506 1.88l4e-3 1.88-0.104 0.0999c-0.057 0.0549-0.402 0.183-0.766 0.285-1.17 0.327-2.92 0.963-4.26 1.55-0.776 0.338-0.975 0.283-1.1-0.306l-0.0643-0.31-0.423-0.0494-0.721 0.357c-0.397 0.196-1.08 0.554-1.52 0.796-1.04 0.569-1.25 0.574-1.42 0.0326-0.0348-0.109-0.0901-0.269-0.123-0.356l-0.0596-0.158h-0.186c-0.289 0-0.333-0.0992-0.778-1.76-0.229-0.855-0.437-1.58-0.461-1.6-0.066-0.071-0.109 0.497-0.178 2.38l-0.0629 1.7-0.0966 0.0999c-0.0531 0.055-0.848 0.474-1.77 0.931-0.918 0.457-2.22 1.13-2.89 1.5-1.6 0.878-1.78 0.875-1.89-0.0308l-0.0393-0.323-0.397-0.351v-0.286-0.286l-0.142-0.093c-0.0781-0.0511-0.154-0.093-0.168-0.093-0.0145 0-0.213 0.24-0.442 0.533-1.15 1.47-2.49 2.45-3.86 2.81l-0.488 0.129-1.44 8e-3 -0.403-0.106c-1.23-0.325-2.32-1.12-3.12-2.29-0.316-0.462-0.255-0.478-0.9 0.24-2.44 2.71-5.93 5.05-10.7 7.13-0.999 0.44-1.06 0.453-1.26 0.28zm-0.904-5.41c-0.0408-0.275-0.0959-0.487-0.122-0.471-0.0532 0.0329-0.0153 0.451 0.0854 0.943l0.0649 0.317 0.0232-0.144c0.0128-0.0792-0.0102-0.369-0.051-0.645zm-0.258-2.02c-0.0873-0.451-0.198-0.675-0.198-0.399 0 0.19 0.169 1.32 0.215 1.43 0.0918 0.225 0.0797-0.531-0.0164-1.03zm0.746-0.633c-0.0941-0.165-0.221-0.273-0.32-0.273-0.13 0-0.134 0.0505-0.0166 0.218 0.0957 0.137 0.413 0.189 0.337 0.056zm0.464-0.556 0.102-0.225-0.111-0.327-0.109 0.0199c-0.142 0.0258-0.186 0.0755-0.0948 0.108 0.103 0.0369 0.0888 0.155-0.0386 0.312l-0.111 0.136 0.0907 0.101c0.128 0.143 0.158 0.129 0.272-0.125zm-1.32-0.323c0.0174-0.0695 0.0233-0.214 0.0131-0.32l-0.0186-0.194-0.444-0.124 0.21-0.184c0.23-0.202 0.268-0.215 0.361-0.121 0.0887 0.0887 0.292 0.0113 0.336-0.128 0.024-0.0757 0.0031-0.141-0.0598-0.187l-0.0968-0.0708 0.176-0.146 0.241 0.129 0.162-0.115c0.0891-0.0634 0.195-0.155 0.236-0.204 0.0406-0.049 0.123-0.0891 0.182-0.0891h0.108v-0.144c0-0.145 0.0784-0.192 0.144-0.0864 0.0976 0.158 0.188 0.0455 0.188-0.233 0-0.344 0.0203-0.375 0.182-0.275 0.0843 0.0523 0.135 0.0569 0.164 0.0148 0.0579-0.0854 0.314-0.0749 0.407 0.0168l0.0777 0.0763-0.0777 0.0991c-0.0427 0.0545-0.103 0.117-0.134 0.139-0.0308 0.022-0.0382 0.0578-0.0165 0.0795 0.0705 0.0705 0.439-0.284 0.409-0.393-0.0339-0.123-0.0255-0.123 0.199-0.0112l0.179 0.0895 0.117-0.0628c0.0645-0.0345 0.117-0.0844 0.117-0.111 0-0.0264 0.0972-0.0641 0.216-0.0837l0.216-0.0356 0.142 0.191 0.106-0.0961c0.0584-0.0529 0.169-0.0965 0.246-0.097 0.192-1e-3 0.268-0.06 0.314-0.244 0.0218-0.0868 0.0664-0.158 0.0991-0.158 0.0618 0 0.0376-0.654-0.0722-1.96-0.222-2.63-0.262-2.39 0.449-2.73 3.91-1.87 4.21 2.23 0.37 5.12l-0.534 0.401 0.118 0.0187c0.0682 0.0108 0.311-0.105 0.574-0.273 0.25-0.161 0.511-0.292 0.58-0.292 0.0846 0 0.114-0.0265 0.0927-0.0828-0.032-0.0833 0.384-0.551 0.491-0.551 0.03 0 0.106 0.0274 0.168 0.0608l0.114 0.0608 0.175-0.147c0.0962-0.0809 0.208-0.147 0.248-0.147 0.0402 0 0.156-0.0413 0.257-0.0918l0.184-0.0918-0.0648-0.0781c-0.16-0.192 0.254-0.543 0.535-0.453l0.111 0.0353 0.187-0.193c0.103-0.106 0.282-0.281 0.398-0.388s0.211-0.217 0.211-0.245c0-0.0272 0.0398-0.0495 0.0884-0.0495 0.0486 0 0.152-0.0419 0.23-0.0931s0.194-0.0795 0.257-0.063c0.0632 0.0165 0.13 7e-3 0.147-0.0221 0.0626-0.101 0.141-0.0504 0.141 0.0918v0.144h0.115c0.0633 0 0.115-0.0354 0.115-0.0786 0-0.0982 0.232-0.399 0.275-0.357 0.0173 0.0173-0.0147 0.0825-0.0711 0.145-0.131 0.145-0.0803 0.277 0.125 0.324 0.0884 0.0206 0.192 0.077 0.231 0.125l0.0702 0.088 0.0557-0.146c0.0306-0.0805 0.139-0.188 0.241-0.239 0.212-0.106 0.244-0.113 0.201-0.0416-0.0173 0.028 0.0201 0.116 0.083 0.196 0.0629 0.08 0.114 0.185 0.114 0.234 0 0.142 0.104 0.166 0.172 0.0384l0.0628-0.117-0.193-0.407 0.108-0.0821c0.179-0.135 0.335-0.0529 0.165 0.0875-0.126 0.105-0.105 0.172 0.0554 0.172 0.0776 0 0.167-0.0453 0.2-0.101 0.0367-0.063 0.0593-0.0724 0.0604-0.0249 0.0026 0.111 0.194 0.0343 0.406-0.163 0.0989-0.0924 0.269-0.185 0.378-0.205 0.109-0.0204 0.212-0.0606 0.23-0.0891 0.0177-0.0286 0.0576-0.0363 0.0886-0.0171 0.0338 0.0209 0.0553-0.0654 0.0534-0.215-0.0017-0.137 0.0192-0.405 0.0465-0.595 0.105-0.732-0.0303-1.56-0.398-2.45l-0.228-0.547-0.359-0.419c-0.686-0.801-1.73-1.28-2.8-1.28-0.435 0-0.412-0.0705 0.239-0.737 2.04-2.09 3.25-4.13 3.68-6.23l0.136-0.662-0.0211-1.78-0.165-0.547c-0.862-2.86-3.89-3.76-8.08-2.41-1.33 0.431-2.41 0.912-5.86 2.61l-1.86 0.915 0.038 0.175c0.0209 0.0963 0.0518 0.268 0.0686 0.381l0.0305 0.206-0.409 0.215c-0.225 0.118-0.409 0.229-0.409 0.245 0 0.223 0.375 2.14 0.43 2.2 0.041 0.0426 0.213 0.0944 0.383 0.115l0.308 0.0377 0.0184 0.0958c0.0107 0.0558-0.0297 0.111-0.0968 0.132l-0.115 0.0366-0.0176 0.242c-0.0235 0.324 0.13 0.535 0.515 0.706 0.253 0.112 0.426 0.321 0.259 0.311-0.185-0.0109-0.603-0.165-0.662-0.244l-0.0726-0.0975-0.297 0.0791c-0.377 0.1-2.03 1.11-2.03 1.24 0 0.0276 0.168 0.143 0.374 0.256l0.374 0.206 0.518-0.071v0.11c0 0.0664-0.0792 0.153-0.2 0.218-0.11 0.0593-0.241 0.153-0.292 0.209l-0.0916 0.101 0.143 0.279c0.0788 0.154 0.179 0.327 0.222 0.384l0.0791 0.105 0.343-0.198c1.72-0.992 1.94-1.06 1.5-0.488l-0.193 0.253 0.121 0.0533c0.18 0.0792 0.185 0.242 0.0107 0.321l-0.148 0.0675 8.82e-4 0.264c0.0011 0.324 0.0221 0.355 0.335 0.493l0.25 0.11 0.351-0.0941c0.386-0.104 0.467-0.0885 0.415 0.0771-0.0584 0.184 0.0308 0.347 0.237 0.433 0.198 0.0829 0.27 0.253 0.107 0.253-0.161 0-0.536-0.226-0.574-0.347l-0.0378-0.119-0.268 0.0402c-0.324 0.0485-0.643 0.283-0.643 0.472-1e-6 0.0728 0.0384 0.474 0.0854 0.892s0.267 2.42 0.49 4.45 0.411 3.72 0.419 3.77c0.0078 0.0461 0.0788 0.0991 0.158 0.118 0.259 0.0612 0.199 0.2-0.185 0.425-0.199 0.117-0.427 0.262-0.505 0.321l-0.143 0.109 0.143 0.139c0.0784 0.0764 0.212 0.229 0.296 0.34l0.153 0.201h0.358zm-0.116-1.62c-0.0185-0.0481-0.0336-0.174-0.0336-0.28v-0.193l0.113-0.0357c0.176-0.0558 0.406 0.126 0.406 0.321v0.165l-0.158 0.0347c-0.0871 0.0191-0.189 0.0438-0.226 0.055-0.037 0.0112-0.0823-0.019-0.101-0.0671zm7.49-2.14c-0.3-0.0192-0.33-0.0577-0.163-0.208l0.11-0.0999 0.11 0.059c0.325 0.174 0.302 0.272-0.0575 0.249zm0.341-0.655c-0.018-0.0689-0.011-0.164 0.0155-0.211l0.0482-0.0862 0.0906 0.175c0.0499 0.0964 0.0744 0.192 0.0546 0.211-0.0751 0.0751-0.177 0.0315-0.209-0.0891zm-3.52-8.07c-0.0283-0.17-0.157-1.82-0.237-3.04-0.0176-0.269-0.0453-0.559-0.0614-0.645l-0.0293-0.155-0.193-0.0637c-0.106-0.035-0.222-0.0985-0.257-0.141l-0.0642-0.0773 0.0914-0.0914c0.364-0.364 1.5-0.907 2.14-1.02l0.409-0.0711 0.3 0.0719c1.64 0.393 0.921 2.9-1.42 4.97-0.566 0.5-0.629 0.525-0.673 0.26zm-6.57-5.86-0.104-0.115h0.0867c0.141 0 0.449 0.122 0.449 0.178 0 0.0994-0.328 0.0514-0.432-0.0632zm17.2 12.5c0.0449-0.119 0.049-0.214 0.012-0.283-0.0305-0.057-0.0555-0.16-0.0555-0.229v-0.125l-0.0911 0.0349c-0.0501 0.0192-0.102 0.035-0.115 0.035-0.0353 0-0.0282 0.342 0.0122 0.586 0.0411 0.249 0.139 0.241 0.238-0.0192zm4.16-0.142c0.484-0.194 1.33-1.32 1.7-2.24 0.087-0.222 0.195-0.474 0.239-0.561l0.081-0.158h0.164c0.0903 0 0.196-0.0389 0.236-0.0864 0.081-0.0976 0.23-0.116 0.23-0.0288 0 0.107 0.183 0.0583 0.213-0.057l0.03-0.115 0.13 0.0325c0.0855 0.0214 0.141 3e-3 0.163-0.055 0.0185-0.0481 0.126-0.105 0.238-0.126 0.112-0.0211 0.205-0.0679 0.206-0.104 2e-3 -0.0845 0.473-0.44 0.583-0.44 0.046 0 0.111-0.0277 0.145-0.0616 0.0729-0.0729 0.48-0.011 0.48 0.0731 0 0.0327 0.0903 0.0418 0.216 0.0218 0.245-0.0391 0.337 3e-3 0.368 0.168 0.0131 0.0692 0.0675 0.115 0.136 0.115 0.0629 0 0.153 0.0372 0.201 0.0828l0.0864 0.0828 0.0476-0.313c0.0262-0.172 0.0699-0.369 0.0972-0.437l0.0496-0.124 0.468 0.045-8.8e-4 -0.128-8.8e-4 -0.128-0.12 0.173 0.0209-0.115c0.0115-0.0633 0.0498-0.109 0.0852-0.102 0.0866 0.0175 0.147-0.283 0.141-0.702-3e-3 -0.233 0.0125-0.317 0.0488-0.259l0.0536 0.0848 8.9e-4 -0.183c4.8e-4 -0.101 0.0274-0.253 0.0599-0.339 0.204-0.536 0.35-3.44 0.235-4.68-0.378-4.09-1.98-6.9-4.31-7.56l-0.449-0.127-1.44 8e-3 -0.452 0.121c-1.6 0.429-3.13 1.72-4.37 3.7l-0.328 0.522 0.0012 0.672c0.0041 2.36-0.905 5.41-2.06 6.91l-0.195 0.254-5.01e-4 0.206c-2.75e-4 0.114-0.0165 0.34-0.0361 0.503l-0.0356 0.296 0.206 0.0976c0.685 0.325 1.64 2.02 1.82 3.24 0.107 0.712 0.119 0.758 0.203 0.758 0.0453 0 0.123 0.062 0.173 0.138 0.061 0.0931 0.127 0.128 0.203 0.108l0.113-0.0294v0.116c0 0.0636 0.0389 0.131 0.0864 0.149 0.0475 0.0182 0.0864 0.0728 0.0864 0.121 0 0.0536 0.0519 0.0882 0.132 0.0882 0.0728 0 0.162 0.0292 0.197 0.0648 0.078 0.078 0.409 0.0259 0.566-0.0891l0.11-0.0804-0.104-0.115c-0.124-0.137-0.0691-0.186 0.237-0.211 0.117-0.01 0.252-0.0311 0.3-0.0471 0.0475-0.0161 0.129-0.0426 0.18-0.059 0.0516-0.0164 0.128 5.5e-4 0.17 0.0377l0.0762 0.0675-0.0632-0.0864c-0.124-0.169-0.306-0.912-0.368-1.5-0.293-2.79 1.12-6.9 2.66-7.73l0.307-0.167h0.327c2.58 0 1.55 8.86-1.17 10.1-0.498 0.226-0.946 0.125-1.42-0.32l-0.287-0.268 0.0233 0.121c0.0128 0.0667 0.0438 0.154 0.0689 0.193 0.0251 0.0395 0.046 0.0914 0.0464 0.115 0.0012 0.0588 0.332 0.256 0.657 0.393l0.265 0.111 0.302-0.0295c0.166-0.0162 0.406-0.071 0.533-0.122zm-0.218-0.986c1.02-0.79 2-3.82 1.93-5.97l-0.0177-0.575-0.104-0.02c-0.0684-0.0131-0.237 0.117-0.49 0.378l-0.386 0.398-0.325 0.629c-0.783 1.52-1.29 3.58-1.17 4.75 0.0645 0.619 0.184 0.708 0.558 0.417zm29.8-0.691c-0.0723-0.459-0.191-0.582-0.139-0.144 0.0331 0.278 0.141 0.624 0.182 0.584 0.0124-0.0124-7e-3 -0.21-0.0431-0.44zm0.501-2.43 0.267-0.413 0.222 0.0704 0.0962-0.147c0.0529-0.0807 0.126-0.147 0.162-0.147 0.0362 0 0.0969-0.0497 0.135-0.11 0.0453-0.0725 0.109-0.0999 0.187-0.0797 0.0647 0.0169 0.118 8e-3 0.118-0.0191 0-0.0722 0.313-0.0614 0.409 0.0141 0.225 0.178 0.469 0.142 0.538-0.0784 0.0222-0.0712 0.0863-0.13 0.142-0.13 0.118 0 0.248 0.245 0.199 0.374-0.0184 0.0479-5e-3 0.0871 0.0303 0.0871 0.035 0 0.0637-0.0343 0.0637-0.0763 0-0.0469 0.0721-0.0778 0.187-0.0802 0.103-2e-3 0.278-0.0163 0.389-0.0315l0.202-0.0276 4e-3 -0.546-0.112-0.0415c-0.0743-0.0275-0.0898-0.0554-0.046-0.0824 0.0364-0.0225 0.125-8e-3 0.197 0.0315 0.0719 0.0399 0.152 0.0662 0.179 0.0586 0.0265-8e-3 0.0618 0.0384 0.0785 0.102 0.0167 0.0639 0.118 0.17 0.225 0.237 0.107 0.0663 0.195 0.143 0.195 0.17 0 0.027 0.0897 0.0816 0.199 0.121 0.11 0.0397 0.207 0.113 0.217 0.162l0.0177 0.09 0.208-0.207c0.114-0.114 0.25-0.223 0.301-0.243 0.0513-0.0197 0.0933-0.0625 0.0933-0.0952 0-0.137 0.111-0.044 0.174 0.146 0.0975 0.295 0.575 0.414 0.67 0.167 0.0306-0.0798-0.114-0.398-0.252-0.556l-0.0858-0.0979-0.139 0.0913c-0.0767 0.0502-0.146 0.0813-0.153 0.0691-0.0541-0.0872-0.167-0.443-0.166-0.52 6e-3 -0.289-0.762-0.612-1.57-0.661l-0.524-0.0315-0.571 0.148c-1.09 0.283-2.12 1.07-2.67 2.06l-0.25 0.443 0.09 0.783 0.0782-0.591zm4.02-1.46c-0.0765-0.163-0.0839-0.389-0.0128-0.389 0.0297 0 0.054 0.0357 0.054 0.0793 0 0.114 0.152 0.231 0.2 0.153 0.0415-0.0672 0.145-0.0263 0.145 0.0573 0 0.0288-0.0355 0.0388-0.0788 0.0221-0.0468-0.0179-0.0914 0.0179-0.11 0.0882-0.0405 0.155-0.122 0.15-0.198-0.0111zm-1.23-0.268c0-0.0358-0.0648-0.0946-0.144-0.131-0.261-0.119-0.128-0.274 0.238-0.277 0.111-7.1e-4 0.312 0.304 0.245 0.371-0.0655 0.0655-0.339 0.0951-0.339 0.0366zm-23.2 1.39c0.0581-0.0112 0.127 0.0138 0.153 0.0557l0.047 0.076 0.0395-0.103c0.0217-0.0567 8e-3 -0.162-0.0311-0.235l-0.0707-0.132 0.293-0.293 0.0667 0.0803c0.0367 0.0442 0.0508 0.144 0.0313 0.221l-0.0353 0.141 0.13 0.0417c0.25 0.0805 0.384 0.0725 0.412-0.0248 0.0468-0.159 0.0585-0.695 0.0161-0.737-0.0799-0.0799-0.0427-0.668 0.0465-0.734 0.0514-0.0382 0.101-0.207 0.123-0.418 0.0818-0.792 0.407-0.452 0.653 0.684 0.0794 0.366 0.24 0.757 0.283 0.691 0.0193-0.0297 0.158-0.0674 0.309-0.0839l0.274-0.03v0.171l0.158-0.0393c0.0871-0.0216 0.167-0.0633 0.178-0.0926 0.0457-0.127 0.123-0.0389 0.0884 0.1l-0.0385 0.153 0.109-0.0477c0.0602-0.0262 0.181-0.0531 0.268-0.0599 0.0871-7e-3 0.184-0.0154 0.216-0.0194 0.0318-4e-3 0.0512-0.0914 0.0432-0.194l-0.0146-0.187 0.13-0.0184c0.0713-0.0101 0.13-0.0413 0.13-0.0693 0-0.0912 0.368-0.22 0.619-0.217l0.245 3e-3v0.104c0 0.0571 0.0262 0.12 0.0583 0.14 0.0759 0.0469 0.517-0.399 0.517-0.523v-0.0949l0.144 0.0361c0.142 0.0357 0.172-2e-3 0.147-0.185-6e-3 -0.0436 0.0397-0.0254 0.108 0.0432 0.0651 0.0651 0.118 0.17 0.118 0.234 0 0.146 0.15 0.15 0.228 5e-3 0.0389-0.0727 0.0981-0.0997 0.175-0.0797l0.116 0.0303 0.072-0.167c0.0505-0.117 0.105-0.16 0.182-0.145 0.0603 0.012 0.133-0.0197 0.161-0.0704 0.0583-0.104 0.219-0.126 0.219-0.0293 0 0.0346-0.0518 0.0765-0.115 0.0931-0.137 0.0357-0.149 0.147-0.0284 0.247l0.0868 0.072 0.151-0.151c0.0832-0.0832 0.174-0.151 0.201-0.151 0.0273 0 0.0497-0.055 0.0497-0.122v-0.122l-0.0844 0.0701c-0.0464 0.0385-0.118 0.0577-0.158 0.0427-0.0434-0.0161-9e-3 -0.0534 0.0844-0.0904 0.0871-0.0347 0.158-0.0896 0.158-0.122 0-0.104 0.101-0.0628 0.131 0.0543l0.0296 0.113 0.365-0.025-0.0768-0.665 0.0874-0.133c0.0531-0.081 0.113-0.403 0.152-0.819 0.541-5.74 0.819-8.39 1.24-11.9 0.0465-0.38 0.109-0.95 0.139-1.27 0.03-0.317 0.0816-0.715 0.115-0.886 0.033-0.171 0.06-0.32 0.06-0.331 0-0.0552-0.188-8e-3 -0.468 0.118-0.17 0.0763-1.19 0.519-2.27 0.984s-1.98 0.864-2 0.887c-0.0244 0.0233-0.0633 2.32-0.0864 5.11-0.0254 3.07-0.0631 5.06-0.0957 5.06-0.0657 0-0.143-0.3-0.579-2.25-0.28-1.25-0.394-1.76-0.55-2.45-0.0969-0.428-0.264-1.19-0.372-1.7-0.108-0.507-0.291-1.32-0.406-1.81-0.116-0.491-0.251-1.11-0.3-1.37l-0.0903-0.479-0.143 0.036c-0.292 0.0734-2.77 1.08-4.36 1.77l-0.979 0.426-0.0183 0.599c-0.0101 0.329 0.0107 0.969 0.0463 1.42l0.0646 0.822 0.175 0.387c0.278 0.616 0.673 2.08 0.841 3.12l0.154 0.955-4e-3 3.86-0.125 0.806c-0.0688 0.443-0.125 0.888-0.125 0.988l-1.3e-4 0.182 0.124-0.0324c0.0783-0.0205 0.149 3e-3 0.193 0.063 0.0383 0.0524 0.165 0.16 0.282 0.24l0.213 0.144 0.115-0.0617c0.0634-0.0339 0.146-0.0488 0.184-0.033 0.0387 0.0161 0.0122 0.0459-0.0608 0.068-0.129 0.0393-0.168 0.111-0.0864 0.161 0.1 0.0613 0.388 0.0621 0.377 1e-3 -7e-3 -0.0355 0.0387-0.11 0.101-0.167 0.0621-0.0562 0.113-0.17 0.113-0.253v-0.151l0.144-0.0119c0.0944-8e-3 0.144 0.0176 0.144 0.0738 0 0.0472-0.0259 0.0857-0.0576 0.0857-0.0772 0-0.0738 0.214 4e-3 0.262 0.0386 0.0239 0.017 0.0696-0.0577 0.122l-0.12 0.0837 0.202 0.27 0.0313-0.124c0.0172-0.0681 0.0789-0.133 0.137-0.144zm25 0.0221c-0.0314-0.0942-0.164-0.0701-0.234 0.0425l-0.0639 0.102 0.173 0.11 0.0727-0.0974c0.04-0.0536 0.0638-0.124 0.0528-0.157zm-6.43-0.377c0.0357-0.0667 0.121-0.115 0.202-0.115 0.0798 0 0.166-0.0483 0.2-0.112l0.0602-0.112-0.198-0.0372c-0.2-0.0375-0.345 3e-3 -0.296 0.083 0.0147 0.0238-0.0233 0.126-0.0846 0.226l-0.111 0.183h0.0835c0.0459 0 0.111-0.0518 0.145-0.115zm-2.5-0.763 0.0568-0.13 0.236-4e-3c0.136-2e-3 0.377-0.0723 0.568-0.166l0.332-0.162 0.0466 0.0794c0.169 0.288 0.381 0.511 0.484 0.511 0.264-7.1e-4 0.55-0.125 0.667-0.29 0.0668-0.0939 0.152-0.171 0.19-0.172 0.0374-7.1e-4 0.128-0.0475 0.201-0.104l0.133-0.103-0.141-0.31h-0.157c-0.19 0-0.247-0.152-0.151-0.406l0.0659-0.175-0.155-0.3c-0.0854-0.165-0.457-0.922-0.825-1.68s-0.809-1.66-0.979-2.01l-0.309-0.625 0.122-0.239c0.273-0.535 2.17-3.81 3.21-5.54 0.61-1.01 1.25-2.08 1.41-2.37 0.167-0.29 0.371-0.626 0.454-0.747 0.197-0.29 0.191-0.322-0.0804-0.475-0.263-0.148-0.279-0.229-0.119-0.604l0.112-0.261-0.483-0.035 0.0135-0.129c7e-3 -0.0707 0.0904-0.29 0.184-0.487 0.209-0.44 0.214-0.435-0.308-0.312l-0.426 0.1-0.48 0.471 0.0758 0.551-0.163 0.0845c-0.0898 0.0465-0.213 0.14-0.275 0.207l-0.111 0.123 0.204 0.788-0.0989 0.194c-0.124 0.244-0.122 0.242-0.193 0.198-0.0405-0.025-0.0406-0.0856-1.3e-4 -0.192l0.0591-0.155-0.0692-0.247c-0.0861-0.307-0.125-0.332-0.351-0.219-0.0995 0.0496-0.218 0.0902-0.263 0.0902-0.154 0-0.0439-0.201 0.164-0.299 0.119-0.056 0.301-0.228 0.426-0.402l0.219-0.305-0.013-0.285c-0.0179-0.393 9e-3 -0.385-0.682-0.198-0.341 0.0925-0.749 0.196-0.907 0.231-0.158 0.0344-0.318 0.0866-0.355 0.116-0.0818 0.0656-1.54 2.86-2.86 5.46-0.536 1.06-1 1.96-1.03 2-0.083 0.101-0.149 0.0414-0.126-0.113 0.0994-0.659 0.255-1.57 0.542-3.18 0.186-1.05 0.381-2.19 0.432-2.53 0.087-0.587 0.273-1.46 0.356-1.68l0.0357-0.0931-0.175 0.035c-0.178 0.0357-1.53 0.619-4.12 1.78l-0.389 0.174v0.246c0 0.136-0.026 0.436-0.0577 0.668-0.0655 0.479-0.583 5.05-0.718 6.34-0.126 1.21-0.355 3.9-0.439 5.17l-0.0709 1.07 0.168 0.147c0.0922 0.0811 0.201 0.148 0.241 0.149 0.0406 1e-3 0.0891 0.0416 0.108 0.0903 0.0187 0.0487 0.11 0.128 0.204 0.176 0.0935 0.0484 0.205 0.17 0.247 0.271l0.0768 0.183 0.81 0.016 0.0578-0.166c0.0318-0.0912 0.0949-0.166 0.14-0.166 0.0453 0 0.115-0.0392 0.155-0.0871l0.0723-0.0871 0.0732 0.0608c0.108 0.0895 0.353 8e-3 0.458-0.153 0.0506-0.0772 0.117-0.125 0.147-0.106 0.0304 0.0188 0.198-0.11 0.371-0.287l0.316-0.321 0.0584-0.704c0.0321-0.387 0.0735-0.894 0.0919-1.13 0.0235-0.295 0.0591-0.431 0.119-0.454 0.148-0.0566 0.187 0.0204 0.68 1.34 0.0712 0.19 0.169 0.436 0.216 0.547 0.0479 0.111 0.136 0.357 0.196 0.547l0.109 0.345 0.32-0.0336-0.072 0.287 0.144 0.144c0.0795 0.0795 0.214 0.162 0.298 0.183l0.154 0.0385 0.166-0.123c0.0912-0.0674 0.193-0.123 0.226-0.123 0.0329 0 0.0607-0.0324 0.0617-0.072 1e-3 -0.0404 0.0418-0.0215 0.093 0.0432 0.0631 0.0798 0.0994 0.0931 0.118 0.0432 0.0427-0.114 0.164-0.0839 0.241 0.0598l0.0705 0.132-0.0571 0.15c-0.091 0.239 0.0927 0.324 0.195 0.0901zm4.58-0.48c0.0418-0.0504 0.242-0.21 0.444-0.354l0.368-0.263-0.0824-1.05-0.346-0.395 0.0856-6.85-0.0622 0.0214c-0.0932 0.0321-1.99 3.17-2.6 4.28l-0.187 0.345 1.07 2.17c1.05 2.14 1.14 2.28 1.3 2.08zm1.99-2.73c0.379-0.0864 2.47-0.341 2.8-0.341 0.0494 0 0.114-0.136 0.171-0.36 0.0862-0.339 0.594-2.51 0.853-3.64 0.0651-0.285 0.19-0.802 0.277-1.15l0.159-0.631-0.116-0.157c-0.17-0.23-0.111-0.292 0.446-0.473l0.504-0.164-0.324-0.327c-0.358-0.362-0.386-0.441-0.191-0.531l0.133-0.0606 0.129-0.66c0.0707-0.363 0.112-0.686 0.0918-0.719-0.0202-0.0327 3e-5 -0.103 0.045-0.157 0.045-0.0534 0.179-0.525 0.299-1.05 0.282-1.23 1.13-4.84 1.42-6.01 0.123-0.503 0.21-0.937 0.193-0.964-0.0743-0.12-2.37-0.0237-4.31 0.182-2.18 0.23-3.11 0.354-3.15 0.42-0.0717 0.113-0.0536 1.85 0.0201 1.92l0.0649 0.0649-0.0719 0.381c-0.0802 0.425-0.0745 0.439 0.214 0.52 0.113 0.0317 0.233 0.102 0.267 0.155l0.0617 0.0978-0.249 0.535c-0.137 0.295-0.261 0.59-0.276 0.656l-0.0271 0.12 0.192 0.0761c0.269 0.106 0.401 0.232 0.364 0.347-0.017 0.0536 9e-3 0.13 0.0568 0.17 0.144 0.12 0.107 0.246-0.34 1.17l-0.428 0.879-0.0626 4.23c-0.0344 2.33-0.0623 4.55-0.0619 4.94l7.2e-4 0.704 0.187-0.0331c0.103-0.0182 0.4-0.0816 0.66-0.141zm-53.4-0.88 0.0645-0.0777-0.0905-0.181c-0.103-0.207-0.162-0.218-0.484-0.0887-0.404 0.162-0.263 0.413 0.236 0.422 0.115 2e-3 0.238-0.0313 0.273-0.0741zm32.8 23.1-0.133-0.108 0.15-1.87-0.0781-0.0491c-0.043-0.027-0.389-0.181-0.769-0.343-1.06-0.452-1.22-0.795-0.461-1.03 0.745-0.235 1.52-0.537 1.55-0.601 0.0157-0.0408 0.101-0.506 0.189-1.03l0.16-0.959 0.106-0.114c0.264-0.283 0.371-0.195 0.988 0.822 0.245 0.404 0.458 0.734 0.474 0.734 0.0152 0 0.417-0.104 0.892-0.23 1.65-0.439 1.75-0.263 0.649 1.12l-0.667 0.839 0.351 0.946c0.395 1.06 0.397 1.08 0.23 1.24l-0.121 0.121-0.155-0.0309c-0.085-0.017-0.502-0.192-0.926-0.39l-0.772-0.359-0.674 0.701c-0.705 0.733-0.763 0.768-0.979 0.593zm1.03-1.48 0.422-0.439 0.193 0.0314c0.106 0.0173 0.429 0.141 0.717 0.275 0.629 0.292 0.626 0.294 0.414-0.241-0.0927-0.234-0.214-0.573-0.27-0.753l-0.102-0.328 0.239-0.306c0.131-0.168 0.359-0.456 0.505-0.64 0.337-0.423 0.347-0.419-0.481-0.205-0.764 0.198-0.836 0.193-0.981-0.0697-0.247-0.448-0.604-1.04-0.619-1.02-9e-3 9e-3 -0.0578 0.263-0.108 0.564-0.0505 0.301-0.12 0.668-0.154 0.816l-0.0622 0.269-0.514 0.206c-0.283 0.113-0.538 0.206-0.567 0.206-0.0294 0-0.126 0.0282-0.216 0.0626l-0.162 0.0626 0.317 0.165c0.174 0.0907 0.441 0.207 0.592 0.259 0.152 0.052 0.314 0.153 0.361 0.224l0.0852 0.13-0.0574 0.397c-0.13 0.9-0.113 0.913 0.446 0.333zm13.3-2.65c-1.04-1.16-2.14-2.4-2.45-2.74-0.852-0.955-0.771-0.949 0.504 0.0374 0.974 0.753 2.3 1.83 3.45 2.79 0.507 0.425 1.03 0.865 1.17 0.977 0.145 0.121 0.245 0.254 0.245 0.326 0 0.145-0.724 0.719-0.907 0.719h-0.12zm2.24-2.28c-1.52-1.01-2.48-1.69-2.43-1.7 0.166-0.035 4.13 1.84 5.17 2.45 0.463 0.27 0.491 0.374 0.185 0.696-0.312 0.328-0.144 0.412-2.93-1.45zm-52.9-5.36c-0.947-0.9-1.54-2.08-1.78-3.53l-0.0942-0.573 0.0302-0.72c0.0471-1.12 0.428-2.28 0.898-2.73 0.247-0.236 0.271-0.16 0.0908 0.29-0.0855 0.214-0.222 0.636-0.303 0.94l-0.147 0.551-0.0092 2.02 0.134 0.6c0.255 1.14 0.704 2.14 1.36 3.01 0.206 0.274 0.375 0.514 0.375 0.533 0 0.102-0.16-9e-3 -0.554-0.383zm1.25-0.425c-0.745-0.67-1.26-1.71-1.48-2.96l-0.0936-0.547 0.0395-0.51c0.0639-0.824 0.323-1.59 0.537-1.59h0.0833l-0.0363 0.245c-0.132 0.887-0.156 1.22-0.122 1.68 0.094 1.28 0.459 2.36 1.16 3.4 0.432 0.647 0.407 0.723-0.0891 0.276zm62.8-3.6c0-0.0429 0.0505-0.31 0.112-0.594 0.423-1.94 0.233-3.88-0.515-5.24-0.349-0.636-0.281-0.734 0.179-0.257 1.12 1.16 1.36 3.86 0.512 5.74-0.156 0.346-0.289 0.508-0.289 0.354zm1.38-0.33c0-0.0385 0.0576-0.333 0.128-0.655l0.128-0.585-4e-3 -2.71-0.183-0.69c-0.101-0.38-0.304-0.943-0.453-1.25-0.305-0.636-0.295-0.747 0.0345-0.4 0.977 1.03 1.39 3.3 0.926 5.1-0.125 0.491-0.375 1.09-0.498 1.19l-0.0789 0.0655zm-62.8-16.7c-0.122-0.135-0.119-0.247 0.0405-1.38l0.132-0.943-0.0619-0.0533c-0.034-0.0293-0.459-0.276-0.943-0.547-1.47-0.825-1.44-1.01 0.248-1.37 1.19-0.258 1.07-0.117 1.35-1.49 0.255-1.24 0.308-1.36 0.612-1.36h0.189l0.11 0.158c0.0604 0.0871 0.325 0.566 0.588 1.07l0.478 0.907h0.132c0.0728 0 0.604-0.0767 1.18-0.17l1.05-0.17 0.121 0.0638c0.403 0.212 0.354 0.306-0.878 1.68l-0.596 0.667 0.233 0.619c0.128 0.34 0.338 0.896 0.467 1.23 0.268 0.707 0.274 0.755 0.118 0.911-0.189 0.189-0.319 0.143-1.39-0.489-0.973-0.575-1.21-0.676-1.29-0.548-0.0193 0.0312-0.359 0.342-0.756 0.691l-0.721 0.634h-0.16c-0.088 0-0.203-0.0474-0.255-0.105zm0.803-1.05c0.147-0.165 1.18-1.03 1.23-1.03 0.0215 0 0.18 0.0892 0.353 0.198 0.173 0.109 0.442 0.268 0.599 0.352 0.157 0.0848 0.384 0.22 0.505 0.3 0.28 0.185 0.311 0.149 0.168-0.197-0.35-0.846-0.583-1.47-0.583-1.57 0-0.112 0.47-0.701 1-1.25l0.29-0.302-0.171 5.9e-4c-0.0939 3.3e-4 -0.465 0.0522-0.825 0.115-0.36 0.063-0.717 0.115-0.793 0.115h-0.138l-0.157-0.248c-0.0864-0.137-0.298-0.525-0.471-0.862s-0.324-0.604-0.336-0.591c-0.0122 0.0122-0.108 0.442-0.213 0.954-0.105 0.513-0.226 0.964-0.269 1-0.0767 0.0701-0.889 0.28-1.35 0.348-0.127 0.0189-0.266 0.0555-0.307 0.0813l-0.0759 0.0469 0.192 0.114c0.106 0.0626 0.445 0.252 0.755 0.421l0.563 0.307 0.0348 0.138c0.03 0.12-0.0999 1.17-0.191 1.55-0.0393 0.163 0.0457 0.166 0.188 7e-3zm26.8-0.217c0.0301-0.0286 0.456-0.213 0.947-0.41 4.21-1.69 4.41-2.82 0.547-3.08-1.29-0.0886-4.03 0.267-5.83 0.758-0.265 0.0721-0.117-0.0847 0.242-0.256 2.45-1.17 6.56-1.52 8.31-0.702 1.48 0.692 1.14 1.69-0.918 2.67-1.12 0.536-3.6 1.3-3.3 1.02zm-6.62-0.162c-1.49-0.206-2.2-1.01-1.73-1.95 0.849-1.7 4.9-4.07 8.56-5.01l0.824-0.21 0.726-0.0319c0.871-0.0383 1.02 0.0398 0.354 0.184-4.32 0.933-9.93 4.09-9.94 5.6l-0.0022 0.24 0.144 0.154c0.445 0.477 1.53 0.731 3.42 0.801 1.01 0.0373 1.03 0.0892 0.0955 0.204-0.465 0.057-2.08 0.0693-2.45 0.0186zm-4.15-0.837c-0.128-0.135-1.01-1.16-1.95-2.29-0.946-1.12-2.57-3.04-3.61-4.25-1.04-1.21-1.89-2.25-1.89-2.3 0.0016-0.114 0.944-0.816 1.1-0.816 0.115 0 0.497 0.549 3.25 4.66 2.21 3.31 3.45 5.24 3.35 5.24-0.0082 0-0.12-0.11-0.248-0.245zm19.6-2.59-0.146-0.13-0.0529-1.33c-0.0291-0.734-0.0684-1.36-0.0874-1.39-0.0189-0.0306-0.475-0.229-1.01-0.44-1.03-0.404-1.15-0.477-1.15-0.686 0-0.231 0.132-0.316 1.09-0.7 0.522-0.209 0.978-0.404 1.01-0.434 0.0444-0.0369 0.0789-0.547 0.106-1.57l0.04-1.51 0.103-0.144c0.0639-0.0893 0.171-0.151 0.282-0.162l0.179-0.0178 0.18 0.248c0.0992 0.136 0.466 0.694 0.815 1.24s0.665 1.02 0.703 1.05c0.0465 0.0386 0.39-0.0343 1.07-0.228 1.11-0.314 1.26-0.334 1.4-0.18 0.202 0.223 0.151 0.33-0.988 2.11l-0.182 0.284 0.211 0.379c0.116 0.208 0.401 0.702 0.633 1.1 0.406 0.692 0.449 0.792 0.423 0.981-0.0517 0.371-0.216 0.361-1.5-0.0941-0.594-0.21-1.12-0.368-1.16-0.351-0.0444 0.0171-0.397 0.473-0.783 1.01-0.829 1.16-0.902 1.22-1.18 0.971zm1.12-1.94 0.583-0.806h0.143c0.0788 0 0.24 0.041 0.357 0.091 0.386 0.164 1.47 0.539 1.5 0.516 0.0125-0.0125-0.0541-0.135-0.148-0.271-0.0939-0.137-0.25-0.404-0.348-0.594-0.0975-0.19-0.256-0.462-0.353-0.605-0.261-0.385-0.226-0.481 0.646-1.75l0.233-0.34-0.139 0.0296c-0.0766 0.0163-0.47 0.127-0.874 0.245-0.947 0.278-0.897 0.298-1.45-0.583-0.253-0.401-0.538-0.835-0.633-0.965l-0.172-0.236-0.0378 0.317c-0.0208 0.174-0.0403 0.713-0.0435 1.2l-6e-3 0.881-0.139 0.139c-0.0764 0.0764-0.212 0.157-0.302 0.179-0.219 0.0537-1.19 0.425-1.24 0.476-0.0379 0.0359 0.51 0.269 1.29 0.55 0.382 0.137 0.378 0.127 0.425 1.29 0.0231 0.578 0.0622 1.05 0.087 1.05s0.307-0.363 0.628-0.806zm-20.7 0.878c-0.596-1.49-3.55-9.63-3.53-9.74 0.0173-0.09 0.658-0.32 1.08-0.387l0.22-0.0352 0.0333 0.107c0.0183 0.0589 0.162 0.664 0.319 1.35 0.529 2.29 0.873 3.76 1.45 6.18 0.704 2.95 0.78 3.41 0.426 2.53zm28.1 0.175c0-0.105 0.836-1.19 3.79-4.91 1.22-1.53 1.43-1.78 1.55-1.78 0.0952 0 0.826 0.683 0.826 0.773 0 0.0376-0.679 0.715-1.51 1.5-0.83 0.79-2.15 2.06-2.92 2.82-1.63 1.59-1.73 1.68-1.73 1.6zm-24.1-0.356c0-0.481 3.1-2.35 5.27-3.17 2.19-0.831 4.8-1.16 5.21-0.657l0.0675 0.0813-0.655 2.4e-4c-2.32 8.2e-4 -6.02 1.37-9.21 3.4-0.66 0.421-0.685 0.433-0.685 0.35zm22.6-0.308c0-0.0495 0.417-1.43 1.12-3.7 1.21-3.92 1.72-5.5 1.79-5.52 0.0747-0.0287 0.966 0.321 1.1 0.43 0.112 0.0931 0.163-0.0292-1.23 2.99-0.681 1.47-1.55 3.35-1.92 4.17-0.588 1.28-0.853 1.79-0.853 1.63z" fill="#6bcdf1"/><path d="m89.5 161c-0.463-0.224-0.491-0.121 0.465-1.68 0.453-0.738 1.06-1.74 1.36-2.22 0.509-0.837 0.639-1.02 0.639-0.883 0 0.0949-1.68 4.64-1.79 4.86-0.0764 0.144-0.257 0.123-0.668-0.0767zm-2.74-0.949c-0.407-0.317-0.422-0.281 0.588-1.34 1.98-2.08 3.28-3.38 3.32-3.34 0.0829 0.082-3.4 4.88-3.54 4.88-0.0544 0-0.218-0.0926-0.363-0.206zm-7.57 0.0185c-0.0647-0.0713-0.162-0.316-0.217-0.545-0.0547-0.228-0.136-0.445-0.18-0.482-0.0465-0.0386-0.0808-0.173-0.0808-0.316 0-0.271-0.0666-0.346-0.289-0.322-0.0892 9e-3 -0.239-0.0521-0.386-0.159l-0.24-0.174-0.0325-0.189c-0.0179-0.104-0.0961-0.629-0.174-1.17-0.0777-0.538-0.244-1.67-0.37-2.52l-0.228-1.54-0.205-0.227c-0.234-0.259-0.236-0.271-0.119-0.552 0.0475-0.114 0.0864-0.214 0.0864-0.223 0-9e-3 -0.143-0.2-0.317-0.426l-0.317-0.41v-0.376l0.644-0.629-0.0372-0.489c-0.104-1.37-0.859-8.04-0.916-8.1-0.019-0.019-0.136 0.0111-0.259 0.0668-0.308 0.139-0.424 0.0831-0.63-0.301-0.0972-0.181-0.464-0.796-0.815-1.37-0.421-0.683-0.63-1.08-0.612-1.15 0.0143-0.0633 0.0426-0.168 0.0629-0.232l0.0369-0.117-0.248-0.18c-0.937-0.681-0.926-0.807 0.14-1.59l0.677-0.498 9.84e-4 -0.36c5.4e-4 -0.198 0.0249-0.93 0.0541-1.63 0.0292-0.697 0.0338-1.37 0.0101-1.5-0.0605-0.324-0.0027-0.499 0.209-0.633 0.101-0.0637 0.268-0.169 0.372-0.234l0.189-0.118-0.0148-0.227c-0.0082-0.125 0.0152-0.3 0.0519-0.39l0.0668-0.163 2.02-1.01c3.26-1.63 4.88-2.35 6.29-2.78 3.69-1.14 6.8-0.574 8.26 1.49 0.125 0.177 0.324 0.441 0.442 0.587 0.118 0.146 0.286 0.386 0.372 0.533 0.201 0.343 0.213 0.34 0.54-0.121 2.46-3.48 6.54-4.21 9.19-1.64l0.561 0.544 9e-3 -0.109c5e-3 -0.0602 0.0115-0.4 0.0144-0.755l5e-3 -0.646 0.124-0.125c0.0683-0.0686 0.366-0.227 0.662-0.352 0.698-0.295 3.62-1.51 3.73-1.56 0.0475-0.0181 0.525-0.204 1.06-0.412 1.23-0.478 1.46-0.458 1.55 0.136 0.0576 0.36 0.152 0.521 0.304 0.521 0.202 0 0.333 0.169 0.415 0.536 0.11 0.491 0.18 0.343 0.181-0.381 5.3e-4 -0.402 0.0281-0.698 0.0734-0.788l0.0725-0.143 0.833-0.365c0.458-0.201 1.07-0.467 1.35-0.593 3.76-1.65 4.12-1.72 4.12-0.822 0 0.275 0.0909 0.425 0.257 0.425 0.0758 0 0.182 0.0438 0.235 0.0974l0.0974 0.0974-0.0377 0.416c-0.0468 0.517-0.0435 0.519 0.515 0.273 3.96-1.74 4.11-1.76 4.11-0.646 8.5e-4 0.129 0.0335 0.222 0.0844 0.242 0.0457 0.0175 0.124 0.0939 0.173 0.17l0.0903 0.138-0.0911 0.44c-0.0501 0.242-0.0824 0.499-0.0718 0.571l0.0193 0.13 0.506-0.963c0.623-1.18 0.524-1.11 1.98-1.48 2.3-0.587 2.63-0.682 2.7-0.774 0.0427-0.0584 0.0785-0.493 0.0983-1.19l0.0312-1.1 0.285-0.285 1.32-0.165c2.24-0.282 3.79-0.409 5.36-0.441 1.71-0.0355 1.75-0.0309 1.92 0.243 0.0685 0.111 0.157 0.202 0.197 0.202 0.25 0 0.31 0.294 0.167 0.809l-0.0964 0.347 0.0982 0.0985c0.054 0.0542 0.337 0.282 0.629 0.506l0.531 0.408-5e-3 0.255c-3e-3 0.14-0.435 1.84-0.961 3.77-1.08 3.96-2.96 11-3.32 12.5-0.275 1.1-0.29 1.12-0.839 1.17-0.508 0.0474-0.506 0.0295-0.0392 0.521 0.266 0.28 0.47 0.563 0.593 0.822 0.103 0.217 0.32 0.538 0.482 0.714 0.587 0.637 0.857 1.44 0.855 2.53l-1e-3 0.662-0.144 0.548c-0.706 2.68-3.05 4.27-5.66 3.83l-0.511-0.0865-1.15-0.566-0.349-0.336c-0.192-0.185-0.416-0.427-0.499-0.537l-0.151-0.202-0.168 0.0929c-0.0925 0.0511-0.549 0.388-1.01 0.749-0.466 0.361-0.988 0.758-1.16 0.883l-0.313 0.227-0.318-0.109-0.381-0.777h-0.192c-0.344 0-0.396-0.0979-1-1.87-0.314-0.918-0.604-1.75-0.645-1.84l-0.0738-0.173-0.0458 0.259c-0.0252 0.143-0.0305 1.02-0.0117 1.96l0.0341 1.7-0.216 0.258-0.95 0.284c-1.37 0.41-3.47 1.19-4.22 1.57-0.376 0.189-0.793 0.053-0.794-0.26-1.7e-4 -0.0353-0.0273-0.161-0.0603-0.28l-0.06-0.216h-0.457l-0.762 0.381c-0.419 0.209-1.11 0.572-1.54 0.806-1.02 0.555-1.12 0.543-1.34-0.157l-0.119-0.368-0.212-0.0176c-0.278-0.0232-0.315-0.0767-0.485-0.711-0.676-2.52-0.77-2.84-0.83-2.78-0.0419 0.0431-0.102 1.16-0.195 3.64-0.0281 0.745 0.104 0.626-1.67 1.51-0.832 0.414-2.13 1.09-2.89 1.51-1.78 0.976-1.87 0.982-2.02 0.124-0.0431-0.248-0.108-0.461-0.144-0.473-0.173-0.0577-0.281-0.247-0.281-0.493 0-0.255-0.0713-0.378-0.287-0.493l-0.105-0.0564-0.518 0.65c-2.9 3.64-6.9 3.84-9.18 0.467-0.305-0.453-0.344-0.453-0.737 0.01-2.27 2.67-6.06 5.24-10.8 7.33-1.01 0.444-1.15 0.474-1.33 0.279zm-0.0411-2.99 0.542-0.239 0.055-0.208c0.0708-0.267 0.0862-0.721 0.0346-1.01l-0.0406-0.23 0.148 0.308c0.0816 0.169 0.148 0.368 0.148 0.442 0 0.0847 0.0664 0.182 0.18 0.262l0.18 0.128 1.06-0.537c6-3.04 9.25-6.3 10-10.1l0.126-0.602 0.0042-1.73-0.101-0.461c-0.417-1.9-1.7-3.06-3.58-3.23-0.538-0.0487-0.542-0.0329 0.194-0.794 1.97-2.04 3.14-4.06 3.59-6.2l0.127-0.605-0.0058-1.61-0.152-0.572c-0.905-3.4-4.63-4.17-9.77-2.01-1.33 0.56-6.02 2.83-6.14 2.97l-0.0647 0.0779 0.0772 0.293c0.0941 0.357 0.0904 0.363-0.348 0.583-0.194 0.0975-0.365 0.211-0.379 0.252-0.0278 0.0776 0.315 2.22 0.361 2.25 0.174 0.13 0.366 0.215 0.484 0.215 0.16 0 0.197 0.0834 0.0596 0.136-0.0475 0.0182-0.0864 0.0728-0.0864 0.121 0 0.104-0.0663 0.114-0.156 0.0241l-0.0641-0.0641-0.322 0.147c-0.316 0.145-0.386 0.251-0.276 0.424 0.117 0.185 0.6 0.245 0.806 0.101l0.128-0.0899 0.0355 0.0924c0.0468 0.122 0.0218 0.141-0.253 0.19-0.262 0.0467-2.14 1.21-2.14 1.32-1.93e-4 0.038 0.18 0.186 0.4 0.328l0.4 0.259 0.438-0.0648-0.559 0.524 0.22 0.407c0.282 0.522 0.132 0.557 1.81-0.42 0.389-0.227 0.46-0.182 0.202 0.125-0.174 0.207-0.18 0.279-0.0288 0.327 0.0633 0.0201 0.115 0.0728 0.115 0.117 0 0.0443-0.0518 0.108-0.115 0.142l-0.115 0.0616v0.225c0 0.348 0.0787 0.481 0.37 0.627l0.268 0.134 0.179-0.0626c0.0987-0.0344 0.24-0.0626 0.315-0.0626h0.135v0.234l-0.103-0.0549c-0.152-0.0815-0.543 0.0417-0.789 0.249l-0.21 0.176 1.02 9.37 0.0973 0.0544c0.16 0.0895 0.117 0.147-0.335 0.452-0.499 0.337-0.504 0.352-0.214 0.628 0.12 0.114 0.256 0.266 0.302 0.339 0.0586 0.0917 0.188 0.156 0.424 0.21l0.34 0.0785 0.229-0.0808c0.29-0.102 0.392-0.102 0.353 2.2e-4 -0.0506 0.132 0.239 0.533 0.417 0.578l0.159 0.04-0.0834 0.0527c-0.144 0.091-0.214 0.0607-0.343-0.148-0.262-0.424-0.547-0.43-0.942-0.0191l-0.223 0.232 0.0997 0.758c0.0548 0.417 0.124 0.804 0.153 0.859l0.0534 0.101 0.3-0.0754-0.0459 0.0804c-0.0253 0.0442-0.0976 0.138-0.161 0.208l-0.115 0.128 0.118 0.812c0.13 0.894 0.139 0.919 0.31 0.812 0.183-0.114 0.201-0.0274 0.0523 0.246l-0.136 0.249 0.0344 0.411c0.052 0.62 4.8e-5 0.599 0.708 0.287zm0.715-1.92c0.0316-0.083 0.0574-0.227 0.0574-0.32 0-0.0929 0.0267-0.169 0.0594-0.169 0.107 0 0.119 0.146 0.0297 0.359-0.103 0.247-0.235 0.364-0.146 0.13zm3.03-6.61c-0.0157-0.103-0.0815-0.835-0.146-1.63-0.0648-0.792-0.147-1.79-0.183-2.23-0.0801-0.966-0.102-0.912 0.479-1.19 0.606-0.293 1.11-0.422 1.66-0.426l0.435-3e-3 0.272 0.132c1.45 0.703 0.446 3.42-1.92 5.2-0.507 0.381-0.556 0.393-0.594 0.141zm-0.693-10.1c-0.0311-0.283-0.263-3.42-0.263-3.56 0-0.0346-0.117-0.115-0.26-0.178-0.305-0.135-0.3-0.152 0.15-0.457 0.907-0.616 2-0.895 2.57-0.656 1.35 0.563 0.575 2.89-1.58 4.76-0.542 0.469-0.575 0.474-0.617 0.0865zm14.2 13.7c0.771-0.197 1.68-0.74 2.41-1.43l0.331-0.315v-0.5l-0.348-0.31 0.0115-0.177c0.0063-0.0971 0.0069-0.247 0.0012-0.334l-0.0104-0.157-0.286-0.145c-0.157-0.0797-0.345-0.146-0.417-0.147l-0.131-2e-3 0.214-0.124 0.14 0.064c0.264 0.12 0.492 0.0703 0.845-0.184l0.335-0.242 0.226-0.503c0.23-0.512 0.271-0.7 0.168-0.763-0.0317-0.0196-0.0576-0.0645-0.0576-0.0998s0.0583-0.0117 0.13 0.0524c0.222 0.2 0.26 0.201 0.665 0.0121l0.395-0.184 0.111-0.202c0.127-0.23 0.212-0.25 0.257-0.0574 0.145 0.619 0.698-0.393 1.47-2.69 2.78-8.29 1.02-16.3-3.73-16.9l-0.474-0.0603-0.547 0.0668c-1.94 0.237-3.72 1.59-5.14 3.9l-0.327 0.532-4.72e-4 0.447c-0.0015 1.41-0.43 3.27-0.925 4.02-0.0839 0.127-0.172 0.295-0.196 0.374-0.0238 0.0792-0.0913 0.223-0.15 0.321l-0.107 0.177 0.0889 0.127c0.182 0.26 0.018 0.575-0.239 0.458l-0.155-0.0706-0.137 0.159c-0.0754 0.0877-0.137 0.2-0.137 0.249 0 0.0491-0.0648 0.14-0.144 0.202-0.191 0.15-0.182 0.218 0.0576 0.45 0.245 0.237 0.245 0.245 0.0285 0.519-0.171 0.216-0.184 0.268-0.254 1.02l-0.0282 0.304 0.405 0.386c1.15 1.1 1.66 2.48 1.66 4.53 0.0011 0.849-0.163 2.22-0.266 2.22-0.0652 0-0.31 0.553-0.31 0.7 0 0.0363 0.058 0.0241 0.139-0.0293l0.139-0.0914-0.0485 0.169c-0.0653 0.228-0.107 0.288-0.201 0.288-0.253 0-0.402 0.51-0.193 0.657l0.125 0.0875-0.0673 0.225c-0.037 0.124-0.0673 0.316-0.0673 0.427v0.202l0.28 0.425c1.1 1.67 2.74 2.39 4.46 1.95zm-0.281-7.08c-0.568-0.13-0.987-0.715-1.22-1.7l-0.107-0.461 0.0016-0.95c0.0071-4.2 2.6-8.42 4.02-6.55 1.78 2.33-0.419 10.2-2.7 9.66zm0.544-0.72c0.999-0.516 2.01-3.29 2.12-5.79l0.0348-0.835-0.181-0.15-0.171 0.0883c-0.751 0.388-1.69 2.3-2.12 4.31l-0.102 0.474-3.5e-4 0.898-3.5e-4 0.898 0.079 0.0953c0.097 0.117 0.141 0.118 0.35 0.0106zm6.68 5.73c0.833-0.417 2.21-1.06 3.11-1.45 0.364-0.158 0.683-0.308 0.709-0.332 0.0259-0.0242 0.109-0.844 0.186-1.82 0.32-4.11 0.66-7.93 0.709-7.98 0.0571-0.0571 0.124 0.133 0.547 1.54 0.256 0.853 1.3 4.54 1.76 6.22 0.131 0.475 0.276 1 0.322 1.17 0.09 0.322 0.162 0.363 0.386 0.221 0.202-0.128 1.79-0.987 1.9-1.03 0.0568-0.0214 0.141-0.13 0.188-0.241 0.086-0.206 0.183-0.252 0.295-0.14l0.0619 0.0619 0.41-0.207c0.226-0.114 0.41-0.226 0.411-0.249 2e-3 -0.196 0.19-3.42 0.259-4.42 0.182-2.66 0.209-3.03 0.32-4.38 0.304-3.7 0.635-6.96 1.18-11.6 0.175-1.5 0.318-2.75 0.318-2.78 0-0.108-0.244-0.0175-1.91 0.706-0.958 0.415-2 0.866-2.31 1-0.314 0.136-0.59 0.282-0.614 0.325-0.0237 0.0426-0.0622 2.26-0.0856 4.93-0.0234 2.67-0.0627 4.84-0.0874 4.82-0.0247-0.0153-0.0621-0.112-0.0831-0.214-0.021-0.103-0.191-0.86-0.377-1.68-0.186-0.823-0.573-2.56-0.859-3.86-0.732-3.32-0.87-3.89-0.947-3.92-0.104-0.04-3.52 1.34-5.12 2.07l-0.453 0.207 0.0848 2.74 0.223 0.561c1.5 3.77 1.3 8.95-0.555 14.2-0.179 0.507-0.363 1.1-0.408 1.32-0.0834 0.413-0.377 4.46-0.33 4.53 0.0393 0.0644 0.0271 0.0692 0.766-0.301zm-3.33-0.706c0.295-0.37 0.854-1.22 1.07-1.63l0.157-0.3-0.0711-0.237c-0.0781-0.261-0.128-0.278-0.454-0.156-0.119 0.0448-0.29 0.0976-0.379 0.117l-0.162 0.0357-0.0893 0.214c-0.0491 0.118-0.164 0.299-0.255 0.403-0.0913 0.104-0.166 0.239-0.166 0.301s-0.0712 0.156-0.158 0.21c-0.0871 0.0539-0.253 0.187-0.369 0.296l-0.211 0.198 0.0315 0.324c0.0173 0.178 0.071 0.369 0.119 0.425l0.0877 0.101h0.613zm15.3-2.58c0.372-0.162 2.25-0.846 3.05-1.11l0.642-0.213 0.0419-0.614 0.0418-0.614-0.443-0.383 0.475-0.427 0.0352-0.921c0.0524-1.37 0.283-5.22 0.355-5.92 0.0187-0.182 0.0547-0.331 0.08-0.331 0.0792 0 0.728 1.74 2.33 6.28 0.466 1.31 0.878 2.42 0.917 2.46l0.07 0.075 0.911-0.882 4e-3 -0.152c2e-3 -0.0837 0.025-0.251 0.0502-0.371l0.0457-0.219-0.132-0.14c-0.158-0.168-0.112-0.243 0.0916-0.15 0.0808 0.0368 0.231 0.0669 0.334 0.0669h0.187l0.45-0.461 0.38 0.0712 0.374-0.244c0.356-0.232 0.444-0.352 0.316-0.432-0.0843-0.0521-0.0703-0.429 0.0282-0.754 0.113-0.372 0.123-0.339-0.168-0.539-0.258-0.178-0.457-0.223-0.522-0.118-0.0517 0.0836-0.464 0.0706-0.537-0.0169l-0.0618-0.0745 0.376 0.044 0.338-0.283 0.365 0.0542 0.175-0.193c0.289-0.317 0.363-0.13-1.76-4.43l-1.13-2.28 0.562-1c0.807-1.44 2.16-3.75 3.54-6.05 1.3-2.16 1.3-2.16 0.998-2.31-0.273-0.13-0.285-0.192-0.117-0.573 0.159-0.361 0.135-0.412-0.168-0.355l-0.202 0.038-1.4e-4 -0.0784c-8e-5 -0.0431 0.0822-0.266 0.183-0.495 0.226-0.516 0.211-0.531-0.384-0.377l-0.483 0.125-0.481 0.481 0.0612 0.457-0.121 0.0961c-0.0667 0.0528-0.197 0.168-0.289 0.256l-0.168 0.16 0.0344 0.137c0.0189 0.0754 0.0517 0.185 0.0728 0.243 0.0263 0.0727-0.01 0.0553-0.115-0.0552-0.193-0.203-0.196-0.185 0.0773-0.545 0.234-0.309 0.256-0.396 0.193-0.776l-0.0357-0.216-0.122 2e-3c-0.0671 1e-3 -0.523 0.112-1.01 0.245l-0.891 0.243-0.221 0.403c-0.281 0.512-2.02 3.87-2.86 5.53-0.353 0.696-0.667 1.29-0.698 1.32-0.123 0.123-0.0819-0.151 0.582-3.88 0.514-2.89 0.58-3.26 0.61-3.38l0.0314-0.13h-0.117c-0.124 0-0.663 0.228-3.09 1.31-1.73 0.769-1.55 0.622-1.64 1.33-0.687 5.52-1.31 12.2-1.64 17.4-0.0807 1.28-0.175 2.63-0.21 3-0.0816 0.869-0.0767 0.877 0.389 0.674zm8.96-1.68c0.575-0.454 1.13-0.886 1.23-0.961l0.187-0.136v-0.158c0-0.291-0.0994-0.434-0.434-0.623l-0.328-0.185-0.152 0.143c-0.0834 0.0786-0.26 0.175-0.393 0.214l-0.242 0.0711-0.0893 0.223c-0.0491 0.123-0.0893 0.282-0.0893 0.353 0 0.174-0.142 0.367-0.348 0.474-0.175 0.0906-0.631 0.733-0.631 0.888 2e-3 0.666 0.0804 0.648 1.29-0.304zm5.64 0.502c1.4-0.313 2.66-1.49 3.17-2.95l0.174-0.501 0.0526-1.21-0.0953-0.372c-0.72-2.81-5.15-2.45-6.51 0.53l-0.144 0.315-0.073 1.03 0.094 0.078c0.135 0.112 0.116 0.229-0.0457 0.27-0.0768 0.0193-0.184 0.0839-0.238 0.144l-0.0982 0.108 0.0597 0.16c0.0328 0.0879 0.0922 0.289 0.132 0.448 0.376 1.5 1.87 2.32 3.53 1.95zm-2.43-6.59c0.203-0.16 0.43-0.342 0.505-0.404l0.136-0.114-0.0344-0.128c-0.0189-0.0705-0.0347-0.289-0.0351-0.486l-7.9e-4 -0.358-0.357-0.407 0.0396-6.87-0.0655-0.0218c-0.109-0.0365-2.78 4.44-2.78 4.66 0 0.0586 0.44 1 0.979 2.1s0.979 2.01 0.979 2.03c0 0.0624 0.176 0.293 0.224 0.293 0.0247 0 0.211-0.131 0.414-0.29zm1.74-2.47c0.697-0.128 1.73-0.265 2.44-0.323 0.611-0.0499 0.489 0.247 1.25-3.07l0.668-2.9-0.0972-0.107c-0.156-0.172-0.0645-0.262 0.431-0.427 0.546-0.182 0.554-0.206 0.177-0.577-0.327-0.322-0.346-0.387-0.144-0.479l0.144-0.0656 9e-4 -0.188c4.9e-4 -0.104 0.0384-0.344 0.0843-0.534 0.0459-0.19 0.0843-0.426 0.0855-0.526 1e-3 -0.099 0.0409-0.212 0.0884-0.252 0.0475-0.0394 0.0864-0.145 0.0864-0.236 0-0.0902 0.209-1.05 0.464-2.14 0.255-1.09 0.616-2.62 0.801-3.41 0.185-0.792 0.381-1.61 0.435-1.83 0.0538-0.213 0.0812-0.431 0.0608-0.484l-0.0371-0.0966-1.16 0.0395c-1.5 0.0509-5.83 0.456-6.27 0.587-0.154 0.0463-0.249 1.78-0.112 2.03 0.0365 0.0683 0.026 0.211-0.032 0.433-0.114 0.436-0.0942 0.5 0.178 0.576 0.303 0.0849 0.318 0.204 0.0707 0.571-0.402 0.597-0.401 0.898 7e-3 1.09l0.268 0.129-0.0185 0.286c-0.011 0.17-0.0599 0.332-0.121 0.401-0.349 0.392-0.806 1.53-0.616 1.53 0.135 0 0.14 0.15 0.0914 2.8-0.0261 1.42-0.0645 3.63-0.0855 4.92l-0.0381 2.35h0.138c0.0759 0 0.416-0.0511 0.756-0.114zm-20.6 22-0.0839-0.13 0.0809-0.835c0.103-1.06 0.158-0.961-0.755-1.35-1.32-0.566-1.31-0.692 0.121-1.18 1.06-0.363 0.926-0.205 1.12-1.36 0.197-1.15 0.199-1.16 0.388-1.21 0.221-0.0555 0.283 0.0106 0.779 0.833l0.458 0.76h0.134c0.0735 0 0.517-0.103 0.986-0.23 0.975-0.263 0.958-0.261 1.08-0.14 0.177 0.177 0.0979 0.339-0.599 1.22l-0.689 0.876 0.171 0.459c0.0939 0.253 0.249 0.668 0.344 0.924 0.363 0.975 0.199 1.06-0.998 0.514-0.957-0.435-0.836-0.46-1.57 0.317-0.663 0.698-0.806 0.777-0.964 0.533zm1.05-1.4 0.422-0.439 0.193 0.0314c0.106 0.0173 0.429 0.141 0.717 0.275 0.629 0.292 0.626 0.294 0.414-0.241-0.0927-0.234-0.214-0.573-0.27-0.753l-0.102-0.328 0.239-0.306c0.131-0.168 0.359-0.456 0.505-0.64 0.337-0.423 0.347-0.419-0.481-0.205-0.764 0.198-0.836 0.193-0.981-0.0697-0.247-0.448-0.604-1.04-0.619-1.02-9e-3 9e-3 -0.0578 0.263-0.108 0.564-0.0505 0.301-0.12 0.668-0.154 0.816l-0.0622 0.269-0.514 0.206c-0.283 0.113-0.538 0.206-0.567 0.206-0.0294 0-0.126 0.0282-0.216 0.0626l-0.162 0.0626 0.317 0.165c0.174 0.0907 0.441 0.207 0.592 0.259 0.152 0.052 0.314 0.153 0.361 0.224l0.0852 0.13-0.0574 0.397c-0.13 0.9-0.113 0.913 0.446 0.333zm15.3-0.582c-0.0399-0.0143-0.794-0.833-1.68-1.82-0.882-0.987-1.92-2.14-2.31-2.57s-0.732-0.828-0.765-0.89l-0.0614-0.113 0.167 0.108c0.197 0.128 1.81 1.39 2.47 1.93 0.424 0.347 2.58 2.14 2.98 2.49l0.174 0.147-0.0521 0.0922c-0.123 0.218-0.803 0.682-0.931 0.636zm0.389-4.32c-1.31-0.875-2.36-1.6-2.32-1.61 0.228-0.0768 5.37 2.51 5.37 2.7 0 0.11-0.424 0.509-0.539 0.508-0.0676-9.5e-4 -1.2-0.718-2.51-1.59zm-53.1-5.53c-0.831-0.841-1.38-1.95-1.61-3.26l-0.101-0.566 0.0629-1.69 0.123-0.432c0.188-0.657 0.866-1.87 0.865-1.55-9e-6 0.0138-0.0887 0.273-0.197 0.577-0.108 0.303-0.242 0.757-0.296 1.01l-0.0988 0.456 0.0054 1.78 0.121 0.576c0.259 1.23 1.03 2.9 1.53 3.31 0.094 0.078 0.111 0.17 0.0305 0.17-0.0291 0-0.226-0.175-0.437-0.389zm1.29-0.395c-0.623-0.583-1.11-1.54-1.34-2.61l-0.114-0.547 0.032-0.662c0.0176-0.364 0.0621-0.766 0.099-0.892 0.104-0.357 0.289-0.72 0.368-0.72h0.071l-0.0752 0.389c-0.303 1.56 0.127 3.52 1.09 4.93 0.291 0.429 0.246 0.47-0.129 0.119zm62.9-3.61c0-0.0108 0.0517-0.267 0.115-0.57 0.394-1.89 0.156-4.05-0.577-5.24-0.296-0.482-0.198-0.538 0.188-0.109 0.305 0.339 0.624 0.972 0.805 1.59l0.131 0.454-6e-3 2.19-0.156 0.565c-0.166 0.602-0.5 1.35-0.5 1.11zm1.4-0.441c0.0161-0.0792 0.0759-0.377 0.133-0.662l0.104-0.518-6e-3 -2.36-0.15-0.641c-0.155-0.661-0.424-1.4-0.63-1.74-0.171-0.276-0.0686-0.309 0.156-0.0499 1.13 1.3 1.41 4.92 0.474 5.99l-0.11 0.124zm-62.8-16.5-0.128-0.0896v-0.216c0-0.119 0.0518-0.589 0.115-1.04 0.0633-0.455 0.115-0.885 0.115-0.954v-0.126l-0.413-0.217c-1.55-0.814-1.75-0.989-1.5-1.28l0.101-0.119 1.06-0.235c1.27-0.28 1.07-0.0722 1.33-1.36 0.123-0.596 0.237-1.14 0.255-1.21 0.0171-0.0709 0.0966-0.172 0.177-0.224l0.145-0.0953 0.135 0.0614c0.092 0.0419 0.312 0.392 0.693 1.1 0.307 0.572 0.589 1.04 0.626 1.04s0.568-0.0807 1.18-0.18l1.11-0.181 0.279 0.127-3.87e-4 0.188-3.88e-4 0.188-0.779 0.864c-0.429 0.475-0.802 0.903-0.829 0.95-0.0334 0.0584 0.0974 0.469 0.404 1.27 0.249 0.649 0.454 1.23 0.455 1.28 0.0036 0.191-0.11 0.327-0.274 0.326-0.165-1e-3 -0.283-0.0623-1.48-0.768-0.915-0.539-0.755-0.557-1.57 0.17-0.934 0.836-1.01 0.883-1.22 0.74zm0.712-1.07c0.147-0.165 1.18-1.03 1.23-1.03 0.0215 0 0.18 0.0892 0.353 0.198 0.173 0.109 0.442 0.268 0.599 0.352 0.157 0.0848 0.384 0.22 0.505 0.3 0.28 0.185 0.311 0.149 0.168-0.197-0.35-0.846-0.583-1.47-0.583-1.57 0-0.112 0.47-0.701 1-1.25l0.29-0.302-0.171 5.9e-4c-0.0939 3.3e-4 -0.465 0.0522-0.825 0.115-0.36 0.063-0.717 0.115-0.793 0.115h-0.138l-0.157-0.248c-0.0864-0.137-0.298-0.525-0.471-0.862s-0.324-0.604-0.336-0.591c-0.0122 0.0122-0.108 0.442-0.213 0.954-0.105 0.513-0.226 0.964-0.269 1-0.0767 0.0701-0.889 0.28-1.35 0.348-0.127 0.0189-0.266 0.0555-0.307 0.0813l-0.0759 0.0469 0.192 0.114c0.106 0.0626 0.445 0.252 0.755 0.421l0.563 0.307 0.0348 0.138c0.03 0.12-0.0999 1.17-0.191 1.55-0.0393 0.163 0.0457 0.166 0.188 7e-3zm27.2-0.332c0.0307-0.0299 0.253-0.132 0.495-0.228 2.25-0.891 3.55-1.78 3.41-2.34-0.245-0.976-4.22-1.12-7.84-0.282-1.1 0.253-0.752 0.0136 0.642-0.446 4.93-1.63 10.2-0.144 6.97 1.95-0.839 0.537-4.05 1.72-3.67 1.35zm-6.74-0.0641c-1.36-0.124-2.12-0.606-2.12-1.35v-0.305l0.194-0.369c1.05-2 6.62-4.85 10.1-5.15 0.661-0.0579 0.61 0.0502-0.109 0.228-3.8 0.94-8.51 3.45-9.43 5.02-0.58 0.991 0.521 1.63 2.99 1.73 0.468 0.0196 0.831 0.0568 0.805 0.0828-0.12 0.12-1.56 0.184-2.4 0.106zm-4.82-1.31c-0.208-0.245-1.19-1.4-2.18-2.58-0.991-1.17-2.5-2.94-3.34-3.93-0.848-0.989-1.53-1.83-1.51-1.87 0.0343-0.0894 0.984-0.763 1.08-0.763 0.149 0 6.46 9.47 6.37 9.56-0.0146 0.0146-0.197-0.174-0.405-0.42zm20-2.11c-0.0942-0.0942-0.132-0.479-0.188-1.91-0.043-1.1 0.0834-0.942-1.14-1.42-1.02-0.398-1.07-0.427-1.07-0.681l-8.8e-4 -0.157 0.163-0.0842c0.0896-0.0463 0.562-0.244 1.05-0.439 1.07-0.427 0.971-0.28 0.98-1.47 4e-3 -0.538 0.024-1.24 0.0441-1.55l0.0364-0.57 0.317-0.236 0.145 0.112c0.0798 0.0616 0.454 0.591 0.831 1.18 0.859 1.33 0.852 1.32 0.973 1.32 0.0556 0 0.563-0.129 1.13-0.287l1.03-0.286 0.107 0.0575c0.328 0.176 0.295 0.28-0.46 1.45-0.703 1.09-0.709 0.846 0.0517 2.16 0.661 1.14 0.701 1.25 0.528 1.41-0.163 0.147-0.288 0.122-1.43-0.283-0.586-0.208-1.1-0.366-1.14-0.351-0.0394 0.0151-0.365 0.438-0.723 0.94-0.893 1.25-0.984 1.33-1.23 1.09zm1.11-1.93 0.583-0.806h0.143c0.0788 0 0.24 0.041 0.357 0.091 0.386 0.164 1.47 0.539 1.5 0.516 0.0125-0.0125-0.0541-0.135-0.148-0.271-0.0939-0.137-0.25-0.404-0.348-0.594-0.0975-0.19-0.256-0.462-0.353-0.605-0.261-0.385-0.226-0.481 0.646-1.75l0.233-0.34-0.139 0.0296c-0.0766 0.0163-0.47 0.127-0.874 0.245-0.947 0.278-0.897 0.298-1.45-0.583-0.253-0.401-0.538-0.835-0.633-0.965l-0.172-0.236-0.0378 0.317c-0.0208 0.174-0.0403 0.713-0.0435 1.2l-6e-3 0.881-0.139 0.139c-0.0764 0.0764-0.212 0.157-0.302 0.179-0.219 0.0537-1.19 0.425-1.24 0.476-0.0379 0.0359 0.51 0.269 1.29 0.55 0.382 0.137 0.378 0.127 0.425 1.29 0.0231 0.578 0.0622 1.05 0.087 1.05s0.307-0.363 0.628-0.806zm-20.8 0.432c-0.201-0.516-0.323-0.845-1.2-3.22-1.47-3.99-2.16-5.94-2.15-6.04l0.0167-0.113 0.461-0.128c0.253-0.0707 0.53-0.13 0.614-0.133l0.154-4e-3 0.0395 0.187c0.137 0.647 1.04 4.52 1.75 7.52 0.543 2.28 0.613 2.73 0.307 1.94zm28.4 0.33c0-0.0922 4.94-6.33 5.05-6.37 0.082-0.033 0.821 0.635 0.821 0.742 0 0.0387-0.706 0.742-1.57 1.56-0.862 0.821-2.17 2.08-2.9 2.8-1.27 1.25-1.4 1.37-1.4 1.27zm-23.8-0.477c2.23-2.08 8.21-4.23 9.77-3.51l0.173 0.0795-0.691 0.0369c-2.4 0.128-5.81 1.4-8.88 3.32-0.702 0.438-0.782 0.454-0.375 0.0748zm22.3-0.429c0.101-0.442 2.65-8.6 2.71-8.65 0.0519-0.0519 1.03 0.357 1.09 0.457l0.0536 0.085-0.462 1c-0.254 0.552-1.1 2.39-1.88 4.08-0.781 1.69-1.45 3.11-1.48 3.14l-0.0626 0.0581z" fill="#0e151c"/></svg>
