<svg width="210mm" height="297mm" version="1.1" viewBox="0 0 210 297" xmlns="http://www.w3.org/2000/svg"><path d="m121 190c-0.164-0.317-1.56-3.47-2.88-6.51-0.456-1.05-1.3-2.96-1.87-4.25-0.573-1.29-1.04-2.38-1.04-2.44 0-0.0599 0.42-0.1 1.05-0.1 1.32 0 1.27 0.329 0.506-3.33-0.362-1.73-0.755-3.61-0.873-4.18-0.422-2.03-0.097-1.6 6.28 8.18 2.19 3.36 2.22 2.98-0.259 3.11-1.54 0.078-1.4-0.136-1.22 1.86 0.68 7.75 0.708 8.43 0.311 7.66zm-47.2-0.354c0-0.164 0.758-1.35 3.25-5.1 1.16-1.74 2.12-3.24 2.15-3.33 0.0528-0.195 0.0282-0.2-2.54-0.447-0.939-0.0905-1.82-0.207-1.96-0.26l-0.251-0.0954 0.352-0.282c0.925-0.743 12.8-9.33 15.1-11 1.39-0.963 1.35-0.745-0.238 1.36-4.15 5.48-4.88 6.49-4.8 6.57 0.0499 0.0448 0.904 0.16 1.9 0.255 2.22 0.214 2.25 0.226 1.64 0.74-1.44 1.22-12.3 10-13.6 11-0.789 0.613-1.09 0.752-1.09 0.507zm75.8-9.55c-3.11-3.3-10.9-11.8-11.2-12.3-0.273-0.388-0.053-0.397 2.88-0.129l0.628 0.0575v-0.162c0-0.194-0.17-0.588-2.22-5.14-0.877-1.94-1.6-3.58-1.6-3.64 0-0.321 0.0705-0.275 4.02 2.64 1.34 0.988 2.5 1.8 2.6 1.81l0.169 0.0128 0.323-2.26c0.375-2.62 0.394-2.71 0.558-2.71 0.216 1e-3 13.6 10.1 13.7 10.3 0.0759 0.228-0.476 0.173-5.99-0.595-3.38-0.471-3.17-0.523-2.92 0.708 0.209 1.03 0.173 1.16-0.313 1.06-2.25-0.427-2.28-0.408-1.79 1.25 0.902 3.1 2.8 10 2.8 10.2 0 0.424-0.292 0.207-1.63-1.21zm-82.8 0.0347c0-0.593 5.37-5.65 7.93-7.48 2.68-1.91 2.89-1.8 0.703 0.354-3.16 3.12-8.64 7.64-8.64 7.13zm67.5-0.659c-0.652-0.291-0.768-1.19-0.221-1.71 0.488-0.468 1.38-0.294 1.61 0.315 0.36 0.946-0.49 1.8-1.39 1.4zm-41.2-0.556c0-0.117 0.271-1.58 0.603-3.25 1.03-5.19 1.43-8.93 1.13-10.5l-0.0857-0.452-0.298 9e-3c-0.164 5e-3 -0.846 0.158-1.52 0.34l-1.22 0.331-0.329-0.164c-0.181-0.0903-0.372-0.164-0.425-0.164-0.373 0-3.56 2.2-6.12 4.24-1.65 1.31-2.09 1.61-2.09 1.45 0-0.0234 0.38-0.826 0.845-1.78 1.23-2.54 1.92-4.41 1.69-4.62-0.0396-0.0373-0.728 0.339-1.53 0.836-4.12 2.55-9.19 4.57-19.1 7.57l-1.55 0.47-0.362-0.11c-0.39-0.119-2.34-2.16-2.82-2.95l-0.244-0.404-0.175-4.51c-0.0963-2.48-0.206-4.55-0.243-4.61-0.131-0.211-1.76 0.0963-5.17 0.977-3.96 1.02-4.05 1-1.53-0.384 3.29-1.81 5.86-3.36 6.39-3.86l0.274-0.254-0.0578-0.829c-0.0318-0.456-0.124-2.86-0.205-5.35-0.25-7.69-0.186-7.17-0.855-6.93-0.545 0.192-1.1 0.191-1.38-3e-3 -0.32-0.224-2.17-2.46-2.5-3.01l-0.28-0.477 0.129-5.14c0.0712-2.82 0.162-5.62 0.201-6.22l0.0714-1.09 0.244-0.242c0.237-0.235 0.788-0.492 3.79-1.77 0.818-0.348 1.43-0.667 1.43-0.743 0-0.311-2.45-2.4-6.09-5.19-2.42-1.85-2.38-1.91 0.467-0.693 4.71 2 8.33 3.33 10.1 3.68l0.865 0.176 1.04-0.385c0.574-0.212 1.11-0.444 1.19-0.516l0.143-0.131-0.175-0.632c-0.0964-0.348-0.33-0.99-0.52-1.43-0.336-0.775-0.423-1.11-0.269-1.05 0.0414 0.0184 0.946 0.472 2.01 1.01 2.35 1.19 2.32 1.18 3.65 0.814l1.05-0.287 0.033-0.23c0.0463-0.323-0.321-1.49-0.86-2.73-0.252-0.58-0.52-1.2-0.596-1.38l-0.138-0.327h0.14c0.0769 0 0.767 0.465 1.53 1.03 1.66 1.23 3.13 2.25 3.76 2.62l0.461 0.266 1.55 4.1e-4c2.95 7.7e-4 5.5 0.72 7.13 2.01 0.913 0.723 1.04-0.567 0.346-3.39-0.416-1.68-0.405-1.69 0.639-0.929 2.28 1.68 3.31 1.87 3.64 0.675 0.705-2.61 0.276-7.01-1.26-12.9-0.716-2.74-0.69-2.77 0.563-0.68 4.26 7.12 6.7 10.2 9.04 11.4l0.712 0.374 0.58-0.042c2.77-0.2 6.76-5.07 11.4-13.9 0.725-1.38 0.786-1.29 0.593 0.882-0.396 4.46-0.0465 8.39 0.928 10.4 0.437 0.914 0.416 0.907 1.89 0.619 0.668-0.131 1.4-0.246 1.62-0.256 1.18-0.0507 5.74-3.58 10.6-8.18 2.28-2.16 2.27-2.17 1.37 0.131-1.37 3.5-1.96 6.22-1.68 7.75 0.151 0.819-0.0322 0.8 2.92 0.305 2.42-0.405 11.1-1.78 13-2.06 1.03-0.152 1.31-0.0527 2.01 0.708 0.638 0.691 0.654 0.694 1.34 0.3l0.517-0.296 0.115-0.883c0.154-1.18 0.375-1.73 0.799-1.97l0.337-0.197 3.88-0.426c2.14-0.234 5.16-0.55 6.73-0.702l2.84-0.275 0.797 0.239 1.48 1.66c0.814 0.916 1.51 1.72 1.55 1.79 0.0722 0.124-1.6 5.17-4.84 14.6-0.895 2.6-2.32 6.78-3.17 9.29-1.96 5.8-1.85 5.51-2.05 5.62-0.0912 0.0479-0.403 0.119-0.693 0.158-0.671 0.0907-0.665 0.141 0.14 1.11 5.55 6.65-4.45 17.5-10.6 11.5l-0.381-0.366-0.0887 0.144c-0.0488 0.079-0.145 0.519-0.213 0.978-0.159 1.07-0.0979 1.03-2.3 1.54-3.57 0.823-7.05 1.69-7.14 1.78-0.133 0.133 0.286 1.23 1.04 2.72 0.939 1.86 0.974 1.83-0.805 0.773-1.43-0.845-4.44-2.35-4.7-2.35-1.21 0-5.37 1.35-5.37 1.75 0 2.02 1.3 5.7 4.03 11.4 1.42 2.98 1.42 2.98-1.28-0.173-5.97-6.96-10.9-11-13.1-10.6-1.13 0.212-2.1 3.4-2.84 9.3-0.348 2.8-0.201 2.88-1.66-0.904-1.82-4.72-3.33-7.13-4.46-7.13-2.52-3e-3 -6.49 4.94-10.5 13.1-1.23 2.49-1.45 2.87-1.45 2.44zm-31.6-11.9c-0.0156-0.824-0.0713-2.58-0.124-3.91-0.132-3.32-0.275-7.17-0.456-12.2-0.0842-2.35-0.219-5.92-0.299-7.94-0.0804-2.02-0.147-3.75-0.147-3.84-4.08e-4 -0.0967-0.0526-0.176-0.116-0.176-0.137 0-0.0499 3.54 0.315 12.9 0.0552 1.41 0.169 4.44 0.253 6.73 0.0841 2.29 0.197 5.12 0.252 6.28 0.0544 1.16 0.0989 2.49 0.0989 2.95 0 0.622 0.0318 0.822 0.126 0.79 0.0947-0.0324 0.119-0.412 0.0973-1.54zm29.2-8.45c0.143-1.92 0.272-3.82 0.496-7.3l0.141-2.2 0.396-0.618c0.218-0.34 1.2-1.88 2.18-3.43 2.98-4.71 3.67-5.76 7.53-11.6 2.65-4.01 2.41-3.62 2.22-3.62-0.264 0-8.08 11.8-12 18.2-0.572 0.925-0.529 0.656-0.849 5.3-0.139 2.02-0.314 4.44-0.39 5.38-0.0759 0.939-0.115 1.75-0.0867 1.79 0.154 0.252 0.266-0.303 0.386-1.91zm26-2.41c0.0489-0.764 0.179-2.59 0.289-4.05 0.11-1.46 0.227-3.02 0.26-3.47l0.0597-0.804 0.883-1.41c1.08-1.72 2.92-4.6 5.06-7.94 1.82-2.84 1.98-3.08 5.18-7.97 1.28-1.95 2.33-3.57 2.33-3.59 0-0.596-2.75 3.5-10.4 15.4-1.08 1.69-2.26 3.55-2.63 4.14l-0.68 1.07-0.148 1.79c-0.305 3.69-0.615 8.22-0.569 8.31 0.143 0.251 0.26-0.27 0.34-1.51zm-44.6-0.599c4.39-1.73 7.27-4.51 6.72-6.51l-0.0812-0.299-0.112 0.677c-0.37 2.23-2.2 3.92-6.3 5.79-0.689 0.315-1.28 0.603-1.32 0.642-0.151 0.151 0.205 0.0547 1.09-0.295zm70.8-7.75c-0.246-4.69 4.87-8.21 8.7-5.99l0.46 0.267-0.194-0.219c-3.07-3.47-10.7 1.99-9.11 6.54 0.187 0.544 0.201 0.486 0.144-0.603zm-39-1.54c0.851-0.338 9.03-3.14 10.7-3.66 0.829-0.261 1.57-0.537 1.65-0.613l0.147-0.139-0.197 6.5e-4c-0.288 9.5e-4 -6.6 2.13-11.7 3.94-0.687 0.244-1.27 0.498-1.29 0.564-0.0563 0.169 0.095 0.149 0.702-0.0916zm28.9-3.1c2.76-0.897 6.63-2.12 8.02-2.52 0.401-0.117 0.728-0.254 0.728-0.304 0-0.211 0.368-0.318-7.38 2.14-2.32 0.736-4.23 1.39-4.25 1.46-0.0602 0.181-0.109 0.194 2.88-0.78zm-45.7-0.936c-0.854-0.755-2.88-1.37-4.5-1.38-1.22-2e-3 -1.13 0.079 0.222 0.197 1.64 0.144 2.7 0.432 3.69 0.999 1.01 0.583 1.06 0.596 0.586 0.179zm-14.8-2.13c3.21-1.64 6.23-5.13 5.27-6.09-0.0629-0.0629-0.121 0.0796-0.164 0.402-0.242 1.83-2.55 4.14-5.71 5.72-0.595 0.298-1.08 0.561-1.08 0.585 0 0.164 0.578-0.0467 1.69-0.613zm-16.4-0.574c0.0252-0.0691 0.104-2.42 0.175-5.23l0.129-5.1 0.149-0.0935c0.231-0.145 3.92-1.7 7.28-3.06 11.4-4.65 17.3-5.36 21.6-2.6 0.698 0.447 0.712 0.317 0.0202-0.196-4.44-3.3-10.8-2.16-27.7 4.99-1.88 0.795-1.68 0.32-1.76 4.09-0.0357 1.74-0.094 4.1-0.13 5.25-0.0606 1.95 0.0059 2.55 0.22 1.96zm89.9-1.41c0-0.0658 1.02-9.38 1.21-11 0.571-5.02 1.97-15.3 2.1-15.4 0.104-0.107 4.16-0.59 10-1.19 1.74-0.179 2.24-0.261 2.24-0.37 0-0.0961-0.0722-0.123-0.228-0.0837-0.125 0.0314-0.95 0.128-1.83 0.215-0.883 0.0868-3.49 0.36-5.8 0.607-2.31 0.247-4.29 0.449-4.4 0.449-0.371 0-1.58 8.41-2.71 18.9-0.116 1.08-0.345 3.16-0.509 4.62-0.324 2.9-0.348 3.31-0.197 3.31 0.0553 0 0.1-0.0135 0.1-0.03zm-55.1-5.63c0.0263-0.178 0.0981-1.05 0.16-1.93 0.0615-0.884 0.219-2.78 0.35-4.22 0.131-1.44 0.268-2.97 0.306-3.4l0.0674-0.785 0.267-0.102c1.02-0.39 18.2-4.53 23-5.53 0.801-0.168 1.5-0.345 1.55-0.394 0.235-0.221-0.131-0.194-1.32 0.0961-0.707 0.172-2.01 0.47-2.89 0.662-2.86 0.619-7.83 1.77-11.5 2.67-6.56 1.6-9.26 2.29-9.33 2.37-0.0443 0.0486-0.156 0.97-0.248 2.05-0.092 1.08-0.299 3.49-0.459 5.37-0.161 1.88-0.269 3.45-0.24 3.49 0.0932 0.151 0.23-0.0212 0.279-0.35zm27.5-3.41c0.0258-0.124 0.0936-0.836 0.151-1.58 0.0571-0.746 0.218-2.55 0.358-4.02 0.14-1.46 0.306-3.27 0.37-4l0.116-1.34 0.209-0.0864c0.476-0.196 21.3-3.71 23.5-3.97 0.519-0.0609 0.773-0.176 0.653-0.296-0.0431-0.0431-5.15 0.724-6.71 1.01-0.47 0.0855-2.41 0.406-4.32 0.712-1.91 0.306-4.35 0.712-5.43 0.902-1.08 0.19-3.32 0.576-4.97 0.857-3.59 0.608-3.2 0.291-3.41 2.81-0.0936 1.13-0.318 3.64-0.498 5.58-0.18 1.93-0.31 3.55-0.289 3.59 0.0776 0.152 0.225 0.0695 0.271-0.151zm-17.9 49.8c-0.826-0.353-0.815-1.51 0.018-1.9l0.36-0.171 0.356 0.117c0.386 0.128 0.741 0.597 0.742 0.981 1e-3 0.756-0.78 1.27-1.48 0.976zm5.6-2.54c-0.62-2.33-0.982-7.76-0.516-7.76 0.324 0 0.809 3.66 0.809 6.1 6.5e-4 2.01-0.0789 2.46-0.293 1.66zm27.5-6.19c-1.91-1.96-4.67-5.63-4.52-6.01 0.151-0.395 3.55 3.46 5.16 5.86 1.42 2.11 1.3 2.14-0.642 0.151zm-80.1 0.912c0-0.321 1.61-1.63 2.66-2.16 1.36-0.687 1.53-0.616 0.626 0.252-1.16 1.11-3.29 2.35-3.29 1.91zm99.2-11.3c-0.297-0.297-0.266-0.682 0.0798-0.975 0.632-0.535 1.45 0.402 0.885 1.01-0.272 0.292-0.65 0.278-0.965-0.0363zm9.31-0.989c-3.35-1.16-7.25-3.1-6.9-3.44 0.441-0.441 7.5 2.65 8.66 3.79l0.198 0.195-0.198-2e-3c-0.109-1e-3 -0.899-0.244-1.76-0.54zm-114-4.08c-0.0932-0.151 0.106-0.42 1.41-1.9 0.638-0.726 1.16-1.34 1.16-1.36 0-0.0943-0.565-0.324-3.01-1.22-2.62-0.963-2.87-1.08-2.63-1.23 0.264-0.163 9.94-1.82 10.6-1.82 0.267 0 0.117 0.282-0.669 1.26-1.02 1.27-1.32 0.944 2.18 2.4 1.53 0.641 1.59 0.586-1.82 1.7-6.38 2.08-7.16 2.31-7.25 2.17zm3.57-11.7c-1.88-0.161-5.43-1.01-5.43-1.31 0-0.5 5.69 0.403 7.02 1.11 0.562 0.301 0.194 0.346-1.59 0.193zm112 0.0145c-1.54-0.134-4-0.728-4.09-0.985-0.0597-0.179 2.86-0.154 3.93 0.034 2.05 0.357 3.42 0.747 3.24 0.923-0.112 0.112-1.93 0.128-3.09 0.0274zm-3.25-4.48c-0.613-0.613 0.14-1.59 0.83-1.08 0.332 0.247 0.411 0.764 0.159 1.04-0.212 0.235-0.769 0.254-0.989 0.0338zm1.07-5.39c0.112-0.394 3.47-1.79 5.26-2.18 1.69-0.373 1.97-0.246 0.828 0.379-2.04 1.12-6.25 2.37-6.08 1.8zm2.75-7.2c-0.167-0.27 1.32-1.43 2.4-1.87 1.02-0.414 0.981-0.133-0.101 0.738-0.931 0.749-2.16 1.35-2.3 1.13zm-115-0.756c-0.868-0.481-0.54-1.87 0.441-1.87 0.272 0 0.443 0.0763 0.661 0.294 0.783 0.783-0.143 2.11-1.1 1.58zm35.2-6.84c-2.91-1.71-6.89-4-12.3-7.08-3.61-2.06-6.56-3.78-6.56-3.82 0-0.162 0.302-0.3 2.42-1.11 1.2-0.455 2.24-0.869 2.31-0.919 0.154-0.102 0.164-0.0926-4.04-4.06-5.65-5.33-6.77-6.48-6.56-6.69 0.194-0.19 12-3.34 12.2-3.24 0.143 0.0903 1.1 1.84 3.86 7.01 0.588 1.11 1.11 2.08 1.16 2.16l0.0936 0.151 2.37-0.803c1.3-0.442 2.39-0.774 2.43-0.737 0.141 0.141 4.78 11.6 5.59 13.8 0.587 1.6 0.684 1.64-2.47-1.1-2.07-1.8-4.64-3.97-4.71-3.97-0.0321 0-0.0584 0.288-0.0584 0.641 0 0.739-0.0595 0.813-0.726 0.91-0.663 0.0959-0.667 0.178-0.0487 0.888 1.19 1.37 5.8 7.83 5.8 8.13 0 0.152-0.347 0.0784-0.754-0.161zm-2.16-2.49c-0.0012-0.223-1.05-1.58-1.23-1.58-0.219 0-0.0685 0.776 0.197 1.02 0.629 0.575 1.03 0.795 1.03 0.563zm-17.5-0.591c-3.72-2.07-6.73-4.07-9.6-6.37-2.61-2.1-2.07-1.93 2.41 0.786 3.35 2.03 8.34 5.66 8.34 6.08 0 0.168 0.0993 0.21-1.16-0.488zm2.02-1.8c-0.335-0.264-0.342-0.628-0.0181-0.952 0.445-0.445 1.06-0.206 1.06 0.412 0 0.655-0.54 0.934-1.04 0.54zm33-1.78c-0.836-1.56-2.93-9.84-2.92-11.5l0.0036-0.402 0.154 0.284c0.362 0.668 1.57 4.45 2.09 6.55 0.831 3.35 1.19 6.06 0.674 5.09zm32.9-0.416c0-0.589 3.6-4.14 4.85-4.79l0.276-0.143v0.133c0 0.206-1.63 2.19-2.37 2.88-1.25 1.17-2.76 2.22-2.76 1.92zm6.79-0.195c-0.0639-0.103 0.892-1.14 4.3-4.67 2.45-2.54 2.41-2.28 0.462-2.93-1.95-0.648-2.15-0.0545 1.81-5.24 1.85-2.42 3.66-4.8 4.02-5.28 0.826-1.11 0.295-1.07 4.69-0.326 2.09 0.354 4.28 0.724 4.85 0.821 1.38 0.234 1.4 0.191-0.716 1.84-4.3 3.36-7.11 5.64-7.11 5.76 0 0.0709 0.704 0.41 1.58 0.763 1.87 0.75 2.54 1.07 2.54 1.21 0 0.24-16.3 8.23-16.4 8.04zm-20.9-0.904c-0.0661-0.107 0.364-1.1 2.49-5.78 0.753-1.65 1.37-3.07 1.37-3.14v-0.136h-1.75c-2.12 0-2.07 0.0537-1.08-1.23 0.436-0.566 1.71-2.25 2.84-3.74 1.13-1.49 2.38-3.14 2.78-3.67 0.403-0.525 1.53-1.99 2.5-3.27 3.28-4.29 3.28-4.28 1.03 1.71-0.603 1.6-1.3 3.47-1.56 4.14-0.254 0.677-0.431 1.3-0.396 1.39l0.0633 0.165 0.477-0.0562c1.13-0.133 3.74-0.185 3.74-0.0747 0 0.0614-0.169 0.304-0.377 0.539-0.644 0.731-5.06 5.62-5.65 6.26-0.308 0.332-1.08 1.19-1.71 1.91-3.27 3.68-4.67 5.15-4.77 4.99zm-14.4-0.785c0-0.214 0.0653-1.43 0.145-2.7 0.336-5.35 0.433-4.82-0.782-4.3-0.871 0.369-1.23 0.389-1.13 0.0625 0.0294-0.097 0.284-1.44 0.565-2.99 1.68-9.24 2.41-12.9 2.58-13 0.206-0.0686 0.229 0.462 0.237 5.36 4e-3 2.7 0.0456 4.98 0.0921 5.05l0.0845 0.137 1.14-0.42c0.627-0.231 1.25-0.466 1.38-0.522 0.565-0.239 0.523-0.0776-1.8 6.86-2.15 6.43-2.51 7.35-2.51 6.44zm30.5-5.88c0.122-0.388 2.32-3.76 3.45-5.3 1.77-2.41 5.24-6.33 5.24-5.93 0 0.435-3.83 5.95-5.59 8.04-2.29 2.72-3.26 3.73-3.09 3.19zm-44.1-5.48-0.317-0.283v-0.43c0-1.16 1.66-1.44 1.97-0.332 0.295 1.03-0.861 1.76-1.66 1.04z" fill="#f97400"/><path d="m121 190c-0.106-0.207-0.893-1.98-1.75-3.94-0.857-1.96-2.08-4.75-2.72-6.2-0.642-1.45-1.17-2.7-1.17-2.79v-0.159h2.11v-0.201c0-0.173-1.02-5.18-1.46-7.15-0.0821-0.37-0.149-0.821-0.149-1v-0.329l0.19 0.198c0.544 0.567 7.98 11.9 7.87 12-0.0418 0.0393-0.771 0.117-1.62 0.173-1.97 0.129-1.8-0.327-1.43 3.96 0.51 5.91 0.517 6.2 0.127 5.43zm-0.817-4.52c0-0.153-0.0416-0.64-0.0924-1.08-0.327-2.83-0.438-4.39-0.319-4.46 0.0678-0.0419 0.67-0.104 1.34-0.137 1.48-0.0744 1.47-0.0661 0.96-0.873-1.66-2.62-4.46-6.92-4.61-7.08l-0.188-0.198v0.199c0 0.182 0.669 3.36 1.05 5.01 0.089 0.381 0.136 0.76 0.104 0.843l-0.0577 0.15-0.853-0.0692c-1.11-0.09-1.1-0.117-0.291 1.71 0.828 1.86 1.44 3.25 2.54 5.79 0.23 0.533 0.419 0.622 0.419 0.198zm-46.1 3.92c0.153-0.262 1.38-2.15 2.73-4.18 1.35-2.04 2.48-3.77 2.5-3.84 0.068-0.177-0.0544-0.198-2.52-0.44-1.16-0.113-2.12-0.227-2.15-0.253-0.0971-0.0971 0.263-0.384 2.72-2.17 1.39-1.01 3.44-2.5 4.54-3.31 6.66-4.86 9.09-6.54 9.09-6.27 0 0.0693-1.59 2.2-5.1 6.82-1.34 1.76-1.39 1.61 0.629 1.81 1.94 0.191 2.26 0.242 2.26 0.353 0 0.0712-3.97 3.37-7.32 6.09-0.478 0.387-2.07 1.68-3.54 2.87-3.26 2.65-3.73 3.01-3.96 3.01h-0.176zm4.17-3.84c1.13-0.917 2.19-1.79 4.11-3.37 0.801-0.662 1.95-1.61 2.56-2.11 1.56-1.28 1.72-1.43 1.65-1.5-0.0871-0.0871-2.01-0.344-2.6-0.348-0.252-2e-3 -0.533-0.0597-0.625-0.129l-0.167-0.126 0.611-0.804c0.336-0.442 0.917-1.19 1.29-1.66 1.86-2.34 2.65-3.46 2.29-3.25-0.604 0.352-10.3 7.51-10.3 7.64-0.0399 0.12 0.137 0.149 2.03 0.337 2.19 0.218 2.36-0.444-1.19 4.74-1.22 1.78-1.19 1.83 0.342 0.582zm71.8-4.9c-1.52-1.54-6.62-7.08-10.9-11.8-0.999-1.11-0.997-1.14 0.0502-1.06 2.44 0.184 2.79 0.195 2.79 0.0902 0-0.138-0.749-1.85-2.41-5.49-1.28-2.81-1.54-3.47-1.35-3.47 0.0484 2e-3 1.06 0.728 2.25 1.62 3.25 2.43 4.25 3.12 4.34 3.03 0.0467-0.0467 0.222-1.08 0.389-2.29 0.37-2.69 0.364-2.66 0.559-2.66 0.129 0 4.45 3.2 12.7 9.4 0.836 0.63 1.12 0.95 0.83 0.95-0.197 0-4.79-0.601-6.51-0.851-0.958-0.14-1.9-0.254-2.1-0.254h-0.355l0.0657 0.327c0.384 1.91 0.407 1.85-0.731 1.7-1.07-0.142-1.62-0.151-1.62-0.0271 0 0.0502 0.159 0.64 0.354 1.31 0.418 1.44 2.47 8.81 2.71 9.74 0.247 0.955 0.1 0.918-1.07-0.267zm-0.489-2.14c0-0.178-0.513-1.96-1.62-5.62-1.46-4.83-1.45-4.38-0.0632-4.18 0.58 0.0861 1.2 0.156 1.38 0.156h0.325l-0.0582-0.223c-0.542-2.07-0.564-2.04 1.14-1.78 5.96 0.888 5.62 0.845 5.62 0.705 0-0.145-8.79-6.79-9.55-7.22l-0.304-0.171-0.0834 0.132c-0.0459 0.0727-0.23 1.18-0.409 2.46s-0.361 2.37-0.403 2.41c-0.0428 0.045-0.904-0.543-1.91-1.31-4.06-3.07-3.86-3.01-2.84-0.833 0.382 0.817 0.614 1.32 1.89 4.12 0.315 0.691 0.578 1.39 0.586 1.55l0.0139 0.294-0.597-0.0255c-0.328-0.014-0.905-0.0584-1.28-0.0986s-0.734-0.0422-0.795-4e-3c-0.108 0.0666 1.72 2.11 6.14 6.85 1.08 1.16 2.11 2.28 2.29 2.5 0.334 0.39 0.519 0.49 0.519 0.281zm-82.6 1.74c0-0.133 2.36-2.67 3.45-3.71 2.24-2.13 6.23-5.16 6.47-4.91 0.193 0.192-4.37 4.43-7.16 6.65-2.4 1.91-2.76 2.17-2.76 1.97zm67.2-0.817c-0.899-0.899 0.327-2.28 1.3-1.46 0.378 0.318 0.474 0.722 0.28 1.18-0.273 0.653-1.06 0.792-1.58 0.277zm-41-0.23c0-0.0182 0.268-1.39 0.596-3.05 1.36-6.86 1.71-11.6 0.834-11.4-2.26 0.654-3.05 0.796-3.19 0.575-0.276-0.447-2.64 1.04-6.48 4.07-2.39 1.89-2.31 1.91-1.21-0.307 1.31-2.65 2-4.67 1.61-4.67-0.0589 0-0.725 0.387-1.48 0.86-3.27 2.05-7.2 3.75-13.4 5.8-5.69 1.88-7.25 2.3-7.73 2.12-0.291-0.112-2.49-2.59-2.69-3.03l-0.192-0.428-0.0925-2.54c-0.0508-1.4-0.119-3.33-0.152-4.29-0.0327-0.967-0.0801-1.86-0.105-1.98l-0.0461-0.226h-0.362c-0.574 0-2.69 0.457-5.38 1.16-3.23 0.844-3.28 0.84-1.56-0.114 3.89-2.16 6.23-3.56 6.87-4.11l0.348-0.301-0.207-5.81c-0.114-3.2-0.208-6.14-0.209-6.53-8.46e-4 -0.394-0.0406-0.778-0.0883-0.854l-0.0868-0.137-1.4 0.36-0.362-0.194c-0.452-0.242-2.3-2.42-2.65-3.13l-0.259-0.522 0.0604-1.64c0.0332-0.901 0.106-3.47 0.162-5.71 0.0559-2.24 0.125-4.25 0.153-4.47 0.0972-0.754 0.107-0.759 4.14-2.47 0.788-0.335 1.43-0.654 1.43-0.71 0-0.285-2.55-2.47-5.71-4.9-2.82-2.16-2.82-2.15-0.336-1.1 8.77 3.71 10.6 4.23 12.5 3.53l1.06-0.393 0.0321-0.271c0.0362-0.305-0.274-1.3-0.704-2.26-0.385-0.859-0.407-0.86 1.4 0.0618 0.871 0.444 1.88 0.925 2.24 1.07l0.661 0.259 1.12-0.314c0.615-0.173 1.14-0.363 1.16-0.423 0.0993-0.271-0.279-1.51-0.893-2.94-0.832-1.93-0.898-1.9 1.16-0.389 0.946 0.698 2.2 1.58 2.79 1.97l1.07 0.698h1.33c3.03 0 5.43 0.637 7.29 1.93 1.11 0.778 1.31-0.343 0.576-3.32-0.398-1.61-0.409-1.6 0.63-0.848 3.25 2.35 3.92 1.91 3.93-2.54 0.0047-2.83-0.314-4.91-1.4-9.15-0.311-1.21-0.587-2.31-0.615-2.45l-0.0492-0.251 0.155 0.151c0.0851 0.0829 0.773 1.17 1.53 2.41 3.88 6.38 6.21 9.22 8.54 10.4 2.64 1.36 6.9-3.12 12-12.6 1.17-2.18 1.26-2.26 1.17-1.16-0.0323 0.428-0.112 1.5-0.178 2.39-0.308 4.17 0.395 8.73 1.5 9.73l0.194 0.176 1.22-0.257c0.67-0.141 1.4-0.257 1.62-0.257 1.09 0 5.97-3.72 10.4-7.9 0.743-0.708 1.54-1.47 1.78-1.69 0.618-0.584 0.608-0.465-0.125 1.4-1.27 3.24-1.69 4.96-1.7 6.95l-5e-3 1.33 0.326 0.327 2.85-0.467c8.55-1.4 12.9-2.06 13.5-2.06h0.472l0.677 0.653c0.744 0.718 0.875 0.756 1.46 0.424 0.51-0.289 0.61-0.507 0.79-1.71 0.259-1.74-0.366-1.53 7.05-2.33 8.77-0.941 7.62-1.14 10.2 1.75 1.27 1.43 1.73-0.459-3.71 15.3-0.951 2.76-2.49 7.28-3.43 10-1.88 5.55-1.73 5.25-2.55 5.38-0.861 0.14-0.867 0.0545 0.0782 1.17 5.5 6.49-3.89 17-10.4 11.6-0.699-0.572-0.716-0.561-0.918 0.596-0.197 1.13 0.17 0.935-3.27 1.75-7.41 1.75-6.69 1.17-5.17 4.23 0.863 1.74 0.863 1.74-0.535 0.918-1.41-0.832-2.93-1.63-3.99-2.1l-0.904-0.401-5.33 1.35-0.0305 0.523c-0.108 1.86 1.2 5.61 3.97 11.4 0.523 1.09 0.935 2.04 0.915 2.1-0.0198 0.0594-1.15-1.17-2.51-2.74-6.16-7.11-11.2-10.9-13-9.99-0.968 0.501-1.97 4.19-2.57 9.45-0.0879 0.774-0.185 1.52-0.215 1.66l-0.0552 0.251-0.132-0.181c-0.0728-0.0995-0.368-0.823-0.657-1.61-2.23-6.07-3.96-8.78-5.36-8.4-2.86 0.77-6.28 5.15-10.2 13.1-1.01 2.05-1.42 2.79-1.42 2.56zm-29.6-11c12.2-3.75 18.2-6.69 22.3-10.9 4.49-4.63 5.45-10.9 2.16-14.3l-0.805-0.816-0.955-0.455c-1.27-0.606-2-0.778-3.59-0.847-1.48-0.0638-1.56-0.116-0.92-0.568 6.18-4.37 8.4-12.3 4.52-16.2-3.55-3.55-9.74-3.31-20.4 0.778-2.67 1.03-9.76 3.98-9.92 4.12-0.0939 0.0869-0.388 10.7-0.299 10.8 0.0377 0.0385 0.99-0.244 2.12-0.628 1.13-0.384 2.13-0.698 2.24-0.698h0.188l1e-3 0.427c0.0025 1.04 0.681 19.8 0.904 25 0.0545 1.27 0.0992 2.82 0.0993 3.43 2.16e-4 1.06 0.0476 1.44 0.181 1.44 0.0321 0 1.01-0.293 2.17-0.651zm6.84-12.3c-0.0246-0.0691-0.0571-1.68-0.0722-3.59l-0.0274-3.46 0.463-0.221c1.7-0.808 4.06-1.46 5.33-1.47l0.765-6e-3 0.567 0.277c2.17 1.06 1.18 4.19-2 6.28-1.73 1.14-4.91 2.53-5.02 2.2zm-0.298-15c-0.033-0.0534-0.0881-1.61-0.122-3.46l-0.0625-3.37 0.869-0.4c8.49-3.9 9.2 2.49 0.747 6.73-1.23 0.619-1.33 0.654-1.43 0.495zm21.1 19.7c0.351-0.108 1.72-0.51 3.05-0.893s4.08-1.18 6.13-1.77c3.63-1.05 7.55-2.16 11.7-3.32 1.13-0.315 2.1-0.609 2.15-0.653 0.0943-0.0886 1.02-4.94 1.77-9.29 0.172-0.995 0.352-1.98 0.4-2.19 0.16-0.697-0.661-0.453-12.2 3.62-1.53 0.543-1.62 0.537-1.23-0.0827 1.06-1.68 6.33-9.52 8.62-12.8 1.38-1.99 3.62-5.21 3.99-5.74l0.176-0.251 0.212-2.86c0.116-1.58 0.298-4.04 0.404-5.48 0.224-3.05 0.316-2.81-0.966-2.51-0.561 0.133-1.94 0.444-3.06 0.692-2.79 0.614-8.64 1.97-11.1 2.57-7.87 1.93-9.86 2.43-9.94 2.51-0.0504 0.0504-0.174 1.05-0.274 2.23-0.1 1.18-0.275 3.2-0.389 4.5-0.114 1.3-0.235 2.8-0.27 3.34l-0.0632 0.98h0.172c0.0947 0 0.836-0.18 1.65-0.401s3.55-0.966 6.09-1.66c5.13-1.4 5.29-1.43 5.29-1.26 0 0.0646-0.798 1.3-1.77 2.75-3.06 4.54-8.76 13.3-10.5 16.1l-0.215 0.355-0.309 4.32c-0.17 2.37-0.353 4.81-0.406 5.42-0.19 2.16-0.226 2.08 0.82 1.76zm27.5-3.18c7.68-2.06 13-3.46 17.4-4.52 3.78-0.927 3.19-0.176 4.27-5.47 0.501-2.46 1.02-5.01 1.16-5.67 0.345-1.68 1.24-1.79-7.28 0.924-4.87 1.55-4.78 1.53-4.69 1.3 0.109-0.284 7.04-10.6 10.1-15.1 1.64-2.38 3.01-4.37 3.04-4.44 0.0378-0.0633 0.23-1.76 0.426-3.77 0.71-7.25 0.686-6.72 0.305-6.72-0.976 0-24.2 3.9-24.4 4.09-0.0476 0.0476-0.197 1.33-0.332 2.84-0.135 1.52-0.367 4.06-0.514 5.66-0.31 3.35-0.373 3.14 0.861 2.83 2.51-0.637 11-2.56 11.3-2.56 0.305 0 0.264 0.0854-0.824 1.73-2.14 3.22-5.1 7.76-6.55 10-0.83 1.3-1.86 2.9-2.28 3.57-2.2 3.43-3.35 5.25-3.47 5.49-0.117 0.227-0.476 4.36-0.806 9.31l-0.0688 1.03h0.166c0.0914 0 1.1-0.252 2.25-0.56zm29.7-5.86c3.09-0.79 5.21-3.5 5.08-6.49l-0.0402-0.92-0.321-0.652c-2.05-4.16-8.68-2.67-10.2 2.3l-0.259 0.828 0.0864 2.06 0.308 0.667c0.871 1.88 3.08 2.79 5.38 2.2zm-0.827-13.3c0.691-0.0892 2.07-0.238 3.06-0.33l1.81-0.168 1.53-4.52c5.41-16 7.64-22.8 7.54-22.9-0.0678-0.0678-0.544-0.0242-6.25 0.572-5.17 0.54-6.3 0.676-6.39 0.768-0.201 0.203-1.78 12.6-2.91 22.8-0.452 4.1-0.452 4.08 0.0289 4 0.179-0.0318 0.891-0.131 1.58-0.22zm-47.4 40.7-0.309-0.26v-0.902l0.294-0.294c0.397-0.397 0.889-0.401 1.33-0.0107l0.317 0.283v0.878l-0.317 0.283c-0.414 0.37-0.888 0.378-1.31 0.0229zm5.89-2.21c-0.606-2.03-1.02-7.78-0.566-7.78 0.407 0 1.08 7.16 0.726 7.79l-0.102 0.183zm28.5-5.23c-1.54-1.3-5.66-6.53-5.5-6.98 0.119-0.337 3.29 3.23 4.72 5.31 1.28 1.86 1.45 2.24 0.779 1.67zm-80.8-0.594c0.671-0.692 1.51-1.31 2.38-1.75 1.21-0.619 1.37-0.519 0.467 0.302-1.43 1.3-3.95 2.59-2.84 1.45zm98.9-10.8c-0.506-0.398-0.245-1.1 0.409-1.1 0.571 0 0.796 0.749 0.337 1.12-0.293 0.237-0.42 0.233-0.746-0.0229zm9.13-1.09c-2.78-0.951-4.47-1.72-6.1-2.78-1.05-0.678-0.955-0.775 0.374-0.39 2.15 0.623 6.05 2.47 7.38 3.48l0.24 0.184-0.24-8e-3c-0.132-4e-3 -0.873-0.225-1.65-0.49zm-114-4.15c0-0.0816 0.564-0.799 1.25-1.6 0.689-0.796 1.25-1.5 1.26-1.56 0.0038-0.138-0.197-0.22-3.16-1.31-3.31-1.21-3.53-1 2.06-1.96 7.01-1.2 6.63-1.23 5.26 0.427-0.816 0.984-0.82 0.967 0.335 1.44 3.46 1.43 3.41 1.39 2.28 1.78-4.81 1.65-9.28 2.99-9.28 2.77zm4.78-2.04c1.49-0.472 2.85-0.905 3.03-0.962 0.563-0.181 0.373-0.326-1.3-0.996-1.92-0.768-1.86-0.677-1.07-1.61l0.624-0.744-0.246-0.0295c-0.234-0.028-6.23 0.954-6.3 1.03-0.0979 0.0979 0.132 0.252 0.612 0.409 1 0.328 3.44 1.26 3.53 1.35 0.123 0.123-0.0776 0.408-0.983 1.39-1.16 1.26-1.31 1.25 2.11 0.16zm-1.87-9.61c-1.49-0.155-4.73-0.973-4.73-1.19 0-0.515 6.63 0.636 6.99 1.21 0.0721 0.117-1.05 0.107-2.26-0.019zm111-0.0404c-1.63-0.254-3.15-0.681-3.04-0.856 0.27-0.436 6.98 0.444 6.98 0.916 0 0.143-2.92 0.0989-3.94-0.0602zm-2.27-4.32c-0.282-0.197-0.304-0.745-0.0396-0.984 0.249-0.226 0.677-0.209 0.922 0.0347 0.563 0.563-0.224 1.41-0.882 0.949zm1.08-5.42c0.634-0.773 6.63-2.82 6.63-2.26 0 0.475-4.2 2.06-6.28 2.37l-0.502 0.075zm2.71-7.27c0-0.214 1.18-1.14 1.92-1.51 1.18-0.592 1.42-0.535 0.664 0.162-0.981 0.903-2.59 1.74-2.59 1.35zm-115-0.815c-0.664-0.522-0.26-1.71 0.582-1.71 0.305 0 0.726 0.293 0.849 0.592 0.261 0.63-0.182 1.32-0.849 1.32-0.179 0-0.44-0.091-0.582-0.202zm33.3-7.9c-1.38-0.807-5.55-3.21-9.28-5.34-7.69-4.39-7.6-4.34-7.48-4.46 0.0487-0.0487 1.13-0.487 2.4-0.974 2.86-1.1 3.03-0.533-1.46-4.78-2.07-1.96-4.49-4.26-5.38-5.12l-1.61-1.56 0.151-0.15c0.193-0.193 12.1-3.43 12.2-3.32 0.0887 0.0898 1.87 3.38 3.76 6.95 1.43 2.7 1.03 2.53 3.77 1.59 1.8-0.617 2.28-0.749 2.37-0.648 0.064 0.0698 0.414 0.873 0.778 1.78 0.364 0.912 1.32 3.29 2.13 5.28 1.6 3.93 2.96 7.44 2.96 7.59 0 0.234-0.315 5e-3 -1.98-1.44-5.72-4.96-5.68-4.93-5.65-3.93 0.0232 0.715-0.0521 0.839-0.513 0.845-0.886 0.0103-0.879 0.113 0.0827 1.3 1.59 1.95 5.44 7.42 5.44 7.72 0 0.218-0.0968 0.169-2.67-1.34zm0.158-1.02c-0.0037-0.643-4.03-5.33-5.38-6.25-1.07-0.733-1.05-0.788 0.301-1.07 0.608-0.127 1.21-0.279 1.35-0.339l0.241-0.108-0.0656-1.3c-0.0366-0.722-0.0263-1.32 0.0232-1.35 0.128-0.0792 1.3 0.885 4.07 3.36 2.93 2.61 2.84 2.64 1.49-0.52-1.96-4.59-3.35-7.77-3.44-7.86-0.0536-0.0542-0.984 0.225-2.3 0.691-2.63 0.929-2.33 0.996-3.22-0.717-1.65-3.15-4.04-7.58-4.2-7.77l-0.169-0.206-4.67 1.22c-2.57 0.673-4.73 1.28-4.8 1.34l-0.132 0.121 1.18 1.1c1.01 0.94 8.05 7.51 9.53 8.9 0.645 0.605 0.735 0.541-1.99 1.4-2.58 0.818-2.56 0.793-1.5 1.39 2.47 1.4 11.2 6.61 12.5 7.45 0.855 0.552 1.16 0.686 1.16 0.513zm-17.9-0.946c-3.67-2.04-6.46-3.9-9.52-6.34-1.6-1.28-1.72-1.48-0.513-0.826 3.18 1.72 7.1 4.31 9.9 6.55 1.72 1.37 1.75 1.52 0.125 0.615zm2.09-1.72c-0.377-0.487-0.114-1.08 0.484-1.08 0.521-3e-3 0.794 0.69 0.41 1.04-0.216 0.196-0.755 0.22-0.894 0.0407zm33.1-1.75c-0.147-0.227-1.19-3.3-1.53-4.5-0.491-1.74-1.46-6.48-1.45-7.07l0.0032-0.162 0.152 0.201c0.234 0.309 1.6 4.58 2.05 6.41 0.695 2.83 1.13 5.66 0.781 5.13zm33-0.513c0-0.402 2.48-3.03 3.75-3.98 1.31-0.976 1.49-0.958 0.7 0.0726-1.33 1.73-4.45 4.47-4.45 3.91zm6.73-0.2c0-0.0435 1.45-1.59 3.22-3.44 3.73-3.89 3.54-3.42 1.65-4.06-1.9-0.642-1.82-0.591-1.49-1.05 0.273-0.365 5.72-7.51 7.15-9.39 0.534-0.697 0.811-0.98 0.964-0.98 0.162 0 7.09 1.15 9.38 1.56 0.466 0.083 0.528 0.0217-2.14 2.11-3.23 2.53-6.3 5-6.46 5.19l-0.127 0.154 0.127 0.1c0.0698 0.0551 0.997 0.454 2.06 0.887 1.16 0.474 1.93 0.841 1.93 0.923 0 0.149-15.8 8.06-16.1 8.06-0.0992 0-0.18-0.0356-0.18-0.079zm6.05-3.65c3.15-1.58 7.83-4 7.96-4.12 0.139-0.132 0.0534-0.175-1.88-0.948-1.83-0.73-1.97-0.841-1.52-1.2 0.16-0.129 2.05-1.65 4.21-3.38 4.25-3.41 4.15-3.31 3.42-3.43-0.276-0.0446-1.83-0.3-3.46-0.567-3.46-0.569-2.97-0.658-4.02 0.724-1.87 2.45-5.05 6.59-5.48 7.13-0.645 0.82-0.673 0.786 1.17 1.4 2.03 0.676 2.03 0.467-0.0742 2.57-2.47 2.47-3.01 3.04-2.87 3.04 0.0645 0 1.21-0.548 2.55-1.22zm-26.9 2.57c0.036-0.143 0.929-2.16 1.99-4.48 1.51-3.33 1.89-4.24 1.78-4.31-0.0762-0.0471-0.818-0.0726-1.65-0.0566-2.15 0.0413-2.09 0.0824-1.33-0.908 0.292-0.379 1.62-2.14 2.96-3.9 1.34-1.77 2.67-3.53 2.97-3.92s1.36-1.77 2.35-3.06c3.11-4.05 3.13-4.05 1.35 0.653-2.89 7.66-2.77 6.72-0.838 6.64 0.809-0.0343 1.75-0.0875 2.1-0.118 0.999-0.089 1.2-0.378-2.84 4.08-1.23 1.35-3.31 3.66-4.62 5.12-4.31 4.79-4.38 4.86-4.23 4.26zm4.68-5.91c0.58-0.66 1.3-1.47 1.61-1.81 0.304-0.336 1.05-1.17 1.66-1.86 0.608-0.684 1.41-1.59 1.78-2.01 0.373-0.419 0.678-0.801 0.678-0.848 0-0.0809-1.38-0.0346-2.94 0.0988l-0.678 0.0579v-0.214c0-0.118 0.335-1.06 0.745-2.1 0.885-2.24 1.77-4.61 1.77-4.75 0-0.248-0.221-0.0086-1.23 1.33-0.593 0.788-2.19 2.9-3.54 4.7-2.94 3.9-2.84 3.52-0.953 3.52 1.91 0 1.89-0.3 0.204 3.25-0.777 1.64-1.41 3.01-1.41 3.05 2e-3 0.106 1.03-0.975 2.31-2.43zm-19.1 5.6c-0.0319-0.0516 6e-3 -1.04 0.0838-2.19 0.078-1.16 0.173-2.84 0.212-3.73l0.0704-1.63-0.14-1e-3c-0.0772-8.2e-4 -0.537 0.164-1.02 0.366-1.19 0.496-1.24 1.23 0.539-8.2 1.82-9.64 1.73-9.53 1.78-2.4l0.0363 5.12 0.138 0.0529c0.0759 0.0291 0.715-0.155 1.42-0.41 1.26-0.455 1.53-0.525 1.53-0.397 0 0.474-4.55 13.6-4.66 13.4zm1.24-5.18c0-0.0506 0.497-1.61 1.11-3.47 0.608-1.86 1.11-3.41 1.11-3.46 0-0.152-0.407-0.0648-1.29 0.277-0.501 0.193-1 0.352-1.12 0.352h-0.205v-2.36c0-3.27-0.0709-3.25-0.702 0.245-0.175 0.967-0.45 2.46-0.612 3.32-0.441 2.35-0.458 2.3 0.645 1.8 0.366-0.166 0.74-0.301 0.832-0.301h0.167l-0.0619 0.728c-0.034 0.401-0.0884 1.32-0.121 2.03l-0.0589 1.31 0.157-0.195c0.0865-0.107 0.157-0.236 0.157-0.287zm29.2-0.939c0-0.193 2.4-3.84 3.58-5.42 1.32-1.79 4.82-5.84 4.94-5.72 0.0946 0.0946-1.46 2.54-3.03 4.77-1.88 2.67-5.49 6.86-5.49 6.38zm-43.9-5.31c-0.574-0.322-0.665-1.09-0.186-1.56 0.4-0.4 0.889-0.401 1.34-0.0026l0.326 0.291v0.412c0 0.746-0.824 1.23-1.47 0.863z" fill="#0f0d0b"/></svg>
