<svg width="210mm" height="297mm" version="1.1" viewBox="0 0 210 297" xmlns="http://www.w3.org/2000/svg"><path d="m118 201c-1.73-8.65-4.06-15.4-5.66-16.5-1.09-0.72-4.12 2.31-7.78 7.8-0.362 0.543-0.68 0.988-0.706 0.99-0.0258 1e-3 -0.0676-1.07-0.0929-2.38-0.0741-3.84-0.413-5.83-1.12-6.53l-0.261-0.262-0.328 0.0524c-1.48 0.237-6.86 4.29-11.3 8.52-0.832 0.794-0.851 0.718-0.183-0.752 2.02-4.45 3.26-9.07 2.7-10.1-0.962-1.77-10.9 0.378-22.3 4.81-2.21 0.866-2.26 0.964 0.602-1.36 3.73-3.03 4.63-3.76 6.98-5.71 1.24-1.03 2.29-1.92 2.32-1.97 0.0349-0.0565-0.167-0.322-0.523-0.688-1.3-1.34-2.56-3.98-2.94-6.19l-0.161-0.932 0.0425-1.32c0.0694-2.16 0.542-3.89 1.54-5.66l0.304-0.538-0.14-0.133c-0.636-0.605-8.34-4.91-10.8-6.01-0.214-0.0972-0.458-0.232-0.543-0.299l-0.155-0.123 0.154-2e-3c0.0848-1e-3 1.83 0.276 3.88 0.615 3.95 0.654 6.84 1.11 9.2 1.44 1.76 0.246 1.88 0.269 1.82 0.359-0.0242 0.0392-0.184 0.0713-0.355 0.0713-0.171 0-0.555 0.0404-0.854 0.0898-0.414 0.0684-0.751 0.0678-1.41-2e-3 -0.856-0.0909-6.1-0.823-6.52-0.909-0.39-0.0813-0.218 0.0802 0.482 0.453 0.778 0.414 0.794 0.419 0.725 0.241l-0.0492-0.128 0.42 0.0527c0.231 0.029 0.892 0.12 1.47 0.203 1.88 0.268 3.44 0.481 4.08 0.555 0.342 0.0394 0.828 0.105 1.08 0.145l0.461 0.0736 0.474-0.3c2.2-1.39 4.81-1.93 7.02-1.45l0.647 0.14 0.501-0.239c0.276-0.132 0.519-0.239 0.54-0.239 0.17 0 0.876-0.567 0.961-0.77 0.427-1.03-0.738-4.11-2.93-7.75-0.475-0.79-0.424-0.794 0.735-0.0551 4.49 2.86 7.77 4.24 8.63 3.64 1.39-0.977-0.159-10.6-2.95-18.3-0.519-1.42-0.506-1.47 0.166-0.651 0.235 0.288 1.37 1.68 2.52 3.09 7.37 9.03 10.5 12.5 11.5 12.5h0.295l0.337-0.376c0.903-1.01 2.55-4.22 3.7-7.2 0.565-1.47 0.613-1.54 0.754-1.08 1.7 5.46 3.77 8.97 5.28 8.97 2.95 0 12.2-8.62 19.4-18.1 0.184-0.244 0.354-0.424 0.377-0.402 0.0563 0.0563-0.182 0.765-0.448 1.33-0.12 0.257-0.275 0.711-0.344 1.01-0.0687 0.299-0.294 1.14-0.501 1.86-1.96 6.89-2.66 12.9-1.62 13.7 0.86 0.723 6.76-1.7 11.3-4.63 1.23-0.794 1.35-0.805 0.802-0.0781-0.171 0.227-0.311 0.444-0.311 0.482 0 0.0377-0.504 1.09-1.12 2.34-1.33 2.69-2.09 4.39-2.03 4.54 0.0301 0.0784 0.234 0.105 0.8 0.106 1.35 2e-3 1.37 0.0415 0.285 0.702-0.453 0.275-0.912 0.573-1.02 0.66l-0.195 0.159 0.114 0.517 1.25-0.0672c0.689-0.037 1.55-0.0679 1.91-0.0687l0.66-1e-3 0.0776 1.16h0.621l0.0525-1.27c0.0289-0.698 0.0706-1.29 0.0926-1.31 0.0834-0.0834 8.15 1.14 8.26 1.25 0.0219 0.0219-0.018 0.27-0.0887 0.552-0.157 0.624-0.162 0.616 0.426 0.731l0.476 0.0937-0.0489 0.247c-0.0269 0.136-0.278 1.1-0.559 2.14-0.28 1.04-0.498 1.9-0.483 1.92 0.0149 0.0149 0.804 0.0589 1.75 0.0979 1.99 0.0815 1.97 0.0753 1.45 0.54l-0.388 0.35 0.543-0.295c1.39-0.757 1.39-0.807 0.0388-0.809-1.9-4e-3 -2.95-0.154-2.95-0.423 0-0.344 0.171-0.392 1.39-0.392 3.33 0 5.91 0.0467 5.91 0.107 0 0.0374-0.341 0.27-0.757 0.518-2.2 1.31-7.53 4.64-8.06 5.04l-0.233 0.176-1.01 3.94-0.33 0.0239c-0.269 0.0195-0.5 0.17-0.261 0.17 0.563 0 1.48 1.62 1.48 2.61 7e-3 3.09-4.49 4.61-6.16 2.09-0.374-0.564-0.295-0.548-1.38-0.278-1.14 0.282-1.3 0.347-1.3 0.509 0 0.652 4.44 4.91 8.07 7.74 0.494 0.385 0.183 0.315-2.26-0.509-4.73-1.59-7.66-2.23-10.3-2.25-2.04-0.0113-2.6 0.225-2.77 1.17l-0.0891 0.479 0.131 0.799c0.354 2.16 1.73 5.45 3.81 9.11 0.893 1.57 0.898 1.56-0.297 0.613-4.95-3.91-9.67-6.63-11.7-6.77l-0.559-0.0376-0.224 0.224c-0.883 0.883-1.16 4.6-0.681 9.07 0.124 1.16 0.0753 1.22-0.396 0.464-2.79-4.45-5.55-7.72-6.53-7.72-1.47 0-4.22 7.08-5.69 14.6-0.409 2.1-0.38 1.98-0.462 1.98-0.0389 0-0.111-0.201-0.16-0.446zm0.341-4.52c1.59-7.77 3.53-13 5.04-13.5l0.337-0.129 0.307 0.0828c1.09 0.292 3.06 2.39 5.27 5.6l0.615 0.893 0.0254-0.222c0.016-0.14-0.0308-0.283-0.127-0.388-0.0839-0.0916-0.423-0.551-0.755-1.02-2.37-3.36-4.29-5.24-5.35-5.24h-0.354l-0.358 0.33c-1.45 1.34-3.02 5.62-4.7 12.8-0.119 0.511-0.251 0.631-0.331 0.3-0.173-0.714-0.693-2.51-0.719-2.48-0.0176 0.0176 0.124 0.708 0.315 1.54s0.372 1.63 0.402 1.77c0.115 0.572 0.212 0.492 0.377-0.311zm-13-7.12c0.241-0.369 0.494-0.761 0.562-0.871l0.124-0.199-0.216 0.194c-0.119 0.107-0.343 0.36-0.497 0.563-0.35 0.459-0.373 0.458-0.436-0.0162-0.0855-0.645-0.202-0.541-0.202 0.18 0 1.1 0.0373 1.11 0.664 0.149zm-12.3-0.146c0.0566-0.0682 0.113-0.19 0.125-0.272 0.0124-0.0812 0.178-0.576 0.369-1.1 0.801-2.2 0.972-2.71 1.23-3.67 0.808-2.99 0.684-4.08-0.531-4.64l-0.385-0.178-1.13 9e-3c-0.619 5e-3 -1.28 0.0431-1.48 0.0843l-0.349 0.075 1.09 9e-3c2 0.0162 2.69 0.362 2.92 1.48 0.234 1.13-0.322 3.57-1.53 6.73-0.646 1.69-0.697 1.91-0.33 1.47zm49.2-2.82c-0.047-0.0878-0.12-0.16-0.162-0.16-0.0424 0-0.434-0.257-0.871-0.571-4.05-2.92-6.96-4.53-8.91-4.92-0.985-0.203-1.48 0.0194-1.84 0.818-0.243 0.55-0.23 0.591 0.0489 0.151 0.127-0.201 0.346-0.437 0.485-0.525l0.254-0.16 0.621 0.0344c1.91 0.106 6.42 2.51 9.99 5.34 0.398 0.314 0.543 0.314 0.374-2e-3zm-66.5-2.56c0.222-0.0956 0.414-0.218 0.427-0.272 0.013-0.0538 0.388-0.391 0.833-0.749 0.445-0.358 0.957-0.774 1.14-0.923 0.181-0.149 0.668-0.551 1.08-0.893s0.989-0.813 1.28-1.05c1.73-1.41 1.78-1.45 1.69-1.54-0.125-0.125-0.223-0.106-0.453 0.0894-0.215 0.183-1.52 1.26-2.24 1.84-0.238 0.194-0.677 0.553-0.976 0.798s-1.23 0.991-2.08 1.66c-1.81 1.43-1.88 1.54-0.703 1.04zm37.4-1.01c-0.37-0.52-0.879-0.696-1.36-0.472l-0.311 0.145 0.863-0.0797 0.306 0.156c0.168 0.086 0.373 0.23 0.454 0.32 0.214 0.237 0.238 0.201 0.0464-0.0691zm38.7-4.97c-0.0142-0.0409-0.39-0.377-0.835-0.748l-0.81-0.674 0.285 0.348c0.515 0.628 0.366 0.659-1.19 0.248-6.1-1.62-8.93-1.7-9.75-0.299-0.256 0.437-0.209 0.619 0.0567 0.218 0.923-1.39 5.34-1.15 10.8 0.586 1.22 0.392 1.51 0.454 1.46 0.322zm-0.467-11.1c0.0276-0.282-0.106-0.497-0.207-0.334-0.0875 0.142-0.0101 0.653 0.0937 0.619 0.0485-0.0159 0.0994-0.144 0.113-0.285zm-51.3-13c0.11-0.103 0.251-0.362 0.314-0.575 0.133-0.448 0.15-0.866 0.0182-0.456-0.0445 0.139-0.193 0.382-0.33 0.54l-0.249 0.288-0.536 0.0302c-0.911 0.0514-2.56-0.432-4.1-1.2-0.746-0.374-1.06-0.506-1.06-0.449 0 0.0569 2.05 1.07 2.88 1.42 1.11 0.472 1.73 0.633 2.33 0.61l0.52-0.0202zm43.8-1.21c-0.142-0.142-0.181-0.242-0.144-0.369 0.1-0.339 1.57-3.3 2.36-4.74 0.438-0.805 0.775-1.48 0.749-1.51-0.0734-0.0734-0.585 0.229-0.585 0.346 0 0.057-0.541 1.16-1.2 2.46-1.67 3.26-1.88 4.01-1.15 4.01h0.175zm-51-1.39c0-0.0604-0.911-0.588-1.02-0.588-0.172 0 0.024 0.146 0.519 0.387 0.529 0.257 0.496 0.244 0.496 0.201zm28.1-0.165c2.81-0.713 7.74-5.15 14.7-13.3 1.93-2.25 1.88-2.17 1.85-2.35-0.0179-0.0923-0.255 0.141-0.764 0.752-6.71 8.07-14 14.4-16.5 14.4-0.892 0-2.19-1.29-3.26-3.24-0.0988-0.181-0.194-0.315-0.212-0.297-0.06 0.06 1 1.94 1.45 2.56 0.957 1.33 1.65 1.68 2.76 1.4zm-10.2-0.237c0.265-0.173 0.649-0.718 1.09-1.54 0.437-0.821 0.416-0.829-0.102-0.0379-0.21 0.32-0.543 0.73-0.741 0.911l-0.36 0.33h-0.316c-0.764 0-2.32-1.39-5.15-4.6-0.593-0.672-1.09-1.22-1.11-1.22-0.169 0 3.17 3.87 4.26 4.94 1.31 1.29 1.89 1.58 2.44 1.22zm27.1-0.727c0.784-0.233 2-0.696 2.25-0.858l0.136-0.0876-0.155 0.0535c-0.0854 0.0294-0.435 0.152-0.776 0.273-0.925 0.326-1.8 0.538-2.41 0.586l-0.543 0.0421-0.269-0.141c-0.347-0.182-0.522-0.494-0.673-1.2l-0.122-0.571 0.0324-1.63c0.0223-1.12 0.0103-1.51-0.0383-1.24-0.0389 0.214-0.0761 1.12-0.0828 2.02l-0.0121 1.63 0.141 0.458c0.0797 0.258 0.238 0.555 0.363 0.679l0.221 0.221h0.578c0.415 0 0.797-0.065 1.36-0.231zm-23.7-5.65c0.532-1.15 0.57-1.16 1.09-0.141 0.444 0.863 0.45 0.8 0.0303-0.34-0.557-1.52-0.521-1.5-0.914-0.396-0.145 0.406-0.338 0.921-0.43 1.15-0.266 0.648-0.12 0.473 0.222-0.268zm-15.5-6.37c-0.0039-0.108-0.451-0.601-0.5-0.552-0.0953 0.0953 0.0594 0.469 0.221 0.534 0.212 0.0857 0.282 0.0902 0.279 0.0181zm-9.55 62.7c0-0.0212 0.491-0.962 1.09-2.09l1.09-2.05 1.3-1.42c2.12-2.32 4.63-4.98 4.74-5.02 0.233-0.0758-4.16 6.65-4.86 7.45-0.971 1.1-3.36 3.33-3.36 3.13zm53.6-2.42-1.92-1.68-0.872-1.33c-2.89-4.41-4.27-6.56-4.22-6.61 0.0532-0.0532 1.11 1.06 3.01 3.18 0.918 1.02 2.03 2.26 2.47 2.76 0.443 0.493 0.85 0.966 0.903 1.05 0.0534 0.0854 0.678 1.07 1.39 2.18 0.71 1.12 1.29 2.05 1.29 2.08 0 0.144-0.304-0.0965-2.06-1.63zm-36.6 0.612c0-0.0378 0.102-0.433 0.226-0.878 0.124-0.445 0.438-1.58 0.697-2.53l0.471-1.72 1.19-2.43c0.655-1.34 1.29-2.64 1.41-2.88 0.611-1.24 0.33-0.112-0.928 3.72-0.496 1.51-0.828 2.37-1.3 3.34-0.345 0.718-0.848 1.76-1.12 2.33-0.436 0.908-0.657 1.26-0.657 1.06zm23-1.49c-1.09-1.84-1.13-1.93-1.57-3.42-0.915-3.11-1.42-5.04-1.33-5.04 0.0722 0 0.68 1.32 1.75 3.8l0.935 2.17 0.465 1.65c0.606 2.15 0.581 2.24-0.249 0.838zm-19.4-1.13c0.303-1.88 0.426-2.42 0.863-3.8 0.27-0.855 0.564-1.71 0.653-1.9l0.161-0.347-0.0389 0.369c-0.0786 0.745-0.741 3.47-1.12 4.59-0.375 1.12-0.603 1.6-0.522 1.1zm-28.3-1.76c-0.265-0.341-2.35-3.71-2.35-3.8 0.0018-0.132 7.78-5.24 8.84-5.81 0.326-0.174 0.278-0.0194-0.232 0.75-0.276 0.417-0.762 1.16-1.08 1.65-0.62 0.961-2.51 3.78-3.29 4.9-0.262 0.378-0.739 1.07-1.06 1.54-0.578 0.848-0.687 0.948-0.833 0.761zm-0.441-2.35c-0.741-1.24-0.77-1.1 0.42-2 0.555-0.422 1.01-0.782 1.01-0.799 0-0.0431-1.82 1.21-2.12 1.46l-0.241 0.201 0.724 1.1c0.889 1.35 1 1.38 0.206 0.0438zm5.17-5.34c0.157-0.0651 0.324-0.191 0.372-0.28 0.125-0.233-0.0095-0.202-0.398 0.0925-0.185 0.14-0.642 0.474-1.02 0.743-0.899 0.647-0.872 0.689 0.0388 0.0593 0.395-0.273 0.846-0.55 1-0.615zm49.6 5.72c-0.695-0.95-0.845-1.22-1.3-2.3-0.788-1.89-0.812-2.03-0.181-1.05 0.899 1.39 1.98 3.56 1.9 3.8-0.0157 0.0471-0.205-0.155-0.42-0.45zm13.8-4.28c-0.711-1.03-2.52-3.75-3.03-4.56-1.94-3.07-1.89-2.99-1.71-2.99 0.416 0 7.84 4.59 7.84 4.85-2e-3 0.0698-0.593 0.848-2.2 2.9-0.408 0.52-0.407 0.52-0.9-0.194zm2.25-2.5c0-0.0422-0.681-0.532-1.51-1.09-2.29-1.53-1.99-1.28 0.854 0.723 0.695 0.489 0.66 0.469 0.66 0.365zm-5.5-3.73c-0.192-0.16-0.321-0.196-0.321-0.0906 0 0.116 0.186 0.248 0.346 0.246l0.159-3e-3zm-77.8-3.4c0-0.0898 3.35-2.02 3.87-2.23 0.838-0.339 3.6-1.28 3.76-1.28h0.161l-0.16 0.112c-0.169 0.118-1.92 1.12-2.9 1.65-0.568 0.311-1.41 0.642-3.6 1.42-1.18 0.421-1.14 0.408-1.14 0.319zm1.94-3.31c0-0.0975 1.41-0.551 2.21-0.71 1.61-0.321 1.71-0.22 0.254 0.263-1.1 0.365-2.47 0.613-2.47 0.448zm90.5-8.16c-1.32-0.276-1.61-0.361-1.43-0.423 0.253-0.0879 2.44 0.133 3.02 0.305 0.299 0.0887 0.554 0.161 0.567 0.161 0.0133 0 3e-3 0.0349-0.0238 0.0776-0.0841 0.136-1.21 0.0723-2.14-0.121zm0.414-1.38c-1.85-0.135-1.69-0.219 0.722-0.384l1.48-0.102 0.873 0.0996c1.22 0.139 1.25 0.204 0.186 0.379-0.786 0.129-1.58 0.131-3.27 8e-3zm-76.5-13.1c-1.46-0.881-3.82-2.36-5.59-3.5l-1.16-0.75-1.88-1.76c-1.78-1.66-2.11-2.01-1.71-1.8 2.55 1.33 5.03 3.06 9.17 6.39 3.08 2.48 3.23 2.66 1.17 1.42zm-3.06-0.13c-1.17-0.581-2.71-1.53-2.95-1.82l-0.107-0.129 0.147 0.0525c0.548 0.196 1.88 0.858 2.44 1.21 0.896 0.566 1.86 1.23 1.86 1.27 0 0.0891-0.214-8.1e-4 -1.39-0.583zm72-3.71c0.0427-0.0428 0.934-0.566 1.98-1.16l1.9-1.09 1.64-0.632c2.23-0.857 2.24-0.846 0.354 0.325-1.83 1.14-6.48 3.16-5.88 2.56zm-2.87-0.417c0.14-0.154 4.21-3.48 4.88-4 0.368-0.28 5.26-3.37 5.64-3.57l0.263-0.135-0.155 0.178c-0.183 0.21-2.38 2.05-4.05 3.39-1.28 1.03-1.81 1.39-4.49 3.02-2.25 1.37-2.41 1.46-2.09 1.1zm-61.7-2.41c-3.77-2.57-6.38-4.63-8.53-6.73l-0.583-0.567 0.271 0.133c1.56 0.762 4.82 3.24 8.36 6.34 2.09 1.84 2.17 1.97 0.486 0.82zm5.09-0.514c-1.54-1.26-5.55-4.83-6.22-5.54l-0.247-0.26 0.0677-0.349c0.0372-0.192 0.262-1.38 0.499-2.64 0.451-2.39 0.498-2.55 0.688-2.24 0.507 0.804 6.13 11.5 6.09 11.6-0.0148 0.0445-0.41-0.233-0.878-0.616zm-4.53-4.97c-0.0849-0.117-0.332-0.387-0.549-0.599-0.481-0.47-0.483-0.382 0.0382-2.9 0.0689-0.332 0.241-0.171 0.766 0.718 0.645 1.09 0.722 1.15 0.183 0.136-0.571-1.07-0.791-1.44-0.882-1.47-0.068-0.0227-0.654 2.67-0.654 3 0 0.093 1.14 1.32 1.23 1.32 0.0146 0-0.043-0.0961-0.128-0.214zm33.1 3.87c0-0.289 2.42-9.59 2.52-9.7 0.125-0.125 3.23 0.182 3.23 0.319 0 0.255-3.39 5.95-5.51 9.27-0.117 0.183-0.234 0.237-0.234 0.109zm3.85-8.69c1.3 0.0351 1.19-0.122-0.13-0.199-0.818-0.0479-0.805-0.0566-1 0.65-0.22 0.792-0.188 0.873 0.0515 0.132l0.196-0.606zm-6.51 8.6c-0.0485-0.124-0.0691-0.359-0.251-2.87-0.0633-0.875-0.204-2.78-0.312-4.23-0.108-1.45-0.18-2.83-0.158-3.07 0.0215-0.235 0.0759-1.04 0.121-1.79 0.146-2.43 0.177-2.42 0.661 0.194l0.36 1.94-0.0469 2.29c-0.0916 4.47-0.258 7.83-0.374 7.53zm21.2-0.175c0.0229-0.0534 0.362-0.866 0.753-1.81 2.54-6.09 3.29-7.85 3.37-7.94l0.0951-0.1 0.654 0.576c2.33 2.05 2.83 2.52 2.83 2.62 0 0.0662-0.332 0.412-0.738 0.769-0.406 0.357-1.51 1.33-2.45 2.17-3.72 3.31-4.69 4.11-4.52 3.71zm4.45-8.27c0.0477-0.0159 0.327 0.165 0.621 0.402 0.294 0.237 0.657 0.529 0.806 0.65 0.35 0.282 0.699 0.509 0.699 0.453 0-0.0809-2.05-1.84-2.14-1.84-0.0516 0-0.259 0.393-0.461 0.873-0.499 1.19-0.503 1.24-0.0215 0.298 0.226-0.445 0.451-0.822 0.498-0.838zm-27.1 7.32c0-0.0178-0.0879-0.586-0.195-1.26-0.207-1.3-0.345-3.66-0.201-3.43 0.322 0.501 0.756 4.73 0.485 4.73-0.049 0-0.089-0.0146-0.089-0.0324zm-10.2-1.27c-0.277-0.444-2.75-5.1-4.23-7.98l-1.32-2.56-0.591-1.9c-0.631-2.03-0.627-2.02-0.521-2.02 0.141 0 2.4 3.46 2.63 4.04 4.22 10.3 4.63 11.4 4.03 10.4zm1.09-1.86c-1.02-2.28-2.12-5.55-2.42-7.16l-0.0494-0.271 0.113 0.115c0.119 0.121 0.856 1.71 1.17 2.54 0.102 0.265 0.327 1.01 0.5 1.66 0.173 0.648 0.328 1.2 0.345 1.23 0.0662 0.107 0.598 2.28 0.566 2.31-0.0185 0.0185-0.124-0.168-0.234-0.414z" fill="#fbd901"/><path d="m118 201c-1.73-8.65-4.06-15.4-5.66-16.5-1.09-0.72-4.12 2.31-7.78 7.8-0.362 0.543-0.68 0.988-0.706 0.99-0.0258 1e-3 -0.0676-1.07-0.0929-2.38-0.0741-3.84-0.413-5.83-1.12-6.53l-0.261-0.262-0.328 0.0524c-1.48 0.237-6.86 4.29-11.3 8.52-0.832 0.794-0.851 0.718-0.183-0.752 2.02-4.45 3.26-9.07 2.7-10.1-0.962-1.77-10.9 0.378-22.3 4.81-2.21 0.866-2.26 0.964 0.602-1.36 3.73-3.03 4.63-3.76 6.98-5.71 1.24-1.03 2.29-1.92 2.32-1.97 0.0349-0.0565-0.167-0.322-0.523-0.688-1.3-1.34-2.56-3.98-2.94-6.19l-0.161-0.932 0.0425-1.32c0.0694-2.16 0.542-3.89 1.54-5.66l0.304-0.538-0.14-0.133c-0.636-0.605-8.34-4.91-10.8-6.01-0.214-0.0972-0.458-0.232-0.543-0.299l-0.155-0.123 0.154-2e-3c0.0848-1e-3 1.83 0.276 3.88 0.615 3.95 0.654 6.84 1.11 9.2 1.44 1.76 0.246 1.88 0.269 1.82 0.359-0.0242 0.0392-0.184 0.0713-0.355 0.0713-0.171 0-0.555 0.0404-0.854 0.0898-0.414 0.0684-0.751 0.0678-1.41-2e-3 -0.856-0.0909-6.1-0.823-6.52-0.909-0.39-0.0813-0.218 0.0802 0.482 0.453 0.778 0.414 0.794 0.419 0.725 0.241l-0.0492-0.128 0.42 0.0527c0.231 0.029 0.892 0.12 1.47 0.203 1.88 0.268 3.44 0.481 4.08 0.555 0.342 0.0394 0.828 0.105 1.08 0.145l0.461 0.0736 0.474-0.3c2.2-1.39 4.81-1.93 7.02-1.45l0.647 0.14 0.501-0.239c0.276-0.132 0.519-0.239 0.54-0.239 0.17 0 0.876-0.567 0.961-0.77 0.427-1.03-0.738-4.11-2.93-7.75-0.475-0.79-0.424-0.794 0.735-0.0551 4.49 2.86 7.77 4.24 8.63 3.64 1.39-0.977-0.159-10.6-2.95-18.3-0.519-1.42-0.506-1.47 0.166-0.651 0.235 0.288 1.37 1.68 2.52 3.09 7.37 9.03 10.5 12.5 11.5 12.5h0.295l0.337-0.376c0.903-1.01 2.55-4.22 3.7-7.2 0.565-1.47 0.613-1.54 0.754-1.08 1.7 5.46 3.77 8.97 5.28 8.97 2.95 0 12.2-8.62 19.4-18.1 0.184-0.244 0.354-0.424 0.377-0.402 0.0563 0.0563-0.182 0.765-0.448 1.33-0.12 0.257-0.275 0.711-0.344 1.01-0.0687 0.299-0.294 1.14-0.501 1.86-1.96 6.89-2.66 12.9-1.62 13.7 0.86 0.723 6.76-1.7 11.3-4.63 1.23-0.794 1.35-0.805 0.802-0.0781-0.171 0.227-0.311 0.444-0.311 0.482 0 0.0377-0.504 1.09-1.12 2.34-1.33 2.69-2.09 4.39-2.03 4.54 0.0301 0.0784 0.234 0.105 0.8 0.106 1.35 2e-3 1.37 0.0415 0.285 0.702-0.453 0.275-0.912 0.573-1.02 0.66l-0.195 0.159 0.114 0.517 1.25-0.0672c0.689-0.037 1.55-0.0679 1.91-0.0687l0.66-1e-3 0.0776 1.16h0.621l0.0525-1.27c0.0289-0.698 0.0706-1.29 0.0926-1.31 0.0834-0.0834 8.15 1.14 8.26 1.25 0.0219 0.0219-0.018 0.27-0.0887 0.552-0.157 0.624-0.162 0.616 0.426 0.731l0.476 0.0937-0.0489 0.247c-0.0269 0.136-0.278 1.1-0.559 2.14-0.28 1.04-0.498 1.9-0.483 1.92 0.0149 0.0149 0.804 0.0589 1.75 0.0979 1.99 0.0815 1.97 0.0753 1.45 0.54l-0.388 0.35 0.543-0.295c1.39-0.757 1.39-0.807 0.0388-0.809-1.9-4e-3 -2.95-0.154-2.95-0.423 0-0.344 0.171-0.392 1.39-0.392 3.33 0 5.91 0.0467 5.91 0.107 0 0.0374-0.341 0.27-0.757 0.518-2.2 1.31-7.53 4.64-8.06 5.04l-0.233 0.176-1.01 3.94-0.33 0.0239c-0.269 0.0195-0.5 0.17-0.261 0.17 0.563 0 1.48 1.62 1.48 2.61 7e-3 3.09-4.49 4.61-6.16 2.09-0.374-0.564-0.295-0.548-1.38-0.278-1.14 0.282-1.3 0.347-1.3 0.509 0 0.652 4.44 4.91 8.07 7.74 0.494 0.385 0.183 0.315-2.26-0.509-4.73-1.59-7.66-2.23-10.3-2.25-2.04-0.0113-2.6 0.225-2.77 1.17l-0.0891 0.479 0.131 0.799c0.354 2.16 1.73 5.45 3.81 9.11 0.893 1.57 0.898 1.56-0.297 0.613-4.95-3.91-9.67-6.63-11.7-6.77l-0.559-0.0376-0.224 0.224c-0.883 0.883-1.16 4.6-0.681 9.07 0.124 1.16 0.0753 1.22-0.396 0.464-2.79-4.45-5.55-7.72-6.53-7.72-1.47 0-4.22 7.08-5.69 14.6-0.409 2.1-0.38 1.98-0.462 1.98-0.0389 0-0.111-0.201-0.16-0.446zm0.341-4.52c1.59-7.77 3.53-13 5.04-13.5l0.337-0.129 0.307 0.0828c1.09 0.292 3.06 2.39 5.27 5.6l0.615 0.893 0.0254-0.222c0.016-0.14-0.0308-0.283-0.127-0.388-0.0839-0.0916-0.423-0.551-0.755-1.02-2.37-3.36-4.29-5.24-5.35-5.24h-0.354l-0.358 0.33c-1.45 1.34-3.02 5.62-4.7 12.8-0.119 0.511-0.251 0.631-0.331 0.3-0.173-0.714-0.693-2.51-0.719-2.48-0.0176 0.0176 0.124 0.708 0.315 1.54s0.372 1.63 0.402 1.77c0.115 0.572 0.212 0.492 0.377-0.311zm-13-7.12c0.241-0.369 0.494-0.761 0.562-0.871l0.124-0.199-0.216 0.194c-0.119 0.107-0.343 0.36-0.497 0.563-0.35 0.459-0.373 0.458-0.436-0.0162-0.0855-0.645-0.202-0.541-0.202 0.18 0 1.1 0.0373 1.11 0.664 0.149zm-12.3-0.146c0.0566-0.0682 0.113-0.19 0.125-0.272 0.0124-0.0812 0.178-0.576 0.369-1.1 0.801-2.2 0.972-2.71 1.23-3.67 0.808-2.99 0.684-4.08-0.531-4.64l-0.385-0.178-1.13 9e-3c-0.619 5e-3 -1.28 0.0431-1.48 0.0843l-0.349 0.075 1.09 9e-3c2 0.0162 2.69 0.362 2.92 1.48 0.234 1.13-0.322 3.57-1.53 6.73-0.646 1.69-0.697 1.91-0.33 1.47zm49.2-2.82c-0.047-0.0878-0.12-0.16-0.162-0.16-0.0424 0-0.434-0.257-0.871-0.571-4.05-2.92-6.96-4.53-8.91-4.92-0.985-0.203-1.48 0.0194-1.84 0.818-0.243 0.55-0.23 0.591 0.0489 0.151 0.127-0.201 0.346-0.437 0.485-0.525l0.254-0.16 0.621 0.0344c1.91 0.106 6.42 2.51 9.99 5.34 0.398 0.314 0.543 0.314 0.374-2e-3zm-66.5-2.56c0.222-0.0956 0.414-0.218 0.427-0.272 0.013-0.0538 0.388-0.391 0.833-0.749 0.445-0.358 0.957-0.774 1.14-0.923 0.181-0.149 0.668-0.551 1.08-0.893s0.989-0.813 1.28-1.05c1.73-1.41 1.78-1.45 1.69-1.54-0.125-0.125-0.223-0.106-0.453 0.0894-0.215 0.183-1.52 1.26-2.24 1.84-0.238 0.194-0.677 0.553-0.976 0.798s-1.23 0.991-2.08 1.66c-1.81 1.43-1.88 1.54-0.703 1.04zm37.4-1.01c-0.37-0.52-0.879-0.696-1.36-0.472l-0.311 0.145 0.863-0.0797 0.306 0.156c0.168 0.086 0.373 0.23 0.454 0.32 0.214 0.237 0.238 0.201 0.0464-0.0691zm38.7-4.97c-0.0142-0.0409-0.39-0.377-0.835-0.748l-0.81-0.674 0.285 0.348c0.515 0.628 0.366 0.659-1.19 0.248-6.1-1.62-8.93-1.7-9.75-0.299-0.256 0.437-0.209 0.619 0.0567 0.218 0.923-1.39 5.34-1.15 10.8 0.586 1.22 0.392 1.51 0.454 1.46 0.322zm-71.9-7.23c0.149-0.0456 0.672-0.0835 1.16-0.0842 0.498-7.6e-4 0.96-0.039 1.05-0.0868 0.0865-0.047 0.279-0.106 0.429-0.131l0.271-0.0451 6.3e-4 -2.09 0.256-0.885c0.947-3.27 3.66-4.8 6.24-3.52l0.75 0.375 0.376-0.533c0.207-0.293 0.544-0.767 0.75-1.05 0.629-0.873 1.68-2.48 1.68-2.56 0-0.175-1.23-1.07-1.92-1.39-0.826-0.387-1.25-0.509-2.25-0.651l-0.715-0.101-0.885 0.0923c-4.93 0.514-8.94 5.36-8.9 10.8 0.0037 0.491 0.194 1.79 0.221 1.51l0.0112-0.116 0.0946 0.123c0.129 0.168 0.429 0.322 0.755 0.387 0.149 0.0299 0.289 0.0584 0.311 0.0633 0.0216 5e-3 0.161-0.0284 0.311-0.0739zm74.7-2.04c0-0.564-0.0375-0.614-0.695-0.944-0.754-0.378-1.95-0.239-2.07 0.241-0.0259 0.103-0.138 0.209-0.27 0.255l-0.226 0.0787v0.478l0.214 0.0816c0.117 0.0449 0.353 0.0604 0.524 0.0344 0.818-0.124 0.989-0.132 1.07-0.0506 0.0473 0.0473 0.228 0.088 0.4 0.0904 0.173 2e-3 0.437 0.0506 0.586 0.107 0.457 0.173 0.466 0.166 0.466-0.371zm-54.8 0.278c0.113 4.9e-4 0.375-0.0389 0.582-0.0876 0.207-0.0487 0.639-0.071 0.959-0.0495 3.16 0.212 3.52 0.0822 2.67-0.958-0.452-0.554-0.442-0.602 0.305-1.44 0.355-0.399 0.958-1.13 1.34-1.63 0.382-0.5 0.755-0.984 0.829-1.08 0.0745-0.0922 0.21-0.463 0.3-0.823l0.165-0.655-0.0385-0.859c-0.153-3.42-3.05-5.29-7.05-4.55-1.67 0.309-3.2 0.774-5.2 1.58-1.56 0.628-1.55 0.619-1.32 0.808 0.273 0.224 0.616 0.801 0.562 0.946-0.0262 0.0708-0.133 0.26-0.238 0.42l-0.191 0.292 0.093 0.601c0.154 0.993 0.537 3.32 0.745 4.52 0.166 0.962 0.276 1.52 0.483 2.46 0.021 0.0956 0.069 0.155 0.107 0.131 0.0378-0.0234 0.0688 5e-3 0.0688 0.0637 0 0.0584 0.0455 0.168 0.101 0.245l0.101 0.138 0.326-0.0878c0.54-0.145 1.88-0.231 2.31-0.147 1 0.196 1.56 0.268 1.67 0.217 0.064-0.0309 0.209-0.0558 0.322-0.0553zm-0.771-3.76c-0.0809-0.0978-0.146-0.51-0.367-2.34-0.153-1.26-0.16-1.24 0.529-1.45 2.35-0.721 3.95 0.148 3.27 1.77-0.308 0.739-1.68 1.68-2.95 2.03-0.389 0.106-0.391 0.106-0.488-0.0115zm13.9 2.78c0.54-0.144 0.597-0.186 0.454-0.329-0.0792-0.0792-0.105-0.209-0.0787-0.403 0.0211-0.157 0.109-0.775 0.194-1.37 0.0857-0.598 0.262-1.91 0.391-2.91 0.354-2.75 0.287-2.78 1.63 0.699 0.306 0.79 0.688 1.72 0.849 2.06 0.466 0.986 0.48 1.36 0.0494 1.36-0.327 2e-3 -0.378 0.12-0.109 0.251 0.398 0.194 1.64 0.33 3.79 0.416l1.05 0.042 0.381-0.311-0.175-0.164c-0.116-0.109-0.175-0.254-0.175-0.434 0-0.16-0.185-0.688-0.454-1.3-1.13-2.56-1.13-2.57-2.54-6.05-0.528-1.31-1.11-2.79-1.29-3.3-0.41-1.15-0.333-1.09-1.1-0.922-2.63 0.569-4.82 1.11-4.92 1.23-0.049 0.0516-0.199 0.95-0.334 2-0.302 2.35-0.577 4.32-0.82 5.9-0.33 2.14-0.372 2.57-0.299 3.07l0.069 0.466 0.231-0.0149c0.499-0.0321 0.635-0.0267 1.05 0.0414 0.658 0.109 1.7 0.0997 2.15-0.0186zm38.4-1.13c0.0276-0.282-0.106-0.497-0.207-0.334-0.0875 0.142-0.0101 0.653 0.0937 0.619 0.0485-0.0159 0.0994-0.144 0.113-0.285zm-16.2-0.07c0.0937-0.0501 0.276-0.245 0.405-0.432l0.235-0.341-0.118-0.335c-0.458-1.3-1.86-2.42-3.67-2.95-1.62-0.469-3.05-0.788-3.64-0.81-0.565-0.0215-0.918-0.112-1.03-0.266-0.11-0.145-0.447-0.314-0.626-0.314-0.32 0-0.485-0.25-0.524-0.793-0.0747-1.03 0.748-1.63 2.4-1.74l0.665-0.0453 0.782 0.167c0.761 0.163 1.38 0.38 2 0.701 0.382 0.198 0.32 0.253 0.977-0.866 1.65-2.81 1.6-2.67 1.11-3.03-4.25-3.08-10.8-1.39-12.4 3.19-1.01 2.98 0.292 5.14 3.68 6.08l0.817 0.226 2.41 0.063 0.621 0.187c0.636 0.191 1.42 0.686 1.59 0.998 0.0634 0.118 0.163 0.155 0.424 0.155 0.188 0 0.437 0.0363 0.554 0.0807s0.488 0.0935 0.826 0.109c0.337 0.0156 0.63 0.045 0.651 0.0653 0.0761 0.0761 1.71-1e-3 1.87-0.0887zm3.86-0.495c0.0854-3e-3 0.51 0.0214 0.944 0.0553l0.788 0.0616 0.235-0.167c0.129-0.0921 0.427-0.206 0.661-0.253l0.426-0.0856 0.047-0.187c0.0611-0.244 0.205-0.292 1.34-0.454 1.45-0.206 1.88-0.126 1.88 0.35 2e-3 0.138 0.0215 0.164 0.069 0.089 0.046-0.0725 0.112-0.0835 0.212-0.0355 0.224 0.107 3.26 0.0824 3.37-0.0272 0.362-0.361 0.387-1.1 0.161-4.68-0.0875-1.39-0.196-3.24-0.241-4.11-0.0452-0.875-0.103-1.88-0.127-2.24l-0.0452-0.65-0.866 0.0532c-1.41 0.0866-3.65 0.28-3.69 0.318-0.0193 0.0193 0.0253 0.673 0.0992 1.45s0.202 2.13 0.285 3.01c0.0831 0.875 0.171 1.69 0.194 1.8 0.101 0.495 0.0165 0.538-1.72 0.878-0.299 0.0587-0.89 0.18-1.31 0.269l-0.77 0.162-0.105-0.105c-0.0741-0.0741-0.15-0.727-0.26-2.24-0.283-3.87-0.367-4.89-0.404-4.93-0.0587-0.0587-3.13 0.62-4.41 0.975l-0.278 0.077 0.0275 0.447c0.0687 1.12 0.541 5.53 0.808 7.55 0.164 1.24 0.387 2.07 0.593 2.2 0.0538 0.0341 0.0978 0.123 0.0978 0.198 0 0.288 0.155 0.331 1.01 0.281 0.449-0.0264 0.886-0.0509 0.971-0.0544zm14.7-0.761 0.591 9e-3 0.0508-0.372c0.141-1.04 1.3-5.04 1.71-5.92 0.0698-0.149 0.419-1.39 0.775-2.76 0.799-3.06 0.763-2.91 0.693-2.91-0.07 0-2.37-0.359-2.97-0.465-0.235-0.041-0.974-0.145-1.64-0.232-0.668-0.0867-1.32-0.179-1.46-0.206l-0.241-0.0481 6e-5 3.95c4e-5 2.39 0.0349 4.29 0.0881 4.8 0.0484 0.47 0.085 1.62 0.0813 2.55l-7e-3 1.7 0.87-0.0533c0.478-0.0293 1.14-0.0491 1.46-0.0441zm-53.6-11.7c0.11-0.103 0.251-0.362 0.314-0.575 0.133-0.448 0.15-0.866 0.0182-0.456-0.0445 0.139-0.193 0.382-0.33 0.54l-0.249 0.288-0.536 0.0302c-0.911 0.0514-2.56-0.432-4.1-1.2-0.746-0.374-1.06-0.506-1.06-0.449 0 0.0569 2.05 1.07 2.88 1.42 1.11 0.472 1.73 0.633 2.33 0.61l0.52-0.0202zm43.8-1.21c-0.142-0.142-0.181-0.242-0.144-0.369 0.1-0.339 1.57-3.3 2.36-4.74 0.438-0.805 0.775-1.48 0.749-1.51-0.0734-0.0734-0.585 0.229-0.585 0.346 0 0.057-0.541 1.16-1.2 2.46-1.67 3.26-1.88 4.01-1.15 4.01h0.175zm-51-1.39c0-0.0604-0.911-0.588-1.02-0.588-0.172 0 0.024 0.146 0.519 0.387 0.529 0.257 0.496 0.244 0.496 0.201zm28.1-0.165c2.81-0.713 7.74-5.15 14.7-13.3 1.93-2.25 1.88-2.17 1.85-2.35-0.0179-0.0923-0.255 0.141-0.764 0.752-6.71 8.07-14 14.4-16.5 14.4-0.892 0-2.19-1.29-3.26-3.24-0.0988-0.181-0.194-0.315-0.212-0.297-0.06 0.06 1 1.94 1.45 2.56 0.957 1.33 1.65 1.68 2.76 1.4zm-10.2-0.237c0.265-0.173 0.649-0.718 1.09-1.54 0.437-0.821 0.416-0.829-0.102-0.0379-0.21 0.32-0.543 0.73-0.741 0.911l-0.36 0.33h-0.316c-0.764 0-2.32-1.39-5.15-4.6-0.593-0.672-1.09-1.22-1.11-1.22-0.169 0 3.17 3.87 4.26 4.94 1.31 1.29 1.89 1.58 2.44 1.22zm27.1-0.727c0.784-0.233 2-0.696 2.25-0.858l0.136-0.0876-0.155 0.0535c-0.0854 0.0294-0.435 0.152-0.776 0.273-0.925 0.326-1.8 0.538-2.41 0.586l-0.543 0.0421-0.269-0.141c-0.347-0.182-0.522-0.494-0.673-1.2l-0.122-0.571 0.0324-1.63c0.0223-1.12 0.0103-1.51-0.0383-1.24-0.0389 0.214-0.0761 1.12-0.0828 2.02l-0.0121 1.63 0.141 0.458c0.0797 0.258 0.238 0.555 0.363 0.679l0.221 0.221h0.578c0.415 0 0.797-0.065 1.36-0.231zm-23.7-5.65c0.532-1.15 0.57-1.16 1.09-0.141 0.444 0.863 0.45 0.8 0.0303-0.34-0.557-1.52-0.521-1.5-0.914-0.396-0.145 0.406-0.338 0.921-0.43 1.15-0.266 0.648-0.12 0.473 0.222-0.268zm-15.5-6.37c-0.0039-0.108-0.451-0.601-0.5-0.552-0.0953 0.0953 0.0594 0.469 0.221 0.534 0.212 0.0857 0.282 0.0902 0.279 0.0181zm-9.55 62.7c0-0.0212 0.491-0.962 1.09-2.09l1.09-2.05 1.3-1.42c2.12-2.32 4.63-4.98 4.74-5.02 0.233-0.0758-4.16 6.65-4.86 7.45-0.971 1.1-3.36 3.33-3.36 3.13zm53.6-2.42-1.92-1.68-0.872-1.33c-2.89-4.41-4.27-6.56-4.22-6.61 0.0532-0.0532 1.11 1.06 3.01 3.18 0.918 1.02 2.03 2.26 2.47 2.76 0.443 0.493 0.85 0.966 0.903 1.05 0.0534 0.0854 0.678 1.07 1.39 2.18 0.71 1.12 1.29 2.05 1.29 2.08 0 0.144-0.304-0.0965-2.06-1.63zm-36.6 0.612c0-0.0378 0.102-0.433 0.226-0.878 0.124-0.445 0.438-1.58 0.697-2.53l0.471-1.72 1.19-2.43c0.655-1.34 1.29-2.64 1.41-2.88 0.611-1.24 0.33-0.112-0.928 3.72-0.496 1.51-0.828 2.37-1.3 3.34-0.345 0.718-0.848 1.76-1.12 2.33-0.436 0.908-0.657 1.26-0.657 1.06zm23-1.49c-1.09-1.84-1.13-1.93-1.57-3.42-0.915-3.11-1.42-5.04-1.33-5.04 0.0722 0 0.68 1.32 1.75 3.8l0.935 2.17 0.465 1.65c0.606 2.15 0.581 2.24-0.249 0.838zm-19.4-1.13c0.303-1.88 0.426-2.42 0.863-3.8 0.27-0.855 0.564-1.71 0.653-1.9l0.161-0.347-0.0389 0.369c-0.0786 0.745-0.741 3.47-1.12 4.59-0.375 1.12-0.603 1.6-0.522 1.1zm-28.3-1.76c-0.265-0.341-2.35-3.71-2.35-3.8 0.0018-0.132 7.78-5.24 8.84-5.81 0.326-0.174 0.278-0.0194-0.232 0.75-0.276 0.417-0.762 1.16-1.08 1.65-0.62 0.961-2.51 3.78-3.29 4.9-0.262 0.378-0.739 1.07-1.06 1.54-0.578 0.848-0.687 0.948-0.833 0.761zm-0.441-2.35c-0.741-1.24-0.77-1.1 0.42-2 0.555-0.422 1.01-0.782 1.01-0.799 0-0.0431-1.82 1.21-2.12 1.46l-0.241 0.201 0.724 1.1c0.889 1.35 1 1.38 0.206 0.0438zm5.17-5.34c0.157-0.0651 0.324-0.191 0.372-0.28 0.125-0.233-0.0095-0.202-0.398 0.0925-0.185 0.14-0.642 0.474-1.02 0.743-0.899 0.647-0.872 0.689 0.0388 0.0593 0.395-0.273 0.846-0.55 1-0.615zm49.6 5.72c-0.695-0.95-0.845-1.22-1.3-2.3-0.788-1.89-0.812-2.03-0.181-1.05 0.899 1.39 1.98 3.56 1.9 3.8-0.0157 0.0471-0.205-0.155-0.42-0.45zm13.8-4.28c-0.711-1.03-2.52-3.75-3.03-4.56-1.94-3.07-1.89-2.99-1.71-2.99 0.416 0 7.84 4.59 7.84 4.85-2e-3 0.0698-0.593 0.848-2.2 2.9-0.408 0.52-0.407 0.52-0.9-0.194zm2.25-2.5c0-0.0422-0.681-0.532-1.51-1.09-2.29-1.53-1.99-1.28 0.854 0.723 0.695 0.489 0.66 0.469 0.66 0.365zm-5.5-3.73c-0.192-0.16-0.321-0.196-0.321-0.0906 0 0.116 0.186 0.248 0.346 0.246l0.159-3e-3zm-77.8-3.4c0-0.0898 3.35-2.02 3.87-2.23 0.838-0.339 3.6-1.28 3.76-1.28h0.161l-0.16 0.112c-0.169 0.118-1.92 1.12-2.9 1.65-0.568 0.311-1.41 0.642-3.6 1.42-1.18 0.421-1.14 0.408-1.14 0.319zm1.94-3.31c0-0.0975 1.41-0.551 2.21-0.71 1.61-0.321 1.71-0.22 0.254 0.263-1.1 0.365-2.47 0.613-2.47 0.448zm90.5-8.16c-1.32-0.276-1.61-0.361-1.43-0.423 0.253-0.0879 2.44 0.133 3.02 0.305 0.299 0.0887 0.554 0.161 0.567 0.161 0.0133 0 3e-3 0.0349-0.0238 0.0776-0.0841 0.136-1.21 0.0723-2.14-0.121zm0.414-1.38c-1.85-0.135-1.69-0.219 0.722-0.384l1.48-0.102 0.873 0.0996c1.22 0.139 1.25 0.204 0.186 0.379-0.786 0.129-1.58 0.131-3.27 8e-3zm-76.5-13.1c-1.46-0.881-3.82-2.36-5.59-3.5l-1.16-0.75-1.88-1.76c-1.78-1.66-2.11-2.01-1.71-1.8 2.55 1.33 5.03 3.06 9.17 6.39 3.08 2.48 3.23 2.66 1.17 1.42zm-3.06-0.13c-1.17-0.581-2.71-1.53-2.95-1.82l-0.107-0.129 0.147 0.0525c0.548 0.196 1.88 0.858 2.44 1.21 0.896 0.566 1.86 1.23 1.86 1.27 0 0.0891-0.214-8.1e-4 -1.39-0.583zm72-3.71c0.0427-0.0428 0.934-0.566 1.98-1.16l1.9-1.09 1.64-0.632c2.23-0.857 2.24-0.846 0.354 0.325-1.83 1.14-6.48 3.16-5.88 2.56zm-2.87-0.417c0.14-0.154 4.21-3.48 4.88-4 0.368-0.28 5.26-3.37 5.64-3.57l0.263-0.135-0.155 0.178c-0.183 0.21-2.38 2.05-4.05 3.39-1.28 1.03-1.81 1.39-4.49 3.02-2.25 1.37-2.41 1.46-2.09 1.1zm-61.7-2.41c-3.77-2.57-6.38-4.63-8.53-6.73l-0.583-0.567 0.271 0.133c1.56 0.762 4.82 3.24 8.36 6.34 2.09 1.84 2.17 1.97 0.486 0.82zm5.09-0.514c-1.54-1.26-5.55-4.83-6.22-5.54l-0.247-0.26 0.0677-0.349c0.0372-0.192 0.262-1.38 0.499-2.64 0.451-2.39 0.498-2.55 0.688-2.24 0.507 0.804 6.13 11.5 6.09 11.6-0.0148 0.0445-0.41-0.233-0.878-0.616zm-4.53-4.97c-0.0849-0.117-0.332-0.387-0.549-0.599-0.481-0.47-0.483-0.382 0.0382-2.9 0.0689-0.332 0.241-0.171 0.766 0.718 0.645 1.09 0.722 1.15 0.183 0.136-0.571-1.07-0.791-1.44-0.882-1.47-0.068-0.0227-0.654 2.67-0.654 3 0 0.093 1.14 1.32 1.23 1.32 0.0146 0-0.043-0.0961-0.128-0.214zm33.1 3.87c0-0.289 2.42-9.59 2.52-9.7 0.125-0.125 3.23 0.182 3.23 0.319 0 0.255-3.39 5.95-5.51 9.27-0.117 0.183-0.234 0.237-0.234 0.109zm3.85-8.69c1.3 0.0351 1.19-0.122-0.13-0.199-0.818-0.0479-0.805-0.0566-1 0.65-0.22 0.792-0.188 0.873 0.0515 0.132l0.196-0.606zm-6.51 8.6c-0.0485-0.124-0.0691-0.359-0.251-2.87-0.0633-0.875-0.204-2.78-0.312-4.23-0.108-1.45-0.18-2.83-0.158-3.07 0.0215-0.235 0.0759-1.04 0.121-1.79 0.146-2.43 0.177-2.42 0.661 0.194l0.36 1.94-0.0469 2.29c-0.0916 4.47-0.258 7.83-0.374 7.53zm21.2-0.175c0.0229-0.0534 0.362-0.866 0.753-1.81 2.54-6.09 3.29-7.85 3.37-7.94l0.0951-0.1 0.654 0.576c2.33 2.05 2.83 2.52 2.83 2.62 0 0.0662-0.332 0.412-0.738 0.769-0.406 0.357-1.51 1.33-2.45 2.17-3.72 3.31-4.69 4.11-4.52 3.71zm4.45-8.27c0.0477-0.0159 0.327 0.165 0.621 0.402 0.294 0.237 0.657 0.529 0.806 0.65 0.35 0.282 0.699 0.509 0.699 0.453 0-0.0809-2.05-1.84-2.14-1.84-0.0516 0-0.259 0.393-0.461 0.873-0.499 1.19-0.503 1.24-0.0215 0.298 0.226-0.445 0.451-0.822 0.498-0.838zm-27.1 7.32c0-0.0178-0.0879-0.586-0.195-1.26-0.207-1.3-0.345-3.66-0.201-3.43 0.322 0.501 0.756 4.73 0.485 4.73-0.049 0-0.089-0.0146-0.089-0.0324zm-10.2-1.27c-0.277-0.444-2.75-5.1-4.23-7.98l-1.32-2.56-0.591-1.9c-0.631-2.03-0.627-2.02-0.521-2.02 0.141 0 2.4 3.46 2.63 4.04 4.22 10.3 4.63 11.4 4.03 10.4zm1.09-1.86c-1.02-2.28-2.12-5.55-2.42-7.16l-0.0494-0.271 0.113 0.115c0.119 0.121 0.856 1.71 1.17 2.54 0.102 0.265 0.327 1.01 0.5 1.66 0.173 0.648 0.328 1.2 0.345 1.23 0.0662 0.107 0.598 2.28 0.566 2.31-0.0185 0.0185-0.124-0.168-0.234-0.414z" fill="#03d2f6"/><path d="m118 201c-1.73-8.65-4.06-15.4-5.66-16.5-1.09-0.72-4.12 2.31-7.78 7.8-0.362 0.543-0.68 0.988-0.706 0.99-0.0258 1e-3 -0.0676-1.07-0.0929-2.38-0.0741-3.84-0.413-5.83-1.12-6.53l-0.261-0.262-0.328 0.0524c-1.48 0.237-6.86 4.29-11.3 8.52-0.832 0.794-0.851 0.718-0.183-0.752 2.02-4.45 3.26-9.07 2.7-10.1-0.962-1.77-10.9 0.378-22.3 4.81-2.21 0.866-2.26 0.964 0.602-1.36 3.73-3.03 4.63-3.76 6.98-5.71 1.24-1.03 2.29-1.92 2.32-1.97 0.0349-0.0565-0.167-0.322-0.523-0.688-1.3-1.34-2.56-3.98-2.94-6.19l-0.161-0.932 0.0425-1.32c0.0694-2.16 0.542-3.89 1.54-5.66l0.304-0.538-0.14-0.133c-0.636-0.605-8.34-4.91-10.8-6.01-0.214-0.0972-0.458-0.232-0.543-0.299l-0.155-0.123 0.154-2e-3c0.0848-1e-3 1.83 0.276 3.88 0.615 3.95 0.654 6.84 1.11 9.2 1.44 1.76 0.246 1.88 0.269 1.82 0.359-0.0242 0.0392-0.184 0.0713-0.355 0.0713-0.171 0-0.555 0.0404-0.854 0.0898-0.414 0.0684-0.751 0.0678-1.41-2e-3 -0.856-0.0909-6.1-0.823-6.52-0.909-0.404-0.0842-0.21 0.0853 0.542 0.473 1.34 0.689 4.26 2.37 5.39 3.09l0.439 0.282 0.432-0.529c2.19-2.68 6.18-4.16 9.35-3.48l0.647 0.14 0.501-0.239c0.276-0.132 0.519-0.239 0.54-0.239 0.17 0 0.876-0.567 0.961-0.77 0.427-1.03-0.738-4.11-2.93-7.75-0.475-0.79-0.424-0.794 0.735-0.0551 4.49 2.86 7.77 4.24 8.63 3.64 1.39-0.977-0.159-10.6-2.95-18.3-0.519-1.42-0.506-1.47 0.166-0.651 0.235 0.288 1.37 1.68 2.52 3.09 7.37 9.03 10.5 12.5 11.5 12.5h0.295l0.337-0.376c0.903-1.01 2.55-4.22 3.7-7.2 0.565-1.47 0.613-1.54 0.754-1.08 1.7 5.46 3.77 8.97 5.28 8.97 2.95 0 12.2-8.62 19.4-18.1 0.184-0.244 0.354-0.424 0.377-0.402 0.0563 0.0563-0.182 0.765-0.448 1.33-0.12 0.257-0.275 0.711-0.344 1.01-0.0687 0.299-0.294 1.14-0.501 1.86-1.96 6.89-2.66 12.9-1.62 13.7 0.86 0.723 6.76-1.7 11.3-4.63 1.23-0.794 1.35-0.805 0.802-0.0781-0.171 0.227-0.311 0.444-0.311 0.482 0 0.0377-0.504 1.09-1.12 2.34-1.33 2.69-2.09 4.39-2.03 4.54 0.0301 0.0784 0.234 0.105 0.8 0.106 1.35 2e-3 1.37 0.0415 0.285 0.702-0.453 0.275-0.912 0.573-1.02 0.66l-0.195 0.159 0.114 0.517 1.25-0.0672c0.689-0.037 1.55-0.0679 1.91-0.0687l0.66-1e-3 0.0776 1.16h0.621l0.0525-1.27c0.0289-0.698 0.0706-1.29 0.0926-1.31 0.0834-0.0834 8.15 1.14 8.26 1.25 0.0219 0.0219-0.018 0.27-0.0887 0.552-0.157 0.624-0.161 0.616 0.417 0.73 0.559 0.11 0.549-0.0261 0.112 1.6-0.626 2.32-1.52 5.88-1.49 5.95 0.0136 0.041 0.213-0.0547 0.442-0.213 0.581-0.4 2.78-1.74 3.58-2.18 1.53-0.843 1.53-0.879 0.155-0.882-1.9-4e-3 -2.95-0.154-2.95-0.423 0-0.344 0.171-0.392 1.39-0.392 3.33 0 5.91 0.0467 5.91 0.107 0 0.0374-0.341 0.27-0.757 0.518-2.2 1.31-7.53 4.64-8.06 5.04l-0.233 0.176-1.01 3.94-0.33 0.0239c-0.269 0.0195-0.5 0.17-0.261 0.17 0.563 0 1.48 1.62 1.48 2.61 7e-3 3.09-4.49 4.61-6.16 2.09-0.374-0.564-0.295-0.548-1.38-0.278-1.14 0.282-1.3 0.347-1.3 0.509 0 0.652 4.44 4.91 8.07 7.74 0.494 0.385 0.183 0.315-2.26-0.509-4.73-1.59-7.66-2.23-10.3-2.25-2.04-0.0113-2.6 0.225-2.77 1.17l-0.0891 0.479 0.131 0.799c0.354 2.16 1.73 5.45 3.81 9.11 0.893 1.57 0.898 1.56-0.297 0.613-4.95-3.91-9.67-6.63-11.7-6.77l-0.559-0.0376-0.224 0.224c-0.883 0.883-1.16 4.6-0.681 9.07 0.124 1.16 0.0753 1.22-0.396 0.464-2.79-4.45-5.55-7.72-6.53-7.72-1.47 0-4.22 7.08-5.69 14.6-0.409 2.1-0.38 1.98-0.462 1.98-0.0389 0-0.111-0.201-0.16-0.446zm0.341-4.52c1.59-7.77 3.53-13 5.04-13.5l0.337-0.129 0.307 0.0828c1.08 0.292 3.07 2.4 5.26 5.58 0.333 0.483 0.621 0.861 0.641 0.842 0.0199-0.0199-7e-3 -0.659-0.0588-1.42-0.257-3.75 0.18-6.23 1.19-6.75 1.29-0.667 6.52 1.88 10.8 5.25 0.558 0.441 0.556 0.433-0.32-1.36-2.55-5.21-2.94-7.73-1.35-8.6 1.49-0.807 5.58-0.366 10.2 1.1 1.76 0.554 1.78 0.542 0.686-0.351-1.17-0.953-2.73-2.43-3.68-3.49-0.578-0.642-0.911-0.956-0.992-0.932-0.595 0.175-0.781 0.0755-0.781-0.419 0-0.162-0.0218-0.404-0.0485-0.538l-0.0485-0.243h-0.599l-0.0396-0.175c-0.0407-0.18-0.135-1.06-0.282-2.62-0.0461-0.491-0.115-0.925-0.152-0.964-0.0772-0.0807-1.25 0.164-1.44 0.299l-0.115 0.0844 0.163 2.06c0.0899 1.13 0.183 2.34 0.207 2.68l0.0431 0.623-0.129 0.107c-0.217 0.18-5.74 0.773-5.94 0.638-0.0611-0.0408-0.122-0.252-0.14-0.488-0.0179-0.229-0.0493-0.497-0.0699-0.596l-0.0374-0.18-0.211 0.0442c-0.315 0.0661-0.409-0.0412-0.459-0.526-0.0569-0.551-0.047-0.553-0.733 0.13-1.28 1.28-2.91 2.08-4.9 2.42-2.45 0.416-6.58-0.27-6.58-1.09 0-0.242-9e-3 -0.24-0.95 0.2-1.44 0.672-3.47 1.56-3.58 1.56-0.159 0-0.302-0.208-0.474-0.69l-0.155-0.435-0.406-0.0472-0.327-0.883c-0.18-0.486-0.368-0.898-0.418-0.916-0.0995-0.0367-2.9 0.594-2.98 0.67-0.0591 0.0591-0.144 0.583-0.303 1.87-0.137 1.11-0.187 1.26-0.446 1.32-0.158 0.0397-2.13-0.192-4.9-0.577l-1-0.139-0.78 0.725c-0.474 0.441-0.844 0.725-0.944 0.725-0.173 0-1.17-0.922-3.52-3.24l-1.29-1.27-0.0244 0.156c-0.0134 0.0858 0.0697 0.743 0.185 1.46 0.115 0.717 0.226 1.5 0.247 1.74l0.0376 0.439-0.183 0.119c-0.217 0.141-5.42 1.6-5.7 1.6-0.219 0-0.345-0.234-0.346-0.646-5.83e-4 -0.136-0.023-0.329-0.0498-0.429l-0.0488-0.182-0.215 0.043c-0.262 0.0525-0.353-0.0455-0.423-0.455-0.0289-0.171-0.0701-0.374-0.0916-0.452l-0.039-0.141-0.672 0.665c-3.2 3.16-8.37 3.93-11.9 1.75-0.447-0.275-0.437-0.274-0.694-0.0553-0.215 0.183-1.52 1.26-2.24 1.84-0.238 0.194-0.677 0.553-0.976 0.798s-1.23 0.991-2.08 1.66c-1.85 1.47-1.9 1.56-0.561 0.972 0.918-0.401 4.86-1.74 7.37-2.5 6.36-1.93 10.5-2.27 11.4-0.942 0.689 1.02 0.235 3.54-1.41 7.8-0.244 0.633-0.424 1.17-0.401 1.2 0.0239 0.0239 0.402-0.287 0.841-0.69 4.23-3.89 7.49-6.2 8.91-6.33l0.45-0.0408 0.278 0.172c0.808 0.5 1.37 3.04 1.37 6.22 3.2e-4 1.78-0.0126 1.77 0.851 0.427 2.46-3.83 5.24-6.64 6.58-6.64 1.7-3e-3 4.18 6 5.84 14.2 0.159 0.782 0.238 0.76 0.418-0.116zm-30.6-25.1c1.01-0.294 1.9-0.982 2.84-2.19 0.78-0.996 0.769-0.998 2.35 0.456l1.13 1.03 0.0162-0.231c0.0293-0.417-1.02-6.44-1.12-6.44-0.0513 0-0.489 0.559-0.973 1.24-0.991 1.4-1.03 1.42-1.6 1.06-0.695-0.446-1.25-0.646-1.92-0.687l-0.621-0.0381-0.449 0.17c-1.27 0.48-2.19 2.09-2.18 3.81l0.0042 0.738 0.377 0.932 0.388 0.132c0.492 0.168 1.21 0.175 1.75 0.0161zm-7.77-0.736c0.149-0.0456 0.672-0.0835 1.16-0.0842 0.498-7.6e-4 0.96-0.039 1.05-0.0868 0.0865-0.047 0.279-0.106 0.429-0.131l0.271-0.0451 6.3e-4 -2.09 0.256-0.885c0.947-3.27 3.66-4.8 6.24-3.52l0.75 0.375 0.376-0.533c0.207-0.293 0.544-0.767 0.75-1.05 0.629-0.873 1.68-2.48 1.68-2.56 0-0.175-1.23-1.07-1.92-1.39-0.826-0.387-1.25-0.509-2.25-0.651l-0.715-0.101-0.885 0.0923c-4.93 0.514-8.94 5.36-8.9 10.8 0.0037 0.491 0.194 1.79 0.221 1.51l0.0112-0.116 0.0946 0.123c0.129 0.168 0.429 0.322 0.755 0.387 0.149 0.0299 0.289 0.0584 0.311 0.0633 0.0216 5e-3 0.161-0.0284 0.311-0.0739zm28-1.3c0.0648-0.211 0.964-5.72 1.17-7.2 0.196-1.38 0.368-2.57 0.503-3.49 0.0438-0.299 0.15-1.05 0.236-1.67 0.189-1.36 0.0394-1.22 1.78-1.66 5.22-1.3 5.3-1.3 5.63-0.55l0.194 0.438 0.189-0.0362c0.308-0.059 0.329-0.0192 1.12 2.2 0.947 2.65 1.63 4.47 1.76 4.74 0.0565 0.111 0.175 0.477 0.263 0.814 0.101 0.385 0.488 1.28 1.04 2.4 0.484 0.983 0.978 2.01 1.1 2.27 0.265 0.595 0.307 0.599 0.48 0.0487 0.193-0.614 0.297-0.642 1.16-0.313 1.06 0.405 1.85 0.549 3.03 0.553 1.48 4e-3 1.5-0.116 0.0714-0.463-2.84-0.688-4.29-1.42-5.2-2.63-0.244-0.324-0.474-0.588-0.512-0.588-0.325 0-1.27-1.78-1.4-2.64-0.98-6.37 8-10.8 13.7-6.81 0.256 0.181 0.221 0.185 1.91-0.245 1.53-0.389 4.35-1.02 4.58-1.02 0.207 0 0.289 0.166 0.356 0.72l0.0544 0.448 0.266-0.0179c0.386-0.026 0.395 2e-3 0.492 1.49 0.145 2.22 0.333 4.3 0.394 4.37 0.072 0.0792 1.23-0.134 1.34-0.248 0.06-0.06 0.0472-0.465-0.0451-1.42-0.0709-0.738-0.17-1.81-0.221-2.38l-0.0918-1.04-0.22-0.251c-0.259-0.295-0.277-0.531-0.0649-0.851 0.0848-0.128 0.154-0.36 0.155-0.515 6.8e-4 -0.371 0.0889-0.428 0.758-0.494 0.31-0.0305 0.581-0.0841 0.603-0.119 0.0847-0.137-0.141-0.449-0.356-0.492-0.121-0.0243-0.277-0.13-0.346-0.235l-0.125-0.191 0.248-0.568c0.377-0.862 1.4-2.89 2.22-4.39 0.872-1.6 0.884-1.66 0.26-1.24-2.47 1.68-8.8 4.13-10.1 3.9-1.67-0.313-1.38-5.47 0.729-13.2 0.133-0.491 0.28-0.987 0.326-1.1 0.194-0.487-0.0213-0.338-0.712 0.491-6.71 8.06-14 14.4-16.5 14.4-1.36 0-3.45-2.85-4.81-6.57-0.58-1.59-0.58-1.59-0.857-0.748-0.825 2.49-2.59 5.95-3.46 6.78l-0.403 0.382h-0.319c-0.97 0-3.98-3-8-7.96-0.45-0.555-1.22-1.49-1.71-2.08-0.488-0.59-1.21-1.48-1.61-1.98-0.985-1.24-0.988-1.24-0.609 6e-3 0.612 2.02 1.61 6.18 1.9 7.95 0.299 1.8 0.354 2.42 0.356 4.03l2e-3 1.63-0.149 0.487c-0.0828 0.271-0.258 0.614-0.396 0.773l-0.247 0.286-0.536 0.0302c-1.29 0.0729-4.2-1.04-6.64-2.55-0.981-0.606-0.986-0.601-0.445 0.399 1.85 3.41 2.14 5.22 0.988 6.09-0.206 0.155-0.302 0.288-0.302 0.416v0.188l0.175-0.0401c0.0961-0.0221 0.769-0.283 1.49-0.581 5.3-2.17 9.22-2.22 11.5-0.135 0.401 0.364 1.17 1.43 1.18 1.62 1e-3 0.0479 0.125 0.279 0.274 0.514 0.344 0.54 0.625 1.42 0.742 2.33l0.0906 0.706-0.0971 0.83c-0.199 1.7-1.02 3.48-2.05 4.43-0.271 0.252-0.288 0.22 0.434 0.828 1.12 0.942 1.19 0.982 1.26 0.75zm46.7-0.745c0-0.564-0.0375-0.614-0.695-0.944-0.754-0.378-1.95-0.239-2.07 0.241-0.0259 0.103-0.138 0.209-0.27 0.255l-0.226 0.0787v0.478l0.214 0.0816c0.117 0.0449 0.353 0.0604 0.524 0.0344 0.818-0.124 0.989-0.132 1.07-0.0506 0.0473 0.0473 0.228 0.088 0.4 0.0904 0.173 2e-3 0.437 0.0506 0.586 0.107 0.457 0.173 0.466 0.166 0.466-0.371zm-54.8 0.278c0.113 4.9e-4 0.375-0.0389 0.582-0.0876 0.207-0.0487 0.639-0.071 0.959-0.0495 3.16 0.212 3.52 0.0822 2.67-0.958-0.452-0.554-0.442-0.602 0.305-1.44 0.355-0.399 0.958-1.13 1.34-1.63 0.382-0.5 0.755-0.984 0.829-1.08 0.0745-0.0922 0.21-0.463 0.3-0.823l0.165-0.655-0.0385-0.859c-0.153-3.42-3.05-5.29-7.05-4.55-1.67 0.309-3.2 0.774-5.2 1.58-1.56 0.628-1.55 0.619-1.32 0.808 0.273 0.224 0.616 0.801 0.562 0.946-0.0262 0.0708-0.133 0.26-0.238 0.42l-0.191 0.292 0.093 0.601c0.154 0.993 0.537 3.32 0.745 4.52 0.166 0.962 0.276 1.52 0.483 2.46 0.021 0.0956 0.069 0.155 0.107 0.131 0.0378-0.0234 0.0688 5e-3 0.0688 0.0637 0 0.0584 0.0455 0.168 0.101 0.245l0.101 0.138 0.326-0.0878c0.54-0.145 1.88-0.231 2.31-0.147 1 0.196 1.56 0.268 1.67 0.217 0.064-0.0309 0.209-0.0558 0.322-0.0553zm-0.771-3.76c-0.0809-0.0978-0.146-0.51-0.367-2.34-0.153-1.26-0.16-1.24 0.529-1.45 2.35-0.721 3.95 0.148 3.27 1.77-0.308 0.739-1.68 1.68-2.95 2.03-0.389 0.106-0.391 0.106-0.488-0.0115zm1.78-1.55c0.378-0.273 0.325-0.341-0.205-0.262l-0.345 0.0517v0.176c0 0.35 0.104 0.356 0.55 0.0336zm12.1 4.33c0.54-0.144 0.597-0.186 0.454-0.329-0.0792-0.0792-0.105-0.209-0.0787-0.403 0.0211-0.157 0.109-0.775 0.194-1.37 0.0857-0.598 0.262-1.91 0.391-2.91 0.354-2.75 0.287-2.78 1.63 0.699 0.306 0.79 0.688 1.72 0.849 2.06 0.466 0.986 0.48 1.36 0.0494 1.36-0.327 2e-3 -0.378 0.12-0.109 0.251 0.398 0.194 1.64 0.33 3.79 0.416l1.05 0.042 0.381-0.311-0.175-0.164c-0.116-0.109-0.175-0.254-0.175-0.434 0-0.16-0.185-0.688-0.454-1.3-1.13-2.56-1.13-2.57-2.54-6.05-0.528-1.31-1.11-2.79-1.29-3.3-0.41-1.15-0.333-1.09-1.1-0.922-2.63 0.569-4.82 1.11-4.92 1.23-0.049 0.0516-0.199 0.95-0.334 2-0.302 2.35-0.577 4.32-0.82 5.9-0.33 2.14-0.372 2.57-0.299 3.07l0.069 0.466 0.231-0.0149c0.499-0.0321 0.635-0.0267 1.05 0.0414 0.658 0.109 1.7 0.0997 2.15-0.0186zm38.4-1.13c0.0276-0.282-0.106-0.497-0.207-0.334-0.0875 0.142-0.0101 0.653 0.0937 0.619 0.0485-0.0159 0.0994-0.144 0.113-0.285zm-16.2-0.07c0.0937-0.0501 0.276-0.245 0.405-0.432l0.235-0.341-0.118-0.335c-0.458-1.3-1.86-2.42-3.67-2.95-1.62-0.469-3.05-0.788-3.64-0.81-0.565-0.0215-0.918-0.112-1.03-0.266-0.11-0.145-0.447-0.314-0.626-0.314-0.32 0-0.485-0.25-0.524-0.793-0.0747-1.03 0.748-1.63 2.4-1.74l0.665-0.0453 0.782 0.167c0.761 0.163 1.38 0.38 2 0.701 0.382 0.198 0.32 0.253 0.977-0.866 1.65-2.81 1.6-2.67 1.11-3.03-4.25-3.08-10.8-1.39-12.4 3.19-1.01 2.98 0.292 5.14 3.68 6.08l0.817 0.226 2.41 0.063 0.621 0.187c0.636 0.191 1.42 0.686 1.59 0.998 0.0634 0.118 0.163 0.155 0.424 0.155 0.188 0 0.437 0.0363 0.554 0.0807s0.488 0.0935 0.826 0.109c0.337 0.0156 0.63 0.045 0.651 0.0653 0.0761 0.0761 1.71-1e-3 1.87-0.0887zm-19.7-0.521c0.0256-0.0668 2e-3 -0.215-0.0514-0.33l-0.098-0.209-0.0748 0.216c-0.117 0.339 0.0987 0.65 0.224 0.322zm23.6 0.0258c0.0854-3e-3 0.51 0.0214 0.944 0.0553l0.788 0.0616 0.235-0.167c0.129-0.0921 0.427-0.206 0.661-0.253l0.426-0.0856 0.047-0.187c0.0611-0.244 0.205-0.292 1.34-0.454 1.45-0.206 1.88-0.126 1.88 0.35 2e-3 0.138 0.0215 0.164 0.069 0.089 0.046-0.0725 0.112-0.0835 0.212-0.0355 0.224 0.107 3.26 0.0824 3.37-0.0272 0.362-0.361 0.387-1.1 0.161-4.68-0.0875-1.39-0.196-3.24-0.241-4.11-0.0452-0.875-0.103-1.88-0.127-2.24l-0.0452-0.65-0.866 0.0532c-1.41 0.0866-3.65 0.28-3.69 0.318-0.0193 0.0193 0.0253 0.673 0.0992 1.45s0.202 2.13 0.285 3.01c0.0831 0.875 0.171 1.69 0.194 1.8 0.101 0.495 0.0165 0.538-1.72 0.878-0.299 0.0587-0.89 0.18-1.31 0.269l-0.77 0.162-0.105-0.105c-0.0741-0.0741-0.15-0.727-0.26-2.24-0.283-3.87-0.367-4.89-0.404-4.93-0.0587-0.0587-3.13 0.62-4.41 0.975l-0.278 0.077 0.0275 0.447c0.0687 1.12 0.541 5.53 0.808 7.55 0.164 1.24 0.387 2.07 0.593 2.2 0.0538 0.0341 0.0978 0.123 0.0978 0.198 0 0.288 0.155 0.331 1.01 0.281 0.449-0.0264 0.886-0.0509 0.971-0.0544zm14.7-0.761 0.591 9e-3 0.0508-0.372c0.141-1.04 1.3-5.04 1.71-5.92 0.0698-0.149 0.419-1.39 0.775-2.76 0.799-3.06 0.763-2.91 0.693-2.91-0.07 0-2.37-0.359-2.97-0.465-0.235-0.041-0.974-0.145-1.64-0.232-0.668-0.0867-1.32-0.179-1.46-0.206l-0.241-0.0481 6e-5 3.95c4e-5 2.39 0.0349 4.29 0.0881 4.8 0.0484 0.47 0.085 1.62 0.0813 2.55l-7e-3 1.7 0.87-0.0533c0.478-0.0293 1.14-0.0491 1.46-0.0441zm-18.4-2.14c0-0.0248-0.0497-0.453-0.11-0.951-0.0607-0.498-0.155-1.33-0.209-1.86-0.123-1.19-0.123-1.19-0.895 0.159-0.39 0.68-0.721 1.16-0.863 1.26l-0.231 0.16 0.669 0.327c0.368 0.18 0.844 0.464 1.06 0.632 0.355 0.278 0.582 0.383 0.582 0.267zm-2.46-1.35c-0.47-0.47-3.31-1.26-3.67-1.02-0.126 0.083-0.114 0.0867 1.62 0.508 0.619 0.15 1.34 0.342 1.59 0.426 0.556 0.183 0.557 0.183 0.456 0.0816zm-43.7 38.7c0-0.0212 0.491-0.962 1.09-2.09l1.09-2.05 1.3-1.42c2.12-2.32 4.63-4.98 4.74-5.02 0.233-0.0758-4.16 6.65-4.86 7.45-0.971 1.1-3.36 3.33-3.36 3.13zm53.6-2.42-1.92-1.68-0.872-1.33c-2.89-4.41-4.27-6.56-4.22-6.61 0.0532-0.0532 1.11 1.06 3.01 3.18 0.918 1.02 2.03 2.26 2.47 2.76 0.443 0.493 0.85 0.966 0.903 1.05 0.0534 0.0854 0.678 1.07 1.39 2.18 0.71 1.12 1.29 2.05 1.29 2.08 0 0.144-0.304-0.0965-2.06-1.63zm-36.6 0.612c0-0.0378 0.102-0.433 0.226-0.878 0.124-0.445 0.438-1.58 0.697-2.53l0.471-1.72 1.19-2.43c0.655-1.34 1.29-2.64 1.41-2.88 0.611-1.24 0.33-0.112-0.928 3.72-0.496 1.51-0.828 2.37-1.3 3.34-0.345 0.718-0.848 1.76-1.12 2.33-0.436 0.908-0.657 1.26-0.657 1.06zm23-1.49c-1.09-1.84-1.13-1.93-1.57-3.42-0.915-3.11-1.42-5.04-1.33-5.04 0.0722 0 0.68 1.32 1.75 3.8l0.935 2.17 0.465 1.65c0.606 2.15 0.581 2.24-0.249 0.838zm-19.4-1.13c0.303-1.88 0.426-2.42 0.863-3.8 0.27-0.855 0.564-1.71 0.653-1.9l0.161-0.347-0.0389 0.369c-0.0786 0.745-0.741 3.47-1.12 4.59-0.375 1.12-0.603 1.6-0.522 1.1zm-28.3-1.76c-0.265-0.341-2.35-3.71-2.35-3.8 0.0018-0.132 7.78-5.24 8.84-5.81 0.326-0.174 0.278-0.0194-0.232 0.75-0.276 0.417-0.762 1.16-1.08 1.65-0.62 0.961-2.51 3.78-3.29 4.9-0.262 0.378-0.739 1.07-1.06 1.54-0.578 0.848-0.687 0.948-0.833 0.761zm2.63-4.55c1.3-1.81 2.41-3.35 2.46-3.44 0.176-0.243-0.0235-0.169-0.506 0.189-1.65 1.22-2.39 1.76-3.56 2.57-2.12 1.48-2.28 1.59-2.33 1.68-0.0583 0.0944 1.41 2.35 1.51 2.31 0.0368-0.0138 1.13-1.5 2.42-3.31zm51.7 2.58c-0.695-0.95-0.845-1.22-1.3-2.3-0.788-1.89-0.812-2.03-0.181-1.05 0.899 1.39 1.98 3.56 1.9 3.8-0.0157 0.0471-0.205-0.155-0.42-0.45zm13.8-4.28c-0.711-1.03-2.52-3.75-3.03-4.56-1.94-3.07-1.89-2.99-1.71-2.99 0.416 0 7.84 4.59 7.84 4.85-2e-3 0.0698-0.593 0.848-2.2 2.9-0.408 0.52-0.407 0.52-0.9-0.194zm1.33-1.3c0.597-0.72 0.92-1.15 0.92-1.24 0-0.0416-1.13-0.799-4.43-2.98-0.534-0.353-1.05-0.698-1.15-0.767-0.341-0.243-0.249-0.0404 0.349 0.767 0.332 0.448 1.27 1.75 2.08 2.88 0.811 1.14 1.51 2.06 1.56 2.05 0.0465-0.0109 0.346-0.334 0.664-0.719zm-82.4-8.33c0-0.0898 3.35-2.02 3.87-2.23 0.838-0.339 3.6-1.28 3.76-1.28h0.161l-0.16 0.112c-0.169 0.118-1.92 1.12-2.9 1.65-0.568 0.311-1.41 0.642-3.6 1.42-1.18 0.421-1.14 0.408-1.14 0.319zm1.94-3.31c0-0.0975 1.41-0.551 2.21-0.71 1.61-0.321 1.71-0.22 0.254 0.263-1.1 0.365-2.47 0.613-2.47 0.448zm90.5-8.16c-1.32-0.276-1.61-0.361-1.43-0.423 0.253-0.0879 2.44 0.133 3.02 0.305 0.299 0.0887 0.554 0.161 0.567 0.161 0.0133 0 3e-3 0.0349-0.0238 0.0776-0.0841 0.136-1.21 0.0723-2.14-0.121zm0.414-1.38c-1.85-0.135-1.69-0.219 0.722-0.384l1.48-0.102 0.873 0.0996c1.22 0.139 1.25 0.204 0.186 0.379-0.786 0.129-1.58 0.131-3.27 8e-3zm-76.5-13.1c-1.46-0.881-3.82-2.36-5.59-3.5l-1.16-0.75-1.88-1.76c-1.78-1.66-2.11-2.01-1.71-1.8 2.55 1.33 5.03 3.06 9.17 6.39 3.08 2.48 3.23 2.66 1.17 1.42zm-3.06-0.13c-1.17-0.581-2.71-1.53-2.95-1.82l-0.107-0.129 0.147 0.0525c0.548 0.196 1.88 0.858 2.44 1.21 0.896 0.566 1.86 1.23 1.86 1.27 0 0.0891-0.214-8.1e-4 -1.39-0.583zm72-3.71c0.0427-0.0428 0.934-0.566 1.98-1.16l1.9-1.09 1.64-0.632c2.23-0.857 2.24-0.846 0.354 0.325-1.83 1.14-6.48 3.16-5.88 2.56zm-2.87-0.417c0.14-0.154 4.21-3.48 4.88-4 0.368-0.28 5.26-3.37 5.64-3.57l0.263-0.135-0.155 0.178c-0.183 0.21-2.38 2.05-4.05 3.39-1.28 1.03-1.81 1.39-4.49 3.02-2.25 1.37-2.41 1.46-2.09 1.1zm-61.7-2.41c-3.77-2.57-6.38-4.63-8.53-6.73l-0.583-0.567 0.271 0.133c1.56 0.762 4.82 3.24 8.36 6.34 2.09 1.84 2.17 1.97 0.486 0.82zm5.09-0.514c-1.54-1.26-5.55-4.83-6.22-5.54l-0.247-0.26 0.0677-0.349c0.0372-0.192 0.262-1.38 0.499-2.64 0.451-2.39 0.498-2.55 0.688-2.24 0.507 0.804 6.13 11.5 6.09 11.6-0.0148 0.0445-0.41-0.233-0.878-0.616zm-0.87-1.82c-0.804-1.35-1.62-2.82-3.1-5.58-0.767-1.43-0.989-1.78-1.06-1.7-0.0401 0.0461-0.595 2.87-0.595 3.03 1.95e-4 0.151 5.04 5 5.11 4.92 0.0151-0.015-0.145-0.318-0.356-0.673zm29.5 0.72c0-0.289 2.42-9.59 2.52-9.7 0.125-0.125 3.23 0.182 3.23 0.319 0 0.255-3.39 5.95-5.51 9.27-0.117 0.183-0.234 0.237-0.234 0.109zm1.61-3.33c0.168-0.288 0.683-1.17 1.14-1.96 0.462-0.79 1.1-1.89 1.42-2.44l0.577-1-0.104-0.0662c-0.0574-0.0364-0.314-0.0671-0.57-0.0682-0.256-1e-3 -0.588-0.0204-0.738-0.0428-0.402-0.0603-0.442-6e-4 -0.728 1.1-0.144 0.553-0.511 1.85-0.815 2.89-0.689 2.35-0.704 2.48-0.184 1.59zm-4.27 3.24c-0.0485-0.124-0.0691-0.359-0.251-2.87-0.0633-0.875-0.204-2.78-0.312-4.23-0.108-1.45-0.18-2.83-0.158-3.07 0.0215-0.235 0.0759-1.04 0.121-1.79 0.146-2.43 0.177-2.42 0.661 0.194l0.36 1.94-0.0469 2.29c-0.0916 4.47-0.258 7.83-0.374 7.53zm21.2-0.175c0.0229-0.0534 0.362-0.866 0.753-1.81 2.54-6.09 3.29-7.85 3.37-7.94l0.0951-0.1 0.654 0.576c2.33 2.05 2.83 2.52 2.83 2.62 0 0.0662-0.332 0.412-0.738 0.769-0.406 0.357-1.51 1.33-2.45 2.17-3.72 3.31-4.69 4.11-4.52 3.71zm4.1-4.28c1.34-1.27 2.45-2.36 2.46-2.42 0.0258-0.112-1.98-1.9-2.13-1.9-0.0512 0-0.243 0.358-0.425 0.796s-0.557 1.3-0.833 1.92c-0.276 0.619-0.633 1.42-0.793 1.79s-0.471 1.04-0.69 1.51c-0.218 0.465-0.397 0.861-0.397 0.88 0 0.0821 0.509-0.383 2.8-2.57zm-26.7 3.33c0-0.0178-0.0879-0.586-0.195-1.26-0.207-1.3-0.345-3.66-0.201-3.43 0.322 0.501 0.756 4.73 0.485 4.73-0.049 0-0.089-0.0146-0.089-0.0324zm-10.2-1.27c-0.277-0.444-2.75-5.1-4.23-7.98l-1.32-2.56-0.591-1.9c-0.631-2.03-0.627-2.02-0.521-2.02 0.141 0 2.4 3.46 2.63 4.04 4.22 10.3 4.63 11.4 4.03 10.4zm1.09-1.86c-1.02-2.28-2.12-5.55-2.42-7.16l-0.0494-0.271 0.113 0.115c0.119 0.121 0.856 1.71 1.17 2.54 0.102 0.265 0.327 1.01 0.5 1.66 0.173 0.648 0.328 1.2 0.345 1.23 0.0662 0.107 0.598 2.28 0.566 2.31-0.0185 0.0185-0.124-0.168-0.234-0.414z" fill="#f7b601"/><path d="m118 201c-1.73-8.65-4.06-15.4-5.66-16.5-1.09-0.72-4.12 2.31-7.78 7.8-0.362 0.543-0.68 0.988-0.706 0.99-0.0258 1e-3 -0.0676-1.07-0.0929-2.38-0.0741-3.84-0.413-5.83-1.12-6.53l-0.261-0.262-0.328 0.0524c-1.48 0.237-6.86 4.29-11.3 8.52-0.832 0.794-0.851 0.718-0.183-0.752 2.02-4.45 3.26-9.07 2.7-10.1-0.962-1.77-10.9 0.378-22.3 4.81-2.21 0.866-2.26 0.964 0.602-1.36 3.73-3.03 4.63-3.76 6.98-5.71 1.24-1.03 2.29-1.92 2.32-1.97 0.0349-0.0565-0.167-0.322-0.523-0.688-1.3-1.34-2.56-3.98-2.94-6.19l-0.161-0.932 0.0425-1.32c0.0694-2.16 0.542-3.89 1.54-5.66l0.304-0.538-0.14-0.133c-0.636-0.605-8.34-4.91-10.8-6.01-0.214-0.0972-0.458-0.232-0.543-0.299l-0.155-0.123 0.154-2e-3c0.0848-1e-3 1.83 0.276 3.88 0.615 3.95 0.654 6.84 1.11 9.2 1.44 1.76 0.246 1.88 0.269 1.82 0.359-0.0242 0.0392-0.184 0.0713-0.355 0.0713-0.171 0-0.555 0.0404-0.854 0.0898-0.414 0.0684-0.751 0.0678-1.41-2e-3 -0.856-0.0909-6.1-0.823-6.52-0.909-0.404-0.0842-0.21 0.0853 0.542 0.473 1.34 0.689 4.26 2.37 5.39 3.09l0.439 0.282 0.432-0.529c2.19-2.68 6.18-4.16 9.35-3.48l0.647 0.14 0.501-0.239c0.276-0.132 0.519-0.239 0.54-0.239 0.17 0 0.876-0.567 0.961-0.77 0.427-1.03-0.738-4.11-2.93-7.75-0.475-0.79-0.424-0.794 0.735-0.0551 4.49 2.86 7.77 4.24 8.63 3.64 1.39-0.977-0.159-10.6-2.95-18.3-0.519-1.42-0.506-1.47 0.166-0.651 0.235 0.288 1.37 1.68 2.52 3.09 7.37 9.03 10.5 12.5 11.5 12.5h0.295l0.337-0.376c0.903-1.01 2.55-4.22 3.7-7.2 0.565-1.47 0.613-1.54 0.754-1.08 1.7 5.46 3.77 8.97 5.28 8.97 2.95 0 12.2-8.62 19.4-18.1 0.184-0.244 0.354-0.424 0.377-0.402 0.0563 0.0563-0.182 0.765-0.448 1.33-0.12 0.257-0.275 0.711-0.344 1.01-0.0687 0.299-0.294 1.14-0.501 1.86-1.96 6.89-2.66 12.9-1.62 13.7 0.86 0.723 6.76-1.7 11.3-4.63 1.23-0.794 1.35-0.805 0.802-0.0781-0.171 0.227-0.311 0.444-0.311 0.482 0 0.0377-0.504 1.09-1.12 2.34-1.33 2.69-2.09 4.39-2.03 4.54 0.0301 0.0784 0.234 0.105 0.8 0.106 1.35 2e-3 1.37 0.0415 0.285 0.702-0.453 0.275-0.912 0.573-1.02 0.66l-0.195 0.159 0.114 0.517 1.25-0.0672c0.689-0.037 1.55-0.0679 1.91-0.0687l0.66-1e-3 0.0776 1.16h0.621l0.0525-1.27c0.0289-0.698 0.0706-1.29 0.0926-1.31 0.0834-0.0834 8.15 1.14 8.26 1.25 0.0219 0.0219-0.018 0.27-0.0887 0.552-0.157 0.624-0.161 0.616 0.417 0.73 0.559 0.11 0.549-0.0261 0.112 1.6-0.626 2.32-1.52 5.88-1.49 5.95 0.0136 0.041 0.213-0.0547 0.442-0.213 0.581-0.4 2.78-1.74 3.58-2.18 1.53-0.843 1.53-0.879 0.155-0.882-1.9-4e-3 -2.95-0.154-2.95-0.423 0-0.344 0.171-0.392 1.39-0.392 3.33 0 5.91 0.0467 5.91 0.107 0 0.0374-0.341 0.27-0.757 0.518-2.2 1.31-7.53 4.64-8.06 5.04l-0.233 0.176-1.01 3.94-0.33 0.0239c-0.269 0.0195-0.5 0.17-0.261 0.17 0.563 0 1.48 1.62 1.48 2.61 7e-3 3.09-4.49 4.61-6.16 2.09-0.374-0.564-0.295-0.548-1.38-0.278-1.14 0.282-1.3 0.347-1.3 0.509 0 0.652 4.44 4.91 8.07 7.74 0.494 0.385 0.183 0.315-2.26-0.509-4.73-1.59-7.66-2.23-10.3-2.25-2.04-0.0113-2.6 0.225-2.77 1.17l-0.0891 0.479 0.131 0.799c0.354 2.16 1.73 5.45 3.81 9.11 0.893 1.57 0.898 1.56-0.297 0.613-4.95-3.91-9.67-6.63-11.7-6.77l-0.559-0.0376-0.224 0.224c-0.883 0.883-1.16 4.6-0.681 9.07 0.124 1.16 0.0753 1.22-0.396 0.464-2.79-4.45-5.55-7.72-6.53-7.72-1.47 0-4.22 7.08-5.69 14.6-0.409 2.1-0.38 1.98-0.462 1.98-0.0389 0-0.111-0.201-0.16-0.446zm0.341-4.52c1.59-7.77 3.53-13 5.04-13.5l0.337-0.129 0.307 0.0828c1.08 0.292 3.07 2.4 5.26 5.58 0.333 0.483 0.621 0.861 0.641 0.842 0.0199-0.0199-7e-3 -0.659-0.0588-1.42-0.257-3.75 0.18-6.23 1.19-6.75 1.29-0.667 6.52 1.88 10.8 5.25 0.558 0.441 0.556 0.433-0.32-1.36-2.55-5.21-2.94-7.73-1.35-8.6 1.49-0.807 5.58-0.366 10.2 1.1 1.76 0.554 1.78 0.542 0.686-0.351-1.17-0.953-2.73-2.43-3.68-3.49-0.578-0.642-0.911-0.956-0.992-0.932-0.595 0.175-0.781 0.0755-0.781-0.419 0-0.162-0.0218-0.404-0.0485-0.538l-0.0485-0.243h-0.599l-0.0396-0.175c-0.0407-0.18-0.135-1.06-0.282-2.62-0.0461-0.491-0.115-0.925-0.152-0.964-0.0772-0.0807-1.25 0.164-1.44 0.299l-0.115 0.0844 0.163 2.06c0.0899 1.13 0.183 2.34 0.207 2.68l0.0431 0.623-0.129 0.107c-0.217 0.18-5.74 0.773-5.94 0.638-0.0611-0.0408-0.122-0.252-0.14-0.488-0.0179-0.229-0.0493-0.497-0.0699-0.596l-0.0374-0.18-0.211 0.0442c-0.315 0.0661-0.409-0.0412-0.459-0.526-0.0569-0.551-0.047-0.553-0.733 0.13-1.28 1.28-2.91 2.08-4.9 2.42-2.45 0.416-6.58-0.27-6.58-1.09 0-0.242-9e-3 -0.24-0.95 0.2-1.44 0.672-3.47 1.56-3.58 1.56-0.159 0-0.302-0.208-0.474-0.69l-0.155-0.435-0.406-0.0472-0.327-0.883c-0.18-0.486-0.368-0.898-0.418-0.916-0.0995-0.0367-2.9 0.594-2.98 0.67-0.0591 0.0591-0.144 0.583-0.303 1.87-0.137 1.11-0.187 1.26-0.446 1.32-0.158 0.0397-2.13-0.192-4.9-0.577l-1-0.139-0.78 0.725c-0.474 0.441-0.844 0.725-0.944 0.725-0.173 0-1.17-0.922-3.52-3.24l-1.29-1.27-0.0244 0.156c-0.0134 0.0858 0.0697 0.743 0.185 1.46 0.115 0.717 0.226 1.5 0.247 1.74l0.0376 0.439-0.183 0.119c-0.217 0.141-5.42 1.6-5.7 1.6-0.219 0-0.345-0.234-0.346-0.646-5.83e-4 -0.136-0.023-0.329-0.0498-0.429l-0.0488-0.182-0.215 0.043c-0.262 0.0525-0.353-0.0455-0.423-0.455-0.0289-0.171-0.0701-0.374-0.0916-0.452l-0.039-0.141-0.672 0.665c-3.2 3.16-8.37 3.93-11.9 1.75-0.447-0.275-0.437-0.274-0.694-0.0553-0.215 0.183-1.52 1.26-2.24 1.84-0.238 0.194-0.677 0.553-0.976 0.798s-1.23 0.991-2.08 1.66c-1.85 1.47-1.9 1.56-0.561 0.972 0.918-0.401 4.86-1.74 7.37-2.5 6.36-1.93 10.5-2.27 11.4-0.942 0.689 1.02 0.235 3.54-1.41 7.8-0.244 0.633-0.424 1.17-0.401 1.2 0.0239 0.0239 0.402-0.287 0.841-0.69 4.23-3.89 7.49-6.2 8.91-6.33l0.45-0.0408 0.278 0.172c0.808 0.5 1.37 3.04 1.37 6.22 3.2e-4 1.78-0.0126 1.77 0.851 0.427 2.46-3.83 5.24-6.64 6.58-6.64 1.7-3e-3 4.18 6 5.84 14.2 0.159 0.782 0.238 0.76 0.418-0.116zm-30.5-18.8c2.68-0.439 5.24-2.32 6.69-4.91l0.185-0.331-0.582-0.563c-0.943-0.911-2.55-2.34-2.66-2.37-0.0556-0.0122-0.338 0.26-0.627 0.606-3.05 3.65-7.38 2.67-7.38-1.67l7.2e-5 -1.01 0.182-0.582c0.929-2.98 3.37-4.17 5.86-2.85 0.366 0.194 0.628 0.29 0.668 0.245 0.321-0.359 2.88-4.11 2.88-4.22 0-0.17-1.17-1.04-1.9-1.4-5.81-2.92-13 2.63-13 10.1-0.0355 6.03 4.14 9.88 9.72 8.96zm10.4-2.12 2.06-0.602 0.0239-0.203c0.0132-0.112-0.135-1.31-0.33-2.65-0.366-2.53-0.404-2.92-0.283-2.92 0.0389 0 0.554 0.498 1.14 1.11 0.591 0.609 1.94 1.98 2.99 3.05l1.92 1.94 0.589-0.582c0.849-0.838 2.71-2.86 2.74-2.98 0.0204-0.0896-0.256-0.335-1.42-1.26-1.94-1.55-3.84-3.15-3.84-3.24 0-0.0504 0.264-0.299 0.587-0.552 2.93-2.3 3.52-6.42 1.24-8.71-2.09-2.1-6.33-1.85-12.1 0.722-0.536 0.239-0.535 0.227-0.097 0.764 0.413 0.508 0.417 0.536 0.119 1.02l-0.23 0.374 0.649 3.88c0.357 2.14 0.762 4.58 0.901 5.43 0.139 0.854 0.308 1.66 0.377 1.79 0.0824 0.153 0.126 0.432 0.128 0.815 0.0014 0.32 0.104 1.22 0.228 2l0.225 1.42 0.161-3e-3c0.0884-2e-3 1.09-0.274 2.22-0.605zm0.827-10.6c-0.0841-0.219-0.388-3.12-0.34-3.25 0.0281-0.0732 0.287-0.202 0.615-0.305l0.567-0.178h1.63l0.311 0.16c0.897 0.461 0.854 1.58-0.0949 2.44-0.8 0.731-2.56 1.47-2.69 1.13zm1.74-1.38c0.378-0.273 0.325-0.341-0.205-0.262l-0.345 0.0517v0.176c0 0.35 0.104 0.356 0.55 0.0336zm12.1 9.55c0.0854-0.756 0.195-1.41 0.244-1.46 0.101-0.1 4.22-1.08 4.54-1.08h0.209l0.348 0.951c0.191 0.523 0.428 1.17 0.526 1.44 0.227 0.631 0.208 0.628 1.16 0.179 2.25-1.06 3.41-1.64 3.41-1.72 0-0.129-0.767-1.91-2.1-4.85-1.59-3.54-3.51-8.17-4.39-10.6-0.399-1.11-0.265-1.04-1.63-0.743-2 0.443-4.17 0.976-4.38 1.08l-0.2 0.0958-0.0905 0.543c-0.0498 0.298-0.165 1.14-0.256 1.86-0.298 2.37-0.555 4.13-1.14 7.8l-0.574 3.61 0.0971 0.0873c0.0534 0.048 0.371 0.307 0.706 0.577l0.609 0.489-0.0413 0.203c-0.145 0.714-0.22 0.9-0.554 1.38-0.205 0.293-0.456 0.643-0.559 0.778-0.241 0.316-0.305 0.293 1.45 0.523 0.831 0.109 1.6 0.212 1.71 0.23 0.107 0.0177 0.316 0.0274 0.466 0.0215l0.272-0.0106zm0.475-5.71c-0.0214-0.0347 0.0962-1.13 0.261-2.43 0.165-1.3 0.342-2.7 0.393-3.1 0.155-1.22 0.119-1.27 1.37 1.93 1.04 2.67 1.11 2.85 1.05 2.94-0.0938 0.15-3 0.773-3.07 0.658zm1.94-1.22c0.0256-0.0668 2e-3 -0.215-0.0514-0.33l-0.098-0.209-0.0748 0.216c-0.117 0.339 0.0987 0.65 0.224 0.322zm14.2 6.91c6.16-1.07 8.71-7.47 3.95-9.92-0.916-0.469-1.53-0.665-3.92-1.26-2.72-0.671-3.33-0.973-3.33-1.65 0-1.53 3.02-1.94 5.42-0.736 0.349 0.175 0.648 0.319 0.665 0.319 0.0401 0 1.04-1.71 1.72-2.94l0.532-0.962-0.306-0.257c-1.86-1.56-5.32-2.15-7.88-1.34-3 0.953-5.01 3.26-5.18 5.93l-0.0438 0.699 0.158 0.625c0.235 0.928 0.455 1.33 1.05 1.92l0.533 0.526 0.79 0.377c0.865 0.413 1.67 0.663 3.88 1.21 2.61 0.642 3.2 0.986 3.05 1.78-0.236 1.26-3.16 1.69-5.77 0.862-0.892-0.285-0.811-0.348-1.15 0.898l-0.179 0.667 0.339 0.77c0.186 0.423 0.361 0.886 0.389 1.03l0.0504 0.258-0.258 0.266c-0.321 0.331-0.296 0.356 0.623 0.619 1.53 0.437 3.42 0.555 4.87 0.303zm10-1.2c0.996-0.12 1.84-0.252 1.88-0.292 0.0453-0.0453 0.0422-0.481-8e-3 -1.15-0.0446-0.595-0.131-1.76-0.191-2.6l-0.11-1.51 0.0925-0.0928c0.123-0.123 3.57-0.992 3.72-0.936 0.0818 0.0314 0.14 0.297 0.209 0.963 0.202 1.92 0.313 3.04 0.36 3.62 0.0607 0.742 0.0459 0.733 0.872 0.496 0.373-0.107 1.08-0.303 1.57-0.435 0.491-0.132 1.12-0.313 1.39-0.403l0.496-0.162-0.0523-0.631c-0.0288-0.347-0.155-1.84-0.28-3.31-0.267-3.15-0.501-6.69-0.629-9.51-0.0563-1.25-0.124-2.05-0.177-2.11-0.111-0.119-4.56 0.192-4.7 0.328-0.069 0.069 0.0111 1.06 0.43 5.31l0.133 1.35-0.121 0.0887c-0.193 0.141-3.54 0.793-3.62 0.705-0.039-0.0416-0.182-1.63-0.318-3.53-0.291-4.07-0.217-3.68-0.695-3.62-0.57 0.0756-3.6 0.781-4.27 0.992l-0.263 0.0837 0.0472 0.708c0.0396 0.594 0.455 4.42 0.866 7.97 0.0568 0.491 0.156 1.02 0.221 1.17 0.171 0.398 0.295 1.43 0.239 1.98-0.0544 0.531 0.33 4.6 0.449 4.75 0.0404 0.0517 0.191 0.0741 0.358 0.0532 0.158-0.0198 1.1-0.135 2.1-0.255zm13.6 0.0641c1.28-0.272 2.04-1.18 2.04-2.44l-2.3e-4 -0.621-0.167-0.32c-0.27-0.516-0.539-0.782-1.04-1.03l-0.475-0.237h-1.12l-0.472 0.236c-0.516 0.258-0.93 0.666-1.19 1.17l-0.165 0.323 0.0527 0.383c0.0335 0.244 0.018 0.467-0.0428 0.614l-0.0955 0.23 0.138 0.362c0.29 0.76 1 1.25 2.07 1.41 0.0299 5e-3 0.24-0.0308 0.466-0.0788zm-65.5-0.579c1.01-0.294 1.9-0.982 2.84-2.19 0.78-0.996 0.769-0.998 2.35 0.456l1.13 1.03 0.0162-0.231c0.0293-0.417-1.02-6.44-1.12-6.44-0.0513 0-0.489 0.559-0.973 1.24-0.991 1.4-1.03 1.42-1.6 1.06-0.695-0.446-1.25-0.646-1.92-0.687l-0.621-0.0381-0.449 0.17c-1.27 0.48-2.19 2.09-2.18 3.81l0.0042 0.738 0.377 0.932 0.388 0.132c0.492 0.168 1.21 0.175 1.75 0.0161zm20.2-2.03c0.0648-0.211 0.964-5.72 1.17-7.2 0.196-1.38 0.368-2.57 0.503-3.49 0.0438-0.299 0.15-1.05 0.236-1.67 0.189-1.36 0.0394-1.22 1.78-1.66 5.22-1.3 5.3-1.3 5.63-0.55l0.194 0.438 0.189-0.0362c0.308-0.059 0.329-0.0192 1.12 2.2 0.947 2.65 1.63 4.47 1.76 4.74 0.0565 0.111 0.175 0.477 0.263 0.814 0.101 0.385 0.488 1.28 1.04 2.4 0.484 0.983 0.978 2.01 1.1 2.27 0.265 0.595 0.307 0.599 0.48 0.0487 0.193-0.614 0.297-0.642 1.16-0.313 1.06 0.405 1.85 0.549 3.03 0.553 1.48 4e-3 1.5-0.116 0.0714-0.463-2.84-0.688-4.29-1.42-5.2-2.63-0.244-0.324-0.474-0.588-0.512-0.588-0.325 0-1.27-1.78-1.4-2.64-0.98-6.37 8-10.8 13.7-6.81 0.256 0.181 0.221 0.185 1.91-0.245 1.53-0.389 4.35-1.02 4.58-1.02 0.207 0 0.289 0.166 0.356 0.72l0.0544 0.448 0.266-0.0179c0.386-0.026 0.395 2e-3 0.492 1.49 0.145 2.22 0.333 4.3 0.394 4.37 0.072 0.0792 1.23-0.134 1.34-0.248 0.06-0.06 0.0472-0.465-0.0451-1.42-0.0709-0.738-0.17-1.81-0.221-2.38l-0.0918-1.04-0.22-0.251c-0.259-0.295-0.277-0.531-0.0649-0.851 0.0848-0.128 0.154-0.36 0.155-0.515 6.8e-4 -0.371 0.0889-0.428 0.758-0.494 0.31-0.0305 0.581-0.0841 0.603-0.119 0.0847-0.137-0.141-0.449-0.356-0.492-0.121-0.0243-0.277-0.13-0.346-0.235l-0.125-0.191 0.248-0.568c0.377-0.862 1.4-2.89 2.22-4.39 0.872-1.6 0.884-1.66 0.26-1.24-2.47 1.68-8.8 4.13-10.1 3.9-1.67-0.313-1.38-5.47 0.729-13.2 0.133-0.491 0.28-0.987 0.326-1.1 0.194-0.487-0.0213-0.338-0.712 0.491-6.71 8.06-14 14.4-16.5 14.4-1.36 0-3.45-2.85-4.81-6.57-0.58-1.59-0.58-1.59-0.857-0.748-0.825 2.49-2.59 5.95-3.46 6.78l-0.403 0.382h-0.319c-0.97 0-3.98-3-8-7.96-0.45-0.555-1.22-1.49-1.71-2.08-0.488-0.59-1.21-1.48-1.61-1.98-0.985-1.24-0.988-1.24-0.609 6e-3 0.612 2.02 1.61 6.18 1.9 7.95 0.299 1.8 0.354 2.42 0.356 4.03l2e-3 1.63-0.149 0.487c-0.0828 0.271-0.258 0.614-0.396 0.773l-0.247 0.286-0.536 0.0302c-1.29 0.0729-4.2-1.04-6.64-2.55-0.981-0.606-0.986-0.601-0.445 0.399 1.85 3.41 2.14 5.22 0.988 6.09-0.206 0.155-0.302 0.288-0.302 0.416v0.188l0.175-0.0401c0.0961-0.0221 0.769-0.283 1.49-0.581 5.3-2.17 9.22-2.22 11.5-0.135 0.401 0.364 1.17 1.43 1.18 1.62 1e-3 0.0479 0.125 0.279 0.274 0.514 0.344 0.54 0.625 1.42 0.742 2.33l0.0906 0.706-0.0971 0.83c-0.199 1.7-1.02 3.48-2.05 4.43-0.271 0.252-0.288 0.22 0.434 0.828 1.12 0.942 1.19 0.982 1.26 0.75zm43.4-2.58c0.0276-0.282-0.106-0.497-0.207-0.334-0.0875 0.142-0.0101 0.653 0.0937 0.619 0.0485-0.0159 0.0994-0.144 0.113-0.285zm3.55-1.7c0.469-2.29 1.37-6.12 2.14-9.02 0.694-2.65 0.69-2.62 0.447-2.67-0.531-0.113-5.91-0.897-6.16-0.897h-0.162l-0.0544 1.36c-0.0637 1.59 0.0968 11.6 0.188 11.7 0.034 0.0365 0.771 0.0993 1.64 0.139 0.867 0.0402 1.59 0.0865 1.61 0.103 0.115 0.115 0.245-0.141 0.363-0.72zm-19.6-1.77c0-0.0248-0.0497-0.453-0.11-0.951-0.0607-0.498-0.155-1.33-0.209-1.86-0.123-1.19-0.123-1.19-0.895 0.159-0.39 0.68-0.721 1.16-0.863 1.26l-0.231 0.16 0.669 0.327c0.368 0.18 0.844 0.464 1.06 0.632 0.355 0.278 0.582 0.383 0.582 0.267zm-2.46-1.35c-0.47-0.47-3.31-1.26-3.67-1.02-0.126 0.083-0.114 0.0867 1.62 0.508 0.619 0.15 1.34 0.342 1.59 0.426 0.556 0.183 0.557 0.183 0.456 0.0816zm-43.7 38.7c0-0.0212 0.491-0.962 1.09-2.09l1.09-2.05 1.3-1.42c2.12-2.32 4.63-4.98 4.74-5.02 0.233-0.0758-4.16 6.65-4.86 7.45-0.971 1.1-3.36 3.33-3.36 3.13zm53.6-2.42-1.92-1.68-0.872-1.33c-2.89-4.41-4.27-6.56-4.22-6.61 0.0532-0.0532 1.11 1.06 3.01 3.18 0.918 1.02 2.03 2.26 2.47 2.76 0.443 0.493 0.85 0.966 0.903 1.05 0.0534 0.0854 0.678 1.07 1.39 2.18 0.71 1.12 1.29 2.05 1.29 2.08 0 0.144-0.304-0.0965-2.06-1.63zm-36.6 0.612c0-0.0378 0.102-0.433 0.226-0.878 0.124-0.445 0.438-1.58 0.697-2.53l0.471-1.72 1.19-2.43c0.655-1.34 1.29-2.64 1.41-2.88 0.611-1.24 0.33-0.112-0.928 3.72-0.496 1.51-0.828 2.37-1.3 3.34-0.345 0.718-0.848 1.76-1.12 2.33-0.436 0.908-0.657 1.26-0.657 1.06zm23-1.49c-1.09-1.84-1.13-1.93-1.57-3.42-0.915-3.11-1.42-5.04-1.33-5.04 0.0722 0 0.68 1.32 1.75 3.8l0.935 2.17 0.465 1.65c0.606 2.15 0.581 2.24-0.249 0.838zm-19.4-1.13c0.303-1.88 0.426-2.42 0.863-3.8 0.27-0.855 0.564-1.71 0.653-1.9l0.161-0.347-0.0389 0.369c-0.0786 0.745-0.741 3.47-1.12 4.59-0.375 1.12-0.603 1.6-0.522 1.1zm-28.3-1.76c-0.265-0.341-2.35-3.71-2.35-3.8 0.0018-0.132 7.78-5.24 8.84-5.81 0.326-0.174 0.278-0.0194-0.232 0.75-0.276 0.417-0.762 1.16-1.08 1.65-0.62 0.961-2.51 3.78-3.29 4.9-0.262 0.378-0.739 1.07-1.06 1.54-0.578 0.848-0.687 0.948-0.833 0.761zm2.63-4.55c1.3-1.81 2.41-3.35 2.46-3.44 0.176-0.243-0.0235-0.169-0.506 0.189-1.65 1.22-2.39 1.76-3.56 2.57-2.12 1.48-2.28 1.59-2.33 1.68-0.0583 0.0944 1.41 2.35 1.51 2.31 0.0368-0.0138 1.13-1.5 2.42-3.31zm51.7 2.58c-0.695-0.95-0.845-1.22-1.3-2.3-0.788-1.89-0.812-2.03-0.181-1.05 0.899 1.39 1.98 3.56 1.9 3.8-0.0157 0.0471-0.205-0.155-0.42-0.45zm13.8-4.28c-0.711-1.03-2.52-3.75-3.03-4.56-1.94-3.07-1.89-2.99-1.71-2.99 0.416 0 7.84 4.59 7.84 4.85-2e-3 0.0698-0.593 0.848-2.2 2.9-0.408 0.52-0.407 0.52-0.9-0.194zm1.33-1.3c0.597-0.72 0.92-1.15 0.92-1.24 0-0.0416-1.13-0.799-4.43-2.98-0.534-0.353-1.05-0.698-1.15-0.767-0.341-0.243-0.249-0.0404 0.349 0.767 0.332 0.448 1.27 1.75 2.08 2.88 0.811 1.14 1.51 2.06 1.56 2.05 0.0465-0.0109 0.346-0.334 0.664-0.719zm-82.4-8.33c0-0.0898 3.35-2.02 3.87-2.23 0.838-0.339 3.6-1.28 3.76-1.28h0.161l-0.16 0.112c-0.169 0.118-1.92 1.12-2.9 1.65-0.568 0.311-1.41 0.642-3.6 1.42-1.18 0.421-1.14 0.408-1.14 0.319zm1.94-3.31c0-0.0975 1.41-0.551 2.21-0.71 1.61-0.321 1.71-0.22 0.254 0.263-1.1 0.365-2.47 0.613-2.47 0.448zm90.5-8.16c-1.32-0.276-1.61-0.361-1.43-0.423 0.253-0.0879 2.44 0.133 3.02 0.305 0.299 0.0887 0.554 0.161 0.567 0.161 0.0133 0 3e-3 0.0349-0.0238 0.0776-0.0841 0.136-1.21 0.0723-2.14-0.121zm0.414-1.38c-1.85-0.135-1.69-0.219 0.722-0.384l1.48-0.102 0.873 0.0996c1.22 0.139 1.25 0.204 0.186 0.379-0.786 0.129-1.58 0.131-3.27 8e-3zm-76.5-13.1c-1.46-0.881-3.82-2.36-5.59-3.5l-1.16-0.75-1.88-1.76c-1.78-1.66-2.11-2.01-1.71-1.8 2.55 1.33 5.03 3.06 9.17 6.39 3.08 2.48 3.23 2.66 1.17 1.42zm-3.06-0.13c-1.17-0.581-2.71-1.53-2.95-1.82l-0.107-0.129 0.147 0.0525c0.548 0.196 1.88 0.858 2.44 1.21 0.896 0.566 1.86 1.23 1.86 1.27 0 0.0891-0.214-8.1e-4 -1.39-0.583zm72-3.71c0.0427-0.0428 0.934-0.566 1.98-1.16l1.9-1.09 1.64-0.632c2.23-0.857 2.24-0.846 0.354 0.325-1.83 1.14-6.48 3.16-5.88 2.56zm-2.87-0.417c0.14-0.154 4.21-3.48 4.88-4 0.368-0.28 5.26-3.37 5.64-3.57l0.263-0.135-0.155 0.178c-0.183 0.21-2.38 2.05-4.05 3.39-1.28 1.03-1.81 1.39-4.49 3.02-2.25 1.37-2.41 1.46-2.09 1.1zm-61.7-2.41c-3.77-2.57-6.38-4.63-8.53-6.73l-0.583-0.567 0.271 0.133c1.56 0.762 4.82 3.24 8.36 6.34 2.09 1.84 2.17 1.97 0.486 0.82zm5.09-0.514c-1.54-1.26-5.55-4.83-6.22-5.54l-0.247-0.26 0.0677-0.349c0.0372-0.192 0.262-1.38 0.499-2.64 0.451-2.39 0.498-2.55 0.688-2.24 0.507 0.804 6.13 11.5 6.09 11.6-0.0148 0.0445-0.41-0.233-0.878-0.616zm-0.87-1.82c-0.804-1.35-1.62-2.82-3.1-5.58-0.767-1.43-0.989-1.78-1.06-1.7-0.0401 0.0461-0.595 2.87-0.595 3.03 1.95e-4 0.151 5.04 5 5.11 4.92 0.0151-0.015-0.145-0.318-0.356-0.673zm29.5 0.72c0-0.289 2.42-9.59 2.52-9.7 0.125-0.125 3.23 0.182 3.23 0.319 0 0.255-3.39 5.95-5.51 9.27-0.117 0.183-0.234 0.237-0.234 0.109zm1.61-3.33c0.168-0.288 0.683-1.17 1.14-1.96 0.462-0.79 1.1-1.89 1.42-2.44l0.577-1-0.104-0.0662c-0.0574-0.0364-0.314-0.0671-0.57-0.0682-0.256-1e-3 -0.588-0.0204-0.738-0.0428-0.402-0.0603-0.442-6e-4 -0.728 1.1-0.144 0.553-0.511 1.85-0.815 2.89-0.689 2.35-0.704 2.48-0.184 1.59zm-4.27 3.24c-0.0485-0.124-0.0691-0.359-0.251-2.87-0.0633-0.875-0.204-2.78-0.312-4.23-0.108-1.45-0.18-2.83-0.158-3.07 0.0215-0.235 0.0759-1.04 0.121-1.79 0.146-2.43 0.177-2.42 0.661 0.194l0.36 1.94-0.0469 2.29c-0.0916 4.47-0.258 7.83-0.374 7.53zm21.2-0.175c0.0229-0.0534 0.362-0.866 0.753-1.81 2.54-6.09 3.29-7.85 3.37-7.94l0.0951-0.1 0.654 0.576c2.33 2.05 2.83 2.52 2.83 2.62 0 0.0662-0.332 0.412-0.738 0.769-0.406 0.357-1.51 1.33-2.45 2.17-3.72 3.31-4.69 4.11-4.52 3.71zm4.1-4.28c1.34-1.27 2.45-2.36 2.46-2.42 0.0258-0.112-1.98-1.9-2.13-1.9-0.0512 0-0.243 0.358-0.425 0.796s-0.557 1.3-0.833 1.92c-0.276 0.619-0.633 1.42-0.793 1.79s-0.471 1.04-0.69 1.51c-0.218 0.465-0.397 0.861-0.397 0.88 0 0.0821 0.509-0.383 2.8-2.57zm-26.7 3.33c0-0.0178-0.0879-0.586-0.195-1.26-0.207-1.3-0.345-3.66-0.201-3.43 0.322 0.501 0.756 4.73 0.485 4.73-0.049 0-0.089-0.0146-0.089-0.0324zm-10.2-1.27c-0.277-0.444-2.75-5.1-4.23-7.98l-1.32-2.56-0.591-1.9c-0.631-2.03-0.627-2.02-0.521-2.02 0.141 0 2.4 3.46 2.63 4.04 4.22 10.3 4.63 11.4 4.03 10.4zm1.09-1.86c-1.02-2.28-2.12-5.55-2.42-7.16l-0.0494-0.271 0.113 0.115c0.119 0.121 0.856 1.71 1.17 2.54 0.102 0.265 0.327 1.01 0.5 1.66 0.173 0.648 0.328 1.2 0.345 1.23 0.0662 0.107 0.598 2.28 0.566 2.31-0.0185 0.0185-0.124-0.168-0.234-0.414z" fill="#5d5f5f"/><path d="m118 201c-0.0241-0.0641-0.259-1.09-0.522-2.29-1.83-8.33-3.93-13.9-5.46-14.5-1.06-0.401-3.97 2.57-7.31 7.45l-0.928 1.36-0.0482-2.33c-0.079-3.82-0.481-5.98-1.22-6.57l-0.209-0.165-0.327 0.0366c-1.42 0.158-6.11 3.66-11 8.22-0.866 0.804-0.914 0.799-0.525-0.0521 2.1-4.6 3.37-9.27 2.82-10.4-0.918-1.86-10.3 0.0481-21.6 4.42-1.86 0.719-2.14 0.817-2.14 0.775 0-0.0178 0.445-0.391 0.99-0.829 5.5-4.43 10.4-8.51 10.4-8.63 0-0.0504-0.162-0.247-0.359-0.438-0.945-0.911-2.3-3.29-2.78-4.9-0.893-2.96-0.589-6.12 0.864-8.99 0.588-1.16 0.582-1.07 0.0812-1.37-0.223-0.133-1.09-0.652-1.92-1.15-2.17-1.31-3.98-2.31-6.64-3.66-1.28-0.653-2.26-1.19-2.17-1.19 0.088-1e-3 1.3 0.19 2.69 0.424 3.45 0.58 6.6 1.08 9.09 1.44 1.99 0.287 2.49 0.389 1.91 0.39-0.146 2.4e-4 -0.401 0.0381-0.567 0.0842-0.374 0.104-1.49-0.0155-5.21-0.555-3.46-0.502-3.58-0.493-2.27 0.178 2.45 1.25 5.88 3.24 5.88 3.41 0 0.0353-0.0698 0.179-0.155 0.318-0.0852 0.14-0.155 0.28-0.155 0.312-8.55e-4 0.172 0.185-8e-3 0.603-0.582 2.23-3.07 6.09-4.64 9.73-3.97l0.666 0.124 0.741-0.353c1.48-0.708 1.64-1.09 1.19-2.85-0.339-1.31-1.9-4.59-2.88-6.05-0.268-0.399-0.197-0.378 0.721 0.211 4.3 2.76 7.67 4.19 8.65 3.66 1.5-0.801 0.0777-10-2.79-18.2-0.216-0.611-0.365-1.1-0.332-1.09 0.0691 0.0275 0.57 0.63 2.76 3.32 6.35 7.81 9.95 11.8 11.1 12.4l0.452 0.221 0.261-0.124c0.865-0.413 3.26-4.96 4.57-8.7 0.0559-0.159 0.206-0.106 0.206 0.0726 0 0.0642 0.162 0.612 0.359 1.22 1.48 4.55 3.56 7.74 5.03 7.74 2.79 0 12.6-9.11 18.8-17.4 0.673-0.906 0.783-0.952 0.465-0.193-0.301 0.718-0.434 1.15-0.997 3.21-2.22 8.12-2.72 13.6-1.29 14 1.26 0.362 7.23-2.23 11.4-4.94 0.6-0.393 0.672-0.406 0.447-0.0838-0.479 0.686-3.54 7.22-3.5 7.46l0.0254 0.133 0.845 0.0564c0.465 0.031 0.862 0.0732 0.882 0.0936 0.0348 0.0348-0.678 0.51-1.49 0.993l-0.355 0.212v0.226c0 0.124 0.0611 0.299 0.136 0.388l0.136 0.162 1.72-0.126c2.05-0.15 1.97-0.168 1.97 0.431 0 0.653 0.0333 0.708 0.433 0.708 0.469 0 0.499-0.0901 0.499-1.47v-1.17l0.252 0.0415c0.139 0.0228 1.25 0.183 2.47 0.356 2.23 0.316 5.36 0.825 5.41 0.88 0.0164 0.0164-0.0289 0.241-0.101 0.499-0.17 0.612-0.137 0.674 0.428 0.785 0.26 0.0512 0.473 0.107 0.473 0.123 0 0.0165-0.177 0.687-0.394 1.49s-0.634 2.4-0.927 3.56c-0.293 1.15-0.556 2.17-0.585 2.27l-0.0523 0.175h0.153c0.0841 0 0.272-0.0854 0.417-0.19 0.557-0.401 2.26-1.45 3.62-2.22 0.958-0.547 1.41-0.847 1.4-0.926l-0.0217-0.116-0.62-0.0166c-1.94-0.0519-3.45-0.216-3.45-0.375 0-0.25 0.295-0.27 3.66-0.25l3.36 0.0202-0.311 0.204c-0.171 0.112-1.13 0.703-2.14 1.31-2.22 1.35-4.93 3.05-5.83 3.65l-0.67 0.449-0.446 1.85c-0.245 1.02-0.479 1.91-0.519 1.99l-0.0728 0.139-0.364-0.0228c-0.487-0.0305-0.47 0.0886 0.0628 0.461 2.51 1.75 0.957 5.63-2.25 5.64l-0.738 2e-3 -0.438-0.173c-0.61-0.241-1.01-0.549-1.36-1.05-0.387-0.558-0.388-0.559-1.52-0.279-1.22 0.302-1.31 0.341-1.31 0.574 0 0.633 2.87 3.5 6.7 6.67 0.758 0.63 1.38 1.16 1.38 1.18 0 0.0422-0.362-0.0753-2.14-0.693-6.63-2.31-12.2-2.97-13-1.53-0.738 1.29 0.775 5.83 3.56 10.7 0.711 1.24 0.77 1.38 0.481 1.16-7.5-5.79-12.4-8.25-13.3-6.73-0.698 1.1-0.959 4.77-0.592 8.32 0.0761 0.739 0.124 1.36 0.105 1.38-0.0181 0.0181-0.356-0.482-0.75-1.11-2.45-3.9-5.04-6.87-6.12-6.99l-0.345-0.0388-0.363 0.388c-1.62 1.73-3.73 7.66-5.06 14.2-0.205 1.01-0.392 1.79-0.416 1.73zm0.492-5.45c1.79-8.33 3.8-13.1 5.34-12.6 1.19 0.34 2.93 2.2 5.34 5.67 0.843 1.22 0.83 1.23 0.659-0.847-0.275-3.34 0.146-5.87 1.08-6.5 1.18-0.793 5.78 1.41 10.6 5.08 0.872 0.661 1.04 0.606 0.547-0.175-1.32-2.08-2.87-6.32-2.88-7.88l-3e-3 -0.66 0.176-0.371c0.804-1.69 4.78-1.55 11.1 0.405 1.96 0.604 1.95 0.615 0.279-0.809-1.33-1.14-3.16-2.89-3.79-3.65-0.48-0.577-0.5-0.588-0.872-0.504-0.382 0.0861-0.503-5e-3 -0.504-0.379-4.7e-4 -0.155-0.0222-0.411-0.0483-0.569l-0.0475-0.287-0.641-0.0468-0.0933-0.854c-0.0513-0.47-0.131-1.26-0.176-1.75-0.123-1.33-0.0814-1.29-1.16-1.01-0.792 0.206-0.749 0.0167-0.553 2.42 0.095 1.17 0.19 2.37 0.212 2.67l0.0394 0.546-0.127 0.105c-0.122 0.101-1.58 0.294-4.51 0.594l-1.24 0.127-0.102-0.14c-0.0561-0.0767-0.102-0.338-0.102-0.581 0-0.498-0.101-0.637-0.435-0.6l-0.215 0.0234-0.0557-0.194c-0.0306-0.107-0.0591-0.323-0.0634-0.481-0.0124-0.459-0.149-0.443-0.623 0.0726-1.1 1.2-2.46 1.98-4.27 2.44l-0.899 0.233-2.82 0.081-0.804-0.134c-0.874-0.146-1.93-0.432-2.46-0.663l-0.33-0.146v-0.493l-0.175 0.0398c-0.0961 0.0219-1.11 0.463-2.26 0.98-2.53 1.14-2.3 1.13-2.61 0.211l-0.135-0.397-0.426-0.0776-0.297-0.806c-0.163-0.443-0.344-0.853-0.402-0.911l-0.105-0.105-1.18 0.267c-2.14 0.484-1.89 0.247-2.11 2.02-0.131 1.06-0.206 1.43-0.31 1.54l-0.137 0.143-1.35-0.168c-1.48-0.185-4.02-0.523-4.36-0.582l-0.216-0.0376-0.769 0.736c-0.423 0.405-0.835 0.736-0.915 0.736-0.0871 0-1.1-0.931-2.49-2.3-1.34-1.31-2.38-2.27-2.41-2.23-0.0366 0.0384 0.0364 0.71 0.164 1.51 0.126 0.79 0.25 1.65 0.275 1.91l0.0448 0.477-0.146 0.0762c-0.0802 0.0419-0.984 0.31-2.01 0.595-1.02 0.285-2.23 0.625-2.69 0.755-1.16 0.33-1.08 0.371-1.29-0.711l-0.0535-0.272-0.266-0.0388c-0.282-0.0412-0.331-0.123-0.43-0.718-0.0663-0.397-0.115-0.377-0.756 0.297-2.99 3.15-8.33 3.97-11.9 1.83l-0.459-0.275-0.177 0.11c-0.0975 0.0605-1.36 1.07-2.8 2.25-1.44 1.18-3.02 2.45-3.51 2.83-1.33 1.04-1.26 1.12 0.345 0.46 3.3-1.35 10.4-3.53 13-3.96 2.41-0.406 4.57-0.352 5.29 0.133 1.13 0.761 0.75 3.48-1.16 8.32-0.572 1.45-0.541 1.5 0.365 0.639 4.19-4 7.94-6.65 9.38-6.65 1.1 0 1.71 2.03 1.81 6.02l0.0465 1.86h0.116c0.0641 0 0.336-0.332 0.605-0.738 3.18-4.8 5.59-7.21 6.96-6.96 1.59 0.298 3.75 5.78 5.52 14 0.294 1.36 0.338 1.32 0.816-0.906zm-30.7-17.9c2.62-0.453 4.96-2.07 6.47-4.49 0.24-0.382 0.436-0.732 0.436-0.778 0-0.193-3.14-3.07-3.34-3.06-0.064 2e-3 -0.309 0.248-0.543 0.546-2.9 3.68-7.38 2.77-7.38-1.5 0-3.69 3.07-5.97 5.94-4.41 0.324 0.175 0.62 0.318 0.658 0.318 0.111 0 3.03-4.17 3.03-4.32 0-0.234-1.23-1.16-2.1-1.57-5.89-2.81-13 2.87-13 10.4 0.0034 5.94 4.3 9.83 9.8 8.88zm10.3-2.08c0.982-0.285 1.9-0.555 2.04-0.6l0.252-0.0808v-0.253c0-0.139-0.159-1.33-0.353-2.65-0.194-1.32-0.342-2.5-0.33-2.62l0.0226-0.219 2.23 2.29c1.23 1.26 2.58 2.63 3.01 3.04l0.779 0.756 0.158-0.107c0.263-0.179 3.26-3.42 3.26-3.53 0-0.0914-0.504-0.536-1.55-1.37-1.27-1.01-2.79-2.25-3.56-2.91l-0.204-0.174 0.272-0.24c0.149-0.132 0.487-0.428 0.749-0.658 0.96-0.84 1.72-2.1 2.05-3.37l0.168-0.66-0.0385-1.01c-0.194-5.08-4.98-6.22-12.8-3.02-1.49 0.611-1.46 0.582-0.92 1.2 0.41 0.461 0.41 0.465 0.146 0.916l-0.204 0.348 0.052 0.508c0.0286 0.279 0.327 2.15 0.663 4.16 0.336 2.01 0.706 4.25 0.822 4.97 0.116 0.726 0.267 1.42 0.335 1.55 0.0824 0.154 0.127 0.444 0.132 0.854 0.0062 0.517 0.352 3.01 0.467 3.37 0.0496 0.154 0.311 0.0996 2.32-0.485zm1.01-10.8c-0.0503-0.145-0.259-1.83-0.322-2.6l-0.052-0.634 0.535-0.17c0.342-0.109 0.815-0.183 1.31-0.206l0.776-0.0359 0.349 0.18c0.937 0.485 0.928 1.51-0.0205 2.36-0.689 0.62-2.48 1.39-2.58 1.11zm1.71-1.25c0.5-0.338 0.524-0.449 0.0976-0.439-0.516 0.0119-0.721 0.0918-0.75 0.292-0.0663 0.46 0.126 0.503 0.653 0.146zm12 10.8c0.0215-0.0747 0.0976-0.712 0.169-1.42 0.0715-0.705 0.154-1.31 0.184-1.34 0.107-0.116 4.28-1.09 4.52-1.05 0.174 0.0267 0.317 0.347 0.89 2 0.408 1.17 0.0488 1.21 3.2-0.311 1.85-0.89 1.76-0.769 1.3-1.83-0.898-2.06-1.22-2.78-1.74-3.94-1.1-2.44-1.53-3.42-2.64-6.13-0.747-1.82-1.48-3.69-1.8-4.62-0.128-0.363-0.29-0.719-0.361-0.791l-0.129-0.131-0.699 0.157c-0.384 0.0865-1.59 0.368-2.68 0.625-1.09 0.257-2.06 0.486-2.16 0.507-0.305 0.0684-0.303 0.0581-0.681 3.01-0.382 2.98-0.886 6.35-1.47 9.83-0.105 0.625-0.192 1.15-0.192 1.18 0 0.0225 0.317 0.297 0.704 0.611l0.704 0.57-0.0445 0.214c-0.0245 0.117-0.0666 0.327-0.0936 0.466-0.0432 0.222-0.457 0.889-1.04 1.67-0.265 0.358-0.244 0.366 1.71 0.624 2.14 0.284 2.31 0.292 2.36 0.113zm0.643-7.14c-0.0344-0.0559 0.241-2.37 0.569-4.78 0.086-0.631 0.156-1.18 0.156-1.22 0-0.185 0.143-0.0464 0.264 0.255 0.308 0.768 1.64 4.17 1.8 4.62l0.181 0.487-0.174 0.0661c-0.494 0.187-2.75 0.647-2.8 0.57zm1.94-1.07c0.0682-0.178-0.117-0.732-0.244-0.732-0.119 0-0.249 0.627-0.16 0.771 0.0778 0.126 0.351 0.0995 0.405-0.0391zm14.1 6.91c6.22-1.08 8.81-7.57 4-10-0.988-0.507-1.37-0.631-3.87-1.25-2.86-0.714-3.37-0.959-3.37-1.62 0-0.661 0.728-1.17 1.88-1.33l0.661-0.088 0.729 0.124c0.909 0.155 1.34 0.294 2.11 0.677 0.333 0.166 0.635 0.284 0.672 0.261 0.0777-0.048 0.991-1.6 1.76-2.98l0.532-0.963-0.315-0.279c-1.82-1.61-5.32-2.21-8.02-1.36-4.57 1.43-6.75 6.51-3.98 9.27l0.576 0.572 0.788 0.37c0.85 0.399 1.4 0.571 3.62 1.13 2.06 0.515 2.6 0.71 2.96 1.05l0.299 0.284v0.588l-0.33 0.33c-0.846 0.846-3.41 0.993-5.41 0.311-0.84-0.286-0.82-0.295-1.05 0.441-0.111 0.35-0.221 0.784-0.246 0.964l-0.0449 0.327 0.328 0.764c0.18 0.42 0.345 0.868 0.365 0.996l0.0375 0.233-0.239 0.228c-0.408 0.389-0.368 0.419 1.09 0.817 1.21 0.33 3.18 0.416 4.46 0.194zm8.76-1.04c2.21-0.259 3.18-0.394 3.24-0.451 0.0353-0.0353-0.0221-1.25-0.127-2.7-0.105-1.45-0.167-2.66-0.137-2.69 0.118-0.117 3.59-0.945 3.66-0.873 0.0701 0.0701 0.303 2.06 0.472 4.03 0.0886 1.03 0.123 1.2 0.245 1.2 0.144 0 3.7-1 3.99-1.13l0.284-0.119-0.0487-0.562c-0.511-5.9-0.69-8.38-0.868-12.1-0.138-2.85-0.156-3.04-0.292-3.09-0.0954-0.036-3.54 0.203-4.31 0.298-0.536 0.0669-0.548 0.102-0.439 1.26 0.0512 0.543 0.19 2.01 0.309 3.26s0.193 2.29 0.164 2.32c-0.0575 0.0575-2.66 0.617-3.24 0.695l-0.357 0.0487-0.0456-0.533c-0.0251-0.293-0.142-1.89-0.26-3.54s-0.241-3.05-0.272-3.1l-0.0577-0.0933-0.56 0.0961c-0.815 0.14-3.87 0.866-4.18 0.994l-0.264 0.109 0.0507 0.717c0.0438 0.619 0.329 3.29 0.794 7.43 0.0694 0.619 0.191 1.34 0.27 1.59 0.221 0.715 0.322 1.5 0.265 2.07-0.0548 0.553 0.299 4.46 0.433 4.79l0.0733 0.178 0.252-0.0401c0.139-0.022 0.567-0.0769 0.951-0.122zm14.9-0.0877c2.45-0.521 2.93-3.61 0.707-4.63l-0.422-0.193-0.597 0.0302c-0.922 0.0467-1.68 0.535-2.14 1.38l-0.217 0.399 0.0523 0.38c0.0324 0.236 0.0163 0.48-0.0422 0.641l-0.0945 0.261 0.157 0.354c0.368 0.833 1.02 1.28 2.13 1.45 0.0299 5e-3 0.24-0.0308 0.466-0.0788zm-65.4-0.637c0.987-0.358 2.08-1.23 2.82-2.26 0.586-0.816 0.659-0.796 2.19 0.601 0.598 0.544 1.13 0.99 1.17 0.99 0.152 0 0.113-0.287-0.748-5.49-0.294-1.78-0.205-1.78-1.52 0.12-0.779 1.13-0.911 1.23-1.29 0.955-0.127-0.0901-0.504-0.294-0.838-0.454l-0.608-0.29h-1.48l-0.448 0.21c-2.01 0.94-2.86 5.07-1.18 5.68 0.487 0.179 1.34 0.153 1.92-0.058zm20.2-2.25c0.14-0.696 1.01-6.05 1.17-7.18 0.763-5.51 0.848-6.05 0.964-6.15 0.137-0.114 2.94-0.806 5.71-1.41l0.803-0.175 0.197 0.147c0.108 0.0807 0.254 0.304 0.325 0.495l0.128 0.349 0.603 0.0776 0.675 1.9c0.371 1.05 0.98 2.71 1.35 3.69 0.433 1.14 0.68 1.9 0.682 2.1 3e-3 0.321 0.184 0.759 0.483 1.16 0.158 0.214 1.57 3.1 1.86 3.79 0.16 0.387 0.286 0.336 0.455-0.185 0.0748-0.23 0.182-0.465 0.239-0.522l0.103-0.103 0.754 0.273c0.965 0.349 2.21 0.589 3.02 0.582 1.76-0.0159 1.79-0.225 0.0931-0.667-2.81-0.732-3.98-1.28-4.82-2.24-0.208-0.239-0.633-0.718-0.944-1.06-3.84-4.28 0.817-10.9 7.51-10.7l1.2 0.0396 0.776 0.207c0.891 0.238 1.96 0.685 2.66 1.12l0.486 0.299 0.776-0.218c0.807-0.226 3.68-0.895 4.8-1.12l0.645-0.128 0.112 0.0931c0.0617 0.0512 0.116 0.22 0.12 0.375 4e-3 0.155 0.0319 0.369 0.0614 0.476l0.0537 0.194 0.615 0.0776 0.0916 1.28c0.239 3.35 0.359 4.52 0.469 4.56 0.139 0.0532 1.35-0.187 1.45-0.288 0.0832-0.0832-0.313-4.84-0.42-5.05-0.0337-0.0645-0.134-0.183-0.224-0.264-0.197-0.178-0.202-0.288-0.0307-0.612 0.0725-0.137 0.151-0.406 0.175-0.598l0.0429-0.349 1.32-0.155 0.0252-0.132c0.041-0.215-0.127-0.443-0.434-0.59l-0.288-0.137 8e-3 -0.282c8e-3 -0.276 1.24-2.84 2.18-4.53 0.424-0.763 0.953-1.79 0.953-1.86 0-0.114-0.284-8e-3 -0.756 0.282-0.89 0.547-4.27 2.18-5.58 2.7-3.72 1.47-4.73 1.51-5.13 0.195l-0.141-0.458 2e-3 -1.51c3e-3 -2.74 1.19-9.21 2.09-11.4 0.325-0.777 0.0377-0.681-0.717 0.241-2.38 2.91-7.03 7.81-9.57 10.1-3.3 2.96-5.41 4.33-6.92 4.51l-0.369 0.0437-0.422-0.207c-1.19-0.582-3.02-3.47-4.16-6.57-0.568-1.54-0.587-1.55-0.999-0.388-1.09 3.08-2.82 6.34-3.62 6.85-1.05 0.661-2.56-0.837-10.8-10.7-0.264-0.317-0.654-0.806-0.868-1.09-1.23-1.62-1.31-1.62-0.812-0.0328 1.21 3.86 2.22 8.94 2.3 11.7l0.0429 1.36-0.129 0.62c-0.244 1.18-0.544 1.52-1.34 1.51-1.22-2e-3 -3.72-0.994-6.27-2.49-0.619-0.362-1.13-0.611-1.19-0.585l-0.116 0.0446 0.116 0.176c1.03 1.56 2.06 4.15 2.13 5.3 0.0456 0.759-0.0408 0.965-0.604 1.44l-0.393 0.331 0.0231 0.198c0.0357 0.306 0.195 0.28 1.37-0.219 2.62-1.12 4.97-1.72 6.96-1.78l1.24-0.0374 0.697 0.131c1.92 0.361 3.18 1.26 4.03 2.87 0.178 0.337 0.419 0.792 0.535 1.01 1.12 2.09 0.579 5.37-1.23 7.53-0.6 0.716-0.641 0.568 0.4 1.43 1.01 0.839 1.09 0.858 1.2 0.304zm43.4-2.43v-0.388l-0.168-0.0239c-0.209-0.0297-0.288 0.18-0.215 0.568l0.0524 0.279 0.331-0.0472zm3.77-2.6c0.515-2.39 1.08-4.77 1.7-7.18 0.884-3.41 0.892-3.45 0.803-3.54-0.11-0.11-5.84-1.01-6.43-1.01h-0.177l-0.0526 1.3c-0.0598 1.48 0.0958 11.8 0.179 11.9 0.0614 0.0675 2.24 0.197 3.07 0.182l0.542-9e-3zm-19.8-1.03c-0.112-0.993-0.301-2.7-0.35-3.16-0.0648-0.611-0.181-0.67-0.446-0.226-0.111 0.185-0.439 0.738-0.73 1.23-0.635 1.07-0.535 1.04-1.81 0.519-1.23-0.508-1.69-0.625-2.48-0.631-1.18-9e-3 -0.937 0.169 0.771 0.57 2.16 0.508 3.6 1.08 4.48 1.79 0.214 0.17 0.437 0.312 0.496 0.314l0.108 4e-3zm-46 37.3c0-0.0316 0.329-0.673 0.731-1.42 0.402-0.752 0.847-1.6 0.99-1.88 0.268-0.534 0.731-1.06 4.03-4.6 0.838-0.899 1.64-1.74 1.78-1.87l0.252-0.233-0.094 0.181c-0.0517 0.0997-1.1 1.69-2.33 3.53l-2.24 3.35-1.56 1.5c-0.859 0.826-1.56 1.48-1.56 1.44zm54.9-0.95c-0.131-0.116-0.953-0.831-1.83-1.59l-1.59-1.38-1.2-1.84c-2.49-3.84-3.32-5.11-3.41-5.3l-0.102-0.194 0.177 0.155c0.17 0.149 2.75 2.98 4.71 5.16 0.516 0.576 1.08 1.28 1.25 1.55 0.171 0.278 0.676 1.08 1.12 1.79 0.949 1.5 1.17 1.86 1.14 1.86-0.0142-1e-3 -0.133-0.0973-0.264-0.214zm-37.9-1.31c0.0266-0.0692 0.308-1.08 0.625-2.25l0.576-2.12 1.25-2.59c0.688-1.42 1.28-2.62 1.33-2.66 0.198-0.198-1.58 5.26-2.01 6.17-0.918 1.95-1.72 3.57-1.76 3.57-0.0287 0-0.0305-0.0566-4e-3 -0.126zm22.4-1.44-0.778-1.34-0.51-1.75c-0.757-2.59-1.15-4.05-1.12-4.08 0.0382-0.0382 0.221 0.366 1.46 3.22l0.924 2.13 0.432 1.55c0.238 0.85 0.417 1.56 0.399 1.58-0.0183 0.0183-0.384-0.57-0.812-1.31zm-18.9-1.18c0-0.553 1.09-4.49 1.21-4.37 0.0343 0.0343-0.132 0.861-0.402 2-0.265 1.12-0.809 2.71-0.809 2.37zm-28.7-1.61c-0.19-0.31-0.722-1.15-1.18-1.87-0.461-0.717-0.837-1.33-0.837-1.37 0-0.122 8.54-5.68 8.73-5.68 0.12 0-2.19 3.54-4.66 7.14-1.88 2.74-1.6 2.5-2.05 1.77zm2.62-3.51c1.99-2.8 2.32-3.24 2.79-3.83 0.678-0.835 0.429-0.737-1.32 0.52-0.632 0.453-1.98 1.41-2.99 2.13-1.01 0.716-1.94 1.38-2.07 1.48l-0.232 0.181 0.0909 0.2c0.108 0.238 1.23 1.98 1.41 2.18l0.125 0.144 0.214-0.261c0.117-0.144 1.01-1.38 1.98-2.75zm51.7 1.5c-0.331-0.479-0.836-1.52-1.2-2.46l-0.0712-0.186 0.114 0.0943c0.282 0.234 1.64 2.87 1.58 3.06-0.0128 0.0384-0.204-0.191-0.424-0.51zm13.7-4.39c-0.909-1.31-2.16-3.22-3.22-4.91-0.361-0.576-0.755-1.2-0.875-1.38-0.333-0.503-0.23-0.478 1.1 0.258 2.52 1.4 6.44 3.93 6.34 4.1-0.127 0.219-2.43 3.16-2.47 3.16-0.013 0-0.405-0.55-0.872-1.22zm1.66-0.427c0.292-0.352 0.66-0.803 0.817-1l0.286-0.361-0.0923-0.115c-0.266-0.331-5.96-4.04-6.06-3.94-0.082 0.082-0.078 0.0886 0.457 0.743 0.297 0.364 1.05 1.4 2.21 3.03 1.17 1.65 1.66 2.29 1.75 2.29 0.0544 0 0.338-0.288 0.63-0.64zm-81.7-8.82c0.278-0.292 3.03-1.76 3.94-2.1 1.29-0.481 2.54-0.893 2.58-0.85 0.031 0.031-2.3 1.35-2.95 1.67-0.685 0.337-3.71 1.41-3.57 1.27zm1.9-3.15c0-0.0677 0.955-0.346 1.62-0.472 0.314-0.0594 0.541-0.0799 0.505-0.0454-0.192 0.182-2.12 0.652-2.12 0.517zm90.1-8.05c-0.128-0.0354-0.437-0.105-0.686-0.155-0.249-0.0499-0.436-0.107-0.417-0.127 0.0671-0.0671 1.8 0.121 2.15 0.233l0.349 0.112-0.582 6.7e-4c-0.32 3.7e-4 -0.687-0.0283-0.815-0.0637zm1.44-1.37c-0.107-0.0129-0.578-0.0492-1.05-0.0806l-0.854-0.0571 0.466-0.0567c1.41-0.172 3.69-0.168 3.69 6e-3 0 0.144-1.55 0.273-2.25 0.188zm-78.4-13.5c-1.36-0.827-3.35-2.08-5.04-3.16l-1.08-0.693-1.7-1.58c-0.933-0.871-1.68-1.6-1.67-1.61 0.0941-0.0941 4.27 2.54 5.27 3.32 3.26 2.56 5.65 4.51 5.49 4.49-0.0173-2e-3 -0.59-0.344-1.27-0.761zm-2.95-0.0238c-0.882-0.445-2.01-1.15-1.95-1.21 0.105-0.105 2.92 1.48 2.92 1.65 0 0.0562 0.0657 0.0858-0.971-0.437zm73.2-3.72c1.33-0.897 3.9-2.16 5.51-2.72l0.427-0.147-0.183 0.142c-1.04 0.804-2.73 1.66-4.97 2.5-0.835 0.315-0.984 0.357-0.785 0.223zm-3.11-0.401c0.0618-0.0657 2.18-1.8 3.46-2.83 1.04-0.842 5.97-4.07 6.06-3.97 0.0312 0.0312-2.31 1.99-3.81 3.18-0.875 0.698-2.21 1.58-4.46 2.95-0.85 0.518-1.36 0.792-1.24 0.662zm-62.5-2.41c-2.82-1.92-4.81-3.44-6.65-5.09-1.32-1.18-1.69-1.54-1.41-1.37 0.909 0.543 3.58 2.41 4.26 2.98 2.08 1.73 4.54 3.89 4.43 3.89-0.0214-7.6e-4 -0.301-0.18-0.621-0.397zm4.92-0.708c-2.78-2.33-5.85-5.15-5.85-5.39 0-0.137 0.609-3.47 0.903-4.94 0.0243-0.122 0.0728-0.192 0.108-0.155 0.0672 0.0697 2.38 4.39 3.92 7.33 0.504 0.961 1.19 2.27 1.53 2.9s0.597 1.17 0.58 1.19c-0.0173 0.0173-0.551-0.403-1.19-0.933zm0.282-0.355c0-0.0384-0.126-0.257-0.281-0.485-0.357-0.529-1.64-2.77-2.28-3.99-0.45-0.854-1.65-3.06-1.99-3.67-0.274-0.483-0.353-0.328-0.701 1.38l-0.325 1.59 0.106 0.165c0.0585 0.0906 0.833 0.841 1.72 1.67s2.05 1.93 2.59 2.45c0.883 0.867 1.16 1.08 1.16 0.884zm29-0.532c1e-3 -0.258 2.35-9.22 2.44-9.31 0.0528-0.0528 2.99 0.175 3.05 0.237 0.0341 0.0341-0.435 0.869-2.18 3.88-0.77 1.33-3.22 5.26-3.28 5.26-0.0167 0-0.0303-0.0262-0.0302-0.0582zm1.32-2.63c0.427-0.761 2-3.46 2.88-4.96 0.251-0.425 0.446-0.827 0.434-0.893l-0.023-0.121-1.78-0.125-0.127 0.157c-0.0699 0.0863-0.203 0.446-0.296 0.8-0.211 0.801-1.43 5.09-1.59 5.6-0.189 0.597 0.0145 0.411 0.503-0.459zm17.3 2.35c0.304-0.727 1.3-3.11 1.98-4.76 2.12-5.11 1.92-4.73 2.29-4.42 0.734 0.615 3.16 2.79 3.16 2.83 0 0.0278-0.235 0.256-0.522 0.506-0.287 0.251-1.49 1.31-2.66 2.36-2.63 2.34-4.23 3.73-4.3 3.73-0.0271 0-2e-3 -0.114 0.0562-0.252zm1.85-1.94c0.569-0.566 1.85-1.79 2.84-2.72 0.993-0.932 1.81-1.72 1.81-1.76 0-0.0607-1.38-1.3-2-1.79-0.41-0.326-0.364-0.375-0.977 1.05-1.53 3.55-1.86 4.28-2.29 5.14-0.709 1.41-0.715 1.41 0.625 0.0784zm-23.4 1.09c-1e-3 -0.177-0.0761-1.23-0.415-5.84l-0.188-2.56 0.105-1.44c0.0575-0.79 0.106-1.58 0.108-1.77 4e-3 -0.389 0.12-0.439 0.182-0.0776 0.0239 0.139 0.173 0.951 0.331 1.81l0.287 1.55-0.0902 3.22c-0.115 4.12-0.171 5.28-0.252 5.28-0.0361 0-0.0661-0.0786-0.0667-0.175zm-1.4-0.769c0-0.0636-0.0493-0.463-0.109-0.886-0.142-0.999-0.205-1.97-0.129-1.97 0.188 0 0.461 2.75 0.291 2.92-0.0288 0.0288-0.0524 3.1e-4 -0.0524-0.0633zm-10.8-1.71c-1.53-2.89-2.79-5.29-3.7-7.04l-1.02-1.97-0.547-1.74c-0.301-0.954-0.534-1.77-0.518-1.82 0.016-0.048 0.491 0.598 1.06 1.44l1.03 1.52 0.499 1.19c1.35 3.2 3.79 9.3 3.74 9.35-0.0155 0.0155-0.256-0.4-0.533-0.924zm0.845-2.99c-0.671-1.73-1.36-3.99-1.28-4.22 0.0417-0.125 0.992 2.08 1.18 2.73 0.605 2.12 0.909 3.27 0.883 3.35-0.0157 0.0472-0.369-0.789-0.784-1.86z" fill="#060706"/></svg>
