<svg width="210mm" height="297mm" version="1.1" viewBox="0 0 210 297" xmlns="http://www.w3.org/2000/svg"><path d="m113 216c-0.0816-0.0944-0.681-1.17-1.33-2.4-1.41-2.65-1.15-2.3-2.31-3.03-0.526-0.327-1.01-0.663-1.08-0.746l-0.125-0.151 0.232-2.79-0.6-0.898c-0.33-0.494-0.966-1.41-1.41-2.03l-0.813-1.14h-0.512c-0.282 0-0.773 0.0272-1.09 0.0605l-0.579 0.0605-1.05 1.77h-0.387l-0.0578-1.11-0.91 0.116-0.339 0.312c-0.186 0.172-0.709 0.589-1.16 0.927-0.452 0.338-1.09 0.835-1.42 1.1-0.329 0.268-1.15 0.879-1.82 1.36l-1.22 0.871 0.0563 0.508c0.0309 0.279 0.0823 0.736 0.114 1.02l0.058 0.508-1.31 1.16c-1.91 1.69-2.04 1.64-0.788-0.339 0.956-1.51 0.913-1.33 0.484-2.03-0.446-0.734-0.466-0.67 0.528-1.68l0.867-0.884 0.584-1.22c0.758-1.59 0.799-1.47-0.538-1.59l-0.671-0.0623-1.16 0.655c-1.89 1.07-3.83 2.23-4.43 2.65-0.308 0.217-0.626 0.394-0.705 0.394-0.251 0-0.911 0.383-2.52 1.47-0.861 0.577-1.61 1.05-1.67 1.05-0.185 0-0.11-0.269 0.125-0.451 0.126-0.0976 1-0.83 1.94-1.63 0.943-0.798 1.87-1.54 2.05-1.66s0.519-0.396 0.74-0.629c0.221-0.233 0.888-0.888 1.48-1.46l1.08-1.03-0.146-0.0559c-0.0801-0.0307-0.605-0.0559-1.17-0.0559h-1.02l-1 0.538c-0.976 0.523-1.19 0.573-1.19 0.273v-0.146l-0.218 0.0643c-0.483 0.143-2.43 0.866-3.81 1.41l-1.46 0.58-1.78 1.52-1.52 0.786c-0.953 0.493-1.68 0.94-1.95 1.2-0.688 0.656-2.11 1.6-2.41 1.6-0.178 0-0.109-0.378 0.14-0.774 0.361-0.571 0.348-0.58-0.768-0.58h-1.01l-0.62 0.424c-0.341 0.233-0.767 0.457-0.947 0.496-0.18 0.0395-0.568 0.192-0.862 0.339-0.294 0.147-0.644 0.3-0.777 0.34-0.133 0.0399-1.3 0.524-2.6 1.08-4.32 1.84-3.88 1.38 1.58-1.66 0.692-0.384 1.41-0.727 1.6-0.763 0.212-0.0398 0.472-0.197 0.677-0.411 0.183-0.19 0.589-0.527 0.902-0.749l0.57-0.403 4.01-0.504 0.732-0.601c0.402-0.33 1.11-0.87 1.58-1.2 0.598-0.421 0.924-0.727 1.1-1.03l0.252-0.435 1.62-1.1c0.892-0.605 1.6-1.12 1.58-1.14-0.0221-0.0221-0.535 0.0666-1.14 0.197-0.604 0.13-1.13 0.216-1.17 0.191-0.122-0.0754-0.086-0.292 0.07-0.422 0.203-0.168 0.181-0.29-0.0532-0.29-0.109 0-0.323-0.0647-0.476-0.144-0.153-0.0791-0.578-0.172-0.944-0.206l-0.666-0.0619-0.865 0.248c-2.75 0.79-4.88 1.33-4.99 1.27-0.172-0.106 0.0396-0.248 1.35-0.906 3.49-1.75 0.529-1.18-6.23 1.2-5.73 2.01-10.1 3.24-10.4 2.91l-0.121-0.146 0.136-1.74h-0.203c-0.339 0-0.37-0.337-0.193-2.08 0.0922-0.905 0.183-1.84 0.202-2.08l0.0342-0.433-1.06-0.214c-0.585-0.117-2.09-0.395-3.34-0.616-3.16-0.56-3.19-0.568-3.19-0.744v-0.151l0.943 0.064c3.27 0.222 5.48 0.349 6.09 0.35l0.7 9.2e-4 0.0487-0.218c0.0268-0.12 0.139-1.02 0.248-2.01 0.245-2.19 0.811-6.89 1.07-8.85 0.227-1.73-0.0624-1.43 2.7-2.83 2.47-1.25 4.37-2.34 4.32-2.5-0.118-0.401-3.22-2.1-8.28-4.54-2.28-1.1-3.86-1.91-3.93-2.03l-0.132-0.201 0.335-1.21c0.184-0.663 0.335-1.21 0.336-1.22 4.83e-4 -7e-3 -0.35-0.242-0.778-0.523-1.03-0.674-1.01-0.611-0.58-1.98 4.47-14.3 18.6-25.6 38-30.4 3.01-0.744 2.9-1.04 1.61 4.12-0.967 3.85-0.987 3.95-0.804 3.95 0.0631 0 1.49-0.452 3.17-1.01 9.03-2.97 9.03-2.97 9.27-2.44l0.109 0.239-0.389 1.4 0.216 0.403-0.351 1.35c-0.193 0.743-0.563 2.13-0.822 3.09-0.43 1.59-1.49 5.59-2.23 8.44-0.163 0.624-0.819 3.09-1.46 5.49-2.7 10.1-3.14 11.8-3.05 11.9 0.0403 0.0403 0.491-0.0981 1-0.308l0.928-0.381 2.2-6.63c1.21-3.64 2.65-7.87 3.19-9.38 0.545-1.52 1.35-3.78 1.8-5.03 1.06-3.01 1.66-4.67 2.32-6.48 0.299-0.825 0.715-1.98 0.924-2.56 0.209-0.585 0.61-1.67 0.892-2.42l0.512-1.35 1.74-0.658c2.07-0.782 11.1-3.82 11.7-3.9l0.36-0.0575 0.331 0.506-0.061 0.508c-0.226 1.88-0.589 14.3-0.524 17.9l0.0303 1.69 0.129-0.58c1.12-5.02 2.66-11.4 2.87-11.9l0.129-0.309 1.29-0.505c3.04-1.19 7.11-2.66 10-3.62 0.991-0.327 1.68-0.0435 1.44 0.591-0.0644 0.168-0.176 6.47-0.114 6.41 0.0229-0.0231 0.174-0.369 0.335-0.768 0.162-0.399 0.422-1.03 0.579-1.4 0.157-0.372 0.661-1.58 1.12-2.69 0.459-1.11 0.896-2.14 0.972-2.28l0.138-0.266 2.93-1.17c3.19-1.27 4.32-1.7 8.83-3.37 3.79-1.4 3.72-1.42 3.24 0.695-0.489 2.15-0.986 4.59-0.942 4.63 0.0228 0.0228 1.26-0.261 2.75-0.63 2.78-0.69 6.97-1.67 7.62-1.79l0.368-0.0658 0.236 0.222c0.391 0.367 0.172 1.26-2.28 9.23-0.31 1.01-0.942 3.08-1.4 4.6-1.5 4.92-2.24 7.35-3.08 10.1-1.56 5.1-2.89 9.48-3.1 10.2l-0.211 0.724-0.287 0.147c-0.158 0.0809-0.302 0.154-0.32 0.163-0.0179 9e-3 0.142 0.237 0.356 0.507 3.25 4.12-0.0502 11.8-5.4 12.6l-0.771 0.112-0.701-0.119c-0.849-0.144-1.94-0.641-2.48-1.13-0.509-0.46-0.456-0.56-0.83 1.55-0.339 1.91-0.404 2.07-0.952 2.28-1.67 0.665-5.04 2.1-8.11 3.46-4.27 1.89-4.12 1.83-4.43 1.58l-0.23-0.186 0.117-0.763c0.0646-0.419 0.143-0.859 0.174-0.976l0.0565-0.213-0.286 0.108c-0.157 0.0594-0.363 0.0784-0.458 0.0422l-0.171-0.0658 0.0646-0.41c0.0355-0.225 0.434-2.22 0.885-4.42 0.451-2.21 0.842-4.12 0.868-4.26l0.0477-0.242-0.152 0.193c-0.0838 0.106-0.568 0.858-1.08 1.67-1.31 2.09-1.91 2.33-2.1 0.844-0.165-1.28-0.487-2.95-0.55-2.83-0.116 0.208-1.64 9.58-1.64 10.1 0 0.0958-0.108 0.316-0.24 0.488l-0.24 0.314 0.151 0.0578c0.0829 0.0318 0.294 0.0578 0.469 0.0578h0.318l0.947-1.89c1.31-2.6 1.36-2.6 0.878 0.0252-0.185 0.999-0.365 2-0.4 2.23l-0.0649 0.418 0.503-0.255c0.277-0.14 0.562-0.232 0.635-0.204l0.132 0.0507-0.141 0.464c-0.0774 0.255-0.141 0.475-0.142 0.488-5.8e-4 0.0133 0.0663 0.0242 0.149 0.0242 0.0823 0 0.246 0.103 0.363 0.228 0.419 0.449 0.758 0.387 3.6-0.665 5.11-1.89 5.43-1.96 3.94-0.855-0.412 0.307-0.936 0.707-1.16 0.89l-0.414 0.332 0.305 0.337-0.46 0.394c-0.319 0.273-0.417 0.407-0.319 0.438 0.149 0.047 4.25 0.651 5.77 0.85l0.893 0.117 0.607-0.112c0.334-0.0617 1.15-0.266 1.81-0.453l1.21-0.341 2.13 0.278 1.74-0.183c5.45-0.574 9-0.791 8.92-0.546-0.0425 0.128-0.186 0.156-2.49 0.5-0.931 0.139-3.02 0.472-4.64 0.739l-2.95 0.487-2.32 0.0408-0.949 0.557 0.191 0.0706c0.105 0.0388 0.493 0.102 0.861 0.141l0.67 0.0706 0.919 0.458c0.505 0.252 1.32 0.616 1.8 0.81l0.883 0.352h1.86l0.197 0.197c0.108 0.108 0.403 0.236 0.655 0.284 0.463 0.0879 2.19 0.476 3.26 0.732 0.319 0.0765 2.06 0.489 3.87 0.916 3.34 0.788 3.82 0.924 3.82 1.08 0 0.156-0.453 0.0913-6.9-0.981l-6.41-1.07-1.06 0.119-0.774-0.309c-0.426-0.17-1.3-0.504-1.93-0.742l-1.16-0.433-1.02-0.0849c-2.54-0.213-5.32-0.394-6.91-0.45l-1.73-0.0617 0.0644 0.104c0.0354 0.0573 0.38 0.225 0.765 0.372 0.992 0.38 1.16 0.544 0.732 0.703l-0.211 0.0779 1.44 0.717c2.75 1.37 2.21 1.29-5.89-0.824l-2.01-0.526-0.0532 0.139c-0.0729 0.19-0.649 0.178-1.3-0.0282-0.596-0.189-2.53-0.232-2.83-0.0627l-0.176 0.0997 0.66 0.252c0.363 0.139 1.23 0.475 1.92 0.748 0.692 0.272 1.58 0.559 1.98 0.637 1.19 0.233 2.7 0.69 5.56 1.68 1.49 0.518 3.08 1.06 3.53 1.21 1.02 0.334 1.4 0.522 1.29 0.635-0.0501 0.0501-1.83-0.317-4.27-0.879-4.93-1.14-4.32-1.08-4.85-0.461-1.07 1.24-2.02 2.44-1.98 2.51 0.0251 0.0406 0.447 0.352 0.938 0.693l0.893 0.619 2.18 0.554c2.2 0.56 2.69 0.756 2.97 1.18 0.0849 0.13 0.303 0.298 0.485 0.374 1.01 0.422 4.09 2.66 3.66 2.66-0.122 0-5.36-2.4-5.54-2.53-0.0621-0.0483-1.08-0.284-2.27-0.524-1.19-0.24-2.2-0.473-2.26-0.517-0.141-0.115-3.14-1.74-4.09-2.22-1.06-0.532-1.06-0.491-0.0906-1.93 0.454-0.674 0.806-1.26 0.782-1.3-0.0242-0.0391-1.23-0.458-2.68-0.93l-2.63-0.859-1.74-0.13 0.152 0.124c0.0834 0.0684 0.636 0.49 1.23 0.936 1.8 1.36 1.7 1.37-1.81 0.165-1.46-0.5-3.03-1.02-3.48-1.15l-0.822-0.242-0.677 0.102c-0.372 0.0564-0.691 0.113-0.708 0.125-0.0711 0.0533 0.576 1.2 0.928 1.65 0.21 0.266 0.442 0.595 0.516 0.733 0.074 0.138 0.461 0.512 0.86 0.831 0.915 0.733 2.26 2.1 2.21 2.24-0.0212 0.0636-0.646-0.242-1.49-0.728-0.798-0.461-1.56-0.891-1.69-0.956-1.29-0.629-1.73-0.88-1.93-1.11-0.133-0.145-1.01-0.661-1.96-1.15l-1.71-0.883-0.187 0.237c-0.226 0.288-0.486 0.302-0.814 0.0439-0.234-0.184-0.844-0.273-0.844-0.122 0 0.0393 0.29 0.799 0.645 1.69l0.645 1.62-0.116 0.14c-0.0783 0.0944-0.233 0.125-0.475 0.0941-0.521-0.0668-0.637 0.089-0.837 1.12l-0.176 0.909 1.28 1.25 0.0991 0.4c0.118 0.478 0.653 2.34 1.17 4.07 0.36 1.21 0.382 1.6 0.0688 1.24zm-24.6-16.9c0.47-0.166 0.973-0.323 1.12-0.349l0.265-0.0485 0.688 0.604 0.262-0.0616c0.377-0.0888 0.364-0.062 0.746-1.47 0.41-1.52 0.426-1.47-0.41-1.12-2.9 1.22-5.29 2.37-4.9 2.37 0.106 0 0.43 0.0855 0.721 0.19 0.662 0.238 0.513 0.248 1.51-0.104zm20.7-0.435c1.83-0.652 3.48-1.6 3.23-1.85-0.03-0.03-0.722 0.191-1.54 0.492-1.66 0.613-1.71 0.621-1.95 0.356l-0.172-0.19 0.109-0.733c0.141-0.949 0.145-0.918-0.114-0.918-0.473 0-0.546-0.285-0.307-1.2 0.298-1.14 1.52-11.7 1.38-11.8-0.116-0.116-1.12 0.461-1.17 0.675-0.293 1.17-2.35 11.8-2.53 13.2-0.0649 0.461-0.304 0.824-0.626 0.952l-0.14 0.0555 0.199 0.176c0.109 0.0971 0.25 0.296 0.312 0.442l0.113 0.266h0.949l0.26-0.34c0.293-0.384 0.396-0.371 0.491 0.0611 0.153 0.697 0.475 0.785 1.52 0.414zm-30.3-0.643c0.11-0.148 0.544-1.97 0.498-2.09-0.0293-0.0789-2.12 1.76-2.19 1.92-0.0938 0.237 1.52 0.405 1.69 0.176zm5.11-26.1c0.0355-0.172 0.454-2.01 0.93-4.08s0.845-3.78 0.82-3.81c-0.345-0.345-8.4 3.63-8.25 4.07 0.016 0.0481 0.68 0.42 1.48 0.827 2.07 1.06 3.55 2.07 4.49 3.04 0.374 0.392 0.451 0.383 0.542-0.0591zm34.7 41.1c-0.32-0.241-0.719-0.565-0.886-0.721l-0.303-0.283 0.0659-0.367c0.0947-0.528 0.224-0.634 1.38-1.13 1.28-0.552 1.18-0.556 2.31 0.0909 1.58 0.9 2.06 1.88 1.1 2.26-0.221 0.0885-2.78 0.591-3.01 0.591-0.0444 0-0.343-0.197-0.663-0.438zm6.39-4.16c-1.05-0.71-0.801-1.24 0.325-0.676 0.909 0.453 1.18 1.02 0.497 1.02-0.204 0-0.5-0.122-0.822-0.339zm21.9-0.187c-1.65-0.608-2.07-1.35-0.669-1.18 0.528 0.0625 1.81 0.674 1.9 0.905 0.141 0.367-0.56 0.526-1.23 0.279zm-55.9-0.887c0-0.201 0.612-0.813 0.813-0.813 0.269 0 0.169 0.354-0.187 0.667-0.374 0.328-0.625 0.387-0.625 0.145zm22.8-1.08c-0.136-0.146-0.301-0.369-0.366-0.494l-0.118-0.228 0.212-0.212 0.387 0.378c0.229 0.224 0.387 0.468 0.387 0.6 0 0.298-0.2 0.28-0.502-0.0438zm-47 0.0532c-0.312-0.312-0.045-0.608 1.03-1.14 0.69-0.342 0.775-0.349 1.27-0.0937 0.593 0.303 0.443 0.633-0.509 1.12l-0.456 0.233h-0.613c-0.348 0-0.663-0.0502-0.729-0.116zm-2.63-1.9c0-0.149 0.247-0.298 0.823-0.496l0.56-0.193 0.264 0.219-0.104 0.125c-0.229 0.276-1.54 0.569-1.54 0.345zm-11.9-0.22c-0.246-0.398 2.44-1.2 2.76-0.818l0.112 0.135-0.163 0.163c-0.245 0.245-0.573 0.347-1.58 0.494-1.12 0.162-1.04 0.16-1.12 0.0255zm22.7-0.481c-0.101-0.163 0.255-0.426 0.838-0.62 0.755-0.251 0.81 0.111 0.0655 0.433-0.64 0.277-0.824 0.315-0.903 0.187zm66-7.86-0.193-0.145 0.106-0.175c0.158-0.26 1.25-0.625 1.78-0.591l0.439 0.0286 0.0624 0.44-0.515 0.231c-0.283 0.127-0.733 0.259-0.999 0.293l-0.484 0.062zm-86.5-2.88-0.271-0.099 0.0592-0.409 0.7-0.165 0.351 0.147c0.825 0.345 0.0296 0.843-0.839 0.526zm90-0.0144-0.339-0.118 0.0328-0.673 0.344-0.298c0.74-0.642 1.95-0.959 2.28-0.599 0.501 0.538 0.389 0.828-0.541 1.4l-0.668 0.411-0.387-3e-3c-0.213-2e-3 -0.539-0.0558-0.726-0.12zm7.89-1.51c-1.56-0.929-1.5-1.59 0.232-2.66 0.453-0.282 1.06-0.671 1.36-0.866 0.769-0.512 0.816-0.513 2.38-0.0468l1.41 0.42 0.423 0.519c0.233 0.286 0.423 0.572 0.423 0.637 0 0.293-1.33 1.77-1.66 1.85-0.386 0.0923-3.49 0.727-3.55 0.726-0.0322-4.5e-4 -0.491-0.259-1.02-0.574zm-101-0.207-0.773-0.27-0.412-0.436c-0.698-0.739-0.51-1.11 0.749-1.47 1.19-0.341 2.28-0.0974 3.11 0.694 1.17 1.12-0.72 2.16-2.67 1.48zm110-5.22c-0.408-0.238 9e-3 -0.573 0.712-0.573 0.699 0 1.04 0.384 0.515 0.583-0.321 0.122-1.01 0.116-1.23-0.0101zm-0.314-2.11c-0.583-0.155-1.06-0.442-1.06-0.635 0-0.11 0.161-0.301 0.387-0.459l0.387-0.271 2.55-0.528 0.271 0.202c0.149 0.111 0.312 0.316 0.362 0.455l0.0902 0.253-0.166 0.184c-0.492 0.543-2.08 0.995-2.82 0.8zm-105-0.677-0.384-0.0588-0.264-0.484 0.154-0.361c0.0845-0.198 0.261-0.431 0.391-0.517l0.238-0.156 0.321 0.106c0.929 0.306 1.29 0.997 0.715 1.35-0.331 0.205-0.487 0.22-1.17 0.115zm107-11c-0.51-0.398-0.505-0.381-0.301-0.892l0.151-0.377 0.479-0.261c0.687-0.374 1.25 0.0135 1.25 0.859v0.243l-0.492 0.389c-0.596 0.471-0.535 0.469-1.09 0.0377zm-105-21-1.37-0.691-0.468-0.481c-0.257-0.264-1-0.952-1.65-1.53-1.85-1.64-1.75-1.66 1.53-0.35 2.49 0.995 3.17 1.3 4.23 1.91l0.608 0.351-0.056 0.385-0.92 0.259 0.0572 0.228c0.0614 0.245-0.242 0.644-0.467 0.617-0.0665-8e-3 -0.738-0.326-1.49-0.706zm47.5-1.65c-0.0338-0.0882-0.0412-2.06-0.0165-4.39 0.0535-5.02 0.116-4.67-0.793-4.35l-0.319 0.111-0.261-0.356v-4.52c0-4.24 0.0318-4.82 0.252-4.6 0.0251 0.0251 0.173 1.15 0.33 2.5 0.339 2.93 0.492 4.07 0.538 4.03 0.0412-0.0412 0.184-2.4 0.38-6.26 0.287-5.68 0.363-6.43 0.612-6.02 0.0609 0.0986 0.262 3.34 0.562 9.07l0.0659 1.26 0.0815-0.29c0.0448-0.16 0.389-1.75 0.765-3.53 1.32-6.25 1.85-8.72 3.44-15.9 1.65-7.42 1.63-7.36 1.78-7.36 0.162 0 0.105 0.543-0.921 8.82-1.24 9.97-1.46 11.8-1.65 13.4-0.0814 0.718-0.369 3.03-0.639 5.13l-0.491 3.82-0.285 0.703c-0.465 1.15-1.54 4.13-2.74 7.61-0.388 1.12-0.569 1.4-0.696 1.07zm-43.5-4.85c-0.987-0.444-0.961-0.415-1.82-2.02-1.56-2.92-1.42-3.47 0.63-2.49l1.19 0.571 0.899 1.5c0.495 0.823 0.923 1.59 0.952 1.7l0.0533 0.204-0.409 0.443c-0.49 0.531-0.514 0.533-1.5 0.091zm7.82-3.83c-1.62-1.63-2.06-2.12-2.06-2.29 0-0.222 0.186-0.103 1.69 1.08 2.73 2.15 2.79 2.22 2.35 2.53-0.373 0.261-0.489 0.184-1.98-1.32zm30.4 1.33c-0.0803-0.0803-0.285-0.57-0.455-1.09l-0.309-0.942 0.503-1.69c0.719-2.42 0.914-2.79 1.25-2.38 0.124 0.149 0.176 0.408 0.65 3.2l0.344 2.03-0.0964 0.212c-0.183 0.401-1.64 0.918-1.89 0.671zm-23.9-0.587c-0.172-0.0754-0.368-0.224-0.434-0.331-0.189-0.303-0.741-0.258-1.19 0.0983-0.38 0.302-0.433 0.304-1.05 0.0435-1.06-0.444-13.5-15.4-13.1-15.8 0.144-0.144 13 12.7 14.2 14.1 0.826 1.03 0.907 1.1 0.907 0.761 0-0.409 0.24-0.29 0.815 0.402 0.724 0.872 0.69 1.1-0.113 0.745zm3.96-0.939c-0.171-0.206-4.89-12.9-5.94-16-0.472-1.38-0.54-1.83-0.228-1.49 0.0713 0.0766 1.38 2.49 2.91 5.36 4.33 8.14 4.42 8.27 4.08 6.81-0.31-1.34-0.305-2.11 0.0097-1.7 0.163 0.21 2.64 5.63 2.64 5.78 0 0.33-3.25 1.49-3.47 1.23zm54-0.554c0-0.173 0.357-1.07 2.21-5.56 0.745-1.81 0.921-1.7 0.589 0.36-0.11 0.683-0.186 1.29-0.168 1.34 0.0353 0.106 1.58-2.04 4.82-6.68 3.75-5.38 3.48-4.43-1.16 4.06-3.22 5.9-2.96 5.56-4.67 6.18-1.5 0.551-1.61 0.57-1.61 0.295zm-5.12-0.131-0.222-0.236 0.134-1.25 0.427-0.544c0.61-0.777 1-0.682 1.15 0.282l0.0623 0.39-0.517 0.771c-0.574 0.855-0.713 0.934-1.04 0.589zm-18.1-0.906c-0.067-0.174 0.296-1.68 1.44-5.97 1.74-6.51 1.64-6.2 1.83-6.09 0.11 0.0681 0.107 0.0962-0.309 3.04-0.893 6.32-1.23 8.44-1.38 8.58-0.0952 0.0943-1.35 0.611-1.48 0.611-0.0219 0-0.0689-0.0757-0.104-0.168zm36.2-2.5c0-0.768 11.3-15.2 13.2-16.9 0.849-0.748-0.297 1.21-2.82 4.83-2.07 2.97-4.32 5.74-7.88 9.72-2.29 2.56-2.53 2.78-2.53 2.36zm-61.6-0.293c-0.114-0.218-0.427-3.88-0.685-8.01-0.0839-1.34-0.0624-1.6 0.136-1.6 0.147 0 0.1-0.206 0.724 3.19 0.269 1.46 0.594 3.23 0.724 3.92 0.129 0.692 0.264 1.49 0.299 1.77l0.0641 0.508-0.332 0.139c-0.183 0.0763-0.446 0.167-0.585 0.202l-0.253 0.0634zm5.91-0.371c-0.114-0.0798-0.297-0.29-0.407-0.468l-0.2-0.323 0.168-0.514c0.0922-0.283 0.244-0.562 0.337-0.62l0.169-0.106 0.169 0.105c0.289 0.179 0.977 1.24 0.984 1.51l0.0072 0.264-0.285 0.148c-0.361 0.187-0.678 0.188-0.943 3e-3zm59.6-0.96c0-0.0759 0.599-0.704 1.33-1.39 4.42-4.17 4.89-4.25 1.43-0.221l-0.774 0.899-0.907 0.428c-0.997 0.47-1.08 0.491-1.08 0.29zm-25-0.201-0.12-0.145 0.254-1.14c0.14-0.629 0.254-1.17 0.254-1.2 0-0.0305-0.305-0.236-0.677-0.458l-0.677-0.402v-0.255c0-0.508 1.07-4.22 1.3-4.52 0.867-1.12 7.43-7.69 7.69-7.69 0.214 0 0.0701 0.335-1.62 3.78-0.951 1.94-2.07 4.24-2.48 5.12-3.04 6.46-3.55 7.36-3.92 6.92zm-33.2-4.84c-0.0878-0.134-0.323-0.754-0.522-1.38l-0.362-1.13-0.553-0.214c-0.858-0.332-0.973-0.569-1.84-3.8-0.43-1.6-0.457-1.5 0.707-2.64l0.957-0.941h0.289c0.482 0 0.628 0.273 0.822 1.53 0.404 2.62 0.554 3.71 0.654 4.76 0.0578 0.612 0.167 1.71 0.242 2.45 0.167 1.63 0.0473 2.04-0.394 1.37z" fill="#a1a1a1"/><path d="m112 214c-0.207-0.398-0.716-1.35-1.13-2.13l-0.757-1.4-2.16-1.34 0.0648-1.12c0.0357-0.616 0.0884-1.26 0.117-1.42l0.0524-0.302-1.07-1.58c-0.589-0.871-1.27-1.83-1.51-2.14l-0.439-0.556h-0.371c-0.204 0-0.706 0.0283-1.12 0.0629l-0.745 0.063-0.319 0.493c-0.176 0.271-0.416 0.657-0.535 0.856-0.291 0.488-0.378 0.457-0.413-0.145l-0.0292-0.508-1.06 0.0656-0.339 0.316c-0.186 0.174-0.709 0.591-1.16 0.928-0.452 0.337-1.06 0.813-1.35 1.06-0.293 0.245-0.725 0.569-0.96 0.721-0.235 0.151-0.856 0.598-1.38 0.993l-0.951 0.718 0.0036 0.261c2e-3 0.144 0.0658 0.566 0.142 0.938l0.138 0.677-0.747 0.711c-1.84 1.75-1.97 1.78-0.94 0.169 0.844-1.32 0.821-1.21 0.387-1.93-0.441-0.732-0.465-0.655 0.494-1.59l0.833-0.812 0.619-1.3c0.833-1.74 0.86-1.63-0.419-1.8l-0.875-0.116-1.29 0.714c-1.83 1.01-4.13 2.38-4.54 2.71-0.196 0.155-0.427 0.282-0.515 0.282-0.239 0-0.866 0.343-1.94 1.06-1.93 1.29-1.87 1.16 0.314-0.616 2.02-1.65 5.18-4.62 5.05-4.74-0.0476-0.048-0.625-0.108-1.28-0.133l-1.2-0.0461-0.92 0.496c-1.02 0.548-1.05 0.559-1.05 0.351 0-0.297-0.824-0.0455-4.19 1.28l-1.63 0.641-1.78 1.52-1.48 0.771c-0.945 0.49-1.68 0.948-2.03 1.26-0.504 0.451-1.5 1.16-2.02 1.43-0.298 0.158-0.278 0.0164 0.0796-0.565 0.4-0.65 0.358-0.681-0.924-0.681h-1.1l-0.66 0.442c-0.363 0.243-0.791 0.466-0.951 0.495-0.16 0.0291-0.465 0.151-0.678 0.27-0.213 0.119-0.561 0.273-0.774 0.341-0.213 0.0682-1.13 0.438-2.03 0.822-2.98 1.26-2.84 1.12 0.967-1.02 0.638-0.358 1.33-0.682 1.54-0.721 0.26-0.0482 0.491-0.187 0.726-0.436 0.189-0.201 0.584-0.54 0.877-0.754l0.532-0.388 4.01-0.497 0.897-0.715c0.494-0.393 1.18-0.914 1.53-1.16 0.706-0.497 0.974-0.764 1.19-1.18 0.098-0.192 0.713-0.67 1.87-1.45 2.24-1.52 2.27-1.63 0.283-1.17-1.1 0.255-1.23 0.237-0.879-0.128 0.334-0.349 0.318-0.395-0.142-0.395-0.215 0-0.511-0.0618-0.657-0.137-0.146-0.0755-0.568-0.167-0.938-0.203l-0.673-0.0658-1.35 0.389c-2.2 0.63-3.64 1-3.7 0.949-0.0271-0.0271 0.445-0.297 1.05-0.6 0.604-0.303 1.16-0.632 1.23-0.732 0.0698-0.0996 0.26-0.25 0.422-0.334 0.454-0.235 0.2-0.331-0.501-0.191-2.26 0.453-4.04 0.976-7.52 2.21-2.51 0.892-8.94 2.91-10.2 3.2-0.302 0.0693-0.596-0.162-0.523-0.41 0.0257-0.0875 0.0758-0.469 0.111-0.847l0.0644-0.688-0.616-0.215 0.0554-0.414c0.0305-0.228 0.121-1.09 0.202-1.91 0.0804-0.825 0.171-1.62 0.2-1.76l0.054-0.265-0.225-0.0969c-0.297-0.128-1.99-0.486-2.29-0.486-0.389 0-3.94-0.705-3.8-0.753 0.0726-0.0243 1.34 0.0323 2.81 0.126 1.48 0.0936 2.88 0.14 3.13 0.103l0.447-0.067 0.0515-0.309c0.0283-0.17 0.163-1.31 0.3-2.53s0.396-3.42 0.575-4.89c0.179-1.46 0.376-3.07 0.436-3.58 0.0605-0.505 0.154-1.03 0.207-1.16l0.0972-0.242 2.19-1.09c2.44-1.21 4.5-2.41 4.54-2.65 0.0755-0.406-2.75-2-8.35-4.7-2.02-0.977-3.76-1.85-3.85-1.95l-0.175-0.175 0.687-2.38-0.112-0.135c-0.0618-0.0745-0.399-0.321-0.748-0.548-0.35-0.227-0.691-0.48-0.759-0.563l-0.124-0.151 0.526-1.58c4.66-14 18.6-25 37.7-29.7 1.88-0.466 2.23-0.493 2.35-0.183 0.0443 0.123-0.278 1.59-0.881 4.01-0.523 2.1-0.953 3.92-0.954 4.04l-0.0032 0.218h0.199c0.11 0 1.8-0.526 3.75-1.17 8.34-2.74 8.44-2.77 8.63-2.41l0.105 0.196-0.401 1.43 0.203 0.455-0.633 2.37c-0.706 2.64-1.61 6.06-2.75 10.4-0.418 1.6-1.29 4.86-1.93 7.26-0.642 2.39-1.48 5.55-1.86 7.01-0.38 1.46-0.727 2.8-0.77 2.96-0.0434 0.166-0.0474 0.353-9e-3 0.415l0.0698 0.113 1.02-0.393c1.31-0.504 1.18-0.303 2.16-3.34 1.76-5.46 3.62-10.9 5.32-15.6 0.547-1.52 1.31-3.65 1.69-4.74 0.955-2.71 1.57-4.42 1.97-5.51 0.187-0.505 0.541-1.48 0.787-2.18 0.63-1.78 1.03-2.79 1.15-2.92 0.292-0.314 12.9-4.61 13.4-4.56l0.245 0.0286-3e-3 0.532c-2e-3 0.293-0.0783 2.01-0.17 3.82-0.296 5.81-0.469 16.8-0.267 16.9 0.114 0.0705 0.156-0.0876 0.827-3.14 1.01-4.58 2.33-10 2.51-10.3 0.125-0.204 0.611-0.416 3.29-1.44 2.29-0.873 4.8-1.77 7-2.49l1.87-0.617 0.382 0.47-0.0558 0.345c-0.0307 0.19-0.076 1.67-0.101 3.29-0.0246 1.62-0.0712 3.08-0.104 3.25-0.0622 0.331 0.0672 0.511 0.223 0.31 0.0509-0.0659 0.801-1.83 1.67-3.91 0.866-2.09 1.62-3.84 1.68-3.89 0.0603-0.0498 0.327-0.176 0.593-0.281 0.266-0.105 1.48-0.592 2.71-1.08 2.01-0.808 7.32-2.82 10.2-3.88l1.14-0.414 0.295 0.295-0.433 1.97c-0.8 3.65-0.875 4.05-0.771 4.16 0.0667 0.0668 1.09-0.15 3.18-0.673 3.54-0.884 7.28-1.75 7.55-1.75 0.567 0 0.546 0.301-0.205 2.91-0.966 3.36-1.47 5.03-4.03 13.4-0.424 1.38-0.963 3.15-1.2 3.92-0.235 0.772-0.925 3.04-1.53 5.03-0.609 2-1.49 4.89-1.95 6.43-0.914 3.04-0.996 3.24-1.35 3.24-0.389 0-0.366 0.152 0.123 0.797 0.553 0.731 0.914 1.58 1.14 2.69l0.163 0.805-0.094 2.33-0.309 0.919c-1.07 3.18-3.71 5.49-6.49 5.68l-0.822 0.055-0.602-0.155c-0.792-0.204-1.61-0.626-2.17-1.12-0.637-0.562-0.551-0.708-0.953 1.61-0.377 2.17-0.333 2.05-0.807 2.25-0.221 0.095-1.45 0.611-2.72 1.15-1.28 0.535-3.76 1.61-5.51 2.39-1.76 0.779-3.38 1.49-3.6 1.57l-0.411 0.158-0.326-0.326 0.126-0.753c0.0693-0.414 0.148-0.872 0.174-1.02l0.048-0.266h-0.199c-0.109 0-0.226 0.0435-0.259 0.0967-0.0329 0.0532-0.144 0.0967-0.248 0.0967-0.227 0-0.232-0.121-0.0371-1.02 0.602-2.77 1.75-8.63 1.71-8.7-0.0804-0.132-0.308 0.187-1.49 2.09l-1.08 1.73-0.238 0.0596c-0.373 0.0935-0.482-0.12-0.649-1.27-0.253-1.74-0.487-2.88-0.6-2.92-0.177-0.059-1.05 4.95-1.84 10.6-0.0308 0.219-0.181 0.547-0.345 0.756-0.35 0.444-0.366 0.422 0.374 0.506l0.596 0.0674 0.232-0.374c0.128-0.206 0.504-0.929 0.837-1.61 0.555-1.13 0.864-1.56 0.74-1.02-0.076 0.332-0.51 2.77-0.586 3.29-0.0794 0.545-0.0389 0.558 0.649 0.209l0.494-0.25-0.0724 0.323c-0.0398 0.178-0.0947 0.421-0.122 0.541l-0.0494 0.218h0.236c0.13 0 0.339 0.109 0.463 0.242l0.227 0.242h0.368c0.349 0 2.01-0.549 5.39-1.79 1.85-0.678 1.93-0.652 0.731 0.254-0.529 0.401-1.02 0.8-1.09 0.888l-0.132 0.159 0.435 0.161-0.453 0.371c-0.249 0.204-0.418 0.403-0.376 0.443 0.0667 0.0626 3.75 0.637 6.24 0.973l0.84 0.113 0.611-0.115c0.336-0.0635 1.15-0.269 1.82-0.456l1.2-0.341 0.77 0.104c1.04 0.139 1.9 0.129 3.42-0.0409 1.23-0.137 3.62-0.354 5.35-0.485 1.14-0.0862 0.887 0.0785-0.435 0.285-0.585 0.0915-2.24 0.364-3.68 0.606l-2.61 0.44-2.42 0.0286-0.653 0.37c-0.928 0.526-0.912 0.547 0.556 0.744l0.871 0.117 0.73 0.366c0.402 0.201 1.16 0.551 1.69 0.776l0.96 0.41 2.01 0.02 0.144 0.217c0.0794 0.12 0.232 0.217 0.339 0.217 0.363 0 8.81 1.99 9.07 2.13 0.193 0.11 0.201 0.111-5.82-0.88l-5.19-0.855-1.05 0.108-1.01-0.393c-0.557-0.216-1.43-0.549-1.93-0.74l-0.919-0.348-1.16-0.0918c-3.42-0.27-5.31-0.392-6.97-0.448l-1.85-0.0627-0.0756 0.122c-0.0948 0.153 4e-3 0.217 0.941 0.603 0.747 0.308 0.932 0.465 0.548 0.465-0.476 0 0.921 0.87 2.38 1.48 0.0532 0.0223 0.0706 0.069 0.0387 0.104-0.0553 0.0602-2.12-0.443-6.66-1.63-2.24-0.584-2.45-0.619-2.37-0.394l0.0557 0.145h-0.285c-0.157 0-0.499-0.0652-0.76-0.145-0.954-0.291-3.29-0.22-3.4 0.102-0.0597 0.182 4.19 1.77 5.41 2.02 1.56 0.321 8.81 2.74 8.25 2.76-0.0532 1e-3 -1.03-0.216-2.18-0.483-1.14-0.267-2.68-0.618-3.42-0.781l-1.34-0.295-0.153 0.127c-0.253 0.21-2.54 2.98-2.54 3.07 0 0.0488 0.468 0.411 1.04 0.805l1.04 0.717 2.15 0.537c2.15 0.535 2.76 0.783 2.86 1.15 0.0232 0.0888 0.236 0.247 0.474 0.352 0.53 0.235 2.82 1.76 2.75 1.83-0.0503 0.0503-4.26-1.85-4.47-2.01-0.0592-0.047-1.06-0.275-2.23-0.506l-2.12-0.421-0.383-0.24c-0.211-0.132-1.31-0.732-2.44-1.33-1.13-0.601-2.08-1.14-2.12-1.19-0.032-0.0519 0.324-0.658 0.791-1.35 0.52-0.766 0.814-1.29 0.76-1.34-0.338-0.338-5.39-1.88-6.61-2.02-1.25-0.142-1.25-0.0668 0.0339 0.901 1.01 0.762 1.42 1.12 1.3 1.12-0.0245 0-0.998-0.329-2.16-0.732-2.5-0.863-4.29-1.43-4.49-1.42-0.68 0.0323-1.66 0.162-1.7 0.225-0.0686 0.111 0.703 1.46 1.13 1.98 0.199 0.241 0.389 0.522 0.421 0.623s0.328 0.401 0.658 0.666c0.33 0.264 0.904 0.793 1.28 1.18l0.677 0.695-0.338-0.17c-0.186-0.0934-0.803-0.446-1.37-0.784-0.569-0.338-1.09-0.614-1.16-0.614-0.197 0-1.4-0.73-1.65-0.999-0.121-0.132-1-0.638-1.96-1.12l-1.74-0.885-0.197 0.247c-0.237 0.297-0.422 0.31-0.748 0.0532-0.155-0.122-0.392-0.193-0.642-0.193h-0.396v0.149c0 0.0821 0.285 0.867 0.633 1.74 0.679 1.71 0.69 1.8 0.21 1.72l-0.315-0.0511-0.473 0.383-0.121 0.664c-0.0668 0.365-0.15 0.806-0.185 0.98l-0.064 0.316 1.37 1.27 0.0667 0.405c0.0367 0.223 0.166 0.731 0.288 1.13 1.05 3.45 1.14 3.96 0.492 2.71zm-23.6-15.4 0.917-0.332 0.297 0.283c0.311 0.297 0.362 0.315 0.83 0.286 0.419-0.0259 0.464-0.108 0.855-1.56 0.359-1.34 0.421-1.73 0.272-1.73-0.0872 0-2.38 0.999-4.85 2.11-1.65 0.744-1.76 0.837-1.12 0.934 0.244 0.0366 0.605 0.126 0.802 0.198 0.57 0.21 1.01 0.168 1.99-0.186zm20.7-0.479c1.6-0.628 2.86-1.28 2.96-1.54 0.0458-0.12 0.153-0.277 0.238-0.348 0.0854-0.0708 0.155-0.192 0.155-0.269v-0.14l-0.218 0.0661c-0.12 0.0364-0.914 0.324-1.76 0.639-0.851 0.315-1.63 0.56-1.74 0.545l-0.194-0.0279 4e-3 -0.387c2e-3 -0.213 0.039-0.659 0.0821-0.992l0.0782-0.605h-0.696l1e-3 -0.314c5.8e-4 -0.173 0.0634-0.52 0.14-0.771 0.151-0.499 0.714-4.82 1.02-7.81 0.105-1.04 0.235-2.3 0.288-2.81 0.16-1.52 0.151-1.54-0.552-1.16-0.199 0.106-0.432 0.193-0.52 0.193-0.234 0-0.334 0.176-0.465 0.822-0.0647 0.319-0.334 1.65-0.598 2.95-0.492 2.43-1.62 8.39-1.83 9.65l-0.115 0.701-0.223 0.169c-0.122 0.0932-0.304 0.218-0.402 0.277l-0.18 0.108 0.314 0.294c0.173 0.162 0.314 0.362 0.314 0.445 0 0.223 0.312 0.352 0.853 0.352h0.479l0.158-0.242c0.179-0.274 0.347-0.317 0.347-0.0893 0 0.723 0.711 0.824 2.07 0.294zm-30.8-0.407 0.288-0.0576 0.307-1.32c0.424-1.83 0.437-1.82-0.756-0.668-0.456 0.439-1.06 1.01-1.35 1.28l-0.52 0.479 0.183 0.0654c0.607 0.218 0.803 0.264 1.16 0.273 0.219 6e-3 0.529-0.0156 0.687-0.0473zm5.28-26c0.993-4.21 1.92-8.41 1.87-8.46-0.415-0.415-8.53 3.56-8.74 4.28-0.0171 0.0574 0.438 0.332 1.01 0.611 2.28 1.11 3.79 2.08 5.01 3.23 0.642 0.605 0.777 0.658 0.853 0.336zm34.5 40.4c-0.845-0.671-0.88-0.725-0.763-1.18l0.0842-0.325 1.05-0.461c1.29-0.565 1.18-0.566 2.25 0.0339 2.4 1.34 2.04 1.93-1.49 2.46l-0.393 0.0594zm6.8-3.86c-0.796-0.506-0.897-0.846-0.166-0.56 0.517 0.203 0.991 0.584 0.904 0.726-0.104 0.168-0.273 0.13-0.737-0.166zm21.1-0.596c-0.837-0.405-0.931-0.581-0.31-0.581 0.453 0 1.02 0.192 1.55 0.527 0.899 0.568-0.0857 0.61-1.24 0.0536zm-79.3-1.52c-0.279-0.0728-0.193-0.302 0.225-0.605 0.801-0.58 1.43-0.697 1.88-0.349l0.193 0.149-0.241 0.204c-0.624 0.528-1.43 0.763-2.06 0.6zm-14.1-2.33c0.156-0.154 1.32-0.508 1.66-0.508 0.409 0 0.411 0.165 0.0036 0.335-0.393 0.164-1.81 0.31-1.67 0.172zm88.2-8.24c-0.0853-0.138 0.142-0.267 0.855-0.486 0.624-0.192 1.02-0.197 1.02-0.0138 0 0.312-1.71 0.768-1.88 0.5zm3.72-2.85-0.435-0.113 0.0208-0.289c0.0558-0.777 2.06-1.52 2.44-0.906 0.247 0.405 0.195 0.491-0.558 0.936-0.812 0.48-0.934 0.51-1.47 0.372zm-90.2-0.0308c-0.244-0.0668-0.208-0.212 0.0684-0.282 0.265-0.0665 0.778 0.0715 0.778 0.209 0 0.0972-0.577 0.147-0.846 0.0726zm98-1.43c-0.399-0.234-0.826-0.506-0.948-0.603l-0.222-0.177 0.242-1.04 0.344-0.22c0.189-0.121 0.857-0.551 1.49-0.956 1.32-0.854 1.2-0.838 2.82-0.358l1.25 0.37 0.414 0.457c0.228 0.252 0.414 0.517 0.414 0.59 0 0.178-1.22 1.56-1.43 1.63-0.254 0.0779-3.44 0.735-3.55 0.733-0.0547-8.9e-4 -0.426-0.193-0.825-0.428zm-102-0.344-0.767-0.26-0.32-0.378c-0.545-0.644-0.402-0.871 0.747-1.19 0.998-0.277 1.19-0.261 2.1 0.177l0.787 0.381 0.151 0.292c0.317 0.612 0.203 0.78-0.726 1.07-0.777 0.244-1.01 0.232-1.97-0.0917zm110-5.22c-0.0335-0.0542 0.043-0.125 0.17-0.156 0.33-0.0829 0.991-0.0139 0.963 0.101-0.031 0.13-1.06 0.18-1.13 0.0558zm-0.633-2.19c-0.239-0.0862-0.491-0.202-0.559-0.258l-0.124-0.101 0.206-0.22c0.266-0.283 0.516-0.376 1.66-0.617 1.19-0.251 1.35-0.248 1.61 0.0257 0.349 0.372 0.27 0.518-0.49 0.9l-0.701 0.353-0.581 0.0367c-0.377 0.0238-0.734-0.0184-1.02-0.12zm-105-0.699-0.217-0.176 0.134-0.37c0.231-0.64 0.746-0.675 1.37-0.0937 0.637 0.591-0.595 1.2-1.29 0.639zm107-10.9-0.359-0.329 0.164-0.344c0.365-0.766 1.1-0.89 1.44-0.241l0.209 0.41-0.441 0.417c-0.531 0.502-0.554 0.504-1.01 0.0874zm-105-21c-0.772-0.388-1.4-0.774-1.55-0.944-0.133-0.158-0.416-0.425-0.629-0.594-0.665-0.527-2.19-1.96-2.14-2.01 0.0891-0.0891 4.74 1.82 5.81 2.38 1.13 0.595 1.27 0.771 0.726 0.911-0.448 0.116-0.597 0.251-0.526 0.475 0.194 0.61-0.131 0.568-1.7-0.221zm47.6-6.08-0.0309-4.29-0.33-0.208-0.415 0.112c-0.589 0.158-0.565 0.331-0.537-3.85l0.0253-3.82 0.12 0.822c0.066 0.452 0.25 1.91 0.408 3.23 0.268 2.24 0.327 2.58 0.429 2.47 0.0455-0.0478 0.283-4.03 0.5-8.36 0.085-1.7 0.187-3.34 0.227-3.63l0.0724-0.532 0.065 0.435c0.097 0.649 0.345 5.09 0.411 7.35 0.0317 1.09 0.0786 2.05 0.104 2.13l0.0468 0.145 0.0921-0.164c0.0819-0.146 1.07-4.65 1.83-8.35 0.153-0.745 0.432-2.05 0.619-2.9 0.188-0.851 0.603-2.75 0.924-4.21 2.68-12.3 2.74-12.4 1.95-6.14-0.778 6.2-1.85 15-1.99 16.2-0.026 0.239-0.292 2.33-0.591 4.64l-0.544 4.21-0.318 0.774c-0.357 0.869-1.28 3.41-2.17 5.95-0.325 0.931-0.652 1.82-0.727 1.98l-0.137 0.29zm-43.7-0.482-0.756-0.358-0.756-1.38c-1.55-2.83-1.47-3.29 0.382-2.36l1.11 0.558 0.795 1.31c0.437 0.718 0.845 1.42 0.905 1.57l0.11 0.263-0.309 0.39c-0.379 0.479-0.501 0.48-1.48 0.0154zm7.97-3.74c-0.759-0.775-1.36-1.43-1.33-1.46 0.0507-0.0507 2.14 1.54 2.92 2.22l0.385 0.337-0.131 0.158c-0.25 0.301-0.472 0.151-1.84-1.25zm30.4 1.33c-0.117-0.19-0.641-1.75-0.641-1.91 0-0.373 1.18-4.01 1.3-4.01 0.183 0 1.11 4.96 0.988 5.28-0.106 0.275-1.53 0.832-1.64 0.644zm-26.6-0.789c-0.384-0.179-0.965-0.801-4.03-4.31-2.76-3.16-4.83-5.68-7.1-8.66-0.632-0.825-1.19-1.55-1.24-1.62-1.31-1.69 11.6 11.2 13.5 13.5 0.471 0.564 0.495 0.66 0.193 0.752-0.12 0.0364-0.356 0.17-0.526 0.297-0.358 0.268-0.352 0.268-0.839 0.0409zm2.4-0.0478c-0.131-0.131-0.236-0.337-0.233-0.46l4e-3 -0.222 0.335 0.379c0.482 0.546 0.394 0.802-0.105 0.303zm4.24-0.752c-0.0956-0.122-0.693-1.68-2.18-5.69-0.424-1.14-1.05-2.84-1.4-3.77-1.2-3.22-2.27-6.24-2.32-6.53l-0.0504-0.29 0.185 0.29c0.17 0.267 1.44 2.63 3.49 6.48 3.46 6.5 3.75 6.92 3.21 4.6-0.104-0.452-0.186-0.953-0.184-1.11l0.0046-0.29 0.63 1.31c0.933 1.93 1.79 3.88 1.75 3.99-0.018 0.054-0.618 0.304-1.33 0.555-1.76 0.618-1.7 0.602-1.81 0.461zm54.1-0.467c0-0.115 0.923-2.41 1.85-4.59 0.664-1.57 0.763-1.61 0.534-0.218-0.375 2.28-0.687 2.63 5.29-5.94 0.729-1.05 1.39-1.95 1.47-2.02l0.144-0.119-0.121 0.279c-0.598 1.37-6 11.3-6.36 11.7-0.213 0.225-2.81 1.09-2.81 0.933zm-5.18-0.131-0.169-0.123 0.139-1.23 0.34-0.463c0.497-0.678 0.763-0.637 0.863 0.134l0.0547 0.419-0.417 0.651c-0.46 0.719-0.563 0.796-0.811 0.615zm-18-1.01c0-0.266 2.36-9.33 2.66-10.2l0.131-0.387 8e-3 0.315c4e-3 0.173-0.254 2.09-0.575 4.26-0.939 6.35-0.75 5.67-1.67 6.01l-0.556 0.204zm-25.5-2.69c-0.114-0.192-0.657-7.11-0.637-8.11l0.01-0.484 0.133 0.551c0.0734 0.303 0.372 1.85 0.663 3.43 0.291 1.59 0.575 3.12 0.63 3.4 0.151 0.786 0.13 0.972-0.118 1.06-0.468 0.175-0.638 0.209-0.682 0.135zm62-0.191c0-0.295 6.06-8.37 8.7-11.6 0.815-0.995 3.31-3.83 3.54-4.01l0.176-0.145-0.126 0.236c-0.653 1.23-4.06 6.08-5.47 7.79-2.99 3.64-6.82 7.98-6.82 7.72zm-56.4-0.47-0.301-0.343 0.061-0.262c0.224-0.964 0.515-0.982 1.08-0.0683l0.417 0.677-0.207 0.169c-0.338 0.276-0.706 0.215-1.05-0.174zm34.9-0.925c-0.0325-0.0846 0.0506-0.639 0.185-1.23 0.289-1.28 0.301-1.24-0.428-1.64-0.834-0.459-0.828-0.368-0.18-2.72l0.57-2.07 0.458-0.54c0.741-0.875 6.97-7.12 7.03-7.06 0.0329 0.0327-0.613 1.43-1.43 3.1-0.822 1.67-2.21 4.54-3.08 6.37-1.65 3.48-2.57 5.3-2.88 5.71l-0.184 0.241zm25.4-0.0207c0.0746-0.194 3.54-3.36 3.67-3.36 0.122 0-0.205 0.42-1.27 1.63l-1.14 1.3-0.608 0.276c-0.696 0.316-0.721 0.321-0.655 0.148zm-58.6-4.82c-0.0378-0.0611-0.229-0.603-0.426-1.21-0.412-1.26-0.451-1.32-0.954-1.47-0.206-0.0618-0.486-0.199-0.621-0.306l-0.246-0.193-0.34-1.09c-0.442-1.41-0.936-3.28-0.936-3.52 0-0.12 0.353-0.537 0.915-1.08l0.915-0.885h0.283c0.155 0 0.327 0.0544 0.381 0.121 0.201 0.248 0.83 4.91 1.23 9.14 0.0544 0.572-0.029 0.775-0.203 0.494z" fill="#db0107"/><path d="m112 214c-0.207-0.398-0.716-1.35-1.13-2.13l-0.757-1.4-2.16-1.34 0.0648-1.12c0.0357-0.616 0.0884-1.26 0.117-1.42l0.0524-0.302-1.07-1.58c-0.589-0.871-1.27-1.83-1.51-2.14l-0.439-0.556h-0.371c-0.204 0-0.706 0.0283-1.12 0.0629l-0.745 0.063-0.319 0.493c-0.176 0.271-0.416 0.657-0.535 0.856-0.291 0.488-0.378 0.457-0.413-0.145l-0.0292-0.508-1.06 0.0656-0.339 0.316c-0.186 0.174-0.709 0.591-1.16 0.928-0.452 0.337-1.06 0.813-1.35 1.06-0.293 0.245-0.725 0.569-0.96 0.721-0.235 0.151-0.856 0.598-1.38 0.993l-0.951 0.718 0.0036 0.261c2e-3 0.144 0.0658 0.566 0.142 0.938l0.138 0.677-0.747 0.711c-1.84 1.75-1.97 1.78-0.94 0.169 0.844-1.32 0.821-1.21 0.387-1.93-0.441-0.732-0.465-0.655 0.494-1.59l0.833-0.812 0.619-1.3c0.833-1.74 0.86-1.63-0.419-1.8l-0.875-0.116-1.29 0.714c-1.83 1.01-4.13 2.38-4.54 2.71-0.196 0.155-0.427 0.282-0.515 0.282-0.239 0-0.866 0.343-1.94 1.06-1.93 1.29-1.87 1.16 0.314-0.616 2.02-1.65 5.18-4.62 5.05-4.74-0.0476-0.048-0.625-0.108-1.28-0.133l-1.2-0.0461-0.92 0.496c-1.02 0.548-1.05 0.559-1.05 0.351 0-0.297-0.824-0.0455-4.19 1.28l-1.63 0.641-1.78 1.52-1.48 0.771c-0.945 0.49-1.68 0.948-2.03 1.26-0.504 0.451-1.5 1.16-2.02 1.43-0.298 0.158-0.278 0.0164 0.0796-0.565 0.4-0.65 0.358-0.681-0.924-0.681h-1.1l-0.66 0.442c-0.363 0.243-0.791 0.466-0.951 0.495-0.16 0.0291-0.465 0.151-0.678 0.27-0.213 0.119-0.561 0.273-0.774 0.341-0.213 0.0682-1.13 0.438-2.03 0.822-2.98 1.26-2.84 1.12 0.967-1.02 0.638-0.358 1.33-0.682 1.54-0.721 0.26-0.0482 0.491-0.187 0.726-0.436 0.189-0.201 0.584-0.54 0.877-0.754l0.532-0.388 4.01-0.497 0.897-0.715c0.494-0.393 1.18-0.914 1.53-1.16 0.706-0.497 0.974-0.764 1.19-1.18 0.098-0.192 0.713-0.67 1.87-1.45 2.24-1.52 2.27-1.63 0.283-1.17-1.1 0.255-1.23 0.237-0.879-0.128 0.334-0.349 0.318-0.395-0.142-0.395-0.215 0-0.511-0.0618-0.657-0.137-0.146-0.0755-0.568-0.167-0.938-0.203l-0.673-0.0658-1.35 0.389c-2.2 0.63-3.64 1-3.7 0.949-0.0271-0.0271 0.445-0.297 1.05-0.6 0.604-0.303 1.16-0.632 1.23-0.732 0.0698-0.0996 0.26-0.25 0.422-0.334 0.454-0.235 0.2-0.331-0.501-0.191-2.26 0.453-4.04 0.976-7.52 2.21-2.51 0.892-8.94 2.91-10.2 3.2-0.302 0.0693-0.596-0.162-0.523-0.41 0.0257-0.0875 0.0758-0.469 0.111-0.847l0.0644-0.688-0.616-0.215 0.0554-0.414c0.0305-0.228 0.121-1.09 0.202-1.91 0.0804-0.825 0.171-1.62 0.2-1.76l0.054-0.265-0.225-0.0969c-0.297-0.128-1.99-0.486-2.29-0.486-0.389 0-3.94-0.705-3.8-0.753 0.0726-0.0243 1.34 0.0323 2.81 0.126 1.48 0.0936 2.88 0.14 3.13 0.103l0.447-0.067 0.0515-0.309c0.0283-0.17 0.163-1.31 0.3-2.53s0.396-3.42 0.575-4.89c0.179-1.46 0.376-3.07 0.436-3.58 0.0605-0.505 0.154-1.03 0.207-1.16l0.0972-0.242 2.19-1.09c2.44-1.21 4.5-2.41 4.54-2.65 0.0755-0.406-2.75-2-8.35-4.7-2.02-0.977-3.76-1.85-3.85-1.95l-0.175-0.175 0.687-2.38-0.112-0.135c-0.0618-0.0745-0.399-0.321-0.748-0.548-0.35-0.227-0.691-0.48-0.759-0.563l-0.124-0.151 0.526-1.58c4.66-14 18.6-25 37.7-29.7 1.88-0.466 2.23-0.493 2.35-0.183 0.0443 0.123-0.278 1.59-0.881 4.01-0.523 2.1-0.953 3.92-0.954 4.04l-0.0032 0.218h0.199c0.11 0 1.8-0.526 3.75-1.17 8.34-2.74 8.44-2.77 8.63-2.41l0.105 0.196-0.401 1.43 0.203 0.455-0.633 2.37c-0.706 2.64-1.61 6.06-2.75 10.4-0.418 1.6-1.29 4.86-1.93 7.26-0.642 2.39-1.48 5.55-1.86 7.01-0.38 1.46-0.727 2.8-0.77 2.96-0.0434 0.166-0.0474 0.353-9e-3 0.415l0.0698 0.113 1.02-0.393c1.31-0.504 1.18-0.303 2.16-3.34 1.76-5.46 3.62-10.9 5.32-15.6 0.547-1.52 1.31-3.65 1.69-4.74 0.955-2.71 1.57-4.42 1.97-5.51 0.187-0.505 0.541-1.48 0.787-2.18 0.63-1.78 1.03-2.79 1.15-2.92 0.292-0.314 12.9-4.61 13.4-4.56l0.245 0.0286-3e-3 0.532c-2e-3 0.293-0.0783 2.01-0.17 3.82-0.296 5.81-0.469 16.8-0.267 16.9 0.114 0.0705 0.156-0.0876 0.827-3.14 1.01-4.58 2.33-10 2.51-10.3 0.125-0.204 0.611-0.416 3.29-1.44 2.29-0.873 4.8-1.77 7-2.49l1.87-0.617 0.382 0.47-0.0558 0.345c-0.0307 0.19-0.076 1.67-0.101 3.29-0.0246 1.62-0.0712 3.08-0.104 3.25-0.0622 0.331 0.0672 0.511 0.223 0.31 0.0509-0.0659 0.801-1.83 1.67-3.91 0.866-2.09 1.62-3.84 1.68-3.89 0.0603-0.0498 0.327-0.176 0.593-0.281 0.266-0.105 1.48-0.592 2.71-1.08 2.01-0.808 7.32-2.82 10.2-3.88l1.14-0.414 0.295 0.295-0.433 1.97c-0.8 3.65-0.875 4.05-0.771 4.16 0.0667 0.0668 1.09-0.15 3.18-0.673 3.54-0.884 7.28-1.75 7.55-1.75 0.567 0 0.546 0.301-0.205 2.91-0.966 3.36-1.47 5.03-4.03 13.4-0.424 1.38-0.963 3.15-1.2 3.92-0.235 0.772-0.925 3.04-1.53 5.03-0.609 2-1.49 4.89-1.95 6.43-0.914 3.04-0.996 3.24-1.35 3.24-0.389 0-0.366 0.152 0.123 0.797 0.553 0.731 0.914 1.58 1.14 2.69l0.163 0.805-0.094 2.33-0.309 0.919c-1.07 3.18-3.71 5.49-6.49 5.68l-0.822 0.055-0.602-0.155c-0.792-0.204-1.61-0.626-2.17-1.12-0.637-0.562-0.551-0.708-0.953 1.61-0.377 2.17-0.333 2.05-0.807 2.25-0.221 0.095-1.45 0.611-2.72 1.15-1.28 0.535-3.76 1.61-5.51 2.39-1.76 0.779-3.38 1.49-3.6 1.57l-0.411 0.158-0.326-0.326 0.126-0.753c0.0693-0.414 0.148-0.872 0.174-1.02l0.048-0.266h-0.199c-0.109 0-0.226 0.0435-0.259 0.0967-0.0329 0.0532-0.144 0.0967-0.248 0.0967-0.227 0-0.232-0.121-0.0371-1.02 0.602-2.77 1.75-8.63 1.71-8.7-0.0804-0.132-0.308 0.187-1.49 2.09l-1.08 1.73-0.238 0.0596c-0.373 0.0935-0.482-0.12-0.649-1.27-0.253-1.74-0.487-2.88-0.6-2.92-0.177-0.059-1.05 4.95-1.84 10.6-0.0308 0.219-0.181 0.547-0.345 0.756-0.35 0.444-0.366 0.422 0.374 0.506l0.596 0.0674 0.232-0.374c0.128-0.206 0.504-0.929 0.837-1.61 0.555-1.13 0.864-1.56 0.74-1.02-0.076 0.332-0.51 2.77-0.586 3.29-0.0794 0.545-0.0389 0.558 0.649 0.209l0.494-0.25-0.0724 0.323c-0.0398 0.178-0.0947 0.421-0.122 0.541l-0.0494 0.218h0.236c0.13 0 0.339 0.109 0.463 0.242l0.227 0.242h0.368c0.349 0 2.01-0.549 5.39-1.79 1.85-0.678 1.93-0.652 0.731 0.254-0.529 0.401-1.02 0.8-1.09 0.888l-0.132 0.159 0.435 0.161-0.453 0.371c-0.249 0.204-0.418 0.403-0.376 0.443 0.0667 0.0626 3.75 0.637 6.24 0.973l0.84 0.113 0.611-0.115c0.336-0.0635 1.15-0.269 1.82-0.456l1.2-0.341 0.77 0.104c1.04 0.139 1.9 0.129 3.42-0.0409 1.23-0.137 3.62-0.354 5.35-0.485 1.14-0.0862 0.887 0.0785-0.435 0.285-0.585 0.0915-2.24 0.364-3.68 0.606l-2.61 0.44-2.42 0.0286-0.653 0.37c-0.928 0.526-0.912 0.547 0.556 0.744l0.871 0.117 0.73 0.366c0.402 0.201 1.16 0.551 1.69 0.776l0.96 0.41 2.01 0.02 0.144 0.217c0.0794 0.12 0.232 0.217 0.339 0.217 0.363 0 8.81 1.99 9.07 2.13 0.193 0.11 0.201 0.111-5.82-0.88l-5.19-0.855-1.05 0.108-1.01-0.393c-0.557-0.216-1.43-0.549-1.93-0.74l-0.919-0.348-1.16-0.0918c-3.42-0.27-5.31-0.392-6.97-0.448l-1.85-0.0627-0.0756 0.122c-0.0948 0.153 4e-3 0.217 0.941 0.603 0.747 0.308 0.932 0.465 0.548 0.465-0.476 0 0.921 0.87 2.38 1.48 0.0532 0.0223 0.0706 0.069 0.0387 0.104-0.0553 0.0602-2.12-0.443-6.66-1.63-2.24-0.584-2.45-0.619-2.37-0.394l0.0557 0.145h-0.285c-0.157 0-0.499-0.0652-0.76-0.145-0.954-0.291-3.29-0.22-3.4 0.102-0.0597 0.182 4.19 1.77 5.41 2.02 1.56 0.321 8.81 2.74 8.25 2.76-0.0532 1e-3 -1.03-0.216-2.18-0.483-1.14-0.267-2.68-0.618-3.42-0.781l-1.34-0.295-0.153 0.127c-0.253 0.21-2.54 2.98-2.54 3.07 0 0.0488 0.468 0.411 1.04 0.805l1.04 0.717 2.15 0.537c2.15 0.535 2.76 0.783 2.86 1.15 0.0232 0.0888 0.236 0.247 0.474 0.352 0.53 0.235 2.82 1.76 2.75 1.83-0.0503 0.0503-4.26-1.85-4.47-2.01-0.0592-0.047-1.06-0.275-2.23-0.506l-2.12-0.421-0.383-0.24c-0.211-0.132-1.31-0.732-2.44-1.33-1.13-0.601-2.08-1.14-2.12-1.19-0.032-0.0519 0.324-0.658 0.791-1.35 0.52-0.766 0.814-1.29 0.76-1.34-0.338-0.338-5.39-1.88-6.61-2.02-1.25-0.142-1.25-0.0668 0.0339 0.901 1.01 0.762 1.42 1.12 1.3 1.12-0.0245 0-0.998-0.329-2.16-0.732-2.5-0.863-4.29-1.43-4.49-1.42-0.68 0.0323-1.66 0.162-1.7 0.225-0.0686 0.111 0.703 1.46 1.13 1.98 0.199 0.241 0.389 0.522 0.421 0.623s0.328 0.401 0.658 0.666c0.33 0.264 0.904 0.793 1.28 1.18l0.677 0.695-0.338-0.17c-0.186-0.0934-0.803-0.446-1.37-0.784-0.569-0.338-1.09-0.614-1.16-0.614-0.197 0-1.4-0.73-1.65-0.999-0.121-0.132-1-0.638-1.96-1.12l-1.74-0.885-0.197 0.247c-0.237 0.297-0.422 0.31-0.748 0.0532-0.155-0.122-0.392-0.193-0.642-0.193h-0.396v0.149c0 0.0821 0.285 0.867 0.633 1.74 0.679 1.71 0.69 1.8 0.21 1.72l-0.315-0.0511-0.473 0.383-0.121 0.664c-0.0668 0.365-0.15 0.806-0.185 0.98l-0.064 0.316 1.37 1.27 0.0667 0.405c0.0367 0.223 0.166 0.731 0.288 1.13 1.05 3.45 1.14 3.96 0.492 2.71zm-52.8-12.7c6.65-1.64 14.2-6.19 19.6-11.8 3.88-4.06 5.63-7.49 5.63-11v-1.05l-0.235-0.927c-0.925-3.65-2.98-5.41-9.87-8.49-1.79-0.8-2.98-1.47-3.54-2.02l-0.459-0.444-0.137-0.737 0.35-0.707c0.786-1.59 3.05-3.65 5.31-4.84 0.991-0.521 0.99-0.537 0.143 2-0.847 2.54-0.847 2.52-0.0406 2.06 1.97-1.13 4.7-2.35 7.6-3.39l1.58-0.566 0.0852-0.198c0.0468-0.109 0.74-2.51 1.54-5.33 1.35-4.76 1.9-6.66 3.09-10.8 0.254-0.878 0.492-1.74 0.53-1.91l0.0678-0.314h-0.207c-0.444 0-4.17 1.01-6.46 1.75-12.7 4.1-23.2 12.3-28.2 22-1.01 1.94-2.21 5.03-2.15 5.48 0.0837 0.578 3.67 2.56 9.57 5.3 3.6 1.67 4.77 2.3 5.47 2.93l0.511 0.466 0.0634 0.338c0.254 1.35-2.59 3.5-8.3 6.26l-1.13 0.548-0.0444 0.219c-0.0244 0.121-0.0699 0.437-0.101 0.703-0.0311 0.266-0.23 1.91-0.443 3.66-0.406 3.34-1.25 10.8-1.25 11 0 0.18 0.208 0.158 1.5-0.161zm29.2-2.75 0.917-0.332 0.297 0.283c0.311 0.297 0.362 0.315 0.83 0.286 0.419-0.0259 0.464-0.108 0.855-1.56 0.359-1.34 0.421-1.73 0.272-1.73-0.0872 0-2.38 0.999-4.85 2.11-1.65 0.744-1.76 0.837-1.12 0.934 0.244 0.0366 0.605 0.126 0.802 0.198 0.57 0.21 1.01 0.168 1.99-0.186zm20.7-0.479c1.6-0.628 2.86-1.28 2.96-1.54 0.0458-0.12 0.153-0.277 0.238-0.348 0.0854-0.0708 0.155-0.192 0.155-0.269v-0.14l-0.218 0.0661c-0.12 0.0364-0.914 0.324-1.76 0.639-0.851 0.315-1.63 0.56-1.74 0.545l-0.194-0.0279 4e-3 -0.387c2e-3 -0.213 0.039-0.659 0.0821-0.992l0.0782-0.605h-0.696l1e-3 -0.314c5.8e-4 -0.173 0.0634-0.52 0.14-0.771 0.151-0.499 0.714-4.82 1.02-7.81 0.105-1.04 0.235-2.3 0.288-2.81 0.16-1.52 0.151-1.54-0.552-1.16-0.199 0.106-0.432 0.193-0.52 0.193-0.234 0-0.334 0.176-0.465 0.822-0.0647 0.319-0.334 1.65-0.598 2.95-0.492 2.43-1.62 8.39-1.83 9.65l-0.115 0.701-0.223 0.169c-0.122 0.0932-0.304 0.218-0.402 0.277l-0.18 0.108 0.314 0.294c0.173 0.162 0.314 0.362 0.314 0.445 0 0.223 0.312 0.352 0.853 0.352h0.479l0.158-0.242c0.179-0.274 0.347-0.317 0.347-0.0893 0 0.723 0.711 0.824 2.07 0.294zm-30.8-0.407 0.288-0.0576 0.307-1.32c0.424-1.83 0.437-1.82-0.756-0.668-0.456 0.439-1.06 1.01-1.35 1.28l-0.52 0.479 0.183 0.0654c0.607 0.218 0.803 0.264 1.16 0.273 0.219 6e-3 0.529-0.0156 0.687-0.0473zm18.9-2.82c2.07-0.787 4.22-1.6 4.78-1.81 1.3-0.479 1.2-0.372 1.5-1.63 0.141-0.595 0.598-2.48 1.01-4.18 0.416-1.7 1.07-4.4 1.45-6s0.745-2.95 0.807-3.02c0.196-0.198 4.23-1.77 4.55-1.77l0.178-4.7e-4 -0.0583 0.46c-0.032 0.253-0.146 1.4-0.254 2.54-0.342 3.64-0.766 7.81-1.03 10.1-0.301 2.64-0.32 3.01-0.153 2.97 0.067-0.0135 1.68-0.716 3.58-1.56 1.9-0.845 4.13-1.83 4.96-2.19 0.825-0.357 1.55-0.719 1.62-0.804l0.121-0.154 9.7e-4 -3.83c3e-3 -12.7 0.561-41.1 0.864-44 0.109-1.04 0.0989-1.05-0.932-0.732-1.95 0.599-8.84 2.9-9.49 3.17l-0.704 0.292-0.152 0.352c-0.0836 0.194-0.274 0.701-0.424 1.13-0.15 0.426-0.445 1.25-0.657 1.84-0.212 0.585-1 2.78-1.75 4.89-0.752 2.1-1.49 4.17-1.65 4.6-1.31 3.57-3.58 10.3-6.25 18.4-0.531 1.62-0.707 1.56 1.94 0.678 1.11-0.372 2.06-0.644 2.1-0.605 0.0396 0.0396-0.297 1.51-0.748 3.26-0.848 3.3-1.84 7.48-2.36 9.9-0.161 0.762-0.316 1.42-0.344 1.47-0.028 0.0452-0.845 0.416-1.82 0.825-0.971 0.408-2.05 0.873-2.4 1.03l-0.638 0.289-0.265 0.839c-0.146 0.461-0.411 1.3-0.59 1.85-0.409 1.28-0.819 2.65-0.819 2.74 0 0.149 0.403 0.0125 4.02-1.36zm11.5-25.8c0-0.261 1.37-4.93 2.63-8.96 1.17-3.76 1.41-4.23 1.29-2.59-0.0662 0.927-0.132 2.13-0.401 7.38-0.186 3.62 0.0298 3.18-1.88 3.81-1.68 0.554-1.64 0.547-1.64 0.359zm-25.3 25.1c2.49-1.02 4.39-1.81 7.84-3.26 0.851-0.359 1.9-0.794 2.32-0.965 1.82-0.735 5.04-2.1 5.11-2.17 0.0448-0.0431 0.233-0.834 0.419-1.76s0.818-3.57 1.4-5.89c1.16-4.55 1.17-4.61 0.948-4.56-0.389 0.0825-6.46 2.46-8.48 3.32-1.01 0.43-1.09 0.445-1.09 0.206 0-0.562 3.9-14.5 7.9-28.3 1.16-3.98 1.44-5.06 1.36-5.14-0.069-0.069-1.44 0.354-7.76 2.4-3.5 1.13-3.18 0.934-3.48 2.21-0.13 0.555-0.479 2.05-0.776 3.33-0.297 1.28-0.885 3.8-1.31 5.61s-1.09 4.7-1.49 6.43c-2.03 8.81-1.89 8.06-1.65 8.52 1.71 3.31 1.1 8.02-1.59 12.3l-0.593 0.942-0.243 0.896c-1.19 4.38-1.8 7.11-1.56 7.01 0.0665-0.0271 1.3-0.529 2.73-1.11zm36.4-1.68c0.831-0.382 2.49-1.12 3.69-1.63l2.18-0.938 0.265-1.25c0.458-2.15 2.28-11.3 2.88-14.4 1.34-7.02 1.38-7.19 1.49-6.62 0.0249 0.127 0.161 2.32 0.302 4.87 0.3 5.41 0.516 8.29 0.631 8.41 0.114 0.118 1.13-1.94 5.92-12 1.99-4.18 1.92-4.13 1.34-1.2-0.586 2.95-4.06 20.1-4.37 21.6-0.134 0.641-0.0853 0.686 0.479 0.437 1.08-0.476 8.42-3.81 8.73-3.97l0.338-0.17 0.0755-0.387c0.0415-0.213 0.337-1.8 0.657-3.53 0.766-4.14 1.65-8.38 2.71-13 0.94-4.1 1.1-4.76 3.05-13 2.21-9.31 3.9-16.5 4.27-18.1 0.0862-0.386 0.13-0.729 0.0979-0.761-0.161-0.161-11.7 4.18-12 4.53-0.0657 0.0682-0.345 0.712-0.622 1.43-0.276 0.718-0.778 1.98-1.12 2.81-0.338 0.825-1.18 2.91-1.86 4.64-2.39 6.02-3.51 8.63-3.63 8.51-0.0456-0.0468 0.133-2.57 0.421-5.94 0.104-1.22 0.258-3.16 0.342-4.3 0.0834-1.14 0.216-2.89 0.294-3.87 0.177-2.23 0.179-2.12-0.0396-2.12-0.351 0-6.1 2-8.52 2.97l-0.919 0.367-0.17 0.676c-0.356 1.42-1.92 8.15-2.06 8.85-0.0363 0.186-0.43 1.99-0.875 4.01-0.445 2.02-1.1 5.09-1.46 6.82l-0.647 3.14-0.0731 4.4c-0.0402 2.42-0.0775 6.78-0.0828 9.7l-0.01 5.29-0.218 0.136c-0.12 0.0749-0.686 0.343-1.26 0.596l-1.04 0.459-0.0589 0.253c-0.0324 0.139-0.206 0.803-0.386 1.48-0.326 1.22-0.38 1.53-0.266 1.53 0.0333 0 0.741-0.312 1.57-0.694zm30.7-8.36c4.73-1.15 6.94-8.1 3.15-9.91-2.87-1.37-6.56 1.2-7.35 5.12-0.637 3.16 1.4 5.47 4.21 4.78zm-0.187-12.1c1.12-0.337 1.84-0.473 3.29-0.623l1.11-0.115 1.66-5.03c1.59-4.81 2.02-6.14 4.14-12.8 1.7-5.35 2.34-7.37 3.18-10 0.899-2.82 0.911-2.87 0.663-2.87-0.569 0-9.48 2.34-9.66 2.54-0.0594 0.0662-0.251 0.947-0.425 1.96-0.78 4.52-2.87 15.6-4.36 23.1-0.423 2.13-0.769 3.93-0.769 3.99 0 0.161 0.135 0.141 1.16-0.166zm-66.7-0.327c0.993-4.21 1.92-8.41 1.87-8.46-0.415-0.415-8.53 3.56-8.74 4.28-0.0171 0.0574 0.438 0.332 1.01 0.611 2.28 1.11 3.79 2.08 5.01 3.23 0.642 0.605 0.777 0.658 0.853 0.336zm34.5 40.4c-0.845-0.671-0.88-0.725-0.763-1.18l0.0842-0.325 1.05-0.461c1.29-0.565 1.18-0.566 2.25 0.0339 2.4 1.34 2.04 1.93-1.49 2.46l-0.393 0.0594zm6.8-3.86c-0.796-0.506-0.897-0.846-0.166-0.56 0.517 0.203 0.991 0.584 0.904 0.726-0.104 0.168-0.273 0.13-0.737-0.166zm21.1-0.596c-0.837-0.405-0.931-0.581-0.31-0.581 0.453 0 1.02 0.192 1.55 0.527 0.899 0.568-0.0857 0.61-1.24 0.0536zm-79.3-1.52c-0.279-0.0728-0.193-0.302 0.225-0.605 0.801-0.58 1.43-0.697 1.88-0.349l0.193 0.149-0.241 0.204c-0.624 0.528-1.43 0.763-2.06 0.6zm-14.1-2.33c0.156-0.154 1.32-0.508 1.66-0.508 0.409 0 0.411 0.165 0.0036 0.335-0.393 0.164-1.81 0.31-1.67 0.172zm88.2-8.24c-0.0853-0.138 0.142-0.267 0.855-0.486 0.624-0.192 1.02-0.197 1.02-0.0138 0 0.312-1.71 0.768-1.88 0.5zm3.72-2.85-0.435-0.113 0.0208-0.289c0.0558-0.777 2.06-1.52 2.44-0.906 0.247 0.405 0.195 0.491-0.558 0.936-0.812 0.48-0.934 0.51-1.47 0.372zm-90.2-0.0308c-0.244-0.0668-0.208-0.212 0.0684-0.282 0.265-0.0665 0.778 0.0715 0.778 0.209 0 0.0972-0.577 0.147-0.846 0.0726zm98-1.43c-0.399-0.234-0.826-0.506-0.948-0.603l-0.222-0.177 0.242-1.04 0.344-0.22c0.189-0.121 0.857-0.551 1.49-0.956 1.32-0.854 1.2-0.838 2.82-0.358l1.25 0.37 0.414 0.457c0.228 0.252 0.414 0.517 0.414 0.59 0 0.178-1.22 1.56-1.43 1.63-0.254 0.0779-3.44 0.735-3.55 0.733-0.0547-8.9e-4 -0.426-0.193-0.825-0.428zm-102-0.344-0.767-0.26-0.32-0.378c-0.545-0.644-0.402-0.871 0.747-1.19 0.998-0.277 1.19-0.261 2.1 0.177l0.787 0.381 0.151 0.292c0.317 0.612 0.203 0.78-0.726 1.07-0.777 0.244-1.01 0.232-1.97-0.0917zm110-5.22c-0.0335-0.0542 0.043-0.125 0.17-0.156 0.33-0.0829 0.991-0.0139 0.963 0.101-0.031 0.13-1.06 0.18-1.13 0.0558zm-0.633-2.19c-0.239-0.0862-0.491-0.202-0.559-0.258l-0.124-0.101 0.206-0.22c0.266-0.283 0.516-0.376 1.66-0.617 1.19-0.251 1.35-0.248 1.61 0.0257 0.349 0.372 0.27 0.518-0.49 0.9l-0.701 0.353-0.581 0.0367c-0.377 0.0238-0.734-0.0184-1.02-0.12zm-105-0.699-0.217-0.176 0.134-0.37c0.231-0.64 0.746-0.675 1.37-0.0937 0.637 0.591-0.595 1.2-1.29 0.639zm107-10.9-0.359-0.329 0.164-0.344c0.365-0.766 1.1-0.89 1.44-0.241l0.209 0.41-0.441 0.417c-0.531 0.502-0.554 0.504-1.01 0.0874zm-105-21c-0.772-0.388-1.4-0.774-1.55-0.944-0.133-0.158-0.416-0.425-0.629-0.594-0.665-0.527-2.19-1.96-2.14-2.01 0.0891-0.0891 4.74 1.82 5.81 2.38 1.13 0.595 1.27 0.771 0.726 0.911-0.448 0.116-0.597 0.251-0.526 0.475 0.194 0.61-0.131 0.568-1.7-0.221zm47.6-6.08-0.0309-4.29-0.33-0.208-0.415 0.112c-0.589 0.158-0.565 0.331-0.537-3.85l0.0253-3.82 0.12 0.822c0.066 0.452 0.25 1.91 0.408 3.23 0.268 2.24 0.327 2.58 0.429 2.47 0.0455-0.0478 0.283-4.03 0.5-8.36 0.085-1.7 0.187-3.34 0.227-3.63l0.0724-0.532 0.065 0.435c0.097 0.649 0.345 5.09 0.411 7.35 0.0317 1.09 0.0786 2.05 0.104 2.13l0.0468 0.145 0.0921-0.164c0.0819-0.146 1.07-4.65 1.83-8.35 0.153-0.745 0.432-2.05 0.619-2.9 0.188-0.851 0.603-2.75 0.924-4.21 2.68-12.3 2.74-12.4 1.95-6.14-0.778 6.2-1.85 15-1.99 16.2-0.026 0.239-0.292 2.33-0.591 4.64l-0.544 4.21-0.318 0.774c-0.357 0.869-1.28 3.41-2.17 5.95-0.325 0.931-0.652 1.82-0.727 1.98l-0.137 0.29zm-43.7-0.482-0.756-0.358-0.756-1.38c-1.55-2.83-1.47-3.29 0.382-2.36l1.11 0.558 0.795 1.31c0.437 0.718 0.845 1.42 0.905 1.57l0.11 0.263-0.309 0.39c-0.379 0.479-0.501 0.48-1.48 0.0154zm7.97-3.74c-0.759-0.775-1.36-1.43-1.33-1.46 0.0507-0.0507 2.14 1.54 2.92 2.22l0.385 0.337-0.131 0.158c-0.25 0.301-0.472 0.151-1.84-1.25zm30.4 1.33c-0.117-0.19-0.641-1.75-0.641-1.91 0-0.373 1.18-4.01 1.3-4.01 0.183 0 1.11 4.96 0.988 5.28-0.106 0.275-1.53 0.832-1.64 0.644zm-26.6-0.789c-0.384-0.179-0.965-0.801-4.03-4.31-2.76-3.16-4.83-5.68-7.1-8.66-0.632-0.825-1.19-1.55-1.24-1.62-1.31-1.69 11.6 11.2 13.5 13.5 0.471 0.564 0.495 0.66 0.193 0.752-0.12 0.0364-0.356 0.17-0.526 0.297-0.358 0.268-0.352 0.268-0.839 0.0409zm2.4-0.0478c-0.131-0.131-0.236-0.337-0.233-0.46l4e-3 -0.222 0.335 0.379c0.482 0.546 0.394 0.802-0.105 0.303zm4.24-0.752c-0.0956-0.122-0.693-1.68-2.18-5.69-0.424-1.14-1.05-2.84-1.4-3.77-1.2-3.22-2.27-6.24-2.32-6.53l-0.0504-0.29 0.185 0.29c0.17 0.267 1.44 2.63 3.49 6.48 3.46 6.5 3.75 6.92 3.21 4.6-0.104-0.452-0.186-0.953-0.184-1.11l0.0046-0.29 0.63 1.31c0.933 1.93 1.79 3.88 1.75 3.99-0.018 0.054-0.618 0.304-1.33 0.555-1.76 0.618-1.7 0.602-1.81 0.461zm54.1-0.467c0-0.115 0.923-2.41 1.85-4.59 0.664-1.57 0.763-1.61 0.534-0.218-0.375 2.28-0.687 2.63 5.29-5.94 0.729-1.05 1.39-1.95 1.47-2.02l0.144-0.119-0.121 0.279c-0.598 1.37-6 11.3-6.36 11.7-0.213 0.225-2.81 1.09-2.81 0.933zm-5.18-0.131-0.169-0.123 0.139-1.23 0.34-0.463c0.497-0.678 0.763-0.637 0.863 0.134l0.0547 0.419-0.417 0.651c-0.46 0.719-0.563 0.796-0.811 0.615zm-18-1.01c0-0.266 2.36-9.33 2.66-10.2l0.131-0.387 8e-3 0.315c4e-3 0.173-0.254 2.09-0.575 4.26-0.939 6.35-0.75 5.67-1.67 6.01l-0.556 0.204zm-25.5-2.69c-0.114-0.192-0.657-7.11-0.637-8.11l0.01-0.484 0.133 0.551c0.0734 0.303 0.372 1.85 0.663 3.43 0.291 1.59 0.575 3.12 0.63 3.4 0.151 0.786 0.13 0.972-0.118 1.06-0.468 0.175-0.638 0.209-0.682 0.135zm62-0.191c0-0.295 6.06-8.37 8.7-11.6 0.815-0.995 3.31-3.83 3.54-4.01l0.176-0.145-0.126 0.236c-0.653 1.23-4.06 6.08-5.47 7.79-2.99 3.64-6.82 7.98-6.82 7.72zm-56.4-0.47-0.301-0.343 0.061-0.262c0.224-0.964 0.515-0.982 1.08-0.0683l0.417 0.677-0.207 0.169c-0.338 0.276-0.706 0.215-1.05-0.174zm34.9-0.925c-0.0325-0.0846 0.0506-0.639 0.185-1.23 0.289-1.28 0.301-1.24-0.428-1.64-0.834-0.459-0.828-0.368-0.18-2.72l0.57-2.07 0.458-0.54c0.741-0.875 6.97-7.12 7.03-7.06 0.0329 0.0327-0.613 1.43-1.43 3.1-0.822 1.67-2.21 4.54-3.08 6.37-1.65 3.48-2.57 5.3-2.88 5.71l-0.184 0.241zm25.4-0.0207c0.0746-0.194 3.54-3.36 3.67-3.36 0.122 0-0.205 0.42-1.27 1.63l-1.14 1.3-0.608 0.276c-0.696 0.316-0.721 0.321-0.655 0.148zm-58.6-4.82c-0.0378-0.0611-0.229-0.603-0.426-1.21-0.412-1.26-0.451-1.32-0.954-1.47-0.206-0.0618-0.486-0.199-0.621-0.306l-0.246-0.193-0.34-1.09c-0.442-1.41-0.936-3.28-0.936-3.52 0-0.12 0.353-0.537 0.915-1.08l0.915-0.885h0.283c0.155 0 0.327 0.0544 0.381 0.121 0.201 0.248 0.83 4.91 1.23 9.14 0.0544 0.572-0.029 0.775-0.203 0.494z" fill="#0d0808"/></svg>
