<svg width="210mm" height="297mm" version="1.1" viewBox="0 0 210 297" xmlns="http://www.w3.org/2000/svg"><path d="m74.8 184c-3.78-0.595-5.81-2.47-8.01-7.4-2.83-6.32-3.52-20-1.52-29.8 0.395-1.93 1.79-2.93 5.81-4.15 4.9-1.48 8-1.08 8.26 1.06l0.0555 0.449 0.406 0.237c0.248 0.145 0.509 0.404 0.671 0.667l0.266 0.43 0.0368 0.512c0.0256 0.356-0.0753 1.09-0.331 2.41-0.825 4.25-1.22 6.88-1.56 10.3-0.232 2.36-0.108 7.44 0.188 7.74 0.0395 0.0402 0.179-0.0547 0.311-0.211 1.28-1.52 1.91-4.87 2.01-10.7 0.0478-2.8 0.0129-4.1-0.253-9.41l-0.105-2.1 0.114-0.514c0.484-2.18 3-3.84 7.13-4.72l0.947-0.201 2.89-0.014 0.496 0.28c0.563 0.318 1.04 0.878 1.16 1.37 0.046 0.184 0.109 0.436 0.141 0.56 0.0314 0.124 0.227 0.348 0.434 0.497 0.674 0.486 0.978 1.08 1.11 2.19 0.0731 0.608 0.0901 0.602 0.626-0.223 2.68-4.13 6.64-6.96 11.5-8.18 4.43-1.12 8.95 0.333 10.4 3.35 0.163 0.335 0.412 0.704 0.554 0.82s0.384 0.392 0.538 0.615c0.348 0.506 0.327 0.537 0.483-0.72 0.211-1.7 0.487-2.14 1.9-3.01 2.45-1.53 5.72-2.72 7.45-2.73l0.689-2e-3 0.965 0.504 0.255 0.413c0.14 0.227 0.283 0.609 0.318 0.849l0.0623 0.436 0.668 0.352 0.423-0.47c0.643-0.716 2.56-1.59 4.78-2.19l1.07-0.286 2.26-0.016 0.448 0.23c0.4 0.205 0.949 0.774 1.06 1.09 0.0269 0.0795 0.157 0.0125 0.399-0.206 1.71-1.54 5.87-3.33 7.74-3.33h0.655l0.965 0.504 0.26 0.421c0.145 0.234 0.281 0.605 0.307 0.837l0.0469 0.416 0.355 0.224c0.561 0.354 0.575 0.352 0.702-0.103 0.0705-0.252 0.272-0.588 0.512-0.855l0.395-0.44 0.967-0.494c2.61-1.33 5.34-2.17 7.1-2.18l0.992-3e-3 0.369 0.198c0.684 0.366 1.12 1.05 1.12 1.76l5e-4 0.246 0.352 0.18c1.17 0.595 1.25 1.13 0.735 4.65-0.772 5.28-1.38 11.8-1.68 18.1l-0.0626 1.3 0.17-0.0733c2.08-0.896 4.17-0.444 5.43 1.17l0.21 0.27 0.194-0.27c0.983-1.37 2.38-2.18 3.94-2.27l0.767-0.0482 0.562 0.144c0.804 0.206 1.42 0.547 1.95 1.07l0.457 0.457 0.225-0.307c2.19-2.99 6.47-2.84 7.97 0.28 0.155 0.322 0.493 0.812 0.751 1.09 2.36 2.53 1.39 7.25-1.82 8.86-1.8 0.901-4.08 0.599-5.36-0.709l-0.385-0.392-0.73 0.74c-2.12 2.15-5.14 2.29-7.04 0.341l-0.354-0.364-0.639 0.652c-0.729 0.744-1.53 1.25-2.44 1.53l-0.631 0.198-0.857-1e-3c-0.998-2e-3 -1.61-0.161-2.36-0.613-0.587-0.354-0.614-0.346-0.614 0.172 0 0.21-0.085 0.656-0.189 0.993l-0.189 0.611-1.02 1.02-1.11 0.467c-5.91 2.49-8.22 2.51-8.47 0.0717l-0.0512-0.496-0.349-0.231c-0.192-0.127-0.349-0.271-0.349-0.32s-0.0609-0.0889-0.135-0.0889h-0.135v0.332c0 0.711-0.677 1.58-1.59 2.04-2.1 1.06-5.8 2.25-7.07 2.26l-0.676 7e-3 -0.385-0.204c-0.443-0.235-0.882-0.794-1.02-1.3-0.115-0.427-0.0244-0.442-0.945 0.158-1.84 1.2-5.63 2.74-6.72 2.74-1.08-2e-3 -1.86-0.707-2.03-1.84l-0.0657-0.44-1.04-1.04-0.0522 0.195c-0.0287 0.107-0.0528 0.36-0.0534 0.562-2e-3 0.652-0.26 1.21-0.806 1.75l-0.503 0.496-1.13 0.554c-1.48 0.729-3.31 1.49-4.64 1.95l-1.08 0.367-1.45 0.0846-0.315-0.132c-0.738-0.309-1.2-0.934-1.31-1.76l-0.0607-0.458-0.36-0.289c-0.419-0.337-0.789-1.06-0.79-1.55-1e-3 -0.477-0.11-0.423-0.447 0.225-1.15 2.21-3.08 4.15-4.5 4.54l-0.57 0.157-0.422-0.0958c-0.232-0.0527-0.548-0.148-0.701-0.211l-0.279-0.116-0.758 0.455c-1.47 0.88-2.97 1.41-4.64 1.62l-1.08 0.141-0.947-0.0995c-4.15-0.436-6.74-2.69-9.15-7.95-0.813-1.78-0.754-1.76-1.18-0.387-1.68 5.41-4.42 8.48-7.8 8.75l-0.772 0.0625-0.671 0.501c-2.55 1.91-5.96 2.85-8.69 2.42zm30.3-19.4c0.0289-0.0289-5e-3 -0.19-0.0752-0.358s-0.128-0.439-0.129-0.601c-2e-3 -0.346-0.0495-0.427-0.379-0.636-0.397-0.252-0.406-0.225-0.24 0.727 0.125 0.719 0.537 1.15 0.823 0.868zm2.47-11.8c0.14-0.0559 1.05-0.377 2.01-0.714l1.76-0.612-0.0281-0.346c-0.0155-0.19-0.0835-0.403-0.151-0.472l-0.123-0.125-0.601 0.151c-1.12 0.28-2.96 1.42-3.29 2.04l-0.0971 0.182h0.133c0.0729 0 0.247-0.0457 0.386-0.102zm11-3.66c0.0661-1 0.0745-1.2 0.0553-1.33-0.0113-0.075-0.628 1.46-0.787 1.95-0.0488 0.153 0.0918 0.225 0.479 0.246l0.195 0.0105z" fill="#9ba556"/><path d="m74.2 184c-5.08-1.08-8.5-6.78-9.51-15.9-1.01-9.04-0.226-21.1 1.48-22.8 0.975-0.971 4.07-2.22 7.09-2.85l1.08-0.228 2.89-0.103 0.493 0.144c0.891 0.261 1.53 1 1.53 1.77 0 0.393 0.132 0.572 0.615 0.833 0.36 0.194 0.616 0.616 0.742 1.22l0.0989 0.476-0.365 1.87c-0.746 3.82-1.02 5.47-1.31 7.87-0.267 2.21-0.318 2.77-0.415 4.59l-0.098 1.84 0.0997 1.53c0.16 2.46 0.265 2.8 0.717 2.37 1.62-1.55 2.44-7.69 2.09-15.6-0.0541-1.22-0.148-3.29-0.208-4.61l-0.11-2.4 0.201-0.611c0.573-1.75 2.41-3.05 5.59-3.96 4.03-1.16 6.49-0.676 6.86 1.35l0.0821 0.439 0.499 0.455c0.657 0.599 0.854 1.02 0.928 1.98 0.0734 0.954 0.135 0.961 0.709 0.0722 2.89-4.47 7.05-7.39 12.1-8.51l0.93-0.205 2.89-6e-3 0.751 0.162c2.42 0.522 4.41 1.86 5.18 3.49 0.153 0.323 0.454 0.778 0.67 1.01 0.216 0.233 0.461 0.568 0.545 0.744 0.269 0.563 0.338 0.44 0.478-0.852 0.237-2.18 0.605-2.6 3.58-4.09 4.74-2.37 7.88-2.33 7.88 0.0962l5.1e-4 0.294 0.293 0.179c0.424 0.259 0.52 0.23 0.963-0.285l0.4-0.464 1-0.481c2.06-0.989 4.39-1.61 5.86-1.55l0.82 0.0308 0.437 0.215c0.387 0.191 0.658 0.472 1.02 1.06l0.103 0.168 0.303-0.281c1.06-0.989 3.92-2.48 5.87-3.06 1.86-0.556 2.84-0.447 3.61 0.401 0.305 0.338 0.389 0.565 0.448 1.22l0.0238 0.264 0.437 0.306c0.467 0.328 0.691 0.331 0.691 9e-3 0-0.944 1.26-1.88 3.95-2.95 4.58-1.82 7.4-1.63 7.42 0.515 2e-3 0.362 0.143 0.648 0.318 0.648 0.236 0 0.753 0.544 0.912 0.962 0.223 0.583 0.202 0.934-0.216 3.77-0.76 5.16-1.31 11.1-1.64 17.5-0.0926 1.84-0.108 1.8 0.657 1.5 1.64-0.655 3.34-0.299 4.61 0.963l0.627 0.625 0.269-0.348c1.94-2.5 5.21-2.96 7.12-0.995l0.451 0.463 0.278-0.359c0.786-1.02 1.79-1.72 2.85-1.99l0.583-0.149 1.76 0.0846 0.679 0.335c0.906 0.448 1.55 1.09 1.96 1.95 0.179 0.371 0.532 0.918 0.784 1.22 1.38 1.63 1.6 4.05 0.571 6.18l-0.329 0.676-1.46 1.46-0.614 0.288c-1.88 0.88-3.75 0.66-5.13-0.604-0.632-0.579-0.56-0.588-1.27 0.159-2.06 2.17-4.85 2.4-6.83 0.562-0.658-0.612-0.649-0.612-1.13 1.5e-4 -0.205 0.259-0.694 0.678-1.14 0.974l-0.775 0.518-1.52 0.411-0.857-0.0473c-0.952-0.0525-1.54-0.236-2.19-0.683-0.597-0.411-0.697-0.321-0.697 0.625 0 0.969-0.623 1.86-1.69 2.41-1.58 0.818-5.53 2.14-6.71 2.24l-0.607 0.0538-0.392-0.15c-0.743-0.284-1.23-0.952-1.23-1.68v-0.363l-0.365-0.264c-0.201-0.145-0.447-0.369-0.548-0.497-0.259-0.33-0.35-0.289-0.35 0.156 0 1.17-0.759 1.87-3 2.76-5.16 2.06-7.19 2.11-7.51 0.175-0.0841-0.498-0.206-0.504-0.865-0.0446-1.79 1.25-5.73 2.86-7.01 2.86-1.01 1.4e-4 -1.82-0.784-1.82-1.75v-0.313l-0.402-0.329c-0.221-0.181-0.507-0.508-0.635-0.728-0.326-0.556-0.379-0.508-0.425 0.391l-0.0406 0.789-0.209 0.477c-0.314 0.719-0.835 1.12-2.48 1.91-2.61 1.26-5.02 2.13-6.13 2.23l-0.541 0.0457-0.495-0.261c-0.636-0.335-1-0.841-1.06-1.47l-0.0441-0.459-0.429-0.359c-0.517-0.433-0.717-0.827-0.813-1.6-0.0665-0.536-0.133-0.743-0.208-0.649-0.0165 0.0207-0.246 0.443-0.51 0.94-1.7 3.19-4.23 5.07-5.77 4.28-0.46-0.234-0.424-0.241-1.14 0.196-3.7 2.25-7.84 2.38-11 0.337-2.02-1.33-3.31-3.04-5.04-6.69-0.369-0.78-0.714-1.42-0.767-1.42-0.053 6.9e-4 -0.331 0.721-0.619 1.6-1.72 5.27-4.31 8.09-7.69 8.38l-0.711 0.0601-0.77 0.569c-2.64 1.95-6.22 2.82-9.11 2.2zm3.33-4.11c1.82-0.496 3.88-1.78 5.57-3.46 0.679-0.675 0.854-0.602 0.628 0.263-0.159 0.61-0.114 0.661 0.444 0.495 4.52-1.34 6.69-8.65 7.48-25.2 0.195-4.11 0.24-5.14 0.318-7.35 0.0958-2.71 0.0374-3.65-0.239-3.86l-0.164-0.125-1.04 0.0515c-3.21 0.159-6.79 1.64-7.4 3.05l-0.205 0.476 0.154 2.66c0.807 13.9-0.422 20.9-3.9 22-4.23 1.35-5.07-7.88-2.08-22.8 0.432-2.15 0.445-2.06-0.325-2.15-1.88-0.201-5.62 0.691-8.23 1.96-1.23 0.601-1.2 0.565-1.41 1.6-1.09 5.37-1.36 12.5-0.723 19.4 0.873 9.55 3.51 13.4 9.1 13.2l1.17-0.0354zm-3.95-1.09c-0.265-0.0714-0.838-0.313-1.27-0.537l-0.789-0.407-0.675-0.697c-0.746-0.771-1.21-1.52-1.61-2.64-0.386-1.06-0.302-1.03 0.394 0.118 0.625 1.03 1.45 2.16 1.63 2.22 0.0558 0.0202 0.325 0.236 0.597 0.479 0.463 0.413 1.94 1.24 2.21 1.24 0.179 0 0.581 0.197 0.581 0.285 0 0.113-0.523 0.0809-1.07-0.066zm5.96-1.05c0.0212-0.0648 0.259-0.272 0.528-0.46s0.728-0.564 1.02-0.834c0.292-0.271 0.602-0.492 0.689-0.492 0.087 0 0.376-0.208 0.642-0.461 0.948-0.904 1.63-1.44 1.78-1.41 0.0874 0.0148 0.306-0.102 0.486-0.26l0.327-0.287 0.591-1.24c0.553-1.16 1.2-2.8 1.67-4.21 0.199-0.607 0.365-0.792 0.365-0.406-7.45e-4 1.29-1.86 6.01-2.73 6.9-0.278 0.287-0.519 0.382-0.519 0.203 0-0.224-0.32-0.0405-1 0.572-0.719 0.647-2.87 2.08-3.55 2.36l-0.342 0.143zm-7.53-1.06c-0.52-0.33-1.36-1.54-1.07-1.54 0.111 0 1.61 1.42 1.73 1.64l0.0892 0.167h-0.166c-0.0912 0-0.354-0.119-0.583-0.264zm9.58-1.44c0.0498-0.0931 0.325-0.4 0.612-0.682 0.287-0.282 0.669-0.658 0.85-0.836 0.303-0.298 0.619-0.366 0.619-0.132 0 0.111-0.624 0.918-0.709 0.918-0.0384 0-0.331 0.203-0.65 0.45s-0.632 0.451-0.696 0.451l-0.116 8.1e-4zm2.44-1.9c0-0.243 0.829-1.71 0.97-1.71 0.141-4e-3 0.141-5e-3 -0.0275 0.647-0.239 0.922-0.942 1.72-0.942 1.07zm-16.1-22.8 0.0553-1.1 0.361-0.488-0.132-0.109c-0.154-0.128-0.177-0.59-0.0331-0.679 0.0618-0.0382 0.0775-0.203 0.0419-0.441-0.0729-0.486-0.0042-0.654 0.34-0.832 0.439-0.227 2.21-0.841 2.43-0.841h0.196l-0.132 0.127c-0.0726 0.0698-0.558 0.336-1.08 0.591-0.521 0.255-1.01 0.495-1.08 0.533-0.173 0.0921-0.321 0.544-0.214 0.651 0.0499 0.0499 0.203-7e-3 0.388-0.143 0.283-0.209 0.688-0.313 0.614-0.158-0.199 0.418-0.415 0.653-0.6 0.653-0.12 3.3e-4 -0.325 0.122-0.475 0.282l-0.263 0.282 0.195 0.235-0.186 1.04c-0.329 1.84-0.51 2.01-0.429 0.401zm7.4-5.27c-0.0561-0.146 0.102-0.303 0.309-0.305 0.164-2e-3 0.138 0.33-0.0299 0.395-0.201 0.0772-0.217 0.0721-0.279-0.0896zm29.8 31.1c1.54-0.483 3.52-1.58 4.78-2.65 0.336-0.285 0.65-0.482 0.741-0.465l0.157 0.0306-0.0668 1.7 0.259-0.167c2.94-1.89 5.21-7.56 6.62-16.5l0.276-1.74 0.0463-1.85c0.0482-1.92-7e-3 -2.49-0.256-2.65l-0.147-0.0929-1.43 0.344c-2.55 0.614-6.85 2-9.32 3.01l-0.855 0.349-0.0619 0.307c-0.0997 0.494-0.253 2.81-0.279 4.23l-0.0243 1.31 0.271-0.0265c0.149-0.0146 1.22-0.297 2.37-0.627l2.1-0.6 0.303 0.196-0.0222 0.559c-0.107 2.71-2.23 5.2-4.82 5.65l-0.735 0.128-0.532-0.0964c-1.83-0.332-3.06-1.81-3.59-4.34l-0.199-0.936-2e-3 -1.62c-7e-3 -6.98 4.22-13 9.1-13h0.66l0.351 0.179c0.193 0.0984 0.497 0.341 0.676 0.539l0.325 0.36 0.063 0.42c0.0346 0.231 0.117 0.441 0.183 0.466 0.181 0.0696 2.16-0.92 2.36-1.18 0.49-0.622 2.11-7 1.96-7.75-0.203-1.08-2.1-2.39-4.03-2.77l-0.943-0.187-2.53 0.0917-0.925 0.231c-8.41 2.1-14.1 10.3-14.8 21.4l-0.106 1.56 0.106 1.74c0.337 5.54 2.12 10.7 4.37 12.7 0.971 0.862 1.58 1.24 2.56 1.61 1.02 0.383 1.36 0.431 2.87 0.399l1.44-0.031zm-4.04-0.989c-1.47-0.262-3.36-1.72-4.03-3.13-0.3-0.623-0.283-0.85 0.0306-0.419 0.398 0.547 1.02 1.21 1.5 1.59 0.98 0.785 1.82 1.32 2.47 1.59 0.858 0.346 0.871 0.516 0.0264 0.367zm5.35-0.732c0-0.0292 0.294-0.221 0.654-0.427 0.36-0.206 0.816-0.486 1.01-0.623 0.198-0.137 0.462-0.279 0.586-0.317 0.256-0.0769 0.606-0.326 1.12-0.802 0.218-0.2 0.446-0.327 0.589-0.327 0.269 0 1.07-0.753 1.34-1.26 0.401-0.751 1.12-1.95 1.25-2.07l0.138-0.135-0.0629 0.356c-0.0722 0.408-0.587 1.49-0.911 1.91-0.121 0.158-0.22 0.379-0.22 0.489 0 0.267-1.07 1.34-1.34 1.34-0.106 0-0.472 0.203-0.812 0.451s-0.654 0.451-0.697 0.451c-0.0434 0-0.496 0.207-1.01 0.459-0.814 0.403-1.65 0.659-1.65 0.504zm-6.85-1.12c-0.47-0.23-1.26-1.03-1.26-1.27v-0.205l0.295 0.183c0.521 0.322 1.51 1.21 1.51 1.36 0 0.135-0.178 0.114-0.541-0.0644zm8.89-0.931c0.234-0.259 0.987-0.804 1.11-0.804 0.352 0-0.183 0.623-0.731 0.852-0.462 0.193-0.583 0.177-0.379-0.048zm4.38-32.5c-0.208-0.151-0.661-0.379-1.01-0.507-0.362-0.134-0.628-0.285-0.628-0.357 0-0.169 0.512-0.162 0.845 0.011 0.142 0.0741 0.339 0.135 0.437 0.135 0.217 0 0.597 0.288 0.813 0.615 0.309 0.468 0.106 0.514-0.461 0.103zm1.07-0.505c-0.39-0.411-1.33-0.858-1.98-0.943-0.273-0.0356-0.658-0.108-0.857-0.162-0.198-0.0532-0.767-0.0984-1.26-0.1-0.496-2e-3 -0.957-0.0384-1.02-0.0811l-0.122-0.0775 0.103-0.0637c0.0567-0.035 0.512-0.108 1.01-0.162l0.909-0.0988 0.514 0.106c0.283 0.0583 0.645 0.106 0.806 0.106s0.63 0.147 1.04 0.326l0.75 0.326 0.327 0.439c0.532 0.712 0.367 1-0.219 0.386zm7.33 34.2c1.94-0.675 4.96-2.03 5.22-2.34l0.115-0.139 0.0679-3.08c0.0756-3.43 0.241-7.89 0.309-8.32l0.0443-0.281 0.923-0.37c0.929-0.373 2.95-1.11 3.64-1.32 0.204-0.064 0.422-0.0831 0.488-0.0426l0.119 0.0733-0.0618 1.7c-0.034 0.935-0.1 2.59-0.147 3.68-0.0471 1.09-0.113 3.39-0.147 5.12l-0.0618 3.13h0.222c0.35 0 1.98-0.58 3.1-1.1l1.02-0.476 0.122-0.879-0.234-0.145 0.146-0.345c0.0802-0.19 0.171-0.565 0.202-0.834 0.0641-0.555 0.192-0.851 0.329-0.766 0.0624 0.0386 0.0721 0.475 0.029 1.31-0.0448 0.869-0.035 1.25 0.0319 1.25 0.169 0 0.235-0.209 0.257-0.812 0.0953-2.65 0.282-4.43 0.471-4.49l0.125-0.0413-0.0408 2.49c-0.0224 1.37-0.0165 2.49 0.013 2.49 0.109 0 0.456-0.285 0.541-0.444 0.106-0.198 0.323-3.61 0.453-7.13 0.271-7.34 0.64-13.8 0.992-17.5 0.149-1.54 0.35-4.16 0.448-5.86 0.0517-0.893 0.116-1.95 0.143-2.35l0.0488-0.73-0.288-0.239-2.29 0.282-1.26 0.425c-0.694 0.234-1.59 0.593-1.98 0.799l-0.718 0.374-0.0731 0.271c-0.0807 0.299-0.201 1.83-0.608 7.76-0.15 2.18-0.299 4.2-0.33 4.49l-0.0573 0.522-0.171 0.0914c-0.162 0.0866-1.39 0.543-3.67 1.37l-1.02 0.368-0.202-0.202 0.11-1.42c0.265-3.44 1.16-11.5 1.54-14 0.102-0.643 0.0798-0.686-0.344-0.684-0.969 4e-3 -4.83 1.35-5.1 1.78-0.0296 0.0479-0.157 0.705-0.282 1.46-0.213 1.28-0.335 1.72-0.473 1.72-0.0688 0 0.0367-2.31 0.119-2.6l0.0593-0.212-0.34 0.0655-0.0623 0.405c-0.0342 0.223-0.108 0.831-0.163 1.35-0.215 2.02-0.407 3.27-0.524 3.41l-0.121 0.148 0.0493-1.87c0.0271-1.03 0.0943-2.05 0.149-2.27 0.055-0.218 0.0863-0.487 0.0696-0.598l-0.0303-0.201-0.255 0.201c-0.329 0.26-0.414 0.497-0.51 1.44-0.0436 0.424-0.182 1.72-0.307 2.89-0.607 5.65-1.29 14.6-1.54 20.2-0.257 5.78-0.351 9.69-0.257 10.8l0.0514 0.609h0.341c0.188 0 0.882-0.188 1.54-0.418zm-1.05-0.757c-0.138-0.223 0.0625-5.65 0.219-5.93l0.084-0.15 0.052 0.224c0.0428 0.184 0.107 2.44 0.136 4.77l6e-3 0.483 0.293-0.046c0.436-0.0684 1.9-0.612 2.82-1.05 0.446-0.212 0.96-0.445 1.14-0.518 0.208-0.0838 0.349-0.21 0.383-0.342 0.0867-0.345 0.317-0.358 0.459-0.025l0.124 0.292-0.114 0.175c-0.0629 0.0965-0.233 0.211-0.377 0.255-0.145 0.0438-0.588 0.217-0.984 0.384-1.16 0.489-2.85 1.12-2.99 1.12-0.0718 0-0.331 0.101-0.576 0.225-0.492 0.249-0.594 0.269-0.678 0.133zm0.843-1.53c-0.0645-0.191 0.0653-1.4 0.15-1.4 0.0496 0 0.131 0.223 0.18 0.496 0.0496 0.273 0.127 0.553 0.172 0.622 0.0559 0.0867 0.0292 0.165-0.0849 0.248-0.196 0.143-0.375 0.157-0.417 0.0326zm3.08-1.08c0-0.0482 0.254-0.249 0.564-0.447 0.742-0.472 0.892-0.625 0.796-0.808-0.0868-0.166 0.0445-1.27 0.166-1.39 0.122-0.122 0.191 0.348 0.175 1.2-0.015 0.808-0.0912 1.08-0.301 1.08-0.07 0-0.318 0.101-0.551 0.225-0.431 0.229-0.848 0.297-0.848 0.138zm10.1-31.1c-0.0849-0.221-0.0674-0.754 0.0307-0.937 0.058-0.108 0.0511-0.257-0.0206-0.447l-0.108-0.285 0.0975-0.156c0.119-0.19 1.77-0.814 2.18-0.824 0.447-0.0115 0.291 0.122-0.733 0.63-0.861 0.427-1.14 0.633-1.14 0.833 0 0.0459 0.0812 0.0584 0.18 0.0279 0.0992-0.0306 0.262-0.0807 0.361-0.111 0.296-0.0913 0.217 0.198-0.105 0.386l-0.286 0.167-0.0976 0.398c-0.103 0.421-0.263 0.563-0.357 0.318zm9.37 30.5c2.13-0.647 4.42-1.52 4.56-1.74 0.0302-0.0463 0.0825-1.73 0.116-3.75 0.084-5.01 0.215-8.06 0.352-8.19 0.12-0.115 1.7-0.638 3.62-1.2l1.26-0.367 0.223 0.224-0.0833 1.62c-0.191 3.73-0.272 5.91-0.329 8.9l-0.0602 3.16 0.113 0.0697c0.219 0.135 3.56-0.71 3.81-0.964 0.0372-0.0377 0.0759-0.292 0.086-0.565 0.0318-0.858 0.273-1.34 0.493-0.984 0.119 0.193 0.226-0.0741 0.36-0.903 0.0745-0.461 0.18-0.92 0.233-1.02l0.098-0.183 0.0836 0.125c0.049 0.0733 0.0587 0.716 0.0235 1.55l-0.0601 1.43 0.34-0.0666 0.0176-0.675c0.0321-1.23 0.108-2.64 0.156-2.87 0.0258-0.129 0.089-0.709 0.14-1.29 0.0514-0.58 0.129-1.15 0.173-1.26l0.0798-0.209 0.0669 0.257c0.0368 0.141 0.0387 1.49 4e-3 3l-0.0626 2.74h0.145c0.0797 0 0.238-0.093 0.351-0.207l0.207-0.207 0.0612-0.718c0.0872-1.02 0.477-8.44 0.643-12.2 0.339-7.75 1.06-15.4 1.95-20.7 0.102-0.612 0.163-1.17 0.137-1.24-0.193-0.502-3.77 0.45-6.34 1.69l-1.29 0.619-0.0867 0.339c-0.0477 0.187-0.11 0.502-0.138 0.7-0.136 0.947-0.725 8.56-0.827 10.7-0.0896 1.86 0.155 1.61-2.34 2.39-0.744 0.232-1.66 0.52-2.03 0.641l-0.673 0.22-0.225-0.226 0.179-2.21c0.186-2.3 0.65-7.25 1.03-11 0.121-1.19 0.2-2.19 0.175-2.23-0.142-0.229-1.86 0.184-3.28 0.79-1.18 0.503-1.21 0.538-1.36 1.35-0.303 1.71-0.428 1.98-1.16 2.57-0.699 0.563-0.715 0.552-0.689-0.45 0.0242-0.943 0.0466-0.981 0.762-1.3 0.626-0.281 0.597-0.247 0.68-0.797l0.0641-0.428h-0.136c-0.125 0-1.78 1.04-1.78 1.11 0 0.019-0.0797 0.623-0.177 1.34-0.73 5.39-1.4 14.1-1.72 22.3-0.137 3.55-0.218 9.32-0.141 10.1l0.0674 0.71 0.465-0.055c0.256-0.0302 0.992-0.216 1.64-0.412zm-1.37-0.694c-0.0677-0.176 0.0375-5.03 0.117-5.38 0.18-0.796 0.311 0.406 0.336 3.08l0.0153 1.66 0.585 0.152 0.203-0.131c0.239-0.153 1.31-0.377 1.4-0.291 0.129 0.129-0.898 0.595-1.32 0.598-0.079 4.6e-4 -0.347 0.101-0.595 0.223-0.534 0.262-0.663 0.277-0.738 0.0821zm0.872-1.34-0.114-0.137 0.0481-0.77c0.0691-1.11 0.287-1.18 0.396-0.139l0.0593 0.568 0.167 0.104c0.229 0.143 0.21 0.214-0.0994 0.374-0.326 0.169-0.317 0.169-0.457 4.5e-4zm11.1-0.878c0.0337-0.36 0.0987-0.694 0.144-0.743 0.131-0.141 0.266 0.143 0.214 0.45-0.0521 0.31 0.0112 0.436 0.267 0.532l0.18 0.0678-0.213 0.174c-0.117 0.0955-0.312 0.174-0.434 0.174h-0.221zm-10.3-27.4v-0.873l0.228-0.15c0.126-0.0823 0.249-0.129 0.275-0.103 0.0727 0.0727-0.291 1.79-0.403 1.9l-0.0998 0.0998zm12.1-2.41c-0.204-0.56-0.0968-1.08 0.221-1.08h0.187l-0.0629 0.335c-0.0346 0.184-0.115 0.458-0.18 0.609l-0.117 0.273zm-0.0458-1.64 0.0283-0.286 0.417-0.142c0.229-0.0784 0.473-0.189 0.541-0.245 0.0682-0.0563 0.256-0.131 0.417-0.165l0.293-0.0627v0.125c0 0.2-1.29 1.06-1.59 1.06h-0.137zm-0.0168-0.796c-0.21-0.392 0.373-0.732 2.47-1.44 1.67-0.565 1.48-0.292-0.446 0.641-0.804 0.389-1.51 0.769-1.58 0.844-0.157 0.189-0.337 0.171-0.452-0.0434zm2.19 32.3c0.044-0.411-0.0487-0.618-0.206-0.461-0.103 0.103-0.019 0.844 0.0957 0.844 0.038 0 0.0877-0.172 0.11-0.383zm-52.8-2.19c-0.0152-0.188-0.105-0.765-0.17-1.09-0.041-0.206-0.856-0.791-0.954-0.685-0.0751 0.0818 0.0764 1.25 0.204 1.57 0.16 0.405 0.951 0.583 0.92 0.207zm61.5-0.985c0.724-0.329 1.46-1.1 1.86-1.92l0.29-0.612v-2.16l-0.254-0.517c-1.45-2.95-5.65-0.889-5.65 2.77v0.833l0.268 0.536c0.658 1.32 2.03 1.74 3.49 1.08zm8.21-0.739 0.657-0.318 0.371-0.467c2-2.52 0.891-5.97-1.84-5.72-1.13 0.102-2.14 0.873-2.74 2.09l-0.352 0.713 2e-3 2.17 0.206 0.45c0.64 1.4 2.13 1.83 3.7 1.07zm7.75-0.678c2.4-0.883 2.84-5.17 0.652-6.39l-0.402-0.225-1.53 6e-3 -0.468 0.208c-2.67 1.18-2.8 5.59-0.19 6.52l0.478 0.17 0.472-0.0478c0.259-0.0263 0.706-0.134 0.992-0.239zm-75-9.24c0.341-0.129 1.33-0.475 2.19-0.768 1.77-0.602 1.73-0.567 1.58-1.14l-0.107-0.425-0.335-0.0284c-0.995-0.0843-3.38 1.25-4.05 2.27-0.275 0.419-0.172 0.433 0.714 0.0987zm10.9-2.81c0.0728-0.121 0.26-3.01 0.2-3.07-0.0929-0.0928-0.204 0.147-0.364 0.784-0.0813 0.324-0.289 0.93-0.462 1.35-0.173 0.417-0.3 0.772-0.284 0.788 0.162 0.162 0.836 0.274 0.91 0.151zm26.1-13.3c0.0797-0.122 0.131-0.294 0.114-0.382l-0.031-0.161-0.202 0.202c-0.204 0.204-0.276 0.563-0.114 0.563 0.0485 0 0.153-0.0995 0.233-0.221z" fill="#6e7452"/><path d="m74.1 182c-5.52-0.53-8.4-4.82-9.38-14-0.666-6.25-0.601-12.7 0.183-18.1 0.513-3.49 0.685-4.06 1.43-4.71 1.06-0.937 4.1-2.12 6.91-2.69l1.21-0.246 3.16-0.016 0.367 0.196c0.498 0.266 1.01 0.853 1.07 1.22 0.148 0.973 0.136 1.11-0.309 3.38-1.17 6-1.64 9.85-1.64 13.6-0.0047 3.41 0.477 5.98 1.2 6.36l0.167 0.0894 0.867-0.319 0.375-0.558c1.64-2.43 2.18-8.81 1.6-18.8-0.207-3.59-0.127-4.2 0.692-5.24 1.28-1.61 5.11-3.08 8.38-3.22l1.22-0.05 0.485 0.161c0.33 0.11 0.621 0.297 0.912 0.588 0.429 0.429 0.457 0.492 0.713 1.64l0.115 0.514-0.0597 1.74c-0.0328 0.957-0.0853 2.32-0.117 3.03-0.065 1.47-0.0017 1.58 0.376 0.676 0.321-0.77 1.09-2.22 1.34-2.53 0.107-0.133 0.376-0.526 0.596-0.873 5.09-8.02 15.6-11.4 20.7-6.55l0.7 0.662 0.82 1.61-1e-3 0.38c-5e-3 1.41-1.57 7.42-2.18 8.38-0.516 0.812-1.46 1.46-2.96 2.03-1.11 0.422-1.59 0.366-2.3-0.266l-0.4-0.352-0.14-0.481c-0.0769-0.265-0.202-0.533-0.278-0.596l-0.138-0.114-0.557 0.114c-3.59 0.735-6.28 4.73-6.73 10-0.275 3.2 0.713 5.97 2.24 6.28 0.245 0.049 1.37-0.272 1.86-0.531 0.32-0.169 1.4-1.26 1.4-1.42v-0.152l-0.97 0.253c-0.533 0.139-1.19 0.254-1.47 0.254l-0.496 9.9e-4 -0.49-0.335c-0.269-0.185-0.574-0.451-0.676-0.591l-0.187-0.256 0.0176-1.95c0.01-1.07 0.0769-2.6 0.149-3.38l0.132-1.42 0.241-0.493c0.362-0.74 0.817-0.998 2.98-1.69 1.31-0.417 3.69-1.25 4.19-1.47 0.995-0.426 4.1-1.28 5.59-1.53 0.175-0.0301 0.572 4e-3 0.882 0.0754l0.564 0.13 0.0836-0.156c0.046-0.0859 0.126-0.882 0.179-1.77 0.133-2.26 0.623-7.51 0.717-7.69 0.0428-0.0808 0.124-0.593 0.181-1.14 0.216-2.07 0.421-2.39 2.28-3.46 2.62-1.52 5.54-2.51 7.17-2.43l0.652 0.0329 0.389 0.27c0.895 0.621 0.951 1.14 0.494 4.64-0.615 4.72-1.16 10.1-1.04 10.2 0.0727 0.08 0.876-0.136 1.16-0.313 0.0722-0.0446 0.138-0.504 0.189-1.32 0.2-3.2 0.547-8.06 0.665-9.32l0.13-1.39 0.35-0.503c1.19-1.71 6.97-3.41 8.64-2.55 0.373 0.191 0.933 0.776 0.933 0.973 0 0.057 0.063 0.156 0.14 0.22l0.14 0.116 0.31-0.319c1.01-1.04 4.19-2.67 6.26-3.2l0.863-0.222 1.47 0.0564 0.387 0.272c0.777 0.547 0.951 1.28 0.75 3.17-0.628 5.9-1.11 11.2-1.02 11.3 0.0413 0.0458 0.336-0.0122 0.686-0.135l0.614-0.216 0.0669-0.767c0.0368-0.422 0.171-2.17 0.298-3.88 0.312-4.19 0.556-6.74 0.682-7.13 0.0576-0.174 0.166-0.494 0.24-0.711 0.497-1.46 6.42-3.86 9.08-3.69l0.662 0.0425 0.408 0.239c0.997 0.585 1.08 1.25 0.569 4.51-0.772 4.91-1.45 12.7-1.77 20.3-0.118 2.78-0.148 2.66 0.494 2.07 0.584-0.534 1.74-1.05 2.68-1.21l0.62-0.102 0.654 0.108c1.1 0.182 2.16 0.786 2.62 1.51 0.258 0.398 0.433 0.384 0.74-0.0601 1.63-2.35 4.93-2.86 6.85-1.06 0.669 0.625 0.672 0.626 0.989 0.168 2.71-3.91 8.34-1.97 8.34 2.87 0 4.57-5.13 7.27-8.07 4.26-0.549-0.563-0.563-0.563-0.98-0.0161-1.97 2.59-5.83 2.78-7.49 0.369l-0.155-0.225-0.284 0.361c-0.761 0.966-1.74 1.68-2.76 2.01l-0.685 0.221-0.947-0.0444c-1.2-0.0564-1.8-0.272-2.48-0.889-0.623-0.569-0.644-0.551-0.723 0.609-0.1 1.47-0.276 1.87-1.09 2.43-1.22 0.845-6.06 2.48-7.34 2.47l-0.593-2e-3 -0.427-0.268c-0.254-0.159-0.561-0.47-0.758-0.766l-0.331-0.498 0.053-3.72c0.0291-2.05 0.104-4.7 0.166-5.9 0.131-2.53 0.185-2.37-0.681-2.05-0.849 0.31-0.753-0.342-0.859 5.85l-0.0909 5.31-0.19 0.393c-0.328 0.677-0.859 1.02-2.72 1.76-2.24 0.889-4.5 1.53-5.43 1.54l-0.549 7e-3 -0.362-0.186c-0.684-0.351-1.13-0.956-1.13-1.54 0-0.4-0.082-0.401-0.527-9e-3 -0.855 0.752-3.41 2.02-5.46 2.72l-1.1 0.372-1.2 0.01-0.438-0.365c-0.253-0.211-0.545-0.572-0.691-0.857l-0.253-0.492 0.0467-3.43c0.0257-1.89 0.0939-4.39 0.152-5.58 0.0646-1.32 0.0728-2.18 0.0212-2.23-0.0916-0.0915-1.17 0.228-1.36 0.403-0.113 0.105-0.2 1.92-0.38 7.95l-0.0809 2.71-0.155 0.441c-0.364 1.03-2.81 2.37-6.73 3.68l-1.37 0.457-1.22-0.0692-0.435-0.368c-0.897-0.759-0.972-1.18-0.941-5.35 0.013-1.76-0.011-2.9-0.06-2.84-0.045 0.0496-0.278 0.658-0.518 1.35-1.12 3.25-1.89 4.62-3.54 6.3-1.59 1.62-2.87 2.09-3.81 1.4l-0.242-0.179-0.487 0.311c-1.27 0.814-2.97 1.47-4.5 1.74l-0.857 0.15-1.14-0.0546c-3.92-0.188-6.72-2.27-8.56-6.37-0.255-0.568-0.517-1.09-0.581-1.17-0.106-0.123-0.795-2.26-1.04-3.24-0.133-0.526-0.232-0.398-0.408 0.53-1.18 6.21-4.74 10.8-8.35 10.8h-0.61l-0.973 0.699c-1.88 1.35-5.13 2.44-6.74 2.26-0.0496-5e-3 -0.455-0.0449-0.902-0.0877zm1.98-1.7c2.27-0.256 4.08-1.17 6.58-3.32 0.948-0.815 1.01-0.837 0.865-0.317-0.053 0.191-0.0965 0.443-0.0968 0.561l-5.03e-4 0.215 0.409-0.0461c2.86-0.322 5.52-4.94 6.62-11.5 0.794-4.71 1.55-15.4 1.57-22.4l0.0098-2.5-0.395-0.396-0.484-0.0401c-2.62-0.217-7.53 1.63-8.2 3.09l-0.165 0.361-2.6e-5 0.812c-1.4e-5 0.446 0.0597 1.97 0.133 3.38 0.694 13.4-0.74 20.3-4.3 20.6l-0.524 0.0475-0.399-0.153c-1.85-0.706-2.78-5.92-2.14-12 0.339-3.28 1.03-7.74 1.74-11.2l0.272-1.32-0.416-0.337-2.8 0.0842-1.29 0.29c-2.28 0.51-5.61 1.85-5.88 2.36-0.169 0.316-0.558 2.36-0.847 4.45-0.82 5.94-0.574 15.2 0.552 20.8 1.05 5.19 3.53 8.12 7.17 8.47 1.08 0.104 1.12 0.105 2.01 4e-3zm-3.75-2.14c-0.908-0.464-1.94-1.46-2.37-2.27-0.467-0.888-0.411-0.867 0.357 0.133 0.375 0.489 0.778 0.952 0.894 1.03 0.117 0.0768 0.389 0.289 0.606 0.473 0.217 0.183 0.634 0.477 0.927 0.654 0.703 0.423 0.428 0.412-0.411-0.0173zm8.89-1.63c0.196-0.206 0.425-0.374 0.508-0.374 0.0834 0 0.625-0.428 1.2-0.952l1.05-0.952 0.165 0.0524c0.481 0.153 1.59-1.7 2.54-4.24 0.436-1.17 0.427-0.735-0.012 0.545-0.427 1.25-1.44 3.33-1.86 3.81l-0.286 0.331-0.116-0.113c-0.198-0.192-0.324-0.132-1 0.483-1.11 1.01-2.92 2.16-2.19 1.4zm-9.36-0.0634c-0.311-0.211-0.698-0.762-0.536-0.762 0.105 0 0.966 0.889 0.913 0.943-0.0246 0.0246-0.194-0.0568-0.377-0.181zm10.4-1.84c0.0797-0.124 0.234-0.271 0.344-0.327 0.109-0.0558 0.318-0.216 0.464-0.355 0.146-0.14 0.265-0.213 0.265-0.164 0 0.108-0.361 0.448-0.857 0.809l-0.361 0.262zm1.88-1.37c0-0.0576 0.11-0.291 0.245-0.519 0.301-0.509 0.401-0.295 0.119 0.256-0.179 0.352-0.364 0.485-0.364 0.263zm-16-24.7c-0.0808-0.131 0.108-0.46 0.263-0.46 0.224 0 0.228 0.149 0.0089 0.354-0.133 0.125-0.235 0.165-0.272 0.105zm0.13-1.16v-0.253l0.408-0.198c0.225-0.109 0.486-0.198 0.581-0.198 0.095 0 0.195-0.0357 0.222-0.0793 0.027-0.0436 0.135-0.102 0.24-0.129 0.298-0.078 0.13 0.0459-0.529 0.389-0.342 0.178-0.645 0.404-0.695 0.519-0.122 0.278-0.227 0.255-0.227-0.0497zm36.6 29.2c1.49-0.397 3.07-1.23 4.81-2.54 1.01-0.763 0.962-0.772 0.888 0.147l-0.062 0.765 0.139 0.0535c0.343 0.132 1.6-0.947 2.51-2.15 1.82-2.41 3.63-8.28 4.65-15.1l0.245-1.62 5e-4 -1.8 4.9e-4 -1.8-0.262-0.541-0.326-0.0273c-1.06-0.0891-10.6 2.89-11.6 3.63-0.244 0.178-0.528 3.3-0.468 5.14l0.0293 0.902 0.406-0.0156c0.223-9e-3 1.26-0.262 2.3-0.563 1.04-0.301 1.99-0.548 2.11-0.548l0.216-2.8e-4 -0.0559 0.654c-0.0694 0.812-0.255 1.45-0.677 2.32l-0.327 0.676-1.54 1.56-0.745 0.36c-1.78 0.862-3.24 0.7-4.54-0.504l-0.542-0.502-0.391-0.82c-0.684-1.43-0.914-2.85-0.832-5.1l0.0544-1.49 0.227-1.1c1.01-4.87 3.62-8.32 7.12-9.4 1.95-0.602 3.17-0.172 3.52 1.24l0.102 0.415 0.237 0.0275c0.286 0.0331 1.79-0.679 2.27-1.07l0.331-0.273 0.323-1.04c0.842-2.7 1.62-6.24 1.48-6.73-0.315-1.1-1.88-2.27-3.67-2.74l-0.878-0.231-2.8 8.3e-4 -0.894 0.199c-8.86 1.98-15 11-15.3 22.6-0.276 11.6 4.83 18.9 11.9 17zm-5.02-1.76c-0.243-0.121-0.507-0.276-0.586-0.345-0.0792-0.0692-0.273-0.191-0.432-0.272-0.326-0.165-1.61-1.57-1.51-1.67 0.0336-0.0327 0.209 0.105 0.39 0.307 0.309 0.344 1.06 0.999 1.5 1.3 0.107 0.0744 0.456 0.307 0.774 0.518 0.634 0.419 0.563 0.501-0.134 0.155zm7.61-0.624c0-0.0227 0.179-0.146 0.398-0.275 0.219-0.128 0.447-0.292 0.507-0.365 0.0599-0.0722 0.191-0.131 0.292-0.131 0.197 0 0.605-0.278 1.21-0.822 0.249-0.225 0.433-0.323 0.548-0.293l0.174 0.0454 0.484-0.502c0.519-0.539 0.63-0.598 0.63-0.335 0 0.243-0.932 1.1-1.2 1.1-0.124 0-0.452 0.189-0.767 0.442-0.303 0.243-0.694 0.489-0.868 0.547-0.174 0.0574-0.531 0.223-0.794 0.368-0.464 0.256-0.613 0.311-0.613 0.225zm-8.21-0.992c-0.307-0.201-0.703-0.68-0.563-0.68 0.0366 0 0.149 0.0797 0.25 0.177 0.101 0.0974 0.326 0.299 0.499 0.448 0.374 0.322 0.268 0.353-0.187 0.0547zm12.8-2.54c0.24-0.456 0.449-0.662 0.245-0.242-0.101 0.207-0.228 0.405-0.282 0.438-0.0544 0.0336-0.0378-0.0549 0.0369-0.197zm0.621-30.8c-0.281-0.178-0.381-0.347-0.206-0.347 0.121 0 0.601 0.426 0.544 0.483-0.0261 0.0262-0.178-0.0352-0.338-0.136zm1.15-0.488c-0.237-0.285-1.51-0.848-1.93-0.854-0.149-2e-3 -0.575-0.082-0.947-0.177l-0.676-0.173 1.89 0.103 0.676 0.276c0.678 0.277 1.03 0.514 1.18 0.809 0.107 0.198-0.0361 0.21-0.197 0.0166zm7.27 34.6c2.11-0.708 5.26-2.15 5.48-2.51l0.128-0.205 0.104-3.74c0.145-5.22 0.271-7.69 0.399-7.81 0.271-0.252 4.65-1.79 4.77-1.68 0.0425 0.0425 0.0359 0.881-0.0148 1.87-0.109 2.13-0.246 5.95-0.328 9.16l-0.059 2.31 0.104 0.194c0.177 0.331 1.65-0.0869 3.58-1.02l1.02-0.493 1e-3 -0.344c7.6e-4 -0.189 0.0407-0.404 0.0888-0.479l0.0874-0.135 3e-3 0.271c2e-3 0.149 0.0376 0.326 0.0801 0.393l0.0773 0.122 0.181-0.097c0.27-0.145 0.309-0.316 0.341-1.5 0.0394-1.45 0.139-2.42 0.239-2.32 0.0459 0.0459 0.0496 0.626 9e-3 1.36-0.118 2.11-0.0834 2.24 0.473 1.88 0.472-0.304 0.589-1.34 0.808-7.19 0.328-8.78 0.514-11.9 1.17-19.8 0.298-3.58 0.436-5.87 0.399-6.63l-0.0305-0.631-1.98 0.018-0.885 0.243c-1.73 0.476-3.66 1.31-3.85 1.68-0.128 0.24-0.292 2.14-0.678 7.85-0.176 2.6-0.338 4.82-0.36 4.92l-0.0404 0.186-2.28 0.83c-1.25 0.457-2.31 0.829-2.35 0.828-0.217-6e-3 0.335-6.03 1.12-12.2 0.198-1.56 0.383-3.07 0.411-3.34l0.0506-0.499-0.295-0.245-0.698 0.109c-1.24 0.194-4.31 1.33-4.73 1.75-0.0777 0.0777-0.205 0.588-0.305 1.22-0.0946 0.6-0.205 1.09-0.245 1.09s-0.0488-0.132-0.0193-0.293c0.0951-0.52 0.192-1.6 0.148-1.65-0.299-0.299-0.643 0.177-0.695 0.96-0.0838 1.28-0.215 2.39-0.306 2.61l-0.0919 0.219 0.056-1.17c0.0308-0.645 0.091-1.27 0.134-1.38 0.247-0.662 0.0423-0.927-0.46-0.595l-0.364 0.241-0.0854 0.326c-0.047 0.18-0.13 0.732-0.184 1.23-1.24 11.4-2.07 24.2-2.08 32-1e-3 2.71-0.0732 2.64 1.95 1.96zm-0.787-1.7c-0.0509-1.03 0.0224-3.04 0.111-3.04 0.044 0 0.0789 0.717 0.0776 1.59-2e-3 1.63 0.0102 1.7 0.32 1.76l0.18 0.0358-0.289 0.153c-0.159 0.0843-0.307 0.153-0.328 0.153-0.0219 0-0.0543-0.294-0.0721-0.654zm1.32 0.0648c0.0963-0.0728 0.259-0.131 0.361-0.129l0.186 3e-3 -0.225 0.129c-0.124 0.0709-0.286 0.129-0.361 0.129l-0.135 3.2e-4zm1.76-0.627c0-0.0613 0.949-0.528 1.47-0.725 0.27-0.101 0.474-0.245 0.533-0.374 0.117-0.257 0.217-0.267 0.292-0.0302 0.0823 0.259 3.1e-4 0.341-0.487 0.486-0.239 0.071-0.511 0.174-0.605 0.228-0.453 0.263-1.21 0.523-1.21 0.416zm1.56-1.7c0.0196-0.0593 0.119-0.15 0.222-0.202 0.102-0.0515 0.252-0.149 0.333-0.216 0.171-0.142 0.26-0.0916 0.185 0.105-0.0641 0.167-0.793 0.475-0.74 0.313zm11.4-1.34c0.0336-0.118 0.0863-0.41 0.117-0.648 0.0308-0.238 0.0902-0.399 0.132-0.357 0.12 0.12-0.0379 1.13-0.184 1.18l-0.126 0.0421zm-2.05-30.9c-0.115-0.187 0.722-0.652 1.16-0.643 0.126 3e-3 -0.323 0.354-0.455 0.357-0.0553 1e-3 -0.204 0.0832-0.33 0.182-0.256 0.201-0.304 0.215-0.373 0.103zm8.02 32.5c1.25-0.278 3.64-1.09 5.14-1.74l0.809-0.352 0.0619-0.222c0.034-0.122 0.0662-1.34 0.0715-2.7 0.0107-2.76 0.157-8.02 0.241-8.68l0.0544-0.426 1.23-0.402c1.74-0.568 3.54-1.07 3.6-1.01 0.0285 0.0285-0.0166 1.4-0.1 3.05s-0.193 4.69-0.243 6.76l-0.0911 3.77 0.0978 0.183c0.162 0.303 0.976 0.179 2.98-0.454 1.19-0.374 1.26-0.425 1.26-0.904 0-0.145 0.045-0.263 0.1-0.263 0.0603 0 0.0785 0.0853 0.046 0.215-0.0321 0.128-6e-3 0.255 0.064 0.313l0.118 0.0979 0.411-0.288-0.0273-0.643c-0.015-0.353 0.0292-0.947 0.0983-1.32l0.126-0.676 0.0561 0.271c0.0308 0.149 0.0296 0.372-3e-3 0.496-0.0323 0.124-0.055 0.57-0.0503 0.991l8e-3 0.765 0.137 0.0267c0.0754 0.0147 0.217-0.0321 0.316-0.104l0.179-0.131 0.013-0.706c0.0235-1.28 0.113-2.91 0.178-3.25l0.0644-0.339 0.0736 0.271c0.0405 0.149 0.0517 0.34 0.0248 0.425-0.069 0.219-0.0752 3.4-7e-3 3.47 0.0908 0.0908 0.772-0.254 0.816-0.413 0.157-0.561 0.464-5.58 0.731-11.9 0.359-8.55 1.04-16 1.98-21.7l0.214-1.31-0.181-0.339-0.825 0.0485c-1.77 0.104-6.49 1.82-6.96 2.53-0.222 0.339-0.692 5.55-1.09 12.1-0.0742 1.22 3e-5 1.13-1.38 1.58-1.45 0.471-3.41 1.08-3.49 1.08-0.0671 0-0.0378-0.435 0.285-4.24 0.25-2.95 1-10.6 1.08-10.9 0.174-0.835-1.8-0.507-4.22 0.701l-0.607 0.303-0.111 0.441-0.309-0.193-0.401 0.202c-0.599 0.302-1.51 0.971-1.57 1.15-0.815 2.6-2.27 25.7-2.06 32.8 0.0546 1.91 0.0252 1.86 1.06 1.63zm0.015-1.29c-0.0908-0.0908-0.0694-1.41 0.0252-1.56l0.0826-0.131 0.0503 0.221c0.0277 0.121 0.0609 0.424 0.0738 0.672l0.0236 0.451 0.203 0.0288c0.287 0.0408 0.252 0.162-0.0811 0.278-0.336 0.117-0.303 0.114-0.377 0.0389zm0.828-1.4c-0.0196-0.0641-0.0125-0.319 0.0158-0.568l0.0515-0.451 0.0608 0.225c0.148 0.55 0.0271 1.3-0.128 0.793zm-0.828-0.671c-0.0261-0.0918-0.018-0.431 0.018-0.753l0.0655-0.586 0.0732 0.662c0.0701 0.634-0.0372 1.1-0.157 0.677zm1.67-29.3c0.0565-0.124 0.161-0.225 0.232-0.225 0.388 0 1.04-1.08 0.802-1.32-0.0808-0.0808-0.78 0.513-0.78 0.663 0 0.205-0.221 0.0891-0.254-0.133l-0.0285-0.194 0.299-0.185c0.164-0.102 0.401-0.209 0.525-0.24 0.124-0.0303 0.317-0.138 0.428-0.239 0.238-0.216 0.247-0.151 0.0743 0.513-0.186 0.713-0.904 1.59-1.3 1.59h-0.0983zm11.9-2.19c0-0.121 0.208-0.289 0.358-0.289 0.0776 0 0.296-0.0832 0.486-0.185 0.51-0.273 0.302-0.0358-0.241 0.276-0.488 0.28-0.602 0.317-0.602 0.197zm0.0327-0.965c-0.087-0.227 0.175-0.366 1.9-1 0.882-0.328 0.297 0.123-0.671 0.517-0.353 0.144-0.76 0.345-0.904 0.448l-0.263 0.187zm10.7 29.4c0.99-0.37 1.99-1.54 2.33-2.73l0.155-0.536-0.0888-1.56-0.253-0.563c-1.11-2.46-4.57-1.84-5.69 1.03l-0.246 0.627-0.01 1.98 0.217 0.442c0.691 1.4 2.02 1.89 3.59 1.3zm8.25-0.733c0.998-0.491 1.73-1.38 2.08-2.52l0.19-0.625-0.0386-0.829c-0.0614-1.32-0.626-2.25-1.63-2.68l-0.471-0.204-1.32 6e-3 -0.559 0.275c-1.11 0.545-1.87 1.5-2.19 2.72l-0.151 0.586 0.0489 0.676c0.1 1.39 0.52 2.11 1.53 2.62l0.562 0.284 1.46-0.0714zm8.02-0.806c2.83-1.29 2.66-6.3-0.235-6.83-3.7-0.67-5.57 5.28-2.17 6.91l0.464 0.221 1.44-0.0726z" fill="#191e02"/></svg>
