<svg width="210mm" height="297mm" version="1.1" viewBox="0 0 210 297" xmlns="http://www.w3.org/2000/svg"><path d="m59.9 180c-0.126-0.0707-0.272-0.252-0.324-0.403-0.0526-0.151-0.0957-0.388-0.0957-0.526v-0.252l-0.738 0.111-0.233-0.184c-0.134-0.106-0.257-0.308-0.288-0.476l-0.0548-0.292-0.247-0.102c-0.136-0.0563-0.307-0.194-0.381-0.307-0.0865-0.132-0.134-0.405-0.134-0.771v-0.566l-0.346-0.139c-0.191-0.0762-0.443-0.253-0.56-0.393-0.118-0.14-0.258-0.418-0.313-0.618l-0.0996-0.364 0.0499-5.02c0.0274-2.76 0.0902-5.87 0.139-6.92 0.0492-1.05 0.13-2.68 0.18-3.63 0.0499-0.952 0.169-2.88 0.264-4.28 0.0955-1.4 0.25-3.53 0.344-4.71 0.0936-1.19 0.345-3.91 0.559-6.06s0.541-5.09 0.727-6.55l0.339-2.66 0.162-0.28c0.0896-0.154 0.355-0.386 0.591-0.516 0.236-0.13 0.48-0.237 0.542-0.238 0.0625-1e-3 0.321-0.0966 0.573-0.212l0.46-0.21 0.093-0.244c0.0512-0.134 0.144-0.305 0.205-0.38 0.0617-0.075 0.209-0.199 0.328-0.275 0.119-0.0765 0.528-0.255 0.908-0.396 0.381-0.141 1.18-0.44 1.77-0.664 0.595-0.224 1.7-0.619 2.47-0.877s1.67-0.546 2.03-0.639c0.354-0.0929 0.774-0.169 0.933-0.169 0.159 0 0.44 0.0768 0.624 0.171 0.184 0.0938 0.416 0.274 0.516 0.401s0.226 0.379 0.28 0.561l0.099 0.331-0.176 1.09 0.249 0.284c0.137 0.156 0.252 0.37 0.256 0.476 0.0042 0.105 0.0014 0.376-0.0064 0.602l-0.0141 0.41 0.301 0.178c0.166 0.0977 0.363 0.308 0.439 0.468 0.0758 0.16 0.138 0.401 0.137 0.537-3.41e-4 0.136-0.174 1.37-0.386 2.75-0.212 1.38-0.511 3.47-0.665 4.65-0.154 1.18-0.25 2.17-0.215 2.21 0.0351 0.0351 0.336-0.029 0.67-0.142 0.333-0.113 0.626-0.238 0.65-0.277 0.0242-0.0392 0.12-0.704 0.213-1.48 0.0928-0.773 0.268-2.22 0.39-3.22 0.122-0.999 0.395-3.04 0.608-4.54 0.225-1.59 0.363-2.83 0.33-2.98-0.0309-0.145-0.193-0.614-0.36-1.04s-0.461-1.05-0.653-1.38c-0.192-0.333-0.635-1.04-0.984-1.56-0.349-0.526-0.634-1.01-0.634-1.07 0-0.0768 0.077-0.0994 0.238-0.0699 0.131 0.024 0.705 0.145 1.28 0.269l1.04 0.225 0.959 6.9e-4c0.674 4.8e-4 1.16-0.0501 1.63-0.17 0.368-0.094 0.909-0.297 1.2-0.45 0.335-0.175 0.794-0.54 1.23-0.976 0.431-0.434 0.829-0.942 1.06-1.34 0.2-0.356 0.499-1.06 0.664-1.56 0.165-0.5 0.368-1.3 0.452-1.77l0.152-0.865 0.0122-1.97c0.0067-1.08 0.0368-1.99 0.0669-2.02s0.709 0.509 1.51 1.2 1.97 1.64 2.59 2.11c0.628 0.47 1.56 1.11 2.07 1.41s1.26 0.7 1.67 0.876c0.408 0.175 1.07 0.398 1.48 0.494 0.404 0.0963 0.973 0.2 1.26 0.23 0.29 0.0302 0.811 0.0109 1.16-0.0428s0.847-0.172 1.11-0.264c0.266-0.0914 0.723-0.322 1.02-0.513s0.784-0.609 1.09-0.928c0.307-0.32 0.727-0.831 0.933-1.14 0.206-0.305 0.58-0.987 0.831-1.52 0.251-0.529 0.595-1.42 0.763-1.97s0.368-1.27 0.443-1.6c0.0753-0.324 0.211-1.1 0.301-1.71 0.09-0.619 0.19-1.39 0.222-1.71 0.037-0.368 0.0974-0.584 0.164-0.584 0.0578 0 0.55 0.553 1.09 1.23 0.543 0.676 1.47 1.73 2.07 2.35 0.595 0.615 1.4 1.37 1.79 1.67 0.388 0.303 1.03 0.726 1.44 0.94s0.953 0.465 1.23 0.559c0.273 0.0938 0.814 0.213 1.2 0.264l0.707 0.094 0.873-0.131c0.48-0.0719 1.14-0.232 1.47-0.355s0.889-0.384 1.25-0.578c0.357-0.194 1.02-0.607 1.47-0.917 0.452-0.31 1.31-0.964 1.9-1.45 0.595-0.489 1.98-1.75 3.07-2.8s2.04-1.91 2.11-1.91l0.118-8e-5 -0.059 0.714c-0.0324 0.393-0.0606 1.53-0.0625 2.53l-3e-3 1.82 0.141 0.857c0.0775 0.471 0.24 1.15 0.361 1.51 0.121 0.362 0.35 0.892 0.51 1.18s0.519 0.739 0.798 1.01 0.675 0.57 0.879 0.674c0.204 0.104 0.67 0.248 1.03 0.32 0.439 0.0865 0.876 0.112 1.29 0.0769 0.347-0.0295 0.964-0.15 1.37-0.268 0.407-0.118 1.15-0.409 1.65-0.646s1.23-0.612 1.61-0.833 1.27-0.781 1.97-1.25c0.697-0.465 1.87-1.28 2.6-1.82 0.73-0.536 1.56-1.14 1.83-1.35 0.278-0.205 0.541-0.373 0.584-0.373 0.0429 0 0.0779 0.0441 0.0779 0.098s-0.134 0.648-0.297 1.32c-0.163 0.672-0.344 1.55-0.401 1.94-0.0571 0.398-0.0846 1.09-0.0611 1.54 0.0234 0.448 0.0681 0.841 0.0992 0.872s0.416-0.0301 0.855-0.136c0.439-0.106 1.03-0.23 1.32-0.275 0.285-0.0453 0.928-0.0823 1.43-0.0822 0.5 8e-5 1.16 0.0405 1.46 0.0898s0.903 0.202 1.33 0.34l0.778 0.25 0.875-0.391c0.481-0.215 1.44-0.685 2.13-1.04 0.69-0.359 1.98-1.04 2.86-1.51 0.884-0.47 1.65-0.855 1.71-0.855 0.0557 0 0.101 0.0366 0.101 0.0813s-0.477 0.658-1.06 1.36c-0.583 0.705-1.38 1.69-1.76 2.19-0.386 0.499-0.921 1.24-1.19 1.64-0.268 0.403-0.487 0.786-0.487 0.852 0 0.0654 0.234 0.469 0.52 0.896 0.286 0.428 0.671 1.1 0.855 1.48 0.184 0.389 0.423 0.951 0.531 1.25 0.108 0.299 0.238 0.53 0.289 0.513 0.0509-0.017 0.164-0.281 0.251-0.587 0.0872-0.306 0.512-1.7 0.944-3.11 0.432-1.4 0.864-2.77 0.96-3.03 0.0958-0.262 0.25-0.584 0.342-0.716 0.0924-0.132 0.311-0.312 0.485-0.4 0.174-0.0883 0.45-0.189 0.612-0.224 0.164-0.0353 0.39-0.176 0.508-0.316 0.117-0.139 0.319-0.308 0.449-0.375 0.13-0.0673 0.544-0.161 0.92-0.208 0.376-0.047 1.42-0.132 2.33-0.189l1.64-0.103 1.51 0.0966c0.833 0.0532 1.93 0.171 2.43 0.263 0.506 0.0913 1.1 0.245 1.32 0.341 0.239 0.106 0.468 0.289 0.577 0.462l0.181 0.287-0.0792 0.974 0.364 0.257c0.2 0.141 0.43 0.395 0.51 0.564 0.0802 0.169 0.146 0.402 0.146 0.517s-0.0635 0.396-0.141 0.623l-0.141 0.414 0.23 0.185c0.152 0.122 0.249 0.303 0.284 0.531 0.0304 0.196 0.16 0.469 0.3 0.63l0.246 0.284v0.35 0.35l-1.07 2.39c-0.59 1.32-1.56 3.52-2.15 4.9-0.594 1.38-1.42 3.31-1.83 4.28-0.414 0.975-1.38 3.29-2.14 5.15-0.762 1.86-1.93 4.74-2.59 6.4s-1.42 3.59-1.68 4.28c-0.261 0.69-0.533 1.34-0.603 1.45s-0.25 0.273-0.399 0.363c-0.169 0.103-0.524 0.186-0.947 0.223-0.372 0.0325-0.677 0.0915-0.677 0.131 0 0.0397 0.0731 0.258 0.163 0.486 0.0894 0.228 0.21 0.648 0.268 0.933 0.0581 0.285 0.298 0.908 0.533 1.38l0.427 0.865 0.203 1.44-0.284 1.67-0.432 0.87c-0.295 0.593-0.605 1.06-0.974 1.46-0.298 0.325-0.796 0.784-1.11 1.02s-0.844 0.561-1.18 0.722c-0.339 0.161-0.924 0.374-1.3 0.474-0.454 0.121-0.956 0.183-1.5 0.185-0.501 3e-3 -1.04-0.0522-1.38-0.14-0.305-0.0793-0.773-0.254-1.04-0.389-0.266-0.134-0.671-0.399-0.899-0.587-0.228-0.189-0.574-0.553-0.769-0.809-0.195-0.256-0.49-0.758-0.656-1.12s-0.456-0.824-0.645-1.04c-0.189-0.214-0.478-0.657-0.643-0.983s-0.375-0.888-0.467-1.25c-0.0918-0.359-0.167-0.935-0.167-1.28 0-0.345 0.0583-0.933 0.13-1.31 0.0739-0.387 0.28-0.991 0.479-1.41 0.192-0.401 0.522-0.97 0.732-1.26 0.21-0.295 0.588-0.722 0.84-0.95s0.7-0.568 0.995-0.754c0.295-0.187 0.558-0.414 0.584-0.505 0.0257-0.091 0.0688-0.243 0.0958-0.339 0.0303-0.107 8e-3 -0.173-0.0592-0.173-0.0596 0-0.274-0.0802-0.477-0.178l-0.368-0.178-0.221-0.444c-0.122-0.244-0.221-0.574-0.221-0.731 0-0.158 0.238-1.22 0.528-2.37 0.29-1.14 0.504-2.1 0.475-2.13-0.0293-0.0293-0.452 0.216-0.939 0.546-0.487 0.33-1.22 0.93-1.63 1.33l-0.746 0.735-0.35 0.735c-0.193 0.404-0.468 1.12-0.613 1.6-0.145 0.476-0.36 1.23-0.48 1.68-0.119 0.446-0.286 0.89-0.371 0.985-0.085 0.0955-0.28 0.227-0.433 0.292-0.153 0.0648-0.416 0.118-0.584 0.118-0.168 0-0.306 0.0151-0.306 0.0335 0 0.0185 0.118 0.286 0.263 0.596 0.145 0.309 0.349 0.907 0.454 1.33 0.105 0.422 0.319 0.988 0.474 1.26 0.156 0.27 0.355 0.699 0.443 0.955 0.088 0.256 0.209 0.755 0.269 1.11 0.0655 0.388 0.0873 0.921 0.0549 1.34-0.0295 0.384-0.132 1.01-0.228 1.39-0.0961 0.378-0.332 1.02-0.523 1.42s-0.531 0.985-0.754 1.3c-0.223 0.313-0.652 0.811-0.953 1.11-0.301 0.297-0.798 0.719-1.1 0.938-0.307 0.219-0.879 0.528-1.27 0.688-0.393 0.159-0.981 0.336-1.31 0.392-0.34 0.0587-0.987 0.0845-1.51 0.0603l-0.92-0.0422-0.519-0.198c-0.285-0.109-0.761-0.351-1.06-0.537s-0.711-0.531-0.922-0.765c-0.26-0.289-0.451-0.426-0.594-0.426-0.116 0-0.445 0.117-0.732 0.26-0.303 0.151-0.71 0.46-0.972 0.737-0.269 0.285-0.567 0.728-0.739 1.1-0.159 0.344-0.352 0.872-0.43 1.17-0.0777 0.301-0.179 0.962-0.225 1.47-0.0463 0.508-0.0583 1.58-0.0267 2.37 0.0349 0.882 0.0258 1.45-0.0234 1.45-0.0445 0-0.274-0.199-0.51-0.442s-0.916-0.893-1.51-1.44c-0.595-0.551-1.39-1.23-1.77-1.52s-1.08-0.701-1.56-0.927c-0.476-0.226-1.15-0.473-1.49-0.549-0.342-0.0758-0.891-0.138-1.22-0.138-0.328 0-0.904 0.0775-1.28 0.172-0.376 0.0947-1.03 0.346-1.46 0.559-0.428 0.213-1.03 0.581-1.35 0.817-0.312 0.237-0.877 0.735-1.25 1.11s-0.924 0.968-1.21 1.32c-0.29 0.356-0.782 1.02-1.09 1.47s-0.789 1.19-1.06 1.64c-0.273 0.451-0.785 1.37-1.14 2.05-0.353 0.675-0.699 1.27-0.768 1.33l-0.125 0.104-0.0366-0.118c-0.0201-0.0648-0.101-0.566-0.179-1.11s-0.242-1.4-0.363-1.9c-0.121-0.5-0.358-1.25-0.526-1.67-0.168-0.42-0.489-1.04-0.713-1.38-0.224-0.341-0.646-0.845-0.936-1.12-0.303-0.287-0.764-0.611-1.08-0.759-0.304-0.142-0.84-0.319-1.19-0.394l-0.641-0.135-0.686 0.0581c-0.377 0.0319-1.02 0.154-1.43 0.271-0.408 0.117-1.07 0.374-1.47 0.57-0.399 0.196-1.02 0.55-1.38 0.786s-1.06 0.759-1.55 1.16c-0.49 0.403-1.41 1.24-2.04 1.87-0.63 0.626-1.75 1.8-2.48 2.61-0.734 0.809-1.37 1.48-1.42 1.49-0.0594 0.0159-0.0891-0.705-0.0891-2.16v-2.19l-0.153-0.597c-0.0842-0.328-0.276-0.854-0.426-1.17-0.167-0.349-0.46-0.758-0.755-1.05-0.265-0.265-0.699-0.584-0.963-0.708-0.264-0.125-0.748-0.273-1.07-0.33-0.344-0.06-0.862-0.0808-1.23-0.0495-0.351 0.0297-0.709 0.0918-0.796 0.138-0.106 0.0567-0.177 0.231-0.217 0.535l-0.0598 0.451-0.319 0.318c-0.184 0.183-0.54 0.4-0.838 0.512-0.285 0.107-0.637 0.214-0.781 0.238-0.175 0.0291-0.326 0.141-0.456 0.34-0.109 0.166-0.355 0.369-0.56 0.462-0.201 0.0909-1.24 0.504-2.31 0.918-1.07 0.414-2.45 0.946-3.07 1.18-0.619 0.236-1.27 0.435-1.46 0.441l-0.333 0.012-0.503-0.563v-0.698l-0.254-0.0885c-0.14-0.0487-0.315-0.182-0.389-0.295-0.0867-0.132-0.135-0.403-0.135-0.751v-0.544l-0.829-0.38-0.426-0.743 0.0162-1.12c0.0089-0.619 0.156-3.13 0.326-5.58s0.334-4.65 0.364-4.88l0.0543-0.424-0.221 0.0555c-0.122 0.0305-0.395 0.13-0.608 0.221l-0.386 0.166-0.0542 0.635c-0.0298 0.349-0.0927 1.36-0.14 2.24-0.047 0.88-0.125 2.77-0.172 4.2s-0.13 3.8-0.183 5.28l-0.0958 2.68-0.118 0.228c-0.0649 0.125-0.232 0.324-0.37 0.441-0.139 0.117-0.442 0.263-0.674 0.326-0.232 0.0623-0.518 0.203-0.637 0.312-0.119 0.109-1.25 0.605-2.51 1.1-1.26 0.497-2.51 0.972-2.77 1.06-0.262 0.0844-0.701 0.247-0.975 0.362-0.275 0.115-0.625 0.226-0.779 0.247-0.156 0.0215-0.38-0.0182-0.508-0.0902zm-1.98-12.8c0.052-1.59 0.132-3.48 0.177-4.2 0.0452-0.714 0.14-2.33 0.21-3.59 0.0704-1.26 0.149-2.57 0.175-2.9 0.026-0.333 0.145-1.89 0.264-3.46 0.119-1.57 0.334-4.18 0.477-5.8 0.143-1.62 0.315-3.47 0.382-4.11 0.0667-0.642 0.166-1.81 0.22-2.6 0.0541-0.785 0.0854-1.6 0.0696-1.82l-0.0288-0.389-0.108 0.692c-0.0592 0.381-0.242 1.98-0.407 3.55-0.165 1.57-0.398 3.94-0.519 5.28-0.121 1.33-0.337 4.15-0.479 6.27-0.142 2.12-0.28 4.18-0.306 4.59-0.026 0.404-0.104 2.27-0.174 4.15-0.0698 1.88-0.12 4.41-0.112 5.62 0.0079 1.21 0.0258 2.07 0.0396 1.9 0.0139-0.167 0.0678-1.61 0.12-3.2zm14.7-3.72c0.0503-0.404 0.151-1.36 0.223-2.12 0.0723-0.761 0.169-2.12 0.215-3.03 0.046-0.903 0.108-1.78 0.138-1.95l0.054-0.305-0.102 0.0963c-0.061 0.0573-0.186 0.951-0.308 2.21-0.113 1.16-0.266 3.02-0.34 4.14-0.0743 1.12-0.153 2.42-0.174 2.9l-0.0392 0.865 0.121-1.04c0.0668-0.571 0.163-1.37 0.213-1.77zm45.1-6.49c0.214-1.31 0.489-2.96 0.61-3.68 0.121-0.714 0.316-1.96 0.434-2.77 0.118-0.809 0.237-1.68 0.265-1.95 0.0357-0.332 0.0236-0.45-0.04-0.389-0.0501 0.0476-0.19 0.69-0.311 1.43-0.121 0.738-0.378 2.37-0.572 3.63-0.193 1.26-0.409 2.68-0.48 3.16-0.0709 0.476-0.204 1.33-0.295 1.9-0.0913 0.571-0.187 1.29-0.213 1.6l-0.0469 0.562 0.13-0.562c0.0714-0.309 0.305-1.63 0.519-2.94zm-12.4 2.6c0.0399-0.257 0.0313-0.36-0.0252-0.303-0.0471 0.0476-0.108 0.301-0.136 0.562-0.0323 0.304-0.0232 0.413 0.0252 0.303 0.0416-0.0952 0.103-0.348 0.136-0.562zm23.1-3.11c0.167-0.439 0.505-1.09 0.75-1.44s0.664-0.844 0.93-1.09c0.266-0.244 0.709-0.59 0.984-0.768 0.275-0.178 0.783-0.442 1.13-0.586 0.359-0.149 0.924-0.299 1.32-0.348 0.379-0.0474 0.864-0.0699 1.08-0.05l0.389 0.0362-0.346-0.121c-0.19-0.0667-0.603-0.124-0.916-0.128-0.314-4e-3 -0.87 0.0701-1.24 0.164-0.367 0.0938-0.947 0.315-1.29 0.492l-0.623 0.322-1.58 1.58-0.447 0.904c-0.3 0.606-0.489 1.13-0.575 1.58-0.0702 0.373-0.123 0.898-0.117 1.17l0.0106 0.49 0.118-0.703c0.0648-0.386 0.255-1.06 0.422-1.5zm15.4-0.774c0.222-0.441 0.51-0.824 0.942-1.25 0.342-0.339 0.875-0.764 1.18-0.943 0.309-0.18 0.821-0.404 1.14-0.499 0.318-0.095 0.801-0.214 1.08-0.265 0.274-0.0506 0.773-0.0677 1.11-0.038 0.42 0.0371 0.569 0.0271 0.475-0.032-0.0751-0.0473-0.406-0.13-0.735-0.183-0.331-0.0537-0.845-0.0713-1.15-0.0394-0.303 0.0317-0.761 0.13-1.02 0.219-0.258 0.0887-0.711 0.289-1.01 0.446-0.317 0.168-0.805 0.551-1.19 0.934-0.357 0.357-0.781 0.874-0.942 1.15-0.162 0.275-0.366 0.761-0.454 1.08-0.0883 0.318-0.157 0.813-0.154 1.1l7e-3 0.521 0.199-0.782c0.109-0.43 0.343-1.07 0.519-1.42zm-37.3-2.99c0.168-0.999 0.46-2.61 0.647-3.59s0.502-2.63 0.697-3.68 0.568-3.01 0.829-4.37c0.26-1.36 0.548-2.85 0.639-3.33 0.0912-0.476 0.325-1.74 0.519-2.81 0.194-1.07 0.408-2.24 0.475-2.6 0.0672-0.357 0.242-1.39 0.389-2.29 0.147-0.904 0.308-1.85 0.358-2.1l0.0906-0.459 0.404-0.178c0.222-0.0979 0.498-0.222 0.613-0.277 0.115-0.0543 0.225-0.147 0.245-0.207 0.0197-0.0595-0.0173-0.108-0.0821-0.108s-0.382 0.111-0.705 0.248-0.62 0.282-0.661 0.324c-0.0408 0.0423-0.309 1.38-0.597 2.97-0.287 1.59-0.619 3.44-0.738 4.11s-0.663 3.66-1.21 6.66-1.1 6-1.22 6.66-0.358 1.93-0.519 2.81c-0.162 0.88-0.431 2.42-0.598 3.42s-0.364 2.24-0.438 2.75c-0.0733 0.513-0.129 0.98-0.125 1.04 5e-3 0.058 0.159-0.634 0.344-1.54 0.184-0.904 0.473-2.46 0.641-3.46zm-23.1-1.34c0.0475-0.404 0.146-1.14 0.219-1.64 0.0729-0.5 0.175-1.24 0.227-1.64s0.25-1.61 0.44-2.68c0.19-1.07 0.597-3.02 0.905-4.34s0.717-2.97 0.907-3.68c0.191-0.708 0.542-1.93 0.781-2.72 0.239-0.785 0.482-1.52 0.539-1.64l0.104-0.212 0.562-0.164c0.309-0.09 0.599-0.199 0.644-0.242 0.0518-0.0497 0.0495-0.112-0.0063-0.167-0.0604-0.0604-0.305-0.0122-0.77 0.151l-0.681 0.24-0.204 0.519c-0.112 0.285-0.451 1.34-0.754 2.34-0.303 0.999-0.747 2.58-0.987 3.5-0.241 0.928-0.651 2.76-0.911 4.07-0.261 1.31-0.571 3.04-0.69 3.85-0.119 0.809-0.275 2.04-0.347 2.73-0.0724 0.69-0.172 1.78-0.221 2.42-0.0492 0.64-0.084 1.73-0.0772 2.42l0.0123 1.26 0.111-1.82c0.0613-0.999 0.15-2.15 0.198-2.55zm10.6 3.84c0.155-0.0631 0.495-0.317 0.756-0.563 0.261-0.247 0.675-0.762 0.921-1.14 0.246-0.383 0.611-1.05 0.812-1.48 0.201-0.431 0.579-1.37 0.841-2.08 0.262-0.714 0.597-1.73 0.743-2.25 0.147-0.523 0.441-1.67 0.653-2.56 0.212-0.883 0.503-2.23 0.647-2.98 0.143-0.758 0.397-2.22 0.564-3.24 0.167-1.02 0.362-2.27 0.433-2.77 0.0714-0.5 0.19-1.38 0.264-1.95 0.0738-0.571 0.192-1.62 0.264-2.33 0.0712-0.708 0.129-1.49 0.129-1.75v-0.461l0.185-0.172c0.102-0.0946 0.31-0.232 0.464-0.305 0.154-0.0729 0.329-0.193 0.39-0.266 0.0609-0.0734 0.0853-0.159 0.0542-0.19-0.0311-0.0311-0.292 0.0558-0.579 0.193-0.287 0.137-0.563 0.299-0.614 0.36-0.0502 0.0605-0.146 0.646-0.213 1.3-0.0667 0.655-0.278 2.45-0.469 3.98-0.191 1.53-0.481 3.6-0.646 4.59-0.164 0.989-0.474 2.67-0.688 3.73s-0.564 2.6-0.776 3.42c-0.213 0.818-0.578 2.07-0.811 2.78-0.234 0.714-0.657 1.8-0.942 2.42-0.284 0.619-0.706 1.42-0.938 1.77-0.232 0.357-0.612 0.835-0.846 1.06-0.233 0.228-0.605 0.505-0.826 0.615-0.221 0.111-0.558 0.232-0.748 0.269l-0.346 0.0678 0.216 0.0649c0.119 0.0357 0.353 0.0444 0.519 0.0195s0.43-0.097 0.585-0.16zm36.5-7.11c0.0789-0.369 0.262-1.08 0.406-1.58 0.144-0.5 0.458-1.51 0.697-2.25 0.239-0.738 0.66-1.79 0.936-2.34s0.602-1.15 0.726-1.33c0.124-0.182 0.201-0.354 0.172-0.383-0.029-0.0283-0.158 0.074-0.286 0.227-0.129 0.153-0.379 0.523-0.556 0.822s-0.511 1.03-0.742 1.62-0.576 1.65-0.766 2.34c-0.19 0.69-0.457 1.72-0.594 2.29-0.137 0.571-0.261 1.09-0.277 1.15-0.0155 0.0595 0.01 0.108 0.0559 0.108 0.0463 0 0.149-0.302 0.228-0.67zm15.6-0.8c0.219-0.738 0.715-2.45 1.1-3.81 0.389-1.36 0.813-2.87 0.944-3.37s0.454-1.65 0.72-2.55 0.683-2.34 0.929-3.2c0.246-0.856 0.672-2.34 0.948-3.29 0.275-0.952 0.939-3.23 1.47-5.06 0.536-1.83 1.06-3.64 1.17-4.02 0.106-0.381 0.278-0.973 0.383-1.32 0.133-0.433 0.242-0.64 0.357-0.676 0.0911-0.0289 0.166-0.0889 0.166-0.133 0-0.0444-0.0704-0.0807-0.156-0.0807-0.0861 0-0.219 0.0487-0.295 0.108-0.076 0.0595-0.373 0.867-0.66 1.8-0.287 0.928-0.736 2.39-0.997 3.24-0.261 0.856-0.69 2.32-0.954 3.24-0.263 0.928-0.715 2.5-1 3.5-0.289 0.999-0.938 3.32-1.44 5.15-0.504 1.83-1.26 4.6-1.68 6.14-0.421 1.55-0.885 3.28-1.03 3.85s-0.32 1.25-0.388 1.51c-0.0674 0.258-0.09 0.433-0.0503 0.389 0.0398-0.044 0.251-0.683 0.47-1.42zm-76.4 0.1c0.995-0.373 2.33-0.866 2.96-1.1 0.63-0.23 1.15-0.45 1.15-0.489 0-0.0397-0.0696-0.0721-0.155-0.0721-0.0851 0-0.504 0.12-0.93 0.267-0.426 0.147-1.69 0.599-2.81 1s-2.1 0.774-2.19 0.818c-0.0846 0.0448-0.131 0.118-0.103 0.164 0.0279 0.0452 0.1 0.0822 0.161 0.0822 0.0606 0 0.925-0.305 1.92-0.678zm4.47-2.62c0.0348-0.258 0.201-1.62 0.37-3.02s0.462-3.68 0.652-5.06 0.442-3.17 0.56-3.98 0.215-1.52 0.215-1.58c0-0.0557 0.205-0.198 0.456-0.317s0.533-0.197 0.627-0.173c0.103 0.0256 0.274-0.042 0.431-0.17 0.169-0.138 0.229-0.24 0.173-0.293-0.0548-0.0516-0.398 0.0333-0.937 0.231-0.468 0.172-0.883 0.371-0.922 0.443-0.0393 0.0716-0.21 1.03-0.379 2.12-0.169 1.09-0.369 2.46-0.444 3.03-0.075 0.571-0.292 2.26-0.483 3.76-0.19 1.5-0.402 3.21-0.47 3.81-0.0681 0.595-0.125 1.23-0.126 1.41-0.0012 0.227 0.0324 0.32 0.106 0.296 0.0595-0.0197 0.137-0.247 0.171-0.505zm44.9-5.27c0.64-0.225 1.18-0.453 1.2-0.507 0.0179-0.0538-6e-3 -0.0979-0.0523-0.0979-0.0468 0-0.819 0.257-1.72 0.57-0.897 0.314-1.85 0.648-2.13 0.743-0.274 0.095-0.497 0.202-0.497 0.237 0 0.0353 0.0212 0.0854 0.0471 0.111 0.0259 0.0259 0.483-0.109 1.02-0.301s1.49-0.532 2.13-0.757zm15.4-0.0686c0.309-0.276 0.892-0.769 1.3-1.1 0.404-0.326 1.05-0.859 1.43-1.18 0.381-0.324 0.909-0.834 1.17-1.13 0.265-0.298 0.624-0.74 0.797-0.981 0.173-0.241 0.455-0.734 0.626-1.1l0.312-0.657 0.0496-0.656c0.0315-0.416 0.0177-0.656-0.0376-0.656-0.048 0-0.112 0.177-0.141 0.393-0.0297 0.216-0.157 0.654-0.283 0.973-0.126 0.319-0.424 0.872-0.663 1.23-0.239 0.357-0.613 0.843-0.83 1.08-0.218 0.238-0.728 0.738-1.13 1.11-0.405 0.374-1.11 0.973-1.56 1.33-0.452 0.359-1.03 0.851-1.28 1.09-0.25 0.241-0.454 0.507-0.454 0.592s0.0297 0.154 0.0661 0.154c0.0363 0 0.319-0.226 0.627-0.502zm-13.8-1.7c0.0501-0.238 0.223-1.11 0.385-1.95 0.162-0.833 0.416-2.2 0.565-3.03s0.444-2.47 0.656-3.63c0.211-1.17 0.476-2.56 0.588-3.1 0.112-0.54 0.258-1.02 0.324-1.06 0.0659-0.0429 0.324-0.139 0.572-0.213 0.249-0.0741 0.477-0.174 0.506-0.221 0.0294-0.0476 0.0312-0.109 4e-3 -0.136-0.0273-0.0273-0.294 0.0178-0.593 0.1-0.299 0.0823-0.623 0.201-0.721 0.263l-0.178 0.113-0.189 0.895c-0.104 0.492-0.46 2.39-0.791 4.23-0.331 1.83-0.779 4.36-0.996 5.61-0.216 1.25-0.393 2.4-0.392 2.55l1e-3 0.274 0.0831-0.13c0.0457-0.0714 0.124-0.324 0.174-0.562zm-59-2.99c-0.035-0.0567-0.119-0.0451-0.236 0.0327-0.0999 0.0663-0.198 0.169-0.218 0.229-0.025 0.0751 0.0469 0.0651 0.236-0.0327 0.15-0.0773 0.248-0.18 0.218-0.229zm1.37-0.99c0.249-0.116 0.517-0.211 0.596-0.211 0.0792-4.6e-4 0.527-0.16 0.995-0.356 0.468-0.195 1.22-0.49 1.67-0.655s0.858-0.336 0.903-0.379c0.0444-0.0437 0.0542-0.106 0.0219-0.138-0.0324-0.0324-0.614 0.146-1.29 0.396-0.678 0.25-1.74 0.654-2.36 0.897s-1.15 0.482-1.19 0.532c-0.035 0.05-0.061 0.227-0.0578 0.394l0.0057 0.303 0.25-0.572zm4.79-1.52c0.0906-0.1 0.428-0.3 0.749-0.444 0.321-0.144 0.584-0.295 0.584-0.336 0-0.0412-0.0232-0.0749-0.0516-0.0749s-0.272 0.0637-0.541 0.142c-0.329 0.0952-0.581 0.239-0.77 0.439-0.155 0.163-0.281 0.333-0.281 0.377s0.0329 0.0803 0.0731 0.0803c0.0402 0 0.147-0.0822 0.238-0.183zm22.5-0.42c0.259-0.0999 0.876-0.296 1.37-0.435 0.495-0.139 0.941-0.293 0.989-0.342 0.0486-0.0486 0.066-0.111 0.0386-0.138-0.0274-0.0274-0.258 6e-3 -0.513 0.075-0.255 0.0687-0.95 0.271-1.54 0.449-0.595 0.178-1.13 0.385-1.19 0.459-0.0595 0.074-0.108 0.208-0.108 0.297v0.162l0.243-0.173c0.134-0.0951 0.455-0.255 0.714-0.355zm41-0.287c-0.0667-0.319-0.162-0.648-0.211-0.732l-0.0897-0.152 0.0496 0.303c0.0273 0.167 0.107 0.511 0.177 0.766s0.143 0.448 0.161 0.429c0.0189-0.0189-0.0202-0.295-0.087-0.614zm-53-0.667c0.125-0.412 0.25-0.648 0.39-0.74 0.113-0.0744 0.784-0.291 1.49-0.482 0.706-0.191 1.34-0.378 1.41-0.415 0.0714-0.0376 0.11-0.103 0.0865-0.145-0.0238-0.0424-0.121-0.0663-0.216-0.0531-0.0952 0.0132-0.78 0.182-1.52 0.376-0.742 0.194-1.4 0.382-1.46 0.419-0.0592 0.0366-0.182 0.335-0.273 0.662-0.0912 0.328-0.191 0.709-0.222 0.847-0.0372 0.167-0.0253 0.232 0.0355 0.195 0.0504-0.0311 0.174-0.329 0.275-0.662zm16.2-0.123c0.155-0.078 0.281-0.177 0.281-0.22 0-0.0465-0.114-0.0463-0.281 5.9e-4 -0.155 0.0434-0.388 0.197-0.519 0.341-0.131 0.144-0.238 0.308-0.238 0.364 0 0.0557 0.107 1e-3 0.238-0.121 0.131-0.122 0.364-0.286 0.519-0.364zm36.6-1.38c0.146-0.256 0.266-0.548 0.266-0.649 0-0.101-0.0376-0.184-0.0835-0.184s-0.133 0.0876-0.193 0.195c-0.0603 0.107-0.178 0.37-0.262 0.584-0.084 0.214-0.153 0.418-0.153 0.454-4e-5 0.0357 0.036 0.0649 0.0801 0.0649s0.2-0.209 0.346-0.465zm-47.5-0.4c0.25-0.119 0.454-0.245 0.454-0.281 0-0.036-0.0381-0.0654-0.0848-0.0654s-0.232 0.059-0.413 0.131c-0.18 0.0721-0.379 0.213-0.441 0.312-0.0622 0.0996-0.0809 0.167-0.0416 0.15 0.0393-0.0171 0.276-0.128 0.526-0.247zm-1.06 0.056c0.108-0.0792 0.128-0.136 0.0616-0.177-0.0538-0.0333-0.176-0.0184-0.273 0.0331-0.0962 0.0515-0.175 0.131-0.175 0.177 0 0.0459 0.051 0.0835 0.113 0.0835 0.0623 0 0.185-0.0525 0.273-0.117zm21.1-1.01c0.324-0.145 0.801-0.343 1.06-0.44 0.259-0.097 0.471-0.217 0.471-0.267 0-0.0564-0.106-0.07-0.277-0.0357-0.152 0.0305-0.703 0.244-1.22 0.476s-0.983 0.486-1.03 0.566c-0.0449 0.0803-0.0571 0.21-0.0271 0.288l0.0546 0.142 0.191-0.233c0.105-0.128 0.455-0.351 0.779-0.497zm27.7-0.934c0.335-0.443 0.928-1.16 1.32-1.6 0.39-0.437 1.05-1.09 1.48-1.45 0.423-0.36 1.02-0.832 1.33-1.05 0.309-0.218 0.922-0.575 1.36-0.795 0.44-0.22 1.06-0.499 1.38-0.621s0.955-0.298 1.41-0.392c0.575-0.12 1.19-0.173 2.03-0.178l1.21-7e-3 -0.216-0.0928c-0.121-0.052-0.806-0.0948-1.56-0.0974l-1.34-5e-3 -0.822 0.208c-0.452 0.114-1.19 0.364-1.64 0.556-0.452 0.192-1.15 0.554-1.56 0.805-0.404 0.251-1.05 0.708-1.43 1.02-0.383 0.307-1.03 0.911-1.44 1.34s-1.07 1.22-1.47 1.76c-0.401 0.537-0.794 1.1-0.873 1.25-0.0786 0.152-0.143 0.324-0.143 0.381 0 0.0622 0.0739 0.0378 0.183-0.0606 0.101-0.0906 0.458-0.528 0.793-0.971zm-25.3 0.315c0.0894-0.187 0.243-0.315 0.495-0.411 0.201-0.0766 0.412-0.186 0.47-0.244 0.0577-0.0577 0.084-0.126 0.0584-0.151-0.0256-0.0256-0.264 0.0367-0.53 0.139l-0.484 0.185-0.129 0.379c-0.071 0.208-0.102 0.378-0.0695 0.377 0.0328-1e-3 0.118-0.124 0.189-0.273zm8.31-1.31c0.452-0.177 1.13-0.429 1.51-0.56s0.702-0.286 0.721-0.346c0.0193-0.0595-0.0288-0.108-0.107-0.108-0.0781 0-0.889 0.273-1.8 0.606-0.913 0.333-1.71 0.671-1.77 0.752-0.0595 0.0804-0.108 0.198-0.108 0.262v0.116l0.368-0.2c0.202-0.11 0.738-0.345 1.19-0.522zm2.86-0.81c0.0646-0.0779 0.279-0.211 0.477-0.296 0.198-0.0847 0.385-0.196 0.417-0.248 0.0342-0.0553-0.0128-0.0937-0.115-0.0937-0.0949 0-0.282 0.0415-0.416 0.0923-0.134 0.0508-0.331 0.174-0.438 0.275-0.107 0.1-0.195 0.234-0.195 0.297 0 0.0631 0.0342 0.115 0.0759 0.115 0.0418 0 0.129-0.0637 0.193-0.142zm7.65-0.313c0.0734-0.25 0.166-0.505 0.205-0.566 0.0392-0.0617 0.669-0.266 1.4-0.454s1.37-0.38 1.41-0.427c0.0471-0.0471 0.0611-0.11 0.0312-0.14-0.0299-0.0299-0.358 0.0117-0.73 0.0924-0.371 0.0807-0.993 0.242-1.38 0.358s-0.744 0.259-0.791 0.317c-0.0473 0.058-0.148 0.317-0.225 0.575-0.0762 0.258-0.139 0.521-0.139 0.584 0 0.0627 0.0184 0.114 0.0408 0.114 0.0225 0 0.101-0.204 0.174-0.454zm4.11-1.64c0-0.0377-0.0751-0.0685-0.167-0.0685-0.0918 0-0.228 0.0612-0.303 0.136-0.0748 0.0748-0.136 0.167-0.136 0.206 0 0.0384 0.136 8e-3 0.303-0.0675 0.167-0.0755 0.303-0.168 0.303-0.206zm0.815 0.052c0.0753-0.0289 0.137-0.0873 0.137-0.13 0-0.0425-0.0731-0.0773-0.162-0.0773-0.0893 0-0.211 0.0584-0.27 0.13l-0.108 0.13h0.133c0.0733 0 0.195-0.0236 0.27-0.0525zm25.4-3.51 0.256-0.576 0.359-0.0887c0.197-0.0488 1.27-0.133 2.39-0.187 1.33-0.0642 2.41-0.0712 3.11-0.0202 0.595 0.043 1.12 0.0598 1.16 0.0374 0.0418-0.0225 5e-3 -0.0804-0.0811-0.129-0.0864-0.0483-1.01-0.107-2.04-0.13-1.06-0.0236-2.48 2e-3 -3.25 0.0596-0.751 0.0558-1.47 0.122-1.6 0.147l-0.232 0.0459-0.265 0.694c-0.146 0.382-0.262 0.798-0.259 0.924l6e-3 0.231 0.0937-0.216c0.0515-0.119 0.209-0.475 0.349-0.792zm-12.9 57c-0.145-0.2-1.34-2.05-2.65-4.1l-2.38-3.74 0.0284-0.2c0.0178-0.125 0.0961-0.21 0.209-0.226 0.127-0.0181 0.762 0.446 2.13 1.56 1.07 0.871 2.77 2.28 3.78 3.14l1.83 1.55v0.225c0 0.142-0.104 0.323-0.281 0.49-0.155 0.146-0.682 0.582-1.17 0.969s-0.967 0.704-1.06 0.704c-0.0979 0-0.278-0.152-0.431-0.364zm5.37-5.32c-0.547-0.314-2.46-1.43-4.25-2.47-1.79-1.04-3.28-1.96-3.31-2.03-0.0284-0.0739-4e-3 -0.192 0.0539-0.262 0.0738-0.0889 0.2-0.112 0.419-0.0769 0.173 0.0276 1.26 0.3 2.43 0.606 1.16 0.306 3.09 0.836 4.28 1.18 1.19 0.343 2.31 0.664 2.49 0.712 0.183 0.0489 0.391 0.181 0.465 0.295l0.135 0.206-0.414 0.798c-0.228 0.439-0.511 0.954-0.63 1.14s-0.259 0.375-0.311 0.41c-0.0524 0.035-0.154 0.0633-0.225 0.063-0.0714-3.1e-4 -0.577-0.258-1.12-0.572zm-84.9-44.3c-1.12-0.598-3.11-1.65-4.43-2.34-1.62-0.847-2.41-1.31-2.45-1.43-0.0351-0.111 0.0209-0.266 0.161-0.447 0.118-0.152 0.559-0.638 0.98-1.08 0.518-0.542 0.828-0.801 0.958-0.8 0.13 6.4e-4 0.743 0.526 1.9 1.63 0.941 0.896 2.51 2.4 3.48 3.34l1.77 1.71v0.464l-0.173 0.0222c-0.0952 0.0122-1.09-0.467-2.21-1.07zm4.92-0.709c-0.0704-0.0833-0.842-1.22-1.71-2.53-0.873-1.31-2.35-3.49-3.29-4.84-0.935-1.36-1.73-2.53-1.76-2.62-0.0346-0.0936 0.0166-0.232 0.136-0.366 0.108-0.122 0.754-0.464 1.48-0.784 0.708-0.312 1.39-0.589 1.52-0.615 0.152-0.0305 0.283 3e-3 0.376 0.0947 0.0778 0.0778 0.723 1.92 1.43 4.1 0.711 2.17 1.55 4.73 1.85 5.68l0.562 1.73-0.0821 0.153c-0.0452 0.0844-0.153 0.153-0.239 0.153-0.0861 0-0.214-0.0681-0.285-0.151z" fill="#f2c707"/><path d="m59.9 180c-0.126-0.0707-0.272-0.252-0.324-0.403-0.0526-0.151-0.0957-0.388-0.0957-0.526v-0.252l-0.738 0.111-0.233-0.184c-0.134-0.106-0.257-0.308-0.288-0.476l-0.0548-0.292-0.247-0.102c-0.136-0.0563-0.307-0.194-0.381-0.307-0.0865-0.132-0.134-0.405-0.134-0.771v-0.566l-0.346-0.139c-0.191-0.0762-0.443-0.253-0.56-0.393-0.118-0.14-0.258-0.418-0.313-0.618l-0.0996-0.364 0.0499-5.02c0.0274-2.76 0.0902-5.87 0.139-6.92 0.0492-1.05 0.13-2.68 0.18-3.63 0.0499-0.952 0.169-2.88 0.264-4.28 0.0955-1.4 0.25-3.53 0.344-4.71 0.0936-1.19 0.345-3.91 0.559-6.06s0.541-5.09 0.727-6.55l0.339-2.66 0.162-0.28c0.0896-0.154 0.355-0.386 0.591-0.516 0.236-0.13 0.48-0.237 0.542-0.238 0.0625-1e-3 0.321-0.0966 0.573-0.212l0.46-0.21 0.093-0.244c0.0512-0.134 0.144-0.305 0.205-0.38 0.0617-0.075 0.209-0.199 0.328-0.275 0.119-0.0765 0.528-0.255 0.908-0.396 0.381-0.141 1.18-0.44 1.77-0.664 0.595-0.224 1.7-0.619 2.47-0.877s1.67-0.546 2.03-0.639c0.354-0.0929 0.774-0.169 0.933-0.169 0.159 0 0.44 0.0768 0.624 0.171 0.184 0.0938 0.416 0.274 0.516 0.401s0.226 0.379 0.28 0.561l0.099 0.331-0.176 1.09 0.249 0.284c0.137 0.156 0.252 0.37 0.256 0.476 0.0042 0.105 0.0014 0.376-0.0064 0.602l-0.0141 0.41 0.301 0.178c0.166 0.0977 0.363 0.308 0.439 0.468 0.0758 0.16 0.138 0.401 0.137 0.537-3.41e-4 0.136-0.174 1.37-0.386 2.75-0.212 1.38-0.511 3.47-0.665 4.65-0.154 1.18-0.25 2.17-0.215 2.21 0.0351 0.0351 0.336-0.029 0.67-0.142 0.333-0.113 0.626-0.238 0.65-0.277 0.0242-0.0392 0.12-0.704 0.213-1.48 0.0928-0.773 0.268-2.22 0.39-3.22 0.122-0.999 0.395-3.04 0.608-4.54 0.225-1.59 0.363-2.83 0.33-2.98-0.0309-0.145-0.193-0.614-0.36-1.04s-0.461-1.05-0.653-1.38c-0.192-0.333-0.635-1.04-0.984-1.56-0.349-0.526-0.634-1.01-0.634-1.07 0-0.0768 0.077-0.0994 0.238-0.0699 0.131 0.024 0.705 0.145 1.28 0.269l1.04 0.225 0.959 6.9e-4c0.674 4.8e-4 1.16-0.0501 1.63-0.17 0.368-0.094 0.909-0.297 1.2-0.45 0.335-0.175 0.794-0.54 1.23-0.976 0.431-0.434 0.829-0.942 1.06-1.34 0.2-0.356 0.499-1.06 0.664-1.56 0.165-0.5 0.368-1.3 0.452-1.77l0.152-0.865 0.0122-1.97c0.0067-1.08 0.0368-1.99 0.0669-2.02s0.709 0.509 1.51 1.2 1.97 1.64 2.59 2.11c0.628 0.47 1.56 1.11 2.07 1.41s1.26 0.7 1.67 0.876c0.408 0.175 1.07 0.398 1.48 0.494 0.404 0.0963 0.973 0.2 1.26 0.23 0.29 0.0302 0.811 0.0109 1.16-0.0428s0.847-0.172 1.11-0.264c0.266-0.0914 0.723-0.322 1.02-0.513s0.784-0.609 1.09-0.928c0.307-0.32 0.727-0.831 0.933-1.14 0.206-0.305 0.58-0.987 0.831-1.52 0.251-0.529 0.595-1.42 0.763-1.97s0.368-1.27 0.443-1.6c0.0753-0.324 0.211-1.1 0.301-1.71 0.09-0.619 0.19-1.39 0.222-1.71 0.037-0.368 0.0974-0.584 0.164-0.584 0.0578 0 0.55 0.553 1.09 1.23 0.543 0.676 1.47 1.73 2.07 2.35 0.595 0.615 1.4 1.37 1.79 1.67 0.388 0.303 1.03 0.726 1.44 0.94s0.953 0.465 1.23 0.559c0.273 0.0938 0.814 0.213 1.2 0.264l0.707 0.094 0.873-0.131c0.48-0.0719 1.14-0.232 1.47-0.355s0.889-0.384 1.25-0.578c0.357-0.194 1.02-0.607 1.47-0.917 0.452-0.31 1.31-0.964 1.9-1.45 0.595-0.489 1.98-1.75 3.07-2.8s2.04-1.91 2.11-1.91l0.118-8e-5 -0.059 0.714c-0.0324 0.393-0.0606 1.53-0.0625 2.53l-3e-3 1.82 0.141 0.857c0.0775 0.471 0.24 1.15 0.361 1.51 0.121 0.362 0.35 0.892 0.51 1.18s0.519 0.739 0.798 1.01 0.675 0.57 0.879 0.674c0.204 0.104 0.67 0.248 1.03 0.32 0.439 0.0865 0.876 0.112 1.29 0.0769 0.347-0.0295 0.964-0.15 1.37-0.268 0.407-0.118 1.15-0.409 1.65-0.646s1.23-0.612 1.61-0.833 1.27-0.781 1.97-1.25c0.697-0.465 1.87-1.28 2.6-1.82 0.73-0.536 1.56-1.14 1.83-1.35 0.278-0.205 0.541-0.373 0.584-0.373 0.0429 0 0.0779 0.0441 0.0779 0.098s-0.134 0.648-0.297 1.32c-0.163 0.672-0.344 1.55-0.401 1.94-0.0571 0.398-0.0846 1.09-0.0611 1.54 0.0234 0.448 0.0681 0.841 0.0992 0.872s0.416-0.0301 0.855-0.136c0.439-0.106 1.03-0.23 1.32-0.275 0.285-0.0453 0.928-0.0823 1.43-0.0822 0.5 8e-5 1.16 0.0405 1.46 0.0898s0.903 0.202 1.33 0.34l0.778 0.25 0.875-0.391c0.481-0.215 1.44-0.685 2.13-1.04 0.69-0.359 1.98-1.04 2.86-1.51 0.884-0.47 1.65-0.855 1.71-0.855 0.0557 0 0.101 0.0366 0.101 0.0813s-0.477 0.658-1.06 1.36c-0.583 0.705-1.38 1.69-1.76 2.19-0.386 0.499-0.921 1.24-1.19 1.64-0.268 0.403-0.487 0.786-0.487 0.852 0 0.0654 0.234 0.469 0.52 0.896 0.286 0.428 0.671 1.1 0.855 1.48 0.184 0.389 0.423 0.951 0.531 1.25 0.108 0.299 0.238 0.53 0.289 0.513 0.0509-0.017 0.164-0.281 0.251-0.587 0.0872-0.306 0.512-1.7 0.944-3.11 0.432-1.4 0.864-2.77 0.96-3.03 0.0958-0.262 0.25-0.584 0.342-0.716 0.0924-0.132 0.311-0.312 0.485-0.4 0.174-0.0883 0.45-0.189 0.612-0.224 0.164-0.0353 0.39-0.176 0.508-0.316 0.117-0.139 0.319-0.308 0.449-0.375 0.13-0.0673 0.544-0.161 0.92-0.208 0.376-0.047 1.42-0.132 2.33-0.189l1.64-0.103 1.51 0.0966c0.833 0.0532 1.93 0.171 2.43 0.263 0.506 0.0913 1.1 0.245 1.32 0.341 0.239 0.106 0.468 0.289 0.577 0.462l0.181 0.287-0.0792 0.974 0.364 0.257c0.2 0.141 0.43 0.395 0.51 0.564 0.0802 0.169 0.146 0.402 0.146 0.517s-0.0635 0.396-0.141 0.623l-0.141 0.414 0.23 0.185c0.152 0.122 0.249 0.303 0.284 0.531 0.0304 0.196 0.16 0.469 0.3 0.63l0.246 0.284v0.35 0.35l-1.07 2.39c-0.59 1.32-1.56 3.52-2.15 4.9-0.594 1.38-1.42 3.31-1.83 4.28-0.414 0.975-1.38 3.29-2.14 5.15-0.762 1.86-1.93 4.74-2.59 6.4s-1.42 3.59-1.68 4.28c-0.261 0.69-0.533 1.34-0.603 1.45s-0.25 0.273-0.399 0.363c-0.169 0.103-0.524 0.186-0.947 0.223-0.372 0.0325-0.677 0.0915-0.677 0.131 0 0.0397 0.0731 0.258 0.163 0.486 0.0894 0.228 0.21 0.648 0.268 0.933 0.0581 0.285 0.298 0.908 0.533 1.38l0.427 0.865 0.203 1.44-0.284 1.67-0.432 0.87c-0.295 0.593-0.605 1.06-0.974 1.46-0.298 0.325-0.796 0.784-1.11 1.02s-0.844 0.561-1.18 0.722c-0.339 0.161-0.924 0.374-1.3 0.474-0.454 0.121-0.956 0.183-1.5 0.185-0.501 3e-3 -1.04-0.0522-1.38-0.14-0.305-0.0793-0.773-0.254-1.04-0.389-0.266-0.134-0.671-0.399-0.899-0.587-0.228-0.189-0.574-0.553-0.769-0.809-0.195-0.256-0.49-0.758-0.656-1.12s-0.456-0.824-0.645-1.04c-0.189-0.214-0.478-0.657-0.643-0.983s-0.375-0.888-0.467-1.25c-0.0918-0.359-0.167-0.935-0.167-1.28 0-0.345 0.0583-0.933 0.13-1.31 0.0739-0.387 0.28-0.991 0.479-1.41 0.192-0.401 0.522-0.97 0.732-1.26 0.21-0.295 0.588-0.722 0.84-0.95s0.7-0.568 0.995-0.754c0.295-0.187 0.558-0.414 0.584-0.505 0.0257-0.091 0.0688-0.243 0.0958-0.339 0.0303-0.107 8e-3 -0.173-0.0592-0.173-0.0596 0-0.274-0.0802-0.477-0.178l-0.368-0.178-0.221-0.444c-0.122-0.244-0.221-0.574-0.221-0.731 0-0.158 0.238-1.22 0.528-2.37 0.29-1.14 0.504-2.1 0.475-2.13-0.0293-0.0293-0.452 0.216-0.939 0.546-0.487 0.33-1.22 0.93-1.63 1.33l-0.746 0.735-0.35 0.735c-0.193 0.404-0.468 1.12-0.613 1.6-0.145 0.476-0.36 1.23-0.48 1.68-0.119 0.446-0.286 0.89-0.371 0.985-0.085 0.0955-0.28 0.227-0.433 0.292-0.153 0.0648-0.416 0.118-0.584 0.118-0.168 0-0.306 0.0151-0.306 0.0335 0 0.0185 0.118 0.286 0.263 0.596 0.145 0.309 0.349 0.907 0.454 1.33 0.105 0.422 0.319 0.988 0.474 1.26 0.156 0.27 0.355 0.699 0.443 0.955 0.088 0.256 0.209 0.755 0.269 1.11 0.0655 0.388 0.0873 0.921 0.0549 1.34-0.0295 0.384-0.132 1.01-0.228 1.39-0.0961 0.378-0.332 1.02-0.523 1.42s-0.531 0.985-0.754 1.3c-0.223 0.313-0.652 0.811-0.953 1.11-0.301 0.297-0.798 0.719-1.1 0.938-0.307 0.219-0.879 0.528-1.27 0.688-0.393 0.159-0.981 0.336-1.31 0.392-0.34 0.0587-0.987 0.0845-1.51 0.0603l-0.92-0.0422-0.519-0.198c-0.285-0.109-0.761-0.351-1.06-0.537s-0.711-0.531-0.922-0.765c-0.26-0.289-0.451-0.426-0.594-0.426-0.116 0-0.445 0.117-0.732 0.26-0.303 0.151-0.71 0.46-0.972 0.737-0.269 0.285-0.567 0.728-0.739 1.1-0.159 0.344-0.352 0.872-0.43 1.17-0.0777 0.301-0.179 0.962-0.225 1.47-0.0463 0.508-0.0583 1.58-0.0267 2.37 0.0349 0.882 0.0258 1.45-0.0234 1.45-0.0445 0-0.274-0.199-0.51-0.442s-0.916-0.893-1.51-1.44c-0.595-0.551-1.39-1.23-1.77-1.52s-1.08-0.701-1.56-0.927c-0.476-0.226-1.15-0.473-1.49-0.549-0.342-0.0758-0.891-0.138-1.22-0.138-0.328 0-0.904 0.0775-1.28 0.172-0.376 0.0947-1.03 0.346-1.46 0.559-0.428 0.213-1.03 0.581-1.35 0.817-0.312 0.237-0.877 0.735-1.25 1.11s-0.924 0.968-1.21 1.32c-0.29 0.356-0.782 1.02-1.09 1.47s-0.789 1.19-1.06 1.64c-0.273 0.451-0.785 1.37-1.14 2.05-0.353 0.675-0.699 1.27-0.768 1.33l-0.125 0.104-0.0366-0.118c-0.0201-0.0648-0.101-0.566-0.179-1.11s-0.242-1.4-0.363-1.9c-0.121-0.5-0.358-1.25-0.526-1.67-0.168-0.42-0.489-1.04-0.713-1.38-0.224-0.341-0.646-0.845-0.936-1.12-0.303-0.287-0.764-0.611-1.08-0.759-0.304-0.142-0.84-0.319-1.19-0.394l-0.641-0.135-0.686 0.0581c-0.377 0.0319-1.02 0.154-1.43 0.271-0.408 0.117-1.07 0.374-1.47 0.57-0.399 0.196-1.02 0.55-1.38 0.786s-1.06 0.759-1.55 1.16c-0.49 0.403-1.41 1.24-2.04 1.87-0.63 0.626-1.75 1.8-2.48 2.61-0.734 0.809-1.37 1.48-1.42 1.49-0.0594 0.0159-0.0891-0.705-0.0891-2.16v-2.19l-0.153-0.597c-0.0842-0.328-0.276-0.854-0.426-1.17-0.167-0.349-0.46-0.758-0.755-1.05-0.265-0.265-0.699-0.584-0.963-0.708-0.264-0.125-0.748-0.273-1.07-0.33-0.344-0.06-0.862-0.0808-1.23-0.0495-0.351 0.0297-0.709 0.0918-0.796 0.138-0.106 0.0567-0.177 0.231-0.217 0.535l-0.0598 0.451-0.319 0.318c-0.184 0.183-0.54 0.4-0.838 0.512-0.285 0.107-0.637 0.214-0.781 0.238-0.175 0.0291-0.326 0.141-0.456 0.34-0.109 0.166-0.355 0.369-0.56 0.462-0.201 0.0909-1.24 0.504-2.31 0.918-1.07 0.414-2.45 0.946-3.07 1.18-0.619 0.236-1.27 0.435-1.46 0.441l-0.333 0.012-0.503-0.563v-0.698l-0.254-0.0885c-0.14-0.0487-0.315-0.182-0.389-0.295-0.0867-0.132-0.135-0.403-0.135-0.751v-0.544l-0.829-0.38-0.426-0.743 0.0162-1.12c0.0089-0.619 0.156-3.13 0.326-5.58s0.334-4.65 0.364-4.88l0.0543-0.424-0.221 0.0555c-0.122 0.0305-0.395 0.13-0.608 0.221l-0.386 0.166-0.0542 0.635c-0.0298 0.349-0.0927 1.36-0.14 2.24-0.047 0.88-0.125 2.77-0.172 4.2s-0.13 3.8-0.183 5.28l-0.0958 2.68-0.118 0.228c-0.0649 0.125-0.232 0.324-0.37 0.441-0.139 0.117-0.442 0.263-0.674 0.326-0.232 0.0623-0.518 0.203-0.637 0.312-0.119 0.109-1.25 0.605-2.51 1.1-1.26 0.497-2.51 0.972-2.77 1.06-0.262 0.0844-0.701 0.247-0.975 0.362-0.275 0.115-0.625 0.226-0.779 0.247-0.156 0.0215-0.38-0.0182-0.508-0.0902zm31.9-6.17c0.767-0.752 1.77-1.66 2.22-2.03 0.456-0.363 1.17-0.879 1.58-1.15s1.11-0.657 1.55-0.864c0.44-0.207 0.995-0.441 1.23-0.521 0.238-0.0798 0.718-0.2 1.07-0.267 0.349-0.0673 1.06-0.122 1.57-0.122h0.934l0.767 0.221c0.422 0.122 0.981 0.341 1.24 0.488 0.262 0.147 0.696 0.436 0.965 0.643 0.269 0.207 0.719 0.661 0.999 1.01 0.28 0.349 0.688 0.982 0.905 1.41 0.218 0.425 0.482 1.04 0.588 1.36 0.112 0.342 0.234 0.574 0.292 0.555 0.0548-0.0182 0.27-0.322 0.478-0.675 0.208-0.353 0.695-1.09 1.08-1.63 0.387-0.546 1.13-1.44 1.65-1.98s1.27-1.23 1.67-1.53c0.395-0.296 1.06-0.715 1.47-0.931 0.414-0.216 1.01-0.473 1.32-0.571 0.309-0.0983 0.807-0.225 1.11-0.282 0.335-0.0634 0.916-0.0844 1.51-0.0546 0.533 0.0266 1.2 0.111 1.49 0.187 0.285 0.0761 0.884 0.313 1.33 0.527 0.446 0.214 1.13 0.611 1.51 0.883 0.387 0.272 0.952 0.725 1.26 1.01l0.552 0.512 0.064-0.121c0.0352-0.0663 0.0859-0.49 0.113-0.942 0.0296-0.5 0.138-1.13 0.276-1.6 0.125-0.426 0.361-1.03 0.525-1.34s0.477-0.771 0.695-1.02c0.218-0.249 0.647-0.632 0.954-0.851s0.741-0.467 0.966-0.552c0.225-0.0852 0.42-0.209 0.433-0.276 0.0135-0.0665-0.162-0.353-0.389-0.637s-0.451-0.528-0.497-0.543c-0.0457-0.0151-0.134 0.119-0.196 0.297-0.0619 0.179-0.18 0.4-0.263 0.491-0.0826 0.0913-0.248 0.215-0.367 0.275-0.119 0.0601-0.431 0.158-0.692 0.217-0.262 0.0591-0.612 0.196-0.779 0.305-0.167 0.109-1.71 0.669-3.43 1.24s-3.21 1.05-3.31 1.05-0.262-0.0401-0.354-0.0891c-0.0915-0.049-0.225-0.203-0.297-0.342-0.0719-0.139-0.131-0.348-0.131-0.465v-0.212l-0.307-0.181c-0.176-0.104-0.36-0.309-0.433-0.482-0.069-0.165-0.126-0.498-0.126-0.738v-0.438l-0.151-0.0469c-0.0833-0.0258-0.249-0.0985-0.368-0.162-0.119-0.063-0.301-0.237-0.405-0.387-0.104-0.15-0.206-0.319-0.226-0.376-0.0205-0.0572-0.0601-0.0832-0.088-0.0578s-0.167 0.636-0.308 1.36-0.325 1.41-0.406 1.54c-0.0819 0.125-0.251 0.28-0.377 0.345-0.125 0.0648-0.573 0.218-0.995 0.34s-0.83 0.276-0.906 0.342c-0.0759 0.0659-1.56 0.592-3.3 1.17-1.74 0.577-3.22 1.05-3.3 1.05s-0.248-0.0876-0.373-0.195c-0.154-0.132-0.242-0.314-0.276-0.564l-0.0495-0.369-0.206-0.0517c-0.113-0.0284-0.283-0.15-0.378-0.27l-0.172-0.218v-1.17l-0.411-0.204c-0.282-0.14-0.472-0.312-0.604-0.55-0.106-0.19-0.194-0.47-0.195-0.622-7.9e-4 -0.152-0.0363-0.298-0.0789-0.324-0.0426-0.0263-0.382 0.331-0.755 0.794s-1.09 1.25-1.59 1.74-1.27 1.17-1.7 1.49c-0.436 0.328-1.12 0.788-1.52 1.02-0.4 0.235-1.06 0.56-1.46 0.721-0.402 0.161-1.04 0.376-1.42 0.478-0.381 0.101-1.06 0.229-1.51 0.283-0.455 0.0549-1.13 0.074-1.52 0.0427-0.386-0.031-1.02-0.132-1.4-0.224-0.386-0.0922-0.95-0.28-1.25-0.418-0.303-0.138-0.84-0.445-1.19-0.684-0.352-0.239-0.935-0.74-1.3-1.11-0.36-0.374-0.812-0.914-1-1.2-0.191-0.285-0.55-0.895-0.797-1.35-0.247-0.46-0.507-0.884-0.578-0.942-0.0708-0.0587-0.146-0.0891-0.168-0.0675-0.0216 0.0216-0.118 0.893-0.213 1.94-0.0956 1.04-0.184 2.21-0.196 2.59l-0.0227 0.692 2.08-0.0538 0.662 0.173c0.364 0.095 0.853 0.269 1.09 0.388 0.233 0.118 0.62 0.37 0.86 0.56s0.637 0.611 0.882 0.937c0.25 0.332 0.564 0.895 0.714 1.28 0.147 0.379 0.324 1 0.392 1.38s0.143 0.783 0.166 0.89c0.0231 0.107 0.0664 0.195 0.0962 0.195s0.682-0.615 1.45-1.37zm-33.9-6.59c0.052-1.59 0.132-3.48 0.177-4.2 0.0452-0.714 0.14-2.33 0.21-3.59 0.0704-1.26 0.149-2.57 0.175-2.9 0.026-0.333 0.145-1.89 0.264-3.46 0.119-1.57 0.334-4.18 0.477-5.8 0.143-1.62 0.315-3.47 0.382-4.11 0.0667-0.642 0.166-1.81 0.22-2.6 0.0541-0.785 0.0854-1.6 0.0696-1.82l-0.0288-0.389-0.108 0.692c-0.0592 0.381-0.242 1.98-0.407 3.55-0.165 1.57-0.398 3.94-0.519 5.28-0.121 1.33-0.337 4.15-0.479 6.27-0.142 2.12-0.28 4.18-0.306 4.59-0.026 0.404-0.104 2.27-0.174 4.15-0.0698 1.88-0.12 4.41-0.112 5.62 0.0079 1.21 0.0258 2.07 0.0396 1.9 0.0139-0.167 0.0678-1.61 0.12-3.2zm14.7-3.72c0.0503-0.404 0.151-1.36 0.223-2.12 0.0723-0.761 0.169-2.12 0.215-3.03 0.046-0.903 0.108-1.78 0.138-1.95l0.054-0.305-0.102 0.0963c-0.061 0.0573-0.186 0.951-0.308 2.21-0.113 1.16-0.266 3.02-0.34 4.14-0.0743 1.12-0.153 2.42-0.174 2.9l-0.0392 0.865 0.121-1.04c0.0668-0.571 0.163-1.37 0.213-1.77zm45.1-6.49c0.214-1.31 0.489-2.96 0.61-3.68 0.121-0.714 0.316-1.96 0.434-2.77 0.118-0.809 0.237-1.68 0.265-1.95 0.0357-0.332 0.0236-0.45-0.04-0.389-0.0501 0.0476-0.19 0.69-0.311 1.43-0.121 0.738-0.378 2.37-0.572 3.63-0.193 1.26-0.409 2.68-0.48 3.16-0.0709 0.476-0.204 1.33-0.295 1.9-0.0913 0.571-0.187 1.29-0.213 1.6l-0.0469 0.562 0.13-0.562c0.0714-0.309 0.305-1.63 0.519-2.94zm-12.4 2.6c0.0399-0.257 0.0313-0.36-0.0252-0.303-0.0471 0.0476-0.108 0.301-0.136 0.562-0.0323 0.304-0.0232 0.413 0.0252 0.303 0.0416-0.0952 0.103-0.348 0.136-0.562zm23.1-3.11c0.167-0.439 0.505-1.09 0.75-1.44s0.664-0.844 0.93-1.09c0.266-0.244 0.709-0.59 0.984-0.768 0.275-0.178 0.783-0.442 1.13-0.586 0.359-0.149 0.924-0.299 1.32-0.348 0.379-0.0474 0.864-0.0699 1.08-0.05l0.389 0.0362-0.346-0.121c-0.19-0.0667-0.603-0.124-0.916-0.128-0.314-4e-3 -0.87 0.0701-1.24 0.164-0.367 0.0938-0.947 0.315-1.29 0.492l-0.623 0.322-1.58 1.58-0.447 0.904c-0.3 0.606-0.489 1.13-0.575 1.58-0.0702 0.373-0.123 0.898-0.117 1.17l0.0106 0.49 0.118-0.703c0.0648-0.386 0.255-1.06 0.422-1.5zm15.4-0.774c0.222-0.441 0.51-0.824 0.942-1.25 0.342-0.339 0.875-0.764 1.18-0.943 0.309-0.18 0.821-0.404 1.14-0.499 0.318-0.095 0.801-0.214 1.08-0.265 0.274-0.0506 0.773-0.0677 1.11-0.038 0.42 0.0371 0.569 0.0271 0.475-0.032-0.0751-0.0473-0.406-0.13-0.735-0.183-0.331-0.0537-0.845-0.0713-1.15-0.0394-0.303 0.0317-0.761 0.13-1.02 0.219-0.258 0.0887-0.711 0.289-1.01 0.446-0.317 0.168-0.805 0.551-1.19 0.934-0.357 0.357-0.781 0.874-0.942 1.15-0.162 0.275-0.366 0.761-0.454 1.08-0.0883 0.318-0.157 0.813-0.154 1.1l7e-3 0.521 0.199-0.782c0.109-0.43 0.343-1.07 0.519-1.42zm-37.3-2.99c0.168-0.999 0.46-2.61 0.647-3.59s0.502-2.63 0.697-3.68 0.568-3.01 0.829-4.37c0.26-1.36 0.548-2.85 0.639-3.33 0.0912-0.476 0.325-1.74 0.519-2.81 0.194-1.07 0.408-2.24 0.475-2.6 0.0672-0.357 0.242-1.39 0.389-2.29 0.147-0.904 0.308-1.85 0.358-2.1l0.0906-0.459 0.404-0.178c0.222-0.0979 0.498-0.222 0.613-0.277 0.115-0.0543 0.225-0.147 0.245-0.207 0.0197-0.0595-0.0173-0.108-0.0821-0.108s-0.382 0.111-0.705 0.248-0.62 0.282-0.661 0.324c-0.0408 0.0423-0.309 1.38-0.597 2.97-0.287 1.59-0.619 3.44-0.738 4.11s-0.663 3.66-1.21 6.66-1.1 6-1.22 6.66-0.358 1.93-0.519 2.81c-0.162 0.88-0.431 2.42-0.598 3.42s-0.364 2.24-0.438 2.75c-0.0733 0.513-0.129 0.98-0.125 1.04 5e-3 0.058 0.159-0.634 0.344-1.54 0.184-0.904 0.473-2.46 0.641-3.46zm-23.1-1.34c0.0475-0.404 0.146-1.14 0.219-1.64 0.0729-0.5 0.175-1.24 0.227-1.64s0.25-1.61 0.44-2.68c0.19-1.07 0.597-3.02 0.905-4.34s0.717-2.97 0.907-3.68c0.191-0.708 0.542-1.93 0.781-2.72 0.239-0.785 0.482-1.52 0.539-1.64l0.104-0.212 0.562-0.164c0.309-0.09 0.599-0.199 0.644-0.242 0.0518-0.0497 0.0495-0.112-0.0063-0.167-0.0604-0.0604-0.305-0.0122-0.77 0.151l-0.681 0.24-0.204 0.519c-0.112 0.285-0.451 1.34-0.754 2.34-0.303 0.999-0.747 2.58-0.987 3.5-0.241 0.928-0.651 2.76-0.911 4.07-0.261 1.31-0.571 3.04-0.69 3.85-0.119 0.809-0.275 2.04-0.347 2.73-0.0724 0.69-0.172 1.78-0.221 2.42-0.0492 0.64-0.084 1.73-0.0772 2.42l0.0123 1.26 0.111-1.82c0.0613-0.999 0.15-2.15 0.198-2.55zm10.6 3.84c0.155-0.0631 0.495-0.317 0.756-0.563 0.261-0.247 0.675-0.762 0.921-1.14 0.246-0.383 0.611-1.05 0.812-1.48 0.201-0.431 0.579-1.37 0.841-2.08 0.262-0.714 0.597-1.73 0.743-2.25 0.147-0.523 0.441-1.67 0.653-2.56 0.212-0.883 0.503-2.23 0.647-2.98 0.143-0.758 0.397-2.22 0.564-3.24 0.167-1.02 0.362-2.27 0.433-2.77 0.0714-0.5 0.19-1.38 0.264-1.95 0.0738-0.571 0.192-1.62 0.264-2.33 0.0712-0.708 0.129-1.49 0.129-1.75v-0.461l0.185-0.172c0.102-0.0946 0.31-0.232 0.464-0.305 0.154-0.0729 0.329-0.193 0.39-0.266 0.0609-0.0734 0.0853-0.159 0.0542-0.19-0.0311-0.0311-0.292 0.0558-0.579 0.193-0.287 0.137-0.563 0.299-0.614 0.36-0.0502 0.0605-0.146 0.646-0.213 1.3-0.0667 0.655-0.278 2.45-0.469 3.98-0.191 1.53-0.481 3.6-0.646 4.59-0.164 0.989-0.474 2.67-0.688 3.73s-0.564 2.6-0.776 3.42c-0.213 0.818-0.578 2.07-0.811 2.78-0.234 0.714-0.657 1.8-0.942 2.42-0.284 0.619-0.706 1.42-0.938 1.77-0.232 0.357-0.612 0.835-0.846 1.06-0.233 0.228-0.605 0.505-0.826 0.615-0.221 0.111-0.558 0.232-0.748 0.269l-0.346 0.0678 0.216 0.0649c0.119 0.0357 0.353 0.0444 0.519 0.0195s0.43-0.097 0.585-0.16zm35.2-3.12c0.27-0.219 0.516-0.443 0.545-0.497 0.0293-0.0541 0.0785-0.205 0.109-0.334l0.0561-0.236-0.239-0.0573c-0.131-0.0315-0.35-0.113-0.485-0.181s-0.263-0.107-0.283-0.087c-0.0204 0.0204-0.0946 0.364-0.165 0.763-0.0703 0.399-0.128 0.794-0.128 0.878-7e-5 0.0833 0.022 0.151 0.049 0.151s0.27-0.18 0.541-0.399zm-34.5-0.769c0.242-0.476 0.577-1.22 0.743-1.64s0.436-1.21 0.599-1.73 0.466-1.61 0.675-2.42c0.208-0.809 0.516-2.15 0.684-2.99 0.168-0.836 0.442-2.33 0.608-3.33 0.166-0.996 0.383-2.37 0.481-3.06 0.0987-0.69 0.275-2.01 0.391-2.94 0.117-0.928 0.271-2.26 0.344-2.97 0.0894-0.868 0.185-1.38 0.295-1.6 0.0897-0.176 0.235-0.383 0.324-0.461 0.0883-0.0779 0.396-0.26 0.684-0.404s0.643-0.372 0.789-0.507c0.146-0.135 0.864-0.504 1.6-0.82 0.732-0.316 1.56-0.654 1.85-0.751 0.285-0.097 0.869-0.283 1.3-0.414s1.03-0.252 1.34-0.27l0.562-0.0317 0.303 0.156c0.167 0.0858 0.376 0.292 0.466 0.459 0.0896 0.167 0.318 0.413 0.508 0.547l0.345 0.244 0.237-0.227c0.13-0.125 0.964-0.537 1.85-0.916s2.42-0.958 3.41-1.29c0.986-0.329 2.14-0.682 2.56-0.786 0.507-0.124 0.873-0.168 1.08-0.13 0.173 0.0321 0.433 0.131 0.578 0.22 0.145 0.0888 0.354 0.324 0.466 0.523l0.203 0.362-0.105 1.58 0.127 0.168c0.0705 0.0931 0.127 0.351 0.127 0.58v0.412l0.307 0.234c0.178 0.136 0.337 0.201 0.379 0.156 0.0398-0.043 0.114-0.312 0.164-0.597 0.0504-0.285 0.173-0.908 0.272-1.38s0.221-0.967 0.27-1.09c0.0494-0.125 0.217-0.35 0.373-0.501l0.283-0.274 1.03-0.348c0.567-0.191 1.35-0.452 1.74-0.579s0.714-0.256 0.714-0.286c0-0.0305-0.24-0.103-0.533-0.16-0.293-0.0577-0.778-0.181-1.08-0.273-0.3-0.0926-0.83-0.359-1.18-0.592-0.349-0.233-0.79-0.612-0.981-0.841-0.191-0.23-0.431-0.536-0.532-0.682-0.101-0.145-0.32-0.535-0.485-0.865-0.165-0.33-0.401-0.933-0.525-1.34s-0.282-1.15-0.353-1.64c-0.0708-0.498-0.129-1.19-0.13-1.54l-2e-3 -0.634-0.125 0.028c-0.0685 0.0154-0.604 0.459-1.19 0.987-0.586 0.527-1.42 1.24-1.84 1.58-0.428 0.344-1.11 0.852-1.51 1.13-0.404 0.277-1.11 0.7-1.56 0.939s-1.15 0.551-1.56 0.691-0.988 0.297-1.3 0.347c-0.309 0.0505-0.796 0.116-1.08 0.147-0.313 0.0331-0.865 3e-3 -1.39-0.0755-0.478-0.0717-1.06-0.195-1.3-0.274-0.236-0.0791-0.719-0.277-1.07-0.44-0.355-0.163-1.04-0.556-1.51-0.874l-0.868-0.577-1.28-1.28c-0.703-0.704-1.31-1.28-1.35-1.28-0.0419 0-0.139 0.302-0.217 0.67-0.0772 0.369-0.319 1.22-0.537 1.88-0.218 0.666-0.585 1.6-0.815 2.08s-0.615 1.16-0.855 1.52c-0.24 0.363-0.688 0.931-0.994 1.26-0.307 0.331-0.842 0.798-1.19 1.04s-0.835 0.538-1.08 0.662c-0.247 0.124-0.753 0.313-1.12 0.42l-0.676 0.194-2.42-4e-3 -0.723-0.195c-0.398-0.107-0.904-0.255-1.12-0.329-0.221-0.0738-0.858-0.364-1.42-0.644-0.558-0.281-1.24-0.653-1.51-0.827-0.275-0.174-0.928-0.638-1.45-1.03-0.523-0.393-1.17-0.893-1.44-1.11-0.27-0.219-0.509-0.369-0.532-0.332-0.0224 0.0368-0.0668 0.339-0.0985 0.672-0.0318 0.333-0.115 0.936-0.185 1.34-0.0702 0.404-0.248 1.11-0.396 1.56-0.148 0.452-0.436 1.16-0.641 1.57s-0.571 1.01-0.814 1.34c-0.243 0.327-0.663 0.798-0.934 1.05l-0.493 0.452 0.174 2e-3c0.0955 1e-3 0.31-0.0374 0.476-0.0857 0.166-0.0483 0.862-0.205 1.55-0.348 0.685-0.143 1.62-0.317 2.08-0.386l0.836-0.126 0.311 0.0857c0.182 0.0504 0.526 0.29 0.832 0.582 0.294 0.279 0.549 0.605 0.584 0.746 0.0342 0.138 0.0228 0.507-0.0253 0.822l-0.0875 0.572 0.128 0.252c0.0778 0.154 0.111 0.38 0.084 0.579l-0.0438 0.327 0.149 0.135c0.0821 0.0743 0.205 0.135 0.272 0.135 0.0676-2.1e-4 0.571-0.16 1.12-0.355 0.547-0.195 1.58-0.546 2.29-0.78 0.714-0.234 1.76-0.539 2.34-0.678 0.571-0.139 1.47-0.319 1.99-0.401 0.594-0.0927 1.08-0.124 1.29-0.0845 0.235 0.044 0.456 0.178 0.705 0.427 0.247 0.247 0.383 0.471 0.426 0.7 0.0426 0.227 0.0136 0.529-0.0886 0.923l-0.152 0.586 0.374 0.476-0.109 0.646 0.331 0.21c0.182 0.116 0.404 0.292 0.493 0.391 0.0889 0.0994 0.18 0.348 0.202 0.552l0.0402 0.371-0.451 1.47c-0.248 0.809-0.643 2.15-0.877 2.98-0.234 0.833-0.614 2.29-0.845 3.24s-0.578 2.53-0.772 3.5c-0.193 0.975-0.429 2.34-0.524 3.03-0.095 0.69-0.218 1.81-0.273 2.48-0.055 0.676-0.0738 1.3-0.0417 1.38l0.0583 0.152 0.0856-0.127c0.0471-0.07 0.284-0.517 0.526-0.992zm35.8-3.22c0.0789-0.369 0.262-1.08 0.406-1.58 0.144-0.5 0.458-1.51 0.697-2.25 0.239-0.738 0.66-1.79 0.936-2.34s0.602-1.15 0.726-1.33c0.124-0.182 0.201-0.354 0.172-0.383-0.029-0.0283-0.158 0.074-0.286 0.227-0.129 0.153-0.379 0.523-0.556 0.822s-0.511 1.03-0.742 1.62-0.576 1.65-0.766 2.34c-0.19 0.69-0.457 1.72-0.594 2.29-0.137 0.571-0.261 1.09-0.277 1.15-0.0155 0.0595 0.01 0.108 0.0559 0.108 0.0463 0 0.149-0.302 0.228-0.67zm15.6-0.8c0.219-0.738 0.715-2.45 1.1-3.81 0.389-1.36 0.813-2.87 0.944-3.37s0.454-1.65 0.72-2.55 0.683-2.34 0.929-3.2c0.246-0.856 0.672-2.34 0.948-3.29 0.275-0.952 0.939-3.23 1.47-5.06 0.536-1.83 1.06-3.64 1.17-4.02 0.106-0.381 0.278-0.973 0.383-1.32 0.133-0.433 0.242-0.64 0.357-0.676 0.0911-0.0289 0.166-0.0889 0.166-0.133 0-0.0444-0.0704-0.0807-0.156-0.0807-0.0861 0-0.219 0.0487-0.295 0.108-0.076 0.0595-0.373 0.867-0.66 1.8-0.287 0.928-0.736 2.39-0.997 3.24-0.261 0.856-0.69 2.32-0.954 3.24-0.263 0.928-0.715 2.5-1 3.5-0.289 0.999-0.938 3.32-1.44 5.15-0.504 1.83-1.26 4.6-1.68 6.14-0.421 1.55-0.885 3.28-1.03 3.85s-0.32 1.25-0.388 1.51c-0.0674 0.258-0.09 0.433-0.0503 0.389 0.0398-0.044 0.251-0.683 0.47-1.42zm-76.4 0.1c0.995-0.373 2.33-0.866 2.96-1.1 0.63-0.23 1.15-0.45 1.15-0.489 0-0.0397-0.0696-0.0721-0.155-0.0721-0.0851 0-0.504 0.12-0.93 0.267-0.426 0.147-1.69 0.599-2.81 1s-2.1 0.774-2.19 0.818c-0.0846 0.0448-0.131 0.118-0.103 0.164 0.0279 0.0452 0.1 0.0822 0.161 0.0822 0.0606 0 0.925-0.305 1.92-0.678zm4.47-2.62c0.0348-0.258 0.201-1.62 0.37-3.02s0.462-3.68 0.652-5.06 0.442-3.17 0.56-3.98 0.215-1.52 0.215-1.58c0-0.0557 0.205-0.198 0.456-0.317s0.533-0.197 0.627-0.173c0.103 0.0256 0.274-0.042 0.431-0.17 0.169-0.138 0.229-0.24 0.173-0.293-0.0548-0.0516-0.398 0.0333-0.937 0.231-0.468 0.172-0.883 0.371-0.922 0.443-0.0393 0.0716-0.21 1.03-0.379 2.12-0.169 1.09-0.369 2.46-0.444 3.03-0.075 0.571-0.292 2.26-0.483 3.76-0.19 1.5-0.402 3.21-0.47 3.81-0.0681 0.595-0.125 1.23-0.126 1.41-0.0012 0.227 0.0324 0.32 0.106 0.296 0.0595-0.0197 0.137-0.247 0.171-0.505zm56.6-3.59c0.241-0.504 0.583-1.12 0.761-1.36 0.178-0.245 0.553-0.688 0.834-0.983l0.51-0.537-0.0548-0.218c-0.0301-0.12-0.169-0.277-0.309-0.35-0.14-0.0722-0.349-0.258-0.465-0.412-0.116-0.155-0.316-0.49-0.444-0.746-0.128-0.256-0.264-0.431-0.302-0.389-0.0383 0.0415-0.27 1.19-0.515 2.55-0.245 1.36-0.469 2.68-0.498 2.92-0.0288 0.243-0.0305 0.442-4e-3 0.442 0.0268 0 0.246-0.412 0.486-0.916zm-11.8-1.68c0.64-0.225 1.18-0.453 1.2-0.507 0.0179-0.0538-6e-3 -0.0979-0.0523-0.0979-0.0468 0-0.819 0.257-1.72 0.57-0.897 0.314-1.85 0.648-2.13 0.743-0.274 0.095-0.497 0.202-0.497 0.237 0 0.0353 0.0212 0.0854 0.0471 0.111 0.0259 0.0259 0.483-0.109 1.02-0.301s1.49-0.532 2.13-0.757zm15.4-0.0686c0.309-0.276 0.892-0.769 1.3-1.1 0.404-0.326 1.05-0.859 1.43-1.18 0.381-0.324 0.909-0.834 1.17-1.13 0.265-0.298 0.624-0.74 0.797-0.981 0.173-0.241 0.455-0.734 0.626-1.1l0.312-0.657 0.0496-0.656c0.0315-0.416 0.0177-0.656-0.0376-0.656-0.048 0-0.112 0.177-0.141 0.393-0.0297 0.216-0.157 0.654-0.283 0.973-0.126 0.319-0.424 0.872-0.663 1.23-0.239 0.357-0.613 0.843-0.83 1.08-0.218 0.238-0.728 0.738-1.13 1.11-0.405 0.374-1.11 0.973-1.56 1.33-0.452 0.359-1.03 0.851-1.28 1.09-0.25 0.241-0.454 0.507-0.454 0.592s0.0297 0.154 0.0661 0.154c0.0363 0 0.319-0.226 0.627-0.502zm-13.8-1.7c0.0501-0.238 0.223-1.11 0.385-1.95 0.162-0.833 0.416-2.2 0.565-3.03s0.444-2.47 0.656-3.63c0.211-1.17 0.476-2.56 0.588-3.1 0.112-0.54 0.258-1.02 0.324-1.06 0.0659-0.0429 0.324-0.139 0.572-0.213 0.249-0.0741 0.477-0.174 0.506-0.221 0.0294-0.0476 0.0312-0.109 4e-3 -0.136-0.0273-0.0273-0.294 0.0178-0.593 0.1-0.299 0.0823-0.623 0.201-0.721 0.263l-0.178 0.113-0.189 0.895c-0.104 0.492-0.46 2.39-0.791 4.23-0.331 1.83-0.779 4.36-0.996 5.61-0.216 1.25-0.393 2.4-0.392 2.55l1e-3 0.274 0.0831-0.13c0.0457-0.0714 0.124-0.324 0.174-0.562zm-59-2.99c-0.035-0.0567-0.119-0.0451-0.236 0.0327-0.0999 0.0663-0.198 0.169-0.218 0.229-0.025 0.0751 0.0469 0.0651 0.236-0.0327 0.15-0.0773 0.248-0.18 0.218-0.229zm1.37-0.99c0.249-0.116 0.517-0.211 0.596-0.211 0.0792-4.6e-4 0.527-0.16 0.995-0.356 0.468-0.195 1.22-0.49 1.67-0.655s0.858-0.336 0.903-0.379c0.0444-0.0437 0.0542-0.106 0.0219-0.138-0.0324-0.0324-0.614 0.146-1.29 0.396-0.678 0.25-1.74 0.654-2.36 0.897s-1.15 0.482-1.19 0.532c-0.035 0.05-0.061 0.227-0.0578 0.394l0.0057 0.303 0.25-0.572zm4.79-1.52c0.0906-0.1 0.428-0.3 0.749-0.444 0.321-0.144 0.584-0.295 0.584-0.336 0-0.0412-0.0232-0.0749-0.0516-0.0749s-0.272 0.0637-0.541 0.142c-0.329 0.0952-0.581 0.239-0.77 0.439-0.155 0.163-0.281 0.333-0.281 0.377s0.0329 0.0803 0.0731 0.0803c0.0402 0 0.147-0.0822 0.238-0.183zm22.5-0.42c0.259-0.0999 0.876-0.296 1.37-0.435 0.495-0.139 0.941-0.293 0.989-0.342 0.0486-0.0486 0.066-0.111 0.0386-0.138-0.0274-0.0274-0.258 6e-3 -0.513 0.075-0.255 0.0687-0.95 0.271-1.54 0.449-0.595 0.178-1.13 0.385-1.19 0.459-0.0595 0.074-0.108 0.208-0.108 0.297v0.162l0.243-0.173c0.134-0.0951 0.455-0.255 0.714-0.355zm41-0.287c-0.0667-0.319-0.162-0.648-0.211-0.732l-0.0897-0.152 0.0496 0.303c0.0273 0.167 0.107 0.511 0.177 0.766s0.143 0.448 0.161 0.429c0.0189-0.0189-0.0202-0.295-0.087-0.614zm-53-0.667c0.125-0.412 0.25-0.648 0.39-0.74 0.113-0.0744 0.784-0.291 1.49-0.482 0.706-0.191 1.34-0.378 1.41-0.415 0.0714-0.0376 0.11-0.103 0.0865-0.145-0.0238-0.0424-0.121-0.0663-0.216-0.0531-0.0952 0.0132-0.78 0.182-1.52 0.376-0.742 0.194-1.4 0.382-1.46 0.419-0.0592 0.0366-0.182 0.335-0.273 0.662-0.0912 0.328-0.191 0.709-0.222 0.847-0.0372 0.167-0.0253 0.232 0.0355 0.195 0.0504-0.0311 0.174-0.329 0.275-0.662zm16.2-0.123c0.155-0.078 0.281-0.177 0.281-0.22 0-0.0465-0.114-0.0463-0.281 5.9e-4 -0.155 0.0434-0.388 0.197-0.519 0.341-0.131 0.144-0.238 0.308-0.238 0.364 0 0.0557 0.107 1e-3 0.238-0.121 0.131-0.122 0.364-0.286 0.519-0.364zm36.6-1.38c0.146-0.256 0.266-0.548 0.266-0.649 0-0.101-0.0376-0.184-0.0835-0.184s-0.133 0.0876-0.193 0.195c-0.0603 0.107-0.178 0.37-0.262 0.584-0.084 0.214-0.153 0.418-0.153 0.454-4e-5 0.0357 0.036 0.0649 0.0801 0.0649s0.2-0.209 0.346-0.465zm-56.3 0.149c0.087-0.0787 0.158-0.176 0.158-0.216 0-0.0402-0.136-0.0731-0.303-0.0731s-0.303 0.0357-0.303 0.0794 0.0236 0.141 0.0525 0.216c0.0289 0.0753 0.0939 0.137 0.145 0.137 0.0506 0 0.163-0.0644 0.25-0.143zm8.79-0.548c0.25-0.119 0.454-0.245 0.454-0.281 0-0.036-0.0381-0.0654-0.0848-0.0654s-0.232 0.059-0.413 0.131c-0.18 0.0721-0.379 0.213-0.441 0.312-0.0622 0.0996-0.0809 0.167-0.0416 0.15 0.0393-0.0171 0.276-0.128 0.526-0.247zm-1.06 0.056c0.108-0.0792 0.128-0.136 0.0616-0.177-0.0538-0.0333-0.176-0.0184-0.273 0.0331-0.0962 0.0515-0.175 0.131-0.175 0.177 0 0.0459 0.051 0.0835 0.113 0.0835 0.0623 0 0.185-0.0525 0.273-0.117zm21.1-1.01c0.324-0.145 0.801-0.343 1.06-0.44 0.259-0.097 0.471-0.217 0.471-0.267 0-0.0564-0.106-0.07-0.277-0.0357-0.152 0.0305-0.703 0.244-1.22 0.476s-0.983 0.486-1.03 0.566c-0.0449 0.0803-0.0571 0.21-0.0271 0.288l0.0546 0.142 0.191-0.233c0.105-0.128 0.455-0.351 0.779-0.497zm27.7-0.934c0.335-0.443 0.928-1.16 1.32-1.6 0.39-0.437 1.05-1.09 1.48-1.45 0.423-0.36 1.02-0.832 1.33-1.05 0.309-0.218 0.922-0.575 1.36-0.795 0.44-0.22 1.06-0.499 1.38-0.621s0.955-0.298 1.41-0.392c0.575-0.12 1.19-0.173 2.03-0.178l1.21-7e-3 -0.216-0.0928c-0.121-0.052-0.806-0.0948-1.56-0.0974l-1.34-5e-3 -0.822 0.208c-0.452 0.114-1.19 0.364-1.64 0.556-0.452 0.192-1.15 0.554-1.56 0.805-0.404 0.251-1.05 0.708-1.43 1.02-0.383 0.307-1.03 0.911-1.44 1.34s-1.07 1.22-1.47 1.76c-0.401 0.537-0.794 1.1-0.873 1.25-0.0786 0.152-0.143 0.324-0.143 0.381 0 0.0622 0.0739 0.0378 0.183-0.0606 0.101-0.0906 0.458-0.528 0.793-0.971zm-25.3 0.315c0.0894-0.187 0.243-0.315 0.495-0.411 0.201-0.0766 0.412-0.186 0.47-0.244 0.0577-0.0577 0.084-0.126 0.0584-0.151-0.0256-0.0256-0.264 0.0367-0.53 0.139l-0.484 0.185-0.129 0.379c-0.071 0.208-0.102 0.378-0.0695 0.377 0.0328-1e-3 0.118-0.124 0.189-0.273zm8.31-1.31c0.452-0.177 1.13-0.429 1.51-0.56s0.702-0.286 0.721-0.346c0.0193-0.0595-0.0288-0.108-0.107-0.108-0.0781 0-0.889 0.273-1.8 0.606-0.913 0.333-1.71 0.671-1.77 0.752-0.0595 0.0804-0.108 0.198-0.108 0.262v0.116l0.368-0.2c0.202-0.11 0.738-0.345 1.19-0.522zm2.86-0.81c0.0646-0.0779 0.279-0.211 0.477-0.296 0.198-0.0847 0.385-0.196 0.417-0.248 0.0342-0.0553-0.0128-0.0937-0.115-0.0937-0.0949 0-0.282 0.0415-0.416 0.0923-0.134 0.0508-0.331 0.174-0.438 0.275-0.107 0.1-0.195 0.234-0.195 0.297 0 0.0631 0.0342 0.115 0.0759 0.115 0.0418 0 0.129-0.0637 0.193-0.142zm7.65-0.313c0.0734-0.25 0.166-0.505 0.205-0.566 0.0392-0.0617 0.669-0.266 1.4-0.454s1.37-0.38 1.41-0.427c0.0471-0.0471 0.0611-0.11 0.0312-0.14-0.0299-0.0299-0.358 0.0117-0.73 0.0924-0.371 0.0807-0.993 0.242-1.38 0.358s-0.744 0.259-0.791 0.317c-0.0473 0.058-0.148 0.317-0.225 0.575-0.0762 0.258-0.139 0.521-0.139 0.584 0 0.0627 0.0184 0.114 0.0408 0.114 0.0225 0 0.101-0.204 0.174-0.454zm4.11-1.64c0-0.0377-0.0751-0.0685-0.167-0.0685-0.0918 0-0.228 0.0612-0.303 0.136-0.0748 0.0748-0.136 0.167-0.136 0.206 0 0.0384 0.136 8e-3 0.303-0.0675 0.167-0.0755 0.303-0.168 0.303-0.206zm0.815 0.052c0.0753-0.0289 0.137-0.0873 0.137-0.13 0-0.0425-0.0731-0.0773-0.162-0.0773-0.0893 0-0.211 0.0584-0.27 0.13l-0.108 0.13h0.133c0.0733 0 0.195-0.0236 0.27-0.0525zm3.11-0.793c0.326-0.293 0.929-0.761 1.34-1.04 0.412-0.28 0.956-0.622 1.21-0.76l0.462-0.252-0.0513-0.51c-0.0282-0.281-0.0513-0.933-0.0513-1.45v-0.939l-0.108 2e-3c-0.0595 8.6e-4 -0.575 0.329-1.15 0.73s-1.43 0.974-1.9 1.27-1.47 0.848-2.2 1.22l-1.34 0.67h1.19l0.358 0.174c0.197 0.0954 0.522 0.374 0.721 0.619s0.385 0.547 0.411 0.67c0.0268 0.123 0.0659 0.278 0.0869 0.345l0.0383 0.121 0.192-0.169c0.106-0.0932 0.459-0.409 0.785-0.702zm13.9-1.75c0.0738-0.143 0.0961-0.26 0.0496-0.26-0.0466 0-0.184 0.0452-0.305 0.1-0.121 0.0552-0.22 0.146-0.22 0.202s0.026 0.127 0.0577 0.159c0.0317 0.0317 0.109 0.0577 0.171 0.0577 0.0622 0 0.174-0.117 0.247-0.26zm8.37-0.965 0.256-0.576 0.359-0.0887c0.197-0.0488 1.27-0.133 2.39-0.187 1.33-0.0642 2.41-0.0712 3.11-0.0202 0.595 0.043 1.12 0.0598 1.16 0.0374 0.0418-0.0225 5e-3 -0.0804-0.0811-0.129-0.0864-0.0483-1.01-0.107-2.04-0.13-1.06-0.0236-2.48 2e-3 -3.25 0.0596-0.751 0.0558-1.47 0.122-1.6 0.147l-0.232 0.0459-0.265 0.694c-0.146 0.382-0.262 0.798-0.259 0.924l6e-3 0.231 0.0937-0.216c0.0515-0.119 0.209-0.475 0.349-0.792zm-12.9 57c-0.145-0.2-1.34-2.05-2.65-4.1l-2.38-3.74 0.0284-0.2c0.0178-0.125 0.0961-0.21 0.209-0.226 0.127-0.0181 0.762 0.446 2.13 1.56 1.07 0.871 2.77 2.28 3.78 3.14l1.83 1.55v0.225c0 0.142-0.104 0.323-0.281 0.49-0.155 0.146-0.682 0.582-1.17 0.969s-0.967 0.704-1.06 0.704c-0.0979 0-0.278-0.152-0.431-0.364zm5.37-5.32c-0.547-0.314-2.46-1.43-4.25-2.47-1.79-1.04-3.28-1.96-3.31-2.03-0.0284-0.0739-4e-3 -0.192 0.0539-0.262 0.0738-0.0889 0.2-0.112 0.419-0.0769 0.173 0.0276 1.26 0.3 2.43 0.606 1.16 0.306 3.09 0.836 4.28 1.18 1.19 0.343 2.31 0.664 2.49 0.712 0.183 0.0489 0.391 0.181 0.465 0.295l0.135 0.206-0.414 0.798c-0.228 0.439-0.511 0.954-0.63 1.14s-0.259 0.375-0.311 0.41c-0.0524 0.035-0.154 0.0633-0.225 0.063-0.0714-3.1e-4 -0.577-0.258-1.12-0.572zm-84.9-44.3c-1.12-0.598-3.11-1.65-4.43-2.34-1.62-0.847-2.41-1.31-2.45-1.43-0.0351-0.111 0.0209-0.266 0.161-0.447 0.118-0.152 0.559-0.638 0.98-1.08 0.518-0.542 0.828-0.801 0.958-0.8 0.13 6.4e-4 0.743 0.526 1.9 1.63 0.941 0.896 2.51 2.4 3.48 3.34l1.77 1.71v0.464l-0.173 0.0222c-0.0952 0.0122-1.09-0.467-2.21-1.07zm4.92-0.709c-0.0704-0.0833-0.842-1.22-1.71-2.53-0.873-1.31-2.35-3.49-3.29-4.84-0.935-1.36-1.73-2.53-1.76-2.62-0.0346-0.0936 0.0166-0.232 0.136-0.366 0.108-0.122 0.754-0.464 1.48-0.784 0.708-0.312 1.39-0.589 1.52-0.615 0.152-0.0305 0.283 3e-3 0.376 0.0947 0.0778 0.0778 0.723 1.92 1.43 4.1 0.711 2.17 1.55 4.73 1.85 5.68l0.562 1.73-0.0821 0.153c-0.0452 0.0844-0.153 0.153-0.239 0.153-0.0861 0-0.214-0.0681-0.285-0.151z" fill="#1e8dfa"/><path d="m59.9 180c-0.112-0.0564-0.231-0.23-0.28-0.409-0.0467-0.171-0.0951-0.408-0.108-0.527l-0.0227-0.216-0.888 0.0536-0.183-0.233c-0.101-0.128-0.183-0.324-0.183-0.436v-0.203l-0.677-0.346-0.0982-0.298c-0.054-0.164-0.089-0.475-0.0778-0.692s0.0035-0.409-0.0173-0.426c-0.0207-0.017-0.22-0.117-0.443-0.223l-0.406-0.192-0.4-0.811 0.0077-4.2c0.0042-2.31 0.0542-5.32 0.111-6.7 0.0569-1.38 0.162-3.62 0.234-4.97 0.0716-1.36 0.245-4.08 0.386-6.06 0.14-1.97 0.297-4.04 0.348-4.59 0.0508-0.547 0.245-2.53 0.432-4.41 0.187-1.88 0.496-4.67 0.687-6.21s0.401-2.92 0.467-3.08c0.0653-0.156 0.223-0.366 0.35-0.466 0.127-0.1 0.414-0.247 0.638-0.325 0.223-0.0787 0.587-0.222 0.809-0.319l0.403-0.176 0.15-0.333c0.0825-0.183 0.216-0.392 0.296-0.465 0.0802-0.0726 0.649-0.33 1.26-0.571 0.615-0.242 1.99-0.751 3.06-1.13 1.07-0.381 2.38-0.804 2.9-0.94l0.958-0.247 0.333 0.0752c0.183 0.0414 0.434 0.15 0.556 0.24 0.123 0.0908 0.315 0.298 0.427 0.46l0.204 0.295-0.0964 1.56 0.467 0.489-0.0334 1.2 0.329 0.218c0.181 0.12 0.373 0.315 0.428 0.435 0.0544 0.119 0.0989 0.362 0.0989 0.539s-0.155 1.31-0.344 2.53c-0.189 1.21-0.481 3.23-0.649 4.49-0.168 1.26-0.305 2.37-0.305 2.49s0.0425 0.204 0.0945 0.204c0.052 0 0.382-0.102 0.733-0.227 0.369-0.131 0.657-0.286 0.682-0.368 0.0239-0.0776 0.183-1.33 0.354-2.78 0.171-1.45 0.444-3.63 0.608-4.84s0.356-2.56 0.428-3.01c0.0718-0.446 0.136-0.957 0.143-1.13 7e-3 -0.178-0.076-0.594-0.184-0.926-0.108-0.332-0.352-0.923-0.541-1.31s-0.708-1.27-1.15-1.95-0.782-1.26-0.749-1.29c0.0334-0.0317 0.43 0.0346 0.882 0.147 0.452 0.113 1.19 0.251 1.63 0.307 0.445 0.0563 1.1 0.078 1.45 0.0483 0.352-0.0298 0.825-0.0979 1.05-0.152 0.226-0.0536 0.739-0.254 1.14-0.445l0.731-0.347 0.653-0.664c0.389-0.396 0.806-0.934 1.03-1.33 0.208-0.368 0.495-1.01 0.638-1.42 0.142-0.413 0.335-1.1 0.429-1.53l0.17-0.782 0.0467-2.23c0.0257-1.23 0.073-2.23 0.105-2.23 0.0322 0 0.688 0.542 1.46 1.21 0.77 0.663 1.92 1.6 2.56 2.07 0.636 0.478 1.61 1.14 2.17 1.47 0.557 0.331 1.31 0.724 1.66 0.872 0.357 0.149 0.948 0.353 1.31 0.454l0.664 0.183 2.16 0.012 0.614-0.193c0.337-0.106 0.902-0.382 1.25-0.612 0.352-0.231 0.865-0.662 1.14-0.959 0.274-0.297 0.651-0.765 0.839-1.04s0.495-0.809 0.685-1.18c0.189-0.375 0.43-0.896 0.535-1.16 0.105-0.262 0.306-0.846 0.445-1.3s0.348-1.27 0.464-1.82 0.272-1.54 0.349-2.21c0.0764-0.666 0.167-1.29 0.201-1.38l0.0624-0.166 1.11 1.36c0.608 0.747 1.54 1.81 2.06 2.36 0.528 0.549 1.35 1.29 1.83 1.65 0.479 0.361 1.26 0.844 1.74 1.07 0.479 0.232 1.15 0.476 1.5 0.549 0.348 0.0718 0.899 0.131 1.23 0.131s0.881-0.0551 1.23-0.123c0.352-0.0674 0.957-0.245 1.34-0.394s1.1-0.512 1.6-0.807c0.491-0.295 1.26-0.814 1.71-1.15s1.25-0.986 1.77-1.44c0.523-0.451 1.74-1.58 2.7-2.52 0.961-0.934 1.77-1.7 1.8-1.7 0.0296 0 0.0276 0.983-5e-3 2.18-0.0388 1.45-0.0253 2.48 0.0401 3.05 0.0543 0.476 0.177 1.2 0.273 1.6 0.0957 0.404 0.327 1.05 0.515 1.44 0.19 0.392 0.536 0.918 0.781 1.19 0.242 0.265 0.645 0.599 0.896 0.743 0.25 0.143 0.705 0.324 1.01 0.403l0.555 0.142 1.73-0.0812 0.92-0.31c0.506-0.171 1.31-0.506 1.78-0.744 0.476-0.239 1.22-0.649 1.65-0.913 0.435-0.264 1.21-0.759 1.72-1.1 0.511-0.343 1.78-1.24 2.82-2 1.04-0.757 1.91-1.35 1.94-1.33 0.0284 0.0284-0.0896 0.665-0.262 1.41-0.173 0.75-0.355 1.73-0.406 2.18-0.0508 0.452-0.0665 1.08-0.0349 1.4s0.108 0.625 0.17 0.677l0.113 0.0934 0.601-0.179c0.331-0.0985 0.986-0.237 1.46-0.308 0.47-0.0708 1.09-0.129 1.39-0.129 0.294-2.8e-4 0.834 0.0412 1.2 0.0922 0.367 0.051 0.983 0.193 1.37 0.314 0.386 0.122 0.838 0.224 1 0.227 0.212 3e-3 0.759-0.219 1.82-0.738 0.833-0.409 2.43-1.23 3.56-1.83 1.12-0.6 2.09-1.09 2.14-1.09 0.0536 0 0.0966 0.0292 0.0955 0.0649-1e-3 0.0357-0.454 0.61-1.01 1.28-0.552 0.666-1.39 1.71-1.86 2.32-0.468 0.61-1.03 1.4-1.26 1.76-0.28 0.45-0.382 0.688-0.327 0.765 0.0439 0.0613 0.263 0.381 0.488 0.711 0.224 0.33 0.565 0.906 0.756 1.28 0.192 0.375 0.452 0.955 0.578 1.29 0.126 0.335 0.268 0.684 0.314 0.775l0.0846 0.165 0.068-0.122c0.0374-0.0671 0.288-0.862 0.556-1.77 0.269-0.904 0.777-2.54 1.13-3.64l0.641-1.99 0.242-0.231c0.133-0.127 0.386-0.292 0.563-0.366 0.177-0.0739 0.399-0.134 0.493-0.134 0.0943 0 0.273-0.133 0.397-0.295s0.377-0.356 0.562-0.43c0.19-0.0761 0.989-0.192 1.83-0.267 0.823-0.0725 2.16-0.132 2.97-0.132 0.809-2.3e-4 1.9 0.04 2.42 0.0893 0.523 0.0494 1.34 0.169 1.82 0.265 0.476 0.0963 0.978 0.241 1.12 0.321 0.138 0.0803 0.332 0.256 0.433 0.39l0.182 0.244v0.982l0.908 0.876 0.01 0.254c5e-3 0.14 2e-3 0.344-7e-3 0.455-9e-3 0.11-0.0718 0.333-0.139 0.495l-0.123 0.294 0.259 0.265c0.175 0.179 0.259 0.352 0.259 0.532 0 0.173 0.0912 0.371 0.26 0.562l0.26 0.296v0.706l-0.746 1.66c-0.41 0.91-1.02 2.28-1.35 3.04-0.332 0.761-0.973 2.24-1.42 3.29-0.451 1.05-1.29 3.01-1.86 4.37-0.572 1.36-1.25 2.97-1.5 3.59-0.251 0.619-0.933 2.29-1.52 3.72-0.582 1.43-1.64 4.07-2.35 5.88-0.768 1.96-1.37 3.37-1.48 3.48-0.128 0.129-0.371 0.225-0.711 0.281-0.284 0.0464-0.661 0.0846-0.84 0.0849-0.178 2.8e-4 -0.324 0.0348-0.324 0.0767s0.0929 0.324 0.206 0.627c0.114 0.303 0.254 0.785 0.313 1.07 0.0586 0.285 0.258 0.821 0.444 1.19 0.185 0.369 0.399 0.934 0.475 1.25 0.0962 0.408 0.124 0.806 0.0915 1.33-0.0286 0.463-0.132 1-0.274 1.43-0.125 0.376-0.378 0.936-0.562 1.25-0.184 0.309-0.538 0.789-0.787 1.07-0.249 0.278-0.709 0.699-1.02 0.937-0.314 0.238-0.843 0.563-1.18 0.723-0.333 0.16-0.917 0.378-1.3 0.484l-0.692 0.193-0.865 6.1e-4c-0.575 4.1e-4 -1.04-0.0506-1.38-0.152-0.285-0.0841-0.782-0.29-1.1-0.458-0.384-0.201-0.773-0.506-1.14-0.893-0.36-0.381-0.671-0.826-0.886-1.27-0.182-0.373-0.518-0.905-0.747-1.18-0.229-0.278-0.548-0.768-0.709-1.09-0.162-0.321-0.362-0.833-0.445-1.14-0.0973-0.357-0.151-0.863-0.15-1.42 7.3e-4 -0.529 0.058-1.08 0.147-1.43 0.0804-0.309 0.278-0.842 0.44-1.18s0.448-0.848 0.636-1.12c0.188-0.276 0.574-0.723 0.858-0.993s0.765-0.652 1.07-0.849l0.554-0.358 0.107-0.308c0.0589-0.169 0.0858-0.342 0.0598-0.384-0.026-0.0421-0.133-0.0767-0.237-0.0769-0.104-1.8e-4 -0.314-0.0765-0.467-0.17-0.153-0.0931-0.357-0.325-0.454-0.515-0.112-0.22-0.176-0.513-0.176-0.804 3.7e-4 -0.275 0.207-1.26 0.519-2.47 0.285-1.11 0.518-2.03 0.518-2.05 0-0.021-0.0531-0.0381-0.118-0.0381-0.0649 0-0.569 0.314-1.12 0.699-0.556 0.388-1.28 0.994-1.63 1.36-0.431 0.451-0.735 0.872-0.952 1.31-0.175 0.357-0.499 1.25-0.72 1.99s-0.467 1.55-0.546 1.82l-0.144 0.474-0.294 0.196c-0.193 0.129-0.423 0.196-0.67 0.196-0.237 0-0.376 0.0388-0.376 0.105 0 0.0575 0.133 0.418 0.297 0.8 0.163 0.383 0.353 0.968 0.421 1.3 0.0684 0.333 0.263 0.859 0.432 1.17 0.169 0.309 0.398 0.854 0.509 1.21l0.201 0.649-6e-3 2.16-0.196 0.725c-0.108 0.399-0.355 1.04-0.549 1.43-0.194 0.386-0.471 0.878-0.617 1.09-0.145 0.214-0.559 0.694-0.919 1.07-0.36 0.373-0.91 0.867-1.22 1.1-0.312 0.232-0.866 0.541-1.23 0.686-0.364 0.146-0.868 0.306-1.12 0.357-0.252 0.0503-0.847 0.0929-1.32 0.0947-0.476 2e-3 -1.06-0.042-1.3-0.0973-0.238-0.0553-0.717-0.241-1.06-0.412-0.397-0.196-0.869-0.533-1.27-0.909l-0.64-0.597-0.329 0.0905c-0.181 0.0498-0.529 0.206-0.773 0.346s-0.623 0.465-0.841 0.72-0.514 0.715-0.657 1.02c-0.143 0.306-0.347 0.868-0.453 1.25l-0.193 0.692-4e-3 2.23c-2e-3 1.28-0.0373 2.23-0.0828 2.23-0.0435 0-0.686-0.596-1.43-1.32s-1.7-1.59-2.13-1.91c-0.428-0.323-1.17-0.778-1.64-1.01-0.476-0.234-1.1-0.485-1.38-0.558-0.285-0.0732-0.87-0.135-1.3-0.137-0.429-2e-3 -1.05 0.0585-1.37 0.134-0.327 0.0759-0.924 0.292-1.33 0.481-0.402 0.188-0.99 0.527-1.31 0.752s-0.94 0.761-1.39 1.19c-0.445 0.43-1.07 1.11-1.39 1.52-0.32 0.404-0.798 1.05-1.06 1.43-0.264 0.381-0.692 1.04-0.952 1.47-0.26 0.43-0.797 1.39-1.19 2.14-0.397 0.748-0.752 1.36-0.788 1.36-0.036 0-0.0849-0.127-0.109-0.281-0.0237-0.155-0.127-0.787-0.23-1.41-0.103-0.619-0.282-1.45-0.398-1.86s-0.332-1.02-0.479-1.38c-0.148-0.355-0.458-0.928-0.689-1.27-0.231-0.346-0.64-0.829-0.908-1.07-0.268-0.245-0.715-0.56-0.993-0.7-0.278-0.14-0.749-0.313-1.05-0.383-0.298-0.0702-0.858-0.128-1.24-0.129-0.468-8.5e-4 -0.987 0.071-1.56 0.215-0.47 0.119-1.21 0.395-1.65 0.612-0.438 0.217-1.04 0.553-1.34 0.745s-0.914 0.644-1.37 1-1.44 1.26-2.19 2c-0.754 0.741-1.94 1.98-2.64 2.75-0.697 0.773-1.29 1.41-1.32 1.41-0.0318 0-0.0554-0.905-0.0522-2.01l0.0056-2.01-0.141-0.618c-0.0777-0.34-0.215-0.811-0.304-1.05-0.0896-0.236-0.313-0.654-0.496-0.93-0.191-0.288-0.55-0.661-0.843-0.877-0.292-0.215-0.752-0.45-1.07-0.55-0.393-0.121-0.806-0.174-1.37-0.174-0.441 0-0.927 0.025-1.08 0.0556-0.168 0.0335-0.307 0.128-0.351 0.238-0.0404 0.1-0.0974 0.329-0.127 0.509-0.0292 0.179-0.168 0.457-0.309 0.617-0.171 0.194-0.458 0.366-0.866 0.517-0.336 0.124-0.702 0.226-0.815 0.226-0.139 0-0.262 0.094-0.386 0.294-0.0999 0.162-0.271 0.352-0.38 0.424-0.109 0.0716-0.332 0.17-0.496 0.218-0.163 0.0481-1.35 0.501-2.63 1.01s-2.66 1.03-3.06 1.18c-0.396 0.141-0.798 0.256-0.893 0.256-0.095 0-0.287-0.114-0.426-0.253l-0.253-0.253v-0.701l-0.238-0.123c-0.131-0.0677-0.316-0.209-0.411-0.314l-0.173-0.191-0.0181-0.532c-0.0099-0.292-0.0197-0.561-0.0216-0.597-2e-3 -0.0357-0.0717-0.065-0.155-0.0652-0.0833-1.8e-4 -0.281-0.0791-0.438-0.175-0.179-0.109-0.355-0.328-0.467-0.581l-0.18-0.406 0.0518-1.33c0.0285-0.729 0.196-3.39 0.372-5.91 0.176-2.52 0.296-4.61 0.267-4.64-0.0295-0.0295-0.279 0.0352-0.554 0.144-0.275 0.108-0.545 0.251-0.599 0.317-0.054 0.0658-0.122 0.44-0.152 0.831-0.0297 0.391-0.0918 1.43-0.138 2.31-0.0463 0.88-0.142 3.43-0.213 5.67-0.0709 2.24-0.154 4.56-0.184 5.16l-0.055 1.1-0.163 0.268c-0.0897 0.147-0.287 0.343-0.438 0.435-0.151 0.0919-0.42 0.192-0.597 0.221-0.177 0.0299-0.411 0.149-0.52 0.265-0.127 0.136-0.983 0.52-2.41 1.08-1.22 0.48-2.5 0.969-2.86 1.09-0.357 0.118-0.812 0.288-1.01 0.38-0.2 0.0913-0.511 0.185-0.692 0.209-0.181 0.0238-0.417-9.7e-4 -0.524-0.0549zm31.9-6.11c0.767-0.752 1.77-1.66 2.22-2.03 0.456-0.363 1.17-0.879 1.58-1.15s1.11-0.657 1.55-0.864c0.44-0.207 0.995-0.441 1.23-0.521 0.238-0.0798 0.718-0.2 1.07-0.267 0.349-0.0673 1.06-0.122 1.57-0.122h0.934l0.767 0.221c0.422 0.122 0.981 0.341 1.24 0.488 0.262 0.147 0.696 0.436 0.965 0.643 0.269 0.207 0.719 0.661 0.999 1.01 0.28 0.349 0.688 0.982 0.905 1.41 0.218 0.425 0.482 1.04 0.588 1.36 0.112 0.342 0.234 0.574 0.292 0.555 0.0548-0.0182 0.27-0.322 0.478-0.675 0.208-0.353 0.695-1.09 1.08-1.63 0.387-0.546 1.13-1.44 1.65-1.98s1.27-1.23 1.67-1.53c0.395-0.296 1.06-0.715 1.47-0.931 0.414-0.216 1.01-0.473 1.32-0.571 0.309-0.0983 0.807-0.225 1.11-0.282 0.335-0.0634 0.916-0.0844 1.51-0.0546 0.533 0.0266 1.2 0.111 1.49 0.187 0.285 0.0761 0.884 0.313 1.33 0.527 0.446 0.214 1.13 0.611 1.51 0.883 0.387 0.272 0.952 0.725 1.26 1.01l0.552 0.512 0.064-0.121c0.0352-0.0663 0.0859-0.49 0.113-0.942 0.0296-0.5 0.138-1.13 0.276-1.6 0.125-0.426 0.361-1.03 0.525-1.34s0.477-0.771 0.695-1.02c0.218-0.249 0.647-0.632 0.954-0.851s0.741-0.467 0.966-0.552c0.225-0.0852 0.42-0.209 0.433-0.276 0.0135-0.0665-0.162-0.353-0.389-0.637s-0.451-0.528-0.497-0.543c-0.0457-0.0151-0.134 0.119-0.196 0.297-0.0619 0.179-0.18 0.4-0.263 0.491-0.0826 0.0913-0.248 0.215-0.367 0.275-0.119 0.0601-0.431 0.158-0.692 0.217-0.262 0.0591-0.612 0.196-0.779 0.305-0.167 0.109-1.71 0.669-3.43 1.24s-3.21 1.05-3.31 1.05-0.262-0.0401-0.354-0.0891c-0.0915-0.049-0.225-0.203-0.297-0.342-0.0719-0.139-0.131-0.348-0.131-0.465v-0.212l-0.307-0.181c-0.176-0.104-0.36-0.309-0.433-0.482-0.069-0.165-0.126-0.498-0.126-0.738v-0.438l-0.151-0.0469c-0.0833-0.0258-0.249-0.0985-0.368-0.162-0.119-0.063-0.301-0.237-0.405-0.387-0.104-0.15-0.206-0.319-0.226-0.376-0.0205-0.0572-0.0601-0.0832-0.088-0.0578s-0.167 0.636-0.308 1.36-0.325 1.41-0.406 1.54c-0.0819 0.125-0.251 0.28-0.377 0.345-0.125 0.0648-0.573 0.218-0.995 0.34s-0.83 0.276-0.906 0.342c-0.0759 0.0659-1.56 0.592-3.3 1.17-1.74 0.577-3.22 1.05-3.3 1.05s-0.248-0.0876-0.373-0.195c-0.154-0.132-0.242-0.314-0.276-0.564l-0.0495-0.369-0.206-0.0517c-0.113-0.0284-0.283-0.15-0.378-0.27l-0.172-0.218v-1.17l-0.411-0.204c-0.282-0.14-0.472-0.312-0.604-0.55-0.106-0.19-0.194-0.47-0.195-0.622-7.9e-4 -0.152-0.0363-0.298-0.0789-0.324-0.0426-0.0263-0.382 0.331-0.755 0.794s-1.09 1.25-1.59 1.74-1.27 1.17-1.7 1.49c-0.436 0.328-1.12 0.788-1.52 1.02-0.4 0.235-1.06 0.56-1.46 0.721-0.402 0.161-1.04 0.376-1.42 0.478-0.381 0.101-1.06 0.229-1.51 0.283-0.455 0.0549-1.13 0.074-1.52 0.0427-0.386-0.031-1.02-0.132-1.4-0.224-0.386-0.0922-0.95-0.28-1.25-0.418-0.303-0.138-0.84-0.445-1.19-0.684-0.352-0.239-0.935-0.74-1.3-1.11-0.36-0.374-0.812-0.914-1-1.2-0.191-0.285-0.55-0.895-0.797-1.35-0.247-0.46-0.507-0.884-0.578-0.942-0.0708-0.0587-0.146-0.0891-0.168-0.0675-0.0216 0.0216-0.118 0.893-0.213 1.94-0.0956 1.04-0.184 2.21-0.196 2.59l-0.0227 0.692 2.08-0.0538 0.662 0.173c0.364 0.095 0.853 0.269 1.09 0.388 0.233 0.118 0.62 0.37 0.86 0.56s0.637 0.611 0.882 0.937c0.25 0.332 0.564 0.895 0.714 1.28 0.147 0.379 0.324 1 0.392 1.38s0.143 0.783 0.166 0.89c0.0231 0.107 0.0664 0.195 0.0962 0.195s0.682-0.615 1.45-1.37zm-31.9 1.11c0.152-0.0924 0.312-0.238 0.356-0.324 0.0444-0.0858 0.111-0.312 0.149-0.502l0.0682-0.346 0.0897 0.238c0.0493 0.131 0.116 0.238 0.149 0.238 0.0328 0 0.11-0.185 0.171-0.411l0.111-0.411 0.0638 0.463c0.0351 0.255 0.0974 0.497 0.139 0.538 0.0421 0.0421 0.623-0.134 1.33-0.402 0.689-0.262 1.28-0.508 1.32-0.546 0.0383-0.0383 0.113-0.329 0.165-0.645 0.0525-0.317 0.125-0.576 0.162-0.576 0.0364 0 0.092 0.153 0.124 0.341 0.0317 0.188 0.117 0.39 0.189 0.45l0.131 0.109 0.36-0.184c0.198-0.101 0.481-0.208 0.63-0.238 0.149-0.0296 0.352-0.141 0.452-0.247l0.182-0.193 0.0871-4.06c0.0479-2.23 0.108-4.37 0.134-4.75 0.0256-0.381 0.103-1.59 0.171-2.68 0.0685-1.09 0.151-2.39 0.184-2.88 0.0346-0.512 0.104-0.923 0.163-0.973 0.057-0.0473 0.82-0.382 1.7-0.743 0.876-0.361 2.17-0.868 2.87-1.13 0.703-0.257 1.33-0.468 1.4-0.468 0.0671 0 0.141 0.0308 0.164 0.0683 0.0232 0.0376 0.0076 0.339-0.0347 0.67-0.0423 0.331-0.195 1.91-0.339 3.5s-0.358 4.32-0.476 6.06c-0.118 1.74-0.258 3.93-0.312 4.87-0.0539 0.941-0.0761 1.77-0.0492 1.84 0.0269 0.07 0.115 0.127 0.196 0.127 0.081 0 0.315-0.175 0.52-0.389 0.205-0.214 0.393-0.389 0.418-0.389 0.0246 0 0.0447 0.0779 0.0447 0.173 0 0.0952 0.0487 0.172 0.108 0.172 0.0595-7.3e-4 0.159-0.0333 0.22-0.0723 0.0616-0.0391 0.208-0.354 0.324-0.699s0.212-0.683 0.212-0.75c0-0.0668 0.0389-0.121 0.0865-0.121 0.0494 0 0.0865 0.258 0.0865 0.6 0 0.339 0.0409 0.626 0.094 0.659 0.0517 0.032 0.237-2e-3 0.411-0.0746 0.174-0.073 0.832-0.316 1.46-0.54 0.63-0.224 1.19-0.461 1.24-0.526 0.054-0.0651 0.171-0.118 0.259-0.118 0.0978 0 0.176-0.0762 0.199-0.195 0.0208-0.107 0.105-0.574 0.186-1.04 0.0815-0.464 0.178-0.843 0.215-0.843 0.0369 0 0.095 0.204 0.129 0.454 0.0342 0.25 0.0952 0.542 0.136 0.649 0.0489 0.129 0.145 0.195 0.287 0.195 0.12 0 0.27-0.0809 0.343-0.184 0.0813-0.116 0.181-0.164 0.269-0.131 0.0771 0.0296 0.271-9.4e-4 0.431-0.0678 0.16-0.0669 0.328-0.193 0.373-0.28 0.0449-0.0873 0.106-0.529 0.137-0.981 0.0303-0.452 0.133-1.99 0.229-3.42 0.0956-1.43 0.25-3.35 0.344-4.28 0.0935-0.928 0.212-2.21 0.263-2.85 0.051-0.642 0.229-2.53 0.396-4.2 0.167-1.67 0.438-4.22 0.603-5.67s0.496-4.27 0.736-6.27c0.24-2 0.631-4.96 0.871-6.57 0.239-1.62 0.511-3.46 0.603-4.1 0.0995-0.687 0.137-1.19 0.0906-1.24-0.046-0.046-0.229-0.0369-0.449 0.0222-0.212 0.0571-0.466 0.208-0.593 0.352-0.122 0.139-0.249 0.252-0.283 0.252-0.0337 0-0.0737-0.0876-0.0889-0.195-0.0193-0.136-0.0953-0.203-0.251-0.221-0.123-0.0143-0.271 0.0315-0.33 0.102-0.071 0.0856-0.199 0.113-0.387 0.0822-0.18-0.0292-0.769 0.0825-1.64 0.311-0.746 0.196-1.45 0.399-1.56 0.451l-0.208 0.095-0.142 0.506c-0.0781 0.278-0.179 0.529-0.225 0.557-0.0456 0.0282-0.0828-0.0232-0.0828-0.114 0-0.0909-0.0427-0.288-0.095-0.438-0.0522-0.15-0.152-0.272-0.221-0.272-0.0695 0-0.484 0.12-0.922 0.266-0.437 0.147-0.847 0.316-0.91 0.377-0.0645 0.0624-0.243 0.899-0.408 1.92-0.162 0.994-0.508 3.45-0.77 5.45s-0.572 4.49-0.689 5.53c-0.117 1.04-0.245 1.91-0.284 1.95-0.0392 0.0352-0.908 0.358-1.93 0.717s-2.41 0.857-3.09 1.11c-0.678 0.25-1.26 0.428-1.29 0.396-0.0321-0.0321 0.0086-0.749 0.0904-1.59 0.0819-0.844 0.246-2.43 0.365-3.52 0.119-1.09 0.372-3.18 0.562-4.63s0.479-3.53 0.642-4.63c0.163-1.09 0.263-2.02 0.222-2.06-0.0403-0.0403-0.319-4e-3 -0.62 0.0802-0.355 0.0996-0.662 0.257-0.874 0.449l-0.327 0.296-0.0534-0.139c-0.0294-0.0765-0.096-0.139-0.148-0.139-0.0521 0-0.583 0.179-1.18 0.398s-1.68 0.629-2.4 0.912l-1.31 0.514-0.0513 0.191c-0.0282 0.105-0.0518 0.332-0.0525 0.505s-0.0255 0.435-0.0552 0.584-0.085 0.27-0.123 0.27c-0.0378 0-0.095-0.119-0.127-0.265-0.0321-0.146-0.113-0.286-0.18-0.312-0.067-0.0257-0.218-0.0226-0.336 7e-3l-0.214 0.0537-0.126 0.453c-0.0693 0.249-0.191 0.862-0.271 1.36-0.08 0.5-0.179 0.967-0.22 1.04-0.0489 0.0856-0.0759-0.0174-0.0794-0.303-0.0029-0.238-0.043-0.723-0.089-1.08-0.046-0.355-0.106-0.715-0.133-0.8-0.0271-0.0853-0.104-0.155-0.171-0.155-0.0673 0-0.143 0.0876-0.168 0.195-0.0251 0.107-0.18 1.3-0.345 2.66-0.165 1.36-0.397 3.4-0.516 4.54-0.119 1.14-0.314 3.11-0.433 4.37-0.119 1.26-0.294 3.36-0.389 4.67-0.0952 1.31-0.232 3.24-0.304 4.28-0.0721 1.05-0.19 3.17-0.263 4.71-0.0726 1.55-0.17 4.35-0.216 6.23-0.0465 1.88-0.0592 4.26-0.0282 5.3l0.0563 1.88h0.101c0.0556 0 0.183-0.0876 0.284-0.195 0.1-0.107 0.229-0.389 0.285-0.627 0.0565-0.238 0.132-0.51 0.169-0.606l0.0659-0.173 0.0481 0.216c0.0264 0.119 0.0723 0.366 0.102 0.549l0.0538 0.333 0.146-0.0421c0.0802-0.0231 0.22-0.0725 0.311-0.11l0.165-0.0675-0.0586 0.777c-0.0322 0.427-0.0318 0.804 9.16e-4 0.836 0.0328 0.0327 0.102 0.0594 0.153 0.0592 0.0516-1.7e-4 0.218-0.076 0.369-0.168zm21.4-33.1c2e-3 -0.0952 0.0359-0.329 0.0752-0.519l0.0716-0.346 0.0086 0.389c0.0047 0.214-0.0291 0.448-0.0752 0.519l-0.0839 0.13zm11.2 23.4c0.309-0.0814 0.883-0.26 1.27-0.398 0.392-0.138 0.84-0.315 0.995-0.395 0.155-0.08 0.555-0.33 0.888-0.555 0.333-0.226 0.904-0.677 1.27-1 0.364-0.327 0.844-0.705 1.07-0.842s0.595-0.479 0.83-0.761 0.427-0.57 0.427-0.638c0-0.0688 0.131-0.271 0.291-0.45 0.16-0.179 0.359-0.461 0.443-0.627 0.0836-0.167 0.367-0.644 0.63-1.06 0.263-0.417 0.497-0.74 0.52-0.716 0.0234 0.0234-0.0433 0.242-0.148 0.486-0.105 0.244-0.169 0.466-0.142 0.493s0.0624 0.0331 0.0785 0.0132c0.0161-0.0198 0.147-0.211 0.291-0.425 0.144-0.214 0.56-0.942 0.923-1.62 0.364-0.675 0.87-1.71 1.13-2.29 0.255-0.586 0.659-1.61 0.897-2.28 0.238-0.666 0.592-1.78 0.787-2.47 0.195-0.69 0.475-1.76 0.622-2.38s0.402-1.79 0.567-2.6c0.165-0.809 0.433-2.27 0.596-3.24s0.415-2.65 0.558-3.72c0.144-1.07 0.322-2.47 0.396-3.11 0.0744-0.642 0.19-1.85 0.256-2.68 0.0666-0.833 0.149-2.2 0.182-3.05 0.0423-1.07 0.0327-1.54-0.0313-1.54-0.0507 0-0.132 0.127-0.18 0.281-0.0483 0.155-0.148 0.593-0.221 0.973-0.0733 0.381-0.174 1.03-0.224 1.45s-0.126 0.844-0.17 0.952l-0.0788 0.196-5e-3 -0.346c-3e-3 -0.19 0.0329-0.988 0.0797-1.77 0.0467-0.785 0.106-1.7 0.131-2.02l0.0463-0.596-0.283 0.0479c-0.156 0.0264-0.425 0.109-0.6 0.183l-0.317 0.135-0.13 0.413c-0.0713 0.227-0.153 0.52-0.182 0.651-0.0289 0.131-0.0862 0.238-0.127 0.238-0.0411 0-0.0983-0.0876-0.127-0.195-0.0287-0.107-0.0527-0.322-0.0533-0.479-7.7e-4 -0.185-0.0517-0.303-0.146-0.339-0.0796-0.0305-0.342 0.0143-0.584 0.0996-0.242 0.0853-0.795 0.321-1.23 0.524l-0.791 0.369-0.0626 0.378c-0.0344 0.208-0.0825 0.411-0.107 0.452-0.0243 0.0408-0.134-0.037-0.243-0.173l-0.199-0.247-0.547 0.293c-0.301 0.161-0.593 0.336-0.65 0.389-0.0586 0.0552-0.199 0.98-0.329 2.17-0.125 1.14-0.362 3.09-0.527 4.33-0.165 1.24-0.419 2.93-0.564 3.76s-0.419 2.29-0.609 3.24c-0.19 0.952-0.521 2.43-0.737 3.29-0.216 0.856-0.602 2.19-0.86 2.97-0.257 0.775-0.674 1.87-0.926 2.42-0.252 0.557-0.661 1.33-0.909 1.71-0.248 0.386-0.658 0.898-0.911 1.14s-0.621 0.517-0.818 0.617c-0.238 0.121-0.52 0.183-0.841 0.183-0.266 0-0.599-0.0598-0.74-0.133-0.141-0.0731-0.373-0.294-0.516-0.49-0.142-0.196-0.334-0.6-0.425-0.896-0.0915-0.296-0.207-0.981-0.257-1.52-0.0609-0.66-0.0634-1.45-0.0077-2.42 0.0456-0.789 0.125-1.82 0.176-2.29 0.0513-0.472 0.171-1.38 0.266-2.03 0.0948-0.642 0.25-1.6 0.344-2.12 0.0946-0.523 0.31-1.59 0.479-2.38 0.169-0.785 0.477-2.11 0.686-2.95 0.209-0.836 0.671-2.49 1.03-3.68 0.356-1.19 0.76-2.5 0.896-2.91 0.136-0.417 0.229-0.777 0.206-0.8-0.0233-0.0233-0.124-0.0423-0.223-0.0421-0.0991 1.8e-4 -0.306 0.0771-0.46 0.171-0.154 0.0938-0.4 0.356-0.547 0.584l-0.268 0.413 0.0518-0.373c0.0285-0.205 0.0274-0.412-0.0024-0.461-0.0322-0.0522-0.138-9e-3 -0.26 0.106l-0.206 0.194-0.322-0.291-1.07 0.311c-0.59 0.171-1.33 0.396-1.63 0.499l-0.561 0.188-0.174 0.454c-0.0957 0.25-0.214 0.454-0.264 0.454-0.0494 0-0.134-0.117-0.188-0.26-0.0613-0.162-0.159-0.26-0.262-0.26-0.0901 0-0.415 0.0828-0.721 0.184-0.307 0.101-0.603 0.228-0.66 0.281-0.0561 0.0535-0.263 0.564-0.459 1.14s-0.567 1.76-0.823 2.64c-0.257 0.88-0.622 2.22-0.812 2.98-0.19 0.761-0.521 2.22-0.735 3.24s-0.507 2.58-0.651 3.46c-0.144 0.88-0.339 2.28-0.434 3.11-0.0954 0.833-0.219 2.12-0.274 2.85-0.0578 0.77-0.0815 2.15-0.0559 3.24l0.0446 1.9 0.18 0.995c0.0989 0.547 0.254 1.25 0.346 1.56 0.0912 0.309 0.263 0.815 0.382 1.12 0.119 0.309 0.389 0.854 0.601 1.21 0.212 0.357 0.451 0.662 0.531 0.677 0.08 0.0155 0.544 0.44 1.03 0.943l0.886 0.915 0.521 0.239c0.286 0.131 0.753 0.307 1.04 0.39 0.285 0.0835 0.751 0.175 1.04 0.203 0.285 0.0281 0.889 0.0271 1.34-2e-3 0.452-0.0293 1.07-0.12 1.38-0.201zm0.0433-1.03c0.428-0.157 1.13-0.462 1.56-0.678 0.428-0.216 1.15-0.656 1.6-0.978 0.452-0.321 0.987-0.761 1.19-0.976s0.394-0.365 0.427-0.332c0.0327 0.0327 0.0133 0.105-0.043 0.162-0.0563 0.0563-0.102 0.137-0.102 0.179 0 0.0421 0.146-0.0365 0.324-0.175 0.178-0.138 0.46-0.345 0.625-0.46l0.301-0.209-0.301 0.421c-0.165 0.232-0.686 0.734-1.16 1.12-0.527 0.428-1.2 0.871-1.76 1.15-0.495 0.252-1.22 0.553-1.61 0.67-0.39 0.117-0.916 0.255-1.17 0.307-0.252 0.0519-0.505 0.0925-0.562 0.0901-0.0571-2e-3 0.246-0.132 0.675-0.289zm12.8-1.18c0.176-0.19 0.345-0.346 0.376-0.346s0.0566 0.0584 0.0566 0.13c0 0.0714 0.0524 0.13 0.116 0.13 0.064 0 0.175-0.0681 0.248-0.151 0.0722-0.0833 0.202-0.342 0.289-0.574l0.158-0.423 0.0639 0.163c0.0352 0.0898 0.0438 0.285 0.0192 0.435s-0.0121 0.291 0.0279 0.315c0.04 0.0242 0.751-0.195 1.58-0.488l1.51-0.531 0.107-0.346c0.0588-0.19 0.131-0.455 0.16-0.587 0.0293-0.133 0.0911-0.218 0.137-0.19 0.0462 0.0285 0.084 0.163 0.084 0.299 0 0.136 0.0236 0.309 0.0525 0.384 0.029 0.0755 0.152 0.137 0.274 0.137 0.122 0 0.295-0.0662 0.384-0.147 0.101-0.0911 0.278-0.139 0.465-0.127l0.302 0.0204 0.483-0.483 0.196-1.25c0.108-0.69 0.581-3.35 1.05-5.92 0.471-2.57 0.886-4.69 0.922-4.73 0.036-0.0345 0.688-0.313 1.45-0.62 0.761-0.306 1.78-0.706 2.27-0.887 0.545-0.203 0.92-0.3 0.969-0.25 0.0488 0.049 0.0147 0.416-0.0875 0.943-0.092 0.475-0.517 3.1-0.945 5.84-0.428 2.74-0.848 5.49-0.935 6.11-0.0862 0.624-0.142 1.18-0.124 1.23 0.0179 0.0537 0.104 0.0977 0.192 0.0977 0.0876 0 0.273-0.0954 0.411-0.212 0.158-0.133 0.317-0.195 0.427-0.166l0.175 0.0457 0.315-0.368c0.173-0.203 0.315-0.403 0.315-0.444 0-0.0418 0.0389-0.052 0.0865-0.0226s0.0865 0.146 0.0865 0.26c0 0.113 0.0335 0.227 0.0743 0.252 0.0409 0.0253 0.692-0.168 1.45-0.429 0.755-0.261 1.42-0.525 1.48-0.586 0.0612-0.0612 0.147-0.334 0.192-0.605 0.0442-0.272 0.104-0.532 0.133-0.579 0.029-0.0469 0.0893-0.0853 0.134-0.0853s0.0814 0.139 0.0814 0.308 0.0403 0.384 0.0896 0.476c0.0493 0.092 0.179 0.167 0.289 0.167 0.11 0 0.272-0.0793 0.359-0.176l0.16-0.176 0.247 0.0542c0.145 0.0317 0.299 0.0108 0.373-0.0506 0.0694-0.0576 0.126-0.199 0.126-0.315s0.0609-0.328 0.135-0.472c0.0744-0.144 0.193-0.541 0.264-0.882 0.0705-0.341 0.186-1.03 0.258-1.53s0.264-1.76 0.428-2.81 0.453-2.93 0.642-4.2c0.189-1.26 0.522-3.36 0.74-4.67 0.218-1.31 0.549-3.24 0.736-4.28s0.616-3.46 0.954-5.36 0.668-3.77 0.733-4.15c0.0652-0.381 0.236-1.33 0.379-2.12 0.143-0.785 0.358-1.93 0.476-2.55s0.269-1.38 0.335-1.69c0.0659-0.31 0.104-0.612 0.0841-0.67-0.0196-0.0588-0.112-0.107-0.205-0.107-0.0934 0-0.267 0.0973-0.386 0.216-0.119 0.119-0.253 0.216-0.299 0.216-0.0454 0-0.0826-0.0779-0.0826-0.173v-0.173h-0.203c-0.112 0-0.273 0.0779-0.359 0.173-0.0861 0.0952-0.192 0.173-0.236 0.173-0.0436 0-0.138-0.0584-0.209-0.13-0.0714-0.0714-0.215-0.112-0.318-0.0909-0.104 0.0214-0.689 0.161-1.3 0.309-0.612 0.149-1.21 0.313-1.32 0.365-0.129 0.0587-0.245 0.22-0.307 0.426-0.0547 0.182-0.133 0.332-0.174 0.332-0.0412 0-0.112-0.0973-0.157-0.216-0.0452-0.119-0.149-0.216-0.23-0.216-0.0811 0-0.418 0.0872-0.749 0.194-0.351 0.113-0.648 0.266-0.713 0.368-0.061 0.0956-0.231 0.777-0.377 1.51-0.146 0.738-0.593 3.15-0.992 5.36s-0.834 4.67-0.966 5.45-0.282 1.47-0.334 1.53c-0.0523 0.0569-1.08 0.456-2.29 0.886-1.21 0.431-2.23 0.762-2.27 0.737-0.041-0.0254-0.0566-0.152-0.0346-0.281s0.411-2.34 0.864-4.91c0.453-2.57 0.9-5.06 0.994-5.54 0.094-0.476 0.327-1.74 0.518-2.8 0.191-1.06 0.347-2.01 0.347-2.1 0-0.0903-0.0487-0.164-0.108-0.164-0.0595 2.6e-4 -0.264 0.0427-0.454 0.0944-0.19 0.0517-0.469 0.211-0.618 0.354l-0.272 0.26-0.176-0.315-0.635 0.203c-0.349 0.111-1.16 0.397-1.8 0.634s-1.22 0.47-1.27 0.518c-0.0582 0.0472-0.131 0.219-0.161 0.381-0.0304 0.162-0.0882 0.315-0.128 0.34-0.0401 0.0248-0.137-0.0535-0.216-0.174-0.0789-0.12-0.181-0.219-0.226-0.219-0.0454 0-0.373 0.121-0.727 0.268s-0.679 0.333-0.721 0.411c-0.0421 0.0786-0.375 1.8-0.739 3.82-0.364 2.02-0.795 4.38-0.957 5.23-0.162 0.856-0.43 2.3-0.596 3.2-0.166 0.904-0.773 4.19-1.35 7.31s-1.3 7.18-1.6 9.04c-0.305 1.86-0.672 4.14-0.817 5.08s-0.263 1.86-0.263 2.05v0.35h0.143c0.0787 0 0.287-0.156 0.463-0.346zm22.9-33.6c-1e-3 -0.0262 0.0931-0.571 0.21-1.21 0.117-0.64 0.253-1.28 0.302-1.42l0.0892-0.26-0.0454 0.433c-0.025 0.238-0.127 0.841-0.228 1.34s-0.215 0.967-0.254 1.04c-0.0394 0.0714-0.0728 0.108-0.0742 0.082zm5.32 32.6c0.428-0.172 0.934-0.416 1.12-0.542 0.191-0.126 0.679-0.563 1.08-0.973l0.738-0.744 0.401-0.777c0.221-0.427 0.486-1.11 0.59-1.51l0.189-0.735-0.0688-2-0.31-0.654c-0.204-0.43-0.474-0.817-0.787-1.13-0.262-0.262-0.685-0.578-0.94-0.703s-0.673-0.265-0.929-0.313c-0.256-0.0482-0.646-0.0871-0.865-0.0862-0.22 8.2e-4 -0.672 0.0582-1 0.128-0.333 0.0693-0.923 0.286-1.31 0.481-0.388 0.195-0.905 0.525-1.15 0.734-0.245 0.209-0.639 0.605-0.877 0.88s-0.622 0.877-0.855 1.34c-0.24 0.475-0.486 1.12-0.569 1.49l-0.147 0.659 0.062 1.95 0.324 0.656c0.178 0.361 0.509 0.851 0.735 1.09 0.226 0.238 0.625 0.541 0.887 0.673 0.262 0.132 0.632 0.292 0.822 0.355 0.231 0.0769 0.635 0.104 1.21 0.0807l0.865-0.0346zm0.0439-0.865c0.404-0.217 0.765-0.395 0.8-0.395 0.0357-1.6e-4 0.0649 0.0346 0.0649 0.0772s-0.185 0.196-0.412 0.342c-0.226 0.145-0.587 0.288-0.8 0.317l-0.389 0.0531zm14.7-0.635c0.327-0.153 0.658-0.279 0.736-0.279 0.0786 0 0.344-0.136 0.59-0.301s0.586-0.444 0.756-0.619c0.17-0.175 0.308-0.35 0.308-0.391 0-0.0403-0.0574-0.0732-0.128-0.0732-0.0702 0-0.445 0.256-0.832 0.569l-0.705 0.569-0.573 0.122c-0.315 0.0668-0.745 0.122-0.956 0.123s-0.358-0.0228-0.328-0.0525c0.0297-0.0297 0.3-0.137 0.6-0.238s0.847-0.372 1.21-0.601c0.368-0.229 0.854-0.608 1.08-0.842l0.411-0.425 0.273 0.361 0.148-0.148c0.0812-0.0812 0.312-0.381 0.512-0.666 0.201-0.285 0.442-0.641 0.538-0.791l0.173-0.272-0.01-1.73-0.229-0.499c-0.131-0.286-0.416-0.681-0.666-0.925-0.24-0.234-0.68-0.545-0.977-0.691-0.343-0.168-0.771-0.294-1.17-0.344-0.377-0.047-0.855-0.0473-1.18-9.8e-4 -0.302 0.0428-0.738 0.14-0.967 0.217-0.23 0.0765-0.663 0.274-0.962 0.44-0.299 0.166-0.791 0.532-1.09 0.815-0.302 0.283-0.71 0.761-0.907 1.06-0.197 0.302-0.439 0.778-0.539 1.06-0.103 0.291-0.2 0.827-0.225 1.25l-0.044 0.74 0.138 0.475c0.0759 0.261 0.294 0.693 0.486 0.96s0.545 0.63 0.786 0.807c0.241 0.177 0.66 0.395 0.931 0.484l0.493 0.162 1.73-0.0479zm-18.8-8.46c0.27-0.219 0.516-0.443 0.545-0.497 0.0293-0.0541 0.0785-0.205 0.109-0.334l0.0561-0.236-0.239-0.0573c-0.131-0.0315-0.35-0.113-0.485-0.181s-0.263-0.107-0.283-0.087c-0.0204 0.0204-0.0946 0.364-0.165 0.763-0.0703 0.399-0.128 0.794-0.128 0.878-7e-5 0.0833 0.022 0.151 0.049 0.151s0.27-0.18 0.541-0.399zm-34.5-0.769c0.242-0.476 0.577-1.22 0.743-1.64s0.436-1.21 0.599-1.73 0.466-1.61 0.675-2.42c0.208-0.809 0.516-2.15 0.684-2.99 0.168-0.836 0.442-2.33 0.608-3.33 0.166-0.996 0.383-2.37 0.481-3.06 0.0987-0.69 0.275-2.01 0.391-2.94 0.117-0.928 0.271-2.26 0.344-2.97 0.0894-0.868 0.185-1.38 0.295-1.6 0.0897-0.176 0.235-0.383 0.324-0.461 0.0883-0.0779 0.396-0.26 0.684-0.404s0.643-0.372 0.789-0.507c0.146-0.135 0.864-0.504 1.6-0.82 0.732-0.316 1.56-0.654 1.85-0.751 0.285-0.097 0.869-0.283 1.3-0.414s1.03-0.252 1.34-0.27l0.562-0.0317 0.303 0.156c0.167 0.0858 0.376 0.292 0.466 0.459 0.0896 0.167 0.318 0.413 0.508 0.547l0.345 0.244 0.237-0.227c0.13-0.125 0.964-0.537 1.85-0.916s2.42-0.958 3.41-1.29c0.986-0.329 2.14-0.682 2.56-0.786 0.507-0.124 0.873-0.168 1.08-0.13 0.173 0.0321 0.433 0.131 0.578 0.22 0.145 0.0888 0.354 0.324 0.466 0.523l0.203 0.362-0.105 1.58 0.127 0.168c0.0705 0.0931 0.127 0.351 0.127 0.58v0.412l0.307 0.234c0.178 0.136 0.337 0.201 0.379 0.156 0.0398-0.043 0.114-0.312 0.164-0.597 0.0504-0.285 0.173-0.908 0.272-1.38s0.221-0.967 0.27-1.09c0.0494-0.125 0.217-0.35 0.373-0.501l0.283-0.274 1.03-0.348c0.567-0.191 1.35-0.452 1.74-0.579s0.714-0.256 0.714-0.286c0-0.0305-0.24-0.103-0.533-0.16-0.293-0.0577-0.778-0.181-1.08-0.273-0.3-0.0926-0.83-0.359-1.18-0.592-0.349-0.233-0.79-0.612-0.981-0.841-0.191-0.23-0.431-0.536-0.532-0.682-0.101-0.145-0.32-0.535-0.485-0.865-0.165-0.33-0.401-0.933-0.525-1.34s-0.282-1.15-0.353-1.64c-0.0708-0.498-0.129-1.19-0.13-1.54l-2e-3 -0.634-0.125 0.028c-0.0685 0.0154-0.604 0.459-1.19 0.987-0.586 0.527-1.42 1.24-1.84 1.58-0.428 0.344-1.11 0.852-1.51 1.13-0.404 0.277-1.11 0.7-1.56 0.939s-1.15 0.551-1.56 0.691-0.988 0.297-1.3 0.347c-0.309 0.0505-0.796 0.116-1.08 0.147-0.313 0.0331-0.865 3e-3 -1.39-0.0755-0.478-0.0717-1.06-0.195-1.3-0.274-0.236-0.0791-0.719-0.277-1.07-0.44-0.355-0.163-1.04-0.556-1.51-0.874l-0.868-0.577-1.28-1.28c-0.703-0.704-1.31-1.28-1.35-1.28-0.0419 0-0.139 0.302-0.217 0.67-0.0772 0.369-0.319 1.22-0.537 1.88-0.218 0.666-0.585 1.6-0.815 2.08s-0.615 1.16-0.855 1.52c-0.24 0.363-0.688 0.931-0.994 1.26-0.307 0.331-0.842 0.798-1.19 1.04s-0.835 0.538-1.08 0.662c-0.247 0.124-0.753 0.313-1.12 0.42l-0.676 0.194-2.42-4e-3 -0.723-0.195c-0.398-0.107-0.904-0.255-1.12-0.329-0.221-0.0738-0.858-0.364-1.42-0.644-0.558-0.281-1.24-0.653-1.51-0.827-0.275-0.174-0.928-0.638-1.45-1.03-0.523-0.393-1.17-0.893-1.44-1.11-0.27-0.219-0.509-0.369-0.532-0.332-0.0224 0.0368-0.0668 0.339-0.0985 0.672-0.0318 0.333-0.115 0.936-0.185 1.34-0.0702 0.404-0.248 1.11-0.396 1.56-0.148 0.452-0.436 1.16-0.641 1.57s-0.571 1.01-0.814 1.34c-0.243 0.327-0.663 0.798-0.934 1.05l-0.493 0.452 0.174 2e-3c0.0955 1e-3 0.31-0.0374 0.476-0.0857 0.166-0.0483 0.862-0.205 1.55-0.348 0.685-0.143 1.62-0.317 2.08-0.386l0.836-0.126 0.311 0.0857c0.182 0.0504 0.526 0.29 0.832 0.582 0.294 0.279 0.549 0.605 0.584 0.746 0.0342 0.138 0.0228 0.507-0.0253 0.822l-0.0875 0.572 0.128 0.252c0.0778 0.154 0.111 0.38 0.084 0.579l-0.0438 0.327 0.149 0.135c0.0821 0.0743 0.205 0.135 0.272 0.135 0.0676-2.1e-4 0.571-0.16 1.12-0.355 0.547-0.195 1.58-0.546 2.29-0.78 0.714-0.234 1.76-0.539 2.34-0.678 0.571-0.139 1.47-0.319 1.99-0.401 0.594-0.0927 1.08-0.124 1.29-0.0845 0.235 0.044 0.456 0.178 0.705 0.427 0.247 0.247 0.383 0.471 0.426 0.7 0.0426 0.227 0.0136 0.529-0.0886 0.923l-0.152 0.586 0.374 0.476-0.109 0.646 0.331 0.21c0.182 0.116 0.404 0.292 0.493 0.391 0.0889 0.0994 0.18 0.348 0.202 0.552l0.0402 0.371-0.451 1.47c-0.248 0.809-0.643 2.15-0.877 2.98-0.234 0.833-0.614 2.29-0.845 3.24s-0.578 2.53-0.772 3.5c-0.193 0.975-0.429 2.34-0.524 3.03-0.095 0.69-0.218 1.81-0.273 2.48-0.055 0.676-0.0738 1.3-0.0417 1.38l0.0583 0.152 0.0856-0.127c0.0471-0.07 0.284-0.517 0.526-0.992zm57.7-2.31c0.0974-0.107 0.316-0.584 0.485-1.06s0.618-1.68 0.998-2.68c0.38-0.999 0.904-2.36 1.17-3.03s1-2.53 1.64-4.15 1.62-4.03 2.18-5.36c0.557-1.33 1.57-3.75 2.26-5.36 0.686-1.62 1.35-3.16 1.48-3.42 0.125-0.262 0.479-1.04 0.787-1.73 0.307-0.69 0.579-1.34 0.603-1.45l0.0441-0.195h-0.22c-0.121 0-0.335 0.097-0.476 0.216l-0.256 0.216-0.0488-0.187c-0.0311-0.119 0.077-0.447 0.299-0.906 0.191-0.395 0.323-0.759 0.293-0.808-0.0301-0.0487-0.124-0.0886-0.208-0.0886-0.0841 0-0.232 0.0876-0.328 0.195-0.0966 0.107-0.248 0.321-0.337 0.476s-0.189 0.281-0.223 0.281-0.0204-0.127 0.0302-0.281 0.0966-0.396 0.102-0.536l0.0101-0.255-0.303-0.0697c-0.167-0.0384-1.08-0.0946-2.03-0.125-1.09-0.0347-2.27-0.0156-3.18 0.0514-0.798 0.0586-1.56 0.135-1.69 0.17l-0.237 0.0633-0.312 0.812c-0.172 0.446-0.357 0.826-0.411 0.844-0.0638 0.0213-0.0984-0.103-0.0984-0.353 0-0.234-0.0501-0.427-0.127-0.491-0.087-0.0722-0.203-0.0809-0.368-0.0277l-0.241 0.0776-0.329 0.99c-0.181 0.545-0.616 1.92-0.967 3.07-0.351 1.14-0.93 3.09-1.29 4.33-0.356 1.24-0.902 3.13-1.21 4.2s-0.881 3.09-1.27 4.5-1.13 4.11-1.65 6.01c-0.522 1.9-1.08 3.99-1.25 4.65-0.164 0.652-0.299 1.26-0.299 1.36v0.177l0.195-3.2e-4c0.107-1.8e-4 0.322-0.078 0.478-0.173 0.156-0.095 0.302-0.173 0.324-0.173 0.0226 0 0.0412 0.0584 0.0412 0.13 0 0.072 0.0768 0.13 0.172 0.13 0.103 0 0.279-0.147 0.439-0.368 0.146-0.202 0.293-0.357 0.325-0.344 0.0322 0.013 0.0586 0.163 0.0586 0.334v0.31l2.68 0.0248 0.22-0.407c0.121-0.224 0.253-0.438 0.294-0.476 0.0407-0.038 0.05 0.114 0.0207 0.338l-0.0533 0.407 0.261 0.261 0.211-0.0802c0.147-0.0559 0.297-0.0428 0.495 0.0431 0.156 0.0678 0.364 0.125 0.463 0.127 0.0988 2e-3 0.259-0.0842 0.357-0.191zm2.5-8.54c0.0309-0.167 0.108-0.4 0.172-0.519l0.116-0.216-1.7e-4 0.216c-9e-5 0.119-0.0776 0.353-0.172 0.519l-0.172 0.303zm0.295-0.808c0-0.0371 0.0451-0.25 0.1-0.473 0.0551-0.223 0.308-0.964 0.563-1.65 0.255-0.682 0.519-1.34 0.589-1.47 0.0691-0.127 0.127-0.18 0.129-0.118 2e-3 0.062-0.153 0.588-0.344 1.17s-0.45 1.33-0.576 1.66c-0.126 0.333-0.281 0.682-0.345 0.776-0.064 0.0939-0.116 0.14-0.116 0.103zm-24.4 9.1c0.144-0.102 0.252-0.13 0.286-0.0757 0.0299 0.0484 0.13 0.0881 0.222 0.0881 0.112 0 0.255-0.156 0.436-0.476 0.148-0.262 0.287-0.476 0.31-0.476 0.0226 0 0.0287 0.204 0.0134 0.454l-0.0278 0.454 0.216-0.0143c0.119-8e-3 0.739-0.056 1.38-0.107 0.639-0.051 1.19-0.122 1.22-0.159 0.0327-0.0363 0.166-0.339 0.295-0.672 0.13-0.333 0.274-0.644 0.32-0.692 0.0539-0.0558 0.0624 0.104 0.0238 0.449-0.0329 0.295-0.0348 0.635-4e-3 0.757 0.0305 0.122 0.0945 0.221 0.142 0.221 0.0477 0 0.122-0.0876 0.166-0.195 0.0436-0.107 0.195-0.564 0.337-1.02 0.142-0.452 0.348-1.02 0.458-1.25l0.2-0.433 0.0273 0.224c0.015 0.123-0.0525 0.616-0.15 1.09-0.0976 0.479-0.177 1.01-0.177 1.17 0 0.165 0.0535 0.345 0.119 0.399 0.0653 0.0542 0.182 0.0745 0.259 0.045 0.0769-0.0295 0.181-0.215 0.231-0.412 0.0504-0.197 0.208-0.785 0.351-1.31 0.143-0.521 0.361-1.2 0.484-1.51 0.124-0.31 0.362-0.799 0.528-1.09 0.171-0.296 0.664-0.881 1.13-1.35 0.461-0.456 1.27-1.13 1.83-1.51 0.547-0.378 1.31-0.934 1.71-1.24 0.391-0.302 0.997-0.829 1.35-1.17 0.35-0.344 0.861-0.906 1.14-1.25s0.745-1.03 1.04-1.53c0.299-0.499 0.664-1.19 0.809-1.54 0.146-0.35 0.366-0.984 0.49-1.41s0.305-1.24 0.403-1.81l0.178-1.04-0.0439-1.43c-0.0267-0.868-0.101-1.68-0.19-2.08-0.0804-0.356-0.279-0.977-0.441-1.38s-0.456-1-0.654-1.34c-0.198-0.333-0.672-0.931-1.05-1.33-0.399-0.416-0.968-0.894-1.34-1.13-0.356-0.222-0.947-0.509-1.31-0.639-0.367-0.13-0.991-0.283-1.39-0.341-0.437-0.0639-1.06-0.0841-1.6-0.0516-0.486 0.0298-1.26 0.153-1.74 0.276-0.473 0.123-1.24 0.394-1.71 0.603-0.467 0.209-1.11 0.544-1.43 0.743-0.318 0.199-0.909 0.626-1.31 0.948-0.404 0.322-1.05 0.91-1.43 1.31-0.384 0.397-0.914 0.994-1.18 1.33-0.265 0.333-0.701 0.928-0.968 1.32s-0.486 0.793-0.486 0.887c0 0.0933 0.0798 0.25 0.177 0.347l0.177 0.177 0.298-0.184c0.164-0.101 0.298-0.157 0.298-0.123 0 0.034-0.0731 0.183-0.162 0.331-0.0893 0.148-0.229 0.476-0.311 0.729l-0.149 0.459 0.134 0.148c0.0735 0.0812 0.175 0.406 0.225 0.722 0.0505 0.316 0.173 0.841 0.272 1.17 0.0991 0.325 0.235 0.649 0.302 0.718l0.122 0.126 0.763-0.749-0.0383 0.421c-0.0211 0.232-0.0601 0.646-0.0867 0.921l-0.0484 0.5 0.14 0.214c0.077 0.117 0.175 0.214 0.217 0.214 0.0425 0 0.328-0.321 0.635-0.714s0.962-1.1 1.46-1.58c0.495-0.476 1.13-1.02 1.42-1.21 0.284-0.188 0.731-0.43 0.994-0.539 0.304-0.125 0.66-0.197 0.978-0.199 0.275-1e-3 0.644 0.0578 0.819 0.131 0.175 0.0732 0.392 0.2 0.482 0.281 0.0901 0.0814 0.242 0.301 0.337 0.488l0.174 0.34-0.0766 1.48-0.243 0.606c-0.133 0.333-0.421 0.878-0.639 1.21s-0.768 0.989-1.22 1.46c-0.453 0.469-1.41 1.33-2.12 1.92-0.714 0.585-1.59 1.37-1.95 1.74-0.36 0.374-0.773 0.855-0.918 1.07-0.145 0.214-0.385 0.63-0.533 0.924s-0.419 0.936-0.602 1.43c-0.183 0.491-0.441 1.24-0.572 1.67s-0.411 1.5-0.62 2.38c-0.21 0.883-0.381 1.68-0.381 1.76l-3e-5 0.158 0.281-0.0609c0.155-0.0335 0.385-0.135 0.513-0.225zm-0.0237-7.57c0.241-0.504 0.583-1.12 0.761-1.36 0.178-0.245 0.553-0.688 0.834-0.983l0.51-0.537-0.0548-0.218c-0.0301-0.12-0.169-0.277-0.309-0.35-0.14-0.0722-0.349-0.258-0.465-0.412-0.116-0.155-0.316-0.49-0.444-0.746-0.128-0.256-0.264-0.431-0.302-0.389-0.0383 0.0415-0.27 1.19-0.515 2.55-0.245 1.36-0.469 2.68-0.498 2.92-0.0288 0.243-0.0305 0.442-4e-3 0.442 0.0268 0 0.246-0.412 0.486-0.916zm-55.9-11.7c0.087-0.0787 0.158-0.176 0.158-0.216 0-0.0402-0.136-0.0731-0.303-0.0731s-0.303 0.0357-0.303 0.0794 0.0236 0.141 0.0525 0.216c0.0289 0.0753 0.0939 0.137 0.145 0.137 0.0506 0 0.163-0.0644 0.25-0.143zm58.1-6.93c0.326-0.293 0.929-0.761 1.34-1.04 0.412-0.28 0.956-0.622 1.21-0.76l0.462-0.252-0.0513-0.51c-0.0282-0.281-0.0513-0.933-0.0513-1.45v-0.939l-0.108 2e-3c-0.0595 8.6e-4 -0.575 0.329-1.15 0.73s-1.43 0.974-1.9 1.27-1.47 0.848-2.2 1.22l-1.34 0.67h1.19l0.358 0.174c0.197 0.0954 0.522 0.374 0.721 0.619s0.385 0.547 0.411 0.67c0.0268 0.123 0.0659 0.278 0.0869 0.345l0.0383 0.121 0.192-0.169c0.106-0.0932 0.459-0.409 0.785-0.702zm13.9-1.75c0.0738-0.143 0.0961-0.26 0.0496-0.26-0.0466 0-0.184 0.0452-0.305 0.1-0.121 0.0552-0.22 0.146-0.22 0.202s0.026 0.127 0.0577 0.159c0.0317 0.0317 0.109 0.0577 0.171 0.0577 0.0622 0 0.174-0.117 0.247-0.26zm-4.25 56.3c-0.0562-0.0358-0.305-0.376-0.554-0.756-0.248-0.38-1.41-2.19-2.57-4.02-1.17-1.83-2.14-3.39-2.16-3.47-0.0231-0.0883 0.0327-0.186 0.139-0.243l0.177-0.0949 1.41 1.13c0.775 0.624 2.32 1.9 3.44 2.84 1.12 0.941 2.2 1.86 2.41 2.05l0.381 0.34-0.0543 0.212c-0.0321 0.125-0.362 0.46-0.805 0.817-0.413 0.333-0.943 0.752-1.18 0.93-0.236 0.178-0.454 0.324-0.485 0.323-0.0309-7.3e-4 -0.102-0.0306-0.158-0.0663zm6.11-5.1c-0.0714-0.0251-1.16-0.639-2.42-1.36-1.26-0.725-3.15-1.82-4.2-2.43l-1.9-1.11-0.0262-0.182c-0.0145-0.1 0.0311-0.204 0.102-0.231 0.0704-0.027 1.1 0.202 2.29 0.509 1.19 0.307 3.33 0.89 4.74 1.3 1.42 0.406 2.66 0.795 2.77 0.866 0.108 0.0706 0.195 0.196 0.195 0.278-7.2e-4 0.0822-0.247 0.614-0.547 1.18-0.3 0.567-0.621 1.08-0.712 1.14-0.0917 0.0576-0.225 0.0841-0.296 0.059zm-85.1-44.4c-0.711-0.38-2.64-1.39-4.28-2.26-1.64-0.861-3.07-1.62-3.18-1.68-0.108-0.0661-0.195-0.204-0.195-0.312 0-0.127 0.315-0.529 0.915-1.17l0.915-0.972h0.211c0.139 0 0.411 0.184 0.793 0.537 0.32 0.295 1.86 1.76 3.42 3.26 1.56 1.5 2.88 2.79 2.92 2.87 0.0443 0.0828 0.0806 0.171 0.0806 0.197 0 0.0252-0.07 0.0834-0.156 0.129l-0.156 0.0833zm4.23-1.01c-0.0522-0.0349-0.915-1.29-1.92-2.79s-2.53-3.74-3.39-4.99c-0.861-1.25-1.57-2.34-1.57-2.44 0-0.0971 0.0876-0.233 0.195-0.302 0.107-0.0689 0.74-0.367 1.41-0.663 0.775-0.344 1.34-0.541 1.56-0.547l0.346-9e-3 0.372 1.08c0.205 0.595 1.06 3.18 1.9 5.74l1.52 4.66-0.0848 0.134c-0.0466 0.0739-0.121 0.146-0.165 0.16-0.0442 0.014-0.123-3e-3 -0.175-0.0381z" fill="#051d47"/></svg>
