<svg width="210mm" height="297mm" version="1.1" viewBox="0 0 210 297" xmlns="http://www.w3.org/2000/svg"><g transform="translate(1.39 8.06)"><path d="m66.2 193c-5.11-0.729-8.77-5.25-8.78-10.8-0.0068-3.7 1.98-10.6 5.43-18.9l0.568-1.36-0.3-0.323c-1.61-1.73-4.18-6.07-5.2-8.76-0.378-1-0.381-1-0.835-0.623-2.2 1.85-3.5 2.46-5.19 2.46-2.75 0-5.19-2.35-6.1-5.88l-0.236-0.92 0.0034-1.23c0.0129-4.63 3.95-11.1 10.5-17.3 7.87-7.44 14.2-9.2 16.5-4.61 0.206 0.408 0.528 0.978 0.717 1.26 0.714 1.09 1.03 2.6 0.873 4.14-0.0565 0.55-0.129 1.27-0.161 1.6-0.0318 0.331-0.0796 0.775-0.106 0.986-0.0734 0.584 0.104 0.458 0.363-0.256 4.33-11.9 6.86-15.7 11.6-17.1l0.92-0.278 3.68 5e-3 0.92 0.281c1.98 0.605 3.56 1.84 4.39 3.44 0.22 0.422 0.543 0.997 0.719 1.28 0.647 1.03 1.17 2.57 1.18 3.44 0.0028 0.426 0.0851 0.409 1.18-0.24 7.56-4.49 13.9-5.71 16.6-3.17l0.508 0.475 0.168-0.216c0.0926-0.119 0.463-0.637 0.823-1.15 8-11.5 22.2-13.2 27.3-3.33 0.703 1.36 0.72 1.37 0.808 0.49 0.507-5.08 1.15-7.31 2.64-9.18 3.59-4.49 12.6-5.39 16.4-1.62l0.836 0.832 0.46 0.958c0.253 0.527 0.624 1.23 0.825 1.57 0.51 0.846 0.775 1.6 0.934 2.64l0.137 0.895-0.102 0.914c-0.114 1.02-0.566 2.77-2.27 8.8-1.43 5.05-3.31 11.8-5.08 18.4-1.74 6.4-2.51 9.28-2.87 10.7-0.358 1.39-0.622 2.07-1.11 2.83l-0.14 0.218 0.576 0.678c1.18 1.39 2.61 4.15 3.11 5.99l0.18 0.665 6e-3 3.58-0.191 0.818c-2.72 11.6-16.5 13.2-20.3 2.3-0.284-0.811-0.345-0.836-0.759-0.312-2.07 2.61-7.31 5.48-11.3 6.15l-1.27 0.217-1.89-0.0527c-4.24-0.118-7.81-1.74-10.1-4.57-0.761-0.96-0.69-0.95-1.2-0.185-3 4.47-14.1 11.5-19.4 12.4-6.39 1.03-10.9-3.07-12-11l-0.0743-0.511-0.0867 0.204c-0.102 0.241-1.46 6.08-2.33 10-1.08 4.88-1.18 5.27-1.77 6.65-1.78 4.14-6.06 6.44-10.8 5.77zm45.2-39.7c3.08-6.04 8.82-7.2 11-2.22 1.13 2.57 4.74 2.64 4.74 0.102v-0.448l-0.377-0.484c-0.754-0.968-2.2-1.98-5.39-3.77-5.18-2.9-7.29-5.13-8.5-8.97-0.15-0.478-0.306-0.905-0.346-0.948-0.0593-0.0651-1.18 0.356-1.33 0.498-0.0235 0.023 0.24 0.298 0.585 0.61l0.628 0.569 0.381 0.786c0.21 0.432 0.51 0.953 0.666 1.16 0.415 0.541 0.771 1.36 0.963 2.23l0.169 0.757-0.0581 1.08c-0.212 3.95-2.37 7-6.52 9.17l-0.558 0.293 2.25 0.123 0.511 0.215c0.668 0.28 0.631 0.304 1.17-0.752zm31.7-11.4c4.5e-4 -0.0422 0.112-1.57 0.249-3.4 0.349-4.67 0.498-7.07 0.453-7.3l-0.0382-0.195-0.527 0.706c-1.13 1.52-2.71 2.83-4.36 3.63-1.02 0.496-1.02 0.412-0.0262 1.3 1.39 1.24 2.81 2.99 3.63 4.49 0.41 0.748 0.612 1 0.614 0.77zm-3.73 43.8-0.407-0.23-0.618-1.21 9e-3 -0.825c0.0195-1.77 1.99-7.32 2.6-7.32 0.289 0 1.26 3.53 1.42 5.16 0.334 3.39-1.1 5.5-3.01 4.42zm-8.33-1.21c-0.471-0.188-0.895-0.59-1.11-1.06l-0.218-0.464v-1.41l0.817-1.63 0.885-0.94c1.44-1.53 3.73-3.24 5.74-4.28l0.845-0.439 0.0635 0.166c0.188 0.49-1.27 4.65-2.38 6.81-1.33 2.57-3.14 3.84-4.63 3.25zm-84.1-9.93c-0.34-0.312-2.73-3.14-2.72-3.23 8.61e-4 -0.0386 0.0354-0.123 0.0767-0.188 0.083-0.13 5-3 8.36-4.89 1.18-0.662 2.5-1.41 2.93-1.65 1.72-0.979 1.59-0.758-1.91 3.2-6.88 7.78-6.28 7.17-6.73 6.76zm-5.8-9.84c-0.127-0.153-0.495-3.19-0.504-4.16l-0.0045-0.482 0.191-0.102c0.174-0.0931 13.6 0.953 13.7 1.07 0.251 0.251 0.184 0.272-6.73 2.13-7.03 1.89-6.47 1.76-6.65 1.55zm128-9.62c-1.59-1.08-5.84-4.04-7.54-5.26-1.94-1.39-1.91-1.39 4.23 7e-3 0.956 0.218 2.77 0.629 4.04 0.914 2.69 0.606 2.76 0.631 2.76 0.966 0 0.395-1.58 4.07-1.82 4.23l-0.208 0.138zm-7.71-9.97c-0.114-0.185 0.021-0.259 5.5-3.01 4.93-2.47 5.51-2.73 5.65-2.5 0.0858 0.139 0.746 3.13 0.826 3.74l0.0673 0.516-0.155 0.129c-0.0938 0.0778-1 0.207-2.29 0.327-1.17 0.109-3.76 0.359-5.76 0.557-4.21 0.417-3.76 0.388-3.85 0.241zm0.47-5.04c0-0.172 0.729-1.57 2.48-4.76 2.46-4.47 2.86-5.17 2.99-5.31l0.143-0.146 0.248 0.113c0.402 0.183 3.13 2.28 3.24 2.49l0.105 0.196-0.287 0.278c-0.158 0.153-1.05 0.899-1.97 1.66-0.927 0.759-2.81 2.31-4.17 3.46-2.6 2.17-2.78 2.3-2.78 2.02zm-112-10.5c-10.6-2.14-9.98-2-10.1-2.22-0.0524-0.137 1.11-3.52 1.39-4.06 0.202-0.385 0.901 0.0176 10.6 6.13 0.252 0.159 0.361 0.291 0.321 0.393-0.0756 0.197-0.052 0.2-2.29-0.251zm5.82-4.18c-0.563-0.396-3.62-2.66-8.04-5.96-1.65-1.23-2.48-1.91-2.48-2.03 0-0.407 3.26-3.92 3.54-3.82 0.332 0.127 7.71 11.5 7.71 11.9 0 0.307-0.172 0.281-0.728-0.11zm4.44-3.92c-0.301-0.372-4.13-10.1-4.1-10.4l0.0309-0.266 1.28-0.321c1.94-0.488 3.01-0.692 3.22-0.614l0.186 0.0714-0.0787 4.47c-0.12 6.83-0.172 7.51-0.54 7.06zm40.9-4.09c-0.28-0.814 2.52-5.66 4.31-7.45l1.08-1.08 1.42-0.673 1.34-0.0884 0.562 0.289c0.354 0.182 0.669 0.444 0.852 0.708l0.29 0.419 0.106 1.21-0.457 1.23-0.935 0.92c-1.75 1.72-8.34 5.2-8.57 4.52zm-3.24-2.29c-0.06-0.214-0.212-0.896-0.338-1.51l-0.229-1.12-5.05e-4 -2.04-5.04e-4 -2.04 0.237-0.869c0.328-1.2 0.794-2.1 1.42-2.72 2.12-2.12 4.74-0.418 3.97 2.57-0.41 1.58-4.19 8-4.77 8.11l-0.172 0.0318z" fill="#92d539"/><path d="m66.7 193c-5.29-0.563-9.1-5.05-9.1-10.7 0-3.48 1.73-9.68 4.92-17.6 1.2-2.97 1.15-2.59 0.395-3.49-1.65-1.97-3.8-5.67-4.86-8.39-0.455-1.17-0.41-1.15-1.21-0.454-1.55 1.35-2.81 2.02-4.18 2.23l-0.766 0.119-0.7-0.116c-0.398-0.0659-1.03-0.279-1.47-0.493l-0.767-0.377-0.716-0.729c-2.5-2.55-3.16-6.31-1.78-10.1 2.85-7.87 14.5-19.3 20.9-20.4l0.945-0.163 0.771 0.114c1.55 0.23 2.74 1.08 3.41 2.43 0.19 0.383 0.515 0.973 0.722 1.31 0.808 1.32 1.01 2.73 0.737 5.06-0.353 2.98-0.203 3.19 0.651 0.917 4.58-12.2 6.77-15.4 11.5-16.6l1.02-0.271 2.97-6e-3 0.906 0.225c0.499 0.124 1.3 0.42 1.79 0.659l0.883 0.433 1.64 1.64 0.436 0.818c0.24 0.45 0.617 1.14 0.839 1.53 0.508 0.902 0.788 1.73 0.909 2.7 0.128 1.02 0.091 1.02 1.59 0.15 4.65-2.68 8.98-4.26 12.1-4.4l1.28-0.0585 0.665 0.171c1 0.258 1.68 0.607 2.29 1.18 0.667 0.631 0.66 0.63 1.04 0.0309 3.97-6.33 11-10.7 17.3-10.7 4.91 0 8.25 2.14 10.6 6.77 0.678 1.36 0.748 1.39 0.843 0.415 0.525-5.41 1.15-7.62 2.7-9.57 3.5-4.4 12.8-5.19 16.3-1.39l0.673 0.727 0.607 1.19c0.334 0.656 0.773 1.51 0.977 1.91 1.14 2.2 1.05 2.91-1.52 12-2.42 8.58-2.67 9.48-6.02 21.8-0.702 2.59-1.47 5.44-1.7 6.34-0.787 3.03-0.992 3.6-1.47 4.12-0.244 0.266-0.274 0.201 0.557 1.19 1.08 1.29 2.56 4.19 2.97 5.85l0.224 0.906-4e-3 1.53c-0.0346 13-16 16.7-20.2 4.73-0.328-0.925-0.406-0.952-0.925-0.319-2.09 2.55-6.82 5.22-10.7 6.04l-1.3 0.275-3.89-5.8e-4 -1.07-0.23c-3.12-0.673-5.82-2.26-7.49-4.43-0.759-0.979-0.748-0.978-1.34-0.0501-2.44 3.85-12.7 10.7-18.1 12.1-7.05 1.83-11.9-2.32-13.1-11.1-0.0398-0.308-0.108-0.477-0.183-0.452-0.131 0.0435-1.06 3.93-2.58 10.8-1.24 5.56-1.57 6.56-2.73 8.27-1.9 2.8-5.47 4.33-9.17 3.93zm2.4-4.54c0.337-0.0925 1.05-0.378 1.58-0.635l0.971-0.466 0.871-0.882c1.5-1.51 1.85-2.43 3-7.63 2.53-11.5 4.11-17.6 6.37-24.6 1.54-4.78 4.25-12.1 6.33-17 0.317-0.751 0.821-2.01 1.12-2.8 0.613-1.61 1.18-2.86 3.12-6.9 1.53-3.19 1.85-4.03 1.92-5.11 0.176-2.63-1.38-4.61-4.06-5.17l-0.767-0.161-2.56 0.0916-0.932 0.314c-3.29 1.11-4.87 3.35-8.22 11.7-1.63 4.05-4.05 10.7-5.38 14.7-0.533 1.63-0.488 1.66-0.959-0.752-0.93-4.77-1.15-8.93-0.708-13.3 0.291-2.89 0.214-3.65-0.477-4.65-3.51-5.09-22.6 12.8-22.6 21.2 0 1.72 0.876 3.16 2.32 3.82l0.556 0.255 1.47-0.0744 0.562-0.278c1.2-0.595 5.04-3.96 5.48-4.8 0.221-0.427 0.317-0.355 0.394 0.3 0.528 4.45 3.86 10.7 7.48 14l0.748 0.685-0.917 1.84c-3.03 6.06-6.23 16.2-6.23 19.8v1.2l0.202 0.791c0.285 1.11 0.648 1.73 1.53 2.62l0.77 0.769 0.824 0.428c0.715 0.371 1.73 0.718 2.6 0.884 0.549 0.106 3.03-0.0234 3.63-0.189zm23.2-11.2c2.63-0.54 7.68-3.22 12.3-6.54 4.61-3.28 6.17-5.2 6.76-8.3l0.171-0.905-0.0493-1.18c-0.0868-2.07-0.617-3.45-1.58-4.13l-0.433-0.303-1.69-0.0872-0.898 0.214c-1.74 0.414-4.49 1.7-8.76 4.08-1.21 0.675-2.24 1.19-2.29 1.14-0.0998-0.0933 0.0788-1.17 0.61-3.68 0.324-1.53 0.472-2.16 0.764-3.29l0.0976-0.374 4.88-2.43c2.68-1.33 5.18-2.62 5.55-2.86 2.3-1.49 3.78-4.28 3.66-6.9l-0.0394-0.871-0.314-0.672c-1.21-2.58-4.01-2.12-10.8 1.77-0.998 0.576-1.08 0.562-0.869-0.15 0.329-1.11 1.56-4.71 1.64-4.78 0.312-0.302 5.34-2.63 7.75-3.59 2.78-1.11 3.36-1.51 4.35-3.01l0.688-1.04 0.463-1.42c0.567-1.73 0.732-2.71 0.667-3.95l-0.0497-0.946-0.235-0.46c-0.551-1.08-1.19-1.54-2.43-1.76l-0.724-0.124-0.907 0.121c-6.87 0.914-18.6 8.31-20.3 12.8l-0.262 0.688-0.105 1.89 0.178 0.742c0.0978 0.408 0.317 1.01 0.487 1.33l0.309 0.586-0.161 0.245c-0.365 0.557-1.88 4.37-2.74 6.92-3.5 10.3-5.33 20.1-4.64 24.7 0.71 4.73 4.44 7.46 8.92 6.54zm57.7-6.48c6.17-1.96 8.6-10.5 4.24-14.8l-0.777-0.779-0.86-0.421c-5.48-2.68-12.2 2.17-12.1 8.78l0.0119 1.18 0.214 0.802c0.716 2.68 2.69 4.68 5.33 5.39l0.767 0.205 2.45-0.0824zm-24.2-1.08c10.8-1.65 19.2-15.2 15.7-25.5-1.36-4.08-4.05-6.69-10.2-9.85-3.07-1.59-4.1-2.37-4.68-3.54l-0.274-0.561-0.0408-0.932c-0.137-3.12 2.39-6.27 5.26-6.57l0.528-0.0546 0.264 0.264c0.477 0.477 0.396 0.754-0.819 2.79-1.88 3.16-1.92 4.45-0.174 5.61 3.86 2.56 9.55-0.816 11.2-6.64 1.86-6.63-1.58-12.4-7.82-13.2l-1.01-0.119-1.15 0.117c-7.35 0.746-14.3 6.9-17.1 15.1-1.5 4.46-1.53 7.9-0.0892 10.7l0.491 0.942 1.12 1.13c1.3 1.31 2.05 1.83 4.86 3.37 1.1 0.604 2.59 1.49 3.32 1.96l1.33 0.866 0.974 0.985c1.09 1.1 1.44 1.67 1.74 2.84l0.208 0.8-0.066 0.665c-0.279 2.81-2.67 4.63-5.38 4.1-1.65-0.321-2.81-1.36-3.7-3.3-1.88-4.11-7.24-0.215-8.05 5.84-1.03 7.71 5.25 13.4 13.5 12.1zm-14.4-16c1.46-3.35 4.43-5.68 7.07-5.53l0.806 0.0466 0.583 0.267c1.09 0.501 1.86 1.33 2.47 2.68 0.377 0.833 0.907 1.45 1.52 1.76l0.514 0.26 0.638 4e-3c1.12 6e-3 2.03-0.607 2.32-1.55l0.123-0.411-0.119-0.398c-0.0737-0.246-0.344-0.628-0.706-0.998-1.04-1.06-1.31-1.24-6.54-4.31-3.98-2.33-5.99-4.67-7.05-8.19-0.321-1.07-0.292-1.06-1.29-0.665-0.85 0.333-0.85 0.354-0.0294 1.09l0.663 0.593 0.375 0.787c0.206 0.433 0.507 0.956 0.668 1.16 0.423 0.542 0.766 1.38 0.962 2.35l0.171 0.845-0.0662 0.793c-0.335 4.02-2.43 6.92-6.53 9.04-1.24 0.642-1.25 0.631 0.311 0.627l1.3-4e-3 0.665 0.262c0.824 0.325 0.813 0.33 1.18-0.505zm39.6-2.48c2.35-0.266 2.34-0.25 3.41-4.25 2.17-8.09 3.81-14.1 6.72-24.6 2.99-10.8 3.06-11.1 2.7-12.8-0.526-2.48-2.17-3.72-5.41-4.1l-1.01-0.116-1.28 0.124c-5.65 0.548-7.95 2.9-8.66 8.85-0.444 3.74-2.03 24-2.67 34.1l-0.0688 1.08 0.168 0.507c0.176 0.529 0.73 1.16 1.19 1.36 0.304 0.13 3.44 0.0657 4.91-0.1zm-7.73-9.33c0.0951-0.862 0.771-10.5 0.773-11 1e-3 -0.249-0.331 3e-3 -0.663 0.504-1.02 1.53-3.09 3.28-4.78 4.02-0.971 0.426-0.971 0.419-0.0139 1.23 1.47 1.25 2.84 2.94 3.84 4.73 0.707 1.26 0.76 1.29 0.84 0.562zm-97.5 31.2c-0.741-0.87-1.35-1.64-1.35-1.71 0-0.195 11.8-6.97 12-6.9 0.048 0.016-0.387 0.56-0.966 1.21-0.579 0.649-2.07 2.33-3.3 3.73-1.24 1.4-2.48 2.8-2.77 3.11-0.284 0.309-0.83 0.919-1.21 1.35-0.905 1.03-0.822 1.05-2.39-0.79zm-4.56-8.42c-0.0288-0.0465-0.124-0.817-0.211-1.71s-0.181-1.84-0.208-2.09c-0.0271-0.253-0.0062-0.528 0.0464-0.611l0.0956-0.151 6.57 0.545c3.62 0.3 6.61 0.579 6.66 0.621 0.0849 0.0794-0.66 0.293-6.37 1.83-6.46 1.74-6.48 1.74-6.58 1.57zm128-9.44c-5.77-3.96-8.85-6.16-8.67-6.2 0.161-0.0315 2.45 0.462 7.5 1.61 1.74 0.398 3.39 0.772 3.66 0.832 0.68 0.15 0.679 0.165-0.0889 2.05-1.17 2.86-0.948 2.71-2.4 1.71zm-7.62-10.3c0.11-0.0835 2.5-1.3 5.3-2.71l5.1-2.56 0.138 0.115c0.241 0.2 1.02 3.95 0.861 4.15-0.0534 0.0643-0.728 0.173-1.5 0.242-0.773 0.0688-3.25 0.305-5.49 0.526-2.25 0.221-4.2 0.4-4.35 0.398l-0.256-3e-3zm0.259-5.01c0-0.0597 1.27-2.4 3.65-6.75l1.63-2.97 0.199-0.0296c0.233-0.0346 3.25 2.2 3.29 2.45 0.0186 0.0963-0.607 0.679-1.64 1.52-0.916 0.752-2.87 2.37-4.34 3.6-2.51 2.09-2.79 2.31-2.79 2.18zm-116-11.2c-6.49-1.31-5.98-1.19-6.05-1.38-0.0729-0.19 1.3-3.94 1.47-4.01 0.068-0.0265 1.08 0.545 2.25 1.27 8.67 5.38 8.48 5.25 8.03 5.24-0.0984-4e-3 -2.66-0.508-5.7-1.12zm8.53-4.25c-0.869-0.645-2.43-1.8-3.47-2.57-4.38-3.22-5.73-4.27-5.73-4.45 0-0.224 3.03-3.66 3.23-3.66 0.203 0 5.41 7.92 7.41 11.3 0.446 0.747 0.253 0.667-1.45-0.595zm5.54-3.22c-0.0521-0.136-0.508-1.26-1.01-2.5s-1.39-3.44-1.97-4.89l-1.05-2.64 0.145-0.145c0.212-0.212 4.16-1.12 4.3-0.985 0.128 0.128-0.0984 11.2-0.232 11.3-0.0491 0.0536-0.126-0.0118-0.18-0.153z" fill="#070a04"/></g></svg>
