<?xml version="1.0" encoding="UTF-8" standalone="no"?>
<!-- Created with Inkscape (http://www.inkscape.org/) -->

<svg
   version="1.1"
   id="svg1"
   width="386"
   height="369"
   viewBox="0 0 386 369"
   sodipodi:docname="average_leftlowerarm.svg"
   xml:space="preserve"
   inkscape:version="1.4.3 (0d15f75, 2025-12-25)"
   xmlns:inkscape="http://www.inkscape.org/namespaces/inkscape"
   xmlns:sodipodi="http://sodipodi.sourceforge.net/DTD/sodipodi-0.dtd"
   xmlns="http://www.w3.org/2000/svg"
   xmlns:svg="http://www.w3.org/2000/svg"><defs
     id="defs1" /><sodipodi:namedview
     id="namedview1"
     pagecolor="#ffffff"
     bordercolor="#000000"
     borderopacity="0.25"
     inkscape:showpageshadow="2"
     inkscape:pageopacity="0.0"
     inkscape:pagecheckerboard="0"
     inkscape:deskcolor="#d1d1d1"
     inkscape:zoom="1.4812833"
     inkscape:cx="344.6336"
     inkscape:cy="184.6372"
     inkscape:window-width="1920"
     inkscape:window-height="991"
     inkscape:window-x="-9"
     inkscape:window-y="-9"
     inkscape:window-maximized="1"
     inkscape:current-layer="svg1" /><g
     id="g7"
     inkscape:label="average_leftlowerarm"><path
       style="display:inline;fill:#cecece"
       d="m 156.39339,272.48977 c -3.95302,-1.07354 -7.40306,-2.91665 -9.51593,-5.08368 l -1.9074,-1.9563 0.19718,-1.68755 c 0.10845,-0.92814 0.90629,-3.26777 1.77299,-5.19917 0.86669,-1.93139 1.84651,-4.84636 2.17736,-6.47771 0.33086,-1.63135 1.29472,-4.79181 2.14192,-7.02325 4.14358,-10.91377 7.17928,-25.37967 9.98104,-47.56234 2.21476,-17.53512 3.92549,-24.41803 9.24506,-37.19634 3.86236,-9.2779 4.95131,-13.83262 5.42631,-22.69641 0.57673,-10.76215 2.24883,-23.13846 3.23095,-23.91436 0.25645,-0.20261 1.60756,-0.78259 3.00246,-1.28885 l 2.53618,-0.92046 5.85271,0.03 c 9.98953,0.0512 18.79774,3.4272 26.1503,10.023 l 2.52799,2.26779 v 1.49431 c 0,2.31097 -1.43913,9.04963 -3.12865,14.64968 -2.20001,7.29217 -2.98285,10.96453 -3.70039,17.35886 -0.85124,7.58573 -1.38611,9.93078 -3.67564,16.11511 -1.07065,2.89198 -2.49185,7.42946 -3.15823,10.0833 -3.17668,12.65117 -5.24235,17.81482 -14.88558,37.21016 -6.87625,13.83015 -13.1231,27.6317 -14.5698,32.18992 -0.3746,1.1803 -1.27333,3.67855 -1.99716,5.55168 -0.79572,2.05914 -1.3266,4.14178 -1.34269,5.26744 -0.0146,1.02397 -0.32191,3.00304 -0.68282,4.39793 l -0.65619,2.53618 -2.30946,1.11839 -2.30945,1.1184 -3.93344,0.14153 c -2.90462,0.10452 -4.5968,-0.0386 -6.46962,-0.54723 z"
       id="path9"
       inkscape:label="leftlowerarm_base" /><path
       style="display:inline;fill:#b7b7b7"
       d="m 168.31865,269.22987 c -1.3449,-2.27674 -0.85171,-8.51589 0.95113,-12.03243 0.76741,-1.49687 1.28866,-3.4241 1.72328,-6.37141 0.34269,-2.32397 0.8118,-4.57804 1.04247,-5.00904 0.41641,-0.77807 4.08022,-11.13714 6.18692,-17.49293 0.60462,-1.8241 1.39227,-3.99044 1.75034,-4.8141 0.35806,-0.82366 0.83293,-2.49169 1.05525,-3.70672 0.25673,-1.40308 1.19979,-3.63283 2.58459,-6.11096 7.31617,-13.09243 10.72265,-22.34339 9.26526,-25.16166 l -0.65175,-1.26034 -1.0624,1.01785 c -2.01722,1.93262 -2.16839,0.83845 -0.39845,-2.88396 0.66325,-1.3949 2.05211,-4.64315 3.08635,-7.21835 1.57272,-3.91595 3.65995,-8.2924 5.77532,-12.10951 0.23362,-0.42155 0.89824,-1.73215 1.47694,-2.91245 0.57869,-1.1803 1.32538,-2.67274 1.65931,-3.31654 0.76621,-1.47724 1.40361,-10.38292 0.77111,-10.77383 -0.23141,-0.14301 -0.32366,-0.7618 -0.20516,-1.37609 1.03138,-5.34662 1.83538,-10.32542 1.84997,-11.45602 0.025,-1.93431 1.3764,-8.17868 1.8788,-8.68107 0.42868,-0.42868 1.22952,1.04889 1.22952,2.26849 0,2.20242 2.31622,-2.09843 3.53338,-6.56093 0.51216,-1.87775 1.08832,-3.41408 1.28036,-3.41408 0.48638,0 3.77089,2.45253 4.8985,3.65769 l 0.93318,0.99735 -0.25436,2.45219 c -0.31545,3.04119 -1.7507,9.21928 -3.52232,15.162 -1.68633,5.65662 -2.41291,9.19587 -2.95782,14.40777 -0.72543,6.93857 -1.60004,10.90786 -3.61017,16.38422 -1.06271,2.89524 -2.69653,8.16268 -3.63072,11.70542 -3.24111,12.29141 -5.55402,18.14666 -12.94801,32.77857 -8.23853,16.30317 -13.84976,28.61411 -16.62817,36.4819 -0.75783,2.146 -1.74071,4.90702 -2.18418,6.1356 -0.44347,1.22859 -0.82036,2.9844 -0.83754,3.90181 -0.0172,0.91741 -0.32444,2.72151 -0.68283,4.0091 l -0.65162,2.34109 -0.9789,0.11438 c -0.75217,0.0879 -1.15231,-0.17917 -1.72758,-1.15301 z m -22.60446,-4.92703 c -0.31036,-0.50217 0.78655,-4.12457 1.93685,-6.3962 0.50883,-1.00483 1.27444,-3.3951 1.70135,-5.3117 0.42692,-1.9166 1.31142,-4.86946 1.96555,-6.56191 4.26606,-11.03757 7.52501,-26.5146 10.34274,-49.11853 1.85846,-14.90866 4.06539,-24.26391 7.84753,-33.26598 5.2897,-12.59025 6.21713,-16.13379 6.79134,-25.94834 0.61455,-10.50397 2.31289,-22.80569 3.22886,-23.38785 1.26844,-0.80618 1.71989,0.78977 1.10517,3.90697 -2.00251,10.1546 -1.9405,18.23902 0.21224,27.67227 l 1.44539,6.33366 -0.69714,2.95711 c -0.42174,1.78894 -0.59658,3.49314 -0.44258,4.31401 l 0.25456,1.35691 -1.32831,2.12358 c -1.56996,2.50991 -1.85563,2.44416 -1.34967,-0.31066 0.89489,-4.87248 -0.15476,-10.81756 -1.90992,-10.81756 h -0.62702 l 0.27575,1.85336 c 0.66668,4.48077 0.67467,4.69128 0.18936,4.99122 -0.30307,0.1873 -0.76444,-0.0361 -1.20938,-0.58556 l -0.71937,-0.88839 -0.58036,0.48166 c -1.74695,1.44984 -5.13928,10.17303 -7.39968,19.02788 -0.77878,3.05076 -1.76667,13.11309 -1.7711,18.03972 -0.004,4.06567 -0.44923,6.21817 -1.61304,7.79231 -0.69444,0.93929 -3.05973,13.28826 -4.03781,21.08107 -0.14814,1.1803 -0.53329,3.07994 -0.85589,4.22142 -0.3226,1.14148 -0.48006,2.49972 -0.3499,3.01831 0.36205,1.44254 -1.89484,7.67054 -5.1507,14.21359 l -1.45288,2.91974 -0.0203,3.32316 c -0.0218,3.56114 -0.29635,4.35324 -2.7405,7.90641 -0.70141,1.01966 -1.48575,2.51255 -1.74299,3.31751 -0.54286,1.69876 -0.97005,2.27164 -1.29812,1.74081 z m 60.99173,-141.15758 c -0.50998,-0.61449 -1.14751,-3.33494 -1.27426,-5.43747 l -0.0706,-1.17054 h 1.36563 1.36564 l 0.27211,2.4672 c 0.37053,3.35947 -0.50105,5.53551 -1.65855,4.14081 z m 3.92261,-3.42153 c 0,-0.73388 0.37549,-1.02163 1.0136,-0.77677 0.82994,0.31848 0.65397,1.29701 -0.23324,1.29701 -0.4292,0 -0.78036,-0.23411 -0.78036,-0.52024 z"
       id="path8"
       inkscape:label="leftlowerarm_shadow" /><path
       style="display:inline;fill:#a1a1a1"
       d="m 170.65348,263.1804 c -0.20119,-3.76922 -0.12534,-5.68291 0.30674,-7.73877 0.31571,-1.5022 0.69705,-3.69697 0.84742,-4.87726 0.15037,-1.1803 0.76096,-3.28728 1.35688,-4.68217 0.59591,-1.3949 1.38862,-3.50188 1.76158,-4.68217 0.37295,-1.1803 0.93234,-2.40937 1.24307,-2.73127 l 0.56498,-0.58527 -0.19829,0.97545 c -0.10905,0.5365 -0.31138,1.67243 -0.4496,2.52429 -0.13823,0.85185 -0.65992,2.25651 -1.15933,3.12144 -0.94144,1.63054 -1.92898,6.6008 -1.69477,8.52972 l 0.1341,1.10439 1.43977,-3.44547 c 0.79187,-1.89502 1.56273,-3.97222 1.71302,-4.61602 0.1503,-0.6438 0.53882,-1.69655 0.86339,-2.33945 0.32457,-0.6429 0.56891,-1.73347 0.54297,-2.42349 -0.0298,-0.79355 0.28591,-1.65445 0.85922,-2.34272 0.49852,-0.59848 1.12148,-1.99543 1.38436,-3.10433 0.26289,-1.10891 0.81511,-2.3213 1.22716,-2.6942 0.41205,-0.3729 0.74918,-1.09669 0.74918,-1.60843 0,-0.57041 0.6039,-1.52237 1.56072,-2.46025 1.50224,-1.47249 1.71909,-1.9822 1.58599,-3.72795 -0.0336,-0.44087 0.38591,-1.28393 0.93227,-1.87346 0.54635,-0.58953 0.99337,-1.47456 0.99337,-1.96674 0,-0.49219 0.35116,-1.21268 0.78036,-1.6011 0.4292,-0.38842 0.78632,-0.89848 0.7936,-1.13347 0.007,-0.23499 0.35249,-1.12958 0.76713,-1.98797 0.41463,-0.8584 0.75984,-1.87417 0.76712,-2.25727 0.007,-0.3831 0.25915,-1.08543 0.55971,-1.56073 0.30057,-0.47529 0.73891,-1.79178 0.9741,-2.92551 0.23519,-1.13374 0.79164,-2.77488 1.23656,-3.64699 0.98522,-1.93119 0.69842,-2.43546 -0.50434,-0.88677 -1.32523,1.70638 -2.55922,2.88838 -3.01542,2.88838 -0.71745,0 -0.4432,-0.6643 0.97509,-2.36188 0.76065,-0.91044 1.83745,-2.46339 2.39288,-3.451 0.55543,-0.98761 1.49095,-2.49797 2.07893,-3.35637 1.39627,-2.03844 4.59612,-8.43413 5.46379,-10.92075 1.4034,-4.02194 2.66777,-7.46022 3.22993,-8.78338 0.31912,-0.7511 0.79078,-2.63413 1.04813,-4.18452 0.45741,-2.75564 1.6432,-5.0324 2.3829,-4.57524 0.37743,0.23326 0.49002,-0.46355 0.36881,-2.2825 -0.0751,-1.127 0.62831,-2.35782 1.15978,-2.02935 0.31131,0.1924 1.17143,-2.73003 1.17143,-3.98018 0,-0.38985 -0.3721,-0.9412 -0.82689,-1.22522 l -0.8269,-0.51641 0.19152,-1.99312 c 0.14663,-1.52601 0.43186,-2.19987 1.21707,-2.87528 0.56406,-0.48518 1.02556,-1.13958 1.02556,-1.45422 0,-4.39628 -2.99896,0.0168 -4.82203,7.0958 -0.63898,2.48118 -1.19268,3.67468 -2.3532,5.07235 -0.83469,1.00525 -1.75885,2.39837 -2.05369,3.09582 -0.75184,1.77849 -1.46496,1.6542 -1.11938,-0.19509 0.15039,-0.80475 0.40813,-1.63876 0.57276,-1.85336 0.16462,-0.2146 0.7739,-1.65032 1.35393,-3.19049 0.58004,-1.54016 1.30698,-3.00975 1.61543,-3.26574 0.827,-0.68634 1.73383,-4.10856 1.73383,-6.54311 0,-2.44936 0.75113,-7.11432 1.2335,-7.66074 0.17997,-0.20386 0.32991,1.37637 0.3332,3.51163 0.006,4.00922 0.50929,4.49493 0.99022,0.95595 0.13123,-0.9657 0.92425,-3.176 1.76226,-4.91177 2.58118,-5.34637 2.94451,-6.62409 4.228,-14.86822 0.66933,-4.29927 2.01002,-8.31303 2.77675,-8.31303 2.19261,0 1.83709,6.52303 -0.82339,15.10754 -2.02766,6.54261 -3.43164,12.96745 -4.07396,18.6431 -0.84758,7.48938 -1.50839,10.45066 -3.56014,15.95396 -0.969,2.59909 -2.52592,7.62271 -3.45983,11.16361 -3.52422,13.36199 -4.88452,16.7228 -15.08205,37.26227 -9.17794,18.48583 -11.01154,22.6744 -16.48291,37.65245 -0.50954,1.39489 -1.12675,3.85085 -1.37156,5.45767 -0.68224,4.47776 -1.07972,4.06499 -1.37279,-1.42562 z m -24.00593,-2.21084 c -0.005,-0.17863 0.51975,-1.52877 1.16562,-3.0003 0.64586,-1.47154 1.45262,-4.02141 1.79281,-5.66639 0.55928,-2.70437 1.52446,-5.64031 1.85424,-5.64031 0.0708,0 -0.1007,1.18517 -0.38108,2.63372 -0.28038,1.44855 -0.51623,3.26749 -0.52412,4.04209 -0.0177,1.73586 -3.86428,9.24817 -3.90747,7.63119 z m 5.70059,-17.13581 c 0.32717,-1.12665 1.18063,-3.97985 1.89659,-6.34044 3.13778,-10.34566 4.96871,-20.03229 7.43239,-39.32128 2.35719,-18.45534 3.97388,-24.99361 9.31242,-37.66176 3.70329,-8.78777 4.83453,-13.26588 5.34215,-21.14744 0.38011,-5.90179 1.78139,-17.94794 2.12816,-18.2947 0.29752,-0.29753 0.18553,1.88509 -0.4082,7.95491 -0.31486,3.21899 -0.57608,7.82671 -0.58049,10.23938 l -0.008,4.38668 -1.42147,5.52642 c -0.93836,3.64817 -2.11944,7.00613 -3.47511,9.88022 -3.78992,8.03482 -6.45851,17.02314 -7.93858,26.73861 -0.44135,2.89709 -0.96464,6.14535 -1.16286,7.21834 -0.19823,1.073 -0.48114,3.26777 -0.6287,4.87726 -1.28803,14.04931 -7.13164,41.78739 -9.74166,46.24105 -1.32783,2.26578 -1.47402,2.20758 -0.74664,-0.29725 z m 27.16347,-90.69139 c -0.57775,-1.00956 -0.65357,-3.63483 -0.10498,-3.63483 0.51941,0 0.87276,1.55542 0.719,3.165 l -0.1263,1.32208 z"
       id="path7"
       inkscape:label="leftlowerarm_outline" /></g></svg>
