<?xml version="1.0" encoding="UTF-8" standalone="no"?>
<!-- Created with Inkscape (http://www.inkscape.org/) -->

<svg
   version="1.1"
   id="svg1"
   width="386"
   height="369"
   viewBox="0 0 386 369"
   sodipodi:docname="average_torso.svg"
   xml:space="preserve"
   inkscape:version="1.4.3 (0d15f75, 2025-12-25)"
   xmlns:inkscape="http://www.inkscape.org/namespaces/inkscape"
   xmlns:sodipodi="http://sodipodi.sourceforge.net/DTD/sodipodi-0.dtd"
   xmlns="http://www.w3.org/2000/svg"
   xmlns:svg="http://www.w3.org/2000/svg"><defs
     id="defs1" /><sodipodi:namedview
     id="namedview1"
     pagecolor="#ffffff"
     bordercolor="#000000"
     borderopacity="0.25"
     inkscape:showpageshadow="2"
     inkscape:pageopacity="0.0"
     inkscape:pagecheckerboard="0"
     inkscape:deskcolor="#d1d1d1"
     inkscape:zoom="1.4812833"
     inkscape:cx="325.73107"
     inkscape:cy="238.64442"
     inkscape:window-width="1920"
     inkscape:window-height="991"
     inkscape:window-x="-9"
     inkscape:window-y="-9"
     inkscape:window-maximized="1"
     inkscape:current-layer="svg1" /><g
     id="g12"
     inkscape:label="average_torso"><path
       style="display:inline;fill:#d5d5d5"
       d="m 155.03657,275.45399 c -14.95089,-1.28319 -29.75184,-8.00688 -33.4751,-15.20688 l -0.5975,-1.15544 0.46982,-3.35477 c 0.2584,-1.84512 0.86465,-4.75384 1.34722,-6.46382 0.48256,-1.70999 0.96855,-4.50814 1.07995,-6.21812 0.11141,-1.70998 0.61032,-4.59557 1.10869,-6.41243 l 0.90613,-3.30337 -0.029,-5.63517 c -0.0196,-3.80548 -0.30134,-7.2987 -0.86773,-10.75859 -0.4613,-2.81788 -0.8429,-6.5779 -0.848,-8.35559 -0.005,-1.77769 -0.18332,-3.93171 -0.39605,-4.7867 -0.21273,-0.85499 -0.49901,-3.82302 -0.63618,-6.59563 l -0.24941,-5.0411 -1.46833,-2.73154 c -0.80759,-1.50235 -1.85184,-4.21806 -2.32057,-6.03492 l -0.85224,-3.30337 0.21487,-5.05222 c 0.13608,-3.19948 0.4922,-6.04985 0.9711,-7.77264 0.41592,-1.49624 1.30721,-4.81904 1.98063,-7.38401 3.51701,-13.39567 13.92397,-21.81302 23.11214,-18.69355 2.51592,0.85417 15.68834,1.87971 18.04246,1.40469 1.00885,-0.20357 6.73104,-0.80815 12.71598,-1.34351 5.98493,-0.53537 14.64171,-1.34113 19.23729,-1.79059 14.86662,-1.454 21.38294,-0.87322 28.17583,2.51119 21.37942,10.65184 19.44585,34.64178 -5.57836,69.21121 -10.61632,14.66582 -12.19018,18.5081 -12.65556,30.89626 l -0.2409,6.41243 1.37551,5.24654 c 2.00749,7.65709 1.95201,7.16152 0.91231,8.15029 -9.58323,9.11387 -32.5869,15.17902 -51.43499,13.56135 z"
       id="path14"
       inkscape:label="torso_base" /><path
       style="display:inline;fill:#b6b6b6"
       d="m 152.49171,274.92448 c -13.01081,-1.5773 -22.14053,-5.51095 -28.54328,-12.2982 l -2.62515,-2.7828 0.26394,-2.91267 c 0.14516,-1.60197 0.779,-4.91027 1.40852,-7.35178 0.62951,-2.44152 1.14772,-5.34545 1.15156,-6.45318 0.004,-1.10773 0.43791,-3.85034 0.96459,-6.09469 1.24298,-5.29672 1.30412,-11.99983 0.17549,-19.23729 -0.43332,-2.77872 -0.8625,-7.02637 -0.95373,-9.43922 -0.0912,-2.41285 -0.25697,-4.53441 -0.36832,-4.71457 -0.11134,-0.18016 -0.36783,-2.94065 -0.56996,-6.13442 l -0.36751,-5.80685 -1.22658,-1.97314 c -3.49791,-5.62697 -4.24456,-14.46851 -1.94541,-23.03693 0.43016,-1.60311 1.06183,-4.05149 1.40371,-5.44085 2.96201,-12.03719 7.24219,-17.11794 16.39209,-19.45809 3.31607,-0.84811 5.1759,-0.95105 5.80561,-0.32134 0.33517,0.33517 7.29307,1.4083 9.70553,1.4969 0.83683,0.0307 1.67944,1.223 1.67944,2.37637 0,1.43877 -0.63797,1.44678 -1.91486,0.024 l -0.99988,-1.11409 -5.94501,-0.84065 c -6.32144,-0.89387 -6.68553,-0.86763 -6.68553,0.48187 0,0.81533 -1.29943,1.89539 -3.22299,2.67889 -0.79725,0.32473 -0.68518,0.0575 0.81262,-1.93793 l 0.94809,-1.26305 h -1.06046 c -3.65063,0 -11.15959,6.86745 -10.455,9.56181 0.10615,0.40592 -0.50278,2.22431 -1.35317,4.04086 -5.37305,11.47755 -6.28862,22.3137 -2.24339,26.55127 0.77971,0.81678 1.41764,1.61384 1.41764,1.77125 0,0.15741 1.12179,0.8445 2.49286,1.52686 l 2.49285,1.24065 h 4.16848 4.16849 l 1.65948,-0.82879 c 0.91272,-0.45583 2.56767,-1.51617 3.67768,-2.3563 2.38458,-1.80482 2.72841,-1.68758 1.62715,0.55479 -0.44805,0.91229 -0.90305,1.95774 -1.01113,2.32321 -0.34635,1.1712 -3.32496,3.02753 -4.85762,3.02736 -1.78354,-1.9e-4 -5.83616,2.04248 -8.10975,4.0876 l -1.73575,1.56134 -0.19479,2.72241 c -0.37552,5.24832 1.09945,8.83309 3.86172,9.38554 1.30031,0.26006 1.28632,0.15024 0.27244,2.1376 -1.7876,3.50399 -1.4097,10.03893 0.79679,13.77866 l 0.72654,1.23138 -0.97122,1.88226 -0.97122,1.88226 0.26784,4.85791 c 0.4491,8.14548 0.33618,9.41151 -1.28251,14.37939 -0.29936,0.91878 -0.77701,-1.05843 -0.82147,-3.40053 -0.0773,-4.07165 -1.51499,-1.60733 -1.97412,3.38383 -0.16628,1.80767 -0.14906,4.60582 0.0383,6.21811 0.73331,6.31121 1.21108,9.19857 1.72599,10.43093 l 0.53678,1.28468 4.13704,1.9367 c 8.33434,3.90161 21.23633,6.11001 30.57888,5.2341 l 3.01943,-0.28309 0.55899,-1.03488 c 0.30745,-0.56918 1.16599,-1.73441 1.90787,-2.5894 l 1.34887,-1.55453 -0.7506,2.29831 c -0.41284,1.26406 -0.66499,2.38392 -0.56034,2.48856 0.92363,0.92363 19.67093,-3.75715 21.2756,-5.31204 0.15576,-0.15093 -0.0415,-1.66847 -0.43837,-3.37231 -0.39687,-1.70385 -0.83286,-3.84387 -0.96887,-4.7556 -0.70867,-4.75052 -1.88719,-5.84154 -4.90428,-4.54011 -3.92445,1.69282 -4.73254,1.00484 -1.4105,-1.20086 2.55102,-1.69379 5.93854,-5.83436 6.9538,-8.49964 l 0.75376,-1.97877 -0.24263,-4.27495 c -0.79279,-13.9683 -0.56729,-13.28355 -3.56543,-10.8268 -2.31825,1.89963 -2.42457,1.53556 -0.48227,-1.65128 2.12657,-3.48918 6.54769,-12.78516 6.54769,-13.76738 0,-1.3276 -0.66883,-0.87373 -5.31622,3.60763 -5.35836,5.16694 -5.40418,4.8587 -0.26422,-1.77742 5.87435,-7.58428 8.30086,-11.13608 8.30086,-12.15036 0,-0.35171 -2.84731,0.12591 -4.06899,0.68254 -0.5485,0.24992 -1.85505,1.81896 -2.94754,3.53973 -2.17129,3.41998 -2.81304,3.73063 -1.52593,0.73864 0.46134,-1.07239 0.77579,-2.26984 0.69879,-2.661 l -0.14,-0.7112 -1.74049,0.13953 c -0.95726,0.0767 -2.41325,0.48242 -3.23551,0.90153 -2.02156,1.03038 -2.20327,0.63635 -0.49454,-1.07237 1.12912,-1.12913 1.63188,-1.37645 2.47171,-1.2159 2.05291,0.39243 8.26208,-4.61805 8.26208,-6.66708 v -0.7823 l -1.846,-0.27923 c -1.34255,-0.20307 -2.74693,-0.0563 -5.14938,0.53825 -1.81685,0.44961 -3.93073,0.91689 -4.6975,1.03842 -0.80278,0.12723 -2.08823,0.81507 -3.03048,1.62161 -1.692,1.44828 -2.52996,1.48835 -1.64973,0.0789 0.76092,-1.21842 0.37826,-1.38992 -7.36279,-3.29977 -3.92187,-0.9676 -7.92433,-2.15576 -8.89437,-2.64035 -0.97003,-0.4846 -2.89076,-0.9943 -4.26828,-1.13268 -7.45531,-0.74894 -11.3758,-7.89211 -9.49443,-17.29895 0.42436,-2.1218 0.75954,-1.31082 0.60302,1.45906 -0.36467,6.45373 2.05573,9.76691 9.30168,12.73271 l 2.48295,1.01628 5.63516,0.30931 5.63517,0.30932 3.40053,-0.78032 3.40053,-0.78031 v -0.7349 c 0,-0.43376 0.50979,-0.99853 1.24405,-1.37823 0.68423,-0.35383 1.49939,-0.89866 1.81146,-1.21073 0.55774,-0.55774 1.96834,-0.53023 4.35033,0.0848 l 0.9934,0.25652 3.08723,-2.31064 c 3.39487,-2.54088 17.27002,-15.60552 17.79698,-16.75737 0.41614,-0.90963 6.69157,-3.92309 8.16968,-3.92309 1.26611,0 4.7678,0.84127 8.33665,2.00286 l 2.45729,0.7998 0.96144,-0.90323 c 8.85728,-8.32098 3.14646,-19.51451 -11.89982,-23.32432 l -3.30338,-0.83644 -7.96695,0.23062 c -5.16559,0.14952 -12.20319,0.71417 -20.01456,1.60584 -6.62618,0.75637 -13.20092,1.37672 -14.61054,1.37855 -3.27833,0.004 -6.38028,1.03199 -8.59676,2.84823 -2.6842,2.1995 -3.68932,1.86612 -1.27652,-0.42339 1.06873,-1.01414 2.21393,-2.05342 2.54487,-2.30953 0.81528,-0.63093 5.49675,-1.15282 30.68317,-3.42058 3.52684,-0.31756 7.98733,-0.77697 9.91221,-1.02091 l 3.49977,-0.44354 4.70234,0.64027 c 18.42878,2.50925 29.04441,15.91996 25.26717,31.91999 -3.24499,13.74548 -8.70686,24.53494 -21.07622,41.63425 -8.85319,12.23861 -10.67901,16.6462 -11.24819,27.15364 -0.42511,7.8478 -0.33094,9.15667 1.02617,14.26159 0.64228,2.41602 1.26486,5.01172 1.38352,5.76823 l 0.21573,1.37547 -3.44072,2.45089 c -12.41915,8.8464 -32.95204,13.31847 -51.0669,11.1224 z m -26.1271,-14.49204 c -0.25243,-1.32833 -0.59385,-2.41514 -0.75869,-2.41514 -0.59789,0 -0.3099,3.61955 0.34563,4.34389 0.89711,0.9913 0.93467,0.81592 0.41306,-1.92875 z m 2.98128,-49.28303 c -1.82783,-3.42421 -2.50346,-0.74127 -0.83347,3.30972 l 0.87443,2.12113 0.34767,-2.02574 0.34768,-2.02574 z m 46.87113,49.44502 c 0,-0.85766 2.05059,-2.96576 2.88485,-2.96576 0.84069,0 0.83633,0.007 -1.13601,1.94316 -1.29678,1.27269 -1.74884,1.53703 -1.74884,1.0226 z m -33.42236,-8.04092 c 0,-0.69359 0.16189,-1.08877 0.38863,-0.94864 0.21375,0.1321 0.38863,0.66708 0.38863,1.18883 0,0.52176 -0.17488,0.94865 -0.38863,0.94865 -0.21375,0 -0.38863,-0.53498 -0.38863,-1.18884 z m 0.53649,-6.98105 c -0.13748,-0.85973 -0.40187,-1.65703 -0.58754,-1.77178 -0.56396,-0.34855 -0.38035,-1.34603 0.43968,-2.38852 0.47276,-0.60102 0.77726,-1.57659 0.77726,-2.49025 0,-1.89343 0.60547,-1.95677 0.95384,-0.0998 0.14469,0.77128 0.62053,2.13806 1.05741,3.03729 l 0.79433,1.63497 -1.28329,1.82061 c -1.56645,2.22235 -1.83241,2.25417 -2.15169,0.25747 z m 21.10716,0.26219 c -0.46527,-0.71009 -0.85207,-0.86767 -1.79136,-0.72982 -1.59426,0.23399 -1.51065,-0.15313 0.38321,-1.7742 0.86964,-0.74438 2.13755,-2.33511 2.81758,-3.53497 l 1.23642,-2.18155 0.11807,1.21325 c 0.0649,0.66729 -0.24111,2.27945 -0.68011,3.58259 -0.43899,1.30313 -0.79817,2.7143 -0.79817,3.13592 0,1.1629 -0.62144,1.30249 -1.28564,0.28878 z m -20.50685,-15.07557 c 0.0197,-2.00092 0.0447,-4.07525 0.0556,-4.60962 0.0109,-0.53437 -3e-4,-1.93344 -0.0249,-3.10906 -0.0562,-2.68559 0.33134,-5.44085 0.76532,-5.44085 0.18186,0 0.44551,0.74326 0.58589,1.65169 0.65542,4.2415 1.33229,5.3933 4.44429,7.56261 0.37507,0.26145 -0.46138,0.66143 -1.4178,0.67797 -1.24715,0.0216 -2.16266,1.41312 -2.94761,4.48028 -0.8931,3.48978 -1.50204,2.98412 -1.46078,-1.21302 z m 20.35897,-1.46666 c -2.83132,-0.34442 -2.853,-0.59796 -0.16713,-1.95378 1.88048,-0.94926 2.5344,-1.53107 3.19542,-2.84303 0.4571,-0.90724 1.02029,-1.88508 1.25154,-2.17299 l 0.42046,-0.52347 0.24865,0.70884 c 0.33952,0.9679 -0.28286,3.62425 -1.12637,4.80737 -0.38098,0.53437 -0.80656,1.27763 -0.94573,1.65168 -0.13916,0.37406 -0.38968,0.65549 -0.5567,0.62539 -0.16702,-0.0301 -1.21108,-0.1651 -2.32014,-0.30001 z m 1.21069,-15.31539 c -1.08443,-0.89321 -2.4835,-2.02483 -3.10906,-2.51472 l -1.13738,-0.89071 1.1659,0.21987 c 0.64124,0.12092 2.27768,0.32859 3.63652,0.46147 l 2.47062,0.2416 -0.23171,1.40082 c -0.12744,0.77045 -0.23364,1.70687 -0.23599,2.08093 -0.006,0.96253 -0.33135,0.8355 -2.5589,-0.99926 z m -20.7633,-2.37307 v -2.4979 l -1.00363,-0.78945 c -0.552,-0.4342 -1.33898,-0.89589 -1.74885,-1.02598 -0.93767,-0.29761 -0.97525,-0.96141 -0.0544,-0.96141 1.39485,0 2.3355,-1.09447 2.60124,-3.0266 0.38891,-2.82771 0.79043,-3.12959 1.37683,-1.03518 0.63281,2.26016 1.99559,3.92734 3.47606,4.25251 2.17122,0.47687 2.18891,1.23318 0.0417,1.78348 l -1.9471,0.49903 -0.54777,1.19233 c -0.30128,0.65578 -0.75688,1.84815 -1.01244,2.6497 -0.69728,2.18695 -1.18165,1.76043 -1.18165,-1.04053 z m 1.94316,-16.92757 c 0,-0.66824 2.17347,-2.8441 2.67423,-2.67718 0.31166,0.10388 0.0452,0.67015 -0.75756,1.60996 -1.22037,1.4287 -1.91667,1.81641 -1.91667,1.06722 z m 2.75317,-26.3646 c -0.0394,-1.55243 1.54336,-6.41679 2.90788,-8.93716 0.54157,-1.00031 0.90654,-1.46898 0.81104,-1.04148 -0.63267,2.83221 -2.22522,8.08455 -2.89245,9.53953 l -0.79373,1.7308 z m 8.88768,-18.68903 c 0.40985,-0.7658 3.74568,-2.2653 4.1469,-1.86408 0.27124,0.27125 -3.33573,2.58963 -4.0453,2.60012 -0.37171,0.005 -0.39769,-0.18278 -0.1016,-0.73604 z m 36.25806,-5.33776 c -1.48529,-0.7322 -1.59066,-1.12438 -0.38863,-1.44651 2.47406,-0.66302 3.40573,-0.16895 2.776,1.47211 -0.29482,0.76828 -0.78767,0.763 -2.38737,-0.0256 z"
       id="path13"
       inkscape:label="torso_shadow" /><path
       style="display:inline;fill:#959595"
       d="m 158.53426,275.24124 c -18.04175,-1.15504 -32.31091,-7.14025 -36.55783,-15.33418 l -0.53124,-1.02498 0.55271,-3.6386 c 0.30399,-2.00124 0.83115,-4.51303 1.17145,-5.58177 0.34031,-1.06874 0.77587,-3.60457 0.96792,-5.63517 0.19205,-2.0306 0.79572,-5.52829 1.3415,-7.77264 1.25086,-5.14378 1.30587,-10.14193 0.18719,-17.00909 -0.44338,-2.72175 -0.96376,-7.30957 -1.1564,-10.19516 -0.19265,-2.8856 -0.52897,-7.78236 -0.74739,-10.88171 l -0.39712,-5.63516 -1.21474,-2.33158 c -0.6681,-1.28237 -1.6709,-3.64331 -2.22845,-5.24653 l -1.01371,-2.91496 0.0323,-5.82948 c 0.0255,-4.60419 0.1964,-6.40129 0.813,-8.54991 0.42939,-1.49623 1.0897,-3.94462 1.46736,-5.44085 2.44942,-9.70412 5.21171,-14.70306 9.63604,-17.43842 2.66925,-1.65026 2.51719,-1.14127 -0.39141,1.31018 -2.95024,2.48656 -5.13387,5.79274 -5.42603,8.2154 -0.1124,0.9321 -0.95642,3.61845 -1.87559,5.96968 -2.91115,7.44668 -3.8045,14.5254 -2.74042,21.71436 l 0.33789,2.28275 1.30087,0.76753 c 1.41245,0.83337 1.53289,1.08057 0.85614,1.75731 -0.68273,0.68274 0.26273,2.56474 2.14184,4.26348 l 1.60627,1.4521 v 2.43673 c 0,2.44581 -0.31565,3.11726 -0.77905,1.6572 -0.13667,-0.4306 -0.41078,-0.6826 -0.60914,-0.56001 -0.50047,0.30931 -0.45279,4.1662 0.0679,5.49542 0.23573,0.60172 0.49879,3.48937 0.58458,6.417 0.0858,2.92764 0.43022,6.51277 0.76539,7.96696 1.57142,6.81779 1.56475,15.38266 -0.0166,21.29834 l -1.03885,3.88632 0.18883,5.14938 c 0.19289,5.26034 0.12733,5.65628 -0.7402,4.46988 -0.70713,-0.96707 -2.11493,4.1412 -2.11493,7.67414 0,1.58413 3.69477,5.83021 5.07321,5.83021 0.24033,0 1.16472,0.74881 2.0542,1.66402 2.83345,2.9154 10.73918,5.86066 19.98823,7.44656 17.60631,3.01888 43.40718,-2.65788 53.88252,-11.85535 l 1.29272,-1.13503 -0.31102,-1.65494 c -0.48738,-2.59343 -2.65054,-10.06694 -3.05479,-10.55403 -0.22985,-0.27695 -0.1493,-1.58516 0.21811,-3.54265 0.35755,-1.9049 0.5671,-5.1674 0.54256,-8.44725 -0.0252,-3.36612 0.10534,-5.34369 0.35267,-5.34369 0.56005,0 1.79981,-2.57709 2.46477,-5.12347 0.59675,-2.2852 1.81067,-4.29716 5.11562,-8.47866 2.67522,-3.38475 6.43017,-8.77407 6.43017,-9.22895 0,-0.20151 0.37779,-0.69954 0.83953,-1.10673 5.26696,-4.64466 14.44627,-24.2795 17.42461,-37.27176 1.72639,-7.53097 -1.10786,-16.46763 -7.12699,-22.47212 -2.27687,-2.27133 -2.7291,-2.87564 -1.78763,-2.38878 17.98335,9.29955 13.10529,35.5616 -13.20803,71.10813 -3.48501,4.70788 -5.99778,9.5204 -7.6094,14.57371 l -1.05352,3.30337 -0.37118,7.38401 -0.37119,7.38401 1.57969,6.17949 c 0.86882,3.39872 1.57968,6.24132 1.57968,6.31689 0,3.95285 -22.65309,12.47309 -37.06034,13.93908 -5.26872,0.53611 -7.0364,0.58449 -11.32436,0.30997 z m -14.06995,-31.07357 c 0.0617,-0.86694 -0.071,-1.08749 -0.60092,-0.99852 -0.77032,0.12935 -0.86788,-0.39738 -0.2778,-1.49995 0.55597,-1.03883 1.33028,-0.94006 1.86711,0.23815 0.62715,1.37644 0.56786,1.89298 -0.30828,2.68587 l -0.75929,0.68715 z m -13.06305,-3.5028 c -0.14606,-0.14606 -0.26557,-0.90986 -0.26557,-1.69733 0,-0.78747 -0.19307,-1.9856 -0.42904,-2.66251 -0.45576,-1.30739 -0.19987,-3.16019 0.43645,-3.16019 0.20967,0 0.3822,0.91814 0.38339,2.04032 0.001,1.12217 0.19009,2.7171 0.41977,3.54428 0.39404,1.41914 0.0743,2.55471 -0.545,1.93543 z m -0.14664,-14.04563 c -0.0234,-1.43399 -0.32213,-3.3725 -0.66373,-4.3078 -0.68449,-1.87414 -0.82201,-3.93462 -0.2626,-3.93462 0.43885,0 1.08462,1.9275 1.43225,4.27495 0.14244,0.96187 0.40018,2.02527 0.57277,2.36312 0.28389,0.55574 -0.32808,3.50364 -0.83195,4.00751 -0.11225,0.11225 -0.22329,-0.96917 -0.24674,-2.40316 z m 67.59728,-27.9449 c 0.57647,-0.57647 1.18459,-0.91118 1.35138,-0.74381 0.33213,0.33331 -1.26786,1.79194 -1.96561,1.79194 -0.23865,0 0.0378,-0.47165 0.61423,-1.04813 z m -31.18479,-4.66388 c -2.33511,-0.54649 -3.72674,-1.18386 -3.36803,-1.54257 0.0816,-0.0816 1.791,0.121 3.79856,0.45031 2.00756,0.32931 4.21848,0.69128 4.91316,0.80438 0.69468,0.1131 1.26306,0.37259 1.26306,0.57665 0,0.54975 -3.71827,0.38723 -6.60675,-0.28877 z m 16.15627,-0.46074 c -0.21832,-0.35325 6.77923,-3.54305 7.7725,-3.54305 2.01496,0 -0.81141,1.98283 -4.44094,3.11553 -2.79965,0.8737 -3.03698,0.90416 -3.33156,0.42752 z m -54.24222,-0.74527 c 0,-0.46051 0.62195,-0.68957 2.91474,-1.07346 l 1.55453,-0.26028 -0.62663,0.658 c -0.72813,0.76457 -3.84264,1.31227 -3.84264,0.67574 z m 83.20385,-0.95178 c -1.46367,-3.84549 -2.40359,-5.07529 -3.23982,-4.23905 -0.79066,0.79066 -0.98091,0.49142 -0.78614,-1.23653 l 0.19008,-1.68641 -1.1018,-0.86668 c -1.69671,-1.33464 -5.8419,-0.0341 -10.39514,3.26135 -3.51527,2.54424 -3.51825,1.52265 -0.007,-2.26736 1.41582,-1.52805 3.34702,-3.86028 4.29157,-5.18271 0.94455,-1.32244 2.54058,-2.99572 3.54674,-3.7184 3.47492,-2.49586 5.73243,-3.98411 7.09789,-4.67924 l 1.37038,-0.69764 2.6072,1.22006 c 2.87168,1.34382 3.27381,1.92406 1.33345,1.92406 -3.97629,0 -5.36802,5.07655 -4.28836,15.64244 0.33511,3.27944 0.0734,4.34651 -0.61944,2.52611 z m -58.72002,-1.50429 c -1.24806,-0.4962 -3.02291,-2.1814 -3.73668,-3.54793 -0.69704,-1.33448 -0.0757,-1.41263 0.78515,-0.0988 0.34955,0.53349 1.66856,1.49144 2.93113,2.12878 3.24857,1.63988 3.26427,2.80762 0.0204,1.51791 z m -14.95804,-0.33475 c -0.21029,-0.34026 3.35918,-2.79682 3.64646,-2.50954 0.0984,0.0984 -0.30687,0.68592 -0.90058,1.30563 -1.12135,1.17044 -2.4158,1.73798 -2.74588,1.20391 z m 43.71682,-3.11602 c 0,-0.21375 0.53497,-0.38863 1.18883,-0.38863 0.69359,0 1.08877,0.1619 0.94864,0.38863 -0.1321,0.21375 -0.66708,0.38863 -1.18883,0.38863 -0.52175,0 -0.94864,-0.17488 -0.94864,-0.38863 z m -45.73994,-44.55226 c 0.38315,-0.38316 5.09842,-1.32623 5.62353,-1.12473 1.39431,0.53505 0.0502,1.12083 -2.78814,1.21512 -1.66447,0.0553 -2.9404,0.0146 -2.83539,-0.0904 z m 67.1147,-2.86086 c 0,-0.49991 4.6673,-0.49991 5.44085,0 0.40416,0.26118 -0.34083,0.37855 -2.42895,0.38268 -1.75281,0.003 -3.0119,-0.15651 -3.0119,-0.38268 z"
       id="path12"
       inkscape:label="torso_outline" /></g></svg>
