<?xml version="1.0" encoding="UTF-8" standalone="no"?>
<!-- Created with Inkscape (http://www.inkscape.org/) -->

<svg
   version="1.1"
   id="svg1"
   width="425"
   height="319"
   viewBox="0 0 425 319"
   sodipodi:docname="slim_neck.svg"
   xml:space="preserve"
   inkscape:version="1.4.3 (0d15f75, 2025-12-25)"
   xmlns:inkscape="http://www.inkscape.org/namespaces/inkscape"
   xmlns:sodipodi="http://sodipodi.sourceforge.net/DTD/sodipodi-0.dtd"
   xmlns="http://www.w3.org/2000/svg"
   xmlns:svg="http://www.w3.org/2000/svg"><defs
     id="defs1" /><sodipodi:namedview
     id="namedview1"
     pagecolor="#ffffff"
     bordercolor="#000000"
     borderopacity="0.25"
     inkscape:showpageshadow="2"
     inkscape:pageopacity="0.0"
     inkscape:pagecheckerboard="0"
     inkscape:deskcolor="#d1d1d1"
     inkscape:zoom="5.04"
     inkscape:cx="217.1627"
     inkscape:cy="165.77381"
     inkscape:window-width="1920"
     inkscape:window-height="991"
     inkscape:window-x="-9"
     inkscape:window-y="-9"
     inkscape:window-maximized="1"
     inkscape:current-layer="svg1" /><g
     id="g9"
     style="display:inline"
     inkscape:label="slim_neck"><path
       style="display:inline;fill:#d7d7d7"
       d="m 175.62813,175.5042 c -0.94422,-2.46059 -0.32954,-3.09632 7.25811,-7.50667 9.733,-5.65734 13.81529,-8.65118 15.38881,-11.28571 l 0.8223,-1.37677 -0.0195,-6.46934 c -0.0285,-9.46604 -0.8705,-17.5302 -3.07962,-29.49382 -1.2271,-6.6454 -1.08339,-7.62475 1.45989,-9.94917 9.26397,-8.46674 37.90355,-6.31145 40.62716,3.05744 l 0.37365,1.28532 -0.35877,2.68573 c -1.61531,12.09214 -1.99312,16.56344 -1.99373,23.59572 -10e-4,17.00026 1.91292,20.10853 17.61528,28.60075 7.33525,3.96709 7.20578,3.85228 6.63939,5.88718 l -0.37324,1.34097 h -42.10858 -42.10859 z"
       id="path12"
       inkscape:label="neck_base" /><path
       style="display:inline;fill:#b9b9b9"
       d="m 176.01729,174.92386 c -0.0209,-0.52358 -0.1051,-1.16349 -0.18715,-1.42202 -0.23688,-0.74635 1.15241,-1.85314 5.61487,-4.47314 6.76655,-3.97279 7.93765,-4.68283 10.25162,-6.21554 3.08178,-2.0413 5.44957,-4.10714 6.47069,-5.64552 l 0.86168,-1.29818 0.23143,-2.74161 c 0.57199,-6.77615 -0.75419,-21.18785 -3.12545,-33.96445 -1.39286,-7.50486 -0.74955,-9.07142 4.84192,-11.79082 13.9327,-6.77613 38.32306,-1.76759 37.137,7.62605 -0.0753,0.59623 -0.39522,3.03996 -0.71097,5.43051 -2.15729,16.33248 -1.9102,31.04287 0.60478,36.00646 1.93542,3.81976 7.30384,7.94334 17.2202,13.22715 3.48201,1.85534 5.25287,3.14639 4.96178,3.61738 -0.20912,0.33837 -0.82638,0.30618 -1.57015,-0.0819 -0.34286,-0.17889 -1.03007,-0.45437 -1.52713,-0.61218 -7.74225,-2.45805 -17.7806,-9.67287 -20.77954,-14.93478 -0.37337,-0.65512 -0.94218,-1.4385 -1.264,-1.74084 l -0.58514,-0.54971 -0.36447,0.87229 c -0.20045,0.47976 -0.413,1.15741 -0.47232,1.5059 -0.0593,0.34848 -0.54172,3.27672 -1.07199,6.50719 -0.53027,3.23048 -1.04401,6.01786 -1.14163,6.19419 -0.83126,1.50143 -1.20018,-22.76849 -0.49058,-32.27293 0.12542,-1.67985 0.33808,-4.693 0.47259,-6.69589 0.1345,-2.0029 0.39414,-5.17418 0.57699,-7.04729 0.37357,-3.827 0.39168,-3.73288 -0.63792,-3.3156 -7.54568,3.05814 -18.81603,3.32214 -27.27141,0.63884 -1.3743,-0.43614 -2.50706,-0.72616 -2.51724,-0.64449 -0.0792,0.63526 0.0705,3.5041 0.25285,4.84736 0.22995,1.69351 0.74705,7.60488 1.17147,13.39179 0.3802,5.18408 0.70333,16.04687 0.70236,23.61183 -6e-4,4.7234 0.11186,7.8662 0.35309,9.86763 0.19469,1.61524 0.3549,2.96323 0.35602,2.99554 0.001,0.0323 -0.34692,0.0587 -0.77344,0.0587 h -0.77549 l -0.5266,-0.99851 c -0.89636,-1.69964 -1.13333,-2.06535 -1.65052,-2.54719 -0.52744,-0.49138 -1.26091,-1.81039 -1.55578,-2.79778 -0.44441,-1.48814 -1.18269,-1.70732 -2.88823,-0.85746 -0.60949,0.3037 -2.58831,1.00151 -4.39738,1.55068 -1.80907,0.54916 -4.18787,1.34989 -5.28623,1.77939 -1.09836,0.4295 -2.63137,0.9615 -3.40668,1.18222 -1.22968,0.35008 -3.91196,1.73209 -4.7477,2.44619 -0.15607,0.13335 -0.74152,0.24246 -1.301,0.24246 h -1.01724 z M 221.417,122.30552 c 16.20835,-1.79569 21.10264,-10.22804 8.68801,-14.96855 -9.89457,-3.77824 -24.89222,-2.5707 -31.33629,2.52305 -8.06694,6.37655 6.27778,14.25914 22.64828,12.4455 z"
       id="path11"
       inkscape:label="neck_shadow" /><path
       style="display:inline;fill:#5f5f5f"
       d="m 178.0699,171.52464 c 0,-0.19634 2.90448,-2.01033 6.57842,-4.10855 8.21332,-4.69071 12.9669,-8.35787 14.26784,-11.00698 l 0.65108,-1.32579 -0.0119,-6.46095 c -0.0124,-6.71999 -0.20562,-9.6132 -1.16917,-17.5033 -0.63175,-5.17319 -0.71486,-5.68474 -1.88638,-11.61182 -1.11309,-5.63145 -0.98734,-7.73858 0.53623,-8.98547 0.23191,-0.18979 0.13973,0.10284 -0.23456,0.74456 -1.23323,2.11441 -0.89432,4.3992 0.95824,6.46009 l 0.63281,0.70398 -0.6025,-0.52777 c -1.17797,-1.03186 -1.18295,-1.38848 0.10461,7.49026 2.24952,15.51218 3.06326,33.7414 1.44628,32.39942 -0.24743,-0.20535 -0.53704,-1.8e-4 -1.3342,0.9452 -2.6492,3.14179 -9.16748,7.55249 -17.4699,11.82129 -2.05825,1.05828 -2.46691,1.21827 -2.46691,0.96583 z m 77.06134,-1.08377 c -6.67423,-3.24555 -12.26311,-7.02182 -16.57616,-11.20011 -3.38558,-3.27978 -4.39148,-21.67544 -2.06447,-37.75438 0.22442,-1.55062 0.42155,-3.29508 0.43807,-3.87657 0.0361,-1.2689 0.28741,-2.11449 0.62853,-2.11449 0.15918,0 0.19455,0.31974 0.0975,0.88104 -2.43818,14.09765 -2.77098,29.17397 -0.82679,37.45514 1.19464,5.08851 5.57901,9.09542 16.62104,15.19011 2.11129,1.16533 3.8998,2.17987 3.97446,2.25454 0.35014,0.35014 -0.46612,0.0527 -2.29216,-0.83528 z"
       id="path9"
       inkscape:label="neck_outline" /></g></svg>
