<?xml version="1.0" encoding="UTF-8" standalone="no"?>
<svg
   width="210mm"
   height="297mm"
   version="1.1"
   viewBox="0 0 210 297"
   id="svg3"
   sodipodi:docname="Heart_Face.svg"
   inkscape:version="1.4.3 (0d15f75, 2025-12-25)"
   xmlns:inkscape="http://www.inkscape.org/namespaces/inkscape"
   xmlns:sodipodi="http://sodipodi.sourceforge.net/DTD/sodipodi-0.dtd"
   xmlns="http://www.w3.org/2000/svg"
   xmlns:svg="http://www.w3.org/2000/svg">
  <defs
     id="defs3" />
  <sodipodi:namedview
     id="namedview3"
     pagecolor="#ffffff"
     bordercolor="#000000"
     borderopacity="0.25"
     inkscape:showpageshadow="2"
     inkscape:pageopacity="0.0"
     inkscape:pagecheckerboard="0"
     inkscape:deskcolor="#d1d1d1"
     inkscape:document-units="mm"
     inkscape:zoom="0.44097222"
     inkscape:cx="396.85039"
     inkscape:cy="561.25984"
     inkscape:window-width="1366"
     inkscape:window-height="697"
     inkscape:window-x="-8"
     inkscape:window-y="-8"
     inkscape:window-maximized="1"
     inkscape:current-layer="svg3" />
  <g
     id="g3"
     inkscape:label="heart_face">
    <path
       d="m95.2 195c-2.17-0.543-3.03-1.26-6.99-5.83-13.4-15.4-15.4-19.4-18-35.8l-0.717-4.5-0.0193-4.89c-0.0636-16.1 7.03-25.2 22.5-28.7l3.17-0.734 13.7-0.219 2.69 0.439c13.9 2.26 22.9 10 24.3 21 0.46 3.58 0.431 3.49 1.14 3.32 1.86-0.467 4.42 1.36 5.64 4.04 2.78 6.08 1.59 13-3.19 18.4-6.23 7.05-7.21 7.63-10.5 6.21-0.345-0.147-0.534-0.01-0.77 0.559-1.39 3.34-2.85 6.32-3.81 7.77-2.85 4.31-15.7 15.3-21.2 18.1l-2.04 1.05-2.42 0.0654c-1.33 0.036-2.87-0.0468-3.42-0.184z"
       fill="#d8d8d8"
       id="path1"
       inkscape:label="face_base" />
    <path
       d="m95.4 195c-0.291-0.0771-1.1-0.383-1.8-0.681l-1.27-0.541-4.7-5.45c-12.4-14.4-14.6-18.7-17-33.6l-0.881-5.42 0.0076-11.1 0.723-2.87c3.12-12.4 11.8-19 27.2-20.6 13-1.36 25 2 31.9 8.88 3.92 3.93 5.2 6.84 6.41 14.6l0.207 1.32 0.957-0.0824c5.72-0.493 8.68 10.1 4.98 17.8l-1.01 2.13-3.59 3.96c-4.48 4.94-5.86 5.7-8.19 4.49-1.1-0.574-1.08-0.591-2.02 1.79-2.1 5.29-3.51 7.39-7.71 11.4-5.52 5.32-13 11.2-16.6 13l-2 1.02-2.54 0.047c-1.4 0.0258-2.78-0.0161-3.07-0.0931zm5.18-1.92c4.55-1.42 16.7-11.4 21.2-17.3 0.905-1.21 2.47-3.97 3.83-6.75 1.26-2.59 2.42-4.86 2.58-5.05l0.283-0.343 0.218 0.343c0.12 0.189 0.22 0.723 0.222 1.19 0.011 2.29 3.64 2.27 5.4-0.0368 0.396-0.519 1.66-1.91 2.81-3.08 2.75-2.81 4.07-4.84 4.92-7.55l0.69-2.21-0.124-2.72c-0.423-9.22-6.8-12.3-10.7-5.12-0.497 0.923-1.19 1.28-1.18 0.618 4e-3 -0.565 1.49-2.94 2.35-3.75l0.82-0.777v-1.15c0-12.1-7.23-20.1-20.9-23l-3.35-0.713-12.7-0.016-3.12 0.596c-19 3.63-25.8 15.4-22.2 38.2 2.22 14 5.02 19.8 15.2 31.4 1.81 2.07 3.74 4.3 4.29 4.96 2.35 2.87 5.21 3.55 9.39 2.25zm29.4-31.4c-0.698-0.262-0.391-2.53 0.529-3.91 0.473-0.708 1.01-1.55 1.19-1.87l0.327-0.579-0.417-1.4c-0.912-3.07 1.9-9.14 4.96-10.7 2.59-1.34 5.24 3.25 4.15 7.2-0.502 1.82-1.88 0.883-2.21-1.5-0.207-1.51-0.206-1.51-1.15-0.766l-0.701 0.552-2.78-0.348v0.406c0 0.233 0.65 0.721 1.52 1.14 1.71 0.827 2.57 2.03 2.87 3.98 0.203 1.34 0.498 1.6 0.958 0.867 0.471-0.754 1.09-0.714 0.855 0.0559-0.859 2.78-3.74 5.21-6.2 5.22-0.837 3e-3 -1.41 0.272-3.04 1.42-0.291 0.205-0.678 0.317-0.86 0.249z"
       fill="#959595"
       id="path2"
       inkscape:label="face_shadow" />
    <path
       d="m96.6 194c-2.45-0.298-3.92-1.07-5.42-2.86-0.691-0.823-3.05-3.58-5.23-6.13-11-12.8-13.4-18.2-15.6-35.5-2.98-23.1 8.46-35.5 32.7-35.5 19-7e-3 30.6 7.66 32.5 21.5 0.439 3.17 0.575 3.49 1.41 3.27 1.64-0.428 3.99 1.11 5.12 3.35 3.04 6.01 1.8 13.2-3.19 18.6-1.15 1.23-2.73 2.97-3.5 3.87-2.09 2.42-3.92 3.04-6.04 2.03-1.12-0.532-1.25-0.424-2.04 1.78-2.19 6.04-5.35 9.99-13.3 16.6-9.32 7.79-12.8 9.59-17.4 9.03zm4.52-1.54c3.97-1.25 15.4-10.1 20.3-15.6 2.24-2.56 6.21-10.2 6.21-11.9 0-0.142 0.166-0.396 0.368-0.564l0.368-0.305 0.273 0.782c0.376 1.08 1.17 1.43 2.89 1.29l1.44-0.12 3.08-3.26c5.8-6.12 6.95-8.37 6.95-13.5-2e-3 -8.51-4.66-12.4-9.59-7.94-1.64 1.47-1.34 0.646 0.469-1.28 1.36-1.45 1.38-1.68 0.619-5.65-2.94-15.2-19.5-23-40.9-19.2-18.6 3.31-25.8 16-22.1 38.9 2.45 14.9 5.15 19.9 19.9 36.4 2.38 2.66 5.46 3.29 9.7 1.96zm28.9-33c0-1.22 0.39-2.17 1.33-3.24 1.05-1.19 1.19-1.93 0.66-3.51l-0.444-1.34 0.297-1.39c0.561-2.62 2.94-6.28 4.72-7.28l0.989-0.556 0.852 0.413c1.02 0.495 1.8 1.68 2.05 3.13l0.184 1.06-0.82-1.06-0.405 0.529c-0.54 0.705-0.545 0.0367-6e-3 -0.785 0.52-0.793 0.185-1.54-0.955-2.13-1.63-0.842-4.13 1.82-2.88 3.07 0.712 0.712 0.443 0.964-0.607 0.567-0.606-0.229-0.924-0.234-1.18-0.0218-0.806 0.669-0.124 1.84 1.26 2.17 4.26 1.01 3.38 9.43-0.999 9.58-0.845 0.0285-1.5 0.272-2.35 0.873-1.49 1.05-1.7 1.04-1.7-0.0752zm3.53-1.33 1.54-0.0123 0.759-0.85c1.88-2.1 1.37-6.4-0.88-7.35l-0.838-0.352-0.729 0.377c-0.894 0.462-1.15 1.36-0.742 2.6 0.429 1.3 0.798 4.08 0.607 4.57l-0.158 0.412-0.62-0.848-0.541 0.379c-0.297 0.208-0.606 0.63-0.687 0.937l-0.146 0.558 0.444-0.207c0.244-0.114 1.14-0.213 1.99-0.219z"
       fill="#5e5e5e"
       id="path3"
       inkscape:label="face_outline" />
  </g>
</svg>
