<?xml version="1.0" encoding="UTF-8" standalone="no"?>
<!-- Created with Inkscape (http://www.inkscape.org/) -->

<svg
   version="1.1"
   id="svg1"
   width="386"
   height="369"
   viewBox="0 0 386 369"
   sodipodi:docname="athletic_leftupperarm.svg"
   xml:space="preserve"
   inkscape:version="1.4.3 (0d15f75, 2025-12-25)"
   xmlns:inkscape="http://www.inkscape.org/namespaces/inkscape"
   xmlns:sodipodi="http://sodipodi.sourceforge.net/DTD/sodipodi-0.dtd"
   xmlns="http://www.w3.org/2000/svg"
   xmlns:svg="http://www.w3.org/2000/svg"><defs
     id="defs1" /><sodipodi:namedview
     id="namedview1"
     pagecolor="#ffffff"
     bordercolor="#000000"
     borderopacity="0.25"
     inkscape:showpageshadow="2"
     inkscape:pageopacity="0.0"
     inkscape:pagecheckerboard="0"
     inkscape:deskcolor="#d1d1d1"
     inkscape:zoom="1.4812833"
     inkscape:cx="344.6336"
     inkscape:cy="184.6372"
     inkscape:window-width="1920"
     inkscape:window-height="991"
     inkscape:window-x="-9"
     inkscape:window-y="-9"
     inkscape:window-maximized="1"
     inkscape:current-layer="svg1" /><g
     id="g3"
     inkscape:label="athletic_leftupperarm"><path
       style="display:inline;fill:#c9c9c9"
       d="m 144.42347,282.20928 c -5.41098,-1.3983 -10.07039,-4.25428 -11.82485,-7.24805 l -0.93246,-1.59112 0.24416,-1.70094 c 0.13429,-0.93552 1.0536,-5.10296 2.04291,-9.26097 0.98931,-4.15801 2.12083,-8.93702 2.51449,-10.62003 0.92251,-3.94401 3.0884,-8.85977 5.69419,-12.92368 3.13212,-4.88476 5.61626,-13.87514 5.92864,-21.45641 0.512,-12.42613 4.57653,-30.94293 8.71751,-39.71441 l 1.64559,-3.48572 0.66944,-4.72451 c 0.36819,-2.59849 0.77067,-6.2435 0.89439,-8.10003 0.60633,-9.09831 3.05284,-17.57092 6.56066,-22.72052 3.37537,-4.95516 16.7076,-11.25249 24.73354,-11.68261 14.47513,-0.77574 26.92047,6.20639 29.78079,16.70771 l 0.76263,2.79989 0.0284,8.28002 0.0284,8.28002 -0.81916,3.73473 c -1.04748,4.77568 -2.68769,8.82185 -5.63041,13.88945 -3.58044,6.1658 -5.78459,11.1145 -6.99471,15.70437 -2.86963,10.88416 -5.74659,16.94318 -11.98094,25.23245 -7.48035,9.94597 -13.48975,21.46659 -15.96733,30.61097 -1.39965,5.16587 -2.20196,6.98445 -4.01837,9.10831 -0.67735,0.792 -2.12976,2.80521 -3.22757,4.47379 -2.5939,3.9425 -7.1109,9.52158 -10.74015,13.26548 l -2.888,2.97923 -2.82168,0.53078 c -4.15828,0.7822 -8.44046,0.65505 -12.40012,-0.3682 z"
       id="path5"
       inkscape:label="leftupperarm_base" /><path
       style="display:inline;fill:#b8b8b8"
       d="m 157.4689,280.06461 c -1.06587,-1.06586 -1.11977,-2.05688 -0.18279,-3.36095 0.38546,-0.53648 0.96028,-2.00099 1.27738,-3.25446 0.91746,-3.62668 2.23809,-6.13456 5.3978,-10.25044 0.93086,-1.21255 1.43741,-2.24874 1.44,-2.94563 0.003,-0.79342 0.19263,-1.10646 0.724,-1.19487 1.78584,-0.29714 3.76971,-1.5237 4.00946,-2.47891 0.13417,-0.53458 0.69031,-1.6266 1.23588,-2.42671 0.54556,-0.80011 0.90735,-1.59159 0.80398,-1.75886 -0.10338,-0.16726 0.22114,-0.73645 0.72115,-1.26486 1.26219,-1.33389 1.32477,-2.17156 0.22444,-3.00431 l -0.92512,-0.70014 -0.96969,0.44182 c -0.53333,0.243 -1.51679,1.26533 -2.18546,2.27185 -0.66867,1.00652 -1.54484,2.12717 -1.94704,2.49035 l -0.73128,0.66031 -0.59663,-0.91058 -0.59664,-0.91058 -0.94998,0.36118 c -0.52248,0.19865 -1.60317,0.89359 -2.40153,1.5443 -3.58668,2.9234 -4.3752,2.61122 -2.04024,-0.80773 0.76522,-1.12047 2.10173,-3.27749 2.97001,-4.79337 1.25789,-2.19609 1.78715,-2.79924 2.60458,-2.96819 1.98584,-0.41044 3.60512,-2.1468 5.46562,-5.86078 2.83691,-5.66314 4.48852,-7.47654 4.48852,-4.92823 v 1.30671 l 2.03658,-2.02041 c 1.12012,-1.11122 2.37562,-2.1234 2.79,-2.24928 1.30637,-0.39687 2.01344,-1.28217 2.01344,-2.52098 0,-0.76574 0.31875,-1.5296 0.9,-2.15678 1.29378,-1.39602 1.12153,-3.02599 -0.31979,-3.02599 -0.80848,0 -4.23317,3.26198 -5.38591,5.13002 -1.08234,1.75395 -1.65911,1.28434 -1.54752,-1.26001 l 0.0987,-2.25 1.80011,-2.73334 c 0.99006,-1.50333 2.01199,-3.24483 2.27094,-3.87001 0.31053,-0.74967 0.7206,-1.13668 1.20445,-1.13668 1.04529,0 3.74402,-2.18337 8.75357,-7.08195 l 4.35452,-4.25808 2.07659,-4.16298 2.07658,-4.16298 0.11757,-2.42719 c 0.0647,-1.33495 0.29713,-3.29212 0.5166,-4.34926 l 0.39902,-1.92208 -0.73634,-1.20778 c -0.81561,-1.33781 -0.94372,-3.33616 -0.35078,-5.47155 0.52332,-1.88463 0.50037,-1.88965 -3.7014,-0.81038 -4.36461,1.1211 -7.58556,2.55333 -9.93165,4.41623 -0.93238,0.74035 -1.89774,1.49459 -2.14524,1.67609 -0.34207,0.25085 -0.45,-0.0553 -0.45,-1.27631 v -1.6063 l 0.8253,-0.37603 c 1.38119,-0.62931 4.93471,-4.088 4.93471,-4.80301 0,-0.36916 0.3645,-0.86378 0.81,-1.09913 0.44551,-0.23536 1.37342,-0.88906 2.06203,-1.45267 0.68862,-0.56361 1.60769,-1.02475 2.04239,-1.02475 3.4382,0 16.29701,-16.64404 16.33042,-21.13758 0.008,-1.10593 2.34379,-7.42535 2.80057,-7.57762 0.30108,-0.10036 0.44365,0.44517 0.4639,1.77512 l 0.0292,1.92001 0.49452,-1.08 c 0.67006,-1.46336 0.64789,-3.08722 -0.0559,-4.09198 -0.45035,-0.64297 -0.53052,-1.2955 -0.35261,-2.87011 0.31175,-2.75924 -1.62205,-5.23571 -2.43471,-3.11794 -0.50079,1.30503 -2.66287,0.12267 -3.45607,-1.89001 -0.25361,-0.6435 -0.62866,-1.17 -0.83345,-1.17 -0.86224,0 -2.78031,-1.86472 -2.78031,-2.70298 0,-0.5586 -0.44758,-1.22345 -1.26,-1.87169 -2.04545,-1.63206 -1.71512,-1.85853 2.43,-1.66598 l 3.69001,0.1714 2.91094,1.40279 2.91093,1.40278 2.70684,2.83322 2.70683,2.83321 0.96499,2.84864 c 3.72651,11.00066 1.66814,27.32479 -4.87992,38.70075 -3.77785,6.56326 -5.44643,10.34336 -7.07891,16.03688 -3.16165,11.02677 -6.02829,17.08404 -11.56222,24.43122 -5.30644,7.04514 -6.95552,9.73722 -11.02623,18.00005 l -3.72448,7.56002 -1.66108,5.76001 c -1.71354,5.94195 -2.32102,7.2958 -3.96035,8.82617 -0.52663,0.49162 -1.27237,1.50792 -1.65722,2.25843 -1.78786,3.48665 -9.50529,12.83089 -13.03173,15.77877 -2.40023,2.00644 -2.81235,2.09562 -4.0349,0.87307 z m -23.62305,-9.07864 c -1.19609,-0.31677 -0.82293,-3.84441 1.11544,-10.5448 0.37438,-1.29414 0.9414,-3.93249 1.26005,-5.863 0.89455,-5.41964 3.18903,-11.12811 6.33873,-15.7702 1.70372,-2.51097 2.27754,-3.88613 3.42944,-8.21865 0.50614,-1.90367 1.32338,-4.49579 1.81611,-5.76028 l 0.89586,-2.29905 -0.22446,-3.28096 c -0.62038,-9.06798 4.16826,-31.94021 8.71399,-41.62107 l 1.60589,-3.42001 0.84215,-7.02001 c 0.46318,-3.86102 1.01343,-8.56204 1.22278,-10.44673 0.5301,-4.77229 1.96943,-10.0339 3.78963,-13.85334 2.68644,-5.63716 4.38083,-6.76808 2.38456,-1.59158 -1.64534,4.26651 -2.66381,11.46213 -2.40445,16.98777 0.2422,5.16011 0.58536,5.9148 1.19283,2.62336 0.68665,-3.7204 1.07625,-3.60595 1.37301,0.40335 0.49275,6.65713 1.7459,10.93864 4.20305,14.36016 0.78792,1.09716 1.18054,2.11739 1.30223,3.38389 0.20838,2.16867 0.13904,2.18749 -1.75501,0.47633 l -1.4797,-1.33682 -0.48405,0.66197 c -0.28889,0.39509 -0.71679,0.57266 -1.06133,0.44045 -0.41428,-0.15897 -0.68324,0.0824 -0.95252,0.85485 -0.51065,1.46486 -0.93074,1.35348 -1.71093,-0.45363 -0.36331,-0.8415 -1.02089,-1.85249 -1.46128,-2.24663 l -0.80073,-0.71664 -0.86593,1.00671 c -0.47626,0.55369 -0.86593,1.29657 -0.86593,1.65084 0,0.35427 -0.34059,0.95236 -0.75686,1.32908 -1.10396,0.99907 -1.76315,2.45499 -1.76315,3.89421 0,0.8629 -0.27312,1.52466 -0.86171,2.08788 -4.15136,3.97247 -7.2157,26.43238 -4.57041,33.49868 l 0.30172,0.80599 0.80044,-1.34947 c 1.72265,-2.90424 1.13742,2.54221 -0.72524,6.74948 -0.4383,0.99 -0.90218,2.27552 -1.03085,2.85669 -0.15429,0.69688 -0.78217,1.44224 -1.84396,2.18896 -2.31226,1.62612 -4.51511,4.46104 -4.78683,6.16032 -0.28826,1.80266 -0.98627,2.75093 -2.07947,2.82501 -1.19341,0.0809 -2.84201,2.6771 -4.14263,6.52383 l -1.04112,3.07922 0.61286,0.45017 0.61286,0.45017 -0.88286,1.74387 c -0.95389,1.88418 -1.09456,3.17815 -0.51205,4.71027 0.24721,0.65022 0.25285,1.34798 0.0169,2.09344 -0.19464,0.61498 -0.45846,2.39411 -0.58627,3.95362 -0.31205,3.80774 -2.44032,8.48799 -3.52091,7.7428 -0.0333,-0.023 -0.33027,-0.1132 -0.65991,-0.2005 z m 16.04088,-44.60731 c 0.32969,-0.85917 0.25185,-3.14042 -0.12763,-3.74048 l -0.33513,-0.52991 -0.17131,0.52991 c -0.83254,2.57517 -0.24616,6.03432 0.63407,3.74048 z m 17.84233,-49.3807 c -0.009,-0.3465 -0.23878,-1.116 -0.51077,-1.71 l -0.49452,-1.08001 -0.0292,1.14056 c -0.034,1.32609 0.27102,2.27945 0.72928,2.27945 0.17682,0 0.31418,-0.2835 0.30525,-0.63 z m -2.30679,55.08016 c 0.54197,-0.94051 1.53644,-2.39391 2.20993,-3.22978 0.67349,-0.83587 1.54904,-2.25338 1.94566,-3.15001 0.80506,-1.81997 1.40744,-2.11454 1.40744,-0.68825 v 0.94199 l 0.81001,-0.23065 c 0.4455,-0.12686 1.296,-0.33249 1.89,-0.45695 l 1.08,-0.2263 -0.72,0.82875 c -3.68016,4.236 -7.8354,7.91487 -8.94423,7.91883 l -0.66421,0.002 z m 8.44304,-92.58042 c 0,-0.18158 0.33295,-1.1069 0.73989,-2.05625 0.40694,-0.94935 0.65151,-2.07825 0.54349,-2.50866 -0.22337,-0.88995 0.25726,-1.38071 1.68663,-1.72217 0.55941,-0.13364 0.99,-0.48243 0.99,-0.80194 0,-1.59087 3.13311,-3.02599 6.55846,-3.00409 l 2.62157,0.0168 -1.69768,0.88388 c -0.93372,0.48613 -1.87064,1.20706 -2.08204,1.60207 -0.2114,0.395 -0.98645,1.03383 -1.72233,1.41962 -0.73588,0.38579 -2.62844,2.00632 -4.20567,3.60119 -2.74957,2.78029 -3.43232,3.29143 -3.43232,2.56959 z"
       id="path4"
       inkscape:label="leftupperarm_shadow" /><path
       style="display:inline;fill:#a1a1a1"
       d="m 163.59234,276.04012 c 0.15192,-0.36954 0.42852,-1.31595 0.61466,-2.10315 0.18613,-0.78719 0.79021,-2.2452 1.34238,-3.24001 0.55217,-0.99481 1.55564,-3.48874 2.22993,-5.54208 0.8665,-2.63863 1.60161,-4.16927 2.50699,-5.22002 3.79397,-4.40309 4.74207,-6.58278 5.70203,-13.10904 0.15391,-1.04628 0.63019,-2.37623 1.05841,-2.95543 0.85967,-1.16277 0.98096,-2.19144 0.38882,-3.29786 l -0.38976,-0.72828 1.23639,-1.85806 c 0.68001,-1.02193 2.46988,-3.13055 3.97749,-4.68581 1.50761,-1.55526 2.84643,-3.17526 2.97517,-3.60001 0.12873,-0.42474 0.59481,-1.25826 1.03573,-1.85227 5.00853,-6.74742 4.61165,-12.74668 -0.52523,-7.93961 -0.49501,0.46322 -1.72256,1.2532 -2.7279,1.7555 -1.00535,0.50231 -2.2691,1.49172 -2.80833,2.1987 -1.57905,2.07023 -2.23924,0.7691 -0.71777,-1.4146 0.27591,-0.396 0.88303,-1.287 1.34916,-1.98001 0.46613,-0.693 2.19166,-2.47135 3.83451,-3.95188 l 2.98701,-2.69188 2.09382,0.10376 2.09382,0.10377 1.59151,-1.5519 c 0.87533,-0.85354 2.08397,-1.92052 2.68586,-2.37106 1.47297,-1.10258 5.66047,-9.32927 5.99663,-11.78087 0.13575,-0.99 0.5725,-2.74779 0.97056,-3.9062 0.39807,-1.1584 0.94302,-3.26441 1.21101,-4.68001 0.26799,-1.4156 0.67498,-3.36774 0.90443,-4.33808 0.30944,-1.30859 0.31369,-2.10972 0.0165,-3.10178 -0.2204,-0.73563 -0.40073,-1.9446 -0.40073,-2.68661 v -1.34909 l -1.17,0.23695 c -0.6435,0.13032 -2.14201,0.3785 -3.33001,0.5515 -2.61113,0.38025 -10.16186,2.95442 -12.24216,4.17355 -2.60878,1.52885 -3.84812,0.89487 -1.3426,-0.68679 0.74541,-0.47056 1.58358,-1.13063 1.8626,-1.46682 0.27901,-0.3362 1.41064,-1.2077 2.51472,-1.93667 3.92587,-2.59206 14.18156,-13.19792 15.90668,-16.44979 0.47275,-0.89115 1.06071,-1.62026 1.30658,-1.62026 0.24587,0 0.93608,-1.07857 1.5338,-2.39682 0.59773,-1.31826 1.18586,-2.29774 1.30696,-2.17664 0.31367,0.31366 -0.20059,3.43492 -0.60735,3.68631 -0.18656,0.1153 -0.3392,0.84808 -0.3392,1.6284 v 1.41875 h -0.75903 -0.75903 l 0.22646,0.90229 0.22645,0.90228 -1.23938,0.59102 c -1.97845,0.94346 -1.99135,3.36443 -0.0179,3.36443 0.49072,0 1.19813,0.19104 1.57202,0.42454 l 0.67981,0.42455 0.93531,-0.61285 c 0.51443,-0.33706 0.93532,-0.9085 0.93532,-1.26987 0,-0.78796 2.54609,-2.05154 3.44149,-1.70795 0.66027,0.25337 0.66218,0.24241 -0.69718,4.00019 -0.98468,2.72201 -0.85038,3.33123 0.58972,2.67507 2.19344,-0.99939 4.61482,-12.9337 2.62415,-12.9337 -0.85454,0 -1.02635,-1.53304 -0.42943,-3.83164 1.12849,-4.34559 1.75153,-8.97276 1.62172,-12.04424 l -0.13045,-3.08667 -1.04348,-1.50528 c -0.57392,-0.8279 -0.95478,-1.59398 -0.84636,-1.7024 0.21561,-0.21561 2.06984,2.07406 2.06984,2.55591 0,0.16377 0.41397,1.33253 0.91993,2.59724 l 0.91994,2.29947 0.20639,7.4488 0.2064,7.44881 -0.6317,4.32001 c -0.97125,6.64217 -2.36153,10.32605 -6.61461,17.5271 -2.58272,4.37291 -4.95166,9.86661 -6.14814,14.2579 -3.07834,11.29797 -5.89673,17.0617 -12.94701,26.47724 -6.7877,9.06485 -12.66685,20.62069 -15.16465,29.80706 -1.36762,5.02982 -2.07387,6.66139 -3.6599,8.45503 -0.6789,0.76777 -1.98261,2.52994 -2.89715,3.91595 -2.64457,4.00792 -8.22515,10.77453 -9.41424,11.41504 l -0.68459,0.36875 z m -28.56915,-13.87848 c -0.0209,-0.33361 0.13377,-1.05834 0.3437,-1.6105 0.20994,-0.55216 0.6274,-2.79021 0.92771,-4.97345 0.84394,-6.13559 2.84836,-11.35192 6.43614,-16.74955 1.44159,-2.1688 2.38235,-4.63389 4.29338,-11.25004 0.84758,-2.93438 1.43614,-2.69913 1.12584,0.45001 -0.13658,1.386 -0.11701,2.51913 0.0435,2.51807 0.56376,-0.004 3.17768,-4.00189 3.71181,-5.67745 0.53491,-1.67799 1.8,-2.62221 1.8,-1.34344 0,1.32125 -2.55979,5.99609 -4.63965,8.47318 -1.21978,1.45275 -2.81471,3.54323 -3.54429,4.64551 -0.72958,1.10229 -1.87128,2.72027 -2.5371,3.59553 -2.43213,3.19716 -4.02958,7.24953 -5.82973,14.78867 -1.08225,4.53258 -2.08415,7.88595 -2.13129,7.13346 z m 33.08211,-13.60081 c 0,-0.20497 -0.23344,-0.37267 -0.51876,-0.37267 -1.04707,0 -0.84964,-0.65342 0.93352,-3.0897 1.00249,-1.36967 2.19215,-3.30032 2.64369,-4.29032 0.45153,-0.99 1.07695,-2.12401 1.38981,-2.52001 l 0.56885,-0.72 0.0114,0.87833 c 0.006,0.48309 -0.18496,1.82926 -0.42502,2.99151 l -0.43647,2.11317 0.49037,0.30306 c 0.37297,0.23051 0.027,0.79299 -1.44502,2.34946 -2.02609,2.14229 -3.21242,3.01278 -3.21242,2.35717 z m -19.43443,-32.11276 c 0.0182,-9.71297 4.46532,-29.68365 8.6445,-38.82011 l 1.72904,-3.78001 0.73099,-6.48001 c 0.40204,-3.56401 0.83351,-7.61403 0.95882,-9.00003 0.55932,-6.18645 2.84939,-13.8897 5.23727,-17.61688 1.64359,-2.56544 1.75431,-2.43048 0.48333,0.58922 -2.3562,5.59809 -3.23445,13.58034 -2.28937,20.80767 0.24597,1.88101 0.47262,4.71601 0.50365,6.30002 0.031,1.584 0.26307,3.5943 0.51562,4.46733 0.25496,0.88133 0.35518,2.14175 0.22534,2.83386 l -0.23385,1.24652 -0.98516,-0.94385 c -1.74349,-1.67036 -3.9006,-1.17382 -3.71847,0.85595 0.0444,0.49512 -0.32267,1.54822 -0.81577,2.34022 -0.49309,0.792 -1.15335,2.007 -1.46723,2.70001 -0.31389,0.693 -0.9569,2.07 -1.42893,3.06001 -2.78465,5.84037 -5.42859,17.61315 -5.56316,24.77131 -0.007,0.35819 -0.17424,0.55113 -0.37224,0.42876 -0.2106,-0.13016 -0.36,0.24334 -0.36,0.9 0,0.65666 0.1494,1.03016 0.36,0.9 0.42001,-0.25958 0.50513,2.43521 0.09,2.84938 -0.1485,0.14816 -0.513,1.17486 -0.81001,2.28156 -0.84706,3.15636 -1.44105,2.87023 -1.43437,-0.69093 z m 64.86295,-81.47271 c -1.60583,-0.50124 -4.02163,-1.96389 -4.02595,-2.43752 -0.005,-0.49409 1.44905,-0.27881 2.80189,0.41497 1.09191,0.55996 3.47149,2.61657 2.92842,2.53095 -0.084,-0.0132 -0.85097,-0.24202 -1.70436,-0.5084 z m -7.79121,-1.31272 c -0.96481,-1.14661 -0.99464,-1.63969 -0.0779,-1.28792 0.43876,0.16837 1.51225,2.41312 1.15401,2.41312 -0.0711,0 -0.55533,-0.50634 -1.07607,-1.1252 z m -26.11728,-2.09054 c 0,-1.15983 0.8882,-1.68792 2.16,-1.28427 1.02304,0.3247 0.89696,0.73192 -0.49249,1.59065 -1.56834,0.96928 -1.66751,0.95106 -1.66751,-0.30638 z"
       id="path3"
       inkscape:label="leftupperarm_outline" /></g></svg>
