<?xml version="1.0" encoding="UTF-8" standalone="no"?>
<svg
   width="210mm"
   height="297mm"
   viewBox="0 0 210 297"
   version="1.1"
   id="svg1"
   sodipodi:docname="Chibi_fixed.svg"
   inkscape:version="1.4.3 (0d15f75, 2025-12-25)"
   xmlns:inkscape="http://www.inkscape.org/namespaces/inkscape"
   xmlns:sodipodi="http://sodipodi.sourceforge.net/DTD/sodipodi-0.dtd"
   xmlns="http://www.w3.org/2000/svg"
   xmlns:svg="http://www.w3.org/2000/svg">
  <sodipodi:namedview
     id="namedview1"
     pagecolor="#ffffff"
     bordercolor="#000000"
     borderopacity="0.25"
     inkscape:showpageshadow="2"
     inkscape:pageopacity="0.0"
     inkscape:pagecheckerboard="0"
     inkscape:deskcolor="#d1d1d1"
     inkscape:document-units="mm"
     inkscape:zoom="0.44097222"
     inkscape:cx="397.98425"
     inkscape:cy="561.25984"
     inkscape:window-width="1366"
     inkscape:window-height="697"
     inkscape:window-x="-8"
     inkscape:window-y="-8"
     inkscape:window-maximized="1"
     inkscape:current-layer="svg1" />
  <defs
     id="defs1" />
  <g
     id="chibi_head"
     data-pivot-x="106.70"
     data-pivot-y="76.50"
     inkscape:label="head"
     style="display:inline"
     transform="rotate(2.1916211,106.73532,76.515364)">
    <path
       style="display:inline;opacity:0.988701;fill:#f7c3a2;fill-opacity:1;stroke-width:0.264583"
       d="m 59.825504,88.939898 c -1.33351,5.793422 -2.950898,11.375252 1.961058,21.823942 l -6.730322,-8.30247 c -2.202086,-1.74589 -4.40131,-2.525534 -6.591601,-0.28778 -0.8564,4.43733 -1.854084,8.94581 -1.162687,12.6035 2.183313,7.27001 6.286614,10.67145 10.839034,13.16797 l 6.302884,2.08333 c 3.186463,6.80831 18.514081,12.93273 21.665978,13.74386 l 8.676465,1.76566 7.815727,0.27691 9.21036,-0.37099 10.88974,-1.19317 11.67582,-3.93128 c 8.2584,-3.94876 10.9803,-7.08986 13.76974,-10.24081 l 2.38976,-3.90776 c 3.20551,2.00402 6.40227,1.0551 9.59598,-0.92775 7.78617,-5.94719 6.76012,-7.90573 7.76798,-10.82305 0.55359,-3.40166 0.60248,-6.80181 -1.23019,-10.1964 l -3.61245,-5.09397 c -4.71986,0.04855 -9.19743,9.28964 -13.17753,12.98083 0.61948,-6.41423 6.203,-13.143831 3.86003,-19.549295 2.15847,-4.033116 0.0961,-10.764724 -3.37346,-22.787459 C 143.89051,58.908343 135.848,56.798748 127.83387,54.530425 117.10219,51.513923 106.3686,48.503211 93.309912,52.537281 86.095003,53.677305 79.163463,55.79812 73.552553,62.489858 63.72242,67.823185 65.029676,73.123536 62.50303,78.435238 Z"
       id="path1"
       inkscape:label="head" />
    <g
       id="chibi_hair"
       inkscape:label="hair"
       style="display:inline">
      <path
         style="opacity:1;fill:#784421;fill-opacity:1;stroke-width:0.264583"
         d="m 43.596118,92.002839 c -0.984326,3.869944 -0.517993,8.578691 2.405303,17.137781 l 6.915245,-8.11789 c 4.153895,7.40448 7.867466,11.09917 12.026516,14.73248 -3.910762,-15.06545 -1.337798,-26.919087 1.503312,-34.27557 l 4.20928,12.026515 c 3.389383,-10.860124 8.266823,-18.744132 13.229167,-26.458334 0.969443,23.401941 9.249094,24.21451 13.830492,30.968276 L 94.708807,82.080964 c 0.61645,7.194937 7.402453,14.853451 16.837113,20.445076 0.63511,-2.25302 -1.40801,-11.616182 -0.60132,-16.83712 l 0.60133,3.307292 c 9.16286,-8.576019 14.28322,-16.478286 13.83049,-23.451706 0.946,12.419302 11.89292,22.522126 22.85037,26.758997 l -0.30065,-11.425191 c 1.77727,13.56104 2.64549,27.914428 -0.30067,35.177558 0,0 9.37341,-5.9995 12.32717,-10.5232 4.17761,-6.398033 6.61459,-21.948392 6.61459,-21.948392 l -3.30729,14.732482 c 0.0735,4.80062 2.48543,5.54861 4.81061,7.81723 2.8593,2.78974 13.3681,4.23569 12.62783,2.70597 -10.4821,-8.934707 -6.89145,-13.468539 -9.01988,-24.955019 0,0 3.08278,-0.814651 4.50995,-1.503313 4.63803,-2.238023 7.81723,-7.817235 7.81723,-7.817235 -4.00842,-1.003466 -8.07412,-1.835085 -10.5232,-7.516572 l -4.50995,-15.63447 c -0.84397,-4.309501 -2.12091,-8.619002 -6.91524,-12.928503 -2.60389,-2.726754 -5.20902,-5.453007 -11.72586,-6.614582 l 11.72586,-3.307293 -8.41856,-4.20928 c -4.49551,-1.460014 -7.92782,0.269574 -10.82387,3.607953 0,0 0.63814,-4.832286 0.30068,-7.215908 -0.67828,-4.790983 -3.37582,-6.948253 -3.90862,-7.516573 l -4.50995,-4.8106044 0.90199,16.2357954 c 0,0 -1.80398,-4.309501 -3.3073,-7.516572 -0.97511,-2.080228 -4.5035,-6.816404 -10.22253,-7.8172348 L 110.04261,7.215909 c 7.50385,4.803175 7.68393,5.445977 11.42519,12.928504 -0.74027,-2.120015 -4.59209,-3.334101 -8.41856,-4.810606 -2.39723,-0.92501 -15.491519,-4.547122 -24.353693,-0.300663 L 74.263731,21.94839 c -5.216629,2.66498 -16.962503,9.933145 -21.647728,7.817235 l -9.320549,-4.209281 c 0,0 -0.777185,7.492419 1.803976,12.327178 2.278302,4.267472 2.809442,1.39063 0.300664,5.111271 -0.3502,0.519364 -1.523457,8.567091 -10.777888,3.135466 -1.503944,-0.882697 -4.850099,10.743529 8.071921,21.81955 -2.322586,2.014855 -3.465681,5.33928 -5.41193,9.621213 -1.784372,3.181924 -4.255263,6.259681 -7.817236,8.117898 l 4.209281,5.411932 c 2.520498,3.22596 6.995669,4.543784 9.921876,0.901987 z"
         id="path2"
         inkscape:label="hair" />
    </g>
  </g>
  <g
     id="chibi_torso"
     inkscape:label="torso"
     style="display:inline">
    <path
       style="display:inline;opacity:1;fill:#f7c3a3;fill-opacity:1;stroke-width:0.264583"
       d="m 99.596397,150.14786 c -27.697592,2.92637 -16.755036,17.30242 -13.690545,20.74924 0.04428,9.9856 -5.782657,22.5834 -5.165927,29.65881 -4.25986,19.35185 12.246368,24.62885 26.902335,21.04408 19.16495,6.56769 31.00615,-3.48703 29.63506,-20.99865 -0.68897,-6.6688 -3.7654,-20.84561 -5.95589,-29.90438 8.50848,-14.39829 -0.85525,-18.55665 -13.36252,-21.34659 0,0 -12.26982,0.15378 -18.362513,0.79749 z"
       id="path4"
       inkscape:label="torso" />
  </g>
  <g
     id="chibi_neck"
     data-pivot-x="106.00"
     data-pivot-y="110.00"
     style="display:inline"
     inkscape:label="neck"
     transform="rotate(4.0387118,108.00832,154.74611)"
     inkscape:transform-center-y="-6.076305"
     inkscape:transform-center-x="-0.11407164">
    <path
       style="opacity:1;fill:#f7c3a3;fill-opacity:0.996078;stroke-width:0.264583"
       d="m 99.820075,145.52083 -1.202653,4.50994 -4.509942,4.20929 c 0.787238,4.0161 2.276437,7.68122 7.81724,9.32054 5.01104,2.20211 10.02209,0.51008 15.03314,-1.20265 4.10267,-4.00309 5.23564,-6.15653 5.11127,-11.12453 l -4.50995,-1.50331 c -2.27635,-1.89977 -2.4053,-1.47846 -2.4053,-4.20928 l 6.01326,-7.51657 c -2.20486,-4.8729 -4.40972,-7.15295 -6.61458,-7.21591 -3.35227,-1.99416 -8.3319,-5.13839 -9.32056,-2.4053 -5.12908,0.78989 -9.546973,2.05391 -9.921869,6.01326 -3.287465,5.50472 1.868703,7.84307 4.509944,11.12452 z"
       id="path3"
       inkscape:label="neck" />
  </g>
  <g
     id="chibi_leg_l"
     data-pivot-x="93.81"
     data-pivot-y="205.23"
     inkscape:label="leg.l"
     style="display:inline"
     inkscape:transform-center-x="5.6751807"
     inkscape:transform-center-y="25.812624"
     transform="rotate(8.406694,93.840174,203.79928)">
    <g
       id="chibi_feet_l"
       inkscape:label="feet.l"
       style="display:inline"
       inkscape:transform-center-x="4.8022252"
       inkscape:transform-center-y="5.0379731"
       transform="rotate(-4.1908926,94.107901,243.1474)">
      <path
         style="opacity:1;fill:#1a1a1a;fill-opacity:0.996078;stroke-width:0.264583"
         d="m 85.776124,240.79706 -0.467574,4.4957 c 0,0 -8.027651,4.86348 -9.058607,8.99106 -0.514618,2.06035 0.265896,4.7075 1.880372,6.08712 9.368579,5.66645 24.030265,-0.70445 24.192485,-3.31511 0,0 2.74567,-8.53111 0.7461,-12.00711 -9.568246,-16.63335 -11.627314,-10.66485 -17.292776,-4.25166 z"
         id="path13"
         inkscape:label="feet.l" />
    </g>
    <path
       style="opacity:1;fill:#f7c3a3;fill-opacity:0.996078;stroke-width:0.264583"
       d="m 82.392533,201.11927 c -4.122222,5.17302 -2.145278,19.83941 -2.145278,19.83941 2.726152,36.74484 22.141965,25.01052 23.107275,21.39444 2.66742,-9.99241 1.79869,-6.43645 4.55118,-20.13514 0,0 1.60722,-6.4097 1.22235,-9.61873 -0.33243,-2.77196 -0.98129,-5.88509 -2.9906,-7.82337 -4.26545,-4.11468 -10.906476,-5.44506 -16.825385,-5.74707 -3.083379,-0.15734 -4.995473,-0.32405 -6.919542,2.09046 z"
       id="path7"
       inkscape:label="leg.l" />
  </g>
  <g
     id="chibi_leg_r"
     data-pivot-x="122.01"
     data-pivot-y="209.69"
     inkscape:label="leg.r"
     style="display:inline"
     inkscape:transform-center-x="-8.7674192"
     inkscape:transform-center-y="22.213838"
     transform="rotate(-12.371986,122.84201,206.90602)">
    <g
       id="chibi_feet_r"
       style="display:inline"
       inkscape:label="feet.r">
      <path
         style="opacity:1;fill:#1a1a1a;fill-opacity:0.996078;stroke-width:0.264583"
         d="m 130.44243,240.27243 1.93318,7.00394 c 0,0 6.93702,6.32254 7.15129,10.57151 0.10695,2.12095 -1.17024,4.56747 -3.02076,5.60926 -10.28668,3.7501 -23.44155,-5.33318 -23.09651,-7.92571 0,0 -0.55278,-8.53379 1.58724,-11.92511 6.89753,-8.78661 13.06196,-11.96973 15.44556,-3.33389 z"
         id="path14"
         inkscape:label="feet.r"
         inkscape:transform-center-x="-5.4163317"
         inkscape:transform-center-y="5.6966418" />
    </g>
    <path
       style="display:inline;opacity:1;fill:#f7c3a3;fill-opacity:0.996078;stroke-width:0.256116"
       d="m 134.95748,203.03218 c 3.9782,5.0572 1.66385,17.7684 1.66385,17.7684 0.73543,34.11284 -20.63752,24.93086 -21.64754,21.40881 -2.80816,-9.79254 -1.78994,-6.33327 -4.57889,-19.82556 0,0 -1.60795,-6.30921 -1.28432,-9.48257 0.27955,-2.74112 0.85489,-5.82298 2.73626,-7.76154 3.99386,-4.11526 10.27772,-5.51045 15.88975,-5.88138 2.92352,-0.19323 5.36405,1.41337 7.22089,3.77384 z"
       id="path12"
       inkscape:label="leg.r" />
  </g>
  <g
     id="chibi_hip"
     inkscape:label="hip"
     style="display:inline;fill:#999999">
    <path
       style="opacity:1;fill:#000000;fill-opacity:0;stroke-width:0.264583"
       d="m 81.552592,195.4095 c -2.549209,5.97392 -4.14752,19.76733 -1.880582,25.36435 2.621428,6.47225 16.890434,2.13834 28.56663,0.51403 11.24807,2.56328 28.26086,5.75535 29.11194,0.71425 1.27627,-7.55954 0.11572,-17.94976 -0.54655,-26.05276 -0.0918,-2.06452 -5.44676,-2.64458 -13.21195,-3.4209 -8.95598,-0.89537 -20.64429,-0.85426 -29.509776,0.30447 -6.782066,0.88643 -11.555507,0.29357 -12.529712,2.57656 z"
       id="path15"
       inkscape:label="hip" />
  </g>
  <g
     id="chibi_arm_l"
     data-pivot-x="88.86"
     data-pivot-y="162.18"
     inkscape:label="arm.l"
     style="display:inline"
     inkscape:transform-center-x="18.135602"
     inkscape:transform-center-y="22.30045"
     transform="rotate(10.56429,87.567433,159.92551)">
    <path
       style="opacity:1;fill:#f7c3a3;fill-opacity:0.996078;stroke-width:0.264583"
       d="m 63.531152,192.03025 c 2.551854,-7.12083 6.0659,-13.73905 9.065487,-20.59677 12.395904,-29.27693 29.017021,-17.86698 17.308456,-8.44313 -2.387002,1.92121 -6.057362,8.49736 -13.186921,31.66646 -3.007145,9.05979 -14.138043,11.24341 -13.187022,-2.62656 z"
       id="path5"
       inkscape:label="arm.l" />
    <g
       id="chibi_hand_l"
       inkscape:label="hand.l"
       style="display:inline"
       inkscape:transform-center-x="1.2053433"
       inkscape:transform-center-y="4.1963104"
       transform="rotate(0.06039044,69.015698,196.54807)">
      <path
         style="display:inline;opacity:1;fill:#000080;fill-opacity:0.996078;stroke-width:0.283909"
         d="m 63.777071,189.38052 c -3.799917,2.59326 -4.602294,12.61151 -4.602294,12.61151 -0.537557,4.85004 0.0027,9.60133 3.961469,12.09993 2.196017,1.38603 4.447944,0.0697 6.732436,-2.8209 0,0 2.130902,-0.002 3.259462,-0.9483 1.74244,-1.46121 1.49459,-6.47026 1.49459,-6.47026 0,0 3.291498,-2.34038 3.648545,-4.09518 0.73481,-3.61134 -0.546732,-8.29914 -3.672083,-10.42777 -2.926227,-1.99298 -7.879273,-1.95736 -10.822125,0.051 z"
         id="path9"
         inkscape:label="hand.l" />
    </g>
  </g>
  <g
     id="chibi_arm_r"
     data-pivot-x="134.46"
     data-pivot-y="169.00"
     inkscape:label="arm.r"
     style="display:inline"
     inkscape:transform-center-x="-15.936357"
     inkscape:transform-center-y="25.137869"
     transform="rotate(-2.4814329,125.5616,156.08834)">
    <path
       style="display:inline;opacity:1;fill:#f7c3a3;fill-opacity:0.996078;stroke-width:0.264583"
       d="m 155.88336,191.1523 c -2.7331,-7.05325 -6.41521,-13.57946 -9.58917,-20.35824 -13.14044,-28.95042 -29.46437,-17.1192 -17.51868,-7.99782 2.43534,1.85956 6.27265,8.3397 13.9923,31.31894 3.23781,8.97993 14.4209,10.87823 13.11555,-2.96288 z"
       id="path16"
       inkscape:label="arm.r" />
    <g
       id="chibi_hand_r"
       inkscape:label="hand.r"
       style="display:inline"
       inkscape:transform-center-x="-0.46225257"
       inkscape:transform-center-y="4.0523095"
       transform="rotate(-9.5844324,150.56363,196.4378)">
      <path
         style="display:inline;opacity:1;fill:#000080;fill-opacity:0.996078;stroke-width:0.283909"
         d="m 156.30585,188.3336 c 3.35129,3.15169 2.5888,13.17305 2.5888,13.17305 -0.22184,4.8747 -1.49315,9.48452 -5.79175,11.33831 -2.38455,1.02834 -4.40484,-0.62159 -6.21293,-3.83179 0,0 -2.10478,-0.33264 -3.07274,-1.44278 -1.4945,-1.71398 -0.47209,-6.62383 -0.47209,-6.62383 0,0 -2.88829,-2.82296 -2.96861,-4.61191 -0.16531,-3.68163 1.82839,-8.11367 5.24629,-9.73134 3.20013,-1.51458 8.0876,-0.71052 10.68303,1.73029 z"
         id="path17"
         inkscape:label="hand.r" />
    </g>
  </g>
</svg>
