<?xml version="1.0" encoding="UTF-8" standalone="no"?>
<svg
   width="210mm"
   height="297mm"
   viewBox="0 0 210 297"
   version="1.1"
   id="svg1"
   sodipodi:docname="Chibi_fixed_coloured.svg"
   inkscape:version="1.4.3 (0d15f75, 2025-12-25)"
   xmlns:inkscape="http://www.inkscape.org/namespaces/inkscape"
   xmlns:sodipodi="http://sodipodi.sourceforge.net/DTD/sodipodi-0.dtd"
   xmlns:xlink="http://www.w3.org/1999/xlink"
   xmlns="http://www.w3.org/2000/svg"
   xmlns:svg="http://www.w3.org/2000/svg">
  <sodipodi:namedview
     id="namedview1"
     pagecolor="#ffffff"
     bordercolor="#000000"
     borderopacity="0.25"
     inkscape:showpageshadow="2"
     inkscape:pageopacity="0.0"
     inkscape:pagecheckerboard="0"
     inkscape:deskcolor="#d1d1d1"
     inkscape:document-units="mm"
     inkscape:zoom="0.50383782"
     inkscape:cx="316.57012"
     inkscape:cy="517.03146"
     inkscape:window-width="1366"
     inkscape:window-height="697"
     inkscape:window-x="-8"
     inkscape:window-y="-8"
     inkscape:window-maximized="1"
     inkscape:current-layer="g53" />
  <defs
     id="defs1">
    <inkscape:path-effect
       effect="spiro"
       id="path-effect32"
       is_visible="true"
       lpeversion="1" />
    <inkscape:path-effect
       effect="spiro"
       id="path-effect31"
       is_visible="true"
       lpeversion="1" />
    <inkscape:path-effect
       effect="spiro"
       id="path-effect30"
       is_visible="true"
       lpeversion="1" />
    <inkscape:path-effect
       effect="spiro"
       id="path-effect29"
       is_visible="true"
       lpeversion="1" />
    <clipPath
       clipPathUnits="userSpaceOnUse"
       id="clipPath8">
      <use
         x="0"
         y="0"
         xlink:href="#g7"
         id="use8" />
    </clipPath>
    <filter
       inkscape:collect="always"
       style="color-interpolation-filters:sRGB"
       id="filter11"
       x="-0.0070780587"
       y="-0.013899629"
       width="1.0141561"
       height="1.0277993">
      <feGaussianBlur
         inkscape:collect="always"
         stdDeviation="0.45429461"
         id="feGaussianBlur11" />
    </filter>
    <filter
       inkscape:collect="always"
       style="color-interpolation-filters:sRGB"
       id="filter20"
       x="-0.01265923"
       y="-0.03671548"
       width="1.0253185"
       height="1.073431">
      <feGaussianBlur
         inkscape:collect="always"
         stdDeviation="0.80522574"
         id="feGaussianBlur20" />
    </filter>
    <filter
       inkscape:collect="always"
       style="color-interpolation-filters:sRGB"
       id="filter34"
       x="-0.015174262"
       y="-0.014580925"
       width="1.0303485"
       height="1.0291619">
      <feGaussianBlur
         inkscape:collect="always"
         stdDeviation="0.36552816"
         id="feGaussianBlur34" />
    </filter>
    <filter
       inkscape:collect="always"
       style="color-interpolation-filters:sRGB"
       id="filter38"
       x="-0.00047261978"
       y="-0.00069032318"
       width="1.0009452"
       height="1.0013806">
      <feGaussianBlur
         inkscape:collect="always"
         stdDeviation="0.022938205"
         id="feGaussianBlur38" />
    </filter>
    <clipPath
       clipPathUnits="userSpaceOnUse"
       id="clipPath42">
      <use
         x="0"
         y="0"
         xlink:href="#g41"
         id="use42" />
    </clipPath>
    <filter
       inkscape:collect="always"
       style="color-interpolation-filters:sRGB"
       id="filter42"
       x="-0.03050101"
       y="-0.022871883"
       width="1.061002"
       height="1.0457438">
      <feGaussianBlur
         inkscape:collect="always"
         stdDeviation="0.45012489"
         id="feGaussianBlur42" />
    </filter>
    <clipPath
       clipPathUnits="userSpaceOnUse"
       id="clipPath44">
      <use
         x="0"
         y="0"
         xlink:href="#g43"
         id="use44" />
    </clipPath>
    <filter
       inkscape:collect="always"
       style="color-interpolation-filters:sRGB"
       id="filter44"
       x="-0.035479843"
       y="-0.083078656"
       width="1.0709597"
       height="1.1661573">
      <feGaussianBlur
         inkscape:collect="always"
         stdDeviation="0.29042257"
         id="feGaussianBlur44" />
    </filter>
    <clipPath
       clipPathUnits="userSpaceOnUse"
       id="clipPath46">
      <use
         x="0"
         y="0"
         xlink:href="#g45"
         id="use46" />
    </clipPath>
    <filter
       inkscape:collect="always"
       style="color-interpolation-filters:sRGB"
       id="filter47"
       x="-0.055402533"
       y="-0.032881888"
       width="1.1108051"
       height="1.0657638">
      <feGaussianBlur
         inkscape:collect="always"
         stdDeviation="0.43595588"
         id="feGaussianBlur47" />
    </filter>
    <clipPath
       clipPathUnits="userSpaceOnUse"
       id="clipPath49">
      <use
         x="0"
         y="0"
         xlink:href="#g48"
         id="use49" />
    </clipPath>
    <clipPath
       clipPathUnits="userSpaceOnUse"
       id="clipPath51">
      <use
         x="0"
         y="0"
         xlink:href="#g50"
         id="use51" />
    </clipPath>
    <filter
       inkscape:collect="always"
       style="color-interpolation-filters:sRGB"
       id="filter51"
       x="-0.054514228"
       y="-0.038046398"
       width="1.1090285"
       height="1.0760928">
      <feGaussianBlur
         inkscape:collect="always"
         stdDeviation="0.28356172"
         id="feGaussianBlur51" />
    </filter>
    <clipPath
       clipPathUnits="userSpaceOnUse"
       id="clipPath53">
      <use
         x="0"
         y="0"
         xlink:href="#g52"
         id="use53" />
    </clipPath>
  </defs>
  <g
     id="chibi_head"
     data-pivot-x="106.70"
     data-pivot-y="76.50"
     inkscape:label="head"
     style="display:inline"
     transform="rotate(2.1916211,106.73532,76.515364)">
    <g
       id="g42"
       clip-path="url(#clipPath42)">
      <g
         inkscape:label="Clip"
         id="g41">
        <path
           style="display:inline;opacity:0.988701;fill:#f7c3a2;fill-opacity:1;stroke-width:0.264583"
           d="m 59.825504,88.939898 c -1.33351,5.793422 -2.950898,11.375252 1.961058,21.823942 l -6.730322,-8.30247 c -2.202086,-1.74589 -4.40131,-2.525534 -6.591601,-0.28778 -0.8564,4.43733 -1.854084,8.94581 -1.162687,12.6035 2.183313,7.27001 6.286614,10.67145 10.839034,13.16797 l 6.302884,2.08333 c 3.186463,6.80831 18.514081,12.93273 21.665978,13.74386 l 8.676465,1.76566 7.815727,0.27691 9.21036,-0.37099 10.88974,-1.19317 11.67582,-3.93128 c 8.2584,-3.94876 10.9803,-7.08986 13.76974,-10.24081 l 2.38976,-3.90776 c 3.20551,2.00402 6.40227,1.0551 9.59598,-0.92775 7.78617,-5.94719 6.76012,-7.90573 7.76798,-10.82305 0.55359,-3.40166 0.60248,-6.80181 -1.23019,-10.1964 l -3.61245,-5.09397 c -4.71986,0.04855 -9.19743,9.28964 -13.17753,12.98083 0.61948,-6.41423 6.203,-13.143831 3.86003,-19.549295 2.15847,-4.033116 0.0961,-10.764724 -3.37346,-22.787459 C 143.89051,58.908343 135.848,56.798748 127.83387,54.530425 117.10219,51.513923 106.3686,48.503211 93.309912,52.537281 86.095003,53.677305 79.163463,55.79812 73.552553,62.489858 63.72242,67.823185 65.029676,73.123536 62.50303,78.435238 Z"
           id="path1"
           inkscape:label="head" />
      </g>
      <path
         id="path36"
         style="display:inline;opacity:1;fill:#f5a287;fill-opacity:0.992157;stroke-width:0.0147462;stroke-dasharray:none;paint-order:fill markers stroke;filter:url(#filter38)"
         inkscape:label="face_shad"
         d="m 164.49922,102.78275 c 2.83526,3.32719 2.4216,9.03164 0.67601,13.01366 -1.7925,4.08904 -6.01875,9.95359 -10.33418,8.62733 -3.21922,-0.98935 -2.90459,-6.31032 -2.68242,-9.62943 0.32625,-4.87381 5.78784,-13.48115 5.78784,-13.48115 0,0 5.10962,-0.22396 6.55275,1.46959 z M 110.87434,91.802157 c 0,0 7.67226,-5.165424 10.41208,-8.787442 2.12029,-2.803009 3.90997,-13.090915 4.35125,-9.604116 0.71408,5.642371 3.43218,9.356541 7.27692,12.04282 6.02623,4.210463 17.18418,10.615053 17.18418,10.615053 L 149.75947,80.352129 125.83062,64.752084 114.77348,77.23439 106.24389,87.260565 Z M 63.913038,111.42592 c 0,0 -0.461332,-14.461646 3.105112,-21.615576 1.258813,-2.525052 3.441804,7.732947 3.441804,7.732947 0,0 8.444905,-19.911181 13.123879,-26.979948 0.681618,-1.029756 0.383294,-3.684846 0.383294,-3.684846 L 70.351062,87.847705 66.13396,80.406584 60.864546,100.2699 Z m -11.516664,-6.3753 c -2.855259,3.01077 -2.783511,8.4753 -1.361563,12.37341 1.460164,4.00288 5.11324,9.83881 9.250879,8.82142 3.086604,-0.75895 3.086746,-5.85204 3.062428,-9.03049 -0.03571,-4.66726 -4.699269,-13.19009 -4.699269,-13.19009 0,0 -4.799154,-0.50673 -6.252475,1.02575 z m 65.213486,39.44917 c 4.60409,0.003 12.6121,-2.93742 19.22086,-4.6679 3.46143,-3.68573 13.23915,-5.69522 13.66485,-12.84426 l 0.79795,-13.40047 1.73483,-16.320024 -3.214,11.919994 c 0,0 -0.9512,6.3075 -1.20999,9.4839 -0.19197,2.35632 0.0146,5.72998 -1.09613,7.81693 -2.06081,3.87196 -11.22521,10.47945 -11.22521,10.47945 -1.75648,1.32793 -12.32156,5.14386 -18.67316,7.53238 z" />
      <path
         style="display:inline;opacity:1;fill:#fad1c4;fill-opacity:0.99215698;stroke-width:0.014;stroke-dasharray:none;paint-order:fill markers stroke;filter:url(#filter42)"
         d="m 58.705623,139.26363 c 4.60409,0.003 12.6121,-2.93742 19.22086,-4.6679 3.46143,-3.68573 13.23915,-5.69522 13.66485,-12.84426 l 0.79795,-13.40047 1.73483,-16.320021 -3.214,11.919991 c 0,0 -0.9512,6.3075 -1.20999,9.4839 -0.19197,2.35632 0.0146,5.72998 -1.09613,7.81693 -2.06081,3.87196 -11.22521,10.47945 -11.22521,10.47945 -1.75648,1.32793 -12.32156,5.14386 -18.67316,7.53238 z"
         id="path42"
         sodipodi:nodetypes="ccscccsssc"
         transform="matrix(-0.99707515,0.07642741,0.07642741,0.99707515,146.31507,1.8909726)"
         inkscape:label="face_high" />
    </g>
    <g
       id="chibi_hair"
       inkscape:label="hair"
       style="display:inline">
      <g
         id="g8"
         clip-path="url(#clipPath8)">
        <g
           inkscape:label="Clip"
           id="g7">
          <path
             style="opacity:1;fill:#784421;fill-opacity:1;stroke-width:0.264583"
             d="m 43.596118,92.002839 c -0.984326,3.869944 -0.517993,8.578691 2.405303,17.137781 l 6.915245,-8.11789 c 4.153895,7.40448 7.867466,11.09917 12.026516,14.73248 -3.910762,-15.06545 -1.337798,-26.919087 1.503312,-34.27557 l 4.20928,12.026515 c 3.389383,-10.860124 8.266823,-18.744132 13.229167,-26.458334 0.969443,23.401941 9.249094,24.21451 13.830492,30.968276 L 94.708807,82.080964 c 0.61645,7.194937 7.402453,14.853451 16.837113,20.445076 0.63511,-2.25302 -1.40801,-11.616182 -0.60132,-16.83712 l 0.60133,3.307292 c 9.16286,-8.576019 14.28322,-16.478286 13.83049,-23.451706 0.946,12.419302 11.89292,22.522126 22.85037,26.758997 l -0.30065,-11.425191 c 1.77727,13.56104 2.64549,27.914428 -0.30067,35.177558 0,0 9.37341,-5.9995 12.32717,-10.5232 4.17761,-6.398033 6.61459,-21.948392 6.61459,-21.948392 l -3.30729,14.732482 c 0.0735,4.80062 2.48543,5.54861 4.81061,7.81723 2.8593,2.78974 13.3681,4.23569 12.62783,2.70597 -10.4821,-8.934707 -6.89145,-13.468539 -9.01988,-24.955019 0,0 3.08278,-0.814651 4.50995,-1.503313 4.63803,-2.238023 7.81723,-7.817235 7.81723,-7.817235 -4.00842,-1.003466 -8.07412,-1.835085 -10.5232,-7.516572 l -4.50995,-15.63447 c -0.84397,-4.309501 -2.12091,-8.619002 -6.91524,-12.928503 -2.60389,-2.726754 -5.20902,-5.453007 -11.72586,-6.614582 l 11.72586,-3.307293 -8.41856,-4.20928 c -4.49551,-1.460014 -7.92782,0.269574 -10.82387,3.607953 0,0 0.63814,-4.832286 0.30068,-7.215908 -0.67828,-4.790983 -3.37582,-6.948253 -3.90862,-7.516573 l -4.50995,-4.8106044 0.90199,16.2357954 c 0,0 -1.80398,-4.309501 -3.3073,-7.516572 -0.97511,-2.080228 -4.5035,-6.816404 -10.22253,-7.8172348 L 110.04261,7.215909 c 7.50385,4.803175 7.68393,5.445977 11.42519,12.928504 -0.74027,-2.120015 -4.59209,-3.334101 -8.41856,-4.810606 -2.39723,-0.92501 -15.491519,-4.547122 -24.353693,-0.300663 L 74.263731,21.94839 c -5.216629,2.66498 -16.962503,9.933145 -21.647728,7.817235 l -9.320549,-4.209281 c 0,0 -0.777185,7.492419 1.803976,12.327178 2.278302,4.267472 2.809442,1.39063 0.300664,5.111271 -0.3502,0.519364 -1.523457,8.567091 -10.777888,3.135466 -1.503944,-0.882697 -4.850099,10.743529 8.071921,21.81955 -2.322586,2.014855 -3.465681,5.33928 -5.41193,9.621213 -1.784372,3.181924 -4.255263,6.259681 -7.817236,8.117898 l 4.209281,5.411932 c 2.520498,3.22596 6.995669,4.543784 9.921876,0.901987 z"
             id="path2"
             inkscape:label="hair" />
        </g>
        <path
           id="path11"
           style="opacity:1;fill:#b16430;fill-opacity:1;stroke-width:0.264583;filter:url(#filter11)"
           d="m 150.69935,32.157524 c -0.043,-1.12304 6.73775,0.744488 10.00127,4.867145 4.2813,2.927912 7.16037,6.870187 7.89158,12.366203 1.38548,5.38708 5.99389,10.650821 4.15645,16.161241 l 4.24159,6.457101 6.60482,2.600436 c 0,0 -2.43844,0.583275 -3.63804,0.367483 -2.67846,-0.48182 -4.35078,-1.518083 -6.18386,-3.529572 -2.08099,-2.283534 -2.67476,-6.06012 -3.65377,-8.990413 -1.30306,-3.900192 -2.92076,-12.119166 -4.48962,-15.920234 -1.6864,-4.085851 -4.54113,-7.63089 -8.04098,-10.306182 -2.99745,-2.291254 -6.88944,-4.073208 -6.88944,-4.073208 z m -98.32048,6.972745 -5.177693,1.13046 -3.853916,6.487219 -10.268953,-0.352859 0.599467,10.791894 c 2.30839,4.170688 3.942562,8.948385 8.985142,10.65744 -7.207999,-0.302483 -3.668068,5.002758 -4.541672,8.00524 l -8.566599,10.023901 6.442022,-2.871479 c -0.735384,0.327792 2.518126,-3.824732 3.661713,-6.790758 2.410085,-6.250834 6.503794,-8.293778 4.510124,-9.758904 -5.48047,-4.027535 -9.851407,-8.095496 -9.142789,-17.894311 0,0 7.799234,3.691498 9.290993,0.827003 1.548565,-2.973572 8.062161,-10.254846 8.062161,-10.254846 z m 68.77908,-20.159646 c 1.34141,-2.242118 0.11131,-4.445272 -1.02265,-7.232909 -0.48189,-1.18464 -3.42268,-1.733642 -3.42268,-1.733642 0,0 6.25001,0.732117 9.02975,2.078449 2.21907,1.074777 5.77096,4.627178 5.77096,4.627178 0,0 -2.76797,-4.938638 -5.09033,-6.331389 -4.53531,-2.7198907 -15.58915,-2.9461996 -15.58915,-2.9461996 z m -77.871102,6.709355 c -0.278335,-0.849707 6.880067,3.565086 11.936608,4.950607 3.933071,1.077684 22.759717,-13.741549 36.453272,-17.05792 10.825562,-2.621787 29.505472,4.689904 29.108842,5.412209 0,0 -5.38765,0.407525 -8.41418,-0.610306 C 105.89474,16.19645 98.031278,15.442104 91.946159,17.630777 80.276639,21.828026 70.678983,31.128815 57.932204,33.198482 52.043965,34.154543 43.286848,25.679978 43.286848,25.679978 Z"
           inkscape:label="hair_high" />
        <path
           id="path20"
           style="opacity:1;fill:#3a2110;fill-opacity:1;stroke-width:0.264583;filter:url(#filter20)"
           d="m 125.61456,65.415742 c 0,0 8.40148,17.255844 15.21012,15.095501 4.18717,-1.328567 2.29045,-12.978115 2.29045,-12.978115 0,0 6.94118,6.609886 9.80551,10.424861 3.2948,4.388316 4.42317,20.872115 5.12156,15.481587 1.8987,-14.655125 3.07287,-18.49687 5.72933,-14.154892 2.25,3.677608 11.8679,0.590992 11.8679,0.590992 l 5.87405,-1.269971 c -2.81122,1.711332 8.93165,7.845052 -10.27668,4.573974 l 9.34765,25.771581 c -6.98786,0.66258 -15.58308,6.55047 -17.12433,-10.493164 -8.36779,33.333794 -11.08607,12.355164 -16.43377,16.654894 l 1.50497,-33.503117 c 0.33477,6.016066 3.12229,17.101144 -3.11936,9.52593 -16.98285,-2.019132 -19.87549,-12.932028 -19.7974,-25.720061 z m -41.759069,1.249714 c 0,0 3.115313,12.390882 7.596665,16.432039 3.496703,3.153228 2.410279,-9.847185 2.410279,-9.847185 0,0 5.203517,12.182721 10.567835,12.137642 3.45015,-0.02899 6.66473,-7.919656 6.66473,-7.919656 0,0 1.3181,3.937193 2.20711,3.051054 5.85949,-5.840554 11.60338,-15.424863 11.60338,-15.424863 0.86153,15.328595 -7.96246,15.830991 -12.35413,23.118192 l -1.45809,-1.686154 0.97361,16.337105 C 103.99679,99.500836 96.905216,95.081658 95.01085,85.051648 l 2.92776,12.778415 C 70.033515,88.330127 87.090117,77.109522 83.855491,66.665456 Z M 29.877165,85.453949 c 0,0 17.151345,-1.595347 24.982623,-11.756193 2.093099,-2.715733 1.123735,8.87789 4.534034,9.233037 3.931103,0.409383 7.307244,-9.337808 7.307244,-9.337808 0,0 3.45322,8.138907 5.109977,6.075477 5.47604,-6.820207 11.70988,-12.641811 11.70988,-12.641811 L 70.885482,91.897561 65.963627,81.634196 64.432026,114.44155 c -4.032,-3.8718 -9.084077,-4.24236 -11.65142,-13.14135 l -6.972675,8.97661 -3.435401,-16.939677 c -6.976299,4.242906 -9.6472,-2.036759 -12.495365,-7.883184 z"
           inkscape:label="hair_shad" />
        <path
           id="path34"
           style="display:inline;opacity:1;mix-blend-mode:normal;fill:#3a2110;fill-opacity:1;stroke-width:0.014;stroke-dasharray:none;paint-order:fill markers stroke;filter:url(#filter34)"
           inkscape:transform-center-x="-0.02886624"
           inkscape:transform-center-y="-5.5018262"
           d="m 109.27739,88.69492 c 0.14059,-1.234293 0.3719,-2.447306 0.59292,-3.645075 0.29123,-1.58123 0.66657,-3.089731 0.97441,-4.656779 0.29207,-1.50036 0.62666,-2.964451 0.92842,-4.45682 0.18694,-0.936636 0.30819,-1.915007 0.41139,-2.885457 0.11067,-0.886527 0.16724,-1.770937 0.21994,-2.657054 0.0356,-0.892437 0.061,-1.781483 0.0959,-2.673591 0.0709,-1.032539 0.0854,-2.046053 0.10886,-3.064475 0.0314,-0.783134 0.0699,-1.568593 0.0703,-2.340498 -0.10199,-1.32269 -0.23842,-2.606476 -0.31586,-3.952632 -0.0123,-0.195752 -0.0247,-0.391515 -0.037,-0.58727 0,0 -1.50957,0.01093 -1.50957,0.01093 v 0 c 0.0173,0.192225 0.0346,0.384438 0.0519,0.576667 0.0903,1.299115 0.20481,2.576473 0.27247,3.895591 3.3e-4,0.767057 -0.0154,1.539392 -0.0489,2.319642 -0.0234,1.013775 -0.0309,2.017756 -0.10521,3.046782 -0.0395,0.886847 -0.0846,1.774536 -0.10109,2.654591 -0.0548,0.871351 -0.11143,1.738831 -0.21624,2.610676 -0.10581,0.943619 -0.21081,1.890045 -0.38369,2.809937 -0.27639,1.507408 -0.60432,2.971683 -0.90961,4.456801 -0.3075,1.569011 -0.67387,3.08792 -0.97189,4.66515 -0.23431,1.232958 -0.46261,2.471306 -0.67696,3.716985 z M 94.711106,59.913444 93.702782,67.816696 c -0.352446,2.762479 -0.763018,5.468182 -0.212988,8.134967 0.145886,0.707318 0.05901,1.687803 0.351933,2.345931 0.158793,0.35677 0.442053,0.655943 0.563616,1.027053 0.08155,0.248948 -0.07647,0.545987 0.03005,0.785316 0.100429,0.225641 0.398821,0.303396 0.54358,0.503508 0.10236,0.1415 -0.06398,0.37044 0.02004,0.523544 0.26682,0.486216 0.69027,4.336581 0.713885,4.953634 M 89.054912,49.119374 c 0,0 3.519716,-9.639637 7.382319,-12.603827 3.343856,-2.5661 12.193089,-3.350336 12.193089,-3.350336 0,0 -3.37748,4.136913 -8.4281,5.827806 -4.760328,1.593705 -11.147308,10.126357 -11.147308,10.126357 z M 114.05741,31.122431 c 0,0 6.07272,-3.324338 9.08188,-2.444804 3.50921,1.025692 7.38842,8.106223 7.38842,8.106223 0,0 3.85224,-2.126277 5.95063,-2.062819 3.74904,0.113376 10.38944,4.321201 10.38944,4.321201 0,0 -5.83108,-0.77579 -8.65852,-0.192953 -3.14465,0.648224 -8.76,4.005417 -8.76,4.005417 0,0 -3.84232,-7.455333 -7.18675,-9.686872 -2.34471,-1.564483 -8.2051,-2.045393 -8.2051,-2.045393 z"
           inkscape:label="hair_stroke" />
      </g>
    </g>
  </g>
  <g
     id="chibi_torso"
     inkscape:label="torso"
     style="display:inline">
    <path
       style="display:inline;opacity:1;fill:#f7c3a3;fill-opacity:1;stroke-width:0.264583"
       d="m 99.596397,150.14786 c -27.697592,2.92637 -16.755036,17.30242 -13.690545,20.74924 0.04428,9.9856 -5.782657,22.5834 -5.165927,29.65881 -4.25986,19.35185 12.246368,24.62885 26.902335,21.04408 19.16495,6.56769 31.00615,-3.48703 29.63506,-20.99865 -0.68897,-6.6688 -3.7654,-20.84561 -5.95589,-29.90438 8.50848,-14.39829 -0.85525,-18.55665 -13.36252,-21.34659 0,0 -12.26982,0.15378 -18.362513,0.79749 z"
       id="path4"
       inkscape:label="torso" />
  </g>
  <g
     id="chibi_neck"
     data-pivot-x="106.00"
     data-pivot-y="110.00"
     style="display:inline"
     inkscape:label="neck"
     transform="rotate(4.0387118,108.00832,154.74611)"
     inkscape:transform-center-y="-6.076305"
     inkscape:transform-center-x="-0.11407164">
    <g
       id="g44"
       clip-path="url(#clipPath44)">
      <g
         inkscape:label="Clip"
         id="g43">
        <path
           style="opacity:1;fill:#f7c3a3;fill-opacity:0.996078;stroke-width:0.264583"
           d="m 99.820075,145.52083 -1.202653,4.50994 -4.509942,4.20929 c 0.787238,4.0161 2.276437,7.68122 7.81724,9.32054 5.01104,2.20211 10.02209,0.51008 15.03314,-1.20265 4.10267,-4.00309 5.23564,-6.15653 5.11127,-11.12453 l -4.50995,-1.50331 c -2.27635,-1.89977 -2.4053,-1.47846 -2.4053,-4.20928 l 6.01326,-7.51657 c -2.20486,-4.8729 -4.40972,-7.15295 -6.61458,-7.21591 -3.35227,-1.99416 -8.3319,-5.13839 -9.32056,-2.4053 -5.12908,0.78989 -9.546973,2.05391 -9.921869,6.01326 -3.287465,5.50472 1.868703,7.84307 4.509944,11.12452 z"
           id="path3"
           inkscape:label="neck" />
      </g>
      <path
         style="opacity:1;fill:#f6a387;fill-opacity:1;stroke-width:0.014;stroke-dasharray:none;paint-order:fill markers stroke;filter:url(#filter44)"
         d="m 99.979925,146.06472 15.913185,-1.99607 -1.04381,2.51671 2.31656,3.15197 -8.88194,2.72113 -9.263992,-0.21842 -1.499424,-1.46464 z"
         id="path44"
         inkscape:label="neck_shad" />
    </g>
  </g>
  <g
     id="chibi_leg_l"
     data-pivot-x="93.81"
     data-pivot-y="205.23"
     inkscape:label="leg.l"
     style="display:inline"
     inkscape:transform-center-x="5.6751807"
     inkscape:transform-center-y="25.812624"
     transform="rotate(8.406694,93.840174,203.79928)">
    <g
       id="g51"
       clip-path="url(#clipPath51)">
      <g
         inkscape:label="Clip"
         id="g50">
        <g
           id="chibi_feet_l"
           inkscape:label="feet.l"
           style="display:inline"
           inkscape:transform-center-x="4.8022252"
           inkscape:transform-center-y="5.0379731"
           transform="rotate(-4.1908926,94.107901,243.1474)">
          <path
             style="opacity:1;fill:#1a1a1a;fill-opacity:0.996078;stroke-width:0.264583"
             d="m 85.776124,240.79706 -0.467574,4.4957 c 0,0 -8.027651,4.86348 -9.058607,8.99106 -0.514618,2.06035 0.265896,4.7075 1.880372,6.08712 9.368579,5.66645 24.030265,-0.70445 24.192485,-3.31511 0,0 2.74567,-8.53111 0.7461,-12.00711 -9.568246,-16.63335 -11.627314,-10.66485 -17.292776,-4.25166 z"
             id="path13"
             inkscape:label="feet.l" />
        </g>
      </g>
      <path
         style="display:inline;opacity:1;fill:#0b0b0b;fill-opacity:0.996078;stroke-width:0.014;stroke-dasharray:none;paint-order:fill markers stroke;filter:url(#filter51)"
         d="m 92.231513,246.69601 5.589789,-2.60857 -0.55898,13.97447 -11.924882,3.91285 c 3.417155,-3.97379 6.868354,-7.91353 6.894073,-15.27875 z"
         id="path49"
         transform="rotate(-8.406694,93.840245,203.79923)"
         sodipodi:nodetypes="ccccc"
         inkscape:label="feet.l_shad" />
    </g>
    <path
       style="opacity:1;fill:#f7c3a3;fill-opacity:0.996078;stroke-width:0.264583"
       d="m 82.392533,201.11927 c -4.122222,5.17302 -2.145278,19.83941 -2.145278,19.83941 2.726152,36.74484 22.141965,25.01052 23.107275,21.39444 2.66742,-9.99241 1.79869,-6.43645 4.55118,-20.13514 0,0 1.60722,-6.4097 1.22235,-9.61873 -0.33243,-2.77196 -0.98129,-5.88509 -2.9906,-7.82337 -4.26545,-4.11468 -10.906476,-5.44506 -16.825385,-5.74707 -3.083379,-0.15734 -4.995473,-0.32405 -6.919542,2.09046 z"
       id="path7"
       inkscape:label="leg.l" />
  </g>
  <g
     id="chibi_leg_r"
     data-pivot-x="122.01"
     data-pivot-y="209.69"
     inkscape:label="leg.r"
     style="display:inline"
     inkscape:transform-center-x="-8.7674192"
     inkscape:transform-center-y="22.213838"
     transform="rotate(-12.371986,122.84201,206.90602)">
    <g
       id="g53"
       clip-path="url(#clipPath53)">
      <g
         inkscape:label="Clip"
         id="g52">
        <g
           id="chibi_feet_r"
           style="display:inline"
           inkscape:label="feet.r">
          <path
             style="opacity:1;fill:#1a1a1a;fill-opacity:0.996078;stroke-width:0.264583"
             d="m 130.44243,240.27243 1.93318,7.00394 c 0,0 6.93702,6.32254 7.15129,10.57151 0.10695,2.12095 -1.17024,4.56747 -3.02076,5.60926 -10.28668,3.7501 -23.44155,-5.33318 -23.09651,-7.92571 0,0 -0.55278,-8.53379 1.58724,-11.92511 6.89753,-8.78661 13.06196,-11.96973 15.44556,-3.33389 z"
             id="path14"
             inkscape:label="feet.r"
             inkscape:transform-center-x="-5.4163317"
             inkscape:transform-center-y="5.6966418" />
        </g>
      </g>
      <path
         style="display:inline;opacity:1;fill:#0b0b0b;fill-opacity:0.996078;stroke-width:0.014;stroke-dasharray:none;paint-order:fill markers stroke;filter:url(#filter51)"
         d="m 91.299882,246.69601 6.52142,-2.60857 -0.372654,14.9061 -13.601818,2.98122 c 4.16246,-4.53277 7.427333,-7.91353 7.453052,-15.27875 z"
         id="path51"
         transform="matrix(-0.97677715,-0.21425777,-0.21425777,0.97677715,261.9607,24.642979)"
         sodipodi:nodetypes="ccccc"
         inkscape:label="feet.l_shad" />
    </g>
    <path
       style="display:inline;opacity:1;fill:#f7c3a3;fill-opacity:0.996078;stroke-width:0.256116"
       d="m 134.95748,203.03218 c 3.9782,5.0572 1.66385,17.7684 1.66385,17.7684 0.73543,34.11284 -20.63752,24.93086 -21.64754,21.40881 -2.80816,-9.79254 -1.78994,-6.33327 -4.57889,-19.82556 0,0 -1.60795,-6.30921 -1.28432,-9.48257 0.27955,-2.74112 0.85489,-5.82298 2.73626,-7.76154 3.99386,-4.11526 10.27772,-5.51045 15.88975,-5.88138 2.92352,-0.19323 5.36405,1.41337 7.22089,3.77384 z"
       id="path12"
       inkscape:label="leg.r" />
  </g>
  <g
     id="chibi_hip"
     inkscape:label="hip"
     style="display:inline;fill:#999999">
    <path
       style="opacity:1;fill:#000000;fill-opacity:0;stroke-width:0.264583"
       d="m 81.552592,195.4095 c -2.549209,5.97392 -4.14752,19.76733 -1.880582,25.36435 2.621428,6.47225 16.890434,2.13834 28.56663,0.51403 11.24807,2.56328 28.26086,5.75535 29.11194,0.71425 1.27627,-7.55954 0.11572,-17.94976 -0.54655,-26.05276 -0.0918,-2.06452 -5.44676,-2.64458 -13.21195,-3.4209 -8.95598,-0.89537 -20.64429,-0.85426 -29.509776,0.30447 -6.782066,0.88643 -11.555507,0.29357 -12.529712,2.57656 z"
       id="path15"
       inkscape:label="hip" />
  </g>
  <g
     id="chibi_arm_l"
     data-pivot-x="88.86"
     data-pivot-y="162.18"
     inkscape:label="arm.l"
     style="display:inline"
     inkscape:transform-center-x="18.135602"
     inkscape:transform-center-y="22.30045"
     transform="rotate(10.56429,87.567433,159.92551)">
    <path
       style="opacity:1;fill:#f7c3a3;fill-opacity:0.996078;stroke-width:0.264583"
       d="m 63.531152,192.03025 c 2.551854,-7.12083 6.0659,-13.73905 9.065487,-20.59677 12.395904,-29.27693 29.017021,-17.86698 17.308456,-8.44313 -2.387002,1.92121 -6.057362,8.49736 -13.186921,31.66646 -3.007145,9.05979 -14.138043,11.24341 -13.187022,-2.62656 z"
       id="path5"
       inkscape:label="arm.l" />
    <g
       id="chibi_hand_l"
       inkscape:label="hand.l"
       style="display:inline"
       inkscape:transform-center-x="1.2053433"
       inkscape:transform-center-y="4.1963104"
       transform="rotate(0.06039044,69.015698,196.54807)">
      <g
         id="g46"
         clip-path="url(#clipPath46)">
        <g
           inkscape:label="Clip"
           id="g45">
          <path
             style="display:inline;opacity:1;fill:#000080;fill-opacity:0.996078;stroke-width:0.283909"
             d="m 63.777071,189.38052 c -3.799917,2.59326 -4.602294,12.61151 -4.602294,12.61151 -0.537557,4.85004 0.0027,9.60133 3.961469,12.09993 2.196017,1.38603 4.447944,0.0697 6.732436,-2.8209 0,0 2.130902,-0.002 3.259462,-0.9483 1.74244,-1.46121 1.49459,-6.47026 1.49459,-6.47026 0,0 3.291498,-2.34038 3.648545,-4.09518 0.73481,-3.61134 -0.546732,-8.29914 -3.672083,-10.42777 -2.926227,-1.99298 -7.879273,-1.95736 -10.822125,0.051 z"
             id="path9"
             inkscape:label="hand.l" />
        </g>
        <path
           id="path47"
           style="opacity:1;fill:#01014e;fill-opacity:1;stroke-width:0.014;stroke-dasharray:none;paint-order:fill markers stroke;filter:url(#filter47)"
           d="m 60.10262,194.56624 c 0,0 5.410281,3.33851 8.470317,3.71918 3.205544,0.39878 9.557214,-1.60327 9.557214,-1.60327 l 0.857781,-7.55439 -13.140314,-4.35974 z m 2.908984,19.54939 c 2.12285,-0.75609 3.628093,-2.98033 5.676822,-4.09814 1.165535,-0.63593 2.90316,-0.39823 3.708356,-1.45395 1.179719,-1.54676 -1.104158,-4.89768 0.617572,-5.80315 1.978836,-1.04067 5.871316,-5.0825 5.871316,-5.0825 l -2.895226,6.79913 -2.231402,6.29546 -4.864227,3.37698 -3.902848,2.43833 c 0,0 -2.122537,-1.42593 -1.980363,-2.47216 z"
           inkscape:label="arm.l_shad" />
      </g>
    </g>
  </g>
  <g
     id="chibi_arm_r"
     data-pivot-x="134.46"
     data-pivot-y="169.00"
     inkscape:label="arm.r"
     style="display:inline"
     inkscape:transform-center-x="-15.936357"
     inkscape:transform-center-y="25.137869"
     transform="rotate(-2.4814329,125.5616,156.08834)">
    <path
       style="display:inline;opacity:1;fill:#f7c3a3;fill-opacity:0.996078;stroke-width:0.264583"
       d="m 155.88336,191.1523 c -2.7331,-7.05325 -6.41521,-13.57946 -9.58917,-20.35824 -13.14044,-28.95042 -29.46437,-17.1192 -17.51868,-7.99782 2.43534,1.85956 6.27265,8.3397 13.9923,31.31894 3.23781,8.97993 14.4209,10.87823 13.11555,-2.96288 z"
       id="path16"
       inkscape:label="arm.r" />
    <g
       id="g49"
       clip-path="url(#clipPath49)">
      <g
         inkscape:label="Clip"
         id="g48">
        <g
           id="chibi_hand_r"
           inkscape:label="hand.r"
           style="display:inline"
           inkscape:transform-center-x="-0.46225257"
           inkscape:transform-center-y="4.0523095"
           transform="rotate(-9.5844324,150.56363,196.4378)">
          <path
             style="display:inline;opacity:1;fill:#000080;fill-opacity:0.996078;stroke-width:0.283909"
             d="m 156.30585,188.3336 c 3.35129,3.15169 2.5888,13.17305 2.5888,13.17305 -0.22184,4.8747 -1.49315,9.48452 -5.79175,11.33831 -2.38455,1.02834 -4.40484,-0.62159 -6.21293,-3.83179 0,0 -2.10478,-0.33264 -3.07274,-1.44278 -1.4945,-1.71398 -0.47209,-6.62383 -0.47209,-6.62383 0,0 -2.88829,-2.82296 -2.96861,-4.61191 -0.16531,-3.68163 1.82839,-8.11367 5.24629,-9.73134 3.20013,-1.51458 8.0876,-0.71052 10.68303,1.73029 z"
             id="path17"
             inkscape:label="hand.r" />
        </g>
      </g>
      <path
         id="path48"
         style="display:inline;opacity:1;fill:#01014e;fill-opacity:1;stroke-width:0.014;stroke-dasharray:none;paint-order:fill markers stroke;filter:url(#filter47)"
         transform="matrix(-0.98991702,0.14164847,0.14164847,0.98991702,277.22943,-7.522988)"
         d="m 146.33503,180.2856 c 0,0 5.41028,3.33851 8.47031,3.71918 3.20555,0.39878 9.55722,-1.60327 9.55722,-1.60327 l 0.85778,-7.55439 -13.14031,-4.35974 z m 3.08976,19.70508 c 2.12285,-0.75609 3.62809,-2.98033 5.67682,-4.09814 1.16554,-0.63593 2.90316,-0.39824 3.70836,-1.45395 1.17972,-1.54676 -1.10416,-4.89768 0.61757,-5.80315 1.97884,-1.04068 5.87132,-5.0825 5.87132,-5.0825 l -2.89523,6.79913 -2.2314,6.29546 -4.86423,3.37698 -3.90285,2.43833 c 0,0 -2.12253,-1.42593 -1.98036,-2.47216 z"
         inkscape:label="arm.r_shad" />
    </g>
  </g>
</svg>
