<?xml version="1.0" encoding="UTF-8" standalone="no"?>
<!-- Created with Inkscape (http://www.inkscape.org/) -->

<svg
   width="210mm"
   height="297mm"
   viewBox="0 0 210 297"
   version="1.1"
   id="svg1"
   inkscape:export-filename="stick man.svg"
   inkscape:export-xdpi="96"
   inkscape:export-ydpi="96"
   xml:space="preserve"
   inkscape:version="1.4.3 (0d15f75, 2025-12-25)"
   sodipodi:docname="Manequin16.svg"
   xmlns:inkscape="http://www.inkscape.org/namespaces/inkscape"
   xmlns:sodipodi="http://sodipodi.sourceforge.net/DTD/sodipodi-0.dtd"
   xmlns="http://www.w3.org/2000/svg"
   xmlns:svg="http://www.w3.org/2000/svg"><sodipodi:namedview
     id="namedview1"
     pagecolor="#ffffff"
     bordercolor="#000000"
     borderopacity="0.25"
     inkscape:showpageshadow="2"
     inkscape:pageopacity="0.0"
     inkscape:pagecheckerboard="0"
     inkscape:deskcolor="#d1d1d1"
     inkscape:document-units="mm"
     inkscape:zoom="0.77"
     inkscape:cx="308.44156"
     inkscape:cy="670.77922"
     inkscape:window-width="1366"
     inkscape:window-height="697"
     inkscape:window-x="-8"
     inkscape:window-y="-8"
     inkscape:window-maximized="1"
     inkscape:current-layer="layer2" /><defs
     id="defs1"><inkscape:path-effect
       effect="spiro"
       id="path-effect21"
       is_visible="true"
       lpeversion="1" /><inkscape:path-effect
       effect="spiro"
       id="path-effect20"
       is_visible="true"
       lpeversion="1" /><inkscape:path-effect
       effect="spiro"
       id="path-effect17"
       is_visible="true"
       lpeversion="1" /></defs><g
     inkscape:groupmode="layer"
     id="layer2"
     inkscape:label="Manequin"><path
       id="path5"
       style="display:inline;fill:#ff0000"
       inkscape:label="right foot"
       d="m 126.80311,247.74663 c -0.52145,-0.0161 -1.05905,0.1008 -1.57561,0.37363 -1.1833,0.62494 -1.74197,2.00651 -1.70377,3.3786 l -0.12609,0.0987 0.10232,0.80047 a 1.2095238,5.8964286 0 0 0 -0.86093,2.78226 c -0.15799,0.90608 -0.21402,1.71316 -0.16795,2.41897 a 1.2095238,5.8964286 0 0 0 -0.007,0.63407 1.2095238,5.8964286 0 0 0 0.0305,1.31258 l -0.0615,-0.0656 v 1.11362 c 0,1.00112 0.24658,2.07686 0.58136,2.57917 a 1.2095238,5.8964286 0 0 0 0.6599,0.95653 1.2095238,5.8964286 0 0 0 0.23513,-0.11213 l -0.10542,1.89342 0.0419,-0.0367 c -0.0129,0.12219 -0.0191,0.24636 -0.0191,0.37207 0,0.17057 0.0122,0.33843 0.0357,0.5023 7.7e-4,0.10798 0.0151,0.2346 0.0372,0.39584 0.10139,0.73972 0.34258,1.45695 0.68213,2.09444 0.16804,0.17713 0.33329,0.35708 0.50126,0.53434 0.22205,0.26415 0.46544,0.50828 0.70074,0.76016 0.15742,0.1764 0.32636,0.33249 0.50694,0.48317 0.16324,0.12508 0.35595,0.20212 0.53847,0.29352 0.2764,0.12847 0.57663,0.20269 0.87127,0.28009 0.32034,0.094 0.1647,0.0485 0.46612,0.13694 0.034,0.01 0.0668,0.0204 0.0987,0.0315 1.04576,0.0872 2.36632,0.0279 3.41995,-0.18035 v -5.2e-4 c 1.22011,-0.24122 2.60761,-0.84637 3.3972,-1.43557 0.064,-0.0591 0.12803,-0.11786 0.19276,-0.17622 0.0764,-0.084 0.15738,-0.16219 0.23978,-0.24029 0.0243,-0.0231 0.0486,-0.0453 0.0729,-0.0661 0.007,-0.01 0.0138,-0.0189 0.0202,-0.0284 0.40866,-0.60921 0.46977,-1.8459 0.14521,-2.92747 -0.0408,-0.13601 -0.0833,-0.24954 -0.13539,-0.34934 0.001,-0.0358 0.002,-0.0719 0.002,-0.108 0,-0.98366 -0.40455,-1.86925 -1.05678,-2.50062 -0.11603,-0.24368 -0.24151,-0.50311 -0.37311,-0.77101 -1.83249,-3.73046 -2.43224,-5.47416 -3.20497,-9.31571 -0.30344,-1.50855 -0.51143,-2.25167 -0.93328,-2.69493 -0.002,-0.0167 -0.004,-0.0334 -0.007,-0.0501 -0.25673,-1.8666 -1.67445,-3.11826 -3.23908,-3.16725 z" /><path
       id="path13"
       style="display:inline;fill:#ff0000"
       inkscape:label="left foot"
       d="m 101.65542,245.62997 c 0.52144,-0.0161 1.05904,0.1008 1.5756,0.37363 1.1833,0.62494 1.74197,2.00651 1.70377,3.3786 l 0.12609,0.0987 -0.10232,0.80047 a 1.2095238,5.8964286 0 0 1 0.86093,2.78226 c 0.15799,0.90608 0.21402,1.71316 0.16795,2.41897 a 1.2095238,5.8964286 0 0 1 0.007,0.63407 1.2095238,5.8964286 0 0 1 -0.0305,1.31258 l 0.0615,-0.0656 v 1.11362 c 0,1.00112 -0.24658,2.07686 -0.58136,2.57917 a 1.2095238,5.8964286 0 0 1 -0.6599,0.95653 1.2095238,5.8964286 0 0 1 -0.23513,-0.11213 l 0.10542,1.89342 -0.0419,-0.0367 c 0.0129,0.12219 0.0191,0.24636 0.0191,0.37207 0,0.17057 -0.0122,0.33843 -0.0357,0.5023 -7.7e-4,0.10798 -0.0151,0.2346 -0.0372,0.39584 -0.10139,0.73972 -0.34258,1.45695 -0.68213,2.09444 -0.16804,0.17713 -0.33329,0.35708 -0.50126,0.53434 -0.22205,0.26415 -0.46544,0.50828 -0.70074,0.76016 -0.15742,0.1764 -0.32636,0.33249 -0.50694,0.48317 -0.16324,0.12508 -0.35594,0.20212 -0.53846,0.29352 -0.2764,0.12847 -0.57663,0.20269 -0.87127,0.28009 -0.32034,0.094 -0.1647,0.0485 -0.46612,0.13694 -0.034,0.01 -0.0668,0.0204 -0.0987,0.0315 -1.045762,0.0872 -2.366322,0.0279 -3.419952,-0.18035 v -5.2e-4 c -1.22011,-0.24122 -2.60761,-0.84637 -3.3972,-1.43557 -0.064,-0.0591 -0.12803,-0.11786 -0.19276,-0.17622 -0.0764,-0.084 -0.15738,-0.16219 -0.23978,-0.24029 -0.0243,-0.0231 -0.0486,-0.0453 -0.0729,-0.0661 -0.007,-0.01 -0.0138,-0.0189 -0.0202,-0.0284 -0.40866,-0.60921 -0.46977,-1.8459 -0.14521,-2.92747 0.0408,-0.13601 0.0833,-0.24954 0.13539,-0.34934 -10e-4,-0.0358 -0.002,-0.0719 -0.002,-0.108 0,-0.98366 0.40455,-1.86925 1.05678,-2.50062 0.11603,-0.24368 0.24151,-0.50311 0.37311,-0.77101 1.83249,-3.73046 2.43224,-5.47416 3.20497,-9.31571 0.30344,-1.50855 0.51143,-2.25167 0.93328,-2.69493 0.002,-0.0167 0.004,-0.0334 0.007,-0.0501 0.25673,-1.8666 1.674452,-3.11826 3.239082,-3.16725 z" /><path
       id="path7"
       style="fill:#000000;stroke-width:1.07283"
       inkscape:label="right lower leg"
       d="m 123.64955,215.72278 c -2.95639,-1.27999 -3.99421,-5.62668 -2.11339,-8.85147 0.91421,-1.56747 2.90232,-2.43361 4.797,-2.08986 1.79866,0.32632 2.89756,1.2574 3.66569,3.10589 1.03711,2.49573 0.37919,5.77171 -1.46166,7.27809 -1.2718,1.04073 -3.25011,1.26632 -4.88764,0.55735 z m 1.40657,35.69797 c -1.27798,-0.57866 -2.00506,-1.88051 -2.00506,-3.59015 0,-2.20994 1.28893,-3.65142 3.27312,-3.66049 1.86894,-0.008 3.3291,1.61329 3.33738,3.70691 0.006,1.65899 -0.78769,3.08899 -2.01294,3.62416 -0.68972,0.30127 -1.82747,0.26597 -2.5925,-0.0804 z m -2.25126,-5.5087 c -0.34299,-5.12985 -0.91313,-8.95098 -2.37787,-15.93654 -0.50812,-2.4233 -1.00993,-5.00788 -1.11513,-5.74353 -0.3132,-2.19006 -0.24461,-6.17916 0.15287,-8.89065 0.43935,-2.99715 0.95438,-5.60793 1.15631,-5.86154 0.34503,-0.43335 1.01959,-0.223 1.61497,0.50358 0.79239,0.96701 1.91522,1.50369 3.13668,1.49926 1.50846,-0.005 2.57735,-0.62767 3.4482,-2.00719 0.42339,-0.67069 0.84518,-0.90638 1.34064,-0.74912 0.22551,0.0716 0.41104,0.53178 0.78137,1.93822 1.10811,4.20841 1.49187,6.39653 1.74299,9.93822 0.25076,3.53651 -0.0441,6.73409 -1.32043,14.32003 -0.91055,5.41187 -1.44218,8.96644 -1.64884,11.02443 -0.0913,0.90873 -0.20459,1.94662 -0.25185,2.3064 l -0.0859,0.65417 -0.38692,-0.38692 c -1.3537,-1.35371 -3.86404,-1.31309 -5.17654,0.0838 -0.36655,0.39012 -0.50212,0.45225 -0.64415,0.29522 -0.10362,-0.11456 -0.25896,-1.38136 -0.36636,-2.98779 z" /><path
       id="path3"
       style="fill:#000000;stroke-width:1.07283"
       inkscape:label="left lower leg"
       d="m 104.27465,213.89101 c 2.94473,-1.30656 3.94328,-5.66249 2.03344,-8.87015 -0.92832,-1.55916 -2.92416,-2.40733 -4.81567,-2.0465 -1.795638,0.34254 -2.886103,1.28348 -3.637518,3.13883 -1.014546,2.50499 -0.327138,5.77491 1.527273,7.26461 1.281135,1.02923 3.261415,1.23695 4.892475,0.51321 z m -1.0844,35.70923 c 1.27272,-0.59014 1.98799,-1.89855 1.97258,-3.60809 -0.0199,-2.20987 -1.32181,-3.63964 -3.30601,-3.63082 -1.868945,0.009 -3.314416,1.64328 -3.303801,3.73688 0.0089,1.65896 0.815537,3.08178 2.045561,3.60585 0.69241,0.29503 1.82979,0.24946 2.59165,-0.10379 z m 2.20148,-5.52879 c 0.29668,-5.13274 0.83231,-8.95887 2.23397,-15.95735 0.48623,-2.42777 0.96469,-5.01678 1.06325,-5.75337 0.29343,-2.19279 0.18881,-6.18112 -0.2331,-8.8889 -0.46636,-2.99306 -1.00493,-5.59909 -1.20914,-5.85086 -0.34892,-0.43024 -1.02157,-0.21379 -1.61038,0.51809 -0.78363,0.97412 -1.90156,1.52092 -3.12302,1.52751 -1.50844,0.009 -2.582906,-0.60439 -3.466181,-1.97599 -0.429442,-0.66683 -0.853318,-0.89872 -1.34734,-0.737 -0.224864,0.0736 -0.406238,0.53547 -0.763851,1.94519 -1.070088,4.21825 -1.434089,6.40974 -1.65324,9.95355 -0.218856,3.53863 0.104854,6.73342 1.449599,14.30754 0.959333,5.40342 1.523014,8.95305 1.748242,11.0091 0.09953,0.90785 0.222106,1.9447 0.27261,2.30404 l 0.09181,0.65336 0.383432,-0.39037 c 1.341459,-1.36584 3.852019,-1.34794 5.177079,0.0369 0.37005,0.38679 0.50617,0.44768 0.64679,0.28938 0.10258,-0.11547 0.24649,-1.38365 0.33939,-2.99096 z" /><path
       id="path11"
       style="display:inline;fill:#000000;stroke-width:1.42159"
       inkscape:label="left upper leg"
       d="m 110.06875,182.18266 c 0.83984,-1.17619 1.67672,-3.70286 2.00845,-6.06392 0.39895,-2.83948 0.25331,-7.65893 -0.3077,-10.18228 -0.23132,-1.04042 -0.59769,-2.36092 -0.81416,-2.93444 -1.0769,-2.85331 -3.1267,-3.65345 -4.75751,-1.85708 -3.46641,3.8183 -3.35643,17.70434 0.16875,21.30729 0.70491,0.72046 0.98272,0.82593 1.94037,0.73668 0.92132,-0.0858 1.23084,-0.26263 1.7618,-1.00625 z m -3.01323,1.02568 c 1.71519,-1.56648 3.42434,-4.93158 4.10184,-8.07609 0.81478,-3.78173 0.51734,-10.20042 -0.62842,-13.56106 -0.47242,-1.38568 -1.22065,-3.14437 -1.66275,-3.90821 -2.19935,-3.80011 -6.38565,-4.86577 -9.716261,-2.47331 -7.07946,5.08532 -6.85484,23.57918 0.34464,28.37771 1.439641,0.95951 2.007011,1.09999 3.962831,0.98112 1.8816,-0.11443 2.51372,-0.34978 3.59812,-1.34016 z m -2.24557,26.33688 c 3.31787,-1.27999 4.48258,-5.62668 2.37179,-8.85147 -1.02598,-1.56747 -3.25716,-2.43361 -5.3835,-2.08986 -2.018581,0.32632 -3.251841,1.2574 -4.113891,3.10589 -1.1639,2.49573 -0.42555,5.77171 1.64038,7.27809 1.427291,1.04073 3.647491,1.26632 5.485221,0.55735 z m 2.95775,-3.14733 c 0.27009,-0.32544 1.34685,-6.4174 2.62104,-14.82894 0.22287,-1.47128 0.50943,-3.34776 0.63679,-4.16995 1.0231,-6.60424 1.44109,-12.73828 1.01951,-14.96126 -0.20843,-1.09901 -0.57418,-1.8178 -1.76875,-3.47598 -2.48555,-3.4502 -6.37754,-7.64712 -8.69314,-9.37422 -1.25189,-0.93372 -2.720911,-1.69777 -3.560751,-1.85198 -1.25833,-0.23105 -2.08595,0.81879 -2.86901,3.63939 -2.45479,8.84216 -2.1096,22.22393 1.02032,39.55383 0.63583,3.52051 0.84336,4.39077 1.11636,4.68136 0.48419,0.5154 0.79752,0.44744 1.72175,-0.37341 1.166121,-1.03567 2.013901,-1.38544 3.358121,-1.38544 1.49293,0 2.38956,0.42556 3.6425,1.72881 0.96118,0.99978 1.42491,1.21584 1.75526,0.81779 z" /><path
       id="path10"
       style="display:inline;fill:#000000;stroke-width:1.42159"
       inkscape:label="right upper leg"
       d="m 117.88549,182.36687 c -0.83984,-1.17619 -1.67672,-3.70286 -2.00845,-6.06392 -0.39895,-2.83948 -0.25331,-7.65893 0.3077,-10.18228 0.23132,-1.04042 0.59769,-2.36092 0.81416,-2.93444 1.0769,-2.85331 3.1267,-3.65345 4.75751,-1.85708 3.46641,3.8183 3.35643,17.70434 -0.16875,21.30729 -0.70491,0.72046 -0.98272,0.82593 -1.94037,0.73668 -0.92132,-0.0858 -1.23084,-0.26263 -1.7618,-1.00625 z m 3.01323,1.02568 c -1.71519,-1.56648 -3.42434,-4.93158 -4.10184,-8.07609 -0.81478,-3.78173 -0.51734,-10.20042 0.62842,-13.56106 0.47242,-1.38568 1.22065,-3.14437 1.66275,-3.90821 2.19935,-3.80011 6.38565,-4.86577 9.71625,-2.47331 7.07946,5.08532 6.85484,23.57918 -0.34464,28.37771 -1.43964,0.95951 -2.00701,1.09999 -3.96282,0.98112 -1.8816,-0.11443 -2.51372,-0.34978 -3.59812,-1.34016 z m 2.24557,26.33688 c -3.31787,-1.27999 -4.48258,-5.62668 -2.37179,-8.85147 1.02598,-1.56747 3.25716,-2.43361 5.3835,-2.08986 2.01857,0.32632 3.25183,1.2574 4.11388,3.10589 1.1639,2.49573 0.42555,5.77171 -1.64038,7.27809 -1.42729,1.04073 -3.64748,1.26632 -5.48521,0.55735 z m -2.95775,-3.14733 c -0.27009,-0.32544 -1.34685,-6.4174 -2.62104,-14.82894 -0.22287,-1.47128 -0.50943,-3.34776 -0.63679,-4.16995 -1.0231,-6.60424 -1.44109,-12.73828 -1.01951,-14.96126 0.20843,-1.09901 0.57418,-1.8178 1.76875,-3.47598 2.48555,-3.4502 6.37754,-7.64712 8.69313,-9.37422 1.25189,-0.93372 2.72091,-1.69777 3.56075,-1.85198 1.25833,-0.23105 2.08595,0.81879 2.86901,3.63939 2.45479,8.84216 2.1096,22.22393 -1.02032,39.55383 -0.63583,3.52051 -0.84336,4.39077 -1.11636,4.68136 -0.48419,0.5154 -0.79752,0.44744 -1.72175,-0.37341 -1.16612,-1.03567 -2.0139,-1.38544 -3.35811,-1.38544 -1.49293,0 -2.38956,0.42556 -3.6425,1.72881 -0.96118,0.99978 -1.42491,1.21584 -1.75526,0.81779 z" /><path
       id="rect62"
       style="fill:#333333;stroke-width:0.234555"
       d="m 106.64994,146.01082 h 15.67901 c 6.06223,0 10.94265,5.75452 10.94265,12.90252 0,7.148 -4.88042,12.90252 -10.94265,12.90252 h -15.67901 c -6.06222,0 -10.942635,-5.75452 -10.942635,-12.90252 0,-7.148 4.880415,-12.90252 10.942635,-12.90252 z"
       inkscape:label="hip" /><path
       id="path82"
       style="fill:#71ff00;fill-opacity:1;stroke-width:0.996168"
       inkscape:label="left forearm"
       d="m 86.737877,130.18765 a 3.9007637,4.4399289 0 0 0 -3.897437,4.26795 c -0.446853,1.35553 -1.083729,3.81542 -1.333252,5.26324 -0.550336,3.19327 -0.627176,4.80754 -0.655257,13.77953 -0.0087,2.77631 -0.01208,4.68213 -0.0036,5.97741 a 3.0461895,3.4813597 0 0 0 -0.306441,1.52187 3.0461895,3.4813597 0 0 0 3.046325,3.48144 3.0461895,3.4813597 0 0 0 3.046326,-3.48144 3.0461895,3.4813597 0 0 0 -0.223759,-1.30845 c 0.199696,-1.19812 0.498582,-2.77114 0.731222,-3.83181 0.28244,-1.28772 0.915232,-3.73421 1.406115,-5.43584 1.615985,-5.60178 2.109205,-8.52336 2.104785,-12.45867 -0.001,-1.2674 -0.01504,-2.03156 -0.08114,-2.51406 a 3.9007637,4.4399289 0 0 0 0.06718,-0.82062 3.9007637,4.4399289 0 0 0 -3.90105,-4.44055 z" /><path
       id="path44"
       style="fill:#ff00ff"
       inkscape:label="left palm"
       d="M 83.674996 157.81931 A 2.9591558 2.4369519 0 0 0 80.716003 160.25637 A 2.9591558 2.4369519 0 0 0 80.781632 160.76693 C 80.220892 162.48941 78.818962 169.32068 78.818962 170.40149 C 78.818962 170.4065 78.818931 170.41156 78.818962 170.41647 A 1.850354 1.5044934 0 0 0 78.717676 170.91101 A 1.850354 1.5044934 0 0 0 78.992594 171.69598 C 78.978081 171.78586 78.978663 171.93177 78.979675 172.15022 C 78.982675 172.79267 79.200671 174.57582 79.382751 175.44562 C 79.407974 175.56604 79.443496 175.65945 79.491272 175.72829 A 0.53885899 0.25854557 77.645373 0 0 79.525378 176.18459 A 0.53885899 0.25854557 77.645373 0 0 79.644234 176.43523 C 79.528241 176.79605 80.262028 178.74618 80.714453 179.42316 A 0.63984203 0.1210512 58.854048 0 0 80.949581 179.92907 A 0.63984203 0.1210512 58.854048 0 0 81.244137 180.32956 C 81.285468 180.4667 81.380928 180.67884 81.506136 180.90162 C 81.73018 181.30025 81.875014 181.47913 81.914897 181.46334 C 81.9152 181.46319 81.91564 181.463 81.91593 181.46283 L 81.916447 181.46283 L 81.916447 181.46231 C 81.916617 181.46221 81.917268 181.46188 81.91748 181.46179 L 81.917997 181.46179 C 81.950697 181.42899 81.870704 181.18532 81.651864 180.75641 C 81.560822 180.57795 81.468887 180.42472 81.393481 180.32026 A 0.63984203 0.1210512 58.854048 0 0 81.15577 179.80194 L 81.052417 179.86499 L 81.15422 179.79936 A 0.63984203 0.1210512 58.854048 0 0 81.044149 179.62935 C 81.109261 179.57087 81.074594 179.39841 80.936662 178.98597 C 80.813642 178.61815 80.616042 177.93112 80.497412 177.45894 C 80.37364 176.96631 80.184414 176.59182 80.000802 176.42592 A 0.53885899 0.25854557 77.645373 0 0 79.985815 175.90296 L 79.755339 176.043 L 79.985299 175.90037 A 0.53885899 0.25854557 77.645373 0 0 79.968762 175.8518 C 80.080273 175.79507 80.073091 175.62376 80.007003 175.13091 C 79.951903 174.71981 79.877935 173.82621 79.842155 173.14499 C 79.820734 172.73725 79.801966 172.46059 79.769808 172.26442 A 1.850354 1.5044934 0 0 0 80.23903 172.38741 C 80.236553 172.42123 80.235413 172.45901 80.235413 172.5011 C 80.235413 173.03958 80.544894 175.90692 80.629704 176.15359 C 80.639988 176.1835 80.667662 176.21184 80.708252 176.2373 A 0.67442811 0.44961873 75.03572 0 0 80.739775 176.55873 A 0.67442811 0.44961873 75.03572 0 0 80.907723 176.89773 C 80.880208 176.91302 80.864832 176.92967 80.864832 176.94734 C 80.864832 177.22958 81.626283 179.68718 81.820329 180.05206 A 0.91733347 0.29439449 64.557317 0 0 82.084395 180.76829 A 0.91733347 0.29439449 64.557317 0 0 82.298853 181.09644 C 82.383991 181.27903 82.493661 181.50581 82.613045 181.74446 C 83.581475 183.68036 84.060079 183.757 83.335999 181.86022 C 83.002632 180.98693 82.858006 180.70014 82.648702 180.62308 A 0.91733347 0.29439449 64.557317 0 0 82.477136 180.24326 L 82.280249 180.50474 L 82.475069 180.23913 A 0.91733347 0.29439449 64.557317 0 0 82.417708 180.13939 C 82.544829 180.0198 82.501238 179.61563 82.241492 178.42684 L 81.891125 176.82228 L 81.602771 176.82228 A 0.67442811 0.44961873 75.03572 0 0 81.61414 176.35048 L 81.733512 176.35048 L 81.618791 174.4307 C 81.555591 173.37504 81.468264 172.41952 81.425004 172.3068 C 81.418189 172.28906 81.405585 172.27196 81.388314 172.25564 A 1.850354 1.5044934 0 0 0 82.292135 171.45362 C 82.308891 171.45392 82.325192 171.45438 82.341227 171.45465 A 1.1514274 5.0466824 13.712707 0 0 82.31849 172.06495 C 82.015014 172.26811 82.005826 172.82364 82.075094 174.17645 L 82.169145 176.0151 L 82.228056 176.00838 A 0.88194442 1.4454089 0 0 0 82.379468 176.61248 C 82.393049 177.11239 82.764927 178.99764 82.991833 179.6278 C 83.000385 179.65153 83.016866 179.67153 83.040409 179.68826 A 1.3474151 0.68595678 75.382261 0 0 83.319462 180.31251 C 83.299064 180.32141 83.285992 180.32841 83.281738 180.33266 C 83.240338 180.37406 83.919933 182.25818 84.328703 183.23481 C 84.504743 183.65539 84.747763 183.6834 85.140023 183.32834 C 85.527063 182.97808 85.513743 182.01579 85.104883 180.80498 L 84.781905 179.84794 L 84.431539 179.95336 A 1.3474151 0.68595678 75.382261 0 0 84.390198 179.45571 C 84.549889 179.33867 84.556016 179.10961 84.455827 178.28679 C 84.384027 177.69759 84.268508 177.00584 84.198478 176.74942 C 84.127447 176.48943 84.083985 176.37507 83.912708 176.33342 A 0.88194442 1.4454089 0 0 0 83.98092 175.77635 L 83.78455 175.77635 C 83.790568 175.77442 83.796477 175.77258 83.80212 175.77067 L 83.98092 175.76912 A 0.88194442 1.4454089 0 0 0 83.967485 175.52417 C 84.022125 175.25627 84.077721 174.75514 84.108561 174.20952 C 84.166524 173.18403 84.133914 172.61973 83.922526 172.31351 A 1.1514274 5.0466824 13.712707 0 0 84.919881 169.56743 C 84.940664 169.51593 84.960586 169.46776 84.979309 169.42325 L 85.256295 168.76438 L 85.256812 168.76438 A 0.58796299 2.0059912 71.344022 0 0 86.309977 168.50599 A 0.58796299 2.0059912 71.344022 0 0 87.030347 168.21402 C 86.585823 168.62349 86.528199 168.95454 86.691866 169.69559 C 87.056165 171.34511 87.153029 171.63028 87.394666 171.5642 A 5.4188384 1.1216036 85.741064 0 0 87.459261 172.0541 C 87.30366 172.19757 87.296839 172.44132 87.350224 173.25868 C 87.424224 174.39128 87.880926 175.6061 88.295386 175.77273 C 88.710516 175.93963 89.163249 175.86894 89.387309 175.60272 C 89.574409 175.38037 89.600064 175.00786 89.519084 173.66692 C 89.518777 173.66184 89.51836 173.657 89.51805 173.65193 A 5.4188384 1.1216036 85.741064 0 0 89.512882 170.17153 L 89.191972 170.20718 C 89.191263 170.20051 89.190613 170.19374 89.189905 170.18703 L 89.510815 170.1431 A 5.4188384 1.1216036 85.741064 0 0 88.852974 166.24463 C 88.727563 165.29396 88.279908 163.89513 87.849935 163.03346 A 3.4052856 2.6703315 79.581119 0 0 87.804976 162.73735 A 3.4052856 2.6703315 79.581119 0 0 86.615385 160.53439 A 2.9591558 2.4369519 0 0 0 86.634505 160.25637 A 2.9591558 2.4369519 0 0 0 83.674996 157.81931 z M 85.233557 163.51457 L 85.234074 163.51457 L 85.304354 163.88715 A 1.1514274 5.0466824 13.712707 0 0 85.300736 163.88354 L 85.23304 163.5156 L 85.23304 163.51508 L 85.233557 163.51457 z M 87.231885 167.57272 A 5.4188384 1.1216036 85.741064 0 0 87.231885 167.57427 L 86.99469 167.65282 L 87.231885 167.57272 z M 83.956116 168.69616 L 84.046549 168.71632 C 84.046386 168.71701 84.046196 168.71769 84.046033 168.71838 L 83.956116 168.69616 z M 81.500452 176.35048 L 81.511304 176.35048 L 81.17334 176.44091 L 81.500452 176.35048 z " /><path
       id="path95"
       style="fill:#ddff00;fill-opacity:1;stroke-width:1.04931"
       inkscape:label="left upper arm"
       d="m 88.369805,104.31862 a 4.9250925,5.2692461 88.603006 0 0 -5.568937,4.64544 4.9250925,5.2692461 88.603006 0 0 0.100426,1.28731 c -0.08579,0.20808 -0.15906,0.45647 -0.233117,0.75398 -0.77402,3.10951 -0.968922,14.64882 -0.315173,18.65778 0.130142,0.79806 0.236891,1.3275 0.355365,1.62918 -0.108641,1.83092 0.61321,3.09212 2.189844,3.82719 1.014574,0.47303 1.914898,0.57345 3.086738,0.34306 2.080171,-0.40897 3.366996,-2.31375 3.412946,-4.25449 0.31412,-1.39255 0.83003,-4.3933 1.27105,-7.47463 0.44275,-3.09341 0.70142,-6.65747 0.66621,-9.17781 -0.0226,-1.61504 -0.14396,-2.56823 -0.49781,-3.2551 a 4.9250925,5.2692461 88.603006 0 0 0.48349,-1.79176 4.9250925,5.2692461 88.603006 0 0 -4.950978,-5.19015 z" /><path
       id="path60"
       style="fill:#71ff00;fill-opacity:1;stroke-width:0.996168"
       inkscape:label="right forearm"
       d="m 143.22665,124.6583 a 3.9007637,4.4399289 0 0 1 3.89744,4.26796 c 0.44685,1.35552 1.08373,3.81541 1.33325,5.26324 0.55034,3.19327 0.62718,4.80754 0.65526,13.77952 0.009,2.77631 0.0121,4.68214 0.004,5.97741 a 3.0461895,3.4813597 0 0 1 0.30644,1.52188 3.0461895,3.4813597 0 0 1 -3.04633,3.48144 3.0461895,3.4813597 0 0 1 -3.04632,-3.48144 3.0461895,3.4813597 0 0 1 0.22376,-1.30845 c -0.1997,-1.19812 -0.49859,-2.77114 -0.73123,-3.83181 -0.28244,-1.28772 -0.91523,-3.73421 -1.40611,-5.43584 -1.61599,-5.60178 -2.10921,-8.52337 -2.10479,-12.45867 0.001,-1.2674 0.015,-2.03157 0.0811,-2.51406 a 3.9007637,4.4399289 0 0 1 -0.0672,-0.82062 3.9007637,4.4399289 0 0 1 3.90105,-4.44056 z" /><path
       id="path14"
       style="fill:#ff00ff"
       inkscape:label="right palm"
       d="m 146.47933,155.75762 a 2.9591558,2.4369519 0 0 1 2.95899,2.43706 2.9591558,2.4369519 0 0 1 -0.0656,0.51056 c 0.56074,1.72248 1.96267,8.55375 1.96267,9.63456 0,0.005 3e-5,0.0101 0,0.015 a 1.850354,1.5044934 0 0 1 0.10129,0.49454 1.850354,1.5044934 0 0 1 -0.27492,0.78497 c 0.0145,0.0899 0.0139,0.23579 0.0129,0.45424 -0.003,0.64245 -0.221,2.4256 -0.40308,3.2954 -0.0252,0.12042 -0.0607,0.21383 -0.10852,0.28267 a 0.25854557,0.53885899 12.354627 0 1 -0.0341,0.4563 0.25854557,0.53885899 12.354627 0 1 -0.11885,0.25064 c 0.11599,0.36082 -0.6178,2.31095 -1.07022,2.98793 a 0.1210512,0.63984203 31.145952 0 1 -0.23513,0.50591 0.1210512,0.63984203 31.145952 0 1 -0.29456,0.40049 c -0.0413,0.13714 -0.13679,0.34928 -0.26199,0.57206 -0.22405,0.39863 -0.36888,0.57751 -0.40877,0.56172 -3e-4,-1.5e-4 -7.4e-4,-3.4e-4 -0.001,-5.1e-4 h -5.2e-4 v -5.2e-4 c -1.7e-4,-1e-4 -8.2e-4,-4.3e-4 -0.001,-5.2e-4 h -5.2e-4 c -0.0327,-0.0328 0.0473,-0.27647 0.26614,-0.70538 0.091,-0.17846 0.18297,-0.33169 0.25838,-0.43615 a 0.1210512,0.63984203 31.145952 0 1 0.23771,-0.51832 l 0.10335,0.063 -0.1018,-0.0656 a 0.1210512,0.63984203 31.145952 0 1 0.11007,-0.17001 c -0.0651,-0.0585 -0.0304,-0.23094 0.10749,-0.64338 0.12302,-0.36782 0.32062,-1.05485 0.43925,-1.52703 0.12377,-0.49263 0.313,-0.86712 0.49661,-1.03302 a 0.25854557,0.53885899 12.354627 0 1 0.015,-0.52296 l 0.23047,0.14004 -0.22996,-0.14263 a 0.25854557,0.53885899 12.354627 0 1 0.0165,-0.0486 c -0.11151,-0.0567 -0.10433,-0.22804 -0.0382,-0.72089 0.0551,-0.4111 0.12907,-1.3047 0.16485,-1.98592 0.0214,-0.40774 0.0402,-0.6844 0.0723,-0.88057 a 1.850354,1.5044934 0 0 1 -0.46922,0.12299 c 0.002,0.0338 0.004,0.0716 0.004,0.11369 0,0.53848 -0.30948,3.40582 -0.39429,3.65249 -0.0103,0.0299 -0.038,0.0583 -0.0786,0.0837 a 0.44961873,0.67442811 14.96428 0 1 -0.0315,0.32143 0.44961873,0.67442811 14.96428 0 1 -0.16795,0.339 c 0.0275,0.0153 0.0429,0.0319 0.0429,0.0496 0,0.28224 -0.76145,2.73984 -0.9555,3.10472 a 0.29439449,0.91733347 25.442683 0 1 -0.26406,0.71623 0.29439449,0.91733347 25.442683 0 1 -0.21446,0.32815 c -0.0851,0.18259 -0.19481,0.40937 -0.31419,0.64802 -0.96843,1.9359 -1.44704,2.01254 -0.72296,0.11576 0.33337,-0.87329 0.478,-1.16008 0.6873,-1.23714 a 0.29439449,0.91733347 25.442683 0 1 0.17157,-0.37982 l 0.19688,0.26148 -0.19482,-0.26561 a 0.29439449,0.91733347 25.442683 0 1 0.0574,-0.0997 c -0.12712,-0.11959 -0.0835,-0.52376 0.17622,-1.71255 l 0.35037,-1.60456 h 0.28835 a 0.44961873,0.67442811 14.96428 0 1 -0.0114,-0.4718 h -0.11937 l 0.11472,-1.91978 c 0.0632,-1.05566 0.15053,-2.01118 0.19379,-2.1239 0.007,-0.0177 0.0194,-0.0348 0.0367,-0.0512 a 1.850354,1.5044934 0 0 1 -0.90382,-0.80202 c -0.0168,3e-4 -0.0331,7.6e-4 -0.0491,0.001 a 5.0466824,1.1514274 76.287293 0 1 0.0227,0.6103 c 0.30348,0.20316 0.31267,0.75869 0.2434,2.1115 l -0.0941,1.83865 -0.0589,-0.007 a 0.88194442,1.4454089 0 0 1 -0.15142,0.6041 c -0.0136,0.49991 -0.38546,2.38516 -0.61236,3.01532 -0.009,0.0237 -0.025,0.0437 -0.0486,0.0605 a 0.68595678,1.3474151 14.617739 0 1 -0.27905,0.62425 c 0.0204,0.009 0.0335,0.0159 0.0377,0.0202 0.0414,0.0414 -0.63819,1.92552 -1.04696,2.90215 -0.17604,0.42058 -0.41906,0.44859 -0.81132,0.0935 -0.38704,-0.35026 -0.37372,-1.31255 0.0351,-2.52336 l 0.32298,-0.95704 0.35036,0.10542 a 0.68595678,1.3474151 14.617739 0 1 0.0413,-0.49765 c -0.15969,-0.11704 -0.16581,-0.3461 -0.0656,-1.16892 0.0718,-0.5892 0.18732,-1.28095 0.25735,-1.53737 0.071,-0.25999 0.1145,-0.37435 0.28577,-0.416 a 0.88194442,1.4454089 0 0 1 -0.0682,-0.55707 h 0.19637 c -0.006,-0.002 -0.0119,-0.004 -0.0176,-0.006 l -0.1788,-0.002 a 0.88194442,1.4454089 0 0 1 0.0134,-0.24495 c -0.0546,-0.2679 -0.11024,-0.76903 -0.14108,-1.31465 -0.058,-1.02549 -0.0254,-1.58979 0.18604,-1.89601 a 5.0466824,1.1514274 76.287293 0 1 -0.99736,-2.74608 c -0.0208,-0.0515 -0.0407,-0.0997 -0.0594,-0.14418 l -0.27698,-0.65887 h -5.2e-4 a 2.0059912,0.58796299 18.655978 0 1 -1.05317,-0.25839 2.0059912,0.58796299 18.655978 0 1 -0.72037,-0.29197 c 0.44453,0.40947 0.50215,0.74052 0.33849,1.48157 -0.3643,1.64952 -0.46117,1.93469 -0.7028,1.86861 a 1.1216036,5.4188384 4.258936 0 1 -0.0646,0.4899 c 0.1556,0.14347 0.16242,0.38722 0.10904,1.20458 -0.074,1.1326 -0.5307,2.34742 -0.94516,2.51405 -0.41513,0.1669 -0.86787,0.0962 -1.09193,-0.17001 -0.1871,-0.22235 -0.21275,-0.59486 -0.13177,-1.9358 3e-4,-0.005 7.2e-4,-0.01 0.001,-0.015 a 1.1216036,5.4188384 4.258936 0 1 0.005,-3.4804 l 0.32091,0.0357 c 7.1e-4,-0.007 0.001,-0.0134 0.002,-0.0202 l -0.32091,-0.0439 a 1.1216036,5.4188384 4.258936 0 1 0.65784,-3.89847 c 0.12541,-0.95067 0.57306,-2.3495 1.00304,-3.21117 a 2.6703315,3.4052856 10.418881 0 1 0.045,-0.29611 2.6703315,3.4052856 10.418881 0 1 1.18959,-2.20296 2.9591558,2.4369519 0 0 1 -0.0191,-0.27802 2.9591558,2.4369519 0 0 1 2.95951,-2.43706 z m -1.55857,5.69526 h -5.1e-4 l -0.0703,0.37258 a 5.0466824,1.1514274 76.287293 0 1 0.004,-0.004 l 0.0677,-0.36794 v -5.2e-4 z m -1.99832,4.05815 a 1.1216036,5.4188384 4.258936 0 1 0,0.002 l 0.23719,0.0786 z m 3.27577,1.12344 -0.0904,0.0202 c 1.7e-4,6.9e-4 3.6e-4,10e-4 5.2e-4,0.002 z m 2.45566,7.65432 h -0.0108 l 0.33796,0.0904 z" /><path
       id="path59"
       style="fill:#ddff00;fill-opacity:1;stroke-width:1.04931"
       inkscape:label="right upper arm"
       d="m 137.71891,98.813872 a 4.9250925,5.2692461 85.011888 0 1 6.05101,3.997308 4.9250925,5.2692461 85.011888 0 1 0.0434,1.29048 c 0.10841,0.19725 0.20884,0.43595 0.31552,0.72338 1.11503,3.00415 2.59202,14.4502 2.38817,18.50699 -0.0406,0.80759 -0.0878,1.34562 -0.17199,1.6586 0.31159,1.80748 -0.26553,3.14114 -1.75063,4.04699 -0.95568,0.58292 -1.83925,0.78284 -3.02944,0.6842 -2.11275,-0.1751 -3.60343,-1.92495 -3.86492,-3.84854 -0.46704,-1.34898 -1.31347,-4.27373 -2.09443,-7.28691 -0.78402,-3.02498 -1.43745,-6.53817 -1.68274,-9.04679 -0.15715,-1.60753 -0.14255,-2.56831 0.13272,-3.29027 a 4.9250925,5.2692461 85.011888 0 1 -0.67976,-1.72687 4.9250925,5.2692461 85.011888 0 1 4.34307,-5.708559 z" /><path
       id="path55"
       style="fill:#000000;stroke-width:0.264583"
       d="m 114.80408,90.911422 a 12.234493,3.580827 0 0 0 -12.20236,3.32176 c -0.26034,0.0823 -0.53502,0.16799 -0.82786,0.2589 l -1.986443,0.61702 a 4.0781641,2.6856203 0 0 0 -5.1e-4,0 4.0781641,2.6856203 0 0 0 -0.50023,-0.0202 4.0781641,2.6856203 0 0 0 -0.6873,0.0382 h -5.2e-4 l -0.008,-0.0382 -0.22117,0.0687 h -0.001 a 4.0781641,2.6856203 0 0 0 -0.17363,0.0289 l -0.68058,-0.10335 c -1.31158,-0.19956 -4.31692,0.0158 -5.78725,0.41496 -4.989248,1.35456 -8.454779,5.313448 -8.454779,9.657808 0,1.05984 0.635146,3.29914 1.247986,4.40128 l 0.412378,0.74207 0.07183,-0.004 a 6.1669798,6.2664475 0 0 0 5.429125,3.29437 6.1669798,6.2664475 0 0 0 2.07584,-0.36535 c 0.55085,2.72114 1.76681,7.88842 2.32389,9.71517 0.38047,1.2476 1.03504,2.73149 1.75493,3.97909 0.63134,1.09414 1.25604,2.30267 1.38855,2.68562 0.26851,0.77602 0.59522,7.34857 0.60772,12.2344 0.005,1.81078 0.0612,3.1394 0.18965,4.16305 a 16.273232,9.5543976 0 0 0 -0.56121,2.48822 16.273232,9.5543976 0 0 0 16.272913,9.55445 16.273232,9.5543976 0 0 0 16.27343,-9.55445 16.273232,9.5543976 0 0 0 -0.17622,-1.4025 l -0.16382,-2.46393 -0.59686,-5.1723 -0.14107,-2.25671 c 0.0488,-0.58387 0.0925,-1.20651 0.1266,-1.82159 0.20906,-3.76583 0.36917,-4.64158 1.2883,-7.0497 0.28974,-0.75912 0.92253,-2.77351 1.40611,-4.47621 0.48358,-1.7027 1.42895,-4.79668 2.10117,-6.87555 0.62063,-1.91931 0.95457,-3.06427 1.13791,-3.99769 a 6.1669798,7.360589 0 0 0 0.44649,0.0191 6.1669798,7.360589 0 0 0 6.16706,-7.36027 6.1669798,7.360589 0 0 0 -0.0279,-0.70332 c 0.0185,-0.20394 0.0279,-0.39956 0.0279,-0.58343 0,-1.33745 -0.81476,-3.74616 -1.73736,-5.136118 -1.23007,-1.85318 -3.91936,-3.55931 -6.82801,-4.331 -0.71162,-0.1888 -2.56444,-0.40493 -4.16615,-0.48627 -1.27487,-0.0647 -2.02842,-0.11567 -2.63395,-0.21911 a 12.234493,3.580827 0 0 0 -12.18582,-3.26182 z"
       inkscape:label="torso" /><path
       id="rect61"
       style="fill:#ff7f2a;stroke-width:0.264583"
       d="m 113.47328,81.66153 h 1.37906 c 2.78483,0 5.02678,2.241941 5.02678,5.026774 v 5.298817 c 0,2.784833 -2.24195,5.026775 -5.02678,5.026775 h -1.37906 c -2.78484,0 -5.02678,-2.241942 -5.02678,-5.026775 v -5.298817 c 0,-2.784833 2.24194,-5.026774 5.02678,-5.026774 z"
       inkscape:label="neck" /><path
       id="path109"
       style="fill:#eb8849;fill-opacity:1;stroke-width:1.06655"
       inkscape:label="face"
       d="m 116.37154,91.243597 c 2.10151,-0.971677 4.21476,-3.12269 5.4001,-5.496549 1.05285,-2.108505 1.97295,-5.956334 2.36377,-9.885094 0.65256,-6.560141 -0.95404,-10.982271 -4.85954,-13.375732 -2.99519,-1.835581 -7.34589,-1.9425 -10.77922,-0.264901 -1.42251,0.695066 -3.3047,2.539378 -3.98925,3.908967 -1.81645,3.634151 -1.86209,8.686103 -0.13972,15.462435 0.93703,3.686578 2.18119,5.887868 4.45921,7.889645 2.65255,2.33089 5.08471,2.898652 7.54465,1.761229 z M 103.55516,80.529209 c -0.19746,-0.854258 -0.46611,-2.290789 -0.59702,-3.192289 -0.1309,-0.901499 -0.30915,-1.711688 -0.3961,-1.800421 -0.10185,-0.103901 -0.27961,-0.01273 -0.49937,0.256092 -0.29483,0.36061 -0.32327,0.558108 -0.20896,1.451102 0.16911,1.321051 0.93498,3.529459 1.50271,4.333086 0.24207,0.342652 0.46659,0.596594 0.49894,0.564316 0.0323,-0.03228 -0.10272,-0.757627 -0.3002,-1.611886 z m 21.15375,-0.220037 c 0.57159,-1.289697 1.11459,-3.759517 0.98077,-4.461046 -0.17926,-0.939673 -0.98945,-1.17407 -0.97079,-0.280862 0.0126,0.606144 -0.65594,4.847695 -0.89916,5.704119 -0.15228,0.536227 -0.1464,0.546811 0.15342,0.276004 0.17148,-0.154885 0.50258,-0.712081 0.73576,-1.238215 z" /></g></svg>
