<?xml version="1.0" encoding="UTF-8" standalone="no"?>
<svg
   width="210mm"
   height="297mm"
   viewBox="0 0 210 297"
   version="1.1"
   id="svg1"
   sodipodi:docname="Chibi_fixed_coloured_g.svg"
   inkscape:version="1.4.3 (0d15f75, 2025-12-25)"
   xmlns:inkscape="http://www.inkscape.org/namespaces/inkscape"
   xmlns:sodipodi="http://sodipodi.sourceforge.net/DTD/sodipodi-0.dtd"
   xmlns="http://www.w3.org/2000/svg"
   xmlns:svg="http://www.w3.org/2000/svg">
  <sodipodi:namedview
     id="namedview1"
     pagecolor="#ffffff"
     bordercolor="#000000"
     borderopacity="0.25"
     inkscape:showpageshadow="2"
     inkscape:pageopacity="0.0"
     inkscape:pagecheckerboard="0"
     inkscape:deskcolor="#d1d1d1"
     inkscape:document-units="mm"
     inkscape:zoom="0.4325"
     inkscape:cx="321.38728"
     inkscape:cy="456.6474"
     inkscape:window-width="1366"
     inkscape:window-height="697"
     inkscape:window-x="-8"
     inkscape:window-y="-8"
     inkscape:window-maximized="1"
     inkscape:current-layer="svg1" />
  <defs
     id="defs1">
    <inkscape:path-effect
       effect="spiro"
       id="path-effect32"
       is_visible="true"
       lpeversion="1" />
    <inkscape:path-effect
       effect="spiro"
       id="path-effect31"
       is_visible="true"
       lpeversion="1" />
    <inkscape:path-effect
       effect="spiro"
       id="path-effect30"
       is_visible="true"
       lpeversion="1" />
    <inkscape:path-effect
       effect="spiro"
       id="path-effect29"
       is_visible="true"
       lpeversion="1" />
    <filter
       inkscape:collect="always"
       style="color-interpolation-filters:sRGB"
       id="filter9"
       x="-0.0041667042"
       y="-0.0040037798"
       width="1.0083334"
       height="1.0080076">
      <feGaussianBlur
         inkscape:collect="always"
         stdDeviation="0.10037047"
         id="feGaussianBlur9" />
    </filter>
    <filter
       inkscape:collect="always"
       style="color-interpolation-filters:sRGB"
       id="filter10"
       x="-0.0025733609"
       y="-0.0074579516"
       width="1.0051467"
       height="1.0149159">
      <feGaussianBlur
         inkscape:collect="always"
         stdDeviation="0.16244209"
         id="feGaussianBlur10" />
    </filter>
    <filter
       inkscape:collect="always"
       style="color-interpolation-filters:sRGB"
       id="filter11"
       x="-0.0021572794"
       y="-0.0041673517"
       width="1.0043146"
       height="1.0083347">
      <feGaussianBlur
         inkscape:collect="always"
         stdDeviation="0.13846176"
         id="feGaussianBlur11" />
    </filter>
    <filter
       inkscape:collect="always"
       style="color-interpolation-filters:sRGB"
       id="filter12"
       x="-0.0010669113"
       y="-0.00086065269"
       width="1.0021338"
       height="1.0017213">
      <feGaussianBlur
         inkscape:collect="always"
         stdDeviation="0.016267378"
         id="feGaussianBlur12" />
    </filter>
    <filter
       inkscape:collect="always"
       style="color-interpolation-filters:sRGB"
       id="filter13"
       x="-0.0043841125"
       y="-0.0064035714"
       width="1.0087682"
       height="1.0128071">
      <feGaussianBlur
         inkscape:collect="always"
         stdDeviation="0.21277923"
         id="feGaussianBlur13" />
    </filter>
    <filter
       inkscape:collect="always"
       style="color-interpolation-filters:sRGB"
       id="filter14"
       x="-0.0015962548"
       y="-0.0034843101"
       width="1.0031925"
       height="1.0069686">
      <feGaussianBlur
         inkscape:collect="always"
         stdDeviation="0.012727962"
         id="feGaussianBlur14" />
    </filter>
    <filter
       inkscape:collect="always"
       style="color-interpolation-filters:sRGB"
       id="filter15"
       x="-0.0021824951"
       y="-0.0016463044"
       width="1.004365"
       height="1.0032926">
      <feGaussianBlur
         inkscape:collect="always"
         stdDeviation="0.011824602"
         id="feGaussianBlur15" />
    </filter>
    <filter
       inkscape:collect="always"
       style="color-interpolation-filters:sRGB"
       id="filter16"
       x="-0.0028452816"
       y="-0.0021533146"
       width="1.0056906"
       height="1.0043066">
      <feGaussianBlur
         inkscape:collect="always"
         stdDeviation="0.015137362"
         id="feGaussianBlur16" />
    </filter>
    <filter
       inkscape:collect="always"
       style="color-interpolation-filters:sRGB"
       id="filter17"
       x="-0.0031150665"
       y="-0.0020498534"
       width="1.0062301"
       height="1.0040997">
      <feGaussianBlur
         inkscape:collect="always"
         stdDeviation="0.022878862"
         id="feGaussianBlur17" />
    </filter>
    <filter
       inkscape:collect="always"
       style="color-interpolation-filters:sRGB"
       id="filter18"
       x="-0.0027721923"
       y="-0.0019237922"
       width="1.0055444"
       height="1.0038476">
      <feGaussianBlur
         inkscape:collect="always"
         stdDeviation="0.021012009"
         id="feGaussianBlur18" />
    </filter>
  </defs>
  <g
     id="chibi_head"
     data-pivot-x="106.70"
     data-pivot-y="76.50"
     inkscape:label="head"
     style="display:inline"
     transform="rotate(2.1916211,106.73532,76.515364)">
    <g
       id="g8"
       inkscape:label="face">
      <path
         style="display:inline;opacity:0.988701;fill:#f7c3a2;fill-opacity:1;stroke-width:0.264583"
         d="m 59.825504,88.939898 c -1.33351,5.793422 -2.950898,11.375252 1.961058,21.823942 l -6.730322,-8.30247 c -2.202086,-1.74589 -4.40131,-2.525534 -6.591601,-0.28778 -0.8564,4.43733 -1.854084,8.94581 -1.162687,12.6035 2.183313,7.27001 6.286614,10.67145 10.839034,13.16797 l 6.302884,2.08333 c 3.186463,6.80831 18.514081,12.93273 21.665978,13.74386 l 8.676465,1.76566 7.815727,0.27691 9.21036,-0.37099 10.88974,-1.19317 11.67582,-3.93128 c 8.2584,-3.94876 10.9803,-7.08986 13.76974,-10.24081 l 2.38976,-3.90776 c 3.20551,2.00402 6.40227,1.0551 9.59598,-0.92775 7.78617,-5.94719 6.76012,-7.90573 7.76798,-10.82305 0.55359,-3.40166 0.60248,-6.80181 -1.23019,-10.1964 l -3.61245,-5.09397 c -4.71986,0.04855 -4.28646,8.24064 -8.26656,11.93183 0.61948,-6.41423 1.29203,-12.094831 -1.05094,-18.500295 2.15847,-4.033116 0.0961,-10.764724 -3.37346,-22.787459 C 143.89051,58.908343 135.848,56.798748 127.83387,54.530425 117.10219,51.513923 106.3686,48.503211 93.309912,52.537281 86.095003,53.677305 79.163463,55.79812 73.552553,62.489858 63.72242,67.823185 65.029676,73.123536 62.50303,78.435238 Z"
         id="path1"
         inkscape:label="head"
         sodipodi:nodetypes="ccccccccccccccccccccccccccc" />
      <path
         id="path36"
         style="display:inline;opacity:1;fill:#f5a287;fill-opacity:0.992157;stroke-width:0.0147462;stroke-dasharray:none;paint-order:fill markers stroke;filter:url(#filter13)"
         inkscape:label="face_shad"
         d="m 164.49922,102.78275 c 2.83526,3.32719 2.4216,9.03164 0.67601,13.01366 -1.7925,4.08904 -6.01875,9.95359 -10.33418,8.62733 -3.21922,-0.98935 -2.90459,-6.31032 -2.68242,-9.62943 0.32625,-4.87381 5.78784,-13.48115 5.78784,-13.48115 0,0 5.10962,-0.22396 6.55275,1.46959 z M 110.87434,91.802157 c 0,0 7.59823,-7.099983 10.7844,-10.308552 2.47649,-2.493892 3.53765,-11.569805 3.97893,-8.083006 0.71408,5.642371 1.57988,11.580086 5.42462,14.266365 6.02623,4.210463 17.22638,6.092855 17.22638,6.092855 l 1.4708,-13.41769 -23.92885,-15.600045 -11.05714,12.482306 -8.52959,10.026175 z M 63.913038,111.42592 c 0,0 -0.461332,-14.461646 3.105112,-21.615576 1.258813,-2.525052 3.441804,7.732947 3.441804,7.732947 0,0 8.444905,-19.911181 13.123879,-26.979948 0.681618,-1.029756 0.383294,-3.684846 0.383294,-3.684846 L 70.351062,87.847705 66.13396,80.406584 60.864546,100.2699 Z m -11.516664,-6.3753 c -2.855259,3.01077 -2.783511,8.4753 -1.361563,12.37341 1.460164,4.00288 5.11324,9.83881 9.250879,8.82142 3.086604,-0.75895 3.086746,-5.85204 3.062428,-9.03049 -0.03571,-4.66726 -4.699269,-13.19009 -4.699269,-13.19009 0,0 -4.799154,-0.50673 -6.252475,1.02575 z m 65.213486,39.44917 c 6.2261,0.004 32.28056,-7.34953 32.88571,-17.51216 l 0.79795,-13.40047 1.73483,-16.320024 -3.214,11.919994 c 0,0 -0.9512,6.3075 -1.20999,9.4839 -0.19197,2.35632 0.0146,5.72998 -1.09613,7.81693 -7.12369,10.71459 -18.56293,13.77008 -29.89837,18.01183 z"
         sodipodi:nodetypes="cssscccssscccccccscscccccsssscscscccscc" />
      <path
         style="display:inline;opacity:1;fill:#fad1c4;fill-opacity:0.992157;stroke-width:0.014;stroke-dasharray:none;paint-order:fill markers stroke;filter:url(#filter12)"
         d="m 96.903601,144.86168 c -6.207587,0.47983 -30.438488,-5.97341 -31.796376,-15.89786 l -1.819779,-13.3003 -2.977053,-16.139694 4.115613,11.639494 c -0.240892,23.54466 7.081809,25.96421 32.477595,33.69836 z"
         id="path42"
         sodipodi:nodetypes="cscccc"
         inkscape:label="face_high" />
      <g
         id="g7"
         style="display:inline"
         inkscape:label="hair">
        <path
           style="display:inline;opacity:1;fill:#784421;fill-opacity:1;stroke-width:0.264583"
           d="m 43.596118,92.002839 c -0.984326,3.869944 -0.517993,8.578691 2.405303,17.137781 l 6.915245,-8.11789 c 4.153895,7.40448 8.297368,11.08272 12.456418,14.71603 -3.910762,-15.06545 -1.7677,-26.902637 1.07341,-34.25912 l 4.20928,12.026515 c 3.389383,-10.860124 8.266823,-18.744132 13.229167,-26.458334 0.969443,23.401941 9.249094,24.21451 13.830492,30.968276 L 94.708807,82.080964 c 0.61645,7.194937 7.402453,14.853451 16.837113,20.445076 0.63511,-2.25302 -1.40801,-11.616182 -0.60132,-16.83712 l 0.60133,3.307292 c 9.16286,-8.576019 14.28322,-16.478286 13.83049,-23.451706 0.946,12.419302 11.89292,22.522126 22.85037,26.758997 l -0.30065,-11.425191 c 1.77727,13.56104 2.64549,27.914428 -0.30067,35.177558 0,0 9.37341,-5.9995 12.32717,-10.5232 4.17761,-6.398033 6.61459,-21.948392 6.61459,-21.948392 l -3.30729,14.732482 c 0.0735,4.80062 2.48543,5.54861 4.81061,7.81723 2.8593,2.78974 13.3681,4.23569 12.62783,2.70597 -10.4821,-8.934707 -6.89145,-13.468539 -9.01988,-24.955019 0,0 3.08278,-0.814651 4.50995,-1.503313 4.63803,-2.238023 7.81723,-7.817235 7.81723,-7.817235 -4.00842,-1.003466 -8.07412,-1.835085 -10.5232,-7.516572 l -4.50995,-15.63447 c -0.84397,-4.309501 -2.12091,-8.619002 -6.91524,-12.928503 -2.60389,-2.726754 -5.20902,-5.453007 -11.72586,-6.614582 l 11.72586,-3.307293 -8.41856,-4.20928 c -4.49551,-1.460014 -7.92782,0.269574 -10.82387,3.607953 0,0 0.63814,-4.832286 0.30068,-7.215908 -0.67828,-4.790983 -3.37582,-6.948253 -3.90862,-7.516573 l -4.50995,-4.8106044 0.90199,16.2357954 c 0,0 -1.80398,-4.309501 -3.3073,-7.516572 -0.97511,-2.080228 -4.5035,-6.816404 -10.22253,-7.8172348 L 110.04261,7.215909 c 7.50385,4.803175 7.68393,5.445977 11.42519,12.928504 -0.74027,-2.120015 -4.59209,-3.334101 -8.41856,-4.810606 -2.39723,-0.92501 -15.491519,-4.547122 -24.353693,-0.300663 L 74.263731,21.94839 c -5.216629,2.66498 -16.962503,9.933145 -21.647728,7.817235 l -9.320549,-4.209281 c 0,0 -0.777185,7.492419 1.803976,12.327178 2.278302,4.267472 2.809442,1.39063 0.300664,5.111271 -0.3502,0.519364 -1.523457,8.567091 -10.777888,3.135466 -1.503944,-0.882697 -4.850099,10.743529 8.071921,21.81955 -2.322586,2.014855 -3.465681,5.33928 -5.41193,9.621213 -1.784372,3.181924 -4.255263,6.259681 -7.817236,8.117898 l 4.209281,5.411932 c 2.520498,3.22596 6.995669,4.543784 9.921876,0.901987 z"
           id="path2"
           inkscape:label="hair"
           sodipodi:nodetypes="ccccccccccccccccsccsccsccccccccssccssccsscscsssccccc" />
        <path
           id="path11"
           style="display:inline;opacity:1;fill:#b16430;fill-opacity:1;stroke-width:0.264583;filter:url(#filter11)"
           d="m 150.69935,32.157524 c -0.043,-1.12304 6.73775,0.744488 10.00127,4.867145 11.93816,8.164317 7.6476,21.828529 16.28962,34.984545 l 6.60482,2.600436 c 0,0 -2.43844,0.583275 -3.63804,0.367483 -2.67846,-0.48182 -4.35078,-1.518083 -6.18386,-3.529572 -3.39943,-3.730298 -5.66184,-18.898284 -8.14339,-24.910647 -1.6864,-4.085851 -4.54113,-7.63089 -8.04098,-10.306182 -2.99745,-2.291254 -6.88944,-4.073208 -6.88944,-4.073208 z M 50.827211,38.577449 46.889675,40.1196 c 0,0 -2.564221,5.242487 -5.06483,6.839661 -2.549943,1.628683 -7.796012,-0.73032 -9.944992,-3.885414 -1.552781,-2.279766 0.114501,21.154736 10.783064,24.770576 -2.805959,1.110559 -4.498143,12.704489 -13.108271,18.029141 6.679753,-2.761248 7.103568,-2.768572 10.103735,-9.662237 2.410085,-6.250834 6.600798,-8.435878 4.510124,-9.758904 -6.085927,-3.851314 -10.074417,-9.923565 -9.460139,-18.188267 0,0 5.732269,2.66363 8.050835,0.415313 2.635896,-2.556033 8.06801,-10.10202 8.06801,-10.10202 z M 121.15795,18.970623 c 0.68764,-1.149368 -1.1316,-5.374087 -4.44533,-8.966551 0,0 6.25001,0.732117 9.02975,2.078449 2.21907,1.074777 5.77096,4.627178 5.77096,4.627178 0,0 -2.76797,-4.938638 -5.09033,-6.331389 -4.53531,-2.7198907 -17.62853,-4.2456058 -17.62853,-4.2456058 z m -77.871102,6.709355 c 21.04833,11.558795 34.151101,-12.169615 52.731586,-13.157109 11.285216,-0.599774 25.116726,5.825358 24.767136,6.462005 0,0 -5.38765,0.407525 -8.41418,-0.610306 C 105.89474,16.19645 98.5724,13.584792 92.487281,15.773465 80.817761,19.970714 71.661039,28.795478 58.91426,30.865145 53.026021,31.821206 43.286848,25.679978 43.286848,25.679978 Z"
           inkscape:label="hair_high"
           sodipodi:nodetypes="ccccsssscccssccsscscccscscccscsssc" />
        <path
           id="path20"
           style="display:inline;opacity:0.96798493;fill:#3a2110;fill-opacity:1;stroke-width:0.264583;filter:url(#filter10)"
           d="m 125.61456,65.415742 c 0,0 8.40148,17.255844 15.21012,15.095501 4.18717,-1.328567 2.29045,-12.978115 2.29045,-12.978115 0,0 6.94118,6.609886 9.80551,10.424861 3.2948,4.388316 4.42317,20.872115 5.12156,15.481587 1.8987,-14.655125 3.07287,-18.49687 5.72933,-14.154892 2.25,3.677608 11.8679,0.590992 11.8679,0.590992 l 5.52189,-1.522872 c -1.01949,1.794979 -8.77709,8.065186 -9.38936,6.22521 0,0 2.81335,7.892643 1.86798,12.38869 -1.08176,5.144696 7.17229,11.517076 7.44192,12.256756 -1.59514,0.42251 -9.11686,1.65682 -15.69167,-5.39278 -1.54017,-1.6514 -2.22844,-3.24929 -1.93007,-5.372584 -2.5739,10.497234 -15.25521,16.698614 -15.77432,17.694044 l 0.84552,-34.542267 c 0.33477,6.016066 3.12229,17.101144 -3.11936,9.52593 -16.98285,-2.019132 -19.87549,-12.932028 -19.7974,-25.720061 z m -41.759069,1.249714 c 0,0 3.115313,12.390882 7.596665,16.432039 3.496703,3.153228 2.410279,-9.847185 2.410279,-9.847185 0,0 5.203517,12.182721 10.567835,12.137642 3.45015,-0.02899 6.66473,-7.919656 6.66473,-7.919656 0,0 1.3181,3.937193 2.20711,3.051054 5.85949,-5.840554 11.60338,-15.424863 11.60338,-15.424863 0.86153,15.328595 -10.22821,18.500891 -14.61988,25.788092 l 0.80766,-4.356054 0.97361,16.337105 c -8.07009,-3.362794 -15.161664,-7.781972 -17.05603,-17.811982 0,0 2.910203,11.268317 2.865968,13.163405 C 83.166401,84.642722 83.543961,74.446776 83.855491,66.665456 Z M 29.662547,85.844788 c 0,0 17.365963,-1.986186 25.197241,-12.147032 2.093099,-2.715733 1.123735,8.87789 4.534034,9.233037 3.931103,0.409383 7.307244,-9.337808 7.307244,-9.337808 0,0 3.45322,8.138907 5.109977,6.075477 5.47604,-6.820207 11.70988,-12.641811 11.70988,-12.641811 L 70.746896,94.275144 66.219185,82.313142 65.921512,117.36903 c -4.032,-3.8718 -9.195627,-8.16514 -12.995093,-15.51011 0,0 -5.358581,4.46706 -7.118488,8.41789 C 44.070382,108.802 41.787543,94.048247 41.787543,94.048247 35.803738,96.100512 32.510712,91.691213 29.662547,85.844788 Z"
           inkscape:label="hair_shad"
           sodipodi:nodetypes="cscsssccsscsccccccscscsccccccccsscscccccccc" />
        <path
           id="path34"
           style="display:inline;opacity:1;mix-blend-mode:normal;fill:#3a2110;fill-opacity:1;stroke-width:0.014;stroke-dasharray:none;paint-order:fill markers stroke;filter:url(#filter9)"
           inkscape:transform-center-x="-0.02886624"
           inkscape:transform-center-y="-5.5018262"
           d="m 109.27739,88.69492 c 0.14059,-1.234293 0.3719,-2.447306 0.59292,-3.645075 0.29123,-1.58123 0.66657,-3.089731 0.97441,-4.656779 0.29207,-1.50036 0.62666,-2.964451 0.92842,-4.45682 0.18694,-0.936636 0.30819,-1.915007 0.41139,-2.885457 0.11067,-0.886527 0.16724,-1.770937 0.21994,-2.657054 0.0356,-0.892437 0.061,-1.781483 0.0959,-2.673591 0.0709,-1.032539 0.0854,-2.046053 0.10886,-3.064475 0.0314,-0.783134 0.0699,-1.568593 0.0703,-2.340498 -0.10199,-1.32269 -0.23842,-2.606476 -0.31586,-3.952632 -0.0123,-0.195752 -0.0247,-0.391515 -0.037,-0.58727 0,0 -1.50957,0.01093 -1.50957,0.01093 v 0 c 0.0173,0.192225 0.0346,0.384438 0.0519,0.576667 0.0903,1.299115 0.20481,2.576473 0.27247,3.895591 3.3e-4,0.767057 -0.0154,1.539392 -0.0489,2.319642 -0.0234,1.013775 -0.0309,2.017756 -0.10521,3.046782 -0.0395,0.886847 -0.0846,1.774536 -0.10109,2.654591 -0.0548,0.871351 -0.11143,1.738831 -0.21624,2.610676 -0.10581,0.943619 -0.21081,1.890045 -0.38369,2.809937 -0.27639,1.507408 -0.60432,2.971683 -0.90961,4.456801 -0.3075,1.569011 -0.67387,3.08792 -0.97189,4.66515 -0.23431,1.232958 -0.46261,2.471306 -0.67696,3.716985 z M 94.711106,59.913444 93.702782,67.816696 c -0.352446,2.762479 -0.763018,5.468182 -0.212988,8.134967 0.145886,0.707318 0.05901,1.687803 0.351933,2.345931 0.158793,0.35677 0.442053,0.655943 0.563616,1.027053 0.08155,0.248948 -0.07647,0.545987 0.03005,0.785316 0.100429,0.225641 0.398821,0.303396 0.54358,0.503508 0.10236,0.1415 -0.06398,0.37044 0.02004,0.523544 0.26682,0.486216 0.69027,4.336581 0.713885,4.953634 M 89.054912,49.119374 c 0,0 3.519716,-9.639637 7.382319,-12.603827 3.343856,-2.5661 12.193089,-3.350336 12.193089,-3.350336 0,0 -3.37748,4.136913 -8.4281,5.827806 -4.760328,1.593705 -11.147308,10.126357 -11.147308,10.126357 z M 114.05741,31.122431 c 0,0 6.07272,-3.324338 9.08188,-2.444804 3.50921,1.025692 7.38842,8.106223 7.38842,8.106223 0,0 3.85224,-2.126277 5.95063,-2.062819 3.74904,0.113376 10.38944,4.321201 10.38944,4.321201 0,0 -5.83108,-0.77579 -8.65852,-0.192953 -3.14465,0.648224 -8.76,4.005417 -8.76,4.005417 0,0 -3.84232,-7.455333 -7.18675,-9.686872 -2.34471,-1.564483 -8.2051,-2.045393 -8.2051,-2.045393 z"
           inkscape:label="hair_stroke" />
      </g>
    </g>
  </g>
  <g
     id="chibi_torso"
     inkscape:label="torso"
     style="display:inline">
    <path
       style="display:inline;opacity:1;fill:#f7c3a3;fill-opacity:1;stroke-width:0.264583"
       d="m 99.596397,150.14786 c -27.697592,2.92637 -16.755036,17.30242 -13.690545,20.74924 0.04428,9.9856 -5.782657,22.5834 -5.165927,29.65881 -4.25986,19.35185 12.246368,24.62885 26.902335,21.04408 19.16495,6.56769 31.00615,-3.48703 29.63506,-20.99865 -0.68897,-6.6688 -3.7654,-20.84561 -5.95589,-29.90438 8.50848,-14.39829 -0.85525,-18.55665 -13.36252,-21.34659 0,0 -12.26982,0.15378 -18.362513,0.79749 z"
       id="path4"
       inkscape:label="torso" />
  </g>
  <g
     id="chibi_neck"
     data-pivot-x="106.00"
     data-pivot-y="110.00"
     style="display:inline"
     inkscape:label="neck"
     transform="rotate(4.0387118,108.00832,154.74611)"
     inkscape:transform-center-y="-6.076305"
     inkscape:transform-center-x="-0.11407164">
    <path
       style="display:inline;fill:#f7c3a3;fill-opacity:0.996078;stroke-width:0.264583"
       d="m 99.820075,145.52083 -1.202653,4.50994 -4.509942,4.20929 c 0.787238,4.0161 2.276437,7.68122 7.81724,9.32054 5.01104,2.20211 10.02209,0.51008 15.03314,-1.20265 4.10267,-4.00309 5.23564,-6.15653 5.11127,-11.12453 l -4.50995,-1.50331 c -2.27635,-1.89977 -2.4053,-1.47846 -2.4053,-4.20928 l 6.01326,-7.51657 c -2.20486,-4.8729 -4.40972,-7.15295 -6.61458,-7.21591 -3.35227,-1.99416 -8.3319,-5.13839 -9.32056,-2.4053 -5.12908,0.78989 -9.546973,2.05391 -9.921869,6.01326 -3.287465,5.50472 1.868703,7.84307 4.509944,11.12452 z"
       id="path3"
       inkscape:label="neck" />
    <path
       style="display:inline;fill:#f6a387;fill-opacity:1;stroke-width:0.014;stroke-dasharray:none;paint-order:fill markers stroke;filter:url(#filter14)"
       d="m 99.979925,146.06472 15.913185,-1.99607 -1.04381,2.51671 2.31656,3.15197 c 0,0 -5.81442,2.29868 -8.88194,2.72113 -2.23797,0.30821 -7.66911,1.13218 -10.254797,-1.39352 z"
       id="path44"
       inkscape:label="neck_shad"
       sodipodi:nodetypes="ccccscc" />
  </g>
  <g
     id="chibi_leg_l"
     data-pivot-x="93.81"
     data-pivot-y="205.23"
     inkscape:label="leg.l"
     style="display:inline"
     inkscape:transform-center-x="5.6751807"
     inkscape:transform-center-y="25.812624"
     transform="rotate(8.406694,93.840174,203.79928)">
    <g
       id="g5"
       inkscape:label="feet.l">
      <path
         style="display:inline;opacity:1;fill:#1a1a1a;fill-opacity:0.996078;stroke-width:0.264583"
         d="m 85.776124,240.79706 -0.467574,4.4957 c 0,0 -8.027651,4.86348 -9.058607,8.99106 -0.514618,2.06035 0.265896,4.7075 1.880372,6.08712 9.368579,5.66645 24.030265,-0.70445 24.192485,-3.31511 0,0 2.74567,-8.53111 0.7461,-12.00711 -9.568246,-16.63335 -11.627314,-10.66485 -17.292776,-4.25166 z"
         id="path13"
         inkscape:label="feet.l"
         transform="rotate(-4.1908926,94.107957,243.14738)" />
      <path
         style="display:inline;opacity:1;fill:#0b0b0b;fill-opacity:0.996078;stroke-width:0.014;stroke-dasharray:none;paint-order:fill markers stroke;filter:url(#filter15)"
         d="m 92.231513,246.69601 4.615863,-2.1216 c 1.076741,5.98378 -0.467264,9.78789 -2.18219,13.81214 0,0 -3.146706,1.24569 -4.96354,1.62505 -1.888519,0.39433 -5.500452,1.80084 -5.500452,1.80084 3.417155,-3.97379 8.004601,-7.75121 8.030319,-15.11643 z"
         id="path49"
         transform="rotate(-8.406694,93.840275,203.79921)"
         sodipodi:nodetypes="cccscc"
         inkscape:label="feet.l_shad" />
    </g>
    <path
       style="opacity:1;fill:#f7c3a3;fill-opacity:0.996078;stroke-width:0.264583"
       d="m 82.392533,201.11927 c -4.122222,5.17302 -2.145278,19.83941 -2.145278,19.83941 2.726152,36.74484 22.141965,25.01052 23.107275,21.39444 2.66742,-9.99241 1.79869,-6.43645 4.55118,-20.13514 0,0 1.60722,-6.4097 1.22235,-9.61873 -0.33243,-2.77196 -0.98129,-5.88509 -2.9906,-7.82337 -4.26545,-4.11468 -10.906476,-5.44506 -16.825385,-5.74707 -3.083379,-0.15734 -4.995473,-0.32405 -6.919542,2.09046 z"
       id="path7"
       inkscape:label="leg.l" />
  </g>
  <g
     id="chibi_leg_r"
     data-pivot-x="122.01"
     data-pivot-y="209.69"
     inkscape:label="leg.r"
     style="display:inline"
     inkscape:transform-center-x="-8.7674192"
     inkscape:transform-center-y="22.213838"
     transform="rotate(-12.371986,122.84201,206.90602)">
    <g
       id="g4"
       inkscape:label="feet.r"
       style="display:inline">
      <path
         style="display:inline;opacity:1;fill:#1a1a1a;fill-opacity:0.996078;stroke-width:0.264583"
         d="m 130.44243,240.27243 1.93318,7.00394 c 0,0 6.93702,6.32254 7.15129,10.57151 0.10695,2.12095 -1.17024,4.56747 -3.02076,5.60926 -10.28668,3.7501 -23.44155,-5.33318 -23.09651,-7.92571 0,0 -0.55278,-8.53379 1.58724,-11.92511 6.89753,-8.78661 13.06196,-11.96973 15.44556,-3.33389 z"
         id="path14"
         inkscape:label="feet.r"
         inkscape:transform-center-x="-5.4163317"
         inkscape:transform-center-y="5.6966418" />
      <path
         style="display:inline;opacity:1;fill:#0b0b0b;fill-opacity:0.996078;stroke-width:0.014;stroke-dasharray:none;paint-order:fill markers stroke;filter:url(#filter16)"
         d="M 91.299882,246.69601 96.318523,245.53 c 0,0 0.548632,4.83478 0.15381,7.36959 -0.620699,5.54938 -2.007792,6.16012 -6.779073,7.66183 -1.94881,0.61336 -5.84643,1.84009 -5.84643,1.84009 4.16246,-4.53277 7.914296,-10.28813 7.453052,-15.7055 z"
         id="path51"
         transform="matrix(-0.97677714,-0.21425777,-0.21425777,0.97677714,261.9607,24.642979)"
         sodipodi:nodetypes="ccsscc"
         inkscape:label="feet.r_shad" />
    </g>
    <path
       style="display:inline;opacity:1;fill:#f7c3a3;fill-opacity:0.996078;stroke-width:0.256116"
       d="m 134.95748,203.03218 c 3.9782,5.0572 1.66385,17.7684 1.66385,17.7684 0.73543,34.11284 -20.63752,24.93086 -21.64754,21.40881 -2.80816,-9.79254 -1.78994,-6.33327 -4.57889,-19.82556 0,0 -1.60795,-6.30921 -1.28432,-9.48257 0.27955,-2.74112 0.85489,-5.82298 2.73626,-7.76154 3.99386,-4.11526 10.27772,-5.51045 15.88975,-5.88138 2.92352,-0.19323 5.36405,1.41337 7.22089,3.77384 z"
       id="path12"
       inkscape:label="leg.r" />
  </g>
  <g
     id="chibi_hip"
     inkscape:label="hip"
     style="display:inline;fill:#999999">
    <path
       style="opacity:1;fill:#000000;fill-opacity:0;stroke-width:0.264583"
       d="m 81.552592,195.4095 c -2.549209,5.97392 -4.14752,19.76733 -1.880582,25.36435 2.621428,6.47225 16.890434,2.13834 28.56663,0.51403 11.24807,2.56328 28.26086,5.75535 29.11194,0.71425 1.27627,-7.55954 0.11572,-17.94976 -0.54655,-26.05276 -0.0918,-2.06452 -5.44676,-2.64458 -13.21195,-3.4209 -8.95598,-0.89537 -20.64429,-0.85426 -29.509776,0.30447 -6.782066,0.88643 -11.555507,0.29357 -12.529712,2.57656 z"
       id="path15"
       inkscape:label="hip" />
  </g>
  <g
     id="chibi_arm_l"
     data-pivot-x="88.86"
     data-pivot-y="162.18"
     inkscape:label="arm.l"
     style="display:inline"
     inkscape:transform-center-x="18.135602"
     inkscape:transform-center-y="22.30045"
     transform="rotate(10.56429,87.567433,159.92551)">
    <path
       style="opacity:1;fill:#f7c3a3;fill-opacity:0.996078;stroke-width:0.264583"
       d="m 63.531152,192.03025 c 2.551854,-7.12083 6.0659,-13.73905 9.065487,-20.59677 12.395904,-29.27693 29.017021,-17.86698 17.308456,-8.44313 -2.387002,1.92121 -6.057362,8.49736 -13.186921,31.66646 -3.007145,9.05979 -14.138043,11.24341 -13.187022,-2.62656 z"
       id="path5"
       inkscape:label="arm.l" />
    <g
       id="g3"
       inkscape:label="hand.l">
      <path
         style="display:inline;opacity:1;fill:#000080;fill-opacity:0.996078;stroke-width:0.283909"
         d="m 63.777071,189.38052 c -3.799917,2.59326 -4.602294,12.61151 -4.602294,12.61151 -0.537557,4.85004 0.0027,9.60133 3.961469,12.09993 2.196017,1.38603 4.447944,0.0697 6.732436,-2.8209 0,0 2.130902,-0.002 3.259462,-0.9483 1.74244,-1.46121 1.49459,-6.47026 1.49459,-6.47026 0,0 3.291498,-2.34038 3.648545,-4.09518 0.73481,-3.61134 -0.546732,-8.29914 -3.672083,-10.42777 -2.926227,-1.99298 -7.879273,-1.95736 -10.822125,0.051 z"
         id="path9"
         inkscape:label="hand.l"
         transform="rotate(0.06039044,69.016489,196.54894)" />
      <path
         id="path47"
         style="display:inline;opacity:1;fill:#01014e;fill-opacity:1;stroke-width:0.014;stroke-dasharray:none;paint-order:fill markers stroke;filter:url(#filter17)"
         d="m 60.571336,195.30408 c 0,0 4.941565,2.60067 8.001601,2.98134 3.205544,0.39878 9.527286,-1.76281 9.527286,-1.76281 0,0 -0.468401,-4.61874 -2.153416,-5.9986 -3.033663,-2.48428 -8.028561,-3.18438 -11.644383,-1.66762 -2.178762,0.91395 -3.731088,6.44769 -3.731088,6.44769 z m 1.472908,17.17634 c 2.12285,-0.75609 4.595453,-1.34512 6.644182,-2.46293 1.165535,-0.63593 2.90316,-0.39823 3.708356,-1.45395 1.179719,-1.54676 -1.104158,-4.89768 0.617572,-5.80315 1.978836,-1.04067 3.316769,-5.76307 4.904188,-4.07531 1.532956,1.62985 -3.732976,4.97445 -3.732976,4.97445 0,0 0.705111,4.00754 -1.084706,6.2455 -1.19706,1.49679 -3.308903,1.10339 -3.308903,1.10339 0,0 -2.38464,3.71236 -4.301578,3.83435 -1.389889,0.0884 -3.588309,-1.31612 -3.446135,-2.36235 z"
         inkscape:label="hand.l_shad"
         transform="rotate(0.06039044,69.016489,196.54894)"
         sodipodi:nodetypes="cscssccsssscscsc" />
    </g>
  </g>
  <g
     id="chibi_arm_r"
     data-pivot-x="134.46"
     data-pivot-y="169.00"
     inkscape:label="arm.r"
     style="display:inline"
     inkscape:transform-center-x="-15.936357"
     inkscape:transform-center-y="25.137869"
     transform="rotate(-2.4814329,125.5616,156.08834)">
    <path
       style="display:inline;opacity:1;fill:#f7c3a3;fill-opacity:0.996078;stroke-width:0.264583"
       d="m 155.88336,191.1523 c -2.7331,-7.05325 -6.41521,-13.57946 -9.58917,-20.35824 -13.14044,-28.95042 -29.46437,-17.1192 -17.51868,-7.99782 2.43534,1.85956 6.27265,8.3397 13.9923,31.31894 3.23781,8.97993 14.4209,10.87823 13.11555,-2.96288 z"
       id="path16"
       inkscape:label="arm.r" />
    <g
       id="g2"
       inkscape:label="hand.r">
      <path
         style="display:inline;opacity:1;fill:#000080;fill-opacity:0.996078;stroke-width:0.283909"
         d="m 153.94254,186.63337 c 4.12894,2.02886 6.3423,11.83244 6.3423,11.83244 1.21914,4.72499 1.35734,9.5049 -2.20759,12.53906 -1.97755,1.68312 -4.39323,0.69904 -7.06413,-1.83881 0,0 -2.1097,0.29985 -3.36092,-0.47704 -1.93185,-1.19966 -2.39602,-6.19332 -2.39602,-6.19332 0,0 -3.58983,-1.85055 -4.19183,-3.53708 -1.23895,-3.47084 -0.63435,-8.2929 2.15797,-10.84277 2.61442,-2.38738 7.52257,-3.05371 10.72023,-1.48245 z"
         id="path8"
         inkscape:label="hand.r" />
      <path
         id="path6"
         style="display:inline;opacity:1;fill:#01014e;fill-opacity:1;stroke-width:0.014;stroke-dasharray:none;paint-order:fill markers stroke;filter:url(#filter18)"
         d="m 157.80084,192.03643 c 0,0 -4.52336,3.27441 -7.49862,4.08469 -3.11674,0.84882 -9.68092,-0.39551 -9.68092,-0.39551 0,0 -0.19056,-4.63851 1.28201,-6.24314 2.65118,-2.88894 7.49654,-4.2895 11.29075,-3.30022 2.28626,0.59612 4.60678,5.85418 4.60678,5.85418 z m 0.97494,17.21178 c -2.20854,-0.44777 -4.73965,-0.68062 -6.92605,-1.49695 -1.24387,-0.46442 -2.9303,0.017 -3.87692,-0.91401 -1.38692,-1.36406 0.39926,-5.0047 -1.43335,-5.65716 -2.10629,-0.74988 -4.09966,-5.23515 -5.432,-3.33954 -1.28663,1.83055 4.39996,4.39552 4.39996,4.39552 0,0 -0.13034,4.06701 1.95843,6.02887 1.39701,1.31214 3.43183,0.62357 3.43183,0.62357 0,0 2.88645,3.33715 4.80134,3.18638 1.3884,-0.10937 3.3657,-1.81113 3.07676,-2.82668 z"
         inkscape:label="hand.r_shad"
         sodipodi:nodetypes="cscssccsssscscsc" />
    </g>
  </g>
</svg>
