<?xml version="1.0" encoding="UTF-8" standalone="no"?>
<!-- Created with Inkscape (http://www.inkscape.org/) -->

<svg
   width="210mm"
   height="297mm"
   viewBox="0 0 210 297"
   version="1.1"
   id="svg1"
   sodipodi:docname="ROBOT.svg"
   xml:space="preserve"
   inkscape:version="1.4.4 (dcaf3e7, 2026-05-05)"
   xmlns:inkscape="http://www.inkscape.org/namespaces/inkscape"
   xmlns:sodipodi="http://sodipodi.sourceforge.net/DTD/sodipodi-0.dtd"
   xmlns="http://www.w3.org/2000/svg"
   xmlns:svg="http://www.w3.org/2000/svg"><sodipodi:namedview
     id="namedview1"
     pagecolor="#ffffff"
     bordercolor="#000000"
     borderopacity="0.25"
     inkscape:showpageshadow="2"
     inkscape:pageopacity="0.0"
     inkscape:pagecheckerboard="0"
     inkscape:deskcolor="#d1d1d1"
     inkscape:document-units="mm"
     inkscape:zoom="0.47571549"
     inkscape:cx="342.64178"
     inkscape:cy="426.72565"
     inkscape:window-width="1280"
     inkscape:window-height="778"
     inkscape:window-x="-6"
     inkscape:window-y="-6"
     inkscape:window-maximized="1"
     inkscape:current-layer="layer1" /><defs
     id="defs1" /><g
     inkscape:label="Layer 1"
     inkscape:groupmode="layer"
     id="layer1"><g
       id="g39"><path
         style="fill:#facb02"
         d="m 52.732396,182.01771 c 0,-0.18743 0.655977,-1.4401 1.457728,-2.78369 2.251501,-3.77312 5.786069,-11.83976 5.639795,-12.87122 l -0.08606,-0.60689 -5.688542,-0.13802 -5.688541,-0.13802 -1.984375,-0.93963 c -3.352712,-1.58757 -5.681869,-4.57432 -6.347104,-8.1391 -0.165542,-0.88709 -0.258727,-11.14463 -0.2491,-27.42018 l 0.01538,-26.00291 0.360307,-1.72208 c 0.725465,-3.467355 2.853959,-6.158633 6.164977,-7.795026 l 2.012469,-0.994617 H 98.888464 149.4376 l 1.45521,0.593428 c 3.35631,1.368688 5.95796,4.351689 6.72089,7.706025 l 0.42286,1.85917 v 26.23562 26.23562 l -0.41715,1.60983 c -0.996,3.8437 -3.49828,6.67574 -7.23436,8.18773 l -1.47661,0.59758 -36.87716,0.13229 -36.877147,0.13229 -0.429098,0.64812 c -1.851207,2.7961 -7.556827,8.4197 -10.630413,10.47759 -4.243362,2.84111 -11.362226,6.05906 -11.362226,5.13609 z"
         id="path41" /><path
         style="fill:#6f6f6f"
         d="m 52.732396,188.79599 c 0,-0.0934 0.481406,-1.0194 1.069791,-2.05773 1.410749,-2.48957 1.302943,-2.7119 -0.99033,-2.04243 -0.989589,0.28889 -2.234001,0.59477 -2.765359,0.67974 l -0.966107,0.15448 -0.283185,-0.52914 -0.283186,-0.52914 1.347167,-2.21418 c 2.469275,-4.05846 5.304408,-9.50238 5.153517,-9.8956 -0.08855,-0.23074 -0.501411,-0.39024 -1.017234,-0.39297 -4.520214,-0.0239 -8.82331,-2.44759 -11.497694,-6.47594 -0.773517,-1.16513 -1.88015,-2.77326 -2.459185,-3.57363 -0.579035,-0.80036 -1.323772,-2.22911 -1.654972,-3.175 l -0.602182,-1.71979 v -28.04583 -28.04584 l 0.587571,-1.540269 c 1.694864,-4.44296 5.167558,-7.647604 9.514115,-8.779738 l 1.518866,-0.395614 H 98.81246 c 35.04896,0 49.81596,0.08498 50.81056,0.292386 4.92485,1.027014 9.16246,5.209698 10.29206,10.158655 0.16608,0.7276 0.61502,2.21589 0.99766,3.30729 l 0.6957,1.98438 0.0732,27.75913 0.0732,27.75914 -0.68184,2.04738 c -1.40531,4.21976 -4.57865,7.22392 -8.76319,8.29598 l -1.62569,0.41649 H 114.30548 77.926831 l -1.550864,1.94176 c -3.444595,4.31281 -7.817309,7.89603 -13.079536,10.71802 -3.681789,1.97445 -10.564035,4.51392 -10.564035,3.89801 z m -0.661459,-4.25073 c 1.164167,-0.3616 2.384151,-0.65924 2.711076,-0.66142 3.637832,-0.0243 14.789607,-7.71862 18.997751,-13.10775 0.928312,-1.18884 1.875381,-2.31717 2.104599,-2.50741 l 0.416758,-0.34588 33.657829,0.0422 c 18.5118,0.0232 34.99286,-0.0634 36.62457,-0.19254 l 2.96676,-0.23473 2.48821,-1.21044 2.48821,-1.21045 1.69544,-1.83123 c 2.07559,-2.24183 3.04386,-3.96937 3.54175,-6.31905 l 0.38015,-1.79398 0.005,-26.00923 0.005,-26.00923 -0.42594,-1.90431 c -1.23128,-5.504973 -5.40323,-9.60271 -10.68656,-10.496484 -1.21934,-0.206273 -16.11742,-0.26884 -51.196877,-0.215008 l -49.477082,0.07593 -1.5875,0.60083 c -3.891937,1.473004 -6.649309,4.337331 -8.184295,8.501751 l -0.545799,1.480755 -0.0789,26.45833 c -0.09614,32.23686 -0.228503,30.77977 3.206078,35.29276 2.576538,3.38554 4.987996,4.47592 10.630003,4.80655 1.891771,0.11086 3.765171,0.13833 4.163113,0.0611 0.984354,-0.19116 1.190527,0.44801 0.599154,1.85747 -0.255976,0.61008 -0.665891,1.66334 -0.910922,2.34057 -0.536028,1.4815 -2.714208,5.59545 -4.975824,9.39789 -2.435216,4.0943 -2.346911,4.29347 1.389062,3.13305 z m 0.132292,-2.13374 c 0,-0.25436 0.801725,-1.70665 0.942145,-1.70665 0.07414,0 0.01156,0.2303 -0.139086,0.51177 -0.389076,0.727 -0.341332,1.0193 0.189128,1.15793 0.284867,0.0744 0.183065,0.13281 -0.264583,0.15169 -0.400182,0.0169 -0.727604,-0.0348 -0.727604,-0.11474 z m 4.255382,-1.27922 c 0.269179,-0.24842 5.005034,-2.53554 5.005034,-2.41712 0,0.14698 -4.645715,2.51886 -4.933601,2.51886 -0.09992,0 -0.132067,-0.0458 -0.07143,-0.10174 z m -0.760732,-5.04914 c 0.464132,-0.94121 0.887535,-1.66763 0.940895,-1.61427 0.118299,0.1183 -1.481454,3.32556 -1.658759,3.32556 -0.06931,0 0.253732,-0.77008 0.717864,-1.71129 z m 7.485558,1.52492 c 0.145521,-0.13813 1.03849,-0.79738 1.984375,-1.46501 1.476101,-1.04186 5.283913,-4.69561 8.20562,-7.87362 0.468247,-0.50932 0.346857,-0.29689 -0.269754,0.47206 -1.52955,1.90746 -6.220383,6.48397 -7.819475,7.62892 -1.340606,0.95987 -2.573077,1.68597 -2.100766,1.23765 z M 74.563941,166.6127 c 0.663915,-1.05835 -1.357579,-1.00786 37.170539,-0.92832 l 35.58646,0.0735 -35.90648,0.0652 -35.906483,0.0652 -0.701211,0.72761 -0.70121,0.7276 z m -19.979462,-0.7245 -5.159375,-0.14961 5.077614,-0.0575 c 3.163234,-0.0358 5.139266,0.0423 5.241136,0.2071 0.08994,0.14552 0.126729,0.23872 0.08176,0.2071 -0.04497,-0.0316 -2.403479,-0.12481 -5.241135,-0.2071 z m 98.687311,-2.56261 c 1.2789,-1.03096 2.69395,-2.61151 3.23233,-3.61037 0.24856,-0.46116 0.45692,-0.74135 0.46302,-0.62264 0.0408,0.79348 -1.82796,3.07896 -3.38183,4.136 l -1.23729,0.84169 z M 42.949944,162.45594 c -1.248215,-1.28149 -2.923881,-4.16545 -2.911268,-5.01052 0.0035,-0.23142 0.288777,0.26621 0.634051,1.10583 0.728515,1.77158 1.692219,3.15238 3.036318,4.35046 0.524458,0.46747 0.856532,0.85443 0.737944,0.85989 -0.118589,0.005 -0.792259,-0.58208 -1.497045,-1.30566 z M 158.13194,104.76945 c 0,-1.38245 0.0446,-1.94799 0.0991,-1.25677 0.0545,0.69123 0.0545,1.82232 0,2.51354 -0.0545,0.69123 -0.0991,0.12568 -0.0991,-1.25677 z M 40.299564,99.797974 c -0.01463,-1.93179 5.408658,-7.199355 7.412187,-7.199355 0.181083,0 -0.512049,0.42088 -1.540294,0.93529 -2.165965,1.083589 -4.291518,3.221242 -5.252515,5.282418 -0.339237,0.727604 -0.617957,1.169345 -0.619378,0.981647 z m 115.091166,-3.4017 c -1.36094,-1.695774 -3.44368,-3.069068 -5.55625,-3.663609 l -1.45521,-0.409539 1.03627,0.128266 c 2.22196,0.275026 5.92717,2.842494 7.00293,4.852576 0.47844,0.893959 0.27146,0.711158 -1.02774,-0.907694 z M 74.076485,92.135618 c 13.55826,-0.03789 35.822945,-0.03789 49.477085,-7e-6 13.65413,0.03788 2.56101,0.06888 -24.651383,0.06889 -27.212396,4e-6 -38.383961,-0.03099 -24.825702,-0.06888 z"
         id="path40"
         inkscape:label="bubble-shadow" /><path
         style="fill:#19180d"
         d="m 49.204618,185.0264 c -0.358932,-0.35893 -0.139278,-0.89633 1.477257,-3.61419 2.261616,-3.80244 4.439796,-7.91639 4.975824,-9.39789 0.245031,-0.67723 0.654946,-1.73049 0.910922,-2.34057 0.591373,-1.40946 0.3852,-2.04863 -0.599154,-1.85747 -0.397942,0.0773 -2.271342,0.0498 -4.163113,-0.0611 -5.642007,-0.33063 -8.053465,-1.42101 -10.630003,-4.80655 -3.434581,-4.51299 -3.302216,-3.0559 -3.206078,-35.29276 l 0.0789,-26.45833 0.545799,-1.480755 c 1.534986,-4.16442 4.292358,-7.028747 8.184295,-8.501751 l 1.5875,-0.60083 49.477082,-0.07593 c 35.079457,-0.05383 49.977537,0.0087 51.196877,0.215008 5.28333,0.893774 9.45528,4.991511 10.68656,10.496484 l 0.42594,1.90431 -0.005,26.00923 -0.005,26.00923 -0.38015,1.79398 c -0.49789,2.34968 -1.46616,4.07722 -3.54175,6.31905 l -1.69544,1.83123 -2.48821,1.21045 -2.48821,1.21044 -2.96676,0.23473 c -1.63171,0.1291 -18.11277,0.21574 -36.62457,0.19254 l -33.657829,-0.0422 -0.416758,0.34588 c -0.229218,0.19024 -1.176287,1.31857 -2.104599,2.50741 -4.208144,5.38913 -15.359919,13.08345 -18.997751,13.10775 -0.326925,0.002 -1.546909,0.29982 -2.711076,0.66142 -2.260317,0.70207 -2.590037,0.75742 -2.866319,0.48114 z m 5.863901,-3.16487 c 7.733745,-3.0473 15.281284,-8.86975 19.727638,-15.21862 l 0.4359,-0.62242 36.705893,-0.13229 36.7059,-0.13229 1.52877,-0.58361 c 3.95329,-1.50918 6.52803,-4.30134 7.58457,-8.22501 0.32242,-1.19738 0.4632,-54.35821 0.14833,-56.0143 -0.76591,-4.02847 -4.65029,-7.807545 -8.83476,-8.595254 -2.08207,-0.391942 -98.482164,-0.36787 -100.360237,0.02506 -3.923382,0.820851 -7.570271,4.237096 -8.583911,8.041033 l -0.352519,1.32291 -0.0031,27.4025 -0.0031,27.4025 0.39921,1.34429 c 0.927951,3.12474 3.37627,5.71406 6.74454,7.13294 l 1.719792,0.72446 5.423958,0.0981 c 2.983177,0.054 5.521618,0.19239 5.64098,0.30764 0.432136,0.41725 -3.632105,9.59663 -6.022936,13.60325 -1.956307,3.27842 -1.872006,3.40647 1.395163,2.11912 z"
         id="path39" /></g></g></svg>
