<svg width="210mm" height="297mm" version="1.1" viewBox="0 0 210 297" xmlns="http://www.w3.org/2000/svg"><path d="m86.5 170c-0.0682-0.0689 0.505-0.778 1.27-1.58 2.05-2.13 5.63-7.17 5.63-7.93 0-0.181-0.653-0.998-1.48-1.85-10.3-10.6-14.5-30-10.2-46.6 4.52-17.6 15.6-28.3 28.8-27.8 14.1 0.486 24.8 13.1 28.4 33.4l0.297 1.67 2e-3 5.94c2e-3 4.2-0.0634 6.34-0.222 7.28-0.123 0.737-0.371 2.21-0.55 3.27-3.77 22.3-19.7 36-35.9 30.7l-1.34-0.436-1.21 0.608c-3.71 1.87-12.7 4.12-13.5 3.36z" fill="#facb02"/><path d="m86.3 175c-0.0502-0.0813 0.0872-0.361 0.305-0.622 0.218-0.261 0.45-0.645 0.515-0.852 0.065-0.208 0.315-0.611 0.555-0.897 0.339-0.403 0.398-0.581 0.261-0.794l-0.176-0.275-4.58 0.125-0.329-0.298c-0.62-0.562-0.416-0.918 1.77-3.1 3.11-3.09 6.1-6.76 6.1-7.49 0-0.22-0.666-1.22-4.2-6.31-15.2-21.9-9.03-58.6 11.7-69.8 16.7-8.98 35.2 2.82 41.4 26.4 4.34 16.5 3.36 31.6-2.87 44-5.62 11.2-14.7 17.5-25 17.5l-3.1-7e-3 -1.59-0.389c-0.875-0.214-2.02-0.569-2.55-0.788-1.25-0.52-1.53-0.506-3 0.162-3.14 1.42-8 2.71-12.1 3.2-1.23 0.147-2.44 0.3-2.69 0.341-0.25 0.0405-0.495 7e-3 -0.545-0.0742zm1.17-3.77c4.44-0.122 9.39-1.36 13.2-3.29l0.668-0.341 1.62 0.506c2.7 0.844 3.38 0.937 6.97 0.933l3.35-3e-3 1.42-0.385c16-4.34 27-22.8 26.6-44.9l-0.0748-4.31-0.368-2.01c-0.531-2.89-1.02-5.28-1.19-5.86-5.31-17.6-13.7-27-25.9-29.3l-1.51-0.281-2.85 0.0911c-13.8 0.441-24.5 11-29.3 28.8-4.4 16.4-1.13 33.3 9.07 46.9 1.03 1.37 1.87 2.6 1.87 2.73 0 0.959-2.72 4.4-6.18 7.84-2.49 2.47-2.66 3.25-0.684 3.01 0.414-0.049 1.88-0.12 3.27-0.158zm-1.26-1.71c0-0.182 0.291-0.564 0.649-0.852 1.4-1.12 6.38-7.82 6.38-8.57 0-0.123-0.622-0.871-1.38-1.66-10.9-11.3-14.9-31.5-9.78-48.9 9.41-31.8 40.3-35.3 53.1-5.85 1.87 4.28 3.44 9.91 3.79 13.6l0.0881 0.921-0.167-0.837c-0.092-0.46-0.318-1.63-0.503-2.6-3.02-15.8-12.5-28-23.5-30.4-5.24-1.14-11.1-0.422-15.5 1.89-22 11.6-26.3 52.6-7.51 72 0.826 0.853 1.48 1.67 1.48 1.85 0 0.764-3.58 5.8-5.64 7.94-1.58 1.64-1.57 1.75 0.0877 1.58 4.14-0.414 8.85-1.73 12.1-3.38l1.21-0.608 1.34 0.436c16.1 5.23 31.6-7.82 35.8-30.3 0.211-1.11 0.389-1.82 0.396-1.59 7e-3 0.23-0.207 1.47-0.475 2.76-4.54 21.8-20.4 34.8-35.8 29.3-1.05-0.371-1.32-0.335-2.9 0.395-3.57 1.65-8.02 2.82-11.9 3.13l-1.47 0.116zm52.7-36.6c0.404-4.56 0.451-5.78 0.388-10-0.0499-3.37-0.0275-4.33 0.0763-3.27 0.218 2.23 0.0127 11.5-0.287 12.9-0.171 0.824-0.224 0.948-0.177 0.419zm-79.3-51.7v-0.52h1.34c1.61 0 1.65 0.0574 0.293 0.481-0.576 0.18-1.18 0.379-1.34 0.443l-0.293 0.116z" fill="#6e6d6e"/><path d="m83.1 172c-0.629-0.378-0.334-0.878 1.73-2.93 3.46-3.44 6.18-6.88 6.18-7.84 0-0.132-0.843-1.36-1.87-2.73-10.2-13.5-13.5-30.4-9.07-46.9 4.78-17.8 15.5-28.4 29.3-28.8l2.85-0.0911 1.51 0.281c8.9 1.66 16 7.56 21.6 17.8 1.36 2.53 2.6 5.84 4.3 11.5 0.175 0.579 0.66 2.97 1.19 5.86l0.368 2.01 0.0748 4.31c0.383 22.1-10.5 40.5-26.6 44.9l-1.42 0.385-3.35 3e-3c-3.59 3e-3 -4.28-0.089-6.97-0.933l-1.62-0.506-0.668 0.341c-3.79 1.93-8.74 3.17-13.2 3.29-1.38 0.0378-2.85 0.109-3.27 0.158-0.414 0.049-0.885 0.01-1.05-0.0871zm7.36-1.92c3.1-0.534 6.41-1.55 9.07-2.77 1.58-0.73 1.85-0.766 2.9-0.395 16.4 5.78 32.3-8.49 36.4-32.5l0.453-2.67 0.0272-12.1-0.307-1.84c-3.47-20.8-15.4-34.1-30.1-33.5-13.1 0.521-23.6 11.6-27.8 29.2-3.82 16.2 0.601 35.2 10.7 45.7 0.76 0.792 1.38 1.54 1.38 1.66 0 0.754-4.99 7.45-6.38 8.57-0.358 0.287-0.649 0.67-0.649 0.852v0.33l1.47-0.116c0.806-0.0638 2.08-0.222 2.84-0.352z" fill="#13120a"/></svg>
