<svg width="210mm" height="297mm" version="1.1" viewBox="0 0 210 297" xmlns="http://www.w3.org/2000/svg"><path d="m29.2 192c0-0.0902 0.835-1.58 1.86-3.3 4.3-7.26 7.76-15.7 11.1-27.1 1.35-4.61 1.4-4.36-1.33-6.38-31.9-23.6-26.7-61.5 11.1-81.1 10.4-5.41 21.9-8.83 36.9-11 31.1-4.51 66.3 5.39 84.5 23.8 29.7 30 11 69.3-39.2 82.6-16.7 4.42-38.6 5.14-55.2 1.83-1.92-0.383-10.8-2.56-12.9-3.17-2.07-0.592-1.77-0.777-4.99 3.07-7.19 8.6-15.1 14.7-23.9 18.4-5.09 2.14-7.94 3.03-7.94 2.47z" fill="#facb02"/><path d="m28.7 201c0-0.0957 0.457-0.78 1.02-1.52 1.09-1.45 2.69-4.21 2.69-4.65 0-0.423-0.699-0.329-4.16 0.561l-3.23 0.832-0.671-0.44c-0.904-0.592-0.846-1.24 0.266-2.98 6.12-9.57 9.9-17.3 12.4-25.3 0.647-2.07 1.42-4.46 1.71-5.3 0.709-2.03 0.568-2.32-2.37-4.92-3.04-2.69-7.39-8.18-12.1-15.2-22.6-34.1 7.14-74.3 60.8-82 52.5-7.57 101 16.9 105 53 0.0963 0.8 0.467 3.36 0.825 5.69 2.25 14.7-1.49 26.4-11.9 37.4-7.73 8.14-22.1 16.4-34.6 19.9-1.66 0.463-3.97 1.12-5.13 1.45-12.3 3.55-33.4 5.14-47.2 3.55-2.99-0.345-7.53-0.922-10.4-1.33-2.28-0.32-7.56-1.64-11.5-2.88-2.88-0.904-3.04-0.866-4.29 0.98-2.94 4.35-12.6 12.6-18.7 15.9-6.34 3.48-18.9 8.3-18.9 7.27zm0.669-6.32c1.24-0.359 2.55-0.652 2.92-0.652 1.61 0 10.5-4.24 15.1-7.19 4.83-3.12 10.5-8.11 14.9-13.1 1.56-1.78 3.02-3.24 3.24-3.24 0.223 2e-3 1.6 0.356 3.05 0.787 11.9 3.53 31.9 5.47 43.7 4.23 12.2-1.28 17.8-2.3 26.7-4.9 32.9-9.65 54.3-33.2 51.3-56.4-5.15-40.1-59.5-64.5-115-51.8-29.4 6.68-50.5 24-56.6 46.3-1.65 6.03-1.21 15.6 1 21.8 3.34 9.46 10.3 19.5 16.7 24 0.968 0.68 2.27 1.64 2.88 2.14l1.12 0.901-0.173 1.9c-0.0953 1.05-0.4 2.56-0.677 3.36-0.277 0.8-1.02 3.12-1.66 5.16-2.2 7.03-5.24 13.5-10.1 21.3-3.54 5.76-3.4 5.47-2.99 5.97 0.425 0.512 1.95 0.338 5.13-0.582zm-0.505-2.72c-0.0727-0.118 0.531-1.34 1.34-2.71 4.93-8.36 9.86-20.6 12.5-31.2l0.363-1.43-0.788-0.608c-0.434-0.334-1.74-1.32-2.91-2.18-16.9-12.5-23.9-32.5-17.5-49.2 8.64-22.5 31.5-37 66.6-42.3 10.7-1.62 26.4-1.27 36.9 0.811 22.6 4.46 39.3 13 50.7 25.8 3.21 3.6 8.02 10.9 7.52 11.4-0.0644 0.0644-0.56-0.752-1.1-1.81-12.9-25.2-55.3-41.5-93.7-35.9-15 2.18-26.5 5.6-36.9 11-37.8 19.7-43 57.5-11.1 81.1 2.73 2.02 2.68 1.77 1.33 6.38-3.35 11.4-6.81 19.9-11.1 27.1-2.38 4.03-2.4 3.98 0.958 2.84 11.4-3.88 20.6-10.3 29-20.4 3.26-3.9 2.86-3.69 5.52-2.93 1.22 0.346 4.05 1.08 6.29 1.63 2.24 0.553 3.96 1.04 3.82 1.09-0.14 0.0466-2.86-0.572-6.04-1.38-7.24-1.83-6.29-1.98-9.22 1.52-8.88 10.6-17.6 16.7-29.8 20.9-2.45 0.831-2.57 0.855-2.76 0.543zm66.1-19.1c-0.873-0.0847 2.46-0.154 7.41-0.154 4.97 0 7.93 0.0762 6.61 0.17-2.89 0.207-11.8 0.196-14-0.0165zm-7.41-0.611c-1.02-0.135-2.8-0.41-3.97-0.613-2.22-0.386-1.1-0.321 2.91 0.167 1.31 0.16 3.39 0.381 4.63 0.491l2.25 0.201-1.98-8.6e-4c-1.09-4.8e-4 -2.82-0.111-3.84-0.246zm25.4 0.14c0.728-0.0489 2.81-0.269 4.63-0.489 1.82-0.22 3.84-0.453 4.5-0.518l1.19-0.118-1.19 0.256c-2.05 0.442-7.56 1.05-9.04 1l-1.41-0.0477zm-34.5-1.55c-0.8-0.184-1.16-0.339-0.794-0.343 0.364-5e-3 1.38 0.152 2.25 0.349 0.897 0.202 1.24 0.351 0.794 0.343-0.437-8e-3 -1.45-0.165-2.25-0.349zm46.4 6e-3c0.873-0.197 1.89-0.355 2.25-0.353 0.364 3e-3 -0.0529 0.166-0.926 0.363-0.873 0.197-1.89 0.355-2.25 0.353-0.364-3e-3 0.0529-0.166 0.926-0.363zm8.44-1.71c1.59-0.439 2.93-0.752 2.99-0.697 0.122 0.122-3.66 1.16-4.95 1.35-0.509 0.0777 0.373-0.218 1.96-0.656zm8.22-2.5c26.4-8.77 43.3-25.5 45.8-45.3l0.361-2.91-0.141 2.38c-1.01 17-16.3 34.1-38.9 43.5-2.58 1.08-11.3 4-11.9 3.96-0.158-9e-3 1.97-0.766 4.74-1.68zm46-51.3c-0.0285-0.728-0.108-1.8-0.177-2.38l-0.125-1.06 0.271 1.06c0.149 0.582 0.229 1.65 0.177 2.38l-0.0939 1.32zm-0.809-5.46c-0.189-1.02-0.293-1.91-0.23-1.97 0.0626-0.0626 0.271 0.721 0.464 1.74 0.192 1.02 0.296 1.91 0.23 1.97-0.0658 0.0658-0.275-0.718-0.464-1.74zm-0.943-4.05c-0.255-0.942-0.812-2.45-1.24-3.35-0.426-0.9-0.73-1.68-0.676-1.73 0.054-0.054 0.465 0.707 0.914 1.69 0.856 1.88 1.78 4.79 1.58 4.99-0.0641 0.0641-0.325-0.654-0.58-1.6z" fill="#717071"/><path d="m24.2 195c-0.41-0.494-0.551-0.211 2.99-5.97 4.83-7.85 7.88-14.3 10.1-21.3 0.637-2.04 1.38-4.36 1.66-5.16 0.277-0.8 0.582-2.31 0.677-3.36l0.173-1.9-1.12-0.901c-0.619-0.496-1.92-1.46-2.88-2.14-6.33-4.45-13.3-14.5-16.7-24-2.22-6.27-2.65-15.8-1-21.8 4.62-16.9 16.3-29.6 35.8-39 27.3-13.2 66.6-14.1 94.7-2.36 24.6 10.3 38.9 26.5 41.5 46.9 2.98 23.2-18.4 46.8-51.3 56.4-8.88 2.6-14.4 3.62-26.7 4.9-11.8 1.24-31.8-0.7-43.7-4.23-1.46-0.431-2.83-0.786-3.05-0.787-0.223-2e-3 -1.68 1.46-3.24 3.24-4.38 5-10 9.99-14.9 13.1-4.57 2.95-13.5 7.19-15.1 7.19-0.37 0-1.69 0.293-2.92 0.652-3.18 0.92-4.71 1.09-5.13 0.582zm7.39-3.84c12.2-4.13 20.9-10.3 29.8-20.9 2.92-3.49 2.09-3.33 8.59-1.68 52.8 13.4 109-7.31 117-43.4 6.4-27.9-19.4-54.1-61.5-62.4-10.5-2.08-26.3-2.43-36.9-0.811-35.1 5.32-57.9 19.8-66.6 42.3-6.46 16.8 0.608 36.7 17.5 49.2 1.16 0.866 2.47 1.85 2.91 2.18l0.788 0.608-0.363 1.43c-2.68 10.6-7.61 22.8-12.5 31.2-1.94 3.29-1.93 3.31 1.42 2.17z" fill="#15130b"/></svg>
