<svg width="210mm" height="297mm" version="1.1" viewBox="0 0 210 297" xmlns="http://www.w3.org/2000/svg"><path d="m77.1 187c0-0.0576 1.25-1.98 2.78-4.27 3.28-4.92 3.27-4.85 1.19-5.75-1.95-0.842-1.96-0.664 0.2-3.67 4.32-6 4.38-5.73-1.55-6.33-1.52-0.151-3.41-0.385-4.21-0.52-0.8-0.135-3.42-0.506-5.82-0.823-5.37-0.71-5.09-0.365-3.44-4.17 0.757-1.75 1.31-3.3 1.22-3.44-0.174-0.282-5.47-3.52-6.59-4.03-0.942-0.429-0.928-0.519 0.61-4.05 1.63-3.75 1.64-3.62-0.136-5.23l-1.46-1.33 0.14-15.9 2.91-0.849c1.6-0.467 3.39-1.01 3.97-1.2l1.06-0.348 0.132-3.48c0.157-4.15-0.0343-3.88 2.55-3.53 3.94 0.53 8.17 1.03 10.3 1.21l2.14 0.182 3.33-4.03 1.49-2e-3c0.817-1e-3 7.34-0.0735 14.5-0.161l13-0.158 4.3 4.03h6.99 6.99l1.53-1.83c0.843-1.01 1.68-1.89 1.87-1.98 0.238-0.107 23.2-0.254 26.7-0.171 0.188 5e-3 0.361 1.17 0.483 3.24 0.201 3.44 0.31 3.76 1.38 4.03 0.375 0.0941 2.32 0.773 4.33 1.51l3.65 1.34 0.152 0.568c0.205 0.762 0.196 6.66-0.0112 7.92l-0.165 0.999-2.21 1.46c-2.71 1.78-2.72 1.57 0.173 4.54l2.38 2.44-4e-3 6.55c-5e-3 7.72 0.27 7.03-3.18 7.91-3.23 0.82-3.69 1.19-3.7 2.97-6e-3 1.73-0.137 1.85-3.45 3.2l-2.96 1.21-1.15 3.7-6.59-0.037-4.5-1.28c-2.47-0.701-4.84-1.33-5.25-1.4l-0.751-0.129-2.74 2.71-39.7 0.136-2.07 2.65c-1.14 1.46-3.2 4.21-4.59 6.12l-2.51 3.47-3.36 1.61c-6.89 3.3-10.4 4.79-10.4 4.44z" fill="#f9ca02"/><path d="m77.4 192c0-0.146 0.119-0.265 0.265-0.265s0.265-0.151 0.265-0.335 0.297-0.773 0.661-1.31c0.924-1.36 0.516-1.42-2.26-0.337-2.45 0.957-3.16 0.951-3.16-0.024 0-0.193 1.54-2.59 3.43-5.33 3.97-5.76 3.85-5.39 2.06-6.35-1.81-0.971-1.83-1.32-0.218-3.7 1.62-2.4 1.55-2.59-1.11-2.81-1.05-0.0866-3.98-0.49-6.51-0.897l-4.59-0.739 0.164-1.02c0.203-1.27-0.163-1.76-1.32-1.76-2.51 0-2.84-0.732-1.61-3.58 1.27-2.93 1.25-3.26-0.255-4.17l-1.22-0.735 0.32-1.28-0.861-0.645c-0.474-0.355-1.25-0.844-1.74-1.09-0.481-0.243-1.1-0.67-1.38-0.949l-0.506-0.506 0.356-1c0.196-0.55 0.847-2.06 1.45-3.35 1.35-2.9 1.36-2.65-0.246-4.28l-1.34-1.35 0.0189-8.83c0.0104-4.86 0.109-8.92 0.219-9.03 0.172-0.172 1.86-0.706 6.8-2.15l1.06-0.31 0.265-7.32 0.524-0.382c0.294-0.214 0.817-0.321 1.19-0.244 0.721 0.15 10 1.32 12.5 1.58l1.55 0.16 0.828-0.971c0.456-0.534 1.24-1.42 1.75-1.98l0.926-1.01 30.5-0.365 4.24 4.04h6.22 6.22l1.36-1.65c0.747-0.91 1.55-1.8 1.78-1.98 0.326-0.256 3.74-0.331 15-0.331h14.6l0.161 0.419c0.0883 0.23 0.161 1.07 0.161 1.86v1.45l0.661 0.613c0.516 0.478 0.661 0.874 0.661 1.8 0 1.59 0.297 1.81 4.31 3.12 4.05 1.33 4.16 1.42 4.16 3.42 0 1.19 0.134 1.7 0.594 2.29l0.594 0.755 4e-3 9.64-1.12 0.963c-1.27 1.09-1.34 1.36-0.596 2.57 0.29 0.476 0.529 1.2 0.529 1.6s0.307 1.32 0.682 2.03l0.681 1.3 0.047 7.15c0.0542 8.26 0.333 7.52-3.11 8.23-3.13 0.643-3.32 0.776-3.35 2.35-0.0452 2.1-0.247 2.46-1.57 2.79-0.652 0.167-1.84 0.554-2.64 0.86-0.8 0.306-1.81 0.66-2.24 0.785l-0.782 0.228-0.322 1.59c-0.177 0.872-0.447 1.91-0.6 2.31l-0.278 0.728-2.85-2e-3c-3.22-2e-3 -5.32-0.428-10.4-2.1-3.78-1.25-4.09-1.28-4.65-0.425-0.232 0.355-0.856 0.975-1.39 1.38l-0.962 0.734-19.5 0.0777c-10.7 0.0427-19.6 0.0769-19.9 0.076-0.368-1e-3 -3.16 3.5-7.95 9.98l-1.48 2.01-3.15 1.55c-1.73 0.85-4.28 2.03-5.66 2.63s-2.96 1.31-3.51 1.59c-1.06 0.531-3.63 0.7-3.63 0.238zm-0.565-2.78c1.29-0.509 2.53-0.926 2.76-0.926 0.448 0 5.21-2.2 9.62-4.44 1.84-0.935 2.88-1.64 3.3-2.24 0.335-0.479 1.33-1.77 2.21-2.88s2.42-3.15 3.42-4.55c1-1.4 2.05-2.79 2.33-3.08l0.503-0.54h39.6l1.19-1.32c1.43-1.59 0.854-1.58 5.57-0.138 4.44 1.35 7.96 1.99 11 1.99 2.45 0 2.48-0.0275 3.1-2.47 0.528-2.1 0.567-2.13 4.21-3.48 3.19-1.18 2.81-0.804 3.15-3.1l0.287-1.91 2.97-0.832c1.64-0.457 3.17-0.991 3.4-1.19l0.426-0.353-0.186-14.4-0.785-1.17c-0.432-0.642-1.3-1.73-1.93-2.43-1.35-1.48-1.35-1.47 1.07-3.02l1.87-1.2-0.17-5.45c-0.198-6.38 0.143-5.76-3.88-7.07-1.67-0.547-3.59-1.27-4.27-1.61l-1.22-0.612-0.181-1.67c-0.0996-0.916-0.263-2.5-0.363-3.52l-0.182-1.85-29.2-0.137-1.55 1.83c-2.05 2.43-1.98 2.41-8.77 2.22l-5.74-0.161-4.15-3.94-14.9 0.171c-17.5 0.202-15.6-0.0537-17.5 2.27l-1.54 1.89-1.9-0.183c-1.04-0.101-4.16-0.469-6.92-0.817-4.55-0.574-6.68-0.753-6.79-0.57-0.0221 0.0364-0.111 1.79-0.198 3.89l-0.158 3.82-3.7 1.07c-2.04 0.591-3.85 1.17-4.03 1.29-0.253 0.164-0.331 2.24-0.331 8.87v8.66l1.32 1.3c1.62 1.6 1.62 1.52-0.0112 5.18-1.64 3.68-1.63 3.78 0.557 5.12 0.955 0.588 2.47 1.54 3.36 2.13l1.63 1.06-0.152 1.06c-0.0837 0.582-0.571 2.01-1.08 3.18-0.512 1.16-0.945 2.41-0.964 2.78l-0.0335 0.661 1.85 0.341c2.45 0.451 5.92 0.957 11.2 1.64 5.16 0.659 5.56 0.735 5.56 1.05 0 0.333-2.13 3.9-3.31 5.54-1.17 1.62-1.1 1.92 0.63 2.8 2.04 1.03 2.19 0.657-3.86 9.26-2.43 3.46-2.23 3.7 1.74 2.13zm1.02-3.64c0.118-0.182 1.2-1.82 2.39-3.64 2.44-3.7 2.47-3.79 1.45-4.35-0.865-0.469-0.641-0.546 0.318-0.109 0.371 0.169 0.674 0.503 0.674 0.743 0 0.429-4.64 7.68-4.91 7.68-0.0774 0-0.0443-0.149 0.0735-0.331zm19.7-13.6c0.213-0.255 0.897-1.09 1.52-1.85l1.13-1.39h39.5l2.93-2.78-2.89 3.04h-39.5l-1.37 1.72c-0.753 0.946-1.44 1.72-1.52 1.72-0.0828 0 0.0238-0.208 0.237-0.463zm57.5-2.88c1.85-0.195 4.57-0.213 4.46-0.0301-0.0679 0.109-1.28 0.179-2.69 0.156-1.41-0.0233-2.21-0.08-1.77-0.126zm-93.9-14.5c-0.805-0.419-1.25-0.819-1.23-1.11l0.0307-0.458 0.114 0.429c0.0629 0.236 0.591 0.643 1.17 0.906 0.582 0.262 1.12 0.576 1.19 0.696 0.184 0.298 0.145 0.284-1.29-0.46zm113-9.69c-0.0709-0.976-0.0332-1.68 0.0838-1.56 0.117 0.118 0.175 0.916 0.129 1.77l-0.0838 1.56zm-113-0.291-1.12-1.14 0.14-15.8 0.7-0.335c0.385-0.184 1.1-0.398 1.59-0.474 0.549-0.0857 0.333 0.0443-0.567 0.341l-1.46 0.48-0.14 15.8 1.12 1.14c0.615 0.626 1.06 1.14 0.985 1.14-0.0728 0-0.635-0.512-1.25-1.14zm110-4.69c-1.23-1.24-1.52-1.68-1.31-2 0.272-0.424 1.98-1.59 1.98-1.35 0 0.0752-0.417 0.394-0.926 0.709-1.22 0.755-1.19 0.912 0.587 2.7 0.832 0.841 1.45 1.53 1.38 1.53-0.0728 0-0.841-0.716-1.71-1.59zm0.93-3.52c0-0.0616 0.469-0.437 1.04-0.835 0.667-0.462 1.08-0.976 1.15-1.43l0.108-0.702 0.0396 0.696c0.0286 0.503-0.199 0.875-0.82 1.34-1.04 0.782-1.52 1.07-1.52 0.924zm-104-11.1 0.728-0.266 0.0924-2.47 0.104 1.18c0.109 1.23-0.331 1.89-1.24 1.84-0.227-0.0115-0.085-0.14 0.315-0.287zm14.8-5.97 1.23-0.0981 3.26-3.94 3.27 0.102-3.26 0.187-3.26 3.94-2.48-0.0954zm37.7-0.27c-0.0676-0.109 3.04-0.165 6.91-0.124l7.03 0.0747 1.9-1.74-1.82 1.98h-6.94c-3.82 0-7-0.0893-7.07-0.198zm44.6-1.83c-0.033-1.23-0.168-1.94-0.382-2.03-0.259-0.105-0.257-0.138 8e-3 -0.154 0.506-0.0312 0.624 0.514 0.519 2.39l-0.0949 1.69zm-46.8-0.154-1.65-1.65-9.12-0.289 8.93-0.108 1.89 1.85c1.04 1.02 1.83 1.85 1.75 1.85-0.0742 2e-3 -0.879-0.74-1.79-1.65zm-24.3-1.72c1.43-0.0477 3.69-0.0474 5.03 4.7e-4 1.34 0.0479 0.171 0.0869-2.59 0.0867-2.76-2.5e-4 -3.86-0.0395-2.43-0.0871zm43.9-0.129c0.168-0.107 6.14-0.17 13.3-0.14 7.13 0.0297 11.4 0.0868 9.39 0.127-8.87 0.181-22.9 0.19-22.7 0.0135z" fill="#6f6e6f"/><path d="m73.4 190c0-0.191 0.749-1.41 1.66-2.71 6.06-8.6 5.9-8.23 3.86-9.26-1.73-0.876-1.8-1.18-0.63-2.8 1.18-1.64 3.31-5.2 3.31-5.54 0-0.312-0.4-0.387-5.56-1.05-5.33-0.681-8.8-1.19-11.2-1.64l-1.85-0.341 0.0335-0.661c0.0184-0.364 0.452-1.61 0.964-2.78 0.512-1.16 0.999-2.59 1.08-3.18l0.152-1.06-1.63-1.06c-0.896-0.582-2.41-1.54-3.36-2.13-2.18-1.34-2.2-1.45-0.557-5.12 1.63-3.67 1.63-3.59 0.0112-5.18l-1.32-1.3v-8.66c0-6.64 0.0772-8.71 0.331-8.87 0.182-0.118 2-0.697 4.03-1.29l3.7-1.07 0.158-3.82c0.087-2.1 0.176-3.85 0.198-3.89 0.111-0.183 2.23-4e-3 6.79 0.57 2.76 0.349 5.88 0.717 6.92 0.817l1.9 0.183 1.54-1.89c1.9-2.33-0.0631-2.07 17.5-2.27l14.9-0.171 4.15 3.94 5.74 0.161c6.79 0.19 6.72 0.209 8.77-2.22l1.55-1.83 29.2 0.137 0.182 1.85c0.1 1.02 0.264 2.6 0.363 3.52l0.181 1.67 1.22 0.612c0.673 0.337 2.59 1.06 4.27 1.61 4.02 1.32 3.68 0.694 3.88 7.07l0.17 5.45-1.87 1.2c-2.41 1.55-2.41 1.54-1.07 3.02 0.631 0.693 1.5 1.79 1.93 2.43l0.785 1.17 0.186 14.4-0.426 0.353c-0.234 0.194-1.76 0.728-3.4 1.19l-2.97 0.832-0.287 1.91c-0.345 2.3 0.035 1.92-3.15 3.1-3.65 1.35-3.69 1.38-4.21 3.48-0.614 2.44-0.648 2.47-3.1 2.47-3.02 0-6.54-0.638-11-1.99-4.72-1.44-4.15-1.45-5.57 0.138l-1.19 1.32h-39.6l-0.503 0.54c-0.277 0.297-1.32 1.68-2.33 3.08-1 1.4-2.54 3.45-3.42 4.55s-1.87 2.4-2.21 2.88c-0.418 0.596-1.46 1.3-3.3 2.24-4.4 2.24-9.17 4.44-9.62 4.44-0.231 0-1.47 0.417-2.76 0.926-2.49 0.986-3.4 1.14-3.4 0.578zm8.54-4.32c2.07-0.956 4.95-2.32 6.41-3.02l2.65-1.29 1.84-2.59c1.01-1.42 3.07-4.17 4.58-6.1l2.74-3.51h39.5l2.95-2.92 2.24 0.673c1.23 0.37 3.67 1.05 5.41 1.51l3.18 0.833 6.06 0.0372 0.447-1.19c0.246-0.655 0.549-1.54 0.673-1.97l0.226-0.777 2.51-0.956c3.72-1.41 3.64-1.35 3.83-3.11 0.237-2.19 0.281-2.23 3.53-3.11 1.62-0.437 3-0.865 3.09-0.951 0.081-0.0866 0.194-3.22 0.251-6.95l0.104-6.8-2.29-2.4c-2.79-2.92-2.78-2.8-0.173-4.54l2.12-1.41v-9.74l-4.23-1.51c-5.55-1.98-5-1.42-5.16-5.29l-0.132-3.28-13.5-0.0635c-7.42-0.0349-13.6 0.0246-13.8 0.132-0.146 0.108-0.959 0.999-1.81 1.98l-1.54 1.79h-14l-4.15-3.95-29 0.298-0.661 0.71c-0.364 0.391-1.15 1.29-1.74 2l-1.08 1.29-3.94-0.334c-2.17-0.184-4.9-0.494-6.06-0.69-1.92-0.322-3.69-0.484-4.56-0.416-0.229 0.0178-0.331 0.574-0.333 1.81-1e-3 0.982-0.0774 2.59-0.17 3.56l-0.168 1.78-1.62 0.528c-0.889 0.291-2.57 0.779-3.73 1.08-3.04 0.801-2.78-0.0124-2.78 8.98v7.87l3.18 2.99-0.365 0.86c-0.201 0.473-0.857 2.01-1.46 3.41-1.34 3.12-1.34 3.01 0.0309 3.7 2.08 1.05 6.07 3.51 6.19 3.8 0.0624 0.163-0.492 1.71-1.23 3.43-1.63 3.81-1.89 3.51 3.62 4.27 7.91 1.09 10.2 1.41 12.3 1.66 3.03 0.369 3.03 0.377-0.349 5.06-2.72 3.78-2.7 3.6-0.71 4.56 1.92 0.926 1.97 0.701-1.28 5.64-3.66 5.57-3.79 5.42 2.32 2.6z" fill="#1a180e"/></svg>
