<?xml version="1.0" encoding="UTF-8" standalone="no"?>
<!-- Created with Inkscape (http://www.inkscape.org/) -->

<svg
   width="210mm"
   height="297mm"
   viewBox="0 0 210 297"
   version="1.1"
   id="svg1"
   sodipodi:docname="TECH.svg"
   xml:space="preserve"
   inkscape:version="1.4.4 (dcaf3e7, 2026-05-05)"
   xmlns:inkscape="http://www.inkscape.org/namespaces/inkscape"
   xmlns:sodipodi="http://sodipodi.sourceforge.net/DTD/sodipodi-0.dtd"
   xmlns="http://www.w3.org/2000/svg"
   xmlns:svg="http://www.w3.org/2000/svg"><sodipodi:namedview
     id="namedview1"
     pagecolor="#ffffff"
     bordercolor="#000000"
     borderopacity="0.25"
     inkscape:showpageshadow="2"
     inkscape:pageopacity="0.0"
     inkscape:pagecheckerboard="0"
     inkscape:deskcolor="#d1d1d1"
     inkscape:document-units="mm"
     inkscape:zoom="0.47571549"
     inkscape:cx="365.76484"
     inkscape:cy="279.57887"
     inkscape:window-width="1280"
     inkscape:window-height="778"
     inkscape:window-x="-6"
     inkscape:window-y="-6"
     inkscape:window-maximized="1"
     inkscape:current-layer="layer1" /><defs
     id="defs1" /><g
     inkscape:label="Layer 1"
     inkscape:groupmode="layer"
     id="layer1"><g
       id="g36"><path
         style="fill:#facb02"
         d="m 86.480306,169.91274 c -0.06822,-0.0689 0.50512,-0.77789 1.274095,-1.57558 2.054145,-2.13085 5.631436,-7.16789 5.631436,-7.9294 0,-0.18125 -0.652762,-0.99793 -1.479243,-1.85071 -10.259976,-10.58639 -14.518469,-29.96632 -10.23728,-46.58873 4.523798,-17.564367 15.603294,-28.263891 28.795836,-27.808275 14.08042,0.48628 24.81322,13.084846 28.41437,33.353865 l 0.29749,1.67444 0.002,5.94427 c 0.002,4.19878 -0.0634,6.33762 -0.22186,7.28382 -0.12334,0.73676 -0.37075,2.20608 -0.54978,3.26517 -3.77448,22.32782 -19.71414,35.95905 -35.89901,30.7 l -1.34234,-0.43617 -1.207675,0.60818 c -3.710558,1.86861 -12.728671,4.11611 -13.478449,3.35912 z"
         id="path38" /><path
         style="fill:#6e6d6e"
         d="m 86.27483,175.37458 c -0.05023,-0.0813 0.08723,-0.36137 0.305484,-0.62243 0.21825,-0.26105 0.450011,-0.64459 0.515023,-0.8523 0.06501,-0.20771 0.314789,-0.61128 0.555058,-0.89682 0.339199,-0.40312 0.397538,-0.58071 0.260977,-0.79446 l -0.175877,-0.27529 -2.287662,0.0626 -2.287662,0.0626 -0.329104,-0.29783 c -0.620483,-0.56153 -0.416109,-0.918 1.774487,-3.095 3.108142,-3.08886 6.101175,-6.76319 6.101175,-7.48997 0,-0.22034 -0.66633,-1.22248 -4.198644,-6.31467 -15.202781,-21.91635 -9.029677,-58.636779 11.733635,-69.796988 16.7142,-8.983823 35.2379,2.82366 41.44435,26.417688 4.34371,16.51276 3.3574,31.62752 -2.87025,43.9852 -5.61933,11.15059 -14.69576,17.48812 -25.01112,17.46377 l -3.09772,-0.007 -1.59072,-0.3893 c -0.87489,-0.21411 -2.02171,-0.56873 -2.54848,-0.78804 -1.25017,-0.5205 -1.52802,-0.50551 -2.99813,0.16168 -3.135532,1.42302 -8.0009,2.71367 -12.064001,3.20025 -1.227339,0.14698 -2.435817,0.30036 -2.685506,0.34085 -0.249688,0.0405 -0.495079,0.007 -0.545313,-0.0742 z m 1.166737,-3.77105 c 4.443423,-0.12163 9.393296,-1.35664 13.179973,-3.28846 l 0.66846,-0.34103 1.61544,0.50597 c 2.69625,0.84447 3.38384,0.93651 6.97365,0.93344 l 3.34889,-0.003 1.42327,-0.38493 c 16.04912,-4.34047 26.96482,-22.75941 26.58191,-44.85381 l -0.0748,-4.31372 -0.36832,-2.00933 c -0.53066,-2.89493 -1.01536,-5.2816 -1.1902,-5.86055 C 134.2926,94.413962 125.94282,84.952486 113.73031,82.674378 l -1.507,-0.281113 -2.84655,0.09109 c -13.779855,0.440935 -24.498992,10.998509 -29.275372,28.83412 -4.396505,16.41711 -1.126735,33.31593 9.067274,46.86146 1.030126,1.3688 1.872956,2.59698 1.872956,2.72928 0,0.95861 -2.716497,4.4041 -6.181225,7.84002 -2.487879,2.46718 -2.664817,3.24638 -0.683988,3.01215 0.414424,-0.049 1.883747,-0.12004 3.265162,-0.15785 z m -1.255832,-1.71225 c 0,-0.18179 0.291432,-0.56409 0.64915,-0.85156 1.398387,-1.12377 6.383508,-7.81666 6.383508,-8.57032 0,-0.12266 -0.621637,-0.87119 -1.381415,-1.66339 -10.8755,-11.33967 -14.911318,-31.53626 -9.7761,-48.9229 9.406111,-31.846874 40.329952,-35.250131 53.142292,-5.84846 1.86695,4.28427 3.43974,9.91484 3.78854,13.56298 l 0.0881,0.92094 -0.16728,-0.83722 c -0.092,-0.46047 -0.31834,-1.62839 -0.50298,-2.59538 C 135.39252,99.285744 125.94023,87.074176 114.868,84.672308 109.63031,83.53611 103.78335,84.250554 99.413829,86.560664 77.419524,98.188769 73.143496,139.19702 91.906594,158.55705 c 0.826481,0.85278 1.479243,1.66946 1.479243,1.85071 0,0.76366 -3.578176,5.79947 -5.641969,7.94033 -1.579199,1.63816 -1.572994,1.7502 0.08772,1.58392 4.136796,-0.41421 8.846357,-1.7262 12.127165,-3.37839 l 1.207675,-0.60818 1.34234,0.43617 c 16.10827,5.23416 31.56316,-7.82226 35.84409,-30.28139 0.21065,-1.10513 0.38885,-1.82096 0.39599,-1.59072 0.007,0.23023 -0.20677,1.47351 -0.47537,2.76283 -4.53649,21.7756 -20.40921,34.76212 -35.82485,29.31067 -1.04975,-0.37122 -1.31726,-0.33473 -2.897149,0.39518 -3.573669,1.65104 -8.020934,2.81957 -11.900609,3.12692 l -1.465137,0.11607 z m 52.660185,-36.55389 c 0.40353,-4.5556 0.45078,-5.78037 0.38762,-10.04666 -0.0499,-3.36955 -0.0275,-4.32923 0.0763,-3.26516 0.21782,2.23414 0.0127,11.45259 -0.28688,12.89321 -0.17128,0.82364 -0.2239,0.94809 -0.177,0.41861 z M 59.562103,81.615035 v -0.520247 h 1.339554 c 1.613655,0 1.648646,0.05743 0.293027,0.480924 -0.575589,0.179815 -1.178388,0.379279 -1.339553,0.443253 l -0.293028,0.116317 z"
         id="path37"
         inkscape:label="bubble-shadow" /><path
         style="fill:#13120a"
         d="m 83.129878,171.67426 c -0.629328,-0.37848 -0.333956,-0.87773 1.730515,-2.92503 3.464728,-3.43592 6.181225,-6.88141 6.181225,-7.84002 0,-0.1323 -0.84283,-1.36048 -1.872956,-2.72928 C 78.974653,144.6344 75.704883,127.73558 80.101388,111.31847 84.877768,93.482859 95.596905,82.925285 109.37676,82.48435 l 2.84655,-0.09109 1.507,0.281113 c 8.89713,1.65966 16.03121,7.562409 21.56626,17.843942 1.36018,2.52659 2.60233,5.83737 4.30331,11.46993 0.17484,0.57895 0.65954,2.96562 1.1902,5.86055 l 0.36832,2.00933 0.0748,4.31372 c 0.38291,22.0944 -10.53279,40.51334 -26.58191,44.85381 l -1.42327,0.38493 -3.34889,0.003 c -3.58981,0.003 -4.2774,-0.089 -6.97365,-0.93344 l -1.61544,-0.50597 -0.66846,0.34103 c -3.786677,1.93182 -8.73655,3.16683 -13.179973,3.28846 -1.381415,0.0378 -2.850738,0.10884 -3.265162,0.15785 -0.414425,0.049 -0.885362,0.01 -1.046527,-0.0871 z m 7.356098,-1.92125 c 3.099547,-0.53401 6.405556,-1.54593 9.065505,-2.77483 1.579889,-0.72991 1.847399,-0.7664 2.897149,-0.39518 16.35017,5.78193 32.33969,-8.4882 36.42033,-32.50395 l 0.45321,-2.66727 0.0136,-6.02799 0.0136,-6.028 -0.30726,-1.84188 C 135.57557,96.733864 123.59998,83.400735 108.92764,83.985806 95.866373,84.506635 85.31893,95.590619 81.176841,113.14827 c -3.824745,16.21249 0.601362,35.16966 10.660137,45.65774 0.759778,0.7922 1.381415,1.54073 1.381415,1.66339 0,0.75366 -4.985121,7.44655 -6.383508,8.57032 -0.357718,0.28747 -0.64915,0.66977 -0.64915,0.85156 v 0.32989 l 1.465137,-0.11607 c 0.805826,-0.0638 2.081622,-0.22228 2.835104,-0.35209 z"
         id="path36" /></g></g></svg>
