<?xml version="1.0" encoding="UTF-8" standalone="no"?>
<!-- Created with Inkscape (http://www.inkscape.org/) -->

<svg
   width="210mm"
   height="297mm"
   viewBox="0 0 210 297"
   version="1.1"
   id="svg1"
   sodipodi:docname="Rounded.svg"
   xml:space="preserve"
   inkscape:version="1.4.4 (dcaf3e7, 2026-05-05)"
   xmlns:inkscape="http://www.inkscape.org/namespaces/inkscape"
   xmlns:sodipodi="http://sodipodi.sourceforge.net/DTD/sodipodi-0.dtd"
   xmlns="http://www.w3.org/2000/svg"
   xmlns:svg="http://www.w3.org/2000/svg"><sodipodi:namedview
     id="namedview1"
     pagecolor="#ffffff"
     bordercolor="#000000"
     borderopacity="0.25"
     inkscape:showpageshadow="2"
     inkscape:pageopacity="0.0"
     inkscape:pagecheckerboard="0"
     inkscape:deskcolor="#d1d1d1"
     inkscape:document-units="mm"
     inkscape:zoom="0.6727633"
     inkscape:cx="252.68917"
     inkscape:cy="597.53557"
     inkscape:window-width="1280"
     inkscape:window-height="778"
     inkscape:window-x="-6"
     inkscape:window-y="-6"
     inkscape:window-maximized="1"
     inkscape:current-layer="g24" /><defs
     id="defs1" /><g
     inkscape:label="Layer 1"
     inkscape:groupmode="layer"
     id="layer1"><g
       id="g24"><path
         id="path27"
         style="fill:#9e9e9e"
         d="M 101.63566 107.84871 C 95.865647 107.79793 90.070862 110.32824 86.274837 115.45704 C 85.401218 116.63739 85.593618 116.61366 83.968518 115.74229 C 74.302743 110.55955 63.329748 114.54524 60.108993 124.40894 L 59.851127 125.19856 L 58.353027 125.28176 C 50.688611 125.70959 45.61855 133.04416 47.764526 140.59865 L 47.855994 140.92111 L 46.828666 141.75465 C 40.010945 147.28618 40.627741 156.53987 48.200675 162.33066 L 49.410937 163.25618 L 49.765955 164.1073 L 50.120972 164.95892 L 49.826416 166.18934 C 48.61979 171.23204 50.673545 176.12299 55.256576 179.12085 C 56.17035 179.71857 56.726553 180.21711 57.163436 180.82927 C 58.390059 182.54798 60.594567 183.9236 62.996155 184.46936 L 64.510791 184.81353 L 66.598519 184.73394 L 68.686764 184.65436 L 69.171488 185.3613 C 69.438092 185.75012 70.162902 186.64464 70.78276 187.34929 C 71.402617 188.05394 72.264171 189.1673 72.696855 189.82356 C 76.653867 195.82521 85.023738 197.6327 91.964929 193.98454 L 93.144185 193.36494 L 94.663989 194.88991 C 97.203935 197.43943 100.30283 198.89367 104.12594 199.33047 C 108.33451 199.81132 113.31181 197.98975 116.78667 194.69664 C 118.38205 193.18469 118.09126 193.2624 119.33742 194.014 C 126.9884 198.62852 137.84273 194.68037 140.81569 186.20155 L 141.22342 185.0378 L 144.15089 185.01816 L 147.07836 184.99904 L 148.5284 184.49417 C 155.51327 182.06408 159.24012 176.68187 158.99391 169.37984 L 158.9226 167.26576 L 158.29318 165.26123 C 157.94673 164.15851 157.54802 162.73557 157.40745 162.09915 L 157.15165 160.9416 L 158.78256 159.26676 C 163.45224 154.47091 164.83814 149.36054 163.11666 143.28376 C 162.9124 142.56275 162.67419 141.31354 162.58749 140.5077 C 161.69866 132.25134 155.53235 126.00783 147.73362 125.46831 C 146.04493 125.35148 146.1605 125.44038 145.5968 123.83068 C 141.90681 113.29354 128.37262 109.373 118.76588 116.05855 C 117.63685 116.84427 117.64717 116.84633 116.84972 115.72627 C 113.15122 110.53151 107.40566 107.8995 101.63566 107.84871 z M 100.7985 108.11433 C 102.96011 108.09246 105.14707 108.43794 107.25082 109.15148 C 108.65332 109.62717 110.01897 110.26639 111.31517 111.06971 C 110.01897 110.26644 108.65331 109.62711 107.25082 109.15148 C 100.23846 106.77333 92.300104 108.48654 87.464945 114.24987 C 90.849551 110.21533 95.754746 108.16536 100.7985 108.11433 z M 101.10494 108.366 C 106.76013 108.30815 112.49164 110.78168 116.25957 115.8074 C 117.61322 117.61292 117.53862 117.57886 118.51318 116.83473 C 127.70938 109.8129 141.57367 113.6258 145.14721 124.15935 C 145.7783 126.01952 145.5966 125.89168 147.80803 126.03158 C 154.40322 126.4488 159.49158 130.81518 161.62218 137.88564 C 161.71164 138.18253 161.85662 138.946 161.94412 139.58218 C 162.03158 140.21837 162.18175 141.2856 162.27795 141.95413 C 162.8747 146.10084 159.99194 152.03032 155.59929 155.69127 C 154.60929 156.51636 154.55374 156.6953 155.07632 157.38057 C 155.72954 158.23715 156.45251 159.84226 156.64625 160.86563 C 156.75063 161.41699 156.95481 162.38848 157.09997 163.02467 C 157.30084 163.9049 157.34612 164.62387 157.28962 166.03224 L 157.21521 167.88278 L 156.72222 169.2708 C 153.99673 176.94234 146.63486 181.912 139.91704 180.61533 C 138.97215 180.43295 138.88828 180.49504 138.50731 181.66075 C 136.59312 187.51797 130.65962 191.69871 124.24565 191.70871 C 121.42782 191.71311 117.98208 190.68364 116.52105 189.40084 C 115.80534 188.77243 115.67848 188.80241 114.92735 189.77601 C 112.7153 192.64324 109.33866 194.47465 104.9693 195.17775 C 100.18884 195.947 94.719916 193.83738 91.772693 190.08711 C 90.921419 189.00389 90.754937 188.93388 90.123698 189.39309 C 89.575426 189.79195 86.309872 191.17522 85.618547 191.3015 C 85.321659 191.35573 84.766226 191.46723 84.384513 191.54903 C 79.217479 192.65618 73.286418 190.21679 70.000378 185.63363 C 69.641316 185.13284 69.166517 184.50823 68.945146 184.2456 C 68.723774 183.98297 68.312018 183.07434 68.030473 182.22609 C 67.748927 181.37784 67.439893 180.595 67.343693 180.48666 L 67.169027 180.28977 L 66.176322 180.5559 C 65.460369 180.74785 64.581192 180.82215 63.02406 180.82255 L 60.865019 180.82307 L 59.198454 180.41948 C 58.028867 180.13599 57.293056 179.85848 56.730904 179.4893 C 56.290334 179.19997 55.535486 178.70336 55.053487 178.38549 C 51.169535 175.82413 49.184331 170.85811 50.300289 166.49475 C 50.469939 165.83143 50.611265 165.14344 50.613965 164.96616 C 50.616662 164.78887 50.720935 164.50915 50.845475 164.34449 C 51.23274 163.83248 51.118409 163.68867 49.413521 162.53633 C 43.166734 158.3141 41.068665 152.4516 43.690873 146.54609 C 44.427945 144.88612 47.33611 141.43271 47.99707 141.43271 C 48.28547 141.43271 48.452101 140.84209 48.286458 140.40642 C 45.763833 133.77141 51.382386 125.85588 58.61451 125.85588 L 59.968949 125.85588 L 60.194775 125.58613 C 60.31906 125.43769 60.546533 124.89981 60.700171 124.39086 C 63.506332 115.09505 74.26064 111.26712 83.708586 116.20118 C 85.741856 117.26302 85.624058 117.26669 86.407646 116.11281 C 89.870782 111.01311 95.449746 108.42384 101.10494 108.366 z M 101.5013 109.86254 C 100.69553 109.8614 99.884977 109.92121 99.074056 110.04445 C 93.938341 110.82496 90.936741 112.71771 87.68302 117.22644 C 86.221519 119.25167 86.05971 119.38922 85.529663 119.05733 C 85.337677 118.93712 84.539191 118.43202 83.755611 117.93544 C 79.092074 114.98 73.378474 114.66136 68.782882 117.09983 C 64.887165 119.16695 63.059501 121.66269 61.71768 126.74834 L 61.543014 127.40979 L 59.815987 127.30644 L 58.088961 127.20309 L 56.77793 127.5395 C 50.977686 129.02747 47.666772 135.56346 50.216056 140.49323 C 50.6298 141.29332 50.486675 141.58509 49.294666 142.37167 C 43.261748 146.35265 42.735571 153.32053 47.099451 158.39085 C 46.472292 157.64616 45.963193 156.81914 45.487663 155.81219 C 43.202755 150.97384 44.757934 145.60575 49.325671 142.56649 L 50.637219 141.69419 L 50.563322 141.2167 C 50.522766 140.95401 50.300493 140.21837 50.069295 139.58218 C 48.16787 134.35004 51.624233 128.75649 57.468327 127.60823 L 58.779875 127.35088 L 59.976701 127.51986 L 61.173527 127.68885 L 61.508907 127.47026 C 61.738593 127.32079 61.901791 126.97178 62.028255 126.36128 C 64.083558 116.43929 76.237886 112.29728 84.589669 118.67234 C 86.078182 119.80854 86.01472 119.82973 87.544527 117.67447 C 90.946704 112.88135 93.978016 110.97768 99.470414 110.18501 C 105.58286 109.30286 112.05601 112.43814 115.78725 118.0884 C 117.19662 120.22263 117.09199 120.19086 118.64909 118.95966 C 125.00374 113.93505 132.81939 113.63647 138.85922 118.18762 C 141.39561 120.09885 143.50033 123.49652 143.99173 126.4729 C 144.05475 126.85461 144.16529 127.27933 144.23719 127.41651 L 144.36793 127.66559 L 146.80293 127.75293 L 149.2374 127.83974 L 150.47092 128.21646 C 162.13258 131.77678 163.79788 147.28083 153.36273 155.13988 C 151.85 156.27917 151.87614 156.10994 152.96379 157.76143 C 158.07512 165.52247 154.50928 175.27117 145.44797 178.30901 L 143.99379 178.79684 L 142.21974 178.8666 C 140.84632 178.92093 140.15032 178.87123 139.13518 178.64594 C 137.48005 178.2786 137.33283 178.31272 137.11514 179.11361 C 135.64417 184.52548 133.82314 186.89046 129.81843 188.58797 C 125.11776 190.58047 120.79482 190.09762 116.63939 187.11623 C 115.34131 186.18494 115.2629 186.18734 114.57492 187.18289 C 112.39847 190.33232 109.33977 192.38133 105.61939 193.18149 C 103.87746 193.55614 101.20704 193.44291 99.421838 192.91846 C 96.466658 192.0503 93.979802 190.16312 92.396427 187.58803 C 91.501228 186.13215 91.548409 186.13604 89.67618 187.38391 C 83.202627 191.69862 74.679075 190.11502 71.001868 183.91436 C 70.192631 182.54979 69.27019 180.06622 69.27019 179.25107 C 69.27019 179.01648 69.15779 178.66375 69.020076 178.46714 C 68.731835 178.05562 68.707373 178.05742 66.417135 178.6754 L 64.87511 179.09191 L 62.947062 179.00406 C 54.386014 178.61515 49.795031 172.26905 52.701693 164.84213 C 53.009889 164.05464 53.27249 163.23673 53.28512 163.02467 L 53.307857 162.63917 L 52.305334 162.12034 C 49.889087 160.8703 48.371656 159.83933 47.246729 158.56758 C 48.38451 159.84477 49.823551 161.00135 51.585482 161.94464 C 53.382665 162.90681 53.376881 162.89665 52.798328 164.04942 C 49.063124 171.49182 54.047732 178.86223 63.02406 179.16891 L 65.029106 179.23712 L 66.494132 178.85575 C 67.29997 178.64583 68.105476 178.42784 68.283687 178.37154 C 68.767114 178.21881 69.057097 178.61549 69.170972 179.58439 C 70.266101 188.90223 82.584998 193.238 90.421871 187.06403 C 91.269451 186.3963 91.504565 186.47133 92.237781 187.64074 C 94.170961 190.72397 97.418529 192.91339 100.7923 193.40783 C 106.18558 194.19825 111.65597 191.84947 114.53203 187.50845 C 115.23813 186.44267 115.42183 186.41827 116.49935 187.24645 C 117.57051 188.06975 119.78544 189.14248 121.32231 189.58274 L 122.55583 189.93621 L 124.48387 189.91709 L 126.41141 189.89745 L 127.78445 189.48714 C 133.09076 187.90128 136.04428 184.76639 137.14202 179.55493 C 137.35827 178.52831 137.47242 178.48694 139.14913 178.82733 C 150.77596 181.18764 159.82217 167.66998 153.20202 157.82809 C 152.08703 156.17047 152.07561 156.25146 153.57564 155.159 C 163.86317 147.66671 162.28132 131.96259 150.85591 128.16014 L 149.3914 127.67283 L 146.94038 127.57413 L 144.48885 127.47542 L 144.37052 127.24391 C 144.30533 127.11667 144.10133 126.35321 143.91731 125.54738 C 141.80644 116.30385 129.66556 111.81553 121.00295 117.07606 C 120.1499 117.59409 119.61197 117.98295 117.95611 119.27954 C 117.21205 119.86216 117.12257 119.80683 115.95313 118.03879 C 112.53277 112.86766 107.14166 109.87057 101.5013 109.86254 z M 47.246729 158.56758 C 47.195077 158.5096 47.149795 158.44934 47.099451 158.39085 C 47.148651 158.44927 47.195963 158.51019 47.246729 158.56758 z M 129.49597 113.13521 L 132.42654 113.13935 L 133.66058 113.49591 C 137.23713 114.52964 140.16394 116.3071 142.28951 118.69405 C 140.16391 116.30723 137.23698 114.53011 133.66058 113.49643 L 132.42654 113.13986 L 129.49597 113.13573 C 126.70326 113.13222 124.5195 113.47887 122.4194 114.33669 C 121.15934 114.85138 119.92947 115.55051 118.61653 116.46783 C 118.34847 116.65512 118.15962 116.79933 118.00882 116.88744 C 118.15963 116.79932 118.34847 116.6546 118.61653 116.46731 C 119.92947 115.54999 121.15939 114.85148 122.4194 114.33669 C 124.51942 113.4787 126.70326 113.13146 129.49597 113.13521 z M 74.893103 113.72949 C 77.830627 113.68218 80.916825 114.40516 83.887386 115.99189 C 84.807125 116.48317 85.231199 116.71337 85.504342 116.69882 C 85.552543 116.69625 85.595941 116.68604 85.636633 116.66833 C 85.595928 116.68605 85.552557 116.69624 85.504342 116.69882 C 85.231123 116.71342 84.807125 116.48368 83.887386 115.9924 C 79.728601 113.77099 75.342727 113.24197 71.456104 114.15014 C 72.566589 113.89064 73.718093 113.74842 74.893103 113.72949 z M 66.791272 116.08955 C 65.841061 116.68754 64.95684 117.39385 64.155774 118.2026 C 62.553642 119.82011 61.283533 121.84729 60.481063 124.23634 C 61.283533 121.84729 62.553608 119.82015 64.155774 118.2026 C 64.956857 117.39383 65.84104 116.68756 66.791272 116.08955 z M 85.789079 116.55723 C 85.752413 116.59496 85.716075 116.6254 85.676941 116.64818 C 85.715837 116.62549 85.75262 116.59472 85.789079 116.55723 z M 117.85275 116.96185 C 117.78875 116.98382 117.7307 116.9904 117.67292 116.97994 C 117.73071 116.99039 117.78875 116.98382 117.85275 116.96185 z M 145.9792 125.3939 C 146.01193 125.42836 146.04622 125.45834 146.08307 125.48485 C 146.04622 125.45836 146.01193 125.42834 145.9792 125.3939 z M 60.066618 125.46986 L 60.066618 125.47038 L 58.384033 125.57218 C 56.329453 125.69653 54.455311 126.35141 52.853621 127.36535 C 54.455416 126.35124 56.329293 125.69602 58.384033 125.57166 L 60.066618 125.46986 z M 146.20193 125.55409 C 146.30807 125.60369 146.43375 125.63433 146.59105 125.65641 C 146.43376 125.63435 146.30805 125.60366 146.20193 125.55409 z M 151.75715 126.57625 C 153.48738 127.17855 155.06941 128.07494 156.45505 129.21744 C 155.06954 128.075 153.4872 127.17858 151.75715 126.57625 z M 51.486263 128.35806 C 51.178053 128.62282 50.884366 128.90331 50.60673 129.19728 C 50.884453 128.90319 51.177945 128.62292 51.486263 128.35806 z M 159.97421 133.33656 C 161.15476 135.32124 161.95296 137.61647 162.27433 140.12995 C 161.95291 137.61667 161.15467 135.32115 159.97421 133.33656 z M 48.145382 140.88081 L 48.145382 140.88132 L 46.69069 142.23731 L 48.145382 140.88081 z M 50.4486 164.11505 C 50.4282 164.15316 50.408973 164.20209 50.391239 164.25767 C 50.355816 164.3687 50.327257 164.50692 50.312174 164.6406 C 50.327233 164.50675 50.355781 164.36885 50.391239 164.25767 C 50.408969 164.20209 50.4282 164.15316 50.4486 164.11505 z M 158.32884 173.21733 C 157.93049 175.06989 157.22038 176.87112 156.24989 178.30023 C 155.97425 178.70614 155.68373 179.05349 155.39723 179.41592 C 156.77809 177.62515 157.80258 175.4439 158.32884 173.21733 z M 155.23083 179.63348 C 155.00772 179.90687 154.77726 180.16698 154.54561 180.41534 C 154.78095 180.16373 155.01215 179.90619 155.23083 179.63348 z M 154.0738 180.88715 C 152.90951 182.02167 151.63768 182.90255 150.14122 183.49371 C 150.84275 183.17615 151.54837 182.78059 152.31835 182.2943 C 152.94179 181.90056 153.52294 181.41735 154.0738 180.88715 z M 55.414705 183.55417 C 54.887286 183.56881 54.369277 183.64372 53.871647 183.78568 C 47.048245 185.73227 45.750296 194.004 51.645426 197.97396 C 52.688105 198.67614 52.721475 198.71388 52.918734 199.42504 C 53.22851 200.54185 54.89077 201.733 56.683879 202.12306 C 61.343147 203.1366 65.279658 199.83161 65.253898 194.92764 C 65.247058 193.62558 65.197579 193.43241 64.369198 191.47048 C 64.116419 190.8718 63.859296 190.07376 63.797656 189.69695 C 63.24152 186.29749 59.106643 183.45168 55.414705 183.55417 z M 55.585238 183.87095 C 55.350783 183.87262 55.120702 183.88736 54.89329 183.91022 C 55.120607 183.88738 55.350883 183.87262 55.585238 183.87095 z M 56.46012 183.91952 C 56.554956 183.92959 56.651202 183.9467 56.746924 183.96035 C 56.651272 183.94671 56.55489 183.92959 56.46012 183.91952 z M 54.673665 183.93968 C 54.521116 183.9597 54.369414 183.98235 54.220463 184.01151 C 54.369562 183.98231 54.520961 183.95971 54.673665 183.93968 z M 55.558883 183.95415 L 56.90092 184.21615 C 60.571886 184.93243 62.701191 186.98435 63.482947 190.55994 L 63.753731 191.79966 L 63.567696 192.71899 C 62.969886 195.67792 60.777211 197.95587 57.786654 198.72379 C 53.351236 199.86273 48.437314 196.08797 48.456474 191.55678 C 48.472664 187.7288 50.601053 185.11505 54.43337 184.2177 L 55.558883 183.95415 z M 53.972933 184.06628 C 53.83658 184.09797 53.701798 184.13311 53.568823 184.17222 C 53.701804 184.1331 53.836574 184.09798 53.972933 184.06628 z M 57.377376 184.07404 C 57.48571 184.0981 57.594191 184.12486 57.703455 184.15362 C 57.594295 184.12488 57.485609 184.0981 57.377376 184.07404 z M 53.32491 184.24767 C 53.189941 184.2926 53.057568 184.34208 52.926485 184.39443 C 53.057583 184.34208 53.189925 184.2926 53.32491 184.24767 z M 58.349927 184.35205 C 58.450227 184.38658 58.549758 184.41734 58.650684 184.45592 C 58.549859 184.41737 58.450125 184.38656 58.349927 184.35205 z M 52.710994 184.48125 C 52.553394 184.55009 52.39982 184.62583 52.24849 184.705 C 52.399883 184.6258 52.553327 184.55011 52.710994 184.48125 z M 52.133769 184.76237 C 52.109874 184.7754 52.087734 184.79094 52.064006 184.80422 C 52.08777 184.79092 52.109837 184.77542 52.133769 184.76237 z M 59.603597 184.87244 C 60.305408 185.22586 61.037501 185.80781 61.678923 186.46872 C 61.037549 185.80794 60.305309 185.22581 59.603597 184.87244 z M 51.231498 185.35096 C 51.186664 185.38461 51.140137 185.41609 51.096106 185.4507 C 51.14025 185.41601 51.186548 185.38469 51.231498 185.35096 z M 54.074219 185.77316 L 53.044824 186.27959 L 52.01543 186.78601 L 51.322965 187.70741 C 50.404929 188.92867 49.95009 190.1404 49.95199 191.35938 L 49.953023 192.31849 L 50.487874 193.44142 C 51.365954 195.28546 52.32862 196.17819 54.091272 196.78437 C 57.263238 197.8752 60.621942 196.18367 61.712512 192.94636 L 62.041174 191.97174 L 61.934204 190.97387 C 61.716869 188.94442 60.545587 187.29725 58.594873 186.27907 L 57.626457 185.77367 L 55.850338 185.77367 L 54.074219 185.77316 z M 54.233382 185.92767 L 55.856022 185.92767 L 57.478662 185.92767 L 58.49152 186.42635 C 60.549281 187.43938 61.724652 189.26472 61.747652 191.48444 L 61.758504 192.57378 L 61.339408 193.50809 C 60.810822 194.68593 59.617889 195.87982 58.427441 196.42264 C 55.467365 197.77237 52.028003 196.41098 50.579858 193.31637 L 50.107536 192.30764 L 50.178849 191.1227 C 50.305771 188.99959 51.472617 187.20218 53.260315 186.37674 L 54.233382 185.92767 z M 50.352999 186.11991 C 50.306255 186.16769 50.261003 186.21669 50.21554 186.26563 C 50.261132 186.21655 50.306119 186.16783 50.352999 186.11991 z M 49.575269 187.04285 C 49.553674 187.07312 49.534931 187.1053 49.513774 187.13586 C 49.534998 187.1052 49.553604 187.07321 49.575269 187.04285 z M 49.016646 187.9601 C 48.993879 188.00356 48.968307 188.04543 48.946366 188.08929 C 48.968354 188.04533 48.993829 188.00365 49.016646 187.9601 z M 48.562927 189.00655 C 48.540692 189.07039 48.519382 189.13438 48.498848 189.19879 C 48.51943 189.13422 48.540635 189.07054 48.562927 189.00655 z M 63.5894 189.95688 C 63.638728 190.23762 63.754824 190.68794 63.893258 191.15836 C 63.754902 190.68812 63.638705 190.23752 63.5894 189.95688 z M 48.256486 190.16359 C 48.248083 190.21083 48.243816 190.25879 48.236332 190.30621 C 48.243831 190.25868 48.248063 190.21094 48.256486 190.16359 z M 48.147965 191.27308 C 48.147029 191.31469 48.142489 191.35595 48.142281 191.39762 C 48.14249 191.35588 48.147026 191.31476 48.147965 191.27308 z M 48.147449 191.58727 C 48.150723 191.73826 48.157126 191.88917 48.170186 192.04047 C 48.157122 191.88912 48.150722 191.7383 48.147449 191.58727 z M 48.195508 192.2663 C 48.212003 192.4048 48.232015 192.5435 48.257003 192.68178 C 48.231977 192.54334 48.212022 192.40496 48.195508 192.2663 z M 64.462215 192.7903 C 64.732096 193.36788 64.827798 194.33777 64.774341 195.36585 C 64.800046 194.33758 64.691306 193.28059 64.462215 192.7903 z M 48.305579 192.92569 C 48.335529 193.06312 48.371302 193.1998 48.409965 193.33652 C 48.371306 193.19982 48.335528 193.06309 48.305579 192.92569 z M 48.474561 193.5608 C 48.525535 193.72036 48.584853 193.87882 48.648193 194.03674 C 48.58487 193.87885 48.525523 193.72033 48.474561 193.5608 z M 48.707104 194.19021 C 48.795917 194.39745 48.895273 194.60309 49.006311 194.8062 C 48.89522 194.60299 48.795949 194.39755 48.707104 194.19021 z M 49.088477 194.94314 C 49.178027 195.09885 49.272082 195.25364 49.375281 195.40616 C 49.272061 195.25361 49.178043 195.09889 49.088477 194.94314 z M 44.245878 195.24855 C 42.202122 195.25412 40.1426 196.3277 39.06945 198.61733 L 38.656555 199.49945 L 38.656555 201.04148 L 38.656555 202.58402 L 39.099422 203.48629 C 39.627182 204.56111 40.880901 205.86443 41.774194 206.26648 C 42.255233 206.48299 42.47539 206.70212 42.65011 207.13878 C 42.934309 207.84907 43.783601 208.69918 44.646887 209.13762 L 45.288192 209.46318 L 46.367712 209.41357 C 50.184901 209.2367 52.135406 205.65881 50.46462 201.89879 C 50.217503 201.34266 49.973081 200.58342 49.921501 200.21207 C 49.475303 196.99992 46.873564 195.24138 44.245878 195.24855 z M 49.527726 195.617 C 49.620067 195.74403 49.715827 195.86998 49.818148 195.99424 C 49.715801 195.86994 49.620088 195.74407 49.527726 195.617 z M 44.370418 195.69193 C 46.187971 195.74583 47.973494 196.79127 48.901408 198.8044 C 50.273065 201.78025 49.349158 204.53142 46.517574 205.90216 C 45.936814 206.1833 45.442774 206.28257 44.442249 206.31867 L 43.128634 206.3657 L 42.223779 205.9156 C 41.069277 205.3413 40.066632 204.35734 39.536088 203.27803 L 39.119059 202.4295 L 39.120093 200.96448 L 39.121126 199.49945 L 39.645642 198.53 C 40.703109 196.57574 42.552865 195.63803 44.370418 195.69193 z M 114.60851 196.06193 C 114.47287 196.16852 114.35878 196.25418 114.27365 196.31205 C 114.05657 196.45959 113.79934 196.61316 113.51193 196.76835 C 113.89861 196.55692 114.24531 196.33318 114.60851 196.06193 z M 50.004183 196.21128 C 50.110156 196.33118 50.221684 196.44951 50.337496 196.5663 C 50.22162 196.44944 50.110209 196.33125 50.004183 196.21128 z M 50.547819 196.77404 C 50.617404 196.83964 50.694568 196.90233 50.767444 196.96679 C 50.694542 196.90231 50.617427 196.83967 50.547819 196.77404 z M 44.137874 197.27116 C 43.770746 197.27987 43.39315 197.34733 43.012878 197.48304 C 39.698585 198.66579 40.000427 203.67557 43.437142 204.52343 C 44.926318 204.89082 46.845552 203.98599 47.516479 202.60004 C 48.757667 200.03609 46.707775 197.21021 44.137874 197.27116 z M 44.132707 197.47012 C 47.604066 197.35793 49.228723 202.34107 45.849915 204.03251 C 45.318049 204.29876 44.080012 204.53341 43.74565 204.43145 C 43.660825 204.40558 43.402205 204.34302 43.170492 204.29192 C 40.060055 203.60654 40.253406 198.27053 43.414404 197.56313 C 43.661307 197.50788 43.901283 197.4776 44.132707 197.47012 z M 64.439994 197.53678 C 64.328003 197.95102 64.190666 198.3302 64.029683 198.64576 C 63.827323 199.04241 63.497763 199.45179 63.089172 199.83845 C 63.682529 199.20115 64.145239 198.42675 64.439994 197.53678 z M 110.41083 198.08817 C 109.92972 198.25113 109.44985 198.39574 108.99283 198.51295 L 108.99283 198.51243 C 108.58548 198.61691 107.93553 198.71085 107.22136 198.7827 C 108.32673 198.63057 109.46532 198.38868 110.41083 198.08817 z M 49.306034 199.06382 C 49.365152 199.21383 49.411407 199.37148 49.46003 199.52787 C 49.411442 199.37152 49.365108 199.21378 49.306034 199.06382 z M 55.56405 201.38564 C 55.849086 201.49169 56.159055 201.58035 56.49526 201.65332 C 57.301011 201.82822 58.08662 201.88117 58.833618 201.82282 C 57.662902 201.94137 56.521605 201.78913 55.56405 201.38564 z M 60.058866 201.59855 C 60.012004 201.61197 59.963805 201.6352 59.917273 201.64712 C 59.800663 201.677 59.68368 201.70382 59.566907 201.72774 C 59.736421 201.69678 59.894646 201.64133 60.058866 201.59855 z M 38.849308 201.62955 C 38.908866 202.12915 39.035938 202.62343 39.23068 203.0982 C 39.035998 202.62339 38.908799 202.12919 38.849308 201.62955 z M 50.270317 202.57316 C 50.885879 204.29369 50.776187 205.81667 49.992297 206.99253 C 50.699662 205.81485 50.857915 204.23249 50.270317 202.57316 z M 39.23068 203.09871 C 39.42547 203.57349 39.687784 204.02871 40.018229 204.44954 C 39.687825 204.02866 39.425416 203.57354 39.23068 203.09871 z M 40.018229 204.45005 C 40.514015 205.08136 41.163004 205.6354 41.965397 206.06339 C 42.298041 206.24082 42.532906 206.39556 42.722457 206.57705 C 42.532879 206.39574 42.297882 206.24125 41.965397 206.06391 C 41.162879 205.63585 40.514024 205.08151 40.018229 204.45005 z M 36.58278 204.83711 C 34.738936 204.84047 32.870867 206.13243 32.874479 208.5542 L 32.875513 209.52416 L 33.343701 210.34013 C 33.822145 211.17442 34.383724 211.62363 35.340479 211.93693 C 35.959705 212.13971 36.138932 212.34435 36.023124 212.71673 C 35.846911 213.28334 36.78596 214.45497 37.588403 214.66958 C 40.34822 215.40767 42.723383 211.30172 40.704492 209.28283 C 40.328787 208.90712 40.193969 208.60662 40.104529 207.94751 C 39.817781 205.83446 38.209701 204.83414 36.58278 204.83711 z M 36.430334 205.07379 C 36.595261 205.06909 36.75958 205.07967 36.922811 205.09859 C 36.759562 205.07966 36.595271 205.06909 36.430334 205.07379 z M 36.997742 205.10634 C 37.153643 205.1279 37.307283 205.16167 37.458695 205.20453 C 37.307414 205.16172 37.153498 205.12789 36.997742 205.10634 z M 35.991085 205.1172 C 35.972511 205.12014 35.953818 205.12221 35.935274 205.12546 C 35.95387 205.1222 35.972458 205.12015 35.991085 205.1172 z M 35.521346 205.22623 C 35.498002 205.23342 35.474817 205.24126 35.451583 205.24897 C 35.474896 205.24124 35.497923 205.23345 35.521346 205.22623 z M 37.573934 205.23812 C 37.612286 205.25046 37.650225 205.26368 37.688139 205.27739 C 37.650263 205.26369 37.612246 205.25044 37.573934 205.23812 z M 36.462374 205.30788 C 38.063391 205.2781 39.647912 206.43763 39.655461 208.67874 L 39.658561 209.68384 L 39.267371 210.25952 C 39.052216 210.57615 38.514335 211.04303 38.072095 211.29666 C 37.347242 211.71241 36.77645 211.83875 36.343001 211.67959 C 36.258176 211.64845 35.892785 211.54676 35.531165 211.45376 C 34.205985 211.11309 33.030501 209.45018 33.257918 208.23794 C 33.624074 206.28616 35.049712 205.33416 36.462374 205.30788 z M 37.847819 205.33992 C 37.884186 205.35522 37.920486 205.37035 37.95634 205.38695 C 37.920444 205.37033 37.884229 205.35524 37.847819 205.33992 z M 35.054191 205.40762 C 35.034548 205.41702 35.015312 205.42779 34.995797 205.43759 C 35.015371 205.42776 35.034488 205.41704 35.054191 205.40762 z M 38.11602 205.46756 C 38.150206 205.48567 38.184734 205.503 38.218339 205.52234 C 38.184752 205.503 38.150187 205.48567 38.11602 205.46756 z M 38.388871 205.62931 C 38.413362 205.64547 38.438661 205.66 38.462769 205.67685 C 38.438705 205.66004 38.413317 205.64544 38.388871 205.62931 z M 34.223751 205.96831 C 34.209966 205.98081 34.195538 205.99222 34.181893 206.005 C 34.195543 205.99221 34.209961 205.98082 34.223751 205.96831 z M 38.919071 206.06236 C 38.939823 206.0834 38.959265 206.1063 38.979533 206.12799 C 38.959251 206.10629 38.939838 206.0834 38.919071 206.06236 z M 39.12061 206.28663 C 39.146021 206.31759 39.169531 206.35065 39.19399 206.38275 C 39.169519 206.35064 39.146033 206.3176 39.12061 206.28663 z M 33.858915 206.35226 C 33.840463 206.37468 33.822215 206.39745 33.804138 206.42048 C 33.822248 206.39741 33.840429 206.37471 33.858915 206.35226 z M 39.306128 206.53726 C 39.328919 206.57099 39.350514 206.60577 39.372274 206.64062 C 39.350524 206.60579 39.328908 206.57097 39.306128 206.53726 z M 39.472009 206.81012 C 39.491912 206.84646 39.511086 206.88326 39.529887 206.9207 C 39.511126 206.88336 39.491868 206.84637 39.472009 206.81012 z M 35.835022 206.8251 L 35.356498 207.37029 C 34.684433 208.13573 34.698966 208.83665 35.401973 209.53966 C 36.831863 210.96955 39.04989 208.78237 37.669019 207.30414 L 37.221501 206.8251 L 36.52852 206.8251 L 35.835022 206.8251 z M 33.521985 206.82924 C 33.510613 206.84822 33.500056 206.86833 33.488912 206.88763 C 33.50006 206.86832 33.510609 206.84823 33.521985 206.82924 z M 36.576062 206.97961 C 38.070085 206.97961 38.398303 208.97446 37.021513 209.68643 C 36.383166 210.01653 36.136859 209.96553 35.556486 209.38515 C 34.57767 208.40634 35.18243 206.97961 36.576062 206.97961 z M 39.618254 207.11139 C 39.634239 207.1485 39.650358 207.18545 39.665279 207.22353 C 39.65034 207.18541 39.634259 207.14853 39.618254 207.11139 z M 39.737626 207.42868 C 39.750823 207.46908 39.764882 207.50874 39.7769 207.55012 C 39.764895 207.5088 39.750807 207.46902 39.737626 207.42868 z M 39.842529 207.81367 C 39.847974 207.83858 39.855071 207.86234 39.860099 207.88757 C 39.855066 207.86233 39.847978 207.83859 39.842529 207.81367 z M 44.432947 208.4834 L 45.274239 208.98414 L 46.292265 208.98414 C 46.738478 208.98414 47.158507 208.9279 47.548519 208.82291 C 47.181363 208.9433 46.820304 208.98466 46.292265 208.98466 L 45.274239 208.98466 L 44.432947 208.4834 z M 40.362911 209.44716 C 40.434274 209.52447 40.499798 209.60497 40.559798 209.68798 C 41.444412 210.91185 41.10847 212.70757 39.975338 213.66499 C 40.982585 212.68107 41.45227 210.92924 40.559798 209.68798 C 40.5003 209.60522 40.434761 209.525 40.362911 209.44716 z M 36.486145 212.75187 C 36.3905 213.1845 36.711052 213.75863 37.217367 214.08512 C 36.676757 213.81098 36.353469 213.31817 36.486145 212.75187 z " /><path
         style="fill:#facb02"
         d="m 35.556337,209.3854 c -0.713228,-0.71323 -0.598064,-1.79958 0.238221,-2.24714 1.264016,-0.67648 2.68399,0.76063 1.913482,1.93657 -0.59865,0.91366 -1.428795,1.03348 -2.151703,0.31057 z m 8.189472,-4.95379 c -0.08483,-0.0259 -0.343811,-0.0888 -0.575524,-0.13987 -1.152427,-0.25394 -2.279913,-1.95818 -2.274295,-3.43769 0.01606,-4.22761 6.152027,-4.64176 6.726027,-0.45398 0.317759,2.31831 -1.906877,4.63209 -3.876208,4.03154 z m 10.91643,-7.61664 c -1.729798,-0.44537 -3.27233,-1.76733 -4.082577,-3.49878 l -0.471889,-1.00841 0.07086,-1.18522 c 0.126922,-2.12311 1.294041,-3.92048 3.081739,-4.74592 l 0.9729,-0.44921 h 1.62263 1.62263 l 1.013032,0.49871 c 2.057761,1.01303 3.232885,2.83875 3.255881,5.05847 l 0.01128,1.08902 -0.41928,0.93428 c -1.091242,2.43161 -4.16488,3.95391 -6.677203,3.30706 z m 46.379021,-3.51827 c -3.256544,-0.37032 -6.802145,-2.71162 -8.644919,-5.70857 -0.895199,-1.45588 -0.848013,-1.45234 -2.720242,-0.20447 -6.473553,4.31471 -14.997268,2.73105 -18.674475,-3.46961 -0.809237,-1.36457 -1.731192,-3.84789 -1.731192,-4.66304 0,-0.23459 -0.112675,-0.58739 -0.250389,-0.784 -0.288241,-0.41152 -0.312579,-0.40957 -2.602817,0.20841 l -1.542273,0.41615 -1.927842,-0.0876 c -8.561048,-0.38891 -13.152169,-6.73504 -10.245507,-14.16196 0.308196,-0.78749 0.570694,-1.6053 0.583328,-1.81736 l 0.02297,-0.38557 -1.002478,-0.51863 c -3.915225,-2.02553 -5.47852,-3.47198 -6.818011,-6.30838 -2.284908,-4.83835 -0.729383,-10.20619 3.838354,-13.24545 l 1.31139,-0.87257 -0.07374,-0.47763 c -0.04056,-0.26269 -0.2629,-0.99814 -0.494098,-1.63433 -1.901425,-5.23214 1.554966,-10.8256 7.39906,-11.97386 l 1.311517,-0.25769 1.196799,0.169 1.196799,0.16901 0.33521,-0.21815 c 0.229686,-0.14947 0.39331,-0.49862 0.519774,-1.10912 2.055303,-9.92199 14.209268,-14.06429 22.561051,-7.68923 1.488513,1.1362 1.425422,1.15751 2.955229,-0.99775 3.402177,-4.79312 6.433359,-6.69669 11.925757,-7.48936 6.112442,-0.88215 12.585322,2.2532 16.316562,7.90346 1.40937,2.13423 1.30479,2.10239 2.86189,0.87119 6.35465,-5.02461 14.17057,-5.32317 20.2104,-0.77202 2.53639,1.91123 4.64115,5.30882 5.13255,8.2852 0.063,0.38171 0.17344,0.80625 0.24536,0.94343 l 0.13078,0.2494 2.43462,0.0871 2.43462,0.0871 1.23382,0.37669 c 8.08862,2.46946 12.03405,11.70957 8.56153,20.05093 -0.99951,2.40094 -3.0785,4.92097 -5.66977,6.87253 -1.51273,1.13929 -1.48695,0.97008 -0.3993,2.62157 5.11133,7.76104 1.54551,17.50963 -7.5158,20.54747 l -1.45421,0.48753 -1.77361,0.0701 c -1.37342,0.0543 -2.06941,0.005 -3.08455,-0.22078 -1.65513,-0.36734 -1.80233,-0.33326 -2.02002,0.46763 -1.47097,5.41187 -3.29243,7.77677 -7.29714,9.47428 -4.70067,1.9925 -9.02326,1.50983 -13.17869,-1.47156 -1.29808,-0.93133 -1.37655,-0.92879 -2.06453,0.0668 -3.12799,4.52634 -8.0278,6.73975 -13.53377,6.11362 z"
         id="path26" /><path
         style="fill:#13120a"
         d="m 36.342897,211.67952 c -0.08483,-0.0311 -0.450099,-0.13269 -0.811719,-0.22565 -1.32518,-0.34067 -2.500623,-2.00347 -2.273206,-3.21571 0.781132,-4.16379 6.383211,-3.77801 6.397425,0.44055 l 0.0034,1.00524 -0.39119,0.57568 c -0.633671,0.93253 -2.191827,1.68899 -2.924697,1.41989 z m 1.174849,-2.21428 c 0.768597,-0.7686 0.816254,-1.4492 0.151319,-2.16102 l -0.447446,-0.47899 h -0.693282 -0.693282 l -0.478659,0.54516 c -1.418801,1.61593 0.642447,3.61375 2.16135,2.09485 z m 4.705981,-3.54961 c -1.154502,-0.5743 -2.157229,-1.55832 -2.687773,-2.63763 l -0.416965,-0.84825 0.0011,-1.46516 0.0011,-1.46516 0.524525,-0.96935 c 1.626817,-3.00645 5.517029,-3.77745 7.930439,-1.57173 3.751177,3.42836 1.824996,9.18097 -3.134104,9.36011 l -1.313143,0.0474 z m 3.00853,-1.47428 c 3.957892,-0.64372 3.098654,-7.21036 -0.938378,-7.17145 -4.265707,0.0411 -4.996761,6.23202 -0.856525,7.25344 0.453466,0.11187 0.661332,0.10238 1.794903,-0.082 z m 9.078124,-5.69427 c -2.162755,-0.44112 -4.891336,-3.00854 -5.570433,-5.24143 -1.275395,-4.19352 1.202874,-8.23633 5.693495,-9.28782 l 1.12554,-0.26354 1.342097,0.26186 c 3.670966,0.71628 5.799872,2.76828 6.581628,6.34387 l 0.271021,1.23959 -0.185791,0.91959 c -0.860924,4.26124 -4.929756,6.91058 -9.257557,6.02788 z m 3.598233,-1.94978 c 1.804342,-0.5573 3.155274,-1.9248 3.804069,-3.85072 l 0.328484,-0.97509 -0.106861,-0.99785 c -0.217335,-2.02945 -1.388841,-3.67624 -3.339555,-4.69442 l -0.968483,-0.5055 -1.776081,-2.6e-4 -1.776082,-2.6e-4 -1.029347,0.50636 -1.029347,0.50637 -0.692564,0.92131 c -0.918036,1.22126 -1.372954,2.43296 -1.371074,3.65194 l 0.0015,0.95917 0.534696,1.1229 c 1.440575,3.02532 4.30185,4.31936 7.420666,3.35605 z m 43.048776,-1.60824 c -3.695124,-0.57434 -7.122972,-2.47839 -9.184562,-5.10172 -0.851274,-1.08322 -1.018156,-1.15347 -1.649395,-0.69426 -0.548272,0.39886 -3.813579,1.78214 -4.504904,1.90842 -0.296888,0.0542 -0.852106,0.16552 -1.233819,0.24731 -5.167034,1.10715 -11.098284,-1.33186 -14.384324,-5.91502 -0.359062,-0.50079 -0.833963,-1.12541 -1.055334,-1.38804 -0.221372,-0.26263 -0.632849,-1.17153 -0.914394,-2.01978 -0.281546,-0.84825 -0.590608,-1.63092 -0.686806,-1.73926 l -0.174905,-0.19698 -0.99277,0.26619 c -0.715953,0.19197 -1.59482,0.26635 -3.151952,0.26675 l -2.159183,5.6e-4 -1.666601,-0.40396 c -1.169587,-0.28349 -1.905485,-0.56084 -2.467637,-0.93002 -0.44057,-0.28933 -1.1954,-0.78613 -1.677399,-1.104 -3.883952,-2.56136 -5.868893,-7.52711 -4.752935,-11.89047 0.16965,-0.66332 0.310662,-1.3511 0.31336,-1.52838 0.0027,-0.17729 0.106801,-0.45706 0.231341,-0.62172 0.387265,-0.51201 0.27338,-0.65586 -1.431508,-1.8082 -6.246787,-4.22223 -8.34497,-10.08493 -5.722762,-15.99044 0.737072,-1.65997 3.645397,-5.1132 4.306357,-5.1132 0.2884,0 0.454829,-0.59066 0.289186,-1.02633 -2.522625,-6.63501 3.095845,-14.55063 10.327969,-14.55063 l 1.354572,0 0.225974,-0.2699 c 0.124285,-0.14844 0.351678,-0.68631 0.505316,-1.19526 2.806161,-9.29581 13.560345,-13.12367 23.008291,-8.18961 2.03327,1.06185 1.915604,1.06569 2.699192,-0.0882 6.926272,-10.19939 22.315982,-10.35681 29.851842,-0.30536 1.35365,1.80552 1.27883,1.77141 2.25339,1.02728 9.1962,-7.02183 23.0608,-3.20901 26.63434,7.32454 0.63109,1.86022 0.44897,1.73207 2.6604,1.87197 6.59519,0.41722 11.6838,4.7838 13.8144,11.85426 0.0895,0.29689 0.23422,1.06032 0.32169,1.6965 0.0875,0.63619 0.23774,1.70369 0.33395,2.37222 0.59675,4.14671 -2.28594,10.076 -6.67859,13.73695 -0.99,0.82509 -1.04545,1.00426 -0.52287,1.68953 0.65322,0.85658 1.37619,2.46131 1.56993,3.48468 0.10438,0.55136 0.30854,1.52299 0.4537,2.15918 0.20084,0.88023 0.24617,1.59906 0.18967,3.00743 l -0.0743,1.85073 -0.49314,1.38804 c -2.72549,7.67154 -10.0873,12.64125 -16.80512,11.34458 -0.94489,-0.18238 -1.02878,-0.12016 -1.40975,1.04555 -1.91419,5.85722 -7.84788,10.03753 -14.26185,10.04753 -2.81783,0.004 -6.26332,-1.02502 -7.72435,-2.30782 -0.71571,-0.62841 -0.84264,-0.59854 -1.59377,0.37506 -3.0065,3.89699 -8.93802,6.19542 -13.96999,5.41329 z m 5.01915,-1.92372 c 3.72517,-0.9466 6.69044,-2.94195 8.55555,-5.75708 0.7061,-1.06578 0.88981,-1.09026 1.96733,-0.26208 1.07116,0.8233 3.28587,1.89629 4.82274,2.33655 l 1.23381,0.35345 1.92785,-0.0194 1.92784,-0.0194 1.37268,-0.41024 c 5.30631,-1.58586 8.25993,-4.72085 9.35767,-9.93231 0.21625,-1.02662 0.33038,-1.068 2.00709,-0.72761 11.62683,2.36031 20.67304,-11.15758 14.05289,-20.99947 -1.11499,-1.65762 -1.12637,-1.57632 0.37366,-2.66878 10.28753,-7.49229 8.70544,-23.19647 -2.71997,-26.99892 l -1.46415,-0.48729 -2.45135,-0.0988 -2.45136,-0.0988 -0.11854,-0.23134 c -0.0652,-0.12724 -0.2691,-0.89067 -0.45312,-1.6965 -2.11087,-9.24353 -14.25157,-13.73198 -22.91418,-8.47145 -0.85305,0.51803 -1.39112,0.9072 -3.04698,2.20379 -0.74406,0.58262 -0.83334,0.52731 -2.00278,-1.24073 -3.90898,-5.90986 -10.392,-8.98035 -16.879372,-7.99443 -5.135715,0.78051 -8.137282,2.67289 -11.391003,7.18162 -1.461501,2.02523 -1.623255,2.16276 -2.153302,1.83087 -0.191986,-0.12021 -0.990177,-0.62486 -1.773757,-1.12144 -4.663537,-2.95544 -10.377269,-3.27446 -14.972861,-0.83599 -3.895717,2.06712 -5.72343,4.56318 -7.065251,9.64883 l -0.174475,0.66128 -1.727124,-0.10324 -1.727125,-0.10324 -1.310932,0.3363 c -5.800244,1.48797 -9.111184,8.02411 -6.5619,12.95388 0.413744,0.80009 0.270813,1.09149 -0.921196,1.87807 -7.635673,5.0386 -6.48459,14.87511 2.290466,19.57304 1.797183,0.96217 1.791482,0.95227 1.212929,2.10504 -3.735204,7.4424 1.24958,14.81247 10.225908,15.11915 l 2.004955,0.0685 1.46516,-0.38166 c 0.805838,-0.20992 1.610968,-0.42773 1.789179,-0.48403 0.483427,-0.15273 0.773725,0.24394 0.8876,1.21284 1.095129,9.31784 13.413778,13.65373 21.250651,7.47976 0.84758,-0.66773 1.082933,-0.59304 1.816149,0.57637 2.877369,4.58912 8.597761,6.93113 13.738621,5.62478 z"
         id="path24" /></g></g></svg>
