<?xml version="1.0" encoding="UTF-8" standalone="no"?>
<!-- Created with Inkscape (http://www.inkscape.org/) -->

<svg
   width="210mm"
   height="297mm"
   viewBox="0 0 210 297"
   version="1.1"
   id="svg1"
   sodipodi:docname="SHOUT.svg"
   xml:space="preserve"
   inkscape:version="1.4.4 (dcaf3e7, 2026-05-05)"
   xmlns:inkscape="http://www.inkscape.org/namespaces/inkscape"
   xmlns:sodipodi="http://sodipodi.sourceforge.net/DTD/sodipodi-0.dtd"
   xmlns="http://www.w3.org/2000/svg"
   xmlns:svg="http://www.w3.org/2000/svg"><sodipodi:namedview
     id="namedview1"
     pagecolor="#ffffff"
     bordercolor="#000000"
     borderopacity="0.25"
     inkscape:showpageshadow="2"
     inkscape:pageopacity="0.0"
     inkscape:pagecheckerboard="0"
     inkscape:deskcolor="#d1d1d1"
     inkscape:document-units="mm"
     inkscape:zoom="0.95143098"
     inkscape:cx="334.23339"
     inkscape:cy="581.22976"
     inkscape:window-width="1280"
     inkscape:window-height="778"
     inkscape:window-x="-6"
     inkscape:window-y="-6"
     inkscape:window-maximized="1"
     inkscape:current-layer="layer1" /><defs
     id="defs1" /><g
     inkscape:label="Layer 1"
     inkscape:groupmode="layer"
     id="layer1"><g
       id="g30"><path
         style="fill:#f9cb03"
         d="m 61.198347,196.11591 c -0.439644,-0.30813 -0.84818,-0.35068 -1.519235,-0.15822 -1.210716,0.34723 -1.366749,0.12317 -0.632407,-0.90812 0.347204,-0.4876 0.526503,-1.05787 0.41993,-1.33559 -0.273228,-0.71202 1.043923,-3.07165 1.630794,-2.92151 1.556508,0.3982 5.198478,-5.79725 3.995019,-6.79603 l -0.427713,-0.35497 0.473488,-1.31671 c 0.35996,-1.00101 0.623807,-1.31671 1.100425,-1.31671 1.793303,0 3.190113,-5.9048 1.652994,-6.98778 -1.574906,-1.10959 -3.297331,-1.83243 -3.966351,-1.66451 -0.36546,0.0917 -1.170927,-0.0448 -1.789927,-0.30347 l -1.125455,-0.47025 0.164126,-0.65393 c 0.209501,-0.83472 -0.371647,-1.66924 -2.670268,-3.83446 l -1.827996,-1.72191 -0.857525,0.1715 -0.857524,0.17151 -0.790023,-1.19381 c -0.569363,-0.86036 -0.70079,-1.28303 -0.470545,-1.51328 0.785305,-0.7853 -1.595283,-6.13781 -2.806662,-6.31048 -0.836007,-0.11917 -1.05871,-1.0434 -0.357009,-1.48162 l 0.548073,-0.34228 -0.01925,-3.59371 c -0.01276,-2.38296 -0.145559,-3.79153 -0.394157,-4.18088 -0.455954,-0.71411 -0.271377,-2.8078 0.230552,-2.6152 0.606904,0.23289 1.240732,-0.54688 2.707476,-3.33092 l 1.431245,-2.71666 -0.383654,-0.61432 -0.383654,-0.61433 0.459979,-0.50827 c 0.289957,-0.3204 0.758573,-0.46627 1.267798,-0.39463 l 0.807819,0.11365 2.034631,-2.06004 2.03463,-2.06004 -0.312663,-0.68622 -0.312664,-0.68622 1.141919,-0.65721 1.141919,-0.6572 0.601861,0.3221 0.601862,0.32211 1.672034,-0.94302 c 0.919619,-0.51866 2.171778,-1.25819 2.782574,-1.6434 l 1.11054,-0.7004 -0.08298,-0.76184 -0.08298,-0.76184 1.131543,-0.398 1.131542,-0.39799 0.589346,0.41279 0.589345,0.41279 2.536131,-0.90743 c 2.971829,-1.06333 3.2701,-1.25557 3.2701,-2.10759 v -0.64004 l 1.467937,-0.3007 c 0.807366,-0.16539 1.467938,-0.19613 1.467938,-0.0683 0,0.76607 1.232956,0.80459 3.97921,0.12433 2.684147,-0.66488 3.345147,-1.02232 3.355983,-1.81481 0.0025,-0.18084 0.628629,-0.39915 1.391458,-0.48513 l 1.386963,-0.15633 0.402196,0.57421 0.402197,0.57422 2.834844,-0.20321 c 3.303995,-0.23684 4.03572,-0.45466 4.297444,-1.27928 l 0.1917,-0.60399 h 1.332504 1.3325 l 0.57734,0.73396 0.57734,0.73397 h 3.04039 c 2.9232,0 3.96478,-0.2949 3.96256,-1.12192 -2.9e-4,-0.10957 0.79239,-0.15446 1.76153,-0.0998 l 1.76206,0.0995 v 0.54377 c 0,0.75736 0.35765,0.91576 3.06025,1.35536 3.29449,0.53587 4.19988,0.50746 4.54784,-0.14271 l 0.28906,-0.54011 1.77638,0.43396 c 1.32548,0.32382 1.77638,0.56357 1.77638,0.94455 0,0.7408 0.44169,0.99063 3.30386,1.86875 2.50515,0.76858 3.74224,0.73698 3.74224,-0.0956 0,-0.14114 0.52208,-0.004 1.16017,0.30392 0.63809,0.30829 1.35595,0.56053 1.59523,0.56053 0.24819,0 0.47496,0.32596 0.52796,0.75887 l 0.0929,0.75888 2.77318,1.44303 c 2.85338,1.48476 3.49273,1.6654 4.02183,1.1363 0.54658,-0.54657 3.18696,1.46641 3.18696,2.42968 v 0.80181 l 2.3487,1.91252 c 1.29179,1.05188 2.60793,1.91312 2.92477,1.91387 0.31683,7.5e-4 1.13594,0.55085 1.82024,1.22244 l 1.24419,1.22107 -0.29467,0.55058 c -0.23009,0.42994 -0.0821,0.91711 0.67525,2.2233 0.53345,0.91999 1.3002,2.33566 1.70388,3.14593 0.56908,1.14227 0.90845,1.49343 1.51065,1.56316 l 0.77667,0.0899 0.33767,1.34098 0.33766,1.34098 -0.55494,0.3887 -0.55495,0.3887 -0.19505,3.41519 -0.19506,3.41518 0.49206,0.83299 0.49205,0.83298 -0.42693,1.12511 c -0.28981,0.76372 -0.63366,1.15498 -1.07051,1.21812 -0.7216,0.1043 -1.27354,0.75008 -3.18253,3.72362 l -1.31937,2.05512 0.1641,0.89679 0.1641,0.8968 -0.8425,0.80716 c -0.6318,0.60531 -1.02287,0.7619 -1.56372,0.62616 -1.20851,-0.30332 -6.1129,3.62617 -6.1129,4.89777 0,0.495 -0.29801,0.8567 -1.03114,1.25151 l -1.03113,0.55531 -0.97017,-0.29776 -0.97016,-0.29775 -2.7695,1.28557 c -2.00755,0.93187 -2.90428,1.52067 -3.25941,2.14013 -0.56353,0.98296 -2.1483,1.44223 -3.14184,0.91051 -0.97392,-0.52123 -5.83069,0.91656 -6.7906,2.01028 -0.4948,0.56377 -1.14654,0.90476 -2.00006,1.04644 l -1.26609,0.21017 -0.58197,-0.52668 -0.58197,-0.52668 -3.28615,0.3654 c -2.38501,0.2652 -3.44815,0.51182 -3.8769,0.89932 -0.80323,0.72595 -2.59389,0.9724 -3.28117,0.45158 -0.80114,-0.60711 -7.22622,-0.59613 -7.73193,0.0132 -0.56741,0.68369 -2.697813,0.56535 -3.676137,-0.2042 -0.608601,-0.47872 -1.577419,-0.74239 -3.7653,-1.02472 l -2.945854,-0.38014 -0.667776,0.43754 c -1.114592,0.73031 -2.507803,0.5572 -3.363459,-0.41793 -0.540934,-0.61645 -1.132335,-0.9127 -2.11673,-1.06032 -2.015857,-0.3023 -2.542317,-0.0576 -4.254507,1.97706 l -1.554285,1.84706 0.171532,1.18807 0.171531,1.18808 -0.726593,0.6826 -0.726592,0.6826 -1.063828,-0.19958 -1.063827,-0.19957 -2.035259,1.64441 -2.035258,1.64441 v 0.81374 c 0,0.63716 -0.217691,0.91754 -1.003266,1.29215 l -1.003265,0.47843 -0.864025,-0.32614 -0.864024,-0.32613 -1.871884,1.02717 c -1.45288,0.79725 -1.929983,1.22975 -2.131439,1.93219 -0.360257,1.25614 -2.046638,1.66485 -3.285808,0.79635 z"
         id="path33" /><path
         style="fill:#727171"
         d="m 57.249094,202.72092 c 0,-0.1684 0.528457,-1.00612 1.17435,-1.8616 1.346293,-1.78315 1.49322,-2.39096 0.513778,-2.12541 -5.602176,1.51888 -6.659126,0.3914 -3.251962,-3.46896 1.486907,-1.68468 2.141578,-2.21955 2.715684,-2.21872 l 0.756469,0.001 -0.880763,0.54276 c -0.484419,0.29852 -1.574363,1.34451 -2.422097,2.32442 -2.381916,2.75331 -2.037698,3.37708 1.431283,2.59368 1.149718,-0.25964 2.488998,-0.47207 2.976177,-0.47207 0.487179,0 1.03246,-0.18099 1.211734,-0.4022 0.307823,-0.37982 1.652611,-0.82571 4.010817,-1.32984 1.254644,-0.26821 4.006821,-1.72439 4.197308,-2.22079 0.07493,-0.19528 0.908331,-0.71782 1.851993,-1.1612 0.943662,-0.44339 2.041123,-0.9604 2.438801,-1.14892 0.698551,-0.33115 6.100554,-5.37742 8.736474,-8.16116 l 1.287277,-1.35946 3.100929,0.0967 c 2.337231,0.0729 3.229626,0.21317 3.623492,0.56962 0.699326,0.63288 6.316475,1.25353 7.072406,0.78144 0.581362,-0.36307 4.291236,-0.12901 4.548316,0.28695 0.29149,0.47164 6.46505,0.30085 6.87253,-0.19013 0.42181,-0.50826 4.11022,-0.63999 4.11022,-0.1468 0,0.64804 5.92506,-0.0463 6.79756,-0.7966 0.65145,-0.5602 4.18637,-1.27831 5.24767,-1.06605 1.09321,0.21864 4.77893,-0.68152 5.67432,-1.38584 0.97063,-0.76349 3.48073,-1.70855 4.48338,-1.68799 1.21677,0.0249 4.69783,-1.45831 5.64469,-2.40517 0.98354,-0.98355 3.85632,-2.64032 4.57821,-2.64032 0.87751,0 3.20616,-1.92079 5.60803,-4.6258 1.25368,-1.4119 2.48833,-2.69032 2.74367,-2.84092 1.0329,-0.60921 3.95454,-5.0563 3.80595,-5.79312 -0.0955,-0.47369 1.02423,-3.57157 1.73347,-4.7958 0.65877,-1.1371 0.64367,-5.08356 -0.0256,-6.67911 -0.45146,-1.07636 -0.27802,-1.46518 0.32739,-0.73397 0.62898,0.75968 1.38309,6.20262 1.35248,9.76178 l -0.0303,3.52305 -0.93845,2.39302 c -7.35875,18.76449 -39.35607,29.1844 -70.594633,22.98911 -3.85682,-0.76489 -3.579693,-0.84988 -5.913422,1.81367 -5.377423,6.13742 -13.859298,11.33377 -22.019065,13.48979 -3.440105,0.90896 -4.550606,1.04339 -4.550606,0.55086 z m 3.147714,-12.59897 c -0.142612,-0.54535 0.867333,-2.74526 2.325007,-5.06445 0.706308,-1.12375 1.866967,-1.99925 1.866967,-1.40828 0,0.17222 -0.199166,0.38956 -0.44259,0.48297 -0.555734,0.21325 -3.209738,5.0389 -3.15692,5.74008 0.05533,0.7345 -0.413962,0.93227 -0.592464,0.24968 z m 4.971198,-9.54222 c -0.120668,-0.31445 -0.138825,-1.2385 -0.04035,-2.05343 l 0.179046,-1.48169 -1.413119,-0.87713 c -3.037736,-1.88554 -9.086644,-8.58 -8.831341,-9.77384 0.07933,-0.37095 0.249109,-0.23205 0.638356,0.5222 0.538877,1.04421 3.342174,4.11023 3.758023,4.11023 0.255494,0 2.486419,1.6352 4.049398,2.96809 0.565156,0.48196 1.385383,1.16731 1.822726,1.52299 l 0.795169,0.6467 -0.369256,2.49381 c -0.253031,1.70887 -0.438311,2.31385 -0.588652,1.92207 z m -13.805763,-18.1411 c -1.53369,-2.01639 -2.214543,-4.46896 -1.49221,-5.37525 l 0.454215,-0.56989 -0.174845,0.91268 c -0.2853,1.48926 1.372363,5.03965 2.642672,5.6601 l 0.587175,0.28678 -0.645631,0.0199 c -0.398703,0.0123 -0.9232,-0.34505 -1.371376,-0.93429 z m -2.663746,-7.6252 c -1.102965,-1.5747 -0.392529,-8.15512 0.880443,-8.15512 h 0.441632 l -0.575223,0.80736 c -0.994308,1.39558 -0.976608,6.46774 0.02583,7.40165 l 0.642535,0.59861 h -0.479093 c -0.263501,0 -0.684756,-0.29362 -0.936122,-0.6525 z M 158.29725,143.85049 c 0.0217,-1.89873 -2.22969,-5.8715 -3.50953,-6.19272 l -0.72851,-0.18285 0.50384,-0.28196 c 1.42073,-0.79508 5.015,5.45449 4.10537,7.13825 l -0.38484,0.71236 z m -108.271287,-0.2908 c -0.354574,-1.41274 2.606646,-6.29619 3.817871,-6.29619 0.318431,0 0.115318,0.35594 -0.631569,1.10676 -1.410641,1.41807 -2.826527,4.2834 -2.587406,5.23613 0.09807,0.39075 0.04604,0.70321 -0.117092,0.70321 -0.161473,0 -0.378285,-0.33746 -0.481804,-0.74991 z m 5.168018,-8.27284 c 0,-1.09185 3.472066,-4.48227 4.5902,-4.48227 0.647779,0 0.459068,0.50801 -0.259784,0.69933 -0.982002,0.26137 -3.743241,2.96006 -3.743241,3.65845 0,0.3292 -0.132114,0.6802 -0.293587,0.78 -0.169501,0.10476 -0.293588,-0.1723 -0.293588,-0.65551 z m 96.296709,-1.1759 c 0,-0.81478 -0.4473,-1.34824 -2.99009,-3.56601 -0.4335,-0.37809 -1.22619,-0.7861 -1.76153,-0.90669 l -0.97334,-0.21925 0.55211,-0.2341 c 1.74171,-0.73847 7.00199,4.63409 5.46644,5.58311 -0.16955,0.10479 -0.29359,-0.17281 -0.29359,-0.65706 z m -88.947684,-4.94332 c -0.02373,-1.549 5.591415,-4.79866 6.302795,-3.64763 0.105054,0.16998 -0.177504,0.29359 -0.671125,0.29359 -0.771477,0 -4.482086,2.08271 -4.697435,2.6366 -0.04619,0.1188 -0.27319,0.46594 -0.504441,0.77142 l -0.420457,0.55541 z m 79.760384,-2.27504 c -0.61529,-0.93905 -4.47136,-2.84052 -5.7604,-2.84052 -0.55236,0 -0.86578,-0.1212 -0.75923,-0.29359 0.78739,-1.27403 7.60188,2.1493 7.12517,3.57941 -0.0582,0.17458 -0.33068,-0.0258 -0.60554,-0.4453 z m -70.962095,-2.34905 c 0,-1.57185 5.274512,-3.99668 6.594351,-3.03159 l 0.564381,0.41269 -1.157269,-0.0102 c -1.529315,-0.0134 -4.374793,1.11127 -5.279251,2.08669 -0.397217,0.42838 -0.722212,0.67245 -0.722212,0.54238 z m 60.614635,-2.27111 c -0.38718,-0.62646 -5.12596,-2.05897 -6.02951,-1.82269 -0.72293,0.18905 -0.73061,-0.10503 -0.0128,-0.4892 0.78525,-0.42025 6.06896,1.24246 6.49845,2.04496 0.32342,0.60432 -0.096,0.84974 -0.45615,0.26693 z m -50.5922,-1.59662 c 0.190592,-1.02952 6.287961,-2.53845 6.814549,-1.68641 0.110423,0.17867 -0.264486,0.30233 -0.94504,0.31173 -1.580511,0.0218 -4.775389,0.88836 -5.430311,1.47286 l -0.5479,0.48899 z m 39.30027,-1.47627 c -0.96049,-0.5057 -5.11688,-1.0725 -6.08425,-0.82971 -0.57143,0.14342 -0.69899,0.0977 -0.52284,-0.1873 0.52604,-0.85115 7.22775,0.0709 7.60189,1.04586 0.19069,0.49692 -0.007,0.49119 -0.9948,-0.0289 z M 91.598835,118.8372 c 0,-0.66112 0.997815,-1.00846 3.759265,-1.30858 l 2.915431,-0.31687 0.691409,0.48428 0.691408,0.48429 h -0.505706 c -0.278139,0 -0.505707,-0.14893 -0.505707,-0.33094 0,-0.51811 -5.384656,0.19816 -6.385529,0.84941 -0.363314,0.2364 -0.660571,0.29869 -0.660571,0.13841 z m 18.111555,-0.7897 c -0.53189,-0.53189 -6.36805,-0.67923 -6.36805,-0.16077 0,0.16147 -0.21435,0.29359 -0.47633,0.29359 h -0.47633 l 0.36548,-0.44039 c 0.50926,-0.61361 6.37666,-0.63315 7.20972,-0.024 0.31318,0.22901 0.48628,0.49953 0.38465,0.60116 -0.10163,0.10162 -0.38924,-0.0197 -0.63914,-0.26959 z"
         id="path32" /><path
         style="fill:#887822"
         d="m 61.105667,196.69764 c -0.268245,-0.31477 -0.643013,-0.40902 -1.135204,-0.28549 -2.710995,0.68042 -3.088932,0.39964 -1.693813,-1.25836 0.808516,-0.96087 0.916765,-1.41162 0.381829,-1.58993 -0.224247,-0.0747 -0.176391,-0.18482 0.131764,-0.30307 0.783983,-0.30084 0.940204,0.82855 0.248898,1.7994 -0.724337,1.01724 -0.567845,1.24389 0.623022,0.90236 0.667103,-0.19132 1.108345,-0.13587 1.700077,0.21368 0.549671,0.3247 1.119451,0.41197 1.825196,0.27958 l 1.026052,-0.19249 0.265111,-0.92439 c 0.207976,-0.72517 0.668522,-1.14575 2.136995,-1.95156 l 1.871884,-1.02717 0.864024,0.32613 0.864025,0.32614 1.003265,-0.47843 c 0.785575,-0.37461 1.003266,-0.65499 1.003266,-1.29215 v -0.81374 l 2.035258,-1.64441 2.035259,-1.64441 1.063827,0.19957 1.063828,0.19958 0.726592,-0.6826 0.726593,-0.6826 -0.171531,-1.18808 -0.171532,-1.18807 1.554285,-1.84706 c 1.71219,-2.03471 2.23865,-2.27936 4.254507,-1.97706 0.984395,0.14762 1.575796,0.44387 2.11673,1.06032 0.855656,0.97513 2.248867,1.14824 3.363459,0.41793 l 0.667776,-0.43754 2.945854,0.38014 c 2.187881,0.28233 3.156699,0.546 3.7653,1.02472 0.978324,0.76955 3.108727,0.88789 3.676137,0.2042 0.50571,-0.60935 6.93079,-0.62033 7.73193,-0.0132 0.68728,0.52082 2.47794,0.27437 3.28117,-0.45158 0.42875,-0.3875 1.49189,-0.63412 3.8769,-0.89932 l 3.28615,-0.3654 0.58197,0.52668 0.58197,0.52668 1.26609,-0.21017 c 0.85352,-0.14168 1.50526,-0.48267 2.00006,-1.04644 0.95991,-1.09372 5.81668,-2.53151 6.7906,-2.01028 0.99354,0.53172 2.57831,0.0725 3.14184,-0.91051 0.35513,-0.61946 1.25186,-1.20826 3.25941,-2.14013 l 2.7695,-1.28557 0.97016,0.29775 0.97017,0.29776 1.03113,-0.55531 c 0.73313,-0.39481 1.03114,-0.75651 1.03114,-1.25151 0,-1.2716 4.90439,-5.20109 6.1129,-4.89777 0.54085,0.13574 0.93192,-0.0208 1.56372,-0.62616 l 0.8425,-0.80716 -0.1641,-0.8968 -0.1641,-0.89679 1.31937,-2.05512 c 1.90899,-2.97354 2.46093,-3.61932 3.18253,-3.72362 0.43685,-0.0631 0.7807,-0.4544 1.07051,-1.21812 l 0.42693,-1.12511 -0.49205,-0.83298 -0.49206,-0.83299 0.19425,-3.40112 c 0.19132,-3.34972 0.51339,-4.31218 1.28368,-3.83611 0.22165,0.13698 0.18367,0.30729 -0.1202,0.53905 -0.32473,0.24767 -0.4975,1.20915 -0.64228,3.57456 l -0.19807,3.23575 0.47793,0.39664 c 0.6046,0.50178 0.60163,0.55925 -0.13035,2.51564 l -0.60827,1.62574 h -0.71039 c -0.41845,0 -0.86222,0.26083 -1.07986,0.6347 -0.20321,0.34908 -0.93096,1.48954 -1.61722,2.53437 -1.31179,1.99718 -1.44049,2.3925 -0.94139,2.8916 0.21275,0.21275 -0.1141,0.774 -1.06968,1.83684 -0.96643,1.0749 -1.46837,1.43815 -1.68622,1.2203 -0.85611,-0.85611 -5.88339,2.82729 -5.69639,4.17365 0.0505,0.36328 -0.45952,0.82239 -1.68905,1.52059 l -1.76133,1.00019 -0.48439,-0.43836 -0.48439,-0.43837 -2.45168,1.10006 c -2.90734,1.30452 -3.18565,1.49341 -3.18565,2.16206 0,0.34975 -0.52199,0.71024 -1.65783,1.1449 l -1.65784,0.63442 -0.54011,-0.4888 -0.54012,-0.4888 -2.42605,0.67584 c -2.90127,0.80822 -3.45361,1.06266 -3.45361,1.59096 0,0.3505 -0.92016,0.65348 -3.56237,1.17298 -0.26383,0.0519 -0.70134,-0.16455 -0.97224,-0.48093 -0.2709,-0.31639 -0.68609,-0.50098 -0.92265,-0.4102 -0.23656,0.0908 -1.51079,0.25517 -2.83161,0.36532 l -2.40151,0.20028 -0.65995,0.65995 c -0.50397,0.50397 -1.07379,0.68362 -2.41093,0.7601 l -1.75097,0.10015 -0.34078,-0.54699 -0.34077,-0.54699 -2.94484,0.11828 -2.94485,0.11828 -0.39847,0.54494 -0.39848,0.54495 -1.79602,-0.18772 c -1.229968,-0.12856 -1.950138,-0.3645 -2.285011,-0.74861 -0.370146,-0.42458 -1.199712,-0.64615 -3.413344,-0.91169 l -2.924357,-0.3508 -0.457757,0.56531 c -0.251766,0.31092 -0.587235,0.53253 -0.745487,0.49248 -0.158252,-0.04 -0.88551,-0.15289 -1.616128,-0.25077 -0.991926,-0.13288 -1.400924,-0.34323 -1.614732,-0.83046 -0.206108,-0.46968 -0.738563,-0.763 -1.900381,-1.04689 l -1.614047,-0.39438 -1.688813,1.79674 c -1.684092,1.79172 -1.996346,2.53049 -1.344895,3.18194 0.26283,0.26284 -0.01603,0.70386 -1.182739,1.87058 -1.166712,1.16671 -1.607741,1.44557 -1.870572,1.18274 -0.562042,-0.56205 -1.118461,-0.40337 -2.544944,0.72576 -2.029382,1.60635 -2.420579,2.12058 -2.087165,2.74357 l 0.283251,0.52925 -1.733352,0.88715 -1.733351,0.88715 -0.159678,-0.41611 c -0.437071,-1.13899 -4.806945,1.05467 -4.435058,2.22638 0.307893,0.97009 -3.190198,1.87056 -3.923563,1.01001 z m -0.05575,-6.0172 c -0.23351,-0.14773 -0.358505,-0.28073 -0.277769,-0.29556 1.423119,-0.26135 1.169925,-0.0207 2.761195,-2.62432 1.227925,-2.00911 1.493671,-2.84823 1.065443,-3.36421 -0.197481,-0.23795 -0.220798,-0.46894 -0.05752,-0.56985 0.151018,-0.0933 0.436415,0.0253 0.634216,0.26363 1.029526,1.24051 -2.831854,7.4088 -4.125563,6.59031 z m 4.713219,-10.10356 c 0,-0.26334 0.172042,-0.36515 0.441981,-0.26156 0.478056,0.18344 1.036689,-0.90425 1.82745,-3.55818 l 0.435563,-1.46181 -0.891207,-0.74009 c -0.490164,-0.40705 -1.364433,-0.99286 -1.942819,-1.30179 l -1.051612,-0.56171 -0.707075,0.37842 -0.707074,0.37841 -0.977907,-0.67307 c -1.775816,-1.22225 -2.030705,-1.51206 -1.690466,-1.92202 0.610187,-0.73523 -3.265488,-4.95231 -4.378144,-4.76381 -0.299339,0.0507 -0.597532,-0.0399 -0.66265,-0.20138 -0.06512,-0.16148 0.188927,-0.33713 0.564546,-0.39034 1.297475,-0.1838 5.458291,4.20309 5.150317,5.43016 l -0.164126,0.65393 1.125455,0.47025 c 0.619,0.25863 1.424467,0.39519 1.789927,0.30347 1.368341,-0.34343 4.773716,1.84172 4.773716,3.06319 0,0.95985 -1.093245,4.68004 -1.534614,5.22211 -0.412842,0.50704 -1.401261,0.46177 -1.401261,-0.0642 z M 53.065471,162.92277 c 0.764551,-0.346 -1.036745,-5.00802 -2.18279,-5.64938 -0.616984,-0.34528 -0.333019,-0.78822 0.339801,-0.53004 0.57587,0.22099 2.876864,4.99114 2.742967,5.68641 -0.05465,0.28375 -0.362066,0.54813 -0.683158,0.5875 -0.321092,0.0394 -0.418661,-0.003 -0.21682,-0.0945 z m -2.987923,-7.71588 c -0.09775,-0.15816 -0.04345,-0.37054 0.120656,-0.47197 0.411765,-0.25448 0.392851,-6.98394 -0.02079,-7.39759 -0.218127,-0.21812 -0.22279,-0.37873 -0.01473,-0.50732 0.167441,-0.10348 0.433312,0.0526 0.590826,0.34697 0.839095,1.56786 0.178707,9.41279 -0.67596,8.02991 z M 156.47846,143.94262 c -0.31997,-0.52479 -0.58226,-1.06318 -0.58286,-1.19642 -6e-4,-0.13324 -0.53294,-1.13749 -1.18298,-2.23166 -1.16088,-1.95406 -1.29624,-2.95745 -0.39895,-2.95745 0.32048,0 0.33955,0.11515 0.0862,0.52077 l -0.32523,0.52078 0.87688,1.46094 c 0.48228,0.80352 1.19561,2.05546 1.58518,2.78209 0.4433,0.82684 0.89504,1.30588 1.20739,1.28037 0.2745,-0.0224 0.49908,0.14271 0.49908,0.36698 0,0.78495 -1.17477,0.42122 -1.76474,-0.5464 z m -105.688292,0.22019 c 0,-0.24221 0.153635,-0.40735 0.341411,-0.36698 0.535219,0.11506 3.196597,-4.79549 3.023206,-5.57817 -0.1677,-0.75698 0.376508,-0.90538 0.655359,-0.1787 0.201527,0.52517 -2.315559,5.57566 -3.088618,6.19725 -0.607766,0.48868 -0.931358,0.46318 -0.931358,-0.0734 z m 4.697401,-8.07366 c 0,-0.16147 0.301393,-0.29358 0.669762,-0.29358 0.888962,0 4.180582,-3.2882 3.934241,-3.93015 -0.096,-0.25017 -0.05771,-0.52707 0.08508,-0.61532 0.142795,-0.0883 0.349088,0.1214 0.458427,0.4659 l 0.198799,0.62636 -2.00471,2.02019 c -1.84578,1.86004 -3.341601,2.63292 -3.341601,1.7266 z m 92.553471,-3.14236 c -2.3422,-1.89743 -3.20193,-3.31656 -2.0092,-3.31656 0.25759,0 0.35932,0.20484 0.27047,0.54461 -0.16407,0.6274 3.7924,4.13744 4.6746,4.14714 0.28258,0.003 0.51378,0.13776 0.51378,0.29924 0,0.72608 -1.21356,0.13704 -3.44965,-1.67443 z m -84.846799,-2.92382 c -0.201841,-0.0814 -0.366984,-0.28332 -0.366984,-0.44862 0,-0.16529 0.212492,-0.21899 0.472205,-0.11933 0.990212,0.37998 5.68707,-2.6451 5.23716,-3.37307 -0.133187,-0.2155 -0.06019,-0.29362 0.194916,-0.20858 1.179349,0.39311 -3.611267,4.52415 -5.010751,4.32086 -0.08776,-0.0128 -0.324704,-0.0898 -0.526546,-0.17126 z m 75.231809,-3.32691 c -2.39943,-1.28569 -3.69193,-2.64399 -2.51592,-2.64399 0.17271,0 0.31401,0.18747 0.31401,0.4166 0,0.67916 4.88765,3.19604 5.77436,2.97349 0.53397,-0.13402 0.70705,-0.0798 0.61726,0.19355 -0.24734,0.75287 -1.59519,0.45058 -4.18971,-0.93965 z m -66.396195,-1.61334 c -0.297464,-0.21751 -0.445158,-0.49116 -0.328209,-0.60811 0.116949,-0.11694 0.383003,-0.0712 0.591231,0.10158 0.602815,0.50029 5.507344,-1.3069 5.507344,-2.02931 0,-0.30246 0.132114,-0.54993 0.293587,-0.54993 0.419266,0 0.363573,1.04905 -0.0734,1.38251 -0.201841,0.15403 -1.510598,0.68925 -2.908348,1.18939 l -2.541365,0.90935 z m 56.412275,-2.16235 c -2.81989,-0.93166 -3.08073,-1.08588 -3.08073,-1.82151 0,-0.73721 0.47455,-0.73866 0.66718,-0.002 0.10996,0.42047 0.81809,0.77205 2.72914,1.35495 l 2.58065,0.78715 0.35959,-0.49176 c 0.26608,-0.36389 0.41675,-0.39927 0.57942,-0.13607 0.71713,1.16034 -0.87154,1.28845 -3.83525,0.30927 z M 81.774913,121.8947 c -0.315121,-0.23042 -0.449481,-0.54449 -0.321516,-0.75154 0.163676,-0.26483 0.308092,-0.23499 0.565351,0.11683 l 0.345521,0.47253 2.782361,-0.68111 2.78236,-0.68112 -0.04078,-0.50781 c -0.02243,-0.2793 0.142717,-0.50781 0.366985,-0.50781 0.455306,0 0.527281,0.53127 0.152138,1.12297 -0.135648,0.21395 -1.54001,0.70938 -3.120805,1.10095 -3.397383,0.84155 -2.859275,0.79311 -3.511619,0.31611 z m 34.918117,-1.49141 c -1.13446,-0.18997 -2.22441,-0.44536 -2.4221,-0.56754 -0.43051,-0.26607 -0.4835,-1.36185 -0.0659,-1.36185 0.16148,0 0.29359,0.20232 0.29359,0.4496 0,0.58061 0.26764,0.67114 3.28759,1.11213 2.73353,0.39917 3.17134,0.36385 3.17134,-0.25583 0,-0.23866 0.17973,-0.33773 0.435,-0.23978 0.32932,0.12637 0.36247,0.30246 0.13647,0.72476 -0.34832,0.65083 -1.56787,0.68576 -4.83603,0.13851 z m -24.771801,-0.57353 c -0.205119,-0.24716 -0.28283,-0.59518 -0.172691,-0.77339 0.134904,-0.21828 0.314826,-0.16733 0.551347,0.15613 l 0.351093,0.48015 2.862336,-0.21011 2.862336,-0.21011 0.421477,-0.60174 c 0.520423,-0.74301 0.893694,-0.46672 0.461212,0.34138 -0.361759,0.67595 -0.970657,0.8239 -4.449356,1.08112 l -2.514809,0.18594 z m 10.979101,-0.77048 c -0.29316,-0.32394 -0.43495,-0.68704 -0.31509,-0.80691 0.11986,-0.11986 0.38683,0.0131 0.59327,0.29539 l 0.37535,0.51332 h 2.96232 2.96232 l 0.26755,-0.47808 c 0.16681,-0.29809 0.33912,-0.36227 0.45766,-0.17047 0.51335,0.83061 -0.71741,1.23572 -3.75417,1.23572 h -3.0162 z"
         id="path31" /><path
         style="fill:#1b1a0e"
         d="m 54.508943,198.72116 c -0.639727,-0.63973 2.80911,-5.08885 3.944736,-5.08885 0.755628,0 0.699852,0.47936 -0.177029,1.52148 -1.393658,1.65627 -1.016301,1.93856 1.685069,1.26056 0.474127,-0.119 0.889119,-0.0191 1.196127,0.28789 0.719908,0.71991 0.295825,1.33234 -0.930891,1.34434 -0.588248,0.006 -1.862229,0.20186 -2.831067,0.43579 -1.964952,0.47446 -2.598842,0.52689 -2.886945,0.23879 z m 10.544552,-2.9294 c -0.252567,-0.65818 0.434229,-1.34291 2.15569,-2.1492 2.821002,-1.32129 3.405393,0.23716 0.641361,1.71037 -1.955358,1.04219 -2.530869,1.13249 -2.797051,0.43883 z m 7.770328,-4.1873 c -0.691556,-1.29219 3.723687,-4.55919 4.651203,-3.4416 0.348598,0.42003 -0.505569,1.35182 -2.93198,3.19841 -1.254871,0.95501 -1.3324,0.96597 -1.719223,0.24319 z m -11.720339,-1.59651 c -0.446699,-0.53824 2.473031,-5.84147 3.139786,-5.70293 0.810211,0.16835 0.48894,1.54669 -0.876136,3.75887 -1.321842,2.14212 -1.775751,2.53195 -2.26365,1.94406 z m 19.144006,-5.34987 c -0.248865,-0.64853 0.338247,-1.61569 1.936304,-3.18972 l 1.379026,-1.35829 1.503343,0.32241 c 1.638936,0.35149 2.297281,0.88755 2.009867,1.63654 l -0.184682,0.48127 -1.412533,-0.18738 -1.412533,-0.18738 -1.334767,1.47137 c -1.363235,1.50275 -2.169454,1.83094 -2.484025,1.01118 z m 22.01909,-0.88069 c -0.32347,-0.84296 0.45694,-1.13259 3.36672,-1.24946 l 2.86918,-0.11524 0.38865,0.46829 c 0.21376,0.25756 0.31196,0.66814 0.21822,0.91241 l -0.17042,0.44412 h -3.24789 -3.2479 z m -8.966317,-0.1401 c -2.620623,-0.30548 -3.261732,-0.81903 -2.161936,-1.73178 0.551279,-0.45752 6.183663,0.18447 6.660642,0.75919 0.990072,1.19297 -0.270434,1.46548 -4.498706,0.97259 z m 19.890697,-0.20458 c -0.34125,-0.8893 0.76698,-1.43887 3.33315,-1.65288 1.29951,-0.10838 2.5474,-0.2679 2.77308,-0.35451 0.22569,-0.0866 0.63181,0.064 0.9025,0.3347 l 0.49216,0.49216 -0.45377,0.50141 c -0.89,0.98344 -6.71493,1.54479 -7.04712,0.67912 z m 11.68186,-2.00402 c -0.27084,-0.7058 0.16341,-0.95757 3.09506,-1.79446 l 2.71124,-0.77398 0.48672,0.48672 0.48672,0.48673 -0.47079,0.47079 c -1.09501,1.095 -5.98573,1.96649 -6.30895,1.1242 z m -58.992362,-1.41913 c -0.08681,-0.22622 -0.01306,-1.18405 0.16389,-2.12851 l 0.321725,-1.7172 -0.737881,-0.58717 c -0.405835,-0.32295 -1.099386,-0.86846 -1.541225,-1.21226 l -0.803344,-0.62508 0.39494,-0.47587 c 0.570112,-0.68694 1.040544,-0.59836 2.800258,0.52732 1.998172,1.27821 2.035152,1.35111 1.535695,3.02713 -0.939047,3.15114 -1.708188,4.30144 -2.134058,3.19164 z m 69.536312,-1.26755 c -1.3085,-0.4692 -0.38573,-1.3989 2.81297,-2.83409 l 2.44598,-1.09746 0.4165,0.34566 c 0.66084,0.54845 0.49176,1.06012 -0.56642,1.71411 -1.31851,0.81488 -4.6513,2.03591 -5.10903,1.87178 z m 9.76016,-5.36987 c -0.36711,-0.59401 0.23035,-1.35331 2.36581,-3.00664 2.25829,-1.74844 2.96094,-2.01304 3.26203,-1.2284 0.46377,1.20856 -4.97079,5.29816 -5.62784,4.23504 z m -87.3904,-4.0309 c -2.088526,-2.1896 -2.628564,-3.6367 -1.186346,-3.17896 0.804237,0.25526 4.245967,3.90688 4.100016,4.35006 -0.29969,0.91 -1.319673,0.50004 -2.91367,-1.1711 z m 95.81799,-3.36488 c -0.54889,-0.54888 -0.44099,-0.90286 0.89544,-2.93755 0.68626,-1.04483 1.41401,-2.18529 1.61722,-2.53437 0.42449,-0.7292 1.4761,-0.84624 1.72707,-0.19222 0.18961,0.49411 -1.78584,3.95843 -2.97036,5.20908 -0.8858,0.93525 -0.81468,0.90976 -1.26937,0.45506 z M 51.77387,161.82361 c -1.507896,-2.32921 -1.962497,-5.23574 -0.696532,-4.45333 0.434324,0.26843 2.355118,4.30285 2.355118,4.94667 0,0.82963 -0.993415,0.53414 -1.658586,-0.49334 z m 106.76723,-6.2057 c -0.43334,-0.52214 -0.16745,-6.54709 0.31053,-7.03661 0.51801,-0.5305 0.92158,0.35779 1.21497,2.67424 0.4096,3.23401 -0.44167,5.66832 -1.5255,4.36237 z M 49.160883,154.24573 c -0.325442,-1.02538 -0.203928,-5.73055 0.165837,-6.42146 0.732153,-1.36804 1.023067,-0.44153 1.023067,3.25829 v 3.64136 l -0.488695,0.0941 c -0.299389,0.0577 -0.570629,-0.16403 -0.700209,-0.5723 z M 157.13913,143.94262 c -0.16237,-0.20184 -0.70328,-1.15967 -1.20203,-2.12851 -0.49875,-0.96884 -1.13322,-2.1148 -1.40993,-2.54658 l -0.50312,-0.78506 0.37888,-0.45652 c 0.55214,-0.66529 1.18049,-0.20668 2.33191,1.70199 1.66498,2.75998 2.03124,4.58166 0.92119,4.58166 -0.12193,0 -0.35454,-0.16514 -0.5169,-0.36698 z m -106.340342,-0.21477 -0.431761,-0.26694 0.400518,-1.11698 c 0.905649,-2.52573 2.735046,-4.83414 3.346466,-4.22272 0.660914,0.66092 -2.545059,6.08279 -3.315223,5.60664 z m 4.982368,-8.46334 c 0,-0.81222 3.037581,-3.87276 3.843708,-3.87276 0.939777,0 0.511046,1.06011 -1.078258,2.66617 -1.732691,1.75096 -2.76545,2.20156 -2.76545,1.20659 z m 92.553464,-2.7274 c -2.11113,-1.7647 -2.53825,-2.47449 -1.68586,-2.80158 0.80402,-0.30853 4.84193,3.05405 4.84193,4.03213 0,0.983 -0.95205,0.61179 -3.15607,-1.23055 z m -85.050608,-3.17397 c -0.421474,-0.68196 3.273928,-3.54955 4.57423,-3.54955 1.656358,0 0.84602,1.09978 -1.945907,2.64096 -2.316544,1.27876 -2.384932,1.3024 -2.628323,0.90859 z m 75.362228,-3.14382 c -3.5873,-1.97943 -3.11873,-3.02952 0.59362,-1.33035 2.19291,1.00371 3.32167,1.87666 3.03221,2.34501 -0.3595,0.58168 -1.11695,0.36971 -3.62583,-1.01466 z m -66.390253,-1.68599 c -0.495193,-0.59667 0.168513,-1.17531 2.241177,-1.95393 2.317083,-0.87043 3.131946,-0.89511 3.2459,-0.0983 l 0.09023,0.63096 -2.291842,0.78788 c -1.260512,0.43334 -2.437156,0.84741 -2.614762,0.92016 -0.177607,0.0727 -0.479424,-0.0563 -0.670706,-0.28678 z m 56.247213,-2.13016 c -3.44856,-1.09373 -3.63856,-2.56367 -0.20592,-1.5931 3.00856,0.85066 3.57722,1.12914 3.46764,1.69815 -0.14068,0.7305 -0.6822,0.71306 -3.26172,-0.10505 z m -46.48119,-1.12613 c -0.314416,-0.81935 0.605307,-1.20203 4.942026,-2.05627 0.610932,-0.12034 1.317961,0.63613 0.937832,1.00342 -0.210104,0.203 -5.027263,1.47918 -5.583435,1.47918 -0.07305,0 -0.206446,-0.19185 -0.296423,-0.42633 z m 35.56728,-1.25496 c -2.80675,-0.41261 -3.27836,-0.63549 -2.98153,-1.40902 l 0.18707,-0.48749 1.54004,0.19045 c 3.44592,0.42615 4.62272,0.7626 4.62272,1.32164 0,0.76933 -0.42221,0.81752 -3.3683,0.38442 z m -25.249019,-0.65533 c -0.362215,-0.58608 0.405111,-1.10792 1.906228,-1.29639 0.804409,-0.101 2.10328,-0.26459 2.886381,-0.36354 l 1.42382,-0.17991 0.201699,0.52562 c 0.114438,0.29822 0.03826,0.68044 -0.176073,0.88348 -0.522201,0.49467 -5.970197,0.87061 -6.242055,0.43074 z m 10.929929,-0.67266 c -0.34594,-0.9407 0.11224,-1.10095 3.14786,-1.10095 h 3.02679 l 0.17916,0.46688 c 0.0985,0.25678 0.10487,0.58706 0.0141,0.73396 -0.26586,0.43017 -6.20724,0.33697 -6.36789,-0.0999 z"
         id="path30" /></g></g></svg>
