<?xml version="1.0" encoding="UTF-8" standalone="no"?>
<!-- Created with Inkscape (http://www.inkscape.org/) -->

<svg
   width="210mm"
   height="297mm"
   viewBox="0 0 210 297"
   version="1.1"
   id="svg1"
   sodipodi:docname="THOUGHT.svg"
   xml:space="preserve"
   inkscape:version="1.4.4 (dcaf3e7, 2026-05-05)"
   xmlns:inkscape="http://www.inkscape.org/namespaces/inkscape"
   xmlns:sodipodi="http://sodipodi.sourceforge.net/DTD/sodipodi-0.dtd"
   xmlns="http://www.w3.org/2000/svg"
   xmlns:svg="http://www.w3.org/2000/svg"><sodipodi:namedview
     id="namedview1"
     pagecolor="#ffffff"
     bordercolor="#000000"
     borderopacity="0.25"
     inkscape:showpageshadow="2"
     inkscape:pageopacity="0.0"
     inkscape:pagecheckerboard="0"
     inkscape:deskcolor="#d1d1d1"
     inkscape:document-units="mm"
     inkscape:zoom="0.6727633"
     inkscape:cx="252.68917"
     inkscape:cy="597.53557"
     inkscape:window-width="1280"
     inkscape:window-height="778"
     inkscape:window-x="-6"
     inkscape:window-y="-6"
     inkscape:window-maximized="1"
     inkscape:current-layer="layer1" /><defs
     id="defs1" /><g
     inkscape:label="Layer 1"
     inkscape:groupmode="layer"
     id="layer1"><g
       id="g27"><path
         id="path30"
         style="fill:#9e9e9e"
         d="M 104.96259 92.637756 C 104.59496 92.62916 104.36043 92.960924 103.98125 93.372595 C 103.60186 93.784501 101.39526 97.124331 99.077673 100.79488 C 96.760091 104.46543 94.650168 107.70729 94.389071 107.99858 L 93.914681 108.52826 L 83.842944 103.38077 L 73.770691 98.232764 L 73.107682 98.65651 L 72.444157 99.080257 L 72.54906 107.99806 L 72.65448 116.91586 L 71.778048 116.91276 C 70.561763 116.9087 65.999894 116.36246 57.443005 115.19607 C 46.782554 113.74295 46.69152 113.87789 52.393184 122.69949 C 59.578986 133.81733 59.431413 133.4534 57.116927 134.35149 C 54.106575 135.5196 42.379441 140.42623 41.500309 140.88546 C 40.035279 141.65073 40.386266 142.95905 42.367957 144.1204 C 44.306952 145.25673 44.340969 145.31889 43.515173 146.23138 L 42.927096 146.88147 L 43.442826 147.30935 C 43.726428 147.54472 46.63715 149.14421 49.911165 150.86366 C 53.185181 152.5831 56.102106 154.22158 56.393457 154.50478 L 56.92314 155.01948 L 52.70531 160.16645 C 46.797691 167.37546 46.643303 167.85685 50.069295 168.3706 C 52.0788 168.67195 52.071427 168.65728 51.026343 170.34826 L 50.23776 171.62415 L 50.930225 171.98795 C 51.31089 172.18811 54.39861 172.57112 57.791821 172.83906 C 61.185031 173.107 64.156133 173.43073 64.394519 173.5584 C 64.674379 173.70829 63.203349 177.20635 60.242318 183.43066 C 54.815677 194.83786 54.662578 196.31874 59.148844 194.03002 C 61.212162 192.9774 61.39542 193.21653 60.151884 195.33846 C 59.595929 196.28713 59.141093 197.33622 59.141093 197.66959 C 59.141093 198.77032 59.371598 198.66185 73.022416 191.13355 C 80.118141 187.22033 85.017195 184.69277 85.183431 184.859 C 85.27586 184.95143 85.618474 186.48964 85.944625 188.2774 C 86.650264 192.14528 87.07664 193.26314 87.846318 193.26314 C 88.502931 193.26314 89.217293 194.41573 89.217293 195.47437 C 89.217293 197.88397 89.673074 197.68319 98.456523 191.4064 C 102.15939 188.76026 105.41379 186.57754 105.68864 186.55554 C 105.9635 186.53351 108.15066 189.11823 110.54932 192.29937 C 112.94798 195.4805 115.15639 198.083 115.45652 198.083 C 115.96264 198.083 117.74884 195.79638 122.29589 189.32746 C 124.71054 185.89223 124.12581 185.79643 131.39921 190.81419 C 134.93075 193.25051 138.1094 195.18849 138.46287 195.12039 L 139.10572 194.99637 L 140.31185 188.35181 C 140.9753 184.69711 141.61481 181.60989 141.73295 181.49176 C 141.85108 181.37362 146.10182 182.67286 151.17889 184.37841 C 161.99969 188.01346 161.51179 187.93213 161.14417 186.03309 C 160.99021 185.2378 160.7434 183.80065 160.59537 182.83897 C 160.44734 181.87729 159.40203 178.62814 158.27303 175.61874 C 155.7281 168.83523 155.60909 169.15429 160.80569 168.84034 C 174.84058 167.99242 175.57562 167.81331 173.71963 165.69945 C 172.35797 164.14861 172.24737 163.75397 173.08401 163.43292 C 174.40181 162.92723 173.55017 161.48374 169.03516 156.56874 C 166.49025 153.79837 164.40805 151.38621 164.40805 151.20834 C 164.40805 151.03048 167.5393 148.94506 171.3668 146.574 C 178.83239 141.94923 179.23338 141.48557 176.56338 140.56196 C 174.34953 139.79614 174.21554 139.47779 175.71641 138.5502 C 178.75154 136.67439 178.27481 136.28048 169.20414 133.17017 C 164.48597 131.55233 161.47815 130.32382 161.41805 129.99052 C 161.36415 129.69181 162.79527 126.67147 164.59822 123.27826 C 168.34593 116.22491 168.36764 116.14485 166.52885 116.14485 C 164.97111 116.14485 164.90311 115.88419 165.93302 113.8654 L 166.68647 112.38797 L 166.1666 111.67742 L 165.64674 110.96635 L 159.9184 111.87483 C 156.7677 112.37451 152.02444 113.17861 149.37796 113.66128 C 143.42974 114.74613 143.91692 115.25588 144.21859 108.25954 L 144.47284 102.35241 L 143.6641 101.91936 C 143.0288 101.57936 142.82997 101.05202 142.73857 99.46473 L 142.62179 97.443665 L 141.75517 97.320158 C 141.21959 97.24409 136.70028 99.346709 129.93005 102.82163 L 118.97207 108.44609 L 115.03897 103.71615 C 107.71237 94.904289 105.90207 92.659724 104.96259 92.637756 z M 105.3145 93.233069 C 105.47183 93.234567 105.62318 93.286582 105.77752 93.381897 C 105.93187 93.477212 106.08919 93.61626 106.25708 93.792725 C 106.08919 93.61626 105.93187 93.477212 105.77752 93.381897 C 105.31449 93.095952 104.8752 93.204031 104.23653 93.87644 C 104.66242 93.427991 104.99979 93.230072 105.3145 93.233069 z M 105.33052 93.368461 L 108.7453 97.480872 C 116.50179 106.82061 118.59356 109.20402 119.02891 109.19902 C 119.28087 109.19625 124.3454 106.68308 130.28352 103.61435 C 136.22164 100.54563 141.27088 98.031725 141.50454 98.028125 C 142.0484 98.019737 142.42397 102.77129 142.42697 109.69821 L 142.42903 115.0121 L 143.05793 115.25343 C 143.40385 115.38617 144.83544 115.30579 146.23914 115.07463 C 147.64284 114.84346 152.50226 114.02979 157.03796 113.26699 C 161.57365 112.50419 165.379 111.974 165.49377 112.08877 C 165.67347 112.26847 164.34081 115.56106 163.1673 117.83725 C 162.96071 118.23795 161.59403 120.85544 160.12976 123.65395 C 158.6655 126.45246 157.46956 128.90096 157.47256 129.09496 C 157.48135 129.70669 161.65847 131.48452 169.01242 134.00629 C 177.06443 136.76744 176.99452 136.71152 174.52216 138.41997 C 173.51893 139.11323 172.00426 140.17879 171.15596 140.78779 C 170.30765 141.3968 167.57484 143.1478 165.08295 144.67902 C 159.92983 147.84552 160.11594 147.57474 161.90175 149.30562 C 162.64402 150.02505 163.25102 150.80771 163.25102 151.04504 C 163.25102 151.28237 165.41993 153.83879 168.07088 156.72583 C 170.72182 159.61288 172.89074 162.08288 172.89074 162.2149 C 172.89074 162.80241 170.10076 163.51416 166.91436 163.73936 C 165.00568 163.87426 161.30485 164.1768 158.69006 164.41167 L 153.93582 164.83852 L 154.16888 165.65139 C 154.29704 166.09845 154.65771 167.41865 154.97039 168.58506 C 155.28307 169.75148 156.51763 173.36196 157.7144 176.60834 C 160.37747 183.83227 160.4536 183.71089 154.54561 181.67005 C 146.56558 178.91345 140.14352 176.91155 139.93823 177.11684 C 139.68906 177.36601 138.75461 182.40255 138.15849 186.70798 C 137.39357 192.2326 138.25685 192.38217 127.4625 184.85435 C 125.2751 183.32888 123.28014 182.08576 123.02867 182.09276 C 122.511 182.10648 122.47466 182.15394 117.71581 189.01017 C 113.3297 195.32938 114.3331 195.44235 108.76907 187.99886 C 106.52565 184.99766 104.5087 182.42998 104.28666 182.29275 C 103.90922 182.05948 103.0976 182.57095 97.122237 186.80617 C 86.832742 194.09918 87.859806 194.01326 86.704785 187.67537 C 86.357303 185.76865 85.935394 184.03383 85.767375 183.81979 C 85.599357 183.60575 85.336891 182.73791 85.183948 181.89122 C 85.031004 181.04453 84.820012 180.21279 84.715243 180.04327 C 84.538089 179.75663 81.083352 181.49611 73.601192 185.63828 C 64.313051 190.78026 62.550171 191.7206 62.201371 191.7206 C 61.990802 191.7206 60.787475 192.2414 59.527116 192.87763 C 55.560844 194.87979 55.456257 195.48788 61.133219 183.51903 C 65.044483 175.27283 67.380001 169.75411 67.083244 169.45736 C 67.017212 169.39133 63.9452 169.07287 60.256787 168.74991 C 56.568375 168.42696 53.047313 167.99743 52.432458 167.79544 C 51.817603 167.59344 50.733404 167.42854 50.022786 167.42854 C 48.058191 167.42854 48.329402 166.86047 53.086165 161.01756 C 55.481672 158.07506 57.832462 155.02652 58.310136 154.24278 L 59.1783 152.81806 L 58.099813 152.15815 C 57.506444 151.79539 56.413286 151.13079 55.671021 150.68124 C 54.928756 150.23169 52.811659 149.1268 50.965881 148.22558 C 49.120103 147.32435 47.124619 146.1863 46.531527 145.69653 C 45.938435 145.20676 44.537901 144.31355 43.419055 143.71164 C 40.398897 142.08689 39.717926 142.53612 54.707255 136.25577 C 57.583961 135.05046 59.092606 134.54654 59.414978 133.61045 C 58.890506 134.06531 56.279555 135.18744 46.609558 139.1915 L 41.211438 141.42651 L 46.609558 139.19099 C 56.280972 135.18633 58.89104 134.06414 59.414978 133.60942 C 59.414901 133.60964 59.415055 133.61023 59.414978 133.61045 C 59.435295 133.59283 59.45231 133.57555 59.466654 133.55981 C 59.473679 133.55211 59.480074 133.54488 59.485775 133.53759 C 59.485866 133.53747 59.485684 133.53719 59.485775 133.53707 C 59.491535 133.52968 59.496807 133.52289 59.501278 133.51588 C 59.505857 133.5087 59.509348 133.50203 59.512646 133.49521 C 59.515826 133.4887 59.518834 133.48229 59.520915 133.47609 C 59.52097 133.47592 59.520861 133.47574 59.520915 133.47557 C 59.522963 133.4694 59.524541 133.46339 59.525566 133.45749 C 59.525593 133.45732 59.525539 133.45714 59.525566 133.45697 C 59.526078 133.45394 59.526343 133.45114 59.526599 133.44819 C 59.526848 133.44522 59.527116 133.4423 59.527116 133.4394 C 59.527115 133.43925 59.527118 133.43903 59.527116 133.43888 C 59.527116 133.43651 59.526552 133.43371 59.526082 133.43062 C 59.526059 133.43047 59.526107 133.43024 59.526082 133.4301 C 59.525554 133.42676 59.524551 133.42339 59.523499 133.41925 C 59.52136 133.41086 59.518427 133.4009 59.514197 133.38927 C 59.505907 133.36642 59.493194 133.33753 59.47699 133.30246 C 59.476908 133.30228 59.477072 133.30212 59.47699 133.30194 C 59.556328 132.2296 58.391519 130.57075 56.182617 127.07855 C 49.029852 115.77026 48.445304 114.52782 50.560221 115.12631 C 50.932398 115.23163 52.19105 115.42827 53.357467 115.56349 C 54.523883 115.69871 58.551221 116.23156 62.306791 116.74791 C 66.062362 117.26425 70.113965 117.68687 71.310376 117.68687 L 73.485437 117.68687 L 73.205351 108.67864 C 73.017142 102.63399 73.054856 99.589688 73.320589 99.425456 C 73.538401 99.29084 78.292558 101.51437 83.885319 104.36624 C 89.478081 107.21811 94.245187 109.42971 94.478988 109.28118 C 94.712789 109.13264 96.029184 107.18938 97.403874 104.96259 C 101.19858 98.815722 104.16581 94.335324 104.77913 93.826314 L 105.33052 93.368461 z M 105.03803 96.110413 C 104.80082 96.100215 104.60696 96.222365 104.45099 96.474731 C 104.31355 96.697124 104.47705 96.7558 104.84321 96.615291 C 105.26987 96.451567 105.84091 96.823324 106.62657 97.776461 C 107.26219 98.547575 107.8644 99.178442 107.96499 99.178442 C 107.96734 99.178442 107.96946 99.178164 107.97119 99.177409 C 107.97146 99.177262 107.97248 99.176543 107.97274 99.176375 C 107.97297 99.176187 107.97407 99.17555 107.97429 99.175342 C 108.02383 99.119212 107.56063 98.448269 106.9082 97.636418 C 106.10166 96.632776 105.49089 96.129881 105.03803 96.110413 z M 141.78566 97.893766 C 141.94238 97.901947 142.06182 97.941672 142.15256 98.009521 C 142.17082 98.02317 142.18771 98.038043 142.20372 98.053963 C 142.18779 98.03815 142.17071 98.023088 142.15256 98.009521 C 141.9166 97.83316 141.48708 97.848639 140.71027 98.10719 C 138.79815 98.743622 134.78045 100.85332 126.3587 105.20081 C 122.50385 107.19077 119.18079 108.81868 118.97362 108.81868 C 118.97361 108.81868 118.97362 108.81816 118.97362 108.81816 C 119.18079 108.81816 122.50385 107.19026 126.3587 105.2003 C 134.78035 100.85285 138.79812 98.74365 140.71027 98.10719 C 141.18842 97.948041 141.53487 97.880675 141.78566 97.893766 z M 73.144889 98.959334 C 73.526898 98.812743 77.528101 100.65884 83.571643 103.76989 C 88.965487 106.54649 93.630679 108.81816 93.938969 108.81816 C 93.977505 108.81816 94.0469 108.76847 94.143091 108.67399 C 94.046795 108.76859 93.977532 108.81868 93.938969 108.81868 C 93.630679 108.81868 88.965487 106.54701 83.571643 103.77041 C 77.528101 100.65936 73.526898 98.81326 73.144889 98.959851 L 72.524772 99.198079 L 72.524772 99.197563 L 73.144889 98.959334 z M 75.497717 101.89352 C 74.793681 101.86021 74.579976 102.79452 74.641439 105.04682 L 74.718437 107.8544 L 74.852279 105.0215 L 74.986121 102.18859 L 76.028434 102.42424 L 77.071265 102.65937 L 76.373116 102.23614 C 76.021405 102.02298 75.732396 101.90463 75.497717 101.89352 z M 140.32787 103.22729 L 140.21211 109.96176 C 140.14857 113.66563 140.18246 116.91876 140.28704 117.1913 C 140.39163 117.46385 140.95964 117.6608 141.5495 117.629 L 142.62179 117.57163 L 141.56139 117.41092 L 140.5015 117.25021 L 140.41469 110.23875 L 140.32787 103.22729 z M 97.290186 108.36755 C 97.168277 108.38117 96.659266 108.97159 96.173458 109.75764 C 95.723108 110.48633 94.971544 111.15677 94.503276 111.24747 L 93.651648 111.41232 L 94.49294 111.46503 C 95.248798 111.51221 96.016732 110.75558 97.081413 108.9148 C 97.308327 108.52248 97.35628 108.36016 97.290186 108.36755 z M 89.242098 108.9856 C 89.226069 108.98534 89.217293 108.98941 89.217293 108.99748 C 89.217293 109.10303 90.041863 109.61825 91.049223 110.14263 C 92.649948 110.97554 93.904258 111.42052 93.426855 110.98547 C 93.053112 110.64489 89.568023 108.99087 89.242098 108.9856 z M 123.50616 108.99593 C 123.32084 108.99941 122.27372 109.44792 121.02 110.06615 L 118.50439 111.30638 L 117.64605 110.77153 L 116.78719 110.23668 L 117.31635 110.87695 C 117.60741 111.22913 118.08992 111.51774 118.38812 111.51774 C 118.98765 111.51774 123.5351 109.30152 123.5351 109.00937 C 123.5351 109.00739 123.53492 109.00522 123.53406 109.00368 C 123.53386 109.00339 123.53275 109.0024 123.53251 109.00213 C 123.52814 108.99805 123.51894 108.99569 123.50616 108.99593 z M 75.181458 109.39694 L 75.053817 114.20181 C 74.968393 117.40692 74.769079 119.1175 74.45592 119.34 C 74.118975 119.57938 74.14984 119.62911 74.564958 119.51622 L 75.143217 119.35912 L 75.162337 114.37803 L 75.181458 109.39694 z M 164.61838 111.86036 C 165.19703 111.85753 165.58796 111.91662 165.82554 112.04122 C 165.87305 112.06614 165.91454 112.09371 165.95008 112.12391 C 165.96795 112.1391 165.9837 112.15491 165.99865 112.17145 C 165.98378 112.15502 165.96784 112.139 165.95008 112.12391 C 165.91454 112.09371 165.87305 112.06614 165.82554 112.04122 C 164.92276 111.56773 161.80707 112.04147 154.57971 113.25562 C 148.74812 114.2353 143.79228 114.92296 143.56695 114.78369 C 143.56162 114.7804 143.55661 114.77632 143.55144 114.77181 C 143.55652 114.77623 143.56171 114.77994 143.56695 114.78317 C 143.79228 114.92244 148.74812 114.2353 154.57971 113.25562 C 159.90513 112.36098 162.99814 111.86825 164.61838 111.86036 z M 49.860522 114.8426 C 49.995895 114.83699 50.154837 114.83725 50.341113 114.84364 C 49.045615 114.9312 48.878603 115.61031 49.863106 117.57215 C 49.310506 116.55631 49.115865 116.03949 49.115865 115.74177 C 49.115865 115.2091 48.912914 114.88191 49.860522 114.8426 z M 56.338163 115.51543 C 58.573504 115.81293 61.494783 116.21484 65.310742 116.73448 C 67.537537 117.03771 70.196163 117.28962 71.218909 117.29362 L 73.078743 117.30137 L 73.078743 117.30188 L 71.218909 117.29362 C 70.196163 117.28948 67.537537 117.03822 65.310742 116.73499 C 63.270616 116.45717 59.401271 115.93138 56.338163 115.51543 z M 164.48918 116.5009 C 164.53227 116.57267 164.59128 116.63458 164.66695 116.68693 C 164.89396 116.84399 165.26843 116.91586 165.79298 116.91586 L 167.17791 116.91586 L 167.17791 116.91638 L 167.17739 116.91638 L 165.79298 116.91638 C 165.26828 116.91638 164.89394 116.84409 164.66695 116.68693 C 164.59129 116.63455 164.53225 116.57271 164.48918 116.5009 z M 160.55506 129.95951 C 160.55952 130.00423 160.56917 130.04856 160.58451 130.09232 C 160.61532 130.18016 160.67086 130.26724 160.76228 130.35845 C 160.67076 130.26714 160.6153 130.18025 160.58451 130.09232 C 160.56914 130.04839 160.55948 130.00442 160.55506 129.95951 z M 160.83773 130.4277 C 161.05782 130.61479 161.43249 130.8232 162.05161 131.09174 C 161.4325 130.82321 161.05782 130.61479 160.83773 130.4277 z M 162.05212 131.09174 C 163.29097 131.62903 165.50755 132.40692 169.4186 133.73654 C 173.59637 135.15684 175.6663 135.91182 176.32154 136.55032 C 175.66597 135.91188 173.59574 135.15714 169.4186 133.73706 C 165.50721 132.40732 163.29091 131.62903 162.05212 131.09174 z M 173.81678 140.08034 C 173.84306 140.13048 173.87784 140.18006 173.92168 140.22917 C 173.94361 140.25372 173.96822 140.27814 173.99455 140.30255 C 173.96812 140.27805 173.94367 140.25382 173.92168 140.22917 C 173.87786 140.18004 173.84303 140.1305 173.81678 140.08034 z M 174.17852 140.44879 C 174.45965 140.64347 174.88248 140.8391 175.44769 141.05496 L 177.23259 141.73657 L 177.23259 141.73708 L 177.23208 141.73708 L 175.44769 141.05547 C 174.88227 140.83954 174.45965 140.64354 174.17852 140.44879 z M 45.088204 146.10064 C 44.983892 146.20953 44.822172 146.30643 44.602962 146.39055 L 43.946672 146.64221 L 43.946155 146.6417 L 44.602962 146.39003 C 44.821976 146.30599 44.983882 146.20941 45.088204 146.10064 z M 164.18326 151.28999 C 164.20862 151.44309 164.25895 151.60259 164.33416 151.77058 C 164.2589 151.60241 164.20854 151.44325 164.18326 151.28999 z M 164.83852 152.59689 C 165.58148 153.60382 166.9274 154.9419 168.82174 156.97233 C 166.92733 154.94183 165.58137 153.60381 164.83852 152.59689 z M 165.75732 156.82454 L 167.3965 158.5743 C 169.18119 160.47985 169.39682 161.1079 168.36027 161.37878 C 167.85248 161.51145 167.90015 161.56626 168.55302 161.59996 C 169.9846 161.67376 169.58982 160.42148 167.58925 158.54381 L 165.75732 156.82454 z M 171.40504 164.16259 C 171.40508 164.26014 171.42869 164.3631 171.47635 164.47265 C 171.42873 164.36308 171.405 164.26017 171.40504 164.16259 z M 171.56576 164.64215 C 171.67312 164.81697 171.83439 165.008 172.04996 165.22041 C 172.19368 165.36201 172.36166 165.51296 172.55381 165.67464 C 172.85995 165.93225 173.1262 166.18032 173.31655 166.37899 C 173.41183 166.47843 173.4883 166.56536 173.54083 166.63531 C 173.48829 166.56539 173.41173 166.47832 173.31655 166.37899 C 173.1262 166.18034 172.85989 165.93271 172.55381 165.67516 C 172.36145 165.5133 172.19378 165.36215 172.04996 165.22041 C 171.83449 165.00804 171.67304 164.81694 171.56576 164.64215 z M 173.60129 166.72677 C 173.61164 166.74606 173.61864 166.76289 173.62144 166.77638 C 173.61854 166.76283 173.61171 166.7461 173.60129 166.72677 z M 51.489364 171.14666 C 51.468738 171.21477 51.455088 171.27231 51.449573 171.31667 C 51.455041 171.27227 51.468679 171.21499 51.489364 171.14666 z M 64.210034 172.43237 C 64.928152 172.44462 65.285418 172.6011 65.067863 173.59457 C 65.187079 172.62654 64.616846 172.44831 63.379594 172.4427 C 63.691179 172.44048 63.970662 172.42829 64.210034 172.43237 z M 120.44846 181.64008 C 120.43677 181.64229 120.41411 181.66058 120.37973 181.69537 C 120.06545 182.01348 118.96965 183.47283 117.94474 184.93858 C 116.91982 186.40433 116.25795 187.4942 116.47403 187.36066 C 116.69011 187.22711 117.78591 185.76776 118.90902 184.11744 C 119.86542 182.7121 120.48726 181.71287 120.45673 181.64369 C 120.45656 181.64341 120.45589 181.64238 120.4557 181.64214 C 120.45547 181.64194 120.4544 181.64127 120.45415 181.64111 C 120.45276 181.64051 120.45055 181.63968 120.44846 181.64008 z M 63.343937 182.91132 C 63.067077 182.91665 59.950087 189.2499 59.931742 189.88918 C 59.921091 190.26031 60.094642 190.56408 60.317249 190.56408 C 60.825685 190.56408 62.997188 189.45444 62.997188 189.19465 C 62.997188 189.08861 62.460431 189.27921 61.804496 189.6184 C 59.999921 190.55158 59.993205 190.06076 61.761605 186.49508 C 62.65322 184.69728 63.374224 183.09878 63.363574 182.94284 C 63.362105 182.92133 63.355192 182.9111 63.343937 182.91132 z M 159.65951 184.23992 C 159.66646 184.32107 159.68046 184.39986 159.70136 184.4766 C 159.68042 184.39966 159.66643 184.3213 159.65951 184.23992 z M 61.666003 196.57973 C 60.883905 197.11844 60.463984 197.314 60.383394 197.08668 C 60.56598 197.18759 61.029742 197.00851 61.666003 196.57973 z "
         inkscape:label="bubble-shadow" /><path
         style="fill:#f8ca02"
         d="m 109.16293,184.96873 c -2.28474,-3.07287 -4.42344,-5.58703 -4.75267,-5.58703 -0.32924,0 -3.70876,2.25572 -7.510055,5.0127 -8.058366,5.84453 -7.821044,5.7713 -8.434774,2.60275 -1.347153,-6.95506 -2.117359,-10.01854 -2.561678,-10.18904 -0.271447,-0.10416 -4.538745,2.05275 -9.482883,4.79313 -13.8044,7.65137 -15.76148,8.6813 -16.014856,8.42792 -0.129187,-0.12919 2.051497,-5.05032 4.845965,-10.93586 2.794467,-5.88553 5.078744,-10.91456 5.076169,-11.17562 -0.0062,-0.62723 -0.652598,-0.72918 -7.909319,-1.24745 -11.940383,-0.85277 -11.30957,-0.43184 -7.509495,-5.01093 4.394132,-5.29492 6.931107,-8.73448 6.931107,-9.397 0,-0.68003 -0.0081,-0.68499 -9.447007,-5.79445 -3.605286,-1.95161 -6.555066,-3.78061 -6.555066,-4.06445 0,-0.29775 2.283809,-1.48199 5.39829,-2.79922 12.833781,-5.4279 12.101618,-4.81903 9.899671,-8.23258 -4.854562,-7.52573 -8.436298,-13.53554 -8.210261,-13.77603 0.146916,-0.15631 4.325444,0.24211 9.285617,0.88538 4.960174,0.64327 9.898965,1.11819 10.975091,1.05538 l 1.956593,-0.1142 -0.117697,-8.62657 -0.117697,-8.62657 0.888881,0.23088 c 0.488885,0.12698 4.609735,2.1547 9.157445,4.50604 4.54771,2.35134 8.742185,4.36989 9.321056,4.48566 l 1.052491,0.2105 2.072484,-3.22342 c 1.139865,-1.77288 3.266548,-5.1822 4.725968,-7.57626 1.45942,-2.394059 2.86139,-4.30274 3.11548,-4.241512 0.44611,0.107497 6.85922,7.603562 10.73484,12.547582 2.28484,2.91471 2.11109,2.90646 6.93963,0.32963 8.99919,-4.80255 16.90272,-8.75679 17.10277,-8.55673 0.11794,0.11793 0.17721,3.86202 0.13172,8.32019 l -0.0827,8.10576 0.56851,0.21816 c 0.31268,0.11999 5.22073,-0.57125 10.90677,-1.53607 5.68604,-0.96483 10.45856,-1.62826 10.6056,-1.4743 0.14705,0.15396 -1.54012,3.6635 -3.74926,7.79897 -2.20914,4.13548 -3.95982,7.69257 -3.89041,7.90464 0.16088,0.49155 3.9625,2.02874 11.06567,4.47443 3.0807,1.06071 5.85697,2.08664 6.16947,2.27985 l 0.5682,0.35129 -0.57839,0.5269 c -0.5713,0.52046 -5.08258,3.40945 -10.89297,6.97578 -3.87402,2.37782 -3.95042,2.09513 2.50635,9.27373 7.28123,8.09523 7.73311,7.1937 -4.06623,8.1124 -9.55349,0.74383 -8.91675,-0.39566 -5.28438,9.45677 1.48453,4.02664 2.69914,7.49583 2.69914,7.7093 0,0.74773 -1.52613,0.36662 -9.25421,-2.31101 -10.26714,-3.55737 -9.34666,-3.70038 -10.21913,1.58775 -1.31063,7.94391 -1.48099,8.82324 -1.70943,8.82324 -0.13051,0 -1.57579,-0.91096 -3.21174,-2.02436 -1.63594,-1.1134 -4.46441,-3.03697 -6.28549,-4.2746 l -3.31106,-2.25024 -0.73924,0.669 c -0.40658,0.36795 -2.34014,2.98559 -4.29678,5.81697 -1.95665,2.83138 -3.73631,5.14614 -3.95479,5.1439 -0.21848,-0.002 -2.26657,-2.51822 -4.5513,-5.59108 z"
         id="path29" /><path
         style="fill:#1e1c10"
         d="m 56.637388,193.25533 c 0.135963,-0.42838 2.159057,-4.80967 4.495766,-9.7362 3.911264,-8.2462 6.246281,-13.76506 5.949524,-14.06181 -0.06603,-0.066 -3.13785,-0.3843 -6.826263,-0.70726 -3.688412,-0.32295 -7.209267,-0.75246 -7.824122,-0.95445 -0.614855,-0.202 -1.699333,-0.36726 -2.409951,-0.36726 -1.964595,0 -1.693328,-0.56766 3.063435,-6.41057 2.395507,-2.9425 4.746293,-5.99123 5.223967,-6.77497 l 0.8685,-1.42497 -1.078852,-0.65956 c -0.593369,-0.36276 -1.68616,-1.02737 -2.428425,-1.47692 -0.742265,-0.44955 -2.859754,-1.55472 -4.705532,-2.45594 -1.845778,-0.90123 -3.841218,-2.03931 -4.43431,-2.52908 -0.593092,-0.48977 -1.993769,-1.38295 -3.112615,-1.98486 -3.020158,-1.62475 -3.700852,-1.17519 11.288477,-7.45554 6.147244,-2.57563 6.046704,-1.95022 1.475353,-9.17738 -7.152765,-11.30829 -7.737285,-12.55091 -5.622368,-11.95242 0.372177,0.10532 1.631026,0.30213 2.797443,0.43735 1.166416,0.13522 5.193496,0.66832 8.949066,1.18467 3.755571,0.51634 7.807193,0.93881 9.003604,0.93881 l 2.175293,0 -0.280487,-9.00831 c -0.188209,-6.04465 -0.150199,-9.088832 0.115534,-9.253064 0.217812,-0.134616 4.971918,2.088594 10.564679,4.940464 5.592762,2.85187 10.35995,5.06369 10.593751,4.91516 0.233801,-0.14854 1.54984,-2.092 2.92453,-4.31879 3.794705,-6.146863 6.761985,-10.62729 7.375305,-11.1363 l 0.55135,-0.457578 3.41509,4.112171 c 7.75649,9.339737 9.84787,11.722967 10.28322,11.718187 0.25196,-0.003 5.31657,-2.51581 11.25469,-5.58454 5.93812,-3.06872 10.98776,-5.582441 11.22142,-5.586045 0.54386,-0.0084 0.91941,4.742785 0.92242,11.669705 l 0.002,5.314 0.62896,0.24135 c 0.34592,0.13274 1.77743,0.0522 3.18113,-0.17895 1.4037,-0.23117 6.2632,-1.04441 10.7989,-1.80721 4.53569,-0.7628 8.34061,-1.293 8.45538,-1.17823 0.1797,0.1797 -1.15255,3.47196 -2.32606,5.74815 -0.20659,0.4007 -1.57365,3.01824 -3.03792,5.81675 -1.46426,2.79851 -2.66001,5.24692 -2.65723,5.44092 0.009,0.61173 4.18599,2.3895 11.53994,4.91127 8.05201,2.76115 7.9823,2.7053 5.50994,4.41375 -1.00323,0.69326 -2.51812,1.75875 -3.36642,2.36775 -0.84831,0.60901 -3.58119,2.36011 -6.07308,3.89133 -5.15312,3.1665 -4.96695,2.89573 -3.18114,4.62661 0.74227,0.71943 1.34958,1.50224 1.34958,1.73957 0,0.23733 2.16895,2.79364 4.8199,5.68068 2.65094,2.88705 4.8199,5.35719 4.8199,5.48921 0,0.58751 -2.79028,1.29919 -5.97668,1.52439 -1.90868,0.1349 -5.6097,0.43743 -8.22449,0.6723 l -4.75415,0.42703 0.23301,0.81283 c 0.12816,0.44706 0.48885,1.76718 0.80153,2.93359 0.31268,1.16642 1.54769,4.7769 2.74446,8.02328 2.66307,7.22393 2.73913,7.10245 -3.16886,5.06161 -7.98003,-2.7566 -14.40219,-4.75835 -14.60748,-4.55306 -0.24917,0.24917 -1.18387,5.28557 -1.77999,9.591 -0.76492,5.52462 0.0987,5.67429 -10.6956,-1.85353 -2.1874,-1.52547 -4.18284,-2.76812 -4.43431,-2.76146 -0.51767,0.0137 -0.55379,0.0608 -5.31264,6.91699 -4.38611,6.31921 -3.38248,6.43261 -8.94651,-1.01088 -2.24342,-3.0012 -4.2606,-5.56901 -4.48264,-5.70624 -0.37744,-0.23327 -1.18914,0.27807 -7.1645,4.51329 -10.289495,7.29301 -9.262224,7.20727 -10.417245,0.86938 -0.347482,-1.90672 -0.769254,-3.64188 -0.937273,-3.85592 -0.168018,-0.21404 -0.430623,-1.0819 -0.583566,-1.92859 -0.152944,-0.84669 -0.363799,-1.67813 -0.468568,-1.84765 -0.177154,-0.28664 -3.632307,1.45261 -11.114467,5.59478 -9.288141,5.14198 -11.050898,6.08253 -11.399698,6.08253 -0.210569,0 -1.414056,0.52055 -2.674415,1.15678 -2.710918,1.36846 -3.225242,1.43573 -2.8895,0.3779 z m 59.084342,-4.52302 c 3.6482,-5.37606 5.8962,-8.49389 6.46395,-8.96508 l 0.61202,-0.50793 2.97149,2.06294 c 7.83706,5.44085 9.80759,6.63802 10.11292,6.14397 0.26138,-0.42291 0.6052,-2.4232 1.80246,-10.48639 0.11742,-0.79085 0.4126,-1.71019 0.65594,-2.04298 l 0.44244,-0.60507 8.42498,2.91056 c 8.34697,2.88361 9.87376,3.27365 9.87376,2.52242 0,-0.21347 -1.21461,-3.68266 -2.69914,-7.7093 -3.60645,-9.78213 -3.79046,-9.0324 2.31355,-9.42641 8.76105,-0.56551 12.72454,-1.07878 12.72454,-1.64782 0,-0.50764 -1.55881,-2.31876 -8.98304,-10.43699 -1.44142,-1.57616 -2.55894,-3.05123 -2.48337,-3.27793 0.1275,-0.38251 8.53182,-5.84489 12.72695,-8.27188 2.67256,-1.54614 2.32731,-1.93591 -3.57593,-4.03705 -2.86201,-1.01867 -6.73785,-2.39878 -8.61298,-3.0669 -4.413,-1.57238 -4.41765,-1.0945 0.0924,-9.50292 2.14243,-3.99431 3.89533,-7.54923 3.89533,-7.89981 0,-0.69837 0.22515,-0.7106 -5.39829,0.29327 -9.80356,1.75009 -14.54209,2.52037 -15.50456,2.52037 h -1.0759 v -8.26748 c 0,-9.547471 0.18665,-9.183731 -3.67015,-7.15251 -10.0452,5.29042 -17.92542,9.25051 -18.40766,9.25051 -0.3071,0 -1.39529,-1.06528 -2.41821,-2.36729 -4.81305,-6.12624 -10.31697,-12.478002 -10.81243,-12.478002 -0.30186,0 -2.6083,3.296813 -5.12543,7.326252 -3.364746,5.38629 -4.796939,7.35919 -5.408678,7.45064 -0.4924,0.0736 -4.549824,-1.78417 -9.939296,-4.55093 -5.008976,-2.57143 -9.339624,-4.58615 -9.623662,-4.47715 l -0.516432,0.19817 0.245209,8.43377 0.245209,8.43376 -0.614744,0.2359 c -0.687304,0.26374 -4.082107,-0.0617 -14.48319,-1.38849 -5.578852,-0.71165 -7.113765,-0.79921 -7.261492,-0.41423 -0.20052,0.52254 1.068047,2.73676 6.245346,10.90092 4.204614,6.63032 4.42208,5.92877 -2.706265,8.73047 -4.429822,1.74108 -10.839907,4.62279 -10.943211,4.91962 -0.236674,0.68004 0.481342,1.14444 7.858474,5.08268 4.241514,2.2643 7.955272,4.35497 8.252797,4.64593 l 0.540955,0.52901 -2.199335,2.87143 c -1.209635,1.57928 -3.486919,4.40957 -5.060632,6.28953 -1.573713,1.87996 -2.86626,3.6317 -2.872327,3.89275 -0.01653,0.71151 2.139577,0.98754 14.545072,1.86213 l 3.566727,0.25145 v 0.77026 c 0,0.42364 -0.586439,1.92349 -1.303199,3.33299 -3.31274,6.51449 -8.722196,17.93641 -8.722196,18.41669 0,1.00151 1.536268,0.23946 17.351646,-8.60702 6.774764,-3.78953 8.491173,-4.58012 8.813035,-4.05933 0.162542,0.26299 0.69517,2.5164 1.183618,5.00756 1.260914,6.43085 1.538892,7.42132 2.082817,7.42132 0.26509,0 3.598575,-2.25571 7.407743,-5.0127 3.809171,-2.75698 7.218431,-5.0127 7.576141,-5.0127 0.38849,0 2.32931,2.25125 4.81994,5.59086 4.77875,6.40769 4.58369,6.30757 6.57431,3.37416 z"
         id="path27" /></g></g></svg>
