<svg width="210mm" height="297mm" version="1.1" viewBox="0 0 210 297" xmlns="http://www.w3.org/2000/svg"><path d="m61.2 196c-0.44-0.308-0.848-0.351-1.52-0.158-1.21 0.347-1.37 0.123-0.632-0.908 0.347-0.488 0.527-1.06 0.42-1.34-0.273-0.712 1.04-3.07 1.63-2.92 1.56 0.398 5.2-5.8 4-6.8l-0.428-0.355 0.473-1.32c0.36-1 0.624-1.32 1.1-1.32 1.79 0 3.19-5.9 1.65-6.99-1.57-1.11-3.3-1.83-3.97-1.66-0.365 0.0917-1.17-0.0448-1.79-0.303l-1.13-0.47 0.164-0.654c0.21-0.835-0.372-1.67-2.67-3.83l-1.83-1.72-1.72 0.343-0.79-1.19c-0.569-0.86-0.701-1.28-0.471-1.51 0.785-0.785-1.6-6.14-2.81-6.31-0.836-0.119-1.06-1.04-0.357-1.48l0.548-0.342-0.0192-3.59c-0.0128-2.38-0.146-3.79-0.394-4.18-0.456-0.714-0.271-2.81 0.231-2.62 0.607 0.233 1.24-0.547 2.71-3.33l1.43-2.72-0.767-1.23 0.46-0.508c0.29-0.32 0.759-0.466 1.27-0.395l0.808 0.114 4.07-4.12-0.625-1.37 2.28-1.31 1.2 0.644 1.67-0.943c0.92-0.519 2.17-1.26 2.78-1.64l1.11-0.7-0.166-1.52 2.26-0.796 1.18 0.826 2.54-0.907c2.97-1.06 3.27-1.26 3.27-2.11v-0.64l1.47-0.301c0.807-0.165 1.47-0.196 1.47-0.0683 0 0.766 1.23 0.805 3.98 0.124 2.68-0.665 3.35-1.02 3.36-1.81 0.0025-0.181 0.629-0.399 1.39-0.485l1.39-0.156 0.804 1.15 2.83-0.203c3.3-0.237 4.04-0.455 4.3-1.28l0.192-0.604h2.67l1.15 1.47h3.04c2.92 0 3.96-0.295 3.96-1.12-2.9e-4 -0.11 0.792-0.154 1.76-0.0998l1.76 0.0995v0.544c0 0.757 0.358 0.916 3.06 1.36 3.29 0.536 4.2 0.507 4.55-0.143l0.289-0.54 1.78 0.434c1.33 0.324 1.78 0.564 1.78 0.945 0 0.741 0.442 0.991 3.3 1.87 2.51 0.769 3.74 0.737 3.74-0.0956 0-0.141 0.522-4e-3 1.16 0.304 0.638 0.308 1.36 0.561 1.6 0.561 0.248 0 0.475 0.326 0.528 0.759l0.0929 0.759 2.77 1.44c2.85 1.48 3.49 1.67 4.02 1.14 0.547-0.547 3.19 1.47 3.19 2.43v0.802l2.35 1.91c1.29 1.05 2.61 1.91 2.92 1.91 0.317 7.5e-4 1.14 0.551 1.82 1.22l1.24 1.22-0.295 0.551c-0.23 0.43-0.0821 0.917 0.675 2.22 0.533 0.92 1.3 2.34 1.7 3.15 0.569 1.14 0.908 1.49 1.51 1.56l0.777 0.0899 0.675 2.68-1.11 0.777-0.195 3.42-0.195 3.42 0.984 1.67-0.427 1.13c-0.29 0.764-0.634 1.15-1.07 1.22-0.722 0.104-1.27 0.75-3.18 3.72l-1.32 2.06 0.328 1.79-0.842 0.807c-0.632 0.605-1.02 0.762-1.56 0.626-1.21-0.303-6.11 3.63-6.11 4.9 0 0.495-0.298 0.857-1.03 1.25l-1.03 0.555-1.94-0.596-2.77 1.29c-2.01 0.932-2.9 1.52-3.26 2.14-0.564 0.983-2.15 1.44-3.14 0.911-0.974-0.521-5.83 0.917-6.79 2.01-0.495 0.564-1.15 0.905-2 1.05l-1.27 0.21-1.16-1.05-3.29 0.365c-2.39 0.265-3.45 0.512-3.88 0.899-0.803 0.726-2.59 0.972-3.28 0.452-0.801-0.607-7.23-0.596-7.73 0.0132-0.567 0.684-2.7 0.565-3.68-0.204-0.609-0.479-1.58-0.742-3.77-1.02l-2.95-0.38-0.668 0.438c-1.11 0.73-2.51 0.557-3.36-0.418-0.541-0.616-1.13-0.913-2.12-1.06-2.02-0.302-2.54-0.0576-4.25 1.98l-1.55 1.85 0.343 2.38-1.45 1.37-2.13-0.399-4.07 3.29v0.814c0 0.637-0.218 0.918-1 1.29l-1 0.478-1.73-0.652-1.87 1.03c-1.45 0.797-1.93 1.23-2.13 1.93-0.36 1.26-2.05 1.66-3.29 0.796z" fill="#f9cb03"/><path d="m57.2 203c0-0.168 0.528-1.01 1.17-1.86 1.35-1.78 1.49-2.39 0.514-2.13-5.6 1.52-6.66 0.391-3.25-3.47 1.49-1.68 2.14-2.22 2.72-2.22l0.756 1e-3 -0.881 0.543c-0.484 0.299-1.57 1.34-2.42 2.32-2.38 2.75-2.04 3.38 1.43 2.59 1.15-0.26 2.49-0.472 2.98-0.472s1.03-0.181 1.21-0.402c0.308-0.38 1.65-0.826 4.01-1.33 1.25-0.268 4.01-1.72 4.2-2.22 0.0749-0.195 0.908-0.718 1.85-1.16 0.944-0.443 2.04-0.96 2.44-1.15 0.699-0.331 6.1-5.38 8.74-8.16l1.29-1.36 3.1 0.0967c2.34 0.0729 3.23 0.213 3.62 0.57 0.699 0.633 6.32 1.25 7.07 0.781 0.581-0.363 4.29-0.129 4.55 0.287 0.291 0.472 6.47 0.301 6.87-0.19 0.422-0.508 4.11-0.64 4.11-0.147 0 0.648 5.93-0.0463 6.8-0.797 0.651-0.56 4.19-1.28 5.25-1.07 1.09 0.219 4.78-0.682 5.67-1.39 0.971-0.763 3.48-1.71 4.48-1.69 1.22 0.0249 4.7-1.46 5.64-2.41 0.984-0.984 3.86-2.64 4.58-2.64 0.878 0 3.21-1.92 5.61-4.63 1.25-1.41 2.49-2.69 2.74-2.84 1.03-0.609 3.95-5.06 3.81-5.79-0.0955-0.474 1.02-3.57 1.73-4.8 0.659-1.14 0.644-5.08-0.0256-6.68-0.451-1.08-0.278-1.47 0.327-0.734 0.629 0.76 1.38 6.2 1.35 9.76l-0.0303 3.52-0.938 2.39c-7.36 18.8-39.4 29.2-70.6 23-3.86-0.765-3.58-0.85-5.91 1.81-5.38 6.14-13.9 11.3-22 13.5-3.44 0.909-4.55 1.04-4.55 0.551zm3.15-12.6c-0.143-0.545 0.867-2.75 2.33-5.06 0.706-1.12 1.87-2 1.87-1.41 0 0.172-0.199 0.39-0.443 0.483-0.556 0.213-3.21 5.04-3.16 5.74 0.0553 0.734-0.414 0.932-0.592 0.25zm4.97-9.54c-0.121-0.314-0.139-1.24-0.0404-2.05l0.179-1.48-1.41-0.877c-3.04-1.89-9.09-8.58-8.83-9.77 0.0793-0.371 0.249-0.232 0.638 0.522 0.539 1.04 3.34 4.11 3.76 4.11 0.255 0 2.49 1.64 4.05 2.97 0.565 0.482 1.39 1.17 1.82 1.52l0.795 0.647-0.369 2.49c-0.253 1.71-0.438 2.31-0.589 1.92zm-13.8-18.1c-1.53-2.02-2.21-4.47-1.49-5.38l0.454-0.57-0.175 0.913c-0.285 1.49 1.37 5.04 2.64 5.66l0.587 0.287-0.646 0.0199c-0.399 0.0123-0.923-0.345-1.37-0.934zm-2.66-7.63c-1.1-1.57-0.393-8.16 0.88-8.16h0.442l-0.575 0.807c-0.994 1.4-0.977 6.47 0.0258 7.4l0.643 0.599h-0.479c-0.264 0-0.685-0.294-0.936-0.652zm109-11c0.0217-1.9-2.23-5.87-3.51-6.19l-0.729-0.183 0.504-0.282c1.42-0.795 5.02 5.45 4.11 7.14l-0.385 0.712zm-108-0.291c-0.355-1.41 2.61-6.3 3.82-6.3 0.318 0 0.115 0.356-0.632 1.11-1.41 1.42-2.83 4.28-2.59 5.24 0.0981 0.391 0.046 0.703-0.117 0.703-0.161 0-0.378-0.337-0.482-0.75zm5.17-8.27c0-1.09 3.47-4.48 4.59-4.48 0.648 0 0.459 0.508-0.26 0.699-0.982 0.261-3.74 2.96-3.74 3.66 0 0.329-0.132 0.68-0.294 0.78-0.17 0.105-0.294-0.172-0.294-0.656zm96.3-1.18c0-0.815-0.447-1.35-2.99-3.57-0.434-0.378-1.23-0.786-1.76-0.907l-0.973-0.219 0.552-0.234c1.74-0.738 7 4.63 5.47 5.58-0.17 0.105-0.294-0.173-0.294-0.657zm-88.9-4.94c-0.0237-1.55 5.59-4.8 6.3-3.65 0.105 0.17-0.178 0.294-0.671 0.294-0.771 0-4.48 2.08-4.7 2.64-0.0462 0.119-0.273 0.466-0.504 0.771l-0.42 0.555zm79.8-2.28c-0.615-0.939-4.47-2.84-5.76-2.84-0.552 0-0.866-0.121-0.759-0.294 0.787-1.27 7.6 2.15 7.13 3.58-0.0582 0.175-0.331-0.0258-0.606-0.445zm-71-2.35c0-1.57 5.27-4 6.59-3.03l0.564 0.413-1.16-0.0102c-1.53-0.0134-4.37 1.11-5.28 2.09-0.397 0.428-0.722 0.672-0.722 0.542zm60.6-2.27c-0.387-0.626-5.13-2.06-6.03-1.82-0.723 0.189-0.731-0.105-0.0128-0.489 0.785-0.42 6.07 1.24 6.5 2.04 0.323 0.604-0.096 0.85-0.456 0.267zm-50.6-1.6c0.191-1.03 6.29-2.54 6.81-1.69 0.11 0.179-0.264 0.302-0.945 0.312-1.58 0.0218-4.78 0.888-5.43 1.47l-0.548 0.489zm39.3-1.48c-0.96-0.506-5.12-1.07-6.08-0.83-0.571 0.143-0.699 0.0977-0.523-0.187 0.526-0.851 7.23 0.0709 7.6 1.05 0.191 0.497-7e-3 0.491-0.995-0.0289zm-29.1-0.362c0-0.661 0.998-1.01 3.76-1.31l2.92-0.317 1.38 0.969h-0.506c-0.278 0-0.506-0.149-0.506-0.331 0-0.518-5.38 0.198-6.39 0.849-0.363 0.236-0.661 0.299-0.661 0.138zm18.1-0.79c-0.532-0.532-6.37-0.679-6.37-0.161 0 0.161-0.214 0.294-0.476 0.294h-0.476l0.365-0.44c0.509-0.614 6.38-0.633 7.21-0.024 0.313 0.229 0.486 0.5 0.385 0.601-0.102 0.102-0.389-0.0197-0.639-0.27z" fill="#727171"/><path d="m61.1 197c-0.268-0.315-0.643-0.409-1.14-0.285-2.71 0.68-3.09 0.4-1.69-1.26 0.809-0.961 0.917-1.41 0.382-1.59-0.224-0.0747-0.176-0.185 0.132-0.303 0.784-0.301 0.94 0.829 0.249 1.8-0.724 1.02-0.568 1.24 0.623 0.902 0.667-0.191 1.11-0.136 1.7 0.214 0.55 0.325 1.12 0.412 1.83 0.28l1.03-0.192 0.265-0.924c0.208-0.725 0.669-1.15 2.14-1.95l1.87-1.03 1.73 0.652 1-0.478c0.786-0.375 1-0.655 1-1.29v-0.814l4.07-3.29 2.13 0.399 1.45-1.37-0.343-2.38 1.55-1.85c1.71-2.03 2.24-2.28 4.25-1.98 0.984 0.148 1.58 0.444 2.12 1.06 0.856 0.975 2.25 1.15 3.36 0.418l0.668-0.438 2.95 0.38c2.19 0.282 3.16 0.546 3.77 1.02 0.978 0.77 3.11 0.888 3.68 0.204 0.506-0.609 6.93-0.62 7.73-0.0132 0.687 0.521 2.48 0.274 3.28-0.452 0.429-0.388 1.49-0.634 3.88-0.899l3.29-0.365 1.16 1.05 1.27-0.21c0.854-0.142 1.51-0.483 2-1.05 0.96-1.09 5.82-2.53 6.79-2.01 0.994 0.532 2.58 0.0725 3.14-0.911 0.355-0.619 1.25-1.21 3.26-2.14l2.77-1.29 1.94 0.596 1.03-0.555c0.733-0.395 1.03-0.757 1.03-1.25 0-1.27 4.9-5.2 6.11-4.9 0.541 0.136 0.932-0.0208 1.56-0.626l0.842-0.807-0.328-1.79 1.32-2.06c1.91-2.97 2.46-3.62 3.18-3.72 0.437-0.0631 0.781-0.454 1.07-1.22l0.427-1.13-0.984-1.67 0.194-3.4c0.191-3.35 0.513-4.31 1.28-3.84 0.222 0.137 0.184 0.307-0.12 0.539-0.325 0.248-0.498 1.21-0.642 3.57l-0.198 3.24 0.478 0.397c0.605 0.502 0.602 0.559-0.13 2.52l-0.608 1.63h-0.71c-0.418 0-0.862 0.261-1.08 0.635-0.203 0.349-0.931 1.49-1.62 2.53-1.31 2-1.44 2.39-0.941 2.89 0.213 0.213-0.114 0.774-1.07 1.84-0.966 1.07-1.47 1.44-1.69 1.22-0.856-0.856-5.88 2.83-5.7 4.17 0.0505 0.363-0.46 0.822-1.69 1.52l-1.76 1-0.969-0.877-2.45 1.1c-2.91 1.3-3.19 1.49-3.19 2.16 0 0.35-0.522 0.71-1.66 1.14l-1.66 0.634-1.08-0.978-2.43 0.676c-2.9 0.808-3.45 1.06-3.45 1.59 0 0.35-0.92 0.653-3.56 1.17-0.264 0.0519-0.701-0.165-0.972-0.481-0.271-0.316-0.686-0.501-0.923-0.41-0.237 0.0908-1.51 0.255-2.83 0.365l-2.4 0.2-0.66 0.66c-0.504 0.504-1.07 0.684-2.41 0.76l-1.75 0.1-0.682-1.09-5.89 0.237-0.797 1.09-1.8-0.188c-1.23-0.129-1.95-0.364-2.29-0.749-0.37-0.425-1.2-0.646-3.41-0.912l-2.92-0.351-0.458 0.565c-0.252 0.311-0.587 0.533-0.745 0.492-0.158-0.04-0.886-0.153-1.62-0.251-0.992-0.133-1.4-0.343-1.61-0.83-0.206-0.47-0.739-0.763-1.9-1.05l-1.61-0.394-1.69 1.8c-1.68 1.79-2 2.53-1.34 3.18 0.263 0.263-0.016 0.704-1.18 1.87-1.17 1.17-1.61 1.45-1.87 1.18-0.562-0.562-1.12-0.403-2.54 0.726-2.03 1.61-2.42 2.12-2.09 2.74l0.283 0.529-3.47 1.77-0.16-0.416c-0.437-1.14-4.81 1.05-4.44 2.23 0.308 0.97-3.19 1.87-3.92 1.01zm-0.0558-6.02c-0.234-0.148-0.359-0.281-0.278-0.296 1.42-0.261 1.17-0.0207 2.76-2.62 1.23-2.01 1.49-2.85 1.07-3.36-0.197-0.238-0.221-0.469-0.0575-0.57 0.151-0.0933 0.436 0.0253 0.634 0.264 1.03 1.24-2.83 7.41-4.13 6.59zm4.71-10.1c0-0.263 0.172-0.365 0.442-0.262 0.478 0.183 1.04-0.904 1.83-3.56l0.436-1.46-0.891-0.74c-0.49-0.407-1.36-0.993-1.94-1.3l-1.05-0.562-1.41 0.757-0.978-0.673c-1.78-1.22-2.03-1.51-1.69-1.92 0.61-0.735-3.27-4.95-4.38-4.76-0.299 0.0507-0.598-0.0399-0.663-0.201-0.0651-0.161 0.189-0.337 0.565-0.39 1.3-0.184 5.46 4.2 5.15 5.43l-0.164 0.654 1.13 0.47c0.619 0.259 1.42 0.395 1.79 0.303 1.37-0.343 4.77 1.84 4.77 3.06 0 0.96-1.09 4.68-1.53 5.22-0.413 0.507-1.4 0.462-1.4-0.0642zm-12.7-17.7c0.765-0.346-1.04-5.01-2.18-5.65-0.617-0.345-0.333-0.788 0.34-0.53 0.576 0.221 2.88 4.99 2.74 5.69-0.0546 0.284-0.362 0.548-0.683 0.588-0.321 0.0394-0.419-3e-3 -0.217-0.0945zm-2.99-7.72c-0.0978-0.158-0.0434-0.371 0.121-0.472 0.412-0.254 0.393-6.98-0.0208-7.4-0.218-0.218-0.223-0.379-0.0147-0.507 0.167-0.103 0.433 0.0526 0.591 0.347 0.839 1.57 0.179 9.41-0.676 8.03zm106-11.3c-0.32-0.525-0.582-1.06-0.583-1.2s-0.533-1.14-1.18-2.23c-1.16-1.95-1.3-2.96-0.399-2.96 0.32 0 0.34 0.115 0.0862 0.521l-0.325 0.521 0.877 1.46c0.482 0.804 1.2 2.06 1.59 2.78 0.443 0.827 0.895 1.31 1.21 1.28 0.274-0.0224 0.499 0.143 0.499 0.367 0 0.785-1.17 0.421-1.76-0.546zm-106 0.22c0-0.242 0.154-0.407 0.341-0.367 0.535 0.115 3.2-4.8 3.02-5.58-0.168-0.757 0.377-0.905 0.655-0.179 0.202 0.525-2.32 5.58-3.09 6.2-0.608 0.489-0.931 0.463-0.931-0.0734zm4.7-8.07c0-0.161 0.301-0.294 0.67-0.294 0.889 0 4.18-3.29 3.93-3.93-0.096-0.25-0.0577-0.527 0.0851-0.615 0.143-0.0883 0.349 0.121 0.458 0.466l0.199 0.626-2 2.02c-1.85 1.86-3.34 2.63-3.34 1.73zm92.6-3.14c-2.34-1.9-3.2-3.32-2.01-3.32 0.258 0 0.359 0.205 0.27 0.545-0.164 0.627 3.79 4.14 4.67 4.15 0.283 3e-3 0.514 0.138 0.514 0.299 0 0.726-1.21 0.137-3.45-1.67zm-84.8-2.92c-0.202-0.0814-0.367-0.283-0.367-0.449 0-0.165 0.212-0.219 0.472-0.119 0.99 0.38 5.69-2.65 5.24-3.37-0.133-0.216-0.0602-0.294 0.195-0.209 1.18 0.393-3.61 4.52-5.01 4.32-0.0878-0.0128-0.325-0.0898-0.527-0.171zm75.2-3.33c-2.4-1.29-3.69-2.64-2.52-2.64 0.173 0 0.314 0.187 0.314 0.417 0 0.679 4.89 3.2 5.77 2.97 0.534-0.134 0.707-0.0798 0.617 0.194-0.247 0.753-1.6 0.451-4.19-0.94zm-66.4-1.61c-0.297-0.218-0.445-0.491-0.328-0.608 0.117-0.117 0.383-0.0712 0.591 0.102 0.603 0.5 5.51-1.31 5.51-2.03 0-0.302 0.132-0.55 0.294-0.55 0.419 0 0.364 1.05-0.0734 1.38-0.202 0.154-1.51 0.689-2.91 1.19l-2.54 0.909zm56.4-2.16c-2.82-0.932-3.08-1.09-3.08-1.82 0-0.737 0.475-0.739 0.667-2e-3 0.11 0.42 0.818 0.772 2.73 1.35l2.58 0.787 0.36-0.492c0.266-0.364 0.417-0.399 0.579-0.136 0.717 1.16-0.872 1.29-3.84 0.309zm-46.7-1.03c-0.315-0.23-0.449-0.544-0.322-0.752 0.164-0.265 0.308-0.235 0.565 0.117l0.346 0.473 5.56-1.36-0.0408-0.508c-0.0224-0.279 0.143-0.508 0.367-0.508 0.455 0 0.527 0.531 0.152 1.12-0.136 0.214-1.54 0.709-3.12 1.1-3.4 0.842-2.86 0.793-3.51 0.316zm34.9-1.49c-1.13-0.19-2.22-0.445-2.42-0.568-0.431-0.266-0.484-1.36-0.0659-1.36 0.161 0 0.294 0.202 0.294 0.45 0 0.581 0.268 0.671 3.29 1.11 2.73 0.399 3.17 0.364 3.17-0.256 0-0.239 0.18-0.338 0.435-0.24 0.329 0.126 0.362 0.302 0.136 0.725-0.348 0.651-1.57 0.686-4.84 0.139zm-24.8-0.574c-0.205-0.247-0.283-0.595-0.173-0.773 0.135-0.218 0.315-0.167 0.551 0.156l0.351 0.48 5.72-0.42 0.421-0.602c0.52-0.743 0.894-0.467 0.461 0.341-0.362 0.676-0.971 0.824-4.45 1.08l-2.51 0.186zm11-0.77c-0.293-0.324-0.435-0.687-0.315-0.807 0.12-0.12 0.387 0.0131 0.593 0.295l0.375 0.513h5.92l0.268-0.478c0.167-0.298 0.339-0.362 0.458-0.17 0.513 0.831-0.717 1.24-3.75 1.24h-3.02z" fill="#887822"/><path d="m54.5 199c-0.64-0.64 2.81-5.09 3.94-5.09 0.756 0 0.7 0.479-0.177 1.52-1.39 1.66-1.02 1.94 1.69 1.26 0.474-0.119 0.889-0.0191 1.2 0.288 0.72 0.72 0.296 1.33-0.931 1.34-0.588 6e-3 -1.86 0.202-2.83 0.436-1.96 0.474-2.6 0.527-2.89 0.239zm10.5-2.93c-0.253-0.658 0.434-1.34 2.16-2.15 2.82-1.32 3.41 0.237 0.641 1.71-1.96 1.04-2.53 1.13-2.8 0.439zm7.77-4.19c-0.692-1.29 3.72-4.56 4.65-3.44 0.349 0.42-0.506 1.35-2.93 3.2-1.25 0.955-1.33 0.966-1.72 0.243zm-11.7-1.6c-0.447-0.538 2.47-5.84 3.14-5.7 0.81 0.168 0.489 1.55-0.876 3.76-1.32 2.14-1.78 2.53-2.26 1.94zm19.1-5.35c-0.249-0.649 0.338-1.62 1.94-3.19l1.38-1.36 1.5 0.322c1.64 0.351 2.3 0.888 2.01 1.64l-0.185 0.481-2.83-0.375-1.33 1.47c-1.36 1.5-2.17 1.83-2.48 1.01zm22-0.881c-0.323-0.843 0.457-1.13 3.37-1.25l2.87-0.115 0.389 0.468c0.214 0.258 0.312 0.668 0.218 0.912l-0.17 0.444h-6.5zm-8.97-0.14c-2.62-0.305-3.26-0.819-2.16-1.73 0.551-0.458 6.18 0.184 6.66 0.759 0.99 1.19-0.27 1.47-4.5 0.973zm19.9-0.205c-0.341-0.889 0.767-1.44 3.33-1.65 1.3-0.108 2.55-0.268 2.77-0.355 0.226-0.0866 0.632 0.064 0.902 0.335l0.492 0.492-0.454 0.501c-0.89 0.983-6.71 1.54-7.05 0.679zm11.7-2c-0.271-0.706 0.163-0.958 3.1-1.79l2.71-0.774 0.973 0.973-0.471 0.471c-1.1 1.1-5.99 1.97-6.31 1.12zm-59-1.42c-0.0868-0.226-0.0131-1.18 0.164-2.13l0.322-1.72-0.738-0.587c-0.406-0.323-1.1-0.868-1.54-1.21l-0.803-0.625 0.395-0.476c0.57-0.687 1.04-0.598 2.8 0.527 2 1.28 2.04 1.35 1.54 3.03-0.939 3.15-1.71 4.3-2.13 3.19zm69.5-1.27c-1.31-0.469-0.386-1.4 2.81-2.83l2.45-1.1 0.416 0.346c0.661 0.548 0.492 1.06-0.566 1.71-1.32 0.815-4.65 2.04-5.11 1.87zm9.76-5.37c-0.367-0.594 0.23-1.35 2.37-3.01 2.26-1.75 2.96-2.01 3.26-1.23 0.464 1.21-4.97 5.3-5.63 4.24zm-87.4-4.03c-2.09-2.19-2.63-3.64-1.19-3.18 0.804 0.255 4.25 3.91 4.1 4.35-0.3 0.91-1.32 0.5-2.91-1.17zm95.8-3.36c-0.549-0.549-0.441-0.903 0.895-2.94 0.686-1.04 1.41-2.19 1.62-2.53 0.424-0.729 1.48-0.846 1.73-0.192 0.19 0.494-1.79 3.96-2.97 5.21-0.886 0.935-0.815 0.91-1.27 0.455zm-102-4.15c-1.51-2.33-1.96-5.24-0.697-4.45 0.434 0.268 2.36 4.3 2.36 4.95 0 0.83-0.993 0.534-1.66-0.493zm107-6.21c-0.433-0.522-0.167-6.55 0.311-7.04 0.518-0.53 0.922 0.358 1.21 2.67 0.41 3.23-0.442 5.67-1.53 4.36zm-109-1.37c-0.325-1.03-0.204-5.73 0.166-6.42 0.732-1.37 1.02-0.442 1.02 3.26v3.64l-0.489 0.0941c-0.299 0.0577-0.571-0.164-0.7-0.572zm108-10.3c-0.162-0.202-0.703-1.16-1.2-2.13s-1.13-2.11-1.41-2.55l-0.503-0.785 0.379-0.457c0.552-0.665 1.18-0.207 2.33 1.7 1.66 2.76 2.03 4.58 0.921 4.58-0.122 0-0.355-0.165-0.517-0.367zm-106-0.215-0.432-0.267 0.401-1.12c0.906-2.53 2.74-4.83 3.35-4.22 0.661 0.661-2.55 6.08-3.32 5.61zm4.98-8.46c0-0.812 3.04-3.87 3.84-3.87 0.94 0 0.511 1.06-1.08 2.67-1.73 1.75-2.77 2.2-2.77 1.21zm92.6-2.73c-2.11-1.76-2.54-2.47-1.69-2.8 0.804-0.309 4.84 3.05 4.84 4.03 0 0.983-0.952 0.612-3.16-1.23zm-85.1-3.17c-0.421-0.682 3.27-3.55 4.57-3.55 1.66 0 0.846 1.1-1.95 2.64-2.32 1.28-2.38 1.3-2.63 0.909zm75.4-3.14c-3.59-1.98-3.12-3.03 0.594-1.33 2.19 1 3.32 1.88 3.03 2.35-0.36 0.582-1.12 0.37-3.63-1.01zm-66.4-1.69c-0.495-0.597 0.169-1.18 2.24-1.95 2.32-0.87 3.13-0.895 3.25-0.0983l0.0902 0.631-2.29 0.788c-1.26 0.433-2.44 0.847-2.61 0.92-0.178 0.0727-0.479-0.0563-0.671-0.287zm56.2-2.13c-3.45-1.09-3.64-2.56-0.206-1.59 3.01 0.851 3.58 1.13 3.47 1.7-0.141 0.73-0.682 0.713-3.26-0.105zm-46.5-1.13c-0.314-0.819 0.605-1.2 4.94-2.06 0.611-0.12 1.32 0.636 0.938 1-0.21 0.203-5.03 1.48-5.58 1.48-0.073 0-0.206-0.192-0.296-0.426zm35.6-1.25c-2.81-0.413-3.28-0.635-2.98-1.41l0.187-0.487 1.54 0.19c3.45 0.426 4.62 0.763 4.62 1.32 0 0.769-0.422 0.818-3.37 0.384zm-25.2-0.655c-0.362-0.586 0.405-1.11 1.91-1.3 0.804-0.101 2.1-0.265 2.89-0.364l1.42-0.18 0.202 0.526c0.114 0.298 0.0383 0.68-0.176 0.883-0.522 0.495-5.97 0.871-6.24 0.431zm10.9-0.673c-0.346-0.941 0.112-1.1 3.15-1.1h3.03l0.179 0.467c0.0985 0.257 0.105 0.587 0.0141 0.734-0.266 0.43-6.21 0.337-6.37-0.0999z" fill="#1b1a0e"/></svg>
