<?xml version="1.0" encoding="UTF-8" standalone="no"?>
<!-- Created with Inkscape (http://www.inkscape.org/) -->

<svg
   width="210mm"
   height="297mm"
   viewBox="0 0 210 297"
   version="1.1"
   id="svg1"
   sodipodi:docname="WHISPER.svg"
   xml:space="preserve"
   inkscape:version="1.4.4 (dcaf3e7, 2026-05-05)"
   xmlns:inkscape="http://www.inkscape.org/namespaces/inkscape"
   xmlns:sodipodi="http://sodipodi.sourceforge.net/DTD/sodipodi-0.dtd"
   xmlns="http://www.w3.org/2000/svg"
   xmlns:svg="http://www.w3.org/2000/svg"><sodipodi:namedview
     id="namedview1"
     pagecolor="#ffffff"
     bordercolor="#000000"
     borderopacity="0.25"
     inkscape:showpageshadow="2"
     inkscape:pageopacity="0.0"
     inkscape:pagecheckerboard="0"
     inkscape:deskcolor="#d1d1d1"
     inkscape:document-units="mm"
     inkscape:zoom="0.95143098"
     inkscape:cx="488.7375"
     inkscape:cy="552.85146"
     inkscape:window-width="1280"
     inkscape:window-height="778"
     inkscape:window-x="-6"
     inkscape:window-y="-6"
     inkscape:window-maximized="1"
     inkscape:current-layer="layer1" /><defs
     id="defs1" /><g
     inkscape:label="Layer 1"
     inkscape:groupmode="layer"
     id="layer1"><g
       id="g42"><path
         style="fill:#fbca05"
         d="m 55.44278,181.83396 c 0,-0.0481 0.154523,-0.23493 0.343386,-0.41512 0.395284,-0.37713 1.284164,-1.46488 1.447315,-1.77113 0.171477,-0.32187 0.132267,-0.63705 -0.126731,-1.01871 l -0.237357,-0.34976 0.604202,-0.82807 c 0.332312,-0.45543 0.706496,-1.01126 0.831521,-1.23517 l 0.227318,-0.40711 0.190133,0.0605 c 0.434152,0.1382 0.838961,0.15136 1.057544,0.0344 0.477177,-0.25538 3.000155,-4.96626 3.017867,-5.63493 l 0.0097,-0.36507 -0.352414,-0.32296 -0.352413,-0.32297 0.416341,-1.07069 c 0.228988,-0.58888 0.468089,-1.24668 0.531336,-1.46178 l 0.114995,-0.3911 0.39286,0.0398 c 0.281232,0.0285 0.479059,-0.0143 0.696228,-0.15074 l 0.303369,-0.19054 0.380222,-1.2169 c 1.128148,-3.61062 1.127315,-3.61606 -0.690486,-4.51069 -1.349914,-0.66436 -1.733298,-0.68471 -2.08369,-0.11056 -0.157285,0.25772 -0.387661,0.1675 -1.951179,-0.76414 l -0.981474,-0.58482 0.07078,-0.2852 c 0.218988,-0.88243 0.194533,-0.91824 -1.475968,-2.1616 -0.70956,-0.52812 -1.647654,-1.26314 -2.084654,-1.63337 -1.423569,-1.20605 -1.718285,-1.32154 -2.305473,-0.90343 l -0.277381,0.19751 -0.29122,-0.24504 c -0.160171,-0.13478 -0.345477,-0.24505 -0.411791,-0.24505 -0.156344,0 -0.435116,-0.30894 -0.435666,-0.48281 -2.35e-4,-0.0743 -0.243074,-0.40713 -0.539642,-0.73959 l -0.539215,-0.60447 0.11243,-0.15606 c 0.526647,-0.73101 0.499657,-0.97625 -0.206907,-1.88012 -0.699011,-0.8942 -1.822138,-2.61171 -2.207583,-3.37588 -0.17528,-0.34751 -0.438034,-0.72617 -0.583898,-0.84148 l -0.265208,-0.20965 -0.478841,0.0556 -0.478841,0.0556 -0.120915,-0.30741 c -0.362293,-0.92109 -0.935063,-2.73161 -0.864164,-2.73161 0.04529,0 0.238023,-0.13668 0.428287,-0.30373 l 0.345935,-0.30374 -0.04646,-0.57563 c -0.02555,-0.31659 -0.116184,-1.04042 -0.201405,-1.60851 -0.08522,-0.56809 -0.167671,-1.70175 -0.18322,-2.51926 l -0.02827,-1.48637 -0.161816,-0.24678 c -0.158814,-0.2422 -0.525892,-0.46621 -0.763956,-0.46621 h -0.120529 l 0.120948,-0.87937 c 0.06652,-0.48365 0.186942,-1.19231 0.267602,-1.57481 0.08066,-0.38249 0.146653,-0.71135 0.146653,-0.7308 0,-0.0195 0.175472,-0.0329 0.389937,-0.03 0.650926,0.009 0.832251,-0.20815 1.37259,-1.64365 0.263581,-0.70024 0.814668,-1.92145 1.224637,-2.71378 l 0.745399,-1.44062 -0.10947,-0.31402 c -0.06021,-0.17271 -0.200804,-0.41125 -0.312435,-0.53007 l -0.202967,-0.21605 0.361358,-0.54857 c 0.198747,-0.30172 0.637259,-0.90376 0.974473,-1.33787 l 0.613114,-0.78929 0.22526,0.1476 c 0.123892,0.0812 0.397989,0.14759 0.609103,0.14759 l 0.383844,0 1.639659,-1.64505 c 0.901813,-0.90478 1.949814,-1.9218 2.328891,-2.26006 l 0.68923,-0.615 v -0.35761 c 0,-0.19669 -0.06635,-0.45888 -0.147448,-0.58265 l -0.147447,-0.22503 0.551479,-0.41891 c 0.303314,-0.2304 0.907455,-0.66747 1.342535,-0.97126 l 0.791056,-0.55235 0.282427,0.27058 c 0.439217,0.4208 0.821045,0.36979 1.795514,-0.23983 0.921311,-0.57637 3.456791,-1.97167 4.070043,-2.23979 0.225495,-0.0986 0.519142,-0.30897 0.652548,-0.46751 l 0.242558,-0.28827 -0.05247,-0.44304 -0.05247,-0.44304 0.350586,-0.14761 c 0.192823,-0.0812 0.863945,-0.35994 1.491383,-0.61944 l 1.140795,-0.47183 0.160639,0.24443 c 0.381159,0.57999 0.717079,0.60612 2.006068,0.15609 0.533764,-0.18636 1.826077,-0.59123 2.871807,-0.89971 l 1.901325,-0.56087 0.2139,-0.24639 c 0.143644,-0.16547 0.213899,-0.36896 0.213899,-0.61955 v -0.37315 l 0.213899,-0.0495 c 0.117644,-0.0272 0.789542,-0.18071 1.493105,-0.34103 0.703563,-0.16032 1.309728,-0.31036 1.347033,-0.33341 0.03731,-0.0231 0.117873,0.10972 0.179039,0.29505 0.239231,0.72488 0.427671,0.73862 3.469097,0.25289 0.993443,-0.15865 2.189568,-0.34019 2.658056,-0.40341 l 0.851796,-0.11494 0.265233,-0.26524 c 0.191398,-0.19139 0.265233,-0.35989 0.265233,-0.60527 v -0.34005 l 0.232487,0 c 0.32567,0 2.614518,-0.18344 2.914942,-0.23363 l 0.247907,-0.0414 0.111377,0.37174 c 0.06126,0.20446 0.203375,0.43618 0.315818,0.51494 l 0.20444,0.1432 3.381527,-0.0487 c 4.634129,-0.0667 4.755483,-0.0895 4.922302,-0.92358 l 0.05483,-0.27412 1.673926,0.0674 c 1.87732,0.0755 1.81652,0.0625 1.81652,0.38955 0,0.66849 0.42824,0.82366 2.70939,0.98172 0.83658,0.058 2.13108,0.16893 2.87666,0.24658 l 1.35561,0.14118 0.2725,-0.14092 c 0.1626,-0.0841 0.33251,-0.29087 0.42128,-0.51272 l 0.14877,-0.37181 0.21951,0.0302 c 0.12073,0.0166 0.87191,0.12545 1.66927,0.24186 l 1.44977,0.21165 3.5e-4,0.29266 c 4.3e-4,0.34972 0.29821,0.87235 0.53972,0.94724 0.0951,0.0295 0.92157,0.20685 1.83658,0.39414 0.91502,0.18729 2.19232,0.46644 2.83845,0.62034 1.68884,0.40224 1.91075,0.36814 2.28041,-0.35033 l 0.1041,-0.20233 0.92974,0.2614 c 0.51136,0.14377 1.2399,0.35663 1.61897,0.47302 l 0.68923,0.21163 v 0.41704 c 0,0.61878 0.31298,0.8994 1.426,1.27853 0.49672,0.1692 1.70601,0.62279 2.6873,1.00797 2.05504,0.80664 2.29883,0.84027 2.73555,0.37726 l 0.30472,-0.32306 1.01017,0.45159 c 0.55559,0.24838 1.20779,0.55418 1.44934,0.67956 l 0.43918,0.22797 -0.0481,0.49566 -0.0481,0.49566 0.32703,0.3124 c 0.17987,0.17183 0.70812,0.52631 1.17389,0.78774 0.46577,0.26143 1.53257,0.93521 2.37066,1.49729 l 1.52382,1.02197 0.34455,0 c 0.2006,0 0.44553,-0.0794 0.58626,-0.19014 0.35029,-0.27553 0.52685,-0.17735 2.11305,1.17508 0.78444,0.66882 0.76501,0.6351 0.57617,1.00028 -0.28826,0.55744 -0.22028,0.6999 0.9254,1.93925 1.27563,1.37994 2.08651,2.32324 2.53881,2.95344 0.50268,0.70037 0.95979,0.875 1.52514,0.58265 l 0.27991,-0.14475 0.28855,0.31111 c 0.15871,0.17111 0.37785,0.48223 0.48698,0.69138 0.10914,0.20914 0.25418,0.44443 0.32231,0.52286 0.0681,0.0784 0.27512,0.41066 0.45996,0.73829 l 0.33607,0.59569 -0.37966,0.23966 c -0.65109,0.41102 -0.68868,0.75659 -0.20625,1.89628 0.48402,1.14346 0.79284,2.13024 1.08431,3.46478 0.31066,1.4224 0.42688,1.61974 1.07843,1.83126 l 0.3799,0.12333 0.062,0.52257 c 0.0341,0.28741 0.0798,1.02523 0.10154,1.6396 l 0.0395,1.11703 h -0.22474 c -0.70712,0 -0.93527,0.34229 -1.12302,1.68484 -0.17777,1.27112 -0.42607,2.3383 -0.8535,3.66815 -0.42587,1.32503 -0.42259,1.43572 0.0555,1.87713 l 0.38577,0.35614 -0.5759,1.14885 c -0.31675,0.63187 -0.57591,1.20895 -0.57591,1.28239 0,0.0734 -0.0754,0.22658 -0.16745,0.34032 l -0.16745,0.20679 -0.28411,-0.14814 c -0.6375,-0.3324 -1.07791,-0.12423 -1.73341,0.81936 -0.62504,0.89973 -1.55982,2.0179 -2.5045,2.99586 -1.06214,1.09954 -1.15426,1.40901 -0.60156,2.02079 0.32892,0.36407 0.36082,0.57425 0.0872,0.57425 -0.13879,0 -2.09834,1.51778 -2.31067,1.78974 l -0.12423,0.15912 -0.25603,-0.30532 c -0.59023,-0.70385 -0.88345,-0.65626 -2.44567,0.39693 -0.65238,0.43981 -1.82916,1.17103 -2.61507,1.62493 -1.73411,1.00154 -1.86103,1.17158 -1.56571,2.09776 0.0887,0.27831 -1.51004,1.19784 -2.77478,1.59592 l -0.20895,0.0658 -0.147,-0.28427 c -0.34007,-0.65762 -0.78608,-0.72391 -1.90898,-0.28373 -0.4171,0.16351 -1.72091,0.63304 -2.89735,1.04341 -2.42546,0.84605 -2.566,0.93816 -2.56798,1.68297 l -0.001,0.44626 -0.73422,0.28216 c -0.65852,0.25307 -1.284,0.42179 -2.17708,0.58726 l -0.29934,0.0555 -0.16717,-0.35228 c -0.10059,-0.21198 -0.29108,-0.41136 -0.47834,-0.50066 l -0.31117,-0.14839 -0.50571,0.10478 c -0.27815,0.0576 -1.13689,0.23663 -1.90833,0.39778 -0.77143,0.16115 -1.88371,0.37813 -2.47172,0.48218 -1.59971,0.28305 -1.87718,0.45661 -1.87718,1.17421 0,0.18175 -0.0321,0.35027 -0.0713,0.37448 -0.12027,0.0743 -1.73987,0.33342 -2.51728,0.40281 l -0.73478,0.0656 -0.0565,-0.1793 c -0.1158,-0.36723 -0.31707,-0.65866 -0.54734,-0.79254 l -0.2372,-0.1379 -2.0294,0.16492 c -3.87838,0.31518 -4.28869,0.36071 -4.50032,0.49938 -0.23075,0.15119 -0.42859,0.51988 -0.42859,0.7987 0,0.25822 0.008,0.25673 -1.67906,0.33124 l -1.536464,0.0679 -0.184698,-0.41289 c -0.101584,-0.22709 -0.265773,-0.48236 -0.364866,-0.56727 l -0.180167,-0.15438 -3.102497,-0.05 c -3.501094,-0.0564 -3.435176,-0.0673 -3.779346,0.62684 l -0.227203,0.45824 -0.961126,-0.0654 c -0.528619,-0.0359 -1.216097,-0.0924 -1.527728,-0.1255 l -0.566603,-0.0601 -0.05859,-0.2852 c -0.165906,-0.80762 -0.24758,-0.83993 -2.991125,-1.18343 -1.254875,-0.15711 -2.55966,-0.32405 -2.899522,-0.37097 -0.806166,-0.11131 -1.425994,0.19557 -1.425994,0.70602 0,0.23086 -0.179913,0.23751 -1.152223,0.0426 -0.976063,-0.19568 -1.224435,-0.30284 -1.224435,-0.52833 0,-0.24134 -0.569034,-0.61474 -0.936804,-0.61474 -0.479369,0 -0.637271,0.1316 -1.449127,1.20775 -0.386395,0.51218 -1.012069,1.30044 -1.390387,1.75169 -0.970149,1.15717 -1.087394,1.72041 -0.445648,2.1409 0.332363,0.21778 0.288225,0.34824 -0.269916,0.79782 -0.274504,0.22111 -0.782733,0.70528 -1.129398,1.07594 l -0.6303,0.67392 -0.391937,-0.35409 c -0.574778,-0.51928 -0.883003,-0.49118 -1.645607,0.15005 -1.088943,0.91562 -1.921558,1.55184 -3.001002,2.29312 -1.352336,0.92868 -1.601166,1.316 -1.257715,1.95775 0.136479,0.25501 -0.06499,0.41047 -1.47624,1.13909 l -1.196851,0.61794 -0.208736,-0.24923 c -0.478881,-0.57179 -0.714853,-0.5806 -1.932643,-0.0722 -1.254095,0.52357 -3.163715,1.20676 -3.964416,1.41833 -0.357395,0.0944 -0.721024,0.23438 -0.808064,0.31099 -0.08704,0.0766 -0.372153,0.18609 -0.633585,0.2433 -0.261433,0.0572 -0.571587,0.13119 -0.689231,0.1644 -0.117645,0.0332 -0.213899,0.021 -0.213899,-0.0271 z"
         id="path44" /><path
         style="fill:#6d6c6c"
         d="m 54.492117,187.43209 c 0,-0.1478 1.672188,-2.71 2.354517,-3.60771 l 0.234839,-0.30897 -0.225182,0.001 c -0.12385,7.7e-4 -0.481862,0.0612 -0.79558,0.13431 -0.313719,0.0731 -1.188886,0.2477 -1.944815,0.388 l -1.374418,0.25509 -0.353536,-0.10592 c -0.497205,-0.14897 -0.84288,-0.58855 -0.84288,-1.07187 v -0.38441 l 1.54742,-1.53339 c 0.851082,-0.84337 1.845713,-1.86516 2.210292,-2.27065 l 0.66287,-0.73725 0.363812,4.8e-4 c 0.605039,8.2e-4 1.127664,0.67806 0.979329,1.26907 -0.0694,0.27652 -0.682066,1.07421 -1.382937,1.80059 l -0.530601,0.54991 0.142599,0.0903 0.142599,0.0903 -0.166366,0.001 c -0.25307,0.002 -0.199479,-0.21687 0.129008,-0.52739 0.368403,-0.34825 1.348512,-1.53917 1.49602,-1.8178 0.333479,-0.6299 -0.10119,-1.26587 -0.865184,-1.26587 h -0.300705 l -0.475269,0.54663 c -0.261398,0.30064 -1.19733,1.26591 -2.07985,2.14504 -1.945702,1.93822 -2.139589,2.42173 -1.158665,2.8895 l 0.343969,0.16403 1.300855,-0.22255 c 0.715471,-0.1224 1.707264,-0.31885 2.203986,-0.43655 0.496721,-0.11769 1.05335,-0.19445 1.236953,-0.17057 0.665064,0.0865 5.5782,-1.7662 6.225751,-2.34768 0.156859,-0.14085 0.426006,-0.35262 0.598104,-0.47059 0.373253,-0.25587 0.283303,-0.47293 -0.168502,-0.40661 -0.157851,0.0232 -0.287003,3.2e-4 -0.287003,-0.0508 0,-0.0511 -0.112783,-0.20568 -0.250629,-0.34353 -0.137846,-0.13784 -0.220994,-0.25063 -0.184774,-0.25063 0.03622,0 0.193274,0.13904 0.349008,0.30897 l 0.283152,0.30897 1.188377,-0.61794 c 1.404779,-0.73045 1.6038,-0.88491 1.467764,-1.13909 -0.343451,-0.64175 -0.09462,-1.02907 1.257715,-1.95775 1.079444,-0.74128 1.912059,-1.3775 3.001002,-2.29312 0.758271,-0.63758 1.071875,-0.66839 1.634039,-0.16051 l 0.380367,0.34364 1.117201,-1.07121 c 1.315218,-1.26107 1.258019,-1.16383 0.887963,-1.50952 -0.161495,-0.15086 -0.290732,-0.33199 -0.287193,-0.40251 0.0035,-0.0705 0.05428,-0.0288 0.112759,0.0928 0.146711,0.30493 0.764475,0.6075 1.079114,0.52854 0.242036,-0.0608 1.713652,-1.73721 2.636541,-3.00355 0.460147,-0.63139 0.525273,-0.66976 0.898008,-0.52906 0.219133,0.0827 0.35758,0.0736 0.648627,-0.0429 l 0.370027,-0.14802 0.570398,0.0955 c 0.424065,0.071 0.633113,0.16266 0.814858,0.35724 0.277877,0.29749 0.44251,0.33364 3.230173,0.70932 0.969892,0.1307 2.117719,0.24961 2.550727,0.26423 l 0.787287,0.0266 0.229962,-0.26673 c 0.637561,-0.73951 0.181661,-1.49953 -1.0059,-1.6769 l -0.617931,-0.0923 0.650452,0.0471 c 0.896918,0.0649 1.201024,0.30445 1.318074,1.03819 l 0.03033,0.19013 0.569165,0.0601 c 0.313041,0.0331 1.001673,0.0896 1.530292,0.1255 l 0.961126,0.0654 0.227203,-0.45824 c 0.292756,-0.59046 0.523472,-0.69709 1.463064,-0.67619 l 0.76053,0.0169 -0.617931,0.0288 c -1.042841,0.0486 -1.226678,0.10505 -1.430173,0.43879 -0.283075,0.46426 -0.245975,0.9494 0.09451,1.2359 l 0.280466,0.236 1.359427,0.0658 c 0.747685,0.0362 2.186732,0.0514 3.197882,0.0339 l 1.838454,-0.0319 0.23964,-0.27883 0.239641,-0.27883 -0.04531,-0.43417 -0.04531,-0.43417 0.136033,0.32315 0.136033,0.32314 1.063442,-0.0613 c 0.58489,-0.0337 1.28937,-0.0615 1.56551,-0.0617 0.31844,-2.7e-4 0.51548,-0.0439 0.5387,-0.11926 0.0201,-0.0654 0.0633,-0.24013 0.0959,-0.38837 0.0857,-0.38942 0.49178,-0.73142 0.84981,-0.71572 l 0.29508,0.0129 -0.23766,0.0385 c -0.84321,0.13674 -1.19096,1.2006 -0.54857,1.6782 l 0.2595,0.19292 0.8813,-0.0211 c 2.91638,-0.07 5.80981,-0.44182 6.01446,-0.77294 0.0325,-0.0527 0.14502,-0.0957 0.24994,-0.0957 0.10493,0 0.2793,-0.0474 0.3875,-0.10529 l 0.19673,-0.10528 -0.13168,-0.0834 c -0.0724,-0.0459 -0.229,-0.084 -0.34795,-0.0848 -0.16353,-0.001 -0.23012,-0.0707 -0.27305,-0.28531 -0.0312,-0.15611 -0.16138,-0.39673 -0.28925,-0.53469 l -0.23247,-0.25085 -1.15814,0.0497 c -0.79507,0.0341 -0.96442,0.0264 -0.54021,-0.0246 0.33987,-0.0409 0.86815,-0.0793 1.17396,-0.0854 l 0.55602,-0.0111 0.26965,0.28866 c 0.14831,0.15876 0.28311,0.38335 0.29957,0.49909 l 0.0299,0.21044 0.7301,-0.0221 c 0.40155,-0.0122 1.10233,-0.087 1.55728,-0.16636 0.45495,-0.0793 0.86573,-0.14425 0.91286,-0.14425 0.0471,0 0.12436,-0.0962 0.17165,-0.2139 l 0.086,-0.2139 0.009,0.33273 c 0.0214,0.79106 0.46136,0.83067 3.21215,0.28919 3.52522,-0.69391 4.50588,-1.00701 4.35835,-1.39148 -0.0253,-0.066 -0.0741,-0.26921 -0.10825,-0.4515 -0.0788,-0.42023 -0.41421,-0.73747 -0.8738,-0.82656 l -0.35857,-0.0695 0.26615,-0.0109 c 0.40134,-0.0165 0.78225,0.22538 0.96651,0.61369 l 0.16505,0.3478 0.29934,-0.0555 c 0.89308,-0.16547 1.51856,-0.33419 2.17708,-0.58726 l 0.73422,-0.28216 0.001,-0.44626 c 9.2e-4,-0.34765 0.0558,-0.50521 0.24814,-0.713 l 0.24696,-0.26673 -0.19942,0.27425 c -0.14257,0.19607 -0.19943,0.41701 -0.19943,0.775 v 0.50074 l -0.2852,0.0994 c -0.16273,0.0567 -0.2852,0.16733 -0.2852,0.25755 v 0.15812 l 0.3565,-0.0786 c 0.19608,-0.0433 0.54901,-0.0698 0.7843,-0.059 1.08788,0.0499 6.70753,-2.12485 7.40271,-2.86485 l 0.21512,-0.22898 -0.41815,0.0471 -0.41815,0.0471 -0.12408,-0.29956 c -0.29118,-0.70297 -0.69981,-0.72949 -2.22411,-0.14431 -0.62016,0.23808 -1.14389,0.41655 -1.16383,0.3966 -0.0725,-0.0725 2.30952,-0.92454 2.58462,-0.92454 0.35236,0 0.66212,0.21086 0.85353,0.58101 l 0.147,0.28427 0.20895,-0.0658 c 1.26474,-0.39808 2.86352,-1.31761 2.77478,-1.59592 -0.29532,-0.92618 -0.1684,-1.09622 1.56571,-2.09776 0.78591,-0.4539 1.96679,-1.18789 2.62419,-1.63108 0.65739,-0.44319 1.33138,-0.8275 1.49775,-0.85402 l 0.3025,-0.0482 -0.33273,0.12795 c -0.18301,0.0704 -0.88887,0.49686 -1.5686,0.94776 -0.67972,0.45091 -1.77061,1.12399 -2.42419,1.49576 -1.66935,0.94953 -1.93474,1.2924 -1.5605,2.01608 0.18124,0.35048 0.19454,0.33601 -0.81616,0.88827 -0.91986,0.50263 -0.61054,0.49763 0.44414,-0.007 0.38477,-0.18416 0.8302,-0.32634 1.02243,-0.32634 0.87614,0 6.2338,-3.46441 6.2338,-4.03095 0,-0.028 -0.20857,-0.26611 -0.46349,-0.5292 -0.25492,-0.2631 -0.42111,-0.47836 -0.36932,-0.47836 0.0518,0 0.2324,0.15091 0.40135,0.33536 0.39447,0.43066 0.4585,0.40534 1.50402,-0.59474 0.45919,-0.43923 0.98324,-0.86059 1.16456,-0.93635 0.40562,-0.16948 0.40561,-0.1707 -0.003,-0.62305 -0.22166,-0.24535 -0.32948,-0.45547 -0.323,-0.62945 l 0.01,-0.26116 0.0741,0.31286 c 0.23384,0.987 1.18499,1.17075 1.95382,0.37747 1.16994,-1.20715 2.63056,-2.98292 3.31601,-4.03151 0.92465,-1.41447 -0.75752,-2.30682 -1.71614,-0.91037 -0.7542,1.09868 -3.55221,4.33547 -3.55221,4.10927 0,-0.05 0.36185,-0.46879 0.80412,-0.93067 1.00985,-1.05463 1.92447,-2.14769 2.54743,-3.04442 0.65322,-0.94029 1.09641,-1.15153 1.72656,-0.82291 l 0.27727,0.14459 0.34066,-0.36844 c 0.18737,-0.20265 0.5745,-0.8457 0.86029,-1.42901 l 0.51964,-1.06056 -0.23444,-0.16182 c -0.69019,-0.47641 -0.93967,-1.01796 -0.66729,-1.4485 0.057,-0.0901 0.0692,-0.005 0.0354,0.24773 -0.11216,0.83618 0.85586,1.40792 1.51111,0.8925 0.41863,-0.3293 1.19876,-2.82391 1.44326,-4.61509 0.0857,-0.62744 0.17584,-1.2611 0.20044,-1.40814 0.17834,-1.06617 -1.38755,-1.57524 -1.81658,-0.59056 -0.0689,0.15813 -0.12694,0.23122 -0.12898,0.16242 -0.011,-0.36867 0.50903,-0.77804 0.98829,-0.77804 h 0.24093 l -0.0436,-0.54663 c -0.024,-0.30065 -0.0661,-1.01721 -0.0936,-1.59236 -0.0389,-0.81361 -0.0842,-1.07106 -0.20428,-1.15982 l -0.15433,-0.11409 0.24963,-0.0627 c 0.1373,-0.0344 0.36153,-0.19564 0.49831,-0.35818 l 0.24867,-0.29554 -0.0515,-0.62098 c -0.0563,-0.67881 -1.05522,-3.8365 -1.58738,-5.0178 l -0.31049,-0.68923 -0.37888,-0.11351 -0.37887,-0.11352 -0.34516,0.18481 c -0.45787,0.24516 -0.59958,0.73718 -0.35814,1.24348 0.09,0.18883 0.14719,0.35986 0.12699,0.38007 -0.0202,0.0202 -0.11477,-0.13633 -0.21015,-0.34785 -0.4522,-1.00279 0.61118,-1.95547 1.53274,-1.37318 0.24773,0.15652 0.8737,1.61708 1.32366,3.08844 0.1836,0.60037 0.4869,1.41242 0.674,1.80457 0.9769,2.04752 1.49827,4.02803 1.70178,6.46451 0.0721,0.86272 0.1836,2.20486 0.24787,2.98252 l 0.11686,1.41393 -0.12031,1.10533 c -1.78563,16.40568 -23.52577,27.96117 -53.95934,28.68089 -6.295034,0.14887 -15.231088,-0.58755 -19.696725,-1.6232 -0.336449,-0.078 -0.748106,-0.14006 -0.914792,-0.13784 l -0.303066,0.004 -0.617931,0.82016 c -2.289005,3.03811 -5.94461,6.51776 -8.983765,8.55134 -5.218106,3.49158 -12.565248,6.39727 -16.185036,6.40094 l -0.499098,5.1e-4 z m 14.527501,-9.52088 c 1.417093,-0.9687 3.503335,-2.68298 3.64589,-2.99585 0.23267,-0.51066 -0.303598,-1.2875 -0.88778,-1.28606 l -0.316278,7.9e-4 -1.188329,0.95915 c -0.65358,0.52754 -1.715056,1.32643 -2.358833,1.7753 -1.460787,1.01854 -1.449114,0.99757 -1.203829,2.16266 l 0.06062,0.28796 0.538924,-0.0518 0.538924,-0.0519 z m 75.690412,-22.076 c 0,-0.14695 -0.13211,-0.0805 -0.44704,0.2247 -0.43666,0.42322 -0.39248,0.52911 0.0668,0.16005 0.20915,-0.16808 0.38027,-0.34121 0.38027,-0.38475 z m -88.982051,26.02328 c 0,-0.0224 0.245984,-0.091 0.546631,-0.15248 0.300647,-0.0614 0.617505,-0.17444 0.70413,-0.25112 0.163721,-0.14493 1.209404,-0.45445 1.28384,-0.38001 0.02335,0.0233 -0.184452,0.094 -0.461778,0.15712 -0.277326,0.0631 -0.61268,0.19072 -0.745231,0.28366 -0.263046,0.18443 -1.327592,0.45934 -1.327592,0.34283 z m 2.672404,-0.85704 c 0.03443,-0.0344 1.863342,-0.70438 2.603775,-0.9538 l 0.190132,-0.064 -0.163043,0.10511 c -0.279705,0.18031 -2.758381,1.04025 -2.630864,0.91273 z m 2.841441,-1.04034 c 0,-0.10272 1.53667,-0.63796 1.727333,-0.60164 l 0.221526,0.0422 -0.248358,0.013 c -0.136596,0.007 -0.559583,0.14128 -0.939971,0.29814 -0.716482,0.29546 -0.76053,0.30984 -0.76053,0.24835 z m -2.493101,-4.10412 c -0.614498,-0.33348 -0.60669,-0.86379 0.02931,-1.9908 0.265558,-0.47058 0.887419,-1.63246 1.381912,-2.58196 0.992892,-1.9065 1.010605,-1.92947 1.542782,-2.00085 l 0.373296,-0.0501 0.34009,0.32004 c 0.187049,0.17603 0.363368,0.44839 0.39182,0.60525 l 0.05173,0.2852 -0.124239,-0.32105 c -0.169919,-0.43909 -0.49211,-0.67777 -0.909972,-0.67412 -0.504195,0.004 -0.572564,0.0877 -1.42754,1.73837 -0.428367,0.82706 -1.030978,1.94784 -1.339134,2.49064 -0.308157,0.5428 -0.568271,1.06395 -0.578031,1.15812 -0.06922,0.66786 0.251243,1.07435 0.846975,1.07435 h 0.376135 l 0.237356,-0.28208 c 0.130546,-0.15514 0.372778,-0.51877 0.538293,-0.80806 0.165515,-0.28929 0.321711,-0.52599 0.347103,-0.52599 0.05515,0 0.06379,-0.0168 -0.392052,0.76054 -0.557661,0.9509 -1.012959,1.16763 -1.685838,0.80247 z m 2.688159,-2.75133 c 0.327145,-0.62744 0.637435,-1.18358 0.689534,-1.23587 0.0521,-0.0523 -0.171529,0.4183 -0.49695,1.04573 -0.325422,0.62744 -0.635712,1.18358 -0.689535,1.23587 -0.05382,0.0523 0.169806,-0.4183 0.496951,-1.04573 z m 0.854967,-1.58292 c -0.0024,-0.034 0.102235,-0.29071 0.232441,-0.5704 0.130205,-0.2797 0.235222,-0.44437 0.23337,-0.36594 -0.0033,0.14163 -0.45759,1.05472 -0.465811,0.93634 z m 12.259756,-0.90665 c -2.75e-4,-0.0621 0.335655,-0.51733 0.746513,-1.01162 0.410857,-0.4943 1.058809,-1.31173 1.439893,-1.81653 0.815498,-1.08024 0.962639,-1.19847 1.470532,-1.18162 l 0.382879,0.0127 -0.470239,0.065 c -0.36511,0.0505 -0.518292,0.12736 -0.685181,0.3438 -0.118218,0.15331 -0.740818,0.93566 -1.383554,1.73855 -0.642736,0.8029 -1.243251,1.57293 -1.334477,1.7112 -0.09123,0.13826 -0.166091,0.20058 -0.166366,0.13848 z m 24.670731,-2.30959 -0.170539,-0.18845 -2.244619,-0.0273 -2.244619,-0.0273 2.241253,-0.022 2.241253,-0.022 0.223275,0.23767 c 0.122802,0.13071 0.201059,0.23766 0.173905,0.23766 -0.02715,0 -0.126113,-0.0848 -0.219909,-0.18844 z m -18.872188,-0.44217 c -1.037718,-0.26032 -1.235862,-0.32935 -1.235862,-0.43057 0,-0.0726 0.03746,-0.0718 0.127027,0.003 0.101886,0.0846 1.807673,0.48385 2.081989,0.48736 0.03851,4.9e-4 0.128863,-0.13814 0.200778,-0.30807 0.155042,-0.36636 0.400789,-0.59627 0.727394,-0.68052 0.162263,-0.0419 0.132102,-0.008 -0.09507,0.10759 -0.219225,0.11128 -0.396754,0.30673 -0.520404,0.57293 l -0.187673,0.40403 -0.287659,-0.012 c -0.158213,-0.007 -0.522948,-0.0711 -0.810524,-0.14323 z m 24.915292,-0.16468 c 0.0218,-0.0191 0.59575,-0.0569 1.27547,-0.084 0.79001,-0.0315 1.03008,-0.0227 0.66547,0.0244 -0.59372,0.0767 -2.01003,0.12022 -1.94094,0.0596 z m 8.8483,-0.29797 c -0.0235,-0.41204 0.43257,-0.75239 1.12574,-0.84014 l 0.4278,-0.0542 -0.50795,0.12993 c -0.54841,0.14027 -0.93189,0.43023 -0.9951,0.75242 l -0.0397,0.20208 z m -30.531338,-0.23569 c -0.601294,-0.0918 -0.964923,-0.16892 -0.808063,-0.17147 0.156859,-0.003 0.798557,0.072 1.425994,0.16568 0.627438,0.0937 0.991066,0.17084 0.808064,0.17147 -0.183003,6.3e-4 -0.824701,-0.0739 -1.425995,-0.16568 z M 63.171894,166.3073 c -0.515925,-0.20777 -0.597007,-0.74638 -0.267624,-1.77775 0.331781,-1.03889 0.348644,-0.99454 -0.592951,-1.55913 -4.303174,-2.58023 -9.006031,-6.76239 -11.396475,-10.13469 -0.419294,-0.59151 -0.747968,-0.95212 -0.975497,-1.07027 -0.516194,-0.26804 -2.401176,-3.00429 -3.257154,-4.7281 -0.469082,-0.94466 -0.217715,-1.6031 0.650764,-1.70462 l 0.456986,-0.0534 0.265208,0.20973 c 0.145864,0.11535 0.408618,0.49405 0.583898,0.84156 0.385445,0.76417 1.508572,2.48168 2.207583,3.37588 0.706564,0.90387 0.733554,1.14911 0.206907,1.88012 l -0.11243,0.15606 0.539215,0.60447 c 0.296568,0.33246 0.539407,0.67271 0.539642,0.75611 4.74e-4,0.16804 0.289695,0.46629 0.452184,0.46629 0.05723,0 0.235102,0.11027 0.395273,0.24505 l 0.29122,0.24504 0.277381,-0.19751 c 0.587188,-0.41811 0.881904,-0.30262 2.305473,0.90343 0.437,0.37023 1.375094,1.10525 2.084654,1.63337 1.479786,1.10141 1.497415,1.11896 1.559674,1.55273 l 0.04646,0.32368 -0.103883,-0.3608 c -0.111068,-0.38574 -0.13583,-0.40841 -1.699093,-1.55591 -0.549007,-0.403 -1.383214,-1.05746 -1.853792,-1.45436 -1.293266,-1.09077 -1.374499,-1.14458 -1.727863,-1.14458 -0.668389,0 -1.2357,0.75365 -0.961395,1.27718 0.33921,0.6474 4.730759,4.04653 5.227974,4.04653 0.29441,0 0.726185,-0.2692 0.878679,-0.54783 l 0.142428,-0.26023 -0.052,0.28519 -0.052,0.2852 0.981474,0.58482 c 1.563518,0.93164 1.793894,1.02186 1.951179,0.76414 0.135301,-0.2217 0.539918,-0.44608 0.786407,-0.4361 l 0.24028,0.01 -0.315177,0.0746 c -0.64673,0.15308 -1.024456,0.75535 -0.837162,1.33483 l 0.106609,0.32984 0.681793,0.33273 c 0.374986,0.183 0.708803,0.35996 0.741815,0.39324 0.06271,0.0632 -0.110623,0.86653 -0.448476,2.07848 -0.109318,0.39215 -0.217408,0.87233 -0.2402,1.06706 l -0.04144,0.35406 0.287639,0.28764 c 0.425048,0.42505 1.236781,0.31247 1.39747,-0.19382 0.03462,-0.10908 0.0839,-0.17739 0.109505,-0.15178 0.344039,0.34404 -0.871126,0.86973 -1.461165,0.63212 z M 50.949383,151.48717 c 0.57361,-0.52391 0.525824,-0.87385 -0.253611,-1.8572 -0.633529,-0.79926 -1.769399,-2.54125 -2.153217,-3.30221 -0.500259,-0.9918 -1.093334,-1.22576 -1.663054,-0.65604 -0.496118,0.49612 -0.155933,1.45595 1.258376,3.55051 1.711204,2.53427 2.139166,2.87903 2.811506,2.26494 z m 66.619217,14.62546 c 0.41829,-0.0982 0.84609,-0.17616 0.95066,-0.17324 0.10458,0.003 -0.1521,0.0847 -0.57039,0.18171 -0.4183,0.097 -0.84609,0.17499 -0.95067,0.17324 -0.10457,-0.002 0.15211,-0.0835 0.5704,-0.18171 z m -52.584137,-1.65801 c 0.113503,-0.53395 0.476312,-1.75438 0.511176,-1.71951 0.04672,0.0467 -0.295093,1.32366 -0.447561,1.67198 -0.06668,0.15234 -0.08952,0.1694 -0.06361,0.0475 z m 60.911817,-0.46887 c 0.0743,-0.0743 2.87185,-1.0071 2.909,-0.96996 0.0336,0.0337 -2.76175,1.01104 -2.89165,1.01104 -0.0321,0 -0.0399,-0.0185 -0.0173,-0.0411 z m -60.343532,-2.70567 -0.106916,-0.28325 -1.127575,-0.57153 c -0.620166,-0.31434 -1.094777,-0.57375 -1.054691,-0.57646 0.482506,-0.0326 2.526462,1.3234 2.430173,1.61226 -0.01874,0.0562 -0.08219,-0.0252 -0.140991,-0.18102 z m 85.351322,-17.12211 c 0,-0.0784 0.0789,-0.3565 0.1754,-0.61793 0.0965,-0.26143 0.1754,-0.41116 0.1754,-0.33273 0,0.0784 -0.0789,0.3565 -0.1754,0.61793 -0.0965,0.26143 -0.1754,0.41116 -0.1754,0.33273 z m 0.37733,-1.18833 c -0.004,-0.0523 0.0514,-0.30896 0.12413,-0.57039 0.0728,-0.26144 0.13281,-0.38978 0.13346,-0.2852 0.001,0.20238 -0.24382,1.01647 -0.25759,0.85559 z M 45.04524,142.15421 c -0.530745,-0.41749 -0.810397,-1.90362 -0.887972,-4.7189 l -0.05296,-1.92181 0.336015,-0.33601 c 0.564316,-0.56432 1.678906,-0.28308 1.682441,0.42452 3.98e-4,0.0797 -0.05108,0.0418 -0.116719,-0.0859 -0.06459,-0.12567 -0.233565,-0.31471 -0.375505,-0.42008 l -0.258074,-0.19159 -0.380184,0.11391 c -0.209101,0.0627 -0.445902,0.20773 -0.526223,0.32241 l -0.146039,0.20849 0.0019,1.52368 c 0.0028,2.29461 0.323449,4.47194 0.716457,4.86495 0.438016,0.43802 1.280664,0.24276 1.496139,-0.34669 l 0.05213,-0.1426 0.0075,0.15652 c 0.02592,0.54059 -1.067078,0.92808 -1.548869,0.54911 z m 1.113005,-4.08048 c 0,-0.39215 0.01678,-0.55257 0.03729,-0.3565 0.02051,0.19607 0.02051,0.51692 0,0.713 -0.02051,0.19607 -0.03729,0.0357 -0.03729,-0.3565 z M 151.52311,133.6373 c -0.0922,-0.44806 -0.14996,-0.83239 -0.1283,-0.85405 0.0217,-0.0217 0.11607,0.32599 0.20979,0.77257 0.0937,0.44657 0.15145,0.8309 0.1283,0.85405 -0.0232,0.0231 -0.11756,-0.3245 -0.20979,-0.77257 z M 45.337214,131.36462 c -0.530345,-0.53034 -0.185202,-1.78977 1.285776,-4.69181 0.897394,-1.77043 1.054063,-1.95589 1.652244,-1.95589 h 0.433435 l 0.277401,0.31046 c 0.15257,0.17076 0.277241,0.36327 0.277045,0.4278 -1.95e-4,0.0645 -0.08371,-0.0194 -0.185598,-0.18647 -0.208534,-0.34201 -0.711212,-0.49709 -1.135619,-0.35036 -0.335912,0.11614 -1.43848,2.17374 -2.196232,4.09859 -0.715358,1.81715 -0.72048,2.00713 -0.06488,2.40688 l 0.302898,0.18469 -0.200936,3.6e-4 c -0.110514,1.9e-4 -0.311005,-0.10972 -0.445534,-0.24425 z m 1.147941,0.10187 c 0.215654,-0.0937 0.366979,-0.26056 0.492383,-0.54291 0.208173,-0.4687 0.261239,-0.41871 0.06192,0.0583 -0.140615,0.33654 -0.479372,0.62976 -0.720426,0.62358 -0.07987,-0.002 -0.0051,-0.0646 0.166126,-0.13901 z M 150.66593,130.6443 c -0.13864,-0.37551 -0.23619,-0.69863 -0.21678,-0.71803 0.0194,-0.0194 0.14904,0.27162 0.28808,0.64673 0.13904,0.37511 0.23659,0.69822 0.21679,0.71803 -0.0198,0.0198 -0.14945,-0.27122 -0.28809,-0.64673 z M 47.219856,130.27829 c 0.145668,-0.48444 0.44715,-1.24789 0.479868,-1.21517 0.03912,0.0391 -0.41955,1.33076 -0.498553,1.40395 -0.02903,0.0269 -0.02062,-0.0581 0.01868,-0.18878 z m 0.524245,-1.36841 c -0.0023,-0.11448 1.452407,-2.91316 1.493057,-2.8725 0.01761,0.0176 -0.310737,0.69026 -0.72967,1.49477 -0.418933,0.80451 -0.762457,1.42449 -0.763387,1.37773 z m 100.101689,-3.80784 c -0.1315,-0.0716 -0.38773,-0.33722 -0.56941,-0.59035 -0.45182,-0.62952 -1.26309,-1.57325 -2.53831,-2.95274 -1.15301,-1.24728 -1.20555,-1.3601 -0.91608,-1.9671 0.61565,-1.29105 1.6569,-0.61053 4.5325,2.96227 l 1.01379,1.25958 v 0.3283 c 0,0.83529 -0.8115,1.347 -1.52249,0.96004 z m 1.05447,-0.23521 c 0.21477,-0.21477 0.27788,-0.3645 0.27788,-0.65924 v -0.38135 l -0.58752,-0.74299 c -1.62641,-2.05678 -3.42746,-3.92771 -3.781,-3.92771 -0.28309,0 -0.72455,0.24275 -0.90188,0.49594 -0.32001,0.45686 -0.21636,0.66089 1.01619,2.00041 1.28226,1.39355 1.8589,2.06199 2.39802,2.77983 0.59214,0.78841 1.08824,0.92518 1.57831,0.43511 z m -98.041424,-2.69341 c -0.31188,-0.25757 -0.45282,-0.60752 -0.385824,-0.95799 0.08575,-0.44856 2.26927,-2.72065 4.195091,-4.36525 l 0.528782,-0.45156 h 0.373155 0.373154 l 0.320191,0.3395 0.32019,0.3395 v 0.39503 0.39503 l -0.68923,0.615 c -0.379077,0.33826 -1.427078,1.35528 -2.328891,2.26006 -0.930314,0.93337 -1.711733,1.64216 -1.806259,1.63837 l -0.1666,-0.007 0.177324,-0.0697 c 0.09753,-0.0383 0.931735,-0.81768 1.853793,-1.73187 0.922058,-0.91419 1.943842,-1.89962 2.270633,-2.18984 l 0.594164,-0.52768 v -0.38717 -0.38718 l -0.292493,-0.24612 c -0.200665,-0.16884 -0.404209,-0.24611 -0.648336,-0.24611 h -0.355843 l -0.944024,0.84246 c -1.084419,0.96775 -3.254163,3.16771 -3.505128,3.55393 -0.302791,0.46599 0.0077,1.19986 0.564711,1.3346 l 0.190133,0.046 -0.190133,0.0105 c -0.104573,0.006 -0.306425,-0.0855 -0.44856,-0.20287 z m 87.809984,-5.56091 c -0.83809,-0.56208 -1.90489,-1.23586 -2.37066,-1.49729 -0.46577,-0.26143 -0.99353,-0.61543 -1.17281,-0.78666 l -0.32595,-0.31133 0.0447,-0.46485 c 0.0581,-0.60429 0.41311,-0.94897 0.98207,-0.95341 l 0.38507,-0.003 1.40214,0.8533 c 1.77709,1.08148 3.64916,2.35845 3.82446,2.60874 0.38158,0.54477 -0.1011,1.58978 -0.72644,1.57276 -0.0752,-0.002 -0.001,-0.0627 0.16476,-0.13487 0.56297,-0.24488 0.72471,-0.99234 0.31146,-1.43931 -0.6187,-0.66917 -4.90832,-3.30851 -5.3772,-3.30851 -0.4715,0 -0.89218,0.4326 -0.89218,0.91747 0,0.48401 0.20038,0.66489 1.75873,1.5876 0.67972,0.40247 1.71837,1.06197 2.3081,1.46556 0.58973,0.40359 1.16726,0.77204 1.2834,0.81876 0.1238,0.0498 0.1518,0.0875 0.0677,0.091 -0.0789,0.003 -0.82919,-0.45386 -1.66729,-1.01594 z m -79.09841,-1.34813 c -0.576924,-0.24388 -0.852194,-0.97159 -0.570649,-1.50858 0.247739,-0.47251 5.375079,-3.34697 5.968468,-3.34601 0.797046,0.001 1.314411,1.0345 0.82779,1.65314 -0.192235,0.24439 -0.919153,0.68231 -0.999391,0.60207 -0.02161,-0.0216 0.135374,-0.11805 0.348851,-0.21431 1.035821,-0.46709 0.936761,-1.85112 -0.132492,-1.85112 -0.305082,0 -2.62103,1.12039 -3.86623,1.87037 -0.339862,0.2047 -0.827069,0.49861 -1.082682,0.65314 -0.255613,0.15452 -0.587157,0.381 -0.736764,0.5033 l -0.272012,0.22235 v 0.41404 c 0,1.07578 0.733562,1.22116 2.043925,0.40506 1.028114,-0.64031 3.484141,-1.99427 3.531544,-1.94686 0.01855,0.0186 -0.468996,0.30408 -1.083442,0.63451 -0.614445,0.33043 -1.603955,0.8958 -2.19891,1.25638 -1.117806,0.67747 -1.439606,0.79557 -1.778006,0.65252 z m 70.83214,-3.10194 c -0.15686,-0.0769 -0.19964,-0.11253 -0.0951,-0.0793 0.10458,0.0333 0.38559,0.0814 0.62447,0.10694 l 0.43433,0.0465 0.2549,-0.30294 c 0.32258,-0.38336 0.33884,-0.85081 0.041,-1.17862 -0.40199,-0.44243 -5.56073,-2.41643 -6.01621,-2.30212 -0.70579,0.17715 -0.94845,1.06699 -0.43184,1.58359 0.15283,0.15283 0.2422,0.27788 0.19858,0.27788 -0.24145,0 -0.57154,-0.60328 -0.57154,-1.04457 v -0.45959 l 0.28469,-0.23954 c 0.15658,-0.13175 0.37144,-0.26709 0.47748,-0.30074 0.42123,-0.13369 5.56311,1.81253 6.10175,2.30954 0.89677,0.82744 -0.17822,2.13388 -1.30254,1.58297 z m -1.68284,-0.64018 c -0.66414,-0.26851 -1.19141,-0.50431 -1.17173,-0.52399 0.0356,-0.0356 2.15429,0.78548 2.42677,0.94042 0.34286,0.19497 -0.13509,0.0364 -1.25504,-0.41643 z m -59.307375,-1.25253 c -0.133571,-0.0726 -0.323611,-0.28205 -0.422312,-0.46533 l -0.179457,-0.33323 0.08958,-0.3595 c 0.128512,-0.51573 0.482921,-0.71232 2.370936,-1.31514 2.696249,-0.86089 3.942816,-1.17696 4.274762,-1.08389 0.671417,0.18824 0.956707,1.08413 0.521446,1.63748 -0.178298,0.22667 -1.45986,0.72134 -1.573748,0.60745 -0.02164,-0.0216 0.279812,-0.13209 0.669899,-0.24543 1.156445,-0.33602 1.419597,-1.41165 0.444202,-1.81568 l -0.283356,-0.11737 -1.265955,0.34945 c -1.626154,0.44888 -4.113722,1.25795 -4.557783,1.48241 -0.575185,0.29073 -0.655449,0.95549 -0.173551,1.43739 l 0.289738,0.28974 0.436079,-0.0492 c 0.268289,-0.0302 0.385423,-0.0171 0.304426,0.0342 -0.19524,0.12365 -0.668567,0.0969 -0.944906,-0.0534 z m 1.154923,-0.0872 c 0.07363,-0.0787 1.707312,-0.6309 1.838922,-0.62157 0.05555,0.004 -0.255192,0.13043 -0.690537,0.28109 -1.046677,0.36223 -1.215593,0.41231 -1.148385,0.34048 z m 49.425532,-1.4848 c -0.14326,-0.0462 -4.9e-4,-0.0558 0.3594,-0.0242 l 0.59707,0.0524 0.25853,-0.22775 0.25853,-0.22774 -0.23047,0.26143 -0.23047,0.26143 -0.38746,-0.009 c -0.21311,-0.005 -0.49441,-0.0439 -0.62513,-0.0861 z m 1.42745,-0.85773 c -0.003,-0.8303 -0.0505,-0.85148 -3.70904,-1.64809 -2.5201,-0.54872 -2.71295,-0.57711 -3.02945,-0.44601 -0.71655,0.29681 -0.75674,1.37633 -0.0625,1.6788 0.15813,0.0689 0.23122,0.12694 0.16242,0.12899 -0.58877,0.0175 -1.01037,-1.04827 -0.62967,-1.5918 0.41986,-0.59944 0.53823,-0.59802 3.46414,0.0415 3.2435,0.70898 3.49014,0.78107 3.75686,1.09805 0.24537,0.2916 0.31024,0.76424 0.14086,1.02633 -0.067,0.10368 -0.0926,0.0251 -0.0936,-0.28781 z m -5.5153,-0.0449 c -0.54901,-0.11957 -0.92929,-0.22196 -0.84507,-0.22753 0.17309,-0.0115 2.10698,0.37014 2.16808,0.4278 0.0812,0.0767 -0.35353,0.0109 -1.32301,-0.20027 z m -36.170744,-0.46471 c -0.508514,-0.50852 -0.363992,-1.46053 0.260422,-1.71549 0.341224,-0.13932 3.417859,-0.64924 5.086283,-0.84299 1.489677,-0.17299 1.923888,0.0437 1.923888,0.96019 v 0.41396 l -0.277886,0.27789 c -0.158579,0.15858 -0.372862,0.2742 -0.499098,0.26931 l -0.221212,-0.009 0.304705,-0.0881 c 0.749343,-0.21668 0.79511,-1.42743 0.06446,-1.70523 -0.349884,-0.13302 -4.005716,0.34949 -6.189343,0.8169 -0.794689,0.17011 -0.814301,1.49402 -0.0264,1.78204 0.110598,0.0404 0.104294,0.0538 -0.02809,0.0596 -0.09388,0.004 -0.272857,-0.0947 -0.397732,-0.21954 z m 1.281416,0.081 c 0.339862,-0.0701 0.724881,-0.12587 0.855597,-0.12397 0.130716,0.002 -0.0404,0.0608 -0.380265,0.13087 -0.339862,0.0701 -0.724881,0.12587 -0.855597,0.12397 -0.130716,-0.002 0.0404,-0.0608 0.380265,-0.13087 z m 2.043926,-0.33473 c 0.209145,-0.0433 0.487214,-0.0762 0.61793,-0.0732 0.152457,0.004 0.101331,0.0337 -0.142599,0.0841 -0.209146,0.0433 -0.487215,0.0762 -0.617931,0.0732 -0.152456,-0.003 -0.101331,-0.0336 0.1426,-0.0841 z m 1.948859,-0.2846 c 0.235289,-0.0419 0.556137,-0.0739 0.712997,-0.0713 0.210366,0.004 0.172949,0.0248 -0.1426,0.081 -0.235289,0.0419 -0.556138,0.0739 -0.712997,0.0713 -0.210366,-0.004 -0.17295,-0.0248 0.1426,-0.081 z m 24.648003,-0.0865 c 0.19721,-0.0382 0.46696,-0.17134 0.59944,-0.2958 0.18214,-0.1711 0.22519,-0.1854 0.17655,-0.0586 -0.0853,0.22238 -0.53686,0.4485 -0.8684,0.43488 l -0.26616,-0.0109 z m -2.73522,-0.19383 -0.5704,-0.0631 0.47533,-0.006 c 0.26143,-0.003 0.73201,0.0262 1.04573,0.0651 l 0.5704,0.0708 -0.47533,-0.002 c -0.26144,-0.001 -0.73201,-0.0304 -1.04573,-0.0651 z m -1.40053,-0.16396 c 0.17087,-0.0212 0.42755,-0.0207 0.5704,9.7e-4 0.14285,0.0217 0.003,0.039 -0.31067,0.0385 -0.31372,-5.4e-4 -0.4306,-0.0183 -0.25973,-0.0394 z m -1.42518,-0.0959 c 0.2236,-0.0201 0.56584,-0.0198 0.76053,6.3e-4 0.19469,0.0204 0.0117,0.0369 -0.40655,0.0365 -0.41829,-3.5e-4 -0.57758,-0.0171 -0.35398,-0.0371 z m -13.339884,-0.25868 c -0.12834,-0.12834 -0.233345,-0.28135 -0.233345,-0.34003 0,-0.0587 0.109595,0.0236 0.243543,0.18275 l 0.243543,0.28944 1.063619,0.0303 1.063618,0.0303 -1.073817,0.0203 -1.073816,0.0203 z m 3.78889,0.0672 c 0.722065,-0.0162 1.87712,-0.0161 2.56679,9e-5 0.689669,0.0162 0.09889,0.0294 -1.312845,0.0294 -1.411735,-5e-5 -1.97601,-0.0133 -1.253945,-0.0295 z m 8.580344,-0.11208 c -0.40891,-0.45183 -0.35139,-1.13418 0.13251,-1.5721 l 0.2058,-0.18625 0.82589,0.022 c 0.81597,0.0217 2.84536,0.19727 4.75684,0.41149 l 0.9839,0.11027 0.26874,0.22614 c 0.3095,0.26042 0.42581,0.6532 0.29235,0.98728 l -0.0926,0.23191 -0.006,-0.36275 c -0.012,-0.72452 -0.20488,-0.86929 -1.34608,-1.01055 -2.7815,-0.34431 -5.29814,-0.52264 -5.619,-0.39817 -0.51589,0.20011 -0.71246,1.01794 -0.35415,1.47345 0.22842,0.29039 0.19545,0.33648 -0.0481,0.0673 z m -4.463774,-0.005 c 0.785071,-0.31721 0.745249,-1.49092 -0.05817,-1.7145 -0.42765,-0.11901 -2.62123,-0.11754 -5.276179,0.004 l -2.091458,0.0954 -0.237666,0.17495 c -0.130716,0.0962 -0.310204,0.36305 -0.398862,0.59295 l -0.161196,0.41801 -0.0052,-0.26616 c -0.0079,-0.40669 0.256535,-0.82699 0.61437,-0.97651 0.389437,-0.16271 5.108141,-0.33043 6.780316,-0.24099 l 1.077948,0.0577 0.229214,0.26673 c 0.458544,0.53361 0.09251,1.68622 -0.531317,1.67308 -0.08447,-0.002 -0.06076,-0.0361 0.05817,-0.0841 z"
         id="path43"
         inkscape:label="bubble-shadow" /><path
         style="fill:#070603"
         d="m 52.179236,183.93243 c -0.877694,-0.4757 -0.668167,-0.95923 1.238863,-2.85892 0.88252,-0.87913 1.818452,-1.8444 2.07985,-2.14504 l 0.475269,-0.54663 h 0.300705 c 0.763994,0 1.198663,0.63597 0.865184,1.26587 -0.147508,0.27863 -1.127617,1.46955 -1.49602,1.8178 -0.35549,0.33605 -0.393862,0.57418 -0.07982,0.49536 0.118554,-0.0298 0.450097,-0.1042 0.736764,-0.16542 0.286667,-0.0612 0.623237,-0.19125 0.747933,-0.28894 0.124695,-0.0977 0.295815,-0.17776 0.380265,-0.17794 0.239086,-5e-4 2.817706,-0.89524 4.104723,-1.42428 0.637867,-0.2622 1.276665,-0.47673 1.419549,-0.47673 0.252706,0 0.761049,0.39687 0.761049,0.59416 0,0.0511 0.129152,0.0739 0.287003,0.0508 0.451805,-0.0663 0.541755,0.15074 0.168502,0.40661 -0.172098,0.11797 -0.441245,0.32974 -0.598104,0.47059 -0.665403,0.59751 -5.566629,2.43651 -6.251718,2.34571 -0.196685,-0.0261 -0.581703,0.013 -0.855597,0.0868 -1.91454,0.51588 -3.88165,0.76851 -4.284397,0.55023 z m 14.531223,-5.40523 c -0.245285,-1.16509 -0.256958,-1.14412 1.203829,-2.16266 0.643777,-0.44887 1.705253,-1.24776 2.358833,-1.7753 l 1.188329,-0.95915 0.316278,-7.9e-4 c 0.584182,-0.001 1.12045,0.7754 0.88778,1.28606 -0.142555,0.31287 -2.228797,2.02715 -3.64589,2.99585 l -1.170687,0.80026 -0.538924,0.0519 -0.538924,0.0518 z m -7.992213,-2.85043 c -0.218839,-0.21884 -0.279655,-0.4342 -0.237495,-0.84101 0.0098,-0.0942 0.269874,-0.61532 0.578031,-1.15812 0.308156,-0.5428 0.910767,-1.66358 1.339134,-2.49064 0.856397,-1.65345 0.922768,-1.73398 1.432771,-1.73837 0.512006,-0.004 0.880784,0.33911 0.878912,0.81871 -0.0021,0.53077 -1.977516,4.36517 -2.74339,5.32501 l -0.253552,0.31776 h -0.380533 c -0.277269,0 -0.443857,-0.0633 -0.613878,-0.23334 z m 16.392941,-3.94693 c -0.824753,-0.44121 -0.739821,-0.87383 0.45928,-2.33944 0.511223,-0.62485 1.174012,-1.46183 1.472864,-1.85995 0.590137,-0.78616 0.670379,-0.84177 1.214683,-0.84177 h 0.364039 l 0.246117,0.29249 c 0.135364,0.16088 0.246116,0.35167 0.246116,0.42399 0,0.13168 0.191624,0.20016 1.31484,0.46991 0.906973,0.21782 1.029063,0.19911 1.15309,-0.1767 0.142903,-0.433 0.42525,-0.66865 0.792819,-0.6617 0.631763,0.012 5.731857,0.70389 5.926414,0.80405 0.455874,0.23469 0.557302,1.04842 0.184571,1.48075 l -0.229962,0.26673 -0.787287,-0.0266 c -0.433008,-0.0146 -1.580835,-0.13353 -2.550727,-0.26423 -2.787663,-0.37568 -2.952296,-0.41183 -3.230173,-0.70932 -0.181745,-0.19458 -0.390793,-0.28623 -0.814858,-0.35724 l -0.570398,-0.0955 -0.357655,0.14307 c -0.340162,0.13608 -0.482052,0.13305 -0.84828,-0.0181 -0.180619,-0.0746 -0.114062,-0.14491 -1.480914,1.56562 -1.707386,2.13669 -1.856977,2.2504 -2.504579,1.90397 z m 18.246541,-1.79873 -0.729499,-0.0577 -0.24493,-0.23047 c -0.416288,-0.39171 -0.248547,-1.32809 0.273466,-1.52656 0.12678,-0.0482 1.568595,-0.0606 3.320246,-0.0285 l 3.096156,0.0567 0.203663,0.21679 c 0.118683,0.12633 0.223244,0.3905 0.250589,0.63311 l 0.04693,0.41632 -0.239701,0.27883 -0.2397,0.27883 -2.503858,0.0102 c -1.377122,0.006 -2.832133,-0.0158 -3.233358,-0.0475 z m 10.264212,-0.2261 c -0.386,-0.1428 -0.55095,-0.36584 -0.55095,-0.745 0,-0.86252 0.22863,-1.00815 1.78152,-1.13477 0.66719,-0.0544 1.94362,-0.16127 2.8365,-0.23747 2.55763,-0.21829 2.76633,-0.17382 2.92576,0.62332 0.0429,0.21463 0.10952,0.28421 0.27305,0.28531 0.11895,8e-4 0.27553,0.039 0.34795,0.0848 l 0.13168,0.0834 -0.19673,0.10528 c -0.1082,0.0579 -0.28257,0.10529 -0.3875,0.10529 -0.10492,0 -0.2174,0.0431 -0.24994,0.0957 -0.17592,0.28464 -0.6966,0.38382 -2.96247,0.56433 -2.994,0.2385 -3.6829,0.26811 -3.94887,0.16973 z m 11.18781,-1.10983 c -0.10564,-0.029 -0.28808,-0.12134 -0.40543,-0.20524 l -0.21337,-0.15253 -0.0112,-0.49815 -0.0112,-0.49815 0.23311,-0.2331 c 0.24116,-0.24116 0.76087,-0.39295 2.07373,-0.60566 0.39215,-0.0635 1.48303,-0.28151 2.42419,-0.48438 2.25411,-0.48589 2.58742,-0.43209 2.75182,0.44419 0.0351,0.18702 0.0845,0.39405 0.10986,0.46009 0.14824,0.38632 -0.88136,0.71367 -4.33521,1.37836 -2.40022,0.46193 -2.38123,0.45906 -2.61625,0.39457 z m -51.683666,-2.5744 -0.287639,-0.28764 0.04144,-0.35406 c 0.02279,-0.19473 0.130882,-0.67491 0.2402,-1.06706 0.337853,-1.21195 0.511185,-2.01527 0.448476,-2.07848 -0.03301,-0.0333 -0.366829,-0.21024 -0.741815,-0.39324 l -0.681793,-0.33273 -0.106609,-0.32984 c -0.135726,-0.41994 -0.01837,-0.77642 0.36056,-1.09527 0.406898,-0.34238 0.612974,-0.30582 1.893026,0.33585 l 1.145857,0.5744 0.140401,0.33603 0.140401,0.33602 -0.205948,0.82454 c -0.23108,0.92515 -0.801694,2.87089 -0.961015,3.27697 -0.223878,0.57062 -0.97528,0.70477 -1.425542,0.25451 z m 61.429886,-0.0395 c 0,-0.0902 0.12247,-0.20082 0.2852,-0.25755 l 0.2852,-0.0994 v -0.50826 c 0,-0.74143 0.17638,-0.88718 1.66366,-1.37479 0.67973,-0.22285 1.968,-0.67757 2.86283,-1.01049 2.06093,-0.76677 2.39397,-0.77024 2.70136,-0.0281 l 0.12408,0.29956 0.41815,-0.0471 0.41815,-0.0471 -0.21512,0.22898 c -0.69518,0.74 -6.31483,2.9148 -7.40271,2.86485 -0.23529,-0.0108 -0.58822,0.0157 -0.7843,0.059 l -0.3565,0.0786 z m 10.26716,-3.90257 c 1.0107,-0.55226 0.9974,-0.53779 0.81616,-0.88827 -0.37424,-0.72368 -0.10885,-1.06655 1.5605,-2.01608 0.65358,-0.37177 1.72308,-1.02971 2.37666,-1.46211 1.85768,-1.22902 1.8128,-1.21949 2.48356,-0.52721 0.25492,0.26309 0.46349,0.50123 0.46349,0.5292 0,0.56654 -5.35766,4.03095 -6.2338,4.03095 -0.19223,0 -0.63766,0.14218 -1.02243,0.32634 -1.05468,0.50481 -1.364,0.50981 -0.44414,0.007 z m -77.279997,-3.37734 c -1.346239,-0.87012 -4.238903,-3.24854 -4.456879,-3.66456 -0.274305,-0.52353 0.293006,-1.27718 0.961395,-1.27718 0.353364,0 0.434597,0.0538 1.727863,1.14458 0.470578,0.3969 1.304785,1.05136 1.853792,1.45436 1.589999,1.16712 1.602854,1.17888 1.667902,1.52562 0.191314,1.01978 -0.757032,1.4616 -1.754073,0.81718 z m 86.406367,-2.25676 c 0,-0.0959 0.59716,-0.68859 0.69375,-0.68859 0.16097,0 0.0388,0.18081 -0.31349,0.4639 -0.20914,0.16807 -0.38026,0.26918 -0.38026,0.22469 z m 1.24451,-1.33055 c -0.94477,-0.45757 -0.90004,-0.92142 0.20525,-2.12856 1.0421,-1.13813 2.1619,-2.49545 2.67285,-3.23976 0.95862,-1.39645 2.64079,-0.5041 1.71614,0.91037 -0.68545,1.04859 -2.14607,2.82436 -3.31601,4.03151 -0.48738,0.50288 -0.8622,0.62793 -1.27823,0.42644 z m -95.185038,-3.49569 c -0.683227,-0.37109 -3.407357,-4.64861 -3.407357,-5.35034 0,-1.1963 1.32803,-1.15545 1.94094,0.0597 0.383818,0.76096 1.519688,2.50295 2.153217,3.30221 0.779435,0.98335 0.827221,1.33329 0.253611,1.8572 -0.334272,0.30531 -0.561532,0.33703 -0.940411,0.13124 z m 101.196818,-5.6977 c -0.61341,-0.26682 -0.63115,-0.53946 -0.13589,-2.08862 0.36653,-1.1465 0.70285,-2.65302 0.81862,-3.6669 0.0925,-0.81055 0.2225,-1.12858 0.52507,-1.28505 0.77841,-0.40253 1.60876,0.1452 1.47076,0.97017 -0.0246,0.14704 -0.11479,0.7807 -0.20044,1.40814 -0.15432,1.13055 -0.47959,2.39804 -0.95869,3.73572 -0.35955,1.00391 -0.76841,1.25323 -1.51943,0.92654 z M 45.038337,141.93787 c -0.393008,-0.39301 -0.713662,-2.57034 -0.716457,-4.86495 l -0.0019,-1.52368 0.146039,-0.20849 c 0.08032,-0.11468 0.317122,-0.25976 0.526223,-0.32241 l 0.380184,-0.11391 0.258074,0.19159 c 0.439666,0.32639 0.492791,0.544 0.494853,2.02705 0.0013,0.93243 0.06858,1.80911 0.207953,2.70939 0.255221,1.64864 0.253742,1.80333 -0.02003,2.09475 -0.304716,0.32435 -0.955848,0.3298 -1.274985,0.0107 z m 107.324493,-6.84573 c -0.43309,-0.19202 -0.51985,-0.35194 -0.71848,-1.32424 -0.2613,-1.2791 -0.6052,-2.42344 -1.10473,-3.67611 l -0.43451,-1.08962 0.0832,-0.33637 c 0.0612,-0.24755 0.17428,-0.38516 0.42831,-0.52118 l 0.34516,-0.18481 0.37887,0.11352 0.37888,0.11351 0.31049,0.68923 c 0.5354,1.18848 1.5311,4.3389 1.58782,5.02388 l 0.0519,0.62708 -0.27316,0.29643 c -0.3278,0.35572 -0.64908,0.43923 -1.03372,0.26868 z M 45.680786,131.42625 c -0.334916,-0.2069 -0.505166,-0.46323 -0.505166,-0.76058 0,-0.63139 2.117518,-5.23781 2.597058,-5.6496 0.281625,-0.24184 0.985702,-0.16652 1.226815,0.13124 0.368063,0.45454 0.335518,0.61345 -0.42631,2.08151 -0.740516,1.427 -0.989119,1.98934 -1.445107,3.2688 -0.354235,0.99395 -0.838544,1.3047 -1.44729,0.92863 z m 102.201124,-6.40374 c -0.11163,-0.0635 -0.36361,-0.32936 -0.55996,-0.59079 -0.53912,-0.71784 -1.11576,-1.38628 -2.39802,-2.77983 -1.23255,-1.33952 -1.3362,-1.54355 -1.01619,-2.00041 0.17733,-0.25319 0.61879,-0.49594 0.90188,-0.49594 0.35354,0 2.15459,1.87093 3.781,3.92771 l 0.58752,0.74299 v 0.38135 c 0,0.70174 -0.71025,1.14827 -1.29623,0.81492 z m -96.574514,-2.70277 c -0.556977,-0.13474 -0.867502,-0.86861 -0.564711,-1.3346 0.250965,-0.38622 2.420709,-2.58618 3.505128,-3.55393 l 0.944024,-0.84246 h 0.355843 c 0.244127,0 0.447671,0.0773 0.648336,0.24611 l 0.292493,0.24612 v 0.38718 0.38717 l -0.594164,0.52768 c -0.326791,0.29022 -1.348575,1.27565 -2.270633,2.18984 -1.469221,1.45669 -1.883706,1.81506 -2.07865,1.79723 -0.02614,-0.002 -0.133093,-0.025 -0.237666,-0.0503 z m 88.961034,-4.78316 c -0.11614,-0.0462 -0.69367,-0.41429 -1.2834,-0.81788 -0.58973,-0.40359 -1.62838,-1.06309 -2.3081,-1.46556 -1.55835,-0.92271 -1.75873,-1.10359 -1.75873,-1.5876 0,-0.48487 0.42068,-0.91747 0.89218,-0.91747 0.667,0 5.35617,3.03448 5.57383,3.60697 0.24716,0.65008 -0.49001,1.4307 -1.11578,1.18154 z m -80.703861,-2.36943 c -0.315395,-0.13285 -0.50927,-0.48317 -0.50927,-0.92023 v -0.39819 l 0.272012,-0.22235 c 0.149607,-0.1223 0.481151,-0.34878 0.736764,-0.5033 0.255613,-0.15453 0.74282,-0.44844 1.082682,-0.65314 1.2452,-0.74998 3.561148,-1.87037 3.86623,-1.87037 0.416107,0 0.887085,0.47215 0.887085,0.88929 0,0.48144 -0.225319,0.69154 -1.341205,1.25066 -1.214077,0.60831 -2.265426,1.19381 -3.440053,1.9158 -0.880335,0.5411 -1.219547,0.65281 -1.554245,0.51183 z m 69.844341,-3.47502 c -0.70336,-0.28706 -1.91397,-0.74246 -2.69024,-1.01201 -1.8033,-0.62618 -2.24433,-1.17051 -1.55287,-1.91661 0.40879,-0.4411 0.59054,-0.42429 2.36583,0.21869 4.30579,1.55951 4.90124,1.98681 4.09833,2.94101 -0.35658,0.42377 -0.70541,0.38748 -2.22105,-0.23108 z m -60.093764,-1.65564 c -0.469894,-0.4699 -0.382968,-1.13826 0.185403,-1.42554 0.444061,-0.22446 2.931629,-1.03353 4.557783,-1.48241 l 1.265955,-0.34945 0.283356,0.11737 c 0.512744,0.21239 0.732042,1.00035 0.393222,1.41289 -0.120767,0.14704 -0.804753,0.39523 -2.49549,0.90549 -1.281018,0.38661 -2.555302,0.79216 -2.831741,0.90123 -0.700324,0.27631 -1.021409,0.2575 -1.358488,-0.0796 z m 49.774514,-1.63025 c -0.62744,-0.15278 -1.88112,-0.4299 -2.78596,-0.61583 -2.25226,-0.46279 -2.59101,-0.73852 -2.0443,-1.66402 0.34707,-0.58754 0.46234,-0.58535 3.4518,0.0656 3.66381,0.79775 3.70759,0.8173 3.70759,1.65528 0,0.91008 -0.44686,1.01733 -2.32913,0.55901 z m -38.929644,-0.91688 c -0.787666,-0.28268 -0.767978,-1.61105 0.0264,-1.78109 2.183627,-0.46741 5.839459,-0.94992 6.189343,-0.8169 0.427672,0.1626 0.669519,0.90424 0.436721,1.33922 -0.157764,0.29479 -0.382389,0.36335 -1.866646,0.56972 -1.337917,0.18603 -4.194032,0.63447 -4.500616,0.70666 -0.07843,0.0185 -0.20677,0.0105 -0.285199,-0.0176 z m 29.082364,-0.82421 c -0.0481,-0.0445 -3.12152,-0.32503 -4.68928,-0.42798 l -1.13221,-0.0743 -0.22248,-0.25866 c -0.38822,-0.45133 -0.20403,-1.29001 0.3287,-1.49665 0.32086,-0.12447 2.8375,0.0539 5.619,0.39817 1.14885,0.1422 1.34005,0.28858 1.34005,1.02587 v 0.37806 l -0.29249,0.24612 c -0.2563,0.21566 -0.81241,0.33808 -0.95129,0.20941 z m -18.475416,-0.82784 c -0.350336,-0.41635 -0.235384,-1.04178 0.249922,-1.35977 0.39247,-0.25715 6.800731,-0.46735 7.58599,-0.24882 0.373207,0.10386 0.528649,0.30012 0.61896,0.78152 l 0.06157,0.32819 -0.250929,0.29822 c -0.327497,0.3892 -0.24421,0.38094 -4.439094,0.44057 l -3.581695,0.0509 z"
         id="path42" /></g></g></svg>
